<?xml version="1.0" encoding="UTF-8" standalone="no"?>
<!DOCTYPE svg PUBLIC "-//W3C//DTD SVG 1.1//EN"
 "http://www.w3.org/Graphics/SVG/1.1/DTD/svg11.dtd">
<!-- Generated by graphviz version 7.0.5 (20221223.1930)
 -->
<!-- Title: src/application/app_config.hpp Pages: 1 -->
<svg width="919pt" height="324pt"
 viewBox="0.00 0.00 918.56 324.00" xmlns="http://www.w3.org/2000/svg" xmlns:xlink="http://www.w3.org/1999/xlink">
<g id="graph0" class="graph" transform="scale(1 1) rotate(0) translate(4 320)">
<title>src/application/app_config.hpp</title>
<!-- Node1 -->
<g id="node1" class="node">
<title>Node1</title>
<g id="a_node1"><a xlink:title=" ">
<polygon fill="#999999" stroke="#666666" points="562.06,-316 464.06,-316 464.06,-286 562.06,-286 562.06,-316"/>
<text text-anchor="start" x="472.06" y="-304" font-family="Helvetica,sans-Serif" font-size="10.00">src/application/app</text>
<text text-anchor="middle" x="513.06" y="-293" font-family="Helvetica,sans-Serif" font-size="10.00">_config.hpp</text>
</a>
</g>
</g>
<!-- Node2 -->
<g id="node2" class="node">
<title>Node2</title>
<g id="a_node2"><a xlink:href="app__config__impl_8hpp.html" target="_top" xlink:title=" ">
<polygon fill="white" stroke="#666666" points="120.56,-250 13.56,-250 13.56,-220 120.56,-220 120.56,-250"/>
<text text-anchor="start" x="21.56" y="-238" font-family="Helvetica,sans-Serif" font-size="10.00">src/application/impl</text>
<text text-anchor="middle" x="67.06" y="-227" font-family="Helvetica,sans-Serif" font-size="10.00">/app_config_impl.hpp</text>
</a>
</g>
</g>
<!-- Node1&#45;&gt;Node2 -->
<g id="edge1" class="edge">
<title>Node1&#45;&gt;Node2</title>
<path fill="none" stroke="#63b8ff" d="M452.28,-291.28C364.71,-278.71 204.39,-255.71 120.87,-243.72"/>
<polygon fill="#63b8ff" stroke="#63b8ff" points="451.73,-294.74 462.13,-292.69 452.73,-287.81 451.73,-294.74"/>
</g>
<!-- Node5 -->
<g id="node5" class="node">
<title>Node5</title>
<g id="a_node5"><a xlink:href="block__producing__node__application_8hpp.html" target="_top" xlink:title=" ">
<polygon fill="white" stroke="#666666" points="616.06,-118 500.06,-118 500.06,-77 616.06,-77 616.06,-118"/>
<text text-anchor="start" x="508.06" y="-106" font-family="Helvetica,sans-Serif" font-size="10.00">src/application/impl</text>
<text text-anchor="start" x="508.06" y="-95" font-family="Helvetica,sans-Serif" font-size="10.00">/block_producing_node</text>
<text text-anchor="middle" x="558.06" y="-84" font-family="Helvetica,sans-Serif" font-size="10.00">_application.hpp</text>
</a>
</g>
</g>
<!-- Node1&#45;&gt;Node5 -->
<g id="edge4" class="edge">
<title>Node1&#45;&gt;Node5</title>
<path fill="none" stroke="#63b8ff" d="M535.38,-277.28C555.15,-255.44 582.59,-220.45 594.06,-184 598.06,-171.28 597.84,-166.79 594.06,-154 590.25,-141.11 582.4,-128.41 575,-118.42"/>
<polygon fill="#63b8ff" stroke="#63b8ff" points="532.99,-274.71 528.74,-284.42 538.12,-279.48 532.99,-274.71"/>
</g>
<!-- Node7 -->
<g id="node7" class="node">
<title>Node7</title>
<g id="a_node7"><a xlink:href="syncing__node__application_8hpp.html" target="_top" xlink:title=" ">
<polygon fill="white" stroke="#666666" points="791.56,-184 642.56,-184 642.56,-154 791.56,-154 791.56,-184"/>
<text text-anchor="start" x="650.56" y="-172" font-family="Helvetica,sans-Serif" font-size="10.00">src/application/impl</text>
<text text-anchor="middle" x="717.06" y="-161" font-family="Helvetica,sans-Serif" font-size="10.00">/syncing_node_application.hpp</text>
</a>
</g>
</g>
<!-- Node1&#45;&gt;Node7 -->
<g id="edge7" class="edge">
<title>Node1&#45;&gt;Node7</title>
<path fill="none" stroke="#63b8ff" d="M565.51,-281.36C585.79,-273.1 608.73,-262.42 628.06,-250 657.95,-230.79 687.62,-201.55 704.02,-184.25"/>
<polygon fill="#63b8ff" stroke="#63b8ff" points="564.28,-278.08 556.27,-285.02 566.86,-284.59 564.28,-278.08"/>
</g>
<!-- Node9 -->
<g id="node9" class="node">
<title>Node9</title>
<g id="a_node9"><a xlink:href="validating__node__application_8hpp.html" target="_top" xlink:title=" ">
<polygon fill="white" stroke="#666666" points="295.56,-184 138.56,-184 138.56,-154 295.56,-154 295.56,-184"/>
<text text-anchor="start" x="146.56" y="-172" font-family="Helvetica,sans-Serif" font-size="10.00">src/application/impl</text>
<text text-anchor="middle" x="217.06" y="-161" font-family="Helvetica,sans-Serif" font-size="10.00">/validating_node_application.hpp</text>
</a>
</g>
</g>
<!-- Node1&#45;&gt;Node9 -->
<g id="edge9" class="edge">
<title>Node1&#45;&gt;Node9</title>
<path fill="none" stroke="#63b8ff" d="M452.49,-288.09C417.23,-279.92 372.49,-267.39 335.06,-250 296.45,-232.07 256.45,-202.12 234.36,-184.4"/>
<polygon fill="#63b8ff" stroke="#63b8ff" points="451.58,-291.48 462.1,-290.26 453.12,-284.65 451.58,-291.48"/>
</g>
<!-- Node11 -->
<g id="node11" class="node">
<title>Node11</title>
<g id="a_node11"><a xlink:href="block__producing__node__injector_8hpp.html" target="_top" xlink:title=" ">
<polygon fill="white" stroke="#666666" points="585.56,-184 440.56,-184 440.56,-154 585.56,-154 585.56,-184"/>
<text text-anchor="start" x="448.56" y="-172" font-family="Helvetica,sans-Serif" font-size="10.00">src/injector/block</text>
<text text-anchor="middle" x="513.06" y="-161" font-family="Helvetica,sans-Serif" font-size="10.00">_producing_node_injector.hpp</text>
</a>
</g>
</g>
<!-- Node1&#45;&gt;Node11 -->
<g id="edge12" class="edge">
<title>Node1&#45;&gt;Node11</title>
<path fill="none" stroke="#63b8ff" d="M513.06,-274.38C513.06,-247.49 513.06,-206.18 513.06,-184.47"/>
<polygon fill="#63b8ff" stroke="#63b8ff" points="509.56,-274.08 513.06,-284.08 516.56,-274.08 509.56,-274.08"/>
</g>
<!-- Node13 -->
<g id="node13" class="node">
<title>Node13</title>
<g id="a_node13"><a xlink:href="syncing__node__injector_8hpp.html" target="_top" xlink:title=" ">
<polygon fill="white" stroke="#666666" points="781.56,-250 680.56,-250 680.56,-220 781.56,-220 781.56,-250"/>
<text text-anchor="start" x="688.56" y="-238" font-family="Helvetica,sans-Serif" font-size="10.00">src/injector/syncing</text>
<text text-anchor="middle" x="731.06" y="-227" font-family="Helvetica,sans-Serif" font-size="10.00">_node_injector.hpp</text>
</a>
</g>
</g>
<!-- Node1&#45;&gt;Node13 -->
<g id="edge15" class="edge">
<title>Node1&#45;&gt;Node13</title>
<path fill="none" stroke="#63b8ff" d="M573.07,-282.38C607.35,-272.32 649.79,-259.86 682.04,-250.39"/>
<polygon fill="#63b8ff" stroke="#63b8ff" points="572.32,-278.96 563.71,-285.13 574.29,-285.67 572.32,-278.96"/>
</g>
<!-- Node15 -->
<g id="node15" class="node">
<title>Node15</title>
<g id="a_node15"><a xlink:href="validating__node__injector_8hpp.html" target="_top" xlink:title=" ">
<polygon fill="white" stroke="#666666" points="453.56,-250 344.56,-250 344.56,-220 453.56,-220 453.56,-250"/>
<text text-anchor="start" x="352.56" y="-238" font-family="Helvetica,sans-Serif" font-size="10.00">src/injector/validating</text>
<text text-anchor="middle" x="399.06" y="-227" font-family="Helvetica,sans-Serif" font-size="10.00">_node_injector.hpp</text>
</a>
</g>
</g>
<!-- Node1&#45;&gt;Node15 -->
<g id="edge18" class="edge">
<title>Node1&#45;&gt;Node15</title>
<path fill="none" stroke="#63b8ff" d="M477.76,-280.18C460.55,-270.52 440.24,-259.12 424.56,-250.31"/>
<polygon fill="#63b8ff" stroke="#63b8ff" points="475.72,-283.05 486.16,-284.9 479.15,-276.95 475.72,-283.05"/>
</g>
<!-- Node3 -->
<g id="node3" class="node">
<title>Node3</title>
<g id="a_node3"><a xlink:href="app__delegate_8cpp.html" target="_top" xlink:title=" ">
<polygon fill="white" stroke="#666666" points="176.06,-30 60.06,-30 60.06,-11 176.06,-11 176.06,-30"/>
<text text-anchor="middle" x="118.06" y="-18" font-family="Helvetica,sans-Serif" font-size="10.00">node/app_delegate.cpp</text>
</a>
</g>
</g>
<!-- Node2&#45;&gt;Node3 -->
<g id="edge2" class="edge">
<title>Node2&#45;&gt;Node3</title>
<path fill="none" stroke="#63b8ff" d="M29.71,-213.13C19.49,-205.41 9.69,-195.65 4.06,-184 -1.74,-171.99 -0.58,-166.5 4.06,-154 24.85,-97.95 81.15,-49.7 106,-30.44"/>
<polygon fill="#63b8ff" stroke="#63b8ff" points="27.65,-215.96 37.86,-218.78 31.64,-210.21 27.65,-215.96"/>
</g>
<!-- Node4 -->
<g id="node4" class="node">
<title>Node4</title>
<g id="a_node4"><a xlink:href="app__config__impl_8cpp.html" target="_top" xlink:title=" ">
<polygon fill="white" stroke="#666666" points="120.56,-184 13.56,-184 13.56,-154 120.56,-154 120.56,-184"/>
<text text-anchor="start" x="21.56" y="-172" font-family="Helvetica,sans-Serif" font-size="10.00">src/application/impl</text>
<text text-anchor="middle" x="67.06" y="-161" font-family="Helvetica,sans-Serif" font-size="10.00">/app_config_impl.cpp</text>
</a>
</g>
</g>
<!-- Node2&#45;&gt;Node4 -->
<g id="edge3" class="edge">
<title>Node2&#45;&gt;Node4</title>
<path fill="none" stroke="#63b8ff" d="M67.06,-208.39C67.06,-200.13 67.06,-191.28 67.06,-184.16"/>
<polygon fill="#63b8ff" stroke="#63b8ff" points="63.56,-208.28 67.06,-218.28 70.56,-208.28 63.56,-208.28"/>
</g>
<!-- Node5&#45;&gt;Node3 -->
<g id="edge5" class="edge">
<title>Node5&#45;&gt;Node3</title>
<path fill="none" stroke="#63b8ff" d="M488.37,-76.79C372.22,-52.14 247.8,-36.05 176.48,-27.81"/>
<polygon fill="#63b8ff" stroke="#63b8ff" points="487.59,-80.2 498.1,-78.88 489.06,-73.36 487.59,-80.2"/>
</g>
<!-- Node6 -->
<g id="node6" class="node">
<title>Node6</title>
<g id="a_node6"><a xlink:href="block__producing__node__application_8cpp.html" target="_top" xlink:title=" ">
<polygon fill="white" stroke="#666666" points="616.06,-41 500.06,-41 500.06,0 616.06,0 616.06,-41"/>
<text text-anchor="start" x="508.06" y="-29" font-family="Helvetica,sans-Serif" font-size="10.00">src/application/impl</text>
<text text-anchor="start" x="508.06" y="-18" font-family="Helvetica,sans-Serif" font-size="10.00">/block_producing_node</text>
<text text-anchor="middle" x="558.06" y="-7" font-family="Helvetica,sans-Serif" font-size="10.00">_application.cpp</text>
</a>
</g>
</g>
<!-- Node5&#45;&gt;Node6 -->
<g id="edge6" class="edge">
<title>Node5&#45;&gt;Node6</title>
<path fill="none" stroke="#63b8ff" d="M558.06,-65.36C558.06,-57.24 558.06,-48.7 558.06,-41.33"/>
<polygon fill="#63b8ff" stroke="#63b8ff" points="554.56,-65.28 558.06,-75.28 561.56,-65.28 554.56,-65.28"/>
</g>
<!-- Node8 -->
<g id="node8" class="node">
<title>Node8</title>
<g id="a_node8"><a xlink:href="syncing__node__application_8cpp.html" target="_top" xlink:title=" ">
<polygon fill="white" stroke="#666666" points="791.56,-112.5 642.56,-112.5 642.56,-82.5 791.56,-82.5 791.56,-112.5"/>
<text text-anchor="start" x="650.56" y="-100.5" font-family="Helvetica,sans-Serif" font-size="10.00">src/application/impl</text>
<text text-anchor="middle" x="717.06" y="-89.5" font-family="Helvetica,sans-Serif" font-size="10.00">/syncing_node_application.cpp</text>
</a>
</g>
</g>
<!-- Node7&#45;&gt;Node8 -->
<g id="edge8" class="edge">
<title>Node7&#45;&gt;Node8</title>
<path fill="none" stroke="#63b8ff" d="M717.06,-142.26C717.06,-132.33 717.06,-121.36 717.06,-112.88"/>
<polygon fill="#63b8ff" stroke="#63b8ff" points="713.56,-142.09 717.06,-152.09 720.56,-142.09 713.56,-142.09"/>
</g>
<!-- Node9&#45;&gt;Node3 -->
<g id="edge10" class="edge">
<title>Node9&#45;&gt;Node3</title>
<path fill="none" stroke="#63b8ff" d="M171.34,-148.12C158.47,-140.45 145.65,-130.47 137.06,-118 118.07,-90.44 117.02,-48.52 117.57,-30.38"/>
<polygon fill="#63b8ff" stroke="#63b8ff" points="169.35,-151.02 179.8,-152.8 172.74,-144.89 169.35,-151.02"/>
</g>
<!-- Node10 -->
<g id="node10" class="node">
<title>Node10</title>
<g id="a_node10"><a xlink:href="validating__node__application_8cpp.html" target="_top" xlink:title=" ">
<polygon fill="white" stroke="#666666" points="303.56,-112.5 146.56,-112.5 146.56,-82.5 303.56,-82.5 303.56,-112.5"/>
<text text-anchor="start" x="154.56" y="-100.5" font-family="Helvetica,sans-Serif" font-size="10.00">src/application/impl</text>
<text text-anchor="middle" x="225.06" y="-89.5" font-family="Helvetica,sans-Serif" font-size="10.00">/validating_node_application.cpp</text>
</a>
</g>
</g>
<!-- Node9&#45;&gt;Node10 -->
<g id="edge11" class="edge">
<title>Node9&#45;&gt;Node10</title>
<path fill="none" stroke="#63b8ff" d="M220.02,-142.26C221.16,-132.33 222.43,-121.36 223.4,-112.88"/>
<polygon fill="#63b8ff" stroke="#63b8ff" points="216.56,-141.76 218.89,-152.1 223.51,-142.56 216.56,-141.76"/>
</g>
<!-- Node11&#45;&gt;Node5 -->
<g id="edge13" class="edge">
<title>Node11&#45;&gt;Node5</title>
<path fill="none" stroke="#63b8ff" d="M528.59,-144.02C533.99,-135.67 539.99,-126.4 545.16,-118.42"/>
<polygon fill="#63b8ff" stroke="#63b8ff" points="525.7,-142.03 523.21,-152.33 531.58,-145.84 525.7,-142.03"/>
</g>
<!-- Node12 -->
<g id="node12" class="node">
<title>Node12</title>
<g id="a_node12"><a xlink:href="block__producing__node__injector_8cpp.html" target="_top" xlink:title=" ">
<polygon fill="white" stroke="#666666" points="481.56,-112.5 336.56,-112.5 336.56,-82.5 481.56,-82.5 481.56,-112.5"/>
<text text-anchor="start" x="344.56" y="-100.5" font-family="Helvetica,sans-Serif" font-size="10.00">src/injector/block</text>
<text text-anchor="middle" x="409.06" y="-89.5" font-family="Helvetica,sans-Serif" font-size="10.00">_producing_node_injector.cpp</text>
</a>
</g>
</g>
<!-- Node11&#45;&gt;Node12 -->
<g id="edge14" class="edge">
<title>Node11&#45;&gt;Node12</title>
<path fill="none" stroke="#63b8ff" d="M482.19,-147.37C465.58,-136.27 445.49,-122.85 430.58,-112.88"/>
<polygon fill="#63b8ff" stroke="#63b8ff" points="479.99,-150.11 490.25,-152.76 483.88,-144.29 479.99,-150.11"/>
</g>
<!-- Node13&#45;&gt;Node7 -->
<g id="edge16" class="edge">
<title>Node13&#45;&gt;Node7</title>
<path fill="none" stroke="#63b8ff" d="M725.52,-208.68C723.7,-200.34 721.73,-191.37 720.16,-184.16"/>
<polygon fill="#63b8ff" stroke="#63b8ff" points="722.07,-209.3 727.63,-218.32 728.91,-207.8 722.07,-209.3"/>
</g>
<!-- Node14 -->
<g id="node14" class="node">
<title>Node14</title>
<g id="a_node14"><a xlink:href="syncing__node__injector_8cpp.html" target="_top" xlink:title=" ">
<polygon fill="white" stroke="#666666" points="910.56,-184 809.56,-184 809.56,-154 910.56,-154 910.56,-184"/>
<text text-anchor="start" x="817.56" y="-172" font-family="Helvetica,sans-Serif" font-size="10.00">src/injector/syncing</text>
<text text-anchor="middle" x="860.06" y="-161" font-family="Helvetica,sans-Serif" font-size="10.00">_node_injector.cpp</text>
</a>
</g>
</g>
<!-- Node13&#45;&gt;Node14 -->
<g id="edge17" class="edge">
<title>Node13&#45;&gt;Node14</title>
<path fill="none" stroke="#63b8ff" d="M770.19,-214.59C789.83,-204.84 813.22,-193.24 831.21,-184.31"/>
<polygon fill="#63b8ff" stroke="#63b8ff" points="768.77,-211.38 761.36,-218.96 771.88,-217.66 768.77,-211.38"/>
</g>
<!-- Node15&#45;&gt;Node9 -->
<g id="edge19" class="edge">
<title>Node15&#45;&gt;Node9</title>
<path fill="none" stroke="#63b8ff" d="M347.69,-215.94C319.34,-205.97 284.6,-193.75 258.08,-184.43"/>
<polygon fill="#63b8ff" stroke="#63b8ff" points="346.19,-219.12 356.79,-219.14 348.51,-212.52 346.19,-219.12"/>
</g>
<!-- Node15&#45;&gt;Node11 -->
<g id="edge20" class="edge">
<title>Node15&#45;&gt;Node11</title>
<path fill="none" stroke="#63b8ff" d="M434.36,-214.18C451.57,-204.52 471.88,-193.12 487.56,-184.31"/>
<polygon fill="#63b8ff" stroke="#63b8ff" points="432.97,-210.95 425.96,-218.9 436.4,-217.05 432.97,-210.95"/>
</g>
<!-- Node16 -->
<g id="node16" class="node">
<title>Node16</title>
<g id="a_node16"><a xlink:href="validating__node__injector_8cpp.html" target="_top" xlink:title=" ">
<polygon fill="white" stroke="#666666" points="422.56,-184 313.56,-184 313.56,-154 422.56,-154 422.56,-184"/>
<text text-anchor="start" x="321.56" y="-172" font-family="Helvetica,sans-Serif" font-size="10.00">src/injector/validating</text>
<text text-anchor="middle" x="368.06" y="-161" font-family="Helvetica,sans-Serif" font-size="10.00">_node_injector.cpp</text>
</a>
</g>
</g>
<!-- Node15&#45;&gt;Node16 -->
<g id="edge21" class="edge">
<title>Node15&#45;&gt;Node16</title>
<path fill="none" stroke="#63b8ff" d="M387.21,-209.54C383.06,-200.96 378.53,-191.61 374.92,-184.16"/>
<polygon fill="#63b8ff" stroke="#63b8ff" points="384.01,-210.96 391.52,-218.43 390.31,-207.91 384.01,-210.96"/>
</g>
</g>
</svg>
