<?xml version="1.0" encoding="UTF-8" standalone="no"?>
<!DOCTYPE svg PUBLIC "-//W3C//DTD SVG 1.1//EN"
 "http://www.w3.org/Graphics/SVG/1.1/DTD/svg11.dtd">
<!-- Generated by graphviz version 7.0.5 (20221223.1930)
 -->
<!-- Title: src/verification/authority/authority_update_observer_error.cpp Pages: 1 -->
<svg width="149pt" height="236pt"
 viewBox="0.00 0.00 149.00 236.00" xmlns="http://www.w3.org/2000/svg" xmlns:xlink="http://www.w3.org/1999/xlink">
<g id="graph0" class="graph" transform="scale(1 1) rotate(0) translate(4 232)">
<title>src/verification/authority/authority_update_observer_error.cpp</title>
<!-- Node1 -->
<g id="node1" class="node">
<title>Node1</title>
<g id="a_node1"><a xlink:title=" ">
<polygon fill="#999999" stroke="#666666" points="137.5,-228 3.5,-228 3.5,-187 137.5,-187 137.5,-228"/>
<text text-anchor="start" x="11.5" y="-216" font-family="Helvetica,sans-Serif" font-size="10.00">src/verification/authority</text>
<text text-anchor="start" x="11.5" y="-205" font-family="Helvetica,sans-Serif" font-size="10.00">/authority_update_observer</text>
<text text-anchor="middle" x="70.5" y="-194" font-family="Helvetica,sans-Serif" font-size="10.00">_error.cpp</text>
</a>
</g>
</g>
<!-- Node2 -->
<g id="node2" class="node">
<title>Node2</title>
<g id="a_node2"><a xlink:href="authority__update__observer__error_8hpp.html" target="_top" xlink:title=" ">
<polygon fill="white" stroke="#666666" points="137.5,-151 3.5,-151 3.5,-110 137.5,-110 137.5,-151"/>
<text text-anchor="start" x="11.5" y="-139" font-family="Helvetica,sans-Serif" font-size="10.00">verification/authority</text>
<text text-anchor="start" x="11.5" y="-128" font-family="Helvetica,sans-Serif" font-size="10.00">/authority_update_observer</text>
<text text-anchor="middle" x="70.5" y="-117" font-family="Helvetica,sans-Serif" font-size="10.00">_error.hpp</text>
</a>
</g>
</g>
<!-- Node1&#45;&gt;Node2 -->
<g id="edge1" class="edge">
<title>Node1&#45;&gt;Node2</title>
<path fill="none" stroke="#63b8ff" d="M70.5,-186.79C70.5,-179.45 70.5,-170.91 70.5,-162.78"/>
<polygon fill="#63b8ff" stroke="#63b8ff" points="74,-162.85 70.5,-152.85 67,-162.85 74,-162.85"/>
</g>
<!-- Node3 -->
<g id="node3" class="node">
<title>Node3</title>
<g id="a_node3"><a xlink:href="outcome_8hpp.html" target="_top" xlink:title=" ">
<polygon fill="white" stroke="#666666" points="127,-74 14,-74 14,-55 127,-55 127,-74"/>
<text text-anchor="middle" x="70.5" y="-62" font-family="Helvetica,sans-Serif" font-size="10.00">outcome/outcome.hpp</text>
</a>
</g>
</g>
<!-- Node2&#45;&gt;Node3 -->
<g id="edge2" class="edge">
<title>Node2&#45;&gt;Node3</title>
<path fill="none" stroke="#63b8ff" d="M70.5,-109.6C70.5,-101.98 70.5,-93.3 70.5,-85.66"/>
<polygon fill="#63b8ff" stroke="#63b8ff" points="74,-85.68 70.5,-75.68 67,-85.68 74,-85.68"/>
</g>
<!-- Node4 -->
<g id="node4" class="node">
<title>Node4</title>
<g id="a_node4"><a xlink:title=" ">
<polygon fill="#e0e0e0" stroke="#999999" points="141,-19 0,-19 0,0 141,0 141,-19"/>
<text text-anchor="middle" x="70.5" y="-7" font-family="Helvetica,sans-Serif" font-size="10.00">libp2p/outcome/outcome.hpp</text>
</a>
</g>
</g>
<!-- Node3&#45;&gt;Node4 -->
<g id="edge3" class="edge">
<title>Node3&#45;&gt;Node4</title>
<path fill="none" stroke="#63b8ff" d="M70.5,-54.75C70.5,-48.27 70.5,-39.16 70.5,-30.9"/>
<polygon fill="#63b8ff" stroke="#63b8ff" points="74,-30.96 70.5,-20.96 67,-30.96 74,-30.96"/>
</g>
</g>
</svg>
