<?xml version="1.0" encoding="UTF-8" standalone="no"?>
<!DOCTYPE svg PUBLIC "-//W3C//DTD SVG 1.1//EN"
 "http://www.w3.org/Graphics/SVG/1.1/DTD/svg11.dtd">
<!-- Generated by graphviz version 7.0.5 (20221223.1930)
 -->
<!-- Title: src/verification/authority/authority_manager_error.hpp Pages: 1 -->
<svg width="288pt" height="115pt"
 viewBox="0.00 0.00 288.00 115.00" xmlns="http://www.w3.org/2000/svg" xmlns:xlink="http://www.w3.org/1999/xlink">
<g id="graph0" class="graph" transform="scale(1 1) rotate(0) translate(4 111)">
<title>src/verification/authority/authority_manager_error.hpp</title>
<!-- Node1 -->
<g id="node1" class="node">
<title>Node1</title>
<g id="a_node1"><a xlink:title=" ">
<polygon fill="#999999" stroke="#666666" points="216,-107 74,-107 74,-77 216,-77 216,-107"/>
<text text-anchor="start" x="82" y="-95" font-family="Helvetica,sans-Serif" font-size="10.00">src/verification/authority</text>
<text text-anchor="middle" x="145" y="-84" font-family="Helvetica,sans-Serif" font-size="10.00">/authority_manager_error.hpp</text>
</a>
</g>
</g>
<!-- Node2 -->
<g id="node2" class="node">
<title>Node2</title>
<g id="a_node2"><a xlink:href="authority__manager__error_8cpp.html" target="_top" xlink:title=" ">
<polygon fill="white" stroke="#666666" points="142,-35.5 0,-35.5 0,-5.5 142,-5.5 142,-35.5"/>
<text text-anchor="start" x="8" y="-23.5" font-family="Helvetica,sans-Serif" font-size="10.00">src/verification/authority</text>
<text text-anchor="middle" x="71" y="-12.5" font-family="Helvetica,sans-Serif" font-size="10.00">/authority_manager_error.cpp</text>
</a>
</g>
</g>
<!-- Node1&#45;&gt;Node2 -->
<g id="edge1" class="edge">
<title>Node1&#45;&gt;Node2</title>
<path fill="none" stroke="#63b8ff" d="M121.37,-68.8C109.89,-58.02 96.43,-45.38 86.31,-35.88"/>
<polygon fill="#63b8ff" stroke="#63b8ff" points="118.88,-71.27 128.56,-75.56 123.67,-66.17 118.88,-71.27"/>
</g>
<!-- Node3 -->
<g id="node3" class="node">
<title>Node3</title>
<g id="a_node3"><a xlink:href="authority__manager__impl_8cpp.html" target="_top" xlink:title=" ">
<polygon fill="white" stroke="#666666" points="280,-41 160,-41 160,0 280,0 280,-41"/>
<text text-anchor="start" x="168" y="-29" font-family="Helvetica,sans-Serif" font-size="10.00">src/verification/authority</text>
<text text-anchor="start" x="168" y="-18" font-family="Helvetica,sans-Serif" font-size="10.00">/impl/authority_manager</text>
<text text-anchor="middle" x="220" y="-7" font-family="Helvetica,sans-Serif" font-size="10.00">_impl.cpp</text>
</a>
</g>
</g>
<!-- Node1&#45;&gt;Node3 -->
<g id="edge2" class="edge">
<title>Node1&#45;&gt;Node3</title>
<path fill="none" stroke="#63b8ff" d="M168.82,-68.93C178.34,-60.1 189.23,-50.01 198.51,-41.42"/>
<polygon fill="#63b8ff" stroke="#63b8ff" points="166.61,-66.21 161.65,-75.57 171.36,-71.34 166.61,-66.21"/>
</g>
</g>
</svg>
