<?xml version="1.0" encoding="UTF-8" standalone="no"?>
<!DOCTYPE svg PUBLIC "-//W3C//DTD SVG 1.1//EN"
 "http://www.w3.org/Graphics/SVG/1.1/DTD/svg11.dtd">
<!-- Generated by graphviz version 7.0.5 (20221223.1930)
 -->
<!-- Title: src/api/service/author/author_jrpc_processor.hpp Pages: 1 -->
<svg width="1239pt" height="346pt"
 viewBox="0.00 0.00 1239.00 346.00" xmlns="http://www.w3.org/2000/svg" xmlns:xlink="http://www.w3.org/1999/xlink">
<g id="graph0" class="graph" transform="scale(1 1) rotate(0) translate(4 342)">
<title>src/api/service/author/author_jrpc_processor.hpp</title>
<!-- Node1 -->
<g id="node1" class="node">
<title>Node1</title>
<g id="a_node1"><a xlink:title=" ">
<polygon fill="#999999" stroke="#666666" points="335.5,-338 201.5,-338 201.5,-308 335.5,-308 335.5,-338"/>
<text text-anchor="start" x="209.5" y="-326" font-family="Helvetica,sans-Serif" font-size="10.00">src/api/service/author</text>
<text text-anchor="middle" x="268.5" y="-315" font-family="Helvetica,sans-Serif" font-size="10.00">/author_jrpc_processor.hpp</text>
</a>
</g>
</g>
<!-- Node2 -->
<g id="node2" class="node">
<title>Node2</title>
<g id="a_node2"><a xlink:href="jrpc__processor_8hpp.html" target="_top" xlink:title=" ">
<polygon fill="white" stroke="#666666" points="170,-266.5 37,-266.5 37,-247.5 170,-247.5 170,-266.5"/>
<text text-anchor="middle" x="103.5" y="-254.5" font-family="Helvetica,sans-Serif" font-size="10.00">api/jrpc/jrpc_processor.hpp</text>
</a>
</g>
</g>
<!-- Node1&#45;&gt;Node2 -->
<g id="edge1" class="edge">
<title>Node1&#45;&gt;Node2</title>
<path fill="none" stroke="#63b8ff" d="M231.47,-307.64C203.24,-296.69 164.69,-281.73 137.3,-271.11"/>
<polygon fill="#63b8ff" stroke="#63b8ff" points="138.67,-267.89 128.08,-267.53 136.14,-274.41 138.67,-267.89"/>
</g>
<!-- Node4 -->
<g id="node4" class="node">
<title>Node4</title>
<g id="a_node4"><a xlink:href="jrpc__server__impl_8hpp.html" target="_top" xlink:title=" ">
<polygon fill="white" stroke="#666666" points="318,-272 219,-272 219,-242 318,-242 318,-272"/>
<text text-anchor="start" x="227" y="-260" font-family="Helvetica,sans-Serif" font-size="10.00">api/jrpc/jrpc_server</text>
<text text-anchor="middle" x="268.5" y="-249" font-family="Helvetica,sans-Serif" font-size="10.00">_impl.hpp</text>
</a>
</g>
</g>
<!-- Node1&#45;&gt;Node4 -->
<g id="edge3" class="edge">
<title>Node1&#45;&gt;Node4</title>
<path fill="none" stroke="#63b8ff" d="M268.5,-307.8C268.5,-300.67 268.5,-291.82 268.5,-283.56"/>
<polygon fill="#63b8ff" stroke="#63b8ff" points="272,-283.68 268.5,-273.68 265,-283.68 272,-283.68"/>
</g>
<!-- Node11 -->
<g id="node11" class="node">
<title>Node11</title>
<g id="a_node11"><a xlink:href="author__api_8hpp.html" target="_top" xlink:title=" ">
<polygon fill="white" stroke="#666666" points="831.5,-272 737.5,-272 737.5,-242 831.5,-242 831.5,-272"/>
<text text-anchor="start" x="745.5" y="-260" font-family="Helvetica,sans-Serif" font-size="10.00">api/service/author</text>
<text text-anchor="middle" x="784.5" y="-249" font-family="Helvetica,sans-Serif" font-size="10.00">/author_api.hpp</text>
</a>
</g>
</g>
<!-- Node1&#45;&gt;Node11 -->
<g id="edge10" class="edge">
<title>Node1&#45;&gt;Node11</title>
<path fill="none" stroke="#63b8ff" d="M335.96,-313.63C437.94,-300.98 629.67,-277.2 726.05,-265.25"/>
<polygon fill="#63b8ff" stroke="#63b8ff" points="726.33,-268.74 735.82,-264.04 725.47,-261.8 726.33,-268.74"/>
</g>
<!-- Node3 -->
<g id="node3" class="node">
<title>Node3</title>
<g id="a_node3"><a xlink:title=" ">
<polygon fill="#e0e0e0" stroke="#999999" points="129.5,-200.5 13.5,-200.5 13.5,-181.5 129.5,-181.5 129.5,-200.5"/>
<text text-anchor="middle" x="71.5" y="-188.5" font-family="Helvetica,sans-Serif" font-size="10.00">boost/noncopyable.hpp</text>
</a>
</g>
</g>
<!-- Node2&#45;&gt;Node3 -->
<g id="edge2" class="edge">
<title>Node2&#45;&gt;Node3</title>
<path fill="none" stroke="#63b8ff" d="M99.05,-247.1C94.42,-237.84 87.02,-223.04 81.05,-211.11"/>
<polygon fill="#63b8ff" stroke="#63b8ff" points="84.19,-209.56 76.59,-202.18 77.93,-212.69 84.19,-209.56"/>
</g>
<!-- Node5 -->
<g id="node5" class="node">
<title>Node5</title>
<g id="a_node5"><a xlink:title=" ">
<polygon fill="#e0e0e0" stroke="#999999" points="255,-200.5 148,-200.5 148,-181.5 255,-181.5 255,-200.5"/>
<text text-anchor="middle" x="201.5" y="-188.5" font-family="Helvetica,sans-Serif" font-size="10.00">jsonrpc&#45;lean/server.h</text>
</a>
</g>
</g>
<!-- Node4&#45;&gt;Node5 -->
<g id="edge4" class="edge">
<title>Node4&#45;&gt;Node5</title>
<path fill="none" stroke="#63b8ff" d="M253.63,-241.8C243.39,-232.01 229.74,-218.98 218.98,-208.7"/>
<polygon fill="#63b8ff" stroke="#63b8ff" points="221.5,-206.27 211.85,-201.89 216.67,-211.33 221.5,-206.27"/>
</g>
<!-- Node6 -->
<g id="node6" class="node">
<title>Node6</title>
<g id="a_node6"><a xlink:href="jrpc__server_8hpp.html" target="_top" xlink:title=" ">
<polygon fill="white" stroke="#666666" points="390,-200.5 273,-200.5 273,-181.5 390,-181.5 390,-200.5"/>
<text text-anchor="middle" x="331.5" y="-188.5" font-family="Helvetica,sans-Serif" font-size="10.00">api/jrpc/jrpc_server.hpp</text>
</a>
</g>
</g>
<!-- Node4&#45;&gt;Node6 -->
<g id="edge5" class="edge">
<title>Node4&#45;&gt;Node6</title>
<path fill="none" stroke="#63b8ff" d="M282.48,-241.8C292.01,-232.11 304.69,-219.24 314.76,-209.01"/>
<polygon fill="#63b8ff" stroke="#63b8ff" points="317.21,-211.5 321.73,-201.92 312.22,-206.59 317.21,-211.5"/>
</g>
<!-- Node7 -->
<g id="node7" class="node">
<title>Node7</title>
<g id="a_node7"><a xlink:title=" ">
<polygon fill="#e0e0e0" stroke="#999999" points="125,-140 0,-140 0,-121 125,-121 125,-140"/>
<text text-anchor="middle" x="62.5" y="-128" font-family="Helvetica,sans-Serif" font-size="10.00">jsonrpc&#45;lean/dispatcher.h</text>
</a>
</g>
</g>
<!-- Node6&#45;&gt;Node7 -->
<g id="edge6" class="edge">
<title>Node6&#45;&gt;Node7</title>
<path fill="none" stroke="#63b8ff" d="M290.35,-181.05C243.28,-170.82 166.12,-154.03 114.81,-142.88"/>
<polygon fill="#63b8ff" stroke="#63b8ff" points="115.64,-139.47 105.12,-140.77 114.15,-146.31 115.64,-139.47"/>
</g>
<!-- Node8 -->
<g id="node8" class="node">
<title>Node8</title>
<g id="a_node8"><a xlink:title=" ">
<polygon fill="#e0e0e0" stroke="#999999" points="262,-140 143,-140 143,-121 262,-121 262,-140"/>
<text text-anchor="middle" x="202.5" y="-128" font-family="Helvetica,sans-Serif" font-size="10.00">jsonrpc&#45;lean/response.h</text>
</a>
</g>
</g>
<!-- Node6&#45;&gt;Node8 -->
<g id="edge7" class="edge">
<title>Node6&#45;&gt;Node8</title>
<path fill="none" stroke="#63b8ff" d="M311.91,-181.12C290.79,-171.54 256.91,-156.18 232.45,-145.08"/>
<polygon fill="#63b8ff" stroke="#63b8ff" points="234.21,-142.04 223.66,-141.09 231.32,-148.41 234.21,-142.04"/>
</g>
<!-- Node9 -->
<g id="node9" class="node">
<title>Node9</title>
<g id="a_node9"><a xlink:title=" ">
<polygon fill="#e0e0e0" stroke="#999999" points="383,-140 280,-140 280,-121 383,-121 383,-140"/>
<text text-anchor="middle" x="331.5" y="-128" font-family="Helvetica,sans-Serif" font-size="10.00">jsonrpc&#45;lean/value.h</text>
</a>
</g>
</g>
<!-- Node6&#45;&gt;Node9 -->
<g id="edge8" class="edge">
<title>Node6&#45;&gt;Node9</title>
<path fill="none" stroke="#63b8ff" d="M331.5,-181.37C331.5,-173.5 331.5,-161.6 331.5,-151.39"/>
<polygon fill="#63b8ff" stroke="#63b8ff" points="335,-151.68 331.5,-141.68 328,-151.68 335,-151.68"/>
</g>
<!-- Node10 -->
<g id="node10" class="node">
<title>Node10</title>
<g id="a_node10"><a xlink:title=" ">
<polygon fill="#e0e0e0" stroke="#999999" points="460,-140 401,-140 401,-121 460,-121 460,-140"/>
<text text-anchor="middle" x="430.5" y="-128" font-family="Helvetica,sans-Serif" font-size="10.00">functional</text>
</a>
</g>
</g>
<!-- Node6&#45;&gt;Node10 -->
<g id="edge9" class="edge">
<title>Node6&#45;&gt;Node10</title>
<path fill="none" stroke="#63b8ff" d="M346.54,-181.12C362.16,-171.88 386.89,-157.27 405.47,-146.29"/>
<polygon fill="#63b8ff" stroke="#63b8ff" points="407.19,-149.34 414.02,-141.24 403.63,-143.31 407.19,-149.34"/>
</g>
<!-- Node12 -->
<g id="node12" class="node">
<title>Node12</title>
<g id="a_node12"><a xlink:href="blob_8hpp.html" target="_top" xlink:title=" ">
<polygon fill="white" stroke="#666666" points="762,-200.5 685,-200.5 685,-181.5 762,-181.5 762,-200.5"/>
<text text-anchor="middle" x="723.5" y="-188.5" font-family="Helvetica,sans-Serif" font-size="10.00">base/blob.hpp</text>
</a>
</g>
</g>
<!-- Node11&#45;&gt;Node12 -->
<g id="edge11" class="edge">
<title>Node11&#45;&gt;Node12</title>
<path fill="none" stroke="#63b8ff" d="M770.96,-241.8C761.73,-232.11 749.46,-219.24 739.71,-209.01"/>
<polygon fill="#63b8ff" stroke="#63b8ff" points="742.41,-206.76 732.97,-201.94 737.34,-211.59 742.41,-206.76"/>
</g>
<!-- Node22 -->
<g id="node22" class="node">
<title>Node22</title>
<g id="a_node22"><a xlink:href="extrinsic_8hpp.html" target="_top" xlink:title=" ">
<polygon fill="white" stroke="#666666" points="930.5,-200.5 814.5,-200.5 814.5,-181.5 930.5,-181.5 930.5,-200.5"/>
<text text-anchor="middle" x="872.5" y="-188.5" font-family="Helvetica,sans-Serif" font-size="10.00">primitives/extrinsic.hpp</text>
</a>
</g>
</g>
<!-- Node11&#45;&gt;Node22 -->
<g id="edge21" class="edge">
<title>Node11&#45;&gt;Node22</title>
<path fill="none" stroke="#63b8ff" d="M804.03,-241.8C818.02,-231.62 836.84,-217.93 851.22,-207.48"/>
<polygon fill="#63b8ff" stroke="#63b8ff" points="853.09,-210.45 859.12,-201.73 848.97,-204.79 853.09,-210.45"/>
</g>
<!-- Node26 -->
<g id="node26" class="node">
<title>Node26</title>
<g id="a_node26"><a xlink:href="author__api__primitives_8hpp.html" target="_top" xlink:title=" ">
<polygon fill="white" stroke="#666666" points="1063,-206 956,-206 956,-176 1063,-176 1063,-206"/>
<text text-anchor="start" x="964" y="-194" font-family="Helvetica,sans-Serif" font-size="10.00">primitives/author_api</text>
<text text-anchor="middle" x="1009.5" y="-183" font-family="Helvetica,sans-Serif" font-size="10.00">_primitives.hpp</text>
</a>
</g>
</g>
<!-- Node11&#45;&gt;Node26 -->
<g id="edge29" class="edge">
<title>Node11&#45;&gt;Node26</title>
<path fill="none" stroke="#63b8ff" d="M831.94,-242.51C865.59,-232.93 911.08,-220 947.58,-209.61"/>
<polygon fill="#63b8ff" stroke="#63b8ff" points="948.49,-212.99 957.15,-206.89 946.57,-206.26 948.49,-212.99"/>
</g>
<!-- Node13 -->
<g id="node13" class="node">
<title>Node13</title>
<g id="a_node13"><a xlink:title=" ">
<polygon fill="#e0e0e0" stroke="#999999" points="516.5,-140 478.5,-140 478.5,-121 516.5,-121 516.5,-140"/>
<text text-anchor="middle" x="497.5" y="-128" font-family="Helvetica,sans-Serif" font-size="10.00">array</text>
</a>
</g>
</g>
<!-- Node12&#45;&gt;Node13 -->
<g id="edge12" class="edge">
<title>Node12&#45;&gt;Node13</title>
<path fill="none" stroke="#63b8ff" d="M685.77,-181.04C648.09,-171.96 588.27,-157.22 527.67,-140.5"/>
<polygon fill="#63b8ff" stroke="#63b8ff" points="528.77,-137.18 518.2,-137.88 526.9,-143.92 528.77,-137.18"/>
</g>
<!-- Node14 -->
<g id="node14" class="node">
<title>Node14</title>
<g id="a_node14"><a xlink:title=" ">
<polygon fill="#e0e0e0" stroke="#999999" points="662.5,-140 534.5,-140 534.5,-121 662.5,-121 662.5,-140"/>
<text text-anchor="middle" x="598.5" y="-128" font-family="Helvetica,sans-Serif" font-size="10.00">boost/functional/hash.hpp</text>
</a>
</g>
</g>
<!-- Node12&#45;&gt;Node14 -->
<g id="edge13" class="edge">
<title>Node12&#45;&gt;Node14</title>
<path fill="none" stroke="#63b8ff" d="M704.52,-181.12C684.14,-171.58 651.52,-156.31 627.84,-145.23"/>
<polygon fill="#63b8ff" stroke="#63b8ff" points="629.58,-142.18 619.03,-141.11 626.61,-148.52 629.58,-142.18"/>
</g>
<!-- Node15 -->
<g id="node15" class="node">
<title>Node15</title>
<g id="a_node15"><a xlink:href="hexutil_8hpp.html" target="_top" xlink:title=" ">
<polygon fill="white" stroke="#666666" points="766.5,-140 680.5,-140 680.5,-121 766.5,-121 766.5,-140"/>
<text text-anchor="middle" x="723.5" y="-128" font-family="Helvetica,sans-Serif" font-size="10.00">base/hexutil.hpp</text>
</a>
</g>
</g>
<!-- Node12&#45;&gt;Node15 -->
<g id="edge14" class="edge">
<title>Node12&#45;&gt;Node15</title>
<path fill="none" stroke="#63b8ff" d="M723.5,-181.37C723.5,-173.5 723.5,-161.6 723.5,-151.39"/>
<polygon fill="#63b8ff" stroke="#63b8ff" points="727,-151.68 723.5,-141.68 720,-151.68 727,-151.68"/>
</g>
<!-- Node21 -->
<g id="node21" class="node">
<title>Node21</title>
<g id="a_node21"><a xlink:title=" ">
<polygon fill="#e0e0e0" stroke="#999999" points="838.5,-140 784.5,-140 784.5,-121 838.5,-121 838.5,-140"/>
<text text-anchor="middle" x="811.5" y="-128" font-family="Helvetica,sans-Serif" font-size="10.00">iostream</text>
</a>
</g>
</g>
<!-- Node12&#45;&gt;Node21 -->
<g id="edge20" class="edge">
<title>Node12&#45;&gt;Node21</title>
<path fill="none" stroke="#63b8ff" d="M736.87,-181.12C750.56,-172.01 772.12,-157.68 788.56,-146.75"/>
<polygon fill="#63b8ff" stroke="#63b8ff" points="790.36,-149.76 796.75,-141.31 786.48,-143.93 790.36,-149.76"/>
</g>
<!-- Node16 -->
<g id="node16" class="node">
<title>Node16</title>
<g id="a_node16"><a xlink:title=" ">
<polygon fill="#e0e0e0" stroke="#999999" points="686.5,-79.5 620.5,-79.5 620.5,-60.5 686.5,-60.5 686.5,-79.5"/>
<text text-anchor="middle" x="653.5" y="-67.5" font-family="Helvetica,sans-Serif" font-size="10.00">string_view</text>
</a>
</g>
</g>
<!-- Node15&#45;&gt;Node16 -->
<g id="edge15" class="edge">
<title>Node15&#45;&gt;Node16</title>
<path fill="none" stroke="#63b8ff" d="M712.87,-120.62C702.28,-111.77 685.79,-97.98 672.87,-87.19"/>
<polygon fill="#63b8ff" stroke="#63b8ff" points="675.31,-84.67 665.39,-80.94 670.82,-90.04 675.31,-84.67"/>
</g>
<!-- Node17 -->
<g id="node17" class="node">
<title>Node17</title>
<g id="a_node17"><a xlink:title=" ">
<polygon fill="#e0e0e0" stroke="#999999" points="748.5,-79.5 704.5,-79.5 704.5,-60.5 748.5,-60.5 748.5,-79.5"/>
<text text-anchor="middle" x="726.5" y="-67.5" font-family="Helvetica,sans-Serif" font-size="10.00">vector</text>
</a>
</g>
</g>
<!-- Node15&#45;&gt;Node17 -->
<g id="edge16" class="edge">
<title>Node15&#45;&gt;Node17</title>
<path fill="none" stroke="#63b8ff" d="M723.94,-120.87C724.35,-113 724.96,-101.1 725.48,-90.89"/>
<polygon fill="#63b8ff" stroke="#63b8ff" points="728.96,-91.35 725.98,-81.18 721.97,-90.99 728.96,-91.35"/>
</g>
<!-- Node18 -->
<g id="node18" class="node">
<title>Node18</title>
<g id="a_node18"><a xlink:title=" ">
<polygon fill="#e0e0e0" stroke="#999999" points="820,-79.5 767,-79.5 767,-60.5 820,-60.5 820,-79.5"/>
<text text-anchor="middle" x="793.5" y="-67.5" font-family="Helvetica,sans-Serif" font-size="10.00">gsl/span</text>
</a>
</g>
</g>
<!-- Node15&#45;&gt;Node18 -->
<g id="edge17" class="edge">
<title>Node15&#45;&gt;Node18</title>
<path fill="none" stroke="#63b8ff" d="M734.13,-120.62C744.72,-111.77 761.21,-97.98 774.13,-87.19"/>
<polygon fill="#63b8ff" stroke="#63b8ff" points="776.18,-90.04 781.61,-80.94 771.69,-84.67 776.18,-90.04"/>
</g>
<!-- Node19 -->
<g id="node19" class="node">
<title>Node19</title>
<g id="a_node19"><a xlink:href="outcome_8hpp.html" target="_top" xlink:title=" ">
<polygon fill="white" stroke="#666666" points="951,-79.5 838,-79.5 838,-60.5 951,-60.5 951,-79.5"/>
<text text-anchor="middle" x="894.5" y="-67.5" font-family="Helvetica,sans-Serif" font-size="10.00">outcome/outcome.hpp</text>
</a>
</g>
</g>
<!-- Node15&#45;&gt;Node19 -->
<g id="edge18" class="edge">
<title>Node15&#45;&gt;Node19</title>
<path fill="none" stroke="#63b8ff" d="M749.47,-120.62C778.22,-110.78 824.8,-94.84 857.39,-83.69"/>
<polygon fill="#63b8ff" stroke="#63b8ff" points="858.52,-87.01 866.85,-80.46 856.26,-80.38 858.52,-87.01"/>
</g>
<!-- Node20 -->
<g id="node20" class="node">
<title>Node20</title>
<g id="a_node20"><a xlink:title=" ">
<polygon fill="#e0e0e0" stroke="#999999" points="965,-19 824,-19 824,0 965,0 965,-19"/>
<text text-anchor="middle" x="894.5" y="-7" font-family="Helvetica,sans-Serif" font-size="10.00">libp2p/outcome/outcome.hpp</text>
</a>
</g>
</g>
<!-- Node19&#45;&gt;Node20 -->
<g id="edge19" class="edge">
<title>Node19&#45;&gt;Node20</title>
<path fill="none" stroke="#63b8ff" d="M894.5,-60.37C894.5,-52.5 894.5,-40.6 894.5,-30.39"/>
<polygon fill="#63b8ff" stroke="#63b8ff" points="898,-30.68 894.5,-20.68 891,-30.68 898,-30.68"/>
</g>
<!-- Node23 -->
<g id="node23" class="node">
<title>Node23</title>
<g id="a_node23"><a xlink:href="buffer_8hpp.html" target="_top" xlink:title=" ">
<polygon fill="white" stroke="#666666" points="940,-140 857,-140 857,-121 940,-121 940,-140"/>
<text text-anchor="middle" x="898.5" y="-128" font-family="Helvetica,sans-Serif" font-size="10.00">base/buffer.hpp</text>
</a>
</g>
</g>
<!-- Node22&#45;&gt;Node23 -->
<g id="edge22" class="edge">
<title>Node22&#45;&gt;Node23</title>
<path fill="none" stroke="#63b8ff" d="M876.34,-181.37C879.95,-173.25 885.47,-160.81 890.11,-150.39"/>
<polygon fill="#63b8ff" stroke="#63b8ff" points="893.17,-152.11 894.03,-141.55 886.77,-149.27 893.17,-152.11"/>
</g>
<!-- Node23&#45;&gt;Node16 -->
<g id="edge23" class="edge">
<title>Node23&#45;&gt;Node16</title>
<path fill="none" stroke="#63b8ff" d="M856.58,-121.66C815.31,-113.63 750.63,-100.19 695.5,-85 693.53,-84.46 691.51,-83.88 689.49,-83.27"/>
<polygon fill="#63b8ff" stroke="#63b8ff" points="690.72,-79.99 680.13,-80.33 688.62,-86.67 690.72,-79.99"/>
</g>
<!-- Node23&#45;&gt;Node17 -->
<g id="edge24" class="edge">
<title>Node23&#45;&gt;Node17</title>
<path fill="none" stroke="#63b8ff" d="M866.49,-120.57C837.67,-112.26 794.31,-99.06 757.5,-85 756.88,-84.76 756.25,-84.52 755.62,-84.27"/>
<polygon fill="#63b8ff" stroke="#63b8ff" points="757.34,-81.19 746.76,-80.54 754.62,-87.65 757.34,-81.19"/>
</g>
<!-- Node23&#45;&gt;Node18 -->
<g id="edge27" class="edge">
<title>Node23&#45;&gt;Node18</title>
<path fill="none" stroke="#63b8ff" d="M882.55,-120.62C865.82,-111.29 839.27,-96.5 819.5,-85.49"/>
<polygon fill="#63b8ff" stroke="#63b8ff" points="821.36,-82.51 810.92,-80.71 817.95,-88.63 821.36,-82.51"/>
</g>
<!-- Node23&#45;&gt;Node19 -->
<g id="edge28" class="edge">
<title>Node23&#45;&gt;Node19</title>
<path fill="none" stroke="#63b8ff" d="M897.91,-120.87C897.37,-113 896.56,-101.1 895.86,-90.89"/>
<polygon fill="#63b8ff" stroke="#63b8ff" points="899.37,-90.92 895.2,-81.18 892.39,-91.39 899.37,-90.92"/>
</g>
<!-- Node24 -->
<g id="node24" class="node">
<title>Node24</title>
<g id="a_node24"><a xlink:title=" ">
<polygon fill="#e0e0e0" stroke="#999999" points="1079.5,-85 969.5,-85 969.5,-55 1079.5,-55 1079.5,-85"/>
<text text-anchor="start" x="977.5" y="-73" font-family="Helvetica,sans-Serif" font-size="10.00">boost/container_hash</text>
<text text-anchor="middle" x="1024.5" y="-62" font-family="Helvetica,sans-Serif" font-size="10.00">/hash.hpp</text>
</a>
</g>
</g>
<!-- Node23&#45;&gt;Node24 -->
<g id="edge25" class="edge">
<title>Node23&#45;&gt;Node24</title>
<path fill="none" stroke="#63b8ff" d="M917.64,-120.62C934.91,-112.59 960.92,-100.52 982.96,-90.29"/>
<polygon fill="#63b8ff" stroke="#63b8ff" points="984.43,-93.46 992.03,-86.08 981.48,-87.11 984.43,-93.46"/>
</g>
<!-- Node25 -->
<g id="node25" class="node">
<title>Node25</title>
<g id="a_node25"><a xlink:title=" ">
<polygon fill="#e0e0e0" stroke="#999999" points="1199.5,-79.5 1097.5,-79.5 1097.5,-60.5 1199.5,-60.5 1199.5,-79.5"/>
<text text-anchor="middle" x="1148.5" y="-67.5" font-family="Helvetica,sans-Serif" font-size="10.00">boost/operators.hpp</text>
</a>
</g>
</g>
<!-- Node23&#45;&gt;Node25 -->
<g id="edge26" class="edge">
<title>Node23&#45;&gt;Node25</title>
<path fill="none" stroke="#63b8ff" d="M936.74,-120.55C980.3,-110.36 1051.6,-93.67 1099.28,-82.52"/>
<polygon fill="#63b8ff" stroke="#63b8ff" points="1099.85,-85.98 1108.79,-80.29 1098.25,-79.16 1099.85,-85.98"/>
</g>
<!-- Node27 -->
<g id="node27" class="node">
<title>Node27</title>
<g id="a_node27"><a xlink:title=" ">
<polygon fill="#e0e0e0" stroke="#999999" points="1009,-140 958,-140 958,-121 1009,-121 1009,-140"/>
<text text-anchor="middle" x="983.5" y="-128" font-family="Helvetica,sans-Serif" font-size="10.00">memory</text>
</a>
</g>
</g>
<!-- Node26&#45;&gt;Node27 -->
<g id="edge30" class="edge">
<title>Node26&#45;&gt;Node27</title>
<path fill="none" stroke="#63b8ff" d="M1003.07,-175.54C999.72,-168 995.58,-158.67 991.97,-150.55"/>
<polygon fill="#63b8ff" stroke="#63b8ff" points="995.23,-149.27 987.97,-141.56 988.83,-152.12 995.23,-149.27"/>
</g>
<!-- Node28 -->
<g id="node28" class="node">
<title>Node28</title>
<g id="a_node28"><a xlink:title=" ">
<polygon fill="#e0e0e0" stroke="#999999" points="1122,-140 1027,-140 1027,-121 1122,-121 1122,-140"/>
<text text-anchor="middle" x="1074.5" y="-128" font-family="Helvetica,sans-Serif" font-size="10.00">boost/optional.hpp</text>
</a>
</g>
</g>
<!-- Node26&#45;&gt;Node28 -->
<g id="edge31" class="edge">
<title>Node26&#45;&gt;Node28</title>
<path fill="none" stroke="#63b8ff" d="M1025.57,-175.54C1034.91,-167.13 1046.72,-156.51 1056.39,-147.8"/>
<polygon fill="#63b8ff" stroke="#63b8ff" points="1058.64,-150.48 1063.74,-141.19 1053.96,-145.28 1058.64,-150.48"/>
</g>
<!-- Node29 -->
<g id="node29" class="node">
<title>Node29</title>
<g id="a_node29"><a xlink:title=" ">
<polygon fill="#e0e0e0" stroke="#999999" points="1231,-140 1140,-140 1140,-121 1231,-121 1231,-140"/>
<text text-anchor="middle" x="1185.5" y="-128" font-family="Helvetica,sans-Serif" font-size="10.00">boost/variant.hpp</text>
</a>
</g>
</g>
<!-- Node26&#45;&gt;Node29 -->
<g id="edge32" class="edge">
<title>Node26&#45;&gt;Node29</title>
<path fill="none" stroke="#63b8ff" d="M1053.01,-175.54C1082.08,-165.87 1119.95,-153.29 1147.76,-144.04"/>
<polygon fill="#63b8ff" stroke="#63b8ff" points="1148.81,-147.39 1157.19,-140.91 1146.6,-140.74 1148.81,-147.39"/>
</g>
</g>
</svg>
