<?xml version="1.0" encoding="UTF-8" standalone="no"?>
<!DOCTYPE svg PUBLIC "-//W3C//DTD SVG 1.1//EN"
 "http://www.w3.org/Graphics/SVG/1.1/DTD/svg11.dtd">
<!-- Generated by graphviz version 7.0.5 (20221223.1930)
 -->
<!-- Title: src/api/service/author/author_jrpc_processor.cpp Pages: 1 -->
<svg width="1767pt" height="423pt"
 viewBox="0.00 0.00 1767.00 423.00" xmlns="http://www.w3.org/2000/svg" xmlns:xlink="http://www.w3.org/1999/xlink">
<g id="graph0" class="graph" transform="scale(1 1) rotate(0) translate(4 419)">
<title>src/api/service/author/author_jrpc_processor.cpp</title>
<!-- Node1 -->
<g id="node1" class="node">
<title>Node1</title>
<g id="a_node1"><a xlink:title=" ">
<polygon fill="#999999" stroke="#666666" points="1008,-415 874,-415 874,-385 1008,-385 1008,-415"/>
<text text-anchor="start" x="882" y="-403" font-family="Helvetica,sans-Serif" font-size="10.00">src/api/service/author</text>
<text text-anchor="middle" x="941" y="-392" font-family="Helvetica,sans-Serif" font-size="10.00">/author_jrpc_processor.cpp</text>
</a>
</g>
</g>
<!-- Node2 -->
<g id="node2" class="node">
<title>Node2</title>
<g id="a_node2"><a xlink:href="author__jrpc__processor_8hpp.html" target="_top" xlink:title=" ">
<polygon fill="white" stroke="#666666" points="618,-349 484,-349 484,-319 618,-319 618,-349"/>
<text text-anchor="start" x="492" y="-337" font-family="Helvetica,sans-Serif" font-size="10.00">api/service/author</text>
<text text-anchor="middle" x="551" y="-326" font-family="Helvetica,sans-Serif" font-size="10.00">/author_jrpc_processor.hpp</text>
</a>
</g>
</g>
<!-- Node1&#45;&gt;Node2 -->
<g id="edge1" class="edge">
<title>Node1&#45;&gt;Node2</title>
<path fill="none" stroke="#63b8ff" d="M873.51,-387.93C805.64,-376.79 701.05,-359.62 629.5,-347.88"/>
<polygon fill="#63b8ff" stroke="#63b8ff" points="630.24,-344.46 619.81,-346.29 629.11,-351.36 630.24,-344.46"/>
</g>
<!-- Node31 -->
<g id="node31" class="node">
<title>Node31</title>
<g id="a_node31"><a xlink:href="jrpc__method_8hpp.html" target="_top" xlink:title=" ">
<polygon fill="white" stroke="#666666" points="913,-343.5 791,-343.5 791,-324.5 913,-324.5 913,-343.5"/>
<text text-anchor="middle" x="852" y="-331.5" font-family="Helvetica,sans-Serif" font-size="10.00">api/jrpc/jrpc_method.hpp</text>
</a>
</g>
</g>
<!-- Node1&#45;&gt;Node31 -->
<g id="edge34" class="edge">
<title>Node1&#45;&gt;Node31</title>
<path fill="none" stroke="#63b8ff" d="M921.25,-384.8C907.1,-374.62 888.06,-360.93 873.53,-350.48"/>
<polygon fill="#63b8ff" stroke="#63b8ff" points="875.69,-347.72 865.53,-344.73 871.6,-353.41 875.69,-347.72"/>
</g>
<!-- Node34 -->
<g id="node34" class="node">
<title>Node34</title>
<g id="a_node34"><a xlink:href="value__converter_8hpp.html" target="_top" xlink:title=" ">
<polygon fill="white" stroke="#666666" points="921,-277.5 783,-277.5 783,-258.5 921,-258.5 921,-277.5"/>
<text text-anchor="middle" x="852" y="-265.5" font-family="Helvetica,sans-Serif" font-size="10.00">api/jrpc/value_converter.hpp</text>
</a>
</g>
</g>
<!-- Node1&#45;&gt;Node34 -->
<g id="edge52" class="edge">
<title>Node1&#45;&gt;Node34</title>
<path fill="none" stroke="#63b8ff" d="M940.59,-384.8C939.48,-367.81 935.54,-339.14 922,-319 911.88,-303.94 895.59,-291.91 881.28,-283.43"/>
<polygon fill="#63b8ff" stroke="#63b8ff" points="883.08,-280.43 872.64,-278.62 879.68,-286.55 883.08,-280.43"/>
</g>
<!-- Node40 -->
<g id="node40" class="node">
<title>Node40</title>
<g id="a_node40"><a xlink:href="pending__extrinsics_8hpp.html" target="_top" xlink:title=" ">
<polygon fill="white" stroke="#666666" points="1173,-349 1015,-349 1015,-319 1173,-319 1173,-349"/>
<text text-anchor="start" x="1023" y="-337" font-family="Helvetica,sans-Serif" font-size="10.00">api/service/author</text>
<text text-anchor="middle" x="1094" y="-326" font-family="Helvetica,sans-Serif" font-size="10.00">/requests/pending_extrinsics.hpp</text>
</a>
</g>
</g>
<!-- Node1&#45;&gt;Node40 -->
<g id="edge53" class="edge">
<title>Node1&#45;&gt;Node40</title>
<path fill="none" stroke="#63b8ff" d="M975.34,-384.64C997.11,-375.53 1025.51,-363.65 1049.07,-353.79"/>
<polygon fill="#63b8ff" stroke="#63b8ff" points="1050.24,-357.1 1058.12,-350.01 1047.54,-350.64 1050.24,-357.1"/>
</g>
<!-- Node41 -->
<g id="node41" class="node">
<title>Node41</title>
<g id="a_node41"><a xlink:href="submit__extrinsic_8hpp.html" target="_top" xlink:title=" ">
<polygon fill="white" stroke="#666666" points="1340.5,-349 1191.5,-349 1191.5,-319 1340.5,-319 1340.5,-349"/>
<text text-anchor="start" x="1199.5" y="-337" font-family="Helvetica,sans-Serif" font-size="10.00">api/service/author</text>
<text text-anchor="middle" x="1266" y="-326" font-family="Helvetica,sans-Serif" font-size="10.00">/requests/submit_extrinsic.hpp</text>
</a>
</g>
</g>
<!-- Node1&#45;&gt;Node41 -->
<g id="edge57" class="edge">
<title>Node1&#45;&gt;Node41</title>
<path fill="none" stroke="#63b8ff" d="M1008.34,-385.74C1058.5,-375.86 1127.35,-362.3 1181.26,-351.69"/>
<polygon fill="#63b8ff" stroke="#63b8ff" points="1181.9,-355.13 1191.04,-349.76 1180.55,-348.26 1181.9,-355.13"/>
</g>
<!-- Node3 -->
<g id="node3" class="node">
<title>Node3</title>
<g id="a_node3"><a xlink:href="jrpc__processor_8hpp.html" target="_top" xlink:title=" ">
<polygon fill="white" stroke="#666666" points="187.5,-277.5 54.5,-277.5 54.5,-258.5 187.5,-258.5 187.5,-277.5"/>
<text text-anchor="middle" x="121" y="-265.5" font-family="Helvetica,sans-Serif" font-size="10.00">api/jrpc/jrpc_processor.hpp</text>
</a>
</g>
</g>
<!-- Node2&#45;&gt;Node3 -->
<g id="edge2" class="edge">
<title>Node2&#45;&gt;Node3</title>
<path fill="none" stroke="#63b8ff" d="M483.81,-323C404.52,-311.2 273.23,-291.66 192.22,-279.6"/>
<polygon fill="#63b8ff" stroke="#63b8ff" points="193.03,-276.18 182.63,-278.17 192,-283.11 193.03,-276.18"/>
</g>
<!-- Node5 -->
<g id="node5" class="node">
<title>Node5</title>
<g id="a_node5"><a xlink:href="jrpc__server__impl_8hpp.html" target="_top" xlink:title=" ">
<polygon fill="white" stroke="#666666" points="367.5,-283 268.5,-283 268.5,-253 367.5,-253 367.5,-283"/>
<text text-anchor="start" x="276.5" y="-271" font-family="Helvetica,sans-Serif" font-size="10.00">api/jrpc/jrpc_server</text>
<text text-anchor="middle" x="318" y="-260" font-family="Helvetica,sans-Serif" font-size="10.00">_impl.hpp</text>
</a>
</g>
</g>
<!-- Node2&#45;&gt;Node5 -->
<g id="edge4" class="edge">
<title>Node2&#45;&gt;Node5</title>
<path fill="none" stroke="#63b8ff" d="M498.42,-318.56C462.87,-308.79 415.82,-295.87 378.68,-285.67"/>
<polygon fill="#63b8ff" stroke="#63b8ff" points="380.02,-282.41 369.45,-283.13 378.17,-289.16 380.02,-282.41"/>
</g>
<!-- Node12 -->
<g id="node12" class="node">
<title>Node12</title>
<g id="a_node12"><a xlink:href="author__api_8hpp.html" target="_top" xlink:title=" ">
<polygon fill="white" stroke="#666666" points="1148,-283 1054,-283 1054,-253 1148,-253 1148,-283"/>
<text text-anchor="start" x="1062" y="-271" font-family="Helvetica,sans-Serif" font-size="10.00">api/service/author</text>
<text text-anchor="middle" x="1101" y="-260" font-family="Helvetica,sans-Serif" font-size="10.00">/author_api.hpp</text>
</a>
</g>
</g>
<!-- Node2&#45;&gt;Node12 -->
<g id="edge11" class="edge">
<title>Node2&#45;&gt;Node12</title>
<path fill="none" stroke="#63b8ff" d="M618.44,-325.15C727.13,-312.51 939.22,-287.82 1042.15,-275.85"/>
<polygon fill="#63b8ff" stroke="#63b8ff" points="1042.52,-279.33 1052.05,-274.7 1041.72,-272.37 1042.52,-279.33"/>
</g>
<!-- Node4 -->
<g id="node4" class="node">
<title>Node4</title>
<g id="a_node4"><a xlink:title=" ">
<polygon fill="#e0e0e0" stroke="#999999" points="116,-211.5 0,-211.5 0,-192.5 116,-192.5 116,-211.5"/>
<text text-anchor="middle" x="58" y="-199.5" font-family="Helvetica,sans-Serif" font-size="10.00">boost/noncopyable.hpp</text>
</a>
</g>
</g>
<!-- Node3&#45;&gt;Node4 -->
<g id="edge3" class="edge">
<title>Node3&#45;&gt;Node4</title>
<path fill="none" stroke="#63b8ff" d="M112.24,-258.1C102.55,-248.26 86.73,-232.18 74.66,-219.93"/>
<polygon fill="#63b8ff" stroke="#63b8ff" points="77.26,-217.57 67.75,-212.9 72.27,-222.48 77.26,-217.57"/>
</g>
<!-- Node6 -->
<g id="node6" class="node">
<title>Node6</title>
<g id="a_node6"><a xlink:title=" ">
<polygon fill="#e0e0e0" stroke="#999999" points="241.5,-211.5 134.5,-211.5 134.5,-192.5 241.5,-192.5 241.5,-211.5"/>
<text text-anchor="middle" x="188" y="-199.5" font-family="Helvetica,sans-Serif" font-size="10.00">jsonrpc&#45;lean/server.h</text>
</a>
</g>
</g>
<!-- Node5&#45;&gt;Node6 -->
<g id="edge5" class="edge">
<title>Node5&#45;&gt;Node6</title>
<path fill="none" stroke="#63b8ff" d="M288.83,-252.64C267.18,-241.98 237.83,-227.53 216.37,-216.97"/>
<polygon fill="#63b8ff" stroke="#63b8ff" points="218.13,-213.93 207.61,-212.65 215.04,-220.21 218.13,-213.93"/>
</g>
<!-- Node7 -->
<g id="node7" class="node">
<title>Node7</title>
<g id="a_node7"><a xlink:href="jrpc__server_8hpp.html" target="_top" xlink:title=" ">
<polygon fill="white" stroke="#666666" points="376.5,-211.5 259.5,-211.5 259.5,-192.5 376.5,-192.5 376.5,-211.5"/>
<text text-anchor="middle" x="318" y="-199.5" font-family="Helvetica,sans-Serif" font-size="10.00">api/jrpc/jrpc_server.hpp</text>
</a>
</g>
</g>
<!-- Node5&#45;&gt;Node7 -->
<g id="edge6" class="edge">
<title>Node5&#45;&gt;Node7</title>
<path fill="none" stroke="#63b8ff" d="M318,-252.8C318,-244.09 318,-232.81 318,-223.18"/>
<polygon fill="#63b8ff" stroke="#63b8ff" points="321.5,-223.36 318,-213.36 314.5,-223.36 321.5,-223.36"/>
</g>
<!-- Node8 -->
<g id="node8" class="node">
<title>Node8</title>
<g id="a_node8"><a xlink:title=" ">
<polygon fill="#e0e0e0" stroke="#999999" points="350.5,-145.5 225.5,-145.5 225.5,-126.5 350.5,-126.5 350.5,-145.5"/>
<text text-anchor="middle" x="288" y="-133.5" font-family="Helvetica,sans-Serif" font-size="10.00">jsonrpc&#45;lean/dispatcher.h</text>
</a>
</g>
</g>
<!-- Node7&#45;&gt;Node8 -->
<g id="edge7" class="edge">
<title>Node7&#45;&gt;Node8</title>
<path fill="none" stroke="#63b8ff" d="M313.83,-192.1C309.49,-182.84 302.55,-168.04 296.96,-156.11"/>
<polygon fill="#63b8ff" stroke="#63b8ff" points="300.19,-154.76 292.78,-147.19 293.85,-157.73 300.19,-154.76"/>
</g>
<!-- Node9 -->
<g id="node9" class="node">
<title>Node9</title>
<g id="a_node9"><a xlink:title=" ">
<polygon fill="#e0e0e0" stroke="#999999" points="130.5,-145.5 11.5,-145.5 11.5,-126.5 130.5,-126.5 130.5,-145.5"/>
<text text-anchor="middle" x="71" y="-133.5" font-family="Helvetica,sans-Serif" font-size="10.00">jsonrpc&#45;lean/response.h</text>
</a>
</g>
</g>
<!-- Node7&#45;&gt;Node9 -->
<g id="edge8" class="edge">
<title>Node7&#45;&gt;Node9</title>
<path fill="none" stroke="#63b8ff" d="M283.4,-192.03C239.76,-180.73 164.63,-161.26 116.42,-148.77"/>
<polygon fill="#63b8ff" stroke="#63b8ff" points="117.39,-145.41 106.84,-146.29 115.64,-152.18 117.39,-145.41"/>
</g>
<!-- Node10 -->
<g id="node10" class="node">
<title>Node10</title>
<g id="a_node10"><a xlink:title=" ">
<polygon fill="#e0e0e0" stroke="#999999" points="471.5,-145.5 368.5,-145.5 368.5,-126.5 471.5,-126.5 471.5,-145.5"/>
<text text-anchor="middle" x="420" y="-133.5" font-family="Helvetica,sans-Serif" font-size="10.00">jsonrpc&#45;lean/value.h</text>
</a>
</g>
</g>
<!-- Node7&#45;&gt;Node10 -->
<g id="edge9" class="edge">
<title>Node7&#45;&gt;Node10</title>
<path fill="none" stroke="#63b8ff" d="M332.18,-192.1C348.78,-181.69 376.51,-164.29 396.37,-151.83"/>
<polygon fill="#63b8ff" stroke="#63b8ff" points="398.05,-154.91 404.66,-146.63 394.32,-148.98 398.05,-154.91"/>
</g>
<!-- Node11 -->
<g id="node11" class="node">
<title>Node11</title>
<g id="a_node11"><a xlink:title=" ">
<polygon fill="#e0e0e0" stroke="#999999" points="207.5,-145.5 148.5,-145.5 148.5,-126.5 207.5,-126.5 207.5,-145.5"/>
<text text-anchor="middle" x="178" y="-133.5" font-family="Helvetica,sans-Serif" font-size="10.00">functional</text>
</a>
</g>
</g>
<!-- Node7&#45;&gt;Node11 -->
<g id="edge10" class="edge">
<title>Node7&#45;&gt;Node11</title>
<path fill="none" stroke="#63b8ff" d="M298.53,-192.1C274.92,-181.31 234.88,-163 207.48,-150.48"/>
<polygon fill="#63b8ff" stroke="#63b8ff" points="209.23,-147.43 198.68,-146.45 206.32,-153.79 209.23,-147.43"/>
</g>
<!-- Node13 -->
<g id="node13" class="node">
<title>Node13</title>
<g id="a_node13"><a xlink:href="blob_8hpp.html" target="_top" xlink:title=" ">
<polygon fill="white" stroke="#666666" points="997.5,-211.5 920.5,-211.5 920.5,-192.5 997.5,-192.5 997.5,-211.5"/>
<text text-anchor="middle" x="959" y="-199.5" font-family="Helvetica,sans-Serif" font-size="10.00">base/blob.hpp</text>
</a>
</g>
</g>
<!-- Node12&#45;&gt;Node13 -->
<g id="edge12" class="edge">
<title>Node12&#45;&gt;Node13</title>
<path fill="none" stroke="#63b8ff" d="M1069.13,-252.64C1045.27,-241.88 1012.84,-227.27 989.35,-216.68"/>
<polygon fill="#63b8ff" stroke="#63b8ff" points="990.87,-213.53 980.32,-212.61 988,-219.91 990.87,-213.53"/>
</g>
<!-- Node23 -->
<g id="node23" class="node">
<title>Node23</title>
<g id="a_node23"><a xlink:href="extrinsic_8hpp.html" target="_top" xlink:title=" ">
<polygon fill="white" stroke="#666666" points="1402,-211.5 1286,-211.5 1286,-192.5 1402,-192.5 1402,-211.5"/>
<text text-anchor="middle" x="1344" y="-199.5" font-family="Helvetica,sans-Serif" font-size="10.00">primitives/extrinsic.hpp</text>
</a>
</g>
</g>
<!-- Node12&#45;&gt;Node23 -->
<g id="edge22" class="edge">
<title>Node12&#45;&gt;Node23</title>
<path fill="none" stroke="#63b8ff" d="M1148.43,-254.51C1192.05,-243.02 1256.25,-226.11 1299.06,-214.84"/>
<polygon fill="#63b8ff" stroke="#63b8ff" points="1299.75,-218.27 1308.53,-212.34 1297.97,-211.5 1299.75,-218.27"/>
</g>
<!-- Node27 -->
<g id="node27" class="node">
<title>Node27</title>
<g id="a_node27"><a xlink:href="author__api__primitives_8hpp.html" target="_top" xlink:title=" ">
<polygon fill="white" stroke="#666666" points="1267.5,-217 1160.5,-217 1160.5,-187 1267.5,-187 1267.5,-217"/>
<text text-anchor="start" x="1168.5" y="-205" font-family="Helvetica,sans-Serif" font-size="10.00">primitives/author_api</text>
<text text-anchor="middle" x="1214" y="-194" font-family="Helvetica,sans-Serif" font-size="10.00">_primitives.hpp</text>
</a>
</g>
</g>
<!-- Node12&#45;&gt;Node27 -->
<g id="edge30" class="edge">
<title>Node12&#45;&gt;Node27</title>
<path fill="none" stroke="#63b8ff" d="M1126.36,-252.64C1141.92,-243.83 1162.05,-232.42 1179.1,-222.77"/>
<polygon fill="#63b8ff" stroke="#63b8ff" points="1180.43,-226.03 1187.41,-218.06 1176.98,-219.94 1180.43,-226.03"/>
</g>
<!-- Node14 -->
<g id="node14" class="node">
<title>Node14</title>
<g id="a_node14"><a xlink:title=" ">
<polygon fill="#e0e0e0" stroke="#999999" points="918,-145.5 880,-145.5 880,-126.5 918,-126.5 918,-145.5"/>
<text text-anchor="middle" x="899" y="-133.5" font-family="Helvetica,sans-Serif" font-size="10.00">array</text>
</a>
</g>
</g>
<!-- Node13&#45;&gt;Node14 -->
<g id="edge13" class="edge">
<title>Node13&#45;&gt;Node14</title>
<path fill="none" stroke="#63b8ff" d="M950.66,-192.1C941.43,-182.26 926.36,-166.18 914.87,-153.93"/>
<polygon fill="#63b8ff" stroke="#63b8ff" points="917.7,-151.83 908.31,-146.93 912.59,-156.62 917.7,-151.83"/>
</g>
<!-- Node15 -->
<g id="node15" class="node">
<title>Node15</title>
<g id="a_node15"><a xlink:title=" ">
<polygon fill="#e0e0e0" stroke="#999999" points="1064,-145.5 936,-145.5 936,-126.5 1064,-126.5 1064,-145.5"/>
<text text-anchor="middle" x="1000" y="-133.5" font-family="Helvetica,sans-Serif" font-size="10.00">boost/functional/hash.hpp</text>
</a>
</g>
</g>
<!-- Node13&#45;&gt;Node15 -->
<g id="edge14" class="edge">
<title>Node13&#45;&gt;Node15</title>
<path fill="none" stroke="#63b8ff" d="M964.7,-192.1C970.76,-182.64 980.51,-167.42 988.23,-155.37"/>
<polygon fill="#63b8ff" stroke="#63b8ff" points="991.08,-157.41 993.53,-147.1 985.19,-153.63 991.08,-157.41"/>
</g>
<!-- Node16 -->
<g id="node16" class="node">
<title>Node16</title>
<g id="a_node16"><a xlink:href="hexutil_8hpp.html" target="_top" xlink:title=" ">
<polygon fill="white" stroke="#666666" points="1240,-145.5 1154,-145.5 1154,-126.5 1240,-126.5 1240,-145.5"/>
<text text-anchor="middle" x="1197" y="-133.5" font-family="Helvetica,sans-Serif" font-size="10.00">base/hexutil.hpp</text>
</a>
</g>
</g>
<!-- Node13&#45;&gt;Node16 -->
<g id="edge15" class="edge">
<title>Node13&#45;&gt;Node16</title>
<path fill="none" stroke="#63b8ff" d="M992.26,-192.06C1029.48,-182.06 1091.56,-165.38 1145,-151 1147.55,-150.31 1150.17,-149.61 1152.82,-148.9"/>
<polygon fill="#63b8ff" stroke="#63b8ff" points="1153.5,-152.34 1162.25,-146.36 1151.68,-145.58 1153.5,-152.34"/>
</g>
<!-- Node22 -->
<g id="node22" class="node">
<title>Node22</title>
<g id="a_node22"><a xlink:title=" ">
<polygon fill="#e0e0e0" stroke="#999999" points="1136,-145.5 1082,-145.5 1082,-126.5 1136,-126.5 1136,-145.5"/>
<text text-anchor="middle" x="1109" y="-133.5" font-family="Helvetica,sans-Serif" font-size="10.00">iostream</text>
</a>
</g>
</g>
<!-- Node13&#45;&gt;Node22 -->
<g id="edge21" class="edge">
<title>Node13&#45;&gt;Node22</title>
<path fill="none" stroke="#63b8ff" d="M979.86,-192.1C1005.27,-181.26 1048.44,-162.84 1077.81,-150.31"/>
<polygon fill="#63b8ff" stroke="#63b8ff" points="1079.1,-153.56 1086.93,-146.42 1076.36,-147.12 1079.1,-153.56"/>
</g>
<!-- Node17 -->
<g id="node17" class="node">
<title>Node17</title>
<g id="a_node17"><a xlink:title=" ">
<polygon fill="#e0e0e0" stroke="#999999" points="1399,-79.5 1333,-79.5 1333,-60.5 1399,-60.5 1399,-79.5"/>
<text text-anchor="middle" x="1366" y="-67.5" font-family="Helvetica,sans-Serif" font-size="10.00">string_view</text>
</a>
</g>
</g>
<!-- Node16&#45;&gt;Node17 -->
<g id="edge16" class="edge">
<title>Node16&#45;&gt;Node17</title>
<path fill="none" stroke="#63b8ff" d="M1220.5,-126.1C1249.43,-115.15 1298.78,-96.46 1331.88,-83.92"/>
<polygon fill="#63b8ff" stroke="#63b8ff" points="1332.9,-87.28 1341.01,-80.46 1330.42,-80.73 1332.9,-87.28"/>
</g>
<!-- Node18 -->
<g id="node18" class="node">
<title>Node18</title>
<g id="a_node18"><a xlink:title=" ">
<polygon fill="#e0e0e0" stroke="#999999" points="1005,-79.5 961,-79.5 961,-60.5 1005,-60.5 1005,-79.5"/>
<text text-anchor="middle" x="983" y="-67.5" font-family="Helvetica,sans-Serif" font-size="10.00">vector</text>
</a>
</g>
</g>
<!-- Node16&#45;&gt;Node18 -->
<g id="edge17" class="edge">
<title>Node16&#45;&gt;Node18</title>
<path fill="none" stroke="#63b8ff" d="M1167.24,-126.1C1127.56,-114.23 1057.53,-93.29 1016.19,-80.92"/>
<polygon fill="#63b8ff" stroke="#63b8ff" points="1017.37,-77.63 1006.78,-78.11 1015.36,-84.33 1017.37,-77.63"/>
</g>
<!-- Node19 -->
<g id="node19" class="node">
<title>Node19</title>
<g id="a_node19"><a xlink:title=" ">
<polygon fill="#e0e0e0" stroke="#999999" points="1497.5,-79.5 1444.5,-79.5 1444.5,-60.5 1497.5,-60.5 1497.5,-79.5"/>
<text text-anchor="middle" x="1471" y="-67.5" font-family="Helvetica,sans-Serif" font-size="10.00">gsl/span</text>
</a>
</g>
</g>
<!-- Node16&#45;&gt;Node19 -->
<g id="edge18" class="edge">
<title>Node16&#45;&gt;Node19</title>
<path fill="none" stroke="#63b8ff" d="M1230.32,-126.01C1236.83,-124.3 1243.62,-122.56 1250,-121 1267.64,-116.68 1374.85,-92.57 1433.21,-79.47"/>
<polygon fill="#63b8ff" stroke="#63b8ff" points="1433.73,-82.94 1442.72,-77.34 1432.19,-76.11 1433.73,-82.94"/>
</g>
<!-- Node20 -->
<g id="node20" class="node">
<title>Node20</title>
<g id="a_node20"><a xlink:href="outcome_8hpp.html" target="_top" xlink:title=" ">
<polygon fill="white" stroke="#666666" points="1260.5,-79.5 1147.5,-79.5 1147.5,-60.5 1260.5,-60.5 1260.5,-79.5"/>
<text text-anchor="middle" x="1204" y="-67.5" font-family="Helvetica,sans-Serif" font-size="10.00">outcome/outcome.hpp</text>
</a>
</g>
</g>
<!-- Node16&#45;&gt;Node20 -->
<g id="edge19" class="edge">
<title>Node16&#45;&gt;Node20</title>
<path fill="none" stroke="#63b8ff" d="M1197.97,-126.1C1198.96,-117.12 1200.51,-102.95 1201.79,-91.22"/>
<polygon fill="#63b8ff" stroke="#63b8ff" points="1205.26,-91.65 1202.87,-81.33 1198.3,-90.89 1205.26,-91.65"/>
</g>
<!-- Node21 -->
<g id="node21" class="node">
<title>Node21</title>
<g id="a_node21"><a xlink:title=" ">
<polygon fill="#e0e0e0" stroke="#999999" points="1274.5,-19 1133.5,-19 1133.5,0 1274.5,0 1274.5,-19"/>
<text text-anchor="middle" x="1204" y="-7" font-family="Helvetica,sans-Serif" font-size="10.00">libp2p/outcome/outcome.hpp</text>
</a>
</g>
</g>
<!-- Node20&#45;&gt;Node21 -->
<g id="edge20" class="edge">
<title>Node20&#45;&gt;Node21</title>
<path fill="none" stroke="#63b8ff" d="M1204,-60.37C1204,-52.5 1204,-40.6 1204,-30.39"/>
<polygon fill="#63b8ff" stroke="#63b8ff" points="1207.5,-30.68 1204,-20.68 1200.5,-30.68 1207.5,-30.68"/>
</g>
<!-- Node24 -->
<g id="node24" class="node">
<title>Node24</title>
<g id="a_node24"><a xlink:href="buffer_8hpp.html" target="_top" xlink:title=" ">
<polygon fill="white" stroke="#666666" points="1632.5,-145.5 1549.5,-145.5 1549.5,-126.5 1632.5,-126.5 1632.5,-145.5"/>
<text text-anchor="middle" x="1591" y="-133.5" font-family="Helvetica,sans-Serif" font-size="10.00">base/buffer.hpp</text>
</a>
</g>
</g>
<!-- Node23&#45;&gt;Node24 -->
<g id="edge23" class="edge">
<title>Node23&#45;&gt;Node24</title>
<path fill="none" stroke="#63b8ff" d="M1380.38,-192.05C1419.96,-182.24 1485.09,-165.92 1541,-151 1543.44,-150.35 1545.95,-149.67 1548.48,-148.98"/>
<polygon fill="#63b8ff" stroke="#63b8ff" points="1549.39,-152.36 1558.1,-146.33 1547.53,-145.61 1549.39,-152.36"/>
</g>
<!-- Node24&#45;&gt;Node17 -->
<g id="edge24" class="edge">
<title>Node24&#45;&gt;Node17</title>
<path fill="none" stroke="#63b8ff" d="M1559.71,-126.1C1520.28,-114.88 1452.34,-95.56 1408.3,-83.03"/>
<polygon fill="#63b8ff" stroke="#63b8ff" points="1409.41,-79.71 1398.84,-80.34 1407.5,-86.44 1409.41,-79.71"/>
</g>
<!-- Node24&#45;&gt;Node18 -->
<g id="edge25" class="edge">
<title>Node24&#45;&gt;Node18</title>
<path fill="none" stroke="#63b8ff" d="M1562.39,-126.02C1555.45,-124.11 1548,-122.28 1541,-121 1364.55,-88.68 1317.67,-101.02 1139,-85 1096.85,-81.22 1048.3,-76.86 1016.71,-74.03"/>
<polygon fill="#63b8ff" stroke="#63b8ff" points="1017.26,-70.56 1006.98,-73.15 1016.63,-77.53 1017.26,-70.56"/>
</g>
<!-- Node24&#45;&gt;Node19 -->
<g id="edge28" class="edge">
<title>Node24&#45;&gt;Node19</title>
<path fill="none" stroke="#63b8ff" d="M1574.31,-126.1C1554.43,-115.5 1520.97,-97.65 1497.52,-85.15"/>
<polygon fill="#63b8ff" stroke="#63b8ff" points="1499.35,-82.15 1488.88,-80.54 1496.06,-88.33 1499.35,-82.15"/>
</g>
<!-- Node24&#45;&gt;Node20 -->
<g id="edge29" class="edge">
<title>Node24&#45;&gt;Node20</title>
<path fill="none" stroke="#63b8ff" d="M1561.28,-126.02C1554.64,-124.2 1547.61,-122.41 1541,-121 1448.53,-101.28 1340.15,-86.69 1271.77,-78.51"/>
<polygon fill="#63b8ff" stroke="#63b8ff" points="1272.58,-75.09 1262.24,-77.39 1271.76,-82.04 1272.58,-75.09"/>
</g>
<!-- Node25 -->
<g id="node25" class="node">
<title>Node25</title>
<g id="a_node25"><a xlink:title=" ">
<polygon fill="#e0e0e0" stroke="#999999" points="1639,-85 1529,-85 1529,-55 1639,-55 1639,-85"/>
<text text-anchor="start" x="1537" y="-73" font-family="Helvetica,sans-Serif" font-size="10.00">boost/container_hash</text>
<text text-anchor="middle" x="1584" y="-62" font-family="Helvetica,sans-Serif" font-size="10.00">/hash.hpp</text>
</a>
</g>
</g>
<!-- Node24&#45;&gt;Node25 -->
<g id="edge26" class="edge">
<title>Node24&#45;&gt;Node25</title>
<path fill="none" stroke="#63b8ff" d="M1590.03,-126.1C1589.19,-118.41 1587.93,-106.92 1586.78,-96.42"/>
<polygon fill="#63b8ff" stroke="#63b8ff" points="1590.29,-96.3 1585.72,-86.74 1583.33,-97.06 1590.29,-96.3"/>
</g>
<!-- Node26 -->
<g id="node26" class="node">
<title>Node26</title>
<g id="a_node26"><a xlink:title=" ">
<polygon fill="#e0e0e0" stroke="#999999" points="1759,-79.5 1657,-79.5 1657,-60.5 1759,-60.5 1759,-79.5"/>
<text text-anchor="middle" x="1708" y="-67.5" font-family="Helvetica,sans-Serif" font-size="10.00">boost/operators.hpp</text>
</a>
</g>
</g>
<!-- Node24&#45;&gt;Node26 -->
<g id="edge27" class="edge">
<title>Node24&#45;&gt;Node26</title>
<path fill="none" stroke="#63b8ff" d="M1607.27,-126.1C1626.57,-115.55 1658.99,-97.81 1681.83,-85.32"/>
<polygon fill="#63b8ff" stroke="#63b8ff" points="1683.45,-88.42 1690.54,-80.55 1680.09,-82.28 1683.45,-88.42"/>
</g>
<!-- Node28 -->
<g id="node28" class="node">
<title>Node28</title>
<g id="a_node28"><a xlink:title=" ">
<polygon fill="#e0e0e0" stroke="#999999" points="1309.5,-145.5 1258.5,-145.5 1258.5,-126.5 1309.5,-126.5 1309.5,-145.5"/>
<text text-anchor="middle" x="1284" y="-133.5" font-family="Helvetica,sans-Serif" font-size="10.00">memory</text>
</a>
</g>
</g>
<!-- Node27&#45;&gt;Node28 -->
<g id="edge31" class="edge">
<title>Node27&#45;&gt;Node28</title>
<path fill="none" stroke="#63b8ff" d="M1229.54,-186.8C1240.34,-176.92 1254.78,-163.72 1266.07,-153.39"/>
<polygon fill="#63b8ff" stroke="#63b8ff" points="1268.19,-156.2 1273.21,-146.87 1263.47,-151.03 1268.19,-156.2"/>
</g>
<!-- Node29 -->
<g id="node29" class="node">
<title>Node29</title>
<g id="a_node29"><a xlink:title=" ">
<polygon fill="#e0e0e0" stroke="#999999" points="1422.5,-145.5 1327.5,-145.5 1327.5,-126.5 1422.5,-126.5 1422.5,-145.5"/>
<text text-anchor="middle" x="1375" y="-133.5" font-family="Helvetica,sans-Serif" font-size="10.00">boost/optional.hpp</text>
</a>
</g>
</g>
<!-- Node27&#45;&gt;Node29 -->
<g id="edge32" class="edge">
<title>Node27&#45;&gt;Node29</title>
<path fill="none" stroke="#63b8ff" d="M1250.13,-186.64C1277.67,-175.69 1315.29,-160.73 1342.02,-150.11"/>
<polygon fill="#63b8ff" stroke="#63b8ff" points="1342.99,-153.49 1350.99,-146.54 1340.4,-146.99 1342.99,-153.49"/>
</g>
<!-- Node30 -->
<g id="node30" class="node">
<title>Node30</title>
<g id="a_node30"><a xlink:title=" ">
<polygon fill="#e0e0e0" stroke="#999999" points="1531.5,-145.5 1440.5,-145.5 1440.5,-126.5 1531.5,-126.5 1531.5,-145.5"/>
<text text-anchor="middle" x="1486" y="-133.5" font-family="Helvetica,sans-Serif" font-size="10.00">boost/variant.hpp</text>
</a>
</g>
</g>
<!-- Node27&#45;&gt;Node30 -->
<g id="edge33" class="edge">
<title>Node27&#45;&gt;Node30</title>
<path fill="none" stroke="#63b8ff" d="M1267.73,-188.86C1321.77,-176.61 1401.35,-158.49 1432,-151 1434.94,-150.28 1437.97,-149.53 1441.02,-148.76"/>
<polygon fill="#63b8ff" stroke="#63b8ff" points="1441.75,-152.19 1450.58,-146.33 1440.02,-145.41 1441.75,-152.19"/>
</g>
<!-- Node31&#45;&gt;Node8 -->
<g id="edge35" class="edge">
<title>Node31&#45;&gt;Node8</title>
<path fill="none" stroke="#63b8ff" d="M809,-324.03C768.17,-315.1 705.29,-300.26 652,-283 525.16,-241.92 379.4,-178.26 317.87,-150.6"/>
<polygon fill="#63b8ff" stroke="#63b8ff" points="319.32,-147.42 308.76,-146.49 316.44,-153.8 319.32,-147.42"/>
</g>
<!-- Node31&#45;&gt;Node28 -->
<g id="edge37" class="edge">
<title>Node31&#45;&gt;Node28</title>
<path fill="none" stroke="#63b8ff" d="M868.98,-324.01C914.27,-300.19 1042.02,-234.04 1152,-187 1194.28,-168.92 1206.09,-167.54 1249,-151 1249.78,-150.7 1250.57,-150.39 1251.36,-150.09"/>
<polygon fill="#63b8ff" stroke="#63b8ff" points="1252.38,-153.45 1260.41,-146.53 1249.82,-146.93 1252.38,-153.45"/>
</g>
<!-- Node32 -->
<g id="node32" class="node">
<title>Node32</title>
<g id="a_node32"><a xlink:title=" ">
<polygon fill="#e0e0e0" stroke="#999999" points="1316,-277.5 1204,-277.5 1204,-258.5 1316,-258.5 1316,-277.5"/>
<text text-anchor="middle" x="1260" y="-265.5" font-family="Helvetica,sans-Serif" font-size="10.00">jsonrpc&#45;lean/request.h</text>
</a>
</g>
</g>
<!-- Node31&#45;&gt;Node32 -->
<g id="edge36" class="edge">
<title>Node31&#45;&gt;Node32</title>
<path fill="none" stroke="#63b8ff" d="M909.16,-324.03C983.47,-312.38 1113.08,-292.05 1192.25,-279.63"/>
<polygon fill="#63b8ff" stroke="#63b8ff" points="1192.72,-283.1 1202.06,-278.09 1191.64,-276.18 1192.72,-283.1"/>
</g>
<!-- Node33 -->
<g id="node33" class="node">
<title>Node33</title>
<g id="a_node33"><a xlink:title=" ">
<polygon fill="#e0e0e0" stroke="#999999" points="552,-145.5 490,-145.5 490,-126.5 552,-126.5 552,-145.5"/>
<text text-anchor="middle" x="521" y="-133.5" font-family="Helvetica,sans-Serif" font-size="10.00">type_traits</text>
</a>
</g>
</g>
<!-- Node31&#45;&gt;Node33 -->
<g id="edge38" class="edge">
<title>Node31&#45;&gt;Node33</title>
<path fill="none" stroke="#63b8ff" d="M822.64,-324.05C772.72,-307.93 669.48,-270.64 595,-217 570.49,-199.35 547.77,-172.59 534.14,-154.96"/>
<polygon fill="#63b8ff" stroke="#63b8ff" points="536.94,-152.86 528.13,-146.98 531.35,-157.07 536.94,-152.86"/>
</g>
<!-- Node31&#45;&gt;Node34 -->
<g id="edge39" class="edge">
<title>Node31&#45;&gt;Node34</title>
<path fill="none" stroke="#63b8ff" d="M852,-324.1C852,-315.12 852,-300.95 852,-289.22"/>
<polygon fill="#63b8ff" stroke="#63b8ff" points="855.5,-289.34 852,-279.34 848.5,-289.34 855.5,-289.34"/>
</g>
<!-- Node34&#45;&gt;Node10 -->
<g id="edge41" class="edge">
<title>Node34&#45;&gt;Node10</title>
<path fill="none" stroke="#63b8ff" d="M782.71,-258.06C730.34,-250.22 657.11,-236.93 595,-217 539.89,-199.32 479.22,-168.93 445.76,-151.13"/>
<polygon fill="#63b8ff" stroke="#63b8ff" points="447.69,-148.19 437.23,-146.54 444.38,-154.36 447.69,-148.19"/>
</g>
<!-- Node34&#45;&gt;Node13 -->
<g id="edge42" class="edge">
<title>Node34&#45;&gt;Node13</title>
<path fill="none" stroke="#63b8ff" d="M866.88,-258.1C884.37,-247.64 913.64,-230.13 934.5,-217.66"/>
<polygon fill="#63b8ff" stroke="#63b8ff" points="936.16,-220.74 942.95,-212.6 932.57,-214.73 936.16,-220.74"/>
</g>
<!-- Node34&#45;&gt;Node18 -->
<g id="edge40" class="edge">
<title>Node34&#45;&gt;Node18</title>
<path fill="none" stroke="#63b8ff" d="M850.4,-258.02C846.55,-233.37 839.24,-163.64 871,-121 889.75,-95.82 924.05,-83.06 949.77,-76.77"/>
<polygon fill="#63b8ff" stroke="#63b8ff" points="950.41,-80.21 959.42,-74.63 948.9,-73.37 950.41,-80.21"/>
</g>
<!-- Node34&#45;&gt;Node23 -->
<g id="edge47" class="edge">
<title>Node34&#45;&gt;Node23</title>
<path fill="none" stroke="#63b8ff" d="M921.46,-260.74C1005.83,-252.7 1152.35,-237.31 1277,-217 1282.22,-216.15 1287.66,-215.17 1293.07,-214.13"/>
<polygon fill="#63b8ff" stroke="#63b8ff" points="1293.46,-217.62 1302.59,-212.24 1292.1,-210.76 1293.46,-217.62"/>
</g>
<!-- Node35 -->
<g id="node35" class="node">
<title>Node35</title>
<g id="a_node35"><a xlink:href="visitor_8hpp.html" target="_top" xlink:title=" ">
<polygon fill="white" stroke="#666666" points="689.5,-211.5 604.5,-211.5 604.5,-192.5 689.5,-192.5 689.5,-211.5"/>
<text text-anchor="middle" x="647" y="-199.5" font-family="Helvetica,sans-Serif" font-size="10.00">base/visitor.hpp</text>
</a>
</g>
</g>
<!-- Node34&#45;&gt;Node35 -->
<g id="edge43" class="edge">
<title>Node34&#45;&gt;Node35</title>
<path fill="none" stroke="#63b8ff" d="M823.5,-258.1C787.87,-246.98 726.72,-227.89 686.57,-215.35"/>
<polygon fill="#63b8ff" stroke="#63b8ff" points="687.63,-212.02 677.04,-212.38 685.54,-218.7 687.63,-212.02"/>
</g>
<!-- Node38 -->
<g id="node38" class="node">
<title>Node38</title>
<g id="a_node38"><a xlink:href="primitives_2version_8hpp.html" target="_top" xlink:title=" ">
<polygon fill="white" stroke="#666666" points="823.5,-211.5 712.5,-211.5 712.5,-192.5 823.5,-192.5 823.5,-211.5"/>
<text text-anchor="middle" x="768" y="-199.5" font-family="Helvetica,sans-Serif" font-size="10.00">primitives/version.hpp</text>
</a>
</g>
</g>
<!-- Node34&#45;&gt;Node38 -->
<g id="edge48" class="edge">
<title>Node34&#45;&gt;Node38</title>
<path fill="none" stroke="#63b8ff" d="M840.32,-258.1C826.9,-247.88 804.65,-230.93 788.37,-218.52"/>
<polygon fill="#63b8ff" stroke="#63b8ff" points="790.86,-216.02 780.78,-212.74 786.62,-221.59 790.86,-216.02"/>
</g>
<!-- Node35&#45;&gt;Node33 -->
<g id="edge44" class="edge">
<title>Node35&#45;&gt;Node33</title>
<path fill="none" stroke="#63b8ff" d="M629.48,-192.1C608.51,-181.45 573.15,-163.49 548.52,-150.98"/>
<polygon fill="#63b8ff" stroke="#63b8ff" points="550.22,-147.92 539.72,-146.51 547.05,-154.16 550.22,-147.92"/>
</g>
<!-- Node36 -->
<g id="node36" class="node">
<title>Node36</title>
<g id="a_node36"><a xlink:title=" ">
<polygon fill="#e0e0e0" stroke="#999999" points="725.5,-145.5 686.5,-145.5 686.5,-126.5 725.5,-126.5 725.5,-145.5"/>
<text text-anchor="middle" x="706" y="-133.5" font-family="Helvetica,sans-Serif" font-size="10.00">utility</text>
</a>
</g>
</g>
<!-- Node35&#45;&gt;Node36 -->
<g id="edge45" class="edge">
<title>Node35&#45;&gt;Node36</title>
<path fill="none" stroke="#63b8ff" d="M655.2,-192.1C664.19,-182.36 678.81,-166.5 690.06,-154.29"/>
<polygon fill="#63b8ff" stroke="#63b8ff" points="692.64,-156.66 696.84,-146.94 687.49,-151.92 692.64,-156.66"/>
</g>
<!-- Node37 -->
<g id="node37" class="node">
<title>Node37</title>
<g id="a_node37"><a xlink:title=" ">
<polygon fill="#e0e0e0" stroke="#999999" points="668,-151 570,-151 570,-121 668,-121 668,-151"/>
<text text-anchor="start" x="578" y="-139" font-family="Helvetica,sans-Serif" font-size="10.00">boost/variant/apply</text>
<text text-anchor="middle" x="619" y="-128" font-family="Helvetica,sans-Serif" font-size="10.00">_visitor.hpp</text>
</a>
</g>
</g>
<!-- Node35&#45;&gt;Node37 -->
<g id="edge46" class="edge">
<title>Node35&#45;&gt;Node37</title>
<path fill="none" stroke="#63b8ff" d="M643.11,-192.1C639.67,-184.25 634.5,-172.43 629.82,-161.74"/>
<polygon fill="#63b8ff" stroke="#63b8ff" points="633.05,-160.38 625.83,-152.62 626.64,-163.18 633.05,-160.38"/>
</g>
<!-- Node38&#45;&gt;Node14 -->
<g id="edge49" class="edge">
<title>Node38&#45;&gt;Node14</title>
<path fill="none" stroke="#63b8ff" d="M786.21,-192.1C808.11,-181.4 845.11,-163.33 870.73,-150.81"/>
<polygon fill="#63b8ff" stroke="#63b8ff" points="872.13,-154.02 879.58,-146.49 869.06,-147.73 872.13,-154.02"/>
</g>
<!-- Node38&#45;&gt;Node18 -->
<g id="edge51" class="edge">
<title>Node38&#45;&gt;Node18</title>
<path fill="none" stroke="#63b8ff" d="M765.49,-192.08C761.52,-175.86 755.88,-141.33 773,-121 795.44,-94.35 896.07,-80.03 949.46,-74.2"/>
<polygon fill="#63b8ff" stroke="#63b8ff" points="949.63,-77.7 959.21,-73.17 948.9,-70.74 949.63,-77.7"/>
</g>
<!-- Node39 -->
<g id="node39" class="node">
<title>Node39</title>
<g id="a_node39"><a xlink:title=" ">
<polygon fill="#e0e0e0" stroke="#999999" points="823.5,-145.5 782.5,-145.5 782.5,-126.5 823.5,-126.5 823.5,-145.5"/>
<text text-anchor="middle" x="803" y="-133.5" font-family="Helvetica,sans-Serif" font-size="10.00">string</text>
</a>
</g>
</g>
<!-- Node38&#45;&gt;Node39 -->
<g id="edge50" class="edge">
<title>Node38&#45;&gt;Node39</title>
<path fill="none" stroke="#63b8ff" d="M772.87,-192.1C777.99,-182.74 786.19,-167.73 792.75,-155.74"/>
<polygon fill="#63b8ff" stroke="#63b8ff" points="795.72,-157.6 797.45,-147.15 789.58,-154.25 795.72,-157.6"/>
</g>
<!-- Node40&#45;&gt;Node12 -->
<g id="edge55" class="edge">
<title>Node40&#45;&gt;Node12</title>
<path fill="none" stroke="#63b8ff" d="M1095.55,-318.8C1096.33,-311.67 1097.3,-302.82 1098.2,-294.56"/>
<polygon fill="#63b8ff" stroke="#63b8ff" points="1101.68,-294.99 1099.29,-284.67 1094.72,-294.23 1101.68,-294.99"/>
</g>
<!-- Node40&#45;&gt;Node23 -->
<g id="edge56" class="edge">
<title>Node40&#45;&gt;Node23</title>
<path fill="none" stroke="#63b8ff" d="M1111.93,-318.77C1140.8,-295.85 1194.43,-253.31 1195,-253 1226.37,-235.99 1264.58,-223.31 1294.45,-214.98"/>
<polygon fill="#63b8ff" stroke="#63b8ff" points="1295.26,-218.38 1304,-212.39 1293.43,-211.63 1295.26,-218.38"/>
</g>
<!-- Node40&#45;&gt;Node32 -->
<g id="edge54" class="edge">
<title>Node40&#45;&gt;Node32</title>
<path fill="none" stroke="#63b8ff" d="M1131.25,-318.64C1159.65,-307.69 1198.44,-292.73 1226,-282.11"/>
<polygon fill="#63b8ff" stroke="#63b8ff" points="1227.21,-285.39 1235.28,-278.53 1224.69,-278.86 1227.21,-285.39"/>
</g>
<!-- Node41&#45;&gt;Node12 -->
<g id="edge59" class="edge">
<title>Node41&#45;&gt;Node12</title>
<path fill="none" stroke="#63b8ff" d="M1228.97,-318.64C1205.28,-309.45 1174.31,-297.43 1148.77,-287.53"/>
<polygon fill="#63b8ff" stroke="#63b8ff" points="1150.19,-284.33 1139.6,-283.97 1147.66,-290.85 1150.19,-284.33"/>
</g>
<!-- Node41&#45;&gt;Node23 -->
<g id="edge60" class="edge">
<title>Node41&#45;&gt;Node23</title>
<path fill="none" stroke="#63b8ff" d="M1289.35,-318.57C1301.72,-309.76 1316.15,-297.42 1325,-283 1336.31,-264.58 1340.88,-239.96 1342.74,-222.93"/>
<polygon fill="#63b8ff" stroke="#63b8ff" points="1346.21,-223.37 1343.56,-213.11 1339.24,-222.78 1346.21,-223.37"/>
</g>
<!-- Node41&#45;&gt;Node32 -->
<g id="edge58" class="edge">
<title>Node41&#45;&gt;Node32</title>
<path fill="none" stroke="#63b8ff" d="M1264.67,-318.8C1263.85,-310.09 1262.79,-298.81 1261.89,-289.18"/>
<polygon fill="#63b8ff" stroke="#63b8ff" points="1265.39,-288.98 1260.97,-279.35 1258.42,-289.63 1265.39,-288.98"/>
</g>
</g>
</svg>
