<?xml version="1.0" encoding="UTF-8" standalone="no"?>
<!DOCTYPE svg PUBLIC "-//W3C//DTD SVG 1.1//EN"
 "http://www.w3.org/Graphics/SVG/1.1/DTD/svg11.dtd">
<!-- Generated by graphviz version 7.0.5 (20221223.1930)
 -->
<!-- Title: src/clock/impl/basic_waitable_timer.hpp Pages: 1 -->
<svg width="481pt" height="214pt"
 viewBox="0.00 0.00 480.50 214.00" xmlns="http://www.w3.org/2000/svg" xmlns:xlink="http://www.w3.org/1999/xlink">
<g id="graph0" class="graph" transform="scale(1 1) rotate(0) translate(4 210)">
<title>src/clock/impl/basic_waitable_timer.hpp</title>
<!-- Node1 -->
<g id="node1" class="node">
<title>Node1</title>
<g id="a_node1"><a xlink:title=" ">
<polygon fill="#999999" stroke="#666666" points="262.5,-206 158.5,-206 158.5,-176 262.5,-176 262.5,-206"/>
<text text-anchor="start" x="166.5" y="-194" font-family="Helvetica,sans-Serif" font-size="10.00">src/clock/impl/basic</text>
<text text-anchor="middle" x="210.5" y="-183" font-family="Helvetica,sans-Serif" font-size="10.00">_waitable_timer.hpp</text>
</a>
</g>
</g>
<!-- Node2 -->
<g id="node2" class="node">
<title>Node2</title>
<g id="a_node2"><a xlink:title=" ">
<polygon fill="#e0e0e0" stroke="#999999" points="129,-140 0,-140 0,-110 129,-110 129,-140"/>
<text text-anchor="start" x="8" y="-128" font-family="Helvetica,sans-Serif" font-size="10.00">boost/asio/basic_waitable</text>
<text text-anchor="middle" x="64.5" y="-117" font-family="Helvetica,sans-Serif" font-size="10.00">_timer.hpp</text>
</a>
</g>
</g>
<!-- Node1&#45;&gt;Node2 -->
<g id="edge1" class="edge">
<title>Node1&#45;&gt;Node2</title>
<path fill="none" stroke="#63b8ff" d="M177.73,-175.64C157.05,-166.57 130.1,-154.75 107.68,-144.93"/>
<polygon fill="#63b8ff" stroke="#63b8ff" points="109.36,-141.84 98.79,-141.03 106.55,-148.25 109.36,-141.84"/>
</g>
<!-- Node3 -->
<g id="node3" class="node">
<title>Node3</title>
<g id="a_node3"><a xlink:title=" ">
<polygon fill="#e0e0e0" stroke="#999999" points="274,-134.5 147,-134.5 147,-115.5 274,-115.5 274,-134.5"/>
<text text-anchor="middle" x="210.5" y="-122.5" font-family="Helvetica,sans-Serif" font-size="10.00">boost/asio/io_context.hpp</text>
</a>
</g>
</g>
<!-- Node1&#45;&gt;Node3 -->
<g id="edge2" class="edge">
<title>Node1&#45;&gt;Node3</title>
<path fill="none" stroke="#63b8ff" d="M210.5,-175.8C210.5,-167.09 210.5,-155.81 210.5,-146.18"/>
<polygon fill="#63b8ff" stroke="#63b8ff" points="214,-146.36 210.5,-136.36 207,-146.36 214,-146.36"/>
</g>
<!-- Node4 -->
<g id="node4" class="node">
<title>Node4</title>
<g id="a_node4"><a xlink:href="timer_8hpp.html" target="_top" xlink:title=" ">
<polygon fill="white" stroke="#666666" points="375,-134.5 292,-134.5 292,-115.5 375,-115.5 375,-134.5"/>
<text text-anchor="middle" x="333.5" y="-122.5" font-family="Helvetica,sans-Serif" font-size="10.00">clock/timer.hpp</text>
</a>
</g>
</g>
<!-- Node1&#45;&gt;Node4 -->
<g id="edge3" class="edge">
<title>Node1&#45;&gt;Node4</title>
<path fill="none" stroke="#63b8ff" d="M238.1,-175.64C258.4,-165.08 285.85,-150.79 306.1,-140.26"/>
<polygon fill="#63b8ff" stroke="#63b8ff" points="307.63,-143.41 314.89,-135.68 304.4,-137.2 307.63,-143.41"/>
</g>
<!-- Node5 -->
<g id="node5" class="node">
<title>Node5</title>
<g id="a_node5"><a xlink:title=" ">
<polygon fill="#e0e0e0" stroke="#999999" points="279,-74 220,-74 220,-55 279,-55 279,-74"/>
<text text-anchor="middle" x="249.5" y="-62" font-family="Helvetica,sans-Serif" font-size="10.00">functional</text>
</a>
</g>
</g>
<!-- Node4&#45;&gt;Node5 -->
<g id="edge4" class="edge">
<title>Node4&#45;&gt;Node5</title>
<path fill="none" stroke="#63b8ff" d="M320.74,-115.12C307.67,-106.01 287.09,-91.68 271.4,-80.75"/>
<polygon fill="#63b8ff" stroke="#63b8ff" points="273.83,-78.18 263.62,-75.33 269.83,-83.92 273.83,-78.18"/>
</g>
<!-- Node6 -->
<g id="node6" class="node">
<title>Node6</title>
<g id="a_node6"><a xlink:title=" ">
<polygon fill="#e0e0e0" stroke="#999999" points="370,-74 297,-74 297,-55 370,-55 370,-74"/>
<text text-anchor="middle" x="333.5" y="-62" font-family="Helvetica,sans-Serif" font-size="10.00">system_error</text>
</a>
</g>
</g>
<!-- Node4&#45;&gt;Node6 -->
<g id="edge5" class="edge">
<title>Node4&#45;&gt;Node6</title>
<path fill="none" stroke="#63b8ff" d="M333.5,-115.37C333.5,-107.5 333.5,-95.6 333.5,-85.39"/>
<polygon fill="#63b8ff" stroke="#63b8ff" points="337,-85.68 333.5,-75.68 330,-85.68 337,-85.68"/>
</g>
<!-- Node7 -->
<g id="node7" class="node">
<title>Node7</title>
<g id="a_node7"><a xlink:href="clock_8hpp.html" target="_top" xlink:title=" ">
<polygon fill="white" stroke="#666666" points="472.5,-74 388.5,-74 388.5,-55 472.5,-55 472.5,-74"/>
<text text-anchor="middle" x="430.5" y="-62" font-family="Helvetica,sans-Serif" font-size="10.00">clock/clock.hpp</text>
</a>
</g>
</g>
<!-- Node4&#45;&gt;Node7 -->
<g id="edge6" class="edge">
<title>Node4&#45;&gt;Node7</title>
<path fill="none" stroke="#63b8ff" d="M348.23,-115.12C363.54,-105.88 387.77,-91.27 405.97,-80.29"/>
<polygon fill="#63b8ff" stroke="#63b8ff" points="407.58,-83.41 414.33,-75.25 403.96,-77.42 407.58,-83.41"/>
</g>
<!-- Node8 -->
<g id="node8" class="node">
<title>Node8</title>
<g id="a_node8"><a xlink:title=" ">
<polygon fill="#e0e0e0" stroke="#999999" points="453.5,-19 407.5,-19 407.5,0 453.5,0 453.5,-19"/>
<text text-anchor="middle" x="430.5" y="-7" font-family="Helvetica,sans-Serif" font-size="10.00">chrono</text>
</a>
</g>
</g>
<!-- Node7&#45;&gt;Node8 -->
<g id="edge7" class="edge">
<title>Node7&#45;&gt;Node8</title>
<path fill="none" stroke="#63b8ff" d="M430.5,-54.75C430.5,-48.27 430.5,-39.16 430.5,-30.9"/>
<polygon fill="#63b8ff" stroke="#63b8ff" points="434,-30.96 430.5,-20.96 427,-30.96 434,-30.96"/>
</g>
</g>
</svg>
