<?xml version="1.0" encoding="UTF-8" standalone="no"?>
<!DOCTYPE svg PUBLIC "-//W3C//DTD SVG 1.1//EN"
 "http://www.w3.org/Graphics/SVG/1.1/DTD/svg11.dtd">
<!-- Generated by graphviz version 7.0.5 (20221223.1930)
 -->
<!-- Title: src/verification/validation/block_validator.hpp Pages: 1 -->
<!--zoomable 709 -->
<svg id="main" version="1.1" xmlns="http://www.w3.org/2000/svg" xmlns:xlink="http://www.w3.org/1999/xlink" xml:space="preserve" onload="init(evt)">
<style type="text/css"><![CDATA[
.edge:hover path { stroke: red; }
.edge:hover polygon { stroke: red; fill: red; }
]]></style>
<script type="text/javascript"><![CDATA[
var edges = document.getElementsByTagName('g');
if (edges && edges.length) {
  for (var i=0;i<edges.length;i++) {
    if (edges[i].id.substr(0,4)=='edge') {
      edges[i].setAttribute('class','edge');
    }
  }
}
]]></script>
        <defs>
                <circle id="rim" cx="0" cy="0" r="7"/>
                <circle id="rim2" cx="0" cy="0" r="3.5"/>
                <g id="zoomPlus">
                        <use xlink:href="#rim" fill="#404040">
                                <set attributeName="fill" to="#808080" begin="zoomplus.mouseover" end="zoomplus.mouseout"/>
                        </use>
                        <path d="M-4,0h8M0,-4v8" fill="none" stroke="white" stroke-width="1.5" pointer-events="none"/>
                </g>
                <g id="zoomMin">
                        <use xlink:href="#rim" fill="#404040">
                                <set attributeName="fill" to="#808080" begin="zoomminus.mouseover" end="zoomminus.mouseout"/>
                        </use>
                        <path d="M-4,0h8" fill="none" stroke="white" stroke-width="1.5" pointer-events="none"/>
                </g>
                <g id="dirArrow">
                        <path fill="none" stroke="white" stroke-width="1.5" d="M0,-3.0v7 M-2.5,-0.5L0,-3.0L2.5,-0.5"/>
                </g>
               <g id="resetDef">
                       <use xlink:href="#rim2" fill="#404040">
                               <set attributeName="fill" to="#808080" begin="reset.mouseover" end="reset.mouseout"/>
                       </use>
               </g>
        </defs>

<script type="text/javascript">
var viewWidth = 1110;
var viewHeight = 709;
var sectionId = 'dynsection-0';
</script>
<script xlink:href="svgpan.js"/>
<svg id="graph" class="graph">
<g id="viewport">
<title>src/verification/validation/block_validator.hpp</title>
<!-- Node1 -->
<g id="node1" class="node">
<title>Node1</title>
<g id="a_node1"><a xlink:title=" ">
<polygon fill="#999999" stroke="#666666" points="914,-701 790,-701 790,-671 914,-671 914,-701"/>
<text text-anchor="start" x="798" y="-689" font-family="Helvetica,sans-Serif" font-size="10.00">src/verification/validation</text>
<text text-anchor="middle" x="852" y="-678" font-family="Helvetica,sans-Serif" font-size="10.00">/block_validator.hpp</text>
</a>
</g>
</g>
<!-- Node2 -->
<g id="node2" class="node">
<title>Node2</title>
<g id="a_node2"><a xlink:href="outcome_8hpp.html" target="_top" xlink:title=" ">
<polygon fill="white" stroke="#666666" points="1087.5,-79.5 974.5,-79.5 974.5,-60.5 1087.5,-60.5 1087.5,-79.5"/>
<text text-anchor="middle" x="1031" y="-67.5" font-family="Helvetica,sans-Serif" font-size="10.00">outcome/outcome.hpp</text>
</a>
</g>
</g>
<!-- Node1&#45;&gt;Node2 -->
<g id="edge1" class="edge">
<title>Node1&#45;&gt;Node2</title>
<path fill="none" stroke="#63b8ff" d="M914.44,-679.37C979.8,-669.65 1073,-643.21 1073,-571.5 1073,-571.5 1073,-571.5 1073,-195.5 1073,-156.29 1054.07,-113.61 1041.63,-89.8"/>
<polygon fill="#63b8ff" stroke="#63b8ff" points="1044.72,-88.16 1036.87,-81.05 1038.57,-91.5 1044.72,-88.16"/>
</g>
<!-- Node4 -->
<g id="node4" class="node">
<title>Node4</title>
<g id="a_node4"><a xlink:href="epoch_8hpp.html" target="_top" xlink:title=" ">
<polygon fill="white" stroke="#666666" points="340.5,-470 229.5,-470 229.5,-440 340.5,-440 340.5,-470"/>
<text text-anchor="start" x="237.5" y="-458" font-family="Helvetica,sans-Serif" font-size="10.00">verification/production</text>
<text text-anchor="middle" x="285" y="-447" font-family="Helvetica,sans-Serif" font-size="10.00">/types/epoch.hpp</text>
</a>
</g>
</g>
<!-- Node1&#45;&gt;Node4 -->
<g id="edge3" class="edge">
<title>Node1&#45;&gt;Node4</title>
<path fill="none" stroke="#63b8ff" d="M789.62,-674.59C691.46,-656.16 497.45,-611.32 355,-525 335.06,-512.92 316.46,-494.07 303.46,-479.13"/>
<polygon fill="#63b8ff" stroke="#63b8ff" points="306.22,-476.97 297.09,-471.58 300.86,-481.49 306.22,-476.97"/>
</g>
<!-- Node26 -->
<g id="node26" class="node">
<title>Node26</title>
<g id="a_node26"><a xlink:href="block_8hpp.html" target="_top" xlink:title=" ">
<polygon fill="white" stroke="#666666" points="903.5,-635 800.5,-635 800.5,-616 903.5,-616 903.5,-635"/>
<text text-anchor="middle" x="852" y="-623" font-family="Helvetica,sans-Serif" font-size="10.00">primitives/block.hpp</text>
</a>
</g>
</g>
<!-- Node1&#45;&gt;Node26 -->
<g id="edge34" class="edge">
<title>Node1&#45;&gt;Node26</title>
<path fill="none" stroke="#63b8ff" d="M852,-670.54C852,-663.34 852,-654.53 852,-646.68"/>
<polygon fill="#63b8ff" stroke="#63b8ff" points="855.5,-646.69 852,-636.69 848.5,-646.69 855.5,-646.69"/>
</g>
<!-- Node3 -->
<g id="node3" class="node">
<title>Node3</title>
<g id="a_node3"><a xlink:title=" ">
<polygon fill="#e0e0e0" stroke="#999999" points="1101.5,-19 960.5,-19 960.5,0 1101.5,0 1101.5,-19"/>
<text text-anchor="middle" x="1031" y="-7" font-family="Helvetica,sans-Serif" font-size="10.00">libp2p/outcome/outcome.hpp</text>
</a>
</g>
</g>
<!-- Node2&#45;&gt;Node3 -->
<g id="edge2" class="edge">
<title>Node2&#45;&gt;Node3</title>
<path fill="none" stroke="#63b8ff" d="M1031,-60.37C1031,-52.5 1031,-40.6 1031,-30.39"/>
<polygon fill="#63b8ff" stroke="#63b8ff" points="1034.5,-30.68 1031,-20.68 1027.5,-30.68 1034.5,-30.68"/>
</g>
<!-- Node5 -->
<g id="node5" class="node">
<title>Node5</title>
<g id="a_node5"><a xlink:title=" ">
<polygon fill="#e0e0e0" stroke="#999999" points="341,-206 295,-206 295,-187 341,-187 341,-206"/>
<text text-anchor="middle" x="318" y="-194" font-family="Helvetica,sans-Serif" font-size="10.00">chrono</text>
</a>
</g>
</g>
<!-- Node4&#45;&gt;Node5 -->
<g id="edge4" class="edge">
<title>Node4&#45;&gt;Node5</title>
<path fill="none" stroke="#63b8ff" d="M273.73,-439.68C258.06,-418.76 230.44,-377.98 220,-338 216.63,-325.1 217.95,-321.18 220,-308 224.72,-277.58 221.71,-265.99 241,-242 252.32,-227.92 269.38,-217.42 284.56,-210.16"/>
<polygon fill="#63b8ff" stroke="#63b8ff" points="285.59,-213.54 293.3,-206.27 282.74,-207.14 285.59,-213.54"/>
</g>
<!-- Node6 -->
<g id="node6" class="node">
<title>Node6</title>
<g id="a_node6"><a xlink:title=" ">
<polygon fill="#e0e0e0" stroke="#999999" points="497,-79.5 453,-79.5 453,-60.5 497,-60.5 497,-79.5"/>
<text text-anchor="middle" x="475" y="-67.5" font-family="Helvetica,sans-Serif" font-size="10.00">vector</text>
</a>
</g>
</g>
<!-- Node4&#45;&gt;Node6 -->
<g id="edge5" class="edge">
<title>Node4&#45;&gt;Node6</title>
<path fill="none" stroke="#63b8ff" d="M229.03,-452.62C146.03,-447.25 0,-423.66 0,-324 0,-324 0,-324 0,-256 0,-216.22 24.55,-210.01 57,-187 180.04,-99.75 366.41,-78.02 441.71,-72.69"/>
<polygon fill="#63b8ff" stroke="#63b8ff" points="441.55,-76.21 451.3,-72.07 441.09,-69.23 441.55,-76.21"/>
</g>
<!-- Node7 -->
<g id="node7" class="node">
<title>Node7</title>
<g id="a_node7"><a xlink:href="src_2verification_2production_2common_8hpp.html" target="_top" xlink:title=" ">
<polygon fill="white" stroke="#666666" points="340.5,-338 229.5,-338 229.5,-308 340.5,-308 340.5,-338"/>
<text text-anchor="start" x="237.5" y="-326" font-family="Helvetica,sans-Serif" font-size="10.00">verification/production</text>
<text text-anchor="middle" x="285" y="-315" font-family="Helvetica,sans-Serif" font-size="10.00">/common.hpp</text>
</a>
</g>
</g>
<!-- Node4&#45;&gt;Node7 -->
<g id="edge6" class="edge">
<title>Node4&#45;&gt;Node7</title>
<path fill="none" stroke="#63b8ff" d="M285,-439.59C285,-417.92 285,-376.62 285,-349.7"/>
<polygon fill="#63b8ff" stroke="#63b8ff" points="288.5,-349.99 285,-339.99 281.5,-349.99 288.5,-349.99"/>
</g>
<!-- Node21 -->
<g id="node21" class="node">
<title>Node21</title>
<g id="a_node21"><a xlink:href="authority_8hpp.html" target="_top" xlink:title=" ">
<polygon fill="white" stroke="#666666" points="551,-398.5 435,-398.5 435,-379.5 551,-379.5 551,-398.5"/>
<text text-anchor="middle" x="493" y="-386.5" font-family="Helvetica,sans-Serif" font-size="10.00">primitives/authority.hpp</text>
</a>
</g>
</g>
<!-- Node4&#45;&gt;Node21 -->
<g id="edge26" class="edge">
<title>Node4&#45;&gt;Node21</title>
<path fill="none" stroke="#63b8ff" d="M331.94,-439.56C368.48,-428.31 418.64,-412.88 453.23,-402.24"/>
<polygon fill="#63b8ff" stroke="#63b8ff" points="453.9,-405.69 462.42,-399.41 451.84,-399 453.9,-405.69"/>
</g>
<!-- Node8 -->
<g id="node8" class="node">
<title>Node8</title>
<g id="a_node8"><a xlink:title=" ">
<polygon fill="#e0e0e0" stroke="#999999" points="481,-266.5 435,-266.5 435,-247.5 481,-247.5 481,-266.5"/>
<text text-anchor="middle" x="458" y="-254.5" font-family="Helvetica,sans-Serif" font-size="10.00">cstdint</text>
</a>
</g>
</g>
<!-- Node7&#45;&gt;Node8 -->
<g id="edge7" class="edge">
<title>Node7&#45;&gt;Node8</title>
<path fill="none" stroke="#63b8ff" d="M323.82,-307.64C353.9,-296.51 395.16,-281.25 423.96,-270.59"/>
<polygon fill="#63b8ff" stroke="#63b8ff" points="425.13,-273.89 433.3,-267.14 422.7,-267.33 425.13,-273.89"/>
</g>
<!-- Node9 -->
<g id="node9" class="node">
<title>Node9</title>
<g id="a_node9"><a xlink:href="clock_8hpp.html" target="_top" xlink:title=" ">
<polygon fill="white" stroke="#666666" points="334,-266.5 250,-266.5 250,-247.5 334,-247.5 334,-266.5"/>
<text text-anchor="middle" x="292" y="-254.5" font-family="Helvetica,sans-Serif" font-size="10.00">clock/clock.hpp</text>
</a>
</g>
</g>
<!-- Node7&#45;&gt;Node9 -->
<g id="edge8" class="edge">
<title>Node7&#45;&gt;Node9</title>
<path fill="none" stroke="#63b8ff" d="M286.55,-307.8C287.51,-299.09 288.74,-287.81 289.79,-278.18"/>
<polygon fill="#63b8ff" stroke="#63b8ff" points="293.26,-278.67 290.87,-268.35 286.3,-277.91 293.26,-278.67"/>
</g>
<!-- Node10 -->
<g id="node10" class="node">
<title>Node10</title>
<g id="a_node10"><a xlink:href="sr25519__types_8hpp.html" target="_top" xlink:title=" ">
<polygon fill="white" stroke="#666666" points="177.5,-266.5 50.5,-266.5 50.5,-247.5 177.5,-247.5 177.5,-266.5"/>
<text text-anchor="middle" x="114" y="-254.5" font-family="Helvetica,sans-Serif" font-size="10.00">crypto/sr25519_types.hpp</text>
</a>
</g>
</g>
<!-- Node7&#45;&gt;Node10 -->
<g id="edge10" class="edge">
<title>Node7&#45;&gt;Node10</title>
<path fill="none" stroke="#63b8ff" d="M246.62,-307.64C217.24,-296.64 177.06,-281.6 148.65,-270.97"/>
<polygon fill="#63b8ff" stroke="#63b8ff" points="150.02,-267.74 139.43,-267.52 147.57,-274.3 150.02,-267.74"/>
</g>
<!-- Node9&#45;&gt;Node5 -->
<g id="edge9" class="edge">
<title>Node9&#45;&gt;Node5</title>
<path fill="none" stroke="#63b8ff" d="M295.84,-247.37C299.45,-239.25 304.97,-226.81 309.61,-216.39"/>
<polygon fill="#63b8ff" stroke="#63b8ff" points="312.67,-218.11 313.53,-207.55 306.27,-215.27 312.67,-218.11"/>
</g>
<!-- Node11 -->
<g id="node11" class="node">
<title>Node11</title>
<g id="a_node11"><a xlink:title=" ">
<polygon fill="#e0e0e0" stroke="#999999" points="238.5,-206 179.5,-206 179.5,-187 238.5,-187 238.5,-206"/>
<text text-anchor="middle" x="209" y="-194" font-family="Helvetica,sans-Serif" font-size="10.00">sr25519.h</text>
</a>
</g>
</g>
<!-- Node10&#45;&gt;Node11 -->
<g id="edge11" class="edge">
<title>Node10&#45;&gt;Node11</title>
<path fill="none" stroke="#63b8ff" d="M128.43,-247.12C143.35,-237.92 166.93,-223.41 184.73,-212.44"/>
<polygon fill="#63b8ff" stroke="#63b8ff" points="186.47,-215.49 193.15,-207.26 182.8,-209.53 186.47,-215.49"/>
</g>
<!-- Node12 -->
<g id="node12" class="node">
<title>Node12</title>
<g id="a_node12"><a xlink:title=" ">
<polygon fill="#e0e0e0" stroke="#999999" points="349,-151 245,-151 245,-121 349,-121 349,-151"/>
<text text-anchor="start" x="253" y="-139" font-family="Helvetica,sans-Serif" font-size="10.00">boost/multiprecision</text>
<text text-anchor="middle" x="297" y="-128" font-family="Helvetica,sans-Serif" font-size="10.00">/cpp_int.hpp</text>
</a>
</g>
</g>
<!-- Node10&#45;&gt;Node12 -->
<g id="edge12" class="edge">
<title>Node10&#45;&gt;Node12</title>
<path fill="none" stroke="#63b8ff" d="M155.78,-247C183.66,-239.47 220.03,-226.57 247,-206 262.62,-194.09 275.48,-175.97 284.25,-161.29"/>
<polygon fill="#63b8ff" stroke="#63b8ff" points="287.26,-163.09 289.15,-152.66 281.17,-159.63 287.26,-163.09"/>
</g>
<!-- Node13 -->
<g id="node13" class="node">
<title>Node13</title>
<g id="a_node13"><a xlink:title=" ">
<polygon fill="#e0e0e0" stroke="#999999" points="306.5,-79.5 253.5,-79.5 253.5,-60.5 306.5,-60.5 306.5,-79.5"/>
<text text-anchor="middle" x="280" y="-67.5" font-family="Helvetica,sans-Serif" font-size="10.00">gsl/span</text>
</a>
</g>
</g>
<!-- Node10&#45;&gt;Node13 -->
<g id="edge13" class="edge">
<title>Node10&#45;&gt;Node13</title>
<path fill="none" stroke="#63b8ff" d="M97.1,-247.13C75.69,-234.64 43.13,-210.75 57,-187 96.29,-119.73 189.2,-89.88 241.86,-77.96"/>
<polygon fill="#63b8ff" stroke="#63b8ff" points="242.55,-81.39 251.6,-75.88 241.09,-74.55 242.55,-81.39"/>
</g>
<!-- Node14 -->
<g id="node14" class="node">
<title>Node14</title>
<g id="a_node14"><a xlink:href="blob_8hpp.html" target="_top" xlink:title=" ">
<polygon fill="white" stroke="#666666" points="710.5,-206 633.5,-206 633.5,-187 710.5,-187 710.5,-206"/>
<text text-anchor="middle" x="672" y="-194" font-family="Helvetica,sans-Serif" font-size="10.00">base/blob.hpp</text>
</a>
</g>
</g>
<!-- Node10&#45;&gt;Node14 -->
<g id="edge14" class="edge">
<title>Node10&#45;&gt;Node14</title>
<path fill="none" stroke="#63b8ff" d="M177.95,-248.86C198.12,-246.64 220.49,-244.19 241,-242 378.77,-227.29 541.41,-210.71 621.81,-202.57"/>
<polygon fill="#63b8ff" stroke="#63b8ff" points="621.96,-206.07 631.56,-201.58 621.26,-199.11 621.96,-206.07"/>
</g>
<!-- Node20 -->
<g id="node20" class="node">
<title>Node20</title>
<g id="a_node20"><a xlink:href="mp__utils_8hpp.html" target="_top" xlink:title=" ">
<polygon fill="white" stroke="#666666" points="161.5,-206 66.5,-206 66.5,-187 161.5,-187 161.5,-206"/>
<text text-anchor="middle" x="114" y="-194" font-family="Helvetica,sans-Serif" font-size="10.00">base/mp_utils.hpp</text>
</a>
</g>
</g>
<!-- Node10&#45;&gt;Node20 -->
<g id="edge23" class="edge">
<title>Node10&#45;&gt;Node20</title>
<path fill="none" stroke="#63b8ff" d="M114,-247.37C114,-239.5 114,-227.6 114,-217.39"/>
<polygon fill="#63b8ff" stroke="#63b8ff" points="117.5,-217.68 114,-207.68 110.5,-217.68 117.5,-217.68"/>
</g>
<!-- Node15 -->
<g id="node15" class="node">
<title>Node15</title>
<g id="a_node15"><a xlink:title=" ">
<polygon fill="#e0e0e0" stroke="#999999" points="755,-145.5 717,-145.5 717,-126.5 755,-126.5 755,-145.5"/>
<text text-anchor="middle" x="736" y="-133.5" font-family="Helvetica,sans-Serif" font-size="10.00">array</text>
</a>
</g>
</g>
<!-- Node14&#45;&gt;Node15 -->
<g id="edge15" class="edge">
<title>Node14&#45;&gt;Node15</title>
<path fill="none" stroke="#63b8ff" d="M681.72,-186.62C691.31,-177.85 706.19,-164.25 717.94,-153.5"/>
<polygon fill="#63b8ff" stroke="#63b8ff" points="720.05,-156.32 725.07,-146.99 715.33,-151.15 720.05,-156.32"/>
</g>
<!-- Node16 -->
<g id="node16" class="node">
<title>Node16</title>
<g id="a_node16"><a xlink:title=" ">
<polygon fill="#e0e0e0" stroke="#999999" points="901,-145.5 773,-145.5 773,-126.5 901,-126.5 901,-145.5"/>
<text text-anchor="middle" x="837" y="-133.5" font-family="Helvetica,sans-Serif" font-size="10.00">boost/functional/hash.hpp</text>
</a>
</g>
</g>
<!-- Node14&#45;&gt;Node16 -->
<g id="edge16" class="edge">
<title>Node14&#45;&gt;Node16</title>
<path fill="none" stroke="#63b8ff" d="M697.06,-186.62C724.8,-176.78 769.75,-160.84 801.19,-149.69"/>
<polygon fill="#63b8ff" stroke="#63b8ff" points="802.02,-153.11 810.28,-146.47 799.68,-146.52 802.02,-153.11"/>
</g>
<!-- Node17 -->
<g id="node17" class="node">
<title>Node17</title>
<g id="a_node17"><a xlink:href="hexutil_8hpp.html" target="_top" xlink:title=" ">
<polygon fill="white" stroke="#666666" points="627,-145.5 541,-145.5 541,-126.5 627,-126.5 627,-145.5"/>
<text text-anchor="middle" x="584" y="-133.5" font-family="Helvetica,sans-Serif" font-size="10.00">base/hexutil.hpp</text>
</a>
</g>
</g>
<!-- Node14&#45;&gt;Node17 -->
<g id="edge17" class="edge">
<title>Node14&#45;&gt;Node17</title>
<path fill="none" stroke="#63b8ff" d="M658.63,-186.62C644.94,-177.51 623.38,-163.18 606.94,-152.25"/>
<polygon fill="#63b8ff" stroke="#63b8ff" points="609.02,-149.43 598.75,-146.81 605.14,-155.26 609.02,-149.43"/>
</g>
<!-- Node19 -->
<g id="node19" class="node">
<title>Node19</title>
<g id="a_node19"><a xlink:title=" ">
<polygon fill="#e0e0e0" stroke="#999999" points="699,-145.5 645,-145.5 645,-126.5 699,-126.5 699,-145.5"/>
<text text-anchor="middle" x="672" y="-133.5" font-family="Helvetica,sans-Serif" font-size="10.00">iostream</text>
</a>
</g>
</g>
<!-- Node14&#45;&gt;Node19 -->
<g id="edge22" class="edge">
<title>Node14&#45;&gt;Node19</title>
<path fill="none" stroke="#63b8ff" d="M672,-186.87C672,-179 672,-167.1 672,-156.89"/>
<polygon fill="#63b8ff" stroke="#63b8ff" points="675.5,-157.18 672,-147.18 668.5,-157.18 675.5,-157.18"/>
</g>
<!-- Node17&#45;&gt;Node2 -->
<g id="edge21" class="edge">
<title>Node17&#45;&gt;Node2</title>
<path fill="none" stroke="#63b8ff" d="M614.07,-126.06C621.21,-124.17 628.83,-122.35 636,-121 780.56,-93.8 819.76,-108.29 965,-85 970.22,-84.16 975.65,-83.19 981.05,-82.14"/>
<polygon fill="#63b8ff" stroke="#63b8ff" points="981.43,-85.64 990.55,-80.24 980.06,-78.78 981.43,-85.64"/>
</g>
<!-- Node17&#45;&gt;Node6 -->
<g id="edge19" class="edge">
<title>Node17&#45;&gt;Node6</title>
<path fill="none" stroke="#63b8ff" d="M568.84,-126.1C550.95,-115.59 520.93,-97.97 499.67,-85.49"/>
<polygon fill="#63b8ff" stroke="#63b8ff" points="501.73,-82.63 491.33,-80.59 498.18,-88.67 501.73,-82.63"/>
</g>
<!-- Node17&#45;&gt;Node13 -->
<g id="edge20" class="edge">
<title>Node17&#45;&gt;Node13</title>
<path fill="none" stroke="#63b8ff" d="M541.41,-126.03C481.79,-113.48 374.39,-90.87 317.59,-78.91"/>
<polygon fill="#63b8ff" stroke="#63b8ff" points="318.59,-75.55 308.08,-76.91 317.14,-82.4 318.59,-75.55"/>
</g>
<!-- Node18 -->
<g id="node18" class="node">
<title>Node18</title>
<g id="a_node18"><a xlink:title=" ">
<polygon fill="#e0e0e0" stroke="#999999" points="796,-79.5 730,-79.5 730,-60.5 796,-60.5 796,-79.5"/>
<text text-anchor="middle" x="763" y="-67.5" font-family="Helvetica,sans-Serif" font-size="10.00">string_view</text>
</a>
</g>
</g>
<!-- Node17&#45;&gt;Node18 -->
<g id="edge18" class="edge">
<title>Node17&#45;&gt;Node18</title>
<path fill="none" stroke="#63b8ff" d="M608.89,-126.1C639.66,-115.1 692.25,-96.3 727.32,-83.76"/>
<polygon fill="#63b8ff" stroke="#63b8ff" points="728.37,-87.1 736.61,-80.44 726.01,-80.51 728.37,-87.1"/>
</g>
<!-- Node20&#45;&gt;Node12 -->
<g id="edge24" class="edge">
<title>Node20&#45;&gt;Node12</title>
<path fill="none" stroke="#63b8ff" d="M141.79,-186.62C168.02,-178.23 208.12,-165.41 240.99,-154.9"/>
<polygon fill="#63b8ff" stroke="#63b8ff" points="241.93,-158.28 250.39,-151.9 239.8,-151.61 241.93,-158.28"/>
</g>
<!-- Node20&#45;&gt;Node13 -->
<g id="edge25" class="edge">
<title>Node20&#45;&gt;Node13</title>
<path fill="none" stroke="#63b8ff" d="M125.94,-186.55C153.93,-165.55 224.1,-112.93 259.25,-86.56"/>
<polygon fill="#63b8ff" stroke="#63b8ff" points="261.06,-89.58 266.96,-80.78 256.86,-83.98 261.06,-89.58"/>
</g>
<!-- Node21&#45;&gt;Node8 -->
<g id="edge27" class="edge">
<title>Node21&#45;&gt;Node8</title>
<path fill="none" stroke="#63b8ff" d="M486.61,-379.31C479.94,-369.73 469.8,-353.59 465,-338 458.91,-318.23 457.53,-294.51 457.44,-278.06"/>
<polygon fill="#63b8ff" stroke="#63b8ff" points="460.94,-278.19 457.57,-268.15 453.94,-278.1 460.94,-278.19"/>
</g>
<!-- Node22 -->
<g id="node22" class="node">
<title>Node22</title>
<g id="a_node22"><a xlink:title=" ">
<polygon fill="#e0e0e0" stroke="#999999" points="532.5,-332.5 473.5,-332.5 473.5,-313.5 532.5,-313.5 532.5,-332.5"/>
<text text-anchor="middle" x="503" y="-320.5" font-family="Helvetica,sans-Serif" font-size="10.00">functional</text>
</a>
</g>
</g>
<!-- Node21&#45;&gt;Node22 -->
<g id="edge28" class="edge">
<title>Node21&#45;&gt;Node22</title>
<path fill="none" stroke="#63b8ff" d="M494.39,-379.1C495.81,-370.03 498.06,-355.64 499.9,-343.85"/>
<polygon fill="#63b8ff" stroke="#63b8ff" points="503.3,-344.74 501.39,-334.32 496.39,-343.66 503.3,-344.74"/>
</g>
<!-- Node23 -->
<g id="node23" class="node">
<title>Node23</title>
<g id="a_node23"><a xlink:href="src_2primitives_2common_8hpp.html" target="_top" xlink:title=" ">
<polygon fill="white" stroke="#666666" points="713.5,-332.5 596.5,-332.5 596.5,-313.5 713.5,-313.5 713.5,-332.5"/>
<text text-anchor="middle" x="655" y="-320.5" font-family="Helvetica,sans-Serif" font-size="10.00">primitives/common.hpp</text>
</a>
</g>
</g>
<!-- Node21&#45;&gt;Node23 -->
<g id="edge29" class="edge">
<title>Node21&#45;&gt;Node23</title>
<path fill="none" stroke="#63b8ff" d="M515.53,-379.1C543.13,-368.19 590.15,-349.62 621.88,-337.09"/>
<polygon fill="#63b8ff" stroke="#63b8ff" points="622.98,-340.41 631,-333.48 620.41,-333.9 622.98,-340.41"/>
</g>
<!-- Node23&#45;&gt;Node8 -->
<g id="edge30" class="edge">
<title>Node23&#45;&gt;Node8</title>
<path fill="none" stroke="#63b8ff" d="M627.61,-313.1C592.2,-301.6 530.53,-281.56 492.12,-269.08"/>
<polygon fill="#63b8ff" stroke="#63b8ff" points="493.5,-265.85 482.91,-266.09 491.34,-272.51 493.5,-265.85"/>
</g>
<!-- Node24 -->
<g id="node24" class="node">
<title>Node24</title>
<g id="a_node24"><a xlink:title=" ">
<polygon fill="#e0e0e0" stroke="#999999" points="649,-79.5 547,-79.5 547,-60.5 649,-60.5 649,-79.5"/>
<text text-anchor="middle" x="598" y="-67.5" font-family="Helvetica,sans-Serif" font-size="10.00">boost/operators.hpp</text>
</a>
</g>
</g>
<!-- Node23&#45;&gt;Node24 -->
<g id="edge31" class="edge">
<title>Node23&#45;&gt;Node24</title>
<path fill="none" stroke="#63b8ff" d="M645.24,-313.23C620.12,-289.91 553.69,-223.14 532,-151 528.16,-138.23 526.07,-132.94 532,-121 539.67,-105.57 554.63,-93.62 568.38,-85.28"/>
<polygon fill="#63b8ff" stroke="#63b8ff" points="569.72,-88.54 576.72,-80.59 566.29,-82.44 569.72,-88.54"/>
</g>
<!-- Node25 -->
<g id="node25" class="node">
<title>Node25</title>
<g id="a_node25"><a xlink:href="session__key_8hpp.html" target="_top" xlink:title=" ">
<polygon fill="white" stroke="#666666" points="715.5,-272 620.5,-272 620.5,-242 715.5,-242 715.5,-272"/>
<text text-anchor="start" x="628.5" y="-260" font-family="Helvetica,sans-Serif" font-size="10.00">primitives/session</text>
<text text-anchor="middle" x="668" y="-249" font-family="Helvetica,sans-Serif" font-size="10.00">_key.hpp</text>
</a>
</g>
</g>
<!-- Node23&#45;&gt;Node25 -->
<g id="edge32" class="edge">
<title>Node23&#45;&gt;Node25</title>
<path fill="none" stroke="#63b8ff" d="M656.81,-313.1C658.37,-305.41 660.7,-293.92 662.84,-283.42"/>
<polygon fill="#63b8ff" stroke="#63b8ff" points="666.25,-284.21 664.81,-273.72 659.39,-282.82 666.25,-284.21"/>
</g>
<!-- Node25&#45;&gt;Node14 -->
<g id="edge33" class="edge">
<title>Node25&#45;&gt;Node14</title>
<path fill="none" stroke="#63b8ff" d="M668.99,-241.54C669.49,-234.26 670.1,-225.31 670.64,-217.39"/>
<polygon fill="#63b8ff" stroke="#63b8ff" points="674.11,-217.9 671.3,-207.69 667.13,-217.42 674.11,-217.9"/>
</g>
<!-- Node27 -->
<g id="node27" class="node">
<title>Node27</title>
<g id="a_node27"><a xlink:href="block__header_8hpp.html" target="_top" xlink:title=" ">
<polygon fill="white" stroke="#666666" points="810.5,-580 673.5,-580 673.5,-561 810.5,-561 810.5,-580"/>
<text text-anchor="middle" x="742" y="-568" font-family="Helvetica,sans-Serif" font-size="10.00">primitives/block_header.hpp</text>
</a>
</g>
</g>
<!-- Node26&#45;&gt;Node27 -->
<g id="edge35" class="edge">
<title>Node26&#45;&gt;Node27</title>
<path fill="none" stroke="#63b8ff" d="M833.34,-615.51C816.17,-607.24 790.45,-594.84 770.67,-585.31"/>
<polygon fill="#63b8ff" stroke="#63b8ff" points="772.28,-582.2 761.75,-581.01 769.24,-588.51 772.28,-582.2"/>
</g>
<!-- Node37 -->
<g id="node37" class="node">
<title>Node37</title>
<g id="a_node37"><a xlink:href="extrinsic_8hpp.html" target="_top" xlink:title=" ">
<polygon fill="white" stroke="#666666" points="1045,-398.5 929,-398.5 929,-379.5 1045,-379.5 1045,-398.5"/>
<text text-anchor="middle" x="987" y="-386.5" font-family="Helvetica,sans-Serif" font-size="10.00">primitives/extrinsic.hpp</text>
</a>
</g>
</g>
<!-- Node26&#45;&gt;Node37 -->
<g id="edge59" class="edge">
<title>Node26&#45;&gt;Node37</title>
<path fill="none" stroke="#63b8ff" d="M857.96,-615.58C869.42,-598.34 895.15,-559.1 915,-525 938.63,-484.41 963.97,-435.48 977.38,-409.1"/>
<polygon fill="#63b8ff" stroke="#63b8ff" points="980.43,-410.82 981.82,-400.32 974.19,-407.66 980.43,-410.82"/>
</g>
<!-- Node27&#45;&gt;Node6 -->
<g id="edge37" class="edge">
<title>Node27&#45;&gt;Node6</title>
<path fill="none" stroke="#63b8ff" d="M673.08,-565.19C623.28,-560.11 555.34,-549.06 500,-525 452.8,-504.48 407,-507.47 407,-456 407,-456 407,-456 407,-195.5 407,-152.64 438.42,-110.52 458.55,-87.94"/>
<polygon fill="#63b8ff" stroke="#63b8ff" points="460.86,-90.59 465.08,-80.88 455.72,-85.84 460.86,-90.59"/>
</g>
<!-- Node27&#45;&gt;Node12 -->
<g id="edge38" class="edge">
<title>Node27&#45;&gt;Node12</title>
<path fill="none" stroke="#63b8ff" d="M673.29,-569.1C584.05,-567.19 434.75,-558.86 393,-525 367.78,-504.55 369,-488.47 369,-456 369,-456 369,-456 369,-256 369,-224.19 366.4,-214.26 350,-187 343.69,-176.51 334.58,-166.81 325.69,-158.8"/>
<polygon fill="#63b8ff" stroke="#63b8ff" points="328.01,-156.18 318.13,-152.36 323.48,-161.51 328.01,-156.18"/>
</g>
<!-- Node27&#45;&gt;Node14 -->
<g id="edge39" class="edge">
<title>Node27&#45;&gt;Node14</title>
<path fill="none" stroke="#63b8ff" d="M810.93,-561.55C836.29,-555.36 863.35,-544.39 882,-525 904.05,-502.07 901,-487.81 901,-456 901,-456 901,-456 901,-388 901,-290.96 777.97,-233.83 712.26,-210.24"/>
<polygon fill="#63b8ff" stroke="#63b8ff" points="713.49,-206.96 702.9,-206.98 711.19,-213.57 713.49,-206.96"/>
</g>
<!-- Node27&#45;&gt;Node23 -->
<g id="edge40" class="edge">
<title>Node27&#45;&gt;Node23</title>
<path fill="none" stroke="#63b8ff" d="M752.33,-560.71C775.6,-539.8 828.39,-485.44 806,-440 781.26,-389.8 723.21,-355.27 686.72,-337.63"/>
<polygon fill="#63b8ff" stroke="#63b8ff" points="688.51,-334.61 677.97,-333.55 685.55,-340.95 688.51,-334.61"/>
</g>
<!-- Node28 -->
<g id="node28" class="node">
<title>Node28</title>
<g id="a_node28"><a xlink:title=" ">
<polygon fill="#e0e0e0" stroke="#999999" points="873,-525 811,-525 811,-506 873,-506 873,-525"/>
<text text-anchor="middle" x="842" y="-513" font-family="Helvetica,sans-Serif" font-size="10.00">type_traits</text>
</a>
</g>
</g>
<!-- Node27&#45;&gt;Node28 -->
<g id="edge36" class="edge">
<title>Node27&#45;&gt;Node28</title>
<path fill="none" stroke="#63b8ff" d="M758.96,-560.51C774.36,-552.35 797.31,-540.19 815.19,-530.71"/>
<polygon fill="#63b8ff" stroke="#63b8ff" points="816.75,-533.84 823.95,-526.07 813.47,-527.66 816.75,-533.84"/>
</g>
<!-- Node29 -->
<g id="node29" class="node">
<title>Node29</title>
<g id="a_node29"><a xlink:href="compact__integer_8hpp.html" target="_top" xlink:title=" ">
<polygon fill="white" stroke="#666666" points="668.5,-404 569.5,-404 569.5,-374 668.5,-374 668.5,-404"/>
<text text-anchor="start" x="577.5" y="-392" font-family="Helvetica,sans-Serif" font-size="10.00">primitives/compact</text>
<text text-anchor="middle" x="619" y="-381" font-family="Helvetica,sans-Serif" font-size="10.00">_integer.hpp</text>
</a>
</g>
</g>
<!-- Node27&#45;&gt;Node29 -->
<g id="edge41" class="edge">
<title>Node27&#45;&gt;Node29</title>
<path fill="none" stroke="#63b8ff" d="M673.27,-566.13C607.58,-558.81 511.81,-536.56 465,-470 457.33,-459.09 457.16,-450.79 465,-440 470.88,-431.9 517.9,-417.34 558.45,-406.01"/>
<polygon fill="#63b8ff" stroke="#63b8ff" points="559.24,-409.42 567.94,-403.38 557.37,-402.67 559.24,-409.42"/>
</g>
<!-- Node31 -->
<g id="node31" class="node">
<title>Node31</title>
<g id="a_node31"><a xlink:href="digest_8hpp.html" target="_top" xlink:title=" ">
<polygon fill="white" stroke="#666666" points="755,-525 649,-525 649,-506 755,-506 755,-525"/>
<text text-anchor="middle" x="702" y="-513" font-family="Helvetica,sans-Serif" font-size="10.00">primitives/digest.hpp</text>
</a>
</g>
</g>
<!-- Node27&#45;&gt;Node31 -->
<g id="edge46" class="edge">
<title>Node27&#45;&gt;Node31</title>
<path fill="none" stroke="#63b8ff" d="M735.39,-560.75C730.04,-553.66 722.32,-543.42 715.65,-534.59"/>
<polygon fill="#63b8ff" stroke="#63b8ff" points="718.48,-532.52 709.66,-526.65 712.89,-536.74 718.48,-532.52"/>
</g>
<!-- Node30 -->
<g id="node30" class="node">
<title>Node30</title>
<g id="a_node30"><a xlink:href="scale_2types_8hpp.html" target="_top" xlink:title=" ">
<polygon fill="white" stroke="#666666" points="528,-206 444,-206 444,-187 528,-187 528,-206"/>
<text text-anchor="middle" x="486" y="-194" font-family="Helvetica,sans-Serif" font-size="10.00">scale/types.hpp</text>
</a>
</g>
</g>
<!-- Node29&#45;&gt;Node30 -->
<g id="edge42" class="edge">
<title>Node29&#45;&gt;Node30</title>
<path fill="none" stroke="#63b8ff" d="M609,-373.68C585.15,-339.51 524.93,-253.25 498.62,-215.58"/>
<polygon fill="#63b8ff" stroke="#63b8ff" points="501.62,-213.76 493.03,-207.56 495.88,-217.77 501.62,-213.76"/>
</g>
<!-- Node30&#45;&gt;Node2 -->
<g id="edge45" class="edge">
<title>Node30&#45;&gt;Node2</title>
<path fill="none" stroke="#63b8ff" d="M528.2,-192.59C651.45,-184 1002.84,-158.89 1012,-151 1028.96,-136.39 1032.27,-109.66 1032.29,-91.14"/>
<polygon fill="#63b8ff" stroke="#63b8ff" points="1035.8,-91.27 1031.96,-81.4 1028.8,-91.51 1035.8,-91.27"/>
</g>
<!-- Node30&#45;&gt;Node6 -->
<g id="edge43" class="edge">
<title>Node30&#45;&gt;Node6</title>
<path fill="none" stroke="#63b8ff" d="M485.21,-186.55C483.46,-166.72 479.21,-118.68 476.78,-91.19"/>
<polygon fill="#63b8ff" stroke="#63b8ff" points="480.28,-91.03 475.92,-81.38 473.31,-91.65 480.28,-91.03"/>
</g>
<!-- Node30&#45;&gt;Node12 -->
<g id="edge44" class="edge">
<title>Node30&#45;&gt;Node12</title>
<path fill="none" stroke="#63b8ff" d="M457.29,-186.62C430.09,-178.19 388.43,-165.3 354.4,-154.77"/>
<polygon fill="#63b8ff" stroke="#63b8ff" points="355.68,-151.5 345.1,-151.89 353.61,-158.19 355.68,-151.5"/>
</g>
<!-- Node32 -->
<g id="node32" class="node">
<title>Node32</title>
<g id="a_node32"><a xlink:title=" ">
<polygon fill="#e0e0e0" stroke="#999999" points="564.5,-464.5 473.5,-464.5 473.5,-445.5 564.5,-445.5 564.5,-464.5"/>
<text text-anchor="middle" x="519" y="-452.5" font-family="Helvetica,sans-Serif" font-size="10.00">boost/variant.hpp</text>
</a>
</g>
</g>
<!-- Node31&#45;&gt;Node32 -->
<g id="edge47" class="edge">
<title>Node31&#45;&gt;Node32</title>
<path fill="none" stroke="#63b8ff" d="M674.21,-505.62C643.17,-495.69 592.72,-479.57 557.8,-468.4"/>
<polygon fill="#63b8ff" stroke="#63b8ff" points="559.09,-465.14 548.5,-465.43 556.96,-471.81 559.09,-465.14"/>
</g>
<!-- Node33 -->
<g id="node33" class="node">
<title>Node33</title>
<g id="a_node33"><a xlink:href="buffer_8hpp.html" target="_top" xlink:title=" ">
<polygon fill="white" stroke="#666666" points="1002.5,-145.5 919.5,-145.5 919.5,-126.5 1002.5,-126.5 1002.5,-145.5"/>
<text text-anchor="middle" x="961" y="-133.5" font-family="Helvetica,sans-Serif" font-size="10.00">base/buffer.hpp</text>
</a>
</g>
</g>
<!-- Node31&#45;&gt;Node33 -->
<g id="edge48" class="edge">
<title>Node31&#45;&gt;Node33</title>
<path fill="none" stroke="#63b8ff" d="M739.96,-505.53C761.54,-498.79 787.81,-487.63 806,-470 901.8,-377.16 944.54,-213.67 956.96,-157.01"/>
<polygon fill="#63b8ff" stroke="#63b8ff" points="960.37,-157.78 959.01,-147.27 953.52,-156.34 960.37,-157.78"/>
</g>
<!-- Node35 -->
<g id="node35" class="node">
<title>Node35</title>
<g id="a_node35"><a xlink:href="unused_8hpp.html" target="_top" xlink:title=" ">
<polygon fill="white" stroke="#666666" points="673,-464.5 583,-464.5 583,-445.5 673,-445.5 673,-464.5"/>
<text text-anchor="middle" x="628" y="-452.5" font-family="Helvetica,sans-Serif" font-size="10.00">base/unused.hpp</text>
</a>
</g>
</g>
<!-- Node31&#45;&gt;Node35 -->
<g id="edge55" class="edge">
<title>Node31&#45;&gt;Node35</title>
<path fill="none" stroke="#63b8ff" d="M690.76,-505.62C679.46,-496.68 661.79,-482.72 648.08,-471.87"/>
<polygon fill="#63b8ff" stroke="#63b8ff" points="650.55,-469.36 640.53,-465.91 646.21,-474.85 650.55,-469.36"/>
</g>
<!-- Node36 -->
<g id="node36" class="node">
<title>Node36</title>
<g id="a_node36"><a xlink:href="scheduled__change_8hpp.html" target="_top" xlink:title=" ">
<polygon fill="white" stroke="#666666" points="797,-470 691,-470 691,-440 797,-440 797,-470"/>
<text text-anchor="start" x="699" y="-458" font-family="Helvetica,sans-Serif" font-size="10.00">primitives/scheduled</text>
<text text-anchor="middle" x="744" y="-447" font-family="Helvetica,sans-Serif" font-size="10.00">_change.hpp</text>
</a>
</g>
</g>
<!-- Node31&#45;&gt;Node36 -->
<g id="edge56" class="edge">
<title>Node31&#45;&gt;Node36</title>
<path fill="none" stroke="#63b8ff" d="M708.2,-505.87C713.21,-498.89 720.51,-488.71 727.22,-479.38"/>
<polygon fill="#63b8ff" stroke="#63b8ff" points="729.99,-481.51 732.98,-471.34 724.31,-477.43 729.99,-481.51"/>
</g>
<!-- Node33&#45;&gt;Node2 -->
<g id="edge54" class="edge">
<title>Node33&#45;&gt;Node2</title>
<path fill="none" stroke="#63b8ff" d="M970.73,-126.1C981.6,-116.17 999.42,-99.87 1012.87,-87.57"/>
<polygon fill="#63b8ff" stroke="#63b8ff" points="1015.21,-90.18 1020.23,-80.84 1010.49,-85.01 1015.21,-90.18"/>
</g>
<!-- Node33&#45;&gt;Node6 -->
<g id="edge50" class="edge">
<title>Node33&#45;&gt;Node6</title>
<path fill="none" stroke="#63b8ff" d="M931.8,-126.06C924.72,-124.15 917.13,-122.31 910,-121 746.64,-90.9 702.05,-111.07 538,-85 528.32,-83.46 517.91,-81.34 508.39,-79.22"/>
<polygon fill="#63b8ff" stroke="#63b8ff" points="509.33,-75.84 498.8,-77 507.75,-82.66 509.33,-75.84"/>
</g>
<!-- Node33&#45;&gt;Node13 -->
<g id="edge53" class="edge">
<title>Node33&#45;&gt;Node13</title>
<path fill="none" stroke="#63b8ff" d="M932.09,-126.03C924.93,-124.1 917.24,-122.26 910,-121 705.35,-85.34 651.04,-101.83 444,-85 400.82,-81.49 351.26,-77.23 318.02,-74.33"/>
<polygon fill="#63b8ff" stroke="#63b8ff" points="318.76,-70.88 308.49,-73.5 318.15,-77.86 318.76,-70.88"/>
</g>
<!-- Node33&#45;&gt;Node18 -->
<g id="edge49" class="edge">
<title>Node33&#45;&gt;Node18</title>
<path fill="none" stroke="#63b8ff" d="M933.47,-126.1C899.14,-115 840.25,-95.97 801.47,-83.43"/>
<polygon fill="#63b8ff" stroke="#63b8ff" points="802.65,-80.14 792.06,-80.39 800.49,-86.8 802.65,-80.14"/>
</g>
<!-- Node33&#45;&gt;Node24 -->
<g id="edge52" class="edge">
<title>Node33&#45;&gt;Node24</title>
<path fill="none" stroke="#63b8ff" d="M930.39,-126.02C923.7,-124.22 916.64,-122.44 910,-121 824.32,-102.43 724.04,-87.56 660.76,-79.01"/>
<polygon fill="#63b8ff" stroke="#63b8ff" points="661.27,-75.55 650.89,-77.69 660.34,-82.48 661.27,-75.55"/>
</g>
<!-- Node34 -->
<g id="node34" class="node">
<title>Node34</title>
<g id="a_node34"><a xlink:title=" ">
<polygon fill="#e0e0e0" stroke="#999999" points="956,-85 846,-85 846,-55 956,-55 956,-85"/>
<text text-anchor="start" x="854" y="-73" font-family="Helvetica,sans-Serif" font-size="10.00">boost/container_hash</text>
<text text-anchor="middle" x="901" y="-62" font-family="Helvetica,sans-Serif" font-size="10.00">/hash.hpp</text>
</a>
</g>
</g>
<!-- Node33&#45;&gt;Node34 -->
<g id="edge51" class="edge">
<title>Node33&#45;&gt;Node34</title>
<path fill="none" stroke="#63b8ff" d="M952.66,-126.1C944.75,-117.67 932.56,-104.66 922,-93.4"/>
<polygon fill="#63b8ff" stroke="#63b8ff" points="924.77,-91.24 915.38,-86.34 919.67,-96.03 924.77,-91.24"/>
</g>
<!-- Node36&#45;&gt;Node21 -->
<g id="edge57" class="edge">
<title>Node36&#45;&gt;Node21</title>
<path fill="none" stroke="#63b8ff" d="M690.77,-440.43C645.72,-428.94 581.83,-412.65 538.98,-401.72"/>
<polygon fill="#63b8ff" stroke="#63b8ff" points="540.05,-398.38 529.49,-399.3 538.32,-405.17 540.05,-398.38"/>
</g>
<!-- Node36&#45;&gt;Node23 -->
<g id="edge58" class="edge">
<title>Node36&#45;&gt;Node23</title>
<path fill="none" stroke="#63b8ff" d="M734.14,-439.59C717.83,-415.77 685.27,-368.22 667.42,-342.15"/>
<polygon fill="#63b8ff" stroke="#63b8ff" points="670.35,-340.23 661.82,-333.96 664.58,-344.19 670.35,-340.23"/>
</g>
<!-- Node37&#45;&gt;Node33 -->
<g id="edge60" class="edge">
<title>Node37&#45;&gt;Node33</title>
<path fill="none" stroke="#63b8ff" d="M986.07,-379.07C982.35,-343.16 968.44,-208.79 963.1,-157.28"/>
<polygon fill="#63b8ff" stroke="#63b8ff" points="966.58,-156.92 962.07,-147.33 959.62,-157.64 966.58,-156.92"/>
</g>
</g>
</svg>
        <g id="navigator" transform="translate(0 0)" fill="#404254">
                <rect fill="#f2f5e9" fill-opacity="0.5" stroke="#606060" stroke-width=".5" x="0" y="0" width="60" height="60"/>
                <use id="zoomplus" xlink:href="#zoomPlus" x="17" y="9" onmousedown="handleZoom(evt,'in')"/>
                <use id="zoomminus" xlink:href="#zoomMin" x="42" y="9" onmousedown="handleZoom(evt,'out')"/>
                <use id="reset" xlink:href="#resetDef" x="30" y="36" onmousedown="handleReset()"/>
                <g id="arrowUp" xlink:href="#dirArrow" transform="translate(30 24)" onmousedown="handlePan(0,-1)">
                  <use xlink:href="#rim" fill="#404040">
                        <set attributeName="fill" to="#808080" begin="arrowUp.mouseover" end="arrowUp.mouseout"/>
                  </use>
                  <path fill="none" stroke="white" stroke-width="1.5" d="M0,-3.0v7 M-2.5,-0.5L0,-3.0L2.5,-0.5"/>
                </g>
                <g id="arrowRight" xlink:href="#dirArrow" transform="rotate(90) translate(36 -43)" onmousedown="handlePan(1,0)">
                  <use xlink:href="#rim" fill="#404040">
                        <set attributeName="fill" to="#808080" begin="arrowRight.mouseover" end="arrowRight.mouseout"/>
                  </use>
                  <path fill="none" stroke="white" stroke-width="1.5" d="M0,-3.0v7 M-2.5,-0.5L0,-3.0L2.5,-0.5"/>
                </g>
                <g id="arrowDown" xlink:href="#dirArrow" transform="rotate(180) translate(-30 -48)" onmousedown="handlePan(0,1)">
                  <use xlink:href="#rim" fill="#404040">
                        <set attributeName="fill" to="#808080" begin="arrowDown.mouseover" end="arrowDown.mouseout"/>
                  </use>
                  <path fill="none" stroke="white" stroke-width="1.5" d="M0,-3.0v7 M-2.5,-0.5L0,-3.0L2.5,-0.5"/>
                </g>
                <g id="arrowLeft" xlink:href="#dirArrow" transform="rotate(270) translate(-36 17)" onmousedown="handlePan(-1,0)">
                  <use xlink:href="#rim" fill="#404040">
                        <set attributeName="fill" to="#808080" begin="arrowLeft.mouseover" end="arrowLeft.mouseout"/>
                  </use>
                  <path fill="none" stroke="white" stroke-width="1.5" d="M0,-3.0v7 M-2.5,-0.5L0,-3.0L2.5,-0.5"/>
                </g>
        </g>
        <svg viewBox="0 0 15 15" width="100%" height="30px" preserveAspectRatio="xMaxYMin meet">
         <g id="arrow_out" transform="scale(0.3 0.3)">
          <a xlink:href="block__validator_8hpp__incl_org.svg" target="_base">
           <rect id="button" ry="5" rx="5" y="6" x="6" height="38" width="38"
                fill="#f2f5e9" fill-opacity="0.5" stroke="#606060" stroke-width="1.0"/>
           <path id="arrow"
             d="M 11.500037,31.436501 C 11.940474,20.09759 22.043105,11.32322 32.158766,21.979434 L 37.068811,17.246167 C 37.068811,17.246167 37.088388,32 37.088388,32 L 22.160133,31.978069 C 22.160133,31.978069 26.997745,27.140456 26.997745,27.140456 C 18.528582,18.264221 13.291696,25.230495 11.500037,31.436501 z"
             style="fill:#404040;"/>
          </a>
         </g>
        </svg>
</svg>
