<?xml version="1.0" encoding="UTF-8" standalone="no"?>
<!DOCTYPE svg PUBLIC "-//W3C//DTD SVG 1.1//EN"
 "http://www.w3.org/Graphics/SVG/1.1/DTD/svg11.dtd">
<!-- Generated by graphviz version 7.0.5 (20221223.1930)
 -->
<!-- Title: src/blockchain/block_header_repository.hpp Pages: 1 -->
<!--zoomable 643 -->
<svg id="main" version="1.1" xmlns="http://www.w3.org/2000/svg" xmlns:xlink="http://www.w3.org/1999/xlink" xml:space="preserve" onload="init(evt)">
<style type="text/css"><![CDATA[
.edge:hover path { stroke: red; }
.edge:hover polygon { stroke: red; fill: red; }
]]></style>
<script type="text/javascript"><![CDATA[
var edges = document.getElementsByTagName('g');
if (edges && edges.length) {
  for (var i=0;i<edges.length;i++) {
    if (edges[i].id.substr(0,4)=='edge') {
      edges[i].setAttribute('class','edge');
    }
  }
}
]]></script>
        <defs>
                <circle id="rim" cx="0" cy="0" r="7"/>
                <circle id="rim2" cx="0" cy="0" r="3.5"/>
                <g id="zoomPlus">
                        <use xlink:href="#rim" fill="#404040">
                                <set attributeName="fill" to="#808080" begin="zoomplus.mouseover" end="zoomplus.mouseout"/>
                        </use>
                        <path d="M-4,0h8M0,-4v8" fill="none" stroke="white" stroke-width="1.5" pointer-events="none"/>
                </g>
                <g id="zoomMin">
                        <use xlink:href="#rim" fill="#404040">
                                <set attributeName="fill" to="#808080" begin="zoomminus.mouseover" end="zoomminus.mouseout"/>
                        </use>
                        <path d="M-4,0h8" fill="none" stroke="white" stroke-width="1.5" pointer-events="none"/>
                </g>
                <g id="dirArrow">
                        <path fill="none" stroke="white" stroke-width="1.5" d="M0,-3.0v7 M-2.5,-0.5L0,-3.0L2.5,-0.5"/>
                </g>
               <g id="resetDef">
                       <use xlink:href="#rim2" fill="#404040">
                               <set attributeName="fill" to="#808080" begin="reset.mouseover" end="reset.mouseout"/>
                       </use>
               </g>
        </defs>

<script type="text/javascript">
var viewWidth = 911;
var viewHeight = 643;
var sectionId = 'dynsection-0';
</script>
<script xlink:href="svgpan.js"/>
<svg id="graph" class="graph">
<g id="viewport">
<title>src/blockchain/block_header_repository.hpp</title>
<!-- Node1 -->
<g id="node1" class="node">
<title>Node1</title>
<g id="a_node1"><a xlink:title=" ">
<polygon fill="#999999" stroke="#666666" points="219.5,-635 103.5,-635 103.5,-605 219.5,-605 219.5,-635"/>
<text text-anchor="start" x="111.5" y="-623" font-family="Helvetica,sans-Serif" font-size="10.00">src/blockchain/block</text>
<text text-anchor="middle" x="161.5" y="-612" font-family="Helvetica,sans-Serif" font-size="10.00">_header_repository.hpp</text>
</a>
</g>
</g>
<!-- Node2 -->
<g id="node2" class="node">
<title>Node2</title>
<g id="a_node2"><a xlink:title=" ">
<polygon fill="#e0e0e0" stroke="#999999" points="95,-569 0,-569 0,-550 95,-550 95,-569"/>
<text text-anchor="middle" x="47.5" y="-557" font-family="Helvetica,sans-Serif" font-size="10.00">boost/optional.hpp</text>
</a>
</g>
</g>
<!-- Node1&#45;&gt;Node2 -->
<g id="edge1" class="edge">
<title>Node1&#45;&gt;Node2</title>
<path fill="none" stroke="#63b8ff" d="M133.32,-604.54C115.52,-595.4 92.63,-583.66 74.97,-574.6"/>
<polygon fill="#63b8ff" stroke="#63b8ff" points="76.58,-571.49 66.09,-570.04 73.38,-577.72 76.58,-571.49"/>
</g>
<!-- Node3 -->
<g id="node3" class="node">
<title>Node3</title>
<g id="a_node3"><a xlink:href="outcome_8hpp.html" target="_top" xlink:title=" ">
<polygon fill="white" stroke="#666666" points="380,-79.5 267,-79.5 267,-60.5 380,-60.5 380,-79.5"/>
<text text-anchor="middle" x="323.5" y="-67.5" font-family="Helvetica,sans-Serif" font-size="10.00">outcome/outcome.hpp</text>
</a>
</g>
</g>
<!-- Node1&#45;&gt;Node3 -->
<g id="edge2" class="edge">
<title>Node1&#45;&gt;Node3</title>
<path fill="none" stroke="#63b8ff" d="M153.81,-604.81C142.71,-582.97 123.5,-539.47 123.5,-500 123.5,-500 123.5,-500 123.5,-184.5 123.5,-155.04 121.45,-141.61 142.5,-121 172.4,-91.73 217.8,-79.24 255.66,-74.07"/>
<polygon fill="#63b8ff" stroke="#63b8ff" points="255.62,-77.6 265.12,-72.92 254.77,-70.65 255.62,-77.6"/>
</g>
<!-- Node5 -->
<g id="node5" class="node">
<title>Node5</title>
<g id="a_node5"><a xlink:href="blob_8hpp.html" target="_top" xlink:title=" ">
<polygon fill="white" stroke="#666666" points="293,-195 216,-195 216,-176 293,-176 293,-195"/>
<text text-anchor="middle" x="254.5" y="-183" font-family="Helvetica,sans-Serif" font-size="10.00">base/blob.hpp</text>
</a>
</g>
</g>
<!-- Node1&#45;&gt;Node5 -->
<g id="edge4" class="edge">
<title>Node1&#45;&gt;Node5</title>
<path fill="none" stroke="#63b8ff" d="M161.5,-604.71C161.5,-582.37 161.5,-537.81 161.5,-500 161.5,-500 161.5,-500 161.5,-305.5 161.5,-260.43 203.43,-222.23 230.98,-202"/>
<polygon fill="#63b8ff" stroke="#63b8ff" points="232.98,-204.87 239.14,-196.25 228.95,-199.15 232.98,-204.87"/>
</g>
<!-- Node13 -->
<g id="node13" class="node">
<title>Node13</title>
<g id="a_node13"><a xlink:href="block__header_8hpp.html" target="_top" xlink:title=" ">
<polygon fill="white" stroke="#666666" points="616,-569 479,-569 479,-550 616,-550 616,-569"/>
<text text-anchor="middle" x="547.5" y="-557" font-family="Helvetica,sans-Serif" font-size="10.00">primitives/block_header.hpp</text>
</a>
</g>
</g>
<!-- Node1&#45;&gt;Node13 -->
<g id="edge13" class="edge">
<title>Node1&#45;&gt;Node13</title>
<path fill="none" stroke="#63b8ff" d="M219.71,-610.18C288.62,-599.73 403.33,-582.35 477.15,-571.16"/>
<polygon fill="#63b8ff" stroke="#63b8ff" points="477.33,-574.68 486.69,-569.72 476.28,-567.75 477.33,-574.68"/>
</g>
<!-- Node30 -->
<g id="node30" class="node">
<title>Node30</title>
<g id="a_node30"><a xlink:href="block__id_8hpp.html" target="_top" xlink:title=" ">
<polygon fill="white" stroke="#666666" points="343.5,-508.5 227.5,-508.5 227.5,-489.5 343.5,-489.5 343.5,-508.5"/>
<text text-anchor="middle" x="285.5" y="-496.5" font-family="Helvetica,sans-Serif" font-size="10.00">primitives/block_id.hpp</text>
</a>
</g>
</g>
<!-- Node1&#45;&gt;Node30 -->
<g id="edge44" class="edge">
<title>Node1&#45;&gt;Node30</title>
<path fill="none" stroke="#63b8ff" d="M176.21,-604.88C199.29,-582.73 243.91,-539.91 268.39,-516.42"/>
<polygon fill="#63b8ff" stroke="#63b8ff" points="270.54,-519.21 275.33,-509.76 265.69,-514.16 270.54,-519.21"/>
</g>
<!-- Node4 -->
<g id="node4" class="node">
<title>Node4</title>
<g id="a_node4"><a xlink:title=" ">
<polygon fill="#e0e0e0" stroke="#999999" points="394,-19 253,-19 253,0 394,0 394,-19"/>
<text text-anchor="middle" x="323.5" y="-7" font-family="Helvetica,sans-Serif" font-size="10.00">libp2p/outcome/outcome.hpp</text>
</a>
</g>
</g>
<!-- Node3&#45;&gt;Node4 -->
<g id="edge3" class="edge">
<title>Node3&#45;&gt;Node4</title>
<path fill="none" stroke="#63b8ff" d="M323.5,-60.37C323.5,-52.5 323.5,-40.6 323.5,-30.39"/>
<polygon fill="#63b8ff" stroke="#63b8ff" points="327,-30.68 323.5,-20.68 320,-30.68 327,-30.68"/>
</g>
<!-- Node6 -->
<g id="node6" class="node">
<title>Node6</title>
<g id="a_node6"><a xlink:title=" ">
<polygon fill="#e0e0e0" stroke="#999999" points="189.5,-140 151.5,-140 151.5,-121 189.5,-121 189.5,-140"/>
<text text-anchor="middle" x="170.5" y="-128" font-family="Helvetica,sans-Serif" font-size="10.00">array</text>
</a>
</g>
</g>
<!-- Node5&#45;&gt;Node6 -->
<g id="edge5" class="edge">
<title>Node5&#45;&gt;Node6</title>
<path fill="none" stroke="#63b8ff" d="M240.25,-175.51C227.62,-167.54 208.94,-155.75 194.09,-146.38"/>
<polygon fill="#63b8ff" stroke="#63b8ff" points="196.14,-143.54 185.82,-141.17 192.41,-149.46 196.14,-143.54"/>
</g>
<!-- Node7 -->
<g id="node7" class="node">
<title>Node7</title>
<g id="a_node7"><a xlink:title=" ">
<polygon fill="#e0e0e0" stroke="#999999" points="335.5,-140 207.5,-140 207.5,-121 335.5,-121 335.5,-140"/>
<text text-anchor="middle" x="271.5" y="-128" font-family="Helvetica,sans-Serif" font-size="10.00">boost/functional/hash.hpp</text>
</a>
</g>
</g>
<!-- Node5&#45;&gt;Node7 -->
<g id="edge6" class="edge">
<title>Node5&#45;&gt;Node7</title>
<path fill="none" stroke="#63b8ff" d="M257.31,-175.75C259.44,-169.11 262.44,-159.73 265.14,-151.31"/>
<polygon fill="#63b8ff" stroke="#63b8ff" points="268.45,-152.47 268.17,-141.88 261.78,-150.34 268.45,-152.47"/>
</g>
<!-- Node8 -->
<g id="node8" class="node">
<title>Node8</title>
<g id="a_node8"><a xlink:href="hexutil_8hpp.html" target="_top" xlink:title=" ">
<polygon fill="white" stroke="#666666" points="549.5,-140 463.5,-140 463.5,-121 549.5,-121 549.5,-140"/>
<text text-anchor="middle" x="506.5" y="-128" font-family="Helvetica,sans-Serif" font-size="10.00">base/hexutil.hpp</text>
</a>
</g>
</g>
<!-- Node5&#45;&gt;Node8 -->
<g id="edge7" class="edge">
<title>Node5&#45;&gt;Node8</title>
<path fill="none" stroke="#63b8ff" d="M293.32,-176.33C336.01,-167.36 404.89,-152.87 452.76,-142.8"/>
<polygon fill="#63b8ff" stroke="#63b8ff" points="453.29,-146.27 462.36,-140.78 451.85,-139.42 453.29,-146.27"/>
</g>
<!-- Node12 -->
<g id="node12" class="node">
<title>Node12</title>
<g id="a_node12"><a xlink:title=" ">
<polygon fill="#e0e0e0" stroke="#999999" points="407.5,-140 353.5,-140 353.5,-121 407.5,-121 407.5,-140"/>
<text text-anchor="middle" x="380.5" y="-128" font-family="Helvetica,sans-Serif" font-size="10.00">iostream</text>
</a>
</g>
</g>
<!-- Node5&#45;&gt;Node12 -->
<g id="edge12" class="edge">
<title>Node5&#45;&gt;Node12</title>
<path fill="none" stroke="#63b8ff" d="M275.87,-175.51C295.91,-167.08 326.1,-154.38 348.91,-144.79"/>
<polygon fill="#63b8ff" stroke="#63b8ff" points="350.19,-148.05 358.05,-140.94 347.47,-141.6 350.19,-148.05"/>
</g>
<!-- Node8&#45;&gt;Node3 -->
<g id="edge11" class="edge">
<title>Node8&#45;&gt;Node3</title>
<path fill="none" stroke="#63b8ff" d="M478.71,-120.62C447.67,-110.69 397.22,-94.57 362.3,-83.4"/>
<polygon fill="#63b8ff" stroke="#63b8ff" points="363.59,-80.14 353,-80.43 361.46,-86.81 363.59,-80.14"/>
</g>
<!-- Node9 -->
<g id="node9" class="node">
<title>Node9</title>
<g id="a_node9"><a xlink:title=" ">
<polygon fill="#e0e0e0" stroke="#999999" points="464.5,-79.5 398.5,-79.5 398.5,-60.5 464.5,-60.5 464.5,-79.5"/>
<text text-anchor="middle" x="431.5" y="-67.5" font-family="Helvetica,sans-Serif" font-size="10.00">string_view</text>
</a>
</g>
</g>
<!-- Node8&#45;&gt;Node9 -->
<g id="edge8" class="edge">
<title>Node8&#45;&gt;Node9</title>
<path fill="none" stroke="#63b8ff" d="M495.11,-120.62C483.66,-111.68 465.75,-97.72 451.85,-86.87"/>
<polygon fill="#63b8ff" stroke="#63b8ff" points="454.23,-84.29 444.19,-80.9 449.92,-89.81 454.23,-84.29"/>
</g>
<!-- Node10 -->
<g id="node10" class="node">
<title>Node10</title>
<g id="a_node10"><a xlink:title=" ">
<polygon fill="#e0e0e0" stroke="#999999" points="846.5,-79.5 802.5,-79.5 802.5,-60.5 846.5,-60.5 846.5,-79.5"/>
<text text-anchor="middle" x="824.5" y="-67.5" font-family="Helvetica,sans-Serif" font-size="10.00">vector</text>
</a>
</g>
</g>
<!-- Node8&#45;&gt;Node10 -->
<g id="edge9" class="edge">
<title>Node8&#45;&gt;Node10</title>
<path fill="none" stroke="#63b8ff" d="M549.91,-122.37C552.81,-121.9 555.7,-121.44 558.5,-121 662.86,-104.48 692.19,-115.02 793.5,-85 794.47,-84.71 795.44,-84.4 796.42,-84.07"/>
<polygon fill="#63b8ff" stroke="#63b8ff" points="797.35,-87.47 805.38,-80.55 794.79,-80.95 797.35,-87.47"/>
</g>
<!-- Node11 -->
<g id="node11" class="node">
<title>Node11</title>
<g id="a_node11"><a xlink:title=" ">
<polygon fill="#e0e0e0" stroke="#999999" points="536,-79.5 483,-79.5 483,-60.5 536,-60.5 536,-79.5"/>
<text text-anchor="middle" x="509.5" y="-67.5" font-family="Helvetica,sans-Serif" font-size="10.00">gsl/span</text>
</a>
</g>
</g>
<!-- Node8&#45;&gt;Node11 -->
<g id="edge10" class="edge">
<title>Node8&#45;&gt;Node11</title>
<path fill="none" stroke="#63b8ff" d="M506.94,-120.87C507.35,-113 507.96,-101.1 508.48,-90.89"/>
<polygon fill="#63b8ff" stroke="#63b8ff" points="511.96,-91.35 508.98,-81.18 504.97,-90.99 511.96,-91.35"/>
</g>
<!-- Node13&#45;&gt;Node5 -->
<g id="edge17" class="edge">
<title>Node13&#45;&gt;Node5</title>
<path fill="none" stroke="#63b8ff" d="M478.56,-558.07C393.5,-556.08 255.56,-547.57 218.5,-514 191.42,-489.47 199.5,-470.54 199.5,-434 199.5,-434 199.5,-434 199.5,-305.5 199.5,-266.62 223.99,-226.64 240.29,-204.34"/>
<polygon fill="#63b8ff" stroke="#63b8ff" points="242.9,-206.69 246.17,-196.61 237.33,-202.45 242.9,-206.69"/>
</g>
<!-- Node13&#45;&gt;Node10 -->
<g id="edge15" class="edge">
<title>Node13&#45;&gt;Node10</title>
<path fill="none" stroke="#63b8ff" d="M616.37,-558.61C673.79,-556.12 756.3,-546.4 820.5,-514 865.96,-491.06 902.5,-484.92 902.5,-434 902.5,-434 902.5,-434 902.5,-184.5 902.5,-143.94 868.25,-107.3 845.15,-87.19"/>
<polygon fill="#63b8ff" stroke="#63b8ff" points="847.43,-84.54 837.51,-80.82 842.95,-89.92 847.43,-84.54"/>
</g>
<!-- Node14 -->
<g id="node14" class="node">
<title>Node14</title>
<g id="a_node14"><a xlink:title=" ">
<polygon fill="#e0e0e0" stroke="#999999" points="527.5,-508.5 465.5,-508.5 465.5,-489.5 527.5,-489.5 527.5,-508.5"/>
<text text-anchor="middle" x="496.5" y="-496.5" font-family="Helvetica,sans-Serif" font-size="10.00">type_traits</text>
</a>
</g>
</g>
<!-- Node13&#45;&gt;Node14 -->
<g id="edge14" class="edge">
<title>Node13&#45;&gt;Node14</title>
<path fill="none" stroke="#63b8ff" d="M539.97,-549.87C532.52,-541.31 520.89,-527.97 511.53,-517.24"/>
<polygon fill="#63b8ff" stroke="#63b8ff" points="514.26,-515.05 505.05,-509.81 508.98,-519.65 514.26,-515.05"/>
</g>
<!-- Node15 -->
<g id="node15" class="node">
<title>Node15</title>
<g id="a_node15"><a xlink:title=" ">
<polygon fill="#e0e0e0" stroke="#999999" points="874.5,-382 770.5,-382 770.5,-352 874.5,-352 874.5,-382"/>
<text text-anchor="start" x="778.5" y="-370" font-family="Helvetica,sans-Serif" font-size="10.00">boost/multiprecision</text>
<text text-anchor="middle" x="822.5" y="-359" font-family="Helvetica,sans-Serif" font-size="10.00">/cpp_int.hpp</text>
</a>
</g>
</g>
<!-- Node13&#45;&gt;Node15 -->
<g id="edge16" class="edge">
<title>Node13&#45;&gt;Node15</title>
<path fill="none" stroke="#63b8ff" d="M616.26,-554.35C680.64,-549.06 770.69,-537.6 796.5,-514 829.69,-483.65 829.69,-426.74 826.34,-393.65"/>
<polygon fill="#63b8ff" stroke="#63b8ff" points="829.82,-393.24 825.14,-383.74 822.87,-394.09 829.82,-393.24"/>
</g>
<!-- Node16 -->
<g id="node16" class="node">
<title>Node16</title>
<g id="a_node16"><a xlink:href="src_2primitives_2common_8hpp.html" target="_top" xlink:title=" ">
<polygon fill="white" stroke="#666666" points="503,-316 386,-316 386,-297 503,-297 503,-316"/>
<text text-anchor="middle" x="444.5" y="-304" font-family="Helvetica,sans-Serif" font-size="10.00">primitives/common.hpp</text>
</a>
</g>
</g>
<!-- Node13&#45;&gt;Node16 -->
<g id="edge18" class="edge">
<title>Node13&#45;&gt;Node16</title>
<path fill="none" stroke="#63b8ff" d="M512.38,-549.56C493.1,-542.87 470.35,-531.75 456.5,-514 413.25,-458.56 429.14,-367.12 439.01,-327.18"/>
<polygon fill="#63b8ff" stroke="#63b8ff" points="442.37,-328.16 441.53,-317.6 435.6,-326.38 442.37,-328.16"/>
</g>
<!-- Node20 -->
<g id="node20" class="node">
<title>Node20</title>
<g id="a_node20"><a xlink:href="compact__integer_8hpp.html" target="_top" xlink:title=" ">
<polygon fill="white" stroke="#666666" points="787,-514 688,-514 688,-484 787,-484 787,-514"/>
<text text-anchor="start" x="696" y="-502" font-family="Helvetica,sans-Serif" font-size="10.00">primitives/compact</text>
<text text-anchor="middle" x="737.5" y="-491" font-family="Helvetica,sans-Serif" font-size="10.00">_integer.hpp</text>
</a>
</g>
</g>
<!-- Node13&#45;&gt;Node20 -->
<g id="edge23" class="edge">
<title>Node13&#45;&gt;Node20</title>
<path fill="none" stroke="#63b8ff" d="M576.36,-549.62C603.71,-541.19 645.59,-528.3 679.79,-517.77"/>
<polygon fill="#63b8ff" stroke="#63b8ff" points="680.63,-521.17 689.16,-514.88 678.57,-514.48 680.63,-521.17"/>
</g>
<!-- Node22 -->
<g id="node22" class="node">
<title>Node22</title>
<g id="a_node22"><a xlink:href="digest_8hpp.html" target="_top" xlink:title=" ">
<polygon fill="white" stroke="#666666" points="651.5,-508.5 545.5,-508.5 545.5,-489.5 651.5,-489.5 651.5,-508.5"/>
<text text-anchor="middle" x="598.5" y="-496.5" font-family="Helvetica,sans-Serif" font-size="10.00">primitives/digest.hpp</text>
</a>
</g>
</g>
<!-- Node13&#45;&gt;Node22 -->
<g id="edge28" class="edge">
<title>Node13&#45;&gt;Node22</title>
<path fill="none" stroke="#63b8ff" d="M555.03,-549.87C562.48,-541.31 574.11,-527.97 583.47,-517.24"/>
<polygon fill="#63b8ff" stroke="#63b8ff" points="586.02,-519.65 589.95,-509.81 580.74,-515.05 586.02,-519.65"/>
</g>
<!-- Node17 -->
<g id="node17" class="node">
<title>Node17</title>
<g id="a_node17"><a xlink:title=" ">
<polygon fill="#e0e0e0" stroke="#999999" points="624.5,-255.5 578.5,-255.5 578.5,-236.5 624.5,-236.5 624.5,-255.5"/>
<text text-anchor="middle" x="601.5" y="-243.5" font-family="Helvetica,sans-Serif" font-size="10.00">cstdint</text>
</a>
</g>
</g>
<!-- Node16&#45;&gt;Node17 -->
<g id="edge19" class="edge">
<title>Node16&#45;&gt;Node17</title>
<path fill="none" stroke="#63b8ff" d="M468.88,-296.51C493.14,-287.56 531.42,-273.39 564.5,-261 565.46,-260.64 566.43,-260.28 567.41,-259.91"/>
<polygon fill="#63b8ff" stroke="#63b8ff" points="568.48,-263.25 576.6,-256.44 566.01,-256.69 568.48,-263.25"/>
</g>
<!-- Node18 -->
<g id="node18" class="node">
<title>Node18</title>
<g id="a_node18"><a xlink:title=" ">
<polygon fill="#e0e0e0" stroke="#999999" points="784.5,-79.5 682.5,-79.5 682.5,-60.5 784.5,-60.5 784.5,-79.5"/>
<text text-anchor="middle" x="733.5" y="-67.5" font-family="Helvetica,sans-Serif" font-size="10.00">boost/operators.hpp</text>
</a>
</g>
</g>
<!-- Node16&#45;&gt;Node18 -->
<g id="edge20" class="edge">
<title>Node16&#45;&gt;Node18</title>
<path fill="none" stroke="#63b8ff" d="M456.94,-296.56C490.46,-272.35 585.13,-203.06 659.5,-140 679.69,-122.88 701.76,-102 716.49,-87.72"/>
<polygon fill="#63b8ff" stroke="#63b8ff" points="718.84,-90.33 723.55,-80.84 713.95,-85.31 718.84,-90.33"/>
</g>
<!-- Node19 -->
<g id="node19" class="node">
<title>Node19</title>
<g id="a_node19"><a xlink:href="session__key_8hpp.html" target="_top" xlink:title=" ">
<polygon fill="white" stroke="#666666" points="427,-261 332,-261 332,-231 427,-231 427,-261"/>
<text text-anchor="start" x="340" y="-249" font-family="Helvetica,sans-Serif" font-size="10.00">primitives/session</text>
<text text-anchor="middle" x="379.5" y="-238" font-family="Helvetica,sans-Serif" font-size="10.00">_key.hpp</text>
</a>
</g>
</g>
<!-- Node16&#45;&gt;Node19 -->
<g id="edge21" class="edge">
<title>Node16&#45;&gt;Node19</title>
<path fill="none" stroke="#63b8ff" d="M434.63,-296.62C426.53,-289.32 414.7,-278.68 404.08,-269.12"/>
<polygon fill="#63b8ff" stroke="#63b8ff" points="406.44,-266.54 396.67,-262.45 401.76,-271.74 406.44,-266.54"/>
</g>
<!-- Node19&#45;&gt;Node5 -->
<g id="edge22" class="edge">
<title>Node19&#45;&gt;Node5</title>
<path fill="none" stroke="#63b8ff" d="M348.6,-230.54C328.81,-221.28 303.27,-209.33 283.8,-200.21"/>
<polygon fill="#63b8ff" stroke="#63b8ff" points="285.31,-197.06 274.77,-195.99 282.35,-203.4 285.31,-197.06"/>
</g>
<!-- Node21 -->
<g id="node21" class="node">
<title>Node21</title>
<g id="a_node21"><a xlink:href="scale_2types_8hpp.html" target="_top" xlink:title=" ">
<polygon fill="white" stroke="#666666" points="805.5,-442.5 721.5,-442.5 721.5,-423.5 805.5,-423.5 805.5,-442.5"/>
<text text-anchor="middle" x="763.5" y="-430.5" font-family="Helvetica,sans-Serif" font-size="10.00">scale/types.hpp</text>
</a>
</g>
</g>
<!-- Node20&#45;&gt;Node21 -->
<g id="edge24" class="edge">
<title>Node20&#45;&gt;Node21</title>
<path fill="none" stroke="#63b8ff" d="M743.27,-483.8C746.93,-474.8 751.7,-463.04 755.69,-453.22"/>
<polygon fill="#63b8ff" stroke="#63b8ff" points="758.82,-454.83 759.34,-444.25 752.33,-452.19 758.82,-454.83"/>
</g>
<!-- Node21&#45;&gt;Node3 -->
<g id="edge27" class="edge">
<title>Node21&#45;&gt;Node3</title>
<path fill="none" stroke="#63b8ff" d="M759.85,-423.21C746.89,-392.88 700.18,-291.1 633.5,-231 567.21,-171.25 533.76,-181.02 454.5,-140 418.18,-121.21 376.42,-99.12 350,-85.1"/>
<polygon fill="#63b8ff" stroke="#63b8ff" points="351.81,-82.1 341.34,-80.5 348.53,-88.28 351.81,-82.1"/>
</g>
<!-- Node21&#45;&gt;Node10 -->
<g id="edge25" class="edge">
<title>Node21&#45;&gt;Node10</title>
<path fill="none" stroke="#63b8ff" d="M760.92,-423.03C755.32,-402.67 742.5,-351.34 742.5,-307.5 742.5,-307.5 742.5,-307.5 742.5,-184.5 742.5,-143.3 778.45,-106.9 802.74,-87"/>
<polygon fill="#63b8ff" stroke="#63b8ff" points="804.79,-89.84 810.5,-80.92 800.47,-84.34 804.79,-89.84"/>
</g>
<!-- Node21&#45;&gt;Node15 -->
<g id="edge26" class="edge">
<title>Node21&#45;&gt;Node15</title>
<path fill="none" stroke="#63b8ff" d="M771.7,-423.1C779.48,-414.67 791.47,-401.66 801.85,-390.4"/>
<polygon fill="#63b8ff" stroke="#63b8ff" points="804.15,-393.07 808.35,-383.35 799,-388.33 804.15,-393.07"/>
</g>
<!-- Node23 -->
<g id="node23" class="node">
<title>Node23</title>
<g id="a_node23"><a xlink:title=" ">
<polygon fill="#e0e0e0" stroke="#999999" points="395,-442.5 304,-442.5 304,-423.5 395,-423.5 395,-442.5"/>
<text text-anchor="middle" x="349.5" y="-430.5" font-family="Helvetica,sans-Serif" font-size="10.00">boost/variant.hpp</text>
</a>
</g>
</g>
<!-- Node22&#45;&gt;Node23 -->
<g id="edge29" class="edge">
<title>Node22&#45;&gt;Node23</title>
<path fill="none" stroke="#63b8ff" d="M563.62,-489.03C519.63,-477.73 443.89,-458.26 395.28,-445.77"/>
<polygon fill="#63b8ff" stroke="#63b8ff" points="396.17,-442.38 385.61,-443.28 394.43,-449.16 396.17,-442.38"/>
</g>
<!-- Node24 -->
<g id="node24" class="node">
<title>Node24</title>
<g id="a_node24"><a xlink:href="buffer_8hpp.html" target="_top" xlink:title=" ">
<polygon fill="white" stroke="#666666" points="651,-140 568,-140 568,-121 651,-121 651,-140"/>
<text text-anchor="middle" x="609.5" y="-128" font-family="Helvetica,sans-Serif" font-size="10.00">base/buffer.hpp</text>
</a>
</g>
</g>
<!-- Node22&#45;&gt;Node24 -->
<g id="edge30" class="edge">
<title>Node22&#45;&gt;Node24</title>
<path fill="none" stroke="#63b8ff" d="M620.51,-489.03C637.78,-480.87 661.09,-467.15 674.5,-448 695.47,-418.07 693.5,-404.54 693.5,-368 693.5,-368 693.5,-368 693.5,-245 693.5,-203.26 656.35,-166.84 631.46,-147.12"/>
<polygon fill="#63b8ff" stroke="#63b8ff" points="633.91,-144.59 623.83,-141.33 629.67,-150.16 633.91,-144.59"/>
</g>
<!-- Node26 -->
<g id="node26" class="node">
<title>Node26</title>
<g id="a_node26"><a xlink:href="unused_8hpp.html" target="_top" xlink:title=" ">
<polygon fill="white" stroke="#666666" points="541.5,-442.5 451.5,-442.5 451.5,-423.5 541.5,-423.5 541.5,-442.5"/>
<text text-anchor="middle" x="496.5" y="-430.5" font-family="Helvetica,sans-Serif" font-size="10.00">base/unused.hpp</text>
</a>
</g>
</g>
<!-- Node22&#45;&gt;Node26 -->
<g id="edge37" class="edge">
<title>Node22&#45;&gt;Node26</title>
<path fill="none" stroke="#63b8ff" d="M584.32,-489.1C567.72,-478.69 539.99,-461.29 520.13,-448.83"/>
<polygon fill="#63b8ff" stroke="#63b8ff" points="522.18,-445.98 511.84,-443.63 518.45,-451.91 522.18,-445.98"/>
</g>
<!-- Node27 -->
<g id="node27" class="node">
<title>Node27</title>
<g id="a_node27"><a xlink:href="scheduled__change_8hpp.html" target="_top" xlink:title=" ">
<polygon fill="white" stroke="#666666" points="665.5,-448 559.5,-448 559.5,-418 665.5,-418 665.5,-448"/>
<text text-anchor="start" x="567.5" y="-436" font-family="Helvetica,sans-Serif" font-size="10.00">primitives/scheduled</text>
<text text-anchor="middle" x="612.5" y="-425" font-family="Helvetica,sans-Serif" font-size="10.00">_change.hpp</text>
</a>
</g>
</g>
<!-- Node22&#45;&gt;Node27 -->
<g id="edge38" class="edge">
<title>Node22&#45;&gt;Node27</title>
<path fill="none" stroke="#63b8ff" d="M600.45,-489.1C602.13,-481.41 604.64,-469.92 606.94,-459.42"/>
<polygon fill="#63b8ff" stroke="#63b8ff" points="610.35,-460.23 609.06,-449.71 603.51,-458.73 610.35,-460.23"/>
</g>
<!-- Node24&#45;&gt;Node3 -->
<g id="edge36" class="edge">
<title>Node24&#45;&gt;Node3</title>
<path fill="none" stroke="#63b8ff" d="M567.71,-121.17C523.44,-112.31 451.51,-97.85 389.5,-85 385.23,-84.12 380.82,-83.19 376.38,-82.26"/>
<polygon fill="#63b8ff" stroke="#63b8ff" points="377.37,-78.9 366.87,-80.26 375.93,-85.75 377.37,-78.9"/>
</g>
<!-- Node24&#45;&gt;Node9 -->
<g id="edge31" class="edge">
<title>Node24&#45;&gt;Node9</title>
<path fill="none" stroke="#63b8ff" d="M581.88,-120.51C554.39,-111.55 511.01,-97.39 473.5,-85 471.95,-84.49 470.37,-83.96 468.77,-83.43"/>
<polygon fill="#63b8ff" stroke="#63b8ff" points="470.18,-80.22 459.59,-80.39 467.98,-86.86 470.18,-80.22"/>
</g>
<!-- Node24&#45;&gt;Node10 -->
<g id="edge32" class="edge">
<title>Node24&#45;&gt;Node10</title>
<path fill="none" stroke="#63b8ff" d="M651.42,-121.69C689.14,-114.12 745.79,-101.38 793.5,-85 794.3,-84.73 795.1,-84.44 795.91,-84.14"/>
<polygon fill="#63b8ff" stroke="#63b8ff" points="797.04,-87.46 804.97,-80.44 794.39,-80.98 797.04,-87.46"/>
</g>
<!-- Node24&#45;&gt;Node11 -->
<g id="edge35" class="edge">
<title>Node24&#45;&gt;Node11</title>
<path fill="none" stroke="#63b8ff" d="M594.31,-120.62C578.45,-111.34 553.32,-96.63 534.52,-85.64"/>
<polygon fill="#63b8ff" stroke="#63b8ff" points="536.54,-82.76 526.14,-80.73 533,-88.8 536.54,-82.76"/>
</g>
<!-- Node24&#45;&gt;Node18 -->
<g id="edge34" class="edge">
<title>Node24&#45;&gt;Node18</title>
<path fill="none" stroke="#63b8ff" d="M628.33,-120.62C648.45,-111.12 680.61,-95.95 704.08,-84.88"/>
<polygon fill="#63b8ff" stroke="#63b8ff" points="705.57,-88.05 713.12,-80.61 702.58,-81.72 705.57,-88.05"/>
</g>
<!-- Node25 -->
<g id="node25" class="node">
<title>Node25</title>
<g id="a_node25"><a xlink:title=" ">
<polygon fill="#e0e0e0" stroke="#999999" points="664.5,-85 554.5,-85 554.5,-55 664.5,-55 664.5,-85"/>
<text text-anchor="start" x="562.5" y="-73" font-family="Helvetica,sans-Serif" font-size="10.00">boost/container_hash</text>
<text text-anchor="middle" x="609.5" y="-62" font-family="Helvetica,sans-Serif" font-size="10.00">/hash.hpp</text>
</a>
</g>
</g>
<!-- Node24&#45;&gt;Node25 -->
<g id="edge33" class="edge">
<title>Node24&#45;&gt;Node25</title>
<path fill="none" stroke="#63b8ff" d="M609.5,-120.87C609.5,-114.4 609.5,-105.2 609.5,-96.45"/>
<polygon fill="#63b8ff" stroke="#63b8ff" points="613,-96.63 609.5,-86.63 606,-96.63 613,-96.63"/>
</g>
<!-- Node27&#45;&gt;Node16 -->
<g id="edge43" class="edge">
<title>Node27&#45;&gt;Node16</title>
<path fill="none" stroke="#63b8ff" d="M561.03,-417.5C538.93,-409.52 513.8,-397.94 494.5,-382 475.96,-366.69 461.6,-342.75 453.12,-326.16"/>
<polygon fill="#63b8ff" stroke="#63b8ff" points="456.38,-324.87 448.87,-317.41 450.08,-327.93 456.38,-324.87"/>
</g>
<!-- Node28 -->
<g id="node28" class="node">
<title>Node28</title>
<g id="a_node28"><a xlink:href="authority_8hpp.html" target="_top" xlink:title=" ">
<polygon fill="white" stroke="#666666" points="619.5,-376.5 503.5,-376.5 503.5,-357.5 619.5,-357.5 619.5,-376.5"/>
<text text-anchor="middle" x="561.5" y="-364.5" font-family="Helvetica,sans-Serif" font-size="10.00">primitives/authority.hpp</text>
</a>
</g>
</g>
<!-- Node27&#45;&gt;Node28 -->
<g id="edge39" class="edge">
<title>Node27&#45;&gt;Node28</title>
<path fill="none" stroke="#63b8ff" d="M601.18,-417.8C593.62,-408.31 583.62,-395.76 575.55,-385.63"/>
<polygon fill="#63b8ff" stroke="#63b8ff" points="578.46,-383.67 569.49,-378.03 572.99,-388.03 578.46,-383.67"/>
</g>
<!-- Node28&#45;&gt;Node16 -->
<g id="edge42" class="edge">
<title>Node28&#45;&gt;Node16</title>
<path fill="none" stroke="#63b8ff" d="M543.73,-357.12C524.83,-347.67 494.68,-332.59 472.56,-321.53"/>
<polygon fill="#63b8ff" stroke="#63b8ff" points="474.3,-318.49 463.79,-317.15 471.17,-324.75 474.3,-318.49"/>
</g>
<!-- Node28&#45;&gt;Node17 -->
<g id="edge40" class="edge">
<title>Node28&#45;&gt;Node17</title>
<path fill="none" stroke="#63b8ff" d="M567.36,-357.18C573.53,-347.48 583.09,-331.25 588.5,-316 594.18,-299.99 597.52,-280.97 599.4,-266.95"/>
<polygon fill="#63b8ff" stroke="#63b8ff" points="602.85,-267.57 600.55,-257.22 595.9,-266.74 602.85,-267.57"/>
</g>
<!-- Node29 -->
<g id="node29" class="node">
<title>Node29</title>
<g id="a_node29"><a xlink:title=" ">
<polygon fill="#e0e0e0" stroke="#999999" points="580,-316 521,-316 521,-297 580,-297 580,-316"/>
<text text-anchor="middle" x="550.5" y="-304" font-family="Helvetica,sans-Serif" font-size="10.00">functional</text>
</a>
</g>
</g>
<!-- Node28&#45;&gt;Node29 -->
<g id="edge41" class="edge">
<title>Node28&#45;&gt;Node29</title>
<path fill="none" stroke="#63b8ff" d="M559.88,-357.37C558.4,-349.5 556.16,-337.6 554.24,-327.39"/>
<polygon fill="#63b8ff" stroke="#63b8ff" points="557.7,-326.84 552.41,-317.65 550.82,-328.13 557.7,-326.84"/>
</g>
<!-- Node30&#45;&gt;Node5 -->
<g id="edge46" class="edge">
<title>Node30&#45;&gt;Node5</title>
<path fill="none" stroke="#63b8ff" d="M279.81,-489.27C267.09,-468.92 237.5,-416.36 237.5,-368 237.5,-368 237.5,-368 237.5,-305.5 237.5,-270.46 244.81,-230.19 249.85,-206.63"/>
<polygon fill="#63b8ff" stroke="#63b8ff" points="253.26,-207.39 252.02,-196.87 246.43,-205.87 253.26,-207.39"/>
</g>
<!-- Node30&#45;&gt;Node16 -->
<g id="edge47" class="edge">
<title>Node30&#45;&gt;Node16</title>
<path fill="none" stroke="#63b8ff" d="M284.34,-489.37C282.69,-473.92 281.21,-440.99 294.5,-418 321.56,-371.17 377.26,-338.38 412.64,-321.26"/>
<polygon fill="#63b8ff" stroke="#63b8ff" points="413.97,-324.5 421.55,-317.09 411.01,-318.16 413.97,-324.5"/>
</g>
<!-- Node30&#45;&gt;Node23 -->
<g id="edge45" class="edge">
<title>Node30&#45;&gt;Node23</title>
<path fill="none" stroke="#63b8ff" d="M294.4,-489.1C304.24,-479.26 320.32,-463.18 332.57,-450.93"/>
<polygon fill="#63b8ff" stroke="#63b8ff" points="335.01,-453.44 339.61,-443.89 330.06,-448.49 335.01,-453.44"/>
</g>
</g>
</svg>
        <g id="navigator" transform="translate(0 0)" fill="#404254">
                <rect fill="#f2f5e9" fill-opacity="0.5" stroke="#606060" stroke-width=".5" x="0" y="0" width="60" height="60"/>
                <use id="zoomplus" xlink:href="#zoomPlus" x="17" y="9" onmousedown="handleZoom(evt,'in')"/>
                <use id="zoomminus" xlink:href="#zoomMin" x="42" y="9" onmousedown="handleZoom(evt,'out')"/>
                <use id="reset" xlink:href="#resetDef" x="30" y="36" onmousedown="handleReset()"/>
                <g id="arrowUp" xlink:href="#dirArrow" transform="translate(30 24)" onmousedown="handlePan(0,-1)">
                  <use xlink:href="#rim" fill="#404040">
                        <set attributeName="fill" to="#808080" begin="arrowUp.mouseover" end="arrowUp.mouseout"/>
                  </use>
                  <path fill="none" stroke="white" stroke-width="1.5" d="M0,-3.0v7 M-2.5,-0.5L0,-3.0L2.5,-0.5"/>
                </g>
                <g id="arrowRight" xlink:href="#dirArrow" transform="rotate(90) translate(36 -43)" onmousedown="handlePan(1,0)">
                  <use xlink:href="#rim" fill="#404040">
                        <set attributeName="fill" to="#808080" begin="arrowRight.mouseover" end="arrowRight.mouseout"/>
                  </use>
                  <path fill="none" stroke="white" stroke-width="1.5" d="M0,-3.0v7 M-2.5,-0.5L0,-3.0L2.5,-0.5"/>
                </g>
                <g id="arrowDown" xlink:href="#dirArrow" transform="rotate(180) translate(-30 -48)" onmousedown="handlePan(0,1)">
                  <use xlink:href="#rim" fill="#404040">
                        <set attributeName="fill" to="#808080" begin="arrowDown.mouseover" end="arrowDown.mouseout"/>
                  </use>
                  <path fill="none" stroke="white" stroke-width="1.5" d="M0,-3.0v7 M-2.5,-0.5L0,-3.0L2.5,-0.5"/>
                </g>
                <g id="arrowLeft" xlink:href="#dirArrow" transform="rotate(270) translate(-36 17)" onmousedown="handlePan(-1,0)">
                  <use xlink:href="#rim" fill="#404040">
                        <set attributeName="fill" to="#808080" begin="arrowLeft.mouseover" end="arrowLeft.mouseout"/>
                  </use>
                  <path fill="none" stroke="white" stroke-width="1.5" d="M0,-3.0v7 M-2.5,-0.5L0,-3.0L2.5,-0.5"/>
                </g>
        </g>
        <svg viewBox="0 0 15 15" width="100%" height="30px" preserveAspectRatio="xMaxYMin meet">
         <g id="arrow_out" transform="scale(0.3 0.3)">
          <a xlink:href="block__header__repository_8hpp__incl_org.svg" target="_base">
           <rect id="button" ry="5" rx="5" y="6" x="6" height="38" width="38"
                fill="#f2f5e9" fill-opacity="0.5" stroke="#606060" stroke-width="1.0"/>
           <path id="arrow"
             d="M 11.500037,31.436501 C 11.940474,20.09759 22.043105,11.32322 32.158766,21.979434 L 37.068811,17.246167 C 37.068811,17.246167 37.088388,32 37.088388,32 L 22.160133,31.978069 C 22.160133,31.978069 26.997745,27.140456 26.997745,27.140456 C 18.528582,18.264221 13.291696,25.230495 11.500037,31.436501 z"
             style="fill:#404040;"/>
          </a>
         </g>
        </svg>
</svg>
