<?xml version="1.0" encoding="UTF-8" standalone="no"?>
<!DOCTYPE svg PUBLIC "-//W3C//DTD SVG 1.1//EN"
 "http://www.w3.org/Graphics/SVG/1.1/DTD/svg11.dtd">
<!-- Generated by graphviz version 7.0.5 (20221223.1930)
 -->
<!-- Title: src/primitives/block_data.hpp Pages: 1 -->
<svg width="1261pt" height="676pt"
 viewBox="0.00 0.00 1260.50 676.00" xmlns="http://www.w3.org/2000/svg" xmlns:xlink="http://www.w3.org/1999/xlink">
<g id="graph0" class="graph" transform="scale(1 1) rotate(0) translate(4 672)">
<title>src/primitives/block_data.hpp</title>
<!-- Node1 -->
<g id="node1" class="node">
<title>Node1</title>
<g id="a_node1"><a xlink:title=" ">
<polygon fill="#999999" stroke="#666666" points="549,-668 448,-668 448,-638 549,-638 549,-668"/>
<text text-anchor="start" x="456" y="-656" font-family="Helvetica,sans-Serif" font-size="10.00">src/primitives/block</text>
<text text-anchor="middle" x="498.5" y="-645" font-family="Helvetica,sans-Serif" font-size="10.00">_data.hpp</text>
</a>
</g>
</g>
<!-- Node2 -->
<g id="node2" class="node">
<title>Node2</title>
<g id="a_node2"><a xlink:href="block__storage_8hpp.html" target="_top" xlink:title=" ">
<polygon fill="white" stroke="#666666" points="271.5,-470 165.5,-470 165.5,-440 271.5,-440 271.5,-470"/>
<text text-anchor="start" x="173.5" y="-458" font-family="Helvetica,sans-Serif" font-size="10.00">src/blockchain/block</text>
<text text-anchor="middle" x="218.5" y="-447" font-family="Helvetica,sans-Serif" font-size="10.00">_storage.hpp</text>
</a>
</g>
</g>
<!-- Node1&#45;&gt;Node2 -->
<g id="edge1" class="edge">
<title>Node1&#45;&gt;Node2</title>
<path fill="none" stroke="#63b8ff" d="M468.69,-631.14C411.59,-591.16 288.1,-504.72 239.12,-470.43"/>
<polygon fill="#63b8ff" stroke="#63b8ff" points="466.47,-633.85 476.67,-636.72 470.49,-628.12 466.47,-633.85"/>
</g>
<!-- Node22 -->
<g id="node22" class="node">
<title>Node22</title>
<g id="a_node22"><a xlink:href="blocks__response_8hpp.html" target="_top" xlink:title=" ">
<polygon fill="white" stroke="#666666" points="910,-602 785,-602 785,-572 910,-572 910,-602"/>
<text text-anchor="start" x="793" y="-590" font-family="Helvetica,sans-Serif" font-size="10.00">src/network/types/blocks</text>
<text text-anchor="middle" x="847.5" y="-579" font-family="Helvetica,sans-Serif" font-size="10.00">_response.hpp</text>
</a>
</g>
</g>
<!-- Node1&#45;&gt;Node22 -->
<g id="edge24" class="edge">
<title>Node1&#45;&gt;Node22</title>
<path fill="none" stroke="#63b8ff" d="M560.23,-640.68C623.38,-629.1 721,-611.2 784.58,-599.54"/>
<polygon fill="#63b8ff" stroke="#63b8ff" points="559.94,-637.17 550.74,-642.42 561.2,-644.06 559.94,-637.17"/>
</g>
<!-- Node3 -->
<g id="node3" class="node">
<title>Node3</title>
<g id="a_node3"><a xlink:href="block__tree__impl_8hpp.html" target="_top" xlink:title=" ">
<polygon fill="white" stroke="#666666" points="271.5,-398.5 165.5,-398.5 165.5,-368.5 271.5,-368.5 271.5,-398.5"/>
<text text-anchor="start" x="173.5" y="-386.5" font-family="Helvetica,sans-Serif" font-size="10.00">src/blockchain/impl</text>
<text text-anchor="middle" x="218.5" y="-375.5" font-family="Helvetica,sans-Serif" font-size="10.00">/block_tree_impl.hpp</text>
</a>
</g>
</g>
<!-- Node2&#45;&gt;Node3 -->
<g id="edge2" class="edge">
<title>Node2&#45;&gt;Node3</title>
<path fill="none" stroke="#63b8ff" d="M218.5,-428.26C218.5,-418.33 218.5,-407.36 218.5,-398.88"/>
<polygon fill="#63b8ff" stroke="#63b8ff" points="215,-428.09 218.5,-438.09 222,-428.09 215,-428.09"/>
</g>
<!-- Node20 -->
<g id="node20" class="node">
<title>Node20</title>
<g id="a_node20"><a xlink:href="key__value__block__storage_8hpp.html" target="_top" xlink:title=" ">
<polygon fill="white" stroke="#666666" points="147,-398.5 0,-398.5 0,-368.5 147,-368.5 147,-398.5"/>
<text text-anchor="start" x="8" y="-386.5" font-family="Helvetica,sans-Serif" font-size="10.00">src/blockchain/impl</text>
<text text-anchor="middle" x="73.5" y="-375.5" font-family="Helvetica,sans-Serif" font-size="10.00">/key_value_block_storage.hpp</text>
</a>
</g>
</g>
<!-- Node2&#45;&gt;Node20 -->
<g id="edge21" class="edge">
<title>Node2&#45;&gt;Node20</title>
<path fill="none" stroke="#63b8ff" d="M178.36,-434.76C154.67,-423.41 125.17,-409.27 103.51,-398.88"/>
<polygon fill="#63b8ff" stroke="#63b8ff" points="176.56,-437.78 187.09,-438.95 179.59,-431.47 176.56,-437.78"/>
</g>
<!-- Node4 -->
<g id="node4" class="node">
<title>Node4</title>
<g id="a_node4"><a xlink:href="block__tree__impl_8cpp.html" target="_top" xlink:title=" ">
<polygon fill="white" stroke="#666666" points="271.5,-321.5 165.5,-321.5 165.5,-291.5 271.5,-291.5 271.5,-321.5"/>
<text text-anchor="start" x="173.5" y="-309.5" font-family="Helvetica,sans-Serif" font-size="10.00">src/blockchain/impl</text>
<text text-anchor="middle" x="218.5" y="-298.5" font-family="Helvetica,sans-Serif" font-size="10.00">/block_tree_impl.cpp</text>
</a>
</g>
</g>
<!-- Node3&#45;&gt;Node4 -->
<g id="edge3" class="edge">
<title>Node3&#45;&gt;Node4</title>
<path fill="none" stroke="#63b8ff" d="M218.5,-356.73C218.5,-345.08 218.5,-331.76 218.5,-321.92"/>
<polygon fill="#63b8ff" stroke="#63b8ff" points="215,-356.53 218.5,-366.53 222,-356.53 215,-356.53"/>
</g>
<!-- Node5 -->
<g id="node5" class="node">
<title>Node5</title>
<g id="a_node5"><a xlink:href="application__injector_8hpp.html" target="_top" xlink:title=" ">
<polygon fill="white" stroke="#666666" points="742.5,-321.5 628.5,-321.5 628.5,-291.5 742.5,-291.5 742.5,-321.5"/>
<text text-anchor="start" x="636.5" y="-309.5" font-family="Helvetica,sans-Serif" font-size="10.00">src/injector/application</text>
<text text-anchor="middle" x="685.5" y="-298.5" font-family="Helvetica,sans-Serif" font-size="10.00">_injector.hpp</text>
</a>
</g>
</g>
<!-- Node3&#45;&gt;Node5 -->
<g id="edge4" class="edge">
<title>Node3&#45;&gt;Node5</title>
<path fill="none" stroke="#63b8ff" d="M271.51,-365.07C274.53,-364.31 277.55,-363.62 280.5,-363 428.4,-332.19 470.28,-356.22 618.5,-327 625.51,-325.62 632.85,-323.84 639.99,-321.91"/>
<polygon fill="#63b8ff" stroke="#63b8ff" points="270.76,-361.65 262.02,-367.65 272.59,-368.41 270.76,-361.65"/>
</g>
<!-- Node6 -->
<g id="node6" class="node">
<title>Node6</title>
<g id="a_node6"><a xlink:href="application__injector_8cpp.html" target="_top" xlink:title=" ">
<polygon fill="white" stroke="#666666" points="534.5,-250 420.5,-250 420.5,-220 534.5,-220 534.5,-250"/>
<text text-anchor="start" x="428.5" y="-238" font-family="Helvetica,sans-Serif" font-size="10.00">src/injector/application</text>
<text text-anchor="middle" x="477.5" y="-227" font-family="Helvetica,sans-Serif" font-size="10.00">_injector.cpp</text>
</a>
</g>
</g>
<!-- Node5&#45;&gt;Node6 -->
<g id="edge5" class="edge">
<title>Node5&#45;&gt;Node6</title>
<path fill="none" stroke="#63b8ff" d="M631.33,-287.4C596.89,-275.89 552.9,-261.19 520.79,-250.47"/>
<polygon fill="#63b8ff" stroke="#63b8ff" points="630.12,-290.69 640.71,-290.54 632.34,-284.05 630.12,-290.69"/>
</g>
<!-- Node7 -->
<g id="node7" class="node">
<title>Node7</title>
<g id="a_node7"><a xlink:href="block__producing__node__injector_8hpp.html" target="_top" xlink:title=" ">
<polygon fill="white" stroke="#666666" points="840,-184 695,-184 695,-154 840,-154 840,-184"/>
<text text-anchor="start" x="703" y="-172" font-family="Helvetica,sans-Serif" font-size="10.00">src/injector/block</text>
<text text-anchor="middle" x="767.5" y="-161" font-family="Helvetica,sans-Serif" font-size="10.00">_producing_node_injector.hpp</text>
</a>
</g>
</g>
<!-- Node5&#45;&gt;Node7 -->
<g id="edge6" class="edge">
<title>Node5&#45;&gt;Node7</title>
<path fill="none" stroke="#63b8ff" d="M700.08,-281.41C717.11,-253.27 744.73,-207.62 758.75,-184.46"/>
<polygon fill="#63b8ff" stroke="#63b8ff" points="697.09,-279.59 694.9,-289.96 703.08,-283.22 697.09,-279.59"/>
</g>
<!-- Node12 -->
<g id="node12" class="node">
<title>Node12</title>
<g id="a_node12"><a xlink:href="syncing__node__injector_8hpp.html" target="_top" xlink:title=" ">
<polygon fill="white" stroke="#666666" points="654,-250 553,-250 553,-220 654,-220 654,-250"/>
<text text-anchor="start" x="561" y="-238" font-family="Helvetica,sans-Serif" font-size="10.00">src/injector/syncing</text>
<text text-anchor="middle" x="603.5" y="-227" font-family="Helvetica,sans-Serif" font-size="10.00">_node_injector.hpp</text>
</a>
</g>
</g>
<!-- Node5&#45;&gt;Node12 -->
<g id="edge11" class="edge">
<title>Node5&#45;&gt;Node12</title>
<path fill="none" stroke="#63b8ff" d="M660.06,-283.93C647.18,-273.02 631.9,-260.07 620.47,-250.38"/>
<polygon fill="#63b8ff" stroke="#63b8ff" points="657.46,-286.33 667.35,-290.12 661.99,-280.99 657.46,-286.33"/>
</g>
<!-- Node16 -->
<g id="node16" class="node">
<title>Node16</title>
<g id="a_node16"><a xlink:href="validating__node__injector_8hpp.html" target="_top" xlink:title=" ">
<polygon fill="white" stroke="#666666" points="864,-250 755,-250 755,-220 864,-220 864,-250"/>
<text text-anchor="start" x="763" y="-238" font-family="Helvetica,sans-Serif" font-size="10.00">src/injector/validating</text>
<text text-anchor="middle" x="809.5" y="-227" font-family="Helvetica,sans-Serif" font-size="10.00">_node_injector.hpp</text>
</a>
</g>
</g>
<!-- Node5&#45;&gt;Node16 -->
<g id="edge15" class="edge">
<title>Node5&#45;&gt;Node16</title>
<path fill="none" stroke="#63b8ff" d="M721.19,-285.49C741.21,-274.27 765.73,-260.54 783.84,-250.38"/>
<polygon fill="#63b8ff" stroke="#63b8ff" points="719.53,-282.42 712.51,-290.36 722.95,-288.52 719.53,-282.42"/>
</g>
<!-- Node8 -->
<g id="node8" class="node">
<title>Node8</title>
<g id="a_node8"><a xlink:href="block__producing__node__application_8hpp.html" target="_top" xlink:title=" ">
<polygon fill="white" stroke="#666666" points="970.5,-118 854.5,-118 854.5,-77 970.5,-77 970.5,-118"/>
<text text-anchor="start" x="862.5" y="-106" font-family="Helvetica,sans-Serif" font-size="10.00">src/application/impl</text>
<text text-anchor="start" x="862.5" y="-95" font-family="Helvetica,sans-Serif" font-size="10.00">/block_producing_node</text>
<text text-anchor="middle" x="912.5" y="-84" font-family="Helvetica,sans-Serif" font-size="10.00">_application.hpp</text>
</a>
</g>
</g>
<!-- Node7&#45;&gt;Node8 -->
<g id="edge7" class="edge">
<title>Node7&#45;&gt;Node8</title>
<path fill="none" stroke="#63b8ff" d="M807.73,-148.72C827.41,-139.28 851.09,-127.94 870.95,-118.42"/>
<polygon fill="#63b8ff" stroke="#63b8ff" points="806.41,-145.47 798.91,-152.95 809.44,-151.78 806.41,-145.47"/>
</g>
<!-- Node11 -->
<g id="node11" class="node">
<title>Node11</title>
<g id="a_node11"><a xlink:href="block__producing__node__injector_8cpp.html" target="_top" xlink:title=" ">
<polygon fill="white" stroke="#666666" points="836,-112.5 691,-112.5 691,-82.5 836,-82.5 836,-112.5"/>
<text text-anchor="start" x="699" y="-100.5" font-family="Helvetica,sans-Serif" font-size="10.00">src/injector/block</text>
<text text-anchor="middle" x="763.5" y="-89.5" font-family="Helvetica,sans-Serif" font-size="10.00">_producing_node_injector.cpp</text>
</a>
</g>
</g>
<!-- Node7&#45;&gt;Node11 -->
<g id="edge10" class="edge">
<title>Node7&#45;&gt;Node11</title>
<path fill="none" stroke="#63b8ff" d="M766.02,-142.26C765.45,-132.33 764.82,-121.36 764.33,-112.88"/>
<polygon fill="#63b8ff" stroke="#63b8ff" points="762.52,-142.31 766.58,-152.09 769.5,-141.9 762.52,-142.31"/>
</g>
<!-- Node9 -->
<g id="node9" class="node">
<title>Node9</title>
<g id="a_node9"><a xlink:href="app__delegate_8cpp.html" target="_top" xlink:title=" ">
<polygon fill="white" stroke="#666666" points="1168.5,-30 1052.5,-30 1052.5,-11 1168.5,-11 1168.5,-30"/>
<text text-anchor="middle" x="1110.5" y="-18" font-family="Helvetica,sans-Serif" font-size="10.00">node/app_delegate.cpp</text>
</a>
</g>
</g>
<!-- Node8&#45;&gt;Node9 -->
<g id="edge8" class="edge">
<title>Node8&#45;&gt;Node9</title>
<path fill="none" stroke="#63b8ff" d="M975.49,-72.64C1013.39,-58.28 1059.44,-40.84 1086.78,-30.48"/>
<polygon fill="#63b8ff" stroke="#63b8ff" points="974.57,-69.25 966.46,-76.06 977.05,-75.79 974.57,-69.25"/>
</g>
<!-- Node10 -->
<g id="node10" class="node">
<title>Node10</title>
<g id="a_node10"><a xlink:href="block__producing__node__application_8cpp.html" target="_top" xlink:title=" ">
<polygon fill="white" stroke="#666666" points="970.5,-41 854.5,-41 854.5,0 970.5,0 970.5,-41"/>
<text text-anchor="start" x="862.5" y="-29" font-family="Helvetica,sans-Serif" font-size="10.00">src/application/impl</text>
<text text-anchor="start" x="862.5" y="-18" font-family="Helvetica,sans-Serif" font-size="10.00">/block_producing_node</text>
<text text-anchor="middle" x="912.5" y="-7" font-family="Helvetica,sans-Serif" font-size="10.00">_application.cpp</text>
</a>
</g>
</g>
<!-- Node8&#45;&gt;Node10 -->
<g id="edge9" class="edge">
<title>Node8&#45;&gt;Node10</title>
<path fill="none" stroke="#63b8ff" d="M912.5,-65.36C912.5,-57.24 912.5,-48.7 912.5,-41.33"/>
<polygon fill="#63b8ff" stroke="#63b8ff" points="909,-65.28 912.5,-75.28 916,-65.28 909,-65.28"/>
</g>
<!-- Node13 -->
<g id="node13" class="node">
<title>Node13</title>
<g id="a_node13"><a xlink:href="syncing__node__application_8hpp.html" target="_top" xlink:title=" ">
<polygon fill="white" stroke="#666666" points="677,-184 528,-184 528,-154 677,-154 677,-184"/>
<text text-anchor="start" x="536" y="-172" font-family="Helvetica,sans-Serif" font-size="10.00">src/application/impl</text>
<text text-anchor="middle" x="602.5" y="-161" font-family="Helvetica,sans-Serif" font-size="10.00">/syncing_node_application.hpp</text>
</a>
</g>
</g>
<!-- Node12&#45;&gt;Node13 -->
<g id="edge12" class="edge">
<title>Node12&#45;&gt;Node13</title>
<path fill="none" stroke="#63b8ff" d="M603.1,-208.39C602.97,-200.13 602.83,-191.28 602.72,-184.16"/>
<polygon fill="#63b8ff" stroke="#63b8ff" points="599.6,-208.34 603.25,-218.28 606.6,-208.23 599.6,-208.34"/>
</g>
<!-- Node15 -->
<g id="node15" class="node">
<title>Node15</title>
<g id="a_node15"><a xlink:href="syncing__node__injector_8cpp.html" target="_top" xlink:title=" ">
<polygon fill="white" stroke="#666666" points="510,-184 409,-184 409,-154 510,-154 510,-184"/>
<text text-anchor="start" x="417" y="-172" font-family="Helvetica,sans-Serif" font-size="10.00">src/injector/syncing</text>
<text text-anchor="middle" x="459.5" y="-161" font-family="Helvetica,sans-Serif" font-size="10.00">_node_injector.cpp</text>
</a>
</g>
</g>
<!-- Node12&#45;&gt;Node15 -->
<g id="edge14" class="edge">
<title>Node12&#45;&gt;Node15</title>
<path fill="none" stroke="#63b8ff" d="M560.73,-214.99C538.61,-205.16 512.07,-193.36 491.71,-184.31"/>
<polygon fill="#63b8ff" stroke="#63b8ff" points="559.24,-218.16 569.8,-219.02 562.08,-211.76 559.24,-218.16"/>
</g>
<!-- Node14 -->
<g id="node14" class="node">
<title>Node14</title>
<g id="a_node14"><a xlink:href="syncing__node__application_8cpp.html" target="_top" xlink:title=" ">
<polygon fill="white" stroke="#666666" points="673,-112.5 524,-112.5 524,-82.5 673,-82.5 673,-112.5"/>
<text text-anchor="start" x="532" y="-100.5" font-family="Helvetica,sans-Serif" font-size="10.00">src/application/impl</text>
<text text-anchor="middle" x="598.5" y="-89.5" font-family="Helvetica,sans-Serif" font-size="10.00">/syncing_node_application.cpp</text>
</a>
</g>
</g>
<!-- Node13&#45;&gt;Node14 -->
<g id="edge13" class="edge">
<title>Node13&#45;&gt;Node14</title>
<path fill="none" stroke="#63b8ff" d="M601.02,-142.26C600.45,-132.33 599.82,-121.36 599.33,-112.88"/>
<polygon fill="#63b8ff" stroke="#63b8ff" points="597.52,-142.31 601.58,-152.09 604.5,-141.9 597.52,-142.31"/>
</g>
<!-- Node16&#45;&gt;Node7 -->
<g id="edge19" class="edge">
<title>Node16&#45;&gt;Node7</title>
<path fill="none" stroke="#63b8ff" d="M794.01,-210.39C788.23,-201.59 781.85,-191.86 776.8,-184.16"/>
<polygon fill="#63b8ff" stroke="#63b8ff" points="790.94,-212.09 799.35,-218.53 796.79,-208.25 790.94,-212.09"/>
</g>
<!-- Node17 -->
<g id="node17" class="node">
<title>Node17</title>
<g id="a_node17"><a xlink:href="validating__node__application_8hpp.html" target="_top" xlink:title=" ">
<polygon fill="white" stroke="#666666" points="1146,-184 989,-184 989,-154 1146,-154 1146,-184"/>
<text text-anchor="start" x="997" y="-172" font-family="Helvetica,sans-Serif" font-size="10.00">src/application/impl</text>
<text text-anchor="middle" x="1067.5" y="-161" font-family="Helvetica,sans-Serif" font-size="10.00">/validating_node_application.hpp</text>
</a>
</g>
</g>
<!-- Node16&#45;&gt;Node17 -->
<g id="edge16" class="edge">
<title>Node16&#45;&gt;Node17</title>
<path fill="none" stroke="#63b8ff" d="M875.28,-217.68C916.62,-207.43 969.46,-194.32 1009.28,-184.44"/>
<polygon fill="#63b8ff" stroke="#63b8ff" points="874.55,-214.26 865.68,-220.06 876.23,-221.05 874.55,-214.26"/>
</g>
<!-- Node19 -->
<g id="node19" class="node">
<title>Node19</title>
<g id="a_node19"><a xlink:href="validating__node__injector_8cpp.html" target="_top" xlink:title=" ">
<polygon fill="white" stroke="#666666" points="967,-184 858,-184 858,-154 967,-154 967,-184"/>
<text text-anchor="start" x="866" y="-172" font-family="Helvetica,sans-Serif" font-size="10.00">src/injector/validating</text>
<text text-anchor="middle" x="912.5" y="-161" font-family="Helvetica,sans-Serif" font-size="10.00">_node_injector.cpp</text>
</a>
</g>
</g>
<!-- Node16&#45;&gt;Node19 -->
<g id="edge20" class="edge">
<title>Node16&#45;&gt;Node19</title>
<path fill="none" stroke="#63b8ff" d="M842.27,-213.64C857.63,-204.09 875.56,-192.95 889.46,-184.31"/>
<polygon fill="#63b8ff" stroke="#63b8ff" points="840.55,-210.59 833.9,-218.84 844.24,-216.53 840.55,-210.59"/>
</g>
<!-- Node17&#45;&gt;Node9 -->
<g id="edge17" class="edge">
<title>Node17&#45;&gt;Node9</title>
<path fill="none" stroke="#63b8ff" d="M1121.69,-148.31C1134.7,-140.88 1146.99,-130.98 1154.5,-118 1172.39,-87.08 1137.9,-47.61 1120.14,-30.3"/>
<polygon fill="#63b8ff" stroke="#63b8ff" points="1120.27,-145.1 1113.01,-152.82 1123.49,-151.31 1120.27,-145.1"/>
</g>
<!-- Node18 -->
<g id="node18" class="node">
<title>Node18</title>
<g id="a_node18"><a xlink:href="validating__node__application_8cpp.html" target="_top" xlink:title=" ">
<polygon fill="white" stroke="#666666" points="1146,-112.5 989,-112.5 989,-82.5 1146,-82.5 1146,-112.5"/>
<text text-anchor="start" x="997" y="-100.5" font-family="Helvetica,sans-Serif" font-size="10.00">src/application/impl</text>
<text text-anchor="middle" x="1067.5" y="-89.5" font-family="Helvetica,sans-Serif" font-size="10.00">/validating_node_application.cpp</text>
</a>
</g>
</g>
<!-- Node17&#45;&gt;Node18 -->
<g id="edge18" class="edge">
<title>Node17&#45;&gt;Node18</title>
<path fill="none" stroke="#63b8ff" d="M1067.5,-142.26C1067.5,-132.33 1067.5,-121.36 1067.5,-112.88"/>
<polygon fill="#63b8ff" stroke="#63b8ff" points="1064,-142.09 1067.5,-152.09 1071,-142.09 1064,-142.09"/>
</g>
<!-- Node20&#45;&gt;Node5 -->
<g id="edge23" class="edge">
<title>Node20&#45;&gt;Node5</title>
<path fill="none" stroke="#63b8ff" d="M141.23,-365.69C146.38,-364.69 151.51,-363.78 156.5,-363 360.01,-331.36 415.89,-363.97 618.5,-327 625.65,-325.7 633.13,-323.93 640.39,-321.99"/>
<polygon fill="#63b8ff" stroke="#63b8ff" points="140.55,-362.26 131.46,-367.71 141.96,-369.12 140.55,-362.26"/>
</g>
<!-- Node21 -->
<g id="node21" class="node">
<title>Node21</title>
<g id="a_node21"><a xlink:href="key__value__block__storage_8cpp.html" target="_top" xlink:title=" ">
<polygon fill="white" stroke="#666666" points="147,-321.5 0,-321.5 0,-291.5 147,-291.5 147,-321.5"/>
<text text-anchor="start" x="8" y="-309.5" font-family="Helvetica,sans-Serif" font-size="10.00">src/blockchain/impl</text>
<text text-anchor="middle" x="73.5" y="-298.5" font-family="Helvetica,sans-Serif" font-size="10.00">/key_value_block_storage.cpp</text>
</a>
</g>
</g>
<!-- Node20&#45;&gt;Node21 -->
<g id="edge22" class="edge">
<title>Node20&#45;&gt;Node21</title>
<path fill="none" stroke="#63b8ff" d="M73.5,-356.73C73.5,-345.08 73.5,-331.76 73.5,-321.92"/>
<polygon fill="#63b8ff" stroke="#63b8ff" points="70,-356.53 73.5,-366.53 77,-356.53 70,-356.53"/>
</g>
<!-- Node23 -->
<g id="node23" class="node">
<title>Node23</title>
<g id="a_node23"><a xlink:href="router__libp2p_8cpp.html" target="_top" xlink:title=" ">
<polygon fill="white" stroke="#666666" points="1252.5,-321.5 1136.5,-321.5 1136.5,-291.5 1252.5,-291.5 1252.5,-321.5"/>
<text text-anchor="start" x="1144.5" y="-309.5" font-family="Helvetica,sans-Serif" font-size="10.00">src/network/impl/router</text>
<text text-anchor="middle" x="1194.5" y="-298.5" font-family="Helvetica,sans-Serif" font-size="10.00">_libp2p.cpp</text>
</a>
</g>
</g>
<!-- Node22&#45;&gt;Node23 -->
<g id="edge25" class="edge">
<title>Node22&#45;&gt;Node23</title>
<path fill="none" stroke="#63b8ff" d="M921.3,-573.62C1009.57,-554.44 1153.54,-508.22 1218.5,-404 1234.66,-378.07 1217,-341.86 1204.56,-321.99"/>
<polygon fill="#63b8ff" stroke="#63b8ff" points="920.84,-570.15 911.77,-575.63 922.28,-577 920.84,-570.15"/>
</g>
<!-- Node24 -->
<g id="node24" class="node">
<title>Node24</title>
<g id="a_node24"><a xlink:href="sync__protocol__client_8hpp.html" target="_top" xlink:title=" ">
<polygon fill="white" stroke="#666666" points="843,-536 712,-536 712,-506 843,-506 843,-536"/>
<text text-anchor="start" x="720" y="-524" font-family="Helvetica,sans-Serif" font-size="10.00">src/network/sync_protocol</text>
<text text-anchor="middle" x="777.5" y="-513" font-family="Helvetica,sans-Serif" font-size="10.00">_client.hpp</text>
</a>
</g>
</g>
<!-- Node22&#45;&gt;Node24 -->
<g id="edge26" class="edge">
<title>Node22&#45;&gt;Node24</title>
<path fill="none" stroke="#63b8ff" d="M823.53,-564.09C813.43,-554.85 801.96,-544.36 792.99,-536.16"/>
<polygon fill="#63b8ff" stroke="#63b8ff" points="821.11,-566.61 830.85,-570.78 825.83,-561.44 821.11,-566.61"/>
</g>
<!-- Node32 -->
<g id="node32" class="node">
<title>Node32</title>
<g id="a_node32"><a xlink:href="sync__protocol__observer_8hpp.html" target="_top" xlink:title=" ">
<polygon fill="white" stroke="#666666" points="1050,-470 919,-470 919,-440 1050,-440 1050,-470"/>
<text text-anchor="start" x="927" y="-458" font-family="Helvetica,sans-Serif" font-size="10.00">src/network/sync_protocol</text>
<text text-anchor="middle" x="984.5" y="-447" font-family="Helvetica,sans-Serif" font-size="10.00">_observer.hpp</text>
</a>
</g>
</g>
<!-- Node22&#45;&gt;Node32 -->
<g id="edge39" class="edge">
<title>Node22&#45;&gt;Node32</title>
<path fill="none" stroke="#63b8ff" d="M870.77,-563.92C898.87,-537.25 945.34,-493.16 969.25,-470.47"/>
<polygon fill="#63b8ff" stroke="#63b8ff" points="868.63,-561.13 863.78,-570.55 873.45,-566.2 868.63,-561.13"/>
</g>
<!-- Node24&#45;&gt;Node5 -->
<g id="edge27" class="edge">
<title>Node24&#45;&gt;Node5</title>
<path fill="none" stroke="#63b8ff" d="M821.4,-499.78C832.96,-492.18 844.01,-482.31 850.5,-470 872.68,-427.93 878.25,-401.62 850.5,-363 826.16,-329.13 780.11,-315.65 742.84,-310.42"/>
<polygon fill="#63b8ff" stroke="#63b8ff" points="819.73,-496.7 812.96,-504.86 823.33,-502.7 819.73,-496.7"/>
</g>
<!-- Node25 -->
<g id="node25" class="node">
<title>Node25</title>
<g id="a_node25"><a xlink:href="dummy__sync__protocol__client_8hpp.html" target="_top" xlink:title=" ">
<polygon fill="white" stroke="#666666" points="841.5,-470 713.5,-470 713.5,-440 841.5,-440 841.5,-470"/>
<text text-anchor="start" x="721.5" y="-458" font-family="Helvetica,sans-Serif" font-size="10.00">src/network/impl/dummy</text>
<text text-anchor="middle" x="777.5" y="-447" font-family="Helvetica,sans-Serif" font-size="10.00">_sync_protocol_client.hpp</text>
</a>
</g>
</g>
<!-- Node24&#45;&gt;Node25 -->
<g id="edge28" class="edge">
<title>Node24&#45;&gt;Node25</title>
<path fill="none" stroke="#63b8ff" d="M777.5,-494.39C777.5,-486.13 777.5,-477.28 777.5,-470.16"/>
<polygon fill="#63b8ff" stroke="#63b8ff" points="774,-494.28 777.5,-504.28 781,-494.28 774,-494.28"/>
</g>
<!-- Node27 -->
<g id="node27" class="node">
<title>Node27</title>
<g id="a_node27"><a xlink:href="remote__sync__protocol__client_8hpp.html" target="_top" xlink:title=" ">
<polygon fill="white" stroke="#666666" points="509.5,-470 381.5,-470 381.5,-440 509.5,-440 509.5,-470"/>
<text text-anchor="start" x="389.5" y="-458" font-family="Helvetica,sans-Serif" font-size="10.00">src/network/impl/remote</text>
<text text-anchor="middle" x="445.5" y="-447" font-family="Helvetica,sans-Serif" font-size="10.00">_sync_protocol_client.hpp</text>
</a>
</g>
</g>
<!-- Node24&#45;&gt;Node27 -->
<g id="edge31" class="edge">
<title>Node24&#45;&gt;Node27</title>
<path fill="none" stroke="#63b8ff" d="M700.24,-505.11C642.47,-493.97 564.38,-478.92 509.95,-468.42"/>
<polygon fill="#63b8ff" stroke="#63b8ff" points="699.54,-508.54 710.02,-506.99 700.87,-501.66 699.54,-508.54"/>
</g>
<!-- Node29 -->
<g id="node29" class="node">
<title>Node29</title>
<g id="a_node29"><a xlink:href="sync__clients__set_8hpp.html" target="_top" xlink:title=" ">
<polygon fill="white" stroke="#666666" points="695,-470 578,-470 578,-440 695,-440 695,-470"/>
<text text-anchor="start" x="586" y="-458" font-family="Helvetica,sans-Serif" font-size="10.00">src/network/types/sync</text>
<text text-anchor="middle" x="636.5" y="-447" font-family="Helvetica,sans-Serif" font-size="10.00">_clients_set.hpp</text>
</a>
</g>
</g>
<!-- Node24&#45;&gt;Node29 -->
<g id="edge34" class="edge">
<title>Node24&#45;&gt;Node29</title>
<path fill="none" stroke="#63b8ff" d="M735.62,-500.99C713.97,-491.16 687.97,-479.36 668.04,-470.31"/>
<polygon fill="#63b8ff" stroke="#63b8ff" points="733.93,-504.07 744.48,-505.01 736.82,-497.69 733.93,-504.07"/>
</g>
<!-- Node25&#45;&gt;Node5 -->
<g id="edge29" class="edge">
<title>Node25&#45;&gt;Node5</title>
<path fill="none" stroke="#63b8ff" d="M736.6,-433.93C724.57,-426.15 712.5,-416.15 704.5,-404 687.78,-378.62 685.13,-341.88 685.06,-321.85"/>
<polygon fill="#63b8ff" stroke="#63b8ff" points="734.5,-436.75 744.87,-438.91 738.11,-430.75 734.5,-436.75"/>
</g>
<!-- Node26 -->
<g id="node26" class="node">
<title>Node26</title>
<g id="a_node26"><a xlink:href="dummy__sync__protocol__client_8cpp.html" target="_top" xlink:title=" ">
<polygon fill="white" stroke="#666666" points="841.5,-398.5 713.5,-398.5 713.5,-368.5 841.5,-368.5 841.5,-398.5"/>
<text text-anchor="start" x="721.5" y="-386.5" font-family="Helvetica,sans-Serif" font-size="10.00">src/network/impl/dummy</text>
<text text-anchor="middle" x="777.5" y="-375.5" font-family="Helvetica,sans-Serif" font-size="10.00">_sync_protocol_client.cpp</text>
</a>
</g>
</g>
<!-- Node25&#45;&gt;Node26 -->
<g id="edge30" class="edge">
<title>Node25&#45;&gt;Node26</title>
<path fill="none" stroke="#63b8ff" d="M777.5,-428.26C777.5,-418.33 777.5,-407.36 777.5,-398.88"/>
<polygon fill="#63b8ff" stroke="#63b8ff" points="774,-428.09 777.5,-438.09 781,-428.09 774,-428.09"/>
</g>
<!-- Node27&#45;&gt;Node5 -->
<g id="edge32" class="edge">
<title>Node27&#45;&gt;Node5</title>
<path fill="none" stroke="#63b8ff" d="M443.88,-428.24C444.06,-407.87 447.8,-380.1 464.5,-363 513.61,-312.71 550.51,-344.83 618.5,-327 624.48,-325.43 630.73,-323.72 636.91,-321.97"/>
<polygon fill="#63b8ff" stroke="#63b8ff" points="440.38,-428.09 444.09,-438.02 447.38,-427.94 440.38,-428.09"/>
</g>
<!-- Node28 -->
<g id="node28" class="node">
<title>Node28</title>
<g id="a_node28"><a xlink:href="remote__sync__protocol__client_8cpp.html" target="_top" xlink:title=" ">
<polygon fill="white" stroke="#666666" points="417.5,-398.5 289.5,-398.5 289.5,-368.5 417.5,-368.5 417.5,-398.5"/>
<text text-anchor="start" x="297.5" y="-386.5" font-family="Helvetica,sans-Serif" font-size="10.00">src/network/impl/remote</text>
<text text-anchor="middle" x="353.5" y="-375.5" font-family="Helvetica,sans-Serif" font-size="10.00">_sync_protocol_client.cpp</text>
</a>
</g>
</g>
<!-- Node27&#45;&gt;Node28 -->
<g id="edge33" class="edge">
<title>Node27&#45;&gt;Node28</title>
<path fill="none" stroke="#63b8ff" d="M417.37,-432.75C402.84,-421.77 385.48,-408.66 372.54,-398.88"/>
<polygon fill="#63b8ff" stroke="#63b8ff" points="415.14,-435.45 425.23,-438.69 419.36,-429.87 415.14,-435.45"/>
</g>
<!-- Node29&#45;&gt;Node5 -->
<g id="edge35" class="edge">
<title>Node29&#45;&gt;Node5</title>
<path fill="none" stroke="#63b8ff" d="M644.88,-428.94C655.23,-398 672.48,-346.44 680.77,-321.66"/>
<polygon fill="#63b8ff" stroke="#63b8ff" points="641.62,-427.66 641.77,-438.25 648.26,-429.88 641.62,-427.66"/>
</g>
<!-- Node30 -->
<g id="node30" class="node">
<title>Node30</title>
<g id="a_node30"><a xlink:href="production__synchronizer__impl_8hpp.html" target="_top" xlink:title=" ">
<polygon fill="white" stroke="#666666" points="619,-404 474,-404 474,-363 619,-363 619,-404"/>
<text text-anchor="start" x="482" y="-392" font-family="Helvetica,sans-Serif" font-size="10.00">src/verification/production</text>
<text text-anchor="start" x="482" y="-381" font-family="Helvetica,sans-Serif" font-size="10.00">/impl/production_synchronizer</text>
<text text-anchor="middle" x="546.5" y="-370" font-family="Helvetica,sans-Serif" font-size="10.00">_impl.hpp</text>
</a>
</g>
</g>
<!-- Node29&#45;&gt;Node30 -->
<g id="edge36" class="edge">
<title>Node29&#45;&gt;Node30</title>
<path fill="none" stroke="#63b8ff" d="M608.96,-432.74C597.29,-423.72 583.77,-413.28 572.29,-404.42"/>
<polygon fill="#63b8ff" stroke="#63b8ff" points="606.6,-435.33 616.65,-438.67 610.88,-429.79 606.6,-435.33"/>
</g>
<!-- Node30&#45;&gt;Node5 -->
<g id="edge37" class="edge">
<title>Node30&#45;&gt;Node5</title>
<path fill="none" stroke="#63b8ff" d="M593.48,-357.15C615.34,-345.36 640.53,-331.76 659.02,-321.79"/>
<polygon fill="#63b8ff" stroke="#63b8ff" points="591.86,-354.05 584.72,-361.88 595.18,-360.21 591.86,-354.05"/>
</g>
<!-- Node31 -->
<g id="node31" class="node">
<title>Node31</title>
<g id="a_node31"><a xlink:href="production__synchronizer__impl_8cpp.html" target="_top" xlink:title=" ">
<polygon fill="white" stroke="#666666" points="610,-327 465,-327 465,-286 610,-286 610,-327"/>
<text text-anchor="start" x="473" y="-315" font-family="Helvetica,sans-Serif" font-size="10.00">src/verification/production</text>
<text text-anchor="start" x="473" y="-304" font-family="Helvetica,sans-Serif" font-size="10.00">/impl/production_synchronizer</text>
<text text-anchor="middle" x="537.5" y="-293" font-family="Helvetica,sans-Serif" font-size="10.00">_impl.cpp</text>
</a>
</g>
</g>
<!-- Node30&#45;&gt;Node31 -->
<g id="edge38" class="edge">
<title>Node30&#45;&gt;Node31</title>
<path fill="none" stroke="#63b8ff" d="M542.76,-351.36C541.79,-343.24 540.76,-334.7 539.88,-327.33"/>
<polygon fill="#63b8ff" stroke="#63b8ff" points="539.29,-351.78 543.96,-361.29 546.24,-350.95 539.29,-351.78"/>
</g>
<!-- Node32&#45;&gt;Node5 -->
<g id="edge40" class="edge">
<title>Node32&#45;&gt;Node5</title>
<path fill="none" stroke="#63b8ff" d="M958.84,-432.36C948.67,-423.66 936.94,-413.46 926.5,-404 906.94,-386.26 906.45,-376.06 883.5,-363 839.75,-338.1 784.13,-323.79 742.99,-315.96"/>
<polygon fill="#63b8ff" stroke="#63b8ff" points="956.26,-434.76 966.15,-438.58 960.8,-429.43 956.26,-434.76"/>
</g>
<!-- Node33 -->
<g id="node33" class="node">
<title>Node33</title>
<g id="a_node33"><a xlink:href="router__libp2p_8hpp.html" target="_top" xlink:title=" ">
<polygon fill="white" stroke="#666666" points="1209.5,-398.5 1093.5,-398.5 1093.5,-368.5 1209.5,-368.5 1209.5,-398.5"/>
<text text-anchor="start" x="1101.5" y="-386.5" font-family="Helvetica,sans-Serif" font-size="10.00">src/network/impl/router</text>
<text text-anchor="middle" x="1151.5" y="-375.5" font-family="Helvetica,sans-Serif" font-size="10.00">_libp2p.hpp</text>
</a>
</g>
</g>
<!-- Node32&#45;&gt;Node33 -->
<g id="edge41" class="edge">
<title>Node32&#45;&gt;Node33</title>
<path fill="none" stroke="#63b8ff" d="M1029.63,-435.22C1057.1,-423.79 1091.65,-409.41 1116.94,-398.88"/>
<polygon fill="#63b8ff" stroke="#63b8ff" points="1028.39,-431.94 1020.5,-439.02 1031.08,-438.41 1028.39,-431.94"/>
</g>
<!-- Node34 -->
<g id="node34" class="node">
<title>Node34</title>
<g id="a_node34"><a xlink:href="sync__protocol__observer__impl_8hpp.html" target="_top" xlink:title=" ">
<polygon fill="white" stroke="#666666" points="1075.5,-398.5 935.5,-398.5 935.5,-368.5 1075.5,-368.5 1075.5,-398.5"/>
<text text-anchor="start" x="943.5" y="-386.5" font-family="Helvetica,sans-Serif" font-size="10.00">src/network/impl/sync</text>
<text text-anchor="middle" x="1005.5" y="-375.5" font-family="Helvetica,sans-Serif" font-size="10.00">_protocol_observer_impl.hpp</text>
</a>
</g>
</g>
<!-- Node32&#45;&gt;Node34 -->
<g id="edge44" class="edge">
<title>Node32&#45;&gt;Node34</title>
<path fill="none" stroke="#63b8ff" d="M992.18,-428.58C995.2,-418.58 998.57,-407.45 1001.15,-398.88"/>
<polygon fill="#63b8ff" stroke="#63b8ff" points="988.83,-427.57 989.29,-438.15 995.53,-429.59 988.83,-427.57"/>
</g>
<!-- Node33&#45;&gt;Node5 -->
<g id="edge42" class="edge">
<title>Node33&#45;&gt;Node5</title>
<path fill="none" stroke="#63b8ff" d="M1094.15,-365.22C1090.9,-364.43 1087.67,-363.68 1084.5,-363 964.13,-337.25 820.68,-320.68 742.78,-312.83"/>
<polygon fill="#63b8ff" stroke="#63b8ff" points="1093.2,-368.59 1103.76,-367.71 1094.96,-361.81 1093.2,-368.59"/>
</g>
<!-- Node33&#45;&gt;Node23 -->
<g id="edge43" class="edge">
<title>Node33&#45;&gt;Node23</title>
<path fill="none" stroke="#63b8ff" d="M1165.44,-358.19C1172.31,-346.21 1180.35,-332.18 1186.23,-321.92"/>
<polygon fill="#63b8ff" stroke="#63b8ff" points="1162.48,-356.31 1160.54,-366.73 1168.55,-359.79 1162.48,-356.31"/>
</g>
<!-- Node34&#45;&gt;Node5 -->
<g id="edge45" class="edge">
<title>Node34&#45;&gt;Node5</title>
<path fill="none" stroke="#63b8ff" d="M932.6,-365.42C875.12,-351.94 796.05,-333.41 742.98,-320.97"/>
<polygon fill="#63b8ff" stroke="#63b8ff" points="931.79,-368.82 942.33,-367.69 933.39,-362 931.79,-368.82"/>
</g>
<!-- Node35 -->
<g id="node35" class="node">
<title>Node35</title>
<g id="a_node35"><a xlink:href="sync__protocol__observer__impl_8cpp.html" target="_top" xlink:title=" ">
<polygon fill="white" stroke="#666666" points="1075.5,-321.5 935.5,-321.5 935.5,-291.5 1075.5,-291.5 1075.5,-321.5"/>
<text text-anchor="start" x="943.5" y="-309.5" font-family="Helvetica,sans-Serif" font-size="10.00">src/network/impl/sync</text>
<text text-anchor="middle" x="1005.5" y="-298.5" font-family="Helvetica,sans-Serif" font-size="10.00">_protocol_observer_impl.cpp</text>
</a>
</g>
</g>
<!-- Node34&#45;&gt;Node35 -->
<g id="edge46" class="edge">
<title>Node34&#45;&gt;Node35</title>
<path fill="none" stroke="#63b8ff" d="M1005.5,-356.73C1005.5,-345.08 1005.5,-331.76 1005.5,-321.92"/>
<polygon fill="#63b8ff" stroke="#63b8ff" points="1002,-356.53 1005.5,-366.53 1009,-356.53 1002,-356.53"/>
</g>
</g>
</svg>
