<?xml version="1.0" encoding="UTF-8" standalone="no"?>
<!DOCTYPE svg PUBLIC "-//W3C//DTD SVG 1.1//EN"
 "http://www.w3.org/Graphics/SVG/1.1/DTD/svg11.dtd">
<!-- Generated by graphviz version 7.0.5 (20221223.1930)
 -->
<!-- Title: src/crdt/broadcaster.hpp Pages: 1 -->
<svg width="614pt" height="214pt"
 viewBox="0.00 0.00 613.84 214.00" xmlns="http://www.w3.org/2000/svg" xmlns:xlink="http://www.w3.org/1999/xlink">
<g id="graph0" class="graph" transform="scale(1 1) rotate(0) translate(4 210)">
<title>src/crdt/broadcaster.hpp</title>
<!-- Node1 -->
<g id="node1" class="node">
<title>Node1</title>
<g id="a_node1"><a xlink:title=" ">
<polygon fill="#999999" stroke="#666666" points="342.16,-206 220.16,-206 220.16,-187 342.16,-187 342.16,-206"/>
<text text-anchor="middle" x="281.16" y="-194" font-family="Helvetica,sans-Serif" font-size="10.00">src/crdt/broadcaster.hpp</text>
</a>
</g>
</g>
<!-- Node2 -->
<g id="node2" class="node">
<title>Node2</title>
<g id="a_node2"><a xlink:href="crdt__datastore_8hpp.html" target="_top" xlink:title=" ">
<polygon fill="white" stroke="#666666" points="347.66,-145.5 214.66,-145.5 214.66,-126.5 347.66,-126.5 347.66,-145.5"/>
<text text-anchor="middle" x="281.16" y="-133.5" font-family="Helvetica,sans-Serif" font-size="10.00">src/crdt/crdt_datastore.hpp</text>
</a>
</g>
</g>
<!-- Node1&#45;&gt;Node2 -->
<g id="edge1" class="edge">
<title>Node1&#45;&gt;Node2</title>
<path fill="none" stroke="#63b8ff" d="M281.16,-175.66C281.16,-165.45 281.16,-153.54 281.16,-145.67"/>
<polygon fill="#63b8ff" stroke="#63b8ff" points="277.66,-175.35 281.16,-185.35 284.66,-175.35 277.66,-175.35"/>
</g>
<!-- Node7 -->
<g id="node7" class="node">
<title>Node7</title>
<g id="a_node7"><a xlink:href="pubsub__broadcaster_8hpp.html" target="_top" xlink:title=" ">
<polygon fill="white" stroke="#666666" points="590.66,-151 467.66,-151 467.66,-121 590.66,-121 590.66,-151"/>
<text text-anchor="start" x="475.66" y="-139" font-family="Helvetica,sans-Serif" font-size="10.00">src/crdt/globaldb/pubsub</text>
<text text-anchor="middle" x="529.16" y="-128" font-family="Helvetica,sans-Serif" font-size="10.00">_broadcaster.hpp</text>
</a>
</g>
</g>
<!-- Node1&#45;&gt;Node7 -->
<g id="edge7" class="edge">
<title>Node1&#45;&gt;Node7</title>
<path fill="none" stroke="#63b8ff" d="M330.05,-183.97C369.62,-174.63 425.56,-161.44 468.08,-151.41"/>
<polygon fill="#63b8ff" stroke="#63b8ff" points="329.49,-180.5 320.57,-186.2 331.1,-187.31 329.49,-180.5"/>
</g>
<!-- Node9 -->
<g id="node9" class="node">
<title>Node9</title>
<g id="a_node9"><a xlink:href="pubsub__broadcaster__ext_8hpp.html" target="_top" xlink:title=" ">
<polygon fill="white" stroke="#666666" points="138.66,-151 15.66,-151 15.66,-121 138.66,-121 138.66,-151"/>
<text text-anchor="start" x="23.66" y="-139" font-family="Helvetica,sans-Serif" font-size="10.00">src/crdt/globaldb/pubsub</text>
<text text-anchor="middle" x="77.16" y="-128" font-family="Helvetica,sans-Serif" font-size="10.00">_broadcaster_ext.hpp</text>
</a>
</g>
</g>
<!-- Node1&#45;&gt;Node9 -->
<g id="edge10" class="edge">
<title>Node1&#45;&gt;Node9</title>
<path fill="none" stroke="#63b8ff" d="M239.27,-183.49C206.87,-174.2 161.88,-161.29 127.51,-151.44"/>
<polygon fill="#63b8ff" stroke="#63b8ff" points="238.14,-186.81 248.72,-186.2 240.07,-180.08 238.14,-186.81"/>
</g>
<!-- Node3 -->
<g id="node3" class="node">
<title>Node3</title>
<g id="a_node3"><a xlink:href="globaldb_8cpp.html" target="_top" xlink:title=" ">
<polygon fill="white" stroke="#666666" points="461.16,-19 315.16,-19 315.16,0 461.16,0 461.16,-19"/>
<text text-anchor="middle" x="388.16" y="-7" font-family="Helvetica,sans-Serif" font-size="10.00">src/crdt/globaldb/globaldb.cpp</text>
</a>
</g>
</g>
<!-- Node2&#45;&gt;Node3 -->
<g id="edge2" class="edge">
<title>Node2&#45;&gt;Node3</title>
<path fill="none" stroke="#63b8ff" d="M358.76,-124.67C382.37,-117.49 405.83,-105.38 420.16,-85 435.21,-63.58 411.5,-33.96 397.4,-19.36"/>
<polygon fill="#63b8ff" stroke="#63b8ff" points="358.12,-121.22 349.4,-127.24 359.97,-127.97 358.12,-121.22"/>
</g>
<!-- Node4 -->
<g id="node4" class="node">
<title>Node4</title>
<g id="a_node4"><a xlink:href="globaldb_8hpp.html" target="_top" xlink:title=" ">
<polygon fill="white" stroke="#666666" points="411.16,-79.5 265.16,-79.5 265.16,-60.5 411.16,-60.5 411.16,-79.5"/>
<text text-anchor="middle" x="338.16" y="-67.5" font-family="Helvetica,sans-Serif" font-size="10.00">src/crdt/globaldb/globaldb.hpp</text>
</a>
</g>
</g>
<!-- Node2&#45;&gt;Node4 -->
<g id="edge3" class="edge">
<title>Node2&#45;&gt;Node4</title>
<path fill="none" stroke="#63b8ff" d="M296.64,-117.62C307.53,-105.39 321.65,-89.54 330.3,-79.82"/>
<polygon fill="#63b8ff" stroke="#63b8ff" points="294.13,-115.18 290.09,-124.97 299.35,-119.83 294.13,-115.18"/>
</g>
<!-- Node5 -->
<g id="node5" class="node">
<title>Node5</title>
<g id="a_node5"><a xlink:href="pubsub__broadcaster__ext_8cpp.html" target="_top" xlink:title=" ">
<polygon fill="white" stroke="#666666" points="138.66,-85 15.66,-85 15.66,-55 138.66,-55 138.66,-85"/>
<text text-anchor="start" x="23.66" y="-73" font-family="Helvetica,sans-Serif" font-size="10.00">src/crdt/globaldb/pubsub</text>
<text text-anchor="middle" x="77.16" y="-62" font-family="Helvetica,sans-Serif" font-size="10.00">_broadcaster_ext.cpp</text>
</a>
</g>
</g>
<!-- Node2&#45;&gt;Node5 -->
<g id="edge5" class="edge">
<title>Node2&#45;&gt;Node5</title>
<path fill="none" stroke="#63b8ff" d="M241.92,-122.69C208.05,-112.06 159.06,-96.69 123.3,-85.48"/>
<polygon fill="#63b8ff" stroke="#63b8ff" points="240.76,-125.99 251.35,-125.65 242.85,-119.32 240.76,-125.99"/>
</g>
<!-- Node6 -->
<g id="node6" class="node">
<title>Node6</title>
<g id="a_node6"><a xlink:href="crdt__datastore_8cpp.html" target="_top" xlink:title=" ">
<polygon fill="white" stroke="#666666" points="247.16,-85 157.16,-85 157.16,-55 247.16,-55 247.16,-85"/>
<text text-anchor="start" x="165.16" y="-73" font-family="Helvetica,sans-Serif" font-size="10.00">src/crdt/impl/crdt</text>
<text text-anchor="middle" x="202.16" y="-62" font-family="Helvetica,sans-Serif" font-size="10.00">_datastore.cpp</text>
</a>
</g>
</g>
<!-- Node2&#45;&gt;Node6 -->
<g id="edge6" class="edge">
<title>Node2&#45;&gt;Node6</title>
<path fill="none" stroke="#63b8ff" d="M261.31,-118.92C248.62,-108.64 232.31,-95.43 220.03,-85.48"/>
<polygon fill="#63b8ff" stroke="#63b8ff" points="259.02,-121.57 269,-125.15 263.43,-116.13 259.02,-121.57"/>
</g>
<!-- Node4&#45;&gt;Node3 -->
<g id="edge4" class="edge">
<title>Node4&#45;&gt;Node3</title>
<path fill="none" stroke="#63b8ff" d="M352.85,-51.8C362.02,-41.08 373.43,-27.73 380.75,-19.17"/>
<polygon fill="#63b8ff" stroke="#63b8ff" points="350.35,-49.34 346.52,-59.22 355.68,-53.89 350.35,-49.34"/>
</g>
<!-- Node7&#45;&gt;Node3 -->
<g id="edge8" class="edge">
<title>Node7&#45;&gt;Node3</title>
<path fill="none" stroke="#63b8ff" d="M567.31,-114.64C592.17,-98.72 617.1,-75.87 600.16,-55 582.76,-33.58 515.65,-22.09 461.53,-16.19"/>
<polygon fill="#63b8ff" stroke="#63b8ff" points="565.54,-111.62 558.81,-119.81 569.17,-117.61 565.54,-111.62"/>
</g>
<!-- Node8 -->
<g id="node8" class="node">
<title>Node8</title>
<g id="a_node8"><a xlink:href="pubsub__broadcaster_8cpp.html" target="_top" xlink:title=" ">
<polygon fill="white" stroke="#666666" points="590.66,-85 467.66,-85 467.66,-55 590.66,-55 590.66,-85"/>
<text text-anchor="start" x="475.66" y="-73" font-family="Helvetica,sans-Serif" font-size="10.00">src/crdt/globaldb/pubsub</text>
<text text-anchor="middle" x="529.16" y="-62" font-family="Helvetica,sans-Serif" font-size="10.00">_broadcaster.cpp</text>
</a>
</g>
</g>
<!-- Node7&#45;&gt;Node8 -->
<g id="edge9" class="edge">
<title>Node7&#45;&gt;Node8</title>
<path fill="none" stroke="#63b8ff" d="M529.16,-109.39C529.16,-101.13 529.16,-92.28 529.16,-85.16"/>
<polygon fill="#63b8ff" stroke="#63b8ff" points="525.66,-109.28 529.16,-119.28 532.66,-109.28 525.66,-109.28"/>
</g>
<!-- Node9&#45;&gt;Node3 -->
<g id="edge11" class="edge">
<title>Node9&#45;&gt;Node3</title>
<path fill="none" stroke="#63b8ff" d="M39.27,-114.7C13.87,-98.52 -11.91,-75.29 6.16,-55 26.3,-32.37 209.9,-19.46 315.05,-13.86"/>
<polygon fill="#63b8ff" stroke="#63b8ff" points="37.24,-117.56 47.6,-119.75 40.87,-111.57 37.24,-117.56"/>
</g>
<!-- Node9&#45;&gt;Node5 -->
<g id="edge12" class="edge">
<title>Node9&#45;&gt;Node5</title>
<path fill="none" stroke="#63b8ff" d="M77.16,-109.39C77.16,-101.13 77.16,-92.28 77.16,-85.16"/>
<polygon fill="#63b8ff" stroke="#63b8ff" points="73.66,-109.28 77.16,-119.28 80.66,-109.28 73.66,-109.28"/>
</g>
</g>
</svg>
