<?xml version="1.0" encoding="UTF-8" standalone="no"?>
<!DOCTYPE svg PUBLIC "-//W3C//DTD SVG 1.1//EN"
 "http://www.w3.org/Graphics/SVG/1.1/DTD/svg11.dtd">
<!-- Generated by graphviz version 7.0.5 (20221223.1930)
 -->
<!-- Title: src/api/service/chain/impl/chain_api_impl.cpp Pages: 1 -->
<svg width="1342pt" height="830pt"
 viewBox="0.00 0.00 1341.50 830.00" xmlns="http://www.w3.org/2000/svg" xmlns:xlink="http://www.w3.org/1999/xlink">
<g id="graph0" class="graph" transform="scale(1 1) rotate(0) translate(4 826)">
<title>src/api/service/chain/impl/chain_api_impl.cpp</title>
<!-- Node1 -->
<g id="node1" class="node">
<title>Node1</title>
<g id="a_node1"><a xlink:title=" ">
<polygon fill="#999999" stroke="#666666" points="966.5,-822 843.5,-822 843.5,-792 966.5,-792 966.5,-822"/>
<text text-anchor="start" x="851.5" y="-810" font-family="Helvetica,sans-Serif" font-size="10.00">src/api/service/chain</text>
<text text-anchor="middle" x="905" y="-799" font-family="Helvetica,sans-Serif" font-size="10.00">/impl/chain_api_impl.cpp</text>
</a>
</g>
</g>
<!-- Node2 -->
<g id="node2" class="node">
<title>Node2</title>
<g id="a_node2"><a xlink:href="chain__api__impl_8hpp.html" target="_top" xlink:title=" ">
<polygon fill="white" stroke="#666666" points="960.5,-756 849.5,-756 849.5,-726 960.5,-726 960.5,-756"/>
<text text-anchor="start" x="857.5" y="-744" font-family="Helvetica,sans-Serif" font-size="10.00">api/service/chain/impl</text>
<text text-anchor="middle" x="905" y="-733" font-family="Helvetica,sans-Serif" font-size="10.00">/chain_api_impl.hpp</text>
</a>
</g>
</g>
<!-- Node1&#45;&gt;Node2 -->
<g id="edge1" class="edge">
<title>Node1&#45;&gt;Node2</title>
<path fill="none" stroke="#63b8ff" d="M905,-791.8C905,-784.67 905,-775.82 905,-767.56"/>
<polygon fill="#63b8ff" stroke="#63b8ff" points="908.5,-767.68 905,-757.68 901.5,-767.68 908.5,-767.68"/>
</g>
<!-- Node20 -->
<g id="node20" class="node">
<title>Node20</title>
<g id="a_node20"><a xlink:href="hexutil_8hpp.html" target="_top" xlink:title=" ">
<polygon fill="white" stroke="#666666" points="316,-129 230,-129 230,-110 316,-110 316,-129"/>
<text text-anchor="middle" x="273" y="-117" font-family="Helvetica,sans-Serif" font-size="10.00">base/hexutil.hpp</text>
</a>
</g>
</g>
<!-- Node1&#45;&gt;Node20 -->
<g id="edge69" class="edge">
<title>Node1&#45;&gt;Node20</title>
<path fill="none" stroke="#63b8ff" d="M843.07,-803.6C639.51,-794.9 4,-760.95 4,-676 4,-676 4,-676 4,-421 4,-277.77 175.75,-171.57 244.78,-134.68"/>
<polygon fill="#63b8ff" stroke="#63b8ff" points="246.36,-137.8 253.59,-130.06 243.11,-131.6 246.36,-137.8"/>
</g>
<!-- Node39 -->
<g id="node39" class="node">
<title>Node39</title>
<g id="a_node39"><a xlink:href="visitor_8hpp.html" target="_top" xlink:title=" ">
<polygon fill="white" stroke="#666666" points="1179.5,-750.5 1094.5,-750.5 1094.5,-731.5 1179.5,-731.5 1179.5,-750.5"/>
<text text-anchor="middle" x="1137" y="-738.5" font-family="Helvetica,sans-Serif" font-size="10.00">base/visitor.hpp</text>
</a>
</g>
</g>
<!-- Node1&#45;&gt;Node39 -->
<g id="edge70" class="edge">
<title>Node1&#45;&gt;Node39</title>
<path fill="none" stroke="#63b8ff" d="M957.35,-791.56C998.47,-780.22 1055.03,-764.61 1093.63,-753.96"/>
<polygon fill="#63b8ff" stroke="#63b8ff" points="1094.34,-757.4 1103.05,-751.37 1092.48,-750.65 1094.34,-757.4"/>
</g>
<!-- Node3 -->
<g id="node3" class="node">
<title>Node3</title>
<g id="a_node3"><a xlink:title=" ">
<polygon fill="#e0e0e0" stroke="#999999" points="903.5,-684.5 852.5,-684.5 852.5,-665.5 903.5,-665.5 903.5,-684.5"/>
<text text-anchor="middle" x="878" y="-672.5" font-family="Helvetica,sans-Serif" font-size="10.00">memory</text>
</a>
</g>
</g>
<!-- Node2&#45;&gt;Node3 -->
<g id="edge2" class="edge">
<title>Node2&#45;&gt;Node3</title>
<path fill="none" stroke="#63b8ff" d="M899.01,-725.8C895.21,-716.8 890.25,-705.04 886.11,-695.22"/>
<polygon fill="#63b8ff" stroke="#63b8ff" points="889.43,-694.09 882.32,-686.24 882.98,-696.81 889.43,-694.09"/>
</g>
<!-- Node4 -->
<g id="node4" class="node">
<title>Node4</title>
<g id="a_node4"><a xlink:href="chain__api_8hpp.html" target="_top" xlink:title=" ">
<polygon fill="white" stroke="#666666" points="950,-371 834,-371 834,-341 950,-341 950,-371"/>
<text text-anchor="start" x="842" y="-359" font-family="Helvetica,sans-Serif" font-size="10.00">api/service/chain/chain</text>
<text text-anchor="middle" x="892" y="-348" font-family="Helvetica,sans-Serif" font-size="10.00">_api.hpp</text>
</a>
</g>
</g>
<!-- Node2&#45;&gt;Node4 -->
<g id="edge3" class="edge">
<title>Node2&#45;&gt;Node4</title>
<path fill="none" stroke="#63b8ff" d="M960.84,-729.7C1037.78,-712.49 1163.43,-671.83 1131,-594 1089,-493.2 980.97,-413.28 925.68,-377.46"/>
<polygon fill="#63b8ff" stroke="#63b8ff" points="927.59,-374.53 917.28,-372.11 923.83,-380.43 927.59,-374.53"/>
</g>
<!-- Node22 -->
<g id="node22" class="node">
<title>Node22</title>
<g id="a_node22"><a xlink:href="block__header__repository_8hpp.html" target="_top" xlink:title=" ">
<polygon fill="white" stroke="#666666" points="1122,-624 998,-624 998,-594 1122,-594 1122,-624"/>
<text text-anchor="start" x="1006" y="-612" font-family="Helvetica,sans-Serif" font-size="10.00">blockchain/block_header</text>
<text text-anchor="middle" x="1060" y="-601" font-family="Helvetica,sans-Serif" font-size="10.00">_repository.hpp</text>
</a>
</g>
</g>
<!-- Node2&#45;&gt;Node22 -->
<g id="edge27" class="edge">
<title>Node2&#45;&gt;Node22</title>
<path fill="none" stroke="#63b8ff" d="M922.18,-725.59C949.3,-702.85 1002.2,-658.48 1033.99,-631.81"/>
<polygon fill="#63b8ff" stroke="#63b8ff" points="1036.17,-634.55 1041.58,-625.45 1031.67,-629.19 1036.17,-634.55"/>
</g>
<!-- Node35 -->
<g id="node35" class="node">
<title>Node35</title>
<g id="a_node35"><a xlink:href="block__tree_8hpp.html" target="_top" xlink:title=" ">
<polygon fill="white" stroke="#666666" points="476.5,-684.5 347.5,-684.5 347.5,-665.5 476.5,-665.5 476.5,-684.5"/>
<text text-anchor="middle" x="412" y="-672.5" font-family="Helvetica,sans-Serif" font-size="10.00">blockchain/block_tree.hpp</text>
</a>
</g>
</g>
<!-- Node2&#45;&gt;Node35 -->
<g id="edge56" class="edge">
<title>Node2&#45;&gt;Node35</title>
<path fill="none" stroke="#63b8ff" d="M849.4,-732.78C760.9,-721.29 587.8,-698.82 487.94,-685.86"/>
<polygon fill="#63b8ff" stroke="#63b8ff" points="488.6,-682.42 478.24,-684.6 487.7,-689.36 488.6,-682.42"/>
</g>
<!-- Node5 -->
<g id="node5" class="node">
<title>Node5</title>
<g id="a_node5"><a xlink:title=" ">
<polygon fill="#e0e0e0" stroke="#999999" points="1023.5,-305 932.5,-305 932.5,-286 1023.5,-286 1023.5,-305"/>
<text text-anchor="middle" x="978" y="-293" font-family="Helvetica,sans-Serif" font-size="10.00">boost/variant.hpp</text>
</a>
</g>
</g>
<!-- Node4&#45;&gt;Node5 -->
<g id="edge4" class="edge">
<title>Node4&#45;&gt;Node5</title>
<path fill="none" stroke="#63b8ff" d="M913.26,-340.54C926.18,-331.75 942.66,-320.54 955.75,-311.63"/>
<polygon fill="#63b8ff" stroke="#63b8ff" points="957.44,-314.72 963.74,-306.2 953.51,-308.93 957.44,-314.72"/>
</g>
<!-- Node6 -->
<g id="node6" class="node">
<title>Node6</title>
<g id="a_node6"><a xlink:href="buffer_8hpp.html" target="_top" xlink:title=" ">
<polygon fill="white" stroke="#666666" points="336.5,-305 253.5,-305 253.5,-286 336.5,-286 336.5,-305"/>
<text text-anchor="middle" x="295" y="-293" font-family="Helvetica,sans-Serif" font-size="10.00">base/buffer.hpp</text>
</a>
</g>
</g>
<!-- Node4&#45;&gt;Node6 -->
<g id="edge5" class="edge">
<title>Node4&#45;&gt;Node6</title>
<path fill="none" stroke="#63b8ff" d="M833.67,-349.28C717.63,-337.91 459.44,-312.61 347.95,-301.69"/>
<polygon fill="#63b8ff" stroke="#63b8ff" points="348.48,-298.22 338.18,-300.73 347.79,-305.19 348.48,-298.22"/>
</g>
<!-- Node12 -->
<g id="node12" class="node">
<title>Node12</title>
<g id="a_node12"><a xlink:href="outcome_8hpp.html" target="_top" xlink:title=" ">
<polygon fill="white" stroke="#666666" points="511.5,-74 398.5,-74 398.5,-55 511.5,-55 511.5,-74"/>
<text text-anchor="middle" x="455" y="-62" font-family="Helvetica,sans-Serif" font-size="10.00">outcome/outcome.hpp</text>
</a>
</g>
</g>
<!-- Node4&#45;&gt;Node12 -->
<g id="edge13" class="edge">
<title>Node4&#45;&gt;Node12</title>
<path fill="none" stroke="#63b8ff" d="M893.98,-340.74C896.89,-318.45 902,-273.94 902,-236 902,-236 902,-236 902,-173.5 902,-144.04 905.69,-128.79 883,-110 855.92,-87.57 637.15,-74.06 523.31,-68.48"/>
<polygon fill="#63b8ff" stroke="#63b8ff" points="523.64,-65 513.48,-68.01 523.3,-71.99 523.64,-65"/>
</g>
<!-- Node14 -->
<g id="node14" class="node">
<title>Node14</title>
<g id="a_node14"><a xlink:href="src_2primitives_2common_8hpp.html" target="_top" xlink:title=" ">
<polygon fill="white" stroke="#666666" points="777.5,-305 660.5,-305 660.5,-286 777.5,-286 777.5,-305"/>
<text text-anchor="middle" x="719" y="-293" font-family="Helvetica,sans-Serif" font-size="10.00">primitives/common.hpp</text>
</a>
</g>
</g>
<!-- Node4&#45;&gt;Node14 -->
<g id="edge14" class="edge">
<title>Node4&#45;&gt;Node14</title>
<path fill="none" stroke="#63b8ff" d="M849.24,-340.54C820.65,-330.87 783.43,-318.29 756.1,-309.04"/>
<polygon fill="#63b8ff" stroke="#63b8ff" points="757.44,-305.8 746.85,-305.92 755.2,-312.44 757.44,-305.8"/>
</g>
<!-- Node7 -->
<g id="node7" class="node">
<title>Node7</title>
<g id="a_node7"><a xlink:title=" ">
<polygon fill="#e0e0e0" stroke="#999999" points="366,-74 300,-74 300,-55 366,-55 366,-74"/>
<text text-anchor="middle" x="333" y="-62" font-family="Helvetica,sans-Serif" font-size="10.00">string_view</text>
</a>
</g>
</g>
<!-- Node6&#45;&gt;Node7 -->
<g id="edge6" class="edge">
<title>Node6&#45;&gt;Node7</title>
<path fill="none" stroke="#63b8ff" d="M307.61,-285.55C317.71,-277.54 331.12,-264.81 337,-250 359.34,-193.78 346.55,-120.13 338.3,-85.34"/>
<polygon fill="#63b8ff" stroke="#63b8ff" points="341.75,-84.69 335.91,-75.85 334.96,-86.4 341.75,-84.69"/>
</g>
<!-- Node8 -->
<g id="node8" class="node">
<title>Node8</title>
<g id="a_node8"><a xlink:title=" ">
<polygon fill="#e0e0e0" stroke="#999999" points="136,-74 92,-74 92,-55 136,-55 136,-74"/>
<text text-anchor="middle" x="114" y="-62" font-family="Helvetica,sans-Serif" font-size="10.00">vector</text>
</a>
</g>
</g>
<!-- Node6&#45;&gt;Node8 -->
<g id="edge7" class="edge">
<title>Node6&#45;&gt;Node8</title>
<path fill="none" stroke="#63b8ff" d="M257.56,-285.57C236.33,-278.84 210.56,-267.68 193,-250 168.53,-225.36 134.27,-127.24 120.3,-85"/>
<polygon fill="#63b8ff" stroke="#63b8ff" points="123.69,-84.11 117.26,-75.69 117.04,-86.28 123.69,-84.11"/>
</g>
<!-- Node9 -->
<g id="node9" class="node">
<title>Node9</title>
<g id="a_node9"><a xlink:title=" ">
<polygon fill="#e0e0e0" stroke="#999999" points="328,-250 218,-250 218,-220 328,-220 328,-250"/>
<text text-anchor="start" x="226" y="-238" font-family="Helvetica,sans-Serif" font-size="10.00">boost/container_hash</text>
<text text-anchor="middle" x="273" y="-227" font-family="Helvetica,sans-Serif" font-size="10.00">/hash.hpp</text>
</a>
</g>
</g>
<!-- Node6&#45;&gt;Node9 -->
<g id="edge8" class="edge">
<title>Node6&#45;&gt;Node9</title>
<path fill="none" stroke="#63b8ff" d="M291.75,-285.87C289.27,-279.25 285.7,-269.78 282.35,-260.86"/>
<polygon fill="#63b8ff" stroke="#63b8ff" points="285.64,-259.66 278.84,-251.53 279.08,-262.12 285.64,-259.66"/>
</g>
<!-- Node10 -->
<g id="node10" class="node">
<title>Node10</title>
<g id="a_node10"><a xlink:title=" ">
<polygon fill="#e0e0e0" stroke="#999999" points="562,-244.5 460,-244.5 460,-225.5 562,-225.5 562,-244.5"/>
<text text-anchor="middle" x="511" y="-232.5" font-family="Helvetica,sans-Serif" font-size="10.00">boost/operators.hpp</text>
</a>
</g>
</g>
<!-- Node6&#45;&gt;Node10 -->
<g id="edge9" class="edge">
<title>Node6&#45;&gt;Node10</title>
<path fill="none" stroke="#63b8ff" d="M327.81,-285.62C364.92,-275.56 425.54,-259.15 466.8,-247.97"/>
<polygon fill="#63b8ff" stroke="#63b8ff" points="467.69,-251.36 476.42,-245.36 465.86,-244.6 467.69,-251.36"/>
</g>
<!-- Node11 -->
<g id="node11" class="node">
<title>Node11</title>
<g id="a_node11"><a xlink:title=" ">
<polygon fill="#e0e0e0" stroke="#999999" points="253.5,-74 200.5,-74 200.5,-55 253.5,-55 253.5,-74"/>
<text text-anchor="middle" x="227" y="-62" font-family="Helvetica,sans-Serif" font-size="10.00">gsl/span</text>
</a>
</g>
</g>
<!-- Node6&#45;&gt;Node11 -->
<g id="edge10" class="edge">
<title>Node6&#45;&gt;Node11</title>
<path fill="none" stroke="#63b8ff" d="M259.07,-285.57C240.68,-278.98 219.92,-267.95 209,-250 176.98,-197.39 202.89,-120.34 218.02,-84.78"/>
<polygon fill="#63b8ff" stroke="#63b8ff" points="221.15,-86.35 222.02,-75.79 214.75,-83.51 221.15,-86.35"/>
</g>
<!-- Node6&#45;&gt;Node12 -->
<g id="edge11" class="edge">
<title>Node6&#45;&gt;Node12</title>
<path fill="none" stroke="#63b8ff" d="M311.33,-285.57C324.55,-277.66 342.88,-265.05 355,-250 397.78,-196.85 381.86,-167.87 418,-110 423.97,-100.44 431.81,-90.72 438.73,-82.81"/>
<polygon fill="#63b8ff" stroke="#63b8ff" points="441.14,-85.36 445.26,-75.6 435.95,-80.67 441.14,-85.36"/>
</g>
<!-- Node13 -->
<g id="node13" class="node">
<title>Node13</title>
<g id="a_node13"><a xlink:title=" ">
<polygon fill="#e0e0e0" stroke="#999999" points="525.5,-19 384.5,-19 384.5,0 525.5,0 525.5,-19"/>
<text text-anchor="middle" x="455" y="-7" font-family="Helvetica,sans-Serif" font-size="10.00">libp2p/outcome/outcome.hpp</text>
</a>
</g>
</g>
<!-- Node12&#45;&gt;Node13 -->
<g id="edge12" class="edge">
<title>Node12&#45;&gt;Node13</title>
<path fill="none" stroke="#63b8ff" d="M455,-54.75C455,-48.27 455,-39.16 455,-30.9"/>
<polygon fill="#63b8ff" stroke="#63b8ff" points="458.5,-30.96 455,-20.96 451.5,-30.96 458.5,-30.96"/>
</g>
<!-- Node14&#45;&gt;Node10 -->
<g id="edge16" class="edge">
<title>Node14&#45;&gt;Node10</title>
<path fill="none" stroke="#63b8ff" d="M687.41,-285.62C651.75,-275.59 593.55,-259.22 553.82,-248.04"/>
<polygon fill="#63b8ff" stroke="#63b8ff" points="554.92,-244.72 544.35,-245.38 553.02,-251.46 554.92,-244.72"/>
</g>
<!-- Node15 -->
<g id="node15" class="node">
<title>Node15</title>
<g id="a_node15"><a xlink:title=" ">
<polygon fill="#e0e0e0" stroke="#999999" points="664,-244.5 618,-244.5 618,-225.5 664,-225.5 664,-244.5"/>
<text text-anchor="middle" x="641" y="-232.5" font-family="Helvetica,sans-Serif" font-size="10.00">cstdint</text>
</a>
</g>
</g>
<!-- Node14&#45;&gt;Node15 -->
<g id="edge15" class="edge">
<title>Node14&#45;&gt;Node15</title>
<path fill="none" stroke="#63b8ff" d="M707.15,-285.62C695.24,-276.68 676.62,-262.72 662.17,-251.87"/>
<polygon fill="#63b8ff" stroke="#63b8ff" points="664.27,-249.08 654.17,-245.88 660.07,-254.68 664.27,-249.08"/>
</g>
<!-- Node16 -->
<g id="node16" class="node">
<title>Node16</title>
<g id="a_node16"><a xlink:href="session__key_8hpp.html" target="_top" xlink:title=" ">
<polygon fill="white" stroke="#666666" points="777.5,-250 682.5,-250 682.5,-220 777.5,-220 777.5,-250"/>
<text text-anchor="start" x="690.5" y="-238" font-family="Helvetica,sans-Serif" font-size="10.00">primitives/session</text>
<text text-anchor="middle" x="730" y="-227" font-family="Helvetica,sans-Serif" font-size="10.00">_key.hpp</text>
</a>
</g>
</g>
<!-- Node14&#45;&gt;Node16 -->
<g id="edge17" class="edge">
<title>Node14&#45;&gt;Node16</title>
<path fill="none" stroke="#63b8ff" d="M720.62,-285.87C721.85,-279.33 723.61,-269.99 725.27,-261.15"/>
<polygon fill="#63b8ff" stroke="#63b8ff" points="728.66,-262.08 727.07,-251.6 721.78,-260.78 728.66,-262.08"/>
</g>
<!-- Node17 -->
<g id="node17" class="node">
<title>Node17</title>
<g id="a_node17"><a xlink:href="blob_8hpp.html" target="_top" xlink:title=" ">
<polygon fill="white" stroke="#666666" points="806.5,-184 729.5,-184 729.5,-165 806.5,-165 806.5,-184"/>
<text text-anchor="middle" x="768" y="-172" font-family="Helvetica,sans-Serif" font-size="10.00">base/blob.hpp</text>
</a>
</g>
</g>
<!-- Node16&#45;&gt;Node17 -->
<g id="edge18" class="edge">
<title>Node16&#45;&gt;Node17</title>
<path fill="none" stroke="#63b8ff" d="M739.39,-219.54C744.46,-211.74 750.77,-202.03 756.17,-193.71"/>
<polygon fill="#63b8ff" stroke="#63b8ff" points="759.03,-195.74 761.54,-185.44 753.16,-191.92 759.03,-195.74"/>
</g>
<!-- Node18 -->
<g id="node18" class="node">
<title>Node18</title>
<g id="a_node18"><a xlink:title=" ">
<polygon fill="#e0e0e0" stroke="#999999" points="728,-129 690,-129 690,-110 728,-110 728,-129"/>
<text text-anchor="middle" x="709" y="-117" font-family="Helvetica,sans-Serif" font-size="10.00">array</text>
</a>
</g>
</g>
<!-- Node17&#45;&gt;Node18 -->
<g id="edge19" class="edge">
<title>Node17&#45;&gt;Node18</title>
<path fill="none" stroke="#63b8ff" d="M757.99,-164.51C749.63,-157 737.5,-146.1 727.4,-137.03"/>
<polygon fill="#63b8ff" stroke="#63b8ff" points="729.76,-134.45 719.99,-130.37 725.09,-139.66 729.76,-134.45"/>
</g>
<!-- Node19 -->
<g id="node19" class="node">
<title>Node19</title>
<g id="a_node19"><a xlink:title=" ">
<polygon fill="#e0e0e0" stroke="#999999" points="874,-129 746,-129 746,-110 874,-110 874,-129"/>
<text text-anchor="middle" x="810" y="-117" font-family="Helvetica,sans-Serif" font-size="10.00">boost/functional/hash.hpp</text>
</a>
</g>
</g>
<!-- Node17&#45;&gt;Node19 -->
<g id="edge20" class="edge">
<title>Node17&#45;&gt;Node19</title>
<path fill="none" stroke="#63b8ff" d="M774.94,-164.75C780.62,-157.58 788.84,-147.2 795.89,-138.3"/>
<polygon fill="#63b8ff" stroke="#63b8ff" points="798.51,-140.64 801.97,-130.63 793.02,-136.29 798.51,-140.64"/>
</g>
<!-- Node17&#45;&gt;Node20 -->
<g id="edge21" class="edge">
<title>Node17&#45;&gt;Node20</title>
<path fill="none" stroke="#63b8ff" d="M729.16,-169.34C641.57,-159.96 428.49,-137.15 327.64,-126.35"/>
<polygon fill="#63b8ff" stroke="#63b8ff" points="328.02,-122.87 317.71,-125.29 327.28,-129.83 328.02,-122.87"/>
</g>
<!-- Node21 -->
<g id="node21" class="node">
<title>Node21</title>
<g id="a_node21"><a xlink:title=" ">
<polygon fill="#e0e0e0" stroke="#999999" points="672,-129 618,-129 618,-110 672,-110 672,-129"/>
<text text-anchor="middle" x="645" y="-117" font-family="Helvetica,sans-Serif" font-size="10.00">iostream</text>
</a>
</g>
</g>
<!-- Node17&#45;&gt;Node21 -->
<g id="edge26" class="edge">
<title>Node17&#45;&gt;Node21</title>
<path fill="none" stroke="#63b8ff" d="M747.13,-164.51C727.58,-156.08 698.1,-143.38 675.83,-133.79"/>
<polygon fill="#63b8ff" stroke="#63b8ff" points="677.52,-130.7 666.95,-129.96 674.75,-137.13 677.52,-130.7"/>
</g>
<!-- Node20&#45;&gt;Node7 -->
<g id="edge22" class="edge">
<title>Node20&#45;&gt;Node7</title>
<path fill="none" stroke="#63b8ff" d="M283.18,-109.51C291.76,-101.93 304.27,-90.88 314.6,-81.75"/>
<polygon fill="#63b8ff" stroke="#63b8ff" points="316.66,-84.6 321.84,-75.36 312.03,-79.36 316.66,-84.6"/>
</g>
<!-- Node20&#45;&gt;Node8 -->
<g id="edge23" class="edge">
<title>Node20&#45;&gt;Node8</title>
<path fill="none" stroke="#63b8ff" d="M246.03,-109.51C218.69,-100.4 176.35,-86.28 147.02,-76.51"/>
<polygon fill="#63b8ff" stroke="#63b8ff" points="148.5,-73.31 137.91,-73.47 146.29,-79.95 148.5,-73.31"/>
</g>
<!-- Node20&#45;&gt;Node11 -->
<g id="edge24" class="edge">
<title>Node20&#45;&gt;Node11</title>
<path fill="none" stroke="#63b8ff" d="M265.4,-109.75C259.12,-102.5 249.99,-91.98 242.2,-83.02"/>
<polygon fill="#63b8ff" stroke="#63b8ff" points="244.95,-80.84 235.75,-75.59 239.66,-85.43 244.95,-80.84"/>
</g>
<!-- Node20&#45;&gt;Node12 -->
<g id="edge25" class="edge">
<title>Node20&#45;&gt;Node12</title>
<path fill="none" stroke="#63b8ff" d="M303.87,-109.51C334.03,-100.73 380.14,-87.3 413.5,-77.59"/>
<polygon fill="#63b8ff" stroke="#63b8ff" points="414.2,-81.03 422.83,-74.87 412.25,-74.31 414.2,-81.03"/>
</g>
<!-- Node22&#45;&gt;Node12 -->
<g id="edge29" class="edge">
<title>Node22&#45;&gt;Node12</title>
<path fill="none" stroke="#63b8ff" d="M1094.98,-593.55C1132.88,-575.29 1188,-539.97 1188,-489 1188,-489 1188,-489 1188,-173.5 1188,-106.68 705.07,-77.18 523.19,-68.44"/>
<polygon fill="#63b8ff" stroke="#63b8ff" points="523.57,-64.95 513.42,-67.98 523.24,-71.94 523.57,-64.95"/>
</g>
<!-- Node22&#45;&gt;Node17 -->
<g id="edge30" class="edge">
<title>Node22&#45;&gt;Node17</title>
<path fill="none" stroke="#63b8ff" d="M1072.51,-593.81C1097.24,-564.26 1150,-493.01 1150,-423 1150,-423 1150,-423 1150,-294.5 1150,-225.78 921.78,-192.2 818.14,-180.49"/>
<polygon fill="#63b8ff" stroke="#63b8ff" points="818.56,-177.01 808.23,-179.4 817.79,-183.97 818.56,-177.01"/>
</g>
<!-- Node23 -->
<g id="node23" class="node">
<title>Node23</title>
<g id="a_node23"><a xlink:title=" ">
<polygon fill="#e0e0e0" stroke="#999999" points="1045.5,-558 950.5,-558 950.5,-539 1045.5,-539 1045.5,-558"/>
<text text-anchor="middle" x="998" y="-546" font-family="Helvetica,sans-Serif" font-size="10.00">boost/optional.hpp</text>
</a>
</g>
</g>
<!-- Node22&#45;&gt;Node23 -->
<g id="edge28" class="edge">
<title>Node22&#45;&gt;Node23</title>
<path fill="none" stroke="#63b8ff" d="M1044.67,-593.54C1035.85,-585.22 1024.73,-574.72 1015.56,-566.07"/>
<polygon fill="#63b8ff" stroke="#63b8ff" points="1017.97,-563.53 1008.3,-559.21 1013.17,-568.62 1017.97,-563.53"/>
</g>
<!-- Node24 -->
<g id="node24" class="node">
<title>Node24</title>
<g id="a_node24"><a xlink:href="block__header_8hpp.html" target="_top" xlink:title=" ">
<polygon fill="white" stroke="#666666" points="717.5,-558 580.5,-558 580.5,-539 717.5,-539 717.5,-558"/>
<text text-anchor="middle" x="649" y="-546" font-family="Helvetica,sans-Serif" font-size="10.00">primitives/block_header.hpp</text>
</a>
</g>
</g>
<!-- Node22&#45;&gt;Node24 -->
<g id="edge31" class="edge">
<title>Node22&#45;&gt;Node24</title>
<path fill="none" stroke="#63b8ff" d="M997.58,-599.12C923.95,-588.64 801.67,-571.23 723.25,-560.07"/>
<polygon fill="#63b8ff" stroke="#63b8ff" points="723.9,-556.63 713.51,-558.68 722.91,-563.56 723.9,-556.63"/>
</g>
<!-- Node34 -->
<g id="node34" class="node">
<title>Node34</title>
<g id="a_node34"><a xlink:href="block__id_8hpp.html" target="_top" xlink:title=" ">
<polygon fill="white" stroke="#666666" points="1122,-365.5 1006,-365.5 1006,-346.5 1122,-346.5 1122,-365.5"/>
<text text-anchor="middle" x="1064" y="-353.5" font-family="Helvetica,sans-Serif" font-size="10.00">primitives/block_id.hpp</text>
</a>
</g>
</g>
<!-- Node22&#45;&gt;Node34 -->
<g id="edge52" class="edge">
<title>Node22&#45;&gt;Node34</title>
<path fill="none" stroke="#63b8ff" d="M1060.23,-593.79C1060.9,-551.52 1062.89,-426.49 1063.68,-377.26"/>
<polygon fill="#63b8ff" stroke="#63b8ff" points="1067.17,-377.55 1063.83,-367.5 1060.17,-377.44 1067.17,-377.55"/>
</g>
<!-- Node24&#45;&gt;Node8 -->
<g id="edge33" class="edge">
<title>Node24&#45;&gt;Node8</title>
<path fill="none" stroke="#63b8ff" d="M580.1,-543.96C420.31,-531.68 38,-477.11 38,-236 38,-236 38,-236 38,-173.5 38,-135.18 70.39,-100.87 92.88,-81.66"/>
<polygon fill="#63b8ff" stroke="#63b8ff" points="95.09,-84.38 100.62,-75.34 90.66,-78.95 95.09,-84.38"/>
</g>
<!-- Node24&#45;&gt;Node14 -->
<g id="edge36" class="edge">
<title>Node24&#45;&gt;Node14</title>
<path fill="none" stroke="#63b8ff" d="M669.94,-538.59C684.24,-531.28 702.15,-519.45 711,-503 743.83,-441.97 731.67,-355.47 723.72,-316.68"/>
<polygon fill="#63b8ff" stroke="#63b8ff" points="727.15,-315.96 721.59,-306.94 720.31,-317.46 727.15,-315.96"/>
</g>
<!-- Node24&#45;&gt;Node17 -->
<g id="edge35" class="edge">
<title>Node24&#45;&gt;Node17</title>
<path fill="none" stroke="#63b8ff" d="M675.06,-538.6C692.65,-531.42 715.26,-519.74 730,-503 771.66,-455.67 767.9,-432.46 782,-371 797.01,-305.55 800.46,-285.79 787,-220 785.21,-211.26 781.64,-202.12 778.07,-194.41"/>
<polygon fill="#63b8ff" stroke="#63b8ff" points="781.33,-193.09 773.73,-185.71 775.06,-196.22 781.33,-193.09"/>
</g>
<!-- Node25 -->
<g id="node25" class="node">
<title>Node25</title>
<g id="a_node25"><a xlink:title=" ">
<polygon fill="#e0e0e0" stroke="#999999" points="905,-497.5 843,-497.5 843,-478.5 905,-478.5 905,-497.5"/>
<text text-anchor="middle" x="874" y="-485.5" font-family="Helvetica,sans-Serif" font-size="10.00">type_traits</text>
</a>
</g>
</g>
<!-- Node24&#45;&gt;Node25 -->
<g id="edge32" class="edge">
<title>Node24&#45;&gt;Node25</title>
<path fill="none" stroke="#63b8ff" d="M688.15,-538.53C724.73,-529.98 780.78,-516.45 829,-503 830.98,-502.45 833.01,-501.87 835.05,-501.27"/>
<polygon fill="#63b8ff" stroke="#63b8ff" points="835.97,-504.65 844.54,-498.43 833.96,-497.95 835.97,-504.65"/>
</g>
<!-- Node26 -->
<g id="node26" class="node">
<title>Node26</title>
<g id="a_node26"><a xlink:title=" ">
<polygon fill="#e0e0e0" stroke="#999999" points="440,-371 336,-371 336,-341 440,-341 440,-371"/>
<text text-anchor="start" x="344" y="-359" font-family="Helvetica,sans-Serif" font-size="10.00">boost/multiprecision</text>
<text text-anchor="middle" x="388" y="-348" font-family="Helvetica,sans-Serif" font-size="10.00">/cpp_int.hpp</text>
</a>
</g>
</g>
<!-- Node24&#45;&gt;Node26 -->
<g id="edge34" class="edge">
<title>Node24&#45;&gt;Node26</title>
<path fill="none" stroke="#63b8ff" d="M636.53,-538.8C623.92,-529.95 603.93,-515.75 587,-503 569.81,-490.06 568.29,-482.54 549,-473 491.02,-444.34 453.62,-482.85 408,-437 393.87,-422.8 389.21,-400.23 387.89,-382.68"/>
<polygon fill="#63b8ff" stroke="#63b8ff" points="391.39,-382.6 387.5,-372.75 384.4,-382.88 391.39,-382.6"/>
</g>
<!-- Node27 -->
<g id="node27" class="node">
<title>Node27</title>
<g id="a_node27"><a xlink:href="compact__integer_8hpp.html" target="_top" xlink:title=" ">
<polygon fill="white" stroke="#666666" points="539.5,-503 440.5,-503 440.5,-473 539.5,-473 539.5,-503"/>
<text text-anchor="start" x="448.5" y="-491" font-family="Helvetica,sans-Serif" font-size="10.00">primitives/compact</text>
<text text-anchor="middle" x="490" y="-480" font-family="Helvetica,sans-Serif" font-size="10.00">_integer.hpp</text>
</a>
</g>
</g>
<!-- Node24&#45;&gt;Node27 -->
<g id="edge37" class="edge">
<title>Node24&#45;&gt;Node27</title>
<path fill="none" stroke="#63b8ff" d="M624.85,-538.62C602.36,-530.34 568.13,-517.75 539.78,-507.32"/>
<polygon fill="#63b8ff" stroke="#63b8ff" points="541.26,-504.13 530.67,-503.96 538.84,-510.7 541.26,-504.13"/>
</g>
<!-- Node29 -->
<g id="node29" class="node">
<title>Node29</title>
<g id="a_node29"><a xlink:href="digest_8hpp.html" target="_top" xlink:title=" ">
<polygon fill="white" stroke="#666666" points="702,-497.5 596,-497.5 596,-478.5 702,-478.5 702,-497.5"/>
<text text-anchor="middle" x="649" y="-485.5" font-family="Helvetica,sans-Serif" font-size="10.00">primitives/digest.hpp</text>
</a>
</g>
</g>
<!-- Node24&#45;&gt;Node29 -->
<g id="edge42" class="edge">
<title>Node24&#45;&gt;Node29</title>
<path fill="none" stroke="#63b8ff" d="M649,-538.87C649,-531 649,-519.1 649,-508.89"/>
<polygon fill="#63b8ff" stroke="#63b8ff" points="652.5,-509.18 649,-499.18 645.5,-509.18 652.5,-509.18"/>
</g>
<!-- Node28 -->
<g id="node28" class="node">
<title>Node28</title>
<g id="a_node28"><a xlink:href="scale_2types_8hpp.html" target="_top" xlink:title=" ">
<polygon fill="white" stroke="#666666" points="354,-431.5 270,-431.5 270,-412.5 354,-412.5 354,-431.5"/>
<text text-anchor="middle" x="312" y="-419.5" font-family="Helvetica,sans-Serif" font-size="10.00">scale/types.hpp</text>
</a>
</g>
</g>
<!-- Node27&#45;&gt;Node28 -->
<g id="edge38" class="edge">
<title>Node27&#45;&gt;Node28</title>
<path fill="none" stroke="#63b8ff" d="M450.05,-472.64C419.33,-461.59 377.27,-446.47 347.68,-435.83"/>
<polygon fill="#63b8ff" stroke="#63b8ff" points="349.01,-432.59 338.42,-432.5 346.64,-439.18 349.01,-432.59"/>
</g>
<!-- Node28&#45;&gt;Node8 -->
<g id="edge39" class="edge">
<title>Node28&#45;&gt;Node8</title>
<path fill="none" stroke="#63b8ff" d="M302.68,-412.23C277.8,-388.38 208.99,-319.42 169,-250 153.42,-222.95 154.94,-213.59 145,-184 136.85,-159.75 134.54,-153.74 128,-129 124.15,-114.43 120.51,-97.79 117.9,-85.2"/>
<polygon fill="#63b8ff" stroke="#63b8ff" points="121.39,-84.77 115.98,-75.67 114.53,-86.16 121.39,-84.77"/>
</g>
<!-- Node28&#45;&gt;Node12 -->
<g id="edge41" class="edge">
<title>Node28&#45;&gt;Node12</title>
<path fill="none" stroke="#63b8ff" d="M311.05,-412.14C309.82,-396.02 309.62,-361.65 327,-341 345.63,-318.86 554.5,-273.77 571,-250 613.43,-188.89 522.25,-112.81 477.67,-80.81"/>
<polygon fill="#63b8ff" stroke="#63b8ff" points="479.87,-78.07 469.67,-75.2 475.85,-83.81 479.87,-78.07"/>
</g>
<!-- Node28&#45;&gt;Node26 -->
<g id="edge40" class="edge">
<title>Node28&#45;&gt;Node26</title>
<path fill="none" stroke="#63b8ff" d="M322.57,-412.1C332.81,-403.48 348.73,-390.07 362.31,-378.63"/>
<polygon fill="#63b8ff" stroke="#63b8ff" points="364.26,-381.57 369.65,-372.45 359.75,-376.22 364.26,-381.57"/>
</g>
<!-- Node29&#45;&gt;Node5 -->
<g id="edge43" class="edge">
<title>Node29&#45;&gt;Node5</title>
<path fill="none" stroke="#63b8ff" d="M702.3,-481.99C771.64,-472.58 891.85,-445.85 959,-371 972.5,-355.96 976.67,-332.65 977.84,-316.11"/>
<polygon fill="#63b8ff" stroke="#63b8ff" points="981.32,-316.67 978.18,-306.55 974.32,-316.42 981.32,-316.67"/>
</g>
<!-- Node29&#45;&gt;Node6 -->
<g id="edge44" class="edge">
<title>Node29&#45;&gt;Node6</title>
<path fill="none" stroke="#63b8ff" d="M612,-478.08C564.95,-466.45 488.62,-446.46 479,-437 447.13,-405.66 480.95,-372.27 449,-341 422.31,-314.88 381.29,-303.92 348.3,-299.4"/>
<polygon fill="#63b8ff" stroke="#63b8ff" points="348.84,-295.94 338.5,-298.23 348.02,-302.89 348.84,-295.94"/>
</g>
<!-- Node30 -->
<g id="node30" class="node">
<title>Node30</title>
<g id="a_node30"><a xlink:href="unused_8hpp.html" target="_top" xlink:title=" ">
<polygon fill="white" stroke="#666666" points="702,-431.5 612,-431.5 612,-412.5 702,-412.5 702,-431.5"/>
<text text-anchor="middle" x="657" y="-419.5" font-family="Helvetica,sans-Serif" font-size="10.00">base/unused.hpp</text>
</a>
</g>
</g>
<!-- Node29&#45;&gt;Node30 -->
<g id="edge45" class="edge">
<title>Node29&#45;&gt;Node30</title>
<path fill="none" stroke="#63b8ff" d="M650.11,-478.1C651.23,-469.12 653.01,-454.95 654.47,-443.22"/>
<polygon fill="#63b8ff" stroke="#63b8ff" points="657.94,-443.68 655.71,-433.33 651,-442.81 657.94,-443.68"/>
</g>
<!-- Node31 -->
<g id="node31" class="node">
<title>Node31</title>
<g id="a_node31"><a xlink:href="scheduled__change_8hpp.html" target="_top" xlink:title=" ">
<polygon fill="white" stroke="#666666" points="594,-437 488,-437 488,-407 594,-407 594,-437"/>
<text text-anchor="start" x="496" y="-425" font-family="Helvetica,sans-Serif" font-size="10.00">primitives/scheduled</text>
<text text-anchor="middle" x="541" y="-414" font-family="Helvetica,sans-Serif" font-size="10.00">_change.hpp</text>
</a>
</g>
</g>
<!-- Node29&#45;&gt;Node31 -->
<g id="edge46" class="edge">
<title>Node29&#45;&gt;Node31</title>
<path fill="none" stroke="#63b8ff" d="M633.98,-478.1C618.88,-469.15 595.07,-455.04 575.32,-443.34"/>
<polygon fill="#63b8ff" stroke="#63b8ff" points="577.12,-440.34 566.73,-438.25 573.55,-446.36 577.12,-440.34"/>
</g>
<!-- Node31&#45;&gt;Node14 -->
<g id="edge51" class="edge">
<title>Node31&#45;&gt;Node14</title>
<path fill="none" stroke="#63b8ff" d="M594.25,-407.49C618.2,-399.59 645.78,-387.8 667,-371 686.09,-355.89 701.07,-331.91 709.95,-315.25"/>
<polygon fill="#63b8ff" stroke="#63b8ff" points="713.02,-316.95 714.41,-306.44 706.77,-313.78 713.02,-316.95"/>
</g>
<!-- Node32 -->
<g id="node32" class="node">
<title>Node32</title>
<g id="a_node32"><a xlink:href="authority_8hpp.html" target="_top" xlink:title=" ">
<polygon fill="white" stroke="#666666" points="658,-365.5 542,-365.5 542,-346.5 658,-346.5 658,-365.5"/>
<text text-anchor="middle" x="600" y="-353.5" font-family="Helvetica,sans-Serif" font-size="10.00">primitives/authority.hpp</text>
</a>
</g>
</g>
<!-- Node31&#45;&gt;Node32 -->
<g id="edge47" class="edge">
<title>Node31&#45;&gt;Node32</title>
<path fill="none" stroke="#63b8ff" d="M554.09,-406.8C563.02,-397.11 574.89,-384.24 584.32,-374.01"/>
<polygon fill="#63b8ff" stroke="#63b8ff" points="586.62,-376.68 590.82,-366.96 581.47,-371.94 586.62,-376.68"/>
</g>
<!-- Node32&#45;&gt;Node14 -->
<g id="edge50" class="edge">
<title>Node32&#45;&gt;Node14</title>
<path fill="none" stroke="#63b8ff" d="M618.07,-346.12C637.29,-336.67 667.97,-321.59 690.46,-310.53"/>
<polygon fill="#63b8ff" stroke="#63b8ff" points="691.97,-313.69 699.4,-306.14 688.88,-307.41 691.97,-313.69"/>
</g>
<!-- Node32&#45;&gt;Node15 -->
<g id="edge48" class="edge">
<title>Node32&#45;&gt;Node15</title>
<path fill="none" stroke="#63b8ff" d="M603.08,-346.06C609.67,-326.92 625.27,-281.65 634.28,-255.52"/>
<polygon fill="#63b8ff" stroke="#63b8ff" points="637.55,-256.75 637.5,-246.16 630.93,-254.47 637.55,-256.75"/>
</g>
<!-- Node33 -->
<g id="node33" class="node">
<title>Node33</title>
<g id="a_node33"><a xlink:title=" ">
<polygon fill="#e0e0e0" stroke="#999999" points="603.5,-305 544.5,-305 544.5,-286 603.5,-286 603.5,-305"/>
<text text-anchor="middle" x="574" y="-293" font-family="Helvetica,sans-Serif" font-size="10.00">functional</text>
</a>
</g>
</g>
<!-- Node32&#45;&gt;Node33 -->
<g id="edge49" class="edge">
<title>Node32&#45;&gt;Node33</title>
<path fill="none" stroke="#63b8ff" d="M596.16,-346.37C592.55,-338.25 587.03,-325.81 582.39,-315.39"/>
<polygon fill="#63b8ff" stroke="#63b8ff" points="585.73,-314.27 578.47,-306.55 579.33,-317.11 585.73,-314.27"/>
</g>
<!-- Node34&#45;&gt;Node5 -->
<g id="edge53" class="edge">
<title>Node34&#45;&gt;Node5</title>
<path fill="none" stroke="#63b8ff" d="M1050.94,-346.12C1037.55,-337.01 1016.48,-322.68 1000.42,-311.75"/>
<polygon fill="#63b8ff" stroke="#63b8ff" points="1002.67,-309.05 992.44,-306.32 998.74,-314.84 1002.67,-309.05"/>
</g>
<!-- Node34&#45;&gt;Node14 -->
<g id="edge55" class="edge">
<title>Node34&#45;&gt;Node14</title>
<path fill="none" stroke="#63b8ff" d="M1011.23,-346.05C949.93,-335.66 848.85,-318.52 783.09,-307.37"/>
<polygon fill="#63b8ff" stroke="#63b8ff" points="783.99,-303.97 773.54,-305.75 782.82,-310.87 783.99,-303.97"/>
</g>
<!-- Node34&#45;&gt;Node17 -->
<g id="edge54" class="edge">
<title>Node34&#45;&gt;Node17</title>
<path fill="none" stroke="#63b8ff" d="M1062.24,-346.17C1058.94,-331.74 1050.51,-303.04 1033,-286 972.55,-227.17 876.23,-197.83 817.87,-184.7"/>
<polygon fill="#63b8ff" stroke="#63b8ff" points="818.72,-181.31 808.21,-182.61 817.24,-188.15 818.72,-181.31"/>
</g>
<!-- Node35&#45;&gt;Node8 -->
<g id="edge58" class="edge">
<title>Node35&#45;&gt;Node8</title>
<path fill="none" stroke="#63b8ff" d="M347.34,-673.15C257.71,-670.6 102.06,-660.84 61,-624 35.57,-601.18 42,-583.67 42,-549.5 42,-549.5 42,-549.5 42,-421 42,-336.69 0,-320.31 0,-236 0,-236 0,-236 0,-173.5 0,-128.23 47.95,-96.26 81.66,-79.37"/>
<polygon fill="#63b8ff" stroke="#63b8ff" points="83.14,-82.54 90.65,-75.07 80.12,-76.22 83.14,-82.54"/>
</g>
<!-- Node35&#45;&gt;Node12 -->
<g id="edge60" class="edge">
<title>Node35&#45;&gt;Node12</title>
<path fill="none" stroke="#63b8ff" d="M349.73,-665.02C322.47,-658.08 292.17,-645.78 272,-624 206.39,-553.15 228.71,-498.01 261,-407 273.13,-372.82 285.25,-368.41 309,-341 324.02,-323.66 331.88,-323.08 346,-305 363.41,-282.71 365.42,-275.33 378,-250 407.16,-191.31 435.19,-118.83 447.9,-84.83"/>
<polygon fill="#63b8ff" stroke="#63b8ff" points="451.14,-86.15 451.33,-75.56 444.58,-83.72 451.14,-86.15"/>
</g>
<!-- Node35&#45;&gt;Node14 -->
<g id="edge66" class="edge">
<title>Node35&#45;&gt;Node14</title>
<path fill="none" stroke="#63b8ff" d="M476.06,-665.02C578.55,-648.83 768,-610.64 768,-549.5 768,-549.5 768,-549.5 768,-421 768,-380.91 745.73,-338.3 731.22,-314.78"/>
<polygon fill="#63b8ff" stroke="#63b8ff" points="734.37,-313.2 726.02,-306.67 728.47,-316.98 734.37,-313.2"/>
</g>
<!-- Node35&#45;&gt;Node15 -->
<g id="edge57" class="edge">
<title>Node35&#45;&gt;Node15</title>
<path fill="none" stroke="#63b8ff" d="M411.63,-665.33C410.67,-636.96 409.58,-544.62 432,-473 460.41,-382.24 466.67,-351.09 536,-286 556.15,-267.09 584.77,-254.1 607.04,-246.12"/>
<polygon fill="#63b8ff" stroke="#63b8ff" points="607.94,-249.51 616.28,-242.98 605.69,-242.88 607.94,-249.51"/>
</g>
<!-- Node35&#45;&gt;Node23 -->
<g id="edge59" class="edge">
<title>Node35&#45;&gt;Node23</title>
<path fill="none" stroke="#63b8ff" d="M476.94,-672.13C593.17,-668.02 831.74,-655.88 908,-624 938.6,-611.21 966.82,-584.37 983.23,-566.64"/>
<polygon fill="#63b8ff" stroke="#63b8ff" points="985.6,-569.24 989.66,-559.45 980.39,-564.57 985.6,-569.24"/>
</g>
<!-- Node35&#45;&gt;Node34 -->
<g id="edge65" class="edge">
<title>Node35&#45;&gt;Node34</title>
<path fill="none" stroke="#63b8ff" d="M476.88,-669.91C568.16,-663.37 729.25,-648.72 782,-624 909.11,-564.45 1015.98,-425.17 1051.47,-375.23"/>
<polygon fill="#63b8ff" stroke="#63b8ff" points="1054.2,-377.43 1057.07,-367.23 1048.47,-373.41 1054.2,-377.43"/>
</g>
<!-- Node36 -->
<g id="node36" class="node">
<title>Node36</title>
<g id="a_node36"><a xlink:href="block_8hpp.html" target="_top" xlink:title=" ">
<polygon fill="white" stroke="#666666" points="383.5,-618.5 280.5,-618.5 280.5,-599.5 383.5,-599.5 383.5,-618.5"/>
<text text-anchor="middle" x="332" y="-606.5" font-family="Helvetica,sans-Serif" font-size="10.00">primitives/block.hpp</text>
</a>
</g>
</g>
<!-- Node35&#45;&gt;Node36 -->
<g id="edge61" class="edge">
<title>Node35&#45;&gt;Node36</title>
<path fill="none" stroke="#63b8ff" d="M400.88,-665.1C388.22,-654.98 367.3,-638.24 351.83,-625.87"/>
<polygon fill="#63b8ff" stroke="#63b8ff" points="354.21,-623.28 344.21,-619.77 349.83,-628.75 354.21,-623.28"/>
</g>
<!-- Node38 -->
<g id="node38" class="node">
<title>Node38</title>
<g id="a_node38"><a xlink:href="justification_8hpp.html" target="_top" xlink:title=" ">
<polygon fill="white" stroke="#666666" points="198,-618.5 70,-618.5 70,-599.5 198,-599.5 198,-618.5"/>
<text text-anchor="middle" x="134" y="-606.5" font-family="Helvetica,sans-Serif" font-size="10.00">primitives/justification.hpp</text>
</a>
</g>
</g>
<!-- Node35&#45;&gt;Node38 -->
<g id="edge67" class="edge">
<title>Node35&#45;&gt;Node38</title>
<path fill="none" stroke="#63b8ff" d="M373.05,-665.03C323.53,-653.63 237.95,-633.93 183.75,-621.45"/>
<polygon fill="#63b8ff" stroke="#63b8ff" points="184.69,-618.08 174.16,-619.25 183.12,-624.9 184.69,-618.08"/>
</g>
<!-- Node36&#45;&gt;Node24 -->
<g id="edge62" class="edge">
<title>Node36&#45;&gt;Node24</title>
<path fill="none" stroke="#63b8ff" d="M380.49,-599.05C436.46,-588.72 528.54,-571.73 588.98,-560.58"/>
<polygon fill="#63b8ff" stroke="#63b8ff" points="589.57,-564.03 598.77,-558.77 588.3,-557.14 589.57,-564.03"/>
</g>
<!-- Node37 -->
<g id="node37" class="node">
<title>Node37</title>
<g id="a_node37"><a xlink:href="extrinsic_8hpp.html" target="_top" xlink:title=" ">
<polygon fill="white" stroke="#666666" points="379,-558 263,-558 263,-539 379,-539 379,-558"/>
<text text-anchor="middle" x="321" y="-546" font-family="Helvetica,sans-Serif" font-size="10.00">primitives/extrinsic.hpp</text>
</a>
</g>
</g>
<!-- Node36&#45;&gt;Node37 -->
<g id="edge63" class="edge">
<title>Node36&#45;&gt;Node37</title>
<path fill="none" stroke="#63b8ff" d="M330.38,-599.37C328.9,-591.5 326.66,-579.6 324.74,-569.39"/>
<polygon fill="#63b8ff" stroke="#63b8ff" points="328.2,-568.84 322.91,-559.65 321.32,-570.13 328.2,-568.84"/>
</g>
<!-- Node37&#45;&gt;Node6 -->
<g id="edge64" class="edge">
<title>Node37&#45;&gt;Node6</title>
<path fill="none" stroke="#63b8ff" d="M314.19,-538.7C300.81,-520.78 271.48,-478.26 261,-437 249.97,-393.58 270.85,-342.4 284.51,-315.4"/>
<polygon fill="#63b8ff" stroke="#63b8ff" points="287.51,-317.21 289.09,-306.73 281.32,-313.93 287.51,-317.21"/>
</g>
<!-- Node38&#45;&gt;Node6 -->
<g id="edge68" class="edge">
<title>Node38&#45;&gt;Node6</title>
<path fill="none" stroke="#63b8ff" d="M131.97,-599.1C127.67,-579.38 118,-530.48 118,-489 118,-489 118,-489 118,-421 118,-358.39 193,-324.54 245.36,-308.53"/>
<polygon fill="#63b8ff" stroke="#63b8ff" points="246.08,-311.97 254.7,-305.81 244.12,-305.25 246.08,-311.97"/>
</g>
<!-- Node39&#45;&gt;Node25 -->
<g id="edge71" class="edge">
<title>Node39&#45;&gt;Node25</title>
<path fill="none" stroke="#63b8ff" d="M1124.03,-731.17C1097.39,-712.77 1035.16,-668.31 989,-624 948.63,-585.24 907.61,-533.46 887.21,-506.69"/>
<polygon fill="#63b8ff" stroke="#63b8ff" points="890.18,-504.81 881.36,-498.94 884.6,-509.03 890.18,-504.81"/>
</g>
<!-- Node40 -->
<g id="node40" class="node">
<title>Node40</title>
<g id="a_node40"><a xlink:title=" ">
<polygon fill="#e0e0e0" stroke="#999999" points="1333.5,-684.5 1294.5,-684.5 1294.5,-665.5 1333.5,-665.5 1333.5,-684.5"/>
<text text-anchor="middle" x="1314" y="-672.5" font-family="Helvetica,sans-Serif" font-size="10.00">utility</text>
</a>
</g>
</g>
<!-- Node39&#45;&gt;Node40 -->
<g id="edge72" class="edge">
<title>Node39&#45;&gt;Node40</title>
<path fill="none" stroke="#63b8ff" d="M1167.16,-731.02C1197.36,-721.74 1244.95,-706.36 1285,-690 1285.35,-689.86 1285.7,-689.71 1286.05,-689.57"/>
<polygon fill="#63b8ff" stroke="#63b8ff" points="1287.29,-692.85 1294.99,-685.56 1284.43,-686.46 1287.29,-692.85"/>
</g>
<!-- Node41 -->
<g id="node41" class="node">
<title>Node41</title>
<g id="a_node41"><a xlink:title=" ">
<polygon fill="#e0e0e0" stroke="#999999" points="1276,-690 1178,-690 1178,-660 1276,-660 1276,-690"/>
<text text-anchor="start" x="1186" y="-678" font-family="Helvetica,sans-Serif" font-size="10.00">boost/variant/apply</text>
<text text-anchor="middle" x="1227" y="-667" font-family="Helvetica,sans-Serif" font-size="10.00">_visitor.hpp</text>
</a>
</g>
</g>
<!-- Node39&#45;&gt;Node41 -->
<g id="edge73" class="edge">
<title>Node39&#45;&gt;Node41</title>
<path fill="none" stroke="#63b8ff" d="M1149.51,-731.1C1161.87,-722.32 1181.22,-708.55 1197.49,-696.98"/>
<polygon fill="#63b8ff" stroke="#63b8ff" points="1199.29,-700 1205.41,-691.35 1195.23,-694.3 1199.29,-700"/>
</g>
</g>
</svg>
