<?xml version="1.0" encoding="UTF-8" standalone="no"?>
<!DOCTYPE svg PUBLIC "-//W3C//DTD SVG 1.1//EN"
 "http://www.w3.org/Graphics/SVG/1.1/DTD/svg11.dtd">
<!-- Generated by graphviz version 7.0.5 (20221223.1930)
 -->
<!-- Title: src/api/service/chain/chain_jrpc_processor.cpp Pages: 1 -->
<!--zoomable 533 -->
<svg id="main" version="1.1" xmlns="http://www.w3.org/2000/svg" xmlns:xlink="http://www.w3.org/1999/xlink" xml:space="preserve" onload="init(evt)">
<style type="text/css"><![CDATA[
.edge:hover path { stroke: red; }
.edge:hover polygon { stroke: red; fill: red; }
]]></style>
<script type="text/javascript"><![CDATA[
var edges = document.getElementsByTagName('g');
if (edges && edges.length) {
  for (var i=0;i<edges.length;i++) {
    if (edges[i].id.substr(0,4)=='edge') {
      edges[i].setAttribute('class','edge');
    }
  }
}
]]></script>
        <defs>
                <circle id="rim" cx="0" cy="0" r="7"/>
                <circle id="rim2" cx="0" cy="0" r="3.5"/>
                <g id="zoomPlus">
                        <use xlink:href="#rim" fill="#404040">
                                <set attributeName="fill" to="#808080" begin="zoomplus.mouseover" end="zoomplus.mouseout"/>
                        </use>
                        <path d="M-4,0h8M0,-4v8" fill="none" stroke="white" stroke-width="1.5" pointer-events="none"/>
                </g>
                <g id="zoomMin">
                        <use xlink:href="#rim" fill="#404040">
                                <set attributeName="fill" to="#808080" begin="zoomminus.mouseover" end="zoomminus.mouseout"/>
                        </use>
                        <path d="M-4,0h8" fill="none" stroke="white" stroke-width="1.5" pointer-events="none"/>
                </g>
                <g id="dirArrow">
                        <path fill="none" stroke="white" stroke-width="1.5" d="M0,-3.0v7 M-2.5,-0.5L0,-3.0L2.5,-0.5"/>
                </g>
               <g id="resetDef">
                       <use xlink:href="#rim2" fill="#404040">
                               <set attributeName="fill" to="#808080" begin="reset.mouseover" end="reset.mouseout"/>
                       </use>
               </g>
        </defs>

<script type="text/javascript">
var viewWidth = 1253;
var viewHeight = 533;
var sectionId = 'dynsection-0';
</script>
<script xlink:href="svgpan.js"/>
<svg id="graph" class="graph">
<g id="viewport">
<title>src/api/service/chain/chain_jrpc_processor.cpp</title>
<!-- Node1 -->
<g id="node1" class="node">
<title>Node1</title>
<g id="a_node1"><a xlink:title=" ">
<polygon fill="#999999" stroke="#666666" points="890.5,-525 760.5,-525 760.5,-495 890.5,-495 890.5,-525"/>
<text text-anchor="start" x="768.5" y="-513" font-family="Helvetica,sans-Serif" font-size="10.00">src/api/service/chain</text>
<text text-anchor="middle" x="825.5" y="-502" font-family="Helvetica,sans-Serif" font-size="10.00">/chain_jrpc_processor.cpp</text>
</a>
</g>
</g>
<!-- Node2 -->
<g id="node2" class="node">
<title>Node2</title>
<g id="a_node2"><a xlink:href="chain__jrpc__processor_8hpp.html" target="_top" xlink:title=" ">
<polygon fill="white" stroke="#666666" points="486.5,-459 370.5,-459 370.5,-429 486.5,-429 486.5,-459"/>
<text text-anchor="start" x="378.5" y="-447" font-family="Helvetica,sans-Serif" font-size="10.00">api/service/chain/chain</text>
<text text-anchor="middle" x="428.5" y="-436" font-family="Helvetica,sans-Serif" font-size="10.00">_jrpc_processor.hpp</text>
</a>
</g>
</g>
<!-- Node1&#45;&gt;Node2 -->
<g id="edge1" class="edge">
<title>Node1&#45;&gt;Node2</title>
<path fill="none" stroke="#63b8ff" d="M760.39,-498.5C688.1,-486.85 571.88,-468.11 497.9,-456.19"/>
<polygon fill="#63b8ff" stroke="#63b8ff" points="498.78,-452.78 488.35,-454.65 497.66,-459.7 498.78,-452.78"/>
</g>
<!-- Node30 -->
<g id="node30" class="node">
<title>Node30</title>
<g id="a_node30"><a xlink:href="jrpc__method_8hpp.html" target="_top" xlink:title=" ">
<polygon fill="white" stroke="#666666" points="1031.5,-327 909.5,-327 909.5,-308 1031.5,-308 1031.5,-327"/>
<text text-anchor="middle" x="970.5" y="-315" font-family="Helvetica,sans-Serif" font-size="10.00">api/jrpc/jrpc_method.hpp</text>
</a>
</g>
</g>
<!-- Node1&#45;&gt;Node30 -->
<g id="edge35" class="edge">
<title>Node1&#45;&gt;Node30</title>
<path fill="none" stroke="#63b8ff" d="M849.51,-494.7C863.26,-485.68 880.18,-473.1 892.5,-459 925.75,-420.95 951,-366.41 962.92,-337.76"/>
<polygon fill="#63b8ff" stroke="#63b8ff" points="966.12,-339.18 966.63,-328.6 959.63,-336.55 966.12,-339.18"/>
</g>
<!-- Node34 -->
<g id="node34" class="node">
<title>Node34</title>
<g id="a_node34"><a xlink:href="value__converter_8hpp.html" target="_top" xlink:title=" ">
<polygon fill="white" stroke="#666666" points="1041.5,-266.5 903.5,-266.5 903.5,-247.5 1041.5,-247.5 1041.5,-266.5"/>
<text text-anchor="middle" x="972.5" y="-254.5" font-family="Helvetica,sans-Serif" font-size="10.00">api/jrpc/value_converter.hpp</text>
</a>
</g>
</g>
<!-- Node1&#45;&gt;Node34 -->
<g id="edge54" class="edge">
<title>Node1&#45;&gt;Node34</title>
<path fill="none" stroke="#63b8ff" d="M834.03,-494.91C839.75,-485.08 847.18,-471.53 852.5,-459 880.02,-394.18 858.68,-364.66 900.5,-308 911.66,-292.88 928.81,-280.71 943.57,-272.16"/>
<polygon fill="#63b8ff" stroke="#63b8ff" points="944.89,-275.43 951.98,-267.56 941.53,-269.29 944.89,-275.43"/>
</g>
<!-- Node41 -->
<g id="node41" class="node">
<title>Node41</title>
<g id="a_node41"><a xlink:href="get__block__hash_8hpp.html" target="_top" xlink:title=" ">
<polygon fill="white" stroke="#666666" points="844,-459 713,-459 713,-429 844,-429 844,-459"/>
<text text-anchor="start" x="721" y="-447" font-family="Helvetica,sans-Serif" font-size="10.00">api/service/chain/requests</text>
<text text-anchor="middle" x="778.5" y="-436" font-family="Helvetica,sans-Serif" font-size="10.00">/get_block_hash.hpp</text>
</a>
</g>
</g>
<!-- Node1&#45;&gt;Node41 -->
<g id="edge55" class="edge">
<title>Node1&#45;&gt;Node41</title>
<path fill="none" stroke="#63b8ff" d="M815.07,-494.8C809.35,-487.01 802.11,-477.16 795.59,-468.28"/>
<polygon fill="#63b8ff" stroke="#63b8ff" points="798.54,-466.37 789.8,-460.38 792.9,-470.52 798.54,-466.37"/>
</g>
<!-- Node3 -->
<g id="node3" class="node">
<title>Node3</title>
<g id="a_node3"><a xlink:href="jrpc__processor_8hpp.html" target="_top" xlink:title=" ">
<polygon fill="white" stroke="#666666" points="423,-387.5 290,-387.5 290,-368.5 423,-368.5 423,-387.5"/>
<text text-anchor="middle" x="356.5" y="-375.5" font-family="Helvetica,sans-Serif" font-size="10.00">api/jrpc/jrpc_processor.hpp</text>
</a>
</g>
</g>
<!-- Node2&#45;&gt;Node3 -->
<g id="edge2" class="edge">
<title>Node2&#45;&gt;Node3</title>
<path fill="none" stroke="#63b8ff" d="M412.52,-428.8C401.41,-418.92 386.56,-405.72 374.94,-395.39"/>
<polygon fill="#63b8ff" stroke="#63b8ff" points="377.38,-392.88 367.58,-388.85 372.73,-398.11 377.38,-392.88"/>
</g>
<!-- Node5 -->
<g id="node5" class="node">
<title>Node5</title>
<g id="a_node5"><a xlink:href="jrpc__server__impl_8hpp.html" target="_top" xlink:title=" ">
<polygon fill="white" stroke="#666666" points="233,-393 134,-393 134,-363 233,-363 233,-393"/>
<text text-anchor="start" x="142" y="-381" font-family="Helvetica,sans-Serif" font-size="10.00">api/jrpc/jrpc_server</text>
<text text-anchor="middle" x="183.5" y="-370" font-family="Helvetica,sans-Serif" font-size="10.00">_impl.hpp</text>
</a>
</g>
</g>
<!-- Node2&#45;&gt;Node5 -->
<g id="edge4" class="edge">
<title>Node2&#45;&gt;Node5</title>
<path fill="none" stroke="#63b8ff" d="M373.21,-428.56C334.85,-418.54 283.75,-405.19 244.25,-394.87"/>
<polygon fill="#63b8ff" stroke="#63b8ff" points="245.2,-391.5 234.64,-392.36 243.43,-398.27 245.2,-391.5"/>
</g>
<!-- Node12 -->
<g id="node12" class="node">
<title>Node12</title>
<g id="a_node12"><a xlink:href="chain__api_8hpp.html" target="_top" xlink:title=" ">
<polygon fill="white" stroke="#666666" points="595.5,-393 479.5,-393 479.5,-363 595.5,-363 595.5,-393"/>
<text text-anchor="start" x="487.5" y="-381" font-family="Helvetica,sans-Serif" font-size="10.00">api/service/chain/chain</text>
<text text-anchor="middle" x="537.5" y="-370" font-family="Helvetica,sans-Serif" font-size="10.00">_api.hpp</text>
</a>
</g>
</g>
<!-- Node2&#45;&gt;Node12 -->
<g id="edge11" class="edge">
<title>Node2&#45;&gt;Node12</title>
<path fill="none" stroke="#63b8ff" d="M452.96,-428.64C467.83,-419.91 487.03,-408.63 503.38,-399.04"/>
<polygon fill="#63b8ff" stroke="#63b8ff" points="504.96,-402.16 511.81,-394.08 501.42,-396.13 504.96,-402.16"/>
</g>
<!-- Node4 -->
<g id="node4" class="node">
<title>Node4</title>
<g id="a_node4"><a xlink:title=" ">
<polygon fill="#e0e0e0" stroke="#999999" points="376.5,-327 260.5,-327 260.5,-308 376.5,-308 376.5,-327"/>
<text text-anchor="middle" x="318.5" y="-315" font-family="Helvetica,sans-Serif" font-size="10.00">boost/noncopyable.hpp</text>
</a>
</g>
</g>
<!-- Node3&#45;&gt;Node4 -->
<g id="edge3" class="edge">
<title>Node3&#45;&gt;Node4</title>
<path fill="none" stroke="#63b8ff" d="M350.89,-368.37C345.5,-360.07 337.19,-347.28 330.34,-336.72"/>
<polygon fill="#63b8ff" stroke="#63b8ff" points="333.34,-334.92 324.95,-328.44 327.47,-338.73 333.34,-334.92"/>
</g>
<!-- Node6 -->
<g id="node6" class="node">
<title>Node6</title>
<g id="a_node6"><a xlink:title=" ">
<polygon fill="#e0e0e0" stroke="#999999" points="107,-327 0,-327 0,-308 107,-308 107,-327"/>
<text text-anchor="middle" x="53.5" y="-315" font-family="Helvetica,sans-Serif" font-size="10.00">jsonrpc&#45;lean/server.h</text>
</a>
</g>
</g>
<!-- Node5&#45;&gt;Node6 -->
<g id="edge5" class="edge">
<title>Node5&#45;&gt;Node6</title>
<path fill="none" stroke="#63b8ff" d="M151.37,-362.54C130.59,-353.19 103.73,-341.1 83.41,-331.96"/>
<polygon fill="#63b8ff" stroke="#63b8ff" points="85.09,-328.88 74.54,-327.97 82.22,-335.26 85.09,-328.88"/>
</g>
<!-- Node7 -->
<g id="node7" class="node">
<title>Node7</title>
<g id="a_node7"><a xlink:href="jrpc__server_8hpp.html" target="_top" xlink:title=" ">
<polygon fill="white" stroke="#666666" points="242,-327 125,-327 125,-308 242,-308 242,-327"/>
<text text-anchor="middle" x="183.5" y="-315" font-family="Helvetica,sans-Serif" font-size="10.00">api/jrpc/jrpc_server.hpp</text>
</a>
</g>
</g>
<!-- Node5&#45;&gt;Node7 -->
<g id="edge6" class="edge">
<title>Node5&#45;&gt;Node7</title>
<path fill="none" stroke="#63b8ff" d="M183.5,-362.54C183.5,-355.34 183.5,-346.53 183.5,-338.68"/>
<polygon fill="#63b8ff" stroke="#63b8ff" points="187,-338.69 183.5,-328.69 180,-338.69 187,-338.69"/>
</g>
<!-- Node8 -->
<g id="node8" class="node">
<title>Node8</title>
<g id="a_node8"><a xlink:title=" ">
<polygon fill="#e0e0e0" stroke="#999999" points="463,-266.5 338,-266.5 338,-247.5 463,-247.5 463,-266.5"/>
<text text-anchor="middle" x="400.5" y="-254.5" font-family="Helvetica,sans-Serif" font-size="10.00">jsonrpc&#45;lean/dispatcher.h</text>
</a>
</g>
</g>
<!-- Node7&#45;&gt;Node8 -->
<g id="edge7" class="edge">
<title>Node7&#45;&gt;Node8</title>
<path fill="none" stroke="#63b8ff" d="M216.46,-307.62C253.82,-297.54 314.9,-281.08 356.36,-269.9"/>
<polygon fill="#63b8ff" stroke="#63b8ff" points="357.03,-273.34 365.77,-267.36 355.2,-266.59 357.03,-273.34"/>
</g>
<!-- Node9 -->
<g id="node9" class="node">
<title>Node9</title>
<g id="a_node9"><a xlink:title=" ">
<polygon fill="#e0e0e0" stroke="#999999" points="243,-266.5 124,-266.5 124,-247.5 243,-247.5 243,-266.5"/>
<text text-anchor="middle" x="183.5" y="-254.5" font-family="Helvetica,sans-Serif" font-size="10.00">jsonrpc&#45;lean/response.h</text>
</a>
</g>
</g>
<!-- Node7&#45;&gt;Node9 -->
<g id="edge8" class="edge">
<title>Node7&#45;&gt;Node9</title>
<path fill="none" stroke="#63b8ff" d="M183.5,-307.87C183.5,-300 183.5,-288.1 183.5,-277.89"/>
<polygon fill="#63b8ff" stroke="#63b8ff" points="187,-278.18 183.5,-268.18 180,-278.18 187,-278.18"/>
</g>
<!-- Node10 -->
<g id="node10" class="node">
<title>Node10</title>
<g id="a_node10"><a xlink:title=" ">
<polygon fill="#e0e0e0" stroke="#999999" points="484,-206 381,-206 381,-187 484,-187 484,-206"/>
<text text-anchor="middle" x="432.5" y="-194" font-family="Helvetica,sans-Serif" font-size="10.00">jsonrpc&#45;lean/value.h</text>
</a>
</g>
</g>
<!-- Node7&#45;&gt;Node10 -->
<g id="edge9" class="edge">
<title>Node7&#45;&gt;Node10</title>
<path fill="none" stroke="#63b8ff" d="M199.84,-307.63C226.49,-293.26 281.12,-264.28 328.5,-242 352.15,-230.88 379.32,-219.3 399.95,-210.73"/>
<polygon fill="#63b8ff" stroke="#63b8ff" points="401.08,-214.06 408.99,-207.01 398.41,-207.59 401.08,-214.06"/>
</g>
<!-- Node11 -->
<g id="node11" class="node">
<title>Node11</title>
<g id="a_node11"><a xlink:title=" ">
<polygon fill="#e0e0e0" stroke="#999999" points="106,-266.5 47,-266.5 47,-247.5 106,-247.5 106,-266.5"/>
<text text-anchor="middle" x="76.5" y="-254.5" font-family="Helvetica,sans-Serif" font-size="10.00">functional</text>
</a>
</g>
</g>
<!-- Node7&#45;&gt;Node11 -->
<g id="edge10" class="edge">
<title>Node7&#45;&gt;Node11</title>
<path fill="none" stroke="#63b8ff" d="M167.25,-307.62C150.2,-298.29 123.14,-283.5 102.99,-272.49"/>
<polygon fill="#63b8ff" stroke="#63b8ff" points="104.69,-269.42 94.23,-267.69 101.33,-275.56 104.69,-269.42"/>
</g>
<!-- Node13 -->
<g id="node13" class="node">
<title>Node13</title>
<g id="a_node13"><a xlink:title=" ">
<polygon fill="#e0e0e0" stroke="#999999" points="748,-327 657,-327 657,-308 748,-308 748,-327"/>
<text text-anchor="middle" x="702.5" y="-315" font-family="Helvetica,sans-Serif" font-size="10.00">boost/variant.hpp</text>
</a>
</g>
</g>
<!-- Node12&#45;&gt;Node13 -->
<g id="edge12" class="edge">
<title>Node12&#45;&gt;Node13</title>
<path fill="none" stroke="#63b8ff" d="M578.29,-362.54C605.51,-352.89 640.95,-340.32 667.01,-331.08"/>
<polygon fill="#63b8ff" stroke="#63b8ff" points="667.87,-334.49 676.12,-327.85 665.53,-327.89 667.87,-334.49"/>
</g>
<!-- Node14 -->
<g id="node14" class="node">
<title>Node14</title>
<g id="a_node14"><a xlink:href="buffer_8hpp.html" target="_top" xlink:title=" ">
<polygon fill="white" stroke="#666666" points="476,-145.5 393,-145.5 393,-126.5 476,-126.5 476,-145.5"/>
<text text-anchor="middle" x="434.5" y="-133.5" font-family="Helvetica,sans-Serif" font-size="10.00">base/buffer.hpp</text>
</a>
</g>
</g>
<!-- Node12&#45;&gt;Node14 -->
<g id="edge13" class="edge">
<title>Node12&#45;&gt;Node14</title>
<path fill="none" stroke="#63b8ff" d="M528.76,-362.65C523.25,-352.92 516.44,-339.6 512.5,-327 493.76,-267.01 522.67,-242.14 492.5,-187 484.75,-172.83 471.29,-160.84 459.28,-152.16"/>
<polygon fill="#63b8ff" stroke="#63b8ff" points="461.6,-149.51 451.36,-146.78 457.66,-155.3 461.6,-149.51"/>
</g>
<!-- Node20 -->
<g id="node20" class="node">
<title>Node20</title>
<g id="a_node20"><a xlink:href="outcome_8hpp.html" target="_top" xlink:title=" ">
<polygon fill="white" stroke="#666666" points="575,-79.5 462,-79.5 462,-60.5 575,-60.5 575,-79.5"/>
<text text-anchor="middle" x="518.5" y="-67.5" font-family="Helvetica,sans-Serif" font-size="10.00">outcome/outcome.hpp</text>
</a>
</g>
</g>
<!-- Node12&#45;&gt;Node20 -->
<g id="edge21" class="edge">
<title>Node12&#45;&gt;Node20</title>
<path fill="none" stroke="#63b8ff" d="M504.12,-362.54C447.69,-337.78 338.57,-288.33 328.5,-272 298.53,-223.41 329.58,-171.18 383.5,-121 397.2,-108.25 441.09,-93.3 475.15,-83.09"/>
<polygon fill="#63b8ff" stroke="#63b8ff" points="475.75,-86.56 484.35,-80.38 473.77,-79.85 475.75,-86.56"/>
</g>
<!-- Node22 -->
<g id="node22" class="node">
<title>Node22</title>
<g id="a_node22"><a xlink:href="src_2primitives_2common_8hpp.html" target="_top" xlink:title=" ">
<polygon fill="white" stroke="#666666" points="639,-327 522,-327 522,-308 639,-308 639,-327"/>
<text text-anchor="middle" x="580.5" y="-315" font-family="Helvetica,sans-Serif" font-size="10.00">primitives/common.hpp</text>
</a>
</g>
</g>
<!-- Node12&#45;&gt;Node22 -->
<g id="edge22" class="edge">
<title>Node12&#45;&gt;Node22</title>
<path fill="none" stroke="#63b8ff" d="M548.13,-362.54C553.93,-354.65 561.16,-344.81 567.32,-336.44"/>
<polygon fill="#63b8ff" stroke="#63b8ff" points="570.12,-338.53 573.23,-328.39 564.48,-334.38 570.12,-338.53"/>
</g>
<!-- Node15 -->
<g id="node15" class="node">
<title>Node15</title>
<g id="a_node15"><a xlink:title=" ">
<polygon fill="#e0e0e0" stroke="#999999" points="659.5,-79.5 593.5,-79.5 593.5,-60.5 659.5,-60.5 659.5,-79.5"/>
<text text-anchor="middle" x="626.5" y="-67.5" font-family="Helvetica,sans-Serif" font-size="10.00">string_view</text>
</a>
</g>
</g>
<!-- Node14&#45;&gt;Node15 -->
<g id="edge14" class="edge">
<title>Node14&#45;&gt;Node15</title>
<path fill="none" stroke="#63b8ff" d="M461.2,-126.1C494.49,-115 551.59,-95.97 589.2,-83.43"/>
<polygon fill="#63b8ff" stroke="#63b8ff" points="589.91,-86.89 598.29,-80.4 587.69,-80.25 589.91,-86.89"/>
</g>
<!-- Node16 -->
<g id="node16" class="node">
<title>Node16</title>
<g id="a_node16"><a xlink:title=" ">
<polygon fill="#e0e0e0" stroke="#999999" points="878.5,-79.5 834.5,-79.5 834.5,-60.5 878.5,-60.5 878.5,-79.5"/>
<text text-anchor="middle" x="856.5" y="-67.5" font-family="Helvetica,sans-Serif" font-size="10.00">vector</text>
</a>
</g>
</g>
<!-- Node14&#45;&gt;Node16 -->
<g id="edge15" class="edge">
<title>Node14&#45;&gt;Node16</title>
<path fill="none" stroke="#63b8ff" d="M464.54,-126.03C471.39,-124.19 478.66,-122.39 485.5,-121 550.01,-107.86 744.78,-84.2 823.23,-74.9"/>
<polygon fill="#63b8ff" stroke="#63b8ff" points="823.33,-78.42 832.85,-73.77 822.51,-71.46 823.33,-78.42"/>
</g>
<!-- Node17 -->
<g id="node17" class="node">
<title>Node17</title>
<g id="a_node17"><a xlink:title=" ">
<polygon fill="#e0e0e0" stroke="#999999" points="443.5,-85 333.5,-85 333.5,-55 443.5,-55 443.5,-85"/>
<text text-anchor="start" x="341.5" y="-73" font-family="Helvetica,sans-Serif" font-size="10.00">boost/container_hash</text>
<text text-anchor="middle" x="388.5" y="-62" font-family="Helvetica,sans-Serif" font-size="10.00">/hash.hpp</text>
</a>
</g>
</g>
<!-- Node14&#45;&gt;Node17 -->
<g id="edge16" class="edge">
<title>Node14&#45;&gt;Node17</title>
<path fill="none" stroke="#63b8ff" d="M428.1,-126.1C422.22,-117.92 413.24,-105.42 405.32,-94.4"/>
<polygon fill="#63b8ff" stroke="#63b8ff" points="408.29,-92.54 399.61,-86.46 402.61,-96.63 408.29,-92.54"/>
</g>
<!-- Node18 -->
<g id="node18" class="node">
<title>Node18</title>
<g id="a_node18"><a xlink:title=" ">
<polygon fill="#e0e0e0" stroke="#999999" points="315.5,-79.5 213.5,-79.5 213.5,-60.5 315.5,-60.5 315.5,-79.5"/>
<text text-anchor="middle" x="264.5" y="-67.5" font-family="Helvetica,sans-Serif" font-size="10.00">boost/operators.hpp</text>
</a>
</g>
</g>
<!-- Node14&#45;&gt;Node18 -->
<g id="edge17" class="edge">
<title>Node14&#45;&gt;Node18</title>
<path fill="none" stroke="#63b8ff" d="M410.86,-126.1C381.76,-115.15 332.12,-96.46 298.82,-83.92"/>
<polygon fill="#63b8ff" stroke="#63b8ff" points="300.22,-80.71 289.63,-80.46 297.75,-87.26 300.22,-80.71"/>
</g>
<!-- Node19 -->
<g id="node19" class="node">
<title>Node19</title>
<g id="a_node19"><a xlink:title=" ">
<polygon fill="#e0e0e0" stroke="#999999" points="731,-79.5 678,-79.5 678,-60.5 731,-60.5 731,-79.5"/>
<text text-anchor="middle" x="704.5" y="-67.5" font-family="Helvetica,sans-Serif" font-size="10.00">gsl/span</text>
</a>
</g>
</g>
<!-- Node14&#45;&gt;Node19 -->
<g id="edge18" class="edge">
<title>Node14&#45;&gt;Node19</title>
<path fill="none" stroke="#63b8ff" d="M465.69,-126.05C472.22,-124.28 479.06,-122.51 485.5,-121 566.19,-102.02 588.9,-108.11 668.5,-85 669.88,-84.6 671.27,-84.17 672.68,-83.72"/>
<polygon fill="#63b8ff" stroke="#63b8ff" points="673.71,-87.07 681.97,-80.43 671.37,-80.47 673.71,-87.07"/>
</g>
<!-- Node14&#45;&gt;Node20 -->
<g id="edge19" class="edge">
<title>Node14&#45;&gt;Node20</title>
<path fill="none" stroke="#63b8ff" d="M446.18,-126.1C459.6,-115.88 481.85,-98.93 498.13,-86.52"/>
<polygon fill="#63b8ff" stroke="#63b8ff" points="499.88,-89.59 505.72,-80.74 495.64,-84.02 499.88,-89.59"/>
</g>
<!-- Node21 -->
<g id="node21" class="node">
<title>Node21</title>
<g id="a_node21"><a xlink:title=" ">
<polygon fill="#e0e0e0" stroke="#999999" points="589,-19 448,-19 448,0 589,0 589,-19"/>
<text text-anchor="middle" x="518.5" y="-7" font-family="Helvetica,sans-Serif" font-size="10.00">libp2p/outcome/outcome.hpp</text>
</a>
</g>
</g>
<!-- Node20&#45;&gt;Node21 -->
<g id="edge20" class="edge">
<title>Node20&#45;&gt;Node21</title>
<path fill="none" stroke="#63b8ff" d="M518.5,-60.37C518.5,-52.5 518.5,-40.6 518.5,-30.39"/>
<polygon fill="#63b8ff" stroke="#63b8ff" points="522,-30.68 518.5,-20.68 515,-30.68 522,-30.68"/>
</g>
<!-- Node22&#45;&gt;Node18 -->
<g id="edge24" class="edge">
<title>Node22&#45;&gt;Node18</title>
<path fill="none" stroke="#63b8ff" d="M569.64,-307.67C550.67,-292.6 509.87,-261.61 471.5,-242 429.44,-220.5 409.86,-233.56 371.5,-206 327.12,-174.11 291.58,-118.96 274.87,-90"/>
<polygon fill="#63b8ff" stroke="#63b8ff" points="277.92,-88.3 269.98,-81.29 271.82,-91.73 277.92,-88.3"/>
</g>
<!-- Node23 -->
<g id="node23" class="node">
<title>Node23</title>
<g id="a_node23"><a xlink:title=" ">
<polygon fill="#e0e0e0" stroke="#999999" points="603.5,-266.5 557.5,-266.5 557.5,-247.5 603.5,-247.5 603.5,-266.5"/>
<text text-anchor="middle" x="580.5" y="-254.5" font-family="Helvetica,sans-Serif" font-size="10.00">cstdint</text>
</a>
</g>
</g>
<!-- Node22&#45;&gt;Node23 -->
<g id="edge23" class="edge">
<title>Node22&#45;&gt;Node23</title>
<path fill="none" stroke="#63b8ff" d="M580.5,-307.87C580.5,-300 580.5,-288.1 580.5,-277.89"/>
<polygon fill="#63b8ff" stroke="#63b8ff" points="584,-278.18 580.5,-268.18 577,-278.18 584,-278.18"/>
</g>
<!-- Node24 -->
<g id="node24" class="node">
<title>Node24</title>
<g id="a_node24"><a xlink:href="session__key_8hpp.html" target="_top" xlink:title=" ">
<polygon fill="white" stroke="#666666" points="755,-272 660,-272 660,-242 755,-242 755,-272"/>
<text text-anchor="start" x="668" y="-260" font-family="Helvetica,sans-Serif" font-size="10.00">primitives/session</text>
<text text-anchor="middle" x="707.5" y="-249" font-family="Helvetica,sans-Serif" font-size="10.00">_key.hpp</text>
</a>
</g>
</g>
<!-- Node22&#45;&gt;Node24 -->
<g id="edge25" class="edge">
<title>Node22&#45;&gt;Node24</title>
<path fill="none" stroke="#63b8ff" d="M599.79,-307.62C617.28,-299.56 643.66,-287.41 665.93,-277.15"/>
<polygon fill="#63b8ff" stroke="#63b8ff" points="667.16,-280.44 674.78,-273.07 664.23,-274.08 667.16,-280.44"/>
</g>
<!-- Node25 -->
<g id="node25" class="node">
<title>Node25</title>
<g id="a_node25"><a xlink:href="blob_8hpp.html" target="_top" xlink:title=" ">
<polygon fill="white" stroke="#666666" points="793,-206 716,-206 716,-187 793,-187 793,-206"/>
<text text-anchor="middle" x="754.5" y="-194" font-family="Helvetica,sans-Serif" font-size="10.00">base/blob.hpp</text>
</a>
</g>
</g>
<!-- Node24&#45;&gt;Node25 -->
<g id="edge26" class="edge">
<title>Node24&#45;&gt;Node25</title>
<path fill="none" stroke="#63b8ff" d="M719.12,-241.54C725.6,-233.48 733.71,-223.38 740.53,-214.89"/>
<polygon fill="#63b8ff" stroke="#63b8ff" points="743.05,-217.34 746.58,-207.36 737.59,-212.96 743.05,-217.34"/>
</g>
<!-- Node26 -->
<g id="node26" class="node">
<title>Node26</title>
<g id="a_node26"><a xlink:title=" ">
<polygon fill="#e0e0e0" stroke="#999999" points="854.5,-145.5 816.5,-145.5 816.5,-126.5 854.5,-126.5 854.5,-145.5"/>
<text text-anchor="middle" x="835.5" y="-133.5" font-family="Helvetica,sans-Serif" font-size="10.00">array</text>
</a>
</g>
</g>
<!-- Node25&#45;&gt;Node26 -->
<g id="edge27" class="edge">
<title>Node25&#45;&gt;Node26</title>
<path fill="none" stroke="#63b8ff" d="M766.8,-186.62C779.29,-177.6 798.88,-163.45 813.95,-152.56"/>
<polygon fill="#63b8ff" stroke="#63b8ff" points="815.8,-155.55 821.86,-146.85 811.7,-149.87 815.8,-155.55"/>
</g>
<!-- Node27 -->
<g id="node27" class="node">
<title>Node27</title>
<g id="a_node27"><a xlink:title=" ">
<polygon fill="#e0e0e0" stroke="#999999" points="622.5,-145.5 494.5,-145.5 494.5,-126.5 622.5,-126.5 622.5,-145.5"/>
<text text-anchor="middle" x="558.5" y="-133.5" font-family="Helvetica,sans-Serif" font-size="10.00">boost/functional/hash.hpp</text>
</a>
</g>
</g>
<!-- Node25&#45;&gt;Node27 -->
<g id="edge28" class="edge">
<title>Node25&#45;&gt;Node27</title>
<path fill="none" stroke="#63b8ff" d="M724.73,-186.62C691.35,-176.65 636.99,-160.43 599.57,-149.26"/>
<polygon fill="#63b8ff" stroke="#63b8ff" points="600.58,-145.91 590,-146.4 598.58,-152.62 600.58,-145.91"/>
</g>
<!-- Node28 -->
<g id="node28" class="node">
<title>Node28</title>
<g id="a_node28"><a xlink:href="hexutil_8hpp.html" target="_top" xlink:title=" ">
<polygon fill="white" stroke="#666666" points="726.5,-145.5 640.5,-145.5 640.5,-126.5 726.5,-126.5 726.5,-145.5"/>
<text text-anchor="middle" x="683.5" y="-133.5" font-family="Helvetica,sans-Serif" font-size="10.00">base/hexutil.hpp</text>
</a>
</g>
</g>
<!-- Node25&#45;&gt;Node28 -->
<g id="edge29" class="edge">
<title>Node25&#45;&gt;Node28</title>
<path fill="none" stroke="#63b8ff" d="M743.72,-186.62C732.98,-177.77 716.25,-163.98 703.15,-153.19"/>
<polygon fill="#63b8ff" stroke="#63b8ff" points="705.5,-150.59 695.55,-146.93 701.05,-155.99 705.5,-150.59"/>
</g>
<!-- Node29 -->
<g id="node29" class="node">
<title>Node29</title>
<g id="a_node29"><a xlink:title=" ">
<polygon fill="#e0e0e0" stroke="#999999" points="798.5,-145.5 744.5,-145.5 744.5,-126.5 798.5,-126.5 798.5,-145.5"/>
<text text-anchor="middle" x="771.5" y="-133.5" font-family="Helvetica,sans-Serif" font-size="10.00">iostream</text>
</a>
</g>
</g>
<!-- Node25&#45;&gt;Node29 -->
<g id="edge34" class="edge">
<title>Node25&#45;&gt;Node29</title>
<path fill="none" stroke="#63b8ff" d="M757.01,-186.87C759.32,-178.92 762.83,-166.83 765.82,-156.55"/>
<polygon fill="#63b8ff" stroke="#63b8ff" points="769.13,-157.7 768.56,-147.12 762.41,-155.75 769.13,-157.7"/>
</g>
<!-- Node28&#45;&gt;Node15 -->
<g id="edge30" class="edge">
<title>Node28&#45;&gt;Node15</title>
<path fill="none" stroke="#63b8ff" d="M675.57,-126.1C666.9,-116.36 652.77,-100.5 641.9,-88.29"/>
<polygon fill="#63b8ff" stroke="#63b8ff" points="644.63,-86.09 635.36,-80.95 639.4,-90.75 644.63,-86.09"/>
</g>
<!-- Node28&#45;&gt;Node16 -->
<g id="edge31" class="edge">
<title>Node28&#45;&gt;Node16</title>
<path fill="none" stroke="#63b8ff" d="M707.55,-126.1C737.67,-114.96 789.4,-95.82 823.27,-83.29"/>
<polygon fill="#63b8ff" stroke="#63b8ff" points="824.44,-86.59 832.6,-79.84 822.01,-80.03 824.44,-86.59"/>
</g>
<!-- Node28&#45;&gt;Node19 -->
<g id="edge32" class="edge">
<title>Node28&#45;&gt;Node19</title>
<path fill="none" stroke="#63b8ff" d="M686.42,-126.1C689.43,-116.93 694.22,-102.34 698.11,-90.48"/>
<polygon fill="#63b8ff" stroke="#63b8ff" points="701.34,-91.85 701.13,-81.26 694.69,-89.67 701.34,-91.85"/>
</g>
<!-- Node28&#45;&gt;Node20 -->
<g id="edge33" class="edge">
<title>Node28&#45;&gt;Node20</title>
<path fill="none" stroke="#63b8ff" d="M660.56,-126.1C632.44,-115.19 584.55,-96.62 552.24,-84.09"/>
<polygon fill="#63b8ff" stroke="#63b8ff" points="553.51,-80.83 542.92,-80.47 550.98,-87.35 553.51,-80.83"/>
</g>
<!-- Node30&#45;&gt;Node8 -->
<g id="edge36" class="edge">
<title>Node30&#45;&gt;Node8</title>
<path fill="none" stroke="#63b8ff" d="M909.23,-310.21C803.73,-299.38 588.19,-277.26 474.5,-265.59"/>
<polygon fill="#63b8ff" stroke="#63b8ff" points="474.96,-262.12 464.66,-264.58 474.25,-269.09 474.96,-262.12"/>
</g>
<!-- Node31 -->
<g id="node31" class="node">
<title>Node31</title>
<g id="a_node31"><a xlink:title=" ">
<polygon fill="#e0e0e0" stroke="#999999" points="885.5,-266.5 773.5,-266.5 773.5,-247.5 885.5,-247.5 885.5,-266.5"/>
<text text-anchor="middle" x="829.5" y="-254.5" font-family="Helvetica,sans-Serif" font-size="10.00">jsonrpc&#45;lean/request.h</text>
</a>
</g>
</g>
<!-- Node30&#45;&gt;Node31 -->
<g id="edge37" class="edge">
<title>Node30&#45;&gt;Node31</title>
<path fill="none" stroke="#63b8ff" d="M949.09,-307.62C925.79,-297.95 888.31,-282.4 861.52,-271.28"/>
<polygon fill="#63b8ff" stroke="#63b8ff" points="863.09,-268.15 852.51,-267.55 860.41,-274.61 863.09,-268.15"/>
</g>
<!-- Node32 -->
<g id="node32" class="node">
<title>Node32</title>
<g id="a_node32"><a xlink:title=" ">
<polygon fill="#e0e0e0" stroke="#999999" points="1111,-266.5 1060,-266.5 1060,-247.5 1111,-247.5 1111,-266.5"/>
<text text-anchor="middle" x="1085.5" y="-254.5" font-family="Helvetica,sans-Serif" font-size="10.00">memory</text>
</a>
</g>
</g>
<!-- Node30&#45;&gt;Node32 -->
<g id="edge38" class="edge">
<title>Node30&#45;&gt;Node32</title>
<path fill="none" stroke="#63b8ff" d="M987.97,-307.62C1006.46,-298.21 1035.91,-283.22 1057.62,-272.18"/>
<polygon fill="#63b8ff" stroke="#63b8ff" points="1059.19,-275.31 1066.52,-267.65 1056.02,-269.07 1059.19,-275.31"/>
</g>
<!-- Node33 -->
<g id="node33" class="node">
<title>Node33</title>
<g id="a_node33"><a xlink:title=" ">
<polygon fill="#e0e0e0" stroke="#999999" points="1244.5,-145.5 1182.5,-145.5 1182.5,-126.5 1244.5,-126.5 1244.5,-145.5"/>
<text text-anchor="middle" x="1213.5" y="-133.5" font-family="Helvetica,sans-Serif" font-size="10.00">type_traits</text>
</a>
</g>
</g>
<!-- Node30&#45;&gt;Node33 -->
<g id="edge39" class="edge">
<title>Node30&#45;&gt;Node33</title>
<path fill="none" stroke="#63b8ff" d="M1031.95,-307.77C1060.59,-301.4 1093.91,-290.52 1119.5,-272 1161.8,-241.39 1191.62,-185.66 1205.22,-156.29"/>
<polygon fill="#63b8ff" stroke="#63b8ff" points="1208.41,-157.73 1209.28,-147.17 1202.01,-154.87 1208.41,-157.73"/>
</g>
<!-- Node30&#45;&gt;Node34 -->
<g id="edge40" class="edge">
<title>Node30&#45;&gt;Node34</title>
<path fill="none" stroke="#63b8ff" d="M970.8,-307.87C971.06,-300 971.47,-288.1 971.82,-277.89"/>
<polygon fill="#63b8ff" stroke="#63b8ff" points="975.31,-278.29 972.15,-268.18 968.31,-278.05 975.31,-278.29"/>
</g>
<!-- Node34&#45;&gt;Node10 -->
<g id="edge42" class="edge">
<title>Node34&#45;&gt;Node10</title>
<path fill="none" stroke="#63b8ff" d="M925.99,-247.01C915.65,-245.19 904.72,-243.41 894.5,-242 752.45,-222.44 584.65,-208.57 495.54,-201.93"/>
<polygon fill="#63b8ff" stroke="#63b8ff" points="496.02,-198.46 485.79,-201.21 495.5,-205.44 496.02,-198.46"/>
</g>
<!-- Node34&#45;&gt;Node16 -->
<g id="edge41" class="edge">
<title>Node34&#45;&gt;Node16</title>
<path fill="none" stroke="#63b8ff" d="M972.63,-247.04C972.53,-223.71 969.25,-160.16 938.5,-121 925.62,-104.6 905.76,-92.29 888.81,-83.99"/>
<polygon fill="#63b8ff" stroke="#63b8ff" points="890.64,-80.98 880.1,-79.97 887.71,-87.34 890.64,-80.98"/>
</g>
<!-- Node34&#45;&gt;Node25 -->
<g id="edge43" class="edge">
<title>Node34&#45;&gt;Node25</title>
<path fill="none" stroke="#63b8ff" d="M939.39,-247.12C901.86,-237.04 840.49,-220.58 798.85,-209.4"/>
<polygon fill="#63b8ff" stroke="#63b8ff" points="799.95,-206.07 789.38,-206.86 798.13,-212.83 799.95,-206.07"/>
</g>
<!-- Node35 -->
<g id="node35" class="node">
<title>Node35</title>
<g id="a_node35"><a xlink:href="visitor_8hpp.html" target="_top" xlink:title=" ">
<polygon fill="white" stroke="#666666" points="1122,-206 1037,-206 1037,-187 1122,-187 1122,-206"/>
<text text-anchor="middle" x="1079.5" y="-194" font-family="Helvetica,sans-Serif" font-size="10.00">base/visitor.hpp</text>
</a>
</g>
</g>
<!-- Node34&#45;&gt;Node35 -->
<g id="edge44" class="edge">
<title>Node34&#45;&gt;Node35</title>
<path fill="none" stroke="#63b8ff" d="M988.75,-247.12C1005.8,-237.79 1032.86,-223 1053.01,-211.99"/>
<polygon fill="#63b8ff" stroke="#63b8ff" points="1054.67,-215.06 1061.77,-207.19 1051.31,-208.92 1054.67,-215.06"/>
</g>
<!-- Node38 -->
<g id="node38" class="node">
<title>Node38</title>
<g id="a_node38"><a xlink:href="extrinsic_8hpp.html" target="_top" xlink:title=" ">
<polygon fill="white" stroke="#666666" points="689.5,-206 573.5,-206 573.5,-187 689.5,-187 689.5,-206"/>
<text text-anchor="middle" x="631.5" y="-194" font-family="Helvetica,sans-Serif" font-size="10.00">primitives/extrinsic.hpp</text>
</a>
</g>
</g>
<!-- Node34&#45;&gt;Node38 -->
<g id="edge48" class="edge">
<title>Node34&#45;&gt;Node38</title>
<path fill="none" stroke="#63b8ff" d="M923,-247.04C913.54,-245.35 903.72,-243.61 894.5,-242 827.13,-230.26 749.98,-217.25 696.74,-208.35"/>
<polygon fill="#63b8ff" stroke="#63b8ff" points="697.36,-204.91 686.92,-206.71 696.2,-211.81 697.36,-204.91"/>
</g>
<!-- Node39 -->
<g id="node39" class="node">
<title>Node39</title>
<g id="a_node39"><a xlink:href="primitives_2version_8hpp.html" target="_top" xlink:title=" ">
<polygon fill="white" stroke="#666666" points="951,-206 840,-206 840,-187 951,-187 951,-206"/>
<text text-anchor="middle" x="895.5" y="-194" font-family="Helvetica,sans-Serif" font-size="10.00">primitives/version.hpp</text>
</a>
</g>
</g>
<!-- Node34&#45;&gt;Node39 -->
<g id="edge50" class="edge">
<title>Node34&#45;&gt;Node39</title>
<path fill="none" stroke="#63b8ff" d="M960.81,-247.12C949.05,-238.18 930.66,-224.22 916.39,-213.37"/>
<polygon fill="#63b8ff" stroke="#63b8ff" points="918.59,-210.65 908.51,-207.38 914.36,-216.22 918.59,-210.65"/>
</g>
<!-- Node35&#45;&gt;Node33 -->
<g id="edge45" class="edge">
<title>Node35&#45;&gt;Node33</title>
<path fill="none" stroke="#63b8ff" d="M1099.85,-186.62C1121.89,-176.99 1157.29,-161.54 1182.73,-150.43"/>
<polygon fill="#63b8ff" stroke="#63b8ff" points="1183.81,-153.78 1191.57,-146.57 1181,-147.37 1183.81,-153.78"/>
</g>
<!-- Node36 -->
<g id="node36" class="node">
<title>Node36</title>
<g id="a_node36"><a xlink:title=" ">
<polygon fill="#e0e0e0" stroke="#999999" points="1164,-145.5 1125,-145.5 1125,-126.5 1164,-126.5 1164,-145.5"/>
<text text-anchor="middle" x="1144.5" y="-133.5" font-family="Helvetica,sans-Serif" font-size="10.00">utility</text>
</a>
</g>
</g>
<!-- Node35&#45;&gt;Node36 -->
<g id="edge46" class="edge">
<title>Node35&#45;&gt;Node36</title>
<path fill="none" stroke="#63b8ff" d="M1089.37,-186.62C1099.11,-177.85 1114.22,-164.25 1126.16,-153.5"/>
<polygon fill="#63b8ff" stroke="#63b8ff" points="1128.32,-156.27 1133.41,-146.98 1123.64,-151.07 1128.32,-156.27"/>
</g>
<!-- Node37 -->
<g id="node37" class="node">
<title>Node37</title>
<g id="a_node37"><a xlink:title=" ">
<polygon fill="#e0e0e0" stroke="#999999" points="1106.5,-151 1008.5,-151 1008.5,-121 1106.5,-121 1106.5,-151"/>
<text text-anchor="start" x="1016.5" y="-139" font-family="Helvetica,sans-Serif" font-size="10.00">boost/variant/apply</text>
<text text-anchor="middle" x="1057.5" y="-128" font-family="Helvetica,sans-Serif" font-size="10.00">_visitor.hpp</text>
</a>
</g>
</g>
<!-- Node35&#45;&gt;Node37 -->
<g id="edge47" class="edge">
<title>Node35&#45;&gt;Node37</title>
<path fill="none" stroke="#63b8ff" d="M1076.25,-186.87C1073.77,-180.25 1070.2,-170.78 1066.85,-161.86"/>
<polygon fill="#63b8ff" stroke="#63b8ff" points="1070.14,-160.66 1063.34,-152.53 1063.58,-163.12 1070.14,-160.66"/>
</g>
<!-- Node38&#45;&gt;Node14 -->
<g id="edge49" class="edge">
<title>Node38&#45;&gt;Node14</title>
<path fill="none" stroke="#63b8ff" d="M601.58,-186.62C567.88,-176.61 512.92,-160.29 475.3,-149.12"/>
<polygon fill="#63b8ff" stroke="#63b8ff" points="476.74,-145.89 466.15,-146.4 474.74,-152.6 476.74,-145.89"/>
</g>
<!-- Node39&#45;&gt;Node16 -->
<g id="edge53" class="edge">
<title>Node39&#45;&gt;Node16</title>
<path fill="none" stroke="#63b8ff" d="M903.38,-186.51C914.89,-172.24 933.77,-143.67 922.5,-121 914.83,-105.57 899.87,-93.62 886.12,-85.28"/>
<polygon fill="#63b8ff" stroke="#63b8ff" points="888.21,-82.44 877.78,-80.59 884.78,-88.54 888.21,-82.44"/>
</g>
<!-- Node39&#45;&gt;Node26 -->
<g id="edge51" class="edge">
<title>Node39&#45;&gt;Node26</title>
<path fill="none" stroke="#63b8ff" d="M886.39,-186.62C877.49,-177.94 863.72,-164.52 852.75,-153.82"/>
<polygon fill="#63b8ff" stroke="#63b8ff" points="855.39,-151.5 845.78,-147.03 850.5,-156.51 855.39,-151.5"/>
</g>
<!-- Node40 -->
<g id="node40" class="node">
<title>Node40</title>
<g id="a_node40"><a xlink:title=" ">
<polygon fill="#e0e0e0" stroke="#999999" points="914,-145.5 873,-145.5 873,-126.5 914,-126.5 914,-145.5"/>
<text text-anchor="middle" x="893.5" y="-133.5" font-family="Helvetica,sans-Serif" font-size="10.00">string</text>
</a>
</g>
</g>
<!-- Node39&#45;&gt;Node40 -->
<g id="edge52" class="edge">
<title>Node39&#45;&gt;Node40</title>
<path fill="none" stroke="#63b8ff" d="M895.2,-186.87C894.94,-179 894.53,-167.1 894.18,-156.89"/>
<polygon fill="#63b8ff" stroke="#63b8ff" points="897.69,-157.05 893.85,-147.18 890.69,-157.29 897.69,-157.05"/>
</g>
<!-- Node41&#45;&gt;Node12 -->
<g id="edge57" class="edge">
<title>Node41&#45;&gt;Node12</title>
<path fill="none" stroke="#63b8ff" d="M724.11,-428.56C688.1,-418.99 640.68,-406.4 602.65,-396.3"/>
<polygon fill="#63b8ff" stroke="#63b8ff" points="603.71,-392.96 593.15,-393.78 601.92,-399.73 603.71,-392.96"/>
</g>
<!-- Node41&#45;&gt;Node31 -->
<g id="edge56" class="edge">
<title>Node41&#45;&gt;Node31</title>
<path fill="none" stroke="#63b8ff" d="M782.42,-428.79C791.43,-396.1 813.65,-315.51 824.01,-277.91"/>
<polygon fill="#63b8ff" stroke="#63b8ff" points="827.35,-278.97 826.63,-268.4 820.6,-277.11 827.35,-278.97"/>
</g>
<!-- Node41&#45;&gt;Node38 -->
<g id="edge58" class="edge">
<title>Node41&#45;&gt;Node38</title>
<path fill="none" stroke="#63b8ff" d="M780.54,-428.85C783.58,-401.95 786.11,-342.98 756.5,-308 724.35,-270.03 684.29,-308.52 650.5,-272 636.78,-257.17 632.64,-233.82 631.55,-217.22"/>
<polygon fill="#63b8ff" stroke="#63b8ff" points="635.06,-217.49 631.25,-207.6 628.06,-217.71 635.06,-217.49"/>
</g>
</g>
</svg>
        <g id="navigator" transform="translate(0 0)" fill="#404254">
                <rect fill="#f2f5e9" fill-opacity="0.5" stroke="#606060" stroke-width=".5" x="0" y="0" width="60" height="60"/>
                <use id="zoomplus" xlink:href="#zoomPlus" x="17" y="9" onmousedown="handleZoom(evt,'in')"/>
                <use id="zoomminus" xlink:href="#zoomMin" x="42" y="9" onmousedown="handleZoom(evt,'out')"/>
                <use id="reset" xlink:href="#resetDef" x="30" y="36" onmousedown="handleReset()"/>
                <g id="arrowUp" xlink:href="#dirArrow" transform="translate(30 24)" onmousedown="handlePan(0,-1)">
                  <use xlink:href="#rim" fill="#404040">
                        <set attributeName="fill" to="#808080" begin="arrowUp.mouseover" end="arrowUp.mouseout"/>
                  </use>
                  <path fill="none" stroke="white" stroke-width="1.5" d="M0,-3.0v7 M-2.5,-0.5L0,-3.0L2.5,-0.5"/>
                </g>
                <g id="arrowRight" xlink:href="#dirArrow" transform="rotate(90) translate(36 -43)" onmousedown="handlePan(1,0)">
                  <use xlink:href="#rim" fill="#404040">
                        <set attributeName="fill" to="#808080" begin="arrowRight.mouseover" end="arrowRight.mouseout"/>
                  </use>
                  <path fill="none" stroke="white" stroke-width="1.5" d="M0,-3.0v7 M-2.5,-0.5L0,-3.0L2.5,-0.5"/>
                </g>
                <g id="arrowDown" xlink:href="#dirArrow" transform="rotate(180) translate(-30 -48)" onmousedown="handlePan(0,1)">
                  <use xlink:href="#rim" fill="#404040">
                        <set attributeName="fill" to="#808080" begin="arrowDown.mouseover" end="arrowDown.mouseout"/>
                  </use>
                  <path fill="none" stroke="white" stroke-width="1.5" d="M0,-3.0v7 M-2.5,-0.5L0,-3.0L2.5,-0.5"/>
                </g>
                <g id="arrowLeft" xlink:href="#dirArrow" transform="rotate(270) translate(-36 17)" onmousedown="handlePan(-1,0)">
                  <use xlink:href="#rim" fill="#404040">
                        <set attributeName="fill" to="#808080" begin="arrowLeft.mouseover" end="arrowLeft.mouseout"/>
                  </use>
                  <path fill="none" stroke="white" stroke-width="1.5" d="M0,-3.0v7 M-2.5,-0.5L0,-3.0L2.5,-0.5"/>
                </g>
        </g>
        <svg viewBox="0 0 15 15" width="100%" height="30px" preserveAspectRatio="xMaxYMin meet">
         <g id="arrow_out" transform="scale(0.3 0.3)">
          <a xlink:href="chain__jrpc__processor_8cpp__incl_org.svg" target="_base">
           <rect id="button" ry="5" rx="5" y="6" x="6" height="38" width="38"
                fill="#f2f5e9" fill-opacity="0.5" stroke="#606060" stroke-width="1.0"/>
           <path id="arrow"
             d="M 11.500037,31.436501 C 11.940474,20.09759 22.043105,11.32322 32.158766,21.979434 L 37.068811,17.246167 C 37.068811,17.246167 37.088388,32 37.088388,32 L 22.160133,31.978069 C 22.160133,31.978069 26.997745,27.140456 26.997745,27.140456 C 18.528582,18.264221 13.291696,25.230495 11.500037,31.436501 z"
             style="fill:#404040;"/>
          </a>
         </g>
        </svg>
</svg>
