<?xml version="1.0" encoding="UTF-8" standalone="no"?>
<!DOCTYPE svg PUBLIC "-//W3C//DTD SVG 1.1//EN"
 "http://www.w3.org/Graphics/SVG/1.1/DTD/svg11.dtd">
<!-- Generated by graphviz version 7.0.5 (20221223.1930)
 -->
<!-- Title: src/api/service/chain/chain_jrpc_processor.hpp Pages: 1 -->
<svg width="1104pt" height="456pt"
 viewBox="0.00 0.00 1104.00 456.00" xmlns="http://www.w3.org/2000/svg" xmlns:xlink="http://www.w3.org/1999/xlink">
<g id="graph0" class="graph" transform="scale(1 1) rotate(0) translate(4 452)">
<title>src/api/service/chain/chain_jrpc_processor.hpp</title>
<!-- Node1 -->
<g id="node1" class="node">
<title>Node1</title>
<g id="a_node1"><a xlink:title=" ">
<polygon fill="#999999" stroke="#666666" points="417.5,-448 287.5,-448 287.5,-418 417.5,-418 417.5,-448"/>
<text text-anchor="start" x="295.5" y="-436" font-family="Helvetica,sans-Serif" font-size="10.00">src/api/service/chain</text>
<text text-anchor="middle" x="352.5" y="-425" font-family="Helvetica,sans-Serif" font-size="10.00">/chain_jrpc_processor.hpp</text>
</a>
</g>
</g>
<!-- Node2 -->
<g id="node2" class="node">
<title>Node2</title>
<g id="a_node2"><a xlink:href="jrpc__processor_8hpp.html" target="_top" xlink:title=" ">
<polygon fill="white" stroke="#666666" points="285,-376.5 152,-376.5 152,-357.5 285,-357.5 285,-376.5"/>
<text text-anchor="middle" x="218.5" y="-364.5" font-family="Helvetica,sans-Serif" font-size="10.00">api/jrpc/jrpc_processor.hpp</text>
</a>
</g>
</g>
<!-- Node1&#45;&gt;Node2 -->
<g id="edge1" class="edge">
<title>Node1&#45;&gt;Node2</title>
<path fill="none" stroke="#63b8ff" d="M322.43,-417.64C300.01,-406.93 269.58,-392.4 247.44,-381.82"/>
<polygon fill="#63b8ff" stroke="#63b8ff" points="249.21,-378.79 238.68,-377.64 246.2,-385.11 249.21,-378.79"/>
</g>
<!-- Node4 -->
<g id="node4" class="node">
<title>Node4</title>
<g id="a_node4"><a xlink:href="jrpc__server__impl_8hpp.html" target="_top" xlink:title=" ">
<polygon fill="white" stroke="#666666" points="402,-382 303,-382 303,-352 402,-352 402,-382"/>
<text text-anchor="start" x="311" y="-370" font-family="Helvetica,sans-Serif" font-size="10.00">api/jrpc/jrpc_server</text>
<text text-anchor="middle" x="352.5" y="-359" font-family="Helvetica,sans-Serif" font-size="10.00">_impl.hpp</text>
</a>
</g>
</g>
<!-- Node1&#45;&gt;Node4 -->
<g id="edge3" class="edge">
<title>Node1&#45;&gt;Node4</title>
<path fill="none" stroke="#63b8ff" d="M352.5,-417.8C352.5,-410.67 352.5,-401.82 352.5,-393.56"/>
<polygon fill="#63b8ff" stroke="#63b8ff" points="356,-393.68 352.5,-383.68 349,-393.68 356,-393.68"/>
</g>
<!-- Node11 -->
<g id="node11" class="node">
<title>Node11</title>
<g id="a_node11"><a xlink:href="chain__api_8hpp.html" target="_top" xlink:title=" ">
<polygon fill="white" stroke="#666666" points="761.5,-382 645.5,-382 645.5,-352 761.5,-352 761.5,-382"/>
<text text-anchor="start" x="653.5" y="-370" font-family="Helvetica,sans-Serif" font-size="10.00">api/service/chain/chain</text>
<text text-anchor="middle" x="703.5" y="-359" font-family="Helvetica,sans-Serif" font-size="10.00">_api.hpp</text>
</a>
</g>
</g>
<!-- Node1&#45;&gt;Node11 -->
<g id="edge10" class="edge">
<title>Node1&#45;&gt;Node11</title>
<path fill="none" stroke="#63b8ff" d="M417.7,-420.11C479.23,-408.89 571.18,-392.13 634.06,-380.66"/>
<polygon fill="#63b8ff" stroke="#63b8ff" points="634.36,-384.16 643.57,-378.93 633.11,-377.28 634.36,-384.16"/>
</g>
<!-- Node3 -->
<g id="node3" class="node">
<title>Node3</title>
<g id="a_node3"><a xlink:title=" ">
<polygon fill="#e0e0e0" stroke="#999999" points="210.5,-316 94.5,-316 94.5,-297 210.5,-297 210.5,-316"/>
<text text-anchor="middle" x="152.5" y="-304" font-family="Helvetica,sans-Serif" font-size="10.00">boost/noncopyable.hpp</text>
</a>
</g>
</g>
<!-- Node2&#45;&gt;Node3 -->
<g id="edge2" class="edge">
<title>Node2&#45;&gt;Node3</title>
<path fill="none" stroke="#63b8ff" d="M208.48,-357.12C198.59,-348.35 183.24,-334.75 171.12,-324"/>
<polygon fill="#63b8ff" stroke="#63b8ff" points="173.56,-321.49 163.75,-317.47 168.91,-326.72 173.56,-321.49"/>
</g>
<!-- Node5 -->
<g id="node5" class="node">
<title>Node5</title>
<g id="a_node5"><a xlink:title=" ">
<polygon fill="#e0e0e0" stroke="#999999" points="471,-316 364,-316 364,-297 471,-297 471,-316"/>
<text text-anchor="middle" x="417.5" y="-304" font-family="Helvetica,sans-Serif" font-size="10.00">jsonrpc&#45;lean/server.h</text>
</a>
</g>
</g>
<!-- Node4&#45;&gt;Node5 -->
<g id="edge4" class="edge">
<title>Node4&#45;&gt;Node5</title>
<path fill="none" stroke="#63b8ff" d="M368.57,-351.54C377.91,-343.13 389.72,-332.51 399.39,-323.8"/>
<polygon fill="#63b8ff" stroke="#63b8ff" points="401.64,-326.48 406.74,-317.19 396.96,-321.28 401.64,-326.48"/>
</g>
<!-- Node6 -->
<g id="node6" class="node">
<title>Node6</title>
<g id="a_node6"><a xlink:href="jrpc__server_8hpp.html" target="_top" xlink:title=" ">
<polygon fill="white" stroke="#666666" points="346,-316 229,-316 229,-297 346,-297 346,-316"/>
<text text-anchor="middle" x="287.5" y="-304" font-family="Helvetica,sans-Serif" font-size="10.00">api/jrpc/jrpc_server.hpp</text>
</a>
</g>
</g>
<!-- Node4&#45;&gt;Node6 -->
<g id="edge5" class="edge">
<title>Node4&#45;&gt;Node6</title>
<path fill="none" stroke="#63b8ff" d="M336.43,-351.54C327.09,-343.13 315.28,-332.51 305.61,-323.8"/>
<polygon fill="#63b8ff" stroke="#63b8ff" points="308.04,-321.28 298.26,-317.19 303.36,-326.48 308.04,-321.28"/>
</g>
<!-- Node7 -->
<g id="node7" class="node">
<title>Node7</title>
<g id="a_node7"><a xlink:title=" ">
<polygon fill="#e0e0e0" stroke="#999999" points="460,-255.5 335,-255.5 335,-236.5 460,-236.5 460,-255.5"/>
<text text-anchor="middle" x="397.5" y="-243.5" font-family="Helvetica,sans-Serif" font-size="10.00">jsonrpc&#45;lean/dispatcher.h</text>
</a>
</g>
</g>
<!-- Node6&#45;&gt;Node7 -->
<g id="edge6" class="edge">
<title>Node6&#45;&gt;Node7</title>
<path fill="none" stroke="#63b8ff" d="M304.21,-296.62C321.81,-287.25 349.81,-272.36 370.55,-261.33"/>
<polygon fill="#63b8ff" stroke="#63b8ff" points="372.11,-264.46 379.3,-256.68 368.83,-258.28 372.11,-264.46"/>
</g>
<!-- Node8 -->
<g id="node8" class="node">
<title>Node8</title>
<g id="a_node8"><a xlink:title=" ">
<polygon fill="#e0e0e0" stroke="#999999" points="119,-255.5 0,-255.5 0,-236.5 119,-236.5 119,-255.5"/>
<text text-anchor="middle" x="59.5" y="-243.5" font-family="Helvetica,sans-Serif" font-size="10.00">jsonrpc&#45;lean/response.h</text>
</a>
</g>
</g>
<!-- Node6&#45;&gt;Node8 -->
<g id="edge7" class="edge">
<title>Node6&#45;&gt;Node8</title>
<path fill="none" stroke="#63b8ff" d="M252.87,-296.62C213.53,-286.52 149.16,-270.01 105.6,-258.83"/>
<polygon fill="#63b8ff" stroke="#63b8ff" points="106.48,-255.44 95.92,-256.34 104.74,-262.22 106.48,-255.44"/>
</g>
<!-- Node9 -->
<g id="node9" class="node">
<title>Node9</title>
<g id="a_node9"><a xlink:title=" ">
<polygon fill="#e0e0e0" stroke="#999999" points="240,-255.5 137,-255.5 137,-236.5 240,-236.5 240,-255.5"/>
<text text-anchor="middle" x="188.5" y="-243.5" font-family="Helvetica,sans-Serif" font-size="10.00">jsonrpc&#45;lean/value.h</text>
</a>
</g>
</g>
<!-- Node6&#45;&gt;Node9 -->
<g id="edge8" class="edge">
<title>Node6&#45;&gt;Node9</title>
<path fill="none" stroke="#63b8ff" d="M272.46,-296.62C256.84,-287.38 232.11,-272.77 213.53,-261.79"/>
<polygon fill="#63b8ff" stroke="#63b8ff" points="215.37,-258.81 204.98,-256.74 211.81,-264.84 215.37,-258.81"/>
</g>
<!-- Node10 -->
<g id="node10" class="node">
<title>Node10</title>
<g id="a_node10"><a xlink:title=" ">
<polygon fill="#e0e0e0" stroke="#999999" points="317,-255.5 258,-255.5 258,-236.5 317,-236.5 317,-255.5"/>
<text text-anchor="middle" x="287.5" y="-243.5" font-family="Helvetica,sans-Serif" font-size="10.00">functional</text>
</a>
</g>
</g>
<!-- Node6&#45;&gt;Node10 -->
<g id="edge9" class="edge">
<title>Node6&#45;&gt;Node10</title>
<path fill="none" stroke="#63b8ff" d="M287.5,-296.87C287.5,-289 287.5,-277.1 287.5,-266.89"/>
<polygon fill="#63b8ff" stroke="#63b8ff" points="291,-267.18 287.5,-257.18 284,-267.18 291,-267.18"/>
</g>
<!-- Node12 -->
<g id="node12" class="node">
<title>Node12</title>
<g id="a_node12"><a xlink:title=" ">
<polygon fill="#e0e0e0" stroke="#999999" points="749,-316 658,-316 658,-297 749,-297 749,-316"/>
<text text-anchor="middle" x="703.5" y="-304" font-family="Helvetica,sans-Serif" font-size="10.00">boost/variant.hpp</text>
</a>
</g>
</g>
<!-- Node11&#45;&gt;Node12 -->
<g id="edge11" class="edge">
<title>Node11&#45;&gt;Node12</title>
<path fill="none" stroke="#63b8ff" d="M703.5,-351.54C703.5,-344.34 703.5,-335.53 703.5,-327.68"/>
<polygon fill="#63b8ff" stroke="#63b8ff" points="707,-327.69 703.5,-317.69 700,-327.69 707,-327.69"/>
</g>
<!-- Node13 -->
<g id="node13" class="node">
<title>Node13</title>
<g id="a_node13"><a xlink:href="buffer_8hpp.html" target="_top" xlink:title=" ">
<polygon fill="white" stroke="#666666" points="874,-140 791,-140 791,-121 874,-121 874,-140"/>
<text text-anchor="middle" x="832.5" y="-128" font-family="Helvetica,sans-Serif" font-size="10.00">base/buffer.hpp</text>
</a>
</g>
</g>
<!-- Node11&#45;&gt;Node13 -->
<g id="edge12" class="edge">
<title>Node11&#45;&gt;Node13</title>
<path fill="none" stroke="#63b8ff" d="M723.4,-351.6C734.89,-342.46 748.93,-329.78 758.5,-316 795.86,-262.23 818.48,-186.84 827.7,-151.39"/>
<polygon fill="#63b8ff" stroke="#63b8ff" points="831.08,-152.28 830.12,-141.73 824.29,-150.58 831.08,-152.28"/>
</g>
<!-- Node19 -->
<g id="node19" class="node">
<title>Node19</title>
<g id="a_node19"><a xlink:href="outcome_8hpp.html" target="_top" xlink:title=" ">
<polygon fill="white" stroke="#666666" points="1082,-79.5 969,-79.5 969,-60.5 1082,-60.5 1082,-79.5"/>
<text text-anchor="middle" x="1025.5" y="-67.5" font-family="Helvetica,sans-Serif" font-size="10.00">outcome/outcome.hpp</text>
</a>
</g>
</g>
<!-- Node11&#45;&gt;Node19 -->
<g id="edge20" class="edge">
<title>Node11&#45;&gt;Node19</title>
<path fill="none" stroke="#63b8ff" d="M761.83,-356.33C853.13,-339.53 1019.5,-301.45 1019.5,-247 1019.5,-247 1019.5,-247 1019.5,-184.5 1019.5,-151.84 1022.01,-113.97 1023.78,-91.27"/>
<polygon fill="#63b8ff" stroke="#63b8ff" points="1027.27,-91.58 1024.59,-81.33 1020.29,-91.01 1027.27,-91.58"/>
</g>
<!-- Node21 -->
<g id="node21" class="node">
<title>Node21</title>
<g id="a_node21"><a xlink:href="src_2primitives_2common_8hpp.html" target="_top" xlink:title=" ">
<polygon fill="white" stroke="#666666" points="618,-316 501,-316 501,-297 618,-297 618,-316"/>
<text text-anchor="middle" x="559.5" y="-304" font-family="Helvetica,sans-Serif" font-size="10.00">primitives/common.hpp</text>
</a>
</g>
</g>
<!-- Node11&#45;&gt;Node21 -->
<g id="edge21" class="edge">
<title>Node11&#45;&gt;Node21</title>
<path fill="none" stroke="#63b8ff" d="M667.9,-351.54C644.57,-342.06 614.32,-329.77 591.7,-320.58"/>
<polygon fill="#63b8ff" stroke="#63b8ff" points="593.26,-317.44 582.68,-316.92 590.62,-323.92 593.26,-317.44"/>
</g>
<!-- Node14 -->
<g id="node14" class="node">
<title>Node14</title>
<g id="a_node14"><a xlink:title=" ">
<polygon fill="#e0e0e0" stroke="#999999" points="888.5,-79.5 822.5,-79.5 822.5,-60.5 888.5,-60.5 888.5,-79.5"/>
<text text-anchor="middle" x="855.5" y="-67.5" font-family="Helvetica,sans-Serif" font-size="10.00">string_view</text>
</a>
</g>
</g>
<!-- Node13&#45;&gt;Node14 -->
<g id="edge13" class="edge">
<title>Node13&#45;&gt;Node14</title>
<path fill="none" stroke="#63b8ff" d="M835.89,-120.87C839.05,-112.83 843.87,-100.57 847.94,-90.22"/>
<polygon fill="#63b8ff" stroke="#63b8ff" points="851.14,-91.66 851.54,-81.08 844.62,-89.1 851.14,-91.66"/>
</g>
<!-- Node15 -->
<g id="node15" class="node">
<title>Node15</title>
<g id="a_node15"><a xlink:title=" ">
<polygon fill="#e0e0e0" stroke="#999999" points="950.5,-79.5 906.5,-79.5 906.5,-60.5 950.5,-60.5 950.5,-79.5"/>
<text text-anchor="middle" x="928.5" y="-67.5" font-family="Helvetica,sans-Serif" font-size="10.00">vector</text>
</a>
</g>
</g>
<!-- Node13&#45;&gt;Node15 -->
<g id="edge14" class="edge">
<title>Node13&#45;&gt;Node15</title>
<path fill="none" stroke="#63b8ff" d="M847.08,-120.62C862.16,-111.42 885.99,-96.91 903.98,-85.94"/>
<polygon fill="#63b8ff" stroke="#63b8ff" points="905.77,-88.95 912.49,-80.76 902.13,-82.97 905.77,-88.95"/>
</g>
<!-- Node16 -->
<g id="node16" class="node">
<title>Node16</title>
<g id="a_node16"><a xlink:title=" ">
<polygon fill="#e0e0e0" stroke="#999999" points="732.5,-85 622.5,-85 622.5,-55 732.5,-55 732.5,-85"/>
<text text-anchor="start" x="630.5" y="-73" font-family="Helvetica,sans-Serif" font-size="10.00">boost/container_hash</text>
<text text-anchor="middle" x="677.5" y="-62" font-family="Helvetica,sans-Serif" font-size="10.00">/hash.hpp</text>
</a>
</g>
</g>
<!-- Node13&#45;&gt;Node16 -->
<g id="edge15" class="edge">
<title>Node13&#45;&gt;Node16</title>
<path fill="none" stroke="#63b8ff" d="M808.96,-120.62C787.13,-112.38 753.96,-99.86 726.4,-89.45"/>
<polygon fill="#63b8ff" stroke="#63b8ff" points="727.77,-86.23 717.17,-85.97 725.29,-92.78 727.77,-86.23"/>
</g>
<!-- Node17 -->
<g id="node17" class="node">
<title>Node17</title>
<g id="a_node17"><a xlink:title=" ">
<polygon fill="#e0e0e0" stroke="#999999" points="575.5,-79.5 473.5,-79.5 473.5,-60.5 575.5,-60.5 575.5,-79.5"/>
<text text-anchor="middle" x="524.5" y="-67.5" font-family="Helvetica,sans-Serif" font-size="10.00">boost/operators.hpp</text>
</a>
</g>
</g>
<!-- Node13&#45;&gt;Node17 -->
<g id="edge16" class="edge">
<title>Node13&#45;&gt;Node17</title>
<path fill="none" stroke="#63b8ff" d="M790.64,-121.55C737.02,-111.37 643.79,-93.66 583.13,-82.14"/>
<polygon fill="#63b8ff" stroke="#63b8ff" points="583.79,-78.7 573.31,-80.27 582.48,-85.58 583.79,-78.7"/>
</g>
<!-- Node18 -->
<g id="node18" class="node">
<title>Node18</title>
<g id="a_node18"><a xlink:title=" ">
<polygon fill="#e0e0e0" stroke="#999999" points="804,-79.5 751,-79.5 751,-60.5 804,-60.5 804,-79.5"/>
<text text-anchor="middle" x="777.5" y="-67.5" font-family="Helvetica,sans-Serif" font-size="10.00">gsl/span</text>
</a>
</g>
</g>
<!-- Node13&#45;&gt;Node18 -->
<g id="edge17" class="edge">
<title>Node13&#45;&gt;Node18</title>
<path fill="none" stroke="#63b8ff" d="M824.38,-120.87C816.26,-112.23 803.54,-98.7 793.4,-87.92"/>
<polygon fill="#63b8ff" stroke="#63b8ff" points="796.09,-85.66 786.69,-80.77 790.99,-90.45 796.09,-85.66"/>
</g>
<!-- Node13&#45;&gt;Node19 -->
<g id="edge18" class="edge">
<title>Node13&#45;&gt;Node19</title>
<path fill="none" stroke="#63b8ff" d="M861.81,-120.62C894.69,-110.65 948.21,-94.43 985.06,-83.26"/>
<polygon fill="#63b8ff" stroke="#63b8ff" points="985.91,-86.66 994.46,-80.41 983.88,-79.96 985.91,-86.66"/>
</g>
<!-- Node20 -->
<g id="node20" class="node">
<title>Node20</title>
<g id="a_node20"><a xlink:title=" ">
<polygon fill="#e0e0e0" stroke="#999999" points="1096,-19 955,-19 955,0 1096,0 1096,-19"/>
<text text-anchor="middle" x="1025.5" y="-7" font-family="Helvetica,sans-Serif" font-size="10.00">libp2p/outcome/outcome.hpp</text>
</a>
</g>
</g>
<!-- Node19&#45;&gt;Node20 -->
<g id="edge19" class="edge">
<title>Node19&#45;&gt;Node20</title>
<path fill="none" stroke="#63b8ff" d="M1025.5,-60.37C1025.5,-52.5 1025.5,-40.6 1025.5,-30.39"/>
<polygon fill="#63b8ff" stroke="#63b8ff" points="1029,-30.68 1025.5,-20.68 1022,-30.68 1029,-30.68"/>
</g>
<!-- Node21&#45;&gt;Node17 -->
<g id="edge23" class="edge">
<title>Node21&#45;&gt;Node17</title>
<path fill="none" stroke="#63b8ff" d="M549.19,-296.77C540.23,-288.53 527.75,-275.34 521.5,-261 496.52,-203.67 497.3,-182.69 507.5,-121 509.21,-110.69 512.76,-99.64 516.19,-90.56"/>
<polygon fill="#63b8ff" stroke="#63b8ff" points="519.39,-91.97 519.88,-81.39 512.9,-89.36 519.39,-91.97"/>
</g>
<!-- Node22 -->
<g id="node22" class="node">
<title>Node22</title>
<g id="a_node22"><a xlink:title=" ">
<polygon fill="#e0e0e0" stroke="#999999" points="576.5,-255.5 530.5,-255.5 530.5,-236.5 576.5,-236.5 576.5,-255.5"/>
<text text-anchor="middle" x="553.5" y="-243.5" font-family="Helvetica,sans-Serif" font-size="10.00">cstdint</text>
</a>
</g>
</g>
<!-- Node21&#45;&gt;Node22 -->
<g id="edge22" class="edge">
<title>Node21&#45;&gt;Node22</title>
<path fill="none" stroke="#63b8ff" d="M558.61,-296.87C557.81,-289 556.59,-277.1 555.54,-266.89"/>
<polygon fill="#63b8ff" stroke="#63b8ff" points="559.05,-266.76 554.54,-257.17 552.08,-267.48 559.05,-266.76"/>
</g>
<!-- Node23 -->
<g id="node23" class="node">
<title>Node23</title>
<g id="a_node23"><a xlink:href="session__key_8hpp.html" target="_top" xlink:title=" ">
<polygon fill="white" stroke="#666666" points="690,-261 595,-261 595,-231 690,-231 690,-261"/>
<text text-anchor="start" x="603" y="-249" font-family="Helvetica,sans-Serif" font-size="10.00">primitives/session</text>
<text text-anchor="middle" x="642.5" y="-238" font-family="Helvetica,sans-Serif" font-size="10.00">_key.hpp</text>
</a>
</g>
</g>
<!-- Node21&#45;&gt;Node23 -->
<g id="edge24" class="edge">
<title>Node21&#45;&gt;Node23</title>
<path fill="none" stroke="#63b8ff" d="M572.11,-296.62C582.87,-289.03 598.77,-277.82 612.74,-267.98"/>
<polygon fill="#63b8ff" stroke="#63b8ff" points="614.62,-270.93 620.78,-262.31 610.59,-265.21 614.62,-270.93"/>
</g>
<!-- Node24 -->
<g id="node24" class="node">
<title>Node24</title>
<g id="a_node24"><a xlink:href="blob_8hpp.html" target="_top" xlink:title=" ">
<polygon fill="white" stroke="#666666" points="681,-195 604,-195 604,-176 681,-176 681,-195"/>
<text text-anchor="middle" x="642.5" y="-183" font-family="Helvetica,sans-Serif" font-size="10.00">base/blob.hpp</text>
</a>
</g>
</g>
<!-- Node23&#45;&gt;Node24 -->
<g id="edge25" class="edge">
<title>Node23&#45;&gt;Node24</title>
<path fill="none" stroke="#63b8ff" d="M642.5,-230.54C642.5,-223.34 642.5,-214.53 642.5,-206.68"/>
<polygon fill="#63b8ff" stroke="#63b8ff" points="646,-206.69 642.5,-196.69 639,-206.69 646,-206.69"/>
</g>
<!-- Node25 -->
<g id="node25" class="node">
<title>Node25</title>
<g id="a_node25"><a xlink:title=" ">
<polygon fill="#e0e0e0" stroke="#999999" points="554.5,-140 516.5,-140 516.5,-121 554.5,-121 554.5,-140"/>
<text text-anchor="middle" x="535.5" y="-128" font-family="Helvetica,sans-Serif" font-size="10.00">array</text>
</a>
</g>
</g>
<!-- Node24&#45;&gt;Node25 -->
<g id="edge26" class="edge">
<title>Node24&#45;&gt;Node25</title>
<path fill="none" stroke="#63b8ff" d="M624.35,-175.51C607.72,-167.27 582.86,-154.96 563.65,-145.45"/>
<polygon fill="#63b8ff" stroke="#63b8ff" points="565.25,-142.33 554.74,-141.03 562.15,-148.6 565.25,-142.33"/>
</g>
<!-- Node26 -->
<g id="node26" class="node">
<title>Node26</title>
<g id="a_node26"><a xlink:title=" ">
<polygon fill="#e0e0e0" stroke="#999999" points="700.5,-140 572.5,-140 572.5,-121 700.5,-121 700.5,-140"/>
<text text-anchor="middle" x="636.5" y="-128" font-family="Helvetica,sans-Serif" font-size="10.00">boost/functional/hash.hpp</text>
</a>
</g>
</g>
<!-- Node24&#45;&gt;Node26 -->
<g id="edge27" class="edge">
<title>Node24&#45;&gt;Node26</title>
<path fill="none" stroke="#63b8ff" d="M641.51,-175.75C640.77,-169.19 639.72,-159.95 638.78,-151.6"/>
<polygon fill="#63b8ff" stroke="#63b8ff" points="642.29,-151.49 637.68,-141.95 635.33,-152.28 642.29,-151.49"/>
</g>
<!-- Node27 -->
<g id="node27" class="node">
<title>Node27</title>
<g id="a_node27"><a xlink:href="hexutil_8hpp.html" target="_top" xlink:title=" ">
<polygon fill="white" stroke="#666666" points="978.5,-140 892.5,-140 892.5,-121 978.5,-121 978.5,-140"/>
<text text-anchor="middle" x="935.5" y="-128" font-family="Helvetica,sans-Serif" font-size="10.00">base/hexutil.hpp</text>
</a>
</g>
</g>
<!-- Node24&#45;&gt;Node27 -->
<g id="edge28" class="edge">
<title>Node24&#45;&gt;Node27</title>
<path fill="none" stroke="#63b8ff" d="M681.41,-177.46C732.63,-168.2 822.97,-151.86 880.98,-141.36"/>
<polygon fill="#63b8ff" stroke="#63b8ff" points="881.43,-144.84 890.65,-139.61 880.18,-137.95 881.43,-144.84"/>
</g>
<!-- Node28 -->
<g id="node28" class="node">
<title>Node28</title>
<g id="a_node28"><a xlink:title=" ">
<polygon fill="#e0e0e0" stroke="#999999" points="772.5,-140 718.5,-140 718.5,-121 772.5,-121 772.5,-140"/>
<text text-anchor="middle" x="745.5" y="-128" font-family="Helvetica,sans-Serif" font-size="10.00">iostream</text>
</a>
</g>
</g>
<!-- Node24&#45;&gt;Node28 -->
<g id="edge33" class="edge">
<title>Node24&#45;&gt;Node28</title>
<path fill="none" stroke="#63b8ff" d="M659.97,-175.51C675.9,-167.31 699.69,-155.07 718.14,-145.58"/>
<polygon fill="#63b8ff" stroke="#63b8ff" points="719.65,-148.74 726.94,-141.05 716.45,-142.51 719.65,-148.74"/>
</g>
<!-- Node27&#45;&gt;Node14 -->
<g id="edge29" class="edge">
<title>Node27&#45;&gt;Node14</title>
<path fill="none" stroke="#63b8ff" d="M923.35,-120.62C911.02,-111.6 891.67,-97.45 876.78,-86.56"/>
<polygon fill="#63b8ff" stroke="#63b8ff" points="879.12,-83.94 868.99,-80.86 874.99,-89.59 879.12,-83.94"/>
</g>
<!-- Node27&#45;&gt;Node15 -->
<g id="edge30" class="edge">
<title>Node27&#45;&gt;Node15</title>
<path fill="none" stroke="#63b8ff" d="M934.47,-120.87C933.53,-113 932.1,-101.1 930.88,-90.89"/>
<polygon fill="#63b8ff" stroke="#63b8ff" points="934.38,-90.68 929.72,-81.17 927.43,-91.52 934.38,-90.68"/>
</g>
<!-- Node27&#45;&gt;Node18 -->
<g id="edge31" class="edge">
<title>Node27&#45;&gt;Node18</title>
<path fill="none" stroke="#63b8ff" d="M910.68,-120.62C885.98,-111.74 847.05,-97.64 813.5,-85 812.7,-84.7 811.89,-84.39 811.07,-84.08"/>
<polygon fill="#63b8ff" stroke="#63b8ff" points="812.33,-80.82 801.74,-80.5 809.82,-87.35 812.33,-80.82"/>
</g>
<!-- Node27&#45;&gt;Node19 -->
<g id="edge32" class="edge">
<title>Node27&#45;&gt;Node19</title>
<path fill="none" stroke="#63b8ff" d="M949.17,-120.62C963.31,-111.42 985.64,-96.91 1002.51,-85.94"/>
<polygon fill="#63b8ff" stroke="#63b8ff" points="1003.96,-89.18 1010.43,-80.79 1000.14,-83.31 1003.96,-89.18"/>
</g>
</g>
</svg>
