<?xml version="1.0" encoding="UTF-8" standalone="no"?>
<!DOCTYPE svg PUBLIC "-//W3C//DTD SVG 1.1//EN"
 "http://www.w3.org/Graphics/SVG/1.1/DTD/svg11.dtd">
<!-- Generated by graphviz version 7.0.5 (20221223.1930)
 -->
<!-- Title: sgns::api::state::request::UnsubscribeStorage Pages: 1 -->
<!--zoomable 467 -->
<svg id="main" version="1.1" xmlns="http://www.w3.org/2000/svg" xmlns:xlink="http://www.w3.org/1999/xlink" xml:space="preserve" onload="init(evt)">
<style type="text/css"><![CDATA[
.edge:hover path { stroke: red; }
.edge:hover polygon { stroke: red; fill: red; }
]]></style>
<script type="text/javascript"><![CDATA[
var edges = document.getElementsByTagName('g');
if (edges && edges.length) {
  for (var i=0;i<edges.length;i++) {
    if (edges[i].id.substr(0,4)=='edge') {
      edges[i].setAttribute('class','edge');
    }
  }
}
]]></script>
        <defs>
                <circle id="rim" cx="0" cy="0" r="7"/>
                <circle id="rim2" cx="0" cy="0" r="3.5"/>
                <g id="zoomPlus">
                        <use xlink:href="#rim" fill="#404040">
                                <set attributeName="fill" to="#808080" begin="zoomplus.mouseover" end="zoomplus.mouseout"/>
                        </use>
                        <path d="M-4,0h8M0,-4v8" fill="none" stroke="white" stroke-width="1.5" pointer-events="none"/>
                </g>
                <g id="zoomMin">
                        <use xlink:href="#rim" fill="#404040">
                                <set attributeName="fill" to="#808080" begin="zoomminus.mouseover" end="zoomminus.mouseout"/>
                        </use>
                        <path d="M-4,0h8" fill="none" stroke="white" stroke-width="1.5" pointer-events="none"/>
                </g>
                <g id="dirArrow">
                        <path fill="none" stroke="white" stroke-width="1.5" d="M0,-3.0v7 M-2.5,-0.5L0,-3.0L2.5,-0.5"/>
                </g>
               <g id="resetDef">
                       <use xlink:href="#rim2" fill="#404040">
                               <set attributeName="fill" to="#808080" begin="reset.mouseover" end="reset.mouseout"/>
                       </use>
               </g>
        </defs>

<script type="text/javascript">
var viewWidth = 370;
var viewHeight = 467;
var sectionId = 'dynsection-0';
</script>
<script xlink:href="svgpan.js"/>
<svg id="graph" class="graph">
<g id="viewport">
<title>sgns::api::state::request::UnsubscribeStorage</title>
<!-- Node1 -->
<g id="node1" class="node">
<title>Node1</title>
<g id="a_node1"><a xlink:title=" ">
<polygon fill="#999999" stroke="#666666" points="299,-129 174,-129 174,0 299,0 299,-129"/>
<text text-anchor="start" x="182" y="-117" font-family="Helvetica,sans-Serif" font-size="10.00">{sgns::api::state::request</text>
<text text-anchor="middle" x="236.5" y="-106" font-family="Helvetica,sans-Serif" font-size="10.00">::UnsubscribeStorage</text>
<text text-anchor="start" x="182" y="-95" font-family="Helvetica,sans-Serif" font-size="10.00">||+ UnsubscribeStorage()</text>
<text text-anchor="start" x="182" y="-84" font-family="Helvetica,sans-Serif" font-size="10.00">+ operator=()</text>
<text text-anchor="start" x="182" y="-73" font-family="Helvetica,sans-Serif" font-size="10.00">+ UnsubscribeStorage()</text>
<text text-anchor="start" x="182" y="-62" font-family="Helvetica,sans-Serif" font-size="10.00">+ operator=()</text>
<text text-anchor="start" x="182" y="-51" font-family="Helvetica,sans-Serif" font-size="10.00">+ UnsubscribeStorage()</text>
<text text-anchor="start" x="182" y="-40" font-family="Helvetica,sans-Serif" font-size="10.00">+ ~UnsubscribeStorage()</text>
<text text-anchor="start" x="182" y="-29" font-family="Helvetica,sans-Serif" font-size="10.00">+ init()</text>
<text text-anchor="start" x="182" y="-18" font-family="Helvetica,sans-Serif" font-size="10.00">+ execute()</text>
<text text-anchor="middle" x="236.5" y="-7" font-family="Helvetica,sans-Serif" font-size="10.00">}</text>
</a>
</g>
</g>
<!-- Node2 -->
<g id="node2" class="node">
<title>Node2</title>
<g id="a_node2"><a xlink:title=" ">
<polygon fill="white" stroke="#666666" points="227,-228 114,-228 114,-176 227,-176 227,-228"/>
<text text-anchor="start" x="122" y="-216" font-family="Helvetica,sans-Serif" font-size="10.00">{std::shared_ptr&lt; sgns</text>
<text text-anchor="middle" x="170.5" y="-205" font-family="Helvetica,sans-Serif" font-size="10.00">::api::StateApi &gt;</text>
<text text-anchor="start" x="122" y="-194" font-family="Helvetica,sans-Serif" font-size="10.00">||+ operator&#45;&gt;()</text>
<text text-anchor="middle" x="170.5" y="-183" font-family="Helvetica,sans-Serif" font-size="10.00">}</text>
</a>
</g>
</g>
<!-- Node2&#45;&gt;Node1 -->
<g id="edge1" class="edge">
<title>Node2&#45;&gt;Node1</title>
<path fill="none" stroke="#404040" d="M182.91,-175.51C187.8,-165.48 193.7,-153.38 199.76,-140.93"/>
<polygon fill="none" stroke="#404040" points="199.7,-141.05 198.73,-133.9 204.96,-130.26 205.92,-137.41 199.7,-141.05"/>
<text text-anchor="middle" x="208.5" y="-150" font-family="Helvetica,sans-Serif" font-size="10.00"> &#45;api_</text>
</g>
<!-- Node3 -->
<g id="node3" class="node">
<title>Node3</title>
<g id="a_node3"><a xlink:href="classsgns_1_1api_1_1_state_api.html" target="_top" xlink:title=" ">
<polygon fill="white" stroke="#666666" points="117,-382 0,-382 0,-275 117,-275 117,-382"/>
<text text-anchor="middle" x="58.5" y="-370" font-family="Helvetica,sans-Serif" font-size="10.00">{sgns::api::StateApi</text>
<text text-anchor="start" x="8" y="-359" font-family="Helvetica,sans-Serif" font-size="10.00">||+ ~StateApi()</text>
<text text-anchor="start" x="8" y="-348" font-family="Helvetica,sans-Serif" font-size="10.00">+ setApiService()</text>
<text text-anchor="start" x="8" y="-337" font-family="Helvetica,sans-Serif" font-size="10.00">+ getStorage()</text>
<text text-anchor="start" x="8" y="-326" font-family="Helvetica,sans-Serif" font-size="10.00">+ getStorage()</text>
<text text-anchor="start" x="8" y="-315" font-family="Helvetica,sans-Serif" font-size="10.00">+ getRuntimeVersion()</text>
<text text-anchor="start" x="8" y="-304" font-family="Helvetica,sans-Serif" font-size="10.00">+ subscribeStorage()</text>
<text text-anchor="start" x="8" y="-293" font-family="Helvetica,sans-Serif" font-size="10.00">+ unsubscribeStorage()</text>
<text text-anchor="middle" x="58.5" y="-282" font-family="Helvetica,sans-Serif" font-size="10.00">}</text>
</a>
</g>
</g>
<!-- Node3&#45;&gt;Node2 -->
<g id="edge2" class="edge">
<title>Node3&#45;&gt;Node2</title>
<path fill="none" stroke="#404040" d="M106,-274.7C117.16,-262.3 128.78,-249.38 139.03,-237.98"/>
<polygon fill="none" stroke="#404040" points="139.01,-238 140.05,-230.86 147.04,-229.08 146,-236.21 139.01,-238"/>
<text text-anchor="middle" x="141.5" y="-249" font-family="Helvetica,sans-Serif" font-size="10.00"> +ptr</text>
</g>
<!-- Node4 -->
<g id="node4" class="node">
<title>Node4</title>
<g id="a_node4"><a xlink:title=" ">
<polygon fill="white" stroke="#666666" points="241.5,-349 135.5,-349 135.5,-308 241.5,-308 241.5,-349"/>
<text text-anchor="middle" x="188.5" y="-337" font-family="Helvetica,sans-Serif" font-size="10.00">{std::shared_ptr&lt; T &gt;</text>
<text text-anchor="start" x="143.5" y="-326" font-family="Helvetica,sans-Serif" font-size="10.00">||+ operator&#45;&gt;()</text>
<text text-anchor="middle" x="188.5" y="-315" font-family="Helvetica,sans-Serif" font-size="10.00">}</text>
</a>
</g>
</g>
<!-- Node4&#45;&gt;Node2 -->
<g id="edge3" class="edge">
<title>Node4&#45;&gt;Node2</title>
<path fill="none" stroke="orange" d="M184.02,-296.53C180.98,-275.47 177,-247.95 174.15,-228.23"/>
<polygon fill="orange" stroke="orange" points="180.54,-296.88 185.43,-306.27 187.46,-295.88 180.54,-296.88"/>
<text text-anchor="middle" x="228.5" y="-249" font-family="Helvetica,sans-Serif" font-size="10.00"> &lt; sgns::api::StateApi &gt;</text>
</g>
<!-- Node5 -->
<g id="node5" class="node">
<title>Node5</title>
<g id="a_node5"><a xlink:title=" ">
<polygon fill="white" stroke="#666666" points="260,-459 231,-459 231,-429 260,-429 260,-459"/>
<text text-anchor="middle" x="245.5" y="-447" font-family="Helvetica,sans-Serif" font-size="10.00">{T</text>
<text text-anchor="middle" x="245.5" y="-436" font-family="Helvetica,sans-Serif" font-size="10.00">||}</text>
</a>
</g>
</g>
<!-- Node5&#45;&gt;Node4 -->
<g id="edge4" class="edge">
<title>Node5&#45;&gt;Node4</title>
<path fill="none" stroke="#404040" d="M238.28,-428.63C229.79,-411.71 215.44,-383.14 204.32,-361"/>
<polygon fill="none" stroke="#404040" points="204.32,-361.01 198.06,-357.44 198.94,-350.29 205.21,-353.85 204.32,-361.01"/>
<text text-anchor="middle" x="239.5" y="-403" font-family="Helvetica,sans-Serif" font-size="10.00"> +ptr</text>
</g>
<!-- Node7 -->
<g id="node7" class="node">
<title>Node7</title>
<g id="a_node7"><a xlink:title=" ">
<polygon fill="white" stroke="#666666" points="347,-343.5 260,-343.5 260,-313.5 347,-313.5 347,-343.5"/>
<text text-anchor="middle" x="303.5" y="-331.5" font-family="Helvetica,sans-Serif" font-size="10.00">{std::vector&lt; T &gt;</text>
<text text-anchor="middle" x="303.5" y="-320.5" font-family="Helvetica,sans-Serif" font-size="10.00">||}</text>
</a>
</g>
</g>
<!-- Node5&#45;&gt;Node7 -->
<g id="edge7" class="edge">
<title>Node5&#45;&gt;Node7</title>
<path fill="none" stroke="#404040" d="M252.85,-428.63C262.26,-410.2 278.74,-377.94 290.35,-355.24"/>
<polygon fill="none" stroke="#404040" points="290.34,-355.25 289.51,-348.08 295.8,-344.56 296.64,-351.72 290.34,-355.25"/>
<text text-anchor="middle" x="291" y="-403" font-family="Helvetica,sans-Serif" font-size="10.00"> +elements</text>
</g>
<!-- Node6 -->
<g id="node6" class="node">
<title>Node6</title>
<g id="a_node6"><a xlink:title=" ">
<polygon fill="white" stroke="#666666" points="361.5,-222.5 245.5,-222.5 245.5,-181.5 361.5,-181.5 361.5,-222.5"/>
<text text-anchor="middle" x="303.5" y="-210.5" font-family="Helvetica,sans-Serif" font-size="10.00">{std::vector&lt; uint32_t &gt;</text>
<text text-anchor="start" x="253.5" y="-199.5" font-family="Helvetica,sans-Serif" font-size="10.00">|+ elements</text>
<text text-anchor="middle" x="303.5" y="-188.5" font-family="Helvetica,sans-Serif" font-size="10.00">|}</text>
</a>
</g>
</g>
<!-- Node6&#45;&gt;Node1 -->
<g id="edge5" class="edge">
<title>Node6&#45;&gt;Node1</title>
<path fill="none" stroke="#404040" d="M293.61,-181.01C288.19,-170.04 281.08,-155.67 273.74,-140.81"/>
<polygon fill="none" stroke="#404040" points="273.81,-140.96 267.57,-137.36 268.49,-130.2 274.74,-133.81 273.81,-140.96"/>
<text text-anchor="middle" x="317" y="-150" font-family="Helvetica,sans-Serif" font-size="10.00"> &#45;subscriber_id_</text>
</g>
<!-- Node7&#45;&gt;Node6 -->
<g id="edge6" class="edge">
<title>Node7&#45;&gt;Node6</title>
<path fill="none" stroke="orange" d="M303.5,-301.75C303.5,-278.32 303.5,-244.22 303.5,-222.84"/>
<polygon fill="orange" stroke="orange" points="300,-301.7 303.5,-311.7 307,-301.7 300,-301.7"/>
<text text-anchor="middle" x="330.5" y="-249" font-family="Helvetica,sans-Serif" font-size="10.00"> &lt; uint32_t &gt;</text>
</g>
</g>
</svg>
        <g id="navigator" transform="translate(0 0)" fill="#404254">
                <rect fill="#f2f5e9" fill-opacity="0.5" stroke="#606060" stroke-width=".5" x="0" y="0" width="60" height="60"/>
                <use id="zoomplus" xlink:href="#zoomPlus" x="17" y="9" onmousedown="handleZoom(evt,'in')"/>
                <use id="zoomminus" xlink:href="#zoomMin" x="42" y="9" onmousedown="handleZoom(evt,'out')"/>
                <use id="reset" xlink:href="#resetDef" x="30" y="36" onmousedown="handleReset()"/>
                <g id="arrowUp" xlink:href="#dirArrow" transform="translate(30 24)" onmousedown="handlePan(0,-1)">
                  <use xlink:href="#rim" fill="#404040">
                        <set attributeName="fill" to="#808080" begin="arrowUp.mouseover" end="arrowUp.mouseout"/>
                  </use>
                  <path fill="none" stroke="white" stroke-width="1.5" d="M0,-3.0v7 M-2.5,-0.5L0,-3.0L2.5,-0.5"/>
                </g>
                <g id="arrowRight" xlink:href="#dirArrow" transform="rotate(90) translate(36 -43)" onmousedown="handlePan(1,0)">
                  <use xlink:href="#rim" fill="#404040">
                        <set attributeName="fill" to="#808080" begin="arrowRight.mouseover" end="arrowRight.mouseout"/>
                  </use>
                  <path fill="none" stroke="white" stroke-width="1.5" d="M0,-3.0v7 M-2.5,-0.5L0,-3.0L2.5,-0.5"/>
                </g>
                <g id="arrowDown" xlink:href="#dirArrow" transform="rotate(180) translate(-30 -48)" onmousedown="handlePan(0,1)">
                  <use xlink:href="#rim" fill="#404040">
                        <set attributeName="fill" to="#808080" begin="arrowDown.mouseover" end="arrowDown.mouseout"/>
                  </use>
                  <path fill="none" stroke="white" stroke-width="1.5" d="M0,-3.0v7 M-2.5,-0.5L0,-3.0L2.5,-0.5"/>
                </g>
                <g id="arrowLeft" xlink:href="#dirArrow" transform="rotate(270) translate(-36 17)" onmousedown="handlePan(-1,0)">
                  <use xlink:href="#rim" fill="#404040">
                        <set attributeName="fill" to="#808080" begin="arrowLeft.mouseover" end="arrowLeft.mouseout"/>
                  </use>
                  <path fill="none" stroke="white" stroke-width="1.5" d="M0,-3.0v7 M-2.5,-0.5L0,-3.0L2.5,-0.5"/>
                </g>
        </g>
        <svg viewBox="0 0 15 15" width="100%" height="30px" preserveAspectRatio="xMaxYMin meet">
         <g id="arrow_out" transform="scale(0.3 0.3)">
          <a xlink:href="classsgns_1_1api_1_1state_1_1request_1_1_unsubscribe_storage__coll__graph_org.svg" target="_base">
           <rect id="button" ry="5" rx="5" y="6" x="6" height="38" width="38"
                fill="#f2f5e9" fill-opacity="0.5" stroke="#606060" stroke-width="1.0"/>
           <path id="arrow"
             d="M 11.500037,31.436501 C 11.940474,20.09759 22.043105,11.32322 32.158766,21.979434 L 37.068811,17.246167 C 37.068811,17.246167 37.088388,32 37.088388,32 L 22.160133,31.978069 C 22.160133,31.978069 26.997745,27.140456 26.997745,27.140456 C 18.528582,18.264221 13.291696,25.230495 11.500037,31.436501 z"
             style="fill:#404040;"/>
          </a>
         </g>
        </svg>
</svg>
