<?xml version="1.0" encoding="UTF-8" standalone="no"?>
<!DOCTYPE svg PUBLIC "-//W3C//DTD SVG 1.1//EN"
 "http://www.w3.org/Graphics/SVG/1.1/DTD/svg11.dtd">
<!-- Generated by graphviz version 7.0.5 (20221223.1930)
 -->
<!-- Title: sgns::storage::rocksdb::Batch Pages: 1 -->
<svg width="232pt" height="480pt"
 viewBox="0.00 0.00 231.50 480.00" xmlns="http://www.w3.org/2000/svg" xmlns:xlink="http://www.w3.org/1999/xlink">
<g id="graph0" class="graph" transform="scale(1 1) rotate(0) translate(4 476)">
<title>sgns::storage::rocksdb::Batch</title>
<!-- Node1 -->
<g id="node1" class="node">
<title>Node1</title>
<g id="a_node1"><a xlink:title="Class that is used to implement efficient bulk (batch) modifications of the Map.">
<polygon fill="#999999" stroke="#666666" points="124.5,-129 8.5,-129 8.5,0 124.5,0 124.5,-129"/>
<text text-anchor="start" x="16.5" y="-117" font-family="Helvetica,sans-Serif" font-size="10.00">{sgns::storage::rocksdb</text>
<text text-anchor="middle" x="66.5" y="-106" font-family="Helvetica,sans-Serif" font-size="10.00">::Batch</text>
<text text-anchor="start" x="16.5" y="-95" font-family="Helvetica,sans-Serif" font-size="10.00">|&#45; db_</text>
<text text-anchor="start" x="16.5" y="-84" font-family="Helvetica,sans-Serif" font-size="10.00">&#45; batch_</text>
<text text-anchor="start" x="16.5" y="-73" font-family="Helvetica,sans-Serif" font-size="10.00">|+ Batch()</text>
<text text-anchor="start" x="16.5" y="-62" font-family="Helvetica,sans-Serif" font-size="10.00">+ put()</text>
<text text-anchor="start" x="16.5" y="-51" font-family="Helvetica,sans-Serif" font-size="10.00">+ put()</text>
<text text-anchor="start" x="16.5" y="-40" font-family="Helvetica,sans-Serif" font-size="10.00">+ remove()</text>
<text text-anchor="start" x="16.5" y="-29" font-family="Helvetica,sans-Serif" font-size="10.00">+ commit()</text>
<text text-anchor="start" x="16.5" y="-18" font-family="Helvetica,sans-Serif" font-size="10.00">+ clear()</text>
<text text-anchor="middle" x="66.5" y="-7" font-family="Helvetica,sans-Serif" font-size="10.00">}</text>
</a>
</g>
</g>
<!-- Node2 -->
<g id="node2" class="node">
<title>Node2</title>
<g id="a_node2"><a xlink:href="structsgns_1_1storage_1_1face_1_1_write_batch.html" target="_top" xlink:title=" ">
<polygon fill="white" stroke="#666666" points="102,-218 31,-218 31,-166 102,-166 102,-218"/>
<text text-anchor="middle" x="66.5" y="-206" font-family="Helvetica,sans-Serif" font-size="10.00">{BufferBatch</text>
<text text-anchor="start" x="39" y="-195" font-family="Helvetica,sans-Serif" font-size="10.00">||+ commit()</text>
<text text-anchor="start" x="39" y="-184" font-family="Helvetica,sans-Serif" font-size="10.00">+ clear()</text>
<text text-anchor="middle" x="66.5" y="-173" font-family="Helvetica,sans-Serif" font-size="10.00">}</text>
</a>
</g>
</g>
<!-- Node2&#45;&gt;Node1 -->
<g id="edge1" class="edge">
<title>Node2&#45;&gt;Node1</title>
<path fill="none" stroke="#63b8ff" d="M66.5,-154.25C66.5,-146.37 66.5,-137.83 66.5,-129.27"/>
<polygon fill="none" stroke="#63b8ff" points="63,-154.09 66.5,-164.09 70,-154.09 63,-154.09"/>
</g>
<!-- Node3 -->
<g id="node3" class="node">
<title>Node3</title>
<g id="a_node3"><a xlink:href="structsgns_1_1storage_1_1face_1_1_writeable.html" target="_top" xlink:title="An mixin for modifiable map.">
<polygon fill="white" stroke="#666666" points="101,-350 0,-350 0,-265 101,-265 101,-350"/>
<text text-anchor="start" x="8" y="-338" font-family="Helvetica,sans-Serif" font-size="10.00">{sgns::storage::face</text>
<text text-anchor="middle" x="50.5" y="-327" font-family="Helvetica,sans-Serif" font-size="10.00">::Writeable&lt; K, V &gt;</text>
<text text-anchor="start" x="8" y="-316" font-family="Helvetica,sans-Serif" font-size="10.00">||+ ~Writeable()</text>
<text text-anchor="start" x="8" y="-305" font-family="Helvetica,sans-Serif" font-size="10.00">+ put()</text>
<text text-anchor="start" x="8" y="-294" font-family="Helvetica,sans-Serif" font-size="10.00">+ put()</text>
<text text-anchor="start" x="8" y="-283" font-family="Helvetica,sans-Serif" font-size="10.00">+ remove()</text>
<text text-anchor="middle" x="50.5" y="-272" font-family="Helvetica,sans-Serif" font-size="10.00">}</text>
</a>
</g>
</g>
<!-- Node3&#45;&gt;Node2 -->
<g id="edge2" class="edge">
<title>Node3&#45;&gt;Node2</title>
<path fill="none" stroke="#63b8ff" d="M57.98,-253.44C59.71,-241.19 61.47,-228.71 62.93,-218.3"/>
<polygon fill="none" stroke="#63b8ff" points="54.55,-252.67 56.62,-263.06 61.49,-253.65 54.55,-252.67"/>
</g>
<!-- Node4 -->
<g id="node4" class="node">
<title>Node4</title>
<g id="a_node4"><a xlink:href="structsgns_1_1storage_1_1face_1_1_write_batch.html" target="_top" xlink:title="An abstraction over a storage, which can be used for batch writes.">
<polygon fill="white" stroke="#666666" points="223.5,-339 119.5,-339 119.5,-276 223.5,-276 223.5,-339"/>
<text text-anchor="start" x="127.5" y="-327" font-family="Helvetica,sans-Serif" font-size="10.00">{sgns::storage::face</text>
<text text-anchor="middle" x="171.5" y="-316" font-family="Helvetica,sans-Serif" font-size="10.00">::WriteBatch&lt; K, V &gt;</text>
<text text-anchor="start" x="127.5" y="-305" font-family="Helvetica,sans-Serif" font-size="10.00">||+ commit()</text>
<text text-anchor="start" x="127.5" y="-294" font-family="Helvetica,sans-Serif" font-size="10.00">+ clear()</text>
<text text-anchor="middle" x="171.5" y="-283" font-family="Helvetica,sans-Serif" font-size="10.00">}</text>
</a>
</g>
</g>
<!-- Node4&#45;&gt;Node2 -->
<g id="edge3" class="edge">
<title>Node4&#45;&gt;Node2</title>
<path fill="none" stroke="orange" d="M135.43,-267.51C120.39,-251.25 103.35,-232.83 89.97,-218.37"/>
<polygon fill="orange" stroke="orange" points="132.7,-269.71 142.06,-274.67 137.84,-264.96 132.7,-269.71"/>
<text text-anchor="middle" x="153.5" y="-239" font-family="Helvetica,sans-Serif" font-size="10.00"> &lt; Buffer, Buffer &gt;</text>
</g>
<!-- Node5 -->
<g id="node5" class="node">
<title>Node5</title>
<g id="a_node5"><a xlink:href="structsgns_1_1storage_1_1face_1_1_writeable.html" target="_top" xlink:title="An mixin for modifiable map.">
<polygon fill="white" stroke="#666666" points="222,-472 121,-472 121,-387 222,-387 222,-472"/>
<text text-anchor="start" x="129" y="-460" font-family="Helvetica,sans-Serif" font-size="10.00">{sgns::storage::face</text>
<text text-anchor="middle" x="171.5" y="-449" font-family="Helvetica,sans-Serif" font-size="10.00">::Writeable&lt; K, V &gt;</text>
<text text-anchor="start" x="129" y="-438" font-family="Helvetica,sans-Serif" font-size="10.00">||+ ~Writeable()</text>
<text text-anchor="start" x="129" y="-427" font-family="Helvetica,sans-Serif" font-size="10.00">+ put()</text>
<text text-anchor="start" x="129" y="-416" font-family="Helvetica,sans-Serif" font-size="10.00">+ put()</text>
<text text-anchor="start" x="129" y="-405" font-family="Helvetica,sans-Serif" font-size="10.00">+ remove()</text>
<text text-anchor="middle" x="171.5" y="-394" font-family="Helvetica,sans-Serif" font-size="10.00">}</text>
</a>
</g>
</g>
<!-- Node5&#45;&gt;Node4 -->
<g id="edge4" class="edge">
<title>Node5&#45;&gt;Node4</title>
<path fill="none" stroke="#63b8ff" d="M171.5,-375.37C171.5,-363.03 171.5,-350.29 171.5,-339.29"/>
<polygon fill="none" stroke="#63b8ff" points="168,-375.02 171.5,-385.02 175,-375.02 168,-375.02"/>
</g>
</g>
</svg>
