<?xml version="1.0" encoding="UTF-8" standalone="no"?>
<!DOCTYPE svg PUBLIC "-//W3C//DTD SVG 1.1//EN"
 "http://www.w3.org/Graphics/SVG/1.1/DTD/svg11.dtd">
<!-- Generated by graphviz version 7.0.5 (20221223.1930)
 -->
<!-- Title: sgns::api::WsListenerImpl Pages: 1 -->
<!--zoomable 1044 -->
<svg id="main" version="1.1" xmlns="http://www.w3.org/2000/svg" xmlns:xlink="http://www.w3.org/1999/xlink" xml:space="preserve" onload="init(evt)">
<style type="text/css"><![CDATA[
.edge:hover path { stroke: red; }
.edge:hover polygon { stroke: red; fill: red; }
]]></style>
<script type="text/javascript"><![CDATA[
var edges = document.getElementsByTagName('g');
if (edges && edges.length) {
  for (var i=0;i<edges.length;i++) {
    if (edges[i].id.substr(0,4)=='edge') {
      edges[i].setAttribute('class','edge');
    }
  }
}
]]></script>
        <defs>
                <circle id="rim" cx="0" cy="0" r="7"/>
                <circle id="rim2" cx="0" cy="0" r="3.5"/>
                <g id="zoomPlus">
                        <use xlink:href="#rim" fill="#404040">
                                <set attributeName="fill" to="#808080" begin="zoomplus.mouseover" end="zoomplus.mouseout"/>
                        </use>
                        <path d="M-4,0h8M0,-4v8" fill="none" stroke="white" stroke-width="1.5" pointer-events="none"/>
                </g>
                <g id="zoomMin">
                        <use xlink:href="#rim" fill="#404040">
                                <set attributeName="fill" to="#808080" begin="zoomminus.mouseover" end="zoomminus.mouseout"/>
                        </use>
                        <path d="M-4,0h8" fill="none" stroke="white" stroke-width="1.5" pointer-events="none"/>
                </g>
                <g id="dirArrow">
                        <path fill="none" stroke="white" stroke-width="1.5" d="M0,-3.0v7 M-2.5,-0.5L0,-3.0L2.5,-0.5"/>
                </g>
               <g id="resetDef">
                       <use xlink:href="#rim2" fill="#404040">
                               <set attributeName="fill" to="#808080" begin="reset.mouseover" end="reset.mouseout"/>
                       </use>
               </g>
        </defs>

<script type="text/javascript">
var viewWidth = 1181;
var viewHeight = 1044;
var sectionId = 'dynsection-1';
</script>
<script xlink:href="svgpan.js"/>
<svg id="graph" class="graph">
<g id="viewport">
<title>sgns::api::WsListenerImpl</title>
<!-- Node1 -->
<g id="node1" class="node">
<title>Node1</title>
<g id="a_node1"><a xlink:title="server which listens for incoming connection, accepts connections making session from socket">
<polygon fill="#999999" stroke="#666666" points="627,-118 479,-118 479,0 627,0 627,-118"/>
<text text-anchor="middle" x="553" y="-106" font-family="Helvetica,sans-Serif" font-size="10.00">{sgns::api::WsListenerImpl</text>
<text text-anchor="start" x="487" y="-95" font-family="Helvetica,sans-Serif" font-size="10.00">|&#45; config_</text>
<text text-anchor="start" x="487" y="-84" font-family="Helvetica,sans-Serif" font-size="10.00">|+ WsListenerImpl()</text>
<text text-anchor="start" x="487" y="-73" font-family="Helvetica,sans-Serif" font-size="10.00">+ ~WsListenerImpl()</text>
<text text-anchor="start" x="487" y="-62" font-family="Helvetica,sans-Serif" font-size="10.00">+ prepare()</text>
<text text-anchor="start" x="487" y="-51" font-family="Helvetica,sans-Serif" font-size="10.00">+ start()</text>
<text text-anchor="start" x="487" y="-40" font-family="Helvetica,sans-Serif" font-size="10.00">+ stop()</text>
<text text-anchor="start" x="487" y="-29" font-family="Helvetica,sans-Serif" font-size="10.00">+ setHandlerForNewSession()</text>
<text text-anchor="start" x="487" y="-18" font-family="Helvetica,sans-Serif" font-size="10.00">&#45; acceptOnce()</text>
<text text-anchor="middle" x="553" y="-7" font-family="Helvetica,sans-Serif" font-size="10.00">}</text>
</a>
</g>
</g>
<!-- Node2 -->
<g id="node2" class="node">
<title>Node2</title>
<g id="a_node2"><a xlink:href="classsgns_1_1api_1_1_listener.html" target="_top" xlink:title="server which listens for incoming connection, accepts connections making session from socket">
<polygon fill="white" stroke="#666666" points="148,-261 0,-261 0,-165 148,-165 148,-261"/>
<text text-anchor="middle" x="74" y="-249" font-family="Helvetica,sans-Serif" font-size="10.00">{sgns::api::Listener</text>
<text text-anchor="start" x="8" y="-238" font-family="Helvetica,sans-Serif" font-size="10.00">||+ ~Listener()</text>
<text text-anchor="start" x="8" y="-227" font-family="Helvetica,sans-Serif" font-size="10.00">+ prepare()</text>
<text text-anchor="start" x="8" y="-216" font-family="Helvetica,sans-Serif" font-size="10.00">+ start()</text>
<text text-anchor="start" x="8" y="-205" font-family="Helvetica,sans-Serif" font-size="10.00">+ stop()</text>
<text text-anchor="start" x="8" y="-194" font-family="Helvetica,sans-Serif" font-size="10.00">+ setHandlerForNewSession()</text>
<text text-anchor="start" x="8" y="-183" font-family="Helvetica,sans-Serif" font-size="10.00"># acceptOnce()</text>
<text text-anchor="middle" x="74" y="-172" font-family="Helvetica,sans-Serif" font-size="10.00">}</text>
</a>
</g>
</g>
<!-- Node2&#45;&gt;Node1 -->
<g id="edge1" class="edge">
<title>Node2&#45;&gt;Node1</title>
<path fill="none" stroke="#63b8ff" d="M158.87,-164.49C273.14,-119.04 400.01,-89.66 478.55,-73.79"/>
<polygon fill="none" stroke="#63b8ff" points="157.57,-161.24 149.61,-168.23 160.19,-167.73 157.57,-161.24"/>
</g>
<!-- Node3 -->
<g id="node3" class="node">
<title>Node3</title>
<g id="a_node3"><a xlink:title=" ">
<polygon fill="white" stroke="#666666" points="313.5,-233.5 166.5,-233.5 166.5,-192.5 313.5,-192.5 313.5,-233.5"/>
<text text-anchor="start" x="174.5" y="-221.5" font-family="Helvetica,sans-Serif" font-size="10.00">{std::enable_shared</text>
<text text-anchor="middle" x="240" y="-210.5" font-family="Helvetica,sans-Serif" font-size="10.00">_from_this&lt; WsListenerImpl &gt;</text>
<text text-anchor="middle" x="240" y="-199.5" font-family="Helvetica,sans-Serif" font-size="10.00">||}</text>
</a>
</g>
</g>
<!-- Node3&#45;&gt;Node1 -->
<g id="edge2" class="edge">
<title>Node3&#45;&gt;Node1</title>
<path fill="none" stroke="#63b8ff" d="M266.62,-184.14C283.07,-168.25 305.31,-148.96 328,-136 375.08,-109.1 433.16,-89.79 478.52,-77.36"/>
<polygon fill="none" stroke="#63b8ff" points="264.3,-181.51 259.66,-191.03 269.23,-186.49 264.3,-181.51"/>
</g>
<!-- Node4 -->
<g id="node4" class="node">
<title>Node4</title>
<g id="a_node4"><a xlink:title=" ">
<polygon fill="white" stroke="#666666" points="390.5,-691 257.5,-691 257.5,-639 390.5,-639 390.5,-691"/>
<text text-anchor="middle" x="324" y="-679" font-family="Helvetica,sans-Serif" font-size="10.00">{std::shared_ptr&lt; Context &gt;</text>
<text text-anchor="start" x="265.5" y="-668" font-family="Helvetica,sans-Serif" font-size="10.00">|+ ptr</text>
<text text-anchor="start" x="265.5" y="-657" font-family="Helvetica,sans-Serif" font-size="10.00">|+ operator&#45;&gt;()</text>
<text text-anchor="middle" x="324" y="-646" font-family="Helvetica,sans-Serif" font-size="10.00">}</text>
</a>
</g>
</g>
<!-- Node4&#45;&gt;Node1 -->
<g id="edge3" class="edge">
<title>Node4&#45;&gt;Node1</title>
<path fill="none" stroke="#404040" d="M318.51,-638.78C301.89,-555.08 261.02,-283.48 394,-136 413.54,-114.33 440.6,-98.25 466.86,-86.61"/>
<polygon fill="none" stroke="#404040" points="466.94,-86.58 470.92,-80.56 478,-81.92 474.02,-87.94 466.94,-86.58"/>
<text text-anchor="middle" x="340.5" y="-302.5" font-family="Helvetica,sans-Serif" font-size="10.00"> &#45;context_</text>
</g>
<!-- Node5 -->
<g id="node5" class="node">
<title>Node5</title>
<g id="a_node5"><a xlink:title=" ">
<polygon fill="white" stroke="#666666" points="650,-959 544,-959 544,-918 650,-918 650,-959"/>
<text text-anchor="middle" x="597" y="-947" font-family="Helvetica,sans-Serif" font-size="10.00">{std::shared_ptr&lt; T &gt;</text>
<text text-anchor="start" x="552" y="-936" font-family="Helvetica,sans-Serif" font-size="10.00">||+ operator&#45;&gt;()</text>
<text text-anchor="middle" x="597" y="-925" font-family="Helvetica,sans-Serif" font-size="10.00">}</text>
</a>
</g>
</g>
<!-- Node5&#45;&gt;Node4 -->
<g id="edge4" class="edge">
<title>Node5&#45;&gt;Node4</title>
<path fill="none" stroke="orange" d="M532.78,-929.69C464.92,-919.98 364.51,-900.93 341,-871 299.74,-818.48 309.69,-733.31 318.05,-691.2"/>
<polygon fill="orange" stroke="orange" points="531.9,-933.11 542.29,-931.02 532.87,-926.17 531.9,-933.11"/>
<text text-anchor="middle" x="416" y="-892" font-family="Helvetica,sans-Serif" font-size="10.00"> &lt; Context &gt;</text>
</g>
<!-- Node13 -->
<g id="node13" class="node">
<title>Node13</title>
<g id="a_node13"><a xlink:title=" ">
<polygon fill="white" stroke="#666666" points="609.5,-239 496.5,-239 496.5,-187 609.5,-187 609.5,-239"/>
<text text-anchor="start" x="504.5" y="-227" font-family="Helvetica,sans-Serif" font-size="10.00">{std::shared_ptr&lt; sgns</text>
<text text-anchor="middle" x="553" y="-216" font-family="Helvetica,sans-Serif" font-size="10.00">::api::WsSession &gt;</text>
<text text-anchor="start" x="504.5" y="-205" font-family="Helvetica,sans-Serif" font-size="10.00">||+ operator&#45;&gt;()</text>
<text text-anchor="middle" x="553" y="-194" font-family="Helvetica,sans-Serif" font-size="10.00">}</text>
</a>
</g>
</g>
<!-- Node5&#45;&gt;Node13 -->
<g id="edge22" class="edge">
<title>Node5&#45;&gt;Node13</title>
<path fill="none" stroke="orange" d="M550.89,-911.08C536.45,-900.49 521.96,-886.97 513,-871 473.56,-800.72 495.9,-771.45 491,-691 480.43,-517.41 528.09,-310.59 546.23,-239.48"/>
<polygon fill="orange" stroke="orange" points="548.86,-913.93 559.07,-916.75 552.85,-908.18 548.86,-913.93"/>
<text text-anchor="middle" x="547" y="-662.5" font-family="Helvetica,sans-Serif" font-size="10.00"> &lt; sgns::api::WsSession &gt;</text>
</g>
<!-- Node17 -->
<g id="node17" class="node">
<title>Node17</title>
<g id="a_node17"><a xlink:title=" ">
<polygon fill="white" stroke="#666666" points="944,-821.5 824,-821.5 824,-758.5 944,-758.5 944,-821.5"/>
<text text-anchor="start" x="832" y="-809.5" font-family="Helvetica,sans-Serif" font-size="10.00">{std::shared_ptr&lt; spdlog</text>
<text text-anchor="middle" x="884" y="-798.5" font-family="Helvetica,sans-Serif" font-size="10.00">::logger &gt;</text>
<text text-anchor="start" x="832" y="-787.5" font-family="Helvetica,sans-Serif" font-size="10.00">|+ ptr</text>
<text text-anchor="start" x="832" y="-776.5" font-family="Helvetica,sans-Serif" font-size="10.00">|+ operator&#45;&gt;()</text>
<text text-anchor="middle" x="884" y="-765.5" font-family="Helvetica,sans-Serif" font-size="10.00">}</text>
</a>
</g>
</g>
<!-- Node5&#45;&gt;Node17 -->
<g id="edge21" class="edge">
<title>Node5&#45;&gt;Node17</title>
<path fill="none" stroke="orange" d="M661.56,-927.66C707.23,-918.44 768.4,-901.37 815,-871 834.51,-858.28 851.65,-838.49 863.96,-821.78"/>
<polygon fill="orange" stroke="orange" points="660.94,-924.21 651.78,-929.55 662.27,-931.09 660.94,-924.21"/>
<text text-anchor="middle" x="822.5" y="-892" font-family="Helvetica,sans-Serif" font-size="10.00"> &lt; spdlog::logger &gt;</text>
</g>
<!-- Node6 -->
<g id="node6" class="node">
<title>Node6</title>
<g id="a_node6"><a xlink:title=" ">
<polygon fill="white" stroke="#666666" points="986.5,-1036 957.5,-1036 957.5,-1006 986.5,-1006 986.5,-1036"/>
<text text-anchor="middle" x="972" y="-1024" font-family="Helvetica,sans-Serif" font-size="10.00">{T</text>
<text text-anchor="middle" x="972" y="-1013" font-family="Helvetica,sans-Serif" font-size="10.00">||}</text>
</a>
</g>
</g>
<!-- Node6&#45;&gt;Node5 -->
<g id="edge5" class="edge">
<title>Node6&#45;&gt;Node5</title>
<path fill="none" stroke="#404040" d="M957.3,-1016.84C908.98,-1006.47 753,-972.99 662.9,-953.65"/>
<polygon fill="none" stroke="#404040" points="662.99,-953.67 656.28,-956.32 651.26,-951.15 657.96,-948.5 662.99,-953.67"/>
<text text-anchor="middle" x="829" y="-980" font-family="Helvetica,sans-Serif" font-size="10.00"> +ptr</text>
</g>
<!-- Node9 -->
<g id="node9" class="node">
<title>Node9</title>
<g id="a_node9"><a xlink:title=" ">
<polygon fill="white" stroke="#666666" points="972.5,-505.5 867.5,-505.5 867.5,-464.5 972.5,-464.5 972.5,-505.5"/>
<text text-anchor="middle" x="920" y="-493.5" font-family="Helvetica,sans-Serif" font-size="10.00">{std::unique_ptr&lt; T &gt;</text>
<text text-anchor="start" x="875.5" y="-482.5" font-family="Helvetica,sans-Serif" font-size="10.00">||+ operator&#45;&gt;()</text>
<text text-anchor="middle" x="920" y="-471.5" font-family="Helvetica,sans-Serif" font-size="10.00">}</text>
</a>
</g>
</g>
<!-- Node6&#45;&gt;Node9 -->
<g id="edge9" class="edge">
<title>Node6&#45;&gt;Node9</title>
<path fill="none" stroke="#404040" d="M971.56,-1005.7C970.12,-961.49 964.9,-823.06 953,-709 945.91,-641.03 933.14,-562.04 925.74,-518.68"/>
<polygon fill="none" stroke="#404040" points="925.73,-518.63 920.77,-513.4 923.69,-506.81 928.65,-512.04 925.73,-518.63"/>
<text text-anchor="middle" x="977" y="-892" font-family="Helvetica,sans-Serif" font-size="10.00"> +ptr</text>
</g>
<!-- Node12 -->
<g id="node12" class="node">
<title>Node12</title>
<g id="a_node12"><a xlink:title=" ">
<polygon fill="white" stroke="#666666" points="1095.5,-953.5 1006.5,-953.5 1006.5,-923.5 1095.5,-923.5 1095.5,-953.5"/>
<text text-anchor="middle" x="1051" y="-941.5" font-family="Helvetica,sans-Serif" font-size="10.00">{std::atomic&lt; T &gt;</text>
<text text-anchor="middle" x="1051" y="-930.5" font-family="Helvetica,sans-Serif" font-size="10.00">||}</text>
</a>
</g>
</g>
<!-- Node6&#45;&gt;Node12 -->
<g id="edge14" class="edge">
<title>Node6&#45;&gt;Node12</title>
<path fill="none" stroke="#404040" d="M986.12,-1005.61C997.81,-993.7 1014.63,-976.56 1028.21,-962.72"/>
<polygon fill="none" stroke="#404040" points="1027.96,-962.98 1029.31,-955.89 1036.37,-954.41 1035.02,-961.49 1027.96,-962.98"/>
<text text-anchor="middle" x="1023" y="-980" font-family="Helvetica,sans-Serif" font-size="10.00"> +ptr</text>
</g>
<!-- Node7 -->
<g id="node7" class="node">
<title>Node7</title>
<g id="a_node7"><a xlink:href="structsgns_1_1api_1_1_ws_session_1_1_configuration.html" target="_top" xlink:title=" ">
<polygon fill="white" stroke="#666666" points="466,-832.5 350,-832.5 350,-747.5 466,-747.5 466,-832.5"/>
<text text-anchor="start" x="358" y="-820.5" font-family="Helvetica,sans-Serif" font-size="10.00">{sgns::api::WsSession</text>
<text text-anchor="middle" x="408" y="-809.5" font-family="Helvetica,sans-Serif" font-size="10.00">::Configuration</text>
<text text-anchor="start" x="358" y="-798.5" font-family="Helvetica,sans-Serif" font-size="10.00">|+ max_request_size</text>
<text text-anchor="start" x="358" y="-787.5" font-family="Helvetica,sans-Serif" font-size="10.00">+ operation_timeout</text>
<text text-anchor="start" x="358" y="-776.5" font-family="Helvetica,sans-Serif" font-size="10.00">+ kDefaultRequestSize</text>
<text text-anchor="start" x="358" y="-765.5" font-family="Helvetica,sans-Serif" font-size="10.00">+ kDefaultTimeout</text>
<text text-anchor="middle" x="408" y="-754.5" font-family="Helvetica,sans-Serif" font-size="10.00">|}</text>
</a>
</g>
</g>
<!-- Node7&#45;&gt;Node1 -->
<g id="edge6" class="edge">
<title>Node7&#45;&gt;Node1</title>
<path fill="none" stroke="#404040" d="M407.32,-747.15C406.71,-659.33 409.62,-449.86 446,-279 457.21,-226.34 463.42,-213.41 487,-165 492.75,-153.19 499.51,-141.05 506.47,-129.4"/>
<polygon fill="none" stroke="#404040" points="506.45,-129.42 506.16,-122.22 512.7,-119.18 512.99,-126.39 506.45,-129.42"/>
<text text-anchor="middle" x="484" y="-302.5" font-family="Helvetica,sans-Serif" font-size="10.00"> &#45;session_config_</text>
</g>
<!-- Node14 -->
<g id="node14" class="node">
<title>Node14</title>
<g id="a_node14"><a xlink:href="classsgns_1_1api_1_1_ws_session.html" target="_top" xlink:title=" ">
<polygon fill="white" stroke="#666666" points="737,-621 625,-621 625,-349 737,-349 737,-621"/>
<text text-anchor="middle" x="681" y="-609" font-family="Helvetica,sans-Serif" font-size="10.00">{sgns::api::WsSession</text>
<text text-anchor="start" x="633" y="-598" font-family="Helvetica,sans-Serif" font-size="10.00">|&#45; strand_</text>
<text text-anchor="start" x="633" y="-587" font-family="Helvetica,sans-Serif" font-size="10.00">&#45; socket_</text>
<text text-anchor="start" x="633" y="-576" font-family="Helvetica,sans-Serif" font-size="10.00">&#45; stream_</text>
<text text-anchor="start" x="633" y="-565" font-family="Helvetica,sans-Serif" font-size="10.00">&#45; rbuffer_</text>
<text text-anchor="start" x="633" y="-554" font-family="Helvetica,sans-Serif" font-size="10.00">&#45; wbuffer_</text>
<text text-anchor="start" x="633" y="-543" font-family="Helvetica,sans-Serif" font-size="10.00">&#45; id_</text>
<text text-anchor="start" x="633" y="-532" font-family="Helvetica,sans-Serif" font-size="10.00">|+ ~WsSession()</text>
<text text-anchor="start" x="633" y="-521" font-family="Helvetica,sans-Serif" font-size="10.00">+ WsSession()</text>
<text text-anchor="start" x="633" y="-510" font-family="Helvetica,sans-Serif" font-size="10.00">+ socket()</text>
<text text-anchor="start" x="633" y="-499" font-family="Helvetica,sans-Serif" font-size="10.00">+ start()</text>
<text text-anchor="start" x="633" y="-488" font-family="Helvetica,sans-Serif" font-size="10.00">+ id()</text>
<text text-anchor="start" x="633" y="-477" font-family="Helvetica,sans-Serif" font-size="10.00">+ type()</text>
<text text-anchor="start" x="633" y="-466" font-family="Helvetica,sans-Serif" font-size="10.00">+ respond()</text>
<text text-anchor="start" x="633" y="-455" font-family="Helvetica,sans-Serif" font-size="10.00">&#45; stop()</text>
<text text-anchor="start" x="633" y="-444" font-family="Helvetica,sans-Serif" font-size="10.00">&#45; handleRequest()</text>
<text text-anchor="start" x="633" y="-433" font-family="Helvetica,sans-Serif" font-size="10.00">&#45; asyncRead()</text>
<text text-anchor="start" x="633" y="-422" font-family="Helvetica,sans-Serif" font-size="10.00">&#45; asyncWrite()</text>
<text text-anchor="start" x="633" y="-411" font-family="Helvetica,sans-Serif" font-size="10.00">&#45; onRun()</text>
<text text-anchor="start" x="633" y="-400" font-family="Helvetica,sans-Serif" font-size="10.00">&#45; onAccept()</text>
<text text-anchor="start" x="633" y="-389" font-family="Helvetica,sans-Serif" font-size="10.00">&#45; onRead()</text>
<text text-anchor="start" x="633" y="-378" font-family="Helvetica,sans-Serif" font-size="10.00">&#45; onWrite()</text>
<text text-anchor="start" x="633" y="-367" font-family="Helvetica,sans-Serif" font-size="10.00">&#45; reportError()</text>
<text text-anchor="middle" x="681" y="-356" font-family="Helvetica,sans-Serif" font-size="10.00">}</text>
</a>
</g>
</g>
<!-- Node7&#45;&gt;Node14 -->
<g id="edge19" class="edge">
<title>Node7&#45;&gt;Node14</title>
<path fill="none" stroke="#404040" d="M453.36,-747.12C470.86,-733.03 491.76,-718.49 513,-709 551.84,-691.65 574.65,-718.62 607,-691 607.2,-690.83 616.22,-665.96 627.89,-633.61"/>
<polygon fill="none" stroke="#404040" points="627.93,-633.52 626.2,-626.52 632,-622.23 633.72,-629.23 627.93,-633.52"/>
<text text-anchor="middle" x="644.5" y="-662.5" font-family="Helvetica,sans-Serif" font-size="10.00"> &#45;config_</text>
</g>
<!-- Node8 -->
<g id="node8" class="node">
<title>Node8</title>
<g id="a_node8"><a xlink:title=" ">
<polygon fill="white" stroke="#666666" points="889,-239 751,-239 751,-187 889,-187 889,-239"/>
<text text-anchor="middle" x="820" y="-227" font-family="Helvetica,sans-Serif" font-size="10.00">{std::unique_ptr&lt; Acceptor &gt;</text>
<text text-anchor="start" x="759" y="-216" font-family="Helvetica,sans-Serif" font-size="10.00">|+ ptr</text>
<text text-anchor="start" x="759" y="-205" font-family="Helvetica,sans-Serif" font-size="10.00">|+ operator&#45;&gt;()</text>
<text text-anchor="middle" x="820" y="-194" font-family="Helvetica,sans-Serif" font-size="10.00">}</text>
</a>
</g>
</g>
<!-- Node8&#45;&gt;Node1 -->
<g id="edge7" class="edge">
<title>Node8&#45;&gt;Node1</title>
<path fill="none" stroke="#404040" d="M796.82,-186.6C781.12,-170.52 759.26,-150.16 737,-136 706.87,-116.84 671.1,-100.76 639.14,-88.41"/>
<polygon fill="none" stroke="#404040" points="639.17,-88.42 632.14,-90.04 627.94,-84.17 634.97,-82.55 639.17,-88.42"/>
<text text-anchor="middle" x="777.5" y="-139" font-family="Helvetica,sans-Serif" font-size="10.00"> &#45;acceptor_</text>
</g>
<!-- Node9&#45;&gt;Node8 -->
<g id="edge8" class="edge">
<title>Node9&#45;&gt;Node8</title>
<path fill="none" stroke="orange" d="M901.56,-454.2C883.76,-424.16 857.32,-375.93 842,-331 831.53,-300.29 825.62,-263.24 822.63,-239.18"/>
<polygon fill="orange" stroke="orange" points="898.53,-455.96 906.68,-462.74 904.53,-452.36 898.53,-455.96"/>
<text text-anchor="middle" x="871" y="-302.5" font-family="Helvetica,sans-Serif" font-size="10.00"> &lt; Acceptor &gt;</text>
</g>
<!-- Node10 -->
<g id="node10" class="node">
<title>Node10</title>
<g id="a_node10"><a xlink:title=" ">
<polygon fill="white" stroke="#666666" points="1053,-244.5 907,-244.5 907,-181.5 1053,-181.5 1053,-244.5"/>
<text text-anchor="start" x="915" y="-232.5" font-family="Helvetica,sans-Serif" font-size="10.00">{std::unique_ptr&lt; NewSession</text>
<text text-anchor="middle" x="980" y="-221.5" font-family="Helvetica,sans-Serif" font-size="10.00">Handler &gt;</text>
<text text-anchor="start" x="915" y="-210.5" font-family="Helvetica,sans-Serif" font-size="10.00">|+ ptr</text>
<text text-anchor="start" x="915" y="-199.5" font-family="Helvetica,sans-Serif" font-size="10.00">|+ operator&#45;&gt;()</text>
<text text-anchor="middle" x="980" y="-188.5" font-family="Helvetica,sans-Serif" font-size="10.00">}</text>
</a>
</g>
</g>
<!-- Node9&#45;&gt;Node10 -->
<g id="edge11" class="edge">
<title>Node9&#45;&gt;Node10</title>
<path fill="none" stroke="orange" d="M912.05,-453.14C903,-411.77 892.31,-336.84 916,-279 921.22,-266.25 930.29,-254.66 939.98,-244.91"/>
<polygon fill="orange" stroke="orange" points="908.58,-453.69 914.25,-462.65 915.4,-452.12 908.58,-453.69"/>
<text text-anchor="middle" x="970.5" y="-302.5" font-family="Helvetica,sans-Serif" font-size="10.00"> &lt; NewSessionHandler &gt;</text>
</g>
<!-- Node10&#45;&gt;Node1 -->
<g id="edge10" class="edge">
<title>Node10&#45;&gt;Node1</title>
<path fill="none" stroke="#404040" d="M930.14,-181.16C919.73,-175.37 908.67,-169.67 898,-165 813.07,-127.79 710.93,-98.49 639.93,-80.4"/>
<polygon fill="none" stroke="#404040" points="640,-80.42 633.2,-82.83 628.36,-77.49 635.16,-75.08 640,-80.42"/>
<text text-anchor="middle" x="895" y="-139" font-family="Helvetica,sans-Serif" font-size="10.00"> &#45;on_new_session_</text>
</g>
<!-- Node11 -->
<g id="node11" class="node">
<title>Node11</title>
<g id="a_node11"><a xlink:title=" ">
<polygon fill="white" stroke="#666666" points="1144,-331 1034,-331 1034,-279 1144,-279 1144,-331"/>
<text text-anchor="start" x="1042" y="-319" font-family="Helvetica,sans-Serif" font-size="10.00">{std::atomic&lt; Session</text>
<text text-anchor="middle" x="1089" y="-308" font-family="Helvetica,sans-Serif" font-size="10.00">::SessionId &gt;</text>
<text text-anchor="start" x="1042" y="-297" font-family="Helvetica,sans-Serif" font-size="10.00">|+ ptr</text>
<text text-anchor="middle" x="1089" y="-286" font-family="Helvetica,sans-Serif" font-size="10.00">|}</text>
</a>
</g>
</g>
<!-- Node11&#45;&gt;Node1 -->
<g id="edge12" class="edge">
<title>Node11&#45;&gt;Node1</title>
<path fill="none" stroke="#404040" d="M1091.65,-278.52C1093.37,-247.48 1091.16,-195.45 1062,-165 1005.03,-105.5 770.36,-77.46 640.48,-66.27"/>
<polygon fill="none" stroke="#404040" points="640.33,-66.26 634.02,-69.74 628.38,-65.25 634.69,-61.77 640.33,-66.26"/>
<text text-anchor="middle" x="1132.5" y="-210.5" font-family="Helvetica,sans-Serif" font-size="10.00"> &#45;next_session_id_</text>
</g>
<!-- Node12&#45;&gt;Node11 -->
<g id="edge13" class="edge">
<title>Node12&#45;&gt;Node11</title>
<path fill="none" stroke="orange" d="M1052.55,-911.82C1058.69,-809.72 1081.35,-433.14 1087.47,-331.45"/>
<polygon fill="orange" stroke="orange" points="1049.06,-911.42 1051.96,-921.61 1056.05,-911.84 1049.06,-911.42"/>
<text text-anchor="middle" x="1115.5" y="-787.5" font-family="Helvetica,sans-Serif" font-size="10.00"> &lt; Session::SessionId &gt;</text>
</g>
<!-- Node13&#45;&gt;Node1 -->
<g id="edge15" class="edge">
<title>Node13&#45;&gt;Node1</title>
<path fill="none" stroke="#404040" d="M553,-186.56C553,-171.31 553,-151.08 553,-131.29"/>
<polygon fill="none" stroke="#404040" points="553,-131.3 549,-125.3 553,-119.3 557,-125.3 553,-131.3"/>
<text text-anchor="middle" x="587" y="-139" font-family="Helvetica,sans-Serif" font-size="10.00"> &#45;new_session_</text>
</g>
<!-- Node14&#45;&gt;Node13 -->
<g id="edge16" class="edge">
<title>Node14&#45;&gt;Node13</title>
<path fill="none" stroke="#404040" d="M624.67,-365.18C605.04,-323.77 584.43,-280.31 570.38,-250.66"/>
<polygon fill="none" stroke="#404040" points="570.49,-250.9 564.31,-247.19 565.35,-240.05 571.54,-243.76 570.49,-250.9"/>
<text text-anchor="middle" x="616" y="-302.5" font-family="Helvetica,sans-Serif" font-size="10.00"> +ptr</text>
</g>
<!-- Node15 -->
<g id="node15" class="node">
<title>Node15</title>
<g id="a_node15"><a xlink:href="classsgns_1_1api_1_1_session.html" target="_top" xlink:title="rpc session">
<polygon fill="white" stroke="#666666" points="659.5,-871 522.5,-871 522.5,-709 659.5,-709 659.5,-871"/>
<text text-anchor="middle" x="591" y="-859" font-family="Helvetica,sans-Serif" font-size="10.00">{sgns::api::Session</text>
<text text-anchor="start" x="530.5" y="-848" font-family="Helvetica,sans-Serif" font-size="10.00">|&#45; on_request_</text>
<text text-anchor="start" x="530.5" y="-837" font-family="Helvetica,sans-Serif" font-size="10.00">&#45; on_close_</text>
<text text-anchor="start" x="530.5" y="-826" font-family="Helvetica,sans-Serif" font-size="10.00">|+ ~Session()</text>
<text text-anchor="start" x="530.5" y="-815" font-family="Helvetica,sans-Serif" font-size="10.00">+ start()</text>
<text text-anchor="start" x="530.5" y="-804" font-family="Helvetica,sans-Serif" font-size="10.00">+ socket()</text>
<text text-anchor="start" x="530.5" y="-793" font-family="Helvetica,sans-Serif" font-size="10.00">+ connectOnRequest()</text>
<text text-anchor="start" x="530.5" y="-782" font-family="Helvetica,sans-Serif" font-size="10.00">+ connectOnCloseHandler()</text>
<text text-anchor="start" x="530.5" y="-771" font-family="Helvetica,sans-Serif" font-size="10.00">+ processRequest()</text>
<text text-anchor="start" x="530.5" y="-760" font-family="Helvetica,sans-Serif" font-size="10.00">+ respond()</text>
<text text-anchor="start" x="530.5" y="-749" font-family="Helvetica,sans-Serif" font-size="10.00">+ notifyOnClose()</text>
<text text-anchor="start" x="530.5" y="-738" font-family="Helvetica,sans-Serif" font-size="10.00">+ id()</text>
<text text-anchor="start" x="530.5" y="-727" font-family="Helvetica,sans-Serif" font-size="10.00">+ type()</text>
<text text-anchor="middle" x="591" y="-716" font-family="Helvetica,sans-Serif" font-size="10.00">}</text>
</a>
</g>
</g>
<!-- Node15&#45;&gt;Node14 -->
<g id="edge17" class="edge">
<title>Node15&#45;&gt;Node14</title>
<path fill="none" stroke="#63b8ff" d="M663.89,-698.47C665.01,-696 666.05,-693.5 667,-691 675.32,-669.16 680.29,-645.08 683.1,-621.33"/>
<polygon fill="none" stroke="#63b8ff" points="660.87,-696.67 659.57,-707.19 667.15,-699.78 660.87,-696.67"/>
</g>
<!-- Node16 -->
<g id="node16" class="node">
<title>Node16</title>
<g id="a_node16"><a xlink:title=" ">
<polygon fill="white" stroke="#666666" points="806,-810.5 678,-810.5 678,-769.5 806,-769.5 806,-810.5"/>
<text text-anchor="start" x="686" y="-798.5" font-family="Helvetica,sans-Serif" font-size="10.00">{std::enable_shared</text>
<text text-anchor="middle" x="742" y="-787.5" font-family="Helvetica,sans-Serif" font-size="10.00">_from_this&lt; WsSession &gt;</text>
<text text-anchor="middle" x="742" y="-776.5" font-family="Helvetica,sans-Serif" font-size="10.00">||}</text>
</a>
</g>
</g>
<!-- Node16&#45;&gt;Node14 -->
<g id="edge18" class="edge">
<title>Node16&#45;&gt;Node14</title>
<path fill="none" stroke="#63b8ff" d="M734.77,-758.02C730.35,-738.76 724.66,-713.48 720,-691 715.35,-668.56 710.61,-644.7 706.12,-621.48"/>
<polygon fill="none" stroke="#63b8ff" points="731.34,-758.72 737,-767.67 738.16,-757.14 731.34,-758.72"/>
</g>
<!-- Node17&#45;&gt;Node1 -->
<g id="edge23" class="edge">
<title>Node17&#45;&gt;Node1</title>
<path fill="none" stroke="#404040" d="M877.77,-758.28C856.6,-659.66 779.98,-345.24 625,-136 623.06,-133.38 621.04,-130.75 618.95,-128.14"/>
<polygon fill="none" stroke="#404040" points="618.88,-128.05 611.98,-125.97 611.24,-118.8 618.15,-120.88 618.88,-128.05"/>
<text text-anchor="middle" x="755.5" y="-302.5" font-family="Helvetica,sans-Serif" font-size="10.00"> &#45;logger_</text>
</g>
<!-- Node17&#45;&gt;Node14 -->
<g id="edge20" class="edge">
<title>Node17&#45;&gt;Node14</title>
<path fill="none" stroke="#404040" d="M864.54,-758.16C852.3,-741.22 835.05,-721.22 815,-709 785.73,-691.16 764.78,-714.69 740,-691 734.49,-685.73 726.41,-662.61 717.99,-633.68"/>
<polygon fill="none" stroke="#404040" points="718.03,-633.84 712.54,-629.16 714.75,-622.3 720.24,-626.97 718.03,-633.84"/>
<text text-anchor="middle" x="758.5" y="-662.5" font-family="Helvetica,sans-Serif" font-size="10.00"> &#45;logger_</text>
</g>
</g>
</svg>
        <g id="navigator" transform="translate(0 0)" fill="#404254">
                <rect fill="#f2f5e9" fill-opacity="0.5" stroke="#606060" stroke-width=".5" x="0" y="0" width="60" height="60"/>
                <use id="zoomplus" xlink:href="#zoomPlus" x="17" y="9" onmousedown="handleZoom(evt,'in')"/>
                <use id="zoomminus" xlink:href="#zoomMin" x="42" y="9" onmousedown="handleZoom(evt,'out')"/>
                <use id="reset" xlink:href="#resetDef" x="30" y="36" onmousedown="handleReset()"/>
                <g id="arrowUp" xlink:href="#dirArrow" transform="translate(30 24)" onmousedown="handlePan(0,-1)">
                  <use xlink:href="#rim" fill="#404040">
                        <set attributeName="fill" to="#808080" begin="arrowUp.mouseover" end="arrowUp.mouseout"/>
                  </use>
                  <path fill="none" stroke="white" stroke-width="1.5" d="M0,-3.0v7 M-2.5,-0.5L0,-3.0L2.5,-0.5"/>
                </g>
                <g id="arrowRight" xlink:href="#dirArrow" transform="rotate(90) translate(36 -43)" onmousedown="handlePan(1,0)">
                  <use xlink:href="#rim" fill="#404040">
                        <set attributeName="fill" to="#808080" begin="arrowRight.mouseover" end="arrowRight.mouseout"/>
                  </use>
                  <path fill="none" stroke="white" stroke-width="1.5" d="M0,-3.0v7 M-2.5,-0.5L0,-3.0L2.5,-0.5"/>
                </g>
                <g id="arrowDown" xlink:href="#dirArrow" transform="rotate(180) translate(-30 -48)" onmousedown="handlePan(0,1)">
                  <use xlink:href="#rim" fill="#404040">
                        <set attributeName="fill" to="#808080" begin="arrowDown.mouseover" end="arrowDown.mouseout"/>
                  </use>
                  <path fill="none" stroke="white" stroke-width="1.5" d="M0,-3.0v7 M-2.5,-0.5L0,-3.0L2.5,-0.5"/>
                </g>
                <g id="arrowLeft" xlink:href="#dirArrow" transform="rotate(270) translate(-36 17)" onmousedown="handlePan(-1,0)">
                  <use xlink:href="#rim" fill="#404040">
                        <set attributeName="fill" to="#808080" begin="arrowLeft.mouseover" end="arrowLeft.mouseout"/>
                  </use>
                  <path fill="none" stroke="white" stroke-width="1.5" d="M0,-3.0v7 M-2.5,-0.5L0,-3.0L2.5,-0.5"/>
                </g>
        </g>
        <svg viewBox="0 0 15 15" width="100%" height="30px" preserveAspectRatio="xMaxYMin meet">
         <g id="arrow_out" transform="scale(0.3 0.3)">
          <a xlink:href="classsgns_1_1api_1_1_ws_listener_impl__coll__graph_org.svg" target="_base">
           <rect id="button" ry="5" rx="5" y="6" x="6" height="38" width="38"
                fill="#f2f5e9" fill-opacity="0.5" stroke="#606060" stroke-width="1.0"/>
           <path id="arrow"
             d="M 11.500037,31.436501 C 11.940474,20.09759 22.043105,11.32322 32.158766,21.979434 L 37.068811,17.246167 C 37.068811,17.246167 37.088388,32 37.088388,32 L 22.160133,31.978069 C 22.160133,31.978069 26.997745,27.140456 26.997745,27.140456 C 18.528582,18.264221 13.291696,25.230495 11.500037,31.436501 z"
             style="fill:#404040;"/>
          </a>
         </g>
        </svg>
</svg>
