<?xml version="1.0" encoding="UTF-8" standalone="no"?>
<!DOCTYPE svg PUBLIC "-//W3C//DTD SVG 1.1//EN"
 "http://www.w3.org/Graphics/SVG/1.1/DTD/svg11.dtd">
<!-- Generated by graphviz version 7.0.5 (20221223.1930)
 -->
<!-- Title: sgns::processing::ProcessingEngine Pages: 1 -->
<!--zoomable 489 -->
<svg id="main" version="1.1" xmlns="http://www.w3.org/2000/svg" xmlns:xlink="http://www.w3.org/1999/xlink" xml:space="preserve" onload="init(evt)">
<style type="text/css"><![CDATA[
.edge:hover path { stroke: red; }
.edge:hover polygon { stroke: red; fill: red; }
]]></style>
<script type="text/javascript"><![CDATA[
var edges = document.getElementsByTagName('g');
if (edges && edges.length) {
  for (var i=0;i<edges.length;i++) {
    if (edges[i].id.substr(0,4)=='edge') {
      edges[i].setAttribute('class','edge');
    }
  }
}
]]></script>
        <defs>
                <circle id="rim" cx="0" cy="0" r="7"/>
                <circle id="rim2" cx="0" cy="0" r="3.5"/>
                <g id="zoomPlus">
                        <use xlink:href="#rim" fill="#404040">
                                <set attributeName="fill" to="#808080" begin="zoomplus.mouseover" end="zoomplus.mouseout"/>
                        </use>
                        <path d="M-4,0h8M0,-4v8" fill="none" stroke="white" stroke-width="1.5" pointer-events="none"/>
                </g>
                <g id="zoomMin">
                        <use xlink:href="#rim" fill="#404040">
                                <set attributeName="fill" to="#808080" begin="zoomminus.mouseover" end="zoomminus.mouseout"/>
                        </use>
                        <path d="M-4,0h8" fill="none" stroke="white" stroke-width="1.5" pointer-events="none"/>
                </g>
                <g id="dirArrow">
                        <path fill="none" stroke="white" stroke-width="1.5" d="M0,-3.0v7 M-2.5,-0.5L0,-3.0L2.5,-0.5"/>
                </g>
               <g id="resetDef">
                       <use xlink:href="#rim2" fill="#404040">
                               <set attributeName="fill" to="#808080" begin="reset.mouseover" end="reset.mouseout"/>
                       </use>
               </g>
        </defs>

<script type="text/javascript">
var viewWidth = 842;
var viewHeight = 489;
var sectionId = 'dynsection-1';
</script>
<script xlink:href="svgpan.js"/>
<svg id="graph" class="graph">
<g id="viewport">
<title>sgns::processing::ProcessingEngine</title>
<!-- Node1 -->
<g id="node1" class="node">
<title>Node1</title>
<g id="a_node1"><a xlink:title=" ">
<polygon fill="#999999" stroke="#666666" points="465.5,-140 317.5,-140 317.5,0 465.5,0 465.5,-140"/>
<text text-anchor="start" x="325.5" y="-128" font-family="Helvetica,sans-Serif" font-size="10.00">{sgns::processing::Processing</text>
<text text-anchor="middle" x="391.5" y="-117" font-family="Helvetica,sans-Serif" font-size="10.00">Engine</text>
<text text-anchor="start" x="325.5" y="-106" font-family="Helvetica,sans-Serif" font-size="10.00">|&#45; m_processingErrorSink</text>
<text text-anchor="start" x="325.5" y="-95" font-family="Helvetica,sans-Serif" font-size="10.00">|+ ProcessingEngine()</text>
<text text-anchor="start" x="325.5" y="-84" font-family="Helvetica,sans-Serif" font-size="10.00">+ ~ProcessingEngine()</text>
<text text-anchor="start" x="325.5" y="-73" font-family="Helvetica,sans-Serif" font-size="10.00">+ StartQueueProcessing()</text>
<text text-anchor="start" x="325.5" y="-62" font-family="Helvetica,sans-Serif" font-size="10.00">+ StopQueueProcessing()</text>
<text text-anchor="start" x="325.5" y="-51" font-family="Helvetica,sans-Serif" font-size="10.00">+ IsQueueProcessingStarted()</text>
<text text-anchor="start" x="325.5" y="-40" font-family="Helvetica,sans-Serif" font-size="10.00">+ SetProcessingErrorSink()</text>
<text text-anchor="start" x="325.5" y="-29" font-family="Helvetica,sans-Serif" font-size="10.00">&#45; OnSubTaskGrabbed()</text>
<text text-anchor="start" x="325.5" y="-18" font-family="Helvetica,sans-Serif" font-size="10.00">&#45; ProcessSubTask()</text>
<text text-anchor="middle" x="391.5" y="-7" font-family="Helvetica,sans-Serif" font-size="10.00">}</text>
</a>
</g>
</g>
<!-- Node2 -->
<g id="node2" class="node">
<title>Node2</title>
<g id="a_node2"><a xlink:title=" ">
<polygon fill="white" stroke="#666666" points="157,-239 0,-239 0,-198 157,-198 157,-239"/>
<text text-anchor="start" x="8" y="-227" font-family="Helvetica,sans-Serif" font-size="10.00">{std::enable_shared</text>
<text text-anchor="middle" x="78.5" y="-216" font-family="Helvetica,sans-Serif" font-size="10.00">_from_this&lt; ProcessingEngine &gt;</text>
<text text-anchor="middle" x="78.5" y="-205" font-family="Helvetica,sans-Serif" font-size="10.00">||}</text>
</a>
</g>
</g>
<!-- Node2&#45;&gt;Node1 -->
<g id="edge1" class="edge">
<title>Node2&#45;&gt;Node1</title>
<path fill="none" stroke="#63b8ff" d="M131.18,-192.84C182.16,-168.98 259.93,-132.58 317.19,-105.78"/>
<polygon fill="none" stroke="#63b8ff" points="129.98,-189.54 122.41,-196.95 132.95,-195.88 129.98,-189.54"/>
</g>
<!-- Node3 -->
<g id="node3" class="node">
<title>Node3</title>
<g id="a_node3"><a xlink:title=" ">
<polygon fill="white" stroke="#666666" points="237.5,-233.5 175.5,-233.5 175.5,-203.5 237.5,-203.5 237.5,-233.5"/>
<text text-anchor="middle" x="206.5" y="-221.5" font-family="Helvetica,sans-Serif" font-size="10.00">{std::string</text>
<text text-anchor="middle" x="206.5" y="-210.5" font-family="Helvetica,sans-Serif" font-size="10.00">||}</text>
</a>
</g>
</g>
<!-- Node3&#45;&gt;Node1 -->
<g id="edge2" class="edge">
<title>Node3&#45;&gt;Node1</title>
<path fill="none" stroke="#404040" d="M224.58,-203.19C244.02,-187.79 276.34,-162.19 307.39,-137.6"/>
<polygon fill="none" stroke="#404040" points="307.3,-137.68 309.52,-130.82 316.71,-130.23 314.48,-137.09 307.3,-137.68"/>
<text text-anchor="middle" x="302" y="-161" font-family="Helvetica,sans-Serif" font-size="10.00"> &#45;m_nodeId</text>
</g>
<!-- Node4 -->
<g id="node4" class="node">
<title>Node4</title>
<g id="a_node4"><a xlink:title=" ">
<polygon fill="white" stroke="#666666" points="247.5,-376.5 151.5,-376.5 151.5,-335.5 247.5,-335.5 247.5,-376.5"/>
<text text-anchor="start" x="159.5" y="-364.5" font-family="Helvetica,sans-Serif" font-size="10.00">{std::basic_string&lt;</text>
<text text-anchor="middle" x="199.5" y="-353.5" font-family="Helvetica,sans-Serif" font-size="10.00"> Char &gt;</text>
<text text-anchor="middle" x="199.5" y="-342.5" font-family="Helvetica,sans-Serif" font-size="10.00">||}</text>
</a>
</g>
</g>
<!-- Node4&#45;&gt;Node3 -->
<g id="edge3" class="edge">
<title>Node4&#45;&gt;Node3</title>
<path fill="none" stroke="#63b8ff" d="M201.12,-323.7C202.58,-295.39 204.67,-254.98 205.76,-233.76"/>
<polygon fill="none" stroke="#63b8ff" points="197.63,-323.33 200.61,-333.49 204.62,-323.69 197.63,-323.33"/>
</g>
<!-- Node5 -->
<g id="node5" class="node">
<title>Node5</title>
<g id="a_node5"><a xlink:title=" ">
<polygon fill="white" stroke="#666666" points="543.5,-244.5 393.5,-244.5 393.5,-192.5 543.5,-192.5 543.5,-244.5"/>
<text text-anchor="start" x="401.5" y="-232.5" font-family="Helvetica,sans-Serif" font-size="10.00">{std::shared_ptr&lt; sgns</text>
<text text-anchor="middle" x="468.5" y="-221.5" font-family="Helvetica,sans-Serif" font-size="10.00">::processing::ProcessingCore &gt;</text>
<text text-anchor="start" x="401.5" y="-210.5" font-family="Helvetica,sans-Serif" font-size="10.00">||+ operator&#45;&gt;()</text>
<text text-anchor="middle" x="468.5" y="-199.5" font-family="Helvetica,sans-Serif" font-size="10.00">}</text>
</a>
</g>
</g>
<!-- Node5&#45;&gt;Node1 -->
<g id="edge4" class="edge">
<title>Node5&#45;&gt;Node1</title>
<path fill="none" stroke="#404040" d="M455.26,-192.32C449.2,-180.78 441.64,-166.39 433.86,-151.6"/>
<polygon fill="none" stroke="#404040" points="433.9,-151.67 427.57,-148.22 428.32,-141.05 434.65,-144.5 433.9,-151.67"/>
<text text-anchor="middle" x="484" y="-161" font-family="Helvetica,sans-Serif" font-size="10.00"> &#45;m_processingCore</text>
</g>
<!-- Node6 -->
<g id="node6" class="node">
<title>Node6</title>
<g id="a_node6"><a xlink:href="classsgns_1_1processing_1_1_processing_core.html" target="_top" xlink:title=" ">
<polygon fill="white" stroke="#666666" points="431.5,-382 265.5,-382 265.5,-330 431.5,-330 431.5,-382"/>
<text text-anchor="middle" x="348.5" y="-370" font-family="Helvetica,sans-Serif" font-size="10.00">{sgns::processing::ProcessingCore</text>
<text text-anchor="start" x="273.5" y="-359" font-family="Helvetica,sans-Serif" font-size="10.00">||+ ~ProcessingCore()</text>
<text text-anchor="start" x="273.5" y="-348" font-family="Helvetica,sans-Serif" font-size="10.00">+ ProcessSubTask()</text>
<text text-anchor="middle" x="348.5" y="-337" font-family="Helvetica,sans-Serif" font-size="10.00">}</text>
</a>
</g>
</g>
<!-- Node6&#45;&gt;Node5 -->
<g id="edge5" class="edge">
<title>Node6&#45;&gt;Node5</title>
<path fill="none" stroke="#404040" d="M341.81,-329.55C338.46,-310.91 337.35,-285.86 349.5,-268 351.03,-265.75 368.64,-258.19 389.86,-249.68"/>
<polygon fill="none" stroke="#404040" points="389.96,-249.64 394.06,-243.71 401.11,-245.22 397.01,-251.15 389.96,-249.64"/>
<text text-anchor="middle" x="359.5" y="-276.5" font-family="Helvetica,sans-Serif" font-size="10.00"> +ptr</text>
</g>
<!-- Node7 -->
<g id="node7" class="node">
<title>Node7</title>
<g id="a_node7"><a xlink:title=" ">
<polygon fill="white" stroke="#666666" points="555.5,-376.5 449.5,-376.5 449.5,-335.5 555.5,-335.5 555.5,-376.5"/>
<text text-anchor="middle" x="502.5" y="-364.5" font-family="Helvetica,sans-Serif" font-size="10.00">{std::shared_ptr&lt; T &gt;</text>
<text text-anchor="start" x="457.5" y="-353.5" font-family="Helvetica,sans-Serif" font-size="10.00">||+ operator&#45;&gt;()</text>
<text text-anchor="middle" x="502.5" y="-342.5" font-family="Helvetica,sans-Serif" font-size="10.00">}</text>
</a>
</g>
</g>
<!-- Node7&#45;&gt;Node5 -->
<g id="edge6" class="edge">
<title>Node7&#45;&gt;Node5</title>
<path fill="none" stroke="orange" d="M494.72,-324C488.69,-299.96 480.44,-267.07 474.81,-244.65"/>
<polygon fill="orange" stroke="orange" points="491.29,-324.69 497.11,-333.54 498.08,-322.99 491.29,-324.69"/>
<text text-anchor="start" x="485.5" y="-282" font-family="Helvetica,sans-Serif" font-size="10.00"> &lt; sgns::processing</text>
<text text-anchor="middle" x="527.5" y="-271" font-family="Helvetica,sans-Serif" font-size="10.00">::ProcessingCore &gt;</text>
</g>
<!-- Node9 -->
<g id="node9" class="node">
<title>Node9</title>
<g id="a_node9"><a xlink:title=" ">
<polygon fill="white" stroke="#666666" points="833.5,-244.5 643.5,-244.5 643.5,-192.5 833.5,-192.5 833.5,-244.5"/>
<text text-anchor="start" x="651.5" y="-232.5" font-family="Helvetica,sans-Serif" font-size="10.00">{std::shared_ptr&lt; sgns</text>
<text text-anchor="middle" x="738.5" y="-221.5" font-family="Helvetica,sans-Serif" font-size="10.00">::processing::SubTaskQueueAccessor &gt;</text>
<text text-anchor="start" x="651.5" y="-210.5" font-family="Helvetica,sans-Serif" font-size="10.00">||+ operator&#45;&gt;()</text>
<text text-anchor="middle" x="738.5" y="-199.5" font-family="Helvetica,sans-Serif" font-size="10.00">}</text>
</a>
</g>
</g>
<!-- Node7&#45;&gt;Node9 -->
<g id="edge10" class="edge">
<title>Node7&#45;&gt;Node9</title>
<path fill="none" stroke="orange" d="M532.3,-327.99C553.95,-309.36 584.58,-285 614.5,-268 629.67,-259.38 646.68,-251.62 663.13,-244.98"/>
<polygon fill="orange" stroke="orange" points="530.27,-325.12 525.03,-334.33 534.87,-330.39 530.27,-325.12"/>
<text text-anchor="start" x="614.5" y="-282" font-family="Helvetica,sans-Serif" font-size="10.00"> &lt; sgns::processing</text>
<text text-anchor="middle" x="675.5" y="-271" font-family="Helvetica,sans-Serif" font-size="10.00">::SubTaskQueueAccessor &gt;</text>
</g>
<!-- Node12 -->
<g id="node12" class="node">
<title>Node12</title>
<g id="a_node12"><a xlink:title=" ">
<polygon fill="white" stroke="#666666" points="375.5,-250 255.5,-250 255.5,-187 375.5,-187 375.5,-250"/>
<text text-anchor="start" x="263.5" y="-238" font-family="Helvetica,sans-Serif" font-size="10.00">{std::shared_ptr&lt; spdlog</text>
<text text-anchor="middle" x="315.5" y="-227" font-family="Helvetica,sans-Serif" font-size="10.00">::logger &gt;</text>
<text text-anchor="start" x="263.5" y="-216" font-family="Helvetica,sans-Serif" font-size="10.00">|+ ptr</text>
<text text-anchor="start" x="263.5" y="-205" font-family="Helvetica,sans-Serif" font-size="10.00">|+ operator&#45;&gt;()</text>
<text text-anchor="middle" x="315.5" y="-194" font-family="Helvetica,sans-Serif" font-size="10.00">}</text>
</a>
</g>
</g>
<!-- Node7&#45;&gt;Node12 -->
<g id="edge13" class="edge">
<title>Node7&#45;&gt;Node12</title>
<path fill="none" stroke="orange" d="M470.43,-328.26C461.11,-321.17 450.68,-313.86 440.5,-308 422.55,-297.66 415.13,-300.89 397.5,-290 392.19,-286.72 370.26,-267.82 350.42,-250.41"/>
<polygon fill="orange" stroke="orange" points="468.11,-330.89 478.14,-334.29 472.42,-325.37 468.11,-330.89"/>
<text text-anchor="middle" x="437" y="-276.5" font-family="Helvetica,sans-Serif" font-size="10.00"> &lt; spdlog::logger &gt;</text>
</g>
<!-- Node8 -->
<g id="node8" class="node">
<title>Node8</title>
<g id="a_node8"><a xlink:title=" ">
<polygon fill="white" stroke="#666666" points="517,-481 488,-481 488,-451 517,-451 517,-481"/>
<text text-anchor="middle" x="502.5" y="-469" font-family="Helvetica,sans-Serif" font-size="10.00">{T</text>
<text text-anchor="middle" x="502.5" y="-458" font-family="Helvetica,sans-Serif" font-size="10.00">||}</text>
</a>
</g>
</g>
<!-- Node8&#45;&gt;Node7 -->
<g id="edge7" class="edge">
<title>Node8&#45;&gt;Node7</title>
<path fill="none" stroke="#404040" d="M502.5,-450.88C502.5,-435.38 502.5,-409.98 502.5,-389.51"/>
<polygon fill="none" stroke="#404040" points="502.5,-389.51 498.5,-383.51 502.5,-377.51 506.5,-383.51 502.5,-389.51"/>
<text text-anchor="middle" x="512.5" y="-425" font-family="Helvetica,sans-Serif" font-size="10.00"> +ptr</text>
</g>
<!-- Node9&#45;&gt;Node1 -->
<g id="edge8" class="edge">
<title>Node9&#45;&gt;Node1</title>
<path fill="none" stroke="#404040" d="M710.1,-192.1C695.96,-180.46 678.15,-167.24 660.5,-158 602.71,-127.75 532.42,-105.46 478.19,-91.02"/>
<polygon fill="none" stroke="#404040" points="478.31,-91.05 471.49,-93.4 466.7,-88.02 473.51,-85.66 478.31,-91.05"/>
<text text-anchor="middle" x="742" y="-161" font-family="Helvetica,sans-Serif" font-size="10.00"> &#45;m_subTaskQueueAccessor</text>
</g>
<!-- Node10 -->
<g id="node10" class="node">
<title>Node10</title>
<g id="a_node10"><a xlink:href="classsgns_1_1processing_1_1_sub_task_queue_accessor.html" target="_top" xlink:title=" ">
<polygon fill="white" stroke="#666666" points="820,-404 671,-404 671,-308 820,-308 820,-404"/>
<text text-anchor="start" x="679" y="-392" font-family="Helvetica,sans-Serif" font-size="10.00">{sgns::processing::SubTask</text>
<text text-anchor="middle" x="745.5" y="-381" font-family="Helvetica,sans-Serif" font-size="10.00">QueueAccessor</text>
<text text-anchor="start" x="679" y="-370" font-family="Helvetica,sans-Serif" font-size="10.00">||+ ~SubTaskQueueAccessor()</text>
<text text-anchor="start" x="679" y="-359" font-family="Helvetica,sans-Serif" font-size="10.00">+ ConnectToSubTaskQueue()</text>
<text text-anchor="start" x="679" y="-348" font-family="Helvetica,sans-Serif" font-size="10.00">+ AssignSubTasks()</text>
<text text-anchor="start" x="679" y="-337" font-family="Helvetica,sans-Serif" font-size="10.00">+ GrabSubTask()</text>
<text text-anchor="start" x="679" y="-326" font-family="Helvetica,sans-Serif" font-size="10.00">+ CompleteSubTask()</text>
<text text-anchor="middle" x="745.5" y="-315" font-family="Helvetica,sans-Serif" font-size="10.00">}</text>
</a>
</g>
</g>
<!-- Node10&#45;&gt;Node9 -->
<g id="edge9" class="edge">
<title>Node10&#45;&gt;Node9</title>
<path fill="none" stroke="#404040" d="M743.05,-307.61C742.21,-291.32 741.28,-273.29 740.48,-257.82"/>
<polygon fill="none" stroke="#404040" points="740.48,-257.86 736.18,-252.08 739.86,-245.88 744.17,-251.66 740.48,-257.86"/>
<text text-anchor="middle" x="751.5" y="-276.5" font-family="Helvetica,sans-Serif" font-size="10.00"> +ptr</text>
</g>
<!-- Node11 -->
<g id="node11" class="node">
<title>Node11</title>
<g id="a_node11"><a xlink:title=" ">
<polygon fill="white" stroke="#666666" points="625.5,-233.5 561.5,-233.5 561.5,-203.5 625.5,-203.5 625.5,-233.5"/>
<text text-anchor="middle" x="593.5" y="-221.5" font-family="Helvetica,sans-Serif" font-size="10.00">{std::mutex</text>
<text text-anchor="middle" x="593.5" y="-210.5" font-family="Helvetica,sans-Serif" font-size="10.00">||}</text>
</a>
</g>
</g>
<!-- Node11&#45;&gt;Node1 -->
<g id="edge11" class="edge">
<title>Node11&#45;&gt;Node1</title>
<path fill="none" stroke="#404040" d="M580.46,-203.4C568.39,-190.76 549.64,-172.09 531.5,-158 514.4,-144.72 495.18,-131.69 476.59,-119.92"/>
<polygon fill="none" stroke="#404040" points="476.68,-119.98 469.47,-120.2 466.5,-113.63 473.71,-113.41 476.68,-119.98"/>
<text text-anchor="middle" x="600" y="-161" font-family="Helvetica,sans-Serif" font-size="10.00"> &#45;m_mutexSubTaskQueue</text>
</g>
<!-- Node12&#45;&gt;Node1 -->
<g id="edge12" class="edge">
<title>Node12&#45;&gt;Node1</title>
<path fill="none" stroke="#404040" d="M331.43,-186.79C336.83,-176.38 343.14,-164.22 349.6,-151.77"/>
<polygon fill="none" stroke="#404040" points="349.61,-151.75 348.82,-144.58 355.14,-141.09 355.93,-148.26 349.61,-151.75"/>
<text text-anchor="middle" x="366.5" y="-161" font-family="Helvetica,sans-Serif" font-size="10.00"> &#45;m_logger</text>
</g>
</g>
</svg>
        <g id="navigator" transform="translate(0 0)" fill="#404254">
                <rect fill="#f2f5e9" fill-opacity="0.5" stroke="#606060" stroke-width=".5" x="0" y="0" width="60" height="60"/>
                <use id="zoomplus" xlink:href="#zoomPlus" x="17" y="9" onmousedown="handleZoom(evt,'in')"/>
                <use id="zoomminus" xlink:href="#zoomMin" x="42" y="9" onmousedown="handleZoom(evt,'out')"/>
                <use id="reset" xlink:href="#resetDef" x="30" y="36" onmousedown="handleReset()"/>
                <g id="arrowUp" xlink:href="#dirArrow" transform="translate(30 24)" onmousedown="handlePan(0,-1)">
                  <use xlink:href="#rim" fill="#404040">
                        <set attributeName="fill" to="#808080" begin="arrowUp.mouseover" end="arrowUp.mouseout"/>
                  </use>
                  <path fill="none" stroke="white" stroke-width="1.5" d="M0,-3.0v7 M-2.5,-0.5L0,-3.0L2.5,-0.5"/>
                </g>
                <g id="arrowRight" xlink:href="#dirArrow" transform="rotate(90) translate(36 -43)" onmousedown="handlePan(1,0)">
                  <use xlink:href="#rim" fill="#404040">
                        <set attributeName="fill" to="#808080" begin="arrowRight.mouseover" end="arrowRight.mouseout"/>
                  </use>
                  <path fill="none" stroke="white" stroke-width="1.5" d="M0,-3.0v7 M-2.5,-0.5L0,-3.0L2.5,-0.5"/>
                </g>
                <g id="arrowDown" xlink:href="#dirArrow" transform="rotate(180) translate(-30 -48)" onmousedown="handlePan(0,1)">
                  <use xlink:href="#rim" fill="#404040">
                        <set attributeName="fill" to="#808080" begin="arrowDown.mouseover" end="arrowDown.mouseout"/>
                  </use>
                  <path fill="none" stroke="white" stroke-width="1.5" d="M0,-3.0v7 M-2.5,-0.5L0,-3.0L2.5,-0.5"/>
                </g>
                <g id="arrowLeft" xlink:href="#dirArrow" transform="rotate(270) translate(-36 17)" onmousedown="handlePan(-1,0)">
                  <use xlink:href="#rim" fill="#404040">
                        <set attributeName="fill" to="#808080" begin="arrowLeft.mouseover" end="arrowLeft.mouseout"/>
                  </use>
                  <path fill="none" stroke="white" stroke-width="1.5" d="M0,-3.0v7 M-2.5,-0.5L0,-3.0L2.5,-0.5"/>
                </g>
        </g>
        <svg viewBox="0 0 15 15" width="100%" height="30px" preserveAspectRatio="xMaxYMin meet">
         <g id="arrow_out" transform="scale(0.3 0.3)">
          <a xlink:href="classsgns_1_1processing_1_1_processing_engine__coll__graph_org.svg" target="_base">
           <rect id="button" ry="5" rx="5" y="6" x="6" height="38" width="38"
                fill="#f2f5e9" fill-opacity="0.5" stroke="#606060" stroke-width="1.0"/>
           <path id="arrow"
             d="M 11.500037,31.436501 C 11.940474,20.09759 22.043105,11.32322 32.158766,21.979434 L 37.068811,17.246167 C 37.068811,17.246167 37.088388,32 37.088388,32 L 22.160133,31.978069 C 22.160133,31.978069 26.997745,27.140456 26.997745,27.140456 C 18.528582,18.264221 13.291696,25.230495 11.500037,31.436501 z"
             style="fill:#404040;"/>
          </a>
         </g>
        </svg>
</svg>
