<?xml version="1.0" encoding="UTF-8" standalone="no"?>
<!DOCTYPE svg PUBLIC "-//W3C//DTD SVG 1.1//EN"
 "http://www.w3.org/Graphics/SVG/1.1/DTD/svg11.dtd">
<!-- Generated by graphviz version 7.0.5 (20221223.1930)
 -->
<!-- Title: sgns::application::BlockProducingNodeApplication Pages: 1 -->
<svg width="513pt" height="588pt"
 viewBox="0.00 0.00 512.50 588.00" xmlns="http://www.w3.org/2000/svg" xmlns:xlink="http://www.w3.org/1999/xlink">
<g id="graph0" class="graph" transform="scale(1 1) rotate(0) translate(4 584)">
<title>sgns::application::BlockProducingNodeApplication</title>
<!-- Node1 -->
<g id="node1" class="node">
<title>Node1</title>
<g id="a_node1"><a xlink:title=" ">
<polygon fill="#999999" stroke="#666666" points="355.5,-151 177.5,-151 177.5,0 355.5,0 355.5,-151"/>
<text text-anchor="start" x="185.5" y="-139" font-family="Helvetica,sans-Serif" font-size="10.00">{sgns::application::</text>
<text text-anchor="middle" x="266.5" y="-128" font-family="Helvetica,sans-Serif" font-size="10.00">BlockProducingNodeApplication</text>
<text text-anchor="start" x="185.5" y="-117" font-family="Helvetica,sans-Serif" font-size="10.00">|&#45; io_context_</text>
<text text-anchor="start" x="185.5" y="-106" font-family="Helvetica,sans-Serif" font-size="10.00">&#45; config_storage_</text>
<text text-anchor="start" x="185.5" y="-95" font-family="Helvetica,sans-Serif" font-size="10.00">&#45; key_storage_</text>
<text text-anchor="start" x="185.5" y="-84" font-family="Helvetica,sans-Serif" font-size="10.00">&#45; clock_</text>
<text text-anchor="start" x="185.5" y="-73" font-family="Helvetica,sans-Serif" font-size="10.00">&#45; production_</text>
<text text-anchor="start" x="185.5" y="-62" font-family="Helvetica,sans-Serif" font-size="10.00">&#45; router_</text>
<text text-anchor="start" x="185.5" y="-51" font-family="Helvetica,sans-Serif" font-size="10.00">&#45; jrpc_api_service_</text>
<text text-anchor="start" x="185.5" y="-40" font-family="Helvetica,sans-Serif" font-size="10.00">|+ ~BlockProducingNodeApplication()</text>
<text text-anchor="start" x="185.5" y="-29" font-family="Helvetica,sans-Serif" font-size="10.00">+ BlockProducingNodeApplication()</text>
<text text-anchor="start" x="185.5" y="-18" font-family="Helvetica,sans-Serif" font-size="10.00">+ run()</text>
<text text-anchor="middle" x="266.5" y="-7" font-family="Helvetica,sans-Serif" font-size="10.00">}</text>
</a>
</g>
</g>
<!-- Node2 -->
<g id="node2" class="node">
<title>Node2</title>
<g id="a_node2"><a xlink:href="classsgns_1_1application_1_1_sgns_application.html" target="_top" xlink:title=" ">
<polygon fill="white" stroke="#666666" points="111,-261 0,-261 0,-198 111,-198 111,-261"/>
<text text-anchor="start" x="8" y="-249" font-family="Helvetica,sans-Serif" font-size="10.00">{sgns::application::</text>
<text text-anchor="middle" x="55.5" y="-238" font-family="Helvetica,sans-Serif" font-size="10.00">SgnsApplication</text>
<text text-anchor="start" x="8" y="-227" font-family="Helvetica,sans-Serif" font-size="10.00">||+ ~SgnsApplication()</text>
<text text-anchor="start" x="8" y="-216" font-family="Helvetica,sans-Serif" font-size="10.00">+ run()</text>
<text text-anchor="middle" x="55.5" y="-205" font-family="Helvetica,sans-Serif" font-size="10.00">}</text>
</a>
</g>
</g>
<!-- Node2&#45;&gt;Node1 -->
<g id="edge1" class="edge">
<title>Node2&#45;&gt;Node1</title>
<path fill="none" stroke="#63b8ff" d="M107.78,-190.84C128.7,-175.77 153.4,-157.98 177,-140.97"/>
<polygon fill="none" stroke="#63b8ff" points="105.75,-187.99 99.68,-196.67 109.84,-193.67 105.75,-187.99"/>
</g>
<!-- Node3 -->
<g id="node3" class="node">
<title>Node3</title>
<g id="a_node3"><a xlink:title=" ">
<polygon fill="white" stroke="#666666" points="376.5,-426 270.5,-426 270.5,-385 376.5,-385 376.5,-426"/>
<text text-anchor="middle" x="323.5" y="-414" font-family="Helvetica,sans-Serif" font-size="10.00">{std::shared_ptr&lt; T &gt;</text>
<text text-anchor="start" x="278.5" y="-403" font-family="Helvetica,sans-Serif" font-size="10.00">||+ operator&#45;&gt;()</text>
<text text-anchor="middle" x="323.5" y="-392" font-family="Helvetica,sans-Serif" font-size="10.00">}</text>
</a>
</g>
</g>
<!-- Node3&#45;&gt;Node1 -->
<g id="edge2" class="edge">
<title>Node3&#45;&gt;Node1</title>
<path fill="none" stroke="#404040" d="M324.79,-384.58C326.92,-343.53 329.15,-246.84 309.5,-169 309.06,-167.27 308.59,-165.53 308.09,-163.78"/>
<polygon fill="none" stroke="#404040" points="308.05,-163.65 302.41,-159.16 304.38,-152.23 310.02,-156.71 308.05,-163.65"/>
<text text-anchor="middle" x="344" y="-227" font-family="Helvetica,sans-Serif" font-size="10.00"> &#45;injector_</text>
</g>
<!-- Node5 -->
<g id="node5" class="node">
<title>Node5</title>
<g id="a_node5"><a xlink:title=" ">
<polygon fill="white" stroke="#666666" points="287.5,-255.5 129.5,-255.5 129.5,-203.5 287.5,-203.5 287.5,-255.5"/>
<text text-anchor="start" x="137.5" y="-243.5" font-family="Helvetica,sans-Serif" font-size="10.00">{std::shared_ptr&lt; sgns</text>
<text text-anchor="middle" x="208.5" y="-232.5" font-family="Helvetica,sans-Serif" font-size="10.00">::application::AppStateManager &gt;</text>
<text text-anchor="start" x="137.5" y="-221.5" font-family="Helvetica,sans-Serif" font-size="10.00">||+ operator&#45;&gt;()</text>
<text text-anchor="middle" x="208.5" y="-210.5" font-family="Helvetica,sans-Serif" font-size="10.00">}</text>
</a>
</g>
</g>
<!-- Node3&#45;&gt;Node5 -->
<g id="edge7" class="edge">
<title>Node3&#45;&gt;Node5</title>
<path fill="none" stroke="orange" d="M298.78,-376.06C283.28,-358.84 262.52,-336.84 242.5,-319 232.55,-310.13 225.29,-312.48 218.5,-301 210.51,-287.49 207.98,-270.03 207.47,-255.87"/>
<polygon fill="orange" stroke="orange" points="296.09,-378.31 305.36,-383.44 301.32,-373.65 296.09,-378.31"/>
<text text-anchor="start" x="218.5" y="-293" font-family="Helvetica,sans-Serif" font-size="10.00"> &lt; sgns::application</text>
<text text-anchor="middle" x="264" y="-282" font-family="Helvetica,sans-Serif" font-size="10.00">::AppStateManager &gt;</text>
</g>
<!-- Node8 -->
<g id="node8" class="node">
<title>Node8</title>
<g id="a_node8"><a xlink:title=" ">
<polygon fill="white" stroke="#666666" points="504.5,-261 384.5,-261 384.5,-198 504.5,-198 504.5,-261"/>
<text text-anchor="start" x="392.5" y="-249" font-family="Helvetica,sans-Serif" font-size="10.00">{std::shared_ptr&lt; spdlog</text>
<text text-anchor="middle" x="444.5" y="-238" font-family="Helvetica,sans-Serif" font-size="10.00">::logger &gt;</text>
<text text-anchor="start" x="392.5" y="-227" font-family="Helvetica,sans-Serif" font-size="10.00">|+ ptr</text>
<text text-anchor="start" x="392.5" y="-216" font-family="Helvetica,sans-Serif" font-size="10.00">|+ operator&#45;&gt;()</text>
<text text-anchor="middle" x="444.5" y="-205" font-family="Helvetica,sans-Serif" font-size="10.00">}</text>
</a>
</g>
</g>
<!-- Node3&#45;&gt;Node8 -->
<g id="edge9" class="edge">
<title>Node3&#45;&gt;Node8</title>
<path fill="none" stroke="orange" d="M343.75,-375.37C365.72,-343.79 400.64,-293.57 423.06,-261.33"/>
<polygon fill="orange" stroke="orange" points="341.08,-373.09 338.24,-383.3 346.83,-377.09 341.08,-373.09"/>
<text text-anchor="middle" x="448" y="-287.5" font-family="Helvetica,sans-Serif" font-size="10.00"> &lt; spdlog::logger &gt;</text>
</g>
<!-- Node4 -->
<g id="node4" class="node">
<title>Node4</title>
<g id="a_node4"><a xlink:title=" ">
<polygon fill="white" stroke="#666666" points="338,-574.5 309,-574.5 309,-544.5 338,-544.5 338,-574.5"/>
<text text-anchor="middle" x="323.5" y="-562.5" font-family="Helvetica,sans-Serif" font-size="10.00">{T</text>
<text text-anchor="middle" x="323.5" y="-551.5" font-family="Helvetica,sans-Serif" font-size="10.00">||}</text>
</a>
</g>
</g>
<!-- Node4&#45;&gt;Node3 -->
<g id="edge3" class="edge">
<title>Node4&#45;&gt;Node3</title>
<path fill="none" stroke="#404040" d="M323.5,-544.2C323.5,-520.34 323.5,-471.81 323.5,-439.22"/>
<polygon fill="none" stroke="#404040" points="323.5,-439.24 319.5,-433.24 323.5,-427.24 327.5,-433.24 323.5,-439.24"/>
<text text-anchor="middle" x="333.5" y="-513" font-family="Helvetica,sans-Serif" font-size="10.00"> +ptr</text>
</g>
<!-- Node5&#45;&gt;Node1 -->
<g id="edge4" class="edge">
<title>Node5&#45;&gt;Node1</title>
<path fill="none" stroke="#404040" d="M207.66,-203.14C207.95,-192.4 209.16,-179.89 212.5,-169 213.06,-167.17 213.67,-165.33 214.31,-163.5"/>
<polygon fill="none" stroke="#404040" points="214.33,-163.44 212.81,-156.39 218.73,-152.27 220.25,-159.32 214.33,-163.44"/>
<text text-anchor="middle" x="261" y="-172" font-family="Helvetica,sans-Serif" font-size="10.00"> &#45;app_state_manager_</text>
</g>
<!-- Node6 -->
<g id="node6" class="node">
<title>Node6</title>
<g id="a_node6"><a xlink:href="classsgns_1_1application_1_1_app_state_manager.html" target="_top" xlink:title=" ">
<polygon fill="white" stroke="#666666" points="234,-492 115,-492 115,-319 234,-319 234,-492"/>
<text text-anchor="start" x="123" y="-480" font-family="Helvetica,sans-Serif" font-size="10.00">{sgns::application::</text>
<text text-anchor="middle" x="174.5" y="-469" font-family="Helvetica,sans-Serif" font-size="10.00">AppStateManager</text>
<text text-anchor="start" x="123" y="-458" font-family="Helvetica,sans-Serif" font-size="10.00">||+ ~AppStateManager()</text>
<text text-anchor="start" x="123" y="-447" font-family="Helvetica,sans-Serif" font-size="10.00">+ atPrepare()</text>
<text text-anchor="start" x="123" y="-436" font-family="Helvetica,sans-Serif" font-size="10.00">+ atLaunch()</text>
<text text-anchor="start" x="123" y="-425" font-family="Helvetica,sans-Serif" font-size="10.00">+ atShutdown()</text>
<text text-anchor="start" x="123" y="-414" font-family="Helvetica,sans-Serif" font-size="10.00">+ registerHandlers()</text>
<text text-anchor="start" x="123" y="-403" font-family="Helvetica,sans-Serif" font-size="10.00">+ takeControl()</text>
<text text-anchor="start" x="123" y="-392" font-family="Helvetica,sans-Serif" font-size="10.00">+ run()</text>
<text text-anchor="start" x="123" y="-381" font-family="Helvetica,sans-Serif" font-size="10.00">+ shutdown()</text>
<text text-anchor="start" x="123" y="-370" font-family="Helvetica,sans-Serif" font-size="10.00">+ state()</text>
<text text-anchor="start" x="123" y="-359" font-family="Helvetica,sans-Serif" font-size="10.00"># doPrepare()</text>
<text text-anchor="start" x="123" y="-348" font-family="Helvetica,sans-Serif" font-size="10.00"># doLaunch()</text>
<text text-anchor="start" x="123" y="-337" font-family="Helvetica,sans-Serif" font-size="10.00"># doShutdown()</text>
<text text-anchor="middle" x="174.5" y="-326" font-family="Helvetica,sans-Serif" font-size="10.00">}</text>
</a>
</g>
</g>
<!-- Node6&#45;&gt;Node5 -->
<g id="edge5" class="edge">
<title>Node6&#45;&gt;Node5</title>
<path fill="none" stroke="#404040" d="M168.48,-318.73C169.44,-305.23 171.57,-291.58 175.5,-279 176.76,-274.97 178.48,-270.96 180.47,-267.09"/>
<polygon fill="none" stroke="#404040" points="180.51,-267.04 180.14,-259.84 186.65,-256.73 187.01,-263.93 180.51,-267.04"/>
<text text-anchor="middle" x="185.5" y="-287.5" font-family="Helvetica,sans-Serif" font-size="10.00"> +ptr</text>
</g>
<!-- Node7 -->
<g id="node7" class="node">
<title>Node7</title>
<g id="a_node7"><a xlink:title=" ">
<polygon fill="white" stroke="#666666" points="253,-580 96,-580 96,-539 253,-539 253,-580"/>
<text text-anchor="start" x="104" y="-568" font-family="Helvetica,sans-Serif" font-size="10.00">{std::enable_shared</text>
<text text-anchor="middle" x="174.5" y="-557" font-family="Helvetica,sans-Serif" font-size="10.00">_from_this&lt; AppStateManager &gt;</text>
<text text-anchor="middle" x="174.5" y="-546" font-family="Helvetica,sans-Serif" font-size="10.00">||}</text>
</a>
</g>
</g>
<!-- Node7&#45;&gt;Node6 -->
<g id="edge6" class="edge">
<title>Node7&#45;&gt;Node6</title>
<path fill="none" stroke="#63b8ff" d="M174.5,-527.35C174.5,-517 174.5,-504.91 174.5,-492.47"/>
<polygon fill="none" stroke="#63b8ff" points="171,-527.12 174.5,-537.12 178,-527.12 171,-527.12"/>
</g>
<!-- Node8&#45;&gt;Node1 -->
<g id="edge8" class="edge">
<title>Node8&#45;&gt;Node1</title>
<path fill="none" stroke="#404040" d="M408.48,-197.74C395.23,-186.43 379.52,-173.01 363.46,-159.3"/>
<polygon fill="none" stroke="#404040" points="363.8,-159.58 356.64,-158.73 354.67,-151.79 361.83,-152.65 363.8,-159.58"/>
<text text-anchor="middle" x="405" y="-172" font-family="Helvetica,sans-Serif" font-size="10.00"> &#45;logger_</text>
</g>
</g>
</svg>
