<?xml version="1.0" encoding="UTF-8" standalone="no"?>
<!DOCTYPE svg PUBLIC "-//W3C//DTD SVG 1.1//EN"
 "http://www.w3.org/Graphics/SVG/1.1/DTD/svg11.dtd">
<!-- Generated by graphviz version 7.0.5 (20221223.1930)
 -->
<!-- Title: sgns::verification::ProductionSynchronizerImpl Pages: 1 -->
<!--zoomable 747 -->
<svg id="main" version="1.1" xmlns="http://www.w3.org/2000/svg" xmlns:xlink="http://www.w3.org/1999/xlink" xml:space="preserve" onload="init(evt)">
<style type="text/css"><![CDATA[
.edge:hover path { stroke: red; }
.edge:hover polygon { stroke: red; fill: red; }
]]></style>
<script type="text/javascript"><![CDATA[
var edges = document.getElementsByTagName('g');
if (edges && edges.length) {
  for (var i=0;i<edges.length;i++) {
    if (edges[i].id.substr(0,4)=='edge') {
      edges[i].setAttribute('class','edge');
    }
  }
}
]]></script>
        <defs>
                <circle id="rim" cx="0" cy="0" r="7"/>
                <circle id="rim2" cx="0" cy="0" r="3.5"/>
                <g id="zoomPlus">
                        <use xlink:href="#rim" fill="#404040">
                                <set attributeName="fill" to="#808080" begin="zoomplus.mouseover" end="zoomplus.mouseout"/>
                        </use>
                        <path d="M-4,0h8M0,-4v8" fill="none" stroke="white" stroke-width="1.5" pointer-events="none"/>
                </g>
                <g id="zoomMin">
                        <use xlink:href="#rim" fill="#404040">
                                <set attributeName="fill" to="#808080" begin="zoomminus.mouseover" end="zoomminus.mouseout"/>
                        </use>
                        <path d="M-4,0h8" fill="none" stroke="white" stroke-width="1.5" pointer-events="none"/>
                </g>
                <g id="dirArrow">
                        <path fill="none" stroke="white" stroke-width="1.5" d="M0,-3.0v7 M-2.5,-0.5L0,-3.0L2.5,-0.5"/>
                </g>
               <g id="resetDef">
                       <use xlink:href="#rim2" fill="#404040">
                               <set attributeName="fill" to="#808080" begin="reset.mouseover" end="reset.mouseout"/>
                       </use>
               </g>
        </defs>

<script type="text/javascript">
var viewWidth = 878;
var viewHeight = 747;
var sectionId = 'dynsection-1';
</script>
<script xlink:href="svgpan.js"/>
<svg id="graph" class="graph">
<g id="viewport">
<title>sgns::verification::ProductionSynchronizerImpl</title>
<!-- Node1 -->
<g id="node1" class="node">
<title>Node1</title>
<g id="a_node1"><a xlink:title=" ">
<polygon fill="#999999" stroke="#666666" points="385,-96 224,-96 224,0 385,0 385,-96"/>
<text text-anchor="start" x="232" y="-84" font-family="Helvetica,sans-Serif" font-size="10.00">{sgns::verification</text>
<text text-anchor="middle" x="304.5" y="-73" font-family="Helvetica,sans-Serif" font-size="10.00">::ProductionSynchronizerImpl</text>
<text text-anchor="start" x="232" y="-62" font-family="Helvetica,sans-Serif" font-size="10.00">||+ ~ProductionSynchronizerImpl()</text>
<text text-anchor="start" x="232" y="-51" font-family="Helvetica,sans-Serif" font-size="10.00">+ ProductionSynchronizerImpl()</text>
<text text-anchor="start" x="232" y="-40" font-family="Helvetica,sans-Serif" font-size="10.00">+ request()</text>
<text text-anchor="start" x="232" y="-29" font-family="Helvetica,sans-Serif" font-size="10.00">&#45; selectNextClient()</text>
<text text-anchor="start" x="232" y="-18" font-family="Helvetica,sans-Serif" font-size="10.00">&#45; pollClients()</text>
<text text-anchor="middle" x="304.5" y="-7" font-family="Helvetica,sans-Serif" font-size="10.00">}</text>
</a>
</g>
</g>
<!-- Node2 -->
<g id="node2" class="node">
<title>Node2</title>
<g id="a_node2"><a xlink:href="classsgns_1_1verification_1_1_production_synchronizer.html" target="_top" xlink:title="Iterates over the list of accessible peers and tries to fetch missing blocks from them.">
<polygon fill="white" stroke="#666666" points="143,-206 0,-206 0,-143 143,-143 143,-206"/>
<text text-anchor="start" x="8" y="-194" font-family="Helvetica,sans-Serif" font-size="10.00">{sgns::verification</text>
<text text-anchor="middle" x="71.5" y="-183" font-family="Helvetica,sans-Serif" font-size="10.00">::ProductionSynchronizer</text>
<text text-anchor="start" x="8" y="-172" font-family="Helvetica,sans-Serif" font-size="10.00">||+ ~ProductionSynchronizer()</text>
<text text-anchor="start" x="8" y="-161" font-family="Helvetica,sans-Serif" font-size="10.00">+ request()</text>
<text text-anchor="middle" x="71.5" y="-150" font-family="Helvetica,sans-Serif" font-size="10.00">}</text>
</a>
</g>
</g>
<!-- Node2&#45;&gt;Node1 -->
<g id="edge1" class="edge">
<title>Node2&#45;&gt;Node1</title>
<path fill="none" stroke="#63b8ff" d="M139.29,-137.28C165.66,-123.19 196.08,-106.93 223.59,-92.24"/>
<polygon fill="none" stroke="#63b8ff" points="137.9,-134.05 130.73,-141.85 141.2,-140.23 137.9,-134.05"/>
</g>
<!-- Node3 -->
<g id="node3" class="node">
<title>Node3</title>
<g id="a_node3"><a xlink:title=" ">
<polygon fill="white" stroke="#666666" points="334,-200.5 161,-200.5 161,-148.5 334,-148.5 334,-200.5"/>
<text text-anchor="start" x="169" y="-188.5" font-family="Helvetica,sans-Serif" font-size="10.00">{std::enable_shared</text>
<text text-anchor="start" x="169" y="-177.5" font-family="Helvetica,sans-Serif" font-size="10.00">_from_this&lt; ProductionSynchronizer</text>
<text text-anchor="middle" x="247.5" y="-166.5" font-family="Helvetica,sans-Serif" font-size="10.00">Impl &gt;</text>
<text text-anchor="middle" x="247.5" y="-155.5" font-family="Helvetica,sans-Serif" font-size="10.00">||}</text>
</a>
</g>
</g>
<!-- Node3&#45;&gt;Node1 -->
<g id="edge2" class="edge">
<title>Node3&#45;&gt;Node1</title>
<path fill="none" stroke="#63b8ff" d="M263.9,-137.69C269.79,-124.81 276.54,-110.07 282.82,-96.36"/>
<polygon fill="none" stroke="#63b8ff" points="260.78,-136.08 259.8,-146.63 267.15,-138.99 260.78,-136.08"/>
</g>
<!-- Node4 -->
<g id="node4" class="node">
<title>Node4</title>
<g id="a_node4"><a xlink:title=" ">
<polygon fill="white" stroke="#666666" points="526,-200.5 391,-200.5 391,-148.5 526,-148.5 526,-200.5"/>
<text text-anchor="start" x="399" y="-188.5" font-family="Helvetica,sans-Serif" font-size="10.00">{std::shared_ptr&lt; sgns</text>
<text text-anchor="middle" x="458.5" y="-177.5" font-family="Helvetica,sans-Serif" font-size="10.00">::network::SyncClientsSet &gt;</text>
<text text-anchor="start" x="399" y="-166.5" font-family="Helvetica,sans-Serif" font-size="10.00">||+ operator&#45;&gt;()</text>
<text text-anchor="middle" x="458.5" y="-155.5" font-family="Helvetica,sans-Serif" font-size="10.00">}</text>
</a>
</g>
</g>
<!-- Node4&#45;&gt;Node1 -->
<g id="edge3" class="edge">
<title>Node4&#45;&gt;Node1</title>
<path fill="none" stroke="#404040" d="M426.96,-148.01C411.37,-135.4 391.91,-119.67 373.12,-104.48"/>
<polygon fill="none" stroke="#404040" points="373.11,-104.47 365.93,-103.81 363.78,-96.93 370.96,-97.59 373.11,-104.47"/>
<text text-anchor="middle" x="428" y="-117" font-family="Helvetica,sans-Serif" font-size="10.00"> &#45;sync_clients_</text>
</g>
<!-- Node5 -->
<g id="node5" class="node">
<title>Node5</title>
<g id="a_node5"><a xlink:href="namespacesgns_1_1network.html#structsgns_1_1network_1_1_sync_clients_set" target="_top" xlink:title=" ">
<polygon fill="white" stroke="#666666" points="697,-283 546,-283 546,-253 697,-253 697,-283"/>
<text text-anchor="middle" x="621.5" y="-271" font-family="Helvetica,sans-Serif" font-size="10.00">{sgns::network::SyncClientsSet</text>
<text text-anchor="middle" x="621.5" y="-260" font-family="Helvetica,sans-Serif" font-size="10.00">||}</text>
</a>
</g>
</g>
<!-- Node5&#45;&gt;Node4 -->
<g id="edge4" class="edge">
<title>Node5&#45;&gt;Node4</title>
<path fill="none" stroke="#404040" d="M595.67,-252.5C574.05,-240.37 542.43,-222.61 514.99,-207.21"/>
<polygon fill="none" stroke="#404040" points="515.17,-207.31 507.98,-207.86 504.71,-201.44 511.9,-200.89 515.17,-207.31"/>
<text text-anchor="middle" x="574.5" y="-227" font-family="Helvetica,sans-Serif" font-size="10.00"> +ptr</text>
</g>
<!-- Node6 -->
<g id="node6" class="node">
<title>Node6</title>
<g id="a_node6"><a xlink:title=" ">
<polygon fill="white" stroke="#666666" points="765.5,-382 601.5,-382 601.5,-330 765.5,-330 765.5,-382"/>
<text text-anchor="start" x="609.5" y="-370" font-family="Helvetica,sans-Serif" font-size="10.00">{std::vector&lt; std::shared</text>
<text text-anchor="start" x="609.5" y="-359" font-family="Helvetica,sans-Serif" font-size="10.00">_ptr&lt; sgns::network::SyncProtocol</text>
<text text-anchor="middle" x="683.5" y="-348" font-family="Helvetica,sans-Serif" font-size="10.00">Client &gt; &gt;</text>
<text text-anchor="middle" x="683.5" y="-337" font-family="Helvetica,sans-Serif" font-size="10.00">||}</text>
</a>
</g>
</g>
<!-- Node6&#45;&gt;Node5 -->
<g id="edge5" class="edge">
<title>Node6&#45;&gt;Node5</title>
<path fill="none" stroke="#404040" d="M665.23,-329.66C657.09,-318.37 647.53,-305.1 639.42,-293.86"/>
<polygon fill="none" stroke="#404040" points="639.46,-293.91 632.7,-291.38 632.44,-284.17 639.19,-286.7 639.46,-293.91"/>
<text text-anchor="middle" x="671" y="-304" font-family="Helvetica,sans-Serif" font-size="10.00"> +clients</text>
</g>
<!-- Node7 -->
<g id="node7" class="node">
<title>Node7</title>
<g id="a_node7"><a xlink:title=" ">
<polygon fill="white" stroke="#666666" points="708,-533 557,-533 557,-481 708,-481 708,-533"/>
<text text-anchor="start" x="565" y="-521" font-family="Helvetica,sans-Serif" font-size="10.00">{std::shared_ptr&lt; sgns</text>
<text text-anchor="middle" x="632.5" y="-510" font-family="Helvetica,sans-Serif" font-size="10.00">::network::SyncProtocolClient &gt;</text>
<text text-anchor="start" x="565" y="-499" font-family="Helvetica,sans-Serif" font-size="10.00">||+ operator&#45;&gt;()</text>
<text text-anchor="middle" x="632.5" y="-488" font-family="Helvetica,sans-Serif" font-size="10.00">}</text>
</a>
</g>
</g>
<!-- Node7&#45;&gt;Node6 -->
<g id="edge6" class="edge">
<title>Node7&#45;&gt;Node6</title>
<path fill="none" stroke="#404040" d="M641.15,-480.72C649.25,-457.07 661.44,-421.44 670.67,-394.47"/>
<polygon fill="none" stroke="#404040" points="670.63,-394.61 668.79,-387.63 674.51,-383.25 676.36,-390.22 670.63,-394.61"/>
<text text-anchor="middle" x="693" y="-429" font-family="Helvetica,sans-Serif" font-size="10.00"> +elements</text>
</g>
<!-- Node8 -->
<g id="node8" class="node">
<title>Node8</title>
<g id="a_node8"><a xlink:href="structsgns_1_1network_1_1_sync_protocol_client.html" target="_top" xlink:title=" ">
<polygon fill="white" stroke="#666666" points="716.5,-662 574.5,-662 574.5,-599 716.5,-599 716.5,-662"/>
<text text-anchor="start" x="582.5" y="-650" font-family="Helvetica,sans-Serif" font-size="10.00">{sgns::network::SyncProtocol</text>
<text text-anchor="middle" x="645.5" y="-639" font-family="Helvetica,sans-Serif" font-size="10.00">Client</text>
<text text-anchor="start" x="582.5" y="-628" font-family="Helvetica,sans-Serif" font-size="10.00">||+ ~SyncProtocolClient()</text>
<text text-anchor="start" x="582.5" y="-617" font-family="Helvetica,sans-Serif" font-size="10.00">+ requestBlocks()</text>
<text text-anchor="middle" x="645.5" y="-606" font-family="Helvetica,sans-Serif" font-size="10.00">}</text>
</a>
</g>
</g>
<!-- Node8&#45;&gt;Node7 -->
<g id="edge7" class="edge">
<title>Node8&#45;&gt;Node7</title>
<path fill="none" stroke="#404040" d="M642.19,-598.53C640.48,-582.55 638.38,-562.92 636.57,-546.03"/>
<polygon fill="none" stroke="#404040" points="636.57,-546.02 631.95,-540.48 635.29,-534.09 639.91,-539.63 636.57,-546.02"/>
<text text-anchor="middle" x="650.5" y="-563.5" font-family="Helvetica,sans-Serif" font-size="10.00"> +ptr</text>
</g>
<!-- Node9 -->
<g id="node9" class="node">
<title>Node9</title>
<g id="a_node9"><a xlink:title=" ">
<polygon fill="white" stroke="#666666" points="526.5,-651 420.5,-651 420.5,-610 526.5,-610 526.5,-651"/>
<text text-anchor="middle" x="473.5" y="-639" font-family="Helvetica,sans-Serif" font-size="10.00">{std::shared_ptr&lt; T &gt;</text>
<text text-anchor="start" x="428.5" y="-628" font-family="Helvetica,sans-Serif" font-size="10.00">||+ operator&#45;&gt;()</text>
<text text-anchor="middle" x="473.5" y="-617" font-family="Helvetica,sans-Serif" font-size="10.00">}</text>
</a>
</g>
</g>
<!-- Node9&#45;&gt;Node4 -->
<g id="edge12" class="edge">
<title>Node9&#45;&gt;Node4</title>
<path fill="none" stroke="orange" d="M466.79,-598.75C462.04,-574.29 456.5,-539.12 456.5,-508 456.5,-508 456.5,-508 456.5,-267 456.5,-244.6 457.11,-219.11 457.65,-200.74"/>
<polygon fill="orange" stroke="orange" points="463.32,-599.25 468.73,-608.35 470.18,-597.86 463.32,-599.25"/>
<text text-anchor="start" x="456.5" y="-359" font-family="Helvetica,sans-Serif" font-size="10.00"> &lt; sgns::network::SyncClients</text>
<text text-anchor="middle" x="520" y="-348" font-family="Helvetica,sans-Serif" font-size="10.00">Set &gt;</text>
</g>
<!-- Node9&#45;&gt;Node7 -->
<g id="edge8" class="edge">
<title>Node9&#45;&gt;Node7</title>
<path fill="none" stroke="orange" d="M477.41,-598.69C480.95,-582.56 487.69,-563.61 500.5,-551 515.79,-535.96 536.4,-526.18 556.79,-519.82"/>
<polygon fill="orange" stroke="orange" points="474.01,-597.84 475.63,-608.31 480.89,-599.11 474.01,-597.84"/>
<text text-anchor="start" x="500.5" y="-569" font-family="Helvetica,sans-Serif" font-size="10.00"> &lt; sgns::network::SyncProtocol</text>
<text text-anchor="middle" x="567" y="-558" font-family="Helvetica,sans-Serif" font-size="10.00">Client &gt;</text>
</g>
<!-- Node12 -->
<g id="node12" class="node">
<title>Node12</title>
<g id="a_node12"><a xlink:title=" ">
<polygon fill="white" stroke="#666666" points="422.5,-463 302.5,-463 302.5,-400 422.5,-400 422.5,-463"/>
<text text-anchor="start" x="310.5" y="-451" font-family="Helvetica,sans-Serif" font-size="10.00">{std::shared_ptr&lt; spdlog</text>
<text text-anchor="middle" x="362.5" y="-440" font-family="Helvetica,sans-Serif" font-size="10.00">::logger &gt;</text>
<text text-anchor="start" x="310.5" y="-429" font-family="Helvetica,sans-Serif" font-size="10.00">|+ ptr</text>
<text text-anchor="start" x="310.5" y="-418" font-family="Helvetica,sans-Serif" font-size="10.00">|+ operator&#45;&gt;()</text>
<text text-anchor="middle" x="362.5" y="-407" font-family="Helvetica,sans-Serif" font-size="10.00">}</text>
</a>
</g>
</g>
<!-- Node9&#45;&gt;Node12 -->
<g id="edge14" class="edge">
<title>Node9&#45;&gt;Node12</title>
<path fill="none" stroke="orange" d="M409.33,-615.23C391.5,-608.01 374.13,-597.18 363.5,-581 340.5,-545.98 346.3,-495.59 353.6,-463.44"/>
<polygon fill="orange" stroke="orange" points="408.12,-618.51 418.71,-618.66 410.52,-611.94 408.12,-618.51"/>
<text text-anchor="middle" x="403" y="-563.5" font-family="Helvetica,sans-Serif" font-size="10.00"> &lt; spdlog::logger &gt;</text>
</g>
<!-- Node10 -->
<g id="node10" class="node">
<title>Node10</title>
<g id="a_node10"><a xlink:title=" ">
<polygon fill="white" stroke="#666666" points="623,-739 594,-739 594,-709 623,-709 623,-739"/>
<text text-anchor="middle" x="608.5" y="-727" font-family="Helvetica,sans-Serif" font-size="10.00">{T</text>
<text text-anchor="middle" x="608.5" y="-716" font-family="Helvetica,sans-Serif" font-size="10.00">||}</text>
</a>
</g>
</g>
<!-- Node10&#45;&gt;Node9 -->
<g id="edge9" class="edge">
<title>Node10&#45;&gt;Node9</title>
<path fill="none" stroke="#404040" d="M593.54,-712.86C574.41,-699.89 540.55,-676.95 513.66,-658.72"/>
<polygon fill="none" stroke="#404040" points="513.68,-658.73 506.47,-658.68 503.75,-652 510.96,-652.06 513.68,-658.73"/>
<text text-anchor="middle" x="571.5" y="-683" font-family="Helvetica,sans-Serif" font-size="10.00"> +ptr</text>
</g>
<!-- Node11 -->
<g id="node11" class="node">
<title>Node11</title>
<g id="a_node11"><a xlink:title=" ">
<polygon fill="white" stroke="#666666" points="788,-581 701,-581 701,-551 788,-551 788,-581"/>
<text text-anchor="middle" x="744.5" y="-569" font-family="Helvetica,sans-Serif" font-size="10.00">{std::vector&lt; T &gt;</text>
<text text-anchor="middle" x="744.5" y="-558" font-family="Helvetica,sans-Serif" font-size="10.00">||}</text>
</a>
</g>
</g>
<!-- Node10&#45;&gt;Node11 -->
<g id="edge11" class="edge">
<title>Node10&#45;&gt;Node11</title>
<path fill="none" stroke="#404040" d="M623.41,-719.67C648.67,-713.2 699.65,-696.45 725.5,-662 740.1,-642.54 744.27,-614.75 745.13,-594.25"/>
<polygon fill="none" stroke="#404040" points="745.13,-594.31 741.2,-588.27 745.28,-582.32 749.2,-588.36 745.13,-594.31"/>
<text text-anchor="middle" x="732" y="-683" font-family="Helvetica,sans-Serif" font-size="10.00"> +elements</text>
</g>
<!-- Node11&#45;&gt;Node6 -->
<g id="edge10" class="edge">
<title>Node11&#45;&gt;Node6</title>
<path fill="none" stroke="orange" d="M745.4,-539.46C745.62,-505.9 742.6,-445.87 721.5,-400 718.59,-393.66 714.42,-387.58 709.91,-382.08"/>
<polygon fill="orange" stroke="orange" points="741.91,-538.97 745.23,-549.03 748.91,-539.1 741.91,-538.97"/>
<text text-anchor="start" x="744.5" y="-515.5" font-family="Helvetica,sans-Serif" font-size="10.00"> &lt; std::shared_ptr&lt;</text>
<text text-anchor="start" x="744.5" y="-504.5" font-family="Helvetica,sans-Serif" font-size="10.00"> sgns::network::SyncProtocol</text>
<text text-anchor="middle" x="807" y="-493.5" font-family="Helvetica,sans-Serif" font-size="10.00">Client &gt; &gt;</text>
</g>
<!-- Node12&#45;&gt;Node1 -->
<g id="edge13" class="edge">
<title>Node12&#45;&gt;Node1</title>
<path fill="none" stroke="#404040" d="M362.5,-399.67C362.5,-374.79 362.5,-338.89 362.5,-307.5 362.5,-307.5 362.5,-307.5 362.5,-173.5 362.5,-150.78 354.46,-127.72 344.37,-107.72"/>
<polygon fill="none" stroke="#404040" points="344.35,-107.69 337.99,-104.3 338.67,-97.12 345.03,-100.51 344.35,-107.69"/>
<text text-anchor="middle" x="381" y="-265.5" font-family="Helvetica,sans-Serif" font-size="10.00"> &#45;logger_</text>
</g>
</g>
</svg>
        <g id="navigator" transform="translate(0 0)" fill="#404254">
                <rect fill="#f2f5e9" fill-opacity="0.5" stroke="#606060" stroke-width=".5" x="0" y="0" width="60" height="60"/>
                <use id="zoomplus" xlink:href="#zoomPlus" x="17" y="9" onmousedown="handleZoom(evt,'in')"/>
                <use id="zoomminus" xlink:href="#zoomMin" x="42" y="9" onmousedown="handleZoom(evt,'out')"/>
                <use id="reset" xlink:href="#resetDef" x="30" y="36" onmousedown="handleReset()"/>
                <g id="arrowUp" xlink:href="#dirArrow" transform="translate(30 24)" onmousedown="handlePan(0,-1)">
                  <use xlink:href="#rim" fill="#404040">
                        <set attributeName="fill" to="#808080" begin="arrowUp.mouseover" end="arrowUp.mouseout"/>
                  </use>
                  <path fill="none" stroke="white" stroke-width="1.5" d="M0,-3.0v7 M-2.5,-0.5L0,-3.0L2.5,-0.5"/>
                </g>
                <g id="arrowRight" xlink:href="#dirArrow" transform="rotate(90) translate(36 -43)" onmousedown="handlePan(1,0)">
                  <use xlink:href="#rim" fill="#404040">
                        <set attributeName="fill" to="#808080" begin="arrowRight.mouseover" end="arrowRight.mouseout"/>
                  </use>
                  <path fill="none" stroke="white" stroke-width="1.5" d="M0,-3.0v7 M-2.5,-0.5L0,-3.0L2.5,-0.5"/>
                </g>
                <g id="arrowDown" xlink:href="#dirArrow" transform="rotate(180) translate(-30 -48)" onmousedown="handlePan(0,1)">
                  <use xlink:href="#rim" fill="#404040">
                        <set attributeName="fill" to="#808080" begin="arrowDown.mouseover" end="arrowDown.mouseout"/>
                  </use>
                  <path fill="none" stroke="white" stroke-width="1.5" d="M0,-3.0v7 M-2.5,-0.5L0,-3.0L2.5,-0.5"/>
                </g>
                <g id="arrowLeft" xlink:href="#dirArrow" transform="rotate(270) translate(-36 17)" onmousedown="handlePan(-1,0)">
                  <use xlink:href="#rim" fill="#404040">
                        <set attributeName="fill" to="#808080" begin="arrowLeft.mouseover" end="arrowLeft.mouseout"/>
                  </use>
                  <path fill="none" stroke="white" stroke-width="1.5" d="M0,-3.0v7 M-2.5,-0.5L0,-3.0L2.5,-0.5"/>
                </g>
        </g>
        <svg viewBox="0 0 15 15" width="100%" height="30px" preserveAspectRatio="xMaxYMin meet">
         <g id="arrow_out" transform="scale(0.3 0.3)">
          <a xlink:href="classsgns_1_1verification_1_1_production_synchronizer_impl__coll__graph_org.svg" target="_base">
           <rect id="button" ry="5" rx="5" y="6" x="6" height="38" width="38"
                fill="#f2f5e9" fill-opacity="0.5" stroke="#606060" stroke-width="1.0"/>
           <path id="arrow"
             d="M 11.500037,31.436501 C 11.940474,20.09759 22.043105,11.32322 32.158766,21.979434 L 37.068811,17.246167 C 37.068811,17.246167 37.088388,32 37.088388,32 L 22.160133,31.978069 C 22.160133,31.978069 26.997745,27.140456 26.997745,27.140456 C 18.528582,18.264221 13.291696,25.230495 11.500037,31.436501 z"
             style="fill:#404040;"/>
          </a>
         </g>
        </svg>
</svg>
