<?xml version="1.0" encoding="UTF-8" standalone="no"?>
<!DOCTYPE svg PUBLIC "-//W3C//DTD SVG 1.1//EN"
 "http://www.w3.org/Graphics/SVG/1.1/DTD/svg11.dtd">
<!-- Generated by graphviz version 7.0.5 (20221223.1930)
 -->
<!-- Title: sgns::storage::trie::TrieStorageBackendBatch Pages: 1 -->
<svg width="240pt" height="535pt"
 viewBox="0.00 0.00 240.00 535.00" xmlns="http://www.w3.org/2000/svg" xmlns:xlink="http://www.w3.org/1999/xlink">
<g id="graph0" class="graph" transform="scale(1 1) rotate(0) translate(4 531)">
<title>sgns::storage::trie::TrieStorageBackendBatch</title>
<!-- Node1 -->
<g id="node1" class="node">
<title>Node1</title>
<g id="a_node1"><a xlink:title=" ">
<polygon fill="#999999" stroke="#666666" points="150,-151 0,-151 0,0 150,0 150,-151"/>
<text text-anchor="start" x="8" y="-139" font-family="Helvetica,sans-Serif" font-size="10.00">{sgns::storage::trie</text>
<text text-anchor="middle" x="75" y="-128" font-family="Helvetica,sans-Serif" font-size="10.00">::TrieStorageBackendBatch</text>
<text text-anchor="start" x="8" y="-117" font-family="Helvetica,sans-Serif" font-size="10.00">|&#45; storage_batch_</text>
<text text-anchor="start" x="8" y="-106" font-family="Helvetica,sans-Serif" font-size="10.00">&#45; node_prefix_</text>
<text text-anchor="start" x="8" y="-95" font-family="Helvetica,sans-Serif" font-size="10.00">|+ TrieStorageBackendBatch()</text>
<text text-anchor="start" x="8" y="-84" font-family="Helvetica,sans-Serif" font-size="10.00">+ ~TrieStorageBackendBatch()</text>
<text text-anchor="start" x="8" y="-73" font-family="Helvetica,sans-Serif" font-size="10.00">+ commit()</text>
<text text-anchor="start" x="8" y="-62" font-family="Helvetica,sans-Serif" font-size="10.00">+ put()</text>
<text text-anchor="start" x="8" y="-51" font-family="Helvetica,sans-Serif" font-size="10.00">+ put()</text>
<text text-anchor="start" x="8" y="-40" font-family="Helvetica,sans-Serif" font-size="10.00">+ remove()</text>
<text text-anchor="start" x="8" y="-29" font-family="Helvetica,sans-Serif" font-size="10.00">+ clear()</text>
<text text-anchor="start" x="8" y="-18" font-family="Helvetica,sans-Serif" font-size="10.00">&#45; prefixKey()</text>
<text text-anchor="middle" x="75" y="-7" font-family="Helvetica,sans-Serif" font-size="10.00">}</text>
</a>
</g>
</g>
<!-- Node2 -->
<g id="node2" class="node">
<title>Node2</title>
<g id="a_node2"><a xlink:href="structsgns_1_1storage_1_1face_1_1_write_batch.html" target="_top" xlink:title=" ">
<polygon fill="white" stroke="#666666" points="128.5,-262 21.5,-262 21.5,-188 128.5,-188 128.5,-262"/>
<text text-anchor="start" x="29.5" y="-250" font-family="Helvetica,sans-Serif" font-size="10.00">{sgns::storage::face</text>
<text text-anchor="start" x="29.5" y="-239" font-family="Helvetica,sans-Serif" font-size="10.00">::WriteBatch&lt; base::</text>
<text text-anchor="middle" x="75" y="-228" font-family="Helvetica,sans-Serif" font-size="10.00">Buffer, base::Buffer &gt;</text>
<text text-anchor="start" x="29.5" y="-217" font-family="Helvetica,sans-Serif" font-size="10.00">||+ commit()</text>
<text text-anchor="start" x="29.5" y="-206" font-family="Helvetica,sans-Serif" font-size="10.00">+ clear()</text>
<text text-anchor="middle" x="75" y="-195" font-family="Helvetica,sans-Serif" font-size="10.00">}</text>
</a>
</g>
</g>
<!-- Node2&#45;&gt;Node1 -->
<g id="edge1" class="edge">
<title>Node2&#45;&gt;Node1</title>
<path fill="none" stroke="#63b8ff" d="M75,-176.27C75,-168.32 75,-159.91 75,-151.47"/>
<polygon fill="none" stroke="#63b8ff" points="71.5,-176.03 75,-186.03 78.5,-176.03 71.5,-176.03"/>
</g>
<!-- Node3 -->
<g id="node3" class="node">
<title>Node3</title>
<g id="a_node3"><a xlink:href="structsgns_1_1storage_1_1face_1_1_writeable.html" target="_top" xlink:title="An mixin for modifiable map.">
<polygon fill="white" stroke="#666666" points="109.5,-405 8.5,-405 8.5,-320 109.5,-320 109.5,-405"/>
<text text-anchor="start" x="16.5" y="-393" font-family="Helvetica,sans-Serif" font-size="10.00">{sgns::storage::face</text>
<text text-anchor="middle" x="59" y="-382" font-family="Helvetica,sans-Serif" font-size="10.00">::Writeable&lt; K, V &gt;</text>
<text text-anchor="start" x="16.5" y="-371" font-family="Helvetica,sans-Serif" font-size="10.00">||+ ~Writeable()</text>
<text text-anchor="start" x="16.5" y="-360" font-family="Helvetica,sans-Serif" font-size="10.00">+ put()</text>
<text text-anchor="start" x="16.5" y="-349" font-family="Helvetica,sans-Serif" font-size="10.00">+ put()</text>
<text text-anchor="start" x="16.5" y="-338" font-family="Helvetica,sans-Serif" font-size="10.00">+ remove()</text>
<text text-anchor="middle" x="59" y="-327" font-family="Helvetica,sans-Serif" font-size="10.00">}</text>
</a>
</g>
</g>
<!-- Node3&#45;&gt;Node2 -->
<g id="edge2" class="edge">
<title>Node3&#45;&gt;Node2</title>
<path fill="none" stroke="#63b8ff" d="M65.24,-308.69C67.07,-293.19 69.03,-276.58 70.71,-262.35"/>
<polygon fill="none" stroke="#63b8ff" points="61.81,-307.9 64.11,-318.24 68.76,-308.72 61.81,-307.9"/>
</g>
<!-- Node4 -->
<g id="node4" class="node">
<title>Node4</title>
<g id="a_node4"><a xlink:href="structsgns_1_1storage_1_1face_1_1_write_batch.html" target="_top" xlink:title="An abstraction over a storage, which can be used for batch writes.">
<polygon fill="white" stroke="#666666" points="232,-394 128,-394 128,-331 232,-331 232,-394"/>
<text text-anchor="start" x="136" y="-382" font-family="Helvetica,sans-Serif" font-size="10.00">{sgns::storage::face</text>
<text text-anchor="middle" x="180" y="-371" font-family="Helvetica,sans-Serif" font-size="10.00">::WriteBatch&lt; K, V &gt;</text>
<text text-anchor="start" x="136" y="-360" font-family="Helvetica,sans-Serif" font-size="10.00">||+ commit()</text>
<text text-anchor="start" x="136" y="-349" font-family="Helvetica,sans-Serif" font-size="10.00">+ clear()</text>
<text text-anchor="middle" x="180" y="-338" font-family="Helvetica,sans-Serif" font-size="10.00">}</text>
</a>
</g>
</g>
<!-- Node4&#45;&gt;Node2 -->
<g id="edge3" class="edge">
<title>Node4&#45;&gt;Node2</title>
<path fill="none" stroke="orange" d="M149.27,-321.84C134.71,-303.05 117.43,-280.75 103.2,-262.4"/>
<polygon fill="orange" stroke="orange" points="146.35,-323.8 155.25,-329.56 151.89,-319.51 146.35,-323.8"/>
<text text-anchor="start" x="133" y="-294" font-family="Helvetica,sans-Serif" font-size="10.00"> &lt; base::Buffer, base</text>
<text text-anchor="middle" x="177" y="-283" font-family="Helvetica,sans-Serif" font-size="10.00">::Buffer &gt;</text>
</g>
<!-- Node5 -->
<g id="node5" class="node">
<title>Node5</title>
<g id="a_node5"><a xlink:href="structsgns_1_1storage_1_1face_1_1_writeable.html" target="_top" xlink:title="An mixin for modifiable map.">
<polygon fill="white" stroke="#666666" points="230.5,-527 129.5,-527 129.5,-442 230.5,-442 230.5,-527"/>
<text text-anchor="start" x="137.5" y="-515" font-family="Helvetica,sans-Serif" font-size="10.00">{sgns::storage::face</text>
<text text-anchor="middle" x="180" y="-504" font-family="Helvetica,sans-Serif" font-size="10.00">::Writeable&lt; K, V &gt;</text>
<text text-anchor="start" x="137.5" y="-493" font-family="Helvetica,sans-Serif" font-size="10.00">||+ ~Writeable()</text>
<text text-anchor="start" x="137.5" y="-482" font-family="Helvetica,sans-Serif" font-size="10.00">+ put()</text>
<text text-anchor="start" x="137.5" y="-471" font-family="Helvetica,sans-Serif" font-size="10.00">+ put()</text>
<text text-anchor="start" x="137.5" y="-460" font-family="Helvetica,sans-Serif" font-size="10.00">+ remove()</text>
<text text-anchor="middle" x="180" y="-449" font-family="Helvetica,sans-Serif" font-size="10.00">}</text>
</a>
</g>
</g>
<!-- Node5&#45;&gt;Node4 -->
<g id="edge4" class="edge">
<title>Node5&#45;&gt;Node4</title>
<path fill="none" stroke="#63b8ff" d="M180,-430.37C180,-418.03 180,-405.29 180,-394.29"/>
<polygon fill="none" stroke="#63b8ff" points="176.5,-430.02 180,-440.02 183.5,-430.02 176.5,-430.02"/>
</g>
</g>
</svg>
