<?xml version="1.0" encoding="UTF-8" standalone="no"?>
<!DOCTYPE svg PUBLIC "-//W3C//DTD SVG 1.1//EN"
 "http://www.w3.org/Graphics/SVG/1.1/DTD/svg11.dtd">
<!-- Generated by graphviz version 7.0.5 (20221223.1930)
 -->
<!-- Title: sgns::network::RemoteSyncProtocolClient Pages: 1 -->
<svg width="330pt" height="203pt"
 viewBox="0.00 0.00 330.00 203.00" xmlns="http://www.w3.org/2000/svg" xmlns:xlink="http://www.w3.org/1999/xlink">
<g id="graph0" class="graph" transform="scale(1 1) rotate(0) translate(4 199)">
<title>sgns::network::RemoteSyncProtocolClient</title>
<!-- Node1 -->
<g id="node1" class="node">
<title>Node1</title>
<g id="a_node1"><a xlink:title=" ">
<polygon fill="#999999" stroke="#666666" points="230.5,-96 81.5,-96 81.5,0 230.5,0 230.5,-96"/>
<text text-anchor="start" x="89.5" y="-84" font-family="Helvetica,sans-Serif" font-size="10.00">{sgns::network::RemoteSync</text>
<text text-anchor="middle" x="156" y="-73" font-family="Helvetica,sans-Serif" font-size="10.00">ProtocolClient</text>
<text text-anchor="start" x="89.5" y="-62" font-family="Helvetica,sans-Serif" font-size="10.00">|&#45; host_</text>
<text text-anchor="start" x="89.5" y="-51" font-family="Helvetica,sans-Serif" font-size="10.00">&#45; peer_info_</text>
<text text-anchor="start" x="89.5" y="-40" font-family="Helvetica,sans-Serif" font-size="10.00">&#45; log_</text>
<text text-anchor="start" x="89.5" y="-29" font-family="Helvetica,sans-Serif" font-size="10.00">|+ RemoteSyncProtocolClient()</text>
<text text-anchor="start" x="89.5" y="-18" font-family="Helvetica,sans-Serif" font-size="10.00">+ requestBlocks()</text>
<text text-anchor="middle" x="156" y="-7" font-family="Helvetica,sans-Serif" font-size="10.00">}</text>
</a>
</g>
</g>
<!-- Node2 -->
<g id="node2" class="node">
<title>Node2</title>
<g id="a_node2"><a xlink:href="structsgns_1_1network_1_1_sync_protocol_client.html" target="_top" xlink:title=" ">
<polygon fill="white" stroke="#666666" points="142,-195 0,-195 0,-132 142,-132 142,-195"/>
<text text-anchor="start" x="8" y="-183" font-family="Helvetica,sans-Serif" font-size="10.00">{sgns::network::SyncProtocol</text>
<text text-anchor="middle" x="71" y="-172" font-family="Helvetica,sans-Serif" font-size="10.00">Client</text>
<text text-anchor="start" x="8" y="-161" font-family="Helvetica,sans-Serif" font-size="10.00">||+ ~SyncProtocolClient()</text>
<text text-anchor="start" x="8" y="-150" font-family="Helvetica,sans-Serif" font-size="10.00">+ requestBlocks()</text>
<text text-anchor="middle" x="71" y="-139" font-family="Helvetica,sans-Serif" font-size="10.00">}</text>
</a>
</g>
</g>
<!-- Node2&#45;&gt;Node1 -->
<g id="edge1" class="edge">
<title>Node2&#45;&gt;Node1</title>
<path fill="none" stroke="#63b8ff" d="M100.73,-122.8C107.12,-114.27 113.93,-105.18 120.51,-96.39"/>
<polygon fill="none" stroke="#63b8ff" points="98.1,-120.47 94.91,-130.57 103.71,-124.67 98.1,-120.47"/>
</g>
<!-- Node3 -->
<g id="node3" class="node">
<title>Node3</title>
<g id="a_node3"><a xlink:title=" ">
<polygon fill="white" stroke="#666666" points="322,-189.5 160,-189.5 160,-137.5 322,-137.5 322,-189.5"/>
<text text-anchor="start" x="168" y="-177.5" font-family="Helvetica,sans-Serif" font-size="10.00">{std::enable_shared</text>
<text text-anchor="start" x="168" y="-166.5" font-family="Helvetica,sans-Serif" font-size="10.00">_from_this&lt; RemoteSyncProtocol</text>
<text text-anchor="middle" x="241" y="-155.5" font-family="Helvetica,sans-Serif" font-size="10.00">Client &gt;</text>
<text text-anchor="middle" x="241" y="-144.5" font-family="Helvetica,sans-Serif" font-size="10.00">||}</text>
</a>
</g>
</g>
<!-- Node3&#45;&gt;Node1 -->
<g id="edge2" class="edge">
<title>Node3&#45;&gt;Node1</title>
<path fill="none" stroke="#63b8ff" d="M215.06,-127.86C207.6,-117.9 199.34,-106.87 191.41,-96.29"/>
<polygon fill="none" stroke="#63b8ff" points="212.22,-129.91 221.02,-135.82 217.82,-125.71 212.22,-129.91"/>
</g>
</g>
</svg>
