<?xml version="1.0" encoding="UTF-8" standalone="no"?>
<!DOCTYPE svg PUBLIC "-//W3C//DTD SVG 1.1//EN"
 "http://www.w3.org/Graphics/SVG/1.1/DTD/svg11.dtd">
<!-- Generated by graphviz version 7.0.5 (20221223.1930)
 -->
<!-- Title: sgns::storage::trie::TopperTrieBatchImpl Pages: 1 -->
<!--zoomable 904 -->
<svg id="main" version="1.1" xmlns="http://www.w3.org/2000/svg" xmlns:xlink="http://www.w3.org/1999/xlink" xml:space="preserve" onload="init(evt)">
<style type="text/css"><![CDATA[
.edge:hover path { stroke: red; }
.edge:hover polygon { stroke: red; fill: red; }
]]></style>
<script type="text/javascript"><![CDATA[
var edges = document.getElementsByTagName('g');
if (edges && edges.length) {
  for (var i=0;i<edges.length;i++) {
    if (edges[i].id.substr(0,4)=='edge') {
      edges[i].setAttribute('class','edge');
    }
  }
}
]]></script>
        <defs>
                <circle id="rim" cx="0" cy="0" r="7"/>
                <circle id="rim2" cx="0" cy="0" r="3.5"/>
                <g id="zoomPlus">
                        <use xlink:href="#rim" fill="#404040">
                                <set attributeName="fill" to="#808080" begin="zoomplus.mouseover" end="zoomplus.mouseout"/>
                        </use>
                        <path d="M-4,0h8M0,-4v8" fill="none" stroke="white" stroke-width="1.5" pointer-events="none"/>
                </g>
                <g id="zoomMin">
                        <use xlink:href="#rim" fill="#404040">
                                <set attributeName="fill" to="#808080" begin="zoomminus.mouseover" end="zoomminus.mouseout"/>
                        </use>
                        <path d="M-4,0h8" fill="none" stroke="white" stroke-width="1.5" pointer-events="none"/>
                </g>
                <g id="dirArrow">
                        <path fill="none" stroke="white" stroke-width="1.5" d="M0,-3.0v7 M-2.5,-0.5L0,-3.0L2.5,-0.5"/>
                </g>
               <g id="resetDef">
                       <use xlink:href="#rim2" fill="#404040">
                               <set attributeName="fill" to="#808080" begin="reset.mouseover" end="reset.mouseout"/>
                       </use>
               </g>
        </defs>

<script type="text/javascript">
var viewWidth = 1156;
var viewHeight = 904;
var sectionId = 'dynsection-1';
</script>
<script xlink:href="svgpan.js"/>
<svg id="graph" class="graph">
<g id="viewport">
<title>sgns::storage::trie::TopperTrieBatchImpl</title>
<!-- Node1 -->
<g id="node1" class="node">
<title>Node1</title>
<g id="a_node1"><a xlink:title=" ">
<polygon fill="#999999" stroke="#666666" points="487.5,-162 361.5,-162 361.5,0 487.5,0 487.5,-162"/>
<text text-anchor="start" x="369.5" y="-150" font-family="Helvetica,sans-Serif" font-size="10.00">{sgns::storage::trie</text>
<text text-anchor="middle" x="424.5" y="-139" font-family="Helvetica,sans-Serif" font-size="10.00">::TopperTrieBatchImpl</text>
<text text-anchor="start" x="369.5" y="-128" font-family="Helvetica,sans-Serif" font-size="10.00">||+ TopperTrieBatchImpl()</text>
<text text-anchor="start" x="369.5" y="-117" font-family="Helvetica,sans-Serif" font-size="10.00">+ get()</text>
<text text-anchor="start" x="369.5" y="-106" font-family="Helvetica,sans-Serif" font-size="10.00">+ cursor()</text>
<text text-anchor="start" x="369.5" y="-95" font-family="Helvetica,sans-Serif" font-size="10.00">+ contains()</text>
<text text-anchor="start" x="369.5" y="-84" font-family="Helvetica,sans-Serif" font-size="10.00">+ empty()</text>
<text text-anchor="start" x="369.5" y="-73" font-family="Helvetica,sans-Serif" font-size="10.00">+ put()</text>
<text text-anchor="start" x="369.5" y="-62" font-family="Helvetica,sans-Serif" font-size="10.00">+ put()</text>
<text text-anchor="start" x="369.5" y="-51" font-family="Helvetica,sans-Serif" font-size="10.00">+ remove()</text>
<text text-anchor="start" x="369.5" y="-40" font-family="Helvetica,sans-Serif" font-size="10.00">+ clearPrefix()</text>
<text text-anchor="start" x="369.5" y="-29" font-family="Helvetica,sans-Serif" font-size="10.00">+ writeBack()</text>
<text text-anchor="start" x="369.5" y="-18" font-family="Helvetica,sans-Serif" font-size="10.00">&#45; wasClearedByPrefix()</text>
<text text-anchor="middle" x="424.5" y="-7" font-family="Helvetica,sans-Serif" font-size="10.00">}</text>
</a>
</g>
</g>
<!-- Node2 -->
<g id="node2" class="node">
<title>Node2</title>
<g id="a_node2"><a xlink:href="classsgns_1_1storage_1_1trie_1_1_topper_trie_batch.html" target="_top" xlink:title=" ">
<polygon fill="white" stroke="#666666" points="293,-266.5 198,-266.5 198,-214.5 293,-214.5 293,-266.5"/>
<text text-anchor="start" x="206" y="-254.5" font-family="Helvetica,sans-Serif" font-size="10.00">{sgns::storage::trie</text>
<text text-anchor="middle" x="245.5" y="-243.5" font-family="Helvetica,sans-Serif" font-size="10.00">::TopperTrieBatch</text>
<text text-anchor="start" x="206" y="-232.5" font-family="Helvetica,sans-Serif" font-size="10.00">||+ writeBack()</text>
<text text-anchor="middle" x="245.5" y="-221.5" font-family="Helvetica,sans-Serif" font-size="10.00">}</text>
</a>
</g>
</g>
<!-- Node2&#45;&gt;Node1 -->
<g id="edge1" class="edge">
<title>Node2&#45;&gt;Node1</title>
<path fill="none" stroke="#63b8ff" d="M282.9,-206.59C305.58,-186.64 335.09,-160.67 361.3,-137.61"/>
<polygon fill="none" stroke="#63b8ff" points="280.59,-203.96 275.4,-213.2 285.22,-209.22 280.59,-203.96"/>
</g>
<!-- Node3 -->
<g id="node3" class="node">
<title>Node3</title>
<g id="a_node3"><a xlink:href="classsgns_1_1storage_1_1trie_1_1_trie_batch.html" target="_top" xlink:title=" ">
<polygon fill="white" stroke="#666666" points="293,-437 198,-437 198,-374 293,-374 293,-437"/>
<text text-anchor="start" x="206" y="-425" font-family="Helvetica,sans-Serif" font-size="10.00">{sgns::storage::trie</text>
<text text-anchor="middle" x="245.5" y="-414" font-family="Helvetica,sans-Serif" font-size="10.00">::TrieBatch</text>
<text text-anchor="start" x="206" y="-403" font-family="Helvetica,sans-Serif" font-size="10.00">||+ ~TrieBatch()</text>
<text text-anchor="start" x="206" y="-392" font-family="Helvetica,sans-Serif" font-size="10.00">+ clearPrefix()</text>
<text text-anchor="middle" x="245.5" y="-381" font-family="Helvetica,sans-Serif" font-size="10.00">}</text>
</a>
</g>
</g>
<!-- Node3&#45;&gt;Node2 -->
<g id="edge2" class="edge">
<title>Node3&#45;&gt;Node2</title>
<path fill="none" stroke="#63b8ff" d="M245.5,-362.37C245.5,-332.15 245.5,-292.44 245.5,-266.94"/>
<polygon fill="none" stroke="#63b8ff" points="242,-362.33 245.5,-372.33 249,-362.33 242,-362.33"/>
</g>
<!-- Node22 -->
<g id="node22" class="node">
<title>Node22</title>
<g id="a_node22"><a xlink:title=" ">
<polygon fill="white" stroke="#666666" points="437.5,-266.5 311.5,-266.5 311.5,-214.5 437.5,-214.5 437.5,-266.5"/>
<text text-anchor="start" x="319.5" y="-254.5" font-family="Helvetica,sans-Serif" font-size="10.00">{std::weak_ptr&lt; sgns</text>
<text text-anchor="middle" x="374.5" y="-243.5" font-family="Helvetica,sans-Serif" font-size="10.00">::storage::trie::TrieBatch &gt;</text>
<text text-anchor="start" x="319.5" y="-232.5" font-family="Helvetica,sans-Serif" font-size="10.00">||+ operator&#45;&gt;()</text>
<text text-anchor="middle" x="374.5" y="-221.5" font-family="Helvetica,sans-Serif" font-size="10.00">}</text>
</a>
</g>
</g>
<!-- Node3&#45;&gt;Node22 -->
<g id="edge25" class="edge">
<title>Node3&#45;&gt;Node22</title>
<path fill="none" stroke="#404040" d="M269.76,-373.84C291.54,-346.33 323.5,-305.94 346.39,-277.02"/>
<polygon fill="none" stroke="#404040" points="346.36,-277.05 346.95,-269.87 353.81,-267.64 353.22,-274.83 346.36,-277.05"/>
<text text-anchor="middle" x="342.5" y="-293" font-family="Helvetica,sans-Serif" font-size="10.00"> +ptr</text>
</g>
<!-- Node4 -->
<g id="node4" class="node">
<title>Node4</title>
<g id="a_node4"><a xlink:href="structsgns_1_1storage_1_1face_1_1_readable.html" target="_top" xlink:title=" ">
<polygon fill="white" stroke="#666666" points="101,-657 0,-657 0,-561 101,-561 101,-657"/>
<text text-anchor="start" x="8" y="-645" font-family="Helvetica,sans-Serif" font-size="10.00">{sgns::storage::face</text>
<text text-anchor="start" x="8" y="-634" font-family="Helvetica,sans-Serif" font-size="10.00">::Readable&lt; Buffer,</text>
<text text-anchor="middle" x="50.5" y="-623" font-family="Helvetica,sans-Serif" font-size="10.00"> Buffer &gt;</text>
<text text-anchor="start" x="8" y="-612" font-family="Helvetica,sans-Serif" font-size="10.00">||+ ~Readable()</text>
<text text-anchor="start" x="8" y="-601" font-family="Helvetica,sans-Serif" font-size="10.00">+ get()</text>
<text text-anchor="start" x="8" y="-590" font-family="Helvetica,sans-Serif" font-size="10.00">+ contains()</text>
<text text-anchor="start" x="8" y="-579" font-family="Helvetica,sans-Serif" font-size="10.00">+ empty()</text>
<text text-anchor="middle" x="50.5" y="-568" font-family="Helvetica,sans-Serif" font-size="10.00">}</text>
</a>
</g>
</g>
<!-- Node4&#45;&gt;Node3 -->
<g id="edge3" class="edge">
<title>Node4&#45;&gt;Node3</title>
<path fill="none" stroke="#63b8ff" d="M104.42,-552.28C140.3,-515.2 186.1,-467.88 215.61,-437.39"/>
<polygon fill="none" stroke="#63b8ff" points="101.96,-549.79 97.52,-559.41 106.99,-554.66 101.96,-549.79"/>
</g>
<!-- Node5 -->
<g id="node5" class="node">
<title>Node5</title>
<g id="a_node5"><a xlink:href="structsgns_1_1storage_1_1face_1_1_readable.html" target="_top" xlink:title="A mixin for read&#45;only map.">
<polygon fill="white" stroke="#666666" points="101,-819 0,-819 0,-734 101,-734 101,-819"/>
<text text-anchor="start" x="8" y="-807" font-family="Helvetica,sans-Serif" font-size="10.00">{sgns::storage::face</text>
<text text-anchor="middle" x="50.5" y="-796" font-family="Helvetica,sans-Serif" font-size="10.00">::Readable&lt; K, V &gt;</text>
<text text-anchor="start" x="8" y="-785" font-family="Helvetica,sans-Serif" font-size="10.00">||+ ~Readable()</text>
<text text-anchor="start" x="8" y="-774" font-family="Helvetica,sans-Serif" font-size="10.00">+ get()</text>
<text text-anchor="start" x="8" y="-763" font-family="Helvetica,sans-Serif" font-size="10.00">+ contains()</text>
<text text-anchor="start" x="8" y="-752" font-family="Helvetica,sans-Serif" font-size="10.00">+ empty()</text>
<text text-anchor="middle" x="50.5" y="-741" font-family="Helvetica,sans-Serif" font-size="10.00">}</text>
</a>
</g>
</g>
<!-- Node5&#45;&gt;Node4 -->
<g id="edge4" class="edge">
<title>Node5&#45;&gt;Node4</title>
<path fill="none" stroke="orange" d="M50.5,-722.45C50.5,-701.51 50.5,-677.65 50.5,-657.31"/>
<polygon fill="orange" stroke="orange" points="47,-722.22 50.5,-732.22 54,-722.22 47,-722.22"/>
<text text-anchor="middle" x="88.5" y="-693" font-family="Helvetica,sans-Serif" font-size="10.00"> &lt; Buffer, Buffer &gt;</text>
</g>
<!-- Node6 -->
<g id="node6" class="node">
<title>Node6</title>
<g id="a_node6"><a xlink:href="structsgns_1_1storage_1_1face_1_1_writeable.html" target="_top" xlink:title=" ">
<polygon fill="white" stroke="#666666" points="220,-657 119,-657 119,-561 220,-561 220,-657"/>
<text text-anchor="start" x="127" y="-645" font-family="Helvetica,sans-Serif" font-size="10.00">{sgns::storage::face</text>
<text text-anchor="start" x="127" y="-634" font-family="Helvetica,sans-Serif" font-size="10.00">::Writeable&lt; Buffer,</text>
<text text-anchor="middle" x="169.5" y="-623" font-family="Helvetica,sans-Serif" font-size="10.00"> Buffer &gt;</text>
<text text-anchor="start" x="127" y="-612" font-family="Helvetica,sans-Serif" font-size="10.00">||+ ~Writeable()</text>
<text text-anchor="start" x="127" y="-601" font-family="Helvetica,sans-Serif" font-size="10.00">+ put()</text>
<text text-anchor="start" x="127" y="-590" font-family="Helvetica,sans-Serif" font-size="10.00">+ put()</text>
<text text-anchor="start" x="127" y="-579" font-family="Helvetica,sans-Serif" font-size="10.00">+ remove()</text>
<text text-anchor="middle" x="169.5" y="-568" font-family="Helvetica,sans-Serif" font-size="10.00">}</text>
</a>
</g>
</g>
<!-- Node6&#45;&gt;Node3 -->
<g id="edge5" class="edge">
<title>Node6&#45;&gt;Node3</title>
<path fill="none" stroke="#63b8ff" d="M191.4,-549.93C205.25,-513.22 222.59,-467.24 233.85,-437.39"/>
<polygon fill="none" stroke="#63b8ff" points="188.2,-548.49 187.95,-559.09 194.75,-550.96 188.2,-548.49"/>
</g>
<!-- Node7 -->
<g id="node7" class="node">
<title>Node7</title>
<g id="a_node7"><a xlink:href="structsgns_1_1storage_1_1face_1_1_writeable.html" target="_top" xlink:title="An mixin for modifiable map.">
<polygon fill="white" stroke="#666666" points="220,-819 119,-819 119,-734 220,-734 220,-819"/>
<text text-anchor="start" x="127" y="-807" font-family="Helvetica,sans-Serif" font-size="10.00">{sgns::storage::face</text>
<text text-anchor="middle" x="169.5" y="-796" font-family="Helvetica,sans-Serif" font-size="10.00">::Writeable&lt; K, V &gt;</text>
<text text-anchor="start" x="127" y="-785" font-family="Helvetica,sans-Serif" font-size="10.00">||+ ~Writeable()</text>
<text text-anchor="start" x="127" y="-774" font-family="Helvetica,sans-Serif" font-size="10.00">+ put()</text>
<text text-anchor="start" x="127" y="-763" font-family="Helvetica,sans-Serif" font-size="10.00">+ put()</text>
<text text-anchor="start" x="127" y="-752" font-family="Helvetica,sans-Serif" font-size="10.00">+ remove()</text>
<text text-anchor="middle" x="169.5" y="-741" font-family="Helvetica,sans-Serif" font-size="10.00">}</text>
</a>
</g>
</g>
<!-- Node7&#45;&gt;Node6 -->
<g id="edge6" class="edge">
<title>Node7&#45;&gt;Node6</title>
<path fill="none" stroke="orange" d="M169.5,-722.45C169.5,-701.51 169.5,-677.65 169.5,-657.31"/>
<polygon fill="orange" stroke="orange" points="166,-722.22 169.5,-732.22 173,-722.22 166,-722.22"/>
<text text-anchor="middle" x="207.5" y="-693" font-family="Helvetica,sans-Serif" font-size="10.00"> &lt; Buffer, Buffer &gt;</text>
</g>
<!-- Node8 -->
<g id="node8" class="node">
<title>Node8</title>
<g id="a_node8"><a xlink:href="structsgns_1_1storage_1_1face_1_1_iterable.html" target="_top" xlink:title=" ">
<polygon fill="white" stroke="#666666" points="339,-646 238,-646 238,-572 339,-572 339,-646"/>
<text text-anchor="start" x="246" y="-634" font-family="Helvetica,sans-Serif" font-size="10.00">{sgns::storage::face</text>
<text text-anchor="start" x="246" y="-623" font-family="Helvetica,sans-Serif" font-size="10.00">::Iterable&lt; Buffer,</text>
<text text-anchor="middle" x="288.5" y="-612" font-family="Helvetica,sans-Serif" font-size="10.00"> Buffer &gt;</text>
<text text-anchor="start" x="246" y="-601" font-family="Helvetica,sans-Serif" font-size="10.00">||+ ~Iterable()</text>
<text text-anchor="start" x="246" y="-590" font-family="Helvetica,sans-Serif" font-size="10.00">+ cursor()</text>
<text text-anchor="middle" x="288.5" y="-579" font-family="Helvetica,sans-Serif" font-size="10.00">}</text>
</a>
</g>
</g>
<!-- Node8&#45;&gt;Node3 -->
<g id="edge7" class="edge">
<title>Node8&#45;&gt;Node3</title>
<path fill="none" stroke="#63b8ff" d="M278.41,-560.69C270.29,-522.65 259.11,-470.3 252.1,-437.44"/>
<polygon fill="none" stroke="#63b8ff" points="274.89,-560.98 280.4,-570.03 281.73,-559.52 274.89,-560.98"/>
</g>
<!-- Node9 -->
<g id="node9" class="node">
<title>Node9</title>
<g id="a_node9"><a xlink:href="structsgns_1_1storage_1_1face_1_1_iterable.html" target="_top" xlink:title="A mixin for an iterable map.">
<polygon fill="white" stroke="#666666" points="339,-808 238,-808 238,-745 339,-745 339,-808"/>
<text text-anchor="start" x="246" y="-796" font-family="Helvetica,sans-Serif" font-size="10.00">{sgns::storage::face</text>
<text text-anchor="middle" x="288.5" y="-785" font-family="Helvetica,sans-Serif" font-size="10.00">::Iterable&lt; K, V &gt;</text>
<text text-anchor="start" x="246" y="-774" font-family="Helvetica,sans-Serif" font-size="10.00">||+ ~Iterable()</text>
<text text-anchor="start" x="246" y="-763" font-family="Helvetica,sans-Serif" font-size="10.00">+ cursor()</text>
<text text-anchor="middle" x="288.5" y="-752" font-family="Helvetica,sans-Serif" font-size="10.00">}</text>
</a>
</g>
</g>
<!-- Node9&#45;&gt;Node8 -->
<g id="edge8" class="edge">
<title>Node9&#45;&gt;Node8</title>
<path fill="none" stroke="orange" d="M285.33,-733.53C284.98,-727.65 284.69,-721.67 284.5,-716 283.89,-697.79 283.94,-693.21 284.5,-675 284.78,-665.73 285.3,-655.73 285.86,-646.42"/>
<polygon fill="orange" stroke="orange" points="281.81,-733.37 285.93,-743.13 288.79,-732.93 281.81,-733.37"/>
<text text-anchor="middle" x="322.5" y="-693" font-family="Helvetica,sans-Serif" font-size="10.00"> &lt; Buffer, Buffer &gt;</text>
</g>
<!-- Node10 -->
<g id="node10" class="node">
<title>Node10</title>
<g id="a_node10"><a xlink:title=" ">
<polygon fill="white" stroke="#666666" points="573.5,-272 455.5,-272 455.5,-209 573.5,-209 573.5,-272"/>
<text text-anchor="start" x="463.5" y="-260" font-family="Helvetica,sans-Serif" font-size="10.00">{std::map&lt; sgns::base</text>
<text text-anchor="start" x="463.5" y="-249" font-family="Helvetica,sans-Serif" font-size="10.00">::Buffer, boost::optional</text>
<text text-anchor="middle" x="514.5" y="-238" font-family="Helvetica,sans-Serif" font-size="10.00">&lt; sgns::base::Buffer &gt; &gt;</text>
<text text-anchor="start" x="463.5" y="-227" font-family="Helvetica,sans-Serif" font-size="10.00">|+ elements</text>
<text text-anchor="middle" x="514.5" y="-216" font-family="Helvetica,sans-Serif" font-size="10.00">|}</text>
</a>
</g>
</g>
<!-- Node10&#45;&gt;Node1 -->
<g id="edge9" class="edge">
<title>Node10&#45;&gt;Node1</title>
<path fill="none" stroke="#404040" d="M496.93,-208.76C491,-198.37 484.03,-186.19 476.81,-173.55"/>
<polygon fill="none" stroke="#404040" points="476.82,-173.56 470.37,-170.33 470.86,-163.14 477.31,-166.36 476.82,-173.56"/>
<text text-anchor="middle" x="503" y="-183" font-family="Helvetica,sans-Serif" font-size="10.00"> &#45;cache_</text>
</g>
<!-- Node11 -->
<g id="node11" class="node">
<title>Node11</title>
<g id="a_node11"><a xlink:href="classsgns_1_1base_1_1_buffer.html" target="_top" xlink:title="Class represents arbitrary (including empty) byte buffer.">
<polygon fill="white" stroke="#666666" points="784.5,-492 688.5,-492 688.5,-319 784.5,-319 784.5,-492"/>
<text text-anchor="middle" x="736.5" y="-480" font-family="Helvetica,sans-Serif" font-size="10.00">{sgns::base::Buffer</text>
<text text-anchor="start" x="696.5" y="-469" font-family="Helvetica,sans-Serif" font-size="10.00">||+ Buffer()</text>
<text text-anchor="start" x="696.5" y="-458" font-family="Helvetica,sans-Serif" font-size="10.00">+ ~Buffer()</text>
<text text-anchor="start" x="696.5" y="-447" font-family="Helvetica,sans-Serif" font-size="10.00">+ Buffer()</text>
<text text-anchor="start" x="696.5" y="-436" font-family="Helvetica,sans-Serif" font-size="10.00">+ Buffer()</text>
<text text-anchor="start" x="696.5" y="-425" font-family="Helvetica,sans-Serif" font-size="10.00">+ Buffer()</text>
<text text-anchor="start" x="696.5" y="-414" font-family="Helvetica,sans-Serif" font-size="10.00">+ Buffer()</text>
<text text-anchor="start" x="696.5" y="-403" font-family="Helvetica,sans-Serif" font-size="10.00">+ Buffer()</text>
<text text-anchor="start" x="696.5" y="-392" font-family="Helvetica,sans-Serif" font-size="10.00">+ Buffer()</text>
<text text-anchor="start" x="696.5" y="-381" font-family="Helvetica,sans-Serif" font-size="10.00">+ Buffer()</text>
<text text-anchor="start" x="696.5" y="-370" font-family="Helvetica,sans-Serif" font-size="10.00">+ reserve()</text>
<text text-anchor="start" x="696.5" y="-359" font-family="Helvetica,sans-Serif" font-size="10.00">and 32 more...</text>
<text text-anchor="start" x="696.5" y="-348" font-family="Helvetica,sans-Serif" font-size="10.00">+ fromHex()</text>
<text text-anchor="start" x="696.5" y="-337" font-family="Helvetica,sans-Serif" font-size="10.00">&#45; putRange()</text>
<text text-anchor="middle" x="736.5" y="-326" font-family="Helvetica,sans-Serif" font-size="10.00">}</text>
</a>
</g>
</g>
<!-- Node11&#45;&gt;Node10 -->
<g id="edge10" class="edge">
<title>Node11&#45;&gt;Node10</title>
<path fill="none" stroke="#404040" d="M688.06,-368.93C652.29,-342.67 603.66,-306.97 566.98,-280.03"/>
<polygon fill="none" stroke="#404040" points="566.89,-279.96 559.68,-279.64 557.21,-272.86 564.42,-273.19 566.89,-279.96"/>
<text text-anchor="middle" x="607" y="-293" font-family="Helvetica,sans-Serif" font-size="10.00"> +keys</text>
</g>
<!-- Node20 -->
<g id="node20" class="node">
<title>Node20</title>
<g id="a_node20"><a xlink:title=" ">
<polygon fill="white" stroke="#666666" points="789,-261 684,-261 684,-220 789,-220 789,-261"/>
<text text-anchor="start" x="692" y="-249" font-family="Helvetica,sans-Serif" font-size="10.00">{std::list&lt; sgns::base</text>
<text text-anchor="middle" x="736.5" y="-238" font-family="Helvetica,sans-Serif" font-size="10.00">::Buffer &gt;</text>
<text text-anchor="middle" x="736.5" y="-227" font-family="Helvetica,sans-Serif" font-size="10.00">||}</text>
</a>
</g>
</g>
<!-- Node11&#45;&gt;Node20 -->
<g id="edge21" class="edge">
<title>Node11&#45;&gt;Node20</title>
<path fill="none" stroke="#404040" d="M736.5,-318.7C736.5,-302.93 736.5,-287.38 736.5,-274.41"/>
<polygon fill="none" stroke="#404040" points="736.5,-274.36 732.5,-268.36 736.5,-262.36 740.5,-268.36 736.5,-274.36"/>
<text text-anchor="middle" x="761" y="-293" font-family="Helvetica,sans-Serif" font-size="10.00"> +elements</text>
</g>
<!-- Node12 -->
<g id="node12" class="node">
<title>Node12</title>
<g id="a_node12"><a xlink:title=" ">
<polygon fill="white" stroke="#666666" points="1089,-629.5 952,-629.5 952,-588.5 1089,-588.5 1089,-629.5"/>
<text text-anchor="start" x="960" y="-617.5" font-family="Helvetica,sans-Serif" font-size="10.00">{boost::equality_comparable</text>
<text text-anchor="middle" x="1020.5" y="-606.5" font-family="Helvetica,sans-Serif" font-size="10.00">&lt; Buffer &gt;</text>
<text text-anchor="middle" x="1020.5" y="-595.5" font-family="Helvetica,sans-Serif" font-size="10.00">||}</text>
</a>
</g>
</g>
<!-- Node12&#45;&gt;Node11 -->
<g id="edge11" class="edge">
<title>Node12&#45;&gt;Node11</title>
<path fill="none" stroke="#63b8ff" d="M983.17,-581.51C932.22,-545.36 840.86,-480.55 784.77,-440.75"/>
<polygon fill="none" stroke="#63b8ff" points="981.08,-584.32 991.26,-587.25 985.13,-578.61 981.08,-584.32"/>
</g>
<!-- Node13 -->
<g id="node13" class="node">
<title>Node13</title>
<g id="a_node13"><a xlink:title=" ">
<polygon fill="white" stroke="#666666" points="650,-629.5 513,-629.5 513,-588.5 650,-588.5 650,-629.5"/>
<text text-anchor="start" x="521" y="-617.5" font-family="Helvetica,sans-Serif" font-size="10.00">{boost::equality_comparable</text>
<text text-anchor="middle" x="581.5" y="-606.5" font-family="Helvetica,sans-Serif" font-size="10.00">&lt; gsl::span&lt; uint8_t &gt; &gt;</text>
<text text-anchor="middle" x="581.5" y="-595.5" font-family="Helvetica,sans-Serif" font-size="10.00">||}</text>
</a>
</g>
</g>
<!-- Node13&#45;&gt;Node11 -->
<g id="edge12" class="edge">
<title>Node13&#45;&gt;Node11</title>
<path fill="none" stroke="#63b8ff" d="M603.58,-579.3C625.51,-550.78 659.86,-506.13 688.15,-469.35"/>
<polygon fill="none" stroke="#63b8ff" points="600.89,-577.05 597.57,-587.11 606.44,-581.32 600.89,-577.05"/>
</g>
<!-- Node14 -->
<g id="node14" class="node">
<title>Node14</title>
<g id="a_node14"><a xlink:title=" ">
<polygon fill="white" stroke="#666666" points="805,-629.5 668,-629.5 668,-588.5 805,-588.5 805,-629.5"/>
<text text-anchor="start" x="676" y="-617.5" font-family="Helvetica,sans-Serif" font-size="10.00">{boost::equality_comparable</text>
<text text-anchor="middle" x="736.5" y="-606.5" font-family="Helvetica,sans-Serif" font-size="10.00">&lt; std::vector&lt; uint8_t &gt; &gt;</text>
<text text-anchor="middle" x="736.5" y="-595.5" font-family="Helvetica,sans-Serif" font-size="10.00">||}</text>
</a>
</g>
</g>
<!-- Node14&#45;&gt;Node11 -->
<g id="edge13" class="edge">
<title>Node14&#45;&gt;Node11</title>
<path fill="none" stroke="#63b8ff" d="M736.5,-577.06C736.5,-554.4 736.5,-522.47 736.5,-492.36"/>
<polygon fill="none" stroke="#63b8ff" points="733,-576.8 736.5,-586.8 740,-576.8 733,-576.8"/>
</g>
<!-- Node15 -->
<g id="node15" class="node">
<title>Node15</title>
<g id="a_node15"><a xlink:title=" ">
<polygon fill="white" stroke="#666666" points="933.5,-629.5 823.5,-629.5 823.5,-588.5 933.5,-588.5 933.5,-629.5"/>
<text text-anchor="middle" x="878.5" y="-617.5" font-family="Helvetica,sans-Serif" font-size="10.00">{std::vector&lt; uint8_t &gt;</text>
<text text-anchor="start" x="831.5" y="-606.5" font-family="Helvetica,sans-Serif" font-size="10.00">|+ elements</text>
<text text-anchor="middle" x="878.5" y="-595.5" font-family="Helvetica,sans-Serif" font-size="10.00">|}</text>
</a>
</g>
</g>
<!-- Node15&#45;&gt;Node11 -->
<g id="edge14" class="edge">
<title>Node15&#45;&gt;Node11</title>
<path fill="none" stroke="#404040" d="M864.63,-588.31C847.85,-564.51 818.58,-522.97 792.25,-485.61"/>
<polygon fill="none" stroke="#404040" points="792.34,-485.74 785.62,-483.14 785.43,-475.94 792.16,-478.54 792.34,-485.74"/>
<text text-anchor="middle" x="847.5" y="-524" font-family="Helvetica,sans-Serif" font-size="10.00"> &#45;data_</text>
</g>
<!-- Node16 -->
<g id="node16" class="node">
<title>Node16</title>
<g id="a_node16"><a xlink:title=" ">
<polygon fill="white" stroke="#666666" points="881,-791.5 794,-791.5 794,-761.5 881,-761.5 881,-791.5"/>
<text text-anchor="middle" x="837.5" y="-779.5" font-family="Helvetica,sans-Serif" font-size="10.00">{std::vector&lt; T &gt;</text>
<text text-anchor="middle" x="837.5" y="-768.5" font-family="Helvetica,sans-Serif" font-size="10.00">||}</text>
</a>
</g>
</g>
<!-- Node16&#45;&gt;Node15 -->
<g id="edge15" class="edge">
<title>Node16&#45;&gt;Node15</title>
<path fill="none" stroke="orange" d="M843.79,-750.1C851.99,-717.01 866.15,-659.85 873.6,-629.79"/>
<polygon fill="orange" stroke="orange" points="840.44,-749.09 841.43,-759.63 847.23,-750.77 840.44,-749.09"/>
<text text-anchor="middle" x="886" y="-693" font-family="Helvetica,sans-Serif" font-size="10.00"> &lt; uint8_t &gt;</text>
</g>
<!-- Node17 -->
<g id="node17" class="node">
<title>Node17</title>
<g id="a_node17"><a xlink:title=" ">
<polygon fill="white" stroke="#666666" points="689,-896 660,-896 660,-866 689,-866 689,-896"/>
<text text-anchor="middle" x="674.5" y="-884" font-family="Helvetica,sans-Serif" font-size="10.00">{T</text>
<text text-anchor="middle" x="674.5" y="-873" font-family="Helvetica,sans-Serif" font-size="10.00">||}</text>
</a>
</g>
</g>
<!-- Node17&#45;&gt;Node16 -->
<g id="edge16" class="edge">
<title>Node17&#45;&gt;Node16</title>
<path fill="none" stroke="#404040" d="M689.25,-870.72C714.99,-854.54 768.72,-820.75 803.93,-798.61"/>
<polygon fill="none" stroke="#404040" points="803.73,-798.74 806.68,-792.16 813.89,-792.35 810.94,-798.93 803.73,-798.74"/>
<text text-anchor="middle" x="765" y="-840" font-family="Helvetica,sans-Serif" font-size="10.00"> +elements</text>
</g>
<!-- Node18 -->
<g id="node18" class="node">
<title>Node18</title>
<g id="a_node18"><a xlink:title=" ">
<polygon fill="white" stroke="#666666" points="559,-791.5 468,-791.5 468,-761.5 559,-761.5 559,-791.5"/>
<text text-anchor="middle" x="513.5" y="-779.5" font-family="Helvetica,sans-Serif" font-size="10.00">{std::map&lt; K, T &gt;</text>
<text text-anchor="middle" x="513.5" y="-768.5" font-family="Helvetica,sans-Serif" font-size="10.00">||}</text>
</a>
</g>
</g>
<!-- Node17&#45;&gt;Node18 -->
<g id="edge19" class="edge">
<title>Node17&#45;&gt;Node18</title>
<path fill="none" stroke="#404040" d="M659.64,-870.54C634.25,-854.38 581.91,-821.06 547.26,-798.99"/>
<polygon fill="none" stroke="#404040" points="547.13,-798.91 539.92,-799.06 537.01,-792.47 544.22,-792.31 547.13,-798.91"/>
<text text-anchor="middle" x="646" y="-840" font-family="Helvetica,sans-Serif" font-size="10.00"> +elements</text>
</g>
<!-- Node21 -->
<g id="node21" class="node">
<title>Node21</title>
<g id="a_node21"><a xlink:title=" ">
<polygon fill="white" stroke="#666666" points="1131,-541.5 1058,-541.5 1058,-511.5 1131,-511.5 1131,-541.5"/>
<text text-anchor="middle" x="1094.5" y="-529.5" font-family="Helvetica,sans-Serif" font-size="10.00">{std::list&lt; T &gt;</text>
<text text-anchor="middle" x="1094.5" y="-518.5" font-family="Helvetica,sans-Serif" font-size="10.00">||}</text>
</a>
</g>
</g>
<!-- Node17&#45;&gt;Node21 -->
<g id="edge23" class="edge">
<title>Node17&#45;&gt;Node21</title>
<path fill="none" stroke="#404040" d="M689.32,-878.21C754.6,-869.38 1016.89,-824.01 1098.5,-657 1114.47,-624.32 1108.67,-581.27 1102.23,-553.98"/>
<polygon fill="none" stroke="#404040" points="1102.26,-554.1 1096.88,-549.31 1099.24,-542.49 1104.62,-547.29 1102.26,-554.1"/>
<text text-anchor="middle" x="1064" y="-774" font-family="Helvetica,sans-Serif" font-size="10.00"> +elements</text>
</g>
<!-- Node23 -->
<g id="node23" class="node">
<title>Node23</title>
<g id="a_node23"><a xlink:title=" ">
<polygon fill="white" stroke="#666666" points="469.5,-716 369.5,-716 369.5,-675 469.5,-675 469.5,-716"/>
<text text-anchor="middle" x="419.5" y="-704" font-family="Helvetica,sans-Serif" font-size="10.00">{std::weak_ptr&lt; T &gt;</text>
<text text-anchor="start" x="377.5" y="-693" font-family="Helvetica,sans-Serif" font-size="10.00">||+ operator&#45;&gt;()</text>
<text text-anchor="middle" x="419.5" y="-682" font-family="Helvetica,sans-Serif" font-size="10.00">}</text>
</a>
</g>
</g>
<!-- Node17&#45;&gt;Node23 -->
<g id="edge27" class="edge">
<title>Node17&#45;&gt;Node23</title>
<path fill="none" stroke="#404040" d="M659.67,-880.32C627.04,-880.41 547.33,-877.37 489.5,-848 445.67,-825.74 429.19,-766.44 423.06,-728.98"/>
<polygon fill="none" stroke="#404040" points="423.07,-729.04 418.26,-723.67 421.37,-717.16 426.18,-722.53 423.07,-729.04"/>
<text text-anchor="middle" x="499.5" y="-840" font-family="Helvetica,sans-Serif" font-size="10.00"> +ptr</text>
</g>
<!-- Node18&#45;&gt;Node10 -->
<g id="edge17" class="edge">
<title>Node18&#45;&gt;Node10</title>
<path fill="none" stroke="orange" d="M511,-750.03C508.79,-726.05 505.72,-689.13 504.5,-657 499.05,-513.15 508.17,-341.17 512.46,-272.26"/>
<polygon fill="orange" stroke="orange" points="507.5,-750.16 511.93,-759.79 514.47,-749.5 507.5,-750.16"/>
<text text-anchor="start" x="502.5" y="-535" font-family="Helvetica,sans-Serif" font-size="10.00"> &lt; sgns::base::Buffer,</text>
<text text-anchor="start" x="502.5" y="-524" font-family="Helvetica,sans-Serif" font-size="10.00"> boost::optional&lt; sgns</text>
<text text-anchor="middle" x="549.5" y="-513" font-family="Helvetica,sans-Serif" font-size="10.00">::base::Buffer &gt; &gt;</text>
</g>
<!-- Node19 -->
<g id="node19" class="node">
<title>Node19</title>
<g id="a_node19"><a xlink:title=" ">
<polygon fill="white" stroke="#666666" points="528,-896 499,-896 499,-866 528,-866 528,-896"/>
<text text-anchor="middle" x="513.5" y="-884" font-family="Helvetica,sans-Serif" font-size="10.00">{K</text>
<text text-anchor="middle" x="513.5" y="-873" font-family="Helvetica,sans-Serif" font-size="10.00">||}</text>
</a>
</g>
</g>
<!-- Node19&#45;&gt;Node18 -->
<g id="edge18" class="edge">
<title>Node19&#45;&gt;Node18</title>
<path fill="none" stroke="#404040" d="M513.5,-865.75C513.5,-850.08 513.5,-824.53 513.5,-804.94"/>
<polygon fill="none" stroke="#404040" points="513.5,-804.86 509.5,-798.86 513.5,-792.86 517.5,-798.86 513.5,-804.86"/>
<text text-anchor="middle" x="528" y="-840" font-family="Helvetica,sans-Serif" font-size="10.00"> +keys</text>
</g>
<!-- Node20&#45;&gt;Node1 -->
<g id="edge20" class="edge">
<title>Node20&#45;&gt;Node1</title>
<path fill="none" stroke="#404040" d="M696.98,-219.55C647.43,-194.54 561.45,-151.13 499.31,-119.76"/>
<polygon fill="none" stroke="#404040" points="499.51,-119.87 492.35,-120.73 488.8,-114.46 495.96,-113.59 499.51,-119.87"/>
<text text-anchor="middle" x="676" y="-183" font-family="Helvetica,sans-Serif" font-size="10.00"> &#45;cleared_prefixes_</text>
</g>
<!-- Node21&#45;&gt;Node20 -->
<g id="edge22" class="edge">
<title>Node21&#45;&gt;Node20</title>
<path fill="none" stroke="orange" d="M1067.51,-504.09C1000.4,-450.85 826.67,-313.04 761.6,-261.41"/>
<polygon fill="orange" stroke="orange" points="1065.06,-506.61 1075.07,-510.09 1069.41,-501.13 1065.06,-506.61"/>
<text text-anchor="middle" x="1099.5" y="-403" font-family="Helvetica,sans-Serif" font-size="10.00"> &lt; sgns::base::Buffer &gt;</text>
</g>
<!-- Node22&#45;&gt;Node1 -->
<g id="edge24" class="edge">
<title>Node22&#45;&gt;Node1</title>
<path fill="none" stroke="#404040" d="M382.53,-214.19C386.07,-203.05 390.47,-189.21 395.07,-174.71"/>
<polygon fill="none" stroke="#404040" points="395.06,-174.73 393.07,-167.8 398.69,-163.29 400.69,-170.22 395.06,-174.73"/>
<text text-anchor="middle" x="410.5" y="-183" font-family="Helvetica,sans-Serif" font-size="10.00"> &#45;parent_</text>
</g>
<!-- Node23&#45;&gt;Node22 -->
<g id="edge26" class="edge">
<title>Node23&#45;&gt;Node22</title>
<path fill="none" stroke="orange" d="M407.95,-664.14C397.12,-633.94 381.69,-586.03 375.5,-543 360.88,-441.45 368.06,-318.67 372.23,-266.69"/>
<polygon fill="orange" stroke="orange" points="404.61,-665.19 411.33,-673.38 411.18,-662.78 404.61,-665.19"/>
<text text-anchor="start" x="375.5" y="-529.5" font-family="Helvetica,sans-Serif" font-size="10.00"> &lt; sgns::storage::trie</text>
<text text-anchor="middle" x="419" y="-518.5" font-family="Helvetica,sans-Serif" font-size="10.00">::TrieBatch &gt;</text>
</g>
</g>
</svg>
        <g id="navigator" transform="translate(0 0)" fill="#404254">
                <rect fill="#f2f5e9" fill-opacity="0.5" stroke="#606060" stroke-width=".5" x="0" y="0" width="60" height="60"/>
                <use id="zoomplus" xlink:href="#zoomPlus" x="17" y="9" onmousedown="handleZoom(evt,'in')"/>
                <use id="zoomminus" xlink:href="#zoomMin" x="42" y="9" onmousedown="handleZoom(evt,'out')"/>
                <use id="reset" xlink:href="#resetDef" x="30" y="36" onmousedown="handleReset()"/>
                <g id="arrowUp" xlink:href="#dirArrow" transform="translate(30 24)" onmousedown="handlePan(0,-1)">
                  <use xlink:href="#rim" fill="#404040">
                        <set attributeName="fill" to="#808080" begin="arrowUp.mouseover" end="arrowUp.mouseout"/>
                  </use>
                  <path fill="none" stroke="white" stroke-width="1.5" d="M0,-3.0v7 M-2.5,-0.5L0,-3.0L2.5,-0.5"/>
                </g>
                <g id="arrowRight" xlink:href="#dirArrow" transform="rotate(90) translate(36 -43)" onmousedown="handlePan(1,0)">
                  <use xlink:href="#rim" fill="#404040">
                        <set attributeName="fill" to="#808080" begin="arrowRight.mouseover" end="arrowRight.mouseout"/>
                  </use>
                  <path fill="none" stroke="white" stroke-width="1.5" d="M0,-3.0v7 M-2.5,-0.5L0,-3.0L2.5,-0.5"/>
                </g>
                <g id="arrowDown" xlink:href="#dirArrow" transform="rotate(180) translate(-30 -48)" onmousedown="handlePan(0,1)">
                  <use xlink:href="#rim" fill="#404040">
                        <set attributeName="fill" to="#808080" begin="arrowDown.mouseover" end="arrowDown.mouseout"/>
                  </use>
                  <path fill="none" stroke="white" stroke-width="1.5" d="M0,-3.0v7 M-2.5,-0.5L0,-3.0L2.5,-0.5"/>
                </g>
                <g id="arrowLeft" xlink:href="#dirArrow" transform="rotate(270) translate(-36 17)" onmousedown="handlePan(-1,0)">
                  <use xlink:href="#rim" fill="#404040">
                        <set attributeName="fill" to="#808080" begin="arrowLeft.mouseover" end="arrowLeft.mouseout"/>
                  </use>
                  <path fill="none" stroke="white" stroke-width="1.5" d="M0,-3.0v7 M-2.5,-0.5L0,-3.0L2.5,-0.5"/>
                </g>
        </g>
        <svg viewBox="0 0 15 15" width="100%" height="30px" preserveAspectRatio="xMaxYMin meet">
         <g id="arrow_out" transform="scale(0.3 0.3)">
          <a xlink:href="classsgns_1_1storage_1_1trie_1_1_topper_trie_batch_impl__coll__graph_org.svg" target="_base">
           <rect id="button" ry="5" rx="5" y="6" x="6" height="38" width="38"
                fill="#f2f5e9" fill-opacity="0.5" stroke="#606060" stroke-width="1.0"/>
           <path id="arrow"
             d="M 11.500037,31.436501 C 11.940474,20.09759 22.043105,11.32322 32.158766,21.979434 L 37.068811,17.246167 C 37.068811,17.246167 37.088388,32 37.088388,32 L 22.160133,31.978069 C 22.160133,31.978069 26.997745,27.140456 26.997745,27.140456 C 18.528582,18.264221 13.291696,25.230495 11.500037,31.436501 z"
             style="fill:#404040;"/>
          </a>
         </g>
        </svg>
</svg>
