<?xml version="1.0" encoding="UTF-8" standalone="no"?>
<!DOCTYPE svg PUBLIC "-//W3C//DTD SVG 1.1//EN"
 "http://www.w3.org/Graphics/SVG/1.1/DTD/svg11.dtd">
<!-- Generated by graphviz version 7.0.5 (20221223.1930)
 -->
<!-- Title: sgns::crypto::bip39::Dictionary Pages: 1 -->
<svg width="373pt" height="379pt"
 viewBox="0.00 0.00 373.00 379.00" xmlns="http://www.w3.org/2000/svg" xmlns:xlink="http://www.w3.org/1999/xlink">
<g id="graph0" class="graph" transform="scale(1 1) rotate(0) translate(4 375)">
<title>sgns::crypto::bip39::Dictionary</title>
<!-- Node1 -->
<g id="node1" class="node">
<title>Node1</title>
<g id="a_node1"><a xlink:title=" ">
<polygon fill="#999999" stroke="#666666" points="225.5,-63 126.5,-63 126.5,0 225.5,0 225.5,-63"/>
<text text-anchor="start" x="134.5" y="-51" font-family="Helvetica,sans-Serif" font-size="10.00">{sgns::crypto::bip39</text>
<text text-anchor="middle" x="176" y="-40" font-family="Helvetica,sans-Serif" font-size="10.00">::Dictionary</text>
<text text-anchor="start" x="134.5" y="-29" font-family="Helvetica,sans-Serif" font-size="10.00">||+ initialize()</text>
<text text-anchor="start" x="134.5" y="-18" font-family="Helvetica,sans-Serif" font-size="10.00">+ findValue()</text>
<text text-anchor="middle" x="176" y="-7" font-family="Helvetica,sans-Serif" font-size="10.00">}</text>
</a>
</g>
</g>
<!-- Node2 -->
<g id="node2" class="node">
<title>Node2</title>
<g id="a_node2"><a xlink:title=" ">
<polygon fill="white" stroke="#666666" points="228,-173 124,-173 124,-110 228,-110 228,-173"/>
<text text-anchor="start" x="132" y="-161" font-family="Helvetica,sans-Serif" font-size="10.00">{std::unordered_map</text>
<text text-anchor="start" x="132" y="-150" font-family="Helvetica,sans-Serif" font-size="10.00">&lt; std::string_view,</text>
<text text-anchor="start" x="132" y="-139" font-family="Helvetica,sans-Serif" font-size="10.00"> sgns::crypto::bip39</text>
<text text-anchor="middle" x="176" y="-128" font-family="Helvetica,sans-Serif" font-size="10.00">::EntropyToken &gt;</text>
<text text-anchor="middle" x="176" y="-117" font-family="Helvetica,sans-Serif" font-size="10.00">||}</text>
</a>
</g>
</g>
<!-- Node2&#45;&gt;Node1 -->
<g id="edge1" class="edge">
<title>Node2&#45;&gt;Node1</title>
<path fill="none" stroke="#404040" d="M176,-109.55C176,-99.16 176,-87.36 176,-76.18"/>
<polygon fill="none" stroke="#404040" points="176,-76.35 172,-70.35 176,-64.35 180,-70.35 176,-76.35"/>
<text text-anchor="middle" x="209.5" y="-84" font-family="Helvetica,sans-Serif" font-size="10.00"> &#45;entropy_map_</text>
</g>
<!-- Node3 -->
<g id="node3" class="node">
<title>Node3</title>
<g id="a_node3"><a xlink:title=" ">
<polygon fill="white" stroke="#666666" points="105.5,-277.5 18.5,-277.5 18.5,-247.5 105.5,-247.5 105.5,-277.5"/>
<text text-anchor="middle" x="62" y="-265.5" font-family="Helvetica,sans-Serif" font-size="10.00">{std::string_view</text>
<text text-anchor="middle" x="62" y="-254.5" font-family="Helvetica,sans-Serif" font-size="10.00">||}</text>
</a>
</g>
</g>
<!-- Node3&#45;&gt;Node2 -->
<g id="edge2" class="edge">
<title>Node3&#45;&gt;Node2</title>
<path fill="none" stroke="#404040" d="M75.52,-247.38C90.8,-231.44 116.33,-204.78 137.84,-182.34"/>
<polygon fill="none" stroke="#404040" points="137.84,-182.34 139.1,-175.24 146.14,-173.67 144.88,-180.77 137.84,-182.34"/>
<text text-anchor="middle" x="144.5" y="-205" font-family="Helvetica,sans-Serif" font-size="10.00"> +keys</text>
</g>
<!-- Node4 -->
<g id="node4" class="node">
<title>Node4</title>
<g id="a_node4"><a xlink:title=" ">
<polygon fill="white" stroke="#666666" points="116,-371 0,-371 0,-330 116,-330 116,-371"/>
<text text-anchor="start" x="8" y="-359" font-family="Helvetica,sans-Serif" font-size="10.00">{std::basic_string_view</text>
<text text-anchor="middle" x="58" y="-348" font-family="Helvetica,sans-Serif" font-size="10.00">&lt; Char &gt;</text>
<text text-anchor="middle" x="58" y="-337" font-family="Helvetica,sans-Serif" font-size="10.00">||}</text>
</a>
</g>
</g>
<!-- Node4&#45;&gt;Node3 -->
<g id="edge3" class="edge">
<title>Node4&#45;&gt;Node3</title>
<path fill="none" stroke="#63b8ff" d="M59.46,-318.08C60.1,-304.35 60.82,-288.91 61.33,-277.97"/>
<polygon fill="none" stroke="#63b8ff" points="55.97,-317.89 59,-328.04 62.96,-318.22 55.97,-317.89"/>
</g>
<!-- Node5 -->
<g id="node5" class="node">
<title>Node5</title>
<g id="a_node5"><a xlink:href="structsgns_1_1crypto_1_1bip39_1_1_entropy_token.html" target="_top" xlink:title=" ">
<polygon fill="white" stroke="#666666" points="225.5,-283 126.5,-283 126.5,-242 225.5,-242 225.5,-283"/>
<text text-anchor="start" x="134.5" y="-271" font-family="Helvetica,sans-Serif" font-size="10.00">{sgns::crypto::bip39</text>
<text text-anchor="middle" x="176" y="-260" font-family="Helvetica,sans-Serif" font-size="10.00">::EntropyToken</text>
<text text-anchor="middle" x="176" y="-249" font-family="Helvetica,sans-Serif" font-size="10.00">||}</text>
</a>
</g>
</g>
<!-- Node5&#45;&gt;Node2 -->
<g id="edge4" class="edge">
<title>Node5&#45;&gt;Node2</title>
<path fill="none" stroke="#404040" d="M176,-241.58C176,-226.49 176,-205.19 176,-186.21"/>
<polygon fill="none" stroke="#404040" points="176,-186.13 172,-180.13 176,-174.13 180,-180.13 176,-186.13"/>
<text text-anchor="middle" x="200.5" y="-205" font-family="Helvetica,sans-Serif" font-size="10.00"> +elements</text>
</g>
<!-- Node6 -->
<g id="node6" class="node">
<title>Node6</title>
<g id="a_node6"><a xlink:title=" ">
<polygon fill="white" stroke="#666666" points="229.5,-365.5 134.5,-365.5 134.5,-335.5 229.5,-335.5 229.5,-365.5"/>
<text text-anchor="middle" x="182" y="-353.5" font-family="Helvetica,sans-Serif" font-size="10.00">{std::bitset&lt; Bits &gt;</text>
<text text-anchor="middle" x="182" y="-342.5" font-family="Helvetica,sans-Serif" font-size="10.00">||}</text>
</a>
</g>
</g>
<!-- Node6&#45;&gt;Node5 -->
<g id="edge5" class="edge">
<title>Node6&#45;&gt;Node5</title>
<path fill="none" stroke="#63b8ff" d="M180.23,-324.2C179.32,-311.11 178.22,-295.37 177.37,-283.19"/>
<polygon fill="none" stroke="#63b8ff" points="176.72,-324.06 180.9,-333.79 183.7,-323.57 176.72,-324.06"/>
</g>
<!-- Node7 -->
<g id="node7" class="node">
<title>Node7</title>
<g id="a_node7"><a xlink:title=" ">
<polygon fill="white" stroke="#666666" points="348,-283 244,-283 244,-242 348,-242 348,-283"/>
<text text-anchor="start" x="252" y="-271" font-family="Helvetica,sans-Serif" font-size="10.00">{std::unordered_map</text>
<text text-anchor="middle" x="296" y="-260" font-family="Helvetica,sans-Serif" font-size="10.00">&lt; K, T &gt;</text>
<text text-anchor="middle" x="296" y="-249" font-family="Helvetica,sans-Serif" font-size="10.00">||}</text>
</a>
</g>
</g>
<!-- Node7&#45;&gt;Node2 -->
<g id="edge6" class="edge">
<title>Node7&#45;&gt;Node2</title>
<path fill="none" stroke="orange" d="M270.24,-233.5C257.96,-220.39 242.94,-204.68 229,-191 223.12,-185.23 216.76,-179.22 210.54,-173.46"/>
<polygon fill="orange" stroke="orange" points="267.46,-235.66 276.84,-240.59 272.59,-230.89 267.46,-235.66"/>
<text text-anchor="start" x="261" y="-216" font-family="Helvetica,sans-Serif" font-size="10.00"> &lt; std::string_view,</text>
<text text-anchor="start" x="261" y="-205" font-family="Helvetica,sans-Serif" font-size="10.00"> sgns::crypto::bip39</text>
<text text-anchor="middle" x="302" y="-194" font-family="Helvetica,sans-Serif" font-size="10.00">::EntropyToken &gt;</text>
</g>
<!-- Node8 -->
<g id="node8" class="node">
<title>Node8</title>
<g id="a_node8"><a xlink:title=" ">
<polygon fill="white" stroke="#666666" points="293.5,-365.5 264.5,-365.5 264.5,-335.5 293.5,-335.5 293.5,-365.5"/>
<text text-anchor="middle" x="279" y="-353.5" font-family="Helvetica,sans-Serif" font-size="10.00">{K</text>
<text text-anchor="middle" x="279" y="-342.5" font-family="Helvetica,sans-Serif" font-size="10.00">||}</text>
</a>
</g>
</g>
<!-- Node8&#45;&gt;Node7 -->
<g id="edge7" class="edge">
<title>Node8&#45;&gt;Node7</title>
<path fill="none" stroke="#404040" d="M277.88,-335.33C277.46,-325.57 277.56,-312.36 280,-301 280.4,-299.14 280.89,-297.26 281.45,-295.38"/>
<polygon fill="none" stroke="#404040" points="281.45,-295.39 279.76,-288.37 285.59,-284.12 287.27,-291.13 281.45,-295.39"/>
<text text-anchor="middle" x="294.5" y="-304" font-family="Helvetica,sans-Serif" font-size="10.00"> +keys</text>
</g>
<!-- Node9 -->
<g id="node9" class="node">
<title>Node9</title>
<g id="a_node9"><a xlink:title=" ">
<polygon fill="white" stroke="#666666" points="345.5,-365.5 316.5,-365.5 316.5,-335.5 345.5,-335.5 345.5,-365.5"/>
<text text-anchor="middle" x="331" y="-353.5" font-family="Helvetica,sans-Serif" font-size="10.00">{T</text>
<text text-anchor="middle" x="331" y="-342.5" font-family="Helvetica,sans-Serif" font-size="10.00">||}</text>
</a>
</g>
</g>
<!-- Node9&#45;&gt;Node7 -->
<g id="edge8" class="edge">
<title>Node9&#45;&gt;Node7</title>
<path fill="none" stroke="#404040" d="M325.22,-335.3C320.79,-324.41 314.51,-308.97 308.9,-295.2"/>
<polygon fill="none" stroke="#404040" points="308.88,-295.14 302.91,-291.09 304.35,-284.03 310.32,-288.08 308.88,-295.14"/>
<text text-anchor="middle" x="340.5" y="-304" font-family="Helvetica,sans-Serif" font-size="10.00"> +elements</text>
</g>
</g>
</svg>
