<?xml version="1.0" encoding="UTF-8" standalone="no"?>
<!DOCTYPE svg PUBLIC "-//W3C//DTD SVG 1.1//EN"
 "http://www.w3.org/Graphics/SVG/1.1/DTD/svg11.dtd">
<!-- Generated by graphviz version 7.0.5 (20221223.1930)
 -->
<!-- Title: sgns::extensions::MiscExtension Pages: 1 -->
<svg width="349pt" height="511pt"
 viewBox="0.00 0.00 349.00 511.00" xmlns="http://www.w3.org/2000/svg" xmlns:xlink="http://www.w3.org/1999/xlink">
<g id="graph0" class="graph" transform="scale(1 1) rotate(0) translate(4 507)">
<title>sgns::extensions::MiscExtension</title>
<!-- Node1 -->
<g id="node1" class="node">
<title>Node1</title>
<g id="a_node1"><a xlink:title=" ">
<polygon fill="#999999" stroke="#666666" points="264.5,-107 105.5,-107 105.5,0 264.5,0 264.5,-107"/>
<text text-anchor="middle" x="185" y="-95" font-family="Helvetica,sans-Serif" font-size="10.00">{sgns::extensions::MiscExtension</text>
<text text-anchor="start" x="113.5" y="-84" font-family="Helvetica,sans-Serif" font-size="10.00">|&#45; core_factory_method_</text>
<text text-anchor="start" x="113.5" y="-73" font-family="Helvetica,sans-Serif" font-size="10.00">&#45; chain_id_</text>
<text text-anchor="start" x="113.5" y="-62" font-family="Helvetica,sans-Serif" font-size="10.00">|+ MiscExtension()</text>
<text text-anchor="start" x="113.5" y="-51" font-family="Helvetica,sans-Serif" font-size="10.00">+ ~MiscExtension()</text>
<text text-anchor="start" x="113.5" y="-40" font-family="Helvetica,sans-Serif" font-size="10.00">+ ext_chain_id()</text>
<text text-anchor="start" x="113.5" y="-29" font-family="Helvetica,sans-Serif" font-size="10.00">+ ext_misc_runtime_version</text>
<text text-anchor="start" x="113.5" y="-18" font-family="Helvetica,sans-Serif" font-size="10.00">_version_1()</text>
<text text-anchor="middle" x="185" y="-7" font-family="Helvetica,sans-Serif" font-size="10.00">}</text>
</a>
</g>
</g>
<!-- Node2 -->
<g id="node2" class="node">
<title>Node2</title>
<g id="a_node2"><a xlink:title=" ">
<polygon fill="white" stroke="#666666" points="179,-211.5 51,-211.5 51,-159.5 179,-159.5 179,-211.5"/>
<text text-anchor="start" x="59" y="-199.5" font-family="Helvetica,sans-Serif" font-size="10.00">{std::shared_ptr&lt; sgns</text>
<text text-anchor="middle" x="115" y="-188.5" font-family="Helvetica,sans-Serif" font-size="10.00">::runtime::WasmMemory &gt;</text>
<text text-anchor="start" x="59" y="-177.5" font-family="Helvetica,sans-Serif" font-size="10.00">||+ operator&#45;&gt;()</text>
<text text-anchor="middle" x="115" y="-166.5" font-family="Helvetica,sans-Serif" font-size="10.00">}</text>
</a>
</g>
</g>
<!-- Node2&#45;&gt;Node1 -->
<g id="edge1" class="edge">
<title>Node2&#45;&gt;Node1</title>
<path fill="none" stroke="#404040" d="M128.66,-159.13C134.94,-147.47 142.7,-133.05 150.43,-118.69"/>
<polygon fill="none" stroke="#404040" points="150.48,-118.6 149.81,-111.42 156.17,-108.03 156.85,-115.21 150.48,-118.6"/>
<text text-anchor="middle" x="168" y="-128" font-family="Helvetica,sans-Serif" font-size="10.00"> &#45;memory_</text>
</g>
<!-- Node3 -->
<g id="node3" class="node">
<title>Node3</title>
<g id="a_node3"><a xlink:href="classsgns_1_1runtime_1_1_wasm_memory.html" target="_top" xlink:title=" ">
<polygon fill="white" stroke="#666666" points="144,-426 0,-426 0,-264 144,-264 144,-426"/>
<text text-anchor="middle" x="72" y="-414" font-family="Helvetica,sans-Serif" font-size="10.00">{sgns::runtime::WasmMemory</text>
<text text-anchor="start" x="8" y="-403" font-family="Helvetica,sans-Serif" font-size="10.00">|+ kMaxMemorySize</text>
<text text-anchor="start" x="8" y="-392" font-family="Helvetica,sans-Serif" font-size="10.00">|+ ~WasmMemory()</text>
<text text-anchor="start" x="8" y="-381" font-family="Helvetica,sans-Serif" font-size="10.00">+ reset()</text>
<text text-anchor="start" x="8" y="-370" font-family="Helvetica,sans-Serif" font-size="10.00">+ size()</text>
<text text-anchor="start" x="8" y="-359" font-family="Helvetica,sans-Serif" font-size="10.00">+ resize()</text>
<text text-anchor="start" x="8" y="-348" font-family="Helvetica,sans-Serif" font-size="10.00">+ allocate()</text>
<text text-anchor="start" x="8" y="-337" font-family="Helvetica,sans-Serif" font-size="10.00">+ deallocate()</text>
<text text-anchor="start" x="8" y="-326" font-family="Helvetica,sans-Serif" font-size="10.00">+ load8s()</text>
<text text-anchor="start" x="8" y="-315" font-family="Helvetica,sans-Serif" font-size="10.00">+ load8u()</text>
<text text-anchor="start" x="8" y="-304" font-family="Helvetica,sans-Serif" font-size="10.00">+ load16s()</text>
<text text-anchor="start" x="8" y="-293" font-family="Helvetica,sans-Serif" font-size="10.00">+ load16u()</text>
<text text-anchor="start" x="8" y="-282" font-family="Helvetica,sans-Serif" font-size="10.00">and 14 more...</text>
<text text-anchor="middle" x="72" y="-271" font-family="Helvetica,sans-Serif" font-size="10.00">}</text>
</a>
</g>
</g>
<!-- Node3&#45;&gt;Node2 -->
<g id="edge2" class="edge">
<title>Node3&#45;&gt;Node2</title>
<path fill="none" stroke="#404040" d="M66.33,-263.62C67.49,-253.78 69.59,-244.03 73,-235 74.67,-230.57 76.95,-226.28 79.58,-222.19"/>
<polygon fill="none" stroke="#404040" points="79.51,-222.29 79.88,-215.08 86.67,-212.66 86.3,-219.86 79.51,-222.29"/>
<text text-anchor="middle" x="83" y="-238" font-family="Helvetica,sans-Serif" font-size="10.00"> +ptr</text>
</g>
<!-- Node4 -->
<g id="node4" class="node">
<title>Node4</title>
<g id="a_node4"><a xlink:title=" ">
<polygon fill="white" stroke="#666666" points="301,-365.5 195,-365.5 195,-324.5 301,-324.5 301,-365.5"/>
<text text-anchor="middle" x="248" y="-353.5" font-family="Helvetica,sans-Serif" font-size="10.00">{std::shared_ptr&lt; T &gt;</text>
<text text-anchor="start" x="203" y="-342.5" font-family="Helvetica,sans-Serif" font-size="10.00">||+ operator&#45;&gt;()</text>
<text text-anchor="middle" x="248" y="-331.5" font-family="Helvetica,sans-Serif" font-size="10.00">}</text>
</a>
</g>
</g>
<!-- Node4&#45;&gt;Node2 -->
<g id="edge3" class="edge">
<title>Node4&#45;&gt;Node2</title>
<path fill="none" stroke="orange" d="M219.47,-316.34C201.41,-299.79 177,-279.09 153,-264 136.5,-253.62 123.59,-262.37 113,-246 106.6,-236.11 106.3,-223.22 107.93,-211.98"/>
<polygon fill="orange" stroke="orange" points="216.99,-318.82 226.69,-323.07 221.76,-313.69 216.99,-318.82"/>
<text text-anchor="middle" x="185" y="-238" font-family="Helvetica,sans-Serif" font-size="10.00"> &lt; sgns::runtime::WasmMemory &gt;</text>
</g>
<!-- Node6 -->
<g id="node6" class="node">
<title>Node6</title>
<g id="a_node6"><a xlink:title=" ">
<polygon fill="white" stroke="#666666" points="329,-217 209,-217 209,-154 329,-154 329,-217"/>
<text text-anchor="start" x="217" y="-205" font-family="Helvetica,sans-Serif" font-size="10.00">{std::shared_ptr&lt; spdlog</text>
<text text-anchor="middle" x="269" y="-194" font-family="Helvetica,sans-Serif" font-size="10.00">::logger &gt;</text>
<text text-anchor="start" x="217" y="-183" font-family="Helvetica,sans-Serif" font-size="10.00">|+ ptr</text>
<text text-anchor="start" x="217" y="-172" font-family="Helvetica,sans-Serif" font-size="10.00">|+ operator&#45;&gt;()</text>
<text text-anchor="middle" x="269" y="-161" font-family="Helvetica,sans-Serif" font-size="10.00">}</text>
</a>
</g>
</g>
<!-- Node4&#45;&gt;Node6 -->
<g id="edge6" class="edge">
<title>Node4&#45;&gt;Node6</title>
<path fill="none" stroke="orange" d="M252.18,-312.67C255.87,-285.01 261.21,-244.9 264.88,-217.38"/>
<polygon fill="orange" stroke="orange" points="248.71,-312.18 250.86,-322.55 255.65,-313.1 248.71,-312.18"/>
<text text-anchor="middle" x="301.5" y="-238" font-family="Helvetica,sans-Serif" font-size="10.00"> &lt; spdlog::logger &gt;</text>
</g>
<!-- Node5 -->
<g id="node5" class="node">
<title>Node5</title>
<g id="a_node5"><a xlink:title=" ">
<polygon fill="white" stroke="#666666" points="262.5,-503 233.5,-503 233.5,-473 262.5,-473 262.5,-503"/>
<text text-anchor="middle" x="248" y="-491" font-family="Helvetica,sans-Serif" font-size="10.00">{T</text>
<text text-anchor="middle" x="248" y="-480" font-family="Helvetica,sans-Serif" font-size="10.00">||}</text>
</a>
</g>
</g>
<!-- Node5&#45;&gt;Node4 -->
<g id="edge4" class="edge">
<title>Node5&#45;&gt;Node4</title>
<path fill="none" stroke="#404040" d="M248,-472.7C248,-450.82 248,-408.45 248,-378.75"/>
<polygon fill="none" stroke="#404040" points="248,-378.63 244,-372.63 248,-366.63 252,-372.63 248,-378.63"/>
<text text-anchor="middle" x="258" y="-447" font-family="Helvetica,sans-Serif" font-size="10.00"> +ptr</text>
</g>
<!-- Node6&#45;&gt;Node1 -->
<g id="edge5" class="edge">
<title>Node6&#45;&gt;Node1</title>
<path fill="none" stroke="#404040" d="M249.09,-153.69C242.19,-143.01 234.17,-130.6 226.19,-118.25"/>
<polygon fill="none" stroke="#404040" points="226.22,-118.29 219.6,-115.43 219.71,-108.22 226.32,-111.08 226.22,-118.29"/>
<text text-anchor="middle" x="254.5" y="-128" font-family="Helvetica,sans-Serif" font-size="10.00"> &#45;logger_</text>
</g>
</g>
</svg>
