<?xml version="1.0" encoding="UTF-8" standalone="no"?>
<!DOCTYPE svg PUBLIC "-//W3C//DTD SVG 1.1//EN"
 "http://www.w3.org/Graphics/SVG/1.1/DTD/svg11.dtd">
<!-- Generated by graphviz version 7.0.5 (20221223.1930)
 -->
<!-- Title: sgns::api::WsSession Pages: 1 -->
<svg width="583pt" height="654pt"
 viewBox="0.00 0.00 582.50 654.00" xmlns="http://www.w3.org/2000/svg" xmlns:xlink="http://www.w3.org/1999/xlink">
<g id="graph0" class="graph" transform="scale(1 1) rotate(0) translate(4 650)">
<title>sgns::api::WsSession</title>
<!-- Node1 -->
<g id="node1" class="node">
<title>Node1</title>
<g id="a_node1"><a xlink:title=" ">
<polygon fill="#999999" stroke="#666666" points="345.5,-272 233.5,-272 233.5,0 345.5,0 345.5,-272"/>
<text text-anchor="middle" x="289.5" y="-260" font-family="Helvetica,sans-Serif" font-size="10.00">{sgns::api::WsSession</text>
<text text-anchor="start" x="241.5" y="-249" font-family="Helvetica,sans-Serif" font-size="10.00">|&#45; strand_</text>
<text text-anchor="start" x="241.5" y="-238" font-family="Helvetica,sans-Serif" font-size="10.00">&#45; socket_</text>
<text text-anchor="start" x="241.5" y="-227" font-family="Helvetica,sans-Serif" font-size="10.00">&#45; stream_</text>
<text text-anchor="start" x="241.5" y="-216" font-family="Helvetica,sans-Serif" font-size="10.00">&#45; rbuffer_</text>
<text text-anchor="start" x="241.5" y="-205" font-family="Helvetica,sans-Serif" font-size="10.00">&#45; wbuffer_</text>
<text text-anchor="start" x="241.5" y="-194" font-family="Helvetica,sans-Serif" font-size="10.00">&#45; id_</text>
<text text-anchor="start" x="241.5" y="-183" font-family="Helvetica,sans-Serif" font-size="10.00">|+ ~WsSession()</text>
<text text-anchor="start" x="241.5" y="-172" font-family="Helvetica,sans-Serif" font-size="10.00">+ WsSession()</text>
<text text-anchor="start" x="241.5" y="-161" font-family="Helvetica,sans-Serif" font-size="10.00">+ socket()</text>
<text text-anchor="start" x="241.5" y="-150" font-family="Helvetica,sans-Serif" font-size="10.00">+ start()</text>
<text text-anchor="start" x="241.5" y="-139" font-family="Helvetica,sans-Serif" font-size="10.00">+ id()</text>
<text text-anchor="start" x="241.5" y="-128" font-family="Helvetica,sans-Serif" font-size="10.00">+ type()</text>
<text text-anchor="start" x="241.5" y="-117" font-family="Helvetica,sans-Serif" font-size="10.00">+ respond()</text>
<text text-anchor="start" x="241.5" y="-106" font-family="Helvetica,sans-Serif" font-size="10.00">&#45; stop()</text>
<text text-anchor="start" x="241.5" y="-95" font-family="Helvetica,sans-Serif" font-size="10.00">&#45; handleRequest()</text>
<text text-anchor="start" x="241.5" y="-84" font-family="Helvetica,sans-Serif" font-size="10.00">&#45; asyncRead()</text>
<text text-anchor="start" x="241.5" y="-73" font-family="Helvetica,sans-Serif" font-size="10.00">&#45; asyncWrite()</text>
<text text-anchor="start" x="241.5" y="-62" font-family="Helvetica,sans-Serif" font-size="10.00">&#45; onRun()</text>
<text text-anchor="start" x="241.5" y="-51" font-family="Helvetica,sans-Serif" font-size="10.00">&#45; onAccept()</text>
<text text-anchor="start" x="241.5" y="-40" font-family="Helvetica,sans-Serif" font-size="10.00">&#45; onRead()</text>
<text text-anchor="start" x="241.5" y="-29" font-family="Helvetica,sans-Serif" font-size="10.00">&#45; onWrite()</text>
<text text-anchor="start" x="241.5" y="-18" font-family="Helvetica,sans-Serif" font-size="10.00">&#45; reportError()</text>
<text text-anchor="middle" x="289.5" y="-7" font-family="Helvetica,sans-Serif" font-size="10.00">}</text>
</a>
</g>
</g>
<!-- Node2 -->
<g id="node2" class="node">
<title>Node2</title>
<g id="a_node2"><a xlink:href="classsgns_1_1api_1_1_session.html" target="_top" xlink:title="rpc session">
<polygon fill="white" stroke="#666666" points="137,-481 0,-481 0,-319 137,-319 137,-481"/>
<text text-anchor="middle" x="68.5" y="-469" font-family="Helvetica,sans-Serif" font-size="10.00">{sgns::api::Session</text>
<text text-anchor="start" x="8" y="-458" font-family="Helvetica,sans-Serif" font-size="10.00">|&#45; on_request_</text>
<text text-anchor="start" x="8" y="-447" font-family="Helvetica,sans-Serif" font-size="10.00">&#45; on_close_</text>
<text text-anchor="start" x="8" y="-436" font-family="Helvetica,sans-Serif" font-size="10.00">|+ ~Session()</text>
<text text-anchor="start" x="8" y="-425" font-family="Helvetica,sans-Serif" font-size="10.00">+ start()</text>
<text text-anchor="start" x="8" y="-414" font-family="Helvetica,sans-Serif" font-size="10.00">+ socket()</text>
<text text-anchor="start" x="8" y="-403" font-family="Helvetica,sans-Serif" font-size="10.00">+ connectOnRequest()</text>
<text text-anchor="start" x="8" y="-392" font-family="Helvetica,sans-Serif" font-size="10.00">+ connectOnCloseHandler()</text>
<text text-anchor="start" x="8" y="-381" font-family="Helvetica,sans-Serif" font-size="10.00">+ processRequest()</text>
<text text-anchor="start" x="8" y="-370" font-family="Helvetica,sans-Serif" font-size="10.00">+ respond()</text>
<text text-anchor="start" x="8" y="-359" font-family="Helvetica,sans-Serif" font-size="10.00">+ notifyOnClose()</text>
<text text-anchor="start" x="8" y="-348" font-family="Helvetica,sans-Serif" font-size="10.00">+ id()</text>
<text text-anchor="start" x="8" y="-337" font-family="Helvetica,sans-Serif" font-size="10.00">+ type()</text>
<text text-anchor="middle" x="68.5" y="-326" font-family="Helvetica,sans-Serif" font-size="10.00">}</text>
</a>
</g>
</g>
<!-- Node2&#45;&gt;Node1 -->
<g id="edge1" class="edge">
<title>Node2&#45;&gt;Node1</title>
<path fill="none" stroke="#63b8ff" d="M143.69,-309.86C173.04,-275.06 206.11,-235.85 233.33,-203.59"/>
<polygon fill="none" stroke="#63b8ff" points="141.06,-307.55 137.29,-317.45 146.41,-312.07 141.06,-307.55"/>
</g>
<!-- Node3 -->
<g id="node3" class="node">
<title>Node3</title>
<g id="a_node3"><a xlink:title=" ">
<polygon fill="white" stroke="#666666" points="283.5,-420.5 155.5,-420.5 155.5,-379.5 283.5,-379.5 283.5,-420.5"/>
<text text-anchor="start" x="163.5" y="-408.5" font-family="Helvetica,sans-Serif" font-size="10.00">{std::enable_shared</text>
<text text-anchor="middle" x="219.5" y="-397.5" font-family="Helvetica,sans-Serif" font-size="10.00">_from_this&lt; WsSession &gt;</text>
<text text-anchor="middle" x="219.5" y="-386.5" font-family="Helvetica,sans-Serif" font-size="10.00">||}</text>
</a>
</g>
</g>
<!-- Node3&#45;&gt;Node1 -->
<g id="edge2" class="edge">
<title>Node3&#45;&gt;Node1</title>
<path fill="none" stroke="#63b8ff" d="M227.68,-368.38C234.16,-344.14 243.69,-308.47 253.34,-272.35"/>
<polygon fill="none" stroke="#63b8ff" points="224.35,-367.28 225.15,-377.85 231.11,-369.09 224.35,-367.28"/>
</g>
<!-- Node4 -->
<g id="node4" class="node">
<title>Node4</title>
<g id="a_node4"><a xlink:href="structsgns_1_1api_1_1_ws_session_1_1_configuration.html" target="_top" xlink:title=" ">
<polygon fill="white" stroke="#666666" points="417.5,-442.5 301.5,-442.5 301.5,-357.5 417.5,-357.5 417.5,-442.5"/>
<text text-anchor="start" x="309.5" y="-430.5" font-family="Helvetica,sans-Serif" font-size="10.00">{sgns::api::WsSession</text>
<text text-anchor="middle" x="359.5" y="-419.5" font-family="Helvetica,sans-Serif" font-size="10.00">::Configuration</text>
<text text-anchor="start" x="309.5" y="-408.5" font-family="Helvetica,sans-Serif" font-size="10.00">|+ max_request_size</text>
<text text-anchor="start" x="309.5" y="-397.5" font-family="Helvetica,sans-Serif" font-size="10.00">+ operation_timeout</text>
<text text-anchor="start" x="309.5" y="-386.5" font-family="Helvetica,sans-Serif" font-size="10.00">+ kDefaultRequestSize</text>
<text text-anchor="start" x="309.5" y="-375.5" font-family="Helvetica,sans-Serif" font-size="10.00">+ kDefaultTimeout</text>
<text text-anchor="middle" x="359.5" y="-364.5" font-family="Helvetica,sans-Serif" font-size="10.00">|}</text>
</a>
</g>
</g>
<!-- Node4&#45;&gt;Node1 -->
<g id="edge3" class="edge">
<title>Node4&#45;&gt;Node1</title>
<path fill="none" stroke="#404040" d="M348.33,-357.2C342.93,-336.96 336.07,-311.32 328.97,-284.75"/>
<polygon fill="none" stroke="#404040" points="329.03,-284.95 323.62,-280.19 325.93,-273.36 331.35,-278.12 329.03,-284.95"/>
<text text-anchor="middle" x="351" y="-293" font-family="Helvetica,sans-Serif" font-size="10.00"> &#45;config_</text>
</g>
<!-- Node5 -->
<g id="node5" class="node">
<title>Node5</title>
<g id="a_node5"><a xlink:title=" ">
<polygon fill="white" stroke="#666666" points="555.5,-431.5 435.5,-431.5 435.5,-368.5 555.5,-368.5 555.5,-431.5"/>
<text text-anchor="start" x="443.5" y="-419.5" font-family="Helvetica,sans-Serif" font-size="10.00">{std::shared_ptr&lt; spdlog</text>
<text text-anchor="middle" x="495.5" y="-408.5" font-family="Helvetica,sans-Serif" font-size="10.00">::logger &gt;</text>
<text text-anchor="start" x="443.5" y="-397.5" font-family="Helvetica,sans-Serif" font-size="10.00">|+ ptr</text>
<text text-anchor="start" x="443.5" y="-386.5" font-family="Helvetica,sans-Serif" font-size="10.00">|+ operator&#45;&gt;()</text>
<text text-anchor="middle" x="495.5" y="-375.5" font-family="Helvetica,sans-Serif" font-size="10.00">}</text>
</a>
</g>
</g>
<!-- Node5&#45;&gt;Node1 -->
<g id="edge4" class="edge">
<title>Node5&#45;&gt;Node1</title>
<path fill="none" stroke="#404040" d="M471.26,-368.17C442.55,-331.65 393.57,-269.36 353.69,-218.64"/>
<polygon fill="none" stroke="#404040" points="353.82,-218.8 346.96,-216.56 346.4,-209.37 353.25,-211.61 353.82,-218.8"/>
<text text-anchor="middle" x="435" y="-293" font-family="Helvetica,sans-Serif" font-size="10.00"> &#45;logger_</text>
</g>
<!-- Node6 -->
<g id="node6" class="node">
<title>Node6</title>
<g id="a_node6"><a xlink:title=" ">
<polygon fill="white" stroke="#666666" points="548.5,-569 442.5,-569 442.5,-528 548.5,-528 548.5,-569"/>
<text text-anchor="middle" x="495.5" y="-557" font-family="Helvetica,sans-Serif" font-size="10.00">{std::shared_ptr&lt; T &gt;</text>
<text text-anchor="start" x="450.5" y="-546" font-family="Helvetica,sans-Serif" font-size="10.00">||+ operator&#45;&gt;()</text>
<text text-anchor="middle" x="495.5" y="-535" font-family="Helvetica,sans-Serif" font-size="10.00">}</text>
</a>
</g>
</g>
<!-- Node6&#45;&gt;Node5 -->
<g id="edge5" class="edge">
<title>Node6&#45;&gt;Node5</title>
<path fill="none" stroke="orange" d="M495.5,-516.4C495.5,-491.51 495.5,-456.77 495.5,-431.92"/>
<polygon fill="orange" stroke="orange" points="492,-516.23 495.5,-526.23 499,-516.23 492,-516.23"/>
<text text-anchor="middle" x="535" y="-502" font-family="Helvetica,sans-Serif" font-size="10.00"> &lt; spdlog::logger &gt;</text>
</g>
<!-- Node7 -->
<g id="node7" class="node">
<title>Node7</title>
<g id="a_node7"><a xlink:title=" ">
<polygon fill="white" stroke="#666666" points="510,-646 481,-646 481,-616 510,-616 510,-646"/>
<text text-anchor="middle" x="495.5" y="-634" font-family="Helvetica,sans-Serif" font-size="10.00">{T</text>
<text text-anchor="middle" x="495.5" y="-623" font-family="Helvetica,sans-Serif" font-size="10.00">||}</text>
</a>
</g>
</g>
<!-- Node7&#45;&gt;Node6 -->
<g id="edge6" class="edge">
<title>Node7&#45;&gt;Node6</title>
<path fill="none" stroke="#404040" d="M495.5,-615.61C495.5,-606.31 495.5,-593.82 495.5,-582.21"/>
<polygon fill="none" stroke="#404040" points="495.5,-582.11 491.5,-576.11 495.5,-570.11 499.5,-576.11 495.5,-582.11"/>
<text text-anchor="middle" x="505.5" y="-590" font-family="Helvetica,sans-Serif" font-size="10.00"> +ptr</text>
</g>
</g>
</svg>
