<?xml version="1.0" encoding="UTF-8" standalone="no"?>
<!DOCTYPE svg PUBLIC "-//W3C//DTD SVG 1.1//EN"
 "http://www.w3.org/Graphics/SVG/1.1/DTD/svg11.dtd">
<!-- Generated by graphviz version 7.0.5 (20221223.1930)
 -->
<!-- Title: sgns::extensions::ExtensionFactoryImpl Pages: 1 -->
<!--zoomable 489 -->
<svg id="main" version="1.1" xmlns="http://www.w3.org/2000/svg" xmlns:xlink="http://www.w3.org/1999/xlink" xml:space="preserve" onload="init(evt)">
<style type="text/css"><![CDATA[
.edge:hover path { stroke: red; }
.edge:hover polygon { stroke: red; fill: red; }
]]></style>
<script type="text/javascript"><![CDATA[
var edges = document.getElementsByTagName('g');
if (edges && edges.length) {
  for (var i=0;i<edges.length;i++) {
    if (edges[i].id.substr(0,4)=='edge') {
      edges[i].setAttribute('class','edge');
    }
  }
}
]]></script>
        <defs>
                <circle id="rim" cx="0" cy="0" r="7"/>
                <circle id="rim2" cx="0" cy="0" r="3.5"/>
                <g id="zoomPlus">
                        <use xlink:href="#rim" fill="#404040">
                                <set attributeName="fill" to="#808080" begin="zoomplus.mouseover" end="zoomplus.mouseout"/>
                        </use>
                        <path d="M-4,0h8M0,-4v8" fill="none" stroke="white" stroke-width="1.5" pointer-events="none"/>
                </g>
                <g id="zoomMin">
                        <use xlink:href="#rim" fill="#404040">
                                <set attributeName="fill" to="#808080" begin="zoomminus.mouseover" end="zoomminus.mouseout"/>
                        </use>
                        <path d="M-4,0h8" fill="none" stroke="white" stroke-width="1.5" pointer-events="none"/>
                </g>
                <g id="dirArrow">
                        <path fill="none" stroke="white" stroke-width="1.5" d="M0,-3.0v7 M-2.5,-0.5L0,-3.0L2.5,-0.5"/>
                </g>
               <g id="resetDef">
                       <use xlink:href="#rim2" fill="#404040">
                               <set attributeName="fill" to="#808080" begin="reset.mouseover" end="reset.mouseout"/>
                       </use>
               </g>
        </defs>

<script type="text/javascript">
var viewWidth = 1728;
var viewHeight = 489;
var sectionId = 'dynsection-1';
</script>
<script xlink:href="svgpan.js"/>
<svg id="graph" class="graph">
<g id="viewport">
<title>sgns::extensions::ExtensionFactoryImpl</title>
<!-- Node1 -->
<g id="node1" class="node">
<title>Node1</title>
<g id="a_node1"><a xlink:title=" ">
<polygon fill="#999999" stroke="#666666" points="829,-85 691,-85 691,0 829,0 829,-85"/>
<text text-anchor="start" x="699" y="-73" font-family="Helvetica,sans-Serif" font-size="10.00">{sgns::extensions::Extension</text>
<text text-anchor="middle" x="760" y="-62" font-family="Helvetica,sans-Serif" font-size="10.00">FactoryImpl</text>
<text text-anchor="start" x="699" y="-51" font-family="Helvetica,sans-Serif" font-size="10.00">|&#45; core_factory_method_</text>
<text text-anchor="start" x="699" y="-40" font-family="Helvetica,sans-Serif" font-size="10.00">|+ ~ExtensionFactoryImpl()</text>
<text text-anchor="start" x="699" y="-29" font-family="Helvetica,sans-Serif" font-size="10.00">+ ExtensionFactoryImpl()</text>
<text text-anchor="start" x="699" y="-18" font-family="Helvetica,sans-Serif" font-size="10.00">+ createExtension()</text>
<text text-anchor="middle" x="760" y="-7" font-family="Helvetica,sans-Serif" font-size="10.00">}</text>
</a>
</g>
</g>
<!-- Node2 -->
<g id="node2" class="node">
<title>Node2</title>
<g id="a_node2"><a xlink:href="classsgns_1_1extensions_1_1_extension_factory.html" target="_top" xlink:title=" ">
<polygon fill="white" stroke="#666666" points="235,-195 97,-195 97,-132 235,-132 235,-195"/>
<text text-anchor="start" x="105" y="-183" font-family="Helvetica,sans-Serif" font-size="10.00">{sgns::extensions::Extension</text>
<text text-anchor="middle" x="166" y="-172" font-family="Helvetica,sans-Serif" font-size="10.00">Factory</text>
<text text-anchor="start" x="105" y="-161" font-family="Helvetica,sans-Serif" font-size="10.00">||+ ~ExtensionFactory()</text>
<text text-anchor="start" x="105" y="-150" font-family="Helvetica,sans-Serif" font-size="10.00">+ createExtension()</text>
<text text-anchor="middle" x="166" y="-139" font-family="Helvetica,sans-Serif" font-size="10.00">}</text>
</a>
</g>
</g>
<!-- Node2&#45;&gt;Node1 -->
<g id="edge1" class="edge">
<title>Node2&#45;&gt;Node1</title>
<path fill="none" stroke="#63b8ff" d="M245.79,-131.7C408.86,-87.29 592.72,-62.25 690.58,-50.87"/>
<polygon fill="none" stroke="#63b8ff" points="245.24,-128.22 236.53,-134.25 247.1,-134.96 245.24,-128.22"/>
</g>
<!-- Node3 -->
<g id="node3" class="node">
<title>Node3</title>
<g id="a_node3"><a xlink:title=" ">
<polygon fill="white" stroke="#666666" points="751.5,-195 638.5,-195 638.5,-132 751.5,-132 751.5,-195"/>
<text text-anchor="start" x="646.5" y="-183" font-family="Helvetica,sans-Serif" font-size="10.00">{std::shared_ptr&lt; sgns</text>
<text text-anchor="start" x="646.5" y="-172" font-family="Helvetica,sans-Serif" font-size="10.00">::storage::changes_trie</text>
<text text-anchor="middle" x="695" y="-161" font-family="Helvetica,sans-Serif" font-size="10.00">::ChangesTracker &gt;</text>
<text text-anchor="start" x="646.5" y="-150" font-family="Helvetica,sans-Serif" font-size="10.00">||+ operator&#45;&gt;()</text>
<text text-anchor="middle" x="695" y="-139" font-family="Helvetica,sans-Serif" font-size="10.00">}</text>
</a>
</g>
</g>
<!-- Node3&#45;&gt;Node1 -->
<g id="edge2" class="edge">
<title>Node3&#45;&gt;Node1</title>
<path fill="none" stroke="#404040" d="M702.6,-131.71C705.52,-122.22 709.31,-111.93 714,-103 715.23,-100.65 716.56,-98.3 717.96,-95.97"/>
<polygon fill="none" stroke="#404040" points="717.93,-96.01 717.83,-88.8 724.45,-85.94 724.55,-93.15 717.93,-96.01"/>
<text text-anchor="middle" x="755.5" y="-106" font-family="Helvetica,sans-Serif" font-size="10.00"> &#45;changes_tracker_</text>
</g>
<!-- Node4 -->
<g id="node4" class="node">
<title>Node4</title>
<g id="a_node4"><a xlink:href="classsgns_1_1storage_1_1changes__trie_1_1_changes_tracker.html" target="_top" xlink:title=" ">
<polygon fill="white" stroke="#666666" points="526,-382 400,-382 400,-275 526,-275 526,-382"/>
<text text-anchor="start" x="408" y="-370" font-family="Helvetica,sans-Serif" font-size="10.00">{sgns::storage::changes</text>
<text text-anchor="middle" x="463" y="-359" font-family="Helvetica,sans-Serif" font-size="10.00">_trie::ChangesTracker</text>
<text text-anchor="start" x="408" y="-348" font-family="Helvetica,sans-Serif" font-size="10.00">||+ ~ChangesTracker()</text>
<text text-anchor="start" x="408" y="-337" font-family="Helvetica,sans-Serif" font-size="10.00">+ setExtrinsicIdxGetter()</text>
<text text-anchor="start" x="408" y="-326" font-family="Helvetica,sans-Serif" font-size="10.00">+ onBlockChange()</text>
<text text-anchor="start" x="408" y="-315" font-family="Helvetica,sans-Serif" font-size="10.00">+ onPut()</text>
<text text-anchor="start" x="408" y="-304" font-family="Helvetica,sans-Serif" font-size="10.00">+ onRemove()</text>
<text text-anchor="start" x="408" y="-293" font-family="Helvetica,sans-Serif" font-size="10.00">+ constructChangesTrie()</text>
<text text-anchor="middle" x="463" y="-282" font-family="Helvetica,sans-Serif" font-size="10.00">}</text>
</a>
</g>
</g>
<!-- Node4&#45;&gt;Node3 -->
<g id="edge3" class="edge">
<title>Node4&#45;&gt;Node3</title>
<path fill="none" stroke="#404040" d="M449.66,-274.67C447.46,-253.2 449.61,-229.6 464,-213 481.37,-192.95 556.04,-200.46 582,-195 596.23,-192.01 611.33,-188.3 625.7,-184.52"/>
<polygon fill="none" stroke="#404040" points="625.64,-184.54 630.4,-179.12 637.23,-181.43 632.48,-186.84 625.64,-184.54"/>
<text text-anchor="middle" x="474" y="-221.5" font-family="Helvetica,sans-Serif" font-size="10.00"> +ptr</text>
</g>
<!-- Node5 -->
<g id="node5" class="node">
<title>Node5</title>
<g id="a_node5"><a xlink:title=" ">
<polygon fill="white" stroke="#666666" points="909,-349 803,-349 803,-308 909,-308 909,-349"/>
<text text-anchor="middle" x="856" y="-337" font-family="Helvetica,sans-Serif" font-size="10.00">{std::shared_ptr&lt; T &gt;</text>
<text text-anchor="start" x="811" y="-326" font-family="Helvetica,sans-Serif" font-size="10.00">||+ operator&#45;&gt;()</text>
<text text-anchor="middle" x="856" y="-315" font-family="Helvetica,sans-Serif" font-size="10.00">}</text>
</a>
</g>
</g>
<!-- Node5&#45;&gt;Node3 -->
<g id="edge4" class="edge">
<title>Node5&#45;&gt;Node3</title>
<path fill="none" stroke="orange" d="M823.43,-300.3C804.86,-285.43 780.82,-267.2 758,-253 742.81,-243.55 734.02,-248.25 722,-235 711.96,-223.93 705.51,-208.74 701.44,-195.29"/>
<polygon fill="orange" stroke="orange" points="821.19,-302.99 831.16,-306.56 825.59,-297.55 821.19,-302.99"/>
<text text-anchor="start" x="722" y="-227" font-family="Helvetica,sans-Serif" font-size="10.00"> &lt; sgns::storage::changes</text>
<text text-anchor="middle" x="777" y="-216" font-family="Helvetica,sans-Serif" font-size="10.00">_trie::ChangesTracker &gt;</text>
</g>
<!-- Node7 -->
<g id="node7" class="node">
<title>Node7</title>
<g id="a_node7"><a xlink:title=" ">
<polygon fill="white" stroke="#666666" points="389,-189.5 253,-189.5 253,-137.5 389,-137.5 389,-189.5"/>
<text text-anchor="start" x="261" y="-177.5" font-family="Helvetica,sans-Serif" font-size="10.00">{std::shared_ptr&lt; sgns</text>
<text text-anchor="middle" x="321" y="-166.5" font-family="Helvetica,sans-Serif" font-size="10.00">::crypto::SR25519Provider &gt;</text>
<text text-anchor="start" x="261" y="-155.5" font-family="Helvetica,sans-Serif" font-size="10.00">||+ operator&#45;&gt;()</text>
<text text-anchor="middle" x="321" y="-144.5" font-family="Helvetica,sans-Serif" font-size="10.00">}</text>
</a>
</g>
</g>
<!-- Node5&#45;&gt;Node7 -->
<g id="edge8" class="edge">
<title>Node5&#45;&gt;Node7</title>
<path fill="none" stroke="orange" d="M829.68,-300.26C811.36,-283.27 785.39,-262.83 758,-253 709.86,-235.72 333.45,-271.87 298,-235 286.31,-222.84 292.61,-204.67 301.54,-189.82"/>
<polygon fill="orange" stroke="orange" points="826.8,-302.35 836.44,-306.73 831.63,-297.29 826.8,-302.35"/>
<text text-anchor="middle" x="373.5" y="-221.5" font-family="Helvetica,sans-Serif" font-size="10.00"> &lt; sgns::crypto::SR25519Provider &gt;</text>
</g>
<!-- Node9 -->
<g id="node9" class="node">
<title>Node9</title>
<g id="a_node9"><a xlink:title=" ">
<polygon fill="white" stroke="#666666" points="573.5,-189.5 438.5,-189.5 438.5,-137.5 573.5,-137.5 573.5,-189.5"/>
<text text-anchor="start" x="446.5" y="-177.5" font-family="Helvetica,sans-Serif" font-size="10.00">{std::shared_ptr&lt; sgns</text>
<text text-anchor="middle" x="506" y="-166.5" font-family="Helvetica,sans-Serif" font-size="10.00">::crypto::ED25519Provider &gt;</text>
<text text-anchor="start" x="446.5" y="-155.5" font-family="Helvetica,sans-Serif" font-size="10.00">||+ operator&#45;&gt;()</text>
<text text-anchor="middle" x="506" y="-144.5" font-family="Helvetica,sans-Serif" font-size="10.00">}</text>
</a>
</g>
</g>
<!-- Node5&#45;&gt;Node9 -->
<g id="edge11" class="edge">
<title>Node5&#45;&gt;Node9</title>
<path fill="none" stroke="orange" d="M828.72,-299.8C810.4,-283.1 784.79,-263.15 758,-253 707.57,-233.9 555.38,-271.84 516,-235 503.99,-223.77 501.76,-205.18 502.39,-189.91"/>
<polygon fill="orange" stroke="orange" points="826.31,-302.35 835.99,-306.65 831.11,-297.25 826.31,-302.35"/>
<text text-anchor="middle" x="591.5" y="-221.5" font-family="Helvetica,sans-Serif" font-size="10.00"> &lt; sgns::crypto::ED25519Provider &gt;</text>
</g>
<!-- Node11 -->
<g id="node11" class="node">
<title>Node11</title>
<g id="a_node11"><a xlink:title=" ">
<polygon fill="white" stroke="#666666" points="1410.5,-189.5 1265.5,-189.5 1265.5,-137.5 1410.5,-137.5 1410.5,-189.5"/>
<text text-anchor="start" x="1273.5" y="-177.5" font-family="Helvetica,sans-Serif" font-size="10.00">{std::shared_ptr&lt; sgns</text>
<text text-anchor="middle" x="1338" y="-166.5" font-family="Helvetica,sans-Serif" font-size="10.00">::crypto::Secp256k1Provider &gt;</text>
<text text-anchor="start" x="1273.5" y="-155.5" font-family="Helvetica,sans-Serif" font-size="10.00">||+ operator&#45;&gt;()</text>
<text text-anchor="middle" x="1338" y="-144.5" font-family="Helvetica,sans-Serif" font-size="10.00">}</text>
</a>
</g>
</g>
<!-- Node5&#45;&gt;Node11 -->
<g id="edge14" class="edge">
<title>Node5&#45;&gt;Node11</title>
<path fill="none" stroke="orange" d="M920.51,-313.98C992.87,-298.88 1113.78,-273.81 1218,-253 1259.29,-244.76 1278.75,-262.06 1311,-235 1324.35,-223.8 1331.12,-205.2 1334.54,-189.93"/>
<polygon fill="orange" stroke="orange" points="919.88,-310.54 910.8,-316.01 921.31,-317.39 919.88,-310.54"/>
<text text-anchor="start" x="1326" y="-227" font-family="Helvetica,sans-Serif" font-size="10.00"> &lt; sgns::crypto::Secp256k1</text>
<text text-anchor="middle" x="1384" y="-216" font-family="Helvetica,sans-Serif" font-size="10.00">Provider &gt;</text>
</g>
<!-- Node13 -->
<g id="node13" class="node">
<title>Node13</title>
<g id="a_node13"><a xlink:title=" ">
<polygon fill="white" stroke="#666666" points="1221.5,-189.5 1108.5,-189.5 1108.5,-137.5 1221.5,-137.5 1221.5,-189.5"/>
<text text-anchor="start" x="1116.5" y="-177.5" font-family="Helvetica,sans-Serif" font-size="10.00">{std::shared_ptr&lt; sgns</text>
<text text-anchor="middle" x="1165" y="-166.5" font-family="Helvetica,sans-Serif" font-size="10.00">::crypto::Hasher &gt;</text>
<text text-anchor="start" x="1116.5" y="-155.5" font-family="Helvetica,sans-Serif" font-size="10.00">||+ operator&#45;&gt;()</text>
<text text-anchor="middle" x="1165" y="-144.5" font-family="Helvetica,sans-Serif" font-size="10.00">}</text>
</a>
</g>
</g>
<!-- Node5&#45;&gt;Node13 -->
<g id="edge17" class="edge">
<title>Node5&#45;&gt;Node13</title>
<path fill="none" stroke="orange" d="M920.26,-318.65C979.12,-307.71 1065.84,-284.12 1125,-235 1139.29,-223.13 1149.48,-204.76 1156,-189.75"/>
<polygon fill="orange" stroke="orange" points="919.97,-315.15 910.73,-320.35 921.19,-322.04 919.97,-315.15"/>
<text text-anchor="middle" x="1196.5" y="-221.5" font-family="Helvetica,sans-Serif" font-size="10.00"> &lt; sgns::crypto::Hasher &gt;</text>
</g>
<!-- Node15 -->
<g id="node15" class="node">
<title>Node15</title>
<g id="a_node15"><a xlink:title=" ">
<polygon fill="white" stroke="#666666" points="882.5,-189.5 769.5,-189.5 769.5,-137.5 882.5,-137.5 882.5,-189.5"/>
<text text-anchor="start" x="777.5" y="-177.5" font-family="Helvetica,sans-Serif" font-size="10.00">{std::shared_ptr&lt; sgns</text>
<text text-anchor="middle" x="826" y="-166.5" font-family="Helvetica,sans-Serif" font-size="10.00">::crypto::CryptoStore &gt;</text>
<text text-anchor="start" x="777.5" y="-155.5" font-family="Helvetica,sans-Serif" font-size="10.00">||+ operator&#45;&gt;()</text>
<text text-anchor="middle" x="826" y="-144.5" font-family="Helvetica,sans-Serif" font-size="10.00">}</text>
</a>
</g>
</g>
<!-- Node5&#45;&gt;Node15 -->
<g id="edge20" class="edge">
<title>Node5&#45;&gt;Node15</title>
<path fill="none" stroke="orange" d="M850.29,-296.5C844.59,-265.53 835.94,-218.5 830.64,-189.73"/>
<polygon fill="orange" stroke="orange" points="846.8,-296.82 852.05,-306.02 853.68,-295.56 846.8,-296.82"/>
<text text-anchor="middle" x="902.5" y="-221.5" font-family="Helvetica,sans-Serif" font-size="10.00"> &lt; sgns::crypto::CryptoStore &gt;</text>
</g>
<!-- Node17 -->
<g id="node17" class="node">
<title>Node17</title>
<g id="a_node17"><a xlink:title=" ">
<polygon fill="white" stroke="#666666" points="1066.5,-189.5 945.5,-189.5 945.5,-137.5 1066.5,-137.5 1066.5,-189.5"/>
<text text-anchor="start" x="953.5" y="-177.5" font-family="Helvetica,sans-Serif" font-size="10.00">{std::shared_ptr&lt; sgns</text>
<text text-anchor="middle" x="1006" y="-166.5" font-family="Helvetica,sans-Serif" font-size="10.00">::crypto::Bip39Provider &gt;</text>
<text text-anchor="start" x="953.5" y="-155.5" font-family="Helvetica,sans-Serif" font-size="10.00">||+ operator&#45;&gt;()</text>
<text text-anchor="middle" x="1006" y="-144.5" font-family="Helvetica,sans-Serif" font-size="10.00">}</text>
</a>
</g>
</g>
<!-- Node5&#45;&gt;Node17 -->
<g id="edge23" class="edge">
<title>Node5&#45;&gt;Node17</title>
<path fill="none" stroke="orange" d="M896.47,-301.08C920.04,-284.23 949.14,-260.77 970,-235 980.98,-221.44 989.93,-203.98 996.16,-189.83"/>
<polygon fill="orange" stroke="orange" points="894.5,-298.18 888.32,-306.79 898.51,-303.92 894.5,-298.18"/>
<text text-anchor="middle" x="1053" y="-221.5" font-family="Helvetica,sans-Serif" font-size="10.00"> &lt; sgns::crypto::Bip39Provider &gt;</text>
</g>
<!-- Node6 -->
<g id="node6" class="node">
<title>Node6</title>
<g id="a_node6"><a xlink:title=" ">
<polygon fill="white" stroke="#666666" points="870.5,-481 841.5,-481 841.5,-451 870.5,-451 870.5,-481"/>
<text text-anchor="middle" x="856" y="-469" font-family="Helvetica,sans-Serif" font-size="10.00">{T</text>
<text text-anchor="middle" x="856" y="-458" font-family="Helvetica,sans-Serif" font-size="10.00">||}</text>
</a>
</g>
</g>
<!-- Node6&#45;&gt;Node5 -->
<g id="edge5" class="edge">
<title>Node6&#45;&gt;Node5</title>
<path fill="none" stroke="#404040" d="M856,-450.76C856,-429.85 856,-390.29 856,-362.04"/>
<polygon fill="none" stroke="#404040" points="856,-362.11 852,-356.11 856,-350.11 860,-356.11 856,-362.11"/>
<text text-anchor="middle" x="866" y="-425" font-family="Helvetica,sans-Serif" font-size="10.00"> +ptr</text>
</g>
<!-- Node7&#45;&gt;Node1 -->
<g id="edge6" class="edge">
<title>Node7&#45;&gt;Node1</title>
<path fill="none" stroke="#404040" d="M389.07,-139.31C424.11,-127.73 467.63,-113.91 507,-103 563.7,-87.29 628.28,-72.15 678,-61.07"/>
<polygon fill="none" stroke="#404040" points="678.04,-61.06 683.03,-55.86 689.75,-58.47 684.76,-63.67 678.04,-61.06"/>
<text text-anchor="middle" x="549.5" y="-106" font-family="Helvetica,sans-Serif" font-size="10.00"> &#45;sr25519_provider_</text>
</g>
<!-- Node8 -->
<g id="node8" class="node">
<title>Node8</title>
<g id="a_node8"><a xlink:href="classsgns_1_1crypto_1_1_s_r25519_provider.html" target="_top" xlink:title=" ">
<polygon fill="white" stroke="#666666" points="152,-371 0,-371 0,-286 152,-286 152,-371"/>
<text text-anchor="middle" x="76" y="-359" font-family="Helvetica,sans-Serif" font-size="10.00">{sgns::crypto::SR25519Provider</text>
<text text-anchor="start" x="8" y="-348" font-family="Helvetica,sans-Serif" font-size="10.00">||+ ~SR25519Provider()</text>
<text text-anchor="start" x="8" y="-337" font-family="Helvetica,sans-Serif" font-size="10.00">+ generateKeypair()</text>
<text text-anchor="start" x="8" y="-326" font-family="Helvetica,sans-Serif" font-size="10.00">+ generateKeypair()</text>
<text text-anchor="start" x="8" y="-315" font-family="Helvetica,sans-Serif" font-size="10.00">+ sign()</text>
<text text-anchor="start" x="8" y="-304" font-family="Helvetica,sans-Serif" font-size="10.00">+ verify()</text>
<text text-anchor="middle" x="76" y="-293" font-family="Helvetica,sans-Serif" font-size="10.00">}</text>
</a>
</g>
</g>
<!-- Node8&#45;&gt;Node7 -->
<g id="edge7" class="edge">
<title>Node8&#45;&gt;Node7</title>
<path fill="none" stroke="#404040" d="M115.49,-285.76C139.44,-262.17 171.57,-233.4 204,-213 208.4,-210.24 225.48,-202.91 245.28,-194.76"/>
<polygon fill="none" stroke="#404040" points="245.24,-194.78 249.28,-188.81 256.35,-190.24 252.31,-196.21 245.24,-194.78"/>
<text text-anchor="middle" x="214" y="-221.5" font-family="Helvetica,sans-Serif" font-size="10.00"> +ptr</text>
</g>
<!-- Node9&#45;&gt;Node1 -->
<g id="edge9" class="edge">
<title>Node9&#45;&gt;Node1</title>
<path fill="none" stroke="#404040" d="M551.12,-137.02C571.08,-126.09 594.98,-113.45 617,-103 636.8,-93.6 658.49,-84.16 678.85,-75.65"/>
<polygon fill="none" stroke="#404040" points="678.75,-75.69 682.76,-69.7 689.83,-71.1 685.82,-77.09 678.75,-75.69"/>
<text text-anchor="middle" x="661" y="-106" font-family="Helvetica,sans-Serif" font-size="10.00"> &#45;ed25519_provider_</text>
</g>
<!-- Node10 -->
<g id="node10" class="node">
<title>Node10</title>
<g id="a_node10"><a xlink:href="classsgns_1_1crypto_1_1_e_d25519_provider.html" target="_top" xlink:title=" ">
<polygon fill="white" stroke="#666666" points="321.5,-371 170.5,-371 170.5,-286 321.5,-286 321.5,-371"/>
<text text-anchor="middle" x="246" y="-359" font-family="Helvetica,sans-Serif" font-size="10.00">{sgns::crypto::ED25519Provider</text>
<text text-anchor="start" x="178.5" y="-348" font-family="Helvetica,sans-Serif" font-size="10.00">||+ ~ED25519Provider()</text>
<text text-anchor="start" x="178.5" y="-337" font-family="Helvetica,sans-Serif" font-size="10.00">+ generateKeypair()</text>
<text text-anchor="start" x="178.5" y="-326" font-family="Helvetica,sans-Serif" font-size="10.00">+ generateKeypair()</text>
<text text-anchor="start" x="178.5" y="-315" font-family="Helvetica,sans-Serif" font-size="10.00">+ sign()</text>
<text text-anchor="start" x="178.5" y="-304" font-family="Helvetica,sans-Serif" font-size="10.00">+ verify()</text>
<text text-anchor="middle" x="246" y="-293" font-family="Helvetica,sans-Serif" font-size="10.00">}</text>
</a>
</g>
</g>
<!-- Node10&#45;&gt;Node9 -->
<g id="edge10" class="edge">
<title>Node10&#45;&gt;Node9</title>
<path fill="none" stroke="#404040" d="M233.96,-285.58C229.77,-261.48 229.76,-232.25 247,-213 269.55,-187.83 364.86,-201.61 398,-195 407,-193.2 416.34,-191.04 425.6,-188.7"/>
<polygon fill="none" stroke="#404040" points="425.64,-188.68 430.43,-183.29 437.25,-185.64 432.46,-191.03 425.64,-188.68"/>
<text text-anchor="middle" x="257" y="-221.5" font-family="Helvetica,sans-Serif" font-size="10.00"> +ptr</text>
</g>
<!-- Node11&#45;&gt;Node1 -->
<g id="edge12" class="edge">
<title>Node11&#45;&gt;Node1</title>
<path fill="none" stroke="#404040" d="M1265.14,-140.76C1253.75,-137.65 1242.09,-134.62 1231,-132 1095.85,-100.11 936.73,-72.19 842.33,-56.61"/>
<polygon fill="none" stroke="#404040" points="842.19,-56.59 835.62,-59.56 830.34,-54.64 836.91,-51.67 842.19,-56.59"/>
<text text-anchor="middle" x="1190" y="-106" font-family="Helvetica,sans-Serif" font-size="10.00"> &#45;secp256k1_provider_</text>
</g>
<!-- Node12 -->
<g id="node12" class="node">
<title>Node12</title>
<g id="a_node12"><a xlink:href="classsgns_1_1crypto_1_1_secp256k1_provider.html" target="_top" xlink:title=" ">
<polygon fill="white" stroke="#666666" points="1719.5,-360 1548.5,-360 1548.5,-297 1719.5,-297 1719.5,-360"/>
<text text-anchor="middle" x="1634" y="-348" font-family="Helvetica,sans-Serif" font-size="10.00">{sgns::crypto::Secp256k1Provider</text>
<text text-anchor="start" x="1556.5" y="-337" font-family="Helvetica,sans-Serif" font-size="10.00">||+ ~Secp256k1Provider()</text>
<text text-anchor="start" x="1556.5" y="-326" font-family="Helvetica,sans-Serif" font-size="10.00">+ recoverPublickeyUncompressed()</text>
<text text-anchor="start" x="1556.5" y="-315" font-family="Helvetica,sans-Serif" font-size="10.00">+ recoverPublickeyCompressed()</text>
<text text-anchor="middle" x="1634" y="-304" font-family="Helvetica,sans-Serif" font-size="10.00">}</text>
</a>
</g>
</g>
<!-- Node12&#45;&gt;Node11 -->
<g id="edge13" class="edge">
<title>Node12&#45;&gt;Node11</title>
<path fill="none" stroke="#404040" d="M1605.61,-296.65C1580.39,-270.93 1541.38,-235.06 1501,-213 1477.06,-199.92 1449.18,-189.97 1423.31,-182.59"/>
<polygon fill="none" stroke="#404040" points="1423.24,-182.57 1416.4,-184.84 1411.66,-179.4 1418.51,-177.13 1423.24,-182.57"/>
<text text-anchor="middle" x="1543" y="-221.5" font-family="Helvetica,sans-Serif" font-size="10.00"> +ptr</text>
</g>
<!-- Node13&#45;&gt;Node1 -->
<g id="edge15" class="edge">
<title>Node13&#45;&gt;Node1</title>
<path fill="none" stroke="#404040" d="M1108.1,-142.76C1097.45,-139.14 1086.4,-135.42 1076,-132 1035.27,-118.61 1025.17,-114.95 984,-103 937.15,-89.4 884.43,-75.34 841.91,-64.3"/>
<polygon fill="none" stroke="#404040" points="841.84,-64.28 835.03,-66.65 830.22,-61.27 837.03,-58.9 841.84,-64.28"/>
<text text-anchor="middle" x="1039" y="-106" font-family="Helvetica,sans-Serif" font-size="10.00"> &#45;hasher_</text>
</g>
<!-- Node14 -->
<g id="node14" class="node">
<title>Node14</title>
<g id="a_node14"><a xlink:href="classsgns_1_1crypto_1_1_hasher.html" target="_top" xlink:title=" ">
<polygon fill="white" stroke="#666666" points="1530.5,-393 1423.5,-393 1423.5,-264 1530.5,-264 1530.5,-393"/>
<text text-anchor="middle" x="1477" y="-381" font-family="Helvetica,sans-Serif" font-size="10.00">{sgns::crypto::Hasher</text>
<text text-anchor="start" x="1431.5" y="-370" font-family="Helvetica,sans-Serif" font-size="10.00">||+ ~Hasher()</text>
<text text-anchor="start" x="1431.5" y="-359" font-family="Helvetica,sans-Serif" font-size="10.00">+ twox_64()</text>
<text text-anchor="start" x="1431.5" y="-348" font-family="Helvetica,sans-Serif" font-size="10.00">+ twox_128()</text>
<text text-anchor="start" x="1431.5" y="-337" font-family="Helvetica,sans-Serif" font-size="10.00">+ blake2b_128()</text>
<text text-anchor="start" x="1431.5" y="-326" font-family="Helvetica,sans-Serif" font-size="10.00">+ twox_256()</text>
<text text-anchor="start" x="1431.5" y="-315" font-family="Helvetica,sans-Serif" font-size="10.00">+ blake2b_256()</text>
<text text-anchor="start" x="1431.5" y="-304" font-family="Helvetica,sans-Serif" font-size="10.00">+ keccak_256()</text>
<text text-anchor="start" x="1431.5" y="-293" font-family="Helvetica,sans-Serif" font-size="10.00">+ blake2s_256()</text>
<text text-anchor="start" x="1431.5" y="-282" font-family="Helvetica,sans-Serif" font-size="10.00">+ sha2_256()</text>
<text text-anchor="middle" x="1477" y="-271" font-family="Helvetica,sans-Serif" font-size="10.00">}</text>
</a>
</g>
</g>
<!-- Node14&#45;&gt;Node13 -->
<g id="edge16" class="edge">
<title>Node14&#45;&gt;Node13</title>
<path fill="none" stroke="#404040" d="M1478.71,-263.62C1475.89,-244.8 1469.18,-225.84 1455,-213 1422.25,-183.35 1300.25,-204.01 1257,-195 1249.52,-193.44 1241.8,-191.48 1234.17,-189.3"/>
<polygon fill="none" stroke="#404040" points="1234.22,-189.32 1227.32,-191.42 1222.73,-185.86 1229.62,-183.76 1234.22,-189.32"/>
<text text-anchor="middle" x="1479" y="-221.5" font-family="Helvetica,sans-Serif" font-size="10.00"> +ptr</text>
</g>
<!-- Node15&#45;&gt;Node1 -->
<g id="edge18" class="edge">
<title>Node15&#45;&gt;Node1</title>
<path fill="none" stroke="#404040" d="M814.29,-137.02C809.22,-126.38 803.06,-113.96 797,-103 795.81,-100.84 794.57,-98.66 793.31,-96.46"/>
<polygon fill="none" stroke="#404040" points="793.37,-96.55 786.88,-93.41 787.28,-86.21 793.77,-89.35 793.37,-96.55"/>
<text text-anchor="middle" x="835" y="-106" font-family="Helvetica,sans-Serif" font-size="10.00"> &#45;crypto_store_</text>
</g>
<!-- Node16 -->
<g id="node16" class="node">
<title>Node16</title>
<g id="a_node16"><a xlink:href="classsgns_1_1crypto_1_1_crypto_store.html" target="_top" xlink:title=" ">
<polygon fill="white" stroke="#666666" points="749,-404 611,-404 611,-253 749,-253 749,-404"/>
<text text-anchor="middle" x="680" y="-392" font-family="Helvetica,sans-Serif" font-size="10.00">{sgns::crypto::CryptoStore</text>
<text text-anchor="start" x="619" y="-381" font-family="Helvetica,sans-Serif" font-size="10.00">||+ ~CryptoStore()</text>
<text text-anchor="start" x="619" y="-370" font-family="Helvetica,sans-Serif" font-size="10.00">+ generateEd25519Keypair()</text>
<text text-anchor="start" x="619" y="-359" font-family="Helvetica,sans-Serif" font-size="10.00">+ generateSr25519Keypair()</text>
<text text-anchor="start" x="619" y="-348" font-family="Helvetica,sans-Serif" font-size="10.00">+ generateEd25519Keypair()</text>
<text text-anchor="start" x="619" y="-337" font-family="Helvetica,sans-Serif" font-size="10.00">+ generateSr25519Keypair()</text>
<text text-anchor="start" x="619" y="-326" font-family="Helvetica,sans-Serif" font-size="10.00">+ generateEd25519Keypair()</text>
<text text-anchor="start" x="619" y="-315" font-family="Helvetica,sans-Serif" font-size="10.00">+ generateSr25519Keypair()</text>
<text text-anchor="start" x="619" y="-304" font-family="Helvetica,sans-Serif" font-size="10.00">+ findEd25519Keypair()</text>
<text text-anchor="start" x="619" y="-293" font-family="Helvetica,sans-Serif" font-size="10.00">+ findSr25519Keypair()</text>
<text text-anchor="start" x="619" y="-282" font-family="Helvetica,sans-Serif" font-size="10.00">+ getEd25519PublicKeys()</text>
<text text-anchor="start" x="619" y="-271" font-family="Helvetica,sans-Serif" font-size="10.00">+ getSr25519PublicKeys()</text>
<text text-anchor="middle" x="680" y="-260" font-family="Helvetica,sans-Serif" font-size="10.00">}</text>
</a>
</g>
</g>
<!-- Node16&#45;&gt;Node15 -->
<g id="edge19" class="edge">
<title>Node16&#45;&gt;Node15</title>
<path fill="none" stroke="#404040" d="M666.87,-252.65C667.96,-238.28 671.96,-224.23 681,-213 703.58,-184.95 725.91,-206.62 760,-195 760.41,-194.86 760.83,-194.72 761.25,-194.57"/>
<polygon fill="none" stroke="#404040" points="761.37,-194.52 765.57,-188.66 772.6,-190.28 768.4,-196.15 761.37,-194.52"/>
<text text-anchor="middle" x="691" y="-221.5" font-family="Helvetica,sans-Serif" font-size="10.00"> +ptr</text>
</g>
<!-- Node17&#45;&gt;Node1 -->
<g id="edge21" class="edge">
<title>Node17&#45;&gt;Node1</title>
<path fill="none" stroke="#404040" d="M953.53,-137.12C920.66,-121.22 877.65,-100.41 840.53,-82.45"/>
<polygon fill="none" stroke="#404040" points="840.82,-82.6 833.68,-83.59 830.02,-77.37 837.17,-76.38 840.82,-82.6"/>
<text text-anchor="middle" x="943" y="-106" font-family="Helvetica,sans-Serif" font-size="10.00"> &#45;bip39_provider_</text>
</g>
<!-- Node18 -->
<g id="node18" class="node">
<title>Node18</title>
<g id="a_node18"><a xlink:href="classsgns_1_1crypto_1_1_bip39_provider.html" target="_top" xlink:title=" ">
<polygon fill="white" stroke="#666666" points="1363.5,-360 1226.5,-360 1226.5,-297 1363.5,-297 1363.5,-360"/>
<text text-anchor="middle" x="1295" y="-348" font-family="Helvetica,sans-Serif" font-size="10.00">{sgns::crypto::Bip39Provider</text>
<text text-anchor="start" x="1234.5" y="-337" font-family="Helvetica,sans-Serif" font-size="10.00">||+ ~Bip39Provider()</text>
<text text-anchor="start" x="1234.5" y="-326" font-family="Helvetica,sans-Serif" font-size="10.00">+ calculateEntropy()</text>
<text text-anchor="start" x="1234.5" y="-315" font-family="Helvetica,sans-Serif" font-size="10.00">+ makeSeed()</text>
<text text-anchor="middle" x="1295" y="-304" font-family="Helvetica,sans-Serif" font-size="10.00">}</text>
</a>
</g>
</g>
<!-- Node18&#45;&gt;Node17 -->
<g id="edge22" class="edge">
<title>Node18&#45;&gt;Node17</title>
<path fill="none" stroke="#404040" d="M1298.27,-296.72C1299.2,-270.51 1295.75,-233.87 1273,-213 1244.52,-186.87 1137.81,-203.01 1100,-195 1093.23,-193.57 1086.27,-191.83 1079.33,-189.92"/>
<polygon fill="none" stroke="#404040" points="1079.32,-189.91 1072.44,-192.08 1067.8,-186.57 1074.67,-184.4 1079.32,-189.91"/>
<text text-anchor="middle" x="1297" y="-221.5" font-family="Helvetica,sans-Serif" font-size="10.00"> +ptr</text>
</g>
</g>
</svg>
        <g id="navigator" transform="translate(0 0)" fill="#404254">
                <rect fill="#f2f5e9" fill-opacity="0.5" stroke="#606060" stroke-width=".5" x="0" y="0" width="60" height="60"/>
                <use id="zoomplus" xlink:href="#zoomPlus" x="17" y="9" onmousedown="handleZoom(evt,'in')"/>
                <use id="zoomminus" xlink:href="#zoomMin" x="42" y="9" onmousedown="handleZoom(evt,'out')"/>
                <use id="reset" xlink:href="#resetDef" x="30" y="36" onmousedown="handleReset()"/>
                <g id="arrowUp" xlink:href="#dirArrow" transform="translate(30 24)" onmousedown="handlePan(0,-1)">
                  <use xlink:href="#rim" fill="#404040">
                        <set attributeName="fill" to="#808080" begin="arrowUp.mouseover" end="arrowUp.mouseout"/>
                  </use>
                  <path fill="none" stroke="white" stroke-width="1.5" d="M0,-3.0v7 M-2.5,-0.5L0,-3.0L2.5,-0.5"/>
                </g>
                <g id="arrowRight" xlink:href="#dirArrow" transform="rotate(90) translate(36 -43)" onmousedown="handlePan(1,0)">
                  <use xlink:href="#rim" fill="#404040">
                        <set attributeName="fill" to="#808080" begin="arrowRight.mouseover" end="arrowRight.mouseout"/>
                  </use>
                  <path fill="none" stroke="white" stroke-width="1.5" d="M0,-3.0v7 M-2.5,-0.5L0,-3.0L2.5,-0.5"/>
                </g>
                <g id="arrowDown" xlink:href="#dirArrow" transform="rotate(180) translate(-30 -48)" onmousedown="handlePan(0,1)">
                  <use xlink:href="#rim" fill="#404040">
                        <set attributeName="fill" to="#808080" begin="arrowDown.mouseover" end="arrowDown.mouseout"/>
                  </use>
                  <path fill="none" stroke="white" stroke-width="1.5" d="M0,-3.0v7 M-2.5,-0.5L0,-3.0L2.5,-0.5"/>
                </g>
                <g id="arrowLeft" xlink:href="#dirArrow" transform="rotate(270) translate(-36 17)" onmousedown="handlePan(-1,0)">
                  <use xlink:href="#rim" fill="#404040">
                        <set attributeName="fill" to="#808080" begin="arrowLeft.mouseover" end="arrowLeft.mouseout"/>
                  </use>
                  <path fill="none" stroke="white" stroke-width="1.5" d="M0,-3.0v7 M-2.5,-0.5L0,-3.0L2.5,-0.5"/>
                </g>
        </g>
        <svg viewBox="0 0 15 15" width="100%" height="30px" preserveAspectRatio="xMaxYMin meet">
         <g id="arrow_out" transform="scale(0.3 0.3)">
          <a xlink:href="classsgns_1_1extensions_1_1_extension_factory_impl__coll__graph_org.svg" target="_base">
           <rect id="button" ry="5" rx="5" y="6" x="6" height="38" width="38"
                fill="#f2f5e9" fill-opacity="0.5" stroke="#606060" stroke-width="1.0"/>
           <path id="arrow"
             d="M 11.500037,31.436501 C 11.940474,20.09759 22.043105,11.32322 32.158766,21.979434 L 37.068811,17.246167 C 37.068811,17.246167 37.088388,32 37.088388,32 L 22.160133,31.978069 C 22.160133,31.978069 26.997745,27.140456 26.997745,27.140456 C 18.528582,18.264221 13.291696,25.230495 11.500037,31.436501 z"
             style="fill:#404040;"/>
          </a>
         </g>
        </svg>
</svg>
