<?xml version="1.0" encoding="UTF-8" standalone="no"?>
<!DOCTYPE svg PUBLIC "-//W3C//DTD SVG 1.1//EN"
 "http://www.w3.org/Graphics/SVG/1.1/DTD/svg11.dtd">
<!-- Generated by graphviz version 7.0.5 (20221223.1930)
 -->
<!-- Title: sgns::face::ForwardIterator&lt; Container &gt; Pages: 1 -->
<svg width="199pt" height="489pt"
 viewBox="0.00 0.00 199.00 489.00" xmlns="http://www.w3.org/2000/svg" xmlns:xlink="http://www.w3.org/1999/xlink">
<g id="graph0" class="graph" transform="scale(1 1) rotate(0) translate(4 485)">
<title>sgns::face::ForwardIterator&lt; Container &gt;</title>
<!-- Node1 -->
<g id="node1" class="node">
<title>Node1</title>
<g id="a_node1"><a xlink:title=" ">
<polygon fill="#999999" stroke="#666666" points="134,-184 0,-184 0,0 134,0 134,-184"/>
<text text-anchor="start" x="8" y="-172" font-family="Helvetica,sans-Serif" font-size="10.00">{sgns::face::ForwardIterator</text>
<text text-anchor="middle" x="67" y="-161" font-family="Helvetica,sans-Serif" font-size="10.00">&lt; Container &gt;</text>
<text text-anchor="start" x="8" y="-150" font-family="Helvetica,sans-Serif" font-size="10.00">||+ ForwardIterator()</text>
<text text-anchor="start" x="8" y="-139" font-family="Helvetica,sans-Serif" font-size="10.00">+ ForwardIterator()</text>
<text text-anchor="start" x="8" y="-128" font-family="Helvetica,sans-Serif" font-size="10.00">+ ForwardIterator()</text>
<text text-anchor="start" x="8" y="-117" font-family="Helvetica,sans-Serif" font-size="10.00">+ ~ForwardIterator()</text>
<text text-anchor="start" x="8" y="-106" font-family="Helvetica,sans-Serif" font-size="10.00">+ get_iterator()</text>
<text text-anchor="start" x="8" y="-95" font-family="Helvetica,sans-Serif" font-size="10.00">+ get_iterator()</text>
<text text-anchor="start" x="8" y="-84" font-family="Helvetica,sans-Serif" font-size="10.00">+ operator=()</text>
<text text-anchor="start" x="8" y="-73" font-family="Helvetica,sans-Serif" font-size="10.00">+ operator=()</text>
<text text-anchor="start" x="8" y="-62" font-family="Helvetica,sans-Serif" font-size="10.00">+ operator!=()</text>
<text text-anchor="start" x="8" y="-51" font-family="Helvetica,sans-Serif" font-size="10.00">+ operator==()</text>
<text text-anchor="start" x="8" y="-40" font-family="Helvetica,sans-Serif" font-size="10.00">+ operator*()</text>
<text text-anchor="start" x="8" y="-29" font-family="Helvetica,sans-Serif" font-size="10.00">+ operator&#45;&gt;()</text>
<text text-anchor="start" x="8" y="-18" font-family="Helvetica,sans-Serif" font-size="10.00">+ operator++()</text>
<text text-anchor="middle" x="67" y="-7" font-family="Helvetica,sans-Serif" font-size="10.00">}</text>
</a>
</g>
</g>
<!-- Node2 -->
<g id="node2" class="node">
<title>Node2</title>
<g id="a_node2"><a xlink:title=" ">
<polygon fill="white" stroke="#666666" points="123,-305 11,-305 11,-231 123,-231 123,-305"/>
<text text-anchor="start" x="19" y="-293" font-family="Helvetica,sans-Serif" font-size="10.00">{std::unique_ptr&lt; sgns</text>
<text text-anchor="start" x="19" y="-282" font-family="Helvetica,sans-Serif" font-size="10.00">::face::GenericIterator</text>
<text text-anchor="middle" x="67" y="-271" font-family="Helvetica,sans-Serif" font-size="10.00">&lt; Container &gt; &gt;</text>
<text text-anchor="start" x="19" y="-260" font-family="Helvetica,sans-Serif" font-size="10.00">|+ ptr</text>
<text text-anchor="start" x="19" y="-249" font-family="Helvetica,sans-Serif" font-size="10.00">|+ operator&#45;&gt;()</text>
<text text-anchor="middle" x="67" y="-238" font-family="Helvetica,sans-Serif" font-size="10.00">}</text>
</a>
</g>
</g>
<!-- Node2&#45;&gt;Node1 -->
<g id="edge1" class="edge">
<title>Node2&#45;&gt;Node1</title>
<path fill="none" stroke="#404040" d="M67,-230.52C67,-220.5 67,-209.1 67,-197.26"/>
<polygon fill="none" stroke="#404040" points="67,-197.18 63,-191.18 67,-185.18 71,-191.18 67,-197.18"/>
<text text-anchor="middle" x="75" y="-205" font-family="Helvetica,sans-Serif" font-size="10.00"> &#45;it_</text>
</g>
<!-- Node3 -->
<g id="node3" class="node">
<title>Node3</title>
<g id="a_node3"><a xlink:title=" ">
<polygon fill="white" stroke="#666666" points="119.5,-404 14.5,-404 14.5,-363 119.5,-363 119.5,-404"/>
<text text-anchor="middle" x="67" y="-392" font-family="Helvetica,sans-Serif" font-size="10.00">{std::unique_ptr&lt; T &gt;</text>
<text text-anchor="start" x="22.5" y="-381" font-family="Helvetica,sans-Serif" font-size="10.00">||+ operator&#45;&gt;()</text>
<text text-anchor="middle" x="67" y="-370" font-family="Helvetica,sans-Serif" font-size="10.00">}</text>
</a>
</g>
</g>
<!-- Node3&#45;&gt;Node2 -->
<g id="edge2" class="edge">
<title>Node3&#45;&gt;Node2</title>
<path fill="none" stroke="orange" d="M67,-351.53C67,-337.31 67,-320.34 67,-305.5"/>
<polygon fill="orange" stroke="orange" points="63.5,-351.22 67,-361.22 70.5,-351.22 63.5,-351.22"/>
<text text-anchor="start" x="67" y="-337" font-family="Helvetica,sans-Serif" font-size="10.00"> &lt; sgns::face::GenericIterator</text>
<text text-anchor="middle" x="129" y="-326" font-family="Helvetica,sans-Serif" font-size="10.00">&lt; Container &gt; &gt;</text>
</g>
<!-- Node4 -->
<g id="node4" class="node">
<title>Node4</title>
<g id="a_node4"><a xlink:title=" ">
<polygon fill="white" stroke="#666666" points="81.5,-481 52.5,-481 52.5,-451 81.5,-451 81.5,-481"/>
<text text-anchor="middle" x="67" y="-469" font-family="Helvetica,sans-Serif" font-size="10.00">{T</text>
<text text-anchor="middle" x="67" y="-458" font-family="Helvetica,sans-Serif" font-size="10.00">||}</text>
</a>
</g>
</g>
<!-- Node4&#45;&gt;Node3 -->
<g id="edge3" class="edge">
<title>Node4&#45;&gt;Node3</title>
<path fill="none" stroke="#404040" d="M67,-450.61C67,-441.31 67,-428.82 67,-417.21"/>
<polygon fill="none" stroke="#404040" points="67,-417.11 63,-411.11 67,-405.11 71,-411.11 67,-417.11"/>
<text text-anchor="middle" x="77" y="-425" font-family="Helvetica,sans-Serif" font-size="10.00"> +ptr</text>
</g>
</g>
</svg>
