<?xml version="1.0" encoding="UTF-8" standalone="no"?>
<!DOCTYPE svg PUBLIC "-//W3C//DTD SVG 1.1//EN"
 "http://www.w3.org/Graphics/SVG/1.1/DTD/svg11.dtd">
<!-- Generated by graphviz version 7.0.5 (20221223.1930)
 -->
<!-- Title: sgns::application::ValidatingNodeApplication Pages: 1 -->
<!--zoomable 610 -->
<svg id="main" version="1.1" xmlns="http://www.w3.org/2000/svg" xmlns:xlink="http://www.w3.org/1999/xlink" xml:space="preserve" onload="init(evt)">
<style type="text/css"><![CDATA[
.edge:hover path { stroke: red; }
.edge:hover polygon { stroke: red; fill: red; }
]]></style>
<script type="text/javascript"><![CDATA[
var edges = document.getElementsByTagName('g');
if (edges && edges.length) {
  for (var i=0;i<edges.length;i++) {
    if (edges[i].id.substr(0,4)=='edge') {
      edges[i].setAttribute('class','edge');
    }
  }
}
]]></script>
        <defs>
                <circle id="rim" cx="0" cy="0" r="7"/>
                <circle id="rim2" cx="0" cy="0" r="3.5"/>
                <g id="zoomPlus">
                        <use xlink:href="#rim" fill="#404040">
                                <set attributeName="fill" to="#808080" begin="zoomplus.mouseover" end="zoomplus.mouseout"/>
                        </use>
                        <path d="M-4,0h8M0,-4v8" fill="none" stroke="white" stroke-width="1.5" pointer-events="none"/>
                </g>
                <g id="zoomMin">
                        <use xlink:href="#rim" fill="#404040">
                                <set attributeName="fill" to="#808080" begin="zoomminus.mouseover" end="zoomminus.mouseout"/>
                        </use>
                        <path d="M-4,0h8" fill="none" stroke="white" stroke-width="1.5" pointer-events="none"/>
                </g>
                <g id="dirArrow">
                        <path fill="none" stroke="white" stroke-width="1.5" d="M0,-3.0v7 M-2.5,-0.5L0,-3.0L2.5,-0.5"/>
                </g>
               <g id="resetDef">
                       <use xlink:href="#rim2" fill="#404040">
                               <set attributeName="fill" to="#808080" begin="reset.mouseover" end="reset.mouseout"/>
                       </use>
               </g>
        </defs>

<script type="text/javascript">
var viewWidth = 647;
var viewHeight = 610;
var sectionId = 'dynsection-1';
</script>
<script xlink:href="svgpan.js"/>
<svg id="graph" class="graph">
<g id="viewport">
<title>sgns::application::ValidatingNodeApplication</title>
<!-- Node1 -->
<g id="node1" class="node">
<title>Node1</title>
<g id="a_node1"><a xlink:title=" ">
<polygon fill="#999999" stroke="#666666" points="399.5,-173 247.5,-173 247.5,0 399.5,0 399.5,-173"/>
<text text-anchor="start" x="255.5" y="-161" font-family="Helvetica,sans-Serif" font-size="10.00">{sgns::application::</text>
<text text-anchor="middle" x="323.5" y="-150" font-family="Helvetica,sans-Serif" font-size="10.00">ValidatingNodeApplication</text>
<text text-anchor="start" x="255.5" y="-139" font-family="Helvetica,sans-Serif" font-size="10.00">|&#45; config_storage_</text>
<text text-anchor="start" x="255.5" y="-128" font-family="Helvetica,sans-Serif" font-size="10.00">&#45; key_storage_</text>
<text text-anchor="start" x="255.5" y="-117" font-family="Helvetica,sans-Serif" font-size="10.00">&#45; clock_</text>
<text text-anchor="start" x="255.5" y="-106" font-family="Helvetica,sans-Serif" font-size="10.00">&#45; production_</text>
<text text-anchor="start" x="255.5" y="-95" font-family="Helvetica,sans-Serif" font-size="10.00">&#45; finality_</text>
<text text-anchor="start" x="255.5" y="-84" font-family="Helvetica,sans-Serif" font-size="10.00">&#45; router_</text>
<text text-anchor="start" x="255.5" y="-73" font-family="Helvetica,sans-Serif" font-size="10.00">&#45; jrpc_api_service_</text>
<text text-anchor="start" x="255.5" y="-62" font-family="Helvetica,sans-Serif" font-size="10.00">&#45; production_execution</text>
<text text-anchor="start" x="255.5" y="-51" font-family="Helvetica,sans-Serif" font-size="10.00">_strategy_</text>
<text text-anchor="start" x="255.5" y="-40" font-family="Helvetica,sans-Serif" font-size="10.00">|+ ~ValidatingNodeApplication()</text>
<text text-anchor="start" x="255.5" y="-29" font-family="Helvetica,sans-Serif" font-size="10.00">+ ValidatingNodeApplication()</text>
<text text-anchor="start" x="255.5" y="-18" font-family="Helvetica,sans-Serif" font-size="10.00">+ run()</text>
<text text-anchor="middle" x="323.5" y="-7" font-family="Helvetica,sans-Serif" font-size="10.00">}</text>
</a>
</g>
</g>
<!-- Node2 -->
<g id="node2" class="node">
<title>Node2</title>
<g id="a_node2"><a xlink:href="classsgns_1_1application_1_1_sgns_application.html" target="_top" xlink:title=" ">
<polygon fill="white" stroke="#666666" points="111,-283 0,-283 0,-220 111,-220 111,-283"/>
<text text-anchor="start" x="8" y="-271" font-family="Helvetica,sans-Serif" font-size="10.00">{sgns::application::</text>
<text text-anchor="middle" x="55.5" y="-260" font-family="Helvetica,sans-Serif" font-size="10.00">SgnsApplication</text>
<text text-anchor="start" x="8" y="-249" font-family="Helvetica,sans-Serif" font-size="10.00">||+ ~SgnsApplication()</text>
<text text-anchor="start" x="8" y="-238" font-family="Helvetica,sans-Serif" font-size="10.00">+ run()</text>
<text text-anchor="middle" x="55.5" y="-227" font-family="Helvetica,sans-Serif" font-size="10.00">}</text>
</a>
</g>
</g>
<!-- Node2&#45;&gt;Node1 -->
<g id="edge1" class="edge">
<title>Node2&#45;&gt;Node1</title>
<path fill="none" stroke="#63b8ff" d="M115.83,-213.81C154.66,-190.19 205.47,-159.28 247.12,-133.96"/>
<polygon fill="none" stroke="#63b8ff" points="114.24,-210.68 107.52,-218.86 117.88,-216.66 114.24,-210.68"/>
</g>
<!-- Node3 -->
<g id="node3" class="node">
<title>Node3</title>
<g id="a_node3"><a xlink:title=" ">
<polygon fill="white" stroke="#666666" points="413.5,-448 307.5,-448 307.5,-407 413.5,-407 413.5,-448"/>
<text text-anchor="middle" x="360.5" y="-436" font-family="Helvetica,sans-Serif" font-size="10.00">{std::shared_ptr&lt; T &gt;</text>
<text text-anchor="start" x="315.5" y="-425" font-family="Helvetica,sans-Serif" font-size="10.00">||+ operator&#45;&gt;()</text>
<text text-anchor="middle" x="360.5" y="-414" font-family="Helvetica,sans-Serif" font-size="10.00">}</text>
</a>
</g>
</g>
<!-- Node3&#45;&gt;Node1 -->
<g id="edge2" class="edge">
<title>Node3&#45;&gt;Node1</title>
<path fill="none" stroke="#404040" d="M355.67,-406.68C349.19,-379.13 337.85,-327.61 332.5,-283 328.73,-251.57 326.51,-217.13 325.22,-186.02"/>
<polygon fill="none" stroke="#404040" points="325.23,-186.26 321,-180.42 324.77,-174.27 328.99,-180.12 325.23,-186.26"/>
<text text-anchor="middle" x="354" y="-249" font-family="Helvetica,sans-Serif" font-size="10.00"> &#45;injector_</text>
</g>
<!-- Node5 -->
<g id="node5" class="node">
<title>Node5</title>
<g id="a_node5"><a xlink:title=" ">
<polygon fill="white" stroke="#666666" points="287.5,-277.5 129.5,-277.5 129.5,-225.5 287.5,-225.5 287.5,-277.5"/>
<text text-anchor="start" x="137.5" y="-265.5" font-family="Helvetica,sans-Serif" font-size="10.00">{std::shared_ptr&lt; sgns</text>
<text text-anchor="middle" x="208.5" y="-254.5" font-family="Helvetica,sans-Serif" font-size="10.00">::application::AppStateManager &gt;</text>
<text text-anchor="start" x="137.5" y="-243.5" font-family="Helvetica,sans-Serif" font-size="10.00">||+ operator&#45;&gt;()</text>
<text text-anchor="middle" x="208.5" y="-232.5" font-family="Helvetica,sans-Serif" font-size="10.00">}</text>
</a>
</g>
</g>
<!-- Node3&#45;&gt;Node5 -->
<g id="edge7" class="edge">
<title>Node3&#45;&gt;Node5</title>
<path fill="none" stroke="orange" d="M323.91,-400.09C282.12,-369.89 219.34,-324.39 218.5,-323 210.42,-309.54 207.89,-292.09 207.4,-277.91"/>
<polygon fill="orange" stroke="orange" points="321.62,-402.75 331.77,-405.77 325.72,-397.08 321.62,-402.75"/>
<text text-anchor="start" x="218.5" y="-315" font-family="Helvetica,sans-Serif" font-size="10.00"> &lt; sgns::application</text>
<text text-anchor="middle" x="264" y="-304" font-family="Helvetica,sans-Serif" font-size="10.00">::AppStateManager &gt;</text>
</g>
<!-- Node8 -->
<g id="node8" class="node">
<title>Node8</title>
<g id="a_node8"><a xlink:title=" ">
<polygon fill="white" stroke="#666666" points="500.5,-283 384.5,-283 384.5,-220 500.5,-220 500.5,-283"/>
<text text-anchor="start" x="392.5" y="-271" font-family="Helvetica,sans-Serif" font-size="10.00">{std::shared_ptr&lt; boost</text>
<text text-anchor="middle" x="442.5" y="-260" font-family="Helvetica,sans-Serif" font-size="10.00">::asio::io_context &gt;</text>
<text text-anchor="start" x="392.5" y="-249" font-family="Helvetica,sans-Serif" font-size="10.00">|+ ptr</text>
<text text-anchor="start" x="392.5" y="-238" font-family="Helvetica,sans-Serif" font-size="10.00">|+ operator&#45;&gt;()</text>
<text text-anchor="middle" x="442.5" y="-227" font-family="Helvetica,sans-Serif" font-size="10.00">}</text>
</a>
</g>
</g>
<!-- Node3&#45;&gt;Node8 -->
<g id="edge9" class="edge">
<title>Node3&#45;&gt;Node8</title>
<path fill="none" stroke="orange" d="M374.81,-396.14C389.72,-364.49 412.98,-315.15 427.97,-283.33"/>
<polygon fill="orange" stroke="orange" points="371.65,-394.63 370.55,-405.17 377.98,-397.62 371.65,-394.63"/>
<text text-anchor="middle" x="475" y="-309.5" font-family="Helvetica,sans-Serif" font-size="10.00"> &lt; boost::asio::io_context &gt;</text>
</g>
<!-- Node9 -->
<g id="node9" class="node">
<title>Node9</title>
<g id="a_node9"><a xlink:title=" ">
<polygon fill="white" stroke="#666666" points="638.5,-283 518.5,-283 518.5,-220 638.5,-220 638.5,-283"/>
<text text-anchor="start" x="526.5" y="-271" font-family="Helvetica,sans-Serif" font-size="10.00">{std::shared_ptr&lt; spdlog</text>
<text text-anchor="middle" x="578.5" y="-260" font-family="Helvetica,sans-Serif" font-size="10.00">::logger &gt;</text>
<text text-anchor="start" x="526.5" y="-249" font-family="Helvetica,sans-Serif" font-size="10.00">|+ ptr</text>
<text text-anchor="start" x="526.5" y="-238" font-family="Helvetica,sans-Serif" font-size="10.00">|+ operator&#45;&gt;()</text>
<text text-anchor="middle" x="578.5" y="-227" font-family="Helvetica,sans-Serif" font-size="10.00">}</text>
</a>
</g>
</g>
<!-- Node3&#45;&gt;Node9 -->
<g id="edge11" class="edge">
<title>Node3&#45;&gt;Node9</title>
<path fill="none" stroke="orange" d="M417.49,-401.71C454.25,-383.71 501.39,-356.65 535.5,-323 547.03,-311.62 556.76,-296.55 564.03,-283.27"/>
<polygon fill="orange" stroke="orange" points="416.28,-398.41 408.78,-405.89 419.31,-404.72 416.28,-398.41"/>
<text text-anchor="middle" x="592" y="-309.5" font-family="Helvetica,sans-Serif" font-size="10.00"> &lt; spdlog::logger &gt;</text>
</g>
<!-- Node4 -->
<g id="node4" class="node">
<title>Node4</title>
<g id="a_node4"><a xlink:title=" ">
<polygon fill="white" stroke="#666666" points="375,-596.5 346,-596.5 346,-566.5 375,-566.5 375,-596.5"/>
<text text-anchor="middle" x="360.5" y="-584.5" font-family="Helvetica,sans-Serif" font-size="10.00">{T</text>
<text text-anchor="middle" x="360.5" y="-573.5" font-family="Helvetica,sans-Serif" font-size="10.00">||}</text>
</a>
</g>
</g>
<!-- Node4&#45;&gt;Node3 -->
<g id="edge3" class="edge">
<title>Node4&#45;&gt;Node3</title>
<path fill="none" stroke="#404040" d="M360.5,-566.2C360.5,-542.34 360.5,-493.81 360.5,-461.22"/>
<polygon fill="none" stroke="#404040" points="360.5,-461.24 356.5,-455.24 360.5,-449.24 364.5,-455.24 360.5,-461.24"/>
<text text-anchor="middle" x="370.5" y="-535" font-family="Helvetica,sans-Serif" font-size="10.00"> +ptr</text>
</g>
<!-- Node5&#45;&gt;Node1 -->
<g id="edge4" class="edge">
<title>Node5&#45;&gt;Node1</title>
<path fill="none" stroke="#404040" d="M206.15,-225.14C206.13,-214.17 207.52,-201.47 212.5,-191 218.95,-177.43 228.04,-164.77 238.26,-153.28"/>
<polygon fill="none" stroke="#404040" points="238.24,-153.31 239.44,-146.2 246.47,-144.58 245.27,-151.69 238.24,-153.31"/>
<text text-anchor="middle" x="261" y="-194" font-family="Helvetica,sans-Serif" font-size="10.00"> &#45;app_state_manager_</text>
</g>
<!-- Node6 -->
<g id="node6" class="node">
<title>Node6</title>
<g id="a_node6"><a xlink:href="classsgns_1_1application_1_1_app_state_manager.html" target="_top" xlink:title=" ">
<polygon fill="white" stroke="#666666" points="234,-514 115,-514 115,-341 234,-341 234,-514"/>
<text text-anchor="start" x="123" y="-502" font-family="Helvetica,sans-Serif" font-size="10.00">{sgns::application::</text>
<text text-anchor="middle" x="174.5" y="-491" font-family="Helvetica,sans-Serif" font-size="10.00">AppStateManager</text>
<text text-anchor="start" x="123" y="-480" font-family="Helvetica,sans-Serif" font-size="10.00">||+ ~AppStateManager()</text>
<text text-anchor="start" x="123" y="-469" font-family="Helvetica,sans-Serif" font-size="10.00">+ atPrepare()</text>
<text text-anchor="start" x="123" y="-458" font-family="Helvetica,sans-Serif" font-size="10.00">+ atLaunch()</text>
<text text-anchor="start" x="123" y="-447" font-family="Helvetica,sans-Serif" font-size="10.00">+ atShutdown()</text>
<text text-anchor="start" x="123" y="-436" font-family="Helvetica,sans-Serif" font-size="10.00">+ registerHandlers()</text>
<text text-anchor="start" x="123" y="-425" font-family="Helvetica,sans-Serif" font-size="10.00">+ takeControl()</text>
<text text-anchor="start" x="123" y="-414" font-family="Helvetica,sans-Serif" font-size="10.00">+ run()</text>
<text text-anchor="start" x="123" y="-403" font-family="Helvetica,sans-Serif" font-size="10.00">+ shutdown()</text>
<text text-anchor="start" x="123" y="-392" font-family="Helvetica,sans-Serif" font-size="10.00">+ state()</text>
<text text-anchor="start" x="123" y="-381" font-family="Helvetica,sans-Serif" font-size="10.00"># doPrepare()</text>
<text text-anchor="start" x="123" y="-370" font-family="Helvetica,sans-Serif" font-size="10.00"># doLaunch()</text>
<text text-anchor="start" x="123" y="-359" font-family="Helvetica,sans-Serif" font-size="10.00"># doShutdown()</text>
<text text-anchor="middle" x="174.5" y="-348" font-family="Helvetica,sans-Serif" font-size="10.00">}</text>
</a>
</g>
</g>
<!-- Node6&#45;&gt;Node5 -->
<g id="edge5" class="edge">
<title>Node6&#45;&gt;Node5</title>
<path fill="none" stroke="#404040" d="M168.48,-340.73C169.44,-327.23 171.57,-313.58 175.5,-301 176.76,-296.97 178.48,-292.96 180.47,-289.09"/>
<polygon fill="none" stroke="#404040" points="180.51,-289.04 180.14,-281.84 186.65,-278.73 187.01,-285.93 180.51,-289.04"/>
<text text-anchor="middle" x="185.5" y="-309.5" font-family="Helvetica,sans-Serif" font-size="10.00"> +ptr</text>
</g>
<!-- Node7 -->
<g id="node7" class="node">
<title>Node7</title>
<g id="a_node7"><a xlink:title=" ">
<polygon fill="white" stroke="#666666" points="253,-602 96,-602 96,-561 253,-561 253,-602"/>
<text text-anchor="start" x="104" y="-590" font-family="Helvetica,sans-Serif" font-size="10.00">{std::enable_shared</text>
<text text-anchor="middle" x="174.5" y="-579" font-family="Helvetica,sans-Serif" font-size="10.00">_from_this&lt; AppStateManager &gt;</text>
<text text-anchor="middle" x="174.5" y="-568" font-family="Helvetica,sans-Serif" font-size="10.00">||}</text>
</a>
</g>
</g>
<!-- Node7&#45;&gt;Node6 -->
<g id="edge6" class="edge">
<title>Node7&#45;&gt;Node6</title>
<path fill="none" stroke="#63b8ff" d="M174.5,-549.35C174.5,-539 174.5,-526.91 174.5,-514.47"/>
<polygon fill="none" stroke="#63b8ff" points="171,-549.12 174.5,-559.12 178,-549.12 171,-549.12"/>
</g>
<!-- Node8&#45;&gt;Node1 -->
<g id="edge8" class="edge">
<title>Node8&#45;&gt;Node1</title>
<path fill="none" stroke="#404040" d="M420.12,-219.84C412.41,-209.29 403.33,-196.85 393.86,-183.88"/>
<polygon fill="none" stroke="#404040" points="393.82,-183.82 387.05,-181.33 386.74,-174.13 393.51,-176.61 393.82,-183.82"/>
<text text-anchor="middle" x="431" y="-194" font-family="Helvetica,sans-Serif" font-size="10.00"> &#45;io_context_</text>
</g>
<!-- Node9&#45;&gt;Node1 -->
<g id="edge10" class="edge">
<title>Node9&#45;&gt;Node1</title>
<path fill="none" stroke="#404040" d="M530.24,-219.65C496.51,-198.09 450.53,-168.7 410.49,-143.11"/>
<polygon fill="none" stroke="#404040" points="410.51,-143.12 403.3,-143.26 400.4,-136.66 407.61,-136.52 410.51,-143.12"/>
<text text-anchor="middle" x="514" y="-194" font-family="Helvetica,sans-Serif" font-size="10.00"> &#45;logger_</text>
</g>
</g>
</svg>
        <g id="navigator" transform="translate(0 0)" fill="#404254">
                <rect fill="#f2f5e9" fill-opacity="0.5" stroke="#606060" stroke-width=".5" x="0" y="0" width="60" height="60"/>
                <use id="zoomplus" xlink:href="#zoomPlus" x="17" y="9" onmousedown="handleZoom(evt,'in')"/>
                <use id="zoomminus" xlink:href="#zoomMin" x="42" y="9" onmousedown="handleZoom(evt,'out')"/>
                <use id="reset" xlink:href="#resetDef" x="30" y="36" onmousedown="handleReset()"/>
                <g id="arrowUp" xlink:href="#dirArrow" transform="translate(30 24)" onmousedown="handlePan(0,-1)">
                  <use xlink:href="#rim" fill="#404040">
                        <set attributeName="fill" to="#808080" begin="arrowUp.mouseover" end="arrowUp.mouseout"/>
                  </use>
                  <path fill="none" stroke="white" stroke-width="1.5" d="M0,-3.0v7 M-2.5,-0.5L0,-3.0L2.5,-0.5"/>
                </g>
                <g id="arrowRight" xlink:href="#dirArrow" transform="rotate(90) translate(36 -43)" onmousedown="handlePan(1,0)">
                  <use xlink:href="#rim" fill="#404040">
                        <set attributeName="fill" to="#808080" begin="arrowRight.mouseover" end="arrowRight.mouseout"/>
                  </use>
                  <path fill="none" stroke="white" stroke-width="1.5" d="M0,-3.0v7 M-2.5,-0.5L0,-3.0L2.5,-0.5"/>
                </g>
                <g id="arrowDown" xlink:href="#dirArrow" transform="rotate(180) translate(-30 -48)" onmousedown="handlePan(0,1)">
                  <use xlink:href="#rim" fill="#404040">
                        <set attributeName="fill" to="#808080" begin="arrowDown.mouseover" end="arrowDown.mouseout"/>
                  </use>
                  <path fill="none" stroke="white" stroke-width="1.5" d="M0,-3.0v7 M-2.5,-0.5L0,-3.0L2.5,-0.5"/>
                </g>
                <g id="arrowLeft" xlink:href="#dirArrow" transform="rotate(270) translate(-36 17)" onmousedown="handlePan(-1,0)">
                  <use xlink:href="#rim" fill="#404040">
                        <set attributeName="fill" to="#808080" begin="arrowLeft.mouseover" end="arrowLeft.mouseout"/>
                  </use>
                  <path fill="none" stroke="white" stroke-width="1.5" d="M0,-3.0v7 M-2.5,-0.5L0,-3.0L2.5,-0.5"/>
                </g>
        </g>
        <svg viewBox="0 0 15 15" width="100%" height="30px" preserveAspectRatio="xMaxYMin meet">
         <g id="arrow_out" transform="scale(0.3 0.3)">
          <a xlink:href="classsgns_1_1application_1_1_validating_node_application__coll__graph_org.svg" target="_base">
           <rect id="button" ry="5" rx="5" y="6" x="6" height="38" width="38"
                fill="#f2f5e9" fill-opacity="0.5" stroke="#606060" stroke-width="1.0"/>
           <path id="arrow"
             d="M 11.500037,31.436501 C 11.940474,20.09759 22.043105,11.32322 32.158766,21.979434 L 37.068811,17.246167 C 37.068811,17.246167 37.088388,32 37.088388,32 L 22.160133,31.978069 C 22.160133,31.978069 26.997745,27.140456 26.997745,27.140456 C 18.528582,18.264221 13.291696,25.230495 11.500037,31.436501 z"
             style="fill:#404040;"/>
          </a>
         </g>
        </svg>
</svg>
