<?xml version="1.0" encoding="UTF-8" standalone="no"?>
<!DOCTYPE svg PUBLIC "-//W3C//DTD SVG 1.1//EN"
 "http://www.w3.org/Graphics/SVG/1.1/DTD/svg11.dtd">
<!-- Generated by graphviz version 7.0.5 (20221223.1930)
 -->
<!-- Title: sgns::crdt::CrdtSet Pages: 1 -->
<svg width="1010pt" height="1017pt"
 viewBox="0.00 0.00 1009.50 1017.00" xmlns="http://www.w3.org/2000/svg" xmlns:xlink="http://www.w3.org/1999/xlink">
<g id="graph0" class="graph" transform="scale(1 1) rotate(0) translate(4 1013)">
<title>sgns::crdt::CrdtSet</title>
<!-- Node1 -->
<g id="node1" class="node">
<title>Node1</title>
<g id="a_node1"><a xlink:title="CrdtSet implements an Add&#45;Wins Observed&#45;Remove Set using delta&#45;CRDTs (https://arxiv....">
<polygon fill="#999999" stroke="#666666" points="797.5,-184 661.5,-184 661.5,0 797.5,0 797.5,-184"/>
<text text-anchor="middle" x="729.5" y="-172" font-family="Helvetica,sans-Serif" font-size="10.00">{sgns::crdt::CrdtSet</text>
<text text-anchor="start" x="669.5" y="-161" font-family="Helvetica,sans-Serif" font-size="10.00">|&#45; putHookFunc_</text>
<text text-anchor="start" x="669.5" y="-150" font-family="Helvetica,sans-Serif" font-size="10.00">&#45; deleteHookFunc_</text>
<text text-anchor="start" x="669.5" y="-139" font-family="Helvetica,sans-Serif" font-size="10.00">|+ CrdtSet()</text>
<text text-anchor="start" x="669.5" y="-128" font-family="Helvetica,sans-Serif" font-size="10.00">+ CrdtSet()</text>
<text text-anchor="start" x="669.5" y="-117" font-family="Helvetica,sans-Serif" font-size="10.00">+ ~CrdtSet()</text>
<text text-anchor="start" x="669.5" y="-106" font-family="Helvetica,sans-Serif" font-size="10.00">+ operator==()</text>
<text text-anchor="start" x="669.5" y="-95" font-family="Helvetica,sans-Serif" font-size="10.00">+ operator!=()</text>
<text text-anchor="start" x="669.5" y="-84" font-family="Helvetica,sans-Serif" font-size="10.00">+ operator=()</text>
<text text-anchor="start" x="669.5" y="-73" font-family="Helvetica,sans-Serif" font-size="10.00">+ GetPrioritySuffix()</text>
<text text-anchor="start" x="669.5" y="-62" font-family="Helvetica,sans-Serif" font-size="10.00">+ GetValueSuffix()</text>
<text text-anchor="start" x="669.5" y="-51" font-family="Helvetica,sans-Serif" font-size="10.00">+ GetValueFromDatastore()</text>
<text text-anchor="start" x="669.5" y="-40" font-family="Helvetica,sans-Serif" font-size="10.00">+ CreateDeltaToAdd()</text>
<text text-anchor="start" x="669.5" y="-29" font-family="Helvetica,sans-Serif" font-size="10.00">and 21 more...</text>
<text text-anchor="start" x="669.5" y="-18" font-family="Helvetica,sans-Serif" font-size="10.00">&#45; CrdtSet()</text>
<text text-anchor="middle" x="729.5" y="-7" font-family="Helvetica,sans-Serif" font-size="10.00">}</text>
</a>
</g>
</g>
<!-- Node2 -->
<g id="node2" class="node">
<title>Node2</title>
<g id="a_node2"><a xlink:title=" ">
<polygon fill="white" stroke="#666666" points="641,-349 528,-349 528,-297 641,-297 641,-349"/>
<text text-anchor="start" x="536" y="-337" font-family="Helvetica,sans-Serif" font-size="10.00">{std::shared_ptr&lt; sgns</text>
<text text-anchor="middle" x="584.5" y="-326" font-family="Helvetica,sans-Serif" font-size="10.00">::storage::rocksdb &gt;</text>
<text text-anchor="start" x="536" y="-315" font-family="Helvetica,sans-Serif" font-size="10.00">||+ operator&#45;&gt;()</text>
<text text-anchor="middle" x="584.5" y="-304" font-family="Helvetica,sans-Serif" font-size="10.00">}</text>
</a>
</g>
</g>
<!-- Node2&#45;&gt;Node1 -->
<g id="edge1" class="edge">
<title>Node2&#45;&gt;Node1</title>
<path fill="none" stroke="#404040" d="M585.56,-296.51C587.6,-271.06 593.51,-231.58 610.5,-202 621.17,-183.42 636.09,-166.21 651.76,-151.21"/>
<polygon fill="none" stroke="#404040" points="651.57,-151.39 653.27,-144.38 660.39,-143.25 658.69,-150.26 651.57,-151.39"/>
<text text-anchor="middle" x="637" y="-205" font-family="Helvetica,sans-Serif" font-size="10.00"> &#45;dataStore_</text>
</g>
<!-- Node3 -->
<g id="node3" class="node">
<title>Node3</title>
<g id="a_node3"><a xlink:href="classsgns_1_1storage_1_1rocksdb.html" target="_top" xlink:title="An implementation of PersistentBufferMap interface, which uses rocksdb as underlying storage.">
<polygon fill="white" stroke="#666666" points="510.5,-679 394.5,-679 394.5,-462 510.5,-462 510.5,-679"/>
<text text-anchor="middle" x="452.5" y="-667" font-family="Helvetica,sans-Serif" font-size="10.00">{sgns::storage::rocksdb</text>
<text text-anchor="start" x="402.5" y="-656" font-family="Helvetica,sans-Serif" font-size="10.00">|&#45; ro_</text>
<text text-anchor="start" x="402.5" y="-645" font-family="Helvetica,sans-Serif" font-size="10.00">&#45; wo_</text>
<text text-anchor="start" x="402.5" y="-634" font-family="Helvetica,sans-Serif" font-size="10.00">|+ ~rocksdb()</text>
<text text-anchor="start" x="402.5" y="-623" font-family="Helvetica,sans-Serif" font-size="10.00">+ setReadOptions()</text>
<text text-anchor="start" x="402.5" y="-612" font-family="Helvetica,sans-Serif" font-size="10.00">+ setWriteOptions()</text>
<text text-anchor="start" x="402.5" y="-601" font-family="Helvetica,sans-Serif" font-size="10.00">+ cursor()</text>
<text text-anchor="start" x="402.5" y="-590" font-family="Helvetica,sans-Serif" font-size="10.00">+ batch()</text>
<text text-anchor="start" x="402.5" y="-579" font-family="Helvetica,sans-Serif" font-size="10.00">+ get()</text>
<text text-anchor="start" x="402.5" y="-568" font-family="Helvetica,sans-Serif" font-size="10.00">+ query()</text>
<text text-anchor="start" x="402.5" y="-557" font-family="Helvetica,sans-Serif" font-size="10.00">+ contains()</text>
<text text-anchor="start" x="402.5" y="-546" font-family="Helvetica,sans-Serif" font-size="10.00">+ empty()</text>
<text text-anchor="start" x="402.5" y="-535" font-family="Helvetica,sans-Serif" font-size="10.00">+ put()</text>
<text text-anchor="start" x="402.5" y="-524" font-family="Helvetica,sans-Serif" font-size="10.00">+ put()</text>
<text text-anchor="start" x="402.5" y="-513" font-family="Helvetica,sans-Serif" font-size="10.00">+ remove()</text>
<text text-anchor="start" x="402.5" y="-502" font-family="Helvetica,sans-Serif" font-size="10.00">+ getDB()</text>
<text text-anchor="start" x="402.5" y="-491" font-family="Helvetica,sans-Serif" font-size="10.00">+ create()</text>
<text text-anchor="start" x="402.5" y="-480" font-family="Helvetica,sans-Serif" font-size="10.00">+ create()</text>
<text text-anchor="middle" x="452.5" y="-469" font-family="Helvetica,sans-Serif" font-size="10.00">}</text>
</a>
</g>
</g>
<!-- Node3&#45;&gt;Node2 -->
<g id="edge2" class="edge">
<title>Node3&#45;&gt;Node2</title>
<path fill="none" stroke="#404040" d="M510.4,-461.82C529.95,-425.46 550.46,-387.31 564.94,-360.39"/>
<polygon fill="none" stroke="#404040" points="564.83,-360.58 564.15,-353.4 570.52,-350.01 571.2,-357.19 564.83,-360.58"/>
<text text-anchor="middle" x="532.5" y="-436" font-family="Helvetica,sans-Serif" font-size="10.00"> +ptr</text>
</g>
<!-- Node4 -->
<g id="node4" class="node">
<title>Node4</title>
<g id="a_node4"><a xlink:href="structsgns_1_1storage_1_1face_1_1_generic_storage.html" target="_top" xlink:title="An abstraction over readable, writeable, iterable key&#45;value storage that supports write batches.">
<polygon fill="white" stroke="#666666" points="321,-772.5 242,-772.5 242,-742.5 321,-742.5 321,-772.5"/>
<text text-anchor="middle" x="281.5" y="-760.5" font-family="Helvetica,sans-Serif" font-size="10.00">{BufferStorage</text>
<text text-anchor="middle" x="281.5" y="-749.5" font-family="Helvetica,sans-Serif" font-size="10.00">||}</text>
</a>
</g>
</g>
<!-- Node4&#45;&gt;Node3 -->
<g id="edge3" class="edge">
<title>Node4&#45;&gt;Node3</title>
<path fill="none" stroke="#63b8ff" d="M302.3,-734C325.02,-709.42 362.4,-668.98 394.19,-634.59"/>
<polygon fill="none" stroke="#63b8ff" points="299.88,-731.46 295.66,-741.18 305.02,-736.21 299.88,-731.46"/>
</g>
<!-- Node5 -->
<g id="node5" class="node">
<title>Node5</title>
<g id="a_node5"><a xlink:href="structsgns_1_1storage_1_1face_1_1_read_only_map.html" target="_top" xlink:title="An abstraction over a readable and iterable key&#45;value map.">
<polygon fill="white" stroke="#666666" points="361,-877 244,-877 244,-836 361,-836 361,-877"/>
<text text-anchor="start" x="252" y="-865" font-family="Helvetica,sans-Serif" font-size="10.00">{sgns::storage::face</text>
<text text-anchor="middle" x="302.5" y="-854" font-family="Helvetica,sans-Serif" font-size="10.00">::ReadOnlyMap&lt; K, V &gt;</text>
<text text-anchor="middle" x="302.5" y="-843" font-family="Helvetica,sans-Serif" font-size="10.00">||}</text>
</a>
</g>
</g>
<!-- Node5&#45;&gt;Node4 -->
<g id="edge4" class="edge">
<title>Node5&#45;&gt;Node4</title>
<path fill="none" stroke="#63b8ff" d="M295.9,-825.03C292.12,-807.55 287.55,-786.44 284.59,-772.75"/>
<polygon fill="none" stroke="#63b8ff" points="292.39,-825.36 297.93,-834.39 299.23,-823.88 292.39,-825.36"/>
</g>
<!-- Node6 -->
<g id="node6" class="node">
<title>Node6</title>
<g id="a_node6"><a xlink:href="structsgns_1_1storage_1_1face_1_1_iterable.html" target="_top" xlink:title="A mixin for an iterable map.">
<polygon fill="white" stroke="#666666" points="467,-998 366,-998 366,-935 467,-935 467,-998"/>
<text text-anchor="start" x="374" y="-986" font-family="Helvetica,sans-Serif" font-size="10.00">{sgns::storage::face</text>
<text text-anchor="middle" x="416.5" y="-975" font-family="Helvetica,sans-Serif" font-size="10.00">::Iterable&lt; K, V &gt;</text>
<text text-anchor="start" x="374" y="-964" font-family="Helvetica,sans-Serif" font-size="10.00">||+ ~Iterable()</text>
<text text-anchor="start" x="374" y="-953" font-family="Helvetica,sans-Serif" font-size="10.00">+ cursor()</text>
<text text-anchor="middle" x="416.5" y="-942" font-family="Helvetica,sans-Serif" font-size="10.00">}</text>
</a>
</g>
</g>
<!-- Node6&#45;&gt;Node5 -->
<g id="edge5" class="edge">
<title>Node6&#45;&gt;Node5</title>
<path fill="none" stroke="#63b8ff" d="M375.85,-926.99C358.07,-910.15 337.97,-891.1 323.31,-877.22"/>
<polygon fill="none" stroke="#63b8ff" points="373.07,-929.17 382.73,-933.51 377.88,-924.09 373.07,-929.17"/>
</g>
<!-- Node7 -->
<g id="node7" class="node">
<title>Node7</title>
<g id="a_node7"><a xlink:href="structsgns_1_1storage_1_1face_1_1_readable.html" target="_top" xlink:title="A mixin for read&#45;only map.">
<polygon fill="white" stroke="#666666" points="348,-1009 247,-1009 247,-924 348,-924 348,-1009"/>
<text text-anchor="start" x="255" y="-997" font-family="Helvetica,sans-Serif" font-size="10.00">{sgns::storage::face</text>
<text text-anchor="middle" x="297.5" y="-986" font-family="Helvetica,sans-Serif" font-size="10.00">::Readable&lt; K, V &gt;</text>
<text text-anchor="start" x="255" y="-975" font-family="Helvetica,sans-Serif" font-size="10.00">||+ ~Readable()</text>
<text text-anchor="start" x="255" y="-964" font-family="Helvetica,sans-Serif" font-size="10.00">+ get()</text>
<text text-anchor="start" x="255" y="-953" font-family="Helvetica,sans-Serif" font-size="10.00">+ contains()</text>
<text text-anchor="start" x="255" y="-942" font-family="Helvetica,sans-Serif" font-size="10.00">+ empty()</text>
<text text-anchor="middle" x="297.5" y="-931" font-family="Helvetica,sans-Serif" font-size="10.00">}</text>
</a>
</g>
</g>
<!-- Node7&#45;&gt;Node5 -->
<g id="edge6" class="edge">
<title>Node7&#45;&gt;Node5</title>
<path fill="none" stroke="#63b8ff" d="M299.96,-912.39C300.54,-899.92 301.12,-887.39 301.58,-877.46"/>
<polygon fill="none" stroke="#63b8ff" points="296.47,-912.08 299.5,-922.23 303.46,-912.41 296.47,-912.08"/>
</g>
<!-- Node8 -->
<g id="node8" class="node">
<title>Node8</title>
<g id="a_node8"><a xlink:href="structsgns_1_1storage_1_1face_1_1_batch_write_map.html" target="_top" xlink:title="An abstraction over a writeable key&#45;value map with batching support.">
<polygon fill="white" stroke="#666666" points="226,-877 103,-877 103,-836 226,-836 226,-877"/>
<text text-anchor="start" x="111" y="-865" font-family="Helvetica,sans-Serif" font-size="10.00">{sgns::storage::face</text>
<text text-anchor="middle" x="164.5" y="-854" font-family="Helvetica,sans-Serif" font-size="10.00">::BatchWriteMap&lt; K, V &gt;</text>
<text text-anchor="middle" x="164.5" y="-843" font-family="Helvetica,sans-Serif" font-size="10.00">||}</text>
</a>
</g>
</g>
<!-- Node8&#45;&gt;Node4 -->
<g id="edge7" class="edge">
<title>Node8&#45;&gt;Node4</title>
<path fill="none" stroke="#63b8ff" d="M197.04,-828.52C218.74,-810.53 246.4,-787.6 264.04,-772.98"/>
<polygon fill="none" stroke="#63b8ff" points="195.09,-825.59 189.62,-834.67 199.56,-830.98 195.09,-825.59"/>
</g>
<!-- Node9 -->
<g id="node9" class="node">
<title>Node9</title>
<g id="a_node9"><a xlink:href="structsgns_1_1storage_1_1face_1_1_writeable.html" target="_top" xlink:title="An mixin for modifiable map.">
<polygon fill="white" stroke="#666666" points="220,-1009 119,-1009 119,-924 220,-924 220,-1009"/>
<text text-anchor="start" x="127" y="-997" font-family="Helvetica,sans-Serif" font-size="10.00">{sgns::storage::face</text>
<text text-anchor="middle" x="169.5" y="-986" font-family="Helvetica,sans-Serif" font-size="10.00">::Writeable&lt; K, V &gt;</text>
<text text-anchor="start" x="127" y="-975" font-family="Helvetica,sans-Serif" font-size="10.00">||+ ~Writeable()</text>
<text text-anchor="start" x="127" y="-964" font-family="Helvetica,sans-Serif" font-size="10.00">+ put()</text>
<text text-anchor="start" x="127" y="-953" font-family="Helvetica,sans-Serif" font-size="10.00">+ put()</text>
<text text-anchor="start" x="127" y="-942" font-family="Helvetica,sans-Serif" font-size="10.00">+ remove()</text>
<text text-anchor="middle" x="169.5" y="-931" font-family="Helvetica,sans-Serif" font-size="10.00">}</text>
</a>
</g>
</g>
<!-- Node9&#45;&gt;Node8 -->
<g id="edge8" class="edge">
<title>Node9&#45;&gt;Node8</title>
<path fill="none" stroke="#63b8ff" d="M167.04,-912.39C166.46,-899.92 165.88,-887.39 165.42,-877.46"/>
<polygon fill="none" stroke="#63b8ff" points="163.54,-912.41 167.5,-922.23 170.53,-912.08 163.54,-912.41"/>
</g>
<!-- Node10 -->
<g id="node10" class="node">
<title>Node10</title>
<g id="a_node10"><a xlink:href="structsgns_1_1storage_1_1face_1_1_batchable.html" target="_top" xlink:title="A mixin for a map that supports batching for efficiency of modifications.">
<polygon fill="white" stroke="#666666" points="101,-998 0,-998 0,-935 101,-935 101,-998"/>
<text text-anchor="start" x="8" y="-986" font-family="Helvetica,sans-Serif" font-size="10.00">{sgns::storage::face</text>
<text text-anchor="middle" x="50.5" y="-975" font-family="Helvetica,sans-Serif" font-size="10.00">::Batchable&lt; K, V &gt;</text>
<text text-anchor="start" x="8" y="-964" font-family="Helvetica,sans-Serif" font-size="10.00">||+ ~Batchable()</text>
<text text-anchor="start" x="8" y="-953" font-family="Helvetica,sans-Serif" font-size="10.00">+ batch()</text>
<text text-anchor="middle" x="50.5" y="-942" font-family="Helvetica,sans-Serif" font-size="10.00">}</text>
</a>
</g>
</g>
<!-- Node10&#45;&gt;Node8 -->
<g id="edge9" class="edge">
<title>Node10&#45;&gt;Node8</title>
<path fill="none" stroke="#63b8ff" d="M91.15,-926.99C108.93,-910.15 129.03,-891.1 143.69,-877.22"/>
<polygon fill="none" stroke="#63b8ff" points="89.12,-924.09 84.27,-933.51 93.93,-929.17 89.12,-924.09"/>
</g>
<!-- Node11 -->
<g id="node11" class="node">
<title>Node11</title>
<g id="a_node11"><a xlink:title=" ">
<polygon fill="white" stroke="#666666" points="452,-783.5 339,-783.5 339,-731.5 452,-731.5 452,-783.5"/>
<text text-anchor="middle" x="395.5" y="-771.5" font-family="Helvetica,sans-Serif" font-size="10.00">{std::shared_ptr&lt; DB &gt;</text>
<text text-anchor="start" x="347" y="-760.5" font-family="Helvetica,sans-Serif" font-size="10.00">|+ ptr</text>
<text text-anchor="start" x="347" y="-749.5" font-family="Helvetica,sans-Serif" font-size="10.00">|+ operator&#45;&gt;()</text>
<text text-anchor="middle" x="395.5" y="-738.5" font-family="Helvetica,sans-Serif" font-size="10.00">}</text>
</a>
</g>
</g>
<!-- Node11&#45;&gt;Node3 -->
<g id="edge10" class="edge">
<title>Node11&#45;&gt;Node3</title>
<path fill="none" stroke="#404040" d="M403.31,-731.16C406.72,-720.08 411,-706.19 415.6,-691.27"/>
<polygon fill="none" stroke="#404040" points="415.54,-691.45 413.49,-684.53 419.08,-679.98 421.13,-686.89 415.54,-691.45"/>
<text text-anchor="middle" x="423.5" y="-700" font-family="Helvetica,sans-Serif" font-size="10.00"> &#45;db_</text>
</g>
<!-- Node12 -->
<g id="node12" class="node">
<title>Node12</title>
<g id="a_node12"><a xlink:title=" ">
<polygon fill="white" stroke="#666666" points="577.5,-877 471.5,-877 471.5,-836 577.5,-836 577.5,-877"/>
<text text-anchor="middle" x="524.5" y="-865" font-family="Helvetica,sans-Serif" font-size="10.00">{std::shared_ptr&lt; T &gt;</text>
<text text-anchor="start" x="479.5" y="-854" font-family="Helvetica,sans-Serif" font-size="10.00">||+ operator&#45;&gt;()</text>
<text text-anchor="middle" x="524.5" y="-843" font-family="Helvetica,sans-Serif" font-size="10.00">}</text>
</a>
</g>
</g>
<!-- Node12&#45;&gt;Node2 -->
<g id="edge15" class="edge">
<title>Node12&#45;&gt;Node2</title>
<path fill="none" stroke="orange" d="M587.43,-835.08C594.17,-830.47 600.14,-824.85 604.5,-818 702,-664.61 624.52,-426.99 594.83,-349.43"/>
<polygon fill="orange" stroke="orange" points="585.97,-831.88 579.15,-839.99 589.54,-837.9 585.97,-831.88"/>
<text text-anchor="middle" x="705.5" y="-700" font-family="Helvetica,sans-Serif" font-size="10.00"> &lt; sgns::storage::rocksdb &gt;</text>
</g>
<!-- Node12&#45;&gt;Node11 -->
<g id="edge11" class="edge">
<title>Node12&#45;&gt;Node11</title>
<path fill="none" stroke="orange" d="M489.02,-828.82C470.37,-814.8 447.64,-797.7 429.25,-783.88"/>
<polygon fill="orange" stroke="orange" points="486.78,-831.51 496.87,-834.73 490.98,-825.92 486.78,-831.51"/>
<text text-anchor="middle" x="489" y="-810" font-family="Helvetica,sans-Serif" font-size="10.00"> &lt; DB &gt;</text>
</g>
<!-- Node14 -->
<g id="node14" class="node">
<title>Node14</title>
<g id="a_node14"><a xlink:title=" ">
<polygon fill="white" stroke="#666666" points="590.5,-789 470.5,-789 470.5,-726 590.5,-726 590.5,-789"/>
<text text-anchor="start" x="478.5" y="-777" font-family="Helvetica,sans-Serif" font-size="10.00">{std::shared_ptr&lt; spdlog</text>
<text text-anchor="middle" x="530.5" y="-766" font-family="Helvetica,sans-Serif" font-size="10.00">::logger &gt;</text>
<text text-anchor="start" x="478.5" y="-755" font-family="Helvetica,sans-Serif" font-size="10.00">|+ ptr</text>
<text text-anchor="start" x="478.5" y="-744" font-family="Helvetica,sans-Serif" font-size="10.00">|+ operator&#45;&gt;()</text>
<text text-anchor="middle" x="530.5" y="-733" font-family="Helvetica,sans-Serif" font-size="10.00">}</text>
</a>
</g>
</g>
<!-- Node12&#45;&gt;Node14 -->
<g id="edge14" class="edge">
<title>Node12&#45;&gt;Node14</title>
<path fill="none" stroke="orange" d="M524.77,-824.31C524.92,-818.55 525.15,-812.59 525.5,-807 525.85,-801.25 526.37,-795.14 526.94,-789.26"/>
<polygon fill="orange" stroke="orange" points="521.27,-824.08 524.57,-834.15 528.27,-824.22 521.27,-824.08"/>
<text text-anchor="middle" x="565" y="-810" font-family="Helvetica,sans-Serif" font-size="10.00"> &lt; spdlog::logger &gt;</text>
</g>
<!-- Node13 -->
<g id="node13" class="node">
<title>Node13</title>
<g id="a_node13"><a xlink:title=" ">
<polygon fill="white" stroke="#666666" points="539,-981.5 510,-981.5 510,-951.5 539,-951.5 539,-981.5"/>
<text text-anchor="middle" x="524.5" y="-969.5" font-family="Helvetica,sans-Serif" font-size="10.00">{T</text>
<text text-anchor="middle" x="524.5" y="-958.5" font-family="Helvetica,sans-Serif" font-size="10.00">||}</text>
</a>
</g>
</g>
<!-- Node13&#45;&gt;Node12 -->
<g id="edge12" class="edge">
<title>Node13&#45;&gt;Node12</title>
<path fill="none" stroke="#404040" d="M524.5,-951.38C524.5,-935.88 524.5,-910.48 524.5,-890.01"/>
<polygon fill="none" stroke="#404040" points="524.5,-890.01 520.5,-884.01 524.5,-878.01 528.5,-884.01 524.5,-890.01"/>
<text text-anchor="middle" x="534.5" y="-898" font-family="Helvetica,sans-Serif" font-size="10.00"> +ptr</text>
</g>
<!-- Node14&#45;&gt;Node3 -->
<g id="edge13" class="edge">
<title>Node14&#45;&gt;Node3</title>
<path fill="none" stroke="#404040" d="M517.44,-725.54C513.19,-715.45 508.19,-703.59 502.88,-690.99"/>
<polygon fill="none" stroke="#404040" points="502.94,-691.14 496.92,-687.16 498.28,-680.08 504.3,-684.05 502.94,-691.14"/>
<text text-anchor="middle" x="529" y="-700" font-family="Helvetica,sans-Serif" font-size="10.00"> &#45;logger_</text>
</g>
<!-- Node15 -->
<g id="node15" class="node">
<title>Node15</title>
<g id="a_node15"><a xlink:href="classsgns_1_1crdt_1_1_hierarchical_key.html" target="_top" xlink:title="A Key represents the unique identifier of an object, inspired by file systems and Google App Engine k...">
<polygon fill="white" stroke="#666666" points="919.5,-415 785.5,-415 785.5,-231 919.5,-231 919.5,-415"/>
<text text-anchor="middle" x="852.5" y="-403" font-family="Helvetica,sans-Serif" font-size="10.00">{sgns::crdt::HierarchicalKey</text>
<text text-anchor="start" x="793.5" y="-392" font-family="Helvetica,sans-Serif" font-size="10.00">||+ HierarchicalKey()</text>
<text text-anchor="start" x="793.5" y="-381" font-family="Helvetica,sans-Serif" font-size="10.00">+ HierarchicalKey()</text>
<text text-anchor="start" x="793.5" y="-370" font-family="Helvetica,sans-Serif" font-size="10.00">+ HierarchicalKey()</text>
<text text-anchor="start" x="793.5" y="-359" font-family="Helvetica,sans-Serif" font-size="10.00">+ ~HierarchicalKey()</text>
<text text-anchor="start" x="793.5" y="-348" font-family="Helvetica,sans-Serif" font-size="10.00">+ operator==()</text>
<text text-anchor="start" x="793.5" y="-337" font-family="Helvetica,sans-Serif" font-size="10.00">+ operator!=()</text>
<text text-anchor="start" x="793.5" y="-326" font-family="Helvetica,sans-Serif" font-size="10.00">+ operator=()</text>
<text text-anchor="start" x="793.5" y="-315" font-family="Helvetica,sans-Serif" font-size="10.00">+ SetKey()</text>
<text text-anchor="start" x="793.5" y="-304" font-family="Helvetica,sans-Serif" font-size="10.00">+ GetKey()</text>
<text text-anchor="start" x="793.5" y="-293" font-family="Helvetica,sans-Serif" font-size="10.00">+ ChildString()</text>
<text text-anchor="start" x="793.5" y="-282" font-family="Helvetica,sans-Serif" font-size="10.00">+ GetList()</text>
<text text-anchor="start" x="793.5" y="-271" font-family="Helvetica,sans-Serif" font-size="10.00">+ IsTopLevel()</text>
<text text-anchor="start" x="793.5" y="-260" font-family="Helvetica,sans-Serif" font-size="10.00">+ operator==()</text>
<text text-anchor="start" x="793.5" y="-249" font-family="Helvetica,sans-Serif" font-size="10.00">+ operator!=()</text>
<text text-anchor="middle" x="852.5" y="-238" font-family="Helvetica,sans-Serif" font-size="10.00">}</text>
</a>
</g>
</g>
<!-- Node15&#45;&gt;Node1 -->
<g id="edge16" class="edge">
<title>Node15&#45;&gt;Node1</title>
<path fill="none" stroke="#404040" d="M803.36,-230.51C797.23,-219.11 790.94,-207.39 784.73,-195.83"/>
<polygon fill="none" stroke="#404040" points="784.67,-195.71 778.31,-192.32 778.99,-185.14 785.35,-188.54 784.67,-195.71"/>
<text text-anchor="middle" x="829.5" y="-205" font-family="Helvetica,sans-Serif" font-size="10.00"> &#45;namespaceKey_</text>
</g>
<!-- Node16 -->
<g id="node16" class="node">
<title>Node16</title>
<g id="a_node16"><a xlink:title=" ">
<polygon fill="white" stroke="#666666" points="848.5,-585.5 786.5,-585.5 786.5,-555.5 848.5,-555.5 848.5,-585.5"/>
<text text-anchor="middle" x="817.5" y="-573.5" font-family="Helvetica,sans-Serif" font-size="10.00">{std::string</text>
<text text-anchor="middle" x="817.5" y="-562.5" font-family="Helvetica,sans-Serif" font-size="10.00">||}</text>
</a>
</g>
</g>
<!-- Node16&#45;&gt;Node1 -->
<g id="edge20" class="edge">
<title>Node16&#45;&gt;Node1</title>
<path fill="none" stroke="#404040" d="M799.02,-555.33C768.61,-530.72 709.15,-476.74 686.5,-415 660.77,-344.86 673.18,-261.1 691.15,-196.59"/>
<polygon fill="none" stroke="#404040" points="691.1,-196.75 688.92,-189.88 694.43,-185.23 696.61,-192.1 691.1,-196.75"/>
<text text-anchor="middle" x="731.5" y="-342.5" font-family="Helvetica,sans-Serif" font-size="10.00"> &#45;elemsNamespace_</text>
<text text-anchor="middle" x="731.5" y="-331.5" font-family="Helvetica,sans-Serif" font-size="10.00">&#45;keysNamespace_</text>
<text text-anchor="middle" x="731.5" y="-320.5" font-family="Helvetica,sans-Serif" font-size="10.00">&#45;prioritySuffix_</text>
<text text-anchor="middle" x="731.5" y="-309.5" font-family="Helvetica,sans-Serif" font-size="10.00">&#45;tombsNamespace_</text>
<text text-anchor="middle" x="731.5" y="-298.5" font-family="Helvetica,sans-Serif" font-size="10.00">&#45;valueSuffix_</text>
</g>
<!-- Node16&#45;&gt;Node15 -->
<g id="edge17" class="edge">
<title>Node16&#45;&gt;Node15</title>
<path fill="none" stroke="#404040" d="M819.53,-555.24C823.07,-530.43 830.65,-477.29 837.65,-428.19"/>
<polygon fill="none" stroke="#404040" points="837.64,-428.26 834.52,-421.75 839.33,-416.38 842.44,-422.88 837.64,-428.26"/>
<text text-anchor="middle" x="848.5" y="-436" font-family="Helvetica,sans-Serif" font-size="10.00"> &#45;key_</text>
</g>
<!-- Node17 -->
<g id="node17" class="node">
<title>Node17</title>
<g id="a_node17"><a xlink:title=" ">
<polygon fill="white" stroke="#666666" points="865.5,-778 769.5,-778 769.5,-737 865.5,-737 865.5,-778"/>
<text text-anchor="start" x="777.5" y="-766" font-family="Helvetica,sans-Serif" font-size="10.00">{std::basic_string&lt;</text>
<text text-anchor="middle" x="817.5" y="-755" font-family="Helvetica,sans-Serif" font-size="10.00"> Char &gt;</text>
<text text-anchor="middle" x="817.5" y="-744" font-family="Helvetica,sans-Serif" font-size="10.00">||}</text>
</a>
</g>
</g>
<!-- Node17&#45;&gt;Node16 -->
<g id="edge18" class="edge">
<title>Node17&#45;&gt;Node16</title>
<path fill="none" stroke="#63b8ff" d="M817.5,-725.37C817.5,-684.86 817.5,-615.74 817.5,-585.91"/>
<polygon fill="none" stroke="#63b8ff" points="814,-725.19 817.5,-735.19 821,-725.19 814,-725.19"/>
</g>
<!-- Node18 -->
<g id="node18" class="node">
<title>Node18</title>
<g id="a_node18"><a xlink:title=" ">
<polygon fill="white" stroke="#666666" points="1001.5,-338 937.5,-338 937.5,-308 1001.5,-308 1001.5,-338"/>
<text text-anchor="middle" x="969.5" y="-326" font-family="Helvetica,sans-Serif" font-size="10.00">{std::mutex</text>
<text text-anchor="middle" x="969.5" y="-315" font-family="Helvetica,sans-Serif" font-size="10.00">||}</text>
</a>
</g>
</g>
<!-- Node18&#45;&gt;Node1 -->
<g id="edge19" class="edge">
<title>Node18&#45;&gt;Node1</title>
<path fill="none" stroke="#404040" d="M965.7,-307.76C960.07,-288.67 948,-254.45 928.5,-231 895.69,-191.56 848.94,-158.36 809,-134.42"/>
<polygon fill="none" stroke="#404040" points="809.06,-134.45 801.86,-134.86 798.71,-128.37 805.91,-127.96 809.06,-134.45"/>
<text text-anchor="middle" x="929" y="-205" font-family="Helvetica,sans-Serif" font-size="10.00"> &#45;mutex_</text>
</g>
</g>
</svg>
