<?xml version="1.0" encoding="UTF-8" standalone="no"?>
<!DOCTYPE svg PUBLIC "-//W3C//DTD SVG 1.1//EN"
 "http://www.w3.org/Graphics/SVG/1.1/DTD/svg11.dtd">
<!-- Generated by graphviz version 7.0.5 (20221223.1930)
 -->
<!-- Title: sgns::api::author::AuthorJRpcProcessor Pages: 1 -->
<!--zoomable 368 -->
<svg id="main" version="1.1" xmlns="http://www.w3.org/2000/svg" xmlns:xlink="http://www.w3.org/1999/xlink" xml:space="preserve" onload="init(evt)">
<style type="text/css"><![CDATA[
.edge:hover path { stroke: red; }
.edge:hover polygon { stroke: red; fill: red; }
]]></style>
<script type="text/javascript"><![CDATA[
var edges = document.getElementsByTagName('g');
if (edges && edges.length) {
  for (var i=0;i<edges.length;i++) {
    if (edges[i].id.substr(0,4)=='edge') {
      edges[i].setAttribute('class','edge');
    }
  }
}
]]></script>
        <defs>
                <circle id="rim" cx="0" cy="0" r="7"/>
                <circle id="rim2" cx="0" cy="0" r="3.5"/>
                <g id="zoomPlus">
                        <use xlink:href="#rim" fill="#404040">
                                <set attributeName="fill" to="#808080" begin="zoomplus.mouseover" end="zoomplus.mouseout"/>
                        </use>
                        <path d="M-4,0h8M0,-4v8" fill="none" stroke="white" stroke-width="1.5" pointer-events="none"/>
                </g>
                <g id="zoomMin">
                        <use xlink:href="#rim" fill="#404040">
                                <set attributeName="fill" to="#808080" begin="zoomminus.mouseover" end="zoomminus.mouseout"/>
                        </use>
                        <path d="M-4,0h8" fill="none" stroke="white" stroke-width="1.5" pointer-events="none"/>
                </g>
                <g id="dirArrow">
                        <path fill="none" stroke="white" stroke-width="1.5" d="M0,-3.0v7 M-2.5,-0.5L0,-3.0L2.5,-0.5"/>
                </g>
               <g id="resetDef">
                       <use xlink:href="#rim2" fill="#404040">
                               <set attributeName="fill" to="#808080" begin="reset.mouseover" end="reset.mouseout"/>
                       </use>
               </g>
        </defs>

<script type="text/javascript">
var viewWidth = 551;
var viewHeight = 368;
var sectionId = 'dynsection-1';
</script>
<script xlink:href="svgpan.js"/>
<svg id="graph" class="graph">
<g id="viewport">
<title>sgns::api::author::AuthorJRpcProcessor</title>
<!-- Node1 -->
<g id="node1" class="node">
<title>Node1</title>
<g id="a_node1"><a xlink:title="extrinsic submission service implementation">
<polygon fill="#999999" stroke="#666666" points="284,-63 153,-63 153,0 284,0 284,-63"/>
<text text-anchor="start" x="161" y="-51" font-family="Helvetica,sans-Serif" font-size="10.00">{sgns::api::author::</text>
<text text-anchor="middle" x="218.5" y="-40" font-family="Helvetica,sans-Serif" font-size="10.00">AuthorJRpcProcessor</text>
<text text-anchor="start" x="161" y="-29" font-family="Helvetica,sans-Serif" font-size="10.00">||+ AuthorJRpcProcessor()</text>
<text text-anchor="start" x="161" y="-18" font-family="Helvetica,sans-Serif" font-size="10.00">&#45; registerHandlers()</text>
<text text-anchor="middle" x="218.5" y="-7" font-family="Helvetica,sans-Serif" font-size="10.00">}</text>
</a>
</g>
</g>
<!-- Node2 -->
<g id="node2" class="node">
<title>Node2</title>
<g id="a_node2"><a xlink:href="classsgns_1_1api_1_1_j_rpc_processor.html" target="_top" xlink:title=" ">
<polygon fill="white" stroke="#666666" points="129,-162 0,-162 0,-110 129,-110 129,-162"/>
<text text-anchor="middle" x="64.5" y="-150" font-family="Helvetica,sans-Serif" font-size="10.00">{sgns::api::JRpcProcessor</text>
<text text-anchor="start" x="8" y="-139" font-family="Helvetica,sans-Serif" font-size="10.00">||+ ~JRpcProcessor()</text>
<text text-anchor="start" x="8" y="-128" font-family="Helvetica,sans-Serif" font-size="10.00">+ registerHandlers()</text>
<text text-anchor="middle" x="64.5" y="-117" font-family="Helvetica,sans-Serif" font-size="10.00">}</text>
</a>
</g>
</g>
<!-- Node2&#45;&gt;Node1 -->
<g id="edge1" class="edge">
<title>Node2&#45;&gt;Node1</title>
<path fill="none" stroke="#63b8ff" d="M111.98,-103.4C131.1,-90.67 153.07,-76.05 172.08,-63.4"/>
<polygon fill="none" stroke="#63b8ff" points="110.21,-100.37 103.83,-108.82 114.09,-106.2 110.21,-100.37"/>
</g>
<!-- Node3 -->
<g id="node3" class="node">
<title>Node3</title>
<g id="a_node3"><a xlink:title=" ">
<polygon fill="white" stroke="#666666" points="107.5,-261 5.5,-261 5.5,-231 107.5,-231 107.5,-261"/>
<text text-anchor="middle" x="56.5" y="-249" font-family="Helvetica,sans-Serif" font-size="10.00">{boost::noncopyable</text>
<text text-anchor="middle" x="56.5" y="-238" font-family="Helvetica,sans-Serif" font-size="10.00">||}</text>
</a>
</g>
</g>
<!-- Node3&#45;&gt;Node2 -->
<g id="edge2" class="edge">
<title>Node3&#45;&gt;Node2</title>
<path fill="none" stroke="#8b1a1a" d="M58.39,-219.43C59.67,-202.17 61.35,-179.49 62.63,-162.29"/>
<polygon fill="none" stroke="#8b1a1a" points="54.91,-219.14 57.66,-229.37 61.89,-219.66 54.91,-219.14"/>
</g>
<!-- Node4 -->
<g id="node4" class="node">
<title>Node4</title>
<g id="a_node4"><a xlink:title=" ">
<polygon fill="white" stroke="#666666" points="418,-162 305,-162 305,-110 418,-110 418,-162"/>
<text text-anchor="start" x="313" y="-150" font-family="Helvetica,sans-Serif" font-size="10.00">{std::shared_ptr&lt; sgns</text>
<text text-anchor="middle" x="361.5" y="-139" font-family="Helvetica,sans-Serif" font-size="10.00">::api::AuthorApi &gt;</text>
<text text-anchor="start" x="313" y="-128" font-family="Helvetica,sans-Serif" font-size="10.00">||+ operator&#45;&gt;()</text>
<text text-anchor="middle" x="361.5" y="-117" font-family="Helvetica,sans-Serif" font-size="10.00">}</text>
</a>
</g>
</g>
<!-- Node4&#45;&gt;Node1 -->
<g id="edge3" class="edge">
<title>Node4&#45;&gt;Node1</title>
<path fill="none" stroke="#404040" d="M326.15,-109.66C309.83,-97.97 290.11,-83.83 272.02,-70.87"/>
<polygon fill="none" stroke="#404040" points="272.09,-70.91 264.88,-70.67 262.34,-63.92 269.54,-64.17 272.09,-70.91"/>
<text text-anchor="middle" x="310.5" y="-84" font-family="Helvetica,sans-Serif" font-size="10.00"> &#45;api_</text>
</g>
<!-- Node5 -->
<g id="node5" class="node">
<title>Node5</title>
<g id="a_node5"><a xlink:href="classsgns_1_1api_1_1_author_api.html" target="_top" xlink:title=" ">
<polygon fill="white" stroke="#666666" points="543,-283 436,-283 436,-209 543,-209 543,-283"/>
<text text-anchor="middle" x="489.5" y="-271" font-family="Helvetica,sans-Serif" font-size="10.00">{sgns::api::AuthorApi</text>
<text text-anchor="start" x="444" y="-260" font-family="Helvetica,sans-Serif" font-size="10.00">||+ ~AuthorApi()</text>
<text text-anchor="start" x="444" y="-249" font-family="Helvetica,sans-Serif" font-size="10.00">+ submitExtrinsic()</text>
<text text-anchor="start" x="444" y="-238" font-family="Helvetica,sans-Serif" font-size="10.00">+ pendingExtrinsics()</text>
<text text-anchor="start" x="444" y="-227" font-family="Helvetica,sans-Serif" font-size="10.00">+ removeExtrinsic()</text>
<text text-anchor="middle" x="489.5" y="-216" font-family="Helvetica,sans-Serif" font-size="10.00">}</text>
</a>
</g>
</g>
<!-- Node5&#45;&gt;Node4 -->
<g id="edge4" class="edge">
<title>Node5&#45;&gt;Node4</title>
<path fill="none" stroke="#404040" d="M478.24,-208.67C473.7,-198.42 467.57,-187.92 459.5,-180 451.08,-171.73 440.8,-164.92 430.11,-159.35"/>
<polygon fill="none" stroke="#404040" points="430.06,-159.33 422.92,-160.36 419.22,-154.17 426.36,-153.14 430.06,-159.33"/>
<text text-anchor="middle" x="477.5" y="-183" font-family="Helvetica,sans-Serif" font-size="10.00"> +ptr</text>
</g>
<!-- Node6 -->
<g id="node6" class="node">
<title>Node6</title>
<g id="a_node6"><a xlink:title=" ">
<polygon fill="white" stroke="#666666" points="389.5,-266.5 283.5,-266.5 283.5,-225.5 389.5,-225.5 389.5,-266.5"/>
<text text-anchor="middle" x="336.5" y="-254.5" font-family="Helvetica,sans-Serif" font-size="10.00">{std::shared_ptr&lt; T &gt;</text>
<text text-anchor="start" x="291.5" y="-243.5" font-family="Helvetica,sans-Serif" font-size="10.00">||+ operator&#45;&gt;()</text>
<text text-anchor="middle" x="336.5" y="-232.5" font-family="Helvetica,sans-Serif" font-size="10.00">}</text>
</a>
</g>
</g>
<!-- Node6&#45;&gt;Node4 -->
<g id="edge5" class="edge">
<title>Node6&#45;&gt;Node4</title>
<path fill="none" stroke="orange" d="M343.67,-214.01C347.46,-197.65 352.05,-177.84 355.62,-162.4"/>
<polygon fill="orange" stroke="orange" points="340.27,-213.18 341.43,-223.72 347.09,-214.76 340.27,-213.18"/>
<text text-anchor="middle" x="403" y="-183" font-family="Helvetica,sans-Serif" font-size="10.00"> &lt; sgns::api::AuthorApi &gt;</text>
</g>
<!-- Node8 -->
<g id="node8" class="node">
<title>Node8</title>
<g id="a_node8"><a xlink:title=" ">
<polygon fill="white" stroke="#666666" points="275,-162 162,-162 162,-110 275,-110 275,-162"/>
<text text-anchor="start" x="170" y="-150" font-family="Helvetica,sans-Serif" font-size="10.00">{std::shared_ptr&lt; sgns</text>
<text text-anchor="middle" x="218.5" y="-139" font-family="Helvetica,sans-Serif" font-size="10.00">::api::JRpcServer &gt;</text>
<text text-anchor="start" x="170" y="-128" font-family="Helvetica,sans-Serif" font-size="10.00">||+ operator&#45;&gt;()</text>
<text text-anchor="middle" x="218.5" y="-117" font-family="Helvetica,sans-Serif" font-size="10.00">}</text>
</a>
</g>
</g>
<!-- Node6&#45;&gt;Node8 -->
<g id="edge9" class="edge">
<title>Node6&#45;&gt;Node8</title>
<path fill="none" stroke="orange" d="M272.9,-223.22C257.42,-215.23 242.25,-204.68 231.5,-191 225.13,-182.89 221.81,-172.12 220.11,-162.34"/>
<polygon fill="orange" stroke="orange" points="271.17,-226.27 281.7,-227.45 274.2,-219.96 271.17,-226.27"/>
<text text-anchor="middle" x="288" y="-183" font-family="Helvetica,sans-Serif" font-size="10.00"> &lt; sgns::api::JRpcServer &gt;</text>
</g>
<!-- Node7 -->
<g id="node7" class="node">
<title>Node7</title>
<g id="a_node7"><a xlink:title=" ">
<polygon fill="white" stroke="#666666" points="351,-360 322,-360 322,-330 351,-330 351,-360"/>
<text text-anchor="middle" x="336.5" y="-348" font-family="Helvetica,sans-Serif" font-size="10.00">{T</text>
<text text-anchor="middle" x="336.5" y="-337" font-family="Helvetica,sans-Serif" font-size="10.00">||}</text>
</a>
</g>
</g>
<!-- Node7&#45;&gt;Node6 -->
<g id="edge6" class="edge">
<title>Node7&#45;&gt;Node6</title>
<path fill="none" stroke="#404040" d="M336.5,-329.69C336.5,-316.55 336.5,-296.59 336.5,-279.58"/>
<polygon fill="none" stroke="#404040" points="336.5,-279.66 332.5,-273.66 336.5,-267.66 340.5,-273.65 336.5,-279.66"/>
<text text-anchor="middle" x="346.5" y="-304" font-family="Helvetica,sans-Serif" font-size="10.00"> +ptr</text>
</g>
<!-- Node8&#45;&gt;Node1 -->
<g id="edge7" class="edge">
<title>Node8&#45;&gt;Node1</title>
<path fill="none" stroke="#404040" d="M218.5,-109.66C218.5,-99.61 218.5,-87.74 218.5,-76.38"/>
<polygon fill="none" stroke="#404040" points="218.5,-76.3 214.5,-70.3 218.5,-64.3 222.5,-70.3 218.5,-76.3"/>
<text text-anchor="middle" x="237.5" y="-84" font-family="Helvetica,sans-Serif" font-size="10.00"> &#45;server_</text>
</g>
<!-- Node9 -->
<g id="node9" class="node">
<title>Node9</title>
<g id="a_node9"><a xlink:href="classsgns_1_1api_1_1_j_rpc_server.html" target="_top" xlink:title=" ">
<polygon fill="white" stroke="#666666" points="239,-283 126,-283 126,-209 239,-209 239,-283"/>
<text text-anchor="middle" x="182.5" y="-271" font-family="Helvetica,sans-Serif" font-size="10.00">{sgns::api::JRpcServer</text>
<text text-anchor="start" x="134" y="-260" font-family="Helvetica,sans-Serif" font-size="10.00">||+ ~JRpcServer()</text>
<text text-anchor="start" x="134" y="-249" font-family="Helvetica,sans-Serif" font-size="10.00">+ registerHandler()</text>
<text text-anchor="start" x="134" y="-238" font-family="Helvetica,sans-Serif" font-size="10.00">+ processJsonData()</text>
<text text-anchor="start" x="134" y="-227" font-family="Helvetica,sans-Serif" font-size="10.00">+ processData()</text>
<text text-anchor="middle" x="182.5" y="-216" font-family="Helvetica,sans-Serif" font-size="10.00">}</text>
</a>
</g>
</g>
<!-- Node9&#45;&gt;Node8 -->
<g id="edge8" class="edge">
<title>Node9&#45;&gt;Node8</title>
<path fill="none" stroke="#404040" d="M178.85,-208.8C179,-199.21 180.22,-189.01 183.5,-180 184.36,-177.63 185.42,-175.29 186.62,-173"/>
<polygon fill="none" stroke="#404040" points="186.64,-172.97 186.49,-165.76 193.09,-162.85 193.24,-170.06 186.64,-172.97"/>
<text text-anchor="middle" x="193.5" y="-183" font-family="Helvetica,sans-Serif" font-size="10.00"> +ptr</text>
</g>
</g>
</svg>
        <g id="navigator" transform="translate(0 0)" fill="#404254">
                <rect fill="#f2f5e9" fill-opacity="0.5" stroke="#606060" stroke-width=".5" x="0" y="0" width="60" height="60"/>
                <use id="zoomplus" xlink:href="#zoomPlus" x="17" y="9" onmousedown="handleZoom(evt,'in')"/>
                <use id="zoomminus" xlink:href="#zoomMin" x="42" y="9" onmousedown="handleZoom(evt,'out')"/>
                <use id="reset" xlink:href="#resetDef" x="30" y="36" onmousedown="handleReset()"/>
                <g id="arrowUp" xlink:href="#dirArrow" transform="translate(30 24)" onmousedown="handlePan(0,-1)">
                  <use xlink:href="#rim" fill="#404040">
                        <set attributeName="fill" to="#808080" begin="arrowUp.mouseover" end="arrowUp.mouseout"/>
                  </use>
                  <path fill="none" stroke="white" stroke-width="1.5" d="M0,-3.0v7 M-2.5,-0.5L0,-3.0L2.5,-0.5"/>
                </g>
                <g id="arrowRight" xlink:href="#dirArrow" transform="rotate(90) translate(36 -43)" onmousedown="handlePan(1,0)">
                  <use xlink:href="#rim" fill="#404040">
                        <set attributeName="fill" to="#808080" begin="arrowRight.mouseover" end="arrowRight.mouseout"/>
                  </use>
                  <path fill="none" stroke="white" stroke-width="1.5" d="M0,-3.0v7 M-2.5,-0.5L0,-3.0L2.5,-0.5"/>
                </g>
                <g id="arrowDown" xlink:href="#dirArrow" transform="rotate(180) translate(-30 -48)" onmousedown="handlePan(0,1)">
                  <use xlink:href="#rim" fill="#404040">
                        <set attributeName="fill" to="#808080" begin="arrowDown.mouseover" end="arrowDown.mouseout"/>
                  </use>
                  <path fill="none" stroke="white" stroke-width="1.5" d="M0,-3.0v7 M-2.5,-0.5L0,-3.0L2.5,-0.5"/>
                </g>
                <g id="arrowLeft" xlink:href="#dirArrow" transform="rotate(270) translate(-36 17)" onmousedown="handlePan(-1,0)">
                  <use xlink:href="#rim" fill="#404040">
                        <set attributeName="fill" to="#808080" begin="arrowLeft.mouseover" end="arrowLeft.mouseout"/>
                  </use>
                  <path fill="none" stroke="white" stroke-width="1.5" d="M0,-3.0v7 M-2.5,-0.5L0,-3.0L2.5,-0.5"/>
                </g>
        </g>
        <svg viewBox="0 0 15 15" width="100%" height="30px" preserveAspectRatio="xMaxYMin meet">
         <g id="arrow_out" transform="scale(0.3 0.3)">
          <a xlink:href="classsgns_1_1api_1_1author_1_1_author_j_rpc_processor__coll__graph_org.svg" target="_base">
           <rect id="button" ry="5" rx="5" y="6" x="6" height="38" width="38"
                fill="#f2f5e9" fill-opacity="0.5" stroke="#606060" stroke-width="1.0"/>
           <path id="arrow"
             d="M 11.500037,31.436501 C 11.940474,20.09759 22.043105,11.32322 32.158766,21.979434 L 37.068811,17.246167 C 37.068811,17.246167 37.088388,32 37.088388,32 L 22.160133,31.978069 C 22.160133,31.978069 26.997745,27.140456 26.997745,27.140456 C 18.528582,18.264221 13.291696,25.230495 11.500037,31.436501 z"
             style="fill:#404040;"/>
          </a>
         </g>
        </svg>
</svg>
