<?xml version="1.0" encoding="UTF-8" standalone="no"?>
<!DOCTYPE svg PUBLIC "-//W3C//DTD SVG 1.1//EN"
 "http://www.w3.org/Graphics/SVG/1.1/DTD/svg11.dtd">
<!-- Generated by graphviz version 7.0.5 (20221223.1930)
 -->
<!-- Title: sgns::runtime::dummy::FinalityApiDummy Pages: 1 -->
<svg width="366pt" height="445pt"
 viewBox="0.00 0.00 365.50 445.00" xmlns="http://www.w3.org/2000/svg" xmlns:xlink="http://www.w3.org/1999/xlink">
<g id="graph0" class="graph" transform="scale(1 1) rotate(0) translate(4 441)">
<title>sgns::runtime::dummy::FinalityApiDummy</title>
<!-- Node1 -->
<g id="node1" class="node">
<title>Node1</title>
<g id="a_node1"><a xlink:title=" ">
<polygon fill="#999999" stroke="#666666" points="168,-96 49,-96 49,0 168,0 168,-96"/>
<text text-anchor="start" x="57" y="-84" font-family="Helvetica,sans-Serif" font-size="10.00">{sgns::runtime::dummy</text>
<text text-anchor="middle" x="108.5" y="-73" font-family="Helvetica,sans-Serif" font-size="10.00">::FinalityApiDummy</text>
<text text-anchor="start" x="57" y="-62" font-family="Helvetica,sans-Serif" font-size="10.00">||+ ~FinalityApiDummy()</text>
<text text-anchor="start" x="57" y="-51" font-family="Helvetica,sans-Serif" font-size="10.00">+ FinalityApiDummy()</text>
<text text-anchor="start" x="57" y="-40" font-family="Helvetica,sans-Serif" font-size="10.00">+ pending_change()</text>
<text text-anchor="start" x="57" y="-29" font-family="Helvetica,sans-Serif" font-size="10.00">+ forced_change()</text>
<text text-anchor="start" x="57" y="-18" font-family="Helvetica,sans-Serif" font-size="10.00">+ authorities()</text>
<text text-anchor="middle" x="108.5" y="-7" font-family="Helvetica,sans-Serif" font-size="10.00">}</text>
</a>
</g>
</g>
<!-- Node2 -->
<g id="node2" class="node">
<title>Node2</title>
<g id="a_node2"><a xlink:href="classsgns_1_1runtime_1_1_finality_api.html" target="_top" xlink:title="interface for Finality runtime functions">
<polygon fill="white" stroke="#666666" points="127,-217 0,-217 0,-143 127,-143 127,-217"/>
<text text-anchor="middle" x="63.5" y="-205" font-family="Helvetica,sans-Serif" font-size="10.00">{sgns::runtime::FinalityApi</text>
<text text-anchor="start" x="8" y="-194" font-family="Helvetica,sans-Serif" font-size="10.00">||+ ~FinalityApi()</text>
<text text-anchor="start" x="8" y="-183" font-family="Helvetica,sans-Serif" font-size="10.00">+ pending_change()</text>
<text text-anchor="start" x="8" y="-172" font-family="Helvetica,sans-Serif" font-size="10.00">+ forced_change()</text>
<text text-anchor="start" x="8" y="-161" font-family="Helvetica,sans-Serif" font-size="10.00">+ authorities()</text>
<text text-anchor="middle" x="63.5" y="-150" font-family="Helvetica,sans-Serif" font-size="10.00">}</text>
</a>
</g>
</g>
<!-- Node2&#45;&gt;Node1 -->
<g id="edge1" class="edge">
<title>Node2&#45;&gt;Node1</title>
<path fill="none" stroke="#63b8ff" d="M79.79,-131.94C83.82,-120.31 88.13,-107.85 92.16,-96.21"/>
<polygon fill="none" stroke="#63b8ff" points="76.49,-130.76 76.53,-141.36 83.11,-133.05 76.49,-130.76"/>
</g>
<!-- Node3 -->
<g id="node3" class="node">
<title>Node3</title>
<g id="a_node3"><a xlink:title=" ">
<polygon fill="white" stroke="#666666" points="276,-206 145,-206 145,-154 276,-154 276,-206"/>
<text text-anchor="start" x="153" y="-194" font-family="Helvetica,sans-Serif" font-size="10.00">{std::shared_ptr&lt; sgns</text>
<text text-anchor="middle" x="210.5" y="-183" font-family="Helvetica,sans-Serif" font-size="10.00">::application::KeyStorage &gt;</text>
<text text-anchor="start" x="153" y="-172" font-family="Helvetica,sans-Serif" font-size="10.00">||+ operator&#45;&gt;()</text>
<text text-anchor="middle" x="210.5" y="-161" font-family="Helvetica,sans-Serif" font-size="10.00">}</text>
</a>
</g>
</g>
<!-- Node3&#45;&gt;Node1 -->
<g id="edge2" class="edge">
<title>Node3&#45;&gt;Node1</title>
<path fill="none" stroke="#404040" d="M190.59,-153.63C180.03,-140.16 166.59,-123.03 153.66,-106.55"/>
<polygon fill="none" stroke="#404040" points="153.66,-106.56 146.81,-104.31 146.26,-97.12 153.11,-99.37 153.66,-106.56"/>
<text text-anchor="middle" x="197.5" y="-117" font-family="Helvetica,sans-Serif" font-size="10.00"> &#45;key_storage_</text>
</g>
<!-- Node4 -->
<g id="node4" class="node">
<title>Node4</title>
<g id="a_node4"><a xlink:href="classsgns_1_1application_1_1_key_storage.html" target="_top" xlink:title=" ">
<polygon fill="white" stroke="#666666" points="233.5,-360 95.5,-360 95.5,-275 233.5,-275 233.5,-360"/>
<text text-anchor="start" x="103.5" y="-348" font-family="Helvetica,sans-Serif" font-size="10.00">{sgns::application::</text>
<text text-anchor="middle" x="164.5" y="-337" font-family="Helvetica,sans-Serif" font-size="10.00">KeyStorage</text>
<text text-anchor="start" x="103.5" y="-326" font-family="Helvetica,sans-Serif" font-size="10.00">||+ ~KeyStorage()</text>
<text text-anchor="start" x="103.5" y="-315" font-family="Helvetica,sans-Serif" font-size="10.00">+ getLocalSr25519Keypair()</text>
<text text-anchor="start" x="103.5" y="-304" font-family="Helvetica,sans-Serif" font-size="10.00">+ getLocalEd25519Keypair()</text>
<text text-anchor="start" x="103.5" y="-293" font-family="Helvetica,sans-Serif" font-size="10.00">+ getP2PKeypair()</text>
<text text-anchor="middle" x="164.5" y="-282" font-family="Helvetica,sans-Serif" font-size="10.00">}</text>
</a>
</g>
</g>
<!-- Node4&#45;&gt;Node3 -->
<g id="edge3" class="edge">
<title>Node4&#45;&gt;Node3</title>
<path fill="none" stroke="#404040" d="M178.68,-274.74C184.76,-256.81 191.83,-236.01 197.75,-218.57"/>
<polygon fill="none" stroke="#404040" points="197.77,-218.48 195.92,-211.52 201.63,-207.12 203.49,-214.09 197.77,-218.48"/>
<text text-anchor="middle" x="201.5" y="-243.5" font-family="Helvetica,sans-Serif" font-size="10.00"> +ptr</text>
</g>
<!-- Node5 -->
<g id="node5" class="node">
<title>Node5</title>
<g id="a_node5"><a xlink:title=" ">
<polygon fill="white" stroke="#666666" points="357.5,-338 251.5,-338 251.5,-297 357.5,-297 357.5,-338"/>
<text text-anchor="middle" x="304.5" y="-326" font-family="Helvetica,sans-Serif" font-size="10.00">{std::shared_ptr&lt; T &gt;</text>
<text text-anchor="start" x="259.5" y="-315" font-family="Helvetica,sans-Serif" font-size="10.00">||+ operator&#45;&gt;()</text>
<text text-anchor="middle" x="304.5" y="-304" font-family="Helvetica,sans-Serif" font-size="10.00">}</text>
</a>
</g>
</g>
<!-- Node5&#45;&gt;Node3 -->
<g id="edge4" class="edge">
<title>Node5&#45;&gt;Node3</title>
<path fill="none" stroke="orange" d="M284.12,-287.13C267.36,-262.96 243.86,-229.08 227.95,-206.15"/>
<polygon fill="orange" stroke="orange" points="281.19,-289.04 289.77,-295.26 286.94,-285.05 281.19,-289.04"/>
<text text-anchor="start" x="262.5" y="-249" font-family="Helvetica,sans-Serif" font-size="10.00"> &lt; sgns::application</text>
<text text-anchor="middle" x="304" y="-238" font-family="Helvetica,sans-Serif" font-size="10.00">::KeyStorage &gt;</text>
</g>
<!-- Node6 -->
<g id="node6" class="node">
<title>Node6</title>
<g id="a_node6"><a xlink:title=" ">
<polygon fill="white" stroke="#666666" points="319,-437 290,-437 290,-407 319,-407 319,-437"/>
<text text-anchor="middle" x="304.5" y="-425" font-family="Helvetica,sans-Serif" font-size="10.00">{T</text>
<text text-anchor="middle" x="304.5" y="-414" font-family="Helvetica,sans-Serif" font-size="10.00">||}</text>
</a>
</g>
</g>
<!-- Node6&#45;&gt;Node5 -->
<g id="edge5" class="edge">
<title>Node6&#45;&gt;Node5</title>
<path fill="none" stroke="#404040" d="M304.5,-406.75C304.5,-392.41 304.5,-369.79 304.5,-351.04"/>
<polygon fill="none" stroke="#404040" points="304.5,-351.15 300.5,-345.15 304.5,-339.15 308.5,-345.15 304.5,-351.15"/>
<text text-anchor="middle" x="314.5" y="-381" font-family="Helvetica,sans-Serif" font-size="10.00"> +ptr</text>
</g>
</g>
</svg>
