<?xml version="1.0" encoding="UTF-8" standalone="no"?>
<!DOCTYPE svg PUBLIC "-//W3C//DTD SVG 1.1//EN"
 "http://www.w3.org/Graphics/SVG/1.1/DTD/svg11.dtd">
<!-- Generated by graphviz version 7.0.5 (20221223.1930)
 -->
<!-- Title: sgns::crypto::SR25519ProviderImpl Pages: 1 -->
<svg width="320pt" height="401pt"
 viewBox="0.00 0.00 320.00 401.00" xmlns="http://www.w3.org/2000/svg" xmlns:xlink="http://www.w3.org/1999/xlink">
<g id="graph0" class="graph" transform="scale(1 1) rotate(0) translate(4 397)">
<title>sgns::crypto::SR25519ProviderImpl</title>
<!-- Node1 -->
<g id="node1" class="node">
<title>Node1</title>
<g id="a_node1"><a xlink:title=" ">
<polygon fill="#999999" stroke="#666666" points="210,-96 40,-96 40,0 210,0 210,-96"/>
<text text-anchor="middle" x="125" y="-84" font-family="Helvetica,sans-Serif" font-size="10.00">{sgns::crypto::SR25519ProviderImpl</text>
<text text-anchor="start" x="48" y="-73" font-family="Helvetica,sans-Serif" font-size="10.00">||+ SR25519ProviderImpl()</text>
<text text-anchor="start" x="48" y="-62" font-family="Helvetica,sans-Serif" font-size="10.00">+ ~SR25519ProviderImpl()</text>
<text text-anchor="start" x="48" y="-51" font-family="Helvetica,sans-Serif" font-size="10.00">+ generateKeypair()</text>
<text text-anchor="start" x="48" y="-40" font-family="Helvetica,sans-Serif" font-size="10.00">+ generateKeypair()</text>
<text text-anchor="start" x="48" y="-29" font-family="Helvetica,sans-Serif" font-size="10.00">+ sign()</text>
<text text-anchor="start" x="48" y="-18" font-family="Helvetica,sans-Serif" font-size="10.00">+ verify()</text>
<text text-anchor="middle" x="125" y="-7" font-family="Helvetica,sans-Serif" font-size="10.00">}</text>
</a>
</g>
</g>
<!-- Node2 -->
<g id="node2" class="node">
<title>Node2</title>
<g id="a_node2"><a xlink:href="classsgns_1_1crypto_1_1_s_r25519_provider.html" target="_top" xlink:title=" ">
<polygon fill="white" stroke="#666666" points="152,-228 0,-228 0,-143 152,-143 152,-228"/>
<text text-anchor="middle" x="76" y="-216" font-family="Helvetica,sans-Serif" font-size="10.00">{sgns::crypto::SR25519Provider</text>
<text text-anchor="start" x="8" y="-205" font-family="Helvetica,sans-Serif" font-size="10.00">||+ ~SR25519Provider()</text>
<text text-anchor="start" x="8" y="-194" font-family="Helvetica,sans-Serif" font-size="10.00">+ generateKeypair()</text>
<text text-anchor="start" x="8" y="-183" font-family="Helvetica,sans-Serif" font-size="10.00">+ generateKeypair()</text>
<text text-anchor="start" x="8" y="-172" font-family="Helvetica,sans-Serif" font-size="10.00">+ sign()</text>
<text text-anchor="start" x="8" y="-161" font-family="Helvetica,sans-Serif" font-size="10.00">+ verify()</text>
<text text-anchor="middle" x="76" y="-150" font-family="Helvetica,sans-Serif" font-size="10.00">}</text>
</a>
</g>
</g>
<!-- Node2&#45;&gt;Node1 -->
<g id="edge1" class="edge">
<title>Node2&#45;&gt;Node1</title>
<path fill="none" stroke="#63b8ff" d="M94.96,-132.08C99.25,-120.21 103.78,-107.69 107.98,-96.06"/>
<polygon fill="none" stroke="#63b8ff" points="91.73,-130.72 91.62,-141.32 98.31,-133.1 91.73,-130.72"/>
</g>
<!-- Node3 -->
<g id="node3" class="node">
<title>Node3</title>
<g id="a_node3"><a xlink:title=" ">
<polygon fill="white" stroke="#666666" points="312,-211.5 170,-211.5 170,-159.5 312,-159.5 312,-211.5"/>
<text text-anchor="middle" x="241" y="-199.5" font-family="Helvetica,sans-Serif" font-size="10.00">{std::shared_ptr&lt; CSPRNG &gt;</text>
<text text-anchor="start" x="178" y="-188.5" font-family="Helvetica,sans-Serif" font-size="10.00">|+ ptr</text>
<text text-anchor="start" x="178" y="-177.5" font-family="Helvetica,sans-Serif" font-size="10.00">|+ operator&#45;&gt;()</text>
<text text-anchor="middle" x="241" y="-166.5" font-family="Helvetica,sans-Serif" font-size="10.00">}</text>
</a>
</g>
</g>
<!-- Node3&#45;&gt;Node1 -->
<g id="edge2" class="edge">
<title>Node3&#45;&gt;Node1</title>
<path fill="none" stroke="#404040" d="M219.18,-159.01C206.39,-144.07 189.68,-124.55 173.9,-106.11"/>
<polygon fill="none" stroke="#404040" points="173.89,-106.11 166.95,-104.16 166.09,-97 173.03,-98.95 173.89,-106.11"/>
<text text-anchor="middle" x="215" y="-117" font-family="Helvetica,sans-Serif" font-size="10.00"> &#45;generator_</text>
</g>
<!-- Node4 -->
<g id="node4" class="node">
<title>Node4</title>
<g id="a_node4"><a xlink:title=" ">
<polygon fill="white" stroke="#666666" points="294,-316 188,-316 188,-275 294,-275 294,-316"/>
<text text-anchor="middle" x="241" y="-304" font-family="Helvetica,sans-Serif" font-size="10.00">{std::shared_ptr&lt; T &gt;</text>
<text text-anchor="start" x="196" y="-293" font-family="Helvetica,sans-Serif" font-size="10.00">||+ operator&#45;&gt;()</text>
<text text-anchor="middle" x="241" y="-282" font-family="Helvetica,sans-Serif" font-size="10.00">}</text>
</a>
</g>
</g>
<!-- Node4&#45;&gt;Node3 -->
<g id="edge3" class="edge">
<title>Node4&#45;&gt;Node3</title>
<path fill="none" stroke="orange" d="M241,-263.51C241,-247.15 241,-227.34 241,-211.9"/>
<polygon fill="orange" stroke="orange" points="237.5,-263.18 241,-273.18 244.5,-263.18 237.5,-263.18"/>
<text text-anchor="middle" x="271.5" y="-249" font-family="Helvetica,sans-Serif" font-size="10.00"> &lt; CSPRNG &gt;</text>
</g>
<!-- Node5 -->
<g id="node5" class="node">
<title>Node5</title>
<g id="a_node5"><a xlink:title=" ">
<polygon fill="white" stroke="#666666" points="255.5,-393 226.5,-393 226.5,-363 255.5,-363 255.5,-393"/>
<text text-anchor="middle" x="241" y="-381" font-family="Helvetica,sans-Serif" font-size="10.00">{T</text>
<text text-anchor="middle" x="241" y="-370" font-family="Helvetica,sans-Serif" font-size="10.00">||}</text>
</a>
</g>
</g>
<!-- Node5&#45;&gt;Node4 -->
<g id="edge4" class="edge">
<title>Node5&#45;&gt;Node4</title>
<path fill="none" stroke="#404040" d="M241,-362.61C241,-353.31 241,-340.82 241,-329.21"/>
<polygon fill="none" stroke="#404040" points="241,-329.11 237,-323.11 241,-317.11 245,-323.11 241,-329.11"/>
<text text-anchor="middle" x="251" y="-337" font-family="Helvetica,sans-Serif" font-size="10.00"> +ptr</text>
</g>
</g>
</svg>
