<?xml version="1.0" encoding="UTF-8" standalone="no"?>
<!DOCTYPE svg PUBLIC "-//W3C//DTD SVG 1.1//EN"
 "http://www.w3.org/Graphics/SVG/1.1/DTD/svg11.dtd">
<!-- Generated by graphviz version 7.0.5 (20221223.1930)
 -->
<!-- Title: sgns::application::LocalKeyStorage Pages: 1 -->
<svg width="633pt" height="820pt"
 viewBox="0.00 0.00 632.50 820.00" xmlns="http://www.w3.org/2000/svg" xmlns:xlink="http://www.w3.org/1999/xlink">
<g id="graph0" class="graph" transform="scale(1 1) rotate(0) translate(4 816)">
<title>sgns::application::LocalKeyStorage</title>
<!-- Node1 -->
<g id="node1" class="node">
<title>Node1</title>
<g id="a_node1"><a xlink:title=" ">
<polygon fill="#999999" stroke="#666666" points="299,-162 161,-162 161,0 299,0 299,-162"/>
<text text-anchor="start" x="169" y="-150" font-family="Helvetica,sans-Serif" font-size="10.00">{sgns::application::</text>
<text text-anchor="middle" x="230" y="-139" font-family="Helvetica,sans-Serif" font-size="10.00">LocalKeyStorage</text>
<text text-anchor="start" x="169" y="-128" font-family="Helvetica,sans-Serif" font-size="10.00">|&#45; p2p_keypair_</text>
<text text-anchor="start" x="169" y="-117" font-family="Helvetica,sans-Serif" font-size="10.00">|+ ~LocalKeyStorage()</text>
<text text-anchor="start" x="169" y="-106" font-family="Helvetica,sans-Serif" font-size="10.00">+ getLocalSr25519Keypair()</text>
<text text-anchor="start" x="169" y="-95" font-family="Helvetica,sans-Serif" font-size="10.00">+ getLocalEd25519Keypair()</text>
<text text-anchor="start" x="169" y="-84" font-family="Helvetica,sans-Serif" font-size="10.00">+ getP2PKeypair()</text>
<text text-anchor="start" x="169" y="-73" font-family="Helvetica,sans-Serif" font-size="10.00">+ create()</text>
<text text-anchor="start" x="169" y="-62" font-family="Helvetica,sans-Serif" font-size="10.00">&#45; LocalKeyStorage()</text>
<text text-anchor="start" x="169" y="-51" font-family="Helvetica,sans-Serif" font-size="10.00">&#45; loadFromJson()</text>
<text text-anchor="start" x="169" y="-40" font-family="Helvetica,sans-Serif" font-size="10.00">&#45; loadSR25519Keys()</text>
<text text-anchor="start" x="169" y="-29" font-family="Helvetica,sans-Serif" font-size="10.00">&#45; loadED25519Keys()</text>
<text text-anchor="start" x="169" y="-18" font-family="Helvetica,sans-Serif" font-size="10.00">&#45; loadP2PKeys()</text>
<text text-anchor="middle" x="230" y="-7" font-family="Helvetica,sans-Serif" font-size="10.00">}</text>
</a>
</g>
</g>
<!-- Node2 -->
<g id="node2" class="node">
<title>Node2</title>
<g id="a_node2"><a xlink:href="classsgns_1_1application_1_1_key_storage.html" target="_top" xlink:title=" ">
<polygon fill="white" stroke="#666666" points="138,-294 0,-294 0,-209 138,-209 138,-294"/>
<text text-anchor="start" x="8" y="-282" font-family="Helvetica,sans-Serif" font-size="10.00">{sgns::application::</text>
<text text-anchor="middle" x="69" y="-271" font-family="Helvetica,sans-Serif" font-size="10.00">KeyStorage</text>
<text text-anchor="start" x="8" y="-260" font-family="Helvetica,sans-Serif" font-size="10.00">||+ ~KeyStorage()</text>
<text text-anchor="start" x="8" y="-249" font-family="Helvetica,sans-Serif" font-size="10.00">+ getLocalSr25519Keypair()</text>
<text text-anchor="start" x="8" y="-238" font-family="Helvetica,sans-Serif" font-size="10.00">+ getLocalEd25519Keypair()</text>
<text text-anchor="start" x="8" y="-227" font-family="Helvetica,sans-Serif" font-size="10.00">+ getP2PKeypair()</text>
<text text-anchor="middle" x="69" y="-216" font-family="Helvetica,sans-Serif" font-size="10.00">}</text>
</a>
</g>
</g>
<!-- Node2&#45;&gt;Node1 -->
<g id="edge1" class="edge">
<title>Node2&#45;&gt;Node1</title>
<path fill="none" stroke="#63b8ff" d="M116.71,-200.57C130.47,-186.17 145.77,-170.15 160.57,-154.67"/>
<polygon fill="none" stroke="#63b8ff" points="114.22,-198.11 109.84,-207.75 119.28,-202.94 114.22,-198.11"/>
</g>
<!-- Node3 -->
<g id="node3" class="node">
<title>Node3</title>
<g id="a_node3"><a xlink:href="structsgns_1_1crypto_1_1_s_r25519_keypair.html" target="_top" xlink:title=" ">
<polygon fill="white" stroke="#666666" points="304,-283 156,-283 156,-220 304,-220 304,-283"/>
<text text-anchor="middle" x="230" y="-271" font-family="Helvetica,sans-Serif" font-size="10.00">{sgns::crypto::SR25519Keypair</text>
<text text-anchor="start" x="164" y="-260" font-family="Helvetica,sans-Serif" font-size="10.00">||+ SR25519Keypair()</text>
<text text-anchor="start" x="164" y="-249" font-family="Helvetica,sans-Serif" font-size="10.00">+ operator==()</text>
<text text-anchor="start" x="164" y="-238" font-family="Helvetica,sans-Serif" font-size="10.00">+ operator!=()</text>
<text text-anchor="middle" x="230" y="-227" font-family="Helvetica,sans-Serif" font-size="10.00">}</text>
</a>
</g>
</g>
<!-- Node3&#45;&gt;Node1 -->
<g id="edge2" class="edge">
<title>Node3&#45;&gt;Node1</title>
<path fill="none" stroke="#404040" d="M230,-219.59C230,-206.77 230,-191.16 230,-175.1"/>
<polygon fill="none" stroke="#404040" points="230,-175.08 226,-169.08 230,-163.08 234,-169.08 230,-175.08"/>
<text text-anchor="middle" x="273.5" y="-183" font-family="Helvetica,sans-Serif" font-size="10.00"> &#45;sr_25519_keypair_</text>
</g>
<!-- Node4 -->
<g id="node4" class="node">
<title>Node4</title>
<g id="a_node4"><a xlink:href="classsgns_1_1base_1_1_blob.html" target="_top" xlink:title=" ">
<polygon fill="white" stroke="#666666" points="304.5,-481 163.5,-481 163.5,-341 304.5,-341 304.5,-481"/>
<text text-anchor="start" x="171.5" y="-469" font-family="Helvetica,sans-Serif" font-size="10.00">{sgns::base::Blob&lt; constants</text>
<text text-anchor="middle" x="234" y="-458" font-family="Helvetica,sans-Serif" font-size="10.00">::sr25519::SECRET_SIZE &gt;</text>
<text text-anchor="start" x="171.5" y="-447" font-family="Helvetica,sans-Serif" font-size="10.00">||+ Blob()</text>
<text text-anchor="start" x="171.5" y="-436" font-family="Helvetica,sans-Serif" font-size="10.00">+ Blob()</text>
<text text-anchor="start" x="171.5" y="-425" font-family="Helvetica,sans-Serif" font-size="10.00">+ toString()</text>
<text text-anchor="start" x="171.5" y="-414" font-family="Helvetica,sans-Serif" font-size="10.00">+ toHex()</text>
<text text-anchor="start" x="171.5" y="-403" font-family="Helvetica,sans-Serif" font-size="10.00">+ size()</text>
<text text-anchor="start" x="171.5" y="-392" font-family="Helvetica,sans-Serif" font-size="10.00">+ fromString()</text>
<text text-anchor="start" x="171.5" y="-381" font-family="Helvetica,sans-Serif" font-size="10.00">+ fromHex()</text>
<text text-anchor="start" x="171.5" y="-370" font-family="Helvetica,sans-Serif" font-size="10.00">+ fromHexWithPrefix()</text>
<text text-anchor="start" x="171.5" y="-359" font-family="Helvetica,sans-Serif" font-size="10.00">+ fromSpan()</text>
<text text-anchor="middle" x="234" y="-348" font-family="Helvetica,sans-Serif" font-size="10.00">}</text>
</a>
</g>
</g>
<!-- Node4&#45;&gt;Node3 -->
<g id="edge3" class="edge">
<title>Node4&#45;&gt;Node3</title>
<path fill="none" stroke="#404040" d="M232.25,-340.92C231.86,-325.64 231.46,-309.86 231.1,-295.94"/>
<polygon fill="none" stroke="#404040" points="231.11,-296.14 226.96,-290.24 230.8,-284.14 234.95,-290.04 231.11,-296.14"/>
<text text-anchor="middle" x="260" y="-315" font-family="Helvetica,sans-Serif" font-size="10.00"> +secret_key</text>
</g>
<!-- Node5 -->
<g id="node5" class="node">
<title>Node5</title>
<g id="a_node5"><a xlink:title=" ">
<polygon fill="white" stroke="#666666" points="346.5,-735 265.5,-735 265.5,-705 346.5,-705 346.5,-735"/>
<text text-anchor="middle" x="306" y="-723" font-family="Helvetica,sans-Serif" font-size="10.00">{std::array&lt; T &gt;</text>
<text text-anchor="middle" x="306" y="-712" font-family="Helvetica,sans-Serif" font-size="10.00">||}</text>
</a>
</g>
</g>
<!-- Node5&#45;&gt;Node4 -->
<g id="edge4" class="edge">
<title>Node5&#45;&gt;Node4</title>
<path fill="none" stroke="#63b8ff" d="M271.21,-698.43C258.18,-689.88 243.71,-679.32 232,-668 173.5,-611.49 148.51,-598.23 123,-521 119.93,-511.72 118.12,-507.47 123,-499 130.95,-485.19 141.02,-490.24 154,-481 156.99,-478.87 160,-476.66 163.01,-474.38"/>
<polygon fill="none" stroke="#63b8ff" points="269.22,-701.32 279.54,-703.74 272.99,-695.42 269.22,-701.32"/>
</g>
<!-- Node7 -->
<g id="node7" class="node">
<title>Node7</title>
<g id="a_node7"><a xlink:href="classsgns_1_1base_1_1_blob.html" target="_top" xlink:title=" ">
<polygon fill="white" stroke="#666666" points="370.5,-668 241.5,-668 241.5,-539 370.5,-539 370.5,-668"/>
<text text-anchor="middle" x="306" y="-656" font-family="Helvetica,sans-Serif" font-size="10.00">{sgns::base::Blob&lt; size_ &gt;</text>
<text text-anchor="start" x="249.5" y="-645" font-family="Helvetica,sans-Serif" font-size="10.00">||+ Blob()</text>
<text text-anchor="start" x="249.5" y="-634" font-family="Helvetica,sans-Serif" font-size="10.00">+ Blob()</text>
<text text-anchor="start" x="249.5" y="-623" font-family="Helvetica,sans-Serif" font-size="10.00">+ toString()</text>
<text text-anchor="start" x="249.5" y="-612" font-family="Helvetica,sans-Serif" font-size="10.00">+ toHex()</text>
<text text-anchor="start" x="249.5" y="-601" font-family="Helvetica,sans-Serif" font-size="10.00">+ size()</text>
<text text-anchor="start" x="249.5" y="-590" font-family="Helvetica,sans-Serif" font-size="10.00">+ fromString()</text>
<text text-anchor="start" x="249.5" y="-579" font-family="Helvetica,sans-Serif" font-size="10.00">+ fromHex()</text>
<text text-anchor="start" x="249.5" y="-568" font-family="Helvetica,sans-Serif" font-size="10.00">+ fromHexWithPrefix()</text>
<text text-anchor="start" x="249.5" y="-557" font-family="Helvetica,sans-Serif" font-size="10.00">+ fromSpan()</text>
<text text-anchor="middle" x="306" y="-546" font-family="Helvetica,sans-Serif" font-size="10.00">}</text>
</a>
</g>
</g>
<!-- Node5&#45;&gt;Node7 -->
<g id="edge7" class="edge">
<title>Node5&#45;&gt;Node7</title>
<path fill="none" stroke="#63b8ff" d="M306,-693.68C306,-686.06 306,-677.33 306,-668.37"/>
<polygon fill="none" stroke="#63b8ff" points="302.5,-693.45 306,-703.45 309.5,-693.45 302.5,-693.45"/>
</g>
<!-- Node8 -->
<g id="node8" class="node">
<title>Node8</title>
<g id="a_node8"><a xlink:href="classsgns_1_1base_1_1_blob.html" target="_top" xlink:title=" ">
<polygon fill="white" stroke="#666666" points="145.5,-481 4.5,-481 4.5,-341 145.5,-341 145.5,-481"/>
<text text-anchor="start" x="12.5" y="-469" font-family="Helvetica,sans-Serif" font-size="10.00">{sgns::base::Blob&lt; constants</text>
<text text-anchor="middle" x="75" y="-458" font-family="Helvetica,sans-Serif" font-size="10.00">::sr25519::PUBLIC_SIZE &gt;</text>
<text text-anchor="start" x="12.5" y="-447" font-family="Helvetica,sans-Serif" font-size="10.00">||+ Blob()</text>
<text text-anchor="start" x="12.5" y="-436" font-family="Helvetica,sans-Serif" font-size="10.00">+ Blob()</text>
<text text-anchor="start" x="12.5" y="-425" font-family="Helvetica,sans-Serif" font-size="10.00">+ toString()</text>
<text text-anchor="start" x="12.5" y="-414" font-family="Helvetica,sans-Serif" font-size="10.00">+ toHex()</text>
<text text-anchor="start" x="12.5" y="-403" font-family="Helvetica,sans-Serif" font-size="10.00">+ size()</text>
<text text-anchor="start" x="12.5" y="-392" font-family="Helvetica,sans-Serif" font-size="10.00">+ fromString()</text>
<text text-anchor="start" x="12.5" y="-381" font-family="Helvetica,sans-Serif" font-size="10.00">+ fromHex()</text>
<text text-anchor="start" x="12.5" y="-370" font-family="Helvetica,sans-Serif" font-size="10.00">+ fromHexWithPrefix()</text>
<text text-anchor="start" x="12.5" y="-359" font-family="Helvetica,sans-Serif" font-size="10.00">+ fromSpan()</text>
<text text-anchor="middle" x="75" y="-348" font-family="Helvetica,sans-Serif" font-size="10.00">}</text>
</a>
</g>
</g>
<!-- Node5&#45;&gt;Node8 -->
<g id="edge9" class="edge">
<title>Node5&#45;&gt;Node8</title>
<path fill="none" stroke="#63b8ff" d="M253.76,-718.23C213.16,-714.73 158.46,-703.15 126,-668 79.8,-617.98 70.27,-538.49 70.27,-481.35"/>
<polygon fill="none" stroke="#63b8ff" points="253.34,-721.71 263.56,-718.93 253.84,-714.73 253.34,-721.71"/>
</g>
<!-- Node10 -->
<g id="node10" class="node">
<title>Node10</title>
<g id="a_node10"><a xlink:href="classsgns_1_1base_1_1_blob.html" target="_top" xlink:title=" ">
<polygon fill="white" stroke="#666666" points="624.5,-481 483.5,-481 483.5,-341 624.5,-341 624.5,-481"/>
<text text-anchor="start" x="491.5" y="-469" font-family="Helvetica,sans-Serif" font-size="10.00">{sgns::base::Blob&lt; constants</text>
<text text-anchor="middle" x="554" y="-458" font-family="Helvetica,sans-Serif" font-size="10.00">::ed25519::PRIVKEY_SIZE &gt;</text>
<text text-anchor="start" x="491.5" y="-447" font-family="Helvetica,sans-Serif" font-size="10.00">||+ Blob()</text>
<text text-anchor="start" x="491.5" y="-436" font-family="Helvetica,sans-Serif" font-size="10.00">+ Blob()</text>
<text text-anchor="start" x="491.5" y="-425" font-family="Helvetica,sans-Serif" font-size="10.00">+ toString()</text>
<text text-anchor="start" x="491.5" y="-414" font-family="Helvetica,sans-Serif" font-size="10.00">+ toHex()</text>
<text text-anchor="start" x="491.5" y="-403" font-family="Helvetica,sans-Serif" font-size="10.00">+ size()</text>
<text text-anchor="start" x="491.5" y="-392" font-family="Helvetica,sans-Serif" font-size="10.00">+ fromString()</text>
<text text-anchor="start" x="491.5" y="-381" font-family="Helvetica,sans-Serif" font-size="10.00">+ fromHex()</text>
<text text-anchor="start" x="491.5" y="-370" font-family="Helvetica,sans-Serif" font-size="10.00">+ fromHexWithPrefix()</text>
<text text-anchor="start" x="491.5" y="-359" font-family="Helvetica,sans-Serif" font-size="10.00">+ fromSpan()</text>
<text text-anchor="middle" x="554" y="-348" font-family="Helvetica,sans-Serif" font-size="10.00">}</text>
</a>
</g>
</g>
<!-- Node5&#45;&gt;Node10 -->
<g id="edge13" class="edge">
<title>Node5&#45;&gt;Node10</title>
<path fill="none" stroke="#63b8ff" d="M358.19,-716.66C401.6,-712.33 463,-700.39 506,-668 566.46,-622.46 572.2,-594.06 592,-521 595.51,-508.04 594.58,-494.4 591.3,-481.32"/>
<polygon fill="none" stroke="#63b8ff" points="357.9,-713.17 348.25,-717.54 358.51,-720.15 357.9,-713.17"/>
</g>
<!-- Node11 -->
<g id="node11" class="node">
<title>Node11</title>
<g id="a_node11"><a xlink:href="classsgns_1_1base_1_1_blob.html" target="_top" xlink:title=" ">
<polygon fill="white" stroke="#666666" points="465.5,-481 324.5,-481 324.5,-341 465.5,-341 465.5,-481"/>
<text text-anchor="start" x="332.5" y="-469" font-family="Helvetica,sans-Serif" font-size="10.00">{sgns::base::Blob&lt; constants</text>
<text text-anchor="middle" x="395" y="-458" font-family="Helvetica,sans-Serif" font-size="10.00">::ed25519::PUBKEY_SIZE &gt;</text>
<text text-anchor="start" x="332.5" y="-447" font-family="Helvetica,sans-Serif" font-size="10.00">||+ Blob()</text>
<text text-anchor="start" x="332.5" y="-436" font-family="Helvetica,sans-Serif" font-size="10.00">+ Blob()</text>
<text text-anchor="start" x="332.5" y="-425" font-family="Helvetica,sans-Serif" font-size="10.00">+ toString()</text>
<text text-anchor="start" x="332.5" y="-414" font-family="Helvetica,sans-Serif" font-size="10.00">+ toHex()</text>
<text text-anchor="start" x="332.5" y="-403" font-family="Helvetica,sans-Serif" font-size="10.00">+ size()</text>
<text text-anchor="start" x="332.5" y="-392" font-family="Helvetica,sans-Serif" font-size="10.00">+ fromString()</text>
<text text-anchor="start" x="332.5" y="-381" font-family="Helvetica,sans-Serif" font-size="10.00">+ fromHex()</text>
<text text-anchor="start" x="332.5" y="-370" font-family="Helvetica,sans-Serif" font-size="10.00">+ fromHexWithPrefix()</text>
<text text-anchor="start" x="332.5" y="-359" font-family="Helvetica,sans-Serif" font-size="10.00">+ fromSpan()</text>
<text text-anchor="middle" x="395" y="-348" font-family="Helvetica,sans-Serif" font-size="10.00">}</text>
</a>
</g>
</g>
<!-- Node5&#45;&gt;Node11 -->
<g id="edge16" class="edge">
<title>Node5&#45;&gt;Node11</title>
<path fill="none" stroke="#63b8ff" d="M354.46,-700.19C418.88,-672.19 529.96,-612.79 576,-521 580.38,-512.26 582.28,-506.5 576,-499 546.72,-464.04 516.17,-500.59 475,-481 471.85,-479.5 468.73,-477.85 465.65,-476.07"/>
<polygon fill="none" stroke="#63b8ff" points="353.37,-696.84 345.54,-703.98 356.11,-703.28 353.37,-696.84"/>
</g>
<!-- Node6 -->
<g id="node6" class="node">
<title>Node6</title>
<g id="a_node6"><a xlink:title=" ">
<polygon fill="white" stroke="#666666" points="320.5,-812 291.5,-812 291.5,-782 320.5,-782 320.5,-812"/>
<text text-anchor="middle" x="306" y="-800" font-family="Helvetica,sans-Serif" font-size="10.00">{T</text>
<text text-anchor="middle" x="306" y="-789" font-family="Helvetica,sans-Serif" font-size="10.00">||}</text>
</a>
</g>
</g>
<!-- Node6&#45;&gt;Node5 -->
<g id="edge5" class="edge">
<title>Node6&#45;&gt;Node5</title>
<path fill="none" stroke="#404040" d="M306,-781.54C306,-772.1 306,-759.47 306,-748.2"/>
<polygon fill="none" stroke="#404040" points="306,-748.32 302,-742.32 306,-736.32 310,-742.32 306,-748.32"/>
<text text-anchor="middle" x="330.5" y="-756" font-family="Helvetica,sans-Serif" font-size="10.00"> +elements</text>
</g>
<!-- Node7&#45;&gt;Node4 -->
<g id="edge6" class="edge">
<title>Node7&#45;&gt;Node4</title>
<path fill="none" stroke="orange" d="M252.21,-528.51C251.06,-526.02 249.98,-523.51 249,-521 244.12,-508.55 240.79,-494.76 238.52,-481.29"/>
<polygon fill="orange" stroke="orange" points="249.03,-529.98 256.66,-537.32 255.28,-526.82 249.03,-529.98"/>
<text text-anchor="start" x="249" y="-513" font-family="Helvetica,sans-Serif" font-size="10.00"> &lt; constants::sr25519</text>
<text text-anchor="middle" x="295.5" y="-502" font-family="Helvetica,sans-Serif" font-size="10.00">::SECRET_SIZE &gt;</text>
</g>
<!-- Node7&#45;&gt;Node8 -->
<g id="edge10" class="edge">
<title>Node7&#45;&gt;Node8</title>
<path fill="none" stroke="orange" d="M230.88,-574.1C202.22,-560.86 170.57,-543.09 146,-521 133.4,-509.68 122.09,-495.63 112.4,-481.43"/>
<polygon fill="orange" stroke="orange" points="229.34,-577.24 239.9,-578.15 232.21,-570.86 229.34,-577.24"/>
<text text-anchor="start" x="146" y="-513" font-family="Helvetica,sans-Serif" font-size="10.00"> &lt; constants::sr25519</text>
<text text-anchor="middle" x="192.5" y="-502" font-family="Helvetica,sans-Serif" font-size="10.00">::PUBLIC_SIZE &gt;</text>
</g>
<!-- Node7&#45;&gt;Node10 -->
<g id="edge14" class="edge">
<title>Node7&#45;&gt;Node10</title>
<path fill="none" stroke="orange" d="M381.12,-566.79C405.11,-553.86 431.1,-538.17 453,-521 467.92,-509.3 482.6,-495.34 495.95,-481.37"/>
<polygon fill="orange" stroke="orange" points="379.52,-563.67 372.32,-571.45 382.8,-569.86 379.52,-563.67"/>
<text text-anchor="start" x="477" y="-513" font-family="Helvetica,sans-Serif" font-size="10.00"> &lt; constants::ed25519</text>
<text text-anchor="middle" x="524.5" y="-502" font-family="Helvetica,sans-Serif" font-size="10.00">::PRIVKEY_SIZE &gt;</text>
</g>
<!-- Node7&#45;&gt;Node11 -->
<g id="edge17" class="edge">
<title>Node7&#45;&gt;Node11</title>
<path fill="none" stroke="orange" d="M340.58,-528.48C347.82,-512.98 355.44,-496.68 362.6,-481.35"/>
<polygon fill="orange" stroke="orange" points="337.59,-526.62 336.52,-537.17 343.93,-529.59 337.59,-526.62"/>
<text text-anchor="start" x="354" y="-513" font-family="Helvetica,sans-Serif" font-size="10.00"> &lt; constants::ed25519</text>
<text text-anchor="middle" x="401.5" y="-502" font-family="Helvetica,sans-Serif" font-size="10.00">::PUBKEY_SIZE &gt;</text>
</g>
<!-- Node8&#45;&gt;Node3 -->
<g id="edge8" class="edge">
<title>Node8&#45;&gt;Node3</title>
<path fill="none" stroke="#404040" d="M142.99,-340.92C159.27,-324.37 176.12,-307.25 190.6,-292.53"/>
<polygon fill="none" stroke="#404040" points="190.7,-292.43 192.06,-285.35 199.12,-283.88 197.76,-290.96 190.7,-292.43"/>
<text text-anchor="middle" x="198.5" y="-315" font-family="Helvetica,sans-Serif" font-size="10.00"> +public_key</text>
</g>
<!-- Node9 -->
<g id="node9" class="node">
<title>Node9</title>
<g id="a_node9"><a xlink:href="structsgns_1_1crypto_1_1_e_d25519_keypair.html" target="_top" xlink:title=" ">
<polygon fill="white" stroke="#666666" points="469.5,-277.5 322.5,-277.5 322.5,-225.5 469.5,-225.5 469.5,-277.5"/>
<text text-anchor="middle" x="396" y="-265.5" font-family="Helvetica,sans-Serif" font-size="10.00">{sgns::crypto::ED25519Keypair</text>
<text text-anchor="start" x="330.5" y="-254.5" font-family="Helvetica,sans-Serif" font-size="10.00">||+ operator==()</text>
<text text-anchor="start" x="330.5" y="-243.5" font-family="Helvetica,sans-Serif" font-size="10.00">+ operator!=()</text>
<text text-anchor="middle" x="396" y="-232.5" font-family="Helvetica,sans-Serif" font-size="10.00">}</text>
</a>
</g>
</g>
<!-- Node9&#45;&gt;Node1 -->
<g id="edge11" class="edge">
<title>Node9&#45;&gt;Node1</title>
<path fill="none" stroke="#404040" d="M371.15,-225.27C354.3,-208.17 331.03,-184.55 308.24,-161.42"/>
<polygon fill="none" stroke="#404040" points="308.26,-161.44 301.2,-159.97 299.84,-152.89 306.9,-154.35 308.26,-161.44"/>
<text text-anchor="middle" x="377.5" y="-183" font-family="Helvetica,sans-Serif" font-size="10.00"> &#45;ed_25519_keypair_</text>
</g>
<!-- Node10&#45;&gt;Node9 -->
<g id="edge12" class="edge">
<title>Node10&#45;&gt;Node9</title>
<path fill="none" stroke="#404040" d="M484.7,-340.92C465.85,-322.13 446.24,-302.59 430.28,-286.67"/>
<polygon fill="none" stroke="#404040" points="430.47,-286.86 423.39,-285.46 421.97,-278.39 429.04,-279.79 430.47,-286.86"/>
<text text-anchor="middle" x="494" y="-315" font-family="Helvetica,sans-Serif" font-size="10.00"> +private_key</text>
</g>
<!-- Node11&#45;&gt;Node9 -->
<g id="edge15" class="edge">
<title>Node11&#45;&gt;Node9</title>
<path fill="none" stroke="#404040" d="M395.44,-340.92C395.55,-323.71 395.66,-305.87 395.76,-290.76"/>
<polygon fill="none" stroke="#404040" points="395.76,-290.65 391.8,-284.63 395.83,-278.65 399.8,-284.68 395.76,-290.65"/>
<text text-anchor="middle" x="423.5" y="-315" font-family="Helvetica,sans-Serif" font-size="10.00"> +public_key</text>
</g>
</g>
</svg>
