<?xml version="1.0" encoding="UTF-8" standalone="no"?>
<!DOCTYPE svg PUBLIC "-//W3C//DTD SVG 1.1//EN"
 "http://www.w3.org/Graphics/SVG/1.1/DTD/svg11.dtd">
<!-- Generated by graphviz version 7.0.5 (20221223.1930)
 -->
<!-- Title: sgns::network::ExtrinsicObserverImpl Pages: 1 -->
<svg width="407pt" height="390pt"
 viewBox="0.00 0.00 406.50 390.00" xmlns="http://www.w3.org/2000/svg" xmlns:xlink="http://www.w3.org/1999/xlink">
<g id="graph0" class="graph" transform="scale(1 1) rotate(0) translate(4 386)">
<title>sgns::network::ExtrinsicObserverImpl</title>
<!-- Node1 -->
<g id="node1" class="node">
<title>Node1</title>
<g id="a_node1"><a xlink:title=" ">
<polygon fill="#999999" stroke="#666666" points="261,-74 130,-74 130,0 261,0 261,-74"/>
<text text-anchor="start" x="138" y="-62" font-family="Helvetica,sans-Serif" font-size="10.00">{sgns::network::Extrinsic</text>
<text text-anchor="middle" x="195.5" y="-51" font-family="Helvetica,sans-Serif" font-size="10.00">ObserverImpl</text>
<text text-anchor="start" x="138" y="-40" font-family="Helvetica,sans-Serif" font-size="10.00">||+ ExtrinsicObserverImpl()</text>
<text text-anchor="start" x="138" y="-29" font-family="Helvetica,sans-Serif" font-size="10.00">+ ~ExtrinsicObserverImpl()</text>
<text text-anchor="start" x="138" y="-18" font-family="Helvetica,sans-Serif" font-size="10.00">+ onTxMessage()</text>
<text text-anchor="middle" x="195.5" y="-7" font-family="Helvetica,sans-Serif" font-size="10.00">}</text>
</a>
</g>
</g>
<!-- Node2 -->
<g id="node2" class="node">
<title>Node2</title>
<g id="a_node2"><a xlink:href="classsgns_1_1network_1_1_extrinsic_observer.html" target="_top" xlink:title=" ">
<polygon fill="white" stroke="#666666" points="121,-184 0,-184 0,-121 121,-121 121,-184"/>
<text text-anchor="start" x="8" y="-172" font-family="Helvetica,sans-Serif" font-size="10.00">{sgns::network::Extrinsic</text>
<text text-anchor="middle" x="60.5" y="-161" font-family="Helvetica,sans-Serif" font-size="10.00">Observer</text>
<text text-anchor="start" x="8" y="-150" font-family="Helvetica,sans-Serif" font-size="10.00">||+ ~ExtrinsicObserver()</text>
<text text-anchor="start" x="8" y="-139" font-family="Helvetica,sans-Serif" font-size="10.00">+ onTxMessage()</text>
<text text-anchor="middle" x="60.5" y="-128" font-family="Helvetica,sans-Serif" font-size="10.00">}</text>
</a>
</g>
</g>
<!-- Node2&#45;&gt;Node1 -->
<g id="edge1" class="edge">
<title>Node2&#45;&gt;Node1</title>
<path fill="none" stroke="#63b8ff" d="M105.66,-113.54C120.67,-100.91 137.35,-86.89 152.22,-74.38"/>
<polygon fill="none" stroke="#63b8ff" points="103.59,-110.7 98.19,-119.81 108.1,-116.05 103.59,-110.7"/>
</g>
<!-- Node3 -->
<g id="node3" class="node">
<title>Node3</title>
<g id="a_node3"><a xlink:title=" ">
<polygon fill="white" stroke="#666666" points="252,-178.5 139,-178.5 139,-126.5 252,-126.5 252,-178.5"/>
<text text-anchor="start" x="147" y="-166.5" font-family="Helvetica,sans-Serif" font-size="10.00">{std::shared_ptr&lt; sgns</text>
<text text-anchor="middle" x="195.5" y="-155.5" font-family="Helvetica,sans-Serif" font-size="10.00">::api::AuthorApi &gt;</text>
<text text-anchor="start" x="147" y="-144.5" font-family="Helvetica,sans-Serif" font-size="10.00">||+ operator&#45;&gt;()</text>
<text text-anchor="middle" x="195.5" y="-133.5" font-family="Helvetica,sans-Serif" font-size="10.00">}</text>
</a>
</g>
</g>
<!-- Node3&#45;&gt;Node1 -->
<g id="edge2" class="edge">
<title>Node3&#45;&gt;Node1</title>
<path fill="none" stroke="#404040" d="M195.5,-126.03C195.5,-114.44 195.5,-100.32 195.5,-86.81"/>
<polygon fill="none" stroke="#404040" points="195.5,-87.05 191.5,-81.05 195.5,-75.05 199.5,-81.05 195.5,-87.05"/>
<text text-anchor="middle" x="207.5" y="-95" font-family="Helvetica,sans-Serif" font-size="10.00"> &#45;api_</text>
</g>
<!-- Node4 -->
<g id="node4" class="node">
<title>Node4</title>
<g id="a_node4"><a xlink:href="classsgns_1_1api_1_1_author_api.html" target="_top" xlink:title=" ">
<polygon fill="white" stroke="#666666" points="213,-305 106,-305 106,-231 213,-231 213,-305"/>
<text text-anchor="middle" x="159.5" y="-293" font-family="Helvetica,sans-Serif" font-size="10.00">{sgns::api::AuthorApi</text>
<text text-anchor="start" x="114" y="-282" font-family="Helvetica,sans-Serif" font-size="10.00">||+ ~AuthorApi()</text>
<text text-anchor="start" x="114" y="-271" font-family="Helvetica,sans-Serif" font-size="10.00">+ submitExtrinsic()</text>
<text text-anchor="start" x="114" y="-260" font-family="Helvetica,sans-Serif" font-size="10.00">+ pendingExtrinsics()</text>
<text text-anchor="start" x="114" y="-249" font-family="Helvetica,sans-Serif" font-size="10.00">+ removeExtrinsic()</text>
<text text-anchor="middle" x="159.5" y="-238" font-family="Helvetica,sans-Serif" font-size="10.00">}</text>
</a>
</g>
</g>
<!-- Node4&#45;&gt;Node3 -->
<g id="edge3" class="edge">
<title>Node4&#45;&gt;Node3</title>
<path fill="none" stroke="#404040" d="M156.21,-230.59C156.38,-221.09 157.52,-211 160.5,-202 161.9,-197.78 163.81,-193.62 166.02,-189.61"/>
<polygon fill="none" stroke="#404040" points="165.96,-189.7 165.8,-182.49 172.39,-179.57 172.55,-186.77 165.96,-189.7"/>
<text text-anchor="middle" x="170.5" y="-205" font-family="Helvetica,sans-Serif" font-size="10.00"> +ptr</text>
</g>
<!-- Node5 -->
<g id="node5" class="node">
<title>Node5</title>
<g id="a_node5"><a xlink:title=" ">
<polygon fill="white" stroke="#666666" points="360.5,-288.5 254.5,-288.5 254.5,-247.5 360.5,-247.5 360.5,-288.5"/>
<text text-anchor="middle" x="307.5" y="-276.5" font-family="Helvetica,sans-Serif" font-size="10.00">{std::shared_ptr&lt; T &gt;</text>
<text text-anchor="start" x="262.5" y="-265.5" font-family="Helvetica,sans-Serif" font-size="10.00">||+ operator&#45;&gt;()</text>
<text text-anchor="middle" x="307.5" y="-254.5" font-family="Helvetica,sans-Serif" font-size="10.00">}</text>
</a>
</g>
</g>
<!-- Node5&#45;&gt;Node3 -->
<g id="edge4" class="edge">
<title>Node5&#45;&gt;Node3</title>
<path fill="none" stroke="orange" d="M244.18,-242.28C231.11,-234.62 218.58,-224.96 209.5,-213 202.12,-203.28 198.55,-190.28 196.85,-178.92"/>
<polygon fill="orange" stroke="orange" points="242.44,-245.32 252.9,-247.03 245.79,-239.18 242.44,-245.32"/>
<text text-anchor="middle" x="262" y="-205" font-family="Helvetica,sans-Serif" font-size="10.00"> &lt; sgns::api::AuthorApi &gt;</text>
</g>
<!-- Node7 -->
<g id="node7" class="node">
<title>Node7</title>
<g id="a_node7"><a xlink:title=" ">
<polygon fill="white" stroke="#666666" points="390.5,-184 270.5,-184 270.5,-121 390.5,-121 390.5,-184"/>
<text text-anchor="start" x="278.5" y="-172" font-family="Helvetica,sans-Serif" font-size="10.00">{std::shared_ptr&lt; spdlog</text>
<text text-anchor="middle" x="330.5" y="-161" font-family="Helvetica,sans-Serif" font-size="10.00">::logger &gt;</text>
<text text-anchor="start" x="278.5" y="-150" font-family="Helvetica,sans-Serif" font-size="10.00">|+ ptr</text>
<text text-anchor="start" x="278.5" y="-139" font-family="Helvetica,sans-Serif" font-size="10.00">|+ operator&#45;&gt;()</text>
<text text-anchor="middle" x="330.5" y="-128" font-family="Helvetica,sans-Serif" font-size="10.00">}</text>
</a>
</g>
</g>
<!-- Node5&#45;&gt;Node7 -->
<g id="edge7" class="edge">
<title>Node5&#45;&gt;Node7</title>
<path fill="none" stroke="orange" d="M313.74,-236.2C317.02,-220.03 321.02,-200.29 324.29,-184.15"/>
<polygon fill="orange" stroke="orange" points="310.36,-235.25 311.81,-245.75 317.22,-236.64 310.36,-235.25"/>
<text text-anchor="middle" x="359" y="-205" font-family="Helvetica,sans-Serif" font-size="10.00"> &lt; spdlog::logger &gt;</text>
</g>
<!-- Node6 -->
<g id="node6" class="node">
<title>Node6</title>
<g id="a_node6"><a xlink:title=" ">
<polygon fill="white" stroke="#666666" points="322,-382 293,-382 293,-352 322,-352 322,-382"/>
<text text-anchor="middle" x="307.5" y="-370" font-family="Helvetica,sans-Serif" font-size="10.00">{T</text>
<text text-anchor="middle" x="307.5" y="-359" font-family="Helvetica,sans-Serif" font-size="10.00">||}</text>
</a>
</g>
</g>
<!-- Node6&#45;&gt;Node5 -->
<g id="edge5" class="edge">
<title>Node6&#45;&gt;Node5</title>
<path fill="none" stroke="#404040" d="M307.5,-351.69C307.5,-338.55 307.5,-318.59 307.5,-301.58"/>
<polygon fill="none" stroke="#404040" points="307.5,-301.66 303.5,-295.66 307.5,-289.66 311.5,-295.65 307.5,-301.66"/>
<text text-anchor="middle" x="317.5" y="-326" font-family="Helvetica,sans-Serif" font-size="10.00"> +ptr</text>
</g>
<!-- Node7&#45;&gt;Node1 -->
<g id="edge6" class="edge">
<title>Node7&#45;&gt;Node1</title>
<path fill="none" stroke="#404040" d="M293.97,-120.79C280,-109.04 263.78,-95.41 248.58,-82.63"/>
<polygon fill="none" stroke="#404040" points="248.65,-82.69 241.48,-81.89 239.47,-74.96 246.63,-75.76 248.65,-82.69"/>
<text text-anchor="middle" x="289" y="-95" font-family="Helvetica,sans-Serif" font-size="10.00"> &#45;logger_</text>
</g>
</g>
</svg>
