<?xml version="1.0" encoding="UTF-8" standalone="no"?>
<!DOCTYPE svg PUBLIC "-//W3C//DTD SVG 1.1//EN"
 "http://www.w3.org/Graphics/SVG/1.1/DTD/svg11.dtd">
<!-- Generated by graphviz version 7.0.5 (20221223.1930)
 -->
<!-- Title: sgns::storage::InMemoryStorage Pages: 1 -->
<!--zoomable 742 -->
<svg id="main" version="1.1" xmlns="http://www.w3.org/2000/svg" xmlns:xlink="http://www.w3.org/1999/xlink" xml:space="preserve" onload="init(evt)">
<style type="text/css"><![CDATA[
.edge:hover path { stroke: red; }
.edge:hover polygon { stroke: red; fill: red; }
]]></style>
<script type="text/javascript"><![CDATA[
var edges = document.getElementsByTagName('g');
if (edges && edges.length) {
  for (var i=0;i<edges.length;i++) {
    if (edges[i].id.substr(0,4)=='edge') {
      edges[i].setAttribute('class','edge');
    }
  }
}
]]></script>
        <defs>
                <circle id="rim" cx="0" cy="0" r="7"/>
                <circle id="rim2" cx="0" cy="0" r="3.5"/>
                <g id="zoomPlus">
                        <use xlink:href="#rim" fill="#404040">
                                <set attributeName="fill" to="#808080" begin="zoomplus.mouseover" end="zoomplus.mouseout"/>
                        </use>
                        <path d="M-4,0h8M0,-4v8" fill="none" stroke="white" stroke-width="1.5" pointer-events="none"/>
                </g>
                <g id="zoomMin">
                        <use xlink:href="#rim" fill="#404040">
                                <set attributeName="fill" to="#808080" begin="zoomminus.mouseover" end="zoomminus.mouseout"/>
                        </use>
                        <path d="M-4,0h8" fill="none" stroke="white" stroke-width="1.5" pointer-events="none"/>
                </g>
                <g id="dirArrow">
                        <path fill="none" stroke="white" stroke-width="1.5" d="M0,-3.0v7 M-2.5,-0.5L0,-3.0L2.5,-0.5"/>
                </g>
               <g id="resetDef">
                       <use xlink:href="#rim2" fill="#404040">
                               <set attributeName="fill" to="#808080" begin="reset.mouseover" end="reset.mouseout"/>
                       </use>
               </g>
        </defs>

<script type="text/javascript">
var viewWidth = 1263;
var viewHeight = 742;
var sectionId = 'dynsection-1';
</script>
<script xlink:href="svgpan.js"/>
<svg id="graph" class="graph">
<g id="viewport">
<title>sgns::storage::InMemoryStorage</title>
<!-- Node1 -->
<g id="node1" class="node">
<title>Node1</title>
<g id="a_node1"><a xlink:title=" ">
<polygon fill="#999999" stroke="#666666" points="689.5,-129 531.5,-129 531.5,0 689.5,0 689.5,-129"/>
<text text-anchor="middle" x="610.5" y="-117" font-family="Helvetica,sans-Serif" font-size="10.00">{sgns::storage::InMemoryStorage</text>
<text text-anchor="start" x="539.5" y="-106" font-family="Helvetica,sans-Serif" font-size="10.00">||+ ~InMemoryStorage()</text>
<text text-anchor="start" x="539.5" y="-95" font-family="Helvetica,sans-Serif" font-size="10.00">+ get()</text>
<text text-anchor="start" x="539.5" y="-84" font-family="Helvetica,sans-Serif" font-size="10.00">+ put()</text>
<text text-anchor="start" x="539.5" y="-73" font-family="Helvetica,sans-Serif" font-size="10.00">+ put()</text>
<text text-anchor="start" x="539.5" y="-62" font-family="Helvetica,sans-Serif" font-size="10.00">+ contains()</text>
<text text-anchor="start" x="539.5" y="-51" font-family="Helvetica,sans-Serif" font-size="10.00">+ empty()</text>
<text text-anchor="start" x="539.5" y="-40" font-family="Helvetica,sans-Serif" font-size="10.00">+ remove()</text>
<text text-anchor="start" x="539.5" y="-29" font-family="Helvetica,sans-Serif" font-size="10.00">+ batch()</text>
<text text-anchor="start" x="539.5" y="-18" font-family="Helvetica,sans-Serif" font-size="10.00">+ cursor()</text>
<text text-anchor="middle" x="610.5" y="-7" font-family="Helvetica,sans-Serif" font-size="10.00">}</text>
</a>
</g>
</g>
<!-- Node2 -->
<g id="node2" class="node">
<title>Node2</title>
<g id="a_node2"><a xlink:href="structsgns_1_1storage_1_1face_1_1_generic_storage.html" target="_top" xlink:title="An abstraction over readable, writeable, iterable key&#45;value storage that supports write batches.">
<polygon fill="white" stroke="#666666" points="415.5,-211.5 299.5,-211.5 299.5,-181.5 415.5,-181.5 415.5,-211.5"/>
<text text-anchor="middle" x="357.5" y="-199.5" font-family="Helvetica,sans-Serif" font-size="10.00">{storage::BufferStorage</text>
<text text-anchor="middle" x="357.5" y="-188.5" font-family="Helvetica,sans-Serif" font-size="10.00">||}</text>
</a>
</g>
</g>
<!-- Node2&#45;&gt;Node1 -->
<g id="edge1" class="edge">
<title>Node2&#45;&gt;Node1</title>
<path fill="none" stroke="#63b8ff" d="M395.54,-175.95C431.27,-157.59 485.85,-129.55 531.07,-106.31"/>
<polygon fill="none" stroke="#63b8ff" points="394.18,-172.72 386.89,-180.4 397.38,-178.94 394.18,-172.72"/>
</g>
<!-- Node3 -->
<g id="node3" class="node">
<title>Node3</title>
<g id="a_node3"><a xlink:href="structsgns_1_1storage_1_1face_1_1_read_only_map.html" target="_top" xlink:title="An abstraction over a readable and iterable key&#45;value map.">
<polygon fill="white" stroke="#666666" points="228,-371 111,-371 111,-330 228,-330 228,-371"/>
<text text-anchor="start" x="119" y="-359" font-family="Helvetica,sans-Serif" font-size="10.00">{sgns::storage::face</text>
<text text-anchor="middle" x="169.5" y="-348" font-family="Helvetica,sans-Serif" font-size="10.00">::ReadOnlyMap&lt; K, V &gt;</text>
<text text-anchor="middle" x="169.5" y="-337" font-family="Helvetica,sans-Serif" font-size="10.00">||}</text>
</a>
</g>
</g>
<!-- Node3&#45;&gt;Node2 -->
<g id="edge2" class="edge">
<title>Node3&#45;&gt;Node2</title>
<path fill="none" stroke="#63b8ff" d="M202.93,-322.47C242.89,-290.16 308.31,-237.27 339.66,-211.92"/>
<polygon fill="none" stroke="#63b8ff" points="200.83,-319.67 195.25,-328.68 205.23,-325.11 200.83,-319.67"/>
</g>
<!-- Node4 -->
<g id="node4" class="node">
<title>Node4</title>
<g id="a_node4"><a xlink:href="structsgns_1_1storage_1_1face_1_1_iterable.html" target="_top" xlink:title="A mixin for an iterable map.">
<polygon fill="white" stroke="#666666" points="101,-569 0,-569 0,-506 101,-506 101,-569"/>
<text text-anchor="start" x="8" y="-557" font-family="Helvetica,sans-Serif" font-size="10.00">{sgns::storage::face</text>
<text text-anchor="middle" x="50.5" y="-546" font-family="Helvetica,sans-Serif" font-size="10.00">::Iterable&lt; K, V &gt;</text>
<text text-anchor="start" x="8" y="-535" font-family="Helvetica,sans-Serif" font-size="10.00">||+ ~Iterable()</text>
<text text-anchor="start" x="8" y="-524" font-family="Helvetica,sans-Serif" font-size="10.00">+ cursor()</text>
<text text-anchor="middle" x="50.5" y="-513" font-family="Helvetica,sans-Serif" font-size="10.00">}</text>
</a>
</g>
</g>
<!-- Node4&#45;&gt;Node3 -->
<g id="edge3" class="edge">
<title>Node4&#45;&gt;Node3</title>
<path fill="none" stroke="#63b8ff" d="M76.45,-496.15C101.25,-457.61 137.58,-401.12 156.68,-371.43"/>
<polygon fill="none" stroke="#63b8ff" points="73.7,-493.96 71.24,-504.26 79.59,-497.75 73.7,-493.96"/>
</g>
<!-- Node5 -->
<g id="node5" class="node">
<title>Node5</title>
<g id="a_node5"><a xlink:href="structsgns_1_1storage_1_1face_1_1_readable.html" target="_top" xlink:title="A mixin for read&#45;only map.">
<polygon fill="white" stroke="#666666" points="220,-580 119,-580 119,-495 220,-495 220,-580"/>
<text text-anchor="start" x="127" y="-568" font-family="Helvetica,sans-Serif" font-size="10.00">{sgns::storage::face</text>
<text text-anchor="middle" x="169.5" y="-557" font-family="Helvetica,sans-Serif" font-size="10.00">::Readable&lt; K, V &gt;</text>
<text text-anchor="start" x="127" y="-546" font-family="Helvetica,sans-Serif" font-size="10.00">||+ ~Readable()</text>
<text text-anchor="start" x="127" y="-535" font-family="Helvetica,sans-Serif" font-size="10.00">+ get()</text>
<text text-anchor="start" x="127" y="-524" font-family="Helvetica,sans-Serif" font-size="10.00">+ contains()</text>
<text text-anchor="start" x="127" y="-513" font-family="Helvetica,sans-Serif" font-size="10.00">+ empty()</text>
<text text-anchor="middle" x="169.5" y="-502" font-family="Helvetica,sans-Serif" font-size="10.00">}</text>
</a>
</g>
</g>
<!-- Node5&#45;&gt;Node3 -->
<g id="edge4" class="edge">
<title>Node5&#45;&gt;Node3</title>
<path fill="none" stroke="#63b8ff" d="M169.5,-483.26C169.5,-445.75 169.5,-397.67 169.5,-371.2"/>
<polygon fill="none" stroke="#63b8ff" points="166,-483.01 169.5,-493.01 173,-483.01 166,-483.01"/>
</g>
<!-- Node6 -->
<g id="node6" class="node">
<title>Node6</title>
<g id="a_node6"><a xlink:href="structsgns_1_1storage_1_1face_1_1_batch_write_map.html" target="_top" xlink:title="An abstraction over a writeable key&#45;value map with batching support.">
<polygon fill="white" stroke="#666666" points="419,-371 296,-371 296,-330 419,-330 419,-371"/>
<text text-anchor="start" x="304" y="-359" font-family="Helvetica,sans-Serif" font-size="10.00">{sgns::storage::face</text>
<text text-anchor="middle" x="357.5" y="-348" font-family="Helvetica,sans-Serif" font-size="10.00">::BatchWriteMap&lt; K, V &gt;</text>
<text text-anchor="middle" x="357.5" y="-337" font-family="Helvetica,sans-Serif" font-size="10.00">||}</text>
</a>
</g>
</g>
<!-- Node6&#45;&gt;Node2 -->
<g id="edge5" class="edge">
<title>Node6&#45;&gt;Node2</title>
<path fill="none" stroke="#63b8ff" d="M357.5,-318.5C357.5,-285.97 357.5,-236.25 357.5,-211.92"/>
<polygon fill="none" stroke="#63b8ff" points="354,-318.12 357.5,-328.12 361,-318.12 354,-318.12"/>
</g>
<!-- Node7 -->
<g id="node7" class="node">
<title>Node7</title>
<g id="a_node7"><a xlink:href="structsgns_1_1storage_1_1face_1_1_writeable.html" target="_top" xlink:title="An mixin for modifiable map.">
<polygon fill="white" stroke="#666666" points="339,-580 238,-580 238,-495 339,-495 339,-580"/>
<text text-anchor="start" x="246" y="-568" font-family="Helvetica,sans-Serif" font-size="10.00">{sgns::storage::face</text>
<text text-anchor="middle" x="288.5" y="-557" font-family="Helvetica,sans-Serif" font-size="10.00">::Writeable&lt; K, V &gt;</text>
<text text-anchor="start" x="246" y="-546" font-family="Helvetica,sans-Serif" font-size="10.00">||+ ~Writeable()</text>
<text text-anchor="start" x="246" y="-535" font-family="Helvetica,sans-Serif" font-size="10.00">+ put()</text>
<text text-anchor="start" x="246" y="-524" font-family="Helvetica,sans-Serif" font-size="10.00">+ put()</text>
<text text-anchor="start" x="246" y="-513" font-family="Helvetica,sans-Serif" font-size="10.00">+ remove()</text>
<text text-anchor="middle" x="288.5" y="-502" font-family="Helvetica,sans-Serif" font-size="10.00">}</text>
</a>
</g>
</g>
<!-- Node7&#45;&gt;Node6 -->
<g id="edge6" class="edge">
<title>Node7&#45;&gt;Node6</title>
<path fill="none" stroke="#63b8ff" d="M308.18,-483.74C322.19,-446.17 340.24,-397.79 350.15,-371.2"/>
<polygon fill="none" stroke="#63b8ff" points="304.9,-482.51 304.69,-493.1 311.46,-484.96 304.9,-482.51"/>
</g>
<!-- Node8 -->
<g id="node8" class="node">
<title>Node8</title>
<g id="a_node8"><a xlink:href="structsgns_1_1storage_1_1face_1_1_batchable.html" target="_top" xlink:title="A mixin for a map that supports batching for efficiency of modifications.">
<polygon fill="white" stroke="#666666" points="458,-569 357,-569 357,-506 458,-506 458,-569"/>
<text text-anchor="start" x="365" y="-557" font-family="Helvetica,sans-Serif" font-size="10.00">{sgns::storage::face</text>
<text text-anchor="middle" x="407.5" y="-546" font-family="Helvetica,sans-Serif" font-size="10.00">::Batchable&lt; K, V &gt;</text>
<text text-anchor="start" x="365" y="-535" font-family="Helvetica,sans-Serif" font-size="10.00">||+ ~Batchable()</text>
<text text-anchor="start" x="365" y="-524" font-family="Helvetica,sans-Serif" font-size="10.00">+ batch()</text>
<text text-anchor="middle" x="407.5" y="-513" font-family="Helvetica,sans-Serif" font-size="10.00">}</text>
</a>
</g>
</g>
<!-- Node8&#45;&gt;Node6 -->
<g id="edge7" class="edge">
<title>Node8&#45;&gt;Node6</title>
<path fill="none" stroke="#63b8ff" d="M396.2,-494.67C385.79,-456.18 370.81,-400.75 362.89,-371.43"/>
<polygon fill="none" stroke="#63b8ff" points="392.75,-495.33 398.74,-504.07 399.51,-493.51 392.75,-495.33"/>
</g>
<!-- Node9 -->
<g id="node9" class="node">
<title>Node9</title>
<g id="a_node9"><a xlink:title=" ">
<polygon fill="white" stroke="#666666" points="753.5,-217 643.5,-217 643.5,-176 753.5,-176 753.5,-217"/>
<text text-anchor="start" x="651.5" y="-205" font-family="Helvetica,sans-Serif" font-size="10.00">{std::map&lt; std::string,</text>
<text text-anchor="middle" x="698.5" y="-194" font-family="Helvetica,sans-Serif" font-size="10.00"> sgns::base::Buffer &gt;</text>
<text text-anchor="middle" x="698.5" y="-183" font-family="Helvetica,sans-Serif" font-size="10.00">||}</text>
</a>
</g>
</g>
<!-- Node9&#45;&gt;Node1 -->
<g id="edge8" class="edge">
<title>Node9&#45;&gt;Node1</title>
<path fill="none" stroke="#404040" d="M685.13,-175.76C678.46,-165.89 669.91,-153.27 661,-140.1"/>
<polygon fill="none" stroke="#404040" points="661.04,-140.16 654.36,-137.43 654.31,-130.22 660.99,-132.95 661.04,-140.16"/>
<text text-anchor="middle" x="691.5" y="-150" font-family="Helvetica,sans-Serif" font-size="10.00"> &#45;storage</text>
</g>
<!-- Node10 -->
<g id="node10" class="node">
<title>Node10</title>
<g id="a_node10"><a xlink:title=" ">
<polygon fill="white" stroke="#666666" points="591.5,-365.5 529.5,-365.5 529.5,-335.5 591.5,-335.5 591.5,-365.5"/>
<text text-anchor="middle" x="560.5" y="-353.5" font-family="Helvetica,sans-Serif" font-size="10.00">{std::string</text>
<text text-anchor="middle" x="560.5" y="-342.5" font-family="Helvetica,sans-Serif" font-size="10.00">||}</text>
</a>
</g>
</g>
<!-- Node10&#45;&gt;Node9 -->
<g id="edge9" class="edge">
<title>Node10&#45;&gt;Node9</title>
<path fill="none" stroke="#404040" d="M573.48,-335.2C595.92,-310.49 642.38,-259.31 671.91,-226.79"/>
<polygon fill="none" stroke="#404040" points="671.81,-226.89 672.88,-219.76 679.88,-218.01 678.81,-225.14 671.81,-226.89"/>
<text text-anchor="middle" x="676" y="-238" font-family="Helvetica,sans-Serif" font-size="10.00"> +keys</text>
</g>
<!-- Node11 -->
<g id="node11" class="node">
<title>Node11</title>
<g id="a_node11"><a xlink:title=" ">
<polygon fill="white" stroke="#666666" points="572.5,-558 476.5,-558 476.5,-517 572.5,-517 572.5,-558"/>
<text text-anchor="start" x="484.5" y="-546" font-family="Helvetica,sans-Serif" font-size="10.00">{std::basic_string&lt;</text>
<text text-anchor="middle" x="524.5" y="-535" font-family="Helvetica,sans-Serif" font-size="10.00"> Char &gt;</text>
<text text-anchor="middle" x="524.5" y="-524" font-family="Helvetica,sans-Serif" font-size="10.00">||}</text>
</a>
</g>
</g>
<!-- Node11&#45;&gt;Node10 -->
<g id="edge10" class="edge">
<title>Node11&#45;&gt;Node10</title>
<path fill="none" stroke="#63b8ff" d="M530.51,-505.63C538.38,-465.15 551.88,-395.81 557.7,-365.91"/>
<polygon fill="none" stroke="#63b8ff" points="527.12,-504.73 528.64,-515.22 533.99,-506.07 527.12,-504.73"/>
</g>
<!-- Node12 -->
<g id="node12" class="node">
<title>Node12</title>
<g id="a_node12"><a xlink:href="classsgns_1_1base_1_1_buffer.html" target="_top" xlink:title="Class represents arbitrary (including empty) byte buffer.">
<polygon fill="white" stroke="#666666" points="862.5,-437 766.5,-437 766.5,-264 862.5,-264 862.5,-437"/>
<text text-anchor="middle" x="814.5" y="-425" font-family="Helvetica,sans-Serif" font-size="10.00">{sgns::base::Buffer</text>
<text text-anchor="start" x="774.5" y="-414" font-family="Helvetica,sans-Serif" font-size="10.00">||+ Buffer()</text>
<text text-anchor="start" x="774.5" y="-403" font-family="Helvetica,sans-Serif" font-size="10.00">+ ~Buffer()</text>
<text text-anchor="start" x="774.5" y="-392" font-family="Helvetica,sans-Serif" font-size="10.00">+ Buffer()</text>
<text text-anchor="start" x="774.5" y="-381" font-family="Helvetica,sans-Serif" font-size="10.00">+ Buffer()</text>
<text text-anchor="start" x="774.5" y="-370" font-family="Helvetica,sans-Serif" font-size="10.00">+ Buffer()</text>
<text text-anchor="start" x="774.5" y="-359" font-family="Helvetica,sans-Serif" font-size="10.00">+ Buffer()</text>
<text text-anchor="start" x="774.5" y="-348" font-family="Helvetica,sans-Serif" font-size="10.00">+ Buffer()</text>
<text text-anchor="start" x="774.5" y="-337" font-family="Helvetica,sans-Serif" font-size="10.00">+ Buffer()</text>
<text text-anchor="start" x="774.5" y="-326" font-family="Helvetica,sans-Serif" font-size="10.00">+ Buffer()</text>
<text text-anchor="start" x="774.5" y="-315" font-family="Helvetica,sans-Serif" font-size="10.00">+ reserve()</text>
<text text-anchor="start" x="774.5" y="-304" font-family="Helvetica,sans-Serif" font-size="10.00">and 32 more...</text>
<text text-anchor="start" x="774.5" y="-293" font-family="Helvetica,sans-Serif" font-size="10.00">+ fromHex()</text>
<text text-anchor="start" x="774.5" y="-282" font-family="Helvetica,sans-Serif" font-size="10.00">&#45; putRange()</text>
<text text-anchor="middle" x="814.5" y="-271" font-family="Helvetica,sans-Serif" font-size="10.00">}</text>
</a>
</g>
</g>
<!-- Node12&#45;&gt;Node9 -->
<g id="edge11" class="edge">
<title>Node12&#45;&gt;Node9</title>
<path fill="none" stroke="#404040" d="M766.31,-286.36C750.79,-266.02 734.3,-244.41 721.47,-227.6"/>
<polygon fill="none" stroke="#404040" points="721.44,-227.56 714.62,-225.22 714.16,-218.02 720.98,-220.36 721.44,-227.56"/>
<text text-anchor="middle" x="758" y="-238" font-family="Helvetica,sans-Serif" font-size="10.00"> +elements</text>
</g>
<!-- Node13 -->
<g id="node13" class="node">
<title>Node13</title>
<g id="a_node13"><a xlink:title=" ">
<polygon fill="white" stroke="#666666" points="728,-558 591,-558 591,-517 728,-517 728,-558"/>
<text text-anchor="start" x="599" y="-546" font-family="Helvetica,sans-Serif" font-size="10.00">{boost::equality_comparable</text>
<text text-anchor="middle" x="659.5" y="-535" font-family="Helvetica,sans-Serif" font-size="10.00">&lt; Buffer &gt;</text>
<text text-anchor="middle" x="659.5" y="-524" font-family="Helvetica,sans-Serif" font-size="10.00">||}</text>
</a>
</g>
</g>
<!-- Node13&#45;&gt;Node12 -->
<g id="edge12" class="edge">
<title>Node13&#45;&gt;Node12</title>
<path fill="none" stroke="#63b8ff" d="M683.36,-508.02C705.33,-481.8 738.59,-442.1 766.11,-409.25"/>
<polygon fill="none" stroke="#63b8ff" points="680.8,-505.63 677.06,-515.54 686.16,-510.12 680.8,-505.63"/>
</g>
<!-- Node14 -->
<g id="node14" class="node">
<title>Node14</title>
<g id="a_node14"><a xlink:title=" ">
<polygon fill="white" stroke="#666666" points="883,-558 746,-558 746,-517 883,-517 883,-558"/>
<text text-anchor="start" x="754" y="-546" font-family="Helvetica,sans-Serif" font-size="10.00">{boost::equality_comparable</text>
<text text-anchor="middle" x="814.5" y="-535" font-family="Helvetica,sans-Serif" font-size="10.00">&lt; gsl::span&lt; uint8_t &gt; &gt;</text>
<text text-anchor="middle" x="814.5" y="-524" font-family="Helvetica,sans-Serif" font-size="10.00">||}</text>
</a>
</g>
</g>
<!-- Node14&#45;&gt;Node12 -->
<g id="edge13" class="edge">
<title>Node14&#45;&gt;Node12</title>
<path fill="none" stroke="#63b8ff" d="M814.5,-505.33C814.5,-486.57 814.5,-461.69 814.5,-437.42"/>
<polygon fill="none" stroke="#63b8ff" points="811,-505.19 814.5,-515.19 818,-505.19 811,-505.19"/>
</g>
<!-- Node15 -->
<g id="node15" class="node">
<title>Node15</title>
<g id="a_node15"><a xlink:title=" ">
<polygon fill="white" stroke="#666666" points="1038,-558 901,-558 901,-517 1038,-517 1038,-558"/>
<text text-anchor="start" x="909" y="-546" font-family="Helvetica,sans-Serif" font-size="10.00">{boost::equality_comparable</text>
<text text-anchor="middle" x="969.5" y="-535" font-family="Helvetica,sans-Serif" font-size="10.00">&lt; std::vector&lt; uint8_t &gt; &gt;</text>
<text text-anchor="middle" x="969.5" y="-524" font-family="Helvetica,sans-Serif" font-size="10.00">||}</text>
</a>
</g>
</g>
<!-- Node15&#45;&gt;Node12 -->
<g id="edge14" class="edge">
<title>Node15&#45;&gt;Node12</title>
<path fill="none" stroke="#63b8ff" d="M945.64,-508.02C923.67,-481.8 890.41,-442.1 862.89,-409.25"/>
<polygon fill="none" stroke="#63b8ff" points="942.84,-510.12 951.94,-515.54 948.2,-505.63 942.84,-510.12"/>
</g>
<!-- Node16 -->
<g id="node16" class="node">
<title>Node16</title>
<g id="a_node16"><a xlink:title=" ">
<polygon fill="white" stroke="#666666" points="1166.5,-558 1056.5,-558 1056.5,-517 1166.5,-517 1166.5,-558"/>
<text text-anchor="middle" x="1111.5" y="-546" font-family="Helvetica,sans-Serif" font-size="10.00">{std::vector&lt; uint8_t &gt;</text>
<text text-anchor="start" x="1064.5" y="-535" font-family="Helvetica,sans-Serif" font-size="10.00">|+ elements</text>
<text text-anchor="middle" x="1111.5" y="-524" font-family="Helvetica,sans-Serif" font-size="10.00">|}</text>
</a>
</g>
</g>
<!-- Node16&#45;&gt;Node12 -->
<g id="edge15" class="edge">
<title>Node16&#45;&gt;Node12</title>
<path fill="none" stroke="#404040" d="M1080.48,-516.57C1069.74,-509.7 1057.61,-501.98 1046.5,-495 987.85,-458.14 920.48,-416.55 873.5,-387.67"/>
<polygon fill="none" stroke="#404040" points="873.6,-387.74 866.4,-388 863.38,-381.45 870.59,-381.19 873.6,-387.74"/>
<text text-anchor="middle" x="1030.5" y="-463.5" font-family="Helvetica,sans-Serif" font-size="10.00"> &#45;data_</text>
</g>
<!-- Node17 -->
<g id="node17" class="node">
<title>Node17</title>
<g id="a_node17"><a xlink:title=" ">
<polygon fill="white" stroke="#666666" points="1140,-657 1053,-657 1053,-627 1140,-627 1140,-657"/>
<text text-anchor="middle" x="1096.5" y="-645" font-family="Helvetica,sans-Serif" font-size="10.00">{std::vector&lt; T &gt;</text>
<text text-anchor="middle" x="1096.5" y="-634" font-family="Helvetica,sans-Serif" font-size="10.00">||}</text>
</a>
</g>
</g>
<!-- Node17&#45;&gt;Node16 -->
<g id="edge16" class="edge">
<title>Node17&#45;&gt;Node16</title>
<path fill="none" stroke="orange" d="M1100.23,-615.53C1102.82,-597.82 1106.22,-574.56 1108.61,-558.25"/>
<polygon fill="orange" stroke="orange" points="1096.79,-614.85 1098.8,-625.25 1103.72,-615.86 1096.79,-614.85"/>
<text text-anchor="middle" x="1128" y="-601" font-family="Helvetica,sans-Serif" font-size="10.00"> &lt; uint8_t &gt;</text>
</g>
<!-- Node18 -->
<g id="node18" class="node">
<title>Node18</title>
<g id="a_node18"><a xlink:title=" ">
<polygon fill="white" stroke="#666666" points="1147,-734 1118,-734 1118,-704 1147,-704 1147,-734"/>
<text text-anchor="middle" x="1132.5" y="-722" font-family="Helvetica,sans-Serif" font-size="10.00">{T</text>
<text text-anchor="middle" x="1132.5" y="-711" font-family="Helvetica,sans-Serif" font-size="10.00">||}</text>
</a>
</g>
</g>
<!-- Node18&#45;&gt;Node17 -->
<g id="edge17" class="edge">
<title>Node18&#45;&gt;Node17</title>
<path fill="none" stroke="#404040" d="M1117.55,-708.66C1110.07,-703.09 1101.73,-695.29 1097.5,-686 1095.27,-681.09 1094.22,-675.53 1093.86,-670.08"/>
<polygon fill="none" stroke="#404040" points="1093.86,-670.08 1089.97,-664 1094.09,-658.08 1097.97,-664.15 1093.86,-670.08"/>
<text text-anchor="middle" x="1122" y="-678" font-family="Helvetica,sans-Serif" font-size="10.00"> +elements</text>
</g>
<!-- Node19 -->
<g id="node19" class="node">
<title>Node19</title>
<g id="a_node19"><a xlink:title=" ">
<polygon fill="white" stroke="#666666" points="1249,-657 1158,-657 1158,-627 1249,-627 1249,-657"/>
<text text-anchor="middle" x="1203.5" y="-645" font-family="Helvetica,sans-Serif" font-size="10.00">{std::map&lt; K, T &gt;</text>
<text text-anchor="middle" x="1203.5" y="-634" font-family="Helvetica,sans-Serif" font-size="10.00">||}</text>
</a>
</g>
</g>
<!-- Node18&#45;&gt;Node19 -->
<g id="edge20" class="edge">
<title>Node18&#45;&gt;Node19</title>
<path fill="none" stroke="#404040" d="M1143.3,-703.57C1149.96,-694.99 1158.85,-684.04 1167.5,-675 1170.39,-671.98 1173.53,-668.92 1176.7,-665.95"/>
<polygon fill="none" stroke="#404040" points="1176.55,-666.08 1178.33,-659.09 1185.46,-658.04 1183.69,-665.03 1176.55,-666.08"/>
<text text-anchor="middle" x="1192" y="-678" font-family="Helvetica,sans-Serif" font-size="10.00"> +elements</text>
</g>
<!-- Node19&#45;&gt;Node9 -->
<g id="edge18" class="edge">
<title>Node19&#45;&gt;Node9</title>
<path fill="none" stroke="orange" d="M1203.97,-615.06C1203.37,-584.21 1198.58,-532.2 1175.5,-495 1076.46,-335.35 856.66,-247.58 753.7,-213.86"/>
<polygon fill="orange" stroke="orange" points="1200.47,-615.02 1204.01,-625 1207.47,-614.99 1200.47,-615.02"/>
<text text-anchor="start" x="1163.5" y="-469" font-family="Helvetica,sans-Serif" font-size="10.00"> &lt; std::string, sgns</text>
<text text-anchor="middle" x="1203" y="-458" font-family="Helvetica,sans-Serif" font-size="10.00">::base::Buffer &gt;</text>
</g>
<!-- Node20 -->
<g id="node20" class="node">
<title>Node20</title>
<g id="a_node20"><a xlink:title=" ">
<polygon fill="white" stroke="#666666" points="1255,-734 1226,-734 1226,-704 1255,-704 1255,-734"/>
<text text-anchor="middle" x="1240.5" y="-722" font-family="Helvetica,sans-Serif" font-size="10.00">{K</text>
<text text-anchor="middle" x="1240.5" y="-711" font-family="Helvetica,sans-Serif" font-size="10.00">||}</text>
</a>
</g>
</g>
<!-- Node20&#45;&gt;Node19 -->
<g id="edge19" class="edge">
<title>Node20&#45;&gt;Node19</title>
<path fill="none" stroke="#404040" d="M1233.37,-703.54C1228.55,-693.79 1222.07,-680.64 1216.37,-669.09"/>
<polygon fill="none" stroke="#404040" points="1216.32,-668.99 1210.08,-665.38 1211.01,-658.22 1217.25,-661.84 1216.32,-668.99"/>
<text text-anchor="middle" x="1239" y="-678" font-family="Helvetica,sans-Serif" font-size="10.00"> +keys</text>
</g>
</g>
</svg>
        <g id="navigator" transform="translate(0 0)" fill="#404254">
                <rect fill="#f2f5e9" fill-opacity="0.5" stroke="#606060" stroke-width=".5" x="0" y="0" width="60" height="60"/>
                <use id="zoomplus" xlink:href="#zoomPlus" x="17" y="9" onmousedown="handleZoom(evt,'in')"/>
                <use id="zoomminus" xlink:href="#zoomMin" x="42" y="9" onmousedown="handleZoom(evt,'out')"/>
                <use id="reset" xlink:href="#resetDef" x="30" y="36" onmousedown="handleReset()"/>
                <g id="arrowUp" xlink:href="#dirArrow" transform="translate(30 24)" onmousedown="handlePan(0,-1)">
                  <use xlink:href="#rim" fill="#404040">
                        <set attributeName="fill" to="#808080" begin="arrowUp.mouseover" end="arrowUp.mouseout"/>
                  </use>
                  <path fill="none" stroke="white" stroke-width="1.5" d="M0,-3.0v7 M-2.5,-0.5L0,-3.0L2.5,-0.5"/>
                </g>
                <g id="arrowRight" xlink:href="#dirArrow" transform="rotate(90) translate(36 -43)" onmousedown="handlePan(1,0)">
                  <use xlink:href="#rim" fill="#404040">
                        <set attributeName="fill" to="#808080" begin="arrowRight.mouseover" end="arrowRight.mouseout"/>
                  </use>
                  <path fill="none" stroke="white" stroke-width="1.5" d="M0,-3.0v7 M-2.5,-0.5L0,-3.0L2.5,-0.5"/>
                </g>
                <g id="arrowDown" xlink:href="#dirArrow" transform="rotate(180) translate(-30 -48)" onmousedown="handlePan(0,1)">
                  <use xlink:href="#rim" fill="#404040">
                        <set attributeName="fill" to="#808080" begin="arrowDown.mouseover" end="arrowDown.mouseout"/>
                  </use>
                  <path fill="none" stroke="white" stroke-width="1.5" d="M0,-3.0v7 M-2.5,-0.5L0,-3.0L2.5,-0.5"/>
                </g>
                <g id="arrowLeft" xlink:href="#dirArrow" transform="rotate(270) translate(-36 17)" onmousedown="handlePan(-1,0)">
                  <use xlink:href="#rim" fill="#404040">
                        <set attributeName="fill" to="#808080" begin="arrowLeft.mouseover" end="arrowLeft.mouseout"/>
                  </use>
                  <path fill="none" stroke="white" stroke-width="1.5" d="M0,-3.0v7 M-2.5,-0.5L0,-3.0L2.5,-0.5"/>
                </g>
        </g>
        <svg viewBox="0 0 15 15" width="100%" height="30px" preserveAspectRatio="xMaxYMin meet">
         <g id="arrow_out" transform="scale(0.3 0.3)">
          <a xlink:href="classsgns_1_1storage_1_1_in_memory_storage__coll__graph_org.svg" target="_base">
           <rect id="button" ry="5" rx="5" y="6" x="6" height="38" width="38"
                fill="#f2f5e9" fill-opacity="0.5" stroke="#606060" stroke-width="1.0"/>
           <path id="arrow"
             d="M 11.500037,31.436501 C 11.940474,20.09759 22.043105,11.32322 32.158766,21.979434 L 37.068811,17.246167 C 37.068811,17.246167 37.088388,32 37.088388,32 L 22.160133,31.978069 C 22.160133,31.978069 26.997745,27.140456 26.997745,27.140456 C 18.528582,18.264221 13.291696,25.230495 11.500037,31.436501 z"
             style="fill:#404040;"/>
          </a>
         </g>
        </svg>
</svg>
