<?xml version="1.0" encoding="UTF-8" standalone="no"?>
<!DOCTYPE svg PUBLIC "-//W3C//DTD SVG 1.1//EN"
 "http://www.w3.org/Graphics/SVG/1.1/DTD/svg11.dtd">
<!-- Generated by graphviz version 7.0.5 (20221223.1930)
 -->
<!-- Title: sgns::network::DummySyncProtocolClient Pages: 1 -->
<svg width="330pt" height="181pt"
 viewBox="0.00 0.00 329.50 181.00" xmlns="http://www.w3.org/2000/svg" xmlns:xlink="http://www.w3.org/1999/xlink">
<g id="graph0" class="graph" transform="scale(1 1) rotate(0) translate(4 177)">
<title>sgns::network::DummySyncProtocolClient</title>
<!-- Node1 -->
<g id="node1" class="node">
<title>Node1</title>
<g id="a_node1"><a xlink:title=" ">
<polygon fill="#999999" stroke="#666666" points="230.5,-74 81.5,-74 81.5,0 230.5,0 230.5,-74"/>
<text text-anchor="start" x="89.5" y="-62" font-family="Helvetica,sans-Serif" font-size="10.00">{sgns::network::DummySync</text>
<text text-anchor="middle" x="156" y="-51" font-family="Helvetica,sans-Serif" font-size="10.00">ProtocolClient</text>
<text text-anchor="start" x="89.5" y="-40" font-family="Helvetica,sans-Serif" font-size="10.00">|&#45; log_</text>
<text text-anchor="start" x="89.5" y="-29" font-family="Helvetica,sans-Serif" font-size="10.00">|+ DummySyncProtocolClient()</text>
<text text-anchor="start" x="89.5" y="-18" font-family="Helvetica,sans-Serif" font-size="10.00">+ requestBlocks()</text>
<text text-anchor="middle" x="156" y="-7" font-family="Helvetica,sans-Serif" font-size="10.00">}</text>
</a>
</g>
</g>
<!-- Node2 -->
<g id="node2" class="node">
<title>Node2</title>
<g id="a_node2"><a xlink:href="structsgns_1_1network_1_1_sync_protocol_client.html" target="_top" xlink:title=" ">
<polygon fill="white" stroke="#666666" points="142,-173 0,-173 0,-110 142,-110 142,-173"/>
<text text-anchor="start" x="8" y="-161" font-family="Helvetica,sans-Serif" font-size="10.00">{sgns::network::SyncProtocol</text>
<text text-anchor="middle" x="71" y="-150" font-family="Helvetica,sans-Serif" font-size="10.00">Client</text>
<text text-anchor="start" x="8" y="-139" font-family="Helvetica,sans-Serif" font-size="10.00">||+ ~SyncProtocolClient()</text>
<text text-anchor="start" x="8" y="-128" font-family="Helvetica,sans-Serif" font-size="10.00">+ requestBlocks()</text>
<text text-anchor="middle" x="71" y="-117" font-family="Helvetica,sans-Serif" font-size="10.00">}</text>
</a>
</g>
</g>
<!-- Node2&#45;&gt;Node1 -->
<g id="edge1" class="edge">
<title>Node2&#45;&gt;Node1</title>
<path fill="none" stroke="#63b8ff" d="M103.68,-101.09C111.03,-92.23 118.79,-82.87 126.03,-74.14"/>
<polygon fill="none" stroke="#63b8ff" points="101.16,-98.65 97.47,-108.58 106.55,-103.12 101.16,-98.65"/>
</g>
<!-- Node3 -->
<g id="node3" class="node">
<title>Node3</title>
<g id="a_node3"><a xlink:title=" ">
<polygon fill="white" stroke="#666666" points="321.5,-167.5 160.5,-167.5 160.5,-115.5 321.5,-115.5 321.5,-167.5"/>
<text text-anchor="start" x="168.5" y="-155.5" font-family="Helvetica,sans-Serif" font-size="10.00">{std::enable_shared</text>
<text text-anchor="start" x="168.5" y="-144.5" font-family="Helvetica,sans-Serif" font-size="10.00">_from_this&lt; DummySyncProtocol</text>
<text text-anchor="middle" x="241" y="-133.5" font-family="Helvetica,sans-Serif" font-size="10.00">Client &gt;</text>
<text text-anchor="middle" x="241" y="-122.5" font-family="Helvetica,sans-Serif" font-size="10.00">||}</text>
</a>
</g>
</g>
<!-- Node3&#45;&gt;Node1 -->
<g id="edge2" class="edge">
<title>Node3&#45;&gt;Node1</title>
<path fill="none" stroke="#63b8ff" d="M212.73,-106.41C204.17,-96.09 194.74,-84.72 186.07,-74.26"/>
<polygon fill="none" stroke="#63b8ff" points="209.95,-108.53 219.02,-114 215.33,-104.07 209.95,-108.53"/>
</g>
</g>
</svg>
