<?xml version="1.0" encoding="UTF-8" standalone="no"?>
<!DOCTYPE svg PUBLIC "-//W3C//DTD SVG 1.1//EN"
 "http://www.w3.org/Graphics/SVG/1.1/DTD/svg11.dtd">
<!-- Generated by graphviz version 7.0.5 (20221223.1930)
 -->
<!-- Title: sgns::extensions::IOExtension Pages: 1 -->
<svg width="349pt" height="500pt"
 viewBox="0.00 0.00 349.00 500.00" xmlns="http://www.w3.org/2000/svg" xmlns:xlink="http://www.w3.org/1999/xlink">
<g id="graph0" class="graph" transform="scale(1 1) rotate(0) translate(4 496)">
<title>sgns::extensions::IOExtension</title>
<!-- Node1 -->
<g id="node1" class="node">
<title>Node1</title>
<g id="a_node1"><a xlink:title=" ">
<polygon fill="#999999" stroke="#666666" points="259.5,-96 110.5,-96 110.5,0 259.5,0 259.5,-96"/>
<text text-anchor="middle" x="185" y="-84" font-family="Helvetica,sans-Serif" font-size="10.00">{sgns::extensions::IOExtension</text>
<text text-anchor="start" x="118.5" y="-73" font-family="Helvetica,sans-Serif" font-size="10.00">|&#45; kDefaultLoggerTag</text>
<text text-anchor="start" x="118.5" y="-62" font-family="Helvetica,sans-Serif" font-size="10.00">|+ IOExtension()</text>
<text text-anchor="start" x="118.5" y="-51" font-family="Helvetica,sans-Serif" font-size="10.00">+ ext_print_hex()</text>
<text text-anchor="start" x="118.5" y="-40" font-family="Helvetica,sans-Serif" font-size="10.00">+ ext_logging_log_version_1()</text>
<text text-anchor="start" x="118.5" y="-29" font-family="Helvetica,sans-Serif" font-size="10.00">+ ext_print_num()</text>
<text text-anchor="start" x="118.5" y="-18" font-family="Helvetica,sans-Serif" font-size="10.00">+ ext_print_utf8()</text>
<text text-anchor="middle" x="185" y="-7" font-family="Helvetica,sans-Serif" font-size="10.00">}</text>
</a>
</g>
</g>
<!-- Node2 -->
<g id="node2" class="node">
<title>Node2</title>
<g id="a_node2"><a xlink:title=" ">
<polygon fill="white" stroke="#666666" points="179,-200.5 51,-200.5 51,-148.5 179,-148.5 179,-200.5"/>
<text text-anchor="start" x="59" y="-188.5" font-family="Helvetica,sans-Serif" font-size="10.00">{std::shared_ptr&lt; sgns</text>
<text text-anchor="middle" x="115" y="-177.5" font-family="Helvetica,sans-Serif" font-size="10.00">::runtime::WasmMemory &gt;</text>
<text text-anchor="start" x="59" y="-166.5" font-family="Helvetica,sans-Serif" font-size="10.00">||+ operator&#45;&gt;()</text>
<text text-anchor="middle" x="115" y="-155.5" font-family="Helvetica,sans-Serif" font-size="10.00">}</text>
</a>
</g>
</g>
<!-- Node2&#45;&gt;Node1 -->
<g id="edge1" class="edge">
<title>Node2&#45;&gt;Node1</title>
<path fill="none" stroke="#404040" d="M129.33,-148.01C135.93,-136.27 144.05,-121.83 152.03,-107.63"/>
<polygon fill="none" stroke="#404040" points="152.05,-107.61 151.5,-100.42 157.93,-97.15 158.48,-104.34 152.05,-107.61"/>
<text text-anchor="middle" x="170" y="-117" font-family="Helvetica,sans-Serif" font-size="10.00"> &#45;memory_</text>
</g>
<!-- Node3 -->
<g id="node3" class="node">
<title>Node3</title>
<g id="a_node3"><a xlink:href="classsgns_1_1runtime_1_1_wasm_memory.html" target="_top" xlink:title=" ">
<polygon fill="white" stroke="#666666" points="144,-415 0,-415 0,-253 144,-253 144,-415"/>
<text text-anchor="middle" x="72" y="-403" font-family="Helvetica,sans-Serif" font-size="10.00">{sgns::runtime::WasmMemory</text>
<text text-anchor="start" x="8" y="-392" font-family="Helvetica,sans-Serif" font-size="10.00">|+ kMaxMemorySize</text>
<text text-anchor="start" x="8" y="-381" font-family="Helvetica,sans-Serif" font-size="10.00">|+ ~WasmMemory()</text>
<text text-anchor="start" x="8" y="-370" font-family="Helvetica,sans-Serif" font-size="10.00">+ reset()</text>
<text text-anchor="start" x="8" y="-359" font-family="Helvetica,sans-Serif" font-size="10.00">+ size()</text>
<text text-anchor="start" x="8" y="-348" font-family="Helvetica,sans-Serif" font-size="10.00">+ resize()</text>
<text text-anchor="start" x="8" y="-337" font-family="Helvetica,sans-Serif" font-size="10.00">+ allocate()</text>
<text text-anchor="start" x="8" y="-326" font-family="Helvetica,sans-Serif" font-size="10.00">+ deallocate()</text>
<text text-anchor="start" x="8" y="-315" font-family="Helvetica,sans-Serif" font-size="10.00">+ load8s()</text>
<text text-anchor="start" x="8" y="-304" font-family="Helvetica,sans-Serif" font-size="10.00">+ load8u()</text>
<text text-anchor="start" x="8" y="-293" font-family="Helvetica,sans-Serif" font-size="10.00">+ load16s()</text>
<text text-anchor="start" x="8" y="-282" font-family="Helvetica,sans-Serif" font-size="10.00">+ load16u()</text>
<text text-anchor="start" x="8" y="-271" font-family="Helvetica,sans-Serif" font-size="10.00">and 14 more...</text>
<text text-anchor="middle" x="72" y="-260" font-family="Helvetica,sans-Serif" font-size="10.00">}</text>
</a>
</g>
</g>
<!-- Node3&#45;&gt;Node2 -->
<g id="edge2" class="edge">
<title>Node3&#45;&gt;Node2</title>
<path fill="none" stroke="#404040" d="M66.33,-252.62C67.49,-242.78 69.59,-233.03 73,-224 74.67,-219.57 76.95,-215.28 79.58,-211.19"/>
<polygon fill="none" stroke="#404040" points="79.51,-211.29 79.88,-204.08 86.67,-201.66 86.3,-208.86 79.51,-211.29"/>
<text text-anchor="middle" x="83" y="-227" font-family="Helvetica,sans-Serif" font-size="10.00"> +ptr</text>
</g>
<!-- Node4 -->
<g id="node4" class="node">
<title>Node4</title>
<g id="a_node4"><a xlink:title=" ">
<polygon fill="white" stroke="#666666" points="301,-354.5 195,-354.5 195,-313.5 301,-313.5 301,-354.5"/>
<text text-anchor="middle" x="248" y="-342.5" font-family="Helvetica,sans-Serif" font-size="10.00">{std::shared_ptr&lt; T &gt;</text>
<text text-anchor="start" x="203" y="-331.5" font-family="Helvetica,sans-Serif" font-size="10.00">||+ operator&#45;&gt;()</text>
<text text-anchor="middle" x="248" y="-320.5" font-family="Helvetica,sans-Serif" font-size="10.00">}</text>
</a>
</g>
</g>
<!-- Node4&#45;&gt;Node2 -->
<g id="edge3" class="edge">
<title>Node4&#45;&gt;Node2</title>
<path fill="none" stroke="orange" d="M219.47,-305.34C201.41,-288.79 177,-268.09 153,-253 136.5,-242.62 123.59,-251.37 113,-235 106.6,-225.11 106.3,-212.22 107.93,-200.98"/>
<polygon fill="orange" stroke="orange" points="216.99,-307.82 226.69,-312.07 221.76,-302.69 216.99,-307.82"/>
<text text-anchor="middle" x="185" y="-227" font-family="Helvetica,sans-Serif" font-size="10.00"> &lt; sgns::runtime::WasmMemory &gt;</text>
</g>
<!-- Node6 -->
<g id="node6" class="node">
<title>Node6</title>
<g id="a_node6"><a xlink:title=" ">
<polygon fill="white" stroke="#666666" points="329,-206 209,-206 209,-143 329,-143 329,-206"/>
<text text-anchor="start" x="217" y="-194" font-family="Helvetica,sans-Serif" font-size="10.00">{std::shared_ptr&lt; spdlog</text>
<text text-anchor="middle" x="269" y="-183" font-family="Helvetica,sans-Serif" font-size="10.00">::logger &gt;</text>
<text text-anchor="start" x="217" y="-172" font-family="Helvetica,sans-Serif" font-size="10.00">|+ ptr</text>
<text text-anchor="start" x="217" y="-161" font-family="Helvetica,sans-Serif" font-size="10.00">|+ operator&#45;&gt;()</text>
<text text-anchor="middle" x="269" y="-150" font-family="Helvetica,sans-Serif" font-size="10.00">}</text>
</a>
</g>
</g>
<!-- Node4&#45;&gt;Node6 -->
<g id="edge6" class="edge">
<title>Node4&#45;&gt;Node6</title>
<path fill="none" stroke="orange" d="M252.18,-301.67C255.87,-274.01 261.21,-233.9 264.88,-206.38"/>
<polygon fill="orange" stroke="orange" points="248.71,-301.18 250.86,-311.55 255.65,-302.1 248.71,-301.18"/>
<text text-anchor="middle" x="301.5" y="-227" font-family="Helvetica,sans-Serif" font-size="10.00"> &lt; spdlog::logger &gt;</text>
</g>
<!-- Node5 -->
<g id="node5" class="node">
<title>Node5</title>
<g id="a_node5"><a xlink:title=" ">
<polygon fill="white" stroke="#666666" points="262.5,-492 233.5,-492 233.5,-462 262.5,-462 262.5,-492"/>
<text text-anchor="middle" x="248" y="-480" font-family="Helvetica,sans-Serif" font-size="10.00">{T</text>
<text text-anchor="middle" x="248" y="-469" font-family="Helvetica,sans-Serif" font-size="10.00">||}</text>
</a>
</g>
</g>
<!-- Node5&#45;&gt;Node4 -->
<g id="edge4" class="edge">
<title>Node5&#45;&gt;Node4</title>
<path fill="none" stroke="#404040" d="M248,-461.7C248,-439.82 248,-397.45 248,-367.75"/>
<polygon fill="none" stroke="#404040" points="248,-367.63 244,-361.63 248,-355.63 252,-361.63 248,-367.63"/>
<text text-anchor="middle" x="258" y="-436" font-family="Helvetica,sans-Serif" font-size="10.00"> +ptr</text>
</g>
<!-- Node6&#45;&gt;Node1 -->
<g id="edge5" class="edge">
<title>Node6&#45;&gt;Node1</title>
<path fill="none" stroke="#404040" d="M248.24,-142.72C240.95,-131.92 232.5,-119.4 224.2,-107.1"/>
<polygon fill="none" stroke="#404040" points="224.19,-107.08 217.52,-104.35 217.48,-97.13 224.15,-99.87 224.19,-107.08"/>
<text text-anchor="middle" x="252.5" y="-117" font-family="Helvetica,sans-Serif" font-size="10.00"> &#45;logger_</text>
</g>
</g>
</svg>
