<?xml version="1.0" encoding="UTF-8" standalone="no"?>
<!DOCTYPE svg PUBLIC "-//W3C//DTD SVG 1.1//EN"
 "http://www.w3.org/Graphics/SVG/1.1/DTD/svg11.dtd">
<!-- Generated by graphviz version 7.0.5 (20221223.1930)
 -->
<!-- Title: sgns::node Pages: 1 -->
<!--zoomable 1256 -->
<svg id="main" version="1.1" xmlns="http://www.w3.org/2000/svg" xmlns:xlink="http://www.w3.org/1999/xlink" xml:space="preserve" onload="init(evt)">
<style type="text/css"><![CDATA[
.edge:hover path { stroke: red; }
.edge:hover polygon { stroke: red; fill: red; }
]]></style>
<script type="text/javascript"><![CDATA[
var edges = document.getElementsByTagName('g');
if (edges && edges.length) {
  for (var i=0;i<edges.length;i++) {
    if (edges[i].id.substr(0,4)=='edge') {
      edges[i].setAttribute('class','edge');
    }
  }
}
]]></script>
        <defs>
                <circle id="rim" cx="0" cy="0" r="7"/>
                <circle id="rim2" cx="0" cy="0" r="3.5"/>
                <g id="zoomPlus">
                        <use xlink:href="#rim" fill="#404040">
                                <set attributeName="fill" to="#808080" begin="zoomplus.mouseover" end="zoomplus.mouseout"/>
                        </use>
                        <path d="M-4,0h8M0,-4v8" fill="none" stroke="white" stroke-width="1.5" pointer-events="none"/>
                </g>
                <g id="zoomMin">
                        <use xlink:href="#rim" fill="#404040">
                                <set attributeName="fill" to="#808080" begin="zoomminus.mouseover" end="zoomminus.mouseout"/>
                        </use>
                        <path d="M-4,0h8" fill="none" stroke="white" stroke-width="1.5" pointer-events="none"/>
                </g>
                <g id="dirArrow">
                        <path fill="none" stroke="white" stroke-width="1.5" d="M0,-3.0v7 M-2.5,-0.5L0,-3.0L2.5,-0.5"/>
                </g>
               <g id="resetDef">
                       <use xlink:href="#rim2" fill="#404040">
                               <set attributeName="fill" to="#808080" begin="reset.mouseover" end="reset.mouseout"/>
                       </use>
               </g>
        </defs>

<script type="text/javascript">
var viewWidth = 950;
var viewHeight = 1256;
var sectionId = 'dynsection-1';
</script>
<script xlink:href="svgpan.js"/>
<svg id="graph" class="graph">
<g id="viewport">
<title>sgns::node</title>
<!-- Node1 -->
<g id="node1" class="node">
<title>Node1</title>
<g id="a_node1"><a xlink:title=" ">
<polygon fill="#999999" stroke="#666666" points="309,-228 172,-228 172,0 309,0 309,-228"/>
<text text-anchor="middle" x="240.5" y="-216" font-family="Helvetica,sans-Serif" font-size="10.00">{sgns::node</text>
<text text-anchor="start" x="180" y="-205" font-family="Helvetica,sans-Serif" font-size="10.00">|+ node_id</text>
<text text-anchor="start" x="180" y="-194" font-family="Helvetica,sans-Serif" font-size="10.00">+ store</text>
<text text-anchor="start" x="180" y="-183" font-family="Helvetica,sans-Serif" font-size="10.00">+ ledger</text>
<text text-anchor="start" x="180" y="-172" font-family="Helvetica,sans-Serif" font-size="10.00">+ network_params</text>
<text text-anchor="start" x="180" y="-161" font-family="Helvetica,sans-Serif" font-size="10.00">+ stats</text>
<text text-anchor="start" x="180" y="-150" font-family="Helvetica,sans-Serif" font-size="10.00">+ alarm</text>
<text text-anchor="start" x="180" y="-139" font-family="Helvetica,sans-Serif" font-size="10.00">|+ node()</text>
<text text-anchor="start" x="180" y="-128" font-family="Helvetica,sans-Serif" font-size="10.00">+ ~node()</text>
<text text-anchor="start" x="180" y="-117" font-family="Helvetica,sans-Serif" font-size="10.00">+ keepalive()</text>
<text text-anchor="start" x="180" y="-106" font-family="Helvetica,sans-Serif" font-size="10.00">+ start()</text>
<text text-anchor="start" x="180" y="-95" font-family="Helvetica,sans-Serif" font-size="10.00">+ stop()</text>
<text text-anchor="start" x="180" y="-84" font-family="Helvetica,sans-Serif" font-size="10.00">+ shared()</text>
<text text-anchor="start" x="180" y="-73" font-family="Helvetica,sans-Serif" font-size="10.00">+ store_version()</text>
<text text-anchor="start" x="180" y="-62" font-family="Helvetica,sans-Serif" font-size="10.00">+ receive_confirmed()</text>
<text text-anchor="start" x="180" y="-51" font-family="Helvetica,sans-Serif" font-size="10.00">+ process_confirmed_data()</text>
<text text-anchor="start" x="180" y="-40" font-family="Helvetica,sans-Serif" font-size="10.00">+ process_active()</text>
<text text-anchor="start" x="180" y="-29" font-family="Helvetica,sans-Serif" font-size="10.00">and 6 more...</text>
<text text-anchor="start" x="180" y="-18" font-family="Helvetica,sans-Serif" font-size="10.00">&#45; check_genesis()</text>
<text text-anchor="middle" x="240.5" y="-7" font-family="Helvetica,sans-Serif" font-size="10.00">}</text>
</a>
</g>
</g>
<!-- Node2 -->
<g id="node2" class="node">
<title>Node2</title>
<g id="a_node2"><a xlink:title=" ">
<polygon fill="white" stroke="#666666" points="125,-448 0,-448 0,-407 125,-407 125,-448"/>
<text text-anchor="start" x="8" y="-436" font-family="Helvetica,sans-Serif" font-size="10.00">{std::enable_shared</text>
<text text-anchor="middle" x="62.5" y="-425" font-family="Helvetica,sans-Serif" font-size="10.00">_from_this&lt; sgns::node &gt;</text>
<text text-anchor="middle" x="62.5" y="-414" font-family="Helvetica,sans-Serif" font-size="10.00">||}</text>
</a>
</g>
</g>
<!-- Node2&#45;&gt;Node1 -->
<g id="edge1" class="edge">
<title>Node2&#45;&gt;Node1</title>
<path fill="none" stroke="#63b8ff" d="M74.8,-396.24C90.09,-359.7 117.81,-296.82 147.5,-246 154.89,-233.36 163.15,-220.39 171.63,-207.76"/>
<polygon fill="none" stroke="#63b8ff" points="71.64,-394.71 71.04,-405.29 78.11,-397.4 71.64,-394.71"/>
</g>
<!-- Node3 -->
<g id="node3" class="node">
<title>Node3</title>
<g id="a_node3"><a xlink:title=" ">
<polygon fill="white" stroke="#666666" points="225.5,-661 113.5,-661 113.5,-598 225.5,-598 225.5,-661"/>
<text text-anchor="start" x="121.5" y="-649" font-family="Helvetica,sans-Serif" font-size="10.00">{std::unique_ptr&lt; sgns</text>
<text text-anchor="middle" x="169.5" y="-638" font-family="Helvetica,sans-Serif" font-size="10.00">::block_store &gt;</text>
<text text-anchor="start" x="121.5" y="-627" font-family="Helvetica,sans-Serif" font-size="10.00">|+ ptr</text>
<text text-anchor="start" x="121.5" y="-616" font-family="Helvetica,sans-Serif" font-size="10.00">|+ operator&#45;&gt;()</text>
<text text-anchor="middle" x="169.5" y="-605" font-family="Helvetica,sans-Serif" font-size="10.00">}</text>
</a>
</g>
</g>
<!-- Node3&#45;&gt;Node1 -->
<g id="edge2" class="edge">
<title>Node3&#45;&gt;Node1</title>
<path fill="none" stroke="#404040" d="M198.73,-597.63C202.63,-592.1 206.1,-586.14 208.5,-580 251.07,-471.21 255.8,-337.25 251.84,-241.09"/>
<polygon fill="none" stroke="#404040" points="251.83,-240.97 247.56,-235.16 251.28,-228.98 255.55,-234.79 251.83,-240.97"/>
<text text-anchor="middle" x="279.5" y="-425" font-family="Helvetica,sans-Serif" font-size="10.00"> +store_impl</text>
</g>
<!-- Node4 -->
<g id="node4" class="node">
<title>Node4</title>
<g id="a_node4"><a xlink:title=" ">
<polygon fill="white" stroke="#666666" points="225,-1160 120,-1160 120,-1119 225,-1119 225,-1160"/>
<text text-anchor="middle" x="172.5" y="-1148" font-family="Helvetica,sans-Serif" font-size="10.00">{std::unique_ptr&lt; T &gt;</text>
<text text-anchor="start" x="128" y="-1137" font-family="Helvetica,sans-Serif" font-size="10.00">||+ operator&#45;&gt;()</text>
<text text-anchor="middle" x="172.5" y="-1126" font-family="Helvetica,sans-Serif" font-size="10.00">}</text>
</a>
</g>
</g>
<!-- Node4&#45;&gt;Node3 -->
<g id="edge3" class="edge">
<title>Node4&#45;&gt;Node3</title>
<path fill="none" stroke="orange" d="M172.31,-1107.14C171.78,-1015.96 170.22,-751.63 169.68,-661.24"/>
<polygon fill="orange" stroke="orange" points="168.81,-1107.09 172.37,-1117.07 175.81,-1107.05 168.81,-1107.09"/>
<text text-anchor="middle" x="220" y="-1087.5" font-family="Helvetica,sans-Serif" font-size="10.00"> &lt; sgns::block_store &gt;</text>
</g>
<!-- Node5 -->
<g id="node5" class="node">
<title>Node5</title>
<g id="a_node5"><a xlink:title=" ">
<polygon fill="white" stroke="#666666" points="187,-1242.5 158,-1242.5 158,-1212.5 187,-1212.5 187,-1242.5"/>
<text text-anchor="middle" x="172.5" y="-1230.5" font-family="Helvetica,sans-Serif" font-size="10.00">{T</text>
<text text-anchor="middle" x="172.5" y="-1219.5" font-family="Helvetica,sans-Serif" font-size="10.00">||}</text>
</a>
</g>
</g>
<!-- Node5&#45;&gt;Node4 -->
<g id="edge4" class="edge">
<title>Node5&#45;&gt;Node4</title>
<path fill="none" stroke="#404040" d="M172.5,-1212.3C172.5,-1201.64 172.5,-1186.6 172.5,-1173.04"/>
<polygon fill="none" stroke="#404040" points="172.5,-1173.09 168.5,-1167.09 172.5,-1161.09 176.5,-1167.09 172.5,-1173.09"/>
<text text-anchor="middle" x="182.5" y="-1181" font-family="Helvetica,sans-Serif" font-size="10.00"> +ptr</text>
</g>
<!-- Node9 -->
<g id="node9" class="node">
<title>Node9</title>
<g id="a_node9"><a xlink:title=" ">
<polygon fill="white" stroke="#666666" points="380,-1154.5 293,-1154.5 293,-1124.5 380,-1124.5 380,-1154.5"/>
<text text-anchor="middle" x="336.5" y="-1142.5" font-family="Helvetica,sans-Serif" font-size="10.00">{std::vector&lt; T &gt;</text>
<text text-anchor="middle" x="336.5" y="-1131.5" font-family="Helvetica,sans-Serif" font-size="10.00">||}</text>
</a>
</g>
</g>
<!-- Node5&#45;&gt;Node9 -->
<g id="edge9" class="edge">
<title>Node5&#45;&gt;Node9</title>
<path fill="none" stroke="#404040" d="M187.34,-1218.72C212.07,-1205.75 262.45,-1179.33 297.79,-1160.8"/>
<polygon fill="none" stroke="#404040" points="297.71,-1160.84 301.17,-1154.51 308.34,-1155.27 304.89,-1161.59 297.71,-1160.84"/>
<text text-anchor="middle" x="288" y="-1181" font-family="Helvetica,sans-Serif" font-size="10.00"> +elements</text>
</g>
<!-- Node16 -->
<g id="node16" class="node">
<title>Node16</title>
<g id="a_node16"><a xlink:title=" ">
<polygon fill="white" stroke="#666666" points="102,-1154.5 13,-1154.5 13,-1124.5 102,-1124.5 102,-1154.5"/>
<text text-anchor="middle" x="57.5" y="-1142.5" font-family="Helvetica,sans-Serif" font-size="10.00">{std::atomic&lt; T &gt;</text>
<text text-anchor="middle" x="57.5" y="-1131.5" font-family="Helvetica,sans-Serif" font-size="10.00">||}</text>
</a>
</g>
</g>
<!-- Node5&#45;&gt;Node16 -->
<g id="edge21" class="edge">
<title>Node5&#45;&gt;Node16</title>
<path fill="none" stroke="#404040" d="M157.94,-1215.61C140.17,-1202.32 109.71,-1179.54 86.98,-1162.54"/>
<polygon fill="none" stroke="#404040" points="86.86,-1162.46 79.66,-1162.07 77.25,-1155.27 84.45,-1155.66 86.86,-1162.46"/>
<text text-anchor="middle" x="132.5" y="-1181" font-family="Helvetica,sans-Serif" font-size="10.00"> +ptr</text>
</g>
<!-- Node6 -->
<g id="node6" class="node">
<title>Node6</title>
<g id="a_node6"><a xlink:href="classsgns_1_1node__config.html" target="_top" xlink:title=" ">
<polygon fill="white" stroke="#666666" points="517.5,-580 383.5,-580 383.5,-275 517.5,-275 517.5,-580"/>
<text text-anchor="middle" x="450.5" y="-568" font-family="Helvetica,sans-Serif" font-size="10.00">{sgns::node_config</text>
<text text-anchor="start" x="391.5" y="-557" font-family="Helvetica,sans-Serif" font-size="10.00">|+ network_params</text>
<text text-anchor="start" x="391.5" y="-546" font-family="Helvetica,sans-Serif" font-size="10.00">+ peering_port</text>
<text text-anchor="start" x="391.5" y="-535" font-family="Helvetica,sans-Serif" font-size="10.00">+ bootstrap_fraction</text>
<text text-anchor="start" x="391.5" y="-524" font-family="Helvetica,sans-Serif" font-size="10.00">_numerator</text>
<text text-anchor="start" x="391.5" y="-513" font-family="Helvetica,sans-Serif" font-size="10.00">+ receive_minimum</text>
<text text-anchor="start" x="391.5" y="-502" font-family="Helvetica,sans-Serif" font-size="10.00">+ vote_minimum</text>
<text text-anchor="start" x="391.5" y="-491" font-family="Helvetica,sans-Serif" font-size="10.00">+ vote_generator_delay</text>
<text text-anchor="start" x="391.5" y="-480" font-family="Helvetica,sans-Serif" font-size="10.00">+ vote_generator_threshold</text>
<text text-anchor="start" x="391.5" y="-469" font-family="Helvetica,sans-Serif" font-size="10.00">+ online_weight_minimum</text>
<text text-anchor="start" x="391.5" y="-458" font-family="Helvetica,sans-Serif" font-size="10.00">+ online_weight_quorum</text>
<text text-anchor="start" x="391.5" y="-447" font-family="Helvetica,sans-Serif" font-size="10.00">+ password_fanout</text>
<text text-anchor="start" x="391.5" y="-436" font-family="Helvetica,sans-Serif" font-size="10.00">and 27 more...</text>
<text text-anchor="start" x="391.5" y="-425" font-family="Helvetica,sans-Serif" font-size="10.00">+ keepalive_period</text>
<text text-anchor="start" x="391.5" y="-414" font-family="Helvetica,sans-Serif" font-size="10.00">+ keepalive_cutoff</text>
<text text-anchor="start" x="391.5" y="-403" font-family="Helvetica,sans-Serif" font-size="10.00">+ wallet_backup_interval</text>
<text text-anchor="start" x="391.5" y="-392" font-family="Helvetica,sans-Serif" font-size="10.00">|+ node_config()</text>
<text text-anchor="start" x="391.5" y="-381" font-family="Helvetica,sans-Serif" font-size="10.00">+ node_config()</text>
<text text-anchor="start" x="391.5" y="-370" font-family="Helvetica,sans-Serif" font-size="10.00">+ serialize_json()</text>
<text text-anchor="start" x="391.5" y="-359" font-family="Helvetica,sans-Serif" font-size="10.00">+ deserialize_json()</text>
<text text-anchor="start" x="391.5" y="-348" font-family="Helvetica,sans-Serif" font-size="10.00">+ serialize_toml()</text>
<text text-anchor="start" x="391.5" y="-337" font-family="Helvetica,sans-Serif" font-size="10.00">+ deserialize_toml()</text>
<text text-anchor="start" x="391.5" y="-326" font-family="Helvetica,sans-Serif" font-size="10.00">+ upgrade_json()</text>
<text text-anchor="start" x="391.5" y="-315" font-family="Helvetica,sans-Serif" font-size="10.00">+ random_representative()</text>
<text text-anchor="start" x="391.5" y="-304" font-family="Helvetica,sans-Serif" font-size="10.00">+ deserialize_address()</text>
<text text-anchor="start" x="391.5" y="-293" font-family="Helvetica,sans-Serif" font-size="10.00">+ json_version()</text>
<text text-anchor="middle" x="450.5" y="-282" font-family="Helvetica,sans-Serif" font-size="10.00">}</text>
</a>
</g>
</g>
<!-- Node6&#45;&gt;Node1 -->
<g id="edge5" class="edge">
<title>Node6&#45;&gt;Node1</title>
<path fill="none" stroke="#404040" d="M383.19,-326.65C361.92,-295.1 338.27,-260.02 316.43,-227.64"/>
<polygon fill="none" stroke="#404040" points="316.63,-227.92 309.96,-225.18 309.92,-217.97 316.59,-220.71 316.63,-227.92"/>
<text text-anchor="middle" x="349.5" y="-249" font-family="Helvetica,sans-Serif" font-size="10.00"> +config</text>
</g>
<!-- Node7 -->
<g id="node7" class="node">
<title>Node7</title>
<g id="a_node7"><a xlink:href="classsgns_1_1logging.html" target="_top" xlink:title=" ">
<polygon fill="white" stroke="#666666" points="619,-1061 468,-1061 468,-679 619,-679 619,-1061"/>
<text text-anchor="middle" x="543.5" y="-1049" font-family="Helvetica,sans-Serif" font-size="10.00">{sgns::logging</text>
<text text-anchor="start" x="476" y="-1038" font-family="Helvetica,sans-Serif" font-size="10.00">|+ ledger_logging_value</text>
<text text-anchor="start" x="476" y="-1027" font-family="Helvetica,sans-Serif" font-size="10.00">+ ledger_duplicate_logging</text>
<text text-anchor="start" x="476" y="-1016" font-family="Helvetica,sans-Serif" font-size="10.00">_value</text>
<text text-anchor="start" x="476" y="-1005" font-family="Helvetica,sans-Serif" font-size="10.00">+ vote_logging_value</text>
<text text-anchor="start" x="476" y="-994" font-family="Helvetica,sans-Serif" font-size="10.00">+ network_logging_value</text>
<text text-anchor="start" x="476" y="-983" font-family="Helvetica,sans-Serif" font-size="10.00">+ network_timeout_logging</text>
<text text-anchor="start" x="476" y="-972" font-family="Helvetica,sans-Serif" font-size="10.00">_value</text>
<text text-anchor="start" x="476" y="-961" font-family="Helvetica,sans-Serif" font-size="10.00">+ network_message_logging</text>
<text text-anchor="start" x="476" y="-950" font-family="Helvetica,sans-Serif" font-size="10.00">_value</text>
<text text-anchor="start" x="476" y="-939" font-family="Helvetica,sans-Serif" font-size="10.00">+ network_publish_logging</text>
<text text-anchor="start" x="476" y="-928" font-family="Helvetica,sans-Serif" font-size="10.00">_value</text>
<text text-anchor="start" x="476" y="-917" font-family="Helvetica,sans-Serif" font-size="10.00">+ network_packet_logging</text>
<text text-anchor="start" x="476" y="-906" font-family="Helvetica,sans-Serif" font-size="10.00">_value</text>
<text text-anchor="start" x="476" y="-895" font-family="Helvetica,sans-Serif" font-size="10.00">+ network_keepalive_logging</text>
<text text-anchor="start" x="476" y="-884" font-family="Helvetica,sans-Serif" font-size="10.00">_value</text>
<text text-anchor="start" x="476" y="-873" font-family="Helvetica,sans-Serif" font-size="10.00">+ network_node_id_handshake</text>
<text text-anchor="start" x="476" y="-862" font-family="Helvetica,sans-Serif" font-size="10.00">_logging_value</text>
<text text-anchor="start" x="476" y="-851" font-family="Helvetica,sans-Serif" font-size="10.00">and 17 more...</text>
<text text-anchor="start" x="476" y="-840" font-family="Helvetica,sans-Serif" font-size="10.00">&#45; file_sink</text>
<text text-anchor="start" x="476" y="-829" font-family="Helvetica,sans-Serif" font-size="10.00">&#45; logging_already_added</text>
<text text-anchor="start" x="476" y="-818" font-family="Helvetica,sans-Serif" font-size="10.00">|+ serialize_json()</text>
<text text-anchor="start" x="476" y="-807" font-family="Helvetica,sans-Serif" font-size="10.00">+ deserialize_json()</text>
<text text-anchor="start" x="476" y="-796" font-family="Helvetica,sans-Serif" font-size="10.00">+ serialize_toml()</text>
<text text-anchor="start" x="476" y="-785" font-family="Helvetica,sans-Serif" font-size="10.00">+ deserialize_toml()</text>
<text text-anchor="start" x="476" y="-774" font-family="Helvetica,sans-Serif" font-size="10.00">+ upgrade_json()</text>
<text text-anchor="start" x="476" y="-763" font-family="Helvetica,sans-Serif" font-size="10.00">+ ledger_logging()</text>
<text text-anchor="start" x="476" y="-752" font-family="Helvetica,sans-Serif" font-size="10.00">+ ledger_duplicate_logging()</text>
<text text-anchor="start" x="476" y="-741" font-family="Helvetica,sans-Serif" font-size="10.00">+ vote_logging()</text>
<text text-anchor="start" x="476" y="-730" font-family="Helvetica,sans-Serif" font-size="10.00">+ network_logging()</text>
<text text-anchor="start" x="476" y="-719" font-family="Helvetica,sans-Serif" font-size="10.00">+ network_timeout_logging()</text>
<text text-anchor="start" x="476" y="-708" font-family="Helvetica,sans-Serif" font-size="10.00">and 20 more...</text>
<text text-anchor="start" x="476" y="-697" font-family="Helvetica,sans-Serif" font-size="10.00">+ release_file_sink()</text>
<text text-anchor="middle" x="543.5" y="-686" font-family="Helvetica,sans-Serif" font-size="10.00">}</text>
</a>
</g>
</g>
<!-- Node7&#45;&gt;Node6 -->
<g id="edge6" class="edge">
<title>Node7&#45;&gt;Node6</title>
<path fill="none" stroke="#404040" d="M534.79,-678.64C531.39,-651.36 526.77,-623.81 520.5,-598 520.08,-596.25 519.64,-594.5 519.18,-592.75"/>
<polygon fill="none" stroke="#404040" points="519.16,-592.66 513.71,-587.94 515.97,-581.09 521.42,-585.81 519.16,-592.66"/>
<text text-anchor="middle" x="551.5" y="-627" font-family="Helvetica,sans-Serif" font-size="10.00"> +logging</text>
</g>
<!-- Node8 -->
<g id="node8" class="node">
<title>Node8</title>
<g id="a_node8"><a xlink:title=" ">
<polygon fill="white" stroke="#666666" points="450,-896 327,-896 327,-844 450,-844 450,-896"/>
<text text-anchor="start" x="335" y="-884" font-family="Helvetica,sans-Serif" font-size="10.00">{std::vector&lt; std::pair</text>
<text text-anchor="middle" x="388.5" y="-873" font-family="Helvetica,sans-Serif" font-size="10.00">&lt; std::string, uint16_t &gt; &gt;</text>
<text text-anchor="start" x="335" y="-862" font-family="Helvetica,sans-Serif" font-size="10.00">|+ elements</text>
<text text-anchor="middle" x="388.5" y="-851" font-family="Helvetica,sans-Serif" font-size="10.00">|}</text>
</a>
</g>
</g>
<!-- Node8&#45;&gt;Node6 -->
<g id="edge7" class="edge">
<title>Node8&#45;&gt;Node6</title>
<path fill="none" stroke="#404040" d="M389.45,-843.83C391.52,-795.78 397.43,-687.8 411.5,-598 411.76,-596.36 412.02,-594.72 412.29,-593.07"/>
<polygon fill="none" stroke="#404040" points="412.3,-593.02 409.37,-586.43 414.33,-581.19 417.25,-587.78 412.3,-593.02"/>
<text text-anchor="middle" x="466" y="-632.5" font-family="Helvetica,sans-Serif" font-size="10.00"> +secondary_work_peers</text>
<text text-anchor="middle" x="466" y="-621.5" font-family="Helvetica,sans-Serif" font-size="10.00">+work_peers</text>
</g>
<!-- Node9&#45;&gt;Node8 -->
<g id="edge8" class="edge">
<title>Node9&#45;&gt;Node8</title>
<path fill="none" stroke="orange" d="M358.23,-1115.48C361.5,-1110.96 364.45,-1106.05 366.5,-1101 394.83,-1031.11 393.41,-939.83 390.66,-896.27"/>
<polygon fill="orange" stroke="orange" points="355.77,-1112.95 352.23,-1122.94 361.23,-1117.34 355.77,-1112.95"/>
<text text-anchor="start" x="372.5" y="-1093" font-family="Helvetica,sans-Serif" font-size="10.00"> &lt; std::pair&lt; std::string,</text>
<text text-anchor="middle" x="421.5" y="-1082" font-family="Helvetica,sans-Serif" font-size="10.00"> uint16_t &gt; &gt;</text>
</g>
<!-- Node10 -->
<g id="node10" class="node">
<title>Node10</title>
<g id="a_node10"><a xlink:title=" ">
<polygon fill="white" stroke="#666666" points="771,-885 648,-885 648,-855 771,-855 771,-885"/>
<text text-anchor="middle" x="709.5" y="-873" font-family="Helvetica,sans-Serif" font-size="10.00">{std::vector&lt; std::string &gt;</text>
<text text-anchor="middle" x="709.5" y="-862" font-family="Helvetica,sans-Serif" font-size="10.00">||}</text>
</a>
</g>
</g>
<!-- Node9&#45;&gt;Node10 -->
<g id="edge13" class="edge">
<title>Node9&#45;&gt;Node10</title>
<path fill="none" stroke="orange" d="M391.82,-1137.82C456.01,-1134.17 561.59,-1118.93 628.5,-1061 683.8,-1013.12 702.4,-920.9 707.68,-885.41"/>
<polygon fill="orange" stroke="orange" points="391.67,-1134.32 381.85,-1138.3 392,-1141.31 391.67,-1134.32"/>
<text text-anchor="middle" x="633" y="-1087.5" font-family="Helvetica,sans-Serif" font-size="10.00"> &lt; std::string &gt;</text>
</g>
<!-- Node13 -->
<g id="node13" class="node">
<title>Node13</title>
<g id="a_node13"><a xlink:title=" ">
<polygon fill="white" stroke="#666666" points="303.5,-896 205.5,-896 205.5,-844 303.5,-844 303.5,-896"/>
<text text-anchor="start" x="213.5" y="-884" font-family="Helvetica,sans-Serif" font-size="10.00">{std::vector&lt; sgns::</text>
<text text-anchor="middle" x="254.5" y="-873" font-family="Helvetica,sans-Serif" font-size="10.00">account &gt;</text>
<text text-anchor="start" x="213.5" y="-862" font-family="Helvetica,sans-Serif" font-size="10.00">|+ elements</text>
<text text-anchor="middle" x="254.5" y="-851" font-family="Helvetica,sans-Serif" font-size="10.00">|}</text>
</a>
</g>
</g>
<!-- Node9&#45;&gt;Node13 -->
<g id="edge15" class="edge">
<title>Node9&#45;&gt;Node13</title>
<path fill="none" stroke="orange" d="M298.13,-1117.37C292.43,-1112.68 287.23,-1107.22 283.5,-1101 244.27,-1035.59 247.23,-940.99 251.41,-896.26"/>
<polygon fill="orange" stroke="orange" points="295.99,-1120.14 306.12,-1123.21 300.11,-1114.49 295.99,-1120.14"/>
<text text-anchor="middle" x="323" y="-1087.5" font-family="Helvetica,sans-Serif" font-size="10.00"> &lt; sgns::account &gt;</text>
</g>
<!-- Node10&#45;&gt;Node6 -->
<g id="edge10" class="edge">
<title>Node10&#45;&gt;Node6</title>
<path fill="none" stroke="#404040" d="M706.32,-854.7C698.24,-820.98 674.28,-735.13 628.5,-679 619.62,-668.11 611.39,-671.88 602.5,-661 583.23,-637.41 590.64,-624.43 575.5,-598 560.86,-572.43 543.05,-546.17 525.52,-522.18"/>
<polygon fill="none" stroke="#404040" points="525.43,-522.07 518.65,-519.62 518.3,-512.41 525.08,-514.86 525.43,-522.07"/>
<text text-anchor="middle" x="650.5" y="-627" font-family="Helvetica,sans-Serif" font-size="10.00"> +preconfigured_peers</text>
</g>
<!-- Node14 -->
<g id="node14" class="node">
<title>Node14</title>
<g id="a_node14"><a xlink:href="namespacesgns.html#classsgns_1_1node__flags" target="_top" xlink:title=" ">
<polygon fill="white" stroke="#666666" points="753.5,-514 615.5,-514 615.5,-341 753.5,-341 753.5,-514"/>
<text text-anchor="middle" x="684.5" y="-502" font-family="Helvetica,sans-Serif" font-size="10.00">{sgns::node_flags</text>
<text text-anchor="start" x="623.5" y="-491" font-family="Helvetica,sans-Serif" font-size="10.00">|+ disable_backup</text>
<text text-anchor="start" x="623.5" y="-480" font-family="Helvetica,sans-Serif" font-size="10.00">+ disable_lazy_bootstrap</text>
<text text-anchor="start" x="623.5" y="-469" font-family="Helvetica,sans-Serif" font-size="10.00">+ disable_legacy_bootstrap</text>
<text text-anchor="start" x="623.5" y="-458" font-family="Helvetica,sans-Serif" font-size="10.00">+ disable_wallet_bootstrap</text>
<text text-anchor="start" x="623.5" y="-447" font-family="Helvetica,sans-Serif" font-size="10.00">+ disable_bootstrap_listener</text>
<text text-anchor="start" x="623.5" y="-436" font-family="Helvetica,sans-Serif" font-size="10.00">+ disable_bootstrap_bulk</text>
<text text-anchor="start" x="623.5" y="-425" font-family="Helvetica,sans-Serif" font-size="10.00">_pull_server</text>
<text text-anchor="start" x="623.5" y="-414" font-family="Helvetica,sans-Serif" font-size="10.00">+ disable_bootstrap_bulk</text>
<text text-anchor="start" x="623.5" y="-403" font-family="Helvetica,sans-Serif" font-size="10.00">_push_client</text>
<text text-anchor="start" x="623.5" y="-392" font-family="Helvetica,sans-Serif" font-size="10.00">+ disable_rep_crawler</text>
<text text-anchor="start" x="623.5" y="-381" font-family="Helvetica,sans-Serif" font-size="10.00">+ disable_request_loop</text>
<text text-anchor="start" x="623.5" y="-370" font-family="Helvetica,sans-Serif" font-size="10.00">+ disable_tcp_realtime</text>
<text text-anchor="start" x="623.5" y="-359" font-family="Helvetica,sans-Serif" font-size="10.00">and 21 more...</text>
<text text-anchor="middle" x="684.5" y="-348" font-family="Helvetica,sans-Serif" font-size="10.00">|}</text>
</a>
</g>
</g>
<!-- Node10&#45;&gt;Node14 -->
<g id="edge18" class="edge">
<title>Node10&#45;&gt;Node14</title>
<path fill="none" stroke="#404040" d="M709.53,-854.59C709.54,-814.1 708.95,-695.92 702.5,-598 700.98,-574.95 698.72,-550.21 696.3,-526.94"/>
<polygon fill="none" stroke="#404040" points="696.31,-527.01 691.7,-521.46 695.04,-515.08 699.65,-520.62 696.31,-527.01"/>
<text text-anchor="middle" x="745" y="-627" font-family="Helvetica,sans-Serif" font-size="10.00"> +config_overrides</text>
</g>
<!-- Node11 -->
<g id="node11" class="node">
<title>Node11</title>
<g id="a_node11"><a xlink:title=" ">
<polygon fill="white" stroke="#666666" points="805.5,-1154.5 743.5,-1154.5 743.5,-1124.5 805.5,-1124.5 805.5,-1154.5"/>
<text text-anchor="middle" x="774.5" y="-1142.5" font-family="Helvetica,sans-Serif" font-size="10.00">{std::string</text>
<text text-anchor="middle" x="774.5" y="-1131.5" font-family="Helvetica,sans-Serif" font-size="10.00">||}</text>
</a>
</g>
</g>
<!-- Node11&#45;&gt;Node6 -->
<g id="edge16" class="edge">
<title>Node11&#45;&gt;Node6</title>
<path fill="none" stroke="#404040" d="M789.68,-1124.27C795.5,-1117.79 801.46,-1109.65 804.5,-1101 807.74,-1091.77 804.66,-1088.78 804.5,-1079 800.94,-865.13 934.73,-754.11 788.5,-598 760.72,-568.34 643.36,-597.11 606.5,-580 577.18,-566.39 550.02,-544.93 526.85,-522.4"/>
<polygon fill="none" stroke="#404040" points="526.96,-522.51 519.89,-521.09 518.48,-514.02 525.55,-515.44 526.96,-522.51"/>
<text text-anchor="middle" x="899" y="-878.5" font-family="Helvetica,sans-Serif" font-size="10.00"> +callback_address</text>
<text text-anchor="middle" x="899" y="-867.5" font-family="Helvetica,sans-Serif" font-size="10.00">+callback_target</text>
<text text-anchor="middle" x="899" y="-856.5" font-family="Helvetica,sans-Serif" font-size="10.00">+external_address</text>
</g>
<!-- Node11&#45;&gt;Node10 -->
<g id="edge11" class="edge">
<title>Node11&#45;&gt;Node10</title>
<path fill="none" stroke="#404040" d="M766.15,-1124.3C762.43,-1117.45 758.27,-1109 755.5,-1101 730.92,-1029.97 717.87,-941.8 712.5,-898.13"/>
<polygon fill="none" stroke="#404040" points="712.51,-898.17 707.83,-892.68 711.1,-886.25 715.78,-891.74 712.51,-898.17"/>
<text text-anchor="middle" x="780" y="-1087.5" font-family="Helvetica,sans-Serif" font-size="10.00"> +elements</text>
</g>
<!-- Node12 -->
<g id="node12" class="node">
<title>Node12</title>
<g id="a_node12"><a xlink:title=" ">
<polygon fill="white" stroke="#666666" points="822.5,-1248 726.5,-1248 726.5,-1207 822.5,-1207 822.5,-1248"/>
<text text-anchor="start" x="734.5" y="-1236" font-family="Helvetica,sans-Serif" font-size="10.00">{std::basic_string&lt;</text>
<text text-anchor="middle" x="774.5" y="-1225" font-family="Helvetica,sans-Serif" font-size="10.00"> Char &gt;</text>
<text text-anchor="middle" x="774.5" y="-1214" font-family="Helvetica,sans-Serif" font-size="10.00">||}</text>
</a>
</g>
</g>
<!-- Node12&#45;&gt;Node11 -->
<g id="edge12" class="edge">
<title>Node12&#45;&gt;Node11</title>
<path fill="none" stroke="#63b8ff" d="M774.5,-1195.08C774.5,-1181.35 774.5,-1165.91 774.5,-1154.97"/>
<polygon fill="none" stroke="#63b8ff" points="771,-1195.04 774.5,-1205.04 778,-1195.04 771,-1195.04"/>
</g>
<!-- Node13&#45;&gt;Node6 -->
<g id="edge14" class="edge">
<title>Node13&#45;&gt;Node6</title>
<path fill="none" stroke="#404040" d="M246.96,-843.68C233.34,-792.53 210.44,-675.19 260.5,-598 270.67,-582.32 283.22,-590.75 298.5,-580 325.13,-561.26 351.3,-537.66 374.21,-514.7"/>
<polygon fill="none" stroke="#404040" points="374.11,-514.8 375.46,-507.72 382.52,-506.25 381.17,-513.33 374.11,-514.8"/>
<text text-anchor="middle" x="330" y="-627" font-family="Helvetica,sans-Serif" font-size="10.00"> +preconfigured_representatives</text>
</g>
<!-- Node14&#45;&gt;Node1 -->
<g id="edge17" class="edge">
<title>Node14&#45;&gt;Node1</title>
<path fill="none" stroke="#404040" d="M615.19,-352.64C588.76,-326.52 557.5,-297.95 526.5,-275 461.34,-226.76 380.1,-182.65 320.88,-153.02"/>
<polygon fill="none" stroke="#404040" points="320.89,-153.03 313.74,-153.94 310.15,-147.69 317.3,-146.78 320.89,-153.03"/>
<text text-anchor="middle" x="512" y="-249" font-family="Helvetica,sans-Serif" font-size="10.00"> +flags</text>
</g>
<!-- Node15 -->
<g id="node15" class="node">
<title>Node15</title>
<g id="a_node15"><a xlink:title=" ">
<polygon fill="white" stroke="#666666" points="108,-650 7,-650 7,-609 108,-609 108,-650"/>
<text text-anchor="middle" x="57.5" y="-638" font-family="Helvetica,sans-Serif" font-size="10.00">{std::atomic&lt; bool &gt;</text>
<text text-anchor="start" x="15" y="-627" font-family="Helvetica,sans-Serif" font-size="10.00">|+ ptr</text>
<text text-anchor="middle" x="57.5" y="-616" font-family="Helvetica,sans-Serif" font-size="10.00">|}</text>
</a>
</g>
</g>
<!-- Node15&#45;&gt;Node1 -->
<g id="edge19" class="edge">
<title>Node15&#45;&gt;Node1</title>
<path fill="none" stroke="#404040" d="M91.4,-608.75C110.38,-597.36 130.79,-584.44 133.5,-580 168.91,-521.87 143.01,-340.5 161.5,-275 164.75,-263.49 168.81,-251.82 173.37,-240.29"/>
<polygon fill="none" stroke="#404040" points="173.38,-240.27 171.96,-233.2 177.95,-229.18 179.36,-236.25 173.38,-240.27"/>
<text text-anchor="middle" x="183" y="-425" font-family="Helvetica,sans-Serif" font-size="10.00"> +stopped</text>
</g>
<!-- Node16&#45;&gt;Node15 -->
<g id="edge20" class="edge">
<title>Node16&#45;&gt;Node15</title>
<path fill="none" stroke="orange" d="M57.5,-1112.72C57.5,-1023.54 57.5,-729.34 57.5,-650.23"/>
<polygon fill="orange" stroke="orange" points="54,-1112.6 57.5,-1122.6 61,-1112.6 54,-1112.6"/>
<text text-anchor="middle" x="76" y="-1087.5" font-family="Helvetica,sans-Serif" font-size="10.00"> &lt; bool &gt;</text>
</g>
</g>
</svg>
        <g id="navigator" transform="translate(0 0)" fill="#404254">
                <rect fill="#f2f5e9" fill-opacity="0.5" stroke="#606060" stroke-width=".5" x="0" y="0" width="60" height="60"/>
                <use id="zoomplus" xlink:href="#zoomPlus" x="17" y="9" onmousedown="handleZoom(evt,'in')"/>
                <use id="zoomminus" xlink:href="#zoomMin" x="42" y="9" onmousedown="handleZoom(evt,'out')"/>
                <use id="reset" xlink:href="#resetDef" x="30" y="36" onmousedown="handleReset()"/>
                <g id="arrowUp" xlink:href="#dirArrow" transform="translate(30 24)" onmousedown="handlePan(0,-1)">
                  <use xlink:href="#rim" fill="#404040">
                        <set attributeName="fill" to="#808080" begin="arrowUp.mouseover" end="arrowUp.mouseout"/>
                  </use>
                  <path fill="none" stroke="white" stroke-width="1.5" d="M0,-3.0v7 M-2.5,-0.5L0,-3.0L2.5,-0.5"/>
                </g>
                <g id="arrowRight" xlink:href="#dirArrow" transform="rotate(90) translate(36 -43)" onmousedown="handlePan(1,0)">
                  <use xlink:href="#rim" fill="#404040">
                        <set attributeName="fill" to="#808080" begin="arrowRight.mouseover" end="arrowRight.mouseout"/>
                  </use>
                  <path fill="none" stroke="white" stroke-width="1.5" d="M0,-3.0v7 M-2.5,-0.5L0,-3.0L2.5,-0.5"/>
                </g>
                <g id="arrowDown" xlink:href="#dirArrow" transform="rotate(180) translate(-30 -48)" onmousedown="handlePan(0,1)">
                  <use xlink:href="#rim" fill="#404040">
                        <set attributeName="fill" to="#808080" begin="arrowDown.mouseover" end="arrowDown.mouseout"/>
                  </use>
                  <path fill="none" stroke="white" stroke-width="1.5" d="M0,-3.0v7 M-2.5,-0.5L0,-3.0L2.5,-0.5"/>
                </g>
                <g id="arrowLeft" xlink:href="#dirArrow" transform="rotate(270) translate(-36 17)" onmousedown="handlePan(-1,0)">
                  <use xlink:href="#rim" fill="#404040">
                        <set attributeName="fill" to="#808080" begin="arrowLeft.mouseover" end="arrowLeft.mouseout"/>
                  </use>
                  <path fill="none" stroke="white" stroke-width="1.5" d="M0,-3.0v7 M-2.5,-0.5L0,-3.0L2.5,-0.5"/>
                </g>
        </g>
        <svg viewBox="0 0 15 15" width="100%" height="30px" preserveAspectRatio="xMaxYMin meet">
         <g id="arrow_out" transform="scale(0.3 0.3)">
          <a xlink:href="classsgns_1_1node__coll__graph_org.svg" target="_base">
           <rect id="button" ry="5" rx="5" y="6" x="6" height="38" width="38"
                fill="#f2f5e9" fill-opacity="0.5" stroke="#606060" stroke-width="1.0"/>
           <path id="arrow"
             d="M 11.500037,31.436501 C 11.940474,20.09759 22.043105,11.32322 32.158766,21.979434 L 37.068811,17.246167 C 37.068811,17.246167 37.088388,32 37.088388,32 L 22.160133,31.978069 C 22.160133,31.978069 26.997745,27.140456 26.997745,27.140456 C 18.528582,18.264221 13.291696,25.230495 11.500037,31.436501 z"
             style="fill:#404040;"/>
          </a>
         </g>
        </svg>
</svg>
