<?xml version="1.0" encoding="UTF-8" standalone="no"?>
<!DOCTYPE svg PUBLIC "-//W3C//DTD SVG 1.1//EN"
 "http://www.w3.org/Graphics/SVG/1.1/DTD/svg11.dtd">
<!-- Generated by graphviz version 7.0.5 (20221223.1930)
 -->
<!-- Title: sgns::network::LoopbackStream Pages: 1 -->
<!--zoomable 588 -->
<svg id="main" version="1.1" xmlns="http://www.w3.org/2000/svg" xmlns:xlink="http://www.w3.org/1999/xlink" xml:space="preserve" onload="init(evt)">
<style type="text/css"><![CDATA[
.edge:hover path { stroke: red; }
.edge:hover polygon { stroke: red; fill: red; }
]]></style>
<script type="text/javascript"><![CDATA[
var edges = document.getElementsByTagName('g');
if (edges && edges.length) {
  for (var i=0;i<edges.length;i++) {
    if (edges[i].id.substr(0,4)=='edge') {
      edges[i].setAttribute('class','edge');
    }
  }
}
]]></script>
        <defs>
                <circle id="rim" cx="0" cy="0" r="7"/>
                <circle id="rim2" cx="0" cy="0" r="3.5"/>
                <g id="zoomPlus">
                        <use xlink:href="#rim" fill="#404040">
                                <set attributeName="fill" to="#808080" begin="zoomplus.mouseover" end="zoomplus.mouseout"/>
                        </use>
                        <path d="M-4,0h8M0,-4v8" fill="none" stroke="white" stroke-width="1.5" pointer-events="none"/>
                </g>
                <g id="zoomMin">
                        <use xlink:href="#rim" fill="#404040">
                                <set attributeName="fill" to="#808080" begin="zoomminus.mouseover" end="zoomminus.mouseout"/>
                        </use>
                        <path d="M-4,0h8" fill="none" stroke="white" stroke-width="1.5" pointer-events="none"/>
                </g>
                <g id="dirArrow">
                        <path fill="none" stroke="white" stroke-width="1.5" d="M0,-3.0v7 M-2.5,-0.5L0,-3.0L2.5,-0.5"/>
                </g>
               <g id="resetDef">
                       <use xlink:href="#rim2" fill="#404040">
                               <set attributeName="fill" to="#808080" begin="reset.mouseover" end="reset.mouseout"/>
                       </use>
               </g>
        </defs>

<script type="text/javascript">
var viewWidth = 434;
var viewHeight = 588;
var sectionId = 'dynsection-1';
</script>
<script xlink:href="svgpan.js"/>
<svg id="graph" class="graph">
<g id="viewport">
<title>sgns::network::LoopbackStream</title>
<!-- Node1 -->
<g id="node1" class="node">
<title>Node1</title>
<g id="a_node1"><a xlink:title=" ">
<polygon fill="#999999" stroke="#666666" points="270.5,-305 112.5,-305 112.5,0 270.5,0 270.5,-305"/>
<text text-anchor="middle" x="191.5" y="-293" font-family="Helvetica,sans-Serif" font-size="10.00">{sgns::network::LoopbackStream</text>
<text text-anchor="start" x="120.5" y="-282" font-family="Helvetica,sans-Serif" font-size="10.00">|&#45; own_peer_info_</text>
<text text-anchor="start" x="120.5" y="-271" font-family="Helvetica,sans-Serif" font-size="10.00">&#45; buffer_</text>
<text text-anchor="start" x="120.5" y="-260" font-family="Helvetica,sans-Serif" font-size="10.00">&#45; data_notifyee_</text>
<text text-anchor="start" x="120.5" y="-249" font-family="Helvetica,sans-Serif" font-size="10.00">&#45; data_notified_</text>
<text text-anchor="start" x="120.5" y="-238" font-family="Helvetica,sans-Serif" font-size="10.00">&#45; is_readable_</text>
<text text-anchor="start" x="120.5" y="-227" font-family="Helvetica,sans-Serif" font-size="10.00">&#45; is_writable_</text>
<text text-anchor="start" x="120.5" y="-216" font-family="Helvetica,sans-Serif" font-size="10.00">&#45; is_reset_</text>
<text text-anchor="start" x="120.5" y="-205" font-family="Helvetica,sans-Serif" font-size="10.00">|+ LoopbackStream()</text>
<text text-anchor="start" x="120.5" y="-194" font-family="Helvetica,sans-Serif" font-size="10.00">+ isClosedForRead()</text>
<text text-anchor="start" x="120.5" y="-183" font-family="Helvetica,sans-Serif" font-size="10.00">+ isClosedForWrite()</text>
<text text-anchor="start" x="120.5" y="-172" font-family="Helvetica,sans-Serif" font-size="10.00">+ isClosed()</text>
<text text-anchor="start" x="120.5" y="-161" font-family="Helvetica,sans-Serif" font-size="10.00">+ close()</text>
<text text-anchor="start" x="120.5" y="-150" font-family="Helvetica,sans-Serif" font-size="10.00">+ reset()</text>
<text text-anchor="start" x="120.5" y="-139" font-family="Helvetica,sans-Serif" font-size="10.00">+ adjustWindowSize()</text>
<text text-anchor="start" x="120.5" y="-128" font-family="Helvetica,sans-Serif" font-size="10.00">+ isInitiator()</text>
<text text-anchor="start" x="120.5" y="-117" font-family="Helvetica,sans-Serif" font-size="10.00">+ remotePeerId()</text>
<text text-anchor="start" x="120.5" y="-106" font-family="Helvetica,sans-Serif" font-size="10.00">+ localMultiaddr()</text>
<text text-anchor="start" x="120.5" y="-95" font-family="Helvetica,sans-Serif" font-size="10.00">+ remoteMultiaddr()</text>
<text text-anchor="start" x="120.5" y="-84" font-family="Helvetica,sans-Serif" font-size="10.00"># read()</text>
<text text-anchor="start" x="120.5" y="-73" font-family="Helvetica,sans-Serif" font-size="10.00"># readSome()</text>
<text text-anchor="start" x="120.5" y="-62" font-family="Helvetica,sans-Serif" font-size="10.00"># deferReadCallback()</text>
<text text-anchor="start" x="120.5" y="-51" font-family="Helvetica,sans-Serif" font-size="10.00"># write()</text>
<text text-anchor="start" x="120.5" y="-40" font-family="Helvetica,sans-Serif" font-size="10.00"># writeSome()</text>
<text text-anchor="start" x="120.5" y="-29" font-family="Helvetica,sans-Serif" font-size="10.00"># deferWriteCallback()</text>
<text text-anchor="start" x="120.5" y="-18" font-family="Helvetica,sans-Serif" font-size="10.00">&#45; read()</text>
<text text-anchor="middle" x="191.5" y="-7" font-family="Helvetica,sans-Serif" font-size="10.00">}</text>
</a>
</g>
</g>
<!-- Node2 -->
<g id="node2" class="node">
<title>Node2</title>
<g id="a_node2"><a xlink:title=" ">
<polygon fill="white" stroke="#666666" points="97,-404 0,-404 0,-363 97,-363 97,-404"/>
<text text-anchor="start" x="8" y="-392" font-family="Helvetica,sans-Serif" font-size="10.00">{libp2p::connection</text>
<text text-anchor="middle" x="48.5" y="-381" font-family="Helvetica,sans-Serif" font-size="10.00">::Stream</text>
<text text-anchor="middle" x="48.5" y="-370" font-family="Helvetica,sans-Serif" font-size="10.00">||}</text>
</a>
</g>
</g>
<!-- Node2&#45;&gt;Node1 -->
<g id="edge1" class="edge">
<title>Node2&#45;&gt;Node1</title>
<path fill="none" stroke="#63b8ff" d="M66.89,-353.06C78.76,-334.04 95.11,-307.86 112.07,-280.7"/>
<polygon fill="none" stroke="#63b8ff" points="64.07,-350.96 61.74,-361.29 70.01,-354.67 64.07,-350.96"/>
</g>
<!-- Node3 -->
<g id="node3" class="node">
<title>Node3</title>
<g id="a_node3"><a xlink:title=" ">
<polygon fill="white" stroke="#666666" points="268,-404 115,-404 115,-363 268,-363 268,-404"/>
<text text-anchor="start" x="123" y="-392" font-family="Helvetica,sans-Serif" font-size="10.00">{std::enable_shared</text>
<text text-anchor="middle" x="191.5" y="-381" font-family="Helvetica,sans-Serif" font-size="10.00">_from_this&lt; LoopbackStream &gt;</text>
<text text-anchor="middle" x="191.5" y="-370" font-family="Helvetica,sans-Serif" font-size="10.00">||}</text>
</a>
</g>
</g>
<!-- Node3&#45;&gt;Node1 -->
<g id="edge2" class="edge">
<title>Node3&#45;&gt;Node1</title>
<path fill="none" stroke="#63b8ff" d="M191.5,-351.25C191.5,-338.4 191.5,-322.51 191.5,-305.36"/>
<polygon fill="none" stroke="#63b8ff" points="188,-351.06 191.5,-361.06 195,-351.06 188,-351.06"/>
</g>
<!-- Node4 -->
<g id="node4" class="node">
<title>Node4</title>
<g id="a_node4"><a xlink:title=" ">
<polygon fill="white" stroke="#666666" points="406.5,-415 286.5,-415 286.5,-352 406.5,-352 406.5,-415"/>
<text text-anchor="start" x="294.5" y="-403" font-family="Helvetica,sans-Serif" font-size="10.00">{std::shared_ptr&lt; spdlog</text>
<text text-anchor="middle" x="346.5" y="-392" font-family="Helvetica,sans-Serif" font-size="10.00">::logger &gt;</text>
<text text-anchor="start" x="294.5" y="-381" font-family="Helvetica,sans-Serif" font-size="10.00">|+ ptr</text>
<text text-anchor="start" x="294.5" y="-370" font-family="Helvetica,sans-Serif" font-size="10.00">|+ operator&#45;&gt;()</text>
<text text-anchor="middle" x="346.5" y="-359" font-family="Helvetica,sans-Serif" font-size="10.00">}</text>
</a>
</g>
</g>
<!-- Node4&#45;&gt;Node1 -->
<g id="edge3" class="edge">
<title>Node4&#45;&gt;Node1</title>
<path fill="none" stroke="#404040" d="M325.6,-351.62C312.9,-332.86 295.76,-307.53 277.97,-281.25"/>
<polygon fill="none" stroke="#404040" points="278.09,-281.44 271.42,-278.71 271.37,-271.5 278.04,-274.22 278.09,-281.44"/>
<text text-anchor="middle" x="324.5" y="-326" font-family="Helvetica,sans-Serif" font-size="10.00"> &#45;log_</text>
</g>
<!-- Node5 -->
<g id="node5" class="node">
<title>Node5</title>
<g id="a_node5"><a xlink:title=" ">
<polygon fill="white" stroke="#666666" points="399.5,-503 293.5,-503 293.5,-462 399.5,-462 399.5,-503"/>
<text text-anchor="middle" x="346.5" y="-491" font-family="Helvetica,sans-Serif" font-size="10.00">{std::shared_ptr&lt; T &gt;</text>
<text text-anchor="start" x="301.5" y="-480" font-family="Helvetica,sans-Serif" font-size="10.00">||+ operator&#45;&gt;()</text>
<text text-anchor="middle" x="346.5" y="-469" font-family="Helvetica,sans-Serif" font-size="10.00">}</text>
</a>
</g>
</g>
<!-- Node5&#45;&gt;Node4 -->
<g id="edge4" class="edge">
<title>Node5&#45;&gt;Node4</title>
<path fill="none" stroke="orange" d="M346.5,-450.71C346.5,-439.37 346.5,-426.52 346.5,-415.18"/>
<polygon fill="orange" stroke="orange" points="343,-450.36 346.5,-460.36 350,-450.36 343,-450.36"/>
<text text-anchor="middle" x="386" y="-436" font-family="Helvetica,sans-Serif" font-size="10.00"> &lt; spdlog::logger &gt;</text>
</g>
<!-- Node6 -->
<g id="node6" class="node">
<title>Node6</title>
<g id="a_node6"><a xlink:title=" ">
<polygon fill="white" stroke="#666666" points="361,-580 332,-580 332,-550 361,-550 361,-580"/>
<text text-anchor="middle" x="346.5" y="-568" font-family="Helvetica,sans-Serif" font-size="10.00">{T</text>
<text text-anchor="middle" x="346.5" y="-557" font-family="Helvetica,sans-Serif" font-size="10.00">||}</text>
</a>
</g>
</g>
<!-- Node6&#45;&gt;Node5 -->
<g id="edge5" class="edge">
<title>Node6&#45;&gt;Node5</title>
<path fill="none" stroke="#404040" d="M346.5,-549.61C346.5,-540.31 346.5,-527.82 346.5,-516.21"/>
<polygon fill="none" stroke="#404040" points="346.5,-516.11 342.5,-510.11 346.5,-504.11 350.5,-510.11 346.5,-516.11"/>
<text text-anchor="middle" x="356.5" y="-524" font-family="Helvetica,sans-Serif" font-size="10.00"> +ptr</text>
</g>
</g>
</svg>
        <g id="navigator" transform="translate(0 0)" fill="#404254">
                <rect fill="#f2f5e9" fill-opacity="0.5" stroke="#606060" stroke-width=".5" x="0" y="0" width="60" height="60"/>
                <use id="zoomplus" xlink:href="#zoomPlus" x="17" y="9" onmousedown="handleZoom(evt,'in')"/>
                <use id="zoomminus" xlink:href="#zoomMin" x="42" y="9" onmousedown="handleZoom(evt,'out')"/>
                <use id="reset" xlink:href="#resetDef" x="30" y="36" onmousedown="handleReset()"/>
                <g id="arrowUp" xlink:href="#dirArrow" transform="translate(30 24)" onmousedown="handlePan(0,-1)">
                  <use xlink:href="#rim" fill="#404040">
                        <set attributeName="fill" to="#808080" begin="arrowUp.mouseover" end="arrowUp.mouseout"/>
                  </use>
                  <path fill="none" stroke="white" stroke-width="1.5" d="M0,-3.0v7 M-2.5,-0.5L0,-3.0L2.5,-0.5"/>
                </g>
                <g id="arrowRight" xlink:href="#dirArrow" transform="rotate(90) translate(36 -43)" onmousedown="handlePan(1,0)">
                  <use xlink:href="#rim" fill="#404040">
                        <set attributeName="fill" to="#808080" begin="arrowRight.mouseover" end="arrowRight.mouseout"/>
                  </use>
                  <path fill="none" stroke="white" stroke-width="1.5" d="M0,-3.0v7 M-2.5,-0.5L0,-3.0L2.5,-0.5"/>
                </g>
                <g id="arrowDown" xlink:href="#dirArrow" transform="rotate(180) translate(-30 -48)" onmousedown="handlePan(0,1)">
                  <use xlink:href="#rim" fill="#404040">
                        <set attributeName="fill" to="#808080" begin="arrowDown.mouseover" end="arrowDown.mouseout"/>
                  </use>
                  <path fill="none" stroke="white" stroke-width="1.5" d="M0,-3.0v7 M-2.5,-0.5L0,-3.0L2.5,-0.5"/>
                </g>
                <g id="arrowLeft" xlink:href="#dirArrow" transform="rotate(270) translate(-36 17)" onmousedown="handlePan(-1,0)">
                  <use xlink:href="#rim" fill="#404040">
                        <set attributeName="fill" to="#808080" begin="arrowLeft.mouseover" end="arrowLeft.mouseout"/>
                  </use>
                  <path fill="none" stroke="white" stroke-width="1.5" d="M0,-3.0v7 M-2.5,-0.5L0,-3.0L2.5,-0.5"/>
                </g>
        </g>
        <svg viewBox="0 0 15 15" width="100%" height="30px" preserveAspectRatio="xMaxYMin meet">
         <g id="arrow_out" transform="scale(0.3 0.3)">
          <a xlink:href="classsgns_1_1network_1_1_loopback_stream__coll__graph_org.svg" target="_base">
           <rect id="button" ry="5" rx="5" y="6" x="6" height="38" width="38"
                fill="#f2f5e9" fill-opacity="0.5" stroke="#606060" stroke-width="1.0"/>
           <path id="arrow"
             d="M 11.500037,31.436501 C 11.940474,20.09759 22.043105,11.32322 32.158766,21.979434 L 37.068811,17.246167 C 37.068811,17.246167 37.088388,32 37.088388,32 L 22.160133,31.978069 C 22.160133,31.978069 26.997745,27.140456 26.997745,27.140456 C 18.528582,18.264221 13.291696,25.230495 11.500037,31.436501 z"
             style="fill:#404040;"/>
          </a>
         </g>
        </svg>
</svg>
