<?xml version="1.0" encoding="UTF-8" standalone="no"?>
<!DOCTYPE svg PUBLIC "-//W3C//DTD SVG 1.1//EN"
 "http://www.w3.org/Graphics/SVG/1.1/DTD/svg11.dtd">
<!-- Generated by graphviz version 7.0.5 (20221223.1930)
 -->
<!-- Title: sgns::api::state::StateJrpcProcessor Pages: 1 -->
<svg width="551pt" height="412pt"
 viewBox="0.00 0.00 551.00 412.00" xmlns="http://www.w3.org/2000/svg" xmlns:xlink="http://www.w3.org/1999/xlink">
<g id="graph0" class="graph" transform="scale(1 1) rotate(0) translate(4 408)">
<title>sgns::api::state::StateJrpcProcessor</title>
<!-- Node1 -->
<g id="node1" class="node">
<title>Node1</title>
<g id="a_node1"><a xlink:title=" ">
<polygon fill="#999999" stroke="#666666" points="284,-74 153,-74 153,0 284,0 284,-74"/>
<text text-anchor="start" x="161" y="-62" font-family="Helvetica,sans-Serif" font-size="10.00">{sgns::api::state::StateJrpc</text>
<text text-anchor="middle" x="218.5" y="-51" font-family="Helvetica,sans-Serif" font-size="10.00">Processor</text>
<text text-anchor="start" x="161" y="-40" font-family="Helvetica,sans-Serif" font-size="10.00">||+ StateJrpcProcessor()</text>
<text text-anchor="start" x="161" y="-29" font-family="Helvetica,sans-Serif" font-size="10.00">+ ~StateJrpcProcessor()</text>
<text text-anchor="start" x="161" y="-18" font-family="Helvetica,sans-Serif" font-size="10.00">+ registerHandlers()</text>
<text text-anchor="middle" x="218.5" y="-7" font-family="Helvetica,sans-Serif" font-size="10.00">}</text>
</a>
</g>
</g>
<!-- Node2 -->
<g id="node2" class="node">
<title>Node2</title>
<g id="a_node2"><a xlink:href="classsgns_1_1api_1_1_j_rpc_processor.html" target="_top" xlink:title=" ">
<polygon fill="white" stroke="#666666" points="129,-173 0,-173 0,-121 129,-121 129,-173"/>
<text text-anchor="middle" x="64.5" y="-161" font-family="Helvetica,sans-Serif" font-size="10.00">{sgns::api::JRpcProcessor</text>
<text text-anchor="start" x="8" y="-150" font-family="Helvetica,sans-Serif" font-size="10.00">||+ ~JRpcProcessor()</text>
<text text-anchor="start" x="8" y="-139" font-family="Helvetica,sans-Serif" font-size="10.00">+ registerHandlers()</text>
<text text-anchor="middle" x="64.5" y="-128" font-family="Helvetica,sans-Serif" font-size="10.00">}</text>
</a>
</g>
</g>
<!-- Node2&#45;&gt;Node1 -->
<g id="edge1" class="edge">
<title>Node2&#45;&gt;Node1</title>
<path fill="none" stroke="#63b8ff" d="M109.66,-114.33C127.51,-101.81 148.12,-87.36 166.58,-74.41"/>
<polygon fill="none" stroke="#63b8ff" points="108.02,-111.2 101.85,-119.81 112.04,-116.93 108.02,-111.2"/>
</g>
<!-- Node3 -->
<g id="node3" class="node">
<title>Node3</title>
<g id="a_node3"><a xlink:title=" ">
<polygon fill="white" stroke="#666666" points="107.5,-288.5 5.5,-288.5 5.5,-258.5 107.5,-258.5 107.5,-288.5"/>
<text text-anchor="middle" x="56.5" y="-276.5" font-family="Helvetica,sans-Serif" font-size="10.00">{boost::noncopyable</text>
<text text-anchor="middle" x="56.5" y="-265.5" font-family="Helvetica,sans-Serif" font-size="10.00">||}</text>
</a>
</g>
</g>
<!-- Node3&#45;&gt;Node2 -->
<g id="edge2" class="edge">
<title>Node3&#45;&gt;Node2</title>
<path fill="none" stroke="#8b1a1a" d="M58.14,-247.02C59.52,-225.48 61.49,-194.79 62.87,-173.3"/>
<polygon fill="none" stroke="#8b1a1a" points="54.66,-246.5 57.51,-256.71 61.65,-246.95 54.66,-246.5"/>
</g>
<!-- Node4 -->
<g id="node4" class="node">
<title>Node4</title>
<g id="a_node4"><a xlink:title=" ">
<polygon fill="white" stroke="#666666" points="418,-173 305,-173 305,-121 418,-121 418,-173"/>
<text text-anchor="start" x="313" y="-161" font-family="Helvetica,sans-Serif" font-size="10.00">{std::shared_ptr&lt; sgns</text>
<text text-anchor="middle" x="361.5" y="-150" font-family="Helvetica,sans-Serif" font-size="10.00">::api::StateApi &gt;</text>
<text text-anchor="start" x="313" y="-139" font-family="Helvetica,sans-Serif" font-size="10.00">||+ operator&#45;&gt;()</text>
<text text-anchor="middle" x="361.5" y="-128" font-family="Helvetica,sans-Serif" font-size="10.00">}</text>
</a>
</g>
</g>
<!-- Node4&#45;&gt;Node1 -->
<g id="edge3" class="edge">
<title>Node4&#45;&gt;Node1</title>
<path fill="none" stroke="#404040" d="M327.97,-120.68C312.72,-109.16 294.22,-95.19 276.81,-82.04"/>
<polygon fill="none" stroke="#404040" points="277.01,-82.19 269.81,-81.76 267.43,-74.95 274.63,-75.38 277.01,-82.19"/>
<text text-anchor="middle" x="314.5" y="-95" font-family="Helvetica,sans-Serif" font-size="10.00"> &#45;api_</text>
</g>
<!-- Node5 -->
<g id="node5" class="node">
<title>Node5</title>
<g id="a_node5"><a xlink:href="classsgns_1_1api_1_1_state_api.html" target="_top" xlink:title=" ">
<polygon fill="white" stroke="#666666" points="543,-327 426,-327 426,-220 543,-220 543,-327"/>
<text text-anchor="middle" x="484.5" y="-315" font-family="Helvetica,sans-Serif" font-size="10.00">{sgns::api::StateApi</text>
<text text-anchor="start" x="434" y="-304" font-family="Helvetica,sans-Serif" font-size="10.00">||+ ~StateApi()</text>
<text text-anchor="start" x="434" y="-293" font-family="Helvetica,sans-Serif" font-size="10.00">+ setApiService()</text>
<text text-anchor="start" x="434" y="-282" font-family="Helvetica,sans-Serif" font-size="10.00">+ getStorage()</text>
<text text-anchor="start" x="434" y="-271" font-family="Helvetica,sans-Serif" font-size="10.00">+ getStorage()</text>
<text text-anchor="start" x="434" y="-260" font-family="Helvetica,sans-Serif" font-size="10.00">+ getRuntimeVersion()</text>
<text text-anchor="start" x="434" y="-249" font-family="Helvetica,sans-Serif" font-size="10.00">+ subscribeStorage()</text>
<text text-anchor="start" x="434" y="-238" font-family="Helvetica,sans-Serif" font-size="10.00">+ unsubscribeStorage()</text>
<text text-anchor="middle" x="484.5" y="-227" font-family="Helvetica,sans-Serif" font-size="10.00">}</text>
</a>
</g>
</g>
<!-- Node5&#45;&gt;Node4 -->
<g id="edge4" class="edge">
<title>Node5&#45;&gt;Node4</title>
<path fill="none" stroke="#404040" d="M471.87,-219.5C467.61,-209.19 461.96,-199.09 454.5,-191 447.47,-183.38 438.82,-177 429.65,-171.69"/>
<polygon fill="none" stroke="#404040" points="429.71,-171.72 422.54,-172.48 419.08,-166.15 426.25,-165.39 429.71,-171.72"/>
<text text-anchor="middle" x="471.5" y="-194" font-family="Helvetica,sans-Serif" font-size="10.00"> +ptr</text>
</g>
<!-- Node6 -->
<g id="node6" class="node">
<title>Node6</title>
<g id="a_node6"><a xlink:title=" ">
<polygon fill="white" stroke="#666666" points="385.5,-294 279.5,-294 279.5,-253 385.5,-253 385.5,-294"/>
<text text-anchor="middle" x="332.5" y="-282" font-family="Helvetica,sans-Serif" font-size="10.00">{std::shared_ptr&lt; T &gt;</text>
<text text-anchor="start" x="287.5" y="-271" font-family="Helvetica,sans-Serif" font-size="10.00">||+ operator&#45;&gt;()</text>
<text text-anchor="middle" x="332.5" y="-260" font-family="Helvetica,sans-Serif" font-size="10.00">}</text>
</a>
</g>
</g>
<!-- Node6&#45;&gt;Node4 -->
<g id="edge5" class="edge">
<title>Node6&#45;&gt;Node4</title>
<path fill="none" stroke="orange" d="M339.65,-241.82C344.56,-220.72 351.01,-193.04 355.62,-173.23"/>
<polygon fill="orange" stroke="orange" points="336.3,-240.77 337.44,-251.3 343.12,-242.35 336.3,-240.77"/>
<text text-anchor="middle" x="400.5" y="-194" font-family="Helvetica,sans-Serif" font-size="10.00"> &lt; sgns::api::StateApi &gt;</text>
</g>
<!-- Node8 -->
<g id="node8" class="node">
<title>Node8</title>
<g id="a_node8"><a xlink:title=" ">
<polygon fill="white" stroke="#666666" points="275,-173 162,-173 162,-121 275,-121 275,-173"/>
<text text-anchor="start" x="170" y="-161" font-family="Helvetica,sans-Serif" font-size="10.00">{std::shared_ptr&lt; sgns</text>
<text text-anchor="middle" x="218.5" y="-150" font-family="Helvetica,sans-Serif" font-size="10.00">::api::JRpcServer &gt;</text>
<text text-anchor="start" x="170" y="-139" font-family="Helvetica,sans-Serif" font-size="10.00">||+ operator&#45;&gt;()</text>
<text text-anchor="middle" x="218.5" y="-128" font-family="Helvetica,sans-Serif" font-size="10.00">}</text>
</a>
</g>
</g>
<!-- Node6&#45;&gt;Node8 -->
<g id="edge9" class="edge">
<title>Node6&#45;&gt;Node8</title>
<path fill="none" stroke="orange" d="M289.66,-246.51C266.22,-231.5 240.39,-213.4 232.5,-202 226.71,-193.64 223.32,-183.05 221.33,-173.47"/>
<polygon fill="orange" stroke="orange" points="287.55,-249.32 297.88,-251.7 291.29,-243.4 287.55,-249.32"/>
<text text-anchor="middle" x="289" y="-194" font-family="Helvetica,sans-Serif" font-size="10.00"> &lt; sgns::api::JRpcServer &gt;</text>
</g>
<!-- Node7 -->
<g id="node7" class="node">
<title>Node7</title>
<g id="a_node7"><a xlink:title=" ">
<polygon fill="white" stroke="#666666" points="347,-404 318,-404 318,-374 347,-374 347,-404"/>
<text text-anchor="middle" x="332.5" y="-392" font-family="Helvetica,sans-Serif" font-size="10.00">{T</text>
<text text-anchor="middle" x="332.5" y="-381" font-family="Helvetica,sans-Serif" font-size="10.00">||}</text>
</a>
</g>
</g>
<!-- Node7&#45;&gt;Node6 -->
<g id="edge6" class="edge">
<title>Node7&#45;&gt;Node6</title>
<path fill="none" stroke="#404040" d="M332.5,-373.63C332.5,-357.03 332.5,-329.19 332.5,-307.24"/>
<polygon fill="none" stroke="#404040" points="332.5,-307.38 328.5,-301.38 332.5,-295.38 336.5,-301.38 332.5,-307.38"/>
<text text-anchor="middle" x="342.5" y="-348" font-family="Helvetica,sans-Serif" font-size="10.00"> +ptr</text>
</g>
<!-- Node8&#45;&gt;Node1 -->
<g id="edge7" class="edge">
<title>Node8&#45;&gt;Node1</title>
<path fill="none" stroke="#404040" d="M218.5,-120.68C218.5,-110.62 218.5,-98.7 218.5,-87.08"/>
<polygon fill="none" stroke="#404040" points="218.5,-87.11 214.5,-81.11 218.5,-75.11 222.5,-81.11 218.5,-87.11"/>
<text text-anchor="middle" x="237.5" y="-95" font-family="Helvetica,sans-Serif" font-size="10.00"> &#45;server_</text>
</g>
<!-- Node9 -->
<g id="node9" class="node">
<title>Node9</title>
<g id="a_node9"><a xlink:href="classsgns_1_1api_1_1_j_rpc_server.html" target="_top" xlink:title=" ">
<polygon fill="white" stroke="#666666" points="239,-310.5 126,-310.5 126,-236.5 239,-236.5 239,-310.5"/>
<text text-anchor="middle" x="182.5" y="-298.5" font-family="Helvetica,sans-Serif" font-size="10.00">{sgns::api::JRpcServer</text>
<text text-anchor="start" x="134" y="-287.5" font-family="Helvetica,sans-Serif" font-size="10.00">||+ ~JRpcServer()</text>
<text text-anchor="start" x="134" y="-276.5" font-family="Helvetica,sans-Serif" font-size="10.00">+ registerHandler()</text>
<text text-anchor="start" x="134" y="-265.5" font-family="Helvetica,sans-Serif" font-size="10.00">+ processJsonData()</text>
<text text-anchor="start" x="134" y="-254.5" font-family="Helvetica,sans-Serif" font-size="10.00">+ processData()</text>
<text text-anchor="middle" x="182.5" y="-243.5" font-family="Helvetica,sans-Serif" font-size="10.00">}</text>
</a>
</g>
</g>
<!-- Node9&#45;&gt;Node8 -->
<g id="edge8" class="edge">
<title>Node9&#45;&gt;Node8</title>
<path fill="none" stroke="#404040" d="M177.88,-236.28C177.32,-221.81 178.34,-205.23 183.5,-191 184.36,-188.62 185.41,-186.28 186.61,-184"/>
<polygon fill="none" stroke="#404040" points="186.63,-183.97 186.48,-176.76 193.07,-173.84 193.22,-181.05 186.63,-183.97"/>
<text text-anchor="middle" x="193.5" y="-194" font-family="Helvetica,sans-Serif" font-size="10.00"> +ptr</text>
</g>
</g>
</svg>
