<?xml version="1.0" encoding="UTF-8" standalone="no"?>
<!DOCTYPE svg PUBLIC "-//W3C//DTD SVG 1.1//EN"
 "http://www.w3.org/Graphics/SVG/1.1/DTD/svg11.dtd">
<!-- Generated by graphviz version 7.0.5 (20221223.1930)
 -->
<!-- Title: sgns::api::ChainApiImpl Pages: 1 -->
<svg width="550pt" height="522pt"
 viewBox="0.00 0.00 549.50 522.00" xmlns="http://www.w3.org/2000/svg" xmlns:xlink="http://www.w3.org/1999/xlink">
<g id="graph0" class="graph" transform="scale(1 1) rotate(0) translate(4 518)">
<title>sgns::api::ChainApiImpl</title>
<!-- Node1 -->
<g id="node1" class="node">
<title>Node1</title>
<g id="a_node1"><a xlink:title=" ">
<polygon fill="#999999" stroke="#666666" points="270.5,-96 150.5,-96 150.5,0 270.5,0 270.5,-96"/>
<text text-anchor="middle" x="210.5" y="-84" font-family="Helvetica,sans-Serif" font-size="10.00">{sgns::api::ChainApiImpl</text>
<text text-anchor="start" x="158.5" y="-73" font-family="Helvetica,sans-Serif" font-size="10.00">||+ ~ChainApiImpl()</text>
<text text-anchor="start" x="158.5" y="-62" font-family="Helvetica,sans-Serif" font-size="10.00">+ ChainApiImpl()</text>
<text text-anchor="start" x="158.5" y="-51" font-family="Helvetica,sans-Serif" font-size="10.00">+ getBlockHash()</text>
<text text-anchor="start" x="158.5" y="-40" font-family="Helvetica,sans-Serif" font-size="10.00">+ getBlockHash()</text>
<text text-anchor="start" x="158.5" y="-29" font-family="Helvetica,sans-Serif" font-size="10.00">+ getBlockHash()</text>
<text text-anchor="start" x="158.5" y="-18" font-family="Helvetica,sans-Serif" font-size="10.00">+ getBlockHash()</text>
<text text-anchor="middle" x="210.5" y="-7" font-family="Helvetica,sans-Serif" font-size="10.00">}</text>
</a>
</g>
</g>
<!-- Node2 -->
<g id="node2" class="node">
<title>Node2</title>
<g id="a_node2"><a xlink:href="classsgns_1_1api_1_1_chain_api.html" target="_top" xlink:title=" ">
<polygon fill="white" stroke="#666666" points="101,-228 0,-228 0,-143 101,-143 101,-228"/>
<text text-anchor="middle" x="50.5" y="-216" font-family="Helvetica,sans-Serif" font-size="10.00">{sgns::api::ChainApi</text>
<text text-anchor="start" x="8" y="-205" font-family="Helvetica,sans-Serif" font-size="10.00">||+ ~ChainApi()</text>
<text text-anchor="start" x="8" y="-194" font-family="Helvetica,sans-Serif" font-size="10.00">+ getBlockHash()</text>
<text text-anchor="start" x="8" y="-183" font-family="Helvetica,sans-Serif" font-size="10.00">+ getBlockHash()</text>
<text text-anchor="start" x="8" y="-172" font-family="Helvetica,sans-Serif" font-size="10.00">+ getBlockHash()</text>
<text text-anchor="start" x="8" y="-161" font-family="Helvetica,sans-Serif" font-size="10.00">+ getBlockHash()</text>
<text text-anchor="middle" x="50.5" y="-150" font-family="Helvetica,sans-Serif" font-size="10.00">}</text>
</a>
</g>
</g>
<!-- Node2&#45;&gt;Node1 -->
<g id="edge1" class="edge">
<title>Node2&#45;&gt;Node1</title>
<path fill="none" stroke="#63b8ff" d="M108.52,-135.37C123.56,-122.63 139.72,-108.94 154.64,-96.3"/>
<polygon fill="none" stroke="#63b8ff" points="106.34,-132.63 100.97,-141.76 110.86,-137.97 106.34,-132.63"/>
</g>
<!-- Node3 -->
<g id="node3" class="node">
<title>Node3</title>
<g id="a_node3"><a xlink:title=" ">
<polygon fill="white" stroke="#666666" points="301.5,-211.5 119.5,-211.5 119.5,-159.5 301.5,-159.5 301.5,-211.5"/>
<text text-anchor="start" x="127.5" y="-199.5" font-family="Helvetica,sans-Serif" font-size="10.00">{std::shared_ptr&lt; sgns</text>
<text text-anchor="middle" x="210.5" y="-188.5" font-family="Helvetica,sans-Serif" font-size="10.00">::blockchain::BlockHeaderRepository &gt;</text>
<text text-anchor="start" x="127.5" y="-177.5" font-family="Helvetica,sans-Serif" font-size="10.00">||+ operator&#45;&gt;()</text>
<text text-anchor="middle" x="210.5" y="-166.5" font-family="Helvetica,sans-Serif" font-size="10.00">}</text>
</a>
</g>
</g>
<!-- Node3&#45;&gt;Node1 -->
<g id="edge2" class="edge">
<title>Node3&#45;&gt;Node1</title>
<path fill="none" stroke="#404040" d="M210.5,-159.01C210.5,-144.89 210.5,-126.7 210.5,-109.18"/>
<polygon fill="none" stroke="#404040" points="210.5,-109.21 206.5,-103.21 210.5,-97.21 214.5,-103.21 210.5,-109.21"/>
<text text-anchor="middle" x="239.5" y="-117" font-family="Helvetica,sans-Serif" font-size="10.00"> &#45;block_repo_</text>
</g>
<!-- Node4 -->
<g id="node4" class="node">
<title>Node4</title>
<g id="a_node4"><a xlink:href="classsgns_1_1blockchain_1_1_block_header_repository.html" target="_top" xlink:title=" ">
<polygon fill="white" stroke="#666666" points="259.5,-420.5 107.5,-420.5 107.5,-302.5 259.5,-302.5 259.5,-420.5"/>
<text text-anchor="start" x="115.5" y="-408.5" font-family="Helvetica,sans-Serif" font-size="10.00">{sgns::blockchain::BlockHeader</text>
<text text-anchor="middle" x="183.5" y="-397.5" font-family="Helvetica,sans-Serif" font-size="10.00">Repository</text>
<text text-anchor="start" x="115.5" y="-386.5" font-family="Helvetica,sans-Serif" font-size="10.00">||+ ~BlockHeaderRepository()</text>
<text text-anchor="start" x="115.5" y="-375.5" font-family="Helvetica,sans-Serif" font-size="10.00">+ getNumberByHash()</text>
<text text-anchor="start" x="115.5" y="-364.5" font-family="Helvetica,sans-Serif" font-size="10.00">+ getHashByNumber()</text>
<text text-anchor="start" x="115.5" y="-353.5" font-family="Helvetica,sans-Serif" font-size="10.00">+ getBlockHeader()</text>
<text text-anchor="start" x="115.5" y="-342.5" font-family="Helvetica,sans-Serif" font-size="10.00">+ getBlockStatus()</text>
<text text-anchor="start" x="115.5" y="-331.5" font-family="Helvetica,sans-Serif" font-size="10.00">+ getNumberById()</text>
<text text-anchor="start" x="115.5" y="-320.5" font-family="Helvetica,sans-Serif" font-size="10.00">+ getHashById()</text>
<text text-anchor="middle" x="183.5" y="-309.5" font-family="Helvetica,sans-Serif" font-size="10.00">}</text>
</a>
</g>
</g>
<!-- Node4&#45;&gt;Node3 -->
<g id="edge3" class="edge">
<title>Node4&#45;&gt;Node3</title>
<path fill="none" stroke="#404040" d="M180.27,-302.06C180.4,-283.94 181.71,-264 185.5,-246 187.05,-238.65 189.5,-231.06 192.28,-223.87"/>
<polygon fill="none" stroke="#404040" points="192.32,-223.76 190.97,-216.68 196.98,-212.71 198.34,-219.79 192.32,-223.76"/>
<text text-anchor="middle" x="195.5" y="-254.5" font-family="Helvetica,sans-Serif" font-size="10.00"> +ptr</text>
</g>
<!-- Node5 -->
<g id="node5" class="node">
<title>Node5</title>
<g id="a_node5"><a xlink:title=" ">
<polygon fill="white" stroke="#666666" points="383.5,-382 277.5,-382 277.5,-341 383.5,-341 383.5,-382"/>
<text text-anchor="middle" x="330.5" y="-370" font-family="Helvetica,sans-Serif" font-size="10.00">{std::shared_ptr&lt; T &gt;</text>
<text text-anchor="start" x="285.5" y="-359" font-family="Helvetica,sans-Serif" font-size="10.00">||+ operator&#45;&gt;()</text>
<text text-anchor="middle" x="330.5" y="-348" font-family="Helvetica,sans-Serif" font-size="10.00">}</text>
</a>
</g>
</g>
<!-- Node5&#45;&gt;Node3 -->
<g id="edge4" class="edge">
<title>Node5&#45;&gt;Node3</title>
<path fill="none" stroke="orange" d="M309.7,-331.7C298.42,-317.12 283.69,-299.66 268.5,-286 257.78,-276.36 250.49,-279.28 241.5,-268 228.38,-251.55 220.37,-228.93 215.79,-211.7"/>
<polygon fill="orange" stroke="orange" points="306.85,-333.73 315.68,-339.59 312.43,-329.51 306.85,-333.73"/>
<text text-anchor="start" x="241.5" y="-260" font-family="Helvetica,sans-Serif" font-size="10.00"> &lt; sgns::blockchain</text>
<text text-anchor="middle" x="299" y="-249" font-family="Helvetica,sans-Serif" font-size="10.00">::BlockHeaderRepository &gt;</text>
</g>
<!-- Node7 -->
<g id="node7" class="node">
<title>Node7</title>
<g id="a_node7"><a xlink:title=" ">
<polygon fill="white" stroke="#666666" points="445,-211.5 320,-211.5 320,-159.5 445,-159.5 445,-211.5"/>
<text text-anchor="start" x="328" y="-199.5" font-family="Helvetica,sans-Serif" font-size="10.00">{std::shared_ptr&lt; sgns</text>
<text text-anchor="middle" x="382.5" y="-188.5" font-family="Helvetica,sans-Serif" font-size="10.00">::blockchain::BlockTree &gt;</text>
<text text-anchor="start" x="328" y="-177.5" font-family="Helvetica,sans-Serif" font-size="10.00">||+ operator&#45;&gt;()</text>
<text text-anchor="middle" x="382.5" y="-166.5" font-family="Helvetica,sans-Serif" font-size="10.00">}</text>
</a>
</g>
</g>
<!-- Node5&#45;&gt;Node7 -->
<g id="edge8" class="edge">
<title>Node5&#45;&gt;Node7</title>
<path fill="none" stroke="orange" d="M339.75,-329.54C349.78,-295.97 365.61,-243.03 374.93,-211.84"/>
<polygon fill="orange" stroke="orange" points="336.41,-328.51 336.9,-339.09 343.12,-330.51 336.41,-328.51"/>
<text text-anchor="start" x="364.5" y="-260" font-family="Helvetica,sans-Serif" font-size="10.00"> &lt; sgns::blockchain</text>
<text text-anchor="middle" x="406" y="-249" font-family="Helvetica,sans-Serif" font-size="10.00">::BlockTree &gt;</text>
</g>
<!-- Node6 -->
<g id="node6" class="node">
<title>Node6</title>
<g id="a_node6"><a xlink:title=" ">
<polygon fill="white" stroke="#666666" points="345,-514 316,-514 316,-484 345,-484 345,-514"/>
<text text-anchor="middle" x="330.5" y="-502" font-family="Helvetica,sans-Serif" font-size="10.00">{T</text>
<text text-anchor="middle" x="330.5" y="-491" font-family="Helvetica,sans-Serif" font-size="10.00">||}</text>
</a>
</g>
</g>
<!-- Node6&#45;&gt;Node5 -->
<g id="edge5" class="edge">
<title>Node6&#45;&gt;Node5</title>
<path fill="none" stroke="#404040" d="M330.5,-483.76C330.5,-462.85 330.5,-423.29 330.5,-395.04"/>
<polygon fill="none" stroke="#404040" points="330.5,-395.11 326.5,-389.11 330.5,-383.11 334.5,-389.11 330.5,-395.11"/>
<text text-anchor="middle" x="340.5" y="-458" font-family="Helvetica,sans-Serif" font-size="10.00"> +ptr</text>
</g>
<!-- Node7&#45;&gt;Node1 -->
<g id="edge6" class="edge">
<title>Node7&#45;&gt;Node1</title>
<path fill="none" stroke="#404040" d="M350.15,-159.01C330.56,-143.59 304.8,-123.29 280.74,-104.33"/>
<polygon fill="none" stroke="#404040" points="280.69,-104.29 273.5,-103.72 271.26,-96.87 278.45,-97.44 280.69,-104.29"/>
<text text-anchor="middle" x="335.5" y="-117" font-family="Helvetica,sans-Serif" font-size="10.00"> &#45;block_tree_</text>
</g>
<!-- Node8 -->
<g id="node8" class="node">
<title>Node8</title>
<g id="a_node8"><a xlink:href="structsgns_1_1blockchain_1_1_block_tree.html" target="_top" xlink:title=" ">
<polygon fill="white" stroke="#666666" points="541.5,-437 401.5,-437 401.5,-286 541.5,-286 541.5,-437"/>
<text text-anchor="middle" x="471.5" y="-425" font-family="Helvetica,sans-Serif" font-size="10.00">{sgns::blockchain::BlockTree</text>
<text text-anchor="start" x="409.5" y="-414" font-family="Helvetica,sans-Serif" font-size="10.00">||+ ~BlockTree()</text>
<text text-anchor="start" x="409.5" y="-403" font-family="Helvetica,sans-Serif" font-size="10.00">+ getBlockHeader()</text>
<text text-anchor="start" x="409.5" y="-392" font-family="Helvetica,sans-Serif" font-size="10.00">+ getBlockBody()</text>
<text text-anchor="start" x="409.5" y="-381" font-family="Helvetica,sans-Serif" font-size="10.00">+ getBlockJustification()</text>
<text text-anchor="start" x="409.5" y="-370" font-family="Helvetica,sans-Serif" font-size="10.00">+ addBlockHeader()</text>
<text text-anchor="start" x="409.5" y="-359" font-family="Helvetica,sans-Serif" font-size="10.00">+ addBlockBody()</text>
<text text-anchor="start" x="409.5" y="-348" font-family="Helvetica,sans-Serif" font-size="10.00">+ addBlock()</text>
<text text-anchor="start" x="409.5" y="-337" font-family="Helvetica,sans-Serif" font-size="10.00">+ finalize()</text>
<text text-anchor="start" x="409.5" y="-326" font-family="Helvetica,sans-Serif" font-size="10.00">+ getChainByBlock()</text>
<text text-anchor="start" x="409.5" y="-315" font-family="Helvetica,sans-Serif" font-size="10.00">+ getChainByBlock()</text>
<text text-anchor="start" x="409.5" y="-304" font-family="Helvetica,sans-Serif" font-size="10.00">and 8 more...</text>
<text text-anchor="middle" x="471.5" y="-293" font-family="Helvetica,sans-Serif" font-size="10.00">}</text>
</a>
</g>
</g>
<!-- Node8&#45;&gt;Node7 -->
<g id="edge7" class="edge">
<title>Node8&#45;&gt;Node7</title>
<path fill="none" stroke="#404040" d="M464.42,-285.6C461.12,-271.85 456.36,-258.05 449.5,-246 444.25,-236.77 437.04,-228.23 429.28,-220.68"/>
<polygon fill="none" stroke="#404040" points="429.22,-220.62 422.08,-219.56 420.32,-212.57 427.45,-213.62 429.22,-220.62"/>
<text text-anchor="middle" x="469.5" y="-254.5" font-family="Helvetica,sans-Serif" font-size="10.00"> +ptr</text>
</g>
</g>
</svg>
