<?xml version="1.0" encoding="UTF-8" standalone="no"?>
<!DOCTYPE svg PUBLIC "-//W3C//DTD SVG 1.1//EN"
 "http://www.w3.org/Graphics/SVG/1.1/DTD/svg11.dtd">
<!-- Generated by graphviz version 7.0.5 (20221223.1930)
 -->
<!-- Title: sgns::processing::ProcessingSubTaskQueueManager Pages: 1 -->
<svg width="1235pt" height="959pt"
 viewBox="0.00 0.00 1235.00 959.00" xmlns="http://www.w3.org/2000/svg" xmlns:xlink="http://www.w3.org/1999/xlink">
<g id="graph0" class="graph" transform="scale(1 1) rotate(0) translate(4 955)">
<title>sgns::processing::ProcessingSubTaskQueueManager</title>
<!-- Node1 -->
<g id="node1" class="node">
<title>Node1</title>
<g id="a_node1"><a xlink:title=" ">
<polygon fill="#999999" stroke="#666666" points="698,-349 508,-349 508,0 698,0 698,-349"/>
<text text-anchor="start" x="516" y="-337" font-family="Helvetica,sans-Serif" font-size="10.00">{sgns::processing::Processing</text>
<text text-anchor="middle" x="603" y="-326" font-family="Helvetica,sans-Serif" font-size="10.00">SubTaskQueueManager</text>
<text text-anchor="start" x="516" y="-315" font-family="Helvetica,sans-Serif" font-size="10.00">|&#45; m_subTaskQueueAssignment</text>
<text text-anchor="start" x="516" y="-304" font-family="Helvetica,sans-Serif" font-size="10.00">EventSink</text>
<text text-anchor="start" x="516" y="-293" font-family="Helvetica,sans-Serif" font-size="10.00">&#45; m_dltQueueResponseTimeout</text>
<text text-anchor="start" x="516" y="-282" font-family="Helvetica,sans-Serif" font-size="10.00">&#45; m_queueResponseTimeout</text>
<text text-anchor="start" x="516" y="-271" font-family="Helvetica,sans-Serif" font-size="10.00">&#45; m_dltGrabSubTaskTimeout</text>
<text text-anchor="start" x="516" y="-260" font-family="Helvetica,sans-Serif" font-size="10.00">&#45; m_processingTimeout</text>
<text text-anchor="start" x="516" y="-249" font-family="Helvetica,sans-Serif" font-size="10.00">|+ ProcessingSubTaskQueueManager()</text>
<text text-anchor="start" x="516" y="-238" font-family="Helvetica,sans-Serif" font-size="10.00">+ ~ProcessingSubTaskQueueManager()</text>
<text text-anchor="start" x="516" y="-227" font-family="Helvetica,sans-Serif" font-size="10.00">+ SetProcessingTimeout()</text>
<text text-anchor="start" x="516" y="-216" font-family="Helvetica,sans-Serif" font-size="10.00">+ CreateQueue()</text>
<text text-anchor="start" x="516" y="-205" font-family="Helvetica,sans-Serif" font-size="10.00">+ GrabSubTask()</text>
<text text-anchor="start" x="516" y="-194" font-family="Helvetica,sans-Serif" font-size="10.00">+ MoveOwnershipTo()</text>
<text text-anchor="start" x="516" y="-183" font-family="Helvetica,sans-Serif" font-size="10.00">+ HasOwnership()</text>
<text text-anchor="start" x="516" y="-172" font-family="Helvetica,sans-Serif" font-size="10.00">+ ProcessSubTaskQueueMessage()</text>
<text text-anchor="start" x="516" y="-161" font-family="Helvetica,sans-Serif" font-size="10.00">+ ProcessSubTaskQueueRequest</text>
<text text-anchor="start" x="516" y="-150" font-family="Helvetica,sans-Serif" font-size="10.00">Message()</text>
<text text-anchor="start" x="516" y="-139" font-family="Helvetica,sans-Serif" font-size="10.00">+ GetQueueSnapshot()</text>
<text text-anchor="start" x="516" y="-128" font-family="Helvetica,sans-Serif" font-size="10.00">+ ChangeSubTaskProcessingStates()</text>
<text text-anchor="start" x="516" y="-117" font-family="Helvetica,sans-Serif" font-size="10.00">+ IsProcessed()</text>
<text text-anchor="start" x="516" y="-106" font-family="Helvetica,sans-Serif" font-size="10.00">+ SetSubTaskQueueAssignment</text>
<text text-anchor="start" x="516" y="-95" font-family="Helvetica,sans-Serif" font-size="10.00">EventSink()</text>
<text text-anchor="start" x="516" y="-84" font-family="Helvetica,sans-Serif" font-size="10.00">&#45; UpdateQueue()</text>
<text text-anchor="start" x="516" y="-73" font-family="Helvetica,sans-Serif" font-size="10.00">&#45; HandleQueueRequestTimeout()</text>
<text text-anchor="start" x="516" y="-62" font-family="Helvetica,sans-Serif" font-size="10.00">&#45; PublishSubTaskQueue()</text>
<text text-anchor="start" x="516" y="-51" font-family="Helvetica,sans-Serif" font-size="10.00">&#45; ProcessPendingSubTaskGrabbing()</text>
<text text-anchor="start" x="516" y="-40" font-family="Helvetica,sans-Serif" font-size="10.00">&#45; GrabSubTasks()</text>
<text text-anchor="start" x="516" y="-29" font-family="Helvetica,sans-Serif" font-size="10.00">&#45; HandleGrabSubTaskTimeout()</text>
<text text-anchor="start" x="516" y="-18" font-family="Helvetica,sans-Serif" font-size="10.00">&#45; LogQueue()</text>
<text text-anchor="middle" x="603" y="-7" font-family="Helvetica,sans-Serif" font-size="10.00">}</text>
</a>
</g>
</g>
<!-- Node2 -->
<g id="node2" class="node">
<title>Node2</title>
<g id="a_node2"><a xlink:title=" ">
<polygon fill="white" stroke="#666666" points="208.5,-742 69.5,-742 69.5,-679 208.5,-679 208.5,-742"/>
<text text-anchor="start" x="77.5" y="-730" font-family="Helvetica,sans-Serif" font-size="10.00">{std::shared_ptr&lt; sgns</text>
<text text-anchor="start" x="77.5" y="-719" font-family="Helvetica,sans-Serif" font-size="10.00">::processing::ProcessingSub</text>
<text text-anchor="middle" x="139" y="-708" font-family="Helvetica,sans-Serif" font-size="10.00">TaskQueueChannel &gt;</text>
<text text-anchor="start" x="77.5" y="-697" font-family="Helvetica,sans-Serif" font-size="10.00">||+ operator&#45;&gt;()</text>
<text text-anchor="middle" x="139" y="-686" font-family="Helvetica,sans-Serif" font-size="10.00">}</text>
</a>
</g>
</g>
<!-- Node2&#45;&gt;Node1 -->
<g id="edge1" class="edge">
<title>Node2&#45;&gt;Node1</title>
<path fill="none" stroke="#404040" d="M141.44,-678.55C147.62,-618.18 168.67,-483 237,-396 304.04,-310.65 413.99,-250.83 495.91,-215.25"/>
<polygon fill="none" stroke="#404040" points="495.92,-215.24 499.87,-209.21 506.96,-210.53 503.01,-216.56 495.92,-215.24"/>
<text text-anchor="middle" x="277.5" y="-485.5" font-family="Helvetica,sans-Serif" font-size="10.00"> &#45;m_queueChannel</text>
</g>
<!-- Node3 -->
<g id="node3" class="node">
<title>Node3</title>
<g id="a_node3"><a xlink:href="classsgns_1_1processing_1_1_processing_sub_task_queue_channel.html" target="_top" xlink:title=" ">
<polygon fill="white" stroke="#666666" points="192,-874 0,-874 0,-800 192,-800 192,-874"/>
<text text-anchor="start" x="8" y="-862" font-family="Helvetica,sans-Serif" font-size="10.00">{sgns::processing::Processing</text>
<text text-anchor="middle" x="96" y="-851" font-family="Helvetica,sans-Serif" font-size="10.00">SubTaskQueueChannel</text>
<text text-anchor="start" x="8" y="-840" font-family="Helvetica,sans-Serif" font-size="10.00">||+ ~ProcessingSubTaskQueueChannel()</text>
<text text-anchor="start" x="8" y="-829" font-family="Helvetica,sans-Serif" font-size="10.00">+ RequestQueueOwnership()</text>
<text text-anchor="start" x="8" y="-818" font-family="Helvetica,sans-Serif" font-size="10.00">+ PublishQueue()</text>
<text text-anchor="middle" x="96" y="-807" font-family="Helvetica,sans-Serif" font-size="10.00">}</text>
</a>
</g>
</g>
<!-- Node3&#45;&gt;Node2 -->
<g id="edge2" class="edge">
<title>Node3&#45;&gt;Node2</title>
<path fill="none" stroke="#404040" d="M91.45,-799.85C91.11,-786.91 92.26,-772.46 97,-760 97.89,-757.66 98.95,-755.35 100.14,-753.1"/>
<polygon fill="none" stroke="#404040" points="100.1,-753.16 99.94,-745.95 106.53,-743.03 106.69,-750.24 100.1,-753.16"/>
<text text-anchor="middle" x="107" y="-768.5" font-family="Helvetica,sans-Serif" font-size="10.00"> +ptr</text>
</g>
<!-- Node4 -->
<g id="node4" class="node">
<title>Node4</title>
<g id="a_node4"><a xlink:title=" ">
<polygon fill="white" stroke="#666666" points="557,-857.5 451,-857.5 451,-816.5 557,-816.5 557,-857.5"/>
<text text-anchor="middle" x="504" y="-845.5" font-family="Helvetica,sans-Serif" font-size="10.00">{std::shared_ptr&lt; T &gt;</text>
<text text-anchor="start" x="459" y="-834.5" font-family="Helvetica,sans-Serif" font-size="10.00">||+ operator&#45;&gt;()</text>
<text text-anchor="middle" x="504" y="-823.5" font-family="Helvetica,sans-Serif" font-size="10.00">}</text>
</a>
</g>
</g>
<!-- Node4&#45;&gt;Node2 -->
<g id="edge3" class="edge">
<title>Node4&#45;&gt;Node2</title>
<path fill="none" stroke="orange" d="M439.16,-828.57C337.18,-816.58 149.77,-793.17 140,-782 130.73,-771.41 129.59,-756.1 131.14,-742.46"/>
<polygon fill="orange" stroke="orange" points="438.72,-832.04 449.06,-829.73 439.53,-825.09 438.72,-832.04"/>
<text text-anchor="start" x="140" y="-774" font-family="Helvetica,sans-Serif" font-size="10.00"> &lt; sgns::processing</text>
<text text-anchor="middle" x="222.5" y="-763" font-family="Helvetica,sans-Serif" font-size="10.00">::ProcessingSubTaskQueueChannel &gt;</text>
</g>
<!-- Node6 -->
<g id="node6" class="node">
<title>Node6</title>
<g id="a_node6"><a xlink:title=" ">
<polygon fill="white" stroke="#666666" points="551,-661 435,-661 435,-598 551,-598 551,-661"/>
<text text-anchor="start" x="443" y="-649" font-family="Helvetica,sans-Serif" font-size="10.00">{std::shared_ptr&lt; boost</text>
<text text-anchor="middle" x="493" y="-638" font-family="Helvetica,sans-Serif" font-size="10.00">::asio::io_context &gt;</text>
<text text-anchor="start" x="443" y="-627" font-family="Helvetica,sans-Serif" font-size="10.00">|+ ptr</text>
<text text-anchor="start" x="443" y="-616" font-family="Helvetica,sans-Serif" font-size="10.00">|+ operator&#45;&gt;()</text>
<text text-anchor="middle" x="493" y="-605" font-family="Helvetica,sans-Serif" font-size="10.00">}</text>
</a>
</g>
</g>
<!-- Node4&#45;&gt;Node6 -->
<g id="edge6" class="edge">
<title>Node4&#45;&gt;Node6</title>
<path fill="none" stroke="orange" d="M558.25,-810.07C568.59,-802.52 578.04,-793.22 584,-782 588.59,-773.37 584.66,-769.76 584,-760 581.55,-723.75 592.92,-709.38 573,-679 569.66,-673.91 561.41,-667.63 551.42,-661.31"/>
<polygon fill="orange" stroke="orange" points="556.63,-806.95 550.26,-815.41 560.52,-812.77 556.63,-806.95"/>
<text text-anchor="middle" x="643.5" y="-768.5" font-family="Helvetica,sans-Serif" font-size="10.00"> &lt; boost::asio::io_context &gt;</text>
</g>
<!-- Node9 -->
<g id="node9" class="node">
<title>Node9</title>
<g id="a_node9"><a xlink:title=" ">
<polygon fill="white" stroke="#666666" points="404.5,-661 249.5,-661 249.5,-598 404.5,-598 404.5,-661"/>
<text text-anchor="start" x="257.5" y="-649" font-family="Helvetica,sans-Serif" font-size="10.00">{std::shared_ptr&lt; SGProcessing</text>
<text text-anchor="middle" x="327" y="-638" font-family="Helvetica,sans-Serif" font-size="10.00">::SubTaskQueue &gt;</text>
<text text-anchor="start" x="257.5" y="-627" font-family="Helvetica,sans-Serif" font-size="10.00">|+ ptr</text>
<text text-anchor="start" x="257.5" y="-616" font-family="Helvetica,sans-Serif" font-size="10.00">|+ operator&#45;&gt;()</text>
<text text-anchor="middle" x="327" y="-605" font-family="Helvetica,sans-Serif" font-size="10.00">}</text>
</a>
</g>
</g>
<!-- Node4&#45;&gt;Node9 -->
<g id="edge10" class="edge">
<title>Node4&#45;&gt;Node9</title>
<path fill="none" stroke="orange" d="M439.74,-830.04C406.73,-823.51 368.77,-809.98 346,-782 318.39,-748.08 318.48,-694.95 322.03,-661.46"/>
<polygon fill="orange" stroke="orange" points="438.77,-833.42 449.23,-831.73 439.99,-826.53 438.77,-833.42"/>
<text text-anchor="middle" x="423" y="-768.5" font-family="Helvetica,sans-Serif" font-size="10.00"> &lt; SGProcessing::SubTaskQueue &gt;</text>
</g>
<!-- Node19 -->
<g id="node19" class="node">
<title>Node19</title>
<g id="a_node19"><a xlink:title=" ">
<polygon fill="white" stroke="#666666" points="564,-742 444,-742 444,-679 564,-679 564,-742"/>
<text text-anchor="start" x="452" y="-730" font-family="Helvetica,sans-Serif" font-size="10.00">{std::shared_ptr&lt; spdlog</text>
<text text-anchor="middle" x="504" y="-719" font-family="Helvetica,sans-Serif" font-size="10.00">::logger &gt;</text>
<text text-anchor="start" x="452" y="-708" font-family="Helvetica,sans-Serif" font-size="10.00">|+ ptr</text>
<text text-anchor="start" x="452" y="-697" font-family="Helvetica,sans-Serif" font-size="10.00">|+ operator&#45;&gt;()</text>
<text text-anchor="middle" x="504" y="-686" font-family="Helvetica,sans-Serif" font-size="10.00">}</text>
</a>
</g>
</g>
<!-- Node4&#45;&gt;Node19 -->
<g id="edge25" class="edge">
<title>Node4&#45;&gt;Node19</title>
<path fill="none" stroke="orange" d="M504,-804.86C504,-785.74 504,-761.35 504,-742.3"/>
<polygon fill="orange" stroke="orange" points="500.5,-804.76 504,-814.76 507.5,-804.76 500.5,-804.76"/>
<text text-anchor="middle" x="543.5" y="-768.5" font-family="Helvetica,sans-Serif" font-size="10.00"> &lt; spdlog::logger &gt;</text>
</g>
<!-- Node5 -->
<g id="node5" class="node">
<title>Node5</title>
<g id="a_node5"><a xlink:title=" ">
<polygon fill="white" stroke="#666666" points="758.5,-951 729.5,-951 729.5,-921 758.5,-921 758.5,-951"/>
<text text-anchor="middle" x="744" y="-939" font-family="Helvetica,sans-Serif" font-size="10.00">{T</text>
<text text-anchor="middle" x="744" y="-928" font-family="Helvetica,sans-Serif" font-size="10.00">||}</text>
</a>
</g>
</g>
<!-- Node5&#45;&gt;Node4 -->
<g id="edge4" class="edge">
<title>Node5&#45;&gt;Node4</title>
<path fill="none" stroke="#404040" d="M729.35,-929.08C697.49,-916.2 620.35,-885.03 565.21,-862.74"/>
<polygon fill="none" stroke="#404040" points="565.42,-862.82 558.35,-864.28 554.29,-858.33 561.35,-856.87 565.42,-862.82"/>
<text text-anchor="middle" x="669" y="-895" font-family="Helvetica,sans-Serif" font-size="10.00"> +ptr</text>
</g>
<!-- Node12 -->
<g id="node12" class="node">
<title>Node12</title>
<g id="a_node12"><a xlink:title=" ">
<polygon fill="white" stroke="#666666" points="1078.5,-852 1005.5,-852 1005.5,-822 1078.5,-822 1078.5,-852"/>
<text text-anchor="middle" x="1042" y="-840" font-family="Helvetica,sans-Serif" font-size="10.00">{std::list&lt; T &gt;</text>
<text text-anchor="middle" x="1042" y="-829" font-family="Helvetica,sans-Serif" font-size="10.00">||}</text>
</a>
</g>
</g>
<!-- Node5&#45;&gt;Node12 -->
<g id="edge14" class="edge">
<title>Node5&#45;&gt;Node12</title>
<path fill="none" stroke="#404040" d="M758.75,-931.83C794.65,-923.93 889.19,-901.96 965,-874 977.33,-869.45 990.4,-863.71 1002.21,-858.16"/>
<polygon fill="none" stroke="#404040" points="1002.34,-858.09 1006.01,-851.89 1013.15,-852.89 1009.48,-859.1 1002.34,-858.09"/>
<text text-anchor="middle" x="935.5" y="-895" font-family="Helvetica,sans-Serif" font-size="10.00"> +elements</text>
</g>
<!-- Node18 -->
<g id="node18" class="node">
<title>Node18</title>
<g id="a_node18"><a xlink:title=" ">
<polygon fill="white" stroke="#666666" points="787.5,-852 700.5,-852 700.5,-822 787.5,-822 787.5,-852"/>
<text text-anchor="middle" x="744" y="-840" font-family="Helvetica,sans-Serif" font-size="10.00">{std::vector&lt; T &gt;</text>
<text text-anchor="middle" x="744" y="-829" font-family="Helvetica,sans-Serif" font-size="10.00">||}</text>
</a>
</g>
</g>
<!-- Node5&#45;&gt;Node18 -->
<g id="edge23" class="edge">
<title>Node5&#45;&gt;Node18</title>
<path fill="none" stroke="#404040" d="M744,-920.69C744,-906.14 744,-883.26 744,-865.25"/>
<polygon fill="none" stroke="#404040" points="744,-865.27 740,-859.27 744,-853.27 748,-859.27 744,-865.27"/>
<text text-anchor="middle" x="768.5" y="-895" font-family="Helvetica,sans-Serif" font-size="10.00"> +elements</text>
</g>
<!-- Node6&#45;&gt;Node1 -->
<g id="edge5" class="edge">
<title>Node6&#45;&gt;Node1</title>
<path fill="none" stroke="#404040" d="M492.3,-597.55C491.98,-552.53 493.99,-466.65 511,-396 513.76,-384.55 517.03,-372.93 520.68,-361.32"/>
<polygon fill="none" stroke="#404040" points="520.62,-361.49 518.67,-354.55 524.33,-350.08 526.28,-357.02 520.62,-361.49"/>
<text text-anchor="middle" x="536.5" y="-485.5" font-family="Helvetica,sans-Serif" font-size="10.00"> &#45;m_context</text>
</g>
<!-- Node7 -->
<g id="node7" class="node">
<title>Node7</title>
<g id="a_node7"><a xlink:title=" ">
<polygon fill="white" stroke="#666666" points="886,-725.5 824,-725.5 824,-695.5 886,-695.5 886,-725.5"/>
<text text-anchor="middle" x="855" y="-713.5" font-family="Helvetica,sans-Serif" font-size="10.00">{std::string</text>
<text text-anchor="middle" x="855" y="-702.5" font-family="Helvetica,sans-Serif" font-size="10.00">||}</text>
</a>
</g>
</g>
<!-- Node7&#45;&gt;Node1 -->
<g id="edge7" class="edge">
<title>Node7&#45;&gt;Node1</title>
<path fill="none" stroke="#404040" d="M854.21,-695.14C851.08,-641.06 838.33,-450.09 812,-396 787.26,-345.18 746.61,-298.27 707.71,-260.9"/>
<polygon fill="none" stroke="#404040" points="707.77,-260.96 700.66,-259.75 699.05,-252.72 706.16,-253.93 707.77,-260.96"/>
<text text-anchor="middle" x="880.5" y="-485.5" font-family="Helvetica,sans-Serif" font-size="10.00"> &#45;m_localNodeId</text>
</g>
<!-- Node13 -->
<g id="node13" class="node">
<title>Node13</title>
<g id="a_node13"><a xlink:title=" ">
<polygon fill="white" stroke="#666666" points="1038,-503 928,-503 928,-473 1038,-473 1038,-503"/>
<text text-anchor="middle" x="983" y="-491" font-family="Helvetica,sans-Serif" font-size="10.00">{std::set&lt; std::string &gt;</text>
<text text-anchor="middle" x="983" y="-480" font-family="Helvetica,sans-Serif" font-size="10.00">||}</text>
</a>
</g>
</g>
<!-- Node7&#45;&gt;Node13 -->
<g id="edge16" class="edge">
<title>Node7&#45;&gt;Node13</title>
<path fill="none" stroke="#404040" d="M859.36,-695.19C866.3,-673.39 881.05,-630.93 900,-598 905.06,-589.22 907.83,-588.04 914,-580 931.2,-557.6 950.62,-531.96 964.47,-513.61"/>
<polygon fill="none" stroke="#404040" points="964.53,-513.53 964.95,-506.33 971.75,-503.95 971.34,-511.15 964.53,-513.53"/>
<text text-anchor="middle" x="914.5" y="-627" font-family="Helvetica,sans-Serif" font-size="10.00"> +keys</text>
</g>
<!-- Node16 -->
<g id="node16" class="node">
<title>Node16</title>
<g id="a_node16"><a xlink:href="classsgns_1_1processing_1_1_processing_sub_task_queue.html" target="_top" xlink:title=" ">
<polygon fill="white" stroke="#666666" points="802.5,-580 653.5,-580 653.5,-396 802.5,-396 802.5,-580"/>
<text text-anchor="start" x="661.5" y="-568" font-family="Helvetica,sans-Serif" font-size="10.00">{sgns::processing::Processing</text>
<text text-anchor="middle" x="728" y="-557" font-family="Helvetica,sans-Serif" font-size="10.00">SubTaskQueue</text>
<text text-anchor="start" x="661.5" y="-546" font-family="Helvetica,sans-Serif" font-size="10.00">|&#45; m_queue</text>
<text text-anchor="start" x="661.5" y="-535" font-family="Helvetica,sans-Serif" font-size="10.00">|+ ProcessingSubTaskQueue()</text>
<text text-anchor="start" x="661.5" y="-524" font-family="Helvetica,sans-Serif" font-size="10.00">+ CreateQueue()</text>
<text text-anchor="start" x="661.5" y="-513" font-family="Helvetica,sans-Serif" font-size="10.00">+ GrabItem()</text>
<text text-anchor="start" x="661.5" y="-502" font-family="Helvetica,sans-Serif" font-size="10.00">+ MoveOwnershipTo()</text>
<text text-anchor="start" x="661.5" y="-491" font-family="Helvetica,sans-Serif" font-size="10.00">+ RollbackOwnership()</text>
<text text-anchor="start" x="661.5" y="-480" font-family="Helvetica,sans-Serif" font-size="10.00">+ HasOwnership()</text>
<text text-anchor="start" x="661.5" y="-469" font-family="Helvetica,sans-Serif" font-size="10.00">+ UpdateQueue()</text>
<text text-anchor="start" x="661.5" y="-458" font-family="Helvetica,sans-Serif" font-size="10.00">+ UnlockExpiredItems()</text>
<text text-anchor="start" x="661.5" y="-447" font-family="Helvetica,sans-Serif" font-size="10.00">+ GetLastLockTimestamp()</text>
<text text-anchor="start" x="661.5" y="-436" font-family="Helvetica,sans-Serif" font-size="10.00">&#45; ChangeOwnershipTo()</text>
<text text-anchor="start" x="661.5" y="-425" font-family="Helvetica,sans-Serif" font-size="10.00">&#45; LockItem()</text>
<text text-anchor="start" x="661.5" y="-414" font-family="Helvetica,sans-Serif" font-size="10.00">&#45; LogQueue()</text>
<text text-anchor="middle" x="728" y="-403" font-family="Helvetica,sans-Serif" font-size="10.00">}</text>
</a>
</g>
</g>
<!-- Node7&#45;&gt;Node16 -->
<g id="edge20" class="edge">
<title>Node7&#45;&gt;Node16</title>
<path fill="none" stroke="#404040" d="M823.56,-698.52C805.64,-690.71 784.18,-678.48 771,-661 762.12,-649.23 753.87,-622.17 747.01,-592.93"/>
<polygon fill="none" stroke="#404040" points="747,-592.88 741.78,-587.91 744.36,-581.17 749.58,-586.15 747,-592.88"/>
<text text-anchor="middle" x="806.5" y="-627" font-family="Helvetica,sans-Serif" font-size="10.00"> &#45;m_localNodeId</text>
</g>
<!-- Node8 -->
<g id="node8" class="node">
<title>Node8</title>
<g id="a_node8"><a xlink:title=" ">
<polygon fill="white" stroke="#666666" points="903,-857.5 807,-857.5 807,-816.5 903,-816.5 903,-857.5"/>
<text text-anchor="start" x="815" y="-845.5" font-family="Helvetica,sans-Serif" font-size="10.00">{std::basic_string&lt;</text>
<text text-anchor="middle" x="855" y="-834.5" font-family="Helvetica,sans-Serif" font-size="10.00"> Char &gt;</text>
<text text-anchor="middle" x="855" y="-823.5" font-family="Helvetica,sans-Serif" font-size="10.00">||}</text>
</a>
</g>
</g>
<!-- Node8&#45;&gt;Node7 -->
<g id="edge8" class="edge">
<title>Node8&#45;&gt;Node7</title>
<path fill="none" stroke="#63b8ff" d="M855,-805.02C855,-779.65 855,-744.91 855,-725.71"/>
<polygon fill="none" stroke="#63b8ff" points="851.5,-804.76 855,-814.76 858.5,-804.76 851.5,-804.76"/>
</g>
<!-- Node9&#45;&gt;Node1 -->
<g id="edge9" class="edge">
<title>Node9&#45;&gt;Node1</title>
<path fill="none" stroke="#404040" d="M323.5,-597.51C319.68,-550.94 318.07,-461.41 352,-396 384.93,-332.53 444.35,-279.05 497.11,-240.66"/>
<polygon fill="none" stroke="#404040" points="497.07,-240.69 499.63,-233.95 506.83,-233.71 504.28,-240.46 497.07,-240.69"/>
<text text-anchor="middle" x="375" y="-485.5" font-family="Helvetica,sans-Serif" font-size="10.00"> &#45;m_queue</text>
</g>
<!-- Node10 -->
<g id="node10" class="node">
<title>Node10</title>
<g id="a_node10"><a xlink:title=" ">
<polygon fill="white" stroke="#666666" points="635,-503 571,-503 571,-473 635,-473 635,-503"/>
<text text-anchor="middle" x="603" y="-491" font-family="Helvetica,sans-Serif" font-size="10.00">{std::mutex</text>
<text text-anchor="middle" x="603" y="-480" font-family="Helvetica,sans-Serif" font-size="10.00">||}</text>
</a>
</g>
</g>
<!-- Node10&#45;&gt;Node1 -->
<g id="edge11" class="edge">
<title>Node10&#45;&gt;Node1</title>
<path fill="none" stroke="#404040" d="M603,-472.81C603,-451.49 603,-408.72 603,-362.1"/>
<polygon fill="none" stroke="#404040" points="603,-362.1 599,-356.1 603,-350.1 607,-356.1 603,-362.1"/>
<text text-anchor="middle" x="639" y="-370" font-family="Helvetica,sans-Serif" font-size="10.00"> &#45;m_queueMutex</text>
</g>
<!-- Node11 -->
<g id="node11" class="node">
<title>Node11</title>
<g id="a_node11"><a xlink:title=" ">
<polygon fill="white" stroke="#666666" points="1141,-655.5 1007,-655.5 1007,-603.5 1141,-603.5 1141,-655.5"/>
<text text-anchor="start" x="1015" y="-643.5" font-family="Helvetica,sans-Serif" font-size="10.00">{std::list&lt; SubTaskGrabbed</text>
<text text-anchor="middle" x="1074" y="-632.5" font-family="Helvetica,sans-Serif" font-size="10.00">Callback &gt;</text>
<text text-anchor="start" x="1015" y="-621.5" font-family="Helvetica,sans-Serif" font-size="10.00">|+ elements</text>
<text text-anchor="middle" x="1074" y="-610.5" font-family="Helvetica,sans-Serif" font-size="10.00">|}</text>
</a>
</g>
</g>
<!-- Node11&#45;&gt;Node1 -->
<g id="edge12" class="edge">
<title>Node11&#45;&gt;Node1</title>
<path fill="none" stroke="#404040" d="M1076.92,-603.29C1080.88,-558.56 1083.73,-463.68 1047,-396 980.36,-273.21 819.72,-217.49 711.08,-193.14"/>
<polygon fill="none" stroke="#404040" points="711.03,-193.13 704.32,-195.77 699.31,-190.59 706.02,-187.95 711.03,-193.13"/>
<text text-anchor="middle" x="1153" y="-485.5" font-family="Helvetica,sans-Serif" font-size="10.00"> &#45;m_onSubTaskGrabbedCallbacks</text>
</g>
<!-- Node12&#45;&gt;Node11 -->
<g id="edge13" class="edge">
<title>Node12&#45;&gt;Node11</title>
<path fill="none" stroke="orange" d="M1046.01,-810.26C1052.18,-770.64 1063.93,-695.17 1070.06,-655.81"/>
<polygon fill="orange" stroke="orange" points="1042.56,-809.63 1044.48,-820.05 1049.48,-810.71 1042.56,-809.63"/>
<text text-anchor="middle" x="1119.5" y="-768.5" font-family="Helvetica,sans-Serif" font-size="10.00"> &lt; SubTaskGrabbedCallback &gt;</text>
</g>
<!-- Node13&#45;&gt;Node1 -->
<g id="edge15" class="edge">
<title>Node13&#45;&gt;Node1</title>
<path fill="none" stroke="#404040" d="M974.13,-472.68C962.02,-453.8 938.92,-420.14 914,-396 851.98,-335.93 772.41,-279.82 709.28,-239.24"/>
<polygon fill="none" stroke="#404040" points="709.37,-239.3 702.16,-239.44 699.25,-232.84 706.46,-232.7 709.37,-239.3"/>
<text text-anchor="middle" x="949.5" y="-370" font-family="Helvetica,sans-Serif" font-size="10.00"> &#45;m_processedSubTaskIds</text>
</g>
<!-- Node14 -->
<g id="node14" class="node">
<title>Node14</title>
<g id="a_node14"><a xlink:title=" ">
<polygon fill="white" stroke="#666666" points="978,-725.5 904,-725.5 904,-695.5 978,-695.5 978,-725.5"/>
<text text-anchor="middle" x="941" y="-713.5" font-family="Helvetica,sans-Serif" font-size="10.00">{std::set&lt; K &gt;</text>
<text text-anchor="middle" x="941" y="-702.5" font-family="Helvetica,sans-Serif" font-size="10.00">||}</text>
</a>
</g>
</g>
<!-- Node14&#45;&gt;Node13 -->
<g id="edge17" class="edge">
<title>Node14&#45;&gt;Node13</title>
<path fill="none" stroke="orange" d="M936.71,-683.86C933.69,-661.08 931.13,-626.99 937,-598 944.25,-562.17 963.66,-523.47 974.81,-503.21"/>
<polygon fill="orange" stroke="orange" points="933.24,-684.36 938.16,-693.75 940.17,-683.35 933.24,-684.36"/>
<text text-anchor="middle" x="967.5" y="-627" font-family="Helvetica,sans-Serif" font-size="10.00"> &lt; std::string &gt;</text>
</g>
<!-- Node15 -->
<g id="node15" class="node">
<title>Node15</title>
<g id="a_node15"><a xlink:title=" ">
<polygon fill="white" stroke="#666666" points="955.5,-852 926.5,-852 926.5,-822 955.5,-822 955.5,-852"/>
<text text-anchor="middle" x="941" y="-840" font-family="Helvetica,sans-Serif" font-size="10.00">{K</text>
<text text-anchor="middle" x="941" y="-829" font-family="Helvetica,sans-Serif" font-size="10.00">||}</text>
</a>
</g>
</g>
<!-- Node15&#45;&gt;Node14 -->
<g id="edge18" class="edge">
<title>Node15&#45;&gt;Node14</title>
<path fill="none" stroke="#404040" d="M941,-821.72C941,-801.56 941,-764.38 941,-738.82"/>
<polygon fill="none" stroke="#404040" points="941,-738.9 937,-732.9 941,-726.9 945,-732.9 941,-738.9"/>
<text text-anchor="middle" x="955.5" y="-768.5" font-family="Helvetica,sans-Serif" font-size="10.00"> +keys</text>
</g>
<!-- Node16&#45;&gt;Node1 -->
<g id="edge19" class="edge">
<title>Node16&#45;&gt;Node1</title>
<path fill="none" stroke="#404040" d="M691.34,-395.64C686.91,-384.6 682.27,-373.04 677.53,-361.24"/>
<polygon fill="none" stroke="#404040" points="677.57,-361.34 671.63,-357.26 673.1,-350.2 679.05,-354.28 677.57,-361.34"/>
<text text-anchor="middle" x="731.5" y="-370" font-family="Helvetica,sans-Serif" font-size="10.00"> &#45;m_processingQueue</text>
</g>
<!-- Node17 -->
<g id="node17" class="node">
<title>Node17</title>
<g id="a_node17"><a xlink:title=" ">
<polygon fill="white" stroke="#666666" points="758,-731 666,-731 666,-690 758,-690 758,-731"/>
<text text-anchor="middle" x="712" y="-719" font-family="Helvetica,sans-Serif" font-size="10.00">{std::vector&lt; int &gt;</text>
<text text-anchor="start" x="674" y="-708" font-family="Helvetica,sans-Serif" font-size="10.00">|+ elements</text>
<text text-anchor="middle" x="712" y="-697" font-family="Helvetica,sans-Serif" font-size="10.00">|}</text>
</a>
</g>
</g>
<!-- Node17&#45;&gt;Node16 -->
<g id="edge21" class="edge">
<title>Node17&#45;&gt;Node16</title>
<path fill="none" stroke="#404040" d="M671.2,-689.65C660.38,-682.25 650.04,-672.73 644,-661 631.18,-636.11 634.97,-624.5 644,-598 645.06,-594.88 646.25,-591.79 647.56,-588.72"/>
<polygon fill="none" stroke="#404040" points="647.57,-588.68 646.53,-581.54 652.71,-577.83 653.76,-584.97 647.57,-588.68"/>
<text text-anchor="middle" x="696" y="-627" font-family="Helvetica,sans-Serif" font-size="10.00"> &#45;m_enabledItemIndices</text>
</g>
<!-- Node18&#45;&gt;Node17 -->
<g id="edge22" class="edge">
<title>Node18&#45;&gt;Node17</title>
<path fill="none" stroke="orange" d="M737.47,-810.58C731.44,-787.14 722.62,-752.82 717.1,-731.34"/>
<polygon fill="orange" stroke="orange" points="734.07,-811.44 739.95,-820.25 740.85,-809.7 734.07,-811.44"/>
<text text-anchor="middle" x="744" y="-768.5" font-family="Helvetica,sans-Serif" font-size="10.00"> &lt; int &gt;</text>
</g>
<!-- Node19&#45;&gt;Node1 -->
<g id="edge26" class="edge">
<title>Node19&#45;&gt;Node1</title>
<path fill="none" stroke="#404040" d="M447.63,-678.55C442.19,-673.39 437.43,-667.55 434,-661 414.5,-623.77 393.66,-537.22 443,-396 455.92,-359.03 477.21,-322.92 500.12,-290.96"/>
<polygon fill="none" stroke="#404040" points="499.98,-291.15 500.3,-283.95 507.07,-281.47 506.75,-288.67 499.98,-291.15"/>
<text text-anchor="middle" x="466" y="-485.5" font-family="Helvetica,sans-Serif" font-size="10.00"> &#45;m_logger</text>
</g>
<!-- Node19&#45;&gt;Node16 -->
<g id="edge24" class="edge">
<title>Node19&#45;&gt;Node16</title>
<path fill="none" stroke="#404040" d="M537.2,-678.64C542.45,-673.02 547.59,-667.02 552,-661 570.66,-635.48 560.67,-618.17 585,-598 603.47,-582.69 617.01,-591.55 641.8,-580.07"/>
<polygon fill="none" stroke="#404040" points="641.87,-580.02 645.18,-573.62 652.37,-574.2 649.06,-580.61 641.87,-580.02"/>
<text text-anchor="middle" x="608" y="-627" font-family="Helvetica,sans-Serif" font-size="10.00"> &#45;m_logger</text>
</g>
</g>
</svg>
