<?xml version="1.0" encoding="UTF-8" standalone="no"?>
<!DOCTYPE svg PUBLIC "-//W3C//DTD SVG 1.1//EN"
 "http://www.w3.org/Graphics/SVG/1.1/DTD/svg11.dtd">
<!-- Generated by graphviz version 7.0.5 (20221223.1930)
 -->
<!-- Title: sgns::storage::trie::TrieStorageBackend Pages: 1 -->
<!--zoomable 544 -->
<svg id="main" version="1.1" xmlns="http://www.w3.org/2000/svg" xmlns:xlink="http://www.w3.org/1999/xlink" xml:space="preserve" onload="init(evt)">
<style type="text/css"><![CDATA[
.edge:hover path { stroke: red; }
.edge:hover polygon { stroke: red; fill: red; }
]]></style>
<script type="text/javascript"><![CDATA[
var edges = document.getElementsByTagName('g');
if (edges && edges.length) {
  for (var i=0;i<edges.length;i++) {
    if (edges[i].id.substr(0,4)=='edge') {
      edges[i].setAttribute('class','edge');
    }
  }
}
]]></script>
        <defs>
                <circle id="rim" cx="0" cy="0" r="7"/>
                <circle id="rim2" cx="0" cy="0" r="3.5"/>
                <g id="zoomPlus">
                        <use xlink:href="#rim" fill="#404040">
                                <set attributeName="fill" to="#808080" begin="zoomplus.mouseover" end="zoomplus.mouseout"/>
                        </use>
                        <path d="M-4,0h8M0,-4v8" fill="none" stroke="white" stroke-width="1.5" pointer-events="none"/>
                </g>
                <g id="zoomMin">
                        <use xlink:href="#rim" fill="#404040">
                                <set attributeName="fill" to="#808080" begin="zoomminus.mouseover" end="zoomminus.mouseout"/>
                        </use>
                        <path d="M-4,0h8" fill="none" stroke="white" stroke-width="1.5" pointer-events="none"/>
                </g>
                <g id="dirArrow">
                        <path fill="none" stroke="white" stroke-width="1.5" d="M0,-3.0v7 M-2.5,-0.5L0,-3.0L2.5,-0.5"/>
                </g>
               <g id="resetDef">
                       <use xlink:href="#rim2" fill="#404040">
                               <set attributeName="fill" to="#808080" begin="reset.mouseover" end="reset.mouseout"/>
                       </use>
               </g>
        </defs>

<script type="text/javascript">
var viewWidth = 475;
var viewHeight = 544;
var sectionId = 'dynsection-0';
</script>
<script xlink:href="svgpan.js"/>
<svg id="graph" class="graph">
<g id="viewport">
<title>sgns::storage::trie::TrieStorageBackend</title>
<!-- Node1 -->
<g id="node1" class="node">
<title>Node1</title>
<g id="a_node1"><a xlink:title=" ">
<polygon fill="#999999" stroke="#666666" points="298,-272 169,-272 169,-220 298,-220 298,-272"/>
<text text-anchor="start" x="177" y="-260" font-family="Helvetica,sans-Serif" font-size="10.00">{sgns::storage::trie</text>
<text text-anchor="middle" x="233.5" y="-249" font-family="Helvetica,sans-Serif" font-size="10.00">::TrieStorageBackend</text>
<text text-anchor="start" x="177" y="-238" font-family="Helvetica,sans-Serif" font-size="10.00">||+ ~TrieStorageBackend()</text>
<text text-anchor="middle" x="233.5" y="-227" font-family="Helvetica,sans-Serif" font-size="10.00">}</text>
</a>
</g>
</g>
<!-- Node9 -->
<g id="node9" class="node">
<title>Node9</title>
<g id="a_node9"><a xlink:href="classsgns_1_1storage_1_1trie_1_1_trie_storage_backend_impl.html" target="_top" xlink:title=" ">
<polygon fill="white" stroke="#666666" points="305,-184 162,-184 162,0 305,0 305,-184"/>
<text text-anchor="start" x="170" y="-172" font-family="Helvetica,sans-Serif" font-size="10.00">{sgns::storage::trie</text>
<text text-anchor="middle" x="233.5" y="-161" font-family="Helvetica,sans-Serif" font-size="10.00">::TrieStorageBackendImpl</text>
<text text-anchor="start" x="170" y="-150" font-family="Helvetica,sans-Serif" font-size="10.00">|&#45; storage_</text>
<text text-anchor="start" x="170" y="-139" font-family="Helvetica,sans-Serif" font-size="10.00">&#45; node_prefix_</text>
<text text-anchor="start" x="170" y="-128" font-family="Helvetica,sans-Serif" font-size="10.00">|+ TrieStorageBackendImpl()</text>
<text text-anchor="start" x="170" y="-117" font-family="Helvetica,sans-Serif" font-size="10.00">+ ~TrieStorageBackendImpl()</text>
<text text-anchor="start" x="170" y="-106" font-family="Helvetica,sans-Serif" font-size="10.00">+ cursor()</text>
<text text-anchor="start" x="170" y="-95" font-family="Helvetica,sans-Serif" font-size="10.00">+ batch()</text>
<text text-anchor="start" x="170" y="-84" font-family="Helvetica,sans-Serif" font-size="10.00">+ get()</text>
<text text-anchor="start" x="170" y="-73" font-family="Helvetica,sans-Serif" font-size="10.00">+ contains()</text>
<text text-anchor="start" x="170" y="-62" font-family="Helvetica,sans-Serif" font-size="10.00">+ empty()</text>
<text text-anchor="start" x="170" y="-51" font-family="Helvetica,sans-Serif" font-size="10.00">+ put()</text>
<text text-anchor="start" x="170" y="-40" font-family="Helvetica,sans-Serif" font-size="10.00">+ put()</text>
<text text-anchor="start" x="170" y="-29" font-family="Helvetica,sans-Serif" font-size="10.00">+ remove()</text>
<text text-anchor="start" x="170" y="-18" font-family="Helvetica,sans-Serif" font-size="10.00">&#45; prefixKey()</text>
<text text-anchor="middle" x="233.5" y="-7" font-family="Helvetica,sans-Serif" font-size="10.00">}</text>
</a>
</g>
</g>
<!-- Node1&#45;&gt;Node9 -->
<g id="edge8" class="edge">
<title>Node1&#45;&gt;Node9</title>
<path fill="none" stroke="#63b8ff" d="M233.5,-208.22C233.5,-200.83 233.5,-192.77 233.5,-184.45"/>
<polygon fill="none" stroke="#63b8ff" points="230,-208.05 233.5,-218.05 237,-208.05 230,-208.05"/>
</g>
<!-- Node2 -->
<g id="node2" class="node">
<title>Node2</title>
<g id="a_node2"><a xlink:href="structsgns_1_1storage_1_1face_1_1_generic_storage.html" target="_top" xlink:title="An abstraction over readable, writeable, iterable key&#45;value storage that supports write batches.">
<polygon fill="white" stroke="#666666" points="273,-338 194,-338 194,-308 273,-308 273,-338"/>
<text text-anchor="middle" x="233.5" y="-326" font-family="Helvetica,sans-Serif" font-size="10.00">{BufferStorage</text>
<text text-anchor="middle" x="233.5" y="-315" font-family="Helvetica,sans-Serif" font-size="10.00">||}</text>
</a>
</g>
</g>
<!-- Node2&#45;&gt;Node1 -->
<g id="edge1" class="edge">
<title>Node2&#45;&gt;Node1</title>
<path fill="none" stroke="#63b8ff" d="M233.5,-296.23C233.5,-288.51 233.5,-280.05 233.5,-272.35"/>
<polygon fill="none" stroke="#63b8ff" points="230,-296.03 233.5,-306.03 237,-296.03 230,-296.03"/>
</g>
<!-- Node3 -->
<g id="node3" class="node">
<title>Node3</title>
<g id="a_node3"><a xlink:href="structsgns_1_1storage_1_1face_1_1_read_only_map.html" target="_top" xlink:title="An abstraction over a readable and iterable key&#45;value map.">
<polygon fill="white" stroke="#666666" points="223,-415 106,-415 106,-374 223,-374 223,-415"/>
<text text-anchor="start" x="114" y="-403" font-family="Helvetica,sans-Serif" font-size="10.00">{sgns::storage::face</text>
<text text-anchor="middle" x="164.5" y="-392" font-family="Helvetica,sans-Serif" font-size="10.00">::ReadOnlyMap&lt; K, V &gt;</text>
<text text-anchor="middle" x="164.5" y="-381" font-family="Helvetica,sans-Serif" font-size="10.00">||}</text>
</a>
</g>
</g>
<!-- Node3&#45;&gt;Node2 -->
<g id="edge2" class="edge">
<title>Node3&#45;&gt;Node2</title>
<path fill="none" stroke="#63b8ff" d="M192,-365.81C201.28,-356.45 211.28,-346.38 219.13,-338.47"/>
<polygon fill="none" stroke="#63b8ff" points="189.72,-363.13 185.15,-372.7 194.68,-368.07 189.72,-363.13"/>
</g>
<!-- Node4 -->
<g id="node4" class="node">
<title>Node4</title>
<g id="a_node4"><a xlink:href="structsgns_1_1storage_1_1face_1_1_iterable.html" target="_top" xlink:title="A mixin for an iterable map.">
<polygon fill="white" stroke="#666666" points="101,-525 0,-525 0,-462 101,-462 101,-525"/>
<text text-anchor="start" x="8" y="-513" font-family="Helvetica,sans-Serif" font-size="10.00">{sgns::storage::face</text>
<text text-anchor="middle" x="50.5" y="-502" font-family="Helvetica,sans-Serif" font-size="10.00">::Iterable&lt; K, V &gt;</text>
<text text-anchor="start" x="8" y="-491" font-family="Helvetica,sans-Serif" font-size="10.00">||+ ~Iterable()</text>
<text text-anchor="start" x="8" y="-480" font-family="Helvetica,sans-Serif" font-size="10.00">+ cursor()</text>
<text text-anchor="middle" x="50.5" y="-469" font-family="Helvetica,sans-Serif" font-size="10.00">}</text>
</a>
</g>
</g>
<!-- Node4&#45;&gt;Node3 -->
<g id="edge3" class="edge">
<title>Node4&#45;&gt;Node3</title>
<path fill="none" stroke="#63b8ff" d="M95.39,-454.31C110.98,-441.04 127.84,-426.69 141.01,-415.49"/>
<polygon fill="none" stroke="#63b8ff" points="93.38,-451.42 88.04,-460.56 97.92,-456.75 93.38,-451.42"/>
</g>
<!-- Node5 -->
<g id="node5" class="node">
<title>Node5</title>
<g id="a_node5"><a xlink:href="structsgns_1_1storage_1_1face_1_1_readable.html" target="_top" xlink:title="A mixin for read&#45;only map.">
<polygon fill="white" stroke="#666666" points="220,-536 119,-536 119,-451 220,-451 220,-536"/>
<text text-anchor="start" x="127" y="-524" font-family="Helvetica,sans-Serif" font-size="10.00">{sgns::storage::face</text>
<text text-anchor="middle" x="169.5" y="-513" font-family="Helvetica,sans-Serif" font-size="10.00">::Readable&lt; K, V &gt;</text>
<text text-anchor="start" x="127" y="-502" font-family="Helvetica,sans-Serif" font-size="10.00">||+ ~Readable()</text>
<text text-anchor="start" x="127" y="-491" font-family="Helvetica,sans-Serif" font-size="10.00">+ get()</text>
<text text-anchor="start" x="127" y="-480" font-family="Helvetica,sans-Serif" font-size="10.00">+ contains()</text>
<text text-anchor="start" x="127" y="-469" font-family="Helvetica,sans-Serif" font-size="10.00">+ empty()</text>
<text text-anchor="middle" x="169.5" y="-458" font-family="Helvetica,sans-Serif" font-size="10.00">}</text>
</a>
</g>
</g>
<!-- Node5&#45;&gt;Node3 -->
<g id="edge4" class="edge">
<title>Node5&#45;&gt;Node3</title>
<path fill="none" stroke="#63b8ff" d="M166.74,-439.03C166.31,-430.62 165.89,-422.41 165.53,-415.44"/>
<polygon fill="none" stroke="#63b8ff" points="163.25,-439.2 167.26,-449.01 170.24,-438.84 163.25,-439.2"/>
</g>
<!-- Node6 -->
<g id="node6" class="node">
<title>Node6</title>
<g id="a_node6"><a xlink:href="structsgns_1_1storage_1_1face_1_1_batch_write_map.html" target="_top" xlink:title="An abstraction over a writeable key&#45;value map with batching support.">
<polygon fill="white" stroke="#666666" points="364,-415 241,-415 241,-374 364,-374 364,-415"/>
<text text-anchor="start" x="249" y="-403" font-family="Helvetica,sans-Serif" font-size="10.00">{sgns::storage::face</text>
<text text-anchor="middle" x="302.5" y="-392" font-family="Helvetica,sans-Serif" font-size="10.00">::BatchWriteMap&lt; K, V &gt;</text>
<text text-anchor="middle" x="302.5" y="-381" font-family="Helvetica,sans-Serif" font-size="10.00">||}</text>
</a>
</g>
</g>
<!-- Node6&#45;&gt;Node2 -->
<g id="edge5" class="edge">
<title>Node6&#45;&gt;Node2</title>
<path fill="none" stroke="#63b8ff" d="M275,-365.81C265.72,-356.45 255.72,-346.38 247.87,-338.47"/>
<polygon fill="none" stroke="#63b8ff" points="272.32,-368.07 281.85,-372.7 277.28,-363.13 272.32,-368.07"/>
</g>
<!-- Node7 -->
<g id="node7" class="node">
<title>Node7</title>
<g id="a_node7"><a xlink:href="structsgns_1_1storage_1_1face_1_1_writeable.html" target="_top" xlink:title="An mixin for modifiable map.">
<polygon fill="white" stroke="#666666" points="348,-536 247,-536 247,-451 348,-451 348,-536"/>
<text text-anchor="start" x="255" y="-524" font-family="Helvetica,sans-Serif" font-size="10.00">{sgns::storage::face</text>
<text text-anchor="middle" x="297.5" y="-513" font-family="Helvetica,sans-Serif" font-size="10.00">::Writeable&lt; K, V &gt;</text>
<text text-anchor="start" x="255" y="-502" font-family="Helvetica,sans-Serif" font-size="10.00">||+ ~Writeable()</text>
<text text-anchor="start" x="255" y="-491" font-family="Helvetica,sans-Serif" font-size="10.00">+ put()</text>
<text text-anchor="start" x="255" y="-480" font-family="Helvetica,sans-Serif" font-size="10.00">+ put()</text>
<text text-anchor="start" x="255" y="-469" font-family="Helvetica,sans-Serif" font-size="10.00">+ remove()</text>
<text text-anchor="middle" x="297.5" y="-458" font-family="Helvetica,sans-Serif" font-size="10.00">}</text>
</a>
</g>
</g>
<!-- Node7&#45;&gt;Node6 -->
<g id="edge6" class="edge">
<title>Node7&#45;&gt;Node6</title>
<path fill="none" stroke="#63b8ff" d="M300.26,-439.03C300.69,-430.62 301.11,-422.41 301.47,-415.44"/>
<polygon fill="none" stroke="#63b8ff" points="296.76,-438.84 299.74,-449.01 303.75,-439.2 296.76,-438.84"/>
</g>
<!-- Node8 -->
<g id="node8" class="node">
<title>Node8</title>
<g id="a_node8"><a xlink:href="structsgns_1_1storage_1_1face_1_1_batchable.html" target="_top" xlink:title="A mixin for a map that supports batching for efficiency of modifications.">
<polygon fill="white" stroke="#666666" points="467,-525 366,-525 366,-462 467,-462 467,-525"/>
<text text-anchor="start" x="374" y="-513" font-family="Helvetica,sans-Serif" font-size="10.00">{sgns::storage::face</text>
<text text-anchor="middle" x="416.5" y="-502" font-family="Helvetica,sans-Serif" font-size="10.00">::Batchable&lt; K, V &gt;</text>
<text text-anchor="start" x="374" y="-491" font-family="Helvetica,sans-Serif" font-size="10.00">||+ ~Batchable()</text>
<text text-anchor="start" x="374" y="-480" font-family="Helvetica,sans-Serif" font-size="10.00">+ batch()</text>
<text text-anchor="middle" x="416.5" y="-469" font-family="Helvetica,sans-Serif" font-size="10.00">}</text>
</a>
</g>
</g>
<!-- Node8&#45;&gt;Node6 -->
<g id="edge7" class="edge">
<title>Node8&#45;&gt;Node6</title>
<path fill="none" stroke="#63b8ff" d="M371.61,-454.31C356.02,-441.04 339.16,-426.69 325.99,-415.49"/>
<polygon fill="none" stroke="#63b8ff" points="369.08,-456.75 378.96,-460.56 373.62,-451.42 369.08,-456.75"/>
</g>
</g>
</svg>
        <g id="navigator" transform="translate(0 0)" fill="#404254">
                <rect fill="#f2f5e9" fill-opacity="0.5" stroke="#606060" stroke-width=".5" x="0" y="0" width="60" height="60"/>
                <use id="zoomplus" xlink:href="#zoomPlus" x="17" y="9" onmousedown="handleZoom(evt,'in')"/>
                <use id="zoomminus" xlink:href="#zoomMin" x="42" y="9" onmousedown="handleZoom(evt,'out')"/>
                <use id="reset" xlink:href="#resetDef" x="30" y="36" onmousedown="handleReset()"/>
                <g id="arrowUp" xlink:href="#dirArrow" transform="translate(30 24)" onmousedown="handlePan(0,-1)">
                  <use xlink:href="#rim" fill="#404040">
                        <set attributeName="fill" to="#808080" begin="arrowUp.mouseover" end="arrowUp.mouseout"/>
                  </use>
                  <path fill="none" stroke="white" stroke-width="1.5" d="M0,-3.0v7 M-2.5,-0.5L0,-3.0L2.5,-0.5"/>
                </g>
                <g id="arrowRight" xlink:href="#dirArrow" transform="rotate(90) translate(36 -43)" onmousedown="handlePan(1,0)">
                  <use xlink:href="#rim" fill="#404040">
                        <set attributeName="fill" to="#808080" begin="arrowRight.mouseover" end="arrowRight.mouseout"/>
                  </use>
                  <path fill="none" stroke="white" stroke-width="1.5" d="M0,-3.0v7 M-2.5,-0.5L0,-3.0L2.5,-0.5"/>
                </g>
                <g id="arrowDown" xlink:href="#dirArrow" transform="rotate(180) translate(-30 -48)" onmousedown="handlePan(0,1)">
                  <use xlink:href="#rim" fill="#404040">
                        <set attributeName="fill" to="#808080" begin="arrowDown.mouseover" end="arrowDown.mouseout"/>
                  </use>
                  <path fill="none" stroke="white" stroke-width="1.5" d="M0,-3.0v7 M-2.5,-0.5L0,-3.0L2.5,-0.5"/>
                </g>
                <g id="arrowLeft" xlink:href="#dirArrow" transform="rotate(270) translate(-36 17)" onmousedown="handlePan(-1,0)">
                  <use xlink:href="#rim" fill="#404040">
                        <set attributeName="fill" to="#808080" begin="arrowLeft.mouseover" end="arrowLeft.mouseout"/>
                  </use>
                  <path fill="none" stroke="white" stroke-width="1.5" d="M0,-3.0v7 M-2.5,-0.5L0,-3.0L2.5,-0.5"/>
                </g>
        </g>
        <svg viewBox="0 0 15 15" width="100%" height="30px" preserveAspectRatio="xMaxYMin meet">
         <g id="arrow_out" transform="scale(0.3 0.3)">
          <a xlink:href="classsgns_1_1storage_1_1trie_1_1_trie_storage_backend__inherit__graph_org.svg" target="_base">
           <rect id="button" ry="5" rx="5" y="6" x="6" height="38" width="38"
                fill="#f2f5e9" fill-opacity="0.5" stroke="#606060" stroke-width="1.0"/>
           <path id="arrow"
             d="M 11.500037,31.436501 C 11.940474,20.09759 22.043105,11.32322 32.158766,21.979434 L 37.068811,17.246167 C 37.068811,17.246167 37.088388,32 37.088388,32 L 22.160133,31.978069 C 22.160133,31.978069 26.997745,27.140456 26.997745,27.140456 C 18.528582,18.264221 13.291696,25.230495 11.500037,31.436501 z"
             style="fill:#404040;"/>
          </a>
         </g>
        </svg>
</svg>
