<?xml version="1.0" encoding="UTF-8" standalone="no"?>
<!DOCTYPE svg PUBLIC "-//W3C//DTD SVG 1.1//EN"
 "http://www.w3.org/Graphics/SVG/1.1/DTD/svg11.dtd">
<!-- Generated by graphviz version 7.0.5 (20221223.1930)
 -->
<!-- Title: sgns::api::author::AuthorJRpcProcessor Pages: 1 -->
<svg width="137pt" height="247pt"
 viewBox="0.00 0.00 137.00 247.00" xmlns="http://www.w3.org/2000/svg" xmlns:xlink="http://www.w3.org/1999/xlink">
<g id="graph0" class="graph" transform="scale(1 1) rotate(0) translate(4 243)">
<title>sgns::api::author::AuthorJRpcProcessor</title>
<!-- Node1 -->
<g id="node1" class="node">
<title>Node1</title>
<g id="a_node1"><a xlink:title="extrinsic submission service implementation">
<polygon fill="#999999" stroke="#666666" points="128.5,-85 0.5,-85 0.5,0 128.5,0 128.5,-85"/>
<text text-anchor="start" x="8.5" y="-73" font-family="Helvetica,sans-Serif" font-size="10.00">{sgns::api::author::</text>
<text text-anchor="middle" x="64.5" y="-62" font-family="Helvetica,sans-Serif" font-size="10.00">AuthorJRpcProcessor</text>
<text text-anchor="start" x="8.5" y="-51" font-family="Helvetica,sans-Serif" font-size="10.00">|&#45; api_</text>
<text text-anchor="start" x="8.5" y="-40" font-family="Helvetica,sans-Serif" font-size="10.00">&#45; server_</text>
<text text-anchor="start" x="8.5" y="-29" font-family="Helvetica,sans-Serif" font-size="10.00">|+ AuthorJRpcProcessor()</text>
<text text-anchor="start" x="8.5" y="-18" font-family="Helvetica,sans-Serif" font-size="10.00">&#45; registerHandlers()</text>
<text text-anchor="middle" x="64.5" y="-7" font-family="Helvetica,sans-Serif" font-size="10.00">}</text>
</a>
</g>
</g>
<!-- Node2 -->
<g id="node2" class="node">
<title>Node2</title>
<g id="a_node2"><a xlink:href="classsgns_1_1api_1_1_j_rpc_processor.html" target="_top" xlink:title=" ">
<polygon fill="white" stroke="#666666" points="129,-173 0,-173 0,-121 129,-121 129,-173"/>
<text text-anchor="middle" x="64.5" y="-161" font-family="Helvetica,sans-Serif" font-size="10.00">{sgns::api::JRpcProcessor</text>
<text text-anchor="start" x="8" y="-150" font-family="Helvetica,sans-Serif" font-size="10.00">||+ ~JRpcProcessor()</text>
<text text-anchor="start" x="8" y="-139" font-family="Helvetica,sans-Serif" font-size="10.00">+ registerHandlers()</text>
<text text-anchor="middle" x="64.5" y="-128" font-family="Helvetica,sans-Serif" font-size="10.00">}</text>
</a>
</g>
</g>
<!-- Node2&#45;&gt;Node1 -->
<g id="edge1" class="edge">
<title>Node2&#45;&gt;Node1</title>
<path fill="none" stroke="#63b8ff" d="M64.5,-109.32C64.5,-101.54 64.5,-93.26 64.5,-85.3"/>
<polygon fill="none" stroke="#63b8ff" points="61,-109.15 64.5,-119.15 68,-109.15 61,-109.15"/>
</g>
<!-- Node3 -->
<g id="node3" class="node">
<title>Node3</title>
<g id="a_node3"><a xlink:title=" ">
<polygon fill="white" stroke="#666666" points="115.5,-239 13.5,-239 13.5,-209 115.5,-209 115.5,-239"/>
<text text-anchor="middle" x="64.5" y="-227" font-family="Helvetica,sans-Serif" font-size="10.00">{boost::noncopyable</text>
<text text-anchor="middle" x="64.5" y="-216" font-family="Helvetica,sans-Serif" font-size="10.00">||}</text>
</a>
</g>
</g>
<!-- Node3&#45;&gt;Node2 -->
<g id="edge2" class="edge">
<title>Node3&#45;&gt;Node2</title>
<path fill="none" stroke="#8b1a1a" d="M64.5,-197.23C64.5,-189.51 64.5,-181.05 64.5,-173.35"/>
<polygon fill="none" stroke="#8b1a1a" points="61,-197.03 64.5,-207.03 68,-197.03 61,-197.03"/>
</g>
</g>
</svg>
