<?xml version="1.0" encoding="UTF-8" standalone="no"?>
<!DOCTYPE svg PUBLIC "-//W3C//DTD SVG 1.1//EN"
 "http://www.w3.org/Graphics/SVG/1.1/DTD/svg11.dtd">
<!-- Generated by graphviz version 7.0.5 (20221223.1930)
 -->
<!-- Title: sgns::verification::ProductionLotteryImpl Pages: 1 -->
<svg width="883pt" height="577pt"
 viewBox="0.00 0.00 882.50 577.00" xmlns="http://www.w3.org/2000/svg" xmlns:xlink="http://www.w3.org/1999/xlink">
<g id="graph0" class="graph" transform="scale(1 1) rotate(0) translate(4 573)">
<title>sgns::verification::ProductionLotteryImpl</title>
<!-- Node1 -->
<g id="node1" class="node">
<title>Node1</title>
<g id="a_node1"><a xlink:title=" ">
<polygon fill="#999999" stroke="#666666" points="412,-85 281,-85 281,0 412,0 412,-85"/>
<text text-anchor="start" x="289" y="-73" font-family="Helvetica,sans-Serif" font-size="10.00">{sgns::verification</text>
<text text-anchor="middle" x="346.5" y="-62" font-family="Helvetica,sans-Serif" font-size="10.00">::ProductionLotteryImpl</text>
<text text-anchor="start" x="289" y="-51" font-family="Helvetica,sans-Serif" font-size="10.00">||+ ProductionLotteryImpl()</text>
<text text-anchor="start" x="289" y="-40" font-family="Helvetica,sans-Serif" font-size="10.00">+ slotsLeadership()</text>
<text text-anchor="start" x="289" y="-29" font-family="Helvetica,sans-Serif" font-size="10.00">+ computeRandomness()</text>
<text text-anchor="start" x="289" y="-18" font-family="Helvetica,sans-Serif" font-size="10.00">+ submitVRFValue()</text>
<text text-anchor="middle" x="346.5" y="-7" font-family="Helvetica,sans-Serif" font-size="10.00">}</text>
</a>
</g>
</g>
<!-- Node2 -->
<g id="node2" class="node">
<title>Node2</title>
<g id="a_node2"><a xlink:href="structsgns_1_1verification_1_1_production_lottery.html" target="_top" xlink:title=" ">
<polygon fill="white" stroke="#666666" points="125,-217 0,-217 0,-132 125,-132 125,-217"/>
<text text-anchor="start" x="8" y="-205" font-family="Helvetica,sans-Serif" font-size="10.00">{sgns::verification</text>
<text text-anchor="middle" x="62.5" y="-194" font-family="Helvetica,sans-Serif" font-size="10.00">::ProductionLottery</text>
<text text-anchor="start" x="8" y="-183" font-family="Helvetica,sans-Serif" font-size="10.00">||+ ~ProductionLottery()</text>
<text text-anchor="start" x="8" y="-172" font-family="Helvetica,sans-Serif" font-size="10.00">+ slotsLeadership()</text>
<text text-anchor="start" x="8" y="-161" font-family="Helvetica,sans-Serif" font-size="10.00">+ computeRandomness()</text>
<text text-anchor="start" x="8" y="-150" font-family="Helvetica,sans-Serif" font-size="10.00">+ submitVRFValue()</text>
<text text-anchor="middle" x="62.5" y="-139" font-family="Helvetica,sans-Serif" font-size="10.00">}</text>
</a>
</g>
</g>
<!-- Node2&#45;&gt;Node1 -->
<g id="edge1" class="edge">
<title>Node2&#45;&gt;Node1</title>
<path fill="none" stroke="#63b8ff" d="M135.8,-131.52C189.12,-105.54 240.81,-84.17 280.59,-68.5"/>
<polygon fill="none" stroke="#63b8ff" points="134.25,-128.38 126.83,-135.93 137.34,-134.66 134.25,-128.38"/>
</g>
<!-- Node3 -->
<g id="node3" class="node">
<title>Node3</title>
<g id="a_node3"><a xlink:title=" ">
<polygon fill="white" stroke="#666666" points="259.5,-200.5 143.5,-200.5 143.5,-148.5 259.5,-148.5 259.5,-200.5"/>
<text text-anchor="start" x="151.5" y="-188.5" font-family="Helvetica,sans-Serif" font-size="10.00">{std::shared_ptr&lt; sgns</text>
<text text-anchor="middle" x="201.5" y="-177.5" font-family="Helvetica,sans-Serif" font-size="10.00">::crypto::VRFProvider &gt;</text>
<text text-anchor="start" x="151.5" y="-166.5" font-family="Helvetica,sans-Serif" font-size="10.00">||+ operator&#45;&gt;()</text>
<text text-anchor="middle" x="201.5" y="-155.5" font-family="Helvetica,sans-Serif" font-size="10.00">}</text>
</a>
</g>
</g>
<!-- Node3&#45;&gt;Node1 -->
<g id="edge2" class="edge">
<title>Node3&#45;&gt;Node1</title>
<path fill="none" stroke="#404040" d="M229.8,-148.13C246.95,-132.75 269.43,-112.6 290.08,-94.09"/>
<polygon fill="none" stroke="#404040" points="290.12,-94.05 291.91,-87.07 299.05,-86.04 297.25,-93.02 290.12,-94.05"/>
<text text-anchor="middle" x="309.5" y="-106" font-family="Helvetica,sans-Serif" font-size="10.00"> &#45;vrf_provider_</text>
</g>
<!-- Node4 -->
<g id="node4" class="node">
<title>Node4</title>
<g id="a_node4"><a xlink:href="classsgns_1_1crypto_1_1_v_r_f_provider.html" target="_top" xlink:title=" ">
<polygon fill="white" stroke="#666666" points="219,-365.5 88,-365.5 88,-291.5 219,-291.5 219,-365.5"/>
<text text-anchor="middle" x="153.5" y="-353.5" font-family="Helvetica,sans-Serif" font-size="10.00">{sgns::crypto::VRFProvider</text>
<text text-anchor="start" x="96" y="-342.5" font-family="Helvetica,sans-Serif" font-size="10.00">||+ ~VRFProvider()</text>
<text text-anchor="start" x="96" y="-331.5" font-family="Helvetica,sans-Serif" font-size="10.00">+ generateKeypair()</text>
<text text-anchor="start" x="96" y="-320.5" font-family="Helvetica,sans-Serif" font-size="10.00">+ sign()</text>
<text text-anchor="start" x="96" y="-309.5" font-family="Helvetica,sans-Serif" font-size="10.00">+ verify()</text>
<text text-anchor="middle" x="153.5" y="-298.5" font-family="Helvetica,sans-Serif" font-size="10.00">}</text>
</a>
</g>
</g>
<!-- Node4&#45;&gt;Node3 -->
<g id="edge3" class="edge">
<title>Node4&#45;&gt;Node3</title>
<path fill="none" stroke="#404040" d="M148.55,-291.42C147.48,-273.92 148.19,-252.87 154.5,-235 157.51,-226.48 162.29,-218.25 167.66,-210.77"/>
<polygon fill="none" stroke="#404040" points="167.58,-210.88 168.14,-203.69 174.99,-201.45 174.43,-208.63 167.58,-210.88"/>
<text text-anchor="middle" x="164.5" y="-238" font-family="Helvetica,sans-Serif" font-size="10.00"> +ptr</text>
</g>
<!-- Node5 -->
<g id="node5" class="node">
<title>Node5</title>
<g id="a_node5"><a xlink:title=" ">
<polygon fill="white" stroke="#666666" points="435.5,-349 329.5,-349 329.5,-308 435.5,-308 435.5,-349"/>
<text text-anchor="middle" x="382.5" y="-337" font-family="Helvetica,sans-Serif" font-size="10.00">{std::shared_ptr&lt; T &gt;</text>
<text text-anchor="start" x="337.5" y="-326" font-family="Helvetica,sans-Serif" font-size="10.00">||+ operator&#45;&gt;()</text>
<text text-anchor="middle" x="382.5" y="-315" font-family="Helvetica,sans-Serif" font-size="10.00">}</text>
</a>
</g>
</g>
<!-- Node5&#45;&gt;Node3 -->
<g id="edge4" class="edge">
<title>Node5&#45;&gt;Node3</title>
<path fill="none" stroke="orange" d="M318.47,-311.48C282.9,-299.31 240.84,-278.89 215.5,-246 205.68,-233.25 202.2,-215.45 201.16,-200.92"/>
<polygon fill="orange" stroke="orange" points="317.25,-314.76 327.84,-314.53 319.41,-308.11 317.25,-314.76"/>
<text text-anchor="middle" x="281" y="-238" font-family="Helvetica,sans-Serif" font-size="10.00"> &lt; sgns::crypto::VRFProvider &gt;</text>
</g>
<!-- Node7 -->
<g id="node7" class="node">
<title>Node7</title>
<g id="a_node7"><a xlink:title=" ">
<polygon fill="white" stroke="#666666" points="538,-200.5 425,-200.5 425,-148.5 538,-148.5 538,-200.5"/>
<text text-anchor="start" x="433" y="-188.5" font-family="Helvetica,sans-Serif" font-size="10.00">{std::shared_ptr&lt; sgns</text>
<text text-anchor="middle" x="481.5" y="-177.5" font-family="Helvetica,sans-Serif" font-size="10.00">::crypto::Hasher &gt;</text>
<text text-anchor="start" x="433" y="-166.5" font-family="Helvetica,sans-Serif" font-size="10.00">||+ operator&#45;&gt;()</text>
<text text-anchor="middle" x="481.5" y="-155.5" font-family="Helvetica,sans-Serif" font-size="10.00">}</text>
</a>
</g>
</g>
<!-- Node5&#45;&gt;Node7 -->
<g id="edge8" class="edge">
<title>Node5&#45;&gt;Node7</title>
<path fill="none" stroke="orange" d="M401.53,-298.29C419.89,-270.09 447.43,-227.81 464.92,-200.95"/>
<polygon fill="orange" stroke="orange" points="398.79,-296.07 396.27,-306.36 404.66,-299.89 398.79,-296.07"/>
<text text-anchor="middle" x="495" y="-238" font-family="Helvetica,sans-Serif" font-size="10.00"> &lt; sgns::crypto::Hasher &gt;</text>
</g>
<!-- Node13 -->
<g id="node13" class="node">
<title>Node13</title>
<g id="a_node13"><a xlink:title=" ">
<polygon fill="white" stroke="#666666" points="406.5,-206 286.5,-206 286.5,-143 406.5,-143 406.5,-206"/>
<text text-anchor="start" x="294.5" y="-194" font-family="Helvetica,sans-Serif" font-size="10.00">{std::shared_ptr&lt; spdlog</text>
<text text-anchor="middle" x="346.5" y="-183" font-family="Helvetica,sans-Serif" font-size="10.00">::logger &gt;</text>
<text text-anchor="start" x="294.5" y="-172" font-family="Helvetica,sans-Serif" font-size="10.00">|+ ptr</text>
<text text-anchor="start" x="294.5" y="-161" font-family="Helvetica,sans-Serif" font-size="10.00">|+ operator&#45;&gt;()</text>
<text text-anchor="middle" x="346.5" y="-150" font-family="Helvetica,sans-Serif" font-size="10.00">}</text>
</a>
</g>
</g>
<!-- Node5&#45;&gt;Node13 -->
<g id="edge16" class="edge">
<title>Node5&#45;&gt;Node13</title>
<path fill="none" stroke="orange" d="M368.59,-297.3C362.27,-282.21 355.36,-263.49 351.5,-246 348.67,-233.18 347.33,-218.76 346.74,-206.32"/>
<polygon fill="orange" stroke="orange" points="365.25,-298.4 372.43,-306.19 371.67,-295.62 365.25,-298.4"/>
<text text-anchor="middle" x="391" y="-238" font-family="Helvetica,sans-Serif" font-size="10.00"> &lt; spdlog::logger &gt;</text>
</g>
<!-- Node6 -->
<g id="node6" class="node">
<title>Node6</title>
<g id="a_node6"><a xlink:title=" ">
<polygon fill="white" stroke="#666666" points="625,-569 596,-569 596,-539 625,-539 625,-569"/>
<text text-anchor="middle" x="610.5" y="-557" font-family="Helvetica,sans-Serif" font-size="10.00">{T</text>
<text text-anchor="middle" x="610.5" y="-546" font-family="Helvetica,sans-Serif" font-size="10.00">||}</text>
</a>
</g>
</g>
<!-- Node6&#45;&gt;Node5 -->
<g id="edge5" class="edge">
<title>Node6&#45;&gt;Node5</title>
<path fill="none" stroke="#404040" d="M595.71,-540.72C581.32,-528.64 558.99,-509.51 540.5,-492 492.98,-447.01 440.53,-391.9 409.6,-358.8"/>
<polygon fill="none" stroke="#404040" points="409.52,-358.71 402.5,-357.05 401.34,-349.93 408.35,-351.6 409.52,-358.71"/>
<text text-anchor="middle" x="550.5" y="-474.5" font-family="Helvetica,sans-Serif" font-size="10.00"> +ptr</text>
</g>
<!-- Node11 -->
<g id="node11" class="node">
<title>Node11</title>
<g id="a_node11"><a xlink:title=" ">
<polygon fill="white" stroke="#666666" points="651,-492 570,-492 570,-462 651,-462 651,-492"/>
<text text-anchor="middle" x="610.5" y="-480" font-family="Helvetica,sans-Serif" font-size="10.00">{std::array&lt; T &gt;</text>
<text text-anchor="middle" x="610.5" y="-469" font-family="Helvetica,sans-Serif" font-size="10.00">||}</text>
</a>
</g>
</g>
<!-- Node6&#45;&gt;Node11 -->
<g id="edge12" class="edge">
<title>Node6&#45;&gt;Node11</title>
<path fill="none" stroke="#404040" d="M610.5,-538.54C610.5,-529.1 610.5,-516.47 610.5,-505.2"/>
<polygon fill="none" stroke="#404040" points="610.5,-505.32 606.5,-499.32 610.5,-493.32 614.5,-499.32 610.5,-505.32"/>
<text text-anchor="middle" x="635" y="-513" font-family="Helvetica,sans-Serif" font-size="10.00"> +elements</text>
</g>
<!-- Node12 -->
<g id="node12" class="node">
<title>Node12</title>
<g id="a_node12"><a xlink:title=" ">
<polygon fill="white" stroke="#666666" points="804,-442.5 717,-442.5 717,-412.5 804,-412.5 804,-442.5"/>
<text text-anchor="middle" x="760.5" y="-430.5" font-family="Helvetica,sans-Serif" font-size="10.00">{std::vector&lt; T &gt;</text>
<text text-anchor="middle" x="760.5" y="-419.5" font-family="Helvetica,sans-Serif" font-size="10.00">||}</text>
</a>
</g>
</g>
<!-- Node6&#45;&gt;Node12 -->
<g id="edge14" class="edge">
<title>Node6&#45;&gt;Node12</title>
<path fill="none" stroke="#404040" d="M625.45,-545.13C636.39,-539.1 651.37,-530.27 663.5,-521 691.06,-499.95 719.4,-472.06 738.28,-452.43"/>
<polygon fill="none" stroke="#404040" points="738.35,-452.35 739.58,-445.25 746.61,-443.65 745.38,-450.76 738.35,-452.35"/>
<text text-anchor="middle" x="701" y="-513" font-family="Helvetica,sans-Serif" font-size="10.00"> +elements</text>
</g>
<!-- Node7&#45;&gt;Node1 -->
<g id="edge6" class="edge">
<title>Node7&#45;&gt;Node1</title>
<path fill="none" stroke="#404040" d="M455.15,-148.13C439.26,-132.82 418.44,-112.78 399.29,-94.34"/>
<polygon fill="none" stroke="#404040" points="399.34,-94.39 392.25,-93.11 390.7,-86.06 397.8,-87.34 399.34,-94.39"/>
<text text-anchor="middle" x="438.5" y="-106" font-family="Helvetica,sans-Serif" font-size="10.00"> &#45;hasher_</text>
</g>
<!-- Node8 -->
<g id="node8" class="node">
<title>Node8</title>
<g id="a_node8"><a xlink:href="classsgns_1_1crypto_1_1_hasher.html" target="_top" xlink:title=" ">
<polygon fill="white" stroke="#666666" points="593,-393 486,-393 486,-264 593,-264 593,-393"/>
<text text-anchor="middle" x="539.5" y="-381" font-family="Helvetica,sans-Serif" font-size="10.00">{sgns::crypto::Hasher</text>
<text text-anchor="start" x="494" y="-370" font-family="Helvetica,sans-Serif" font-size="10.00">||+ ~Hasher()</text>
<text text-anchor="start" x="494" y="-359" font-family="Helvetica,sans-Serif" font-size="10.00">+ twox_64()</text>
<text text-anchor="start" x="494" y="-348" font-family="Helvetica,sans-Serif" font-size="10.00">+ twox_128()</text>
<text text-anchor="start" x="494" y="-337" font-family="Helvetica,sans-Serif" font-size="10.00">+ blake2b_128()</text>
<text text-anchor="start" x="494" y="-326" font-family="Helvetica,sans-Serif" font-size="10.00">+ twox_256()</text>
<text text-anchor="start" x="494" y="-315" font-family="Helvetica,sans-Serif" font-size="10.00">+ blake2b_256()</text>
<text text-anchor="start" x="494" y="-304" font-family="Helvetica,sans-Serif" font-size="10.00">+ keccak_256()</text>
<text text-anchor="start" x="494" y="-293" font-family="Helvetica,sans-Serif" font-size="10.00">+ blake2s_256()</text>
<text text-anchor="start" x="494" y="-282" font-family="Helvetica,sans-Serif" font-size="10.00">+ sha2_256()</text>
<text text-anchor="middle" x="539.5" y="-271" font-family="Helvetica,sans-Serif" font-size="10.00">}</text>
</a>
</g>
</g>
<!-- Node8&#45;&gt;Node7 -->
<g id="edge7" class="edge">
<title>Node8&#45;&gt;Node7</title>
<path fill="none" stroke="#404040" d="M565.3,-263.9C566.14,-253.95 564.98,-243.99 560.5,-235 555.6,-225.17 548.21,-216.54 539.89,-209.12"/>
<polygon fill="none" stroke="#404040" points="539.83,-209.07 532.65,-208.41 530.49,-201.53 537.67,-202.19 539.83,-209.07"/>
<text text-anchor="middle" x="574.5" y="-238" font-family="Helvetica,sans-Serif" font-size="10.00"> +ptr</text>
</g>
<!-- Node9 -->
<g id="node9" class="node">
<title>Node9</title>
<g id="a_node9"><a xlink:title=" ">
<polygon fill="white" stroke="#666666" points="717,-195 618,-195 618,-154 717,-154 717,-195"/>
<text text-anchor="start" x="626" y="-183" font-family="Helvetica,sans-Serif" font-size="10.00">{std::vector&lt; crypto</text>
<text text-anchor="middle" x="667.5" y="-172" font-family="Helvetica,sans-Serif" font-size="10.00">::VRFPreOutput &gt;</text>
<text text-anchor="middle" x="667.5" y="-161" font-family="Helvetica,sans-Serif" font-size="10.00">||}</text>
</a>
</g>
</g>
<!-- Node9&#45;&gt;Node1 -->
<g id="edge9" class="edge">
<title>Node9&#45;&gt;Node1</title>
<path fill="none" stroke="#404040" d="M618.4,-153.61C566.7,-132.68 484.57,-99.41 424.09,-74.92"/>
<polygon fill="none" stroke="#404040" points="424.25,-74.99 417.19,-76.44 413.13,-70.48 420.19,-69.03 424.25,-74.99"/>
<text text-anchor="middle" x="572" y="-106" font-family="Helvetica,sans-Serif" font-size="10.00"> &#45;last_epoch_vrf_values_</text>
</g>
<!-- Node10 -->
<g id="node10" class="node">
<title>Node10</title>
<g id="a_node10"><a xlink:title=" ">
<polygon fill="white" stroke="#666666" points="724,-360 611,-360 611,-297 724,-297 724,-360"/>
<text text-anchor="start" x="619" y="-348" font-family="Helvetica,sans-Serif" font-size="10.00">{std::array&lt; uint8_t,</text>
<text text-anchor="start" x="619" y="-337" font-family="Helvetica,sans-Serif" font-size="10.00"> constants::sr25519</text>
<text text-anchor="middle" x="667.5" y="-326" font-family="Helvetica,sans-Serif" font-size="10.00">::vrf::OUTPUT_SIZE &gt;</text>
<text text-anchor="start" x="619" y="-315" font-family="Helvetica,sans-Serif" font-size="10.00">|+ elements</text>
<text text-anchor="middle" x="667.5" y="-304" font-family="Helvetica,sans-Serif" font-size="10.00">|}</text>
</a>
</g>
</g>
<!-- Node10&#45;&gt;Node9 -->
<g id="edge10" class="edge">
<title>Node10&#45;&gt;Node9</title>
<path fill="none" stroke="#404040" d="M667.5,-296.74C667.5,-271 667.5,-234.39 667.5,-208.14"/>
<polygon fill="none" stroke="#404040" points="667.5,-208.01 663.5,-202.01 667.5,-196.01 671.5,-202.01 667.5,-208.01"/>
<text text-anchor="middle" x="692" y="-238" font-family="Helvetica,sans-Serif" font-size="10.00"> +elements</text>
</g>
<!-- Node11&#45;&gt;Node10 -->
<g id="edge11" class="edge">
<title>Node11&#45;&gt;Node10</title>
<path fill="none" stroke="orange" d="M604.55,-450.42C602.8,-438.21 602.32,-423.55 606.5,-411 612.69,-392.39 624.99,-374.59 636.92,-360.41"/>
<polygon fill="orange" stroke="orange" points="601.09,-450.96 606.32,-460.17 607.97,-449.7 601.09,-450.96"/>
<text text-anchor="start" x="606.5" y="-436" font-family="Helvetica,sans-Serif" font-size="10.00"> &lt; uint8_t, constants</text>
<text text-anchor="start" x="606.5" y="-425" font-family="Helvetica,sans-Serif" font-size="10.00">::sr25519::vrf::OUTPUT</text>
<text text-anchor="middle" x="657" y="-414" font-family="Helvetica,sans-Serif" font-size="10.00">_SIZE &gt;</text>
</g>
<!-- Node12&#45;&gt;Node9 -->
<g id="edge13" class="edge">
<title>Node12&#45;&gt;Node9</title>
<path fill="none" stroke="orange" d="M760.63,-400.76C759.69,-361.92 753.3,-287.32 720.5,-235 711.46,-220.58 698.87,-206.28 688.23,-195.32"/>
<polygon fill="orange" stroke="orange" points="757.13,-400.57 760.76,-410.53 764.13,-400.48 757.13,-400.57"/>
<text text-anchor="middle" x="817.5" y="-326" font-family="Helvetica,sans-Serif" font-size="10.00"> &lt; crypto::VRFPreOutput &gt;</text>
</g>
<!-- Node13&#45;&gt;Node1 -->
<g id="edge15" class="edge">
<title>Node13&#45;&gt;Node1</title>
<path fill="none" stroke="#404040" d="M346.5,-142.69C346.5,-129.45 346.5,-113.56 346.5,-98.43"/>
<polygon fill="none" stroke="#404040" points="346.5,-98.3 342.5,-92.3 346.5,-86.3 350.5,-92.3 346.5,-98.3"/>
<text text-anchor="middle" x="365" y="-106" font-family="Helvetica,sans-Serif" font-size="10.00"> &#45;logger_</text>
</g>
</g>
</svg>
