<?xml version="1.0" encoding="UTF-8" standalone="no"?>
<!DOCTYPE svg PUBLIC "-//W3C//DTD SVG 1.1//EN"
 "http://www.w3.org/Graphics/SVG/1.1/DTD/svg11.dtd">
<!-- Generated by graphviz version 7.0.5 (20221223.1930)
 -->
<!-- Title: sgns::api::RpcThreadPool Pages: 1 -->
<!--zoomable 527 -->
<svg id="main" version="1.1" xmlns="http://www.w3.org/2000/svg" xmlns:xlink="http://www.w3.org/1999/xlink" xml:space="preserve" onload="init(evt)">
<style type="text/css"><![CDATA[
.edge:hover path { stroke: red; }
.edge:hover polygon { stroke: red; fill: red; }
]]></style>
<script type="text/javascript"><![CDATA[
var edges = document.getElementsByTagName('g');
if (edges && edges.length) {
  for (var i=0;i<edges.length;i++) {
    if (edges[i].id.substr(0,4)=='edge') {
      edges[i].setAttribute('class','edge');
    }
  }
}
]]></script>
        <defs>
                <circle id="rim" cx="0" cy="0" r="7"/>
                <circle id="rim2" cx="0" cy="0" r="3.5"/>
                <g id="zoomPlus">
                        <use xlink:href="#rim" fill="#404040">
                                <set attributeName="fill" to="#808080" begin="zoomplus.mouseover" end="zoomplus.mouseout"/>
                        </use>
                        <path d="M-4,0h8M0,-4v8" fill="none" stroke="white" stroke-width="1.5" pointer-events="none"/>
                </g>
                <g id="zoomMin">
                        <use xlink:href="#rim" fill="#404040">
                                <set attributeName="fill" to="#808080" begin="zoomminus.mouseover" end="zoomminus.mouseout"/>
                        </use>
                        <path d="M-4,0h8" fill="none" stroke="white" stroke-width="1.5" pointer-events="none"/>
                </g>
                <g id="dirArrow">
                        <path fill="none" stroke="white" stroke-width="1.5" d="M0,-3.0v7 M-2.5,-0.5L0,-3.0L2.5,-0.5"/>
                </g>
               <g id="resetDef">
                       <use xlink:href="#rim2" fill="#404040">
                               <set attributeName="fill" to="#808080" begin="reset.mouseover" end="reset.mouseout"/>
                       </use>
               </g>
        </defs>

<script type="text/javascript">
var viewWidth = 760;
var viewHeight = 527;
var sectionId = 'dynsection-1';
</script>
<script xlink:href="svgpan.js"/>
<svg id="graph" class="graph">
<g id="viewport">
<title>sgns::api::RpcThreadPool</title>
<!-- Node1 -->
<g id="node1" class="node">
<title>Node1</title>
<g id="a_node1"><a xlink:title="thread pool for serve RPC calls">
<polygon fill="#999999" stroke="#666666" points="431.5,-74 302.5,-74 302.5,0 431.5,0 431.5,-74"/>
<text text-anchor="middle" x="367" y="-62" font-family="Helvetica,sans-Serif" font-size="10.00">{sgns::api::RpcThreadPool</text>
<text text-anchor="start" x="310.5" y="-51" font-family="Helvetica,sans-Serif" font-size="10.00">||+ RpcThreadPool()</text>
<text text-anchor="start" x="310.5" y="-40" font-family="Helvetica,sans-Serif" font-size="10.00">+ ~RpcThreadPool()</text>
<text text-anchor="start" x="310.5" y="-29" font-family="Helvetica,sans-Serif" font-size="10.00">+ start()</text>
<text text-anchor="start" x="310.5" y="-18" font-family="Helvetica,sans-Serif" font-size="10.00">+ stop()</text>
<text text-anchor="middle" x="367" y="-7" font-family="Helvetica,sans-Serif" font-size="10.00">}</text>
</a>
</g>
</g>
<!-- Node2 -->
<g id="node2" class="node">
<title>Node2</title>
<g id="a_node2"><a xlink:title=" ">
<polygon fill="white" stroke="#666666" points="146,-173 0,-173 0,-132 146,-132 146,-173"/>
<text text-anchor="start" x="8" y="-161" font-family="Helvetica,sans-Serif" font-size="10.00">{std::enable_shared</text>
<text text-anchor="middle" x="73" y="-150" font-family="Helvetica,sans-Serif" font-size="10.00">_from_this&lt; RpcThreadPool &gt;</text>
<text text-anchor="middle" x="73" y="-139" font-family="Helvetica,sans-Serif" font-size="10.00">||}</text>
</a>
</g>
</g>
<!-- Node2&#45;&gt;Node1 -->
<g id="edge1" class="edge">
<title>Node2&#45;&gt;Node1</title>
<path fill="none" stroke="#63b8ff" d="M135.02,-127.56C184.07,-108.62 252.35,-82.26 302.13,-63.04"/>
<polygon fill="none" stroke="#63b8ff" points="134.03,-124.19 125.96,-131.05 136.55,-130.72 134.03,-124.19"/>
</g>
<!-- Node3 -->
<g id="node3" class="node">
<title>Node3</title>
<g id="a_node3"><a xlink:title=" ">
<polygon fill="white" stroke="#666666" points="615.5,-335 502.5,-335 502.5,-283 615.5,-283 615.5,-335"/>
<text text-anchor="start" x="510.5" y="-323" font-family="Helvetica,sans-Serif" font-size="10.00">{std::shared_ptr&lt; sgns</text>
<text text-anchor="middle" x="559" y="-312" font-family="Helvetica,sans-Serif" font-size="10.00">::api::RpcContext &gt;</text>
<text text-anchor="start" x="510.5" y="-301" font-family="Helvetica,sans-Serif" font-size="10.00">||+ operator&#45;&gt;()</text>
<text text-anchor="middle" x="559" y="-290" font-family="Helvetica,sans-Serif" font-size="10.00">}</text>
</a>
</g>
</g>
<!-- Node3&#45;&gt;Node1 -->
<g id="edge2" class="edge">
<title>Node3&#45;&gt;Node1</title>
<path fill="none" stroke="#404040" d="M556.87,-282.77C552.39,-243.94 538.85,-169.01 499,-121 483.75,-102.63 463.35,-87.07 443.15,-74.57"/>
<polygon fill="none" stroke="#404040" points="443.08,-74.52 435.88,-74.9 432.76,-68.39 439.96,-68.02 443.08,-74.52"/>
<text text-anchor="middle" x="554.5" y="-150" font-family="Helvetica,sans-Serif" font-size="10.00"> &#45;context_</text>
</g>
<!-- Node4 -->
<g id="node4" class="node">
<title>Node4</title>
<g id="a_node4"><a xlink:href="classsgns_1_1api_1_1_rpc_context.html" target="_top" xlink:title=" ">
<polygon fill="white" stroke="#666666" points="750.5,-436.5 637.5,-436.5 637.5,-406.5 750.5,-406.5 750.5,-436.5"/>
<text text-anchor="middle" x="694" y="-424.5" font-family="Helvetica,sans-Serif" font-size="10.00">{sgns::api::RpcContext</text>
<text text-anchor="middle" x="694" y="-413.5" font-family="Helvetica,sans-Serif" font-size="10.00">||}</text>
</a>
</g>
</g>
<!-- Node4&#45;&gt;Node3 -->
<g id="edge3" class="edge">
<title>Node4&#45;&gt;Node3</title>
<path fill="none" stroke="#404040" d="M691.91,-406C689.01,-390.92 682.42,-367.53 668,-353 656.87,-341.77 642.44,-333.4 627.76,-327.18"/>
<polygon fill="none" stroke="#404040" points="628.02,-327.29 620.98,-328.86 616.82,-322.97 623.86,-321.4 628.02,-327.29"/>
<text text-anchor="middle" x="695" y="-365.5" font-family="Helvetica,sans-Serif" font-size="10.00"> +ptr</text>
</g>
<!-- Node5 -->
<g id="node5" class="node">
<title>Node5</title>
<g id="a_node5"><a xlink:title=" ">
<polygon fill="white" stroke="#666666" points="751.5,-519 636.5,-519 636.5,-489 751.5,-489 751.5,-519"/>
<text text-anchor="middle" x="694" y="-507" font-family="Helvetica,sans-Serif" font-size="10.00">{boost::asio::io_context</text>
<text text-anchor="middle" x="694" y="-496" font-family="Helvetica,sans-Serif" font-size="10.00">||}</text>
</a>
</g>
</g>
<!-- Node5&#45;&gt;Node4 -->
<g id="edge4" class="edge">
<title>Node5&#45;&gt;Node4</title>
<path fill="none" stroke="#63b8ff" d="M694,-477.2C694,-463.81 694,-447.95 694,-436.77"/>
<polygon fill="none" stroke="#63b8ff" points="690.5,-477.09 694,-487.09 697.5,-477.09 690.5,-477.09"/>
</g>
<!-- Node6 -->
<g id="node6" class="node">
<title>Node6</title>
<g id="a_node6"><a xlink:title=" ">
<polygon fill="white" stroke="#666666" points="497,-442 391,-442 391,-401 497,-401 497,-442"/>
<text text-anchor="middle" x="444" y="-430" font-family="Helvetica,sans-Serif" font-size="10.00">{std::shared_ptr&lt; T &gt;</text>
<text text-anchor="start" x="399" y="-419" font-family="Helvetica,sans-Serif" font-size="10.00">||+ operator&#45;&gt;()</text>
<text text-anchor="middle" x="444" y="-408" font-family="Helvetica,sans-Serif" font-size="10.00">}</text>
</a>
</g>
</g>
<!-- Node6&#45;&gt;Node3 -->
<g id="edge5" class="edge">
<title>Node6&#45;&gt;Node3</title>
<path fill="none" stroke="orange" d="M507.79,-403.72C518.65,-398.52 528.99,-391.77 537,-383 548.87,-370 554.35,-350.8 556.87,-335.36"/>
<polygon fill="orange" stroke="orange" points="506.47,-400.48 498.66,-407.64 509.23,-406.91 506.47,-400.48"/>
<text text-anchor="middle" x="608" y="-365.5" font-family="Helvetica,sans-Serif" font-size="10.00"> &lt; sgns::api::RpcContext &gt;</text>
</g>
<!-- Node10 -->
<g id="node10" class="node">
<title>Node10</title>
<g id="a_node10"><a xlink:title=" ">
<polygon fill="white" stroke="#666666" points="422.5,-335 317.5,-335 317.5,-283 422.5,-283 422.5,-335"/>
<text text-anchor="start" x="325.5" y="-323" font-family="Helvetica,sans-Serif" font-size="10.00">{std::shared_ptr&lt; std</text>
<text text-anchor="middle" x="370" y="-312" font-family="Helvetica,sans-Serif" font-size="10.00">::thread &gt;</text>
<text text-anchor="start" x="325.5" y="-301" font-family="Helvetica,sans-Serif" font-size="10.00">||+ operator&#45;&gt;()</text>
<text text-anchor="middle" x="370" y="-290" font-family="Helvetica,sans-Serif" font-size="10.00">}</text>
</a>
</g>
</g>
<!-- Node6&#45;&gt;Node10 -->
<g id="edge11" class="edge">
<title>Node6&#45;&gt;Node10</title>
<path fill="none" stroke="orange" d="M381.55,-395.24C377.47,-391.66 373.85,-387.6 371,-383 362.32,-369 362.2,-350.39 364.18,-335.47"/>
<polygon fill="orange" stroke="orange" points="379.2,-397.85 389.3,-401.03 383.39,-392.24 379.2,-397.85"/>
<text text-anchor="middle" x="403" y="-365.5" font-family="Helvetica,sans-Serif" font-size="10.00"> &lt; std::thread &gt;</text>
</g>
<!-- Node13 -->
<g id="node13" class="node">
<title>Node13</title>
<g id="a_node13"><a xlink:title=" ">
<polygon fill="white" stroke="#666666" points="522,-265 402,-265 402,-202 522,-202 522,-265"/>
<text text-anchor="start" x="410" y="-253" font-family="Helvetica,sans-Serif" font-size="10.00">{std::shared_ptr&lt; spdlog</text>
<text text-anchor="middle" x="462" y="-242" font-family="Helvetica,sans-Serif" font-size="10.00">::logger &gt;</text>
<text text-anchor="start" x="410" y="-231" font-family="Helvetica,sans-Serif" font-size="10.00">|+ ptr</text>
<text text-anchor="start" x="410" y="-220" font-family="Helvetica,sans-Serif" font-size="10.00">|+ operator&#45;&gt;()</text>
<text text-anchor="middle" x="462" y="-209" font-family="Helvetica,sans-Serif" font-size="10.00">}</text>
</a>
</g>
</g>
<!-- Node6&#45;&gt;Node13 -->
<g id="edge15" class="edge">
<title>Node6&#45;&gt;Node13</title>
<path fill="none" stroke="orange" d="M447.02,-389.33C450.35,-354.86 455.69,-299.67 459.02,-265.33"/>
<polygon fill="orange" stroke="orange" points="443.55,-388.8 446.07,-399.09 450.52,-389.47 443.55,-388.8"/>
<text text-anchor="middle" x="489.5" y="-365.5" font-family="Helvetica,sans-Serif" font-size="10.00"> &lt; spdlog::logger &gt;</text>
</g>
<!-- Node7 -->
<g id="node7" class="node">
<title>Node7</title>
<g id="a_node7"><a xlink:title=" ">
<polygon fill="white" stroke="#666666" points="333.5,-519 304.5,-519 304.5,-489 333.5,-489 333.5,-519"/>
<text text-anchor="middle" x="319" y="-507" font-family="Helvetica,sans-Serif" font-size="10.00">{T</text>
<text text-anchor="middle" x="319" y="-496" font-family="Helvetica,sans-Serif" font-size="10.00">||}</text>
</a>
</g>
</g>
<!-- Node7&#45;&gt;Node6 -->
<g id="edge6" class="edge">
<title>Node7&#45;&gt;Node6</title>
<path fill="none" stroke="#404040" d="M333.83,-493.45C350.58,-482.66 378.57,-464.64 402.15,-449.45"/>
<polygon fill="none" stroke="#404040" points="402.11,-449.48 404.99,-442.87 412.2,-442.98 409.32,-449.59 402.11,-449.48"/>
<text text-anchor="middle" x="395" y="-463" font-family="Helvetica,sans-Serif" font-size="10.00"> +ptr</text>
</g>
<!-- Node12 -->
<g id="node12" class="node">
<title>Node12</title>
<g id="a_node12"><a xlink:title=" ">
<polygon fill="white" stroke="#666666" points="282.5,-383 195.5,-383 195.5,-353 282.5,-353 282.5,-383"/>
<text text-anchor="middle" x="239" y="-371" font-family="Helvetica,sans-Serif" font-size="10.00">{std::vector&lt; T &gt;</text>
<text text-anchor="middle" x="239" y="-360" font-family="Helvetica,sans-Serif" font-size="10.00">||}</text>
</a>
</g>
</g>
<!-- Node7&#45;&gt;Node12 -->
<g id="edge13" class="edge">
<title>Node7&#45;&gt;Node12</title>
<path fill="none" stroke="#404040" d="M310.44,-488.66C296.97,-466.09 270.64,-421.99 253.98,-394.09"/>
<polygon fill="none" stroke="#404040" points="254.11,-394.31 247.6,-391.21 247.96,-384.01 254.47,-387.11 254.11,-394.31"/>
<text text-anchor="middle" x="322.5" y="-463" font-family="Helvetica,sans-Serif" font-size="10.00"> +elements</text>
</g>
<!-- Node8 -->
<g id="node8" class="node">
<title>Node8</title>
<g id="a_node8"><a xlink:href="classsgns_1_1api_1_1_rpc_thread_pool.html#structsgns_1_1api_1_1_rpc_thread_pool_1_1_configuration" target="_top" xlink:title=" ">
<polygon fill="white" stroke="#666666" points="431.5,-184 302.5,-184 302.5,-121 431.5,-121 431.5,-184"/>
<text text-anchor="start" x="310.5" y="-172" font-family="Helvetica,sans-Serif" font-size="10.00">{sgns::api::RpcThreadPool</text>
<text text-anchor="middle" x="367" y="-161" font-family="Helvetica,sans-Serif" font-size="10.00">::Configuration</text>
<text text-anchor="start" x="310.5" y="-150" font-family="Helvetica,sans-Serif" font-size="10.00">|+ min_thread_number</text>
<text text-anchor="start" x="310.5" y="-139" font-family="Helvetica,sans-Serif" font-size="10.00">+ max_thread_number</text>
<text text-anchor="middle" x="367" y="-128" font-family="Helvetica,sans-Serif" font-size="10.00">|}</text>
</a>
</g>
</g>
<!-- Node8&#45;&gt;Node1 -->
<g id="edge7" class="edge">
<title>Node8&#45;&gt;Node1</title>
<path fill="none" stroke="#404040" d="M367,-120.79C367,-110.5 367,-98.75 367,-87.41"/>
<polygon fill="none" stroke="#404040" points="367,-87.29 363,-81.29 367,-75.29 371,-81.29 367,-87.29"/>
<text text-anchor="middle" x="385.5" y="-95" font-family="Helvetica,sans-Serif" font-size="10.00"> &#45;config_</text>
</g>
<!-- Node9 -->
<g id="node9" class="node">
<title>Node9</title>
<g id="a_node9"><a xlink:title=" ">
<polygon fill="white" stroke="#666666" points="284,-173 164,-173 164,-132 284,-132 284,-173"/>
<text text-anchor="start" x="172" y="-161" font-family="Helvetica,sans-Serif" font-size="10.00">{std::vector&lt; std::shared</text>
<text text-anchor="middle" x="224" y="-150" font-family="Helvetica,sans-Serif" font-size="10.00">_ptr&lt; std::thread &gt; &gt;</text>
<text text-anchor="middle" x="224" y="-139" font-family="Helvetica,sans-Serif" font-size="10.00">||}</text>
</a>
</g>
</g>
<!-- Node9&#45;&gt;Node1 -->
<g id="edge8" class="edge">
<title>Node9&#45;&gt;Node1</title>
<path fill="none" stroke="#404040" d="M248.91,-131.73C266.04,-118.13 289.49,-99.52 310.99,-82.46"/>
<polygon fill="none" stroke="#404040" points="310.91,-82.52 313.12,-75.66 320.31,-75.06 318.1,-81.92 310.91,-82.52"/>
<text text-anchor="middle" x="316.5" y="-95" font-family="Helvetica,sans-Serif" font-size="10.00"> &#45;threads_</text>
</g>
<!-- Node10&#45;&gt;Node9 -->
<g id="edge9" class="edge">
<title>Node10&#45;&gt;Node9</title>
<path fill="none" stroke="#404040" d="M346.22,-282.83C320.23,-255.33 278.66,-211.34 251.34,-182.43"/>
<polygon fill="none" stroke="#404040" points="251.53,-182.63 244.5,-181.02 243.29,-173.91 250.32,-175.52 251.53,-182.63"/>
<text text-anchor="middle" x="350.5" y="-231" font-family="Helvetica,sans-Serif" font-size="10.00"> +elements</text>
</g>
<!-- Node11 -->
<g id="node11" class="node">
<title>Node11</title>
<g id="a_node11"><a xlink:title=" ">
<polygon fill="white" stroke="#666666" points="359.5,-436.5 294.5,-436.5 294.5,-406.5 359.5,-406.5 359.5,-436.5"/>
<text text-anchor="middle" x="327" y="-424.5" font-family="Helvetica,sans-Serif" font-size="10.00">{std::thread</text>
<text text-anchor="middle" x="327" y="-413.5" font-family="Helvetica,sans-Serif" font-size="10.00">||}</text>
</a>
</g>
</g>
<!-- Node11&#45;&gt;Node10 -->
<g id="edge10" class="edge">
<title>Node11&#45;&gt;Node10</title>
<path fill="none" stroke="#404040" d="M324.24,-406.18C322.19,-392.08 320.84,-370.21 328,-353 329.03,-350.52 330.28,-348.1 331.7,-345.75"/>
<polygon fill="none" stroke="#404040" points="331.67,-345.79 332,-338.59 338.77,-336.12 338.45,-343.32 331.67,-345.79"/>
<text text-anchor="middle" x="338" y="-365.5" font-family="Helvetica,sans-Serif" font-size="10.00"> +ptr</text>
</g>
<!-- Node12&#45;&gt;Node9 -->
<g id="edge12" class="edge">
<title>Node12&#45;&gt;Node9</title>
<path fill="none" stroke="orange" d="M229.52,-341.73C228.92,-339.48 228.39,-337.21 228,-335 217.65,-276.98 220.28,-206.88 222.46,-173.3"/>
<polygon fill="orange" stroke="orange" points="226.15,-342.69 232.53,-351.15 232.82,-340.56 226.15,-342.69"/>
<text text-anchor="start" x="228" y="-312" font-family="Helvetica,sans-Serif" font-size="10.00"> &lt; std::shared_ptr&lt;</text>
<text text-anchor="middle" x="268.5" y="-301" font-family="Helvetica,sans-Serif" font-size="10.00"> std::thread &gt; &gt;</text>
</g>
<!-- Node13&#45;&gt;Node1 -->
<g id="edge14" class="edge">
<title>Node13&#45;&gt;Node1</title>
<path fill="none" stroke="#404040" d="M460.65,-201.76C458.6,-178.55 453.52,-146.45 441,-121 434.54,-107.87 425.42,-95.24 415.78,-83.96"/>
<polygon fill="none" stroke="#404040" points="415.84,-84.03 408.86,-82.23 407.83,-75.09 414.81,-76.89 415.84,-84.03"/>
<text text-anchor="middle" x="476.5" y="-150" font-family="Helvetica,sans-Serif" font-size="10.00"> &#45;logger_</text>
</g>
</g>
</svg>
        <g id="navigator" transform="translate(0 0)" fill="#404254">
                <rect fill="#f2f5e9" fill-opacity="0.5" stroke="#606060" stroke-width=".5" x="0" y="0" width="60" height="60"/>
                <use id="zoomplus" xlink:href="#zoomPlus" x="17" y="9" onmousedown="handleZoom(evt,'in')"/>
                <use id="zoomminus" xlink:href="#zoomMin" x="42" y="9" onmousedown="handleZoom(evt,'out')"/>
                <use id="reset" xlink:href="#resetDef" x="30" y="36" onmousedown="handleReset()"/>
                <g id="arrowUp" xlink:href="#dirArrow" transform="translate(30 24)" onmousedown="handlePan(0,-1)">
                  <use xlink:href="#rim" fill="#404040">
                        <set attributeName="fill" to="#808080" begin="arrowUp.mouseover" end="arrowUp.mouseout"/>
                  </use>
                  <path fill="none" stroke="white" stroke-width="1.5" d="M0,-3.0v7 M-2.5,-0.5L0,-3.0L2.5,-0.5"/>
                </g>
                <g id="arrowRight" xlink:href="#dirArrow" transform="rotate(90) translate(36 -43)" onmousedown="handlePan(1,0)">
                  <use xlink:href="#rim" fill="#404040">
                        <set attributeName="fill" to="#808080" begin="arrowRight.mouseover" end="arrowRight.mouseout"/>
                  </use>
                  <path fill="none" stroke="white" stroke-width="1.5" d="M0,-3.0v7 M-2.5,-0.5L0,-3.0L2.5,-0.5"/>
                </g>
                <g id="arrowDown" xlink:href="#dirArrow" transform="rotate(180) translate(-30 -48)" onmousedown="handlePan(0,1)">
                  <use xlink:href="#rim" fill="#404040">
                        <set attributeName="fill" to="#808080" begin="arrowDown.mouseover" end="arrowDown.mouseout"/>
                  </use>
                  <path fill="none" stroke="white" stroke-width="1.5" d="M0,-3.0v7 M-2.5,-0.5L0,-3.0L2.5,-0.5"/>
                </g>
                <g id="arrowLeft" xlink:href="#dirArrow" transform="rotate(270) translate(-36 17)" onmousedown="handlePan(-1,0)">
                  <use xlink:href="#rim" fill="#404040">
                        <set attributeName="fill" to="#808080" begin="arrowLeft.mouseover" end="arrowLeft.mouseout"/>
                  </use>
                  <path fill="none" stroke="white" stroke-width="1.5" d="M0,-3.0v7 M-2.5,-0.5L0,-3.0L2.5,-0.5"/>
                </g>
        </g>
        <svg viewBox="0 0 15 15" width="100%" height="30px" preserveAspectRatio="xMaxYMin meet">
         <g id="arrow_out" transform="scale(0.3 0.3)">
          <a xlink:href="classsgns_1_1api_1_1_rpc_thread_pool__coll__graph_org.svg" target="_base">
           <rect id="button" ry="5" rx="5" y="6" x="6" height="38" width="38"
                fill="#f2f5e9" fill-opacity="0.5" stroke="#606060" stroke-width="1.0"/>
           <path id="arrow"
             d="M 11.500037,31.436501 C 11.940474,20.09759 22.043105,11.32322 32.158766,21.979434 L 37.068811,17.246167 C 37.068811,17.246167 37.088388,32 37.088388,32 L 22.160133,31.978069 C 22.160133,31.978069 26.997745,27.140456 26.997745,27.140456 C 18.528582,18.264221 13.291696,25.230495 11.500037,31.436501 z"
             style="fill:#404040;"/>
          </a>
         </g>
        </svg>
</svg>
