<?xml version="1.0" encoding="UTF-8" standalone="no"?>
<!DOCTYPE svg PUBLIC "-//W3C//DTD SVG 1.1//EN"
 "http://www.w3.org/Graphics/SVG/1.1/DTD/svg11.dtd">
<!-- Generated by graphviz version 7.0.5 (20221223.1930)
 -->
<!-- Title: sgns::crdt::PubSubBroadcaster Pages: 1 -->
<!--zoomable 379 -->
<svg id="main" version="1.1" xmlns="http://www.w3.org/2000/svg" xmlns:xlink="http://www.w3.org/1999/xlink" xml:space="preserve" onload="init(evt)">
<style type="text/css"><![CDATA[
.edge:hover path { stroke: red; }
.edge:hover polygon { stroke: red; fill: red; }
]]></style>
<script type="text/javascript"><![CDATA[
var edges = document.getElementsByTagName('g');
if (edges && edges.length) {
  for (var i=0;i<edges.length;i++) {
    if (edges[i].id.substr(0,4)=='edge') {
      edges[i].setAttribute('class','edge');
    }
  }
}
]]></script>
        <defs>
                <circle id="rim" cx="0" cy="0" r="7"/>
                <circle id="rim2" cx="0" cy="0" r="3.5"/>
                <g id="zoomPlus">
                        <use xlink:href="#rim" fill="#404040">
                                <set attributeName="fill" to="#808080" begin="zoomplus.mouseover" end="zoomplus.mouseout"/>
                        </use>
                        <path d="M-4,0h8M0,-4v8" fill="none" stroke="white" stroke-width="1.5" pointer-events="none"/>
                </g>
                <g id="zoomMin">
                        <use xlink:href="#rim" fill="#404040">
                                <set attributeName="fill" to="#808080" begin="zoomminus.mouseover" end="zoomminus.mouseout"/>
                        </use>
                        <path d="M-4,0h8" fill="none" stroke="white" stroke-width="1.5" pointer-events="none"/>
                </g>
                <g id="dirArrow">
                        <path fill="none" stroke="white" stroke-width="1.5" d="M0,-3.0v7 M-2.5,-0.5L0,-3.0L2.5,-0.5"/>
                </g>
               <g id="resetDef">
                       <use xlink:href="#rim2" fill="#404040">
                               <set attributeName="fill" to="#808080" begin="reset.mouseover" end="reset.mouseout"/>
                       </use>
               </g>
        </defs>

<script type="text/javascript">
var viewWidth = 636;
var viewHeight = 379;
var sectionId = 'dynsection-1';
</script>
<script xlink:href="svgpan.js"/>
<svg id="graph" class="graph">
<g id="viewport">
<title>sgns::crdt::PubSubBroadcaster</title>
<!-- Node1 -->
<g id="node1" class="node">
<title>Node1</title>
<g id="a_node1"><a xlink:title=" ">
<polygon fill="#999999" stroke="#666666" points="432,-74 279,-74 279,0 432,0 432,-74"/>
<text text-anchor="middle" x="355.5" y="-62" font-family="Helvetica,sans-Serif" font-size="10.00">{sgns::crdt::PubSubBroadcaster</text>
<text text-anchor="start" x="287" y="-51" font-family="Helvetica,sans-Serif" font-size="10.00">||+ PubSubBroadcaster()</text>
<text text-anchor="start" x="287" y="-40" font-family="Helvetica,sans-Serif" font-size="10.00">+ SetLogger()</text>
<text text-anchor="start" x="287" y="-29" font-family="Helvetica,sans-Serif" font-size="10.00">+ Broadcast()</text>
<text text-anchor="start" x="287" y="-18" font-family="Helvetica,sans-Serif" font-size="10.00">+ Next()</text>
<text text-anchor="middle" x="355.5" y="-7" font-family="Helvetica,sans-Serif" font-size="10.00">}</text>
</a>
</g>
</g>
<!-- Node2 -->
<g id="node2" class="node">
<title>Node2</title>
<g id="a_node2"><a xlink:href="classsgns_1_1crdt_1_1_broadcaster.html" target="_top" xlink:title="A Broadcaster provides a way to send (notify) an opaque payload to all replicas and to retrieve paylo...">
<polygon fill="white" stroke="#666666" points="119,-184 0,-184 0,-121 119,-121 119,-184"/>
<text text-anchor="middle" x="59.5" y="-172" font-family="Helvetica,sans-Serif" font-size="10.00">{sgns::crdt::Broadcaster</text>
<text text-anchor="start" x="8" y="-161" font-family="Helvetica,sans-Serif" font-size="10.00">||+ ~Broadcaster()</text>
<text text-anchor="start" x="8" y="-150" font-family="Helvetica,sans-Serif" font-size="10.00">+ Broadcast()</text>
<text text-anchor="start" x="8" y="-139" font-family="Helvetica,sans-Serif" font-size="10.00">+ Next()</text>
<text text-anchor="middle" x="59.5" y="-128" font-family="Helvetica,sans-Serif" font-size="10.00">}</text>
</a>
</g>
</g>
<!-- Node2&#45;&gt;Node1 -->
<g id="edge1" class="edge">
<title>Node2&#45;&gt;Node1</title>
<path fill="none" stroke="#63b8ff" d="M129.89,-120.52C184.8,-98.55 237.07,-79.45 278.58,-64.71"/>
<polygon fill="none" stroke="#63b8ff" points="128.61,-117.26 120.64,-124.24 131.22,-123.76 128.61,-117.26"/>
</g>
<!-- Node3 -->
<g id="node3" class="node">
<title>Node3</title>
<g id="a_node3"><a xlink:title=" ">
<polygon fill="white" stroke="#666666" points="277.5,-184 137.5,-184 137.5,-121 277.5,-121 277.5,-184"/>
<text text-anchor="start" x="145.5" y="-172" font-family="Helvetica,sans-Serif" font-size="10.00">{std::shared_ptr&lt; GossipPub</text>
<text text-anchor="middle" x="207.5" y="-161" font-family="Helvetica,sans-Serif" font-size="10.00">SubTopic &gt;</text>
<text text-anchor="start" x="145.5" y="-150" font-family="Helvetica,sans-Serif" font-size="10.00">|+ ptr</text>
<text text-anchor="start" x="145.5" y="-139" font-family="Helvetica,sans-Serif" font-size="10.00">|+ operator&#45;&gt;()</text>
<text text-anchor="middle" x="207.5" y="-128" font-family="Helvetica,sans-Serif" font-size="10.00">}</text>
</a>
</g>
</g>
<!-- Node3&#45;&gt;Node1 -->
<g id="edge2" class="edge">
<title>Node3&#45;&gt;Node1</title>
<path fill="none" stroke="#404040" d="M227.48,-120.59C234.86,-110.68 243.81,-100.16 253.5,-92 258.05,-88.17 262.92,-84.5 267.97,-81.01"/>
<polygon fill="none" stroke="#404040" points="267.74,-81.15 270.58,-74.52 277.79,-74.58 274.95,-81.22 267.74,-81.15"/>
<text text-anchor="middle" x="302.5" y="-95" font-family="Helvetica,sans-Serif" font-size="10.00"> &#45;gossipPubSubTopic_</text>
</g>
<!-- Node4 -->
<g id="node4" class="node">
<title>Node4</title>
<g id="a_node4"><a xlink:title=" ">
<polygon fill="white" stroke="#666666" points="408.5,-294 302.5,-294 302.5,-253 408.5,-253 408.5,-294"/>
<text text-anchor="middle" x="355.5" y="-282" font-family="Helvetica,sans-Serif" font-size="10.00">{std::shared_ptr&lt; T &gt;</text>
<text text-anchor="start" x="310.5" y="-271" font-family="Helvetica,sans-Serif" font-size="10.00">||+ operator&#45;&gt;()</text>
<text text-anchor="middle" x="355.5" y="-260" font-family="Helvetica,sans-Serif" font-size="10.00">}</text>
</a>
</g>
</g>
<!-- Node4&#45;&gt;Node3 -->
<g id="edge3" class="edge">
<title>Node4&#45;&gt;Node3</title>
<path fill="none" stroke="orange" d="M291.29,-261.33C273.85,-255.77 256.05,-247.45 242.5,-235 227.98,-221.67 219.23,-201.29 214.11,-184.25"/>
<polygon fill="orange" stroke="orange" points="290.03,-264.61 300.61,-264.03 291.98,-257.89 290.03,-264.61"/>
<text text-anchor="middle" x="297" y="-216" font-family="Helvetica,sans-Serif" font-size="10.00"> &lt; GossipPubSubTopic &gt;</text>
</g>
<!-- Node8 -->
<g id="node8" class="node">
<title>Node8</title>
<g id="a_node8"><a xlink:title=" ">
<polygon fill="white" stroke="#666666" points="415.5,-184 295.5,-184 295.5,-121 415.5,-121 415.5,-184"/>
<text text-anchor="start" x="303.5" y="-172" font-family="Helvetica,sans-Serif" font-size="10.00">{std::shared_ptr&lt; spdlog</text>
<text text-anchor="middle" x="355.5" y="-161" font-family="Helvetica,sans-Serif" font-size="10.00">::logger &gt;</text>
<text text-anchor="start" x="303.5" y="-150" font-family="Helvetica,sans-Serif" font-size="10.00">|+ ptr</text>
<text text-anchor="start" x="303.5" y="-139" font-family="Helvetica,sans-Serif" font-size="10.00">|+ operator&#45;&gt;()</text>
<text text-anchor="middle" x="355.5" y="-128" font-family="Helvetica,sans-Serif" font-size="10.00">}</text>
</a>
</g>
</g>
<!-- Node4&#45;&gt;Node8 -->
<g id="edge9" class="edge">
<title>Node4&#45;&gt;Node8</title>
<path fill="none" stroke="orange" d="M355.5,-241.19C355.5,-223.6 355.5,-201.72 355.5,-184.22"/>
<polygon fill="orange" stroke="orange" points="352,-241.07 355.5,-251.07 359,-241.07 352,-241.07"/>
<text text-anchor="middle" x="395" y="-216" font-family="Helvetica,sans-Serif" font-size="10.00"> &lt; spdlog::logger &gt;</text>
</g>
<!-- Node5 -->
<g id="node5" class="node">
<title>Node5</title>
<g id="a_node5"><a xlink:title=" ">
<polygon fill="white" stroke="#666666" points="426,-371 397,-371 397,-341 426,-341 426,-371"/>
<text text-anchor="middle" x="411.5" y="-359" font-family="Helvetica,sans-Serif" font-size="10.00">{T</text>
<text text-anchor="middle" x="411.5" y="-348" font-family="Helvetica,sans-Serif" font-size="10.00">||}</text>
</a>
</g>
</g>
<!-- Node5&#45;&gt;Node4 -->
<g id="edge4" class="edge">
<title>Node5&#45;&gt;Node4</title>
<path fill="none" stroke="#404040" d="M401.49,-340.61C394.53,-330.6 385,-316.91 376.42,-304.57"/>
<polygon fill="none" stroke="#404040" points="376.58,-304.8 369.87,-302.16 369.73,-294.95 376.44,-297.59 376.58,-304.8"/>
<text text-anchor="middle" x="398.5" y="-315" font-family="Helvetica,sans-Serif" font-size="10.00"> +ptr</text>
</g>
<!-- Node7 -->
<g id="node7" class="node">
<title>Node7</title>
<g id="a_node7"><a xlink:title=" ">
<polygon fill="white" stroke="#666666" points="517.5,-288.5 431.5,-288.5 431.5,-258.5 517.5,-258.5 517.5,-288.5"/>
<text text-anchor="middle" x="474.5" y="-276.5" font-family="Helvetica,sans-Serif" font-size="10.00">{std::queue&lt; T &gt;</text>
<text text-anchor="middle" x="474.5" y="-265.5" font-family="Helvetica,sans-Serif" font-size="10.00">||}</text>
</a>
</g>
</g>
<!-- Node5&#45;&gt;Node7 -->
<g id="edge7" class="edge">
<title>Node5&#45;&gt;Node7</title>
<path fill="none" stroke="#404040" d="M422.76,-340.61C431.81,-329.05 444.72,-312.55 455.38,-298.93"/>
<polygon fill="none" stroke="#404040" points="455.38,-298.93 455.93,-291.74 462.78,-289.48 462.23,-296.67 455.38,-298.93"/>
<text text-anchor="middle" x="469" y="-315" font-family="Helvetica,sans-Serif" font-size="10.00"> +elements</text>
</g>
<!-- Node6 -->
<g id="node6" class="node">
<title>Node6</title>
<g id="a_node6"><a xlink:title=" ">
<polygon fill="white" stroke="#666666" points="545,-184 434,-184 434,-121 545,-121 545,-184"/>
<text text-anchor="start" x="442" y="-172" font-family="Helvetica,sans-Serif" font-size="10.00">{std::queue&lt; std::tuple</text>
<text text-anchor="start" x="442" y="-161" font-family="Helvetica,sans-Serif" font-size="10.00">&lt; libp2p::peer::PeerId,</text>
<text text-anchor="middle" x="489.5" y="-150" font-family="Helvetica,sans-Serif" font-size="10.00"> std::string &gt; &gt;</text>
<text text-anchor="start" x="442" y="-139" font-family="Helvetica,sans-Serif" font-size="10.00">|+ elements</text>
<text text-anchor="middle" x="489.5" y="-128" font-family="Helvetica,sans-Serif" font-size="10.00">|}</text>
</a>
</g>
</g>
<!-- Node6&#45;&gt;Node1 -->
<g id="edge5" class="edge">
<title>Node6&#45;&gt;Node1</title>
<path fill="none" stroke="#404040" d="M453.24,-120.79C439.38,-109.04 423.28,-95.41 408.19,-82.63"/>
<polygon fill="none" stroke="#404040" points="408.3,-82.72 401.14,-81.9 399.14,-74.97 406.31,-75.79 408.3,-82.72"/>
<text text-anchor="middle" x="470" y="-95" font-family="Helvetica,sans-Serif" font-size="10.00"> &#45;listOfMessages_</text>
</g>
<!-- Node7&#45;&gt;Node6 -->
<g id="edge6" class="edge">
<title>Node7&#45;&gt;Node6</title>
<path fill="none" stroke="orange" d="M477.71,-247.07C480.03,-228.61 483.19,-203.56 485.65,-184.02"/>
<polygon fill="orange" stroke="orange" points="474.25,-246.52 476.47,-256.88 481.19,-247.4 474.25,-246.52"/>
<text text-anchor="start" x="482.5" y="-227" font-family="Helvetica,sans-Serif" font-size="10.00"> &lt; std::tuple&lt; libp2p</text>
<text text-anchor="start" x="482.5" y="-216" font-family="Helvetica,sans-Serif" font-size="10.00">::peer::PeerId, std::</text>
<text text-anchor="middle" x="524.5" y="-205" font-family="Helvetica,sans-Serif" font-size="10.00">string &gt; &gt;</text>
</g>
<!-- Node8&#45;&gt;Node1 -->
<g id="edge8" class="edge">
<title>Node8&#45;&gt;Node1</title>
<path fill="none" stroke="#404040" d="M355.5,-120.79C355.5,-110.5 355.5,-98.75 355.5,-87.41"/>
<polygon fill="none" stroke="#404040" points="355.5,-87.29 351.5,-81.29 355.5,-75.29 359.5,-81.29 355.5,-87.29"/>
<text text-anchor="middle" x="374" y="-95" font-family="Helvetica,sans-Serif" font-size="10.00"> &#45;logger_</text>
</g>
<!-- Node9 -->
<g id="node9" class="node">
<title>Node9</title>
<g id="a_node9"><a xlink:title=" ">
<polygon fill="white" stroke="#666666" points="627.5,-167.5 563.5,-167.5 563.5,-137.5 627.5,-137.5 627.5,-167.5"/>
<text text-anchor="middle" x="595.5" y="-155.5" font-family="Helvetica,sans-Serif" font-size="10.00">{std::mutex</text>
<text text-anchor="middle" x="595.5" y="-144.5" font-family="Helvetica,sans-Serif" font-size="10.00">||}</text>
</a>
</g>
</g>
<!-- Node9&#45;&gt;Node1 -->
<g id="edge10" class="edge">
<title>Node9&#45;&gt;Node1</title>
<path fill="none" stroke="#404040" d="M576.38,-137.13C569.51,-132 561.68,-126.21 554.5,-121 536.43,-107.89 533.37,-102.16 513.5,-92 491.95,-80.99 467.65,-71.41 444.68,-63.51"/>
<polygon fill="none" stroke="#404040" points="444.69,-63.51 437.73,-65.4 433.31,-59.7 440.27,-57.81 444.69,-63.51"/>
<text text-anchor="middle" x="549" y="-95" font-family="Helvetica,sans-Serif" font-size="10.00"> &#45;mutex_</text>
</g>
</g>
</svg>
        <g id="navigator" transform="translate(0 0)" fill="#404254">
                <rect fill="#f2f5e9" fill-opacity="0.5" stroke="#606060" stroke-width=".5" x="0" y="0" width="60" height="60"/>
                <use id="zoomplus" xlink:href="#zoomPlus" x="17" y="9" onmousedown="handleZoom(evt,'in')"/>
                <use id="zoomminus" xlink:href="#zoomMin" x="42" y="9" onmousedown="handleZoom(evt,'out')"/>
                <use id="reset" xlink:href="#resetDef" x="30" y="36" onmousedown="handleReset()"/>
                <g id="arrowUp" xlink:href="#dirArrow" transform="translate(30 24)" onmousedown="handlePan(0,-1)">
                  <use xlink:href="#rim" fill="#404040">
                        <set attributeName="fill" to="#808080" begin="arrowUp.mouseover" end="arrowUp.mouseout"/>
                  </use>
                  <path fill="none" stroke="white" stroke-width="1.5" d="M0,-3.0v7 M-2.5,-0.5L0,-3.0L2.5,-0.5"/>
                </g>
                <g id="arrowRight" xlink:href="#dirArrow" transform="rotate(90) translate(36 -43)" onmousedown="handlePan(1,0)">
                  <use xlink:href="#rim" fill="#404040">
                        <set attributeName="fill" to="#808080" begin="arrowRight.mouseover" end="arrowRight.mouseout"/>
                  </use>
                  <path fill="none" stroke="white" stroke-width="1.5" d="M0,-3.0v7 M-2.5,-0.5L0,-3.0L2.5,-0.5"/>
                </g>
                <g id="arrowDown" xlink:href="#dirArrow" transform="rotate(180) translate(-30 -48)" onmousedown="handlePan(0,1)">
                  <use xlink:href="#rim" fill="#404040">
                        <set attributeName="fill" to="#808080" begin="arrowDown.mouseover" end="arrowDown.mouseout"/>
                  </use>
                  <path fill="none" stroke="white" stroke-width="1.5" d="M0,-3.0v7 M-2.5,-0.5L0,-3.0L2.5,-0.5"/>
                </g>
                <g id="arrowLeft" xlink:href="#dirArrow" transform="rotate(270) translate(-36 17)" onmousedown="handlePan(-1,0)">
                  <use xlink:href="#rim" fill="#404040">
                        <set attributeName="fill" to="#808080" begin="arrowLeft.mouseover" end="arrowLeft.mouseout"/>
                  </use>
                  <path fill="none" stroke="white" stroke-width="1.5" d="M0,-3.0v7 M-2.5,-0.5L0,-3.0L2.5,-0.5"/>
                </g>
        </g>
        <svg viewBox="0 0 15 15" width="100%" height="30px" preserveAspectRatio="xMaxYMin meet">
         <g id="arrow_out" transform="scale(0.3 0.3)">
          <a xlink:href="classsgns_1_1crdt_1_1_pub_sub_broadcaster__coll__graph_org.svg" target="_base">
           <rect id="button" ry="5" rx="5" y="6" x="6" height="38" width="38"
                fill="#f2f5e9" fill-opacity="0.5" stroke="#606060" stroke-width="1.0"/>
           <path id="arrow"
             d="M 11.500037,31.436501 C 11.940474,20.09759 22.043105,11.32322 32.158766,21.979434 L 37.068811,17.246167 C 37.068811,17.246167 37.088388,32 37.088388,32 L 22.160133,31.978069 C 22.160133,31.978069 26.997745,27.140456 26.997745,27.140456 C 18.528582,18.264221 13.291696,25.230495 11.500037,31.436501 z"
             style="fill:#404040;"/>
          </a>
         </g>
        </svg>
</svg>
