<?xml version="1.0" encoding="UTF-8" standalone="no"?>
<!DOCTYPE svg PUBLIC "-//W3C//DTD SVG 1.1//EN"
 "http://www.w3.org/Graphics/SVG/1.1/DTD/svg11.dtd">
<!-- Generated by graphviz version 7.0.5 (20221223.1930)
 -->
<!-- Title: sgns::storage::trie::TrieStorageImpl Pages: 1 -->
<!--zoomable 731 -->
<svg id="main" version="1.1" xmlns="http://www.w3.org/2000/svg" xmlns:xlink="http://www.w3.org/1999/xlink" xml:space="preserve" onload="init(evt)">
<style type="text/css"><![CDATA[
.edge:hover path { stroke: red; }
.edge:hover polygon { stroke: red; fill: red; }
]]></style>
<script type="text/javascript"><![CDATA[
var edges = document.getElementsByTagName('g');
if (edges && edges.length) {
  for (var i=0;i<edges.length;i++) {
    if (edges[i].id.substr(0,4)=='edge') {
      edges[i].setAttribute('class','edge');
    }
  }
}
]]></script>
        <defs>
                <circle id="rim" cx="0" cy="0" r="7"/>
                <circle id="rim2" cx="0" cy="0" r="3.5"/>
                <g id="zoomPlus">
                        <use xlink:href="#rim" fill="#404040">
                                <set attributeName="fill" to="#808080" begin="zoomplus.mouseover" end="zoomplus.mouseout"/>
                        </use>
                        <path d="M-4,0h8M0,-4v8" fill="none" stroke="white" stroke-width="1.5" pointer-events="none"/>
                </g>
                <g id="zoomMin">
                        <use xlink:href="#rim" fill="#404040">
                                <set attributeName="fill" to="#808080" begin="zoomminus.mouseover" end="zoomminus.mouseout"/>
                        </use>
                        <path d="M-4,0h8" fill="none" stroke="white" stroke-width="1.5" pointer-events="none"/>
                </g>
                <g id="dirArrow">
                        <path fill="none" stroke="white" stroke-width="1.5" d="M0,-3.0v7 M-2.5,-0.5L0,-3.0L2.5,-0.5"/>
                </g>
               <g id="resetDef">
                       <use xlink:href="#rim2" fill="#404040">
                               <set attributeName="fill" to="#808080" begin="reset.mouseover" end="reset.mouseout"/>
                       </use>
               </g>
        </defs>

<script type="text/javascript">
var viewWidth = 1038;
var viewHeight = 731;
var sectionId = 'dynsection-1';
</script>
<script xlink:href="svgpan.js"/>
<svg id="graph" class="graph">
<g id="viewport">
<title>sgns::storage::trie::TrieStorageImpl</title>
<!-- Node1 -->
<g id="node1" class="node">
<title>Node1</title>
<g id="a_node1"><a xlink:title=" ">
<polygon fill="#999999" stroke="#666666" points="670,-195 545,-195 545,0 670,0 670,-195"/>
<text text-anchor="start" x="553" y="-183" font-family="Helvetica,sans-Serif" font-size="10.00">{sgns::storage::trie</text>
<text text-anchor="middle" x="607.5" y="-172" font-family="Helvetica,sans-Serif" font-size="10.00">::TrieStorageImpl</text>
<text text-anchor="start" x="553" y="-161" font-family="Helvetica,sans-Serif" font-size="10.00">|&#45; changes_</text>
<text text-anchor="start" x="553" y="-150" font-family="Helvetica,sans-Serif" font-size="10.00">|+ TrieStorageImpl()</text>
<text text-anchor="start" x="553" y="-139" font-family="Helvetica,sans-Serif" font-size="10.00">+ operator=()</text>
<text text-anchor="start" x="553" y="-128" font-family="Helvetica,sans-Serif" font-size="10.00">+ TrieStorageImpl()</text>
<text text-anchor="start" x="553" y="-117" font-family="Helvetica,sans-Serif" font-size="10.00">+ operator=()</text>
<text text-anchor="start" x="553" y="-106" font-family="Helvetica,sans-Serif" font-size="10.00">+ ~TrieStorageImpl()</text>
<text text-anchor="start" x="553" y="-95" font-family="Helvetica,sans-Serif" font-size="10.00">+ getPersistentBatch()</text>
<text text-anchor="start" x="553" y="-84" font-family="Helvetica,sans-Serif" font-size="10.00">+ getEphemeralBatch()</text>
<text text-anchor="start" x="553" y="-73" font-family="Helvetica,sans-Serif" font-size="10.00">+ getPersistentBatchAt()</text>
<text text-anchor="start" x="553" y="-62" font-family="Helvetica,sans-Serif" font-size="10.00">+ getEphemeralBatchAt()</text>
<text text-anchor="start" x="553" y="-51" font-family="Helvetica,sans-Serif" font-size="10.00">+ getRootHash()</text>
<text text-anchor="start" x="553" y="-40" font-family="Helvetica,sans-Serif" font-size="10.00">+ createEmpty()</text>
<text text-anchor="start" x="553" y="-29" font-family="Helvetica,sans-Serif" font-size="10.00">+ createFromStorage()</text>
<text text-anchor="start" x="553" y="-18" font-family="Helvetica,sans-Serif" font-size="10.00"># TrieStorageImpl()</text>
<text text-anchor="middle" x="607.5" y="-7" font-family="Helvetica,sans-Serif" font-size="10.00">}</text>
</a>
</g>
</g>
<!-- Node2 -->
<g id="node2" class="node">
<title>Node2</title>
<g id="a_node2"><a xlink:href="classsgns_1_1storage_1_1trie_1_1_trie_storage.html" target="_top" xlink:title=" ">
<polygon fill="white" stroke="#666666" points="359,-382 234,-382 234,-275 359,-275 359,-382"/>
<text text-anchor="start" x="242" y="-370" font-family="Helvetica,sans-Serif" font-size="10.00">{sgns::storage::trie</text>
<text text-anchor="middle" x="296.5" y="-359" font-family="Helvetica,sans-Serif" font-size="10.00">::TrieStorage</text>
<text text-anchor="start" x="242" y="-348" font-family="Helvetica,sans-Serif" font-size="10.00">||+ ~TrieStorage()</text>
<text text-anchor="start" x="242" y="-337" font-family="Helvetica,sans-Serif" font-size="10.00">+ getPersistentBatch()</text>
<text text-anchor="start" x="242" y="-326" font-family="Helvetica,sans-Serif" font-size="10.00">+ getEphemeralBatch()</text>
<text text-anchor="start" x="242" y="-315" font-family="Helvetica,sans-Serif" font-size="10.00">+ getPersistentBatchAt()</text>
<text text-anchor="start" x="242" y="-304" font-family="Helvetica,sans-Serif" font-size="10.00">+ getEphemeralBatchAt()</text>
<text text-anchor="start" x="242" y="-293" font-family="Helvetica,sans-Serif" font-size="10.00">+ getRootHash()</text>
<text text-anchor="middle" x="296.5" y="-282" font-family="Helvetica,sans-Serif" font-size="10.00">}</text>
</a>
</g>
</g>
<!-- Node2&#45;&gt;Node1 -->
<g id="edge1" class="edge">
<title>Node2&#45;&gt;Node1</title>
<path fill="none" stroke="#63b8ff" d="M343.82,-266.17C351.63,-257.61 359.97,-249.27 368.5,-242 422.92,-195.62 494.14,-154.97 544.63,-128.89"/>
<polygon fill="none" stroke="#63b8ff" points="341.21,-263.83 337.2,-273.64 346.45,-268.47 341.21,-263.83"/>
</g>
<!-- Node3 -->
<g id="node3" class="node">
<title>Node3</title>
<g id="a_node3"><a xlink:href="classsgns_1_1base_1_1_buffer.html" target="_top" xlink:title="Class represents arbitrary (including empty) byte buffer.">
<polygon fill="white" stroke="#666666" points="473.5,-415 377.5,-415 377.5,-242 473.5,-242 473.5,-415"/>
<text text-anchor="middle" x="425.5" y="-403" font-family="Helvetica,sans-Serif" font-size="10.00">{sgns::base::Buffer</text>
<text text-anchor="start" x="385.5" y="-392" font-family="Helvetica,sans-Serif" font-size="10.00">||+ Buffer()</text>
<text text-anchor="start" x="385.5" y="-381" font-family="Helvetica,sans-Serif" font-size="10.00">+ ~Buffer()</text>
<text text-anchor="start" x="385.5" y="-370" font-family="Helvetica,sans-Serif" font-size="10.00">+ Buffer()</text>
<text text-anchor="start" x="385.5" y="-359" font-family="Helvetica,sans-Serif" font-size="10.00">+ Buffer()</text>
<text text-anchor="start" x="385.5" y="-348" font-family="Helvetica,sans-Serif" font-size="10.00">+ Buffer()</text>
<text text-anchor="start" x="385.5" y="-337" font-family="Helvetica,sans-Serif" font-size="10.00">+ Buffer()</text>
<text text-anchor="start" x="385.5" y="-326" font-family="Helvetica,sans-Serif" font-size="10.00">+ Buffer()</text>
<text text-anchor="start" x="385.5" y="-315" font-family="Helvetica,sans-Serif" font-size="10.00">+ Buffer()</text>
<text text-anchor="start" x="385.5" y="-304" font-family="Helvetica,sans-Serif" font-size="10.00">+ Buffer()</text>
<text text-anchor="start" x="385.5" y="-293" font-family="Helvetica,sans-Serif" font-size="10.00">+ reserve()</text>
<text text-anchor="start" x="385.5" y="-282" font-family="Helvetica,sans-Serif" font-size="10.00">and 32 more...</text>
<text text-anchor="start" x="385.5" y="-271" font-family="Helvetica,sans-Serif" font-size="10.00">+ fromHex()</text>
<text text-anchor="start" x="385.5" y="-260" font-family="Helvetica,sans-Serif" font-size="10.00">&#45; putRange()</text>
<text text-anchor="middle" x="425.5" y="-249" font-family="Helvetica,sans-Serif" font-size="10.00">}</text>
</a>
</g>
</g>
<!-- Node3&#45;&gt;Node1 -->
<g id="edge2" class="edge">
<title>Node3&#45;&gt;Node1</title>
<path fill="none" stroke="#404040" d="M473.79,-266.73C493.03,-242.53 515.56,-214.18 536.58,-187.73"/>
<polygon fill="none" stroke="#404040" points="536.53,-187.8 537.13,-180.61 544,-178.4 543.39,-185.59 536.53,-187.8"/>
<text text-anchor="middle" x="543.5" y="-216" font-family="Helvetica,sans-Serif" font-size="10.00"> &#45;root_hash_</text>
</g>
<!-- Node4 -->
<g id="node4" class="node">
<title>Node4</title>
<g id="a_node4"><a xlink:title=" ">
<polygon fill="white" stroke="#666666" points="576,-541.5 439,-541.5 439,-500.5 576,-500.5 576,-541.5"/>
<text text-anchor="start" x="447" y="-529.5" font-family="Helvetica,sans-Serif" font-size="10.00">{boost::equality_comparable</text>
<text text-anchor="middle" x="507.5" y="-518.5" font-family="Helvetica,sans-Serif" font-size="10.00">&lt; Buffer &gt;</text>
<text text-anchor="middle" x="507.5" y="-507.5" font-family="Helvetica,sans-Serif" font-size="10.00">||}</text>
</a>
</g>
</g>
<!-- Node4&#45;&gt;Node3 -->
<g id="edge3" class="edge">
<title>Node4&#45;&gt;Node3</title>
<path fill="none" stroke="#63b8ff" d="M494.55,-489.91C485.83,-469.65 473.86,-441.85 462.33,-415.07"/>
<polygon fill="none" stroke="#63b8ff" points="491.27,-491.14 498.43,-498.94 497.7,-488.37 491.27,-491.14"/>
</g>
<!-- Node5 -->
<g id="node5" class="node">
<title>Node5</title>
<g id="a_node5"><a xlink:title=" ">
<polygon fill="white" stroke="#666666" points="137,-541.5 0,-541.5 0,-500.5 137,-500.5 137,-541.5"/>
<text text-anchor="start" x="8" y="-529.5" font-family="Helvetica,sans-Serif" font-size="10.00">{boost::equality_comparable</text>
<text text-anchor="middle" x="68.5" y="-518.5" font-family="Helvetica,sans-Serif" font-size="10.00">&lt; gsl::span&lt; uint8_t &gt; &gt;</text>
<text text-anchor="middle" x="68.5" y="-507.5" font-family="Helvetica,sans-Serif" font-size="10.00">||}</text>
</a>
</g>
</g>
<!-- Node5&#45;&gt;Node3 -->
<g id="edge4" class="edge">
<title>Node5&#45;&gt;Node3</title>
<path fill="none" stroke="#63b8ff" d="M106.05,-494.06C118.23,-486.47 132.08,-478.7 145.5,-473 168.96,-463.03 346.68,-429.71 367.5,-415 370.87,-412.62 374.1,-409.98 377.19,-407.14"/>
<polygon fill="none" stroke="#63b8ff" points="104.49,-490.9 97.95,-499.24 108.26,-496.8 104.49,-490.9"/>
</g>
<!-- Node6 -->
<g id="node6" class="node">
<title>Node6</title>
<g id="a_node6"><a xlink:title=" ">
<polygon fill="white" stroke="#666666" points="292,-541.5 155,-541.5 155,-500.5 292,-500.5 292,-541.5"/>
<text text-anchor="start" x="163" y="-529.5" font-family="Helvetica,sans-Serif" font-size="10.00">{boost::equality_comparable</text>
<text text-anchor="middle" x="223.5" y="-518.5" font-family="Helvetica,sans-Serif" font-size="10.00">&lt; std::vector&lt; uint8_t &gt; &gt;</text>
<text text-anchor="middle" x="223.5" y="-507.5" font-family="Helvetica,sans-Serif" font-size="10.00">||}</text>
</a>
</g>
</g>
<!-- Node6&#45;&gt;Node3 -->
<g id="edge5" class="edge">
<title>Node6&#45;&gt;Node3</title>
<path fill="none" stroke="#63b8ff" d="M266.66,-494.18C296.97,-474.76 337.33,-446.22 367.5,-415 370.74,-411.65 373.92,-408.09 377.02,-404.41"/>
<polygon fill="none" stroke="#63b8ff" points="265.06,-491.05 258.47,-499.34 268.8,-496.96 265.06,-491.05"/>
</g>
<!-- Node7 -->
<g id="node7" class="node">
<title>Node7</title>
<g id="a_node7"><a xlink:title=" ">
<polygon fill="white" stroke="#666666" points="420.5,-541.5 310.5,-541.5 310.5,-500.5 420.5,-500.5 420.5,-541.5"/>
<text text-anchor="middle" x="365.5" y="-529.5" font-family="Helvetica,sans-Serif" font-size="10.00">{std::vector&lt; uint8_t &gt;</text>
<text text-anchor="start" x="318.5" y="-518.5" font-family="Helvetica,sans-Serif" font-size="10.00">|+ elements</text>
<text text-anchor="middle" x="365.5" y="-507.5" font-family="Helvetica,sans-Serif" font-size="10.00">|}</text>
</a>
</g>
</g>
<!-- Node7&#45;&gt;Node3 -->
<g id="edge6" class="edge">
<title>Node7&#45;&gt;Node3</title>
<path fill="none" stroke="#404040" d="M371.7,-500.33C377.28,-482.61 385.93,-455.15 394.67,-427.39"/>
<polygon fill="none" stroke="#404040" points="394.67,-427.38 392.66,-420.45 398.28,-415.93 400.29,-422.86 394.67,-427.38"/>
<text text-anchor="middle" x="407.5" y="-441.5" font-family="Helvetica,sans-Serif" font-size="10.00"> &#45;data_</text>
</g>
<!-- Node8 -->
<g id="node8" class="node">
<title>Node8</title>
<g id="a_node8"><a xlink:title=" ">
<polygon fill="white" stroke="#666666" points="645,-646 558,-646 558,-616 645,-616 645,-646"/>
<text text-anchor="middle" x="601.5" y="-634" font-family="Helvetica,sans-Serif" font-size="10.00">{std::vector&lt; T &gt;</text>
<text text-anchor="middle" x="601.5" y="-623" font-family="Helvetica,sans-Serif" font-size="10.00">||}</text>
</a>
</g>
</g>
<!-- Node8&#45;&gt;Node7 -->
<g id="edge7" class="edge">
<title>Node8&#45;&gt;Node7</title>
<path fill="none" stroke="orange" d="M546.75,-615.08C512.08,-604.55 466.89,-588.81 429.5,-569 415.25,-561.45 400.65,-550.98 389.01,-541.84"/>
<polygon fill="orange" stroke="orange" points="545.58,-618.38 556.17,-617.88 547.58,-611.67 545.58,-618.38"/>
<text text-anchor="middle" x="519" y="-590" font-family="Helvetica,sans-Serif" font-size="10.00"> &lt; uint8_t &gt;</text>
</g>
<!-- Node9 -->
<g id="node9" class="node">
<title>Node9</title>
<g id="a_node9"><a xlink:title=" ">
<polygon fill="white" stroke="#666666" points="676,-723 647,-723 647,-693 676,-693 676,-723"/>
<text text-anchor="middle" x="661.5" y="-711" font-family="Helvetica,sans-Serif" font-size="10.00">{T</text>
<text text-anchor="middle" x="661.5" y="-700" font-family="Helvetica,sans-Serif" font-size="10.00">||}</text>
</a>
</g>
</g>
<!-- Node9&#45;&gt;Node8 -->
<g id="edge8" class="edge">
<title>Node9&#45;&gt;Node8</title>
<path fill="none" stroke="#404040" d="M649.93,-692.54C641.71,-682.27 630.48,-668.23 620.91,-656.26"/>
<polygon fill="none" stroke="#404040" points="621.09,-656.49 614.22,-654.3 613.6,-647.12 620.47,-649.31 621.09,-656.49"/>
<text text-anchor="middle" x="660" y="-667" font-family="Helvetica,sans-Serif" font-size="10.00"> +elements</text>
</g>
<!-- Node12 -->
<g id="node12" class="node">
<title>Node12</title>
<g id="a_node12"><a xlink:title=" ">
<polygon fill="white" stroke="#666666" points="813.5,-541.5 707.5,-541.5 707.5,-500.5 813.5,-500.5 813.5,-541.5"/>
<text text-anchor="middle" x="760.5" y="-529.5" font-family="Helvetica,sans-Serif" font-size="10.00">{std::shared_ptr&lt; T &gt;</text>
<text text-anchor="start" x="715.5" y="-518.5" font-family="Helvetica,sans-Serif" font-size="10.00">||+ operator&#45;&gt;()</text>
<text text-anchor="middle" x="760.5" y="-507.5" font-family="Helvetica,sans-Serif" font-size="10.00">}</text>
</a>
</g>
</g>
<!-- Node9&#45;&gt;Node12 -->
<g id="edge12" class="edge">
<title>Node9&#45;&gt;Node12</title>
<path fill="none" stroke="#404040" d="M674.99,-692.65C679.6,-687.34 684.58,-681.12 688.5,-675 713.85,-635.47 735.63,-585.61 748.41,-553.75"/>
<polygon fill="none" stroke="#404040" points="748.43,-553.69 746.91,-546.64 752.83,-542.53 754.35,-549.58 748.43,-553.69"/>
<text text-anchor="middle" x="731.5" y="-628.5" font-family="Helvetica,sans-Serif" font-size="10.00"> +ptr</text>
</g>
<!-- Node10 -->
<g id="node10" class="node">
<title>Node10</title>
<g id="a_node10"><a xlink:title=" ">
<polygon fill="white" stroke="#666666" points="664,-354.5 551,-354.5 551,-302.5 664,-302.5 664,-354.5"/>
<text text-anchor="start" x="559" y="-342.5" font-family="Helvetica,sans-Serif" font-size="10.00">{std::shared_ptr&lt; sgns</text>
<text text-anchor="middle" x="607.5" y="-331.5" font-family="Helvetica,sans-Serif" font-size="10.00">::storage::trie::Codec &gt;</text>
<text text-anchor="start" x="559" y="-320.5" font-family="Helvetica,sans-Serif" font-size="10.00">||+ operator&#45;&gt;()</text>
<text text-anchor="middle" x="607.5" y="-309.5" font-family="Helvetica,sans-Serif" font-size="10.00">}</text>
</a>
</g>
</g>
<!-- Node10&#45;&gt;Node1 -->
<g id="edge9" class="edge">
<title>Node10&#45;&gt;Node1</title>
<path fill="none" stroke="#404040" d="M607.5,-302.12C607.5,-279.04 607.5,-243.33 607.5,-208.21"/>
<polygon fill="none" stroke="#404040" points="607.5,-208.23 603.5,-202.23 607.5,-196.23 611.5,-202.23 607.5,-208.23"/>
<text text-anchor="middle" x="626" y="-216" font-family="Helvetica,sans-Serif" font-size="10.00"> &#45;codec_</text>
</g>
<!-- Node11 -->
<g id="node11" class="node">
<title>Node11</title>
<g id="a_node11"><a xlink:href="classsgns_1_1storage_1_1trie_1_1_codec.html" target="_top" xlink:title="Internal codec for nodes in the Trie. Eth and substrate have different codecs, but rest of the code s...">
<polygon fill="white" stroke="#666666" points="689,-569 594,-569 594,-473 689,-473 689,-569"/>
<text text-anchor="start" x="602" y="-557" font-family="Helvetica,sans-Serif" font-size="10.00">{sgns::storage::trie</text>
<text text-anchor="middle" x="641.5" y="-546" font-family="Helvetica,sans-Serif" font-size="10.00">::Codec</text>
<text text-anchor="start" x="602" y="-535" font-family="Helvetica,sans-Serif" font-size="10.00">||+ ~Codec()</text>
<text text-anchor="start" x="602" y="-524" font-family="Helvetica,sans-Serif" font-size="10.00">+ encodeNode()</text>
<text text-anchor="start" x="602" y="-513" font-family="Helvetica,sans-Serif" font-size="10.00">+ decodeNode()</text>
<text text-anchor="start" x="602" y="-502" font-family="Helvetica,sans-Serif" font-size="10.00">+ merkleValue()</text>
<text text-anchor="start" x="602" y="-491" font-family="Helvetica,sans-Serif" font-size="10.00">+ hash256()</text>
<text text-anchor="middle" x="641.5" y="-480" font-family="Helvetica,sans-Serif" font-size="10.00">}</text>
</a>
</g>
</g>
<!-- Node11&#45;&gt;Node10 -->
<g id="edge10" class="edge">
<title>Node11&#45;&gt;Node10</title>
<path fill="none" stroke="#404040" d="M614.39,-472.69C612,-466.88 609.94,-460.9 608.5,-455 601.51,-426.29 601.64,-392.77 603.32,-367.6"/>
<polygon fill="none" stroke="#404040" points="603.3,-367.78 599.8,-361.48 604.26,-355.82 607.77,-362.12 603.3,-367.78"/>
<text text-anchor="middle" x="618.5" y="-441.5" font-family="Helvetica,sans-Serif" font-size="10.00"> +ptr</text>
</g>
<!-- Node12&#45;&gt;Node10 -->
<g id="edge11" class="edge">
<title>Node12&#45;&gt;Node10</title>
<path fill="none" stroke="orange" d="M726.81,-493.26C717.53,-486.34 707.31,-479.12 697.5,-473 682.66,-463.74 674.48,-467.75 662.5,-455 635.62,-426.4 620.54,-382.53 613.22,-354.96"/>
<polygon fill="orange" stroke="orange" points="724.45,-495.86 734.53,-499.12 728.68,-490.28 724.45,-495.86"/>
<text text-anchor="start" x="662.5" y="-447" font-family="Helvetica,sans-Serif" font-size="10.00"> &lt; sgns::storage::trie</text>
<text text-anchor="middle" x="706" y="-436" font-family="Helvetica,sans-Serif" font-size="10.00">::Codec &gt;</text>
</g>
<!-- Node13 -->
<g id="node13" class="node">
<title>Node13</title>
<g id="a_node13"><a xlink:title=" ">
<polygon fill="white" stroke="#666666" points="960.5,-354.5 820.5,-354.5 820.5,-302.5 960.5,-302.5 960.5,-354.5"/>
<text text-anchor="start" x="828.5" y="-342.5" font-family="Helvetica,sans-Serif" font-size="10.00">{std::shared_ptr&lt; sgns</text>
<text text-anchor="middle" x="890.5" y="-331.5" font-family="Helvetica,sans-Serif" font-size="10.00">::storage::trie::TrieSerializer &gt;</text>
<text text-anchor="start" x="828.5" y="-320.5" font-family="Helvetica,sans-Serif" font-size="10.00">||+ operator&#45;&gt;()</text>
<text text-anchor="middle" x="890.5" y="-309.5" font-family="Helvetica,sans-Serif" font-size="10.00">}</text>
</a>
</g>
</g>
<!-- Node12&#45;&gt;Node13 -->
<g id="edge15" class="edge">
<title>Node12&#45;&gt;Node13</title>
<path fill="none" stroke="orange" d="M799.26,-493.2C812.67,-482.49 826.97,-469.31 837.5,-455 860.36,-423.95 875.59,-381.56 883.65,-354.86"/>
<polygon fill="orange" stroke="orange" points="797.16,-490.4 791.37,-499.27 801.43,-495.94 797.16,-490.4"/>
<text text-anchor="start" x="850.5" y="-447" font-family="Helvetica,sans-Serif" font-size="10.00"> &lt; sgns::storage::trie</text>
<text text-anchor="middle" x="894" y="-436" font-family="Helvetica,sans-Serif" font-size="10.00">::TrieSerializer &gt;</text>
</g>
<!-- Node15 -->
<g id="node15" class="node">
<title>Node15</title>
<g id="a_node15"><a xlink:title=" ">
<polygon fill="white" stroke="#666666" points="802.5,-360 682.5,-360 682.5,-297 802.5,-297 802.5,-360"/>
<text text-anchor="start" x="690.5" y="-348" font-family="Helvetica,sans-Serif" font-size="10.00">{std::shared_ptr&lt; spdlog</text>
<text text-anchor="middle" x="742.5" y="-337" font-family="Helvetica,sans-Serif" font-size="10.00">::logger &gt;</text>
<text text-anchor="start" x="690.5" y="-326" font-family="Helvetica,sans-Serif" font-size="10.00">|+ ptr</text>
<text text-anchor="start" x="690.5" y="-315" font-family="Helvetica,sans-Serif" font-size="10.00">|+ operator&#45;&gt;()</text>
<text text-anchor="middle" x="742.5" y="-304" font-family="Helvetica,sans-Serif" font-size="10.00">}</text>
</a>
</g>
</g>
<!-- Node12&#45;&gt;Node15 -->
<g id="edge17" class="edge">
<title>Node12&#45;&gt;Node15</title>
<path fill="none" stroke="orange" d="M757.59,-489.23C754.24,-453.77 748.77,-395.82 745.41,-360.33"/>
<polygon fill="orange" stroke="orange" points="754.07,-489.2 758.5,-498.82 761.04,-488.54 754.07,-489.2"/>
<text text-anchor="middle" x="794" y="-441.5" font-family="Helvetica,sans-Serif" font-size="10.00"> &lt; spdlog::logger &gt;</text>
</g>
<!-- Node13&#45;&gt;Node1 -->
<g id="edge13" class="edge">
<title>Node13&#45;&gt;Node1</title>
<path fill="none" stroke="#404040" d="M869.65,-302.22C854.42,-284.46 832.79,-260.63 811.5,-242 770.76,-206.34 721.15,-171.28 681.05,-144.75"/>
<polygon fill="none" stroke="#404040" points="681.06,-144.75 673.85,-144.8 671.03,-138.16 678.24,-138.11 681.06,-144.75"/>
<text text-anchor="middle" x="810" y="-216" font-family="Helvetica,sans-Serif" font-size="10.00"> &#45;serializer_</text>
</g>
<!-- Node14 -->
<g id="node14" class="node">
<title>Node14</title>
<g id="a_node14"><a xlink:href="classsgns_1_1storage_1_1trie_1_1_trie_serializer.html" target="_top" xlink:title=" ">
<polygon fill="white" stroke="#666666" points="1030,-563.5 915,-563.5 915,-478.5 1030,-478.5 1030,-563.5"/>
<text text-anchor="start" x="923" y="-551.5" font-family="Helvetica,sans-Serif" font-size="10.00">{sgns::storage::trie</text>
<text text-anchor="middle" x="972.5" y="-540.5" font-family="Helvetica,sans-Serif" font-size="10.00">::TrieSerializer</text>
<text text-anchor="start" x="923" y="-529.5" font-family="Helvetica,sans-Serif" font-size="10.00">||+ ~TrieSerializer()</text>
<text text-anchor="start" x="923" y="-518.5" font-family="Helvetica,sans-Serif" font-size="10.00">+ getEmptyRootHash()</text>
<text text-anchor="start" x="923" y="-507.5" font-family="Helvetica,sans-Serif" font-size="10.00">+ storeTrie()</text>
<text text-anchor="start" x="923" y="-496.5" font-family="Helvetica,sans-Serif" font-size="10.00">+ retrieveTrie()</text>
<text text-anchor="middle" x="972.5" y="-485.5" font-family="Helvetica,sans-Serif" font-size="10.00">}</text>
</a>
</g>
</g>
<!-- Node14&#45;&gt;Node13 -->
<g id="edge14" class="edge">
<title>Node14&#45;&gt;Node13</title>
<path fill="none" stroke="#404040" d="M964.39,-478.09C960.92,-463.53 956.31,-447.29 950.5,-433 940.99,-409.63 926.99,-385.14 914.91,-365.84"/>
<polygon fill="none" stroke="#404040" points="914.83,-365.72 908.23,-362.82 908.37,-355.61 914.97,-358.51 914.83,-365.72"/>
<text text-anchor="middle" x="967.5" y="-441.5" font-family="Helvetica,sans-Serif" font-size="10.00"> +ptr</text>
</g>
<!-- Node15&#45;&gt;Node1 -->
<g id="edge16" class="edge">
<title>Node15&#45;&gt;Node1</title>
<path fill="none" stroke="#404040" d="M724.29,-296.62C710.49,-273.2 690.63,-239.52 671.2,-206.56"/>
<polygon fill="none" stroke="#404040" points="671.19,-206.53 664.7,-203.4 665.09,-196.2 671.59,-199.33 671.19,-206.53"/>
<text text-anchor="middle" x="698" y="-216" font-family="Helvetica,sans-Serif" font-size="10.00"> &#45;logger_</text>
</g>
</g>
</svg>
        <g id="navigator" transform="translate(0 0)" fill="#404254">
                <rect fill="#f2f5e9" fill-opacity="0.5" stroke="#606060" stroke-width=".5" x="0" y="0" width="60" height="60"/>
                <use id="zoomplus" xlink:href="#zoomPlus" x="17" y="9" onmousedown="handleZoom(evt,'in')"/>
                <use id="zoomminus" xlink:href="#zoomMin" x="42" y="9" onmousedown="handleZoom(evt,'out')"/>
                <use id="reset" xlink:href="#resetDef" x="30" y="36" onmousedown="handleReset()"/>
                <g id="arrowUp" xlink:href="#dirArrow" transform="translate(30 24)" onmousedown="handlePan(0,-1)">
                  <use xlink:href="#rim" fill="#404040">
                        <set attributeName="fill" to="#808080" begin="arrowUp.mouseover" end="arrowUp.mouseout"/>
                  </use>
                  <path fill="none" stroke="white" stroke-width="1.5" d="M0,-3.0v7 M-2.5,-0.5L0,-3.0L2.5,-0.5"/>
                </g>
                <g id="arrowRight" xlink:href="#dirArrow" transform="rotate(90) translate(36 -43)" onmousedown="handlePan(1,0)">
                  <use xlink:href="#rim" fill="#404040">
                        <set attributeName="fill" to="#808080" begin="arrowRight.mouseover" end="arrowRight.mouseout"/>
                  </use>
                  <path fill="none" stroke="white" stroke-width="1.5" d="M0,-3.0v7 M-2.5,-0.5L0,-3.0L2.5,-0.5"/>
                </g>
                <g id="arrowDown" xlink:href="#dirArrow" transform="rotate(180) translate(-30 -48)" onmousedown="handlePan(0,1)">
                  <use xlink:href="#rim" fill="#404040">
                        <set attributeName="fill" to="#808080" begin="arrowDown.mouseover" end="arrowDown.mouseout"/>
                  </use>
                  <path fill="none" stroke="white" stroke-width="1.5" d="M0,-3.0v7 M-2.5,-0.5L0,-3.0L2.5,-0.5"/>
                </g>
                <g id="arrowLeft" xlink:href="#dirArrow" transform="rotate(270) translate(-36 17)" onmousedown="handlePan(-1,0)">
                  <use xlink:href="#rim" fill="#404040">
                        <set attributeName="fill" to="#808080" begin="arrowLeft.mouseover" end="arrowLeft.mouseout"/>
                  </use>
                  <path fill="none" stroke="white" stroke-width="1.5" d="M0,-3.0v7 M-2.5,-0.5L0,-3.0L2.5,-0.5"/>
                </g>
        </g>
        <svg viewBox="0 0 15 15" width="100%" height="30px" preserveAspectRatio="xMaxYMin meet">
         <g id="arrow_out" transform="scale(0.3 0.3)">
          <a xlink:href="classsgns_1_1storage_1_1trie_1_1_trie_storage_impl__coll__graph_org.svg" target="_base">
           <rect id="button" ry="5" rx="5" y="6" x="6" height="38" width="38"
                fill="#f2f5e9" fill-opacity="0.5" stroke="#606060" stroke-width="1.0"/>
           <path id="arrow"
             d="M 11.500037,31.436501 C 11.940474,20.09759 22.043105,11.32322 32.158766,21.979434 L 37.068811,17.246167 C 37.068811,17.246167 37.088388,32 37.088388,32 L 22.160133,31.978069 C 22.160133,31.978069 26.997745,27.140456 26.997745,27.140456 C 18.528582,18.264221 13.291696,25.230495 11.500037,31.436501 z"
             style="fill:#404040;"/>
          </a>
         </g>
        </svg>
</svg>
