<?xml version="1.0" encoding="UTF-8" standalone="no"?>
<!DOCTYPE svg PUBLIC "-//W3C//DTD SVG 1.1//EN"
 "http://www.w3.org/Graphics/SVG/1.1/DTD/svg11.dtd">
<!-- Generated by graphviz version 7.0.5 (20221223.1930)
 -->
<!-- Title: sgns::api::author::request::PendingExtrinsics Pages: 1 -->
<svg width="240pt" height="379pt"
 viewBox="0.00 0.00 239.50 379.00" xmlns="http://www.w3.org/2000/svg" xmlns:xlink="http://www.w3.org/1999/xlink">
<g id="graph0" class="graph" transform="scale(1 1) rotate(0) translate(4 375)">
<title>sgns::api::author::request::PendingExtrinsics</title>
<!-- Node1 -->
<g id="node1" class="node">
<title>Node1</title>
<g id="a_node1"><a xlink:title=" ">
<polygon fill="#999999" stroke="#666666" points="140,-74 9,-74 9,0 140,0 140,-74"/>
<text text-anchor="start" x="17" y="-62" font-family="Helvetica,sans-Serif" font-size="10.00">{sgns::api::author::</text>
<text text-anchor="middle" x="74.5" y="-51" font-family="Helvetica,sans-Serif" font-size="10.00">request::PendingExtrinsics</text>
<text text-anchor="start" x="17" y="-40" font-family="Helvetica,sans-Serif" font-size="10.00">||+ PendingExtrinsics()</text>
<text text-anchor="start" x="17" y="-29" font-family="Helvetica,sans-Serif" font-size="10.00">+ init()</text>
<text text-anchor="start" x="17" y="-18" font-family="Helvetica,sans-Serif" font-size="10.00">+ execute()</text>
<text text-anchor="middle" x="74.5" y="-7" font-family="Helvetica,sans-Serif" font-size="10.00">}</text>
</a>
</g>
</g>
<!-- Node2 -->
<g id="node2" class="node">
<title>Node2</title>
<g id="a_node2"><a xlink:title=" ">
<polygon fill="white" stroke="#666666" points="131,-173 18,-173 18,-121 131,-121 131,-173"/>
<text text-anchor="start" x="26" y="-161" font-family="Helvetica,sans-Serif" font-size="10.00">{std::shared_ptr&lt; sgns</text>
<text text-anchor="middle" x="74.5" y="-150" font-family="Helvetica,sans-Serif" font-size="10.00">::api::AuthorApi &gt;</text>
<text text-anchor="start" x="26" y="-139" font-family="Helvetica,sans-Serif" font-size="10.00">||+ operator&#45;&gt;()</text>
<text text-anchor="middle" x="74.5" y="-128" font-family="Helvetica,sans-Serif" font-size="10.00">}</text>
</a>
</g>
</g>
<!-- Node2&#45;&gt;Node1 -->
<g id="edge1" class="edge">
<title>Node2&#45;&gt;Node1</title>
<path fill="none" stroke="#404040" d="M74.5,-120.68C74.5,-110.62 74.5,-98.7 74.5,-87.08"/>
<polygon fill="none" stroke="#404040" points="74.5,-87.11 70.5,-81.11 74.5,-75.11 78.5,-81.11 74.5,-87.11"/>
<text text-anchor="middle" x="86.5" y="-95" font-family="Helvetica,sans-Serif" font-size="10.00"> &#45;api_</text>
</g>
<!-- Node3 -->
<g id="node3" class="node">
<title>Node3</title>
<g id="a_node3"><a xlink:href="classsgns_1_1api_1_1_author_api.html" target="_top" xlink:title=" ">
<polygon fill="white" stroke="#666666" points="107,-294 0,-294 0,-220 107,-220 107,-294"/>
<text text-anchor="middle" x="53.5" y="-282" font-family="Helvetica,sans-Serif" font-size="10.00">{sgns::api::AuthorApi</text>
<text text-anchor="start" x="8" y="-271" font-family="Helvetica,sans-Serif" font-size="10.00">||+ ~AuthorApi()</text>
<text text-anchor="start" x="8" y="-260" font-family="Helvetica,sans-Serif" font-size="10.00">+ submitExtrinsic()</text>
<text text-anchor="start" x="8" y="-249" font-family="Helvetica,sans-Serif" font-size="10.00">+ pendingExtrinsics()</text>
<text text-anchor="start" x="8" y="-238" font-family="Helvetica,sans-Serif" font-size="10.00">+ removeExtrinsic()</text>
<text text-anchor="middle" x="53.5" y="-227" font-family="Helvetica,sans-Serif" font-size="10.00">}</text>
</a>
</g>
</g>
<!-- Node3&#45;&gt;Node2 -->
<g id="edge2" class="edge">
<title>Node3&#45;&gt;Node2</title>
<path fill="none" stroke="#404040" d="M60.55,-219.74C62.65,-208.93 64.96,-197.06 67.08,-186.14"/>
<polygon fill="none" stroke="#404040" points="67.09,-186.09 64.31,-179.44 69.38,-174.31 72.16,-180.97 67.09,-186.09"/>
<text text-anchor="middle" x="76.5" y="-194" font-family="Helvetica,sans-Serif" font-size="10.00"> +ptr</text>
</g>
<!-- Node4 -->
<g id="node4" class="node">
<title>Node4</title>
<g id="a_node4"><a xlink:title=" ">
<polygon fill="white" stroke="#666666" points="231.5,-277.5 125.5,-277.5 125.5,-236.5 231.5,-236.5 231.5,-277.5"/>
<text text-anchor="middle" x="178.5" y="-265.5" font-family="Helvetica,sans-Serif" font-size="10.00">{std::shared_ptr&lt; T &gt;</text>
<text text-anchor="start" x="133.5" y="-254.5" font-family="Helvetica,sans-Serif" font-size="10.00">||+ operator&#45;&gt;()</text>
<text text-anchor="middle" x="178.5" y="-243.5" font-family="Helvetica,sans-Serif" font-size="10.00">}</text>
</a>
</g>
</g>
<!-- Node4&#45;&gt;Node2 -->
<g id="edge3" class="edge">
<title>Node4&#45;&gt;Node2</title>
<path fill="none" stroke="orange" d="M151.82,-228.29C135.52,-211.37 114.83,-189.89 98.96,-173.4"/>
<polygon fill="orange" stroke="orange" points="148.92,-230.33 158.37,-235.1 153.96,-225.47 148.92,-230.33"/>
<text text-anchor="middle" x="179" y="-194" font-family="Helvetica,sans-Serif" font-size="10.00"> &lt; sgns::api::AuthorApi &gt;</text>
</g>
<!-- Node5 -->
<g id="node5" class="node">
<title>Node5</title>
<g id="a_node5"><a xlink:title=" ">
<polygon fill="white" stroke="#666666" points="193,-371 164,-371 164,-341 193,-341 193,-371"/>
<text text-anchor="middle" x="178.5" y="-359" font-family="Helvetica,sans-Serif" font-size="10.00">{T</text>
<text text-anchor="middle" x="178.5" y="-348" font-family="Helvetica,sans-Serif" font-size="10.00">||}</text>
</a>
</g>
</g>
<!-- Node5&#45;&gt;Node4 -->
<g id="edge4" class="edge">
<title>Node5&#45;&gt;Node4</title>
<path fill="none" stroke="#404040" d="M178.5,-340.69C178.5,-327.55 178.5,-307.59 178.5,-290.58"/>
<polygon fill="none" stroke="#404040" points="178.5,-290.66 174.5,-284.66 178.5,-278.66 182.5,-284.65 178.5,-290.66"/>
<text text-anchor="middle" x="188.5" y="-315" font-family="Helvetica,sans-Serif" font-size="10.00"> +ptr</text>
</g>
</g>
</svg>
