<?xml version="1.0" encoding="UTF-8" standalone="no"?>
<!DOCTYPE svg PUBLIC "-//W3C//DTD SVG 1.1//EN"
 "http://www.w3.org/Graphics/SVG/1.1/DTD/svg11.dtd">
<!-- Generated by graphviz version 7.0.5 (20221223.1930)
 -->
<!-- Title: sgns::network::LoopbackStream Pages: 1 -->
<svg width="434pt" height="588pt"
 viewBox="0.00 0.00 433.50 588.00" xmlns="http://www.w3.org/2000/svg" xmlns:xlink="http://www.w3.org/1999/xlink">
<g id="graph0" class="graph" transform="scale(1 1) rotate(0) translate(4 584)">
<title>sgns::network::LoopbackStream</title>
<!-- Node1 -->
<g id="node1" class="node">
<title>Node1</title>
<g id="a_node1"><a xlink:title=" ">
<polygon fill="#999999" stroke="#666666" points="270.5,-305 112.5,-305 112.5,0 270.5,0 270.5,-305"/>
<text text-anchor="middle" x="191.5" y="-293" font-family="Helvetica,sans-Serif" font-size="10.00">{sgns::network::LoopbackStream</text>
<text text-anchor="start" x="120.5" y="-282" font-family="Helvetica,sans-Serif" font-size="10.00">|&#45; own_peer_info_</text>
<text text-anchor="start" x="120.5" y="-271" font-family="Helvetica,sans-Serif" font-size="10.00">&#45; buffer_</text>
<text text-anchor="start" x="120.5" y="-260" font-family="Helvetica,sans-Serif" font-size="10.00">&#45; data_notifyee_</text>
<text text-anchor="start" x="120.5" y="-249" font-family="Helvetica,sans-Serif" font-size="10.00">&#45; data_notified_</text>
<text text-anchor="start" x="120.5" y="-238" font-family="Helvetica,sans-Serif" font-size="10.00">&#45; is_readable_</text>
<text text-anchor="start" x="120.5" y="-227" font-family="Helvetica,sans-Serif" font-size="10.00">&#45; is_writable_</text>
<text text-anchor="start" x="120.5" y="-216" font-family="Helvetica,sans-Serif" font-size="10.00">&#45; is_reset_</text>
<text text-anchor="start" x="120.5" y="-205" font-family="Helvetica,sans-Serif" font-size="10.00">|+ LoopbackStream()</text>
<text text-anchor="start" x="120.5" y="-194" font-family="Helvetica,sans-Serif" font-size="10.00">+ isClosedForRead()</text>
<text text-anchor="start" x="120.5" y="-183" font-family="Helvetica,sans-Serif" font-size="10.00">+ isClosedForWrite()</text>
<text text-anchor="start" x="120.5" y="-172" font-family="Helvetica,sans-Serif" font-size="10.00">+ isClosed()</text>
<text text-anchor="start" x="120.5" y="-161" font-family="Helvetica,sans-Serif" font-size="10.00">+ close()</text>
<text text-anchor="start" x="120.5" y="-150" font-family="Helvetica,sans-Serif" font-size="10.00">+ reset()</text>
<text text-anchor="start" x="120.5" y="-139" font-family="Helvetica,sans-Serif" font-size="10.00">+ adjustWindowSize()</text>
<text text-anchor="start" x="120.5" y="-128" font-family="Helvetica,sans-Serif" font-size="10.00">+ isInitiator()</text>
<text text-anchor="start" x="120.5" y="-117" font-family="Helvetica,sans-Serif" font-size="10.00">+ remotePeerId()</text>
<text text-anchor="start" x="120.5" y="-106" font-family="Helvetica,sans-Serif" font-size="10.00">+ localMultiaddr()</text>
<text text-anchor="start" x="120.5" y="-95" font-family="Helvetica,sans-Serif" font-size="10.00">+ remoteMultiaddr()</text>
<text text-anchor="start" x="120.5" y="-84" font-family="Helvetica,sans-Serif" font-size="10.00"># read()</text>
<text text-anchor="start" x="120.5" y="-73" font-family="Helvetica,sans-Serif" font-size="10.00"># readSome()</text>
<text text-anchor="start" x="120.5" y="-62" font-family="Helvetica,sans-Serif" font-size="10.00"># deferReadCallback()</text>
<text text-anchor="start" x="120.5" y="-51" font-family="Helvetica,sans-Serif" font-size="10.00"># write()</text>
<text text-anchor="start" x="120.5" y="-40" font-family="Helvetica,sans-Serif" font-size="10.00"># writeSome()</text>
<text text-anchor="start" x="120.5" y="-29" font-family="Helvetica,sans-Serif" font-size="10.00"># deferWriteCallback()</text>
<text text-anchor="start" x="120.5" y="-18" font-family="Helvetica,sans-Serif" font-size="10.00">&#45; read()</text>
<text text-anchor="middle" x="191.5" y="-7" font-family="Helvetica,sans-Serif" font-size="10.00">}</text>
</a>
</g>
</g>
<!-- Node2 -->
<g id="node2" class="node">
<title>Node2</title>
<g id="a_node2"><a xlink:title=" ">
<polygon fill="white" stroke="#666666" points="97,-404 0,-404 0,-363 97,-363 97,-404"/>
<text text-anchor="start" x="8" y="-392" font-family="Helvetica,sans-Serif" font-size="10.00">{libp2p::connection</text>
<text text-anchor="middle" x="48.5" y="-381" font-family="Helvetica,sans-Serif" font-size="10.00">::Stream</text>
<text text-anchor="middle" x="48.5" y="-370" font-family="Helvetica,sans-Serif" font-size="10.00">||}</text>
</a>
</g>
</g>
<!-- Node2&#45;&gt;Node1 -->
<g id="edge1" class="edge">
<title>Node2&#45;&gt;Node1</title>
<path fill="none" stroke="#63b8ff" d="M66.89,-353.06C78.76,-334.04 95.11,-307.86 112.07,-280.7"/>
<polygon fill="none" stroke="#63b8ff" points="64.07,-350.96 61.74,-361.29 70.01,-354.67 64.07,-350.96"/>
</g>
<!-- Node3 -->
<g id="node3" class="node">
<title>Node3</title>
<g id="a_node3"><a xlink:title=" ">
<polygon fill="white" stroke="#666666" points="268,-404 115,-404 115,-363 268,-363 268,-404"/>
<text text-anchor="start" x="123" y="-392" font-family="Helvetica,sans-Serif" font-size="10.00">{std::enable_shared</text>
<text text-anchor="middle" x="191.5" y="-381" font-family="Helvetica,sans-Serif" font-size="10.00">_from_this&lt; LoopbackStream &gt;</text>
<text text-anchor="middle" x="191.5" y="-370" font-family="Helvetica,sans-Serif" font-size="10.00">||}</text>
</a>
</g>
</g>
<!-- Node3&#45;&gt;Node1 -->
<g id="edge2" class="edge">
<title>Node3&#45;&gt;Node1</title>
<path fill="none" stroke="#63b8ff" d="M191.5,-351.25C191.5,-338.4 191.5,-322.51 191.5,-305.36"/>
<polygon fill="none" stroke="#63b8ff" points="188,-351.06 191.5,-361.06 195,-351.06 188,-351.06"/>
</g>
<!-- Node4 -->
<g id="node4" class="node">
<title>Node4</title>
<g id="a_node4"><a xlink:title=" ">
<polygon fill="white" stroke="#666666" points="406.5,-415 286.5,-415 286.5,-352 406.5,-352 406.5,-415"/>
<text text-anchor="start" x="294.5" y="-403" font-family="Helvetica,sans-Serif" font-size="10.00">{std::shared_ptr&lt; spdlog</text>
<text text-anchor="middle" x="346.5" y="-392" font-family="Helvetica,sans-Serif" font-size="10.00">::logger &gt;</text>
<text text-anchor="start" x="294.5" y="-381" font-family="Helvetica,sans-Serif" font-size="10.00">|+ ptr</text>
<text text-anchor="start" x="294.5" y="-370" font-family="Helvetica,sans-Serif" font-size="10.00">|+ operator&#45;&gt;()</text>
<text text-anchor="middle" x="346.5" y="-359" font-family="Helvetica,sans-Serif" font-size="10.00">}</text>
</a>
</g>
</g>
<!-- Node4&#45;&gt;Node1 -->
<g id="edge3" class="edge">
<title>Node4&#45;&gt;Node1</title>
<path fill="none" stroke="#404040" d="M325.6,-351.62C312.9,-332.86 295.76,-307.53 277.97,-281.25"/>
<polygon fill="none" stroke="#404040" points="278.09,-281.44 271.42,-278.71 271.37,-271.5 278.04,-274.22 278.09,-281.44"/>
<text text-anchor="middle" x="324.5" y="-326" font-family="Helvetica,sans-Serif" font-size="10.00"> &#45;log_</text>
</g>
<!-- Node5 -->
<g id="node5" class="node">
<title>Node5</title>
<g id="a_node5"><a xlink:title=" ">
<polygon fill="white" stroke="#666666" points="399.5,-503 293.5,-503 293.5,-462 399.5,-462 399.5,-503"/>
<text text-anchor="middle" x="346.5" y="-491" font-family="Helvetica,sans-Serif" font-size="10.00">{std::shared_ptr&lt; T &gt;</text>
<text text-anchor="start" x="301.5" y="-480" font-family="Helvetica,sans-Serif" font-size="10.00">||+ operator&#45;&gt;()</text>
<text text-anchor="middle" x="346.5" y="-469" font-family="Helvetica,sans-Serif" font-size="10.00">}</text>
</a>
</g>
</g>
<!-- Node5&#45;&gt;Node4 -->
<g id="edge4" class="edge">
<title>Node5&#45;&gt;Node4</title>
<path fill="none" stroke="orange" d="M346.5,-450.71C346.5,-439.37 346.5,-426.52 346.5,-415.18"/>
<polygon fill="orange" stroke="orange" points="343,-450.36 346.5,-460.36 350,-450.36 343,-450.36"/>
<text text-anchor="middle" x="386" y="-436" font-family="Helvetica,sans-Serif" font-size="10.00"> &lt; spdlog::logger &gt;</text>
</g>
<!-- Node6 -->
<g id="node6" class="node">
<title>Node6</title>
<g id="a_node6"><a xlink:title=" ">
<polygon fill="white" stroke="#666666" points="361,-580 332,-580 332,-550 361,-550 361,-580"/>
<text text-anchor="middle" x="346.5" y="-568" font-family="Helvetica,sans-Serif" font-size="10.00">{T</text>
<text text-anchor="middle" x="346.5" y="-557" font-family="Helvetica,sans-Serif" font-size="10.00">||}</text>
</a>
</g>
</g>
<!-- Node6&#45;&gt;Node5 -->
<g id="edge5" class="edge">
<title>Node6&#45;&gt;Node5</title>
<path fill="none" stroke="#404040" d="M346.5,-549.61C346.5,-540.31 346.5,-527.82 346.5,-516.21"/>
<polygon fill="none" stroke="#404040" points="346.5,-516.11 342.5,-510.11 346.5,-504.11 350.5,-510.11 346.5,-516.11"/>
<text text-anchor="middle" x="356.5" y="-524" font-family="Helvetica,sans-Serif" font-size="10.00"> +ptr</text>
</g>
</g>
</svg>
