<?xml version="1.0" encoding="UTF-8" standalone="no"?>
<!DOCTYPE svg PUBLIC "-//W3C//DTD SVG 1.1//EN"
 "http://www.w3.org/Graphics/SVG/1.1/DTD/svg11.dtd">
<!-- Generated by graphviz version 7.0.5 (20221223.1930)
 -->
<!-- Title: src/verification/finality/completed_round.hpp Pages: 1 -->
<svg width="1974pt" height="654pt"
 viewBox="0.00 0.00 1974.00 654.00" xmlns="http://www.w3.org/2000/svg" xmlns:xlink="http://www.w3.org/1999/xlink">
<g id="graph0" class="graph" transform="scale(1 1) rotate(0) translate(4 650)">
<title>src/verification/finality/completed_round.hpp</title>
<!-- Node1 -->
<g id="node1" class="node">
<title>Node1</title>
<g id="a_node1"><a xlink:title=" ">
<polygon fill="#999999" stroke="#666666" points="1207,-646 1095,-646 1095,-616 1207,-616 1207,-646"/>
<text text-anchor="start" x="1103" y="-634" font-family="Helvetica,sans-Serif" font-size="10.00">src/verification/finality</text>
<text text-anchor="middle" x="1151" y="-623" font-family="Helvetica,sans-Serif" font-size="10.00">/completed_round.hpp</text>
</a>
</g>
</g>
<!-- Node2 -->
<g id="node2" class="node">
<title>Node2</title>
<g id="a_node2"><a xlink:href="round__state_8hpp.html" target="_top" xlink:title=" ">
<polygon fill="white" stroke="#666666" points="1197.5,-580 1104.5,-580 1104.5,-550 1197.5,-550 1197.5,-580"/>
<text text-anchor="start" x="1112.5" y="-568" font-family="Helvetica,sans-Serif" font-size="10.00">verification/finality</text>
<text text-anchor="middle" x="1151" y="-557" font-family="Helvetica,sans-Serif" font-size="10.00">/round_state.hpp</text>
</a>
</g>
</g>
<!-- Node1&#45;&gt;Node2 -->
<g id="edge1" class="edge">
<title>Node1&#45;&gt;Node2</title>
<path fill="none" stroke="#63b8ff" d="M1151,-615.8C1151,-608.67 1151,-599.82 1151,-591.56"/>
<polygon fill="#63b8ff" stroke="#63b8ff" points="1154.5,-591.68 1151,-581.68 1147.5,-591.68 1154.5,-591.68"/>
</g>
<!-- Node3 -->
<g id="node3" class="node">
<title>Node3</title>
<g id="a_node3"><a xlink:title=" ">
<polygon fill="#e0e0e0" stroke="#999999" points="1616.5,-200.5 1521.5,-200.5 1521.5,-181.5 1616.5,-181.5 1616.5,-200.5"/>
<text text-anchor="middle" x="1569" y="-188.5" font-family="Helvetica,sans-Serif" font-size="10.00">boost/optional.hpp</text>
</a>
</g>
</g>
<!-- Node2&#45;&gt;Node3 -->
<g id="edge2" class="edge">
<title>Node2&#45;&gt;Node3</title>
<path fill="none" stroke="#63b8ff" d="M1197.92,-561.65C1321.23,-554.2 1645,-525.9 1645,-434 1645,-434 1645,-434 1645,-316.5 1645,-272.46 1609.92,-230.8 1587.43,-208.61"/>
<polygon fill="#63b8ff" stroke="#63b8ff" points="1590.01,-206.23 1580.35,-201.88 1585.19,-211.31 1590.01,-206.23"/>
</g>
<!-- Node4 -->
<g id="node4" class="node">
<title>Node4</title>
<g id="a_node4"><a xlink:href="structs_8hpp.html" target="_top" xlink:title=" ">
<polygon fill="white" stroke="#666666" points="704.5,-514 611.5,-514 611.5,-484 704.5,-484 704.5,-514"/>
<text text-anchor="start" x="619.5" y="-502" font-family="Helvetica,sans-Serif" font-size="10.00">verification/finality</text>
<text text-anchor="middle" x="658" y="-491" font-family="Helvetica,sans-Serif" font-size="10.00">/structs.hpp</text>
</a>
</g>
</g>
<!-- Node2&#45;&gt;Node4 -->
<g id="edge3" class="edge">
<title>Node2&#45;&gt;Node4</title>
<path fill="none" stroke="#63b8ff" d="M1104.18,-557.92C1013.66,-546.17 814.92,-520.37 716.12,-507.55"/>
<polygon fill="#63b8ff" stroke="#63b8ff" points="716.74,-504.1 706.37,-506.28 715.84,-511.04 716.74,-504.1"/>
</g>
<!-- Node5 -->
<g id="node5" class="node">
<title>Node5</title>
<g id="a_node5"><a xlink:title=" ">
<polygon fill="#e0e0e0" stroke="#999999" points="937,-442.5 799,-442.5 799,-423.5 937,-423.5 937,-442.5"/>
<text text-anchor="middle" x="868" y="-430.5" font-family="Helvetica,sans-Serif" font-size="10.00">boost/asio/steady_timer.hpp</text>
</a>
</g>
</g>
<!-- Node4&#45;&gt;Node5 -->
<g id="edge4" class="edge">
<title>Node4&#45;&gt;Node5</title>
<path fill="none" stroke="#63b8ff" d="M704.87,-483.72C741.84,-472.45 792.87,-456.9 827.95,-446.2"/>
<polygon fill="#63b8ff" stroke="#63b8ff" points="828.75,-449.62 837.3,-443.36 826.71,-442.92 828.75,-449.62"/>
</g>
<!-- Node6 -->
<g id="node6" class="node">
<title>Node6</title>
<g id="a_node6"><a xlink:title=" ">
<polygon fill="#e0e0e0" stroke="#999999" points="1234.5,-140 1143.5,-140 1143.5,-121 1234.5,-121 1234.5,-140"/>
<text text-anchor="middle" x="1189" y="-128" font-family="Helvetica,sans-Serif" font-size="10.00">boost/variant.hpp</text>
</a>
</g>
</g>
<!-- Node4&#45;&gt;Node6 -->
<g id="edge5" class="edge">
<title>Node4&#45;&gt;Node6</title>
<path fill="none" stroke="#63b8ff" d="M685.07,-483.67C718.5,-463.78 771,-424.44 771,-373.5 771,-373.5 771,-373.5 771,-256 771,-212.08 791.18,-198.32 829,-176 835.46,-172.18 1032.06,-149.36 1131.94,-137.96"/>
<polygon fill="#63b8ff" stroke="#63b8ff" points="1132.29,-141.45 1141.83,-136.84 1131.5,-134.49 1132.29,-141.45"/>
</g>
<!-- Node7 -->
<g id="node7" class="node">
<title>Node7</title>
<g id="a_node7"><a xlink:href="buffer_8hpp.html" target="_top" xlink:title=" ">
<polygon fill="white" stroke="#666666" points="600.5,-140 517.5,-140 517.5,-121 600.5,-121 600.5,-140"/>
<text text-anchor="middle" x="559" y="-128" font-family="Helvetica,sans-Serif" font-size="10.00">base/buffer.hpp</text>
</a>
</g>
</g>
<!-- Node4&#45;&gt;Node7 -->
<g id="edge6" class="edge">
<title>Node4&#45;&gt;Node7</title>
<path fill="none" stroke="#63b8ff" d="M654.12,-483.63C638.74,-426.69 582.03,-216.77 564.32,-151.2"/>
<polygon fill="#63b8ff" stroke="#63b8ff" points="567.79,-150.6 561.8,-141.86 561.03,-152.43 567.79,-150.6"/>
</g>
<!-- Node15 -->
<g id="node15" class="node">
<title>Node15</title>
<g id="a_node15"><a xlink:href="scale_8hpp.html" target="_top" xlink:title=" ">
<polygon fill="white" stroke="#666666" points="1046,-327 962,-327 962,-308 1046,-308 1046,-327"/>
<text text-anchor="middle" x="1004" y="-315" font-family="Helvetica,sans-Serif" font-size="10.00">scale/scale.hpp</text>
</a>
</g>
</g>
<!-- Node4&#45;&gt;Node15 -->
<g id="edge14" class="edge">
<title>Node4&#45;&gt;Node15</title>
<path fill="none" stroke="#63b8ff" d="M704.78,-495.16C776.48,-489.95 909.14,-476.65 946,-448 981.07,-420.74 995.51,-367.63 1000.98,-338.61"/>
<polygon fill="#63b8ff" stroke="#63b8ff" points="1004.4,-339.41 1002.61,-328.97 997.5,-338.25 1004.4,-339.41"/>
</g>
<!-- Node32 -->
<g id="node28" class="node">
<title>Node32</title>
<g id="a_node28"><a xlink:href="visitor_8hpp.html" target="_top" xlink:title=" ">
<polygon fill="white" stroke="#666666" points="1872.5,-140 1787.5,-140 1787.5,-121 1872.5,-121 1872.5,-140"/>
<text text-anchor="middle" x="1830" y="-128" font-family="Helvetica,sans-Serif" font-size="10.00">base/visitor.hpp</text>
</a>
</g>
</g>
<!-- Node4&#45;&gt;Node32 -->
<g id="edge62" class="edge">
<title>Node4&#45;&gt;Node32</title>
<path fill="none" stroke="#63b8ff" d="M704.71,-497.96C920.79,-497.15 1813,-486.95 1813,-373.5 1813,-373.5 1813,-373.5 1813,-256 1813,-218.66 1820.6,-175.6 1825.64,-151.15"/>
<polygon fill="#63b8ff" stroke="#63b8ff" points="1828.99,-152.19 1827.67,-141.68 1822.15,-150.72 1828.99,-152.19"/>
</g>
<!-- Node39 -->
<g id="node35" class="node">
<title>Node39</title>
<g id="a_node35"><a xlink:href="blob_8hpp.html" target="_top" xlink:title=" ">
<polygon fill="white" stroke="#666666" points="273.5,-200.5 196.5,-200.5 196.5,-181.5 273.5,-181.5 273.5,-200.5"/>
<text text-anchor="middle" x="235" y="-188.5" font-family="Helvetica,sans-Serif" font-size="10.00">base/blob.hpp</text>
</a>
</g>
</g>
<!-- Node4&#45;&gt;Node39 -->
<g id="edge53" class="edge">
<title>Node4&#45;&gt;Node39</title>
<path fill="none" stroke="#63b8ff" d="M611.11,-495.58C502.27,-489.62 235.17,-472.85 149,-448 77.86,-427.48 0,-447.54 0,-373.5 0,-373.5 0,-373.5 0,-316.5 0,-233.4 116.16,-205.61 185.14,-196.43"/>
<polygon fill="#63b8ff" stroke="#63b8ff" points="185.2,-199.95 194.69,-195.25 184.34,-193 185.2,-199.95"/>
</g>
<!-- Node43 -->
<g id="node39" class="node">
<title>Node43</title>
<g id="a_node39"><a xlink:href="wrapper_8hpp.html" target="_top" xlink:title=" ">
<polygon fill="white" stroke="#666666" points="742.5,-382 649.5,-382 649.5,-363 742.5,-363 742.5,-382"/>
<text text-anchor="middle" x="696" y="-370" font-family="Helvetica,sans-Serif" font-size="10.00">base/wrapper.hpp</text>
</a>
</g>
</g>
<!-- Node4&#45;&gt;Node43 -->
<g id="edge63" class="edge">
<title>Node4&#45;&gt;Node43</title>
<path fill="none" stroke="#63b8ff" d="M662.36,-483.72C669.16,-461.43 682.31,-418.34 690,-393.14"/>
<polygon fill="#63b8ff" stroke="#63b8ff" points="693.28,-394.42 692.85,-383.83 686.58,-392.37 693.28,-394.42"/>
</g>
<!-- Node45 -->
<g id="node41" class="node">
<title>Node45</title>
<g id="a_node41"><a xlink:href="src_2verification_2finality_2common_8hpp.html" target="_top" xlink:title=" ">
<polygon fill="white" stroke="#666666" points="495.5,-448 402.5,-448 402.5,-418 495.5,-418 495.5,-448"/>
<text text-anchor="start" x="410.5" y="-436" font-family="Helvetica,sans-Serif" font-size="10.00">verification/finality</text>
<text text-anchor="middle" x="449" y="-425" font-family="Helvetica,sans-Serif" font-size="10.00">/common.hpp</text>
</a>
</g>
</g>
<!-- Node4&#45;&gt;Node45 -->
<g id="edge67" class="edge">
<title>Node4&#45;&gt;Node45</title>
<path fill="none" stroke="#63b8ff" d="M611.1,-483.64C580.17,-474.17 539.46,-461.7 506.57,-451.63"/>
<polygon fill="#63b8ff" stroke="#63b8ff" points="507.78,-448.34 497.19,-448.76 505.73,-455.03 507.78,-448.34"/>
</g>
<!-- Node49 -->
<g id="node45" class="node">
<title>Node49</title>
<g id="a_node45"><a xlink:href="ed25519__types_8hpp.html" target="_top" xlink:title=" ">
<polygon fill="white" stroke="#666666" points="178.5,-382 49.5,-382 49.5,-363 178.5,-363 178.5,-382"/>
<text text-anchor="middle" x="114" y="-370" font-family="Helvetica,sans-Serif" font-size="10.00">crypto/ed25519_types.hpp</text>
</a>
</g>
</g>
<!-- Node4&#45;&gt;Node49 -->
<g id="edge84" class="edge">
<title>Node4&#45;&gt;Node49</title>
<path fill="none" stroke="#63b8ff" d="M611.18,-496.73C508.47,-493.35 266.66,-481.92 193,-448 165.26,-435.22 140.99,-408.78 126.91,-391.09"/>
<polygon fill="#63b8ff" stroke="#63b8ff" points="129.96,-389.31 121.1,-383.5 124.4,-393.57 129.96,-389.31"/>
</g>
<!-- Node51 -->
<g id="node47" class="node">
<title>Node51</title>
<g id="a_node47"><a xlink:href="authority_8hpp.html" target="_top" xlink:title=" ">
<polygon fill="white" stroke="#666666" points="389,-382 273,-382 273,-363 389,-363 389,-382"/>
<text text-anchor="middle" x="331" y="-370" font-family="Helvetica,sans-Serif" font-size="10.00">primitives/authority.hpp</text>
</a>
</g>
</g>
<!-- Node4&#45;&gt;Node51 -->
<g id="edge85" class="edge">
<title>Node4&#45;&gt;Node51</title>
<path fill="none" stroke="#63b8ff" d="M611.11,-498.51C555.4,-497.1 461.41,-488.23 393,-448 370.06,-434.51 351.8,-409.25 341.19,-391.91"/>
<polygon fill="#63b8ff" stroke="#63b8ff" points="344.42,-390.51 336.36,-383.63 338.37,-394.03 344.42,-390.51"/>
</g>
<!-- Node53 -->
<g id="node49" class="node">
<title>Node53</title>
<g id="a_node49"><a xlink:href="src_2primitives_2common_8hpp.html" target="_top" xlink:title=" ">
<polygon fill="white" stroke="#666666" points="303.5,-327 186.5,-327 186.5,-308 303.5,-308 303.5,-327"/>
<text text-anchor="middle" x="245" y="-315" font-family="Helvetica,sans-Serif" font-size="10.00">primitives/common.hpp</text>
</a>
</g>
</g>
<!-- Node4&#45;&gt;Node53 -->
<g id="edge86" class="edge">
<title>Node4&#45;&gt;Node53</title>
<path fill="none" stroke="#63b8ff" d="M611.03,-495.85C550.37,-491.81 442.35,-480.34 356,-448 303.68,-428.4 277.75,-429.91 249,-382 241.25,-369.08 240.62,-351.9 241.73,-338.67"/>
<polygon fill="#63b8ff" stroke="#63b8ff" points="245.17,-339.32 242.95,-328.96 238.23,-338.44 245.17,-339.32"/>
</g>
<!-- Node8 -->
<g id="node8" class="node">
<title>Node8</title>
<g id="a_node8"><a xlink:title=" ">
<polygon fill="#e0e0e0" stroke="#999999" points="685,-79.5 619,-79.5 619,-60.5 685,-60.5 685,-79.5"/>
<text text-anchor="middle" x="652" y="-67.5" font-family="Helvetica,sans-Serif" font-size="10.00">string_view</text>
</a>
</g>
</g>
<!-- Node7&#45;&gt;Node8 -->
<g id="edge7" class="edge">
<title>Node7&#45;&gt;Node8</title>
<path fill="none" stroke="#63b8ff" d="M573.12,-120.62C587.74,-111.42 610.82,-96.91 628.24,-85.94"/>
<polygon fill="#63b8ff" stroke="#63b8ff" points="629.86,-89.06 636.46,-80.77 626.13,-83.14 629.86,-89.06"/>
</g>
<!-- Node9 -->
<g id="node9" class="node">
<title>Node9</title>
<g id="a_node9"><a xlink:title=" ">
<polygon fill="#e0e0e0" stroke="#999999" points="473,-79.5 429,-79.5 429,-60.5 473,-60.5 473,-79.5"/>
<text text-anchor="middle" x="451" y="-67.5" font-family="Helvetica,sans-Serif" font-size="10.00">vector</text>
</a>
</g>
</g>
<!-- Node7&#45;&gt;Node9 -->
<g id="edge8" class="edge">
<title>Node7&#45;&gt;Node9</title>
<path fill="none" stroke="#63b8ff" d="M542.6,-120.62C525.31,-111.25 497.82,-96.36 477.46,-85.33"/>
<polygon fill="#63b8ff" stroke="#63b8ff" points="479.35,-82.37 468.89,-80.69 476.01,-88.53 479.35,-82.37"/>
</g>
<!-- Node10 -->
<g id="node10" class="node">
<title>Node10</title>
<g id="a_node10"><a xlink:title=" ">
<polygon fill="#e0e0e0" stroke="#999999" points="601,-85 491,-85 491,-55 601,-55 601,-85"/>
<text text-anchor="start" x="499" y="-73" font-family="Helvetica,sans-Serif" font-size="10.00">boost/container_hash</text>
<text text-anchor="middle" x="546" y="-62" font-family="Helvetica,sans-Serif" font-size="10.00">/hash.hpp</text>
</a>
</g>
</g>
<!-- Node7&#45;&gt;Node10 -->
<g id="edge9" class="edge">
<title>Node7&#45;&gt;Node10</title>
<path fill="none" stroke="#63b8ff" d="M557.08,-120.87C555.63,-114.33 553.55,-104.99 551.59,-96.15"/>
<polygon fill="#63b8ff" stroke="#63b8ff" points="555.05,-95.59 549.46,-86.59 548.22,-97.11 555.05,-95.59"/>
</g>
<!-- Node11 -->
<g id="node11" class="node">
<title>Node11</title>
<g id="a_node11"><a xlink:title=" ">
<polygon fill="#e0e0e0" stroke="#999999" points="411,-79.5 309,-79.5 309,-60.5 411,-60.5 411,-79.5"/>
<text text-anchor="middle" x="360" y="-67.5" font-family="Helvetica,sans-Serif" font-size="10.00">boost/operators.hpp</text>
</a>
</g>
</g>
<!-- Node7&#45;&gt;Node11 -->
<g id="edge10" class="edge">
<title>Node7&#45;&gt;Node11</title>
<path fill="none" stroke="#63b8ff" d="M528.78,-120.62C494.73,-110.61 439.21,-94.29 401.21,-83.12"/>
<polygon fill="#63b8ff" stroke="#63b8ff" points="402.54,-79.86 391.96,-80.4 400.57,-86.57 402.54,-79.86"/>
</g>
<!-- Node12 -->
<g id="node12" class="node">
<title>Node12</title>
<g id="a_node12"><a xlink:title=" ">
<polygon fill="#e0e0e0" stroke="#999999" points="887.5,-79.5 834.5,-79.5 834.5,-60.5 887.5,-60.5 887.5,-79.5"/>
<text text-anchor="middle" x="861" y="-67.5" font-family="Helvetica,sans-Serif" font-size="10.00">gsl/span</text>
</a>
</g>
</g>
<!-- Node7&#45;&gt;Node12 -->
<g id="edge11" class="edge">
<title>Node7&#45;&gt;Node12</title>
<path fill="none" stroke="#63b8ff" d="M600.98,-122.51C676.12,-109.99 825.83,-85.05 826,-85 827.38,-84.61 828.79,-84.19 830.19,-83.74"/>
<polygon fill="#63b8ff" stroke="#63b8ff" points="831.24,-87.08 839.47,-80.41 828.88,-80.49 831.24,-87.08"/>
</g>
<!-- Node13 -->
<g id="node13" class="node">
<title>Node13</title>
<g id="a_node13"><a xlink:href="outcome_8hpp.html" target="_top" xlink:title=" ">
<polygon fill="white" stroke="#666666" points="816.5,-79.5 703.5,-79.5 703.5,-60.5 816.5,-60.5 816.5,-79.5"/>
<text text-anchor="middle" x="760" y="-67.5" font-family="Helvetica,sans-Serif" font-size="10.00">outcome/outcome.hpp</text>
</a>
</g>
</g>
<!-- Node7&#45;&gt;Node13 -->
<g id="edge12" class="edge">
<title>Node7&#45;&gt;Node13</title>
<path fill="none" stroke="#63b8ff" d="M589.53,-120.62C623.91,-110.61 679.99,-94.29 718.37,-83.12"/>
<polygon fill="#63b8ff" stroke="#63b8ff" points="719.11,-86.55 727.73,-80.39 717.15,-79.83 719.11,-86.55"/>
</g>
<!-- Node14 -->
<g id="node14" class="node">
<title>Node14</title>
<g id="a_node14"><a xlink:title=" ">
<polygon fill="#e0e0e0" stroke="#999999" points="830.5,-19 689.5,-19 689.5,0 830.5,0 830.5,-19"/>
<text text-anchor="middle" x="760" y="-7" font-family="Helvetica,sans-Serif" font-size="10.00">libp2p/outcome/outcome.hpp</text>
</a>
</g>
</g>
<!-- Node13&#45;&gt;Node14 -->
<g id="edge13" class="edge">
<title>Node13&#45;&gt;Node14</title>
<path fill="none" stroke="#63b8ff" d="M760,-60.37C760,-52.5 760,-40.6 760,-30.39"/>
<polygon fill="#63b8ff" stroke="#63b8ff" points="763.5,-30.68 760,-20.68 756.5,-30.68 763.5,-30.68"/>
</g>
<!-- Node15&#45;&gt;Node9 -->
<g id="edge15" class="edge">
<title>Node15&#45;&gt;Node9</title>
<path fill="none" stroke="#63b8ff" d="M961.87,-309.38C921.55,-302 859.31,-289.15 807,-272 705.63,-238.76 686.48,-214.52 587,-176 540.6,-158.03 517.61,-173.7 481,-140 466.89,-127.02 459.1,-106.24 455.02,-90.88"/>
<polygon fill="#63b8ff" stroke="#63b8ff" points="458.5,-90.39 452.83,-81.44 451.68,-91.97 458.5,-90.39"/>
</g>
<!-- Node15&#45;&gt;Node12 -->
<g id="edge18" class="edge">
<title>Node15&#45;&gt;Node12</title>
<path fill="none" stroke="#63b8ff" d="M967.26,-307.52C921.31,-294.11 844.6,-263.95 811,-206 803.15,-192.45 814.5,-128.87 818,-121 823.58,-108.45 833.38,-96.68 842.21,-87.71"/>
<polygon fill="#63b8ff" stroke="#63b8ff" points="844.63,-90.24 849.44,-80.8 839.79,-85.18 844.63,-90.24"/>
</g>
<!-- Node15&#45;&gt;Node13 -->
<g id="edge19" class="edge">
<title>Node15&#45;&gt;Node13</title>
<path fill="none" stroke="#63b8ff" d="M961.55,-314.53C925.21,-310.82 873.31,-300.46 838,-272 780.68,-225.79 765.39,-131.92 761.39,-90.91"/>
<polygon fill="#63b8ff" stroke="#63b8ff" points="764.89,-90.77 760.57,-81.09 757.91,-91.35 764.89,-90.77"/>
</g>
<!-- Node16 -->
<g id="node16" class="node">
<title>Node16</title>
<g id="a_node16"><a xlink:title=" ">
<polygon fill="#e0e0e0" stroke="#999999" points="1712,-85 1602,-85 1602,-55 1712,-55 1712,-85"/>
<text text-anchor="start" x="1610" y="-73" font-family="Helvetica,sans-Serif" font-size="10.00">boost/system/system</text>
<text text-anchor="middle" x="1657" y="-62" font-family="Helvetica,sans-Serif" font-size="10.00">_error.hpp</text>
</a>
</g>
</g>
<!-- Node15&#45;&gt;Node16 -->
<g id="edge16" class="edge">
<title>Node15&#45;&gt;Node16</title>
<path fill="none" stroke="#63b8ff" d="M1046.14,-315.69C1158.21,-313.13 1461.45,-303.42 1556,-272 1608.31,-254.62 1634.34,-254.24 1661,-206 1679.95,-171.7 1672.45,-124.65 1664.96,-96.11"/>
<polygon fill="#63b8ff" stroke="#63b8ff" points="1668.35,-95.22 1662.25,-86.56 1661.62,-97.14 1668.35,-95.22"/>
</g>
<!-- Node17 -->
<g id="node17" class="node">
<title>Node17</title>
<g id="a_node17"><a xlink:title=" ">
<polygon fill="#e0e0e0" stroke="#999999" points="1584,-79.5 1452,-79.5 1452,-60.5 1584,-60.5 1584,-79.5"/>
<text text-anchor="middle" x="1518" y="-67.5" font-family="Helvetica,sans-Serif" font-size="10.00">boost/throw_exception.hpp</text>
</a>
</g>
</g>
<!-- Node15&#45;&gt;Node17 -->
<g id="edge17" class="edge">
<title>Node15&#45;&gt;Node17</title>
<path fill="none" stroke="#63b8ff" d="M1046.49,-316.01C1176.86,-313.51 1566.93,-298.31 1643,-206 1681.05,-159.82 1596.48,-108.94 1548.37,-84.96"/>
<polygon fill="#63b8ff" stroke="#63b8ff" points="1550.03,-81.88 1539.51,-80.66 1546.98,-88.18 1550.03,-81.88"/>
</g>
<!-- Node18 -->
<g id="node18" class="node">
<title>Node18</title>
<g id="a_node18"><a xlink:href="scale__decoder__stream_8hpp.html" target="_top" xlink:title=" ">
<polygon fill="white" stroke="#666666" points="1295,-272 1189,-272 1189,-242 1295,-242 1295,-272"/>
<text text-anchor="start" x="1197" y="-260" font-family="Helvetica,sans-Serif" font-size="10.00">scale/scale_decoder</text>
<text text-anchor="middle" x="1242" y="-249" font-family="Helvetica,sans-Serif" font-size="10.00">_stream.hpp</text>
</a>
</g>
</g>
<!-- Node15&#45;&gt;Node18 -->
<g id="edge20" class="edge">
<title>Node15&#45;&gt;Node18</title>
<path fill="none" stroke="#63b8ff" d="M1040.41,-307.55C1076.9,-298.58 1133.84,-284.59 1177.91,-273.75"/>
<polygon fill="#63b8ff" stroke="#63b8ff" points="1178.47,-277.22 1187.35,-271.43 1176.8,-270.42 1178.47,-277.22"/>
</g>
<!-- Node37 -->
<g id="node33" class="node">
<title>Node37</title>
<g id="a_node33"><a xlink:href="scale__encoder__stream_8hpp.html" target="_top" xlink:title=" ">
<polygon fill="white" stroke="#666666" points="1109,-272 1003,-272 1003,-242 1109,-242 1109,-272"/>
<text text-anchor="start" x="1011" y="-260" font-family="Helvetica,sans-Serif" font-size="10.00">scale/scale_encoder</text>
<text text-anchor="middle" x="1056" y="-249" font-family="Helvetica,sans-Serif" font-size="10.00">_stream.hpp</text>
</a>
</g>
</g>
<!-- Node15&#45;&gt;Node37 -->
<g id="edge45" class="edge">
<title>Node15&#45;&gt;Node37</title>
<path fill="none" stroke="#63b8ff" d="M1011.67,-307.87C1018.08,-300.67 1027.49,-290.07 1036.01,-280.49"/>
<polygon fill="#63b8ff" stroke="#63b8ff" points="1038.42,-283.05 1042.45,-273.25 1033.19,-278.39 1038.42,-283.05"/>
</g>
<!-- Node18&#45;&gt;Node3 -->
<g id="edge23" class="edge">
<title>Node18&#45;&gt;Node3</title>
<path fill="none" stroke="#63b8ff" d="M1295.46,-247.04C1350.06,-237.66 1437.2,-222.1 1512,-206 1515.54,-205.24 1519.19,-204.42 1522.86,-203.57"/>
<polygon fill="#63b8ff" stroke="#63b8ff" points="1523.4,-207.04 1532.33,-201.33 1521.79,-200.23 1523.4,-207.04"/>
</g>
<!-- Node18&#45;&gt;Node12 -->
<g id="edge24" class="edge">
<title>Node18&#45;&gt;Node12</title>
<path fill="none" stroke="#63b8ff" d="M1295.47,-244.99C1316.84,-237.69 1339.34,-225.67 1352,-206 1359.22,-194.79 1358.37,-187.71 1352,-176 1330.5,-136.47 1309.29,-136.36 1267,-121 1138.01,-74.15 972.42,-69.54 898.98,-70.09"/>
<polygon fill="#63b8ff" stroke="#63b8ff" points="899.07,-66.59 889.11,-70.21 899.15,-73.59 899.07,-66.59"/>
</g>
<!-- Node19 -->
<g id="node19" class="node">
<title>Node19</title>
<g id="a_node19"><a xlink:title=" ">
<polygon fill="#e0e0e0" stroke="#999999" points="1103,-140 1065,-140 1065,-121 1103,-121 1103,-140"/>
<text text-anchor="middle" x="1084" y="-128" font-family="Helvetica,sans-Serif" font-size="10.00">array</text>
</a>
</g>
</g>
<!-- Node18&#45;&gt;Node19 -->
<g id="edge21" class="edge">
<title>Node18&#45;&gt;Node19</title>
<path fill="none" stroke="#63b8ff" d="M1233.81,-241.59C1223.27,-224.13 1203.5,-194.72 1180,-176 1160.21,-160.23 1133.93,-148.55 1113.87,-141.12"/>
<polygon fill="#63b8ff" stroke="#63b8ff" points="1115.18,-137.87 1104.58,-137.84 1112.84,-144.47 1115.18,-137.87"/>
</g>
<!-- Node20 -->
<g id="node20" class="node">
<title>Node20</title>
<g id="a_node20"><a xlink:title=" ">
<polygon fill="#e0e0e0" stroke="#999999" points="1503,-206 1399,-206 1399,-176 1503,-176 1503,-206"/>
<text text-anchor="start" x="1407" y="-194" font-family="Helvetica,sans-Serif" font-size="10.00">boost/multiprecision</text>
<text text-anchor="middle" x="1451" y="-183" font-family="Helvetica,sans-Serif" font-size="10.00">/cpp_int.hpp</text>
</a>
</g>
</g>
<!-- Node18&#45;&gt;Node20 -->
<g id="edge22" class="edge">
<title>Node18&#45;&gt;Node20</title>
<path fill="none" stroke="#63b8ff" d="M1289.16,-241.56C1319.99,-232.12 1360.46,-219.72 1393.22,-209.69"/>
<polygon fill="#63b8ff" stroke="#63b8ff" points="1394.02,-213.11 1402.56,-206.83 1391.97,-206.41 1394.02,-213.11"/>
</g>
<!-- Node21 -->
<g id="node21" class="node">
<title>Node21</title>
<g id="a_node21"><a xlink:href="outcome__throw_8hpp.html" target="_top" xlink:title=" ">
<polygon fill="white" stroke="#666666" points="1580.5,-140 1455.5,-140 1455.5,-121 1580.5,-121 1580.5,-140"/>
<text text-anchor="middle" x="1518" y="-128" font-family="Helvetica,sans-Serif" font-size="10.00">base/outcome_throw.hpp</text>
</a>
</g>
</g>
<!-- Node18&#45;&gt;Node21 -->
<g id="edge25" class="edge">
<title>Node18&#45;&gt;Node21</title>
<path fill="none" stroke="#63b8ff" d="M1295.26,-252.91C1395.59,-246.54 1604.51,-230.47 1626,-206 1634.8,-195.98 1633.42,-187.08 1626,-176 1615.82,-160.79 1599.39,-150.77 1582.38,-144.18"/>
<polygon fill="#63b8ff" stroke="#63b8ff" points="1583.8,-140.96 1573.2,-140.99 1581.5,-147.58 1583.8,-140.96"/>
</g>
<!-- Node22 -->
<g id="node22" class="node">
<title>Node22</title>
<g id="a_node22"><a xlink:href="fixed__witdh__integer_8hpp.html" target="_top" xlink:title=" ">
<polygon fill="#fff0f0" stroke="red" points="997,-206 899,-206 899,-176 997,-176 997,-206"/>
<text text-anchor="start" x="907" y="-194" font-family="Helvetica,sans-Serif" font-size="10.00">scale/detail/fixed</text>
<text text-anchor="middle" x="948" y="-183" font-family="Helvetica,sans-Serif" font-size="10.00">_witdh_integer.hpp</text>
</a>
</g>
</g>
<!-- Node18&#45;&gt;Node22 -->
<g id="edge28" class="edge">
<title>Node18&#45;&gt;Node22</title>
<path fill="none" stroke="#63b8ff" d="M1188.95,-245.2C1143.49,-235.85 1075.98,-221.73 1008.21,-206.47"/>
<polygon fill="#63b8ff" stroke="#63b8ff" points="1009.34,-203.13 998.82,-204.34 1007.8,-209.96 1009.34,-203.13"/>
</g>
<!-- Node29 -->
<g id="node26" class="node">
<title>Node29</title>
<g id="a_node26"><a xlink:href="tuple_8hpp.html" target="_top" xlink:title=" ">
<polygon fill="#fff0f0" stroke="red" points="1123,-200.5 1015,-200.5 1015,-181.5 1123,-181.5 1123,-200.5"/>
<text text-anchor="middle" x="1069" y="-188.5" font-family="Helvetica,sans-Serif" font-size="10.00">scale/detail/tuple.hpp</text>
</a>
</g>
</g>
<!-- Node18&#45;&gt;Node29 -->
<g id="edge35" class="edge">
<title>Node18&#45;&gt;Node29</title>
<path fill="none" stroke="#63b8ff" d="M1203.18,-241.64C1173.45,-230.64 1132.8,-215.6 1104.05,-204.97"/>
<polygon fill="#63b8ff" stroke="#63b8ff" points="1105.3,-201.7 1094.71,-201.51 1102.87,-208.26 1105.3,-201.7"/>
</g>
<!-- Node31 -->
<g id="node27" class="node">
<title>Node31</title>
<g id="a_node27"><a xlink:href="variant_8hpp.html" target="_top" xlink:title=" ">
<polygon fill="#fff0f0" stroke="red" points="1343,-200.5 1227,-200.5 1227,-181.5 1343,-181.5 1343,-200.5"/>
<text text-anchor="middle" x="1285" y="-188.5" font-family="Helvetica,sans-Serif" font-size="10.00">scale/detail/variant.hpp</text>
</a>
</g>
</g>
<!-- Node18&#45;&gt;Node31 -->
<g id="edge36" class="edge">
<title>Node18&#45;&gt;Node31</title>
<path fill="none" stroke="#63b8ff" d="M1251.54,-241.8C1257.79,-232.5 1266,-220.27 1272.73,-210.26"/>
<polygon fill="#63b8ff" stroke="#63b8ff" points="1275.54,-212.35 1278.21,-202.1 1269.73,-208.45 1275.54,-212.35"/>
</g>
<!-- Node36 -->
<g id="node32" class="node">
<title>Node36</title>
<g id="a_node32"><a xlink:title=" ">
<polygon fill="#e0e0e0" stroke="#999999" points="1170.5,-200.5 1141.5,-200.5 1141.5,-181.5 1170.5,-181.5 1170.5,-200.5"/>
<text text-anchor="middle" x="1156" y="-188.5" font-family="Helvetica,sans-Serif" font-size="10.00">list</text>
</a>
</g>
</g>
<!-- Node18&#45;&gt;Node36 -->
<g id="edge44" class="edge">
<title>Node18&#45;&gt;Node36</title>
<path fill="none" stroke="#63b8ff" d="M1222.91,-241.8C1209.24,-231.62 1190.85,-217.93 1176.8,-207.48"/>
<polygon fill="#63b8ff" stroke="#63b8ff" points="1179.21,-204.91 1169.1,-201.75 1175.03,-210.53 1179.21,-204.91"/>
</g>
<!-- Node21&#45;&gt;Node16 -->
<g id="edge26" class="edge">
<title>Node21&#45;&gt;Node16</title>
<path fill="none" stroke="#63b8ff" d="M1539.11,-120.62C1558.43,-112.48 1587.65,-100.19 1612.16,-89.87"/>
<polygon fill="#63b8ff" stroke="#63b8ff" points="1613.44,-93.13 1621.3,-86.03 1610.72,-86.68 1613.44,-93.13"/>
</g>
<!-- Node21&#45;&gt;Node17 -->
<g id="edge27" class="edge">
<title>Node21&#45;&gt;Node17</title>
<path fill="none" stroke="#63b8ff" d="M1518,-120.87C1518,-113 1518,-101.1 1518,-90.89"/>
<polygon fill="#63b8ff" stroke="#63b8ff" points="1521.5,-91.18 1518,-81.18 1514.5,-91.18 1521.5,-91.18"/>
</g>
<!-- Node22&#45;&gt;Node9 -->
<g id="edge32" class="edge">
<title>Node22&#45;&gt;Node9</title>
<path fill="none" stroke="#63b8ff" d="M898.74,-177.6C895.79,-177.02 892.86,-176.48 890,-176 806.12,-161.99 584.32,-179.5 509,-140 487.4,-128.67 470.6,-105.56 460.77,-89.21"/>
<polygon fill="#63b8ff" stroke="#63b8ff" points="464.06,-87.92 456.07,-80.96 457.97,-91.38 464.06,-87.92"/>
</g>
<!-- Node22&#45;&gt;Node19 -->
<g id="edge30" class="edge">
<title>Node22&#45;&gt;Node19</title>
<path fill="none" stroke="#63b8ff" d="M981.62,-175.54C1003.86,-165.97 1032.75,-153.54 1054.17,-144.33"/>
<polygon fill="#63b8ff" stroke="#63b8ff" points="1055.42,-147.6 1063.23,-140.44 1052.66,-141.17 1055.42,-147.6"/>
</g>
<!-- Node22&#45;&gt;Node21 -->
<g id="edge34" class="edge">
<title>Node22&#45;&gt;Node21</title>
<path fill="none" stroke="#63b8ff" d="M997.26,-177.58C1000.21,-177 1003.14,-176.47 1006,-176 1160.59,-150.77 1343.92,-139.22 1443.89,-134.45"/>
<polygon fill="#63b8ff" stroke="#63b8ff" points="1444.02,-137.95 1453.85,-133.98 1443.7,-130.95 1444.02,-137.95"/>
</g>
<!-- Node23 -->
<g id="node23" class="node">
<title>Node23</title>
<g id="a_node23"><a xlink:title=" ">
<polygon fill="#e0e0e0" stroke="#999999" points="893,-140 837,-140 837,-121 893,-121 893,-140"/>
<text text-anchor="middle" x="865" y="-128" font-family="Helvetica,sans-Serif" font-size="10.00">algorithm</text>
</a>
</g>
</g>
<!-- Node22&#45;&gt;Node23 -->
<g id="edge29" class="edge">
<title>Node22&#45;&gt;Node23</title>
<path fill="none" stroke="#63b8ff" d="M927.48,-175.54C915.06,-166.78 899.23,-155.63 886.61,-146.73"/>
<polygon fill="#63b8ff" stroke="#63b8ff" points="888.74,-143.95 878.55,-141.05 884.7,-149.67 888.74,-143.95"/>
</g>
<!-- Node24 -->
<g id="node24" class="node">
<title>Node24</title>
<g id="a_node24"><a xlink:title=" ">
<polygon fill="#e0e0e0" stroke="#999999" points="385,-140 339,-140 339,-121 385,-121 385,-140"/>
<text text-anchor="middle" x="362" y="-128" font-family="Helvetica,sans-Serif" font-size="10.00">cstdint</text>
</a>
</g>
</g>
<!-- Node22&#45;&gt;Node24 -->
<g id="edge31" class="edge">
<title>Node22&#45;&gt;Node24</title>
<path fill="none" stroke="#63b8ff" d="M898.74,-177.57C895.79,-176.99 892.86,-176.46 890,-176 841.53,-168.15 506.68,-142.44 396.82,-134.12"/>
<polygon fill="#63b8ff" stroke="#63b8ff" points="397.19,-130.64 386.95,-133.38 396.66,-137.62 397.19,-130.64"/>
</g>
<!-- Node25 -->
<g id="node25" class="node">
<title>Node25</title>
<g id="a_node25"><a xlink:title=" ">
<polygon fill="#e0e0e0" stroke="#999999" points="1047,-140 911,-140 911,-121 1047,-121 1047,-140"/>
<text text-anchor="middle" x="979" y="-128" font-family="Helvetica,sans-Serif" font-size="10.00">boost/endian/arithmetic.hpp</text>
</a>
</g>
</g>
<!-- Node22&#45;&gt;Node25 -->
<g id="edge33" class="edge">
<title>Node22&#45;&gt;Node25</title>
<path fill="none" stroke="#63b8ff" d="M955.66,-175.54C959.71,-167.91 964.71,-158.46 969.05,-150.27"/>
<polygon fill="#63b8ff" stroke="#63b8ff" points="972.1,-151.99 973.69,-141.51 965.92,-148.71 972.1,-151.99"/>
</g>
<!-- Node31&#45;&gt;Node6 -->
<g id="edge37" class="edge">
<title>Node31&#45;&gt;Node6</title>
<path fill="none" stroke="#63b8ff" d="M1270.42,-181.12C1255.34,-171.92 1231.51,-157.41 1213.52,-146.44"/>
<polygon fill="#63b8ff" stroke="#63b8ff" points="1215.37,-143.47 1205.01,-141.26 1211.73,-149.45 1215.37,-143.47"/>
</g>
<!-- Node31&#45;&gt;Node13 -->
<g id="edge38" class="edge">
<title>Node31&#45;&gt;Node13</title>
<path fill="none" stroke="#63b8ff" d="M1282.7,-181.41C1278.15,-166.26 1266.43,-135.07 1244,-121 1165.02,-71.45 918.22,-98.7 826,-85 820.63,-84.2 815.05,-83.24 809.5,-82.19"/>
<polygon fill="#63b8ff" stroke="#63b8ff" points="810.22,-78.76 799.73,-80.24 808.85,-85.63 810.22,-78.76"/>
</g>
<!-- Node31&#45;&gt;Node21 -->
<g id="edge39" class="edge">
<title>Node31&#45;&gt;Node21</title>
<path fill="none" stroke="#63b8ff" d="M1320.64,-181.05C1360.98,-170.92 1426.85,-154.39 1471.28,-143.23"/>
<polygon fill="#63b8ff" stroke="#63b8ff" points="1472.05,-146.65 1480.89,-140.82 1470.34,-139.86 1472.05,-146.65"/>
</g>
<!-- Node31&#45;&gt;Node32 -->
<g id="edge40" class="edge">
<title>Node31&#45;&gt;Node32</title>
<path fill="none" stroke="#63b8ff" d="M1343.27,-181.9C1358.47,-179.87 1374.84,-177.78 1390,-176 1528.78,-159.73 1692.62,-144.11 1775.74,-136.43"/>
<polygon fill="#63b8ff" stroke="#63b8ff" points="1776.02,-139.92 1785.66,-135.52 1775.38,-132.95 1776.02,-139.92"/>
</g>
<!-- Node33 -->
<g id="node29" class="node">
<title>Node33</title>
<g id="a_node29"><a xlink:title=" ">
<polygon fill="#e0e0e0" stroke="#999999" points="1792,-79.5 1730,-79.5 1730,-60.5 1792,-60.5 1792,-79.5"/>
<text text-anchor="middle" x="1761" y="-67.5" font-family="Helvetica,sans-Serif" font-size="10.00">type_traits</text>
</a>
</g>
</g>
<!-- Node32&#45;&gt;Node33 -->
<g id="edge41" class="edge">
<title>Node32&#45;&gt;Node33</title>
<path fill="none" stroke="#63b8ff" d="M1819.52,-120.62C1809.08,-111.77 1792.83,-97.98 1780.09,-87.19"/>
<polygon fill="#63b8ff" stroke="#63b8ff" points="1782.62,-84.74 1772.73,-80.95 1778.1,-90.08 1782.62,-84.74"/>
</g>
<!-- Node34 -->
<g id="node30" class="node">
<title>Node34</title>
<g id="a_node30"><a xlink:title=" ">
<polygon fill="#e0e0e0" stroke="#999999" points="1849.5,-79.5 1810.5,-79.5 1810.5,-60.5 1849.5,-60.5 1849.5,-79.5"/>
<text text-anchor="middle" x="1830" y="-67.5" font-family="Helvetica,sans-Serif" font-size="10.00">utility</text>
</a>
</g>
</g>
<!-- Node32&#45;&gt;Node34 -->
<g id="edge42" class="edge">
<title>Node32&#45;&gt;Node34</title>
<path fill="none" stroke="#63b8ff" d="M1830,-120.87C1830,-113 1830,-101.1 1830,-90.89"/>
<polygon fill="#63b8ff" stroke="#63b8ff" points="1833.5,-91.18 1830,-81.18 1826.5,-91.18 1833.5,-91.18"/>
</g>
<!-- Node35 -->
<g id="node31" class="node">
<title>Node35</title>
<g id="a_node31"><a xlink:title=" ">
<polygon fill="#e0e0e0" stroke="#999999" points="1966,-85 1868,-85 1868,-55 1966,-55 1966,-85"/>
<text text-anchor="start" x="1876" y="-73" font-family="Helvetica,sans-Serif" font-size="10.00">boost/variant/apply</text>
<text text-anchor="middle" x="1917" y="-62" font-family="Helvetica,sans-Serif" font-size="10.00">_visitor.hpp</text>
</a>
</g>
</g>
<!-- Node32&#45;&gt;Node35 -->
<g id="edge43" class="edge">
<title>Node32&#45;&gt;Node35</title>
<path fill="none" stroke="#63b8ff" d="M1843.21,-120.62C1854.6,-112.96 1871.48,-101.61 1886.23,-91.69"/>
<polygon fill="#63b8ff" stroke="#63b8ff" points="1887.92,-94.77 1894.27,-86.28 1884.02,-88.96 1887.92,-94.77"/>
</g>
<!-- Node37&#45;&gt;Node3 -->
<g id="edge47" class="edge">
<title>Node37&#45;&gt;Node3</title>
<path fill="none" stroke="#63b8ff" d="M1109.4,-249.92C1131.28,-247.44 1156.85,-244.56 1180,-242 1327.52,-225.67 1365.83,-231.76 1512,-206 1516.11,-205.28 1520.35,-204.43 1524.59,-203.51"/>
<polygon fill="#63b8ff" stroke="#63b8ff" points="1525.26,-206.95 1534.23,-201.3 1523.7,-200.12 1525.26,-206.95"/>
</g>
<!-- Node37&#45;&gt;Node12 -->
<g id="edge48" class="edge">
<title>Node37&#45;&gt;Node12</title>
<path fill="none" stroke="#63b8ff" d="M1002.64,-251.75C942.58,-245.75 850.56,-232.42 829,-206 805.11,-176.73 817.14,-157.18 828,-121 831.56,-109.15 838.94,-97.51 845.82,-88.45"/>
<polygon fill="#63b8ff" stroke="#63b8ff" points="848.34,-90.89 851.93,-80.92 842.91,-86.48 848.34,-90.89"/>
</g>
<!-- Node37&#45;&gt;Node22 -->
<g id="edge49" class="edge">
<title>Node37&#45;&gt;Node22</title>
<path fill="none" stroke="#63b8ff" d="M1031.76,-241.64C1017.03,-232.91 998.01,-221.63 981.81,-212.04"/>
<polygon fill="#63b8ff" stroke="#63b8ff" points="983.85,-209.17 973.46,-207.09 980.28,-215.2 983.85,-209.17"/>
</g>
<!-- Node37&#45;&gt;Node29 -->
<g id="edge50" class="edge">
<title>Node37&#45;&gt;Node29</title>
<path fill="none" stroke="#63b8ff" d="M1058.89,-241.8C1060.67,-232.99 1063,-221.55 1064.97,-211.86"/>
<polygon fill="#63b8ff" stroke="#63b8ff" points="1068.34,-212.82 1066.9,-202.33 1061.48,-211.43 1068.34,-212.82"/>
</g>
<!-- Node37&#45;&gt;Node31 -->
<g id="edge51" class="edge">
<title>Node37&#45;&gt;Node31</title>
<path fill="none" stroke="#63b8ff" d="M1107.68,-241.56C1148.26,-230.22 1204.09,-214.61 1242.2,-203.96"/>
<polygon fill="#63b8ff" stroke="#63b8ff" points="1242.78,-207.43 1251.47,-201.37 1240.9,-200.69 1242.78,-207.43"/>
</g>
<!-- Node37&#45;&gt;Node36 -->
<g id="edge52" class="edge">
<title>Node37&#45;&gt;Node36</title>
<path fill="none" stroke="#63b8ff" d="M1078.19,-241.8C1094.39,-231.43 1116.31,-217.4 1132.75,-206.88"/>
<polygon fill="#63b8ff" stroke="#63b8ff" points="1134.37,-210 1140.91,-201.66 1130.6,-204.1 1134.37,-210"/>
</g>
<!-- Node38 -->
<g id="node34" class="node">
<title>Node38</title>
<g id="a_node34"><a xlink:title=" ">
<polygon fill="#e0e0e0" stroke="#999999" points="880.5,-200.5 837.5,-200.5 837.5,-181.5 880.5,-181.5 880.5,-200.5"/>
<text text-anchor="middle" x="859" y="-188.5" font-family="Helvetica,sans-Serif" font-size="10.00">deque</text>
</a>
</g>
</g>
<!-- Node37&#45;&gt;Node38 -->
<g id="edge46" class="edge">
<title>Node37&#45;&gt;Node38</title>
<path fill="none" stroke="#63b8ff" d="M1002.7,-241.88C969.85,-232.7 927.06,-219.88 890,-206 889.38,-205.77 888.75,-205.53 888.12,-205.28"/>
<polygon fill="#63b8ff" stroke="#63b8ff" points="889.82,-202.2 879.25,-201.57 887.12,-208.66 889.82,-202.2"/>
</g>
<!-- Node39&#45;&gt;Node19 -->
<g id="edge54" class="edge">
<title>Node39&#45;&gt;Node19</title>
<path fill="none" stroke="#63b8ff" d="M273.77,-188.84C412.06,-184.53 881.54,-168.26 1053.43,-139.96"/>
<polygon fill="#63b8ff" stroke="#63b8ff" points="1053.81,-143.45 1063.07,-138.29 1052.62,-136.55 1053.81,-143.45"/>
</g>
<!-- Node40 -->
<g id="node36" class="node">
<title>Node40</title>
<g id="a_node36"><a xlink:title=" ">
<polygon fill="#e0e0e0" stroke="#999999" points="201,-140 73,-140 73,-121 201,-121 201,-140"/>
<text text-anchor="middle" x="137" y="-128" font-family="Helvetica,sans-Serif" font-size="10.00">boost/functional/hash.hpp</text>
</a>
</g>
</g>
<!-- Node39&#45;&gt;Node40 -->
<g id="edge55" class="edge">
<title>Node39&#45;&gt;Node40</title>
<path fill="none" stroke="#63b8ff" d="M220.12,-181.12C204.65,-171.88 180.17,-157.27 161.78,-146.29"/>
<polygon fill="#63b8ff" stroke="#63b8ff" points="163.7,-143.36 153.32,-141.24 160.12,-149.38 163.7,-143.36"/>
</g>
<!-- Node41 -->
<g id="node37" class="node">
<title>Node41</title>
<g id="a_node37"><a xlink:href="hexutil_8hpp.html" target="_top" xlink:title=" ">
<polygon fill="white" stroke="#666666" points="705,-140 619,-140 619,-121 705,-121 705,-140"/>
<text text-anchor="middle" x="662" y="-128" font-family="Helvetica,sans-Serif" font-size="10.00">base/hexutil.hpp</text>
</a>
</g>
</g>
<!-- Node39&#45;&gt;Node41 -->
<g id="edge56" class="edge">
<title>Node39&#45;&gt;Node41</title>
<path fill="none" stroke="#63b8ff" d="M273.92,-185.19C340.17,-176.93 479.36,-159.21 607.44,-140.34"/>
<polygon fill="#63b8ff" stroke="#63b8ff" points="607.73,-143.84 617.11,-138.91 606.7,-136.91 607.73,-143.84"/>
</g>
<!-- Node42 -->
<g id="node38" class="node">
<title>Node42</title>
<g id="a_node38"><a xlink:title=" ">
<polygon fill="#e0e0e0" stroke="#999999" points="273,-140 219,-140 219,-121 273,-121 273,-140"/>
<text text-anchor="middle" x="246" y="-128" font-family="Helvetica,sans-Serif" font-size="10.00">iostream</text>
</a>
</g>
</g>
<!-- Node39&#45;&gt;Node42 -->
<g id="edge61" class="edge">
<title>Node39&#45;&gt;Node42</title>
<path fill="none" stroke="#63b8ff" d="M236.62,-181.37C238.1,-173.5 240.34,-161.6 242.26,-151.39"/>
<polygon fill="#63b8ff" stroke="#63b8ff" points="245.68,-152.13 244.09,-141.65 238.8,-150.84 245.68,-152.13"/>
</g>
<!-- Node41&#45;&gt;Node8 -->
<g id="edge57" class="edge">
<title>Node41&#45;&gt;Node8</title>
<path fill="none" stroke="#63b8ff" d="M660.52,-120.87C659.18,-113 657.14,-101.1 655.4,-90.89"/>
<polygon fill="#63b8ff" stroke="#63b8ff" points="658.87,-90.43 653.74,-81.16 651.97,-91.61 658.87,-90.43"/>
</g>
<!-- Node41&#45;&gt;Node9 -->
<g id="edge58" class="edge">
<title>Node41&#45;&gt;Node9</title>
<path fill="none" stroke="#63b8ff" d="M618.81,-121.13C581.94,-113.44 527.78,-100.85 482,-85 481.35,-84.78 480.7,-84.54 480.05,-84.31"/>
<polygon fill="#63b8ff" stroke="#63b8ff" points="481.45,-81.1 470.87,-80.57 478.81,-87.58 481.45,-81.1"/>
</g>
<!-- Node41&#45;&gt;Node12 -->
<g id="edge59" class="edge">
<title>Node41&#45;&gt;Node12</title>
<path fill="none" stroke="#63b8ff" d="M699.82,-120.56C733.3,-112.33 783.33,-99.27 826,-85 826.98,-84.67 827.97,-84.33 828.96,-83.98"/>
<polygon fill="#63b8ff" stroke="#63b8ff" points="830.11,-87.29 838.26,-80.51 827.66,-80.73 830.11,-87.29"/>
</g>
<!-- Node41&#45;&gt;Node13 -->
<g id="edge60" class="edge">
<title>Node41&#45;&gt;Node13</title>
<path fill="none" stroke="#63b8ff" d="M676.88,-120.62C692.35,-111.38 716.83,-96.77 735.22,-85.79"/>
<polygon fill="#63b8ff" stroke="#63b8ff" points="736.88,-88.88 743.68,-80.74 733.3,-82.86 736.88,-88.88"/>
</g>
<!-- Node43&#45;&gt;Node11 -->
<g id="edge66" class="edge">
<title>Node43&#45;&gt;Node11</title>
<path fill="none" stroke="#63b8ff" d="M685.94,-362.51C638.9,-320.43 440.19,-142.72 378.41,-87.46"/>
<polygon fill="#63b8ff" stroke="#63b8ff" points="380.93,-85.02 371.14,-80.97 376.27,-90.24 380.93,-85.02"/>
</g>
<!-- Node43&#45;&gt;Node33 -->
<g id="edge65" class="edge">
<title>Node43&#45;&gt;Node33</title>
<path fill="none" stroke="#63b8ff" d="M742.88,-370.21C906.4,-365.12 1450.03,-343.11 1607,-272 1686.99,-235.76 1735.91,-133.7 1753.55,-90.6"/>
<polygon fill="#63b8ff" stroke="#63b8ff" points="1756.8,-91.89 1757.22,-81.3 1750.29,-89.32 1756.8,-91.89"/>
</g>
<!-- Node44 -->
<g id="node40" class="node">
<title>Node44</title>
<g id="a_node40"><a xlink:title=" ">
<polygon fill="#e0e0e0" stroke="#999999" points="721.5,-327 670.5,-327 670.5,-308 721.5,-308 721.5,-327"/>
<text text-anchor="middle" x="696" y="-315" font-family="Helvetica,sans-Serif" font-size="10.00">memory</text>
</a>
</g>
</g>
<!-- Node43&#45;&gt;Node44 -->
<g id="edge64" class="edge">
<title>Node43&#45;&gt;Node44</title>
<path fill="none" stroke="#63b8ff" d="M696,-362.75C696,-356.27 696,-347.16 696,-338.9"/>
<polygon fill="#63b8ff" stroke="#63b8ff" points="699.5,-338.96 696,-328.96 692.5,-338.96 699.5,-338.96"/>
</g>
<!-- Node45&#45;&gt;Node43 -->
<g id="edge71" class="edge">
<title>Node45&#45;&gt;Node43</title>
<path fill="none" stroke="#63b8ff" d="M495.75,-420.93C539.11,-410.66 603.38,-395.44 647.34,-385.03"/>
<polygon fill="#63b8ff" stroke="#63b8ff" points="647.93,-388.48 656.86,-382.77 646.32,-381.67 647.93,-388.48"/>
</g>
<!-- Node46 -->
<g id="node42" class="node">
<title>Node46</title>
<g id="a_node42"><a xlink:title=" ">
<polygon fill="#e0e0e0" stroke="#999999" points="490.5,-382 407.5,-382 407.5,-363 490.5,-363 490.5,-382"/>
<text text-anchor="middle" x="449" y="-370" font-family="Helvetica,sans-Serif" font-size="10.00">unordered_map</text>
</a>
</g>
</g>
<!-- Node45&#45;&gt;Node46 -->
<g id="edge68" class="edge">
<title>Node45&#45;&gt;Node46</title>
<path fill="none" stroke="#63b8ff" d="M449,-417.54C449,-410.34 449,-401.53 449,-393.68"/>
<polygon fill="#63b8ff" stroke="#63b8ff" points="452.5,-393.69 449,-383.69 445.5,-393.69 452.5,-393.69"/>
</g>
<!-- Node47 -->
<g id="node43" class="node">
<title>Node47</title>
<g id="a_node43"><a xlink:href="clock_8hpp.html" target="_top" xlink:title=" ">
<polygon fill="white" stroke="#666666" points="593,-382 509,-382 509,-363 593,-363 593,-382"/>
<text text-anchor="middle" x="551" y="-370" font-family="Helvetica,sans-Serif" font-size="10.00">clock/clock.hpp</text>
</a>
</g>
</g>
<!-- Node45&#45;&gt;Node47 -->
<g id="edge69" class="edge">
<title>Node45&#45;&gt;Node47</title>
<path fill="none" stroke="#63b8ff" d="M474.21,-417.54C489.99,-408.49 510.23,-396.88 525.97,-387.85"/>
<polygon fill="#63b8ff" stroke="#63b8ff" points="527.33,-391.11 534.26,-383.1 523.85,-385.04 527.33,-391.11"/>
</g>
<!-- Node45&#45;&gt;Node49 -->
<g id="edge72" class="edge">
<title>Node45&#45;&gt;Node49</title>
<path fill="none" stroke="#63b8ff" d="M402.07,-423.8C343.08,-413.5 241.67,-395.79 176.26,-384.37"/>
<polygon fill="#63b8ff" stroke="#63b8ff" points="177.22,-380.99 166.77,-382.72 176.02,-387.88 177.22,-380.99"/>
</g>
<!-- Node45&#45;&gt;Node51 -->
<g id="edge75" class="edge">
<title>Node45&#45;&gt;Node51</title>
<path fill="none" stroke="#63b8ff" d="M419.83,-417.54C401.23,-408.32 377.27,-396.44 358.92,-387.34"/>
<polygon fill="#63b8ff" stroke="#63b8ff" points="360.71,-384.32 350.2,-383.02 357.6,-390.6 360.71,-384.32"/>
</g>
<!-- Node45&#45;&gt;Node53 -->
<g id="edge83" class="edge">
<title>Node45&#45;&gt;Node53</title>
<path fill="none" stroke="#63b8ff" d="M402.18,-431.56C360.59,-428.65 300.83,-417.86 264,-382 252.38,-370.69 247.8,-352.6 246.02,-338.61"/>
<polygon fill="#63b8ff" stroke="#63b8ff" points="249.52,-338.42 245.19,-328.75 242.55,-339.01 249.52,-338.42"/>
</g>
<!-- Node48 -->
<g id="node44" class="node">
<title>Node48</title>
<g id="a_node44"><a xlink:title=" ">
<polygon fill="#e0e0e0" stroke="#999999" points="507,-327 461,-327 461,-308 507,-308 507,-327"/>
<text text-anchor="middle" x="484" y="-315" font-family="Helvetica,sans-Serif" font-size="10.00">chrono</text>
</a>
</g>
</g>
<!-- Node47&#45;&gt;Node48 -->
<g id="edge70" class="edge">
<title>Node47&#45;&gt;Node48</title>
<path fill="none" stroke="#63b8ff" d="M539.63,-362.51C529.95,-354.85 515.8,-343.66 504.19,-334.47"/>
<polygon fill="#63b8ff" stroke="#63b8ff" points="506.4,-331.76 496.38,-328.3 502.06,-337.25 506.4,-331.76"/>
</g>
<!-- Node49&#45;&gt;Node39 -->
<g id="edge74" class="edge">
<title>Node49&#45;&gt;Node39</title>
<path fill="none" stroke="#63b8ff" d="M118.93,-362.71C123.88,-353.79 131.67,-339.54 138,-327 156.81,-289.72 152.89,-275.36 178,-242 187.9,-228.85 201.72,-216.63 213.27,-207.55"/>
<polygon fill="#63b8ff" stroke="#63b8ff" points="215.23,-210.46 221.1,-201.63 211.01,-204.87 215.23,-210.46"/>
</g>
<!-- Node50 -->
<g id="node46" class="node">
<title>Node50</title>
<g id="a_node46"><a xlink:title=" ">
<polygon fill="#e0e0e0" stroke="#999999" points="129.5,-327 28.5,-327 28.5,-308 129.5,-308 129.5,-327"/>
<text text-anchor="middle" x="79" y="-315" font-family="Helvetica,sans-Serif" font-size="10.00">ed25519/ed25519.h</text>
</a>
</g>
</g>
<!-- Node49&#45;&gt;Node50 -->
<g id="edge73" class="edge">
<title>Node49&#45;&gt;Node50</title>
<path fill="none" stroke="#63b8ff" d="M108.22,-362.75C103.59,-355.73 96.93,-345.64 91.13,-336.87"/>
<polygon fill="#63b8ff" stroke="#63b8ff" points="94.17,-335.12 85.74,-328.71 88.33,-338.98 94.17,-335.12"/>
</g>
<!-- Node51&#45;&gt;Node24 -->
<g id="edge76" class="edge">
<title>Node51&#45;&gt;Node24</title>
<path fill="none" stroke="#63b8ff" d="M350.52,-362.5C364.06,-355.09 381.03,-343.16 389,-327 418.26,-267.66 388.02,-186.61 371.39,-150.36"/>
<polygon fill="#63b8ff" stroke="#63b8ff" points="374.68,-149.13 367.21,-141.62 368.36,-152.15 374.68,-149.13"/>
</g>
<!-- Node52 -->
<g id="node48" class="node">
<title>Node52</title>
<g id="a_node48"><a xlink:title=" ">
<polygon fill="#e0e0e0" stroke="#999999" points="380.5,-327 321.5,-327 321.5,-308 380.5,-308 380.5,-327"/>
<text text-anchor="middle" x="351" y="-315" font-family="Helvetica,sans-Serif" font-size="10.00">functional</text>
</a>
</g>
</g>
<!-- Node51&#45;&gt;Node52 -->
<g id="edge77" class="edge">
<title>Node51&#45;&gt;Node52</title>
<path fill="none" stroke="#63b8ff" d="M334.3,-362.75C336.83,-356.04 340.43,-346.52 343.63,-338.02"/>
<polygon fill="#63b8ff" stroke="#63b8ff" points="346.84,-339.45 347.09,-328.86 340.29,-336.98 346.84,-339.45"/>
</g>
<!-- Node51&#45;&gt;Node53 -->
<g id="edge78" class="edge">
<title>Node51&#45;&gt;Node53</title>
<path fill="none" stroke="#63b8ff" d="M316.41,-362.51C303.48,-354.54 284.36,-342.75 269.15,-333.38"/>
<polygon fill="#63b8ff" stroke="#63b8ff" points="271.01,-330.42 260.66,-328.15 267.34,-336.38 271.01,-330.42"/>
</g>
<!-- Node53&#45;&gt;Node11 -->
<g id="edge80" class="edge">
<title>Node53&#45;&gt;Node11</title>
<path fill="none" stroke="#63b8ff" d="M257.4,-307.66C267.88,-299.55 282.5,-286.59 291,-272 325.88,-212.1 303.23,-184.93 330,-121 334.61,-109.99 341.33,-98.52 347.25,-89.35"/>
<polygon fill="#63b8ff" stroke="#63b8ff" points="350.15,-91.31 352.8,-81.06 344.33,-87.42 350.15,-91.31"/>
</g>
<!-- Node53&#45;&gt;Node24 -->
<g id="edge79" class="edge">
<title>Node53&#45;&gt;Node24</title>
<path fill="none" stroke="#63b8ff" d="M272.52,-307.59C289.99,-300.56 311.74,-289.07 325,-272 352.9,-236.08 359.85,-181.05 361.53,-151.66"/>
<polygon fill="#63b8ff" stroke="#63b8ff" points="365.01,-152.08 361.91,-141.95 358.02,-151.8 365.01,-152.08"/>
</g>
<!-- Node54 -->
<g id="node50" class="node">
<title>Node54</title>
<g id="a_node50"><a xlink:href="session__key_8hpp.html" target="_top" xlink:title=" ">
<polygon fill="white" stroke="#666666" points="282.5,-272 187.5,-272 187.5,-242 282.5,-242 282.5,-272"/>
<text text-anchor="start" x="195.5" y="-260" font-family="Helvetica,sans-Serif" font-size="10.00">primitives/session</text>
<text text-anchor="middle" x="235" y="-249" font-family="Helvetica,sans-Serif" font-size="10.00">_key.hpp</text>
</a>
</g>
</g>
<!-- Node53&#45;&gt;Node54 -->
<g id="edge81" class="edge">
<title>Node53&#45;&gt;Node54</title>
<path fill="none" stroke="#63b8ff" d="M243.52,-307.87C242.42,-301.4 240.85,-292.2 239.35,-283.45"/>
<polygon fill="#63b8ff" stroke="#63b8ff" points="242.8,-282.87 237.67,-273.61 235.9,-284.05 242.8,-282.87"/>
</g>
<!-- Node54&#45;&gt;Node39 -->
<g id="edge82" class="edge">
<title>Node54&#45;&gt;Node39</title>
<path fill="none" stroke="#63b8ff" d="M235,-241.8C235,-233.09 235,-221.81 235,-212.18"/>
<polygon fill="#63b8ff" stroke="#63b8ff" points="238.5,-212.36 235,-202.36 231.5,-212.36 238.5,-212.36"/>
</g>
</g>
</svg>
