<?xml version="1.0" encoding="UTF-8" standalone="no"?>
<!DOCTYPE svg PUBLIC "-//W3C//DTD SVG 1.1//EN"
 "http://www.w3.org/Graphics/SVG/1.1/DTD/svg11.dtd">
<!-- Generated by graphviz version 7.0.5 (20221223.1930)
 -->
<!-- Title: src/application/configuration_storage.hpp Pages: 1 -->
<svg width="1171pt" height="698pt"
 viewBox="0.00 0.00 1171.21 698.00" xmlns="http://www.w3.org/2000/svg" xmlns:xlink="http://www.w3.org/1999/xlink">
<g id="graph0" class="graph" transform="scale(1 1) rotate(0) translate(4 694)">
<title>src/application/configuration_storage.hpp</title>
<!-- Node1 -->
<g id="node1" class="node">
<title>Node1</title>
<g id="a_node1"><a xlink:title=" ">
<polygon fill="#999999" stroke="#666666" points="381,-690 244,-690 244,-660 381,-660 381,-690"/>
<text text-anchor="start" x="252" y="-678" font-family="Helvetica,sans-Serif" font-size="10.00">src/application/configuration</text>
<text text-anchor="middle" x="312.5" y="-667" font-family="Helvetica,sans-Serif" font-size="10.00">_storage.hpp</text>
</a>
</g>
</g>
<!-- Node2 -->
<g id="node2" class="node">
<title>Node2</title>
<g id="a_node2"><a xlink:title=" ">
<polygon fill="#e0e0e0" stroke="#999999" points="125,-558 0,-558 0,-539 125,-539 125,-558"/>
<text text-anchor="middle" x="62.5" y="-546" font-family="Helvetica,sans-Serif" font-size="10.00">libp2p/peer/peer_info.hpp</text>
</a>
</g>
</g>
<!-- Node1&#45;&gt;Node2 -->
<g id="edge1" class="edge">
<title>Node1&#45;&gt;Node2</title>
<path fill="none" stroke="#63b8ff" d="M243.79,-670.6C174.29,-665.55 73.73,-653.27 49.5,-624 36.71,-608.55 43.81,-585.01 51.62,-568.54"/>
<polygon fill="#63b8ff" stroke="#63b8ff" points="54.66,-570.28 56.2,-559.79 48.46,-567.03 54.66,-570.28"/>
</g>
<!-- Node3 -->
<g id="node3" class="node">
<title>Node3</title>
<g id="a_node3"><a xlink:href="genesis__raw__config_8hpp.html" target="_top" xlink:title=" ">
<polygon fill="white" stroke="#666666" points="1122.5,-382 1022.5,-382 1022.5,-352 1122.5,-352 1122.5,-382"/>
<text text-anchor="start" x="1030.5" y="-370" font-family="Helvetica,sans-Serif" font-size="10.00">application/genesis</text>
<text text-anchor="middle" x="1072.5" y="-359" font-family="Helvetica,sans-Serif" font-size="10.00">_raw_config.hpp</text>
</a>
</g>
</g>
<!-- Node1&#45;&gt;Node3 -->
<g id="edge2" class="edge">
<title>Node1&#45;&gt;Node3</title>
<path fill="none" stroke="#63b8ff" d="M381.31,-669.99C569.11,-658.13 1076.5,-619.59 1076.5,-549.5 1076.5,-549.5 1076.5,-549.5 1076.5,-492.5 1076.5,-458.27 1074.97,-418.78 1073.8,-393.62"/>
<polygon fill="#63b8ff" stroke="#63b8ff" points="1077.3,-393.52 1073.33,-383.7 1070.31,-393.85 1077.3,-393.52"/>
</g>
<!-- Node12 -->
<g id="node12" class="node">
<title>Node12</title>
<g id="a_node12"><a xlink:href="ed25519__types_8hpp.html" target="_top" xlink:title=" ">
<polygon fill="white" stroke="#666666" points="377,-618.5 248,-618.5 248,-599.5 377,-599.5 377,-618.5"/>
<text text-anchor="middle" x="312.5" y="-606.5" font-family="Helvetica,sans-Serif" font-size="10.00">crypto/ed25519_types.hpp</text>
</a>
</g>
</g>
<!-- Node1&#45;&gt;Node12 -->
<g id="edge11" class="edge">
<title>Node1&#45;&gt;Node12</title>
<path fill="none" stroke="#63b8ff" d="M312.5,-659.8C312.5,-651.09 312.5,-639.81 312.5,-630.18"/>
<polygon fill="#63b8ff" stroke="#63b8ff" points="316,-630.36 312.5,-620.36 309,-630.36 316,-630.36"/>
</g>
<!-- Node19 -->
<g id="node19" class="node">
<title>Node19</title>
<g id="a_node19"><a xlink:href="sr25519__types_8hpp.html" target="_top" xlink:title=" ">
<polygon fill="white" stroke="#666666" points="276,-255.5 149,-255.5 149,-236.5 276,-236.5 276,-255.5"/>
<text text-anchor="middle" x="212.5" y="-243.5" font-family="Helvetica,sans-Serif" font-size="10.00">crypto/sr25519_types.hpp</text>
</a>
</g>
</g>
<!-- Node1&#45;&gt;Node19 -->
<g id="edge22" class="edge">
<title>Node1&#45;&gt;Node19</title>
<path fill="none" stroke="#63b8ff" d="M280.7,-659.67C243.38,-640.41 186.5,-602.39 186.5,-549.5 186.5,-549.5 186.5,-549.5 186.5,-366 186.5,-330.33 197.79,-290 205.49,-266.64"/>
<polygon fill="#63b8ff" stroke="#63b8ff" points="208.78,-267.84 208.72,-257.24 202.16,-265.57 208.78,-267.84"/>
</g>
<!-- Node23 -->
<g id="node23" class="node">
<title>Node23</title>
<g id="a_node23"><a xlink:href="peer__list_8hpp.html" target="_top" xlink:title=" ">
<polygon fill="white" stroke="#666666" points="158,-624 59,-624 59,-594 158,-594 158,-624"/>
<text text-anchor="start" x="67" y="-612" font-family="Helvetica,sans-Serif" font-size="10.00">network/types/peer</text>
<text text-anchor="middle" x="108.5" y="-601" font-family="Helvetica,sans-Serif" font-size="10.00">_list.hpp</text>
</a>
</g>
</g>
<!-- Node1&#45;&gt;Node23 -->
<g id="edge30" class="edge">
<title>Node1&#45;&gt;Node23</title>
<path fill="none" stroke="#63b8ff" d="M266.46,-659.56C236.5,-650.16 197.22,-637.83 165.32,-627.82"/>
<polygon fill="#63b8ff" stroke="#63b8ff" points="166.4,-624.5 155.81,-624.84 164.31,-631.18 166.4,-624.5"/>
</g>
<!-- Node24 -->
<g id="node24" class="node">
<title>Node24</title>
<g id="a_node24"><a xlink:href="block_8hpp.html" target="_top" xlink:title=" ">
<polygon fill="white" stroke="#666666" points="580,-618.5 477,-618.5 477,-599.5 580,-599.5 580,-618.5"/>
<text text-anchor="middle" x="528.5" y="-606.5" font-family="Helvetica,sans-Serif" font-size="10.00">primitives/block.hpp</text>
</a>
</g>
</g>
<!-- Node1&#45;&gt;Node24 -->
<g id="edge32" class="edge">
<title>Node1&#45;&gt;Node24</title>
<path fill="none" stroke="#63b8ff" d="M361.24,-659.56C399.36,-648.26 451.73,-632.75 487.66,-622.1"/>
<polygon fill="#63b8ff" stroke="#63b8ff" points="488.21,-625.59 496.8,-619.39 486.22,-618.88 488.21,-625.59"/>
</g>
<!-- Node39 -->
<g id="node39" class="node">
<title>Node39</title>
<g id="a_node39"><a xlink:title=" ">
<polygon fill="#e0e0e0" stroke="#999999" points="1134.5,-618.5 1104.5,-618.5 1104.5,-599.5 1134.5,-599.5 1134.5,-618.5"/>
<text text-anchor="middle" x="1119.5" y="-606.5" font-family="Helvetica,sans-Serif" font-size="10.00">set</text>
</a>
</g>
</g>
<!-- Node1&#45;&gt;Node39 -->
<g id="edge60" class="edge">
<title>Node1&#45;&gt;Node39</title>
<path fill="none" stroke="#63b8ff" d="M381.34,-672.95C545.77,-669.91 957.55,-658.94 1090.5,-624 1091.66,-623.69 1092.83,-623.34 1094.01,-622.95"/>
<polygon fill="#63b8ff" stroke="#63b8ff" points="1094.97,-626.34 1102.87,-619.28 1092.29,-619.87 1094.97,-626.34"/>
</g>
<!-- Node4 -->
<g id="node4" class="node">
<title>Node4</title>
<g id="a_node4"><a xlink:href="buffer_8hpp.html" target="_top" xlink:title=" ">
<polygon fill="white" stroke="#666666" points="1032,-316 949,-316 949,-297 1032,-297 1032,-316"/>
<text text-anchor="middle" x="990.5" y="-304" font-family="Helvetica,sans-Serif" font-size="10.00">base/buffer.hpp</text>
</a>
</g>
</g>
<!-- Node3&#45;&gt;Node4 -->
<g id="edge3" class="edge">
<title>Node3&#45;&gt;Node4</title>
<path fill="none" stroke="#63b8ff" d="M1052.23,-351.54C1039.96,-342.78 1024.32,-331.63 1011.85,-322.73"/>
<polygon fill="#63b8ff" stroke="#63b8ff" points="1014.07,-320.01 1003.89,-317.05 1010,-325.71 1014.07,-320.01"/>
</g>
<!-- Node5 -->
<g id="node5" class="node">
<title>Node5</title>
<g id="a_node5"><a xlink:title=" ">
<polygon fill="#e0e0e0" stroke="#999999" points="1129.5,-74 1063.5,-74 1063.5,-55 1129.5,-55 1129.5,-74"/>
<text text-anchor="middle" x="1096.5" y="-62" font-family="Helvetica,sans-Serif" font-size="10.00">string_view</text>
</a>
</g>
</g>
<!-- Node4&#45;&gt;Node5 -->
<g id="edge4" class="edge">
<title>Node4&#45;&gt;Node5</title>
<path fill="none" stroke="#63b8ff" d="M1032.48,-299.38C1074.1,-292.34 1133.62,-279.36 1147.5,-261 1189.07,-206.01 1136.76,-120.24 1110.21,-83.35"/>
<polygon fill="#63b8ff" stroke="#63b8ff" points="1113.17,-81.47 1104.41,-75.52 1107.55,-85.64 1113.17,-81.47"/>
</g>
<!-- Node6 -->
<g id="node6" class="node">
<title>Node6</title>
<g id="a_node6"><a xlink:title=" ">
<polygon fill="#e0e0e0" stroke="#999999" points="975.5,-74 931.5,-74 931.5,-55 975.5,-55 975.5,-74"/>
<text text-anchor="middle" x="953.5" y="-62" font-family="Helvetica,sans-Serif" font-size="10.00">vector</text>
</a>
</g>
</g>
<!-- Node4&#45;&gt;Node6 -->
<g id="edge5" class="edge">
<title>Node4&#45;&gt;Node6</title>
<path fill="none" stroke="#63b8ff" d="M991.11,-296.71C992.79,-268.78 996.13,-179.77 976.5,-110 973.97,-101.01 969.52,-91.73 965.2,-83.99"/>
<polygon fill="#63b8ff" stroke="#63b8ff" points="968.3,-82.35 960.17,-75.56 962.28,-85.94 968.3,-82.35"/>
</g>
<!-- Node7 -->
<g id="node7" class="node">
<title>Node7</title>
<g id="a_node7"><a xlink:title=" ">
<polygon fill="#e0e0e0" stroke="#999999" points="1138.5,-261 1028.5,-261 1028.5,-231 1138.5,-231 1138.5,-261"/>
<text text-anchor="start" x="1036.5" y="-249" font-family="Helvetica,sans-Serif" font-size="10.00">boost/container_hash</text>
<text text-anchor="middle" x="1083.5" y="-238" font-family="Helvetica,sans-Serif" font-size="10.00">/hash.hpp</text>
</a>
</g>
</g>
<!-- Node4&#45;&gt;Node7 -->
<g id="edge6" class="edge">
<title>Node4&#45;&gt;Node7</title>
<path fill="none" stroke="#63b8ff" d="M1004.62,-296.62C1016.91,-288.89 1035.19,-277.39 1051.05,-267.41"/>
<polygon fill="#63b8ff" stroke="#63b8ff" points="1052.66,-270.53 1059.26,-262.25 1048.94,-264.61 1052.66,-270.53"/>
</g>
<!-- Node8 -->
<g id="node8" class="node">
<title>Node8</title>
<g id="a_node8"><a xlink:title=" ">
<polygon fill="#e0e0e0" stroke="#999999" points="758.5,-255.5 656.5,-255.5 656.5,-236.5 758.5,-236.5 758.5,-255.5"/>
<text text-anchor="middle" x="707.5" y="-243.5" font-family="Helvetica,sans-Serif" font-size="10.00">boost/operators.hpp</text>
</a>
</g>
</g>
<!-- Node4&#45;&gt;Node8 -->
<g id="edge7" class="edge">
<title>Node4&#45;&gt;Node8</title>
<path fill="none" stroke="#63b8ff" d="M948.74,-296.87C899.22,-286.63 816.53,-269.54 762.01,-258.27"/>
<polygon fill="#63b8ff" stroke="#63b8ff" points="762.81,-254.86 752.31,-256.26 761.39,-261.71 762.81,-254.86"/>
</g>
<!-- Node9 -->
<g id="node9" class="node">
<title>Node9</title>
<g id="a_node9"><a xlink:title=" ">
<polygon fill="#e0e0e0" stroke="#999999" points="492,-74 439,-74 439,-55 492,-55 492,-74"/>
<text text-anchor="middle" x="465.5" y="-62" font-family="Helvetica,sans-Serif" font-size="10.00">gsl/span</text>
</a>
</g>
</g>
<!-- Node4&#45;&gt;Node9 -->
<g id="edge8" class="edge">
<title>Node4&#45;&gt;Node9</title>
<path fill="none" stroke="#63b8ff" d="M984.79,-296.65C969.12,-273.09 922.89,-208.43 867.5,-176 811.32,-143.1 787.92,-158.52 725.5,-140 685.89,-128.25 677.09,-121.85 637.5,-110 591.84,-96.33 538.63,-82.95 503.62,-74.49"/>
<polygon fill="#63b8ff" stroke="#63b8ff" points="504.5,-71.1 493.96,-72.17 502.87,-77.91 504.5,-71.1"/>
</g>
<!-- Node10 -->
<g id="node10" class="node">
<title>Node10</title>
<g id="a_node10"><a xlink:href="outcome_8hpp.html" target="_top" xlink:title=" ">
<polygon fill="white" stroke="#666666" points="905,-74 792,-74 792,-55 905,-55 905,-74"/>
<text text-anchor="middle" x="848.5" y="-62" font-family="Helvetica,sans-Serif" font-size="10.00">outcome/outcome.hpp</text>
</a>
</g>
</g>
<!-- Node4&#45;&gt;Node10 -->
<g id="edge9" class="edge">
<title>Node4&#45;&gt;Node10</title>
<path fill="none" stroke="#63b8ff" d="M987.95,-296.59C981.54,-274.97 963.48,-218.37 938.5,-176 917.16,-139.8 884.51,-102.99 864.96,-82.32"/>
<polygon fill="#63b8ff" stroke="#63b8ff" points="867.72,-80.13 858.27,-75.34 862.67,-84.98 867.72,-80.13"/>
</g>
<!-- Node11 -->
<g id="node11" class="node">
<title>Node11</title>
<g id="a_node11"><a xlink:title=" ">
<polygon fill="#e0e0e0" stroke="#999999" points="919,-19 778,-19 778,0 919,0 919,-19"/>
<text text-anchor="middle" x="848.5" y="-7" font-family="Helvetica,sans-Serif" font-size="10.00">libp2p/outcome/outcome.hpp</text>
</a>
</g>
</g>
<!-- Node10&#45;&gt;Node11 -->
<g id="edge10" class="edge">
<title>Node10&#45;&gt;Node11</title>
<path fill="none" stroke="#63b8ff" d="M848.5,-54.75C848.5,-48.27 848.5,-39.16 848.5,-30.9"/>
<polygon fill="#63b8ff" stroke="#63b8ff" points="852,-30.96 848.5,-20.96 845,-30.96 852,-30.96"/>
</g>
<!-- Node13 -->
<g id="node13" class="node">
<title>Node13</title>
<g id="a_node13"><a xlink:title=" ">
<polygon fill="#e0e0e0" stroke="#999999" points="316,-558 215,-558 215,-539 316,-539 316,-558"/>
<text text-anchor="middle" x="265.5" y="-546" font-family="Helvetica,sans-Serif" font-size="10.00">ed25519/ed25519.h</text>
</a>
</g>
</g>
<!-- Node12&#45;&gt;Node13 -->
<g id="edge12" class="edge">
<title>Node12&#45;&gt;Node13</title>
<path fill="none" stroke="#63b8ff" d="M305.56,-599.37C298.76,-590.9 288.19,-577.74 279.61,-567.07"/>
<polygon fill="#63b8ff" stroke="#63b8ff" points="282.4,-564.95 273.41,-559.35 276.95,-569.34 282.4,-564.95"/>
</g>
<!-- Node14 -->
<g id="node14" class="node">
<title>Node14</title>
<g id="a_node14"><a xlink:href="blob_8hpp.html" target="_top" xlink:title=" ">
<polygon fill="white" stroke="#666666" points="476,-195 399,-195 399,-176 476,-176 476,-195"/>
<text text-anchor="middle" x="437.5" y="-183" font-family="Helvetica,sans-Serif" font-size="10.00">base/blob.hpp</text>
</a>
</g>
</g>
<!-- Node12&#45;&gt;Node14 -->
<g id="edge13" class="edge">
<title>Node12&#45;&gt;Node14</title>
<path fill="none" stroke="#63b8ff" d="M315.04,-599.23C317.81,-589.31 322.17,-572.63 324.5,-558 333.2,-503.4 334.5,-489.29 334.5,-434 334.5,-434 334.5,-434 334.5,-366 334.5,-298.27 390.34,-232.96 419.79,-203.23"/>
<polygon fill="#63b8ff" stroke="#63b8ff" points="422.23,-205.75 426.91,-196.24 417.33,-200.75 422.23,-205.75"/>
</g>
<!-- Node15 -->
<g id="node15" class="node">
<title>Node15</title>
<g id="a_node15"><a xlink:title=" ">
<polygon fill="#e0e0e0" stroke="#999999" points="482.5,-134.5 444.5,-134.5 444.5,-115.5 482.5,-115.5 482.5,-134.5"/>
<text text-anchor="middle" x="463.5" y="-122.5" font-family="Helvetica,sans-Serif" font-size="10.00">array</text>
</a>
</g>
</g>
<!-- Node14&#45;&gt;Node15 -->
<g id="edge14" class="edge">
<title>Node14&#45;&gt;Node15</title>
<path fill="none" stroke="#63b8ff" d="M441.34,-175.87C444.95,-167.75 450.47,-155.31 455.11,-144.89"/>
<polygon fill="#63b8ff" stroke="#63b8ff" points="458.17,-146.61 459.03,-136.05 451.77,-143.77 458.17,-146.61"/>
</g>
<!-- Node16 -->
<g id="node16" class="node">
<title>Node16</title>
<g id="a_node16"><a xlink:title=" ">
<polygon fill="#e0e0e0" stroke="#999999" points="628.5,-134.5 500.5,-134.5 500.5,-115.5 628.5,-115.5 628.5,-134.5"/>
<text text-anchor="middle" x="564.5" y="-122.5" font-family="Helvetica,sans-Serif" font-size="10.00">boost/functional/hash.hpp</text>
</a>
</g>
</g>
<!-- Node14&#45;&gt;Node16 -->
<g id="edge15" class="edge">
<title>Node14&#45;&gt;Node16</title>
<path fill="none" stroke="#63b8ff" d="M456.79,-175.62C477.49,-166.08 510.63,-150.81 534.69,-139.73"/>
<polygon fill="#63b8ff" stroke="#63b8ff" points="536.04,-142.96 543.66,-135.6 533.11,-136.61 536.04,-142.96"/>
</g>
<!-- Node17 -->
<g id="node17" class="node">
<title>Node17</title>
<g id="a_node17"><a xlink:href="hexutil_8hpp.html" target="_top" xlink:title=" ">
<polygon fill="white" stroke="#666666" points="820.5,-134.5 734.5,-134.5 734.5,-115.5 820.5,-115.5 820.5,-134.5"/>
<text text-anchor="middle" x="777.5" y="-122.5" font-family="Helvetica,sans-Serif" font-size="10.00">base/hexutil.hpp</text>
</a>
</g>
</g>
<!-- Node14&#45;&gt;Node17 -->
<g id="edge16" class="edge">
<title>Node14&#45;&gt;Node17</title>
<path fill="none" stroke="#63b8ff" d="M476.17,-177.85C536.68,-167.44 653.94,-147.26 722.99,-135.38"/>
<polygon fill="#63b8ff" stroke="#63b8ff" points="723.3,-138.88 732.56,-133.73 722.11,-131.98 723.3,-138.88"/>
</g>
<!-- Node18 -->
<g id="node18" class="node">
<title>Node18</title>
<g id="a_node18"><a xlink:title=" ">
<polygon fill="#e0e0e0" stroke="#999999" points="426.5,-134.5 372.5,-134.5 372.5,-115.5 426.5,-115.5 426.5,-134.5"/>
<text text-anchor="middle" x="399.5" y="-122.5" font-family="Helvetica,sans-Serif" font-size="10.00">iostream</text>
</a>
</g>
</g>
<!-- Node14&#45;&gt;Node18 -->
<g id="edge21" class="edge">
<title>Node14&#45;&gt;Node18</title>
<path fill="none" stroke="#63b8ff" d="M431.89,-175.87C426.5,-167.57 418.19,-154.78 411.34,-144.22"/>
<polygon fill="#63b8ff" stroke="#63b8ff" points="414.34,-142.42 405.95,-135.94 408.47,-146.23 414.34,-142.42"/>
</g>
<!-- Node17&#45;&gt;Node5 -->
<g id="edge17" class="edge">
<title>Node17&#45;&gt;Node5</title>
<path fill="none" stroke="#63b8ff" d="M820.85,-116.05C881.51,-104.93 991.11,-84.83 1052.24,-73.62"/>
<polygon fill="#63b8ff" stroke="#63b8ff" points="1052.74,-77.08 1061.94,-71.84 1051.48,-70.2 1052.74,-77.08"/>
</g>
<!-- Node17&#45;&gt;Node6 -->
<g id="edge18" class="edge">
<title>Node17&#45;&gt;Node6</title>
<path fill="none" stroke="#63b8ff" d="M804.23,-115.12C835.42,-104.75 886.99,-87.61 920.61,-76.43"/>
<polygon fill="#63b8ff" stroke="#63b8ff" points="921.44,-79.84 929.83,-73.37 919.24,-73.2 921.44,-79.84"/>
</g>
<!-- Node17&#45;&gt;Node9 -->
<g id="edge19" class="edge">
<title>Node17&#45;&gt;Node9</title>
<path fill="none" stroke="#63b8ff" d="M742.62,-115.03C735.33,-113.27 727.68,-111.51 720.5,-110 643.95,-93.94 553.62,-79.15 503.63,-71.32"/>
<polygon fill="#63b8ff" stroke="#63b8ff" points="504.33,-67.89 493.91,-69.81 503.25,-74.81 504.33,-67.89"/>
</g>
<!-- Node17&#45;&gt;Node10 -->
<g id="edge20" class="edge">
<title>Node17&#45;&gt;Node10</title>
<path fill="none" stroke="#63b8ff" d="M788.28,-115.12C799.02,-106.27 815.75,-92.48 828.85,-81.69"/>
<polygon fill="#63b8ff" stroke="#63b8ff" points="830.95,-84.49 836.45,-75.43 826.5,-79.09 830.95,-84.49"/>
</g>
<!-- Node19&#45;&gt;Node9 -->
<g id="edge25" class="edge">
<title>Node19&#45;&gt;Node9</title>
<path fill="none" stroke="#63b8ff" d="M158.76,-236.02C116.77,-226.4 68.59,-208 88.5,-176 124.93,-117.45 339.02,-82.45 427.38,-70.33"/>
<polygon fill="#63b8ff" stroke="#63b8ff" points="427.8,-73.81 437.24,-69.01 426.86,-66.87 427.8,-73.81"/>
</g>
<!-- Node19&#45;&gt;Node14 -->
<g id="edge26" class="edge">
<title>Node19&#45;&gt;Node14</title>
<path fill="none" stroke="#63b8ff" d="M246.67,-236.12C285.49,-226.02 349.02,-209.51 392.01,-198.33"/>
<polygon fill="#63b8ff" stroke="#63b8ff" points="392.74,-201.75 401.54,-195.85 390.98,-194.98 392.74,-201.75"/>
</g>
<!-- Node20 -->
<g id="node20" class="node">
<title>Node20</title>
<g id="a_node20"><a xlink:title=" ">
<polygon fill="#e0e0e0" stroke="#999999" points="157,-195 98,-195 98,-176 157,-176 157,-195"/>
<text text-anchor="middle" x="127.5" y="-183" font-family="Helvetica,sans-Serif" font-size="10.00">sr25519.h</text>
</a>
</g>
</g>
<!-- Node19&#45;&gt;Node20 -->
<g id="edge23" class="edge">
<title>Node19&#45;&gt;Node20</title>
<path fill="none" stroke="#63b8ff" d="M199.59,-236.12C186.36,-227.01 165.53,-212.68 149.66,-201.75"/>
<polygon fill="#63b8ff" stroke="#63b8ff" points="152,-199.11 141.78,-196.33 148.03,-204.88 152,-199.11"/>
</g>
<!-- Node21 -->
<g id="node21" class="node">
<title>Node21</title>
<g id="a_node21"><a xlink:title=" ">
<polygon fill="#e0e0e0" stroke="#999999" points="354.5,-140 250.5,-140 250.5,-110 354.5,-110 354.5,-140"/>
<text text-anchor="start" x="258.5" y="-128" font-family="Helvetica,sans-Serif" font-size="10.00">boost/multiprecision</text>
<text text-anchor="middle" x="302.5" y="-117" font-family="Helvetica,sans-Serif" font-size="10.00">/cpp_int.hpp</text>
</a>
</g>
</g>
<!-- Node19&#45;&gt;Node21 -->
<g id="edge24" class="edge">
<title>Node19&#45;&gt;Node21</title>
<path fill="none" stroke="#63b8ff" d="M229.38,-236.04C244.24,-227.36 265.48,-212.91 278.5,-195 287.84,-182.15 293.79,-165.35 297.43,-151.54"/>
<polygon fill="#63b8ff" stroke="#63b8ff" points="300.83,-152.36 299.71,-141.83 294.01,-150.76 300.83,-152.36"/>
</g>
<!-- Node22 -->
<g id="node22" class="node">
<title>Node22</title>
<g id="a_node22"><a xlink:href="mp__utils_8hpp.html" target="_top" xlink:title=" ">
<polygon fill="white" stroke="#666666" points="270,-195 175,-195 175,-176 270,-176 270,-195"/>
<text text-anchor="middle" x="222.5" y="-183" font-family="Helvetica,sans-Serif" font-size="10.00">base/mp_utils.hpp</text>
</a>
</g>
</g>
<!-- Node19&#45;&gt;Node22 -->
<g id="edge27" class="edge">
<title>Node19&#45;&gt;Node22</title>
<path fill="none" stroke="#63b8ff" d="M213.98,-236.37C215.32,-228.5 217.36,-216.6 219.1,-206.39"/>
<polygon fill="#63b8ff" stroke="#63b8ff" points="222.53,-207.11 220.76,-196.66 215.63,-205.93 222.53,-207.11"/>
</g>
<!-- Node22&#45;&gt;Node9 -->
<g id="edge29" class="edge">
<title>Node22&#45;&gt;Node9</title>
<path fill="none" stroke="#63b8ff" d="M221.97,-175.68C221.54,-160.03 223.09,-127.45 241.5,-110 267.76,-85.11 370.44,-73.09 427.22,-68.24"/>
<polygon fill="#63b8ff" stroke="#63b8ff" points="427.4,-71.74 437.09,-67.44 426.83,-64.76 427.4,-71.74"/>
</g>
<!-- Node22&#45;&gt;Node21 -->
<g id="edge28" class="edge">
<title>Node22&#45;&gt;Node21</title>
<path fill="none" stroke="#63b8ff" d="M234.65,-175.62C245.02,-168.03 260.35,-156.82 273.81,-146.98"/>
<polygon fill="#63b8ff" stroke="#63b8ff" points="275.53,-150.06 281.53,-141.33 271.39,-144.41 275.53,-150.06"/>
</g>
<!-- Node23&#45;&gt;Node2 -->
<g id="edge31" class="edge">
<title>Node23&#45;&gt;Node2</title>
<path fill="none" stroke="#63b8ff" d="M97.13,-593.54C90.86,-585.56 83.02,-575.59 76.39,-567.16"/>
<polygon fill="#63b8ff" stroke="#63b8ff" points="79.19,-565.06 70.26,-559.36 73.69,-569.39 79.19,-565.06"/>
</g>
<!-- Node25 -->
<g id="node25" class="node">
<title>Node25</title>
<g id="a_node25"><a xlink:href="block__header_8hpp.html" target="_top" xlink:title=" ">
<polygon fill="white" stroke="#666666" points="597,-558 460,-558 460,-539 597,-539 597,-558"/>
<text text-anchor="middle" x="528.5" y="-546" font-family="Helvetica,sans-Serif" font-size="10.00">primitives/block_header.hpp</text>
</a>
</g>
</g>
<!-- Node24&#45;&gt;Node25 -->
<g id="edge33" class="edge">
<title>Node24&#45;&gt;Node25</title>
<path fill="none" stroke="#63b8ff" d="M528.5,-599.37C528.5,-591.5 528.5,-579.6 528.5,-569.39"/>
<polygon fill="#63b8ff" stroke="#63b8ff" points="532,-569.68 528.5,-559.68 525,-569.68 532,-569.68"/>
</g>
<!-- Node38 -->
<g id="node38" class="node">
<title>Node38</title>
<g id="a_node38"><a xlink:href="extrinsic_8hpp.html" target="_top" xlink:title=" ">
<polygon fill="white" stroke="#666666" points="1048.5,-503 932.5,-503 932.5,-484 1048.5,-484 1048.5,-503"/>
<text text-anchor="middle" x="990.5" y="-491" font-family="Helvetica,sans-Serif" font-size="10.00">primitives/extrinsic.hpp</text>
</a>
</g>
</g>
<!-- Node24&#45;&gt;Node38 -->
<g id="edge58" class="edge">
<title>Node24&#45;&gt;Node38</title>
<path fill="none" stroke="#63b8ff" d="M564.75,-599.09C647.56,-578.75 850.55,-528.88 943.11,-506.14"/>
<polygon fill="#63b8ff" stroke="#63b8ff" points="943.75,-509.59 952.63,-503.8 942.08,-502.79 943.75,-509.59"/>
</g>
<!-- Node25&#45;&gt;Node6 -->
<g id="edge35" class="edge">
<title>Node25&#45;&gt;Node6</title>
<path fill="none" stroke="#63b8ff" d="M597.36,-542.6C648.3,-537.22 718.58,-526.04 776.5,-503 817.96,-486.5 832.79,-482.98 860.5,-448 950.24,-334.71 955.18,-147.56 954.18,-85.9"/>
<polygon fill="#63b8ff" stroke="#63b8ff" points="957.68,-85.86 953.94,-75.94 950.68,-86.03 957.68,-85.86"/>
</g>
<!-- Node25&#45;&gt;Node14 -->
<g id="edge37" class="edge">
<title>Node25&#45;&gt;Node14</title>
<path fill="none" stroke="#63b8ff" d="M489.3,-538.52C468.79,-531.91 444.83,-520.89 429.5,-503 408.8,-478.85 410.5,-465.81 410.5,-434 410.5,-434 410.5,-434 410.5,-366 410.5,-307.32 424.79,-239.03 432.57,-206.16"/>
<polygon fill="#63b8ff" stroke="#63b8ff" points="435.87,-207.41 434.84,-196.86 429.07,-205.75 435.87,-207.41"/>
</g>
<!-- Node25&#45;&gt;Node21 -->
<g id="edge36" class="edge">
<title>Node25&#45;&gt;Node21</title>
<path fill="none" stroke="#63b8ff" d="M486.69,-538.52C463.17,-531.82 434.42,-520.69 413.5,-503 386.26,-479.97 372.5,-469.67 372.5,-434 372.5,-434 372.5,-434 372.5,-366 372.5,-284.52 334.86,-193.49 314.78,-150.72"/>
<polygon fill="#63b8ff" stroke="#63b8ff" points="317.99,-149.32 310.51,-141.82 311.68,-152.35 317.99,-149.32"/>
</g>
<!-- Node26 -->
<g id="node26" class="node">
<title>Node26</title>
<g id="a_node26"><a xlink:title=" ">
<polygon fill="#e0e0e0" stroke="#999999" points="500.5,-503 438.5,-503 438.5,-484 500.5,-484 500.5,-503"/>
<text text-anchor="middle" x="469.5" y="-491" font-family="Helvetica,sans-Serif" font-size="10.00">type_traits</text>
</a>
</g>
</g>
<!-- Node25&#45;&gt;Node26 -->
<g id="edge34" class="edge">
<title>Node25&#45;&gt;Node26</title>
<path fill="none" stroke="#63b8ff" d="M518.49,-538.51C510.13,-531 498,-520.1 487.9,-511.03"/>
<polygon fill="#63b8ff" stroke="#63b8ff" points="490.26,-508.45 480.49,-504.37 485.59,-513.66 490.26,-508.45"/>
</g>
<!-- Node27 -->
<g id="node27" class="node">
<title>Node27</title>
<g id="a_node27"><a xlink:href="src_2primitives_2common_8hpp.html" target="_top" xlink:title=" ">
<polygon fill="white" stroke="#666666" points="556,-316 439,-316 439,-297 556,-297 556,-316"/>
<text text-anchor="middle" x="497.5" y="-304" font-family="Helvetica,sans-Serif" font-size="10.00">primitives/common.hpp</text>
</a>
</g>
</g>
<!-- Node25&#45;&gt;Node27 -->
<g id="edge38" class="edge">
<title>Node25&#45;&gt;Node27</title>
<path fill="none" stroke="#63b8ff" d="M527.46,-538.62C525.6,-525.7 520.79,-501.37 509.5,-484 496.1,-463.39 477.77,-470.34 467.5,-448 448.72,-407.17 471.24,-354.22 486.22,-326.43"/>
<polygon fill="#63b8ff" stroke="#63b8ff" points="489.23,-328.22 491.11,-317.79 483.14,-324.77 489.23,-328.22"/>
</g>
<!-- Node30 -->
<g id="node30" class="node">
<title>Node30</title>
<g id="a_node30"><a xlink:href="compact__integer_8hpp.html" target="_top" xlink:title=" ">
<polygon fill="white" stroke="#666666" points="876,-382 777,-382 777,-352 876,-352 876,-382"/>
<text text-anchor="start" x="785" y="-370" font-family="Helvetica,sans-Serif" font-size="10.00">primitives/compact</text>
<text text-anchor="middle" x="826.5" y="-359" font-family="Helvetica,sans-Serif" font-size="10.00">_integer.hpp</text>
</a>
</g>
</g>
<!-- Node25&#45;&gt;Node30 -->
<g id="edge43" class="edge">
<title>Node25&#45;&gt;Node30</title>
<path fill="none" stroke="#63b8ff" d="M582.74,-538.56C664.59,-523.78 813.22,-491.54 842.5,-448 853.52,-431.61 847.79,-409.34 840.28,-392.45"/>
<polygon fill="#63b8ff" stroke="#63b8ff" points="843.48,-391.03 835.92,-383.61 837.21,-394.13 843.48,-391.03"/>
</g>
<!-- Node32 -->
<g id="node32" class="node">
<title>Node32</title>
<g id="a_node32"><a xlink:href="digest_8hpp.html" target="_top" xlink:title=" ">
<polygon fill="white" stroke="#666666" points="698.5,-503 592.5,-503 592.5,-484 698.5,-484 698.5,-503"/>
<text text-anchor="middle" x="645.5" y="-491" font-family="Helvetica,sans-Serif" font-size="10.00">primitives/digest.hpp</text>
</a>
</g>
</g>
<!-- Node25&#45;&gt;Node32 -->
<g id="edge48" class="edge">
<title>Node25&#45;&gt;Node32</title>
<path fill="none" stroke="#63b8ff" d="M548.35,-538.51C566.78,-530.16 594.48,-517.61 615.59,-508.05"/>
<polygon fill="#63b8ff" stroke="#63b8ff" points="616.9,-511.3 624.57,-503.98 614.01,-504.92 616.9,-511.3"/>
</g>
<!-- Node27&#45;&gt;Node8 -->
<g id="edge40" class="edge">
<title>Node27&#45;&gt;Node8</title>
<path fill="none" stroke="#63b8ff" d="M529.39,-296.62C565.4,-286.59 624.16,-270.22 664.27,-259.04"/>
<polygon fill="#63b8ff" stroke="#63b8ff" points="665.15,-262.43 673.85,-256.37 663.27,-255.69 665.15,-262.43"/>
</g>
<!-- Node28 -->
<g id="node28" class="node">
<title>Node28</title>
<g id="a_node28"><a xlink:title=" ">
<polygon fill="#e0e0e0" stroke="#999999" points="606.5,-255.5 560.5,-255.5 560.5,-236.5 606.5,-236.5 606.5,-255.5"/>
<text text-anchor="middle" x="583.5" y="-243.5" font-family="Helvetica,sans-Serif" font-size="10.00">cstdint</text>
</a>
</g>
</g>
<!-- Node27&#45;&gt;Node28 -->
<g id="edge39" class="edge">
<title>Node27&#45;&gt;Node28</title>
<path fill="none" stroke="#63b8ff" d="M510.56,-296.62C523.95,-287.51 545.02,-273.18 561.08,-262.25"/>
<polygon fill="#63b8ff" stroke="#63b8ff" points="562.76,-265.34 569.06,-256.82 558.83,-259.55 562.76,-265.34"/>
</g>
<!-- Node29 -->
<g id="node29" class="node">
<title>Node29</title>
<g id="a_node29"><a xlink:href="session__key_8hpp.html" target="_top" xlink:title=" ">
<polygon fill="white" stroke="#666666" points="540,-261 445,-261 445,-231 540,-231 540,-261"/>
<text text-anchor="start" x="453" y="-249" font-family="Helvetica,sans-Serif" font-size="10.00">primitives/session</text>
<text text-anchor="middle" x="492.5" y="-238" font-family="Helvetica,sans-Serif" font-size="10.00">_key.hpp</text>
</a>
</g>
</g>
<!-- Node27&#45;&gt;Node29 -->
<g id="edge41" class="edge">
<title>Node27&#45;&gt;Node29</title>
<path fill="none" stroke="#63b8ff" d="M496.76,-296.87C496.21,-290.4 495.42,-281.2 494.68,-272.45"/>
<polygon fill="#63b8ff" stroke="#63b8ff" points="498.17,-272.29 493.84,-262.62 491.2,-272.88 498.17,-272.29"/>
</g>
<!-- Node29&#45;&gt;Node14 -->
<g id="edge42" class="edge">
<title>Node29&#45;&gt;Node14</title>
<path fill="none" stroke="#63b8ff" d="M478.9,-230.54C471.16,-222.3 461.42,-211.94 453.33,-203.34"/>
<polygon fill="#63b8ff" stroke="#63b8ff" points="456.09,-201.17 446.69,-196.28 450.99,-205.96 456.09,-201.17"/>
</g>
<!-- Node31 -->
<g id="node31" class="node">
<title>Node31</title>
<g id="a_node31"><a xlink:href="scale_2types_8hpp.html" target="_top" xlink:title=" ">
<polygon fill="white" stroke="#666666" points="858.5,-195 774.5,-195 774.5,-176 858.5,-176 858.5,-195"/>
<text text-anchor="middle" x="816.5" y="-183" font-family="Helvetica,sans-Serif" font-size="10.00">scale/types.hpp</text>
</a>
</g>
</g>
<!-- Node30&#45;&gt;Node31 -->
<g id="edge44" class="edge">
<title>Node30&#45;&gt;Node31</title>
<path fill="none" stroke="#63b8ff" d="M825.7,-351.61C823.92,-319.76 819.66,-243.22 817.62,-206.64"/>
<polygon fill="#63b8ff" stroke="#63b8ff" points="821.14,-206.8 817.09,-197.01 814.15,-207.19 821.14,-206.8"/>
</g>
<!-- Node31&#45;&gt;Node6 -->
<g id="edge45" class="edge">
<title>Node31&#45;&gt;Node6</title>
<path fill="none" stroke="#63b8ff" d="M826.8,-175.56C849.82,-155.56 905.73,-107 934.97,-81.59"/>
<polygon fill="#63b8ff" stroke="#63b8ff" points="937.06,-84.42 942.31,-75.22 932.47,-79.13 937.06,-84.42"/>
</g>
<!-- Node31&#45;&gt;Node10 -->
<g id="edge47" class="edge">
<title>Node31&#45;&gt;Node10</title>
<path fill="none" stroke="#63b8ff" d="M819.18,-175.66C821.87,-166.7 826.1,-152.42 829.5,-140 834.56,-121.49 839.93,-100.28 843.66,-85.23"/>
<polygon fill="#63b8ff" stroke="#63b8ff" points="847.02,-86.26 846.01,-75.71 840.22,-84.58 847.02,-86.26"/>
</g>
<!-- Node31&#45;&gt;Node21 -->
<g id="edge46" class="edge">
<title>Node31&#45;&gt;Node21</title>
<path fill="none" stroke="#63b8ff" d="M774.11,-182.15C695.54,-177.4 521.83,-165.06 366.16,-140.3"/>
<polygon fill="#63b8ff" stroke="#63b8ff" points="366.91,-136.87 356.48,-138.74 365.8,-143.79 366.91,-136.87"/>
</g>
<!-- Node32&#45;&gt;Node4 -->
<g id="edge50" class="edge">
<title>Node32&#45;&gt;Node4</title>
<path fill="none" stroke="#63b8ff" d="M698.91,-485C741.12,-477.84 795.1,-465.54 808.5,-448 816.59,-437.4 814,-430.15 808.5,-418 798.5,-395.91 777.5,-404.09 767.5,-382 762,-369.85 759.04,-362.31 767.5,-352 788.57,-326.32 878.3,-315.17 937.32,-310.55"/>
<polygon fill="#63b8ff" stroke="#63b8ff" points="937.46,-314.05 947.17,-309.82 936.94,-307.07 937.46,-314.05"/>
</g>
<!-- Node33 -->
<g id="node33" class="node">
<title>Node33</title>
<g id="a_node33"><a xlink:title=" ">
<polygon fill="#e0e0e0" stroke="#999999" points="800,-442.5 709,-442.5 709,-423.5 800,-423.5 800,-442.5"/>
<text text-anchor="middle" x="754.5" y="-430.5" font-family="Helvetica,sans-Serif" font-size="10.00">boost/variant.hpp</text>
</a>
</g>
</g>
<!-- Node32&#45;&gt;Node33 -->
<g id="edge49" class="edge">
<title>Node32&#45;&gt;Node33</title>
<path fill="none" stroke="#63b8ff" d="M662.05,-483.62C679.5,-474.25 707.25,-459.36 727.79,-448.33"/>
<polygon fill="#63b8ff" stroke="#63b8ff" points="729.3,-451.5 736.46,-443.68 725.99,-445.33 729.3,-451.5"/>
</g>
<!-- Node34 -->
<g id="node34" class="node">
<title>Node34</title>
<g id="a_node34"><a xlink:href="unused_8hpp.html" target="_top" xlink:title=" ">
<polygon fill="white" stroke="#666666" points="690.5,-442.5 600.5,-442.5 600.5,-423.5 690.5,-423.5 690.5,-442.5"/>
<text text-anchor="middle" x="645.5" y="-430.5" font-family="Helvetica,sans-Serif" font-size="10.00">base/unused.hpp</text>
</a>
</g>
</g>
<!-- Node32&#45;&gt;Node34 -->
<g id="edge51" class="edge">
<title>Node32&#45;&gt;Node34</title>
<path fill="none" stroke="#63b8ff" d="M645.5,-483.87C645.5,-476 645.5,-464.1 645.5,-453.89"/>
<polygon fill="#63b8ff" stroke="#63b8ff" points="649,-454.18 645.5,-444.18 642,-454.18 649,-454.18"/>
</g>
<!-- Node35 -->
<g id="node35" class="node">
<title>Node35</title>
<g id="a_node35"><a xlink:href="scheduled__change_8hpp.html" target="_top" xlink:title=" ">
<polygon fill="white" stroke="#666666" points="582.5,-448 476.5,-448 476.5,-418 582.5,-418 582.5,-448"/>
<text text-anchor="start" x="484.5" y="-436" font-family="Helvetica,sans-Serif" font-size="10.00">primitives/scheduled</text>
<text text-anchor="middle" x="529.5" y="-425" font-family="Helvetica,sans-Serif" font-size="10.00">_change.hpp</text>
</a>
</g>
</g>
<!-- Node32&#45;&gt;Node35 -->
<g id="edge52" class="edge">
<title>Node32&#45;&gt;Node35</title>
<path fill="none" stroke="#63b8ff" d="M627.88,-483.62C612.12,-475.67 588.47,-463.74 568.3,-453.57"/>
<polygon fill="#63b8ff" stroke="#63b8ff" points="569.99,-450.5 559.48,-449.12 566.84,-456.75 569.99,-450.5"/>
</g>
<!-- Node35&#45;&gt;Node27 -->
<g id="edge57" class="edge">
<title>Node35&#45;&gt;Node27</title>
<path fill="none" stroke="#63b8ff" d="M525.83,-417.72C520.13,-395.53 509.12,-352.73 502.64,-327.49"/>
<polygon fill="#63b8ff" stroke="#63b8ff" points="506.04,-326.66 500.16,-317.85 499.26,-328.4 506.04,-326.66"/>
</g>
<!-- Node36 -->
<g id="node36" class="node">
<title>Node36</title>
<g id="a_node36"><a xlink:href="authority_8hpp.html" target="_top" xlink:title=" ">
<polygon fill="white" stroke="#666666" points="642.5,-376.5 526.5,-376.5 526.5,-357.5 642.5,-357.5 642.5,-376.5"/>
<text text-anchor="middle" x="584.5" y="-364.5" font-family="Helvetica,sans-Serif" font-size="10.00">primitives/authority.hpp</text>
</a>
</g>
</g>
<!-- Node35&#45;&gt;Node36 -->
<g id="edge53" class="edge">
<title>Node35&#45;&gt;Node36</title>
<path fill="none" stroke="#63b8ff" d="M541.71,-417.8C549.94,-408.21 560.87,-395.5 569.62,-385.32"/>
<polygon fill="#63b8ff" stroke="#63b8ff" points="572.05,-387.86 575.91,-377.99 566.74,-383.3 572.05,-387.86"/>
</g>
<!-- Node36&#45;&gt;Node27 -->
<g id="edge56" class="edge">
<title>Node36&#45;&gt;Node27</title>
<path fill="none" stroke="#63b8ff" d="M571.29,-357.12C557.75,-348.01 536.43,-333.68 520.18,-322.75"/>
<polygon fill="#63b8ff" stroke="#63b8ff" points="522.35,-319.99 512.09,-317.31 518.44,-325.8 522.35,-319.99"/>
</g>
<!-- Node36&#45;&gt;Node28 -->
<g id="edge54" class="edge">
<title>Node36&#45;&gt;Node28</title>
<path fill="none" stroke="#63b8ff" d="M584.42,-357.06C584.27,-338.1 583.89,-293.47 583.67,-267.23"/>
<polygon fill="#63b8ff" stroke="#63b8ff" points="587.17,-267.21 583.59,-257.24 580.17,-267.27 587.17,-267.21"/>
</g>
<!-- Node37 -->
<g id="node37" class="node">
<title>Node37</title>
<g id="a_node37"><a xlink:title=" ">
<polygon fill="#e0e0e0" stroke="#999999" points="672,-316 613,-316 613,-297 672,-297 672,-316"/>
<text text-anchor="middle" x="642.5" y="-304" font-family="Helvetica,sans-Serif" font-size="10.00">functional</text>
</a>
</g>
</g>
<!-- Node36&#45;&gt;Node37 -->
<g id="edge55" class="edge">
<title>Node36&#45;&gt;Node37</title>
<path fill="none" stroke="#63b8ff" d="M593.06,-357.37C601.71,-348.64 615.3,-334.93 626.05,-324.09"/>
<polygon fill="#63b8ff" stroke="#63b8ff" points="628.29,-326.81 632.84,-317.24 623.31,-321.88 628.29,-326.81"/>
</g>
<!-- Node38&#45;&gt;Node4 -->
<g id="edge59" class="edge">
<title>Node38&#45;&gt;Node4</title>
<path fill="none" stroke="#63b8ff" d="M990.5,-483.58C990.5,-455.37 990.5,-367.65 990.5,-327.7"/>
<polygon fill="#63b8ff" stroke="#63b8ff" points="994,-327.85 990.5,-317.85 987,-327.85 994,-327.85"/>
</g>
</g>
</svg>
