<?xml version="1.0" encoding="UTF-8" standalone="no"?>
<!DOCTYPE svg PUBLIC "-//W3C//DTD SVG 1.1//EN"
 "http://www.w3.org/Graphics/SVG/1.1/DTD/svg11.dtd">
<!-- Generated by graphviz version 7.0.5 (20221223.1930)
 -->
<!-- Title: src/runtime/core.hpp Pages: 1 -->
<!--zoomable 698 -->
<svg id="main" version="1.1" xmlns="http://www.w3.org/2000/svg" xmlns:xlink="http://www.w3.org/1999/xlink" xml:space="preserve" onload="init(evt)">
<style type="text/css"><![CDATA[
.edge:hover path { stroke: red; }
.edge:hover polygon { stroke: red; fill: red; }
]]></style>
<script type="text/javascript"><![CDATA[
var edges = document.getElementsByTagName('g');
if (edges && edges.length) {
  for (var i=0;i<edges.length;i++) {
    if (edges[i].id.substr(0,4)=='edge') {
      edges[i].setAttribute('class','edge');
    }
  }
}
]]></script>
        <defs>
                <circle id="rim" cx="0" cy="0" r="7"/>
                <circle id="rim2" cx="0" cy="0" r="3.5"/>
                <g id="zoomPlus">
                        <use xlink:href="#rim" fill="#404040">
                                <set attributeName="fill" to="#808080" begin="zoomplus.mouseover" end="zoomplus.mouseout"/>
                        </use>
                        <path d="M-4,0h8M0,-4v8" fill="none" stroke="white" stroke-width="1.5" pointer-events="none"/>
                </g>
                <g id="zoomMin">
                        <use xlink:href="#rim" fill="#404040">
                                <set attributeName="fill" to="#808080" begin="zoomminus.mouseover" end="zoomminus.mouseout"/>
                        </use>
                        <path d="M-4,0h8" fill="none" stroke="white" stroke-width="1.5" pointer-events="none"/>
                </g>
                <g id="dirArrow">
                        <path fill="none" stroke="white" stroke-width="1.5" d="M0,-3.0v7 M-2.5,-0.5L0,-3.0L2.5,-0.5"/>
                </g>
               <g id="resetDef">
                       <use xlink:href="#rim2" fill="#404040">
                               <set attributeName="fill" to="#808080" begin="reset.mouseover" end="reset.mouseout"/>
                       </use>
               </g>
        </defs>

<script type="text/javascript">
var viewWidth = 1091;
var viewHeight = 698;
var sectionId = 'dynsection-0';
</script>
<script xlink:href="svgpan.js"/>
<svg id="graph" class="graph">
<g id="viewport">
<title>src/runtime/core.hpp</title>
<!-- Node1 -->
<g id="node1" class="node">
<title>Node1</title>
<g id="a_node1"><a xlink:title=" ">
<polygon fill="#999999" stroke="#666666" points="770,-690 665,-690 665,-671 770,-671 770,-690"/>
<text text-anchor="middle" x="717.5" y="-678" font-family="Helvetica,sans-Serif" font-size="10.00">src/runtime/core.hpp</text>
</a>
</g>
</g>
<!-- Node2 -->
<g id="node2" class="node">
<title>Node2</title>
<g id="a_node2"><a xlink:href="outcome_8hpp.html" target="_top" xlink:title=" ">
<polygon fill="white" stroke="#666666" points="127,-79.5 14,-79.5 14,-60.5 127,-60.5 127,-79.5"/>
<text text-anchor="middle" x="70.5" y="-67.5" font-family="Helvetica,sans-Serif" font-size="10.00">outcome/outcome.hpp</text>
</a>
</g>
</g>
<!-- Node1&#45;&gt;Node2 -->
<g id="edge1" class="edge">
<title>Node1&#45;&gt;Node2</title>
<path fill="none" stroke="#63b8ff" d="M664.53,-678.48C524.69,-675.38 153.08,-664.45 106.5,-635 79.08,-617.66 70.5,-603.94 70.5,-571.5 70.5,-571.5 70.5,-571.5 70.5,-184.5 70.5,-151.89 70.5,-114 70.5,-91.29"/>
<polygon fill="#63b8ff" stroke="#63b8ff" points="74,-91.34 70.5,-81.34 67,-91.34 74,-91.34"/>
</g>
<!-- Node4 -->
<g id="node4" class="node">
<title>Node4</title>
<g id="a_node4"><a xlink:title=" ">
<polygon fill="#e0e0e0" stroke="#999999" points="593.5,-79.5 549.5,-79.5 549.5,-60.5 593.5,-60.5 593.5,-79.5"/>
<text text-anchor="middle" x="571.5" y="-67.5" font-family="Helvetica,sans-Serif" font-size="10.00">vector</text>
</a>
</g>
</g>
<!-- Node1&#45;&gt;Node4 -->
<g id="edge3" class="edge">
<title>Node1&#45;&gt;Node4</title>
<path fill="none" stroke="#63b8ff" d="M770.3,-674.31C830.74,-665.12 921.5,-639.93 921.5,-571.5 921.5,-571.5 921.5,-571.5 921.5,-184.5 921.5,-155.04 924.74,-140.31 902.5,-121 858.45,-82.75 679.92,-73.74 604.93,-71.64"/>
<polygon fill="#63b8ff" stroke="#63b8ff" points="605.42,-68.15 595.33,-71.39 605.24,-75.15 605.42,-68.15"/>
</g>
<!-- Node5 -->
<g id="node5" class="node">
<title>Node5</title>
<g id="a_node5"><a xlink:href="authority_8hpp.html" target="_top" xlink:title=" ">
<polygon fill="white" stroke="#666666" points="531.5,-387.5 415.5,-387.5 415.5,-368.5 531.5,-368.5 531.5,-387.5"/>
<text text-anchor="middle" x="473.5" y="-375.5" font-family="Helvetica,sans-Serif" font-size="10.00">primitives/authority.hpp</text>
</a>
</g>
</g>
<!-- Node1&#45;&gt;Node5 -->
<g id="edge4" class="edge">
<title>Node1&#45;&gt;Node5</title>
<path fill="none" stroke="#63b8ff" d="M665.32,-670.51C552.82,-649.92 293.63,-595.67 244.5,-525 236.89,-514.05 237.52,-506.36 244.5,-495 281.28,-435.14 359.6,-405.02 414.35,-390.7"/>
<polygon fill="#63b8ff" stroke="#63b8ff" points="414.99,-394.15 423.84,-388.33 413.29,-387.36 414.99,-394.15"/>
</g>
<!-- Node8 -->
<g id="node8" class="node">
<title>Node8</title>
<g id="a_node8"><a xlink:href="src_2primitives_2common_8hpp.html" target="_top" xlink:title=" ">
<polygon fill="white" stroke="#666666" points="650,-321.5 533,-321.5 533,-302.5 650,-302.5 650,-321.5"/>
<text text-anchor="middle" x="591.5" y="-309.5" font-family="Helvetica,sans-Serif" font-size="10.00">primitives/common.hpp</text>
</a>
</g>
</g>
<!-- Node1&#45;&gt;Node8 -->
<g id="edge51" class="edge">
<title>Node1&#45;&gt;Node8</title>
<path fill="none" stroke="#63b8ff" d="M717.5,-670.54C717.5,-652.03 717.5,-608.25 717.5,-571.5 717.5,-571.5 717.5,-571.5 717.5,-509 717.5,-431.39 646.73,-360.02 611.27,-329.13"/>
<polygon fill="#63b8ff" stroke="#63b8ff" points="613.72,-326.63 603.84,-322.82 609.19,-331.96 613.72,-326.63"/>
</g>
<!-- Node18 -->
<g id="node18" class="node">
<title>Node18</title>
<g id="a_node18"><a xlink:href="block_8hpp.html" target="_top" xlink:title=" ">
<polygon fill="white" stroke="#666666" points="262,-635 159,-635 159,-616 262,-616 262,-635"/>
<text text-anchor="middle" x="210.5" y="-623" font-family="Helvetica,sans-Serif" font-size="10.00">primitives/block.hpp</text>
</a>
</g>
</g>
<!-- Node1&#45;&gt;Node18 -->
<g id="edge20" class="edge">
<title>Node1&#45;&gt;Node18</title>
<path fill="none" stroke="#63b8ff" d="M664.5,-674.63C581.64,-666.9 416.4,-651.06 276.5,-635 275.5,-634.88 274.48,-634.77 273.46,-634.65"/>
<polygon fill="#63b8ff" stroke="#63b8ff" points="274.21,-631.21 263.87,-633.5 273.38,-638.16 274.21,-631.21"/>
</g>
<!-- Node31 -->
<g id="node31" class="node">
<title>Node31</title>
<g id="a_node31"><a xlink:href="block__id_8hpp.html" target="_top" xlink:title=" ">
<polygon fill="white" stroke="#666666" points="817.5,-387.5 701.5,-387.5 701.5,-368.5 817.5,-368.5 817.5,-387.5"/>
<text text-anchor="middle" x="759.5" y="-375.5" font-family="Helvetica,sans-Serif" font-size="10.00">primitives/block_id.hpp</text>
</a>
</g>
</g>
<!-- Node1&#45;&gt;Node31 -->
<g id="edge47" class="edge">
<title>Node1&#45;&gt;Node31</title>
<path fill="none" stroke="#63b8ff" d="M723.23,-670.67C734.29,-652.74 757.5,-610.49 757.5,-571.5 757.5,-571.5 757.5,-571.5 757.5,-509 757.5,-470.17 758.4,-424.83 759,-399.26"/>
<polygon fill="#63b8ff" stroke="#63b8ff" points="762.49,-399.42 759.23,-389.34 755.49,-399.25 762.49,-399.42"/>
</g>
<!-- Node32 -->
<g id="node32" class="node">
<title>Node32</title>
<g id="a_node32"><a xlink:href="transaction__validity_8hpp.html" target="_top" xlink:title=" ">
<polygon fill="white" stroke="#666666" points="361.5,-327 251.5,-327 251.5,-297 361.5,-297 361.5,-327"/>
<text text-anchor="start" x="259.5" y="-315" font-family="Helvetica,sans-Serif" font-size="10.00">primitives/transaction</text>
<text text-anchor="middle" x="306.5" y="-304" font-family="Helvetica,sans-Serif" font-size="10.00">_validity.hpp</text>
</a>
</g>
</g>
<!-- Node1&#45;&gt;Node32 -->
<g id="edge52" class="edge">
<title>Node1&#45;&gt;Node32</title>
<path fill="none" stroke="#63b8ff" d="M664.92,-679.35C530.8,-678.42 184.08,-672.4 149.5,-635 136.39,-620.82 55.15,-699.35 170.5,-429 189.15,-385.28 234.16,-352.36 267.32,-332.96"/>
<polygon fill="#63b8ff" stroke="#63b8ff" points="268.89,-336.09 275.87,-328.12 265.44,-330 268.89,-336.09"/>
</g>
<!-- Node34 -->
<g id="node34" class="node">
<title>Node34</title>
<g id="a_node34"><a xlink:href="primitives_2version_8hpp.html" target="_top" xlink:title=" ">
<polygon fill="white" stroke="#666666" points="1061,-195 950,-195 950,-176 1061,-176 1061,-195"/>
<text text-anchor="middle" x="1005.5" y="-183" font-family="Helvetica,sans-Serif" font-size="10.00">primitives/version.hpp</text>
</a>
</g>
</g>
<!-- Node1&#45;&gt;Node34 -->
<g id="edge60" class="edge">
<title>Node1&#45;&gt;Node34</title>
<path fill="none" stroke="#63b8ff" d="M770.34,-674.57C826.67,-668.33 911.09,-655.79 935.5,-635 958.47,-615.44 959.5,-601.67 959.5,-571.5 959.5,-571.5 959.5,-571.5 959.5,-311 959.5,-271.41 980.22,-228.89 993.84,-205.2"/>
<polygon fill="#63b8ff" stroke="#63b8ff" points="996.77,-207.13 998.9,-196.75 990.76,-203.53 996.77,-207.13"/>
</g>
<!-- Node36 -->
<g id="node36" class="node">
<title>Node36</title>
<g id="a_node36"><a xlink:title=" ">
<polygon fill="#e0e0e0" stroke="#999999" points="1083,-635 988,-635 988,-616 1083,-616 1083,-635"/>
<text text-anchor="middle" x="1035.5" y="-623" font-family="Helvetica,sans-Serif" font-size="10.00">boost/optional.hpp</text>
</a>
</g>
</g>
<!-- Node1&#45;&gt;Node36 -->
<g id="edge64" class="edge">
<title>Node1&#45;&gt;Node36</title>
<path fill="none" stroke="#63b8ff" d="M770.37,-670.69C827.28,-661.2 917.57,-646.15 976.69,-636.3"/>
<polygon fill="#63b8ff" stroke="#63b8ff" points="976.93,-639.81 986.22,-634.71 975.78,-632.91 976.93,-639.81"/>
</g>
<!-- Node3 -->
<g id="node3" class="node">
<title>Node3</title>
<g id="a_node3"><a xlink:title=" ">
<polygon fill="#e0e0e0" stroke="#999999" points="141,-19 0,-19 0,0 141,0 141,-19"/>
<text text-anchor="middle" x="70.5" y="-7" font-family="Helvetica,sans-Serif" font-size="10.00">libp2p/outcome/outcome.hpp</text>
</a>
</g>
</g>
<!-- Node2&#45;&gt;Node3 -->
<g id="edge2" class="edge">
<title>Node2&#45;&gt;Node3</title>
<path fill="none" stroke="#63b8ff" d="M70.5,-60.37C70.5,-52.5 70.5,-40.6 70.5,-30.39"/>
<polygon fill="#63b8ff" stroke="#63b8ff" points="74,-30.68 70.5,-20.68 67,-30.68 74,-30.68"/>
</g>
<!-- Node6 -->
<g id="node6" class="node">
<title>Node6</title>
<g id="a_node6"><a xlink:title=" ">
<polygon fill="#e0e0e0" stroke="#999999" points="556.5,-255.5 510.5,-255.5 510.5,-236.5 556.5,-236.5 556.5,-255.5"/>
<text text-anchor="middle" x="533.5" y="-243.5" font-family="Helvetica,sans-Serif" font-size="10.00">cstdint</text>
</a>
</g>
</g>
<!-- Node5&#45;&gt;Node6 -->
<g id="edge5" class="edge">
<title>Node5&#45;&gt;Node6</title>
<path fill="none" stroke="#63b8ff" d="M465.88,-368.11C453.73,-352.82 432.7,-320.85 446.5,-297 452.86,-286 480.23,-271.3 502.59,-260.69"/>
<polygon fill="#63b8ff" stroke="#63b8ff" points="503.77,-264 511.37,-256.62 500.82,-257.65 503.77,-264"/>
</g>
<!-- Node7 -->
<g id="node7" class="node">
<title>Node7</title>
<g id="a_node7"><a xlink:title=" ">
<polygon fill="#e0e0e0" stroke="#999999" points="515,-321.5 456,-321.5 456,-302.5 515,-302.5 515,-321.5"/>
<text text-anchor="middle" x="485.5" y="-309.5" font-family="Helvetica,sans-Serif" font-size="10.00">functional</text>
</a>
</g>
</g>
<!-- Node5&#45;&gt;Node7 -->
<g id="edge6" class="edge">
<title>Node5&#45;&gt;Node7</title>
<path fill="none" stroke="#63b8ff" d="M475.17,-368.1C476.87,-359.03 479.57,-344.64 481.78,-332.85"/>
<polygon fill="#63b8ff" stroke="#63b8ff" points="485.16,-333.78 483.57,-323.31 478.28,-332.49 485.16,-333.78"/>
</g>
<!-- Node5&#45;&gt;Node8 -->
<g id="edge7" class="edge">
<title>Node5&#45;&gt;Node8</title>
<path fill="none" stroke="#63b8ff" d="M489.91,-368.1C509.46,-357.5 542.37,-339.65 565.42,-327.15"/>
<polygon fill="#63b8ff" stroke="#63b8ff" points="566.78,-330.39 573.9,-322.54 563.44,-324.24 566.78,-330.39"/>
</g>
<!-- Node8&#45;&gt;Node6 -->
<g id="edge8" class="edge">
<title>Node8&#45;&gt;Node6</title>
<path fill="none" stroke="#63b8ff" d="M583.44,-302.1C574.61,-292.36 560.23,-276.5 549.17,-264.29"/>
<polygon fill="#63b8ff" stroke="#63b8ff" points="551.82,-262 542.51,-256.94 546.63,-266.71 551.82,-262"/>
</g>
<!-- Node9 -->
<g id="node9" class="node">
<title>Node9</title>
<g id="a_node9"><a xlink:title=" ">
<polygon fill="#e0e0e0" stroke="#999999" points="247.5,-79.5 145.5,-79.5 145.5,-60.5 247.5,-60.5 247.5,-79.5"/>
<text text-anchor="middle" x="196.5" y="-67.5" font-family="Helvetica,sans-Serif" font-size="10.00">boost/operators.hpp</text>
</a>
</g>
</g>
<!-- Node8&#45;&gt;Node9 -->
<g id="edge9" class="edge">
<title>Node8&#45;&gt;Node9</title>
<path fill="none" stroke="#63b8ff" d="M550.47,-302.02C541.91,-300.26 532.92,-298.5 524.5,-297 416.14,-277.74 370.51,-322.88 279.5,-261 221.34,-221.45 203.61,-131.6 198.47,-91.26"/>
<polygon fill="#63b8ff" stroke="#63b8ff" points="201.95,-90.88 197.36,-81.33 195,-91.66 201.95,-90.88"/>
</g>
<!-- Node10 -->
<g id="node10" class="node">
<title>Node10</title>
<g id="a_node10"><a xlink:href="session__key_8hpp.html" target="_top" xlink:title=" ">
<polygon fill="white" stroke="#666666" points="670,-261 575,-261 575,-231 670,-231 670,-261"/>
<text text-anchor="start" x="583" y="-249" font-family="Helvetica,sans-Serif" font-size="10.00">primitives/session</text>
<text text-anchor="middle" x="622.5" y="-238" font-family="Helvetica,sans-Serif" font-size="10.00">_key.hpp</text>
</a>
</g>
</g>
<!-- Node8&#45;&gt;Node10 -->
<g id="edge10" class="edge">
<title>Node8&#45;&gt;Node10</title>
<path fill="none" stroke="#63b8ff" d="M595.81,-302.1C599.65,-294.17 605.46,-282.18 610.68,-271.4"/>
<polygon fill="#63b8ff" stroke="#63b8ff" points="613.74,-273.12 614.95,-262.6 607.44,-270.07 613.74,-273.12"/>
</g>
<!-- Node11 -->
<g id="node11" class="node">
<title>Node11</title>
<g id="a_node11"><a xlink:href="blob_8hpp.html" target="_top" xlink:title=" ">
<polygon fill="white" stroke="#666666" points="688,-195 611,-195 611,-176 688,-176 688,-195"/>
<text text-anchor="middle" x="649.5" y="-183" font-family="Helvetica,sans-Serif" font-size="10.00">base/blob.hpp</text>
</a>
</g>
</g>
<!-- Node10&#45;&gt;Node11 -->
<g id="edge11" class="edge">
<title>Node10&#45;&gt;Node11</title>
<path fill="none" stroke="#63b8ff" d="M629.17,-230.54C632.66,-223 636.96,-213.67 640.71,-205.55"/>
<polygon fill="#63b8ff" stroke="#63b8ff" points="643.85,-207.1 644.86,-196.55 637.49,-204.16 643.85,-207.1"/>
</g>
<!-- Node12 -->
<g id="node12" class="node">
<title>Node12</title>
<g id="a_node12"><a xlink:title=" ">
<polygon fill="#e0e0e0" stroke="#999999" points="893.5,-140 855.5,-140 855.5,-121 893.5,-121 893.5,-140"/>
<text text-anchor="middle" x="874.5" y="-128" font-family="Helvetica,sans-Serif" font-size="10.00">array</text>
</a>
</g>
</g>
<!-- Node11&#45;&gt;Node12 -->
<g id="edge12" class="edge">
<title>Node11&#45;&gt;Node12</title>
<path fill="none" stroke="#63b8ff" d="M687.67,-175.51C731.83,-165.11 803.65,-148.19 844.18,-138.64"/>
<polygon fill="#63b8ff" stroke="#63b8ff" points="844.8,-142.09 853.73,-136.39 843.2,-135.28 844.8,-142.09"/>
</g>
<!-- Node13 -->
<g id="node13" class="node">
<title>Node13</title>
<g id="a_node13"><a xlink:title=" ">
<polygon fill="#e0e0e0" stroke="#999999" points="700.5,-140 572.5,-140 572.5,-121 700.5,-121 700.5,-140"/>
<text text-anchor="middle" x="636.5" y="-128" font-family="Helvetica,sans-Serif" font-size="10.00">boost/functional/hash.hpp</text>
</a>
</g>
</g>
<!-- Node11&#45;&gt;Node13 -->
<g id="edge13" class="edge">
<title>Node11&#45;&gt;Node13</title>
<path fill="none" stroke="#63b8ff" d="M647.35,-175.75C645.74,-169.19 643.48,-159.95 641.43,-151.6"/>
<polygon fill="#63b8ff" stroke="#63b8ff" points="644.84,-150.79 639.05,-141.91 638.04,-152.46 644.84,-150.79"/>
</g>
<!-- Node14 -->
<g id="node14" class="node">
<title>Node14</title>
<g id="a_node14"><a xlink:href="hexutil_8hpp.html" target="_top" xlink:title=" ">
<polygon fill="white" stroke="#666666" points="438.5,-140 352.5,-140 352.5,-121 438.5,-121 438.5,-140"/>
<text text-anchor="middle" x="395.5" y="-128" font-family="Helvetica,sans-Serif" font-size="10.00">base/hexutil.hpp</text>
</a>
</g>
</g>
<!-- Node11&#45;&gt;Node14 -->
<g id="edge14" class="edge">
<title>Node11&#45;&gt;Node14</title>
<path fill="none" stroke="#63b8ff" d="M610.65,-176.39C567.68,-167.43 498.14,-152.92 449.79,-142.83"/>
<polygon fill="#63b8ff" stroke="#63b8ff" points="450.59,-139.42 440.08,-140.8 449.16,-146.27 450.59,-139.42"/>
</g>
<!-- Node17 -->
<g id="node17" class="node">
<title>Node17</title>
<g id="a_node17"><a xlink:title=" ">
<polygon fill="#e0e0e0" stroke="#999999" points="772.5,-140 718.5,-140 718.5,-121 772.5,-121 772.5,-140"/>
<text text-anchor="middle" x="745.5" y="-128" font-family="Helvetica,sans-Serif" font-size="10.00">iostream</text>
</a>
</g>
</g>
<!-- Node11&#45;&gt;Node17 -->
<g id="edge19" class="edge">
<title>Node11&#45;&gt;Node17</title>
<path fill="none" stroke="#63b8ff" d="M665.79,-175.51C680.49,-167.39 702.39,-155.3 719.52,-145.85"/>
<polygon fill="#63b8ff" stroke="#63b8ff" points="721.07,-148.99 728.13,-141.09 717.68,-142.86 721.07,-148.99"/>
</g>
<!-- Node14&#45;&gt;Node2 -->
<g id="edge18" class="edge">
<title>Node14&#45;&gt;Node2</title>
<path fill="none" stroke="#63b8ff" d="M352.02,-122.24C289.42,-111.75 176.99,-92.77 136.5,-85 131.97,-84.13 127.27,-83.2 122.57,-82.24"/>
<polygon fill="#63b8ff" stroke="#63b8ff" points="123.63,-78.89 113.12,-80.29 122.21,-85.74 123.63,-78.89"/>
</g>
<!-- Node14&#45;&gt;Node4 -->
<g id="edge16" class="edge">
<title>Node14&#45;&gt;Node4</title>
<path fill="none" stroke="#63b8ff" d="M429.02,-120.52C458.67,-112.26 502.93,-99.18 540.5,-85 541.12,-84.77 541.75,-84.52 542.38,-84.28"/>
<polygon fill="#63b8ff" stroke="#63b8ff" points="543.38,-87.65 551.25,-80.56 540.67,-81.2 543.38,-87.65"/>
</g>
<!-- Node15 -->
<g id="node15" class="node">
<title>Node15</title>
<g id="a_node15"><a xlink:title=" ">
<polygon fill="#e0e0e0" stroke="#999999" points="459.5,-79.5 393.5,-79.5 393.5,-60.5 459.5,-60.5 459.5,-79.5"/>
<text text-anchor="middle" x="426.5" y="-67.5" font-family="Helvetica,sans-Serif" font-size="10.00">string_view</text>
</a>
</g>
</g>
<!-- Node14&#45;&gt;Node15 -->
<g id="edge15" class="edge">
<title>Node14&#45;&gt;Node15</title>
<path fill="none" stroke="#63b8ff" d="M400.07,-120.87C404.42,-112.66 411.11,-100.04 416.67,-89.55"/>
<polygon fill="#63b8ff" stroke="#63b8ff" points="419.61,-91.48 421.2,-81 413.42,-88.2 419.61,-91.48"/>
</g>
<!-- Node16 -->
<g id="node16" class="node">
<title>Node16</title>
<g id="a_node16"><a xlink:title=" ">
<polygon fill="#e0e0e0" stroke="#999999" points="531,-79.5 478,-79.5 478,-60.5 531,-60.5 531,-79.5"/>
<text text-anchor="middle" x="504.5" y="-67.5" font-family="Helvetica,sans-Serif" font-size="10.00">gsl/span</text>
</a>
</g>
</g>
<!-- Node14&#45;&gt;Node16 -->
<g id="edge17" class="edge">
<title>Node14&#45;&gt;Node16</title>
<path fill="none" stroke="#63b8ff" d="M412.05,-120.62C429.5,-111.25 457.25,-96.36 477.79,-85.33"/>
<polygon fill="#63b8ff" stroke="#63b8ff" points="479.3,-88.5 486.46,-80.68 475.99,-82.33 479.3,-88.5"/>
</g>
<!-- Node19 -->
<g id="node19" class="node">
<title>Node19</title>
<g id="a_node19"><a xlink:href="block__header_8hpp.html" target="_top" xlink:title=" ">
<polygon fill="white" stroke="#666666" points="539,-580 402,-580 402,-561 539,-561 539,-580"/>
<text text-anchor="middle" x="470.5" y="-568" font-family="Helvetica,sans-Serif" font-size="10.00">primitives/block_header.hpp</text>
</a>
</g>
</g>
<!-- Node18&#45;&gt;Node19 -->
<g id="edge21" class="edge">
<title>Node18&#45;&gt;Node19</title>
<path fill="none" stroke="#63b8ff" d="M254.61,-615.51C299,-606.46 367.59,-592.48 415.51,-582.71"/>
<polygon fill="#63b8ff" stroke="#63b8ff" points="416.03,-586.18 425.13,-580.75 414.63,-579.32 416.03,-586.18"/>
</g>
<!-- Node30 -->
<g id="node30" class="node">
<title>Node30</title>
<g id="a_node30"><a xlink:href="extrinsic_8hpp.html" target="_top" xlink:title=" ">
<polygon fill="white" stroke="#666666" points="366.5,-195 250.5,-195 250.5,-176 366.5,-176 366.5,-195"/>
<text text-anchor="middle" x="308.5" y="-183" font-family="Helvetica,sans-Serif" font-size="10.00">primitives/extrinsic.hpp</text>
</a>
</g>
</g>
<!-- Node18&#45;&gt;Node30 -->
<g id="edge45" class="edge">
<title>Node18&#45;&gt;Node30</title>
<path fill="none" stroke="#63b8ff" d="M205.95,-615.86C192.07,-588.36 152.27,-500.5 170.5,-429 194.12,-336.36 263.34,-242.43 293.81,-204.26"/>
<polygon fill="#63b8ff" stroke="#63b8ff" points="296.46,-206.55 300.04,-196.58 291.03,-202.14 296.46,-206.55"/>
</g>
<!-- Node19&#45;&gt;Node4 -->
<g id="edge23" class="edge">
<title>Node19&#45;&gt;Node4</title>
<path fill="none" stroke="#63b8ff" d="M539.16,-563.08C656.6,-550.17 883.5,-516.05 883.5,-445 883.5,-445 883.5,-445 883.5,-311 883.5,-215.16 857.45,-179.45 781.5,-121 729.4,-80.9 650.1,-72.28 605.34,-70.83"/>
<polygon fill="#63b8ff" stroke="#63b8ff" points="605.53,-67.33 595.46,-70.62 605.38,-74.33 605.53,-67.33"/>
</g>
<!-- Node19&#45;&gt;Node8 -->
<g id="edge26" class="edge">
<title>Node19&#45;&gt;Node8</title>
<path fill="none" stroke="#63b8ff" d="M474.86,-560.66C481.38,-546.09 491.77,-516.5 480.5,-495 467.45,-470.1 441.55,-483.9 428.5,-459 422.31,-447.19 420.65,-439.77 428.5,-429 459.3,-386.75 499.1,-424.94 540.5,-393 561.04,-377.15 575.61,-350.52 583.78,-332.38"/>
<polygon fill="#63b8ff" stroke="#63b8ff" points="586.96,-333.85 587.64,-323.27 580.52,-331.12 586.96,-333.85"/>
</g>
<!-- Node19&#45;&gt;Node11 -->
<g id="edge25" class="edge">
<title>Node19&#45;&gt;Node11</title>
<path fill="none" stroke="#63b8ff" d="M534.99,-560.55C621.48,-544.54 770.66,-501.78 826.5,-393 847.12,-352.83 871.93,-304.52 807.5,-231 780.72,-200.44 734.77,-190.12 699.3,-186.97"/>
<polygon fill="#63b8ff" stroke="#63b8ff" points="699.92,-183.51 689.7,-186.29 699.43,-190.49 699.92,-183.51"/>
</g>
<!-- Node20 -->
<g id="node20" class="node">
<title>Node20</title>
<g id="a_node20"><a xlink:title=" ">
<polygon fill="#e0e0e0" stroke="#999999" points="471.5,-519.5 409.5,-519.5 409.5,-500.5 471.5,-500.5 471.5,-519.5"/>
<text text-anchor="middle" x="440.5" y="-507.5" font-family="Helvetica,sans-Serif" font-size="10.00">type_traits</text>
</a>
</g>
</g>
<!-- Node19&#45;&gt;Node20 -->
<g id="edge22" class="edge">
<title>Node19&#45;&gt;Node20</title>
<path fill="none" stroke="#63b8ff" d="M466.07,-560.87C461.91,-552.75 455.53,-540.31 450.18,-529.89"/>
<polygon fill="#63b8ff" stroke="#63b8ff" points="453.31,-528.32 445.64,-521.01 447.08,-531.51 453.31,-528.32"/>
</g>
<!-- Node21 -->
<g id="node21" class="node">
<title>Node21</title>
<g id="a_node21"><a xlink:title=" ">
<polygon fill="#e0e0e0" stroke="#999999" points="359.5,-393 255.5,-393 255.5,-363 359.5,-363 359.5,-393"/>
<text text-anchor="start" x="263.5" y="-381" font-family="Helvetica,sans-Serif" font-size="10.00">boost/multiprecision</text>
<text text-anchor="middle" x="307.5" y="-370" font-family="Helvetica,sans-Serif" font-size="10.00">/cpp_int.hpp</text>
</a>
</g>
</g>
<!-- Node19&#45;&gt;Node21 -->
<g id="edge24" class="edge">
<title>Node19&#45;&gt;Node21</title>
<path fill="none" stroke="#63b8ff" d="M452.03,-560.58C436.97,-552.69 415.76,-540.09 400.5,-525 363.58,-488.49 334.13,-434.76 318.89,-403.68"/>
<polygon fill="#63b8ff" stroke="#63b8ff" points="322.06,-402.2 314.58,-394.69 315.75,-405.22 322.06,-402.2"/>
</g>
<!-- Node22 -->
<g id="node22" class="node">
<title>Node22</title>
<g id="a_node22"><a xlink:href="compact__integer_8hpp.html" target="_top" xlink:title=" ">
<polygon fill="white" stroke="#666666" points="353,-525 254,-525 254,-495 353,-495 353,-525"/>
<text text-anchor="start" x="262" y="-513" font-family="Helvetica,sans-Serif" font-size="10.00">primitives/compact</text>
<text text-anchor="middle" x="303.5" y="-502" font-family="Helvetica,sans-Serif" font-size="10.00">_integer.hpp</text>
</a>
</g>
</g>
<!-- Node19&#45;&gt;Node22 -->
<g id="edge27" class="edge">
<title>Node19&#45;&gt;Node22</title>
<path fill="none" stroke="#63b8ff" d="M445.14,-560.62C421.41,-552.3 385.24,-539.63 355.4,-529.18"/>
<polygon fill="#63b8ff" stroke="#63b8ff" points="356.74,-525.94 346.15,-525.94 354.43,-532.55 356.74,-525.94"/>
</g>
<!-- Node24 -->
<g id="node24" class="node">
<title>Node24</title>
<g id="a_node24"><a xlink:href="digest_8hpp.html" target="_top" xlink:title=" ">
<polygon fill="white" stroke="#666666" points="633.5,-519.5 527.5,-519.5 527.5,-500.5 633.5,-500.5 633.5,-519.5"/>
<text text-anchor="middle" x="580.5" y="-507.5" font-family="Helvetica,sans-Serif" font-size="10.00">primitives/digest.hpp</text>
</a>
</g>
</g>
<!-- Node19&#45;&gt;Node24 -->
<g id="edge32" class="edge">
<title>Node19&#45;&gt;Node24</title>
<path fill="none" stroke="#63b8ff" d="M487.21,-560.62C504.81,-551.25 532.81,-536.36 553.55,-525.33"/>
<polygon fill="#63b8ff" stroke="#63b8ff" points="555.11,-528.46 562.3,-520.68 551.83,-522.28 555.11,-528.46"/>
</g>
<!-- Node23 -->
<g id="node23" class="node">
<title>Node23</title>
<g id="a_node23"><a xlink:href="scale_2types_8hpp.html" target="_top" xlink:title=" ">
<polygon fill="white" stroke="#666666" points="263.5,-453.5 179.5,-453.5 179.5,-434.5 263.5,-434.5 263.5,-453.5"/>
<text text-anchor="middle" x="221.5" y="-441.5" font-family="Helvetica,sans-Serif" font-size="10.00">scale/types.hpp</text>
</a>
</g>
</g>
<!-- Node22&#45;&gt;Node23 -->
<g id="edge28" class="edge">
<title>Node22&#45;&gt;Node23</title>
<path fill="none" stroke="#63b8ff" d="M285.3,-494.8C272.39,-484.72 255.06,-471.19 241.72,-460.78"/>
<polygon fill="#63b8ff" stroke="#63b8ff" points="244.06,-458.17 234.02,-454.78 239.75,-463.69 244.06,-458.17"/>
</g>
<!-- Node23&#45;&gt;Node2 -->
<g id="edge31" class="edge">
<title>Node23&#45;&gt;Node2</title>
<path fill="none" stroke="#63b8ff" d="M214.53,-434.19C200.02,-415.48 166.25,-369.92 146.5,-327 136.32,-304.88 91.66,-146.62 75.97,-90.6"/>
<polygon fill="#63b8ff" stroke="#63b8ff" points="79.41,-89.89 73.34,-81.2 72.66,-91.77 79.41,-89.89"/>
</g>
<!-- Node23&#45;&gt;Node4 -->
<g id="edge29" class="edge">
<title>Node23&#45;&gt;Node4</title>
<path fill="none" stroke="#63b8ff" d="M221.66,-434.17C222.46,-417.78 226.54,-382.55 246.5,-363 287.49,-322.84 319.68,-353.66 370.5,-327 411.62,-305.43 420.7,-295.75 451.5,-261 501.47,-204.62 544.33,-125.19 562.38,-89.56"/>
<polygon fill="#63b8ff" stroke="#63b8ff" points="565.33,-91.48 566.67,-80.97 559.07,-88.36 565.33,-91.48"/>
</g>
<!-- Node23&#45;&gt;Node21 -->
<g id="edge30" class="edge">
<title>Node23&#45;&gt;Node21</title>
<path fill="none" stroke="#63b8ff" d="M233.46,-434.1C245.15,-425.4 263.41,-411.81 278.87,-400.31"/>
<polygon fill="#63b8ff" stroke="#63b8ff" points="280.9,-403.16 286.83,-394.38 276.72,-397.54 280.9,-403.16"/>
</g>
<!-- Node25 -->
<g id="node25" class="node">
<title>Node25</title>
<g id="a_node25"><a xlink:title=" ">
<polygon fill="#e0e0e0" stroke="#999999" points="779,-255.5 688,-255.5 688,-236.5 779,-236.5 779,-255.5"/>
<text text-anchor="middle" x="733.5" y="-243.5" font-family="Helvetica,sans-Serif" font-size="10.00">boost/variant.hpp</text>
</a>
</g>
</g>
<!-- Node24&#45;&gt;Node25 -->
<g id="edge33" class="edge">
<title>Node24&#45;&gt;Node25</title>
<path fill="none" stroke="#63b8ff" d="M602.83,-500.15C620.78,-491.97 645.4,-478.17 660.5,-459 688.32,-423.66 677.89,-405.54 692.5,-363 704.2,-328.92 718.28,-289.39 726.53,-266.39"/>
<polygon fill="#63b8ff" stroke="#63b8ff" points="729.76,-267.73 729.85,-257.14 723.18,-265.37 729.76,-267.73"/>
</g>
<!-- Node26 -->
<g id="node26" class="node">
<title>Node26</title>
<g id="a_node26"><a xlink:href="buffer_8hpp.html" target="_top" xlink:title=" ">
<polygon fill="white" stroke="#666666" points="334,-140 251,-140 251,-121 334,-121 334,-140"/>
<text text-anchor="middle" x="292.5" y="-128" font-family="Helvetica,sans-Serif" font-size="10.00">base/buffer.hpp</text>
</a>
</g>
</g>
<!-- Node24&#45;&gt;Node26 -->
<g id="edge34" class="edge">
<title>Node24&#45;&gt;Node26</title>
<path fill="none" stroke="#63b8ff" d="M527.29,-500.86C495.97,-493.93 457.03,-481.37 428.5,-459 388.91,-427.95 408.7,-393.26 368.5,-363 321.97,-327.97 277.75,-373.36 242.5,-327 201.88,-273.57 213.73,-237.1 241.5,-176 246.88,-164.16 257.14,-154.25 267.05,-146.8"/>
<polygon fill="#63b8ff" stroke="#63b8ff" points="268.79,-149.85 275.03,-141.3 264.81,-144.09 268.79,-149.85"/>
</g>
<!-- Node28 -->
<g id="node28" class="node">
<title>Node28</title>
<g id="a_node28"><a xlink:href="unused_8hpp.html" target="_top" xlink:title=" ">
<polygon fill="white" stroke="#666666" points="527.5,-453.5 437.5,-453.5 437.5,-434.5 527.5,-434.5 527.5,-453.5"/>
<text text-anchor="middle" x="482.5" y="-441.5" font-family="Helvetica,sans-Serif" font-size="10.00">base/unused.hpp</text>
</a>
</g>
</g>
<!-- Node24&#45;&gt;Node28 -->
<g id="edge41" class="edge">
<title>Node24&#45;&gt;Node28</title>
<path fill="none" stroke="#63b8ff" d="M566.87,-500.1C551,-489.74 524.53,-472.45 505.47,-460"/>
<polygon fill="#63b8ff" stroke="#63b8ff" points="507.56,-457.19 497.28,-454.65 503.74,-463.05 507.56,-457.19"/>
</g>
<!-- Node29 -->
<g id="node29" class="node">
<title>Node29</title>
<g id="a_node29"><a xlink:href="scheduled__change_8hpp.html" target="_top" xlink:title=" ">
<polygon fill="white" stroke="#666666" points="651.5,-459 545.5,-459 545.5,-429 651.5,-429 651.5,-459"/>
<text text-anchor="start" x="553.5" y="-447" font-family="Helvetica,sans-Serif" font-size="10.00">primitives/scheduled</text>
<text text-anchor="middle" x="598.5" y="-436" font-family="Helvetica,sans-Serif" font-size="10.00">_change.hpp</text>
</a>
</g>
</g>
<!-- Node24&#45;&gt;Node29 -->
<g id="edge42" class="edge">
<title>Node24&#45;&gt;Node29</title>
<path fill="none" stroke="#63b8ff" d="M583,-500.1C585.19,-492.33 588.47,-480.67 591.45,-470.08"/>
<polygon fill="#63b8ff" stroke="#63b8ff" points="594.75,-471.26 594.09,-460.69 588.01,-469.37 594.75,-471.26"/>
</g>
<!-- Node26&#45;&gt;Node2 -->
<g id="edge40" class="edge">
<title>Node26&#45;&gt;Node2</title>
<path fill="none" stroke="#63b8ff" d="M258.78,-120.62C220.56,-110.54 158.07,-94.08 115.66,-82.9"/>
<polygon fill="#63b8ff" stroke="#63b8ff" points="116.56,-79.52 106,-80.35 114.78,-86.29 116.56,-79.52"/>
</g>
<!-- Node26&#45;&gt;Node4 -->
<g id="edge36" class="edge">
<title>Node26&#45;&gt;Node4</title>
<path fill="none" stroke="#63b8ff" d="M334.44,-122.25C402.56,-110.44 530.72,-88.03 540.5,-85 541.46,-84.7 542.43,-84.38 543.41,-84.04"/>
<polygon fill="#63b8ff" stroke="#63b8ff" points="544.36,-87.43 552.35,-80.47 541.77,-80.93 544.36,-87.43"/>
</g>
<!-- Node26&#45;&gt;Node9 -->
<g id="edge38" class="edge">
<title>Node26&#45;&gt;Node9</title>
<path fill="none" stroke="#63b8ff" d="M277.92,-120.62C262.84,-111.42 239.01,-96.91 221.02,-85.94"/>
<polygon fill="#63b8ff" stroke="#63b8ff" points="222.87,-82.97 212.51,-80.76 219.23,-88.95 222.87,-82.97"/>
</g>
<!-- Node26&#45;&gt;Node15 -->
<g id="edge35" class="edge">
<title>Node26&#45;&gt;Node15</title>
<path fill="none" stroke="#63b8ff" d="M312.85,-120.62C334.89,-110.99 370.29,-95.54 395.73,-84.43"/>
<polygon fill="#63b8ff" stroke="#63b8ff" points="396.81,-87.78 404.57,-80.57 394,-81.37 396.81,-87.78"/>
</g>
<!-- Node26&#45;&gt;Node16 -->
<g id="edge39" class="edge">
<title>Node26&#45;&gt;Node16</title>
<path fill="none" stroke="#63b8ff" d="M333.8,-120.57C369.73,-112.45 423.02,-99.53 468.5,-85 469.83,-84.58 471.18,-84.13 472.54,-83.66"/>
<polygon fill="#63b8ff" stroke="#63b8ff" points="473.33,-87.1 481.53,-80.39 470.94,-80.52 473.33,-87.1"/>
</g>
<!-- Node27 -->
<g id="node27" class="node">
<title>Node27</title>
<g id="a_node27"><a xlink:title=" ">
<polygon fill="#e0e0e0" stroke="#999999" points="375.5,-85 265.5,-85 265.5,-55 375.5,-55 375.5,-85"/>
<text text-anchor="start" x="273.5" y="-73" font-family="Helvetica,sans-Serif" font-size="10.00">boost/container_hash</text>
<text text-anchor="middle" x="320.5" y="-62" font-family="Helvetica,sans-Serif" font-size="10.00">/hash.hpp</text>
</a>
</g>
</g>
<!-- Node26&#45;&gt;Node27 -->
<g id="edge37" class="edge">
<title>Node26&#45;&gt;Node27</title>
<path fill="none" stroke="#63b8ff" d="M296.63,-120.87C299.87,-114.11 304.54,-104.35 308.89,-95.26"/>
<polygon fill="#63b8ff" stroke="#63b8ff" points="311.93,-97.01 313.09,-86.48 305.62,-93.99 311.93,-97.01"/>
</g>
<!-- Node29&#45;&gt;Node5 -->
<g id="edge43" class="edge">
<title>Node29&#45;&gt;Node5</title>
<path fill="none" stroke="#63b8ff" d="M570.45,-428.64C549.73,-418.03 521.67,-403.66 501.07,-393.11"/>
<polygon fill="#63b8ff" stroke="#63b8ff" points="502.89,-390.12 492.4,-388.68 499.7,-396.35 502.89,-390.12"/>
</g>
<!-- Node29&#45;&gt;Node8 -->
<g id="edge44" class="edge">
<title>Node29&#45;&gt;Node8</title>
<path fill="none" stroke="#63b8ff" d="M597.72,-428.59C596.47,-405.3 593.99,-359.32 592.57,-332.91"/>
<polygon fill="#63b8ff" stroke="#63b8ff" points="596.08,-333.02 592.05,-323.22 589.09,-333.39 596.08,-333.02"/>
</g>
<!-- Node30&#45;&gt;Node26 -->
<g id="edge46" class="edge">
<title>Node30&#45;&gt;Node26</title>
<path fill="none" stroke="#63b8ff" d="M305.86,-175.75C303.86,-169.11 301.02,-159.73 298.48,-151.31"/>
<polygon fill="#63b8ff" stroke="#63b8ff" points="301.88,-150.45 295.64,-141.89 295.18,-152.48 301.88,-150.45"/>
</g>
<!-- Node31&#45;&gt;Node8 -->
<g id="edge50" class="edge">
<title>Node31&#45;&gt;Node8</title>
<path fill="none" stroke="#63b8ff" d="M736.14,-368.1C707.38,-357.15 658.33,-338.46 625.42,-325.92"/>
<polygon fill="#63b8ff" stroke="#63b8ff" points="626.94,-322.75 616.35,-322.47 624.44,-329.3 626.94,-322.75"/>
</g>
<!-- Node31&#45;&gt;Node11 -->
<g id="edge49" class="edge">
<title>Node31&#45;&gt;Node11</title>
<path fill="none" stroke="#63b8ff" d="M765.52,-368.11C781.24,-343.66 820.19,-274.42 788.5,-231 768.28,-203.29 730.57,-192.45 699.53,-188.37"/>
<polygon fill="#63b8ff" stroke="#63b8ff" points="700.27,-184.93 689.94,-187.33 699.51,-191.89 700.27,-184.93"/>
</g>
<!-- Node31&#45;&gt;Node25 -->
<g id="edge48" class="edge">
<title>Node31&#45;&gt;Node25</title>
<path fill="none" stroke="#63b8ff" d="M757.71,-368.06C753.58,-347.38 743.25,-295.77 737.51,-267.06"/>
<polygon fill="#63b8ff" stroke="#63b8ff" points="740.99,-266.6 735.6,-257.48 734.13,-267.97 740.99,-266.6"/>
</g>
<!-- Node32&#45;&gt;Node2 -->
<g id="edge56" class="edge">
<title>Node32&#45;&gt;Node2</title>
<path fill="none" stroke="#63b8ff" d="M266.68,-296.62C247.54,-288.31 225.19,-276.42 208.5,-261 154.86,-211.45 168.3,-177.88 122.5,-121 112.66,-108.78 99.99,-96.54 89.63,-87.23"/>
<polygon fill="#63b8ff" stroke="#63b8ff" points="92.2,-84.84 82.38,-80.88 87.59,-90.1 92.2,-84.84"/>
</g>
<!-- Node32&#45;&gt;Node4 -->
<g id="edge54" class="edge">
<title>Node32&#45;&gt;Node4</title>
<path fill="none" stroke="#63b8ff" d="M361.75,-297.24C383.73,-289.53 407.91,-277.95 425.5,-261 474.9,-213.39 444.95,-172.29 490.5,-121 498.58,-111.9 524.19,-96.71 544.47,-85.46"/>
<polygon fill="#63b8ff" stroke="#63b8ff" points="546.05,-88.59 553.14,-80.72 542.69,-82.45 546.05,-88.59"/>
</g>
<!-- Node32&#45;&gt;Node6 -->
<g id="edge53" class="edge">
<title>Node32&#45;&gt;Node6</title>
<path fill="none" stroke="#63b8ff" d="M357.73,-296.56C400.98,-284.36 461.71,-267.24 499.28,-256.65"/>
<polygon fill="#63b8ff" stroke="#63b8ff" points="500.02,-260.07 508.7,-253.99 498.12,-253.34 500.02,-260.07"/>
</g>
<!-- Node32&#45;&gt;Node25 -->
<g id="edge55" class="edge">
<title>Node32&#45;&gt;Node25</title>
<path fill="none" stroke="#63b8ff" d="M361.82,-305.69C434.95,-298.19 567.62,-282.92 679.5,-261 683.11,-260.29 686.84,-259.49 690.57,-258.63"/>
<polygon fill="#63b8ff" stroke="#63b8ff" points="691.3,-262.05 700.19,-256.29 689.65,-255.25 691.3,-262.05"/>
</g>
<!-- Node33 -->
<g id="node33" class="node">
<title>Node33</title>
<g id="a_node33"><a xlink:href="transaction_8hpp.html" target="_top" xlink:title=" ">
<polygon fill="white" stroke="#666666" points="416.5,-255.5 288.5,-255.5 288.5,-236.5 416.5,-236.5 416.5,-255.5"/>
<text text-anchor="middle" x="352.5" y="-243.5" font-family="Helvetica,sans-Serif" font-size="10.00">primitives/transaction.hpp</text>
</a>
</g>
</g>
<!-- Node32&#45;&gt;Node33 -->
<g id="edge57" class="edge">
<title>Node32&#45;&gt;Node33</title>
<path fill="none" stroke="#63b8ff" d="M316.71,-296.8C323.46,-287.41 332.36,-275.02 339.6,-264.95"/>
<polygon fill="#63b8ff" stroke="#63b8ff" points="342.27,-267.24 345.26,-257.07 336.58,-263.15 342.27,-267.24"/>
</g>
<!-- Node33&#45;&gt;Node11 -->
<g id="edge58" class="edge">
<title>Node33&#45;&gt;Node11</title>
<path fill="none" stroke="#63b8ff" d="M397.93,-236.05C452.36,-225.33 543.23,-207.43 599.57,-196.33"/>
<polygon fill="#63b8ff" stroke="#63b8ff" points="600.08,-199.8 609.22,-194.43 598.73,-192.93 600.08,-199.8"/>
</g>
<!-- Node33&#45;&gt;Node30 -->
<g id="edge59" class="edge">
<title>Node33&#45;&gt;Node30</title>
<path fill="none" stroke="#63b8ff" d="M346.01,-236.37C339.64,-227.9 329.74,-214.74 321.71,-204.07"/>
<polygon fill="#63b8ff" stroke="#63b8ff" points="324.74,-202.26 315.93,-196.38 319.14,-206.47 324.74,-202.26"/>
</g>
<!-- Node34&#45;&gt;Node4 -->
<g id="edge63" class="edge">
<title>Node34&#45;&gt;Node4</title>
<path fill="none" stroke="#63b8ff" d="M1007.89,-175.73C1011.02,-162.05 1014.62,-135.65 1000.5,-121 973.16,-92.61 701.34,-77.13 605.08,-72.5"/>
<polygon fill="#63b8ff" stroke="#63b8ff" points="605.39,-69.01 595.23,-72.04 605.06,-76 605.39,-69.01"/>
</g>
<!-- Node34&#45;&gt;Node12 -->
<g id="edge61" class="edge">
<title>Node34&#45;&gt;Node12</title>
<path fill="none" stroke="#63b8ff" d="M983.28,-175.51C961.6,-166.74 928.47,-153.34 904.47,-143.63"/>
<polygon fill="#63b8ff" stroke="#63b8ff" points="905.82,-140.4 895.24,-139.89 903.2,-146.89 905.82,-140.4"/>
</g>
<!-- Node35 -->
<g id="node35" class="node">
<title>Node35</title>
<g id="a_node35"><a xlink:title=" ">
<polygon fill="#e0e0e0" stroke="#999999" points="991,-140 950,-140 950,-121 991,-121 991,-140"/>
<text text-anchor="middle" x="970.5" y="-128" font-family="Helvetica,sans-Serif" font-size="10.00">string</text>
</a>
</g>
</g>
<!-- Node34&#45;&gt;Node35 -->
<g id="edge62" class="edge">
<title>Node34&#45;&gt;Node35</title>
<path fill="none" stroke="#63b8ff" d="M999.72,-175.75C995.09,-168.73 988.43,-158.64 982.63,-149.87"/>
<polygon fill="#63b8ff" stroke="#63b8ff" points="985.67,-148.12 977.24,-141.71 979.83,-151.98 985.67,-148.12"/>
</g>
</g>
</svg>
        <g id="navigator" transform="translate(0 0)" fill="#404254">
                <rect fill="#f2f5e9" fill-opacity="0.5" stroke="#606060" stroke-width=".5" x="0" y="0" width="60" height="60"/>
                <use id="zoomplus" xlink:href="#zoomPlus" x="17" y="9" onmousedown="handleZoom(evt,'in')"/>
                <use id="zoomminus" xlink:href="#zoomMin" x="42" y="9" onmousedown="handleZoom(evt,'out')"/>
                <use id="reset" xlink:href="#resetDef" x="30" y="36" onmousedown="handleReset()"/>
                <g id="arrowUp" xlink:href="#dirArrow" transform="translate(30 24)" onmousedown="handlePan(0,-1)">
                  <use xlink:href="#rim" fill="#404040">
                        <set attributeName="fill" to="#808080" begin="arrowUp.mouseover" end="arrowUp.mouseout"/>
                  </use>
                  <path fill="none" stroke="white" stroke-width="1.5" d="M0,-3.0v7 M-2.5,-0.5L0,-3.0L2.5,-0.5"/>
                </g>
                <g id="arrowRight" xlink:href="#dirArrow" transform="rotate(90) translate(36 -43)" onmousedown="handlePan(1,0)">
                  <use xlink:href="#rim" fill="#404040">
                        <set attributeName="fill" to="#808080" begin="arrowRight.mouseover" end="arrowRight.mouseout"/>
                  </use>
                  <path fill="none" stroke="white" stroke-width="1.5" d="M0,-3.0v7 M-2.5,-0.5L0,-3.0L2.5,-0.5"/>
                </g>
                <g id="arrowDown" xlink:href="#dirArrow" transform="rotate(180) translate(-30 -48)" onmousedown="handlePan(0,1)">
                  <use xlink:href="#rim" fill="#404040">
                        <set attributeName="fill" to="#808080" begin="arrowDown.mouseover" end="arrowDown.mouseout"/>
                  </use>
                  <path fill="none" stroke="white" stroke-width="1.5" d="M0,-3.0v7 M-2.5,-0.5L0,-3.0L2.5,-0.5"/>
                </g>
                <g id="arrowLeft" xlink:href="#dirArrow" transform="rotate(270) translate(-36 17)" onmousedown="handlePan(-1,0)">
                  <use xlink:href="#rim" fill="#404040">
                        <set attributeName="fill" to="#808080" begin="arrowLeft.mouseover" end="arrowLeft.mouseout"/>
                  </use>
                  <path fill="none" stroke="white" stroke-width="1.5" d="M0,-3.0v7 M-2.5,-0.5L0,-3.0L2.5,-0.5"/>
                </g>
        </g>
        <svg viewBox="0 0 15 15" width="100%" height="30px" preserveAspectRatio="xMaxYMin meet">
         <g id="arrow_out" transform="scale(0.3 0.3)">
          <a xlink:href="core_8hpp__incl_org.svg" target="_base">
           <rect id="button" ry="5" rx="5" y="6" x="6" height="38" width="38"
                fill="#f2f5e9" fill-opacity="0.5" stroke="#606060" stroke-width="1.0"/>
           <path id="arrow"
             d="M 11.500037,31.436501 C 11.940474,20.09759 22.043105,11.32322 32.158766,21.979434 L 37.068811,17.246167 C 37.068811,17.246167 37.088388,32 37.088388,32 L 22.160133,31.978069 C 22.160133,31.978069 26.997745,27.140456 26.997745,27.140456 C 18.528582,18.264221 13.291696,25.230495 11.500037,31.436501 z"
             style="fill:#404040;"/>
          </a>
         </g>
        </svg>
</svg>
