<?xml version="1.0" encoding="UTF-8" standalone="no"?>
<!DOCTYPE svg PUBLIC "-//W3C//DTD SVG 1.1//EN"
 "http://www.w3.org/Graphics/SVG/1.1/DTD/svg11.dtd">
<!-- Generated by graphviz version 7.0.5 (20221223.1930)
 -->
<!-- Title: src/crdt/crdt_options.hpp Pages: 1 -->
<svg width="442pt" height="203pt"
 viewBox="0.00 0.00 442.00 203.00" xmlns="http://www.w3.org/2000/svg" xmlns:xlink="http://www.w3.org/1999/xlink">
<g id="graph0" class="graph" transform="scale(1 1) rotate(0) translate(4 199)">
<title>src/crdt/crdt_options.hpp</title>
<!-- Node1 -->
<g id="node1" class="node">
<title>Node1</title>
<g id="a_node1"><a xlink:title=" ">
<polygon fill="#999999" stroke="#666666" points="185,-195 61,-195 61,-176 185,-176 185,-195"/>
<text text-anchor="middle" x="123" y="-183" font-family="Helvetica,sans-Serif" font-size="10.00">src/crdt/crdt_options.hpp</text>
</a>
</g>
</g>
<!-- Node2 -->
<g id="node2" class="node">
<title>Node2</title>
<g id="a_node2"><a xlink:href="crdt__datastore_8hpp.html" target="_top" xlink:title=" ">
<polygon fill="white" stroke="#666666" points="240.5,-140 107.5,-140 107.5,-121 240.5,-121 240.5,-140"/>
<text text-anchor="middle" x="174" y="-128" font-family="Helvetica,sans-Serif" font-size="10.00">src/crdt/crdt_datastore.hpp</text>
</a>
</g>
</g>
<!-- Node1&#45;&gt;Node2 -->
<g id="edge1" class="edge">
<title>Node1&#45;&gt;Node2</title>
<path fill="none" stroke="#63b8ff" d="M139.36,-167.5C148.02,-158.5 158.3,-147.82 165.4,-140.44"/>
<polygon fill="#63b8ff" stroke="#63b8ff" points="136.88,-165.02 132.47,-174.66 141.93,-169.88 136.88,-165.02"/>
</g>
<!-- Node4 -->
<g id="node4" class="node">
<title>Node4</title>
<g id="a_node4"><a xlink:href="globaldb_8hpp.html" target="_top" xlink:title=" ">
<polygon fill="white" stroke="#666666" points="146,-79.5 0,-79.5 0,-60.5 146,-60.5 146,-79.5"/>
<text text-anchor="middle" x="73" y="-67.5" font-family="Helvetica,sans-Serif" font-size="10.00">src/crdt/globaldb/globaldb.hpp</text>
</a>
</g>
</g>
<!-- Node1&#45;&gt;Node4 -->
<g id="edge7" class="edge">
<title>Node1&#45;&gt;Node4</title>
<path fill="none" stroke="#63b8ff" d="M111.52,-165.67C107,-157.87 101.96,-148.65 98,-140 88.34,-118.92 79.78,-92.94 75.64,-79.68"/>
<polygon fill="#63b8ff" stroke="#63b8ff" points="108.48,-167.42 116.6,-174.22 114.5,-163.84 108.48,-167.42"/>
</g>
<!-- Node3 -->
<g id="node3" class="node">
<title>Node3</title>
<g id="a_node3"><a xlink:href="globaldb_8cpp.html" target="_top" xlink:title=" ">
<polygon fill="white" stroke="#666666" points="196,-19 50,-19 50,0 196,0 196,-19"/>
<text text-anchor="middle" x="123" y="-7" font-family="Helvetica,sans-Serif" font-size="10.00">src/crdt/globaldb/globaldb.cpp</text>
</a>
</g>
</g>
<!-- Node2&#45;&gt;Node3 -->
<g id="edge2" class="edge">
<title>Node2&#45;&gt;Node3</title>
<path fill="none" stroke="#63b8ff" d="M171.02,-109.62C168.21,-94.2 163.2,-72.58 155,-55 148.72,-41.55 138.21,-27.97 130.96,-19.41"/>
<polygon fill="#63b8ff" stroke="#63b8ff" points="167.55,-110.09 172.62,-119.39 174.45,-108.95 167.55,-110.09"/>
</g>
<!-- Node2&#45;&gt;Node4 -->
<g id="edge3" class="edge">
<title>Node2&#45;&gt;Node4</title>
<path fill="none" stroke="#63b8ff" d="M148.9,-114.96C129.95,-103.99 104.56,-89.28 88.48,-79.97"/>
<polygon fill="#63b8ff" stroke="#63b8ff" points="146.94,-117.87 157.35,-119.86 150.45,-111.82 146.94,-117.87"/>
</g>
<!-- Node5 -->
<g id="node5" class="node">
<title>Node5</title>
<g id="a_node5"><a xlink:href="pubsub__broadcaster__ext_8cpp.html" target="_top" xlink:title=" ">
<polygon fill="white" stroke="#666666" points="325.5,-85 202.5,-85 202.5,-55 325.5,-55 325.5,-85"/>
<text text-anchor="start" x="210.5" y="-73" font-family="Helvetica,sans-Serif" font-size="10.00">src/crdt/globaldb/pubsub</text>
<text text-anchor="middle" x="264" y="-62" font-family="Helvetica,sans-Serif" font-size="10.00">_broadcaster_ext.cpp</text>
</a>
</g>
</g>
<!-- Node2&#45;&gt;Node5 -->
<g id="edge5" class="edge">
<title>Node2&#45;&gt;Node5</title>
<path fill="none" stroke="#63b8ff" d="M196.94,-114.59C210.71,-105.64 228.15,-94.3 241.79,-85.44"/>
<polygon fill="#63b8ff" stroke="#63b8ff" points="195.42,-111.41 188.94,-119.79 199.23,-117.27 195.42,-111.41"/>
</g>
<!-- Node6 -->
<g id="node6" class="node">
<title>Node6</title>
<g id="a_node6"><a xlink:href="crdt__datastore_8cpp.html" target="_top" xlink:title=" ">
<polygon fill="white" stroke="#666666" points="434,-85 344,-85 344,-55 434,-55 434,-85"/>
<text text-anchor="start" x="352" y="-73" font-family="Helvetica,sans-Serif" font-size="10.00">src/crdt/impl/crdt</text>
<text text-anchor="middle" x="389" y="-62" font-family="Helvetica,sans-Serif" font-size="10.00">_datastore.cpp</text>
</a>
</g>
</g>
<!-- Node2&#45;&gt;Node6 -->
<g id="edge6" class="edge">
<title>Node2&#45;&gt;Node6</title>
<path fill="none" stroke="#63b8ff" d="M217.5,-117.66C254.17,-107.69 306.46,-93.46 343.65,-83.34"/>
<polygon fill="#63b8ff" stroke="#63b8ff" points="216.84,-114.21 208.11,-120.22 218.68,-120.97 216.84,-114.21"/>
</g>
<!-- Node4&#45;&gt;Node3 -->
<g id="edge4" class="edge">
<title>Node4&#45;&gt;Node3</title>
<path fill="none" stroke="#63b8ff" d="M87.7,-51.8C96.86,-41.08 108.27,-27.73 115.59,-19.17"/>
<polygon fill="#63b8ff" stroke="#63b8ff" points="85.2,-49.34 81.36,-59.22 90.52,-53.89 85.2,-49.34"/>
</g>
</g>
</svg>
