<?xml version="1.0" encoding="UTF-8" standalone="no"?>
<!DOCTYPE svg PUBLIC "-//W3C//DTD SVG 1.1//EN"
 "http://www.w3.org/Graphics/SVG/1.1/DTD/svg11.dtd">
<!-- Generated by graphviz version 7.0.5 (20221223.1930)
 -->
<!-- Title: src/crdt/impl/crdt_set.cpp Pages: 1 -->
<svg width="1436pt" height="643pt"
 viewBox="0.00 0.00 1436.00 643.00" xmlns="http://www.w3.org/2000/svg" xmlns:xlink="http://www.w3.org/1999/xlink">
<g id="graph0" class="graph" transform="scale(1 1) rotate(0) translate(4 639)">
<title>src/crdt/impl/crdt_set.cpp</title>
<!-- Node1 -->
<g id="node1" class="node">
<title>Node1</title>
<g id="a_node1"><a xlink:title=" ">
<polygon fill="#999999" stroke="#666666" points="1161.5,-635 1071.5,-635 1071.5,-605 1161.5,-605 1161.5,-635"/>
<text text-anchor="start" x="1079.5" y="-623" font-family="Helvetica,sans-Serif" font-size="10.00">src/crdt/impl/crdt</text>
<text text-anchor="middle" x="1116.5" y="-612" font-family="Helvetica,sans-Serif" font-size="10.00">_set.cpp</text>
</a>
</g>
</g>
<!-- Node2 -->
<g id="node2" class="node">
<title>Node2</title>
<g id="a_node2"><a xlink:href="crdt__set_8hpp.html" target="_top" xlink:title=" ">
<polygon fill="white" stroke="#666666" points="859,-563.5 770,-563.5 770,-544.5 859,-544.5 859,-563.5"/>
<text text-anchor="middle" x="814.5" y="-551.5" font-family="Helvetica,sans-Serif" font-size="10.00">crdt/crdt_set.hpp</text>
</a>
</g>
</g>
<!-- Node1&#45;&gt;Node2 -->
<g id="edge1" class="edge">
<title>Node1&#45;&gt;Node2</title>
<path fill="none" stroke="#63b8ff" d="M1071.29,-609.42C1016.83,-597.88 925.49,-578.52 867.7,-566.27"/>
<polygon fill="#63b8ff" stroke="#63b8ff" points="868.6,-562.89 858.09,-564.24 867.14,-569.73 868.6,-562.89"/>
</g>
<!-- Node34 -->
<g id="node34" class="node">
<title>Node34</title>
<g id="a_node34"><a xlink:href="database__error_8hpp.html" target="_top" xlink:title=" ">
<polygon fill="white" stroke="#666666" points="995.5,-129 861.5,-129 861.5,-110 995.5,-110 995.5,-129"/>
<text text-anchor="middle" x="928.5" y="-117" font-family="Helvetica,sans-Serif" font-size="10.00">storage/database_error.hpp</text>
</a>
</g>
</g>
<!-- Node1&#45;&gt;Node34 -->
<g id="edge44" class="edge">
<title>Node1&#45;&gt;Node34</title>
<path fill="none" stroke="#63b8ff" d="M1085.89,-604.66C1071.04,-596.24 1054.15,-584.24 1043.5,-569 1023.93,-540.99 1024.5,-528.67 1024.5,-494.5 1024.5,-494.5 1024.5,-494.5 1024.5,-239.5 1024.5,-193.67 980.84,-155.53 952.41,-135.56"/>
<polygon fill="#63b8ff" stroke="#63b8ff" points="954.58,-132.8 944.34,-130.11 950.67,-138.61 954.58,-132.8"/>
</g>
<!-- Node35 -->
<g id="node35" class="node">
<title>Node35</title>
<g id="a_node35"><a xlink:title=" ">
<polygon fill="#e0e0e0" stroke="#999999" points="1180.5,-563.5 1052.5,-563.5 1052.5,-544.5 1180.5,-544.5 1180.5,-563.5"/>
<text text-anchor="middle" x="1116.5" y="-551.5" font-family="Helvetica,sans-Serif" font-size="10.00">boost/algorithm/string.hpp</text>
</a>
</g>
</g>
<!-- Node1&#45;&gt;Node35 -->
<g id="edge46" class="edge">
<title>Node1&#45;&gt;Node35</title>
<path fill="none" stroke="#63b8ff" d="M1116.5,-604.8C1116.5,-596.09 1116.5,-584.81 1116.5,-575.18"/>
<polygon fill="#63b8ff" stroke="#63b8ff" points="1120,-575.36 1116.5,-565.36 1113,-575.36 1120,-575.36"/>
</g>
<!-- Node36 -->
<g id="node36" class="node">
<title>Node36</title>
<g id="a_node36"><a xlink:title=" ">
<polygon fill="#e0e0e0" stroke="#999999" points="1296.5,-569 1198.5,-569 1198.5,-539 1296.5,-539 1296.5,-569"/>
<text text-anchor="start" x="1206.5" y="-557" font-family="Helvetica,sans-Serif" font-size="10.00">boost/system/error</text>
<text text-anchor="middle" x="1247.5" y="-546" font-family="Helvetica,sans-Serif" font-size="10.00">_code.hpp</text>
</a>
</g>
</g>
<!-- Node1&#45;&gt;Node36 -->
<g id="edge47" class="edge">
<title>Node1&#45;&gt;Node36</title>
<path fill="none" stroke="#63b8ff" d="M1145.9,-604.64C1164.19,-595.7 1187.94,-584.1 1207.87,-574.36"/>
<polygon fill="#63b8ff" stroke="#63b8ff" points="1209.39,-577.51 1216.84,-569.98 1206.32,-571.22 1209.39,-577.51"/>
</g>
<!-- Node37 -->
<g id="node37" class="node">
<title>Node37</title>
<g id="a_node37"><a xlink:title=" ">
<polygon fill="#e0e0e0" stroke="#999999" points="1428,-563.5 1315,-563.5 1315,-544.5 1428,-544.5 1428,-563.5"/>
<text text-anchor="middle" x="1371.5" y="-551.5" font-family="Helvetica,sans-Serif" font-size="10.00">boost/lexical_cast.hpp</text>
</a>
</g>
</g>
<!-- Node1&#45;&gt;Node37 -->
<g id="edge48" class="edge">
<title>Node1&#45;&gt;Node37</title>
<path fill="none" stroke="#63b8ff" d="M1161.8,-607.63C1207.67,-596.12 1278.31,-578.39 1324.72,-566.74"/>
<polygon fill="#63b8ff" stroke="#63b8ff" points="1325.36,-570.19 1334.21,-564.36 1323.65,-563.4 1325.36,-570.19"/>
</g>
<!-- Node3 -->
<g id="node3" class="node">
<title>Node3</title>
<g id="a_node3"><a xlink:title=" ">
<polygon fill="#e0e0e0" stroke="#999999" points="450,-503 407,-503 407,-484 450,-484 450,-503"/>
<text text-anchor="middle" x="428.5" y="-491" font-family="Helvetica,sans-Serif" font-size="10.00">mutex</text>
</a>
</g>
</g>
<!-- Node2&#45;&gt;Node3 -->
<g id="edge2" class="edge">
<title>Node2&#45;&gt;Node3</title>
<path fill="none" stroke="#63b8ff" d="M769.63,-548.54C704.08,-541.62 578.16,-526.79 461.67,-503.2"/>
<polygon fill="#63b8ff" stroke="#63b8ff" points="462.41,-499.78 451.91,-501.19 461,-506.63 462.41,-499.78"/>
</g>
<!-- Node4 -->
<g id="node4" class="node">
<title>Node4</title>
<g id="a_node4"><a xlink:href="rocksdb_8hpp.html" target="_top" xlink:title=" ">
<polygon fill="white" stroke="#666666" points="610.5,-503 468.5,-503 468.5,-484 610.5,-484 610.5,-503"/>
<text text-anchor="middle" x="539.5" y="-491" font-family="Helvetica,sans-Serif" font-size="10.00">storage/rocksdb/rocksdb.hpp</text>
</a>
</g>
</g>
<!-- Node2&#45;&gt;Node4 -->
<g id="edge3" class="edge">
<title>Node2&#45;&gt;Node4</title>
<path fill="none" stroke="#63b8ff" d="M772.43,-544.05C724.21,-533.79 645.09,-516.96 592.65,-505.81"/>
<polygon fill="#63b8ff" stroke="#63b8ff" points="593.55,-502.42 583.04,-503.76 592.09,-509.27 593.55,-502.42"/>
</g>
<!-- Node31 -->
<g id="node31" class="node">
<title>Node31</title>
<g id="a_node31"><a xlink:href="hierarchical__key_8hpp.html" target="_top" xlink:title=" ">
<polygon fill="white" stroke="#666666" points="876.5,-503 752.5,-503 752.5,-484 876.5,-484 876.5,-503"/>
<text text-anchor="middle" x="814.5" y="-491" font-family="Helvetica,sans-Serif" font-size="10.00">crdt/hierarchical_key.hpp</text>
</a>
</g>
</g>
<!-- Node2&#45;&gt;Node31 -->
<g id="edge40" class="edge">
<title>Node2&#45;&gt;Node31</title>
<path fill="none" stroke="#63b8ff" d="M814.5,-544.37C814.5,-536.5 814.5,-524.6 814.5,-514.39"/>
<polygon fill="#63b8ff" stroke="#63b8ff" points="818,-514.68 814.5,-504.68 811,-514.68 818,-514.68"/>
</g>
<!-- Node33 -->
<g id="node33" class="node">
<title>Node33</title>
<g id="a_node33"><a xlink:title=" ">
<polygon fill="#e0e0e0" stroke="#999999" points="996.5,-503 894.5,-503 894.5,-484 996.5,-484 996.5,-503"/>
<text text-anchor="middle" x="945.5" y="-491" font-family="Helvetica,sans-Serif" font-size="10.00">crdt/proto/delta.pb.h</text>
</a>
</g>
</g>
<!-- Node2&#45;&gt;Node33 -->
<g id="edge43" class="edge">
<title>Node2&#45;&gt;Node33</title>
<path fill="none" stroke="#63b8ff" d="M834.4,-544.12C855.84,-534.54 890.24,-519.18 915.09,-508.08"/>
<polygon fill="#63b8ff" stroke="#63b8ff" points="916.33,-511.36 924.03,-504.09 913.48,-504.97 916.33,-511.36"/>
</g>
<!-- Node5 -->
<g id="node5" class="node">
<title>Node5</title>
<g id="a_node5"><a xlink:title=" ">
<polygon fill="#e0e0e0" stroke="#999999" points="615.5,-442.5 463.5,-442.5 463.5,-423.5 615.5,-423.5 615.5,-442.5"/>
<text text-anchor="middle" x="539.5" y="-430.5" font-family="Helvetica,sans-Serif" font-size="10.00">rocksdb/rocksdb_namespace.h</text>
</a>
</g>
</g>
<!-- Node4&#45;&gt;Node5 -->
<g id="edge4" class="edge">
<title>Node4&#45;&gt;Node5</title>
<path fill="none" stroke="#63b8ff" d="M539.5,-483.87C539.5,-476 539.5,-464.1 539.5,-453.89"/>
<polygon fill="#63b8ff" stroke="#63b8ff" points="543,-454.18 539.5,-444.18 536,-454.18 543,-454.18"/>
</g>
<!-- Node6 -->
<g id="node6" class="node">
<title>Node6</title>
<g id="a_node6"><a xlink:title=" ">
<polygon fill="#e0e0e0" stroke="#999999" points="705.5,-442.5 633.5,-442.5 633.5,-423.5 705.5,-423.5 705.5,-442.5"/>
<text text-anchor="middle" x="669.5" y="-430.5" font-family="Helvetica,sans-Serif" font-size="10.00">rocksdb/db.h</text>
</a>
</g>
</g>
<!-- Node4&#45;&gt;Node6 -->
<g id="edge5" class="edge">
<title>Node4&#45;&gt;Node6</title>
<path fill="none" stroke="#63b8ff" d="M559.24,-483.62C580.53,-474.04 614.67,-458.68 639.32,-447.58"/>
<polygon fill="#63b8ff" stroke="#63b8ff" points="640.51,-450.89 648.19,-443.59 637.63,-444.5 640.51,-450.89"/>
</g>
<!-- Node7 -->
<g id="node7" class="node">
<title>Node7</title>
<g id="a_node7"><a xlink:title=" ">
<polygon fill="#e0e0e0" stroke="#999999" points="805.5,-442.5 723.5,-442.5 723.5,-423.5 805.5,-423.5 805.5,-442.5"/>
<text text-anchor="middle" x="764.5" y="-430.5" font-family="Helvetica,sans-Serif" font-size="10.00">rocksdb/slice.h</text>
</a>
</g>
</g>
<!-- Node4&#45;&gt;Node7 -->
<g id="edge6" class="edge">
<title>Node4&#45;&gt;Node7</title>
<path fill="none" stroke="#63b8ff" d="M575.76,-483.55C611.2,-474.74 666.65,-460.78 714.5,-448 716.94,-447.35 719.45,-446.67 721.97,-445.98"/>
<polygon fill="#63b8ff" stroke="#63b8ff" points="722.89,-449.36 731.6,-443.33 721.03,-442.61 722.89,-449.36"/>
</g>
<!-- Node8 -->
<g id="node8" class="node">
<title>Node8</title>
<g id="a_node8"><a xlink:title=" ">
<polygon fill="#e0e0e0" stroke="#999999" points="93,-442.5 0,-442.5 0,-423.5 93,-423.5 93,-442.5"/>
<text text-anchor="middle" x="46.5" y="-430.5" font-family="Helvetica,sans-Serif" font-size="10.00">rocksdb/options.h</text>
</a>
</g>
</g>
<!-- Node4&#45;&gt;Node8 -->
<g id="edge7" class="edge">
<title>Node4&#45;&gt;Node8</title>
<path fill="none" stroke="#63b8ff" d="M468.38,-485.02C465.04,-484.68 461.74,-484.33 458.5,-484 300.31,-467.7 259.16,-475.36 102.5,-448 98.41,-447.29 94.18,-446.44 89.95,-445.51"/>
<polygon fill="#63b8ff" stroke="#63b8ff" points="90.91,-442.14 80.38,-443.29 89.32,-448.96 90.91,-442.14"/>
</g>
<!-- Node9 -->
<g id="node9" class="node">
<title>Node9</title>
<g id="a_node9"><a xlink:title=" ">
<polygon fill="#e0e0e0" stroke="#999999" points="223.5,-442.5 111.5,-442.5 111.5,-423.5 223.5,-423.5 223.5,-442.5"/>
<text text-anchor="middle" x="167.5" y="-430.5" font-family="Helvetica,sans-Serif" font-size="10.00">rocksdb/write_batch.h</text>
</a>
</g>
</g>
<!-- Node4&#45;&gt;Node9 -->
<g id="edge8" class="edge">
<title>Node4&#45;&gt;Node9</title>
<path fill="none" stroke="#63b8ff" d="M468.25,-483.57C405.88,-475.43 312.93,-462.47 232.5,-448 227.83,-447.16 222.99,-446.23 218.15,-445.26"/>
<polygon fill="#63b8ff" stroke="#63b8ff" points="218.93,-441.85 208.43,-443.25 217.51,-448.7 218.93,-441.85"/>
</g>
<!-- Node10 -->
<g id="node10" class="node">
<title>Node10</title>
<g id="a_node10"><a xlink:href="logger_8hpp.html" target="_top" xlink:title=" ">
<polygon fill="white" stroke="#666666" points="327,-442.5 242,-442.5 242,-423.5 327,-423.5 327,-442.5"/>
<text text-anchor="middle" x="284.5" y="-430.5" font-family="Helvetica,sans-Serif" font-size="10.00">base/logger.hpp</text>
</a>
</g>
</g>
<!-- Node4&#45;&gt;Node10 -->
<g id="edge9" class="edge">
<title>Node4&#45;&gt;Node10</title>
<path fill="none" stroke="#63b8ff" d="M495.8,-483.54C454.6,-474.95 391.18,-461.35 336.5,-448 333.72,-447.32 330.86,-446.6 327.98,-445.87"/>
<polygon fill="#63b8ff" stroke="#63b8ff" points="328.92,-442.5 318.36,-443.36 327.15,-449.27 328.92,-442.5"/>
</g>
<!-- Node13 -->
<g id="node13" class="node">
<title>Node13</title>
<g id="a_node13"><a xlink:href="buffer__map__types_8hpp.html" target="_top" xlink:title=" ">
<polygon fill="white" stroke="#666666" points="445.5,-448 345.5,-448 345.5,-418 445.5,-418 445.5,-448"/>
<text text-anchor="start" x="353.5" y="-436" font-family="Helvetica,sans-Serif" font-size="10.00">storage/buffer_map</text>
<text text-anchor="middle" x="395.5" y="-425" font-family="Helvetica,sans-Serif" font-size="10.00">_types.hpp</text>
</a>
</g>
</g>
<!-- Node4&#45;&gt;Node13 -->
<g id="edge12" class="edge">
<title>Node4&#45;&gt;Node13</title>
<path fill="none" stroke="#63b8ff" d="M517.63,-483.62C497.53,-475.45 467.07,-463.08 441.61,-452.73"/>
<polygon fill="#63b8ff" stroke="#63b8ff" points="443.03,-449.53 432.45,-449.01 440.39,-456.02 443.03,-449.53"/>
</g>
<!-- Node11 -->
<g id="node11" class="node">
<title>Node11</title>
<g id="a_node11"><a xlink:title=" ">
<polygon fill="#e0e0e0" stroke="#999999" points="90,-376.5 1,-376.5 1,-357.5 90,-357.5 90,-376.5"/>
<text text-anchor="middle" x="45.5" y="-364.5" font-family="Helvetica,sans-Serif" font-size="10.00">spdlog/fmt/ostr.h</text>
</a>
</g>
</g>
<!-- Node10&#45;&gt;Node11 -->
<g id="edge10" class="edge">
<title>Node10&#45;&gt;Node11</title>
<path fill="none" stroke="#63b8ff" d="M251.21,-423.03C245,-421.36 238.55,-419.62 232.5,-418 183.61,-404.88 127.51,-389.89 89.61,-379.77"/>
<polygon fill="#63b8ff" stroke="#63b8ff" points="90.97,-376.51 80.41,-377.31 89.17,-383.28 90.97,-376.51"/>
</g>
<!-- Node12 -->
<g id="node12" class="node">
<title>Node12</title>
<g id="a_node12"><a xlink:title=" ">
<polygon fill="#e0e0e0" stroke="#999999" points="192.5,-376.5 108.5,-376.5 108.5,-357.5 192.5,-357.5 192.5,-376.5"/>
<text text-anchor="middle" x="150.5" y="-364.5" font-family="Helvetica,sans-Serif" font-size="10.00">spdlog/spdlog.h</text>
</a>
</g>
</g>
<!-- Node10&#45;&gt;Node12 -->
<g id="edge11" class="edge">
<title>Node10&#45;&gt;Node12</title>
<path fill="none" stroke="#63b8ff" d="M265.87,-423.1C243.37,-412.35 205.28,-394.16 179.06,-381.64"/>
<polygon fill="#63b8ff" stroke="#63b8ff" points="180.87,-378.63 170.34,-377.48 177.85,-384.94 180.87,-378.63"/>
</g>
<!-- Node14 -->
<g id="node14" class="node">
<title>Node14</title>
<g id="a_node14"><a xlink:title=" ">
<polygon fill="#e0e0e0" stroke="#999999" points="549,-310.5 496,-310.5 496,-291.5 549,-291.5 549,-310.5"/>
<text text-anchor="middle" x="522.5" y="-298.5" font-family="Helvetica,sans-Serif" font-size="10.00">gsl/span</text>
</a>
</g>
</g>
<!-- Node13&#45;&gt;Node14 -->
<g id="edge13" class="edge">
<title>Node13&#45;&gt;Node14</title>
<path fill="none" stroke="#63b8ff" d="M420.85,-417.57C435.48,-408.5 453.65,-395.91 467.5,-382 486.03,-363.38 502.38,-337.78 512.34,-320.6"/>
<polygon fill="#63b8ff" stroke="#63b8ff" points="515.33,-322.44 517.18,-312 509.23,-319 515.33,-322.44"/>
</g>
<!-- Node15 -->
<g id="node15" class="node">
<title>Node15</title>
<g id="a_node15"><a xlink:href="buffer_8hpp.html" target="_top" xlink:title=" ">
<polygon fill="white" stroke="#666666" points="718,-376.5 635,-376.5 635,-357.5 718,-357.5 718,-376.5"/>
<text text-anchor="middle" x="676.5" y="-364.5" font-family="Helvetica,sans-Serif" font-size="10.00">base/buffer.hpp</text>
</a>
</g>
</g>
<!-- Node13&#45;&gt;Node15 -->
<g id="edge14" class="edge">
<title>Node13&#45;&gt;Node15</title>
<path fill="none" stroke="#63b8ff" d="M445.7,-420.05C448.68,-419.35 451.63,-418.66 454.5,-418 512.75,-404.53 579.7,-389.51 624.72,-379.49"/>
<polygon fill="#63b8ff" stroke="#63b8ff" points="625.48,-382.9 634.48,-377.31 623.96,-376.07 625.48,-382.9"/>
</g>
<!-- Node22 -->
<g id="node22" class="node">
<title>Node22</title>
<g id="a_node22"><a xlink:href="batchable_8hpp.html" target="_top" xlink:title=" ">
<polygon fill="white" stroke="#666666" points="382.5,-250 248.5,-250 248.5,-231 382.5,-231 382.5,-250"/>
<text text-anchor="middle" x="315.5" y="-238" font-family="Helvetica,sans-Serif" font-size="10.00">storage/face/batchable.hpp</text>
</a>
</g>
</g>
<!-- Node13&#45;&gt;Node22 -->
<g id="edge22" class="edge">
<title>Node13&#45;&gt;Node22</title>
<path fill="none" stroke="#63b8ff" d="M375.95,-417.66C365.05,-408.63 352.16,-396.04 344.5,-382 323.19,-342.94 317.5,-289.98 316.01,-261.54"/>
<polygon fill="#63b8ff" stroke="#63b8ff" points="319.52,-261.7 315.63,-251.84 312.52,-261.97 319.52,-261.7"/>
</g>
<!-- Node24 -->
<g id="node24" class="node">
<title>Node24</title>
<g id="a_node24"><a xlink:href="write__batch_8hpp.html" target="_top" xlink:title=" ">
<polygon fill="white" stroke="#666666" points="274,-195 179,-195 179,-165 274,-165 274,-195"/>
<text text-anchor="start" x="187" y="-183" font-family="Helvetica,sans-Serif" font-size="10.00">storage/face/write</text>
<text text-anchor="middle" x="226.5" y="-172" font-family="Helvetica,sans-Serif" font-size="10.00">_batch.hpp</text>
</a>
</g>
</g>
<!-- Node13&#45;&gt;Node24 -->
<g id="edge39" class="edge">
<title>Node13&#45;&gt;Node24</title>
<path fill="none" stroke="#63b8ff" d="M372.25,-417.51C358.59,-408.34 341.52,-395.66 328.5,-382 279.68,-330.78 266.38,-315.45 239.5,-250 233.86,-236.27 230.65,-220 228.82,-206.7"/>
<polygon fill="#63b8ff" stroke="#63b8ff" points="232.33,-206.52 227.69,-196.99 225.37,-207.33 232.33,-206.52"/>
</g>
<!-- Node26 -->
<g id="node26" class="node">
<title>Node26</title>
<g id="a_node26"><a xlink:href="generic__storage_8hpp.html" target="_top" xlink:title=" ">
<polygon fill="white" stroke="#666666" points="459,-382 354,-382 354,-352 459,-352 459,-382"/>
<text text-anchor="start" x="362" y="-370" font-family="Helvetica,sans-Serif" font-size="10.00">storage/face/generic</text>
<text text-anchor="middle" x="406.5" y="-359" font-family="Helvetica,sans-Serif" font-size="10.00">_storage.hpp</text>
</a>
</g>
</g>
<!-- Node13&#45;&gt;Node26 -->
<g id="edge28" class="edge">
<title>Node13&#45;&gt;Node26</title>
<path fill="none" stroke="#63b8ff" d="M397.94,-417.8C399.18,-410.59 400.72,-401.61 402.16,-393.27"/>
<polygon fill="#63b8ff" stroke="#63b8ff" points="405.56,-394.1 403.81,-383.66 398.67,-392.92 405.56,-394.1"/>
</g>
<!-- Node15&#45;&gt;Node14 -->
<g id="edge19" class="edge">
<title>Node15&#45;&gt;Node14</title>
<path fill="none" stroke="#63b8ff" d="M655.09,-357.1C628.88,-346.21 584.29,-327.68 554.13,-315.14"/>
<polygon fill="#63b8ff" stroke="#63b8ff" points="555.71,-312.01 545.13,-311.4 553.02,-318.47 555.71,-312.01"/>
</g>
<!-- Node16 -->
<g id="node16" class="node">
<title>Node16</title>
<g id="a_node16"><a xlink:title=" ">
<polygon fill="#e0e0e0" stroke="#999999" points="648.5,-310.5 582.5,-310.5 582.5,-291.5 648.5,-291.5 648.5,-310.5"/>
<text text-anchor="middle" x="615.5" y="-298.5" font-family="Helvetica,sans-Serif" font-size="10.00">string_view</text>
</a>
</g>
</g>
<!-- Node15&#45;&gt;Node16 -->
<g id="edge15" class="edge">
<title>Node15&#45;&gt;Node16</title>
<path fill="none" stroke="#63b8ff" d="M668.02,-357.1C658.64,-347.26 643.32,-331.18 631.63,-318.93"/>
<polygon fill="#63b8ff" stroke="#63b8ff" points="634.39,-316.74 624.95,-311.92 629.32,-321.57 634.39,-316.74"/>
</g>
<!-- Node17 -->
<g id="node17" class="node">
<title>Node17</title>
<g id="a_node17"><a xlink:title=" ">
<polygon fill="#e0e0e0" stroke="#999999" points="996.5,-310.5 952.5,-310.5 952.5,-291.5 996.5,-291.5 996.5,-310.5"/>
<text text-anchor="middle" x="974.5" y="-298.5" font-family="Helvetica,sans-Serif" font-size="10.00">vector</text>
</a>
</g>
</g>
<!-- Node15&#45;&gt;Node17 -->
<g id="edge16" class="edge">
<title>Node15&#45;&gt;Node17</title>
<path fill="none" stroke="#63b8ff" d="M718.42,-361.3C771.65,-354.62 865.9,-340.4 943.5,-316 944.46,-315.7 945.43,-315.37 946.41,-315.03"/>
<polygon fill="#63b8ff" stroke="#63b8ff" points="947.37,-318.42 955.35,-311.45 944.76,-311.92 947.37,-318.42"/>
</g>
<!-- Node18 -->
<g id="node18" class="node">
<title>Node18</title>
<g id="a_node18"><a xlink:title=" ">
<polygon fill="#e0e0e0" stroke="#999999" points="814.5,-316 704.5,-316 704.5,-286 814.5,-286 814.5,-316"/>
<text text-anchor="start" x="712.5" y="-304" font-family="Helvetica,sans-Serif" font-size="10.00">boost/container_hash</text>
<text text-anchor="middle" x="759.5" y="-293" font-family="Helvetica,sans-Serif" font-size="10.00">/hash.hpp</text>
</a>
</g>
</g>
<!-- Node15&#45;&gt;Node18 -->
<g id="edge17" class="edge">
<title>Node15&#45;&gt;Node18</title>
<path fill="none" stroke="#63b8ff" d="M688.04,-357.1C699.33,-348.4 716.95,-334.81 731.87,-323.31"/>
<polygon fill="#63b8ff" stroke="#63b8ff" points="733.74,-326.28 739.53,-317.4 729.47,-320.74 733.74,-326.28"/>
</g>
<!-- Node19 -->
<g id="node19" class="node">
<title>Node19</title>
<g id="a_node19"><a xlink:title=" ">
<polygon fill="#e0e0e0" stroke="#999999" points="934.5,-310.5 832.5,-310.5 832.5,-291.5 934.5,-291.5 934.5,-310.5"/>
<text text-anchor="middle" x="883.5" y="-298.5" font-family="Helvetica,sans-Serif" font-size="10.00">boost/operators.hpp</text>
</a>
</g>
</g>
<!-- Node15&#45;&gt;Node19 -->
<g id="edge18" class="edge">
<title>Node15&#45;&gt;Node19</title>
<path fill="none" stroke="#63b8ff" d="M705.28,-357.1C741.33,-345.96 803.27,-326.81 843.8,-314.27"/>
<polygon fill="#63b8ff" stroke="#63b8ff" points="844.66,-317.67 853.18,-311.37 842.6,-310.98 844.66,-317.67"/>
</g>
<!-- Node20 -->
<g id="node20" class="node">
<title>Node20</title>
<g id="a_node20"><a xlink:href="outcome_8hpp.html" target="_top" xlink:title=" ">
<polygon fill="white" stroke="#666666" points="728,-74 615,-74 615,-55 728,-55 728,-74"/>
<text text-anchor="middle" x="671.5" y="-62" font-family="Helvetica,sans-Serif" font-size="10.00">outcome/outcome.hpp</text>
</a>
</g>
</g>
<!-- Node15&#45;&gt;Node20 -->
<g id="edge20" class="edge">
<title>Node15&#45;&gt;Node20</title>
<path fill="none" stroke="#63b8ff" d="M677.65,-357.32C679.82,-342.33 685.28,-310.81 695.5,-286 702.64,-268.66 712.42,-268.05 717.5,-250 734.45,-189.76 701.07,-117.56 682.61,-84.15"/>
<polygon fill="#63b8ff" stroke="#63b8ff" points="685.77,-82.63 677.77,-75.7 679.7,-86.11 685.77,-82.63"/>
</g>
<!-- Node21 -->
<g id="node21" class="node">
<title>Node21</title>
<g id="a_node21"><a xlink:title=" ">
<polygon fill="#e0e0e0" stroke="#999999" points="742,-19 601,-19 601,0 742,0 742,-19"/>
<text text-anchor="middle" x="671.5" y="-7" font-family="Helvetica,sans-Serif" font-size="10.00">libp2p/outcome/outcome.hpp</text>
</a>
</g>
</g>
<!-- Node20&#45;&gt;Node21 -->
<g id="edge21" class="edge">
<title>Node20&#45;&gt;Node21</title>
<path fill="none" stroke="#63b8ff" d="M671.5,-54.75C671.5,-48.27 671.5,-39.16 671.5,-30.9"/>
<polygon fill="#63b8ff" stroke="#63b8ff" points="675,-30.96 671.5,-20.96 668,-30.96 675,-30.96"/>
</g>
<!-- Node23 -->
<g id="node23" class="node">
<title>Node23</title>
<g id="a_node23"><a xlink:title=" ">
<polygon fill="#e0e0e0" stroke="#999999" points="382,-189.5 331,-189.5 331,-170.5 382,-170.5 382,-189.5"/>
<text text-anchor="middle" x="356.5" y="-177.5" font-family="Helvetica,sans-Serif" font-size="10.00">memory</text>
</a>
</g>
</g>
<!-- Node22&#45;&gt;Node23 -->
<g id="edge23" class="edge">
<title>Node22&#45;&gt;Node23</title>
<path fill="none" stroke="#63b8ff" d="M321.55,-230.87C327.42,-222.49 336.52,-209.51 343.96,-198.89"/>
<polygon fill="#63b8ff" stroke="#63b8ff" points="346.68,-201.1 349.56,-190.91 340.95,-197.09 346.68,-201.1"/>
</g>
<!-- Node22&#45;&gt;Node24 -->
<g id="edge24" class="edge">
<title>Node22&#45;&gt;Node24</title>
<path fill="none" stroke="#63b8ff" d="M301.98,-230.62C290.33,-222.96 273.06,-211.61 257.98,-201.69"/>
<polygon fill="#63b8ff" stroke="#63b8ff" points="260.01,-198.84 249.73,-196.27 256.17,-204.69 260.01,-198.84"/>
</g>
<!-- Node25 -->
<g id="node25" class="node">
<title>Node25</title>
<g id="a_node25"><a xlink:href="writeable_8hpp.html" target="_top" xlink:title=" ">
<polygon fill="white" stroke="#666666" points="422,-129 291,-129 291,-110 422,-110 422,-129"/>
<text text-anchor="middle" x="356.5" y="-117" font-family="Helvetica,sans-Serif" font-size="10.00">storage/face/writeable.hpp</text>
</a>
</g>
</g>
<!-- Node22&#45;&gt;Node25 -->
<g id="edge27" class="edge">
<title>Node22&#45;&gt;Node25</title>
<path fill="none" stroke="#63b8ff" d="M314.63,-230.88C313.52,-216.62 312.7,-187.47 321.5,-165 325.43,-154.98 332.4,-145.39 339.09,-137.7"/>
<polygon fill="#63b8ff" stroke="#63b8ff" points="341.58,-140.15 345.85,-130.46 336.47,-135.37 341.58,-140.15"/>
</g>
<!-- Node24&#45;&gt;Node25 -->
<g id="edge25" class="edge">
<title>Node24&#45;&gt;Node25</title>
<path fill="none" stroke="#63b8ff" d="M258.63,-164.54C279.41,-155.19 306.27,-143.1 326.59,-133.96"/>
<polygon fill="#63b8ff" stroke="#63b8ff" points="327.78,-137.26 335.46,-129.97 324.91,-130.88 327.78,-137.26"/>
</g>
<!-- Node25&#45;&gt;Node20 -->
<g id="edge26" class="edge">
<title>Node25&#45;&gt;Node20</title>
<path fill="none" stroke="#63b8ff" d="M409.94,-109.51C464.32,-100.36 548.67,-86.17 606.81,-76.39"/>
<polygon fill="#63b8ff" stroke="#63b8ff" points="607.29,-79.85 616.57,-74.74 606.13,-72.95 607.29,-79.85"/>
</g>
<!-- Node27 -->
<g id="node27" class="node">
<title>Node27</title>
<g id="a_node27"><a xlink:href="generic__maps_8hpp.html" target="_top" xlink:title=" ">
<polygon fill="white" stroke="#666666" points="463,-316 358,-316 358,-286 463,-286 463,-316"/>
<text text-anchor="start" x="366" y="-304" font-family="Helvetica,sans-Serif" font-size="10.00">storage/face/generic</text>
<text text-anchor="middle" x="410.5" y="-293" font-family="Helvetica,sans-Serif" font-size="10.00">_maps.hpp</text>
</a>
</g>
</g>
<!-- Node26&#45;&gt;Node27 -->
<g id="edge29" class="edge">
<title>Node26&#45;&gt;Node27</title>
<path fill="none" stroke="#63b8ff" d="M407.39,-351.8C407.83,-344.67 408.39,-335.82 408.9,-327.56"/>
<polygon fill="#63b8ff" stroke="#63b8ff" points="412.39,-327.87 409.52,-317.67 405.4,-327.44 412.39,-327.87"/>
</g>
<!-- Node27&#45;&gt;Node22 -->
<g id="edge30" class="edge">
<title>Node27&#45;&gt;Node22</title>
<path fill="none" stroke="#63b8ff" d="M387.02,-285.54C372.6,-276.66 354.19,-265.32 339.65,-256.37"/>
<polygon fill="#63b8ff" stroke="#63b8ff" points="341.5,-253.4 331.15,-251.14 337.83,-259.36 341.5,-253.4"/>
</g>
<!-- Node27&#45;&gt;Node25 -->
<g id="edge38" class="edge">
<title>Node27&#45;&gt;Node25</title>
<path fill="none" stroke="#63b8ff" d="M410.69,-285.58C410.52,-260.17 407.93,-206.25 390.5,-165 386.36,-155.19 379.54,-145.64 373.09,-137.91"/>
<polygon fill="#63b8ff" stroke="#63b8ff" points="375.88,-135.78 366.62,-130.63 370.65,-140.43 375.88,-135.78"/>
</g>
<!-- Node28 -->
<g id="node28" class="node">
<title>Node28</title>
<g id="a_node28"><a xlink:href="iterable_8hpp.html" target="_top" xlink:title=" ">
<polygon fill="white" stroke="#666666" points="562,-250 439,-250 439,-231 562,-231 562,-250"/>
<text text-anchor="middle" x="500.5" y="-238" font-family="Helvetica,sans-Serif" font-size="10.00">storage/face/iterable.hpp</text>
</a>
</g>
</g>
<!-- Node27&#45;&gt;Node28 -->
<g id="edge31" class="edge">
<title>Node27&#45;&gt;Node28</title>
<path fill="none" stroke="#63b8ff" d="M432.75,-285.54C446.4,-276.66 463.85,-265.32 477.62,-256.37"/>
<polygon fill="#63b8ff" stroke="#63b8ff" points="479.14,-259.56 485.62,-251.17 475.33,-253.69 479.14,-259.56"/>
</g>
<!-- Node30 -->
<g id="node30" class="node">
<title>Node30</title>
<g id="a_node30"><a xlink:href="readable_8hpp.html" target="_top" xlink:title=" ">
<polygon fill="white" stroke="#666666" points="708.5,-250 580.5,-250 580.5,-231 708.5,-231 708.5,-250"/>
<text text-anchor="middle" x="644.5" y="-238" font-family="Helvetica,sans-Serif" font-size="10.00">storage/face/readable.hpp</text>
</a>
</g>
</g>
<!-- Node27&#45;&gt;Node30 -->
<g id="edge35" class="edge">
<title>Node27&#45;&gt;Node30</title>
<path fill="none" stroke="#63b8ff" d="M463.31,-286.8C503.67,-276.71 558.8,-262.93 597.61,-253.22"/>
<polygon fill="#63b8ff" stroke="#63b8ff" points="598.28,-256.66 607.13,-250.84 596.58,-249.87 598.28,-256.66"/>
</g>
<!-- Node28&#45;&gt;Node23 -->
<g id="edge32" class="edge">
<title>Node28&#45;&gt;Node23</title>
<path fill="none" stroke="#63b8ff" d="M478.63,-230.62C454.84,-220.95 416.56,-205.4 389.2,-194.28"/>
<polygon fill="#63b8ff" stroke="#63b8ff" points="390.56,-191.06 379.98,-190.54 387.93,-197.54 390.56,-191.06"/>
</g>
<!-- Node29 -->
<g id="node29" class="node">
<title>Node29</title>
<g id="a_node29"><a xlink:href="map__cursor_8hpp.html" target="_top" xlink:title=" ">
<polygon fill="white" stroke="#666666" points="643,-189.5 500,-189.5 500,-170.5 643,-170.5 643,-189.5"/>
<text text-anchor="middle" x="571.5" y="-177.5" font-family="Helvetica,sans-Serif" font-size="10.00">storage/face/map_cursor.hpp</text>
</a>
</g>
</g>
<!-- Node28&#45;&gt;Node29 -->
<g id="edge33" class="edge">
<title>Node28&#45;&gt;Node29</title>
<path fill="none" stroke="#63b8ff" d="M511.28,-230.62C522.02,-221.77 538.75,-207.98 551.85,-197.19"/>
<polygon fill="#63b8ff" stroke="#63b8ff" points="553.95,-199.99 559.45,-190.93 549.5,-194.59 553.95,-199.99"/>
</g>
<!-- Node29&#45;&gt;Node20 -->
<g id="edge34" class="edge">
<title>Node29&#45;&gt;Node20</title>
<path fill="none" stroke="#63b8ff" d="M579.35,-170.09C595.92,-151.28 634.75,-107.21 656.34,-82.71"/>
<polygon fill="#63b8ff" stroke="#63b8ff" points="658.7,-85.32 662.69,-75.5 653.45,-80.69 658.7,-85.32"/>
</g>
<!-- Node30&#45;&gt;Node20 -->
<g id="edge36" class="edge">
<title>Node30&#45;&gt;Node20</title>
<path fill="none" stroke="#63b8ff" d="M645.9,-230.64C647.32,-221.66 649.57,-207.36 651.5,-195 657.55,-156.16 664.55,-110.75 668.45,-85.33"/>
<polygon fill="#63b8ff" stroke="#63b8ff" points="671.86,-86.21 669.92,-75.79 664.94,-85.14 671.86,-86.21"/>
</g>
<!-- Node30&#45;&gt;Node29 -->
<g id="edge37" class="edge">
<title>Node30&#45;&gt;Node29</title>
<path fill="none" stroke="#63b8ff" d="M633.41,-230.62C622.26,-221.68 604.84,-207.72 591.31,-196.87"/>
<polygon fill="#63b8ff" stroke="#63b8ff" points="593.86,-194.44 583.87,-190.91 589.49,-199.9 593.86,-194.44"/>
</g>
<!-- Node31&#45;&gt;Node17 -->
<g id="edge42" class="edge">
<title>Node31&#45;&gt;Node17</title>
<path fill="none" stroke="#63b8ff" d="M828.62,-483.72C841.25,-475.46 859.82,-462.25 873.5,-448 912.67,-407.19 947.6,-349.84 964.22,-320.65"/>
<polygon fill="#63b8ff" stroke="#63b8ff" points="967.09,-322.69 968.93,-312.26 960.99,-319.27 967.09,-322.69"/>
</g>
<!-- Node32 -->
<g id="node32" class="node">
<title>Node32</title>
<g id="a_node32"><a xlink:title=" ">
<polygon fill="#e0e0e0" stroke="#999999" points="865,-442.5 824,-442.5 824,-423.5 865,-423.5 865,-442.5"/>
<text text-anchor="middle" x="844.5" y="-430.5" font-family="Helvetica,sans-Serif" font-size="10.00">string</text>
</a>
</g>
</g>
<!-- Node31&#45;&gt;Node32 -->
<g id="edge41" class="edge">
<title>Node31&#45;&gt;Node32</title>
<path fill="none" stroke="#63b8ff" d="M818.93,-483.87C823.09,-475.75 829.47,-463.31 834.82,-452.89"/>
<polygon fill="#63b8ff" stroke="#63b8ff" points="837.92,-454.51 839.36,-444.01 831.69,-451.32 837.92,-454.51"/>
</g>
<!-- Node34&#45;&gt;Node20 -->
<g id="edge45" class="edge">
<title>Node34&#45;&gt;Node20</title>
<path fill="none" stroke="#63b8ff" d="M884.9,-109.51C841.11,-100.48 773.51,-86.54 726.16,-76.77"/>
<polygon fill="#63b8ff" stroke="#63b8ff" points="726.86,-73.34 716.36,-74.75 725.45,-80.2 726.86,-73.34"/>
</g>
</g>
</svg>
