<?xml version="1.0" encoding="UTF-8" standalone="no"?>
<!DOCTYPE svg PUBLIC "-//W3C//DTD SVG 1.1//EN"
 "http://www.w3.org/Graphics/SVG/1.1/DTD/svg11.dtd">
<!-- Generated by graphviz version 7.0.5 (20221223.1930)
 -->
<!-- Title: src/crdt/impl/crdt_datastore.cpp Pages: 1 -->
<svg width="1456pt" height="720pt"
 viewBox="0.00 0.00 1455.50 720.00" xmlns="http://www.w3.org/2000/svg" xmlns:xlink="http://www.w3.org/1999/xlink">
<g id="graph0" class="graph" transform="scale(1 1) rotate(0) translate(4 716)">
<title>src/crdt/impl/crdt_datastore.cpp</title>
<!-- Node1 -->
<g id="node1" class="node">
<title>Node1</title>
<g id="a_node1"><a xlink:title=" ">
<polygon fill="#999999" stroke="#666666" points="961,-712 871,-712 871,-682 961,-682 961,-712"/>
<text text-anchor="start" x="879" y="-700" font-family="Helvetica,sans-Serif" font-size="10.00">src/crdt/impl/crdt</text>
<text text-anchor="middle" x="916" y="-689" font-family="Helvetica,sans-Serif" font-size="10.00">_datastore.cpp</text>
</a>
</g>
</g>
<!-- Node2 -->
<g id="node2" class="node">
<title>Node2</title>
<g id="a_node2"><a xlink:href="crdt__datastore_8hpp.html" target="_top" xlink:title=" ">
<polygon fill="white" stroke="#666666" points="822,-640.5 706,-640.5 706,-621.5 822,-621.5 822,-640.5"/>
<text text-anchor="middle" x="764" y="-628.5" font-family="Helvetica,sans-Serif" font-size="10.00">crdt/crdt_datastore.hpp</text>
</a>
</g>
</g>
<!-- Node1&#45;&gt;Node2 -->
<g id="edge1" class="edge">
<title>Node1&#45;&gt;Node2</title>
<path fill="none" stroke="#63b8ff" d="M881.89,-681.64C856.12,-670.79 821,-656 795.81,-645.39"/>
<polygon fill="#63b8ff" stroke="#63b8ff" points="797.31,-642.23 786.74,-641.57 794.59,-648.68 797.31,-642.23"/>
</g>
<!-- Node10 -->
<g id="node10" class="node">
<title>Node10</title>
<g id="a_node10"><a xlink:href="rocksdb_8hpp.html" target="_top" xlink:title=" ">
<polygon fill="white" stroke="#666666" points="504,-508.5 362,-508.5 362,-489.5 504,-489.5 504,-508.5"/>
<text text-anchor="middle" x="433" y="-496.5" font-family="Helvetica,sans-Serif" font-size="10.00">storage/rocksdb/rocksdb.hpp</text>
</a>
</g>
</g>
<!-- Node1&#45;&gt;Node10 -->
<g id="edge65" class="edge">
<title>Node1&#45;&gt;Node10</title>
<path fill="none" stroke="#63b8ff" d="M870.66,-692.42C759.06,-682.57 476.04,-650.96 420,-580 406.34,-562.7 414.27,-536.61 422.48,-518.97"/>
<polygon fill="#63b8ff" stroke="#63b8ff" points="425.57,-520.62 427,-510.12 419.33,-517.43 425.57,-520.62"/>
</g>
<!-- Node49 -->
<g id="node47" class="node">
<title>Node49</title>
<g id="a_node47"><a xlink:title=" ">
<polygon fill="#e0e0e0" stroke="#999999" points="894,-640.5 840,-640.5 840,-621.5 894,-621.5 894,-640.5"/>
<text text-anchor="middle" x="867" y="-628.5" font-family="Helvetica,sans-Serif" font-size="10.00">iostream</text>
</a>
</g>
</g>
<!-- Node1&#45;&gt;Node49 -->
<g id="edge66" class="edge">
<title>Node1&#45;&gt;Node49</title>
<path fill="none" stroke="#63b8ff" d="M905.13,-681.8C897.94,-672.41 888.45,-660.02 880.74,-649.95"/>
<polygon fill="#63b8ff" stroke="#63b8ff" points="883.55,-647.86 874.69,-642.05 877.99,-652.11 883.55,-647.86"/>
</g>
<!-- Node50 -->
<g id="node48" class="node">
<title>Node50</title>
<g id="a_node48"><a xlink:title=" ">
<polygon fill="#e0e0e0" stroke="#999999" points="1017.5,-640.5 912.5,-640.5 912.5,-621.5 1017.5,-621.5 1017.5,-640.5"/>
<text text-anchor="middle" x="965" y="-628.5" font-family="Helvetica,sans-Serif" font-size="10.00">crdt/proto/bcast.pb.h</text>
</a>
</g>
</g>
<!-- Node1&#45;&gt;Node50 -->
<g id="edge67" class="edge">
<title>Node1&#45;&gt;Node50</title>
<path fill="none" stroke="#63b8ff" d="M926.87,-681.8C934.06,-672.41 943.55,-660.02 951.26,-649.95"/>
<polygon fill="#63b8ff" stroke="#63b8ff" points="954.01,-652.11 957.31,-642.05 948.45,-647.86 954.01,-652.11"/>
</g>
<!-- Node51 -->
<g id="node49" class="node">
<title>Node51</title>
<g id="a_node49"><a xlink:title=" ">
<polygon fill="#e0e0e0" stroke="#999999" points="1160.5,-646 1035.5,-646 1035.5,-616 1160.5,-616 1160.5,-646"/>
<text text-anchor="start" x="1043.5" y="-634" font-family="Helvetica,sans-Serif" font-size="10.00">google/protobuf/unknown</text>
<text text-anchor="middle" x="1098" y="-623" font-family="Helvetica,sans-Serif" font-size="10.00">_field_set.h</text>
</a>
</g>
</g>
<!-- Node1&#45;&gt;Node51 -->
<g id="edge68" class="edge">
<title>Node1&#45;&gt;Node51</title>
<path fill="none" stroke="#63b8ff" d="M956.84,-681.64C983.33,-672.32 1018.06,-660.11 1046.44,-650.13"/>
<polygon fill="#63b8ff" stroke="#63b8ff" points="1047.28,-653.55 1055.55,-646.93 1044.95,-646.94 1047.28,-653.55"/>
</g>
<!-- Node52 -->
<g id="node50" class="node">
<title>Node52</title>
<g id="a_node50"><a xlink:title=" ">
<polygon fill="#e0e0e0" stroke="#999999" points="1281,-646 1179,-646 1179,-616 1281,-616 1281,-646"/>
<text text-anchor="start" x="1187" y="-634" font-family="Helvetica,sans-Serif" font-size="10.00">ipfs_lite/ipld/impl</text>
<text text-anchor="middle" x="1230" y="-623" font-family="Helvetica,sans-Serif" font-size="10.00">/ipld_node_impl.hpp</text>
</a>
</g>
</g>
<!-- Node1&#45;&gt;Node52 -->
<g id="edge69" class="edge">
<title>Node1&#45;&gt;Node52</title>
<path fill="none" stroke="#63b8ff" d="M961.06,-687.62C1009.63,-678.48 1089.48,-663.14 1167.63,-646.47"/>
<polygon fill="#63b8ff" stroke="#63b8ff" points="1168.12,-649.94 1177.16,-644.43 1166.65,-643.1 1168.12,-649.94"/>
</g>
<!-- Node3 -->
<g id="node3" class="node">
<title>Node3</title>
<g id="a_node3"><a xlink:title=" ">
<polygon fill="#e0e0e0" stroke="#999999" points="1256,-574.5 1118,-574.5 1118,-555.5 1256,-555.5 1256,-574.5"/>
<text text-anchor="middle" x="1187" y="-562.5" font-family="Helvetica,sans-Serif" font-size="10.00">boost/asio/steady_timer.hpp</text>
</a>
</g>
</g>
<!-- Node2&#45;&gt;Node3 -->
<g id="edge2" class="edge">
<title>Node2&#45;&gt;Node3</title>
<path fill="none" stroke="#63b8ff" d="M804.29,-621.05C813.07,-619.25 822.33,-617.47 831,-616 953.85,-595.24 985.87,-599.01 1109,-580 1115.27,-579.03 1121.82,-577.96 1128.33,-576.85"/>
<polygon fill="#63b8ff" stroke="#63b8ff" points="1128.47,-580.38 1137.72,-575.22 1127.27,-573.48 1128.47,-580.38"/>
</g>
<!-- Node4 -->
<g id="node4" class="node">
<title>Node4</title>
<g id="a_node4"><a xlink:href="logger_8hpp.html" target="_top" xlink:title=" ">
<polygon fill="white" stroke="#666666" points="136.5,-442.5 51.5,-442.5 51.5,-423.5 136.5,-423.5 136.5,-442.5"/>
<text text-anchor="middle" x="94" y="-430.5" font-family="Helvetica,sans-Serif" font-size="10.00">base/logger.hpp</text>
</a>
</g>
</g>
<!-- Node2&#45;&gt;Node4 -->
<g id="edge3" class="edge">
<title>Node2&#45;&gt;Node4</title>
<path fill="none" stroke="#63b8ff" d="M705.55,-627.92C561.1,-622.39 195.48,-606 147,-580 114.09,-562.35 107.45,-549.21 95,-514 88.06,-494.38 88.9,-470.33 90.79,-453.75"/>
<polygon fill="#63b8ff" stroke="#63b8ff" points="94.21,-454.61 92.12,-444.22 87.27,-453.64 94.21,-454.61"/>
</g>
<!-- Node7 -->
<g id="node7" class="node">
<title>Node7</title>
<g id="a_node7"><a xlink:title=" ">
<polygon fill="#e0e0e0" stroke="#999999" points="1310,-508.5 1202,-508.5 1202,-489.5 1310,-489.5 1310,-508.5"/>
<text text-anchor="middle" x="1256" y="-496.5" font-family="Helvetica,sans-Serif" font-size="10.00">primitives/cid/cid.hpp</text>
</a>
</g>
</g>
<!-- Node2&#45;&gt;Node7 -->
<g id="edge6" class="edge">
<title>Node2&#45;&gt;Node7</title>
<path fill="none" stroke="#63b8ff" d="M802.83,-621.04C812.02,-619.15 821.83,-617.33 831,-616 878.88,-609.04 1232.23,-615.6 1265,-580 1279.91,-563.8 1273.07,-537.26 1265.59,-519.22"/>
<polygon fill="#63b8ff" stroke="#63b8ff" points="1268.79,-517.81 1261.44,-510.17 1262.43,-520.72 1268.79,-517.81"/>
</g>
<!-- Node8 -->
<g id="node8" class="node">
<title>Node8</title>
<g id="a_node8"><a xlink:href="crdt__set_8hpp.html" target="_top" xlink:title=" ">
<polygon fill="white" stroke="#666666" points="532.5,-574.5 443.5,-574.5 443.5,-555.5 532.5,-555.5 532.5,-574.5"/>
<text text-anchor="middle" x="488" y="-562.5" font-family="Helvetica,sans-Serif" font-size="10.00">crdt/crdt_set.hpp</text>
</a>
</g>
</g>
<!-- Node2&#45;&gt;Node8 -->
<g id="edge7" class="edge">
<title>Node2&#45;&gt;Node8</title>
<path fill="none" stroke="#63b8ff" d="M722.58,-621.09C677.92,-611.38 604.78,-595.2 542,-580 539.06,-579.29 536.03,-578.54 532.98,-577.78"/>
<polygon fill="#63b8ff" stroke="#63b8ff" points="533.97,-574.42 523.42,-575.35 532.25,-581.2 533.97,-574.42"/>
</g>
<!-- Node2&#45;&gt;Node10 -->
<g id="edge58" class="edge">
<title>Node2&#45;&gt;Node10</title>
<path fill="none" stroke="#63b8ff" d="M705.79,-629.76C620.97,-628.05 469.72,-619.39 435,-580 420.67,-563.74 423.06,-537.59 427.12,-519.64"/>
<polygon fill="#63b8ff" stroke="#63b8ff" points="430.44,-520.77 429.62,-510.21 423.67,-518.98 430.44,-520.77"/>
</g>
<!-- Node37 -->
<g id="node35" class="node">
<title>Node37</title>
<g id="a_node35"><a xlink:href="crdt__heads_8hpp.html" target="_top" xlink:title=" ">
<polygon fill="white" stroke="#666666" points="653,-574.5 551,-574.5 551,-555.5 653,-555.5 653,-574.5"/>
<text text-anchor="middle" x="602" y="-562.5" font-family="Helvetica,sans-Serif" font-size="10.00">crdt/crdt_heads.hpp</text>
</a>
</g>
</g>
<!-- Node2&#45;&gt;Node37 -->
<g id="edge43" class="edge">
<title>Node2&#45;&gt;Node37</title>
<path fill="none" stroke="#63b8ff" d="M741.47,-621.1C713.87,-610.19 666.85,-591.62 635.12,-579.09"/>
<polygon fill="#63b8ff" stroke="#63b8ff" points="636.59,-575.9 626,-575.48 634.02,-582.41 636.59,-575.9"/>
</g>
<!-- Node38 -->
<g id="node36" class="node">
<title>Node38</title>
<g id="a_node36"><a xlink:href="broadcaster_8hpp.html" target="_top" xlink:title=" ">
<polygon fill="white" stroke="#666666" points="343.5,-508.5 238.5,-508.5 238.5,-489.5 343.5,-489.5 343.5,-508.5"/>
<text text-anchor="middle" x="291" y="-496.5" font-family="Helvetica,sans-Serif" font-size="10.00">crdt/broadcaster.hpp</text>
</a>
</g>
</g>
<!-- Node2&#45;&gt;Node38 -->
<g id="edge48" class="edge">
<title>Node2&#45;&gt;Node38</title>
<path fill="none" stroke="#63b8ff" d="M705.63,-628.74C635.75,-625.61 516.1,-615.05 420,-580 378,-564.68 335.02,-534.54 310.8,-515.94"/>
<polygon fill="#63b8ff" stroke="#63b8ff" points="313.13,-513.32 303.1,-509.92 308.82,-518.84 313.13,-513.32"/>
</g>
<!-- Node39 -->
<g id="node37" class="node">
<title>Node39</title>
<g id="a_node37"><a xlink:href="dagsyncer_8hpp.html" target="_top" xlink:title=" ">
<polygon fill="white" stroke="#666666" points="1410,-574.5 1312,-574.5 1312,-555.5 1410,-555.5 1410,-574.5"/>
<text text-anchor="middle" x="1361" y="-562.5" font-family="Helvetica,sans-Serif" font-size="10.00">crdt/dagsyncer.hpp</text>
</a>
</g>
</g>
<!-- Node2&#45;&gt;Node39 -->
<g id="edge50" class="edge">
<title>Node2&#45;&gt;Node39</title>
<path fill="none" stroke="#63b8ff" d="M802.82,-621C812.02,-619.12 821.82,-617.31 831,-616 1037.09,-586.65 1092.1,-610.66 1298,-580 1303.2,-579.23 1308.61,-578.27 1313.97,-577.21"/>
<polygon fill="#63b8ff" stroke="#63b8ff" points="1314.29,-580.72 1323.37,-575.26 1312.87,-573.87 1314.29,-580.72"/>
</g>
<!-- Node41 -->
<g id="node39" class="node">
<title>Node41</title>
<g id="a_node39"><a xlink:href="crdt__options_8hpp.html" target="_top" xlink:title=" ">
<polygon fill="white" stroke="#666666" points="263.5,-574.5 156.5,-574.5 156.5,-555.5 263.5,-555.5 263.5,-574.5"/>
<text text-anchor="middle" x="210" y="-562.5" font-family="Helvetica,sans-Serif" font-size="10.00">crdt/crdt_options.hpp</text>
</a>
</g>
</g>
<!-- Node2&#45;&gt;Node41 -->
<g id="edge53" class="edge">
<title>Node2&#45;&gt;Node41</title>
<path fill="none" stroke="#63b8ff" d="M705.66,-624.08C619.33,-615.21 452.53,-597.62 311,-580 299.42,-578.56 287.1,-576.93 275.2,-575.31"/>
<polygon fill="#63b8ff" stroke="#63b8ff" points="275.84,-571.86 265.45,-573.97 274.88,-578.8 275.84,-571.86"/>
</g>
<!-- Node43 -->
<g id="node41" class="node">
<title>Node43</title>
<g id="a_node41"><a xlink:title=" ">
<polygon fill="#e0e0e0" stroke="#999999" points="757,-580 671,-580 671,-550 757,-550 757,-580"/>
<text text-anchor="start" x="679" y="-568" font-family="Helvetica,sans-Serif" font-size="10.00">ipfs_lite/ipld/ipld</text>
<text text-anchor="middle" x="714" y="-557" font-family="Helvetica,sans-Serif" font-size="10.00">_node.hpp</text>
</a>
</g>
</g>
<!-- Node2&#45;&gt;Node43 -->
<g id="edge59" class="edge">
<title>Node2&#45;&gt;Node43</title>
<path fill="none" stroke="#63b8ff" d="M757.05,-621.1C750.59,-612.84 740.7,-600.17 732.02,-589.06"/>
<polygon fill="#63b8ff" stroke="#63b8ff" points="734.97,-587.15 726.05,-581.43 729.45,-591.46 734.97,-587.15"/>
</g>
<!-- Node44 -->
<g id="node42" class="node">
<title>Node44</title>
<g id="a_node42"><a xlink:title=" ">
<polygon fill="#e0e0e0" stroke="#999999" points="852.5,-574.5 775.5,-574.5 775.5,-555.5 852.5,-555.5 852.5,-574.5"/>
<text text-anchor="middle" x="814" y="-562.5" font-family="Helvetica,sans-Serif" font-size="10.00">shared_mutex</text>
</a>
</g>
</g>
<!-- Node2&#45;&gt;Node44 -->
<g id="edge60" class="edge">
<title>Node2&#45;&gt;Node44</title>
<path fill="none" stroke="#63b8ff" d="M770.95,-621.1C778.49,-611.45 790.71,-595.81 800.21,-583.65"/>
<polygon fill="#63b8ff" stroke="#63b8ff" points="802.78,-586.05 806.17,-576.02 797.26,-581.74 802.78,-586.05"/>
</g>
<!-- Node45 -->
<g id="node43" class="node">
<title>Node45</title>
<g id="a_node43"><a xlink:title=" ">
<polygon fill="#e0e0e0" stroke="#999999" points="911.5,-574.5 870.5,-574.5 870.5,-555.5 911.5,-555.5 911.5,-574.5"/>
<text text-anchor="middle" x="891" y="-562.5" font-family="Helvetica,sans-Serif" font-size="10.00">future</text>
</a>
</g>
</g>
<!-- Node2&#45;&gt;Node45 -->
<g id="edge61" class="edge">
<title>Node2&#45;&gt;Node45</title>
<path fill="none" stroke="#63b8ff" d="M781.66,-621.1C802.79,-610.45 838.44,-592.49 863.26,-579.98"/>
<polygon fill="#63b8ff" stroke="#63b8ff" points="864.78,-583.13 872.14,-575.5 861.63,-576.88 864.78,-583.13"/>
</g>
<!-- Node46 -->
<g id="node44" class="node">
<title>Node46</title>
<g id="a_node44"><a xlink:title=" ">
<polygon fill="#e0e0e0" stroke="#999999" points="976,-574.5 930,-574.5 930,-555.5 976,-555.5 976,-574.5"/>
<text text-anchor="middle" x="953" y="-562.5" font-family="Helvetica,sans-Serif" font-size="10.00">chrono</text>
</a>
</g>
</g>
<!-- Node2&#45;&gt;Node46 -->
<g id="edge62" class="edge">
<title>Node2&#45;&gt;Node46</title>
<path fill="none" stroke="#63b8ff" d="M795.31,-621.08C827.23,-611.73 878.04,-596.19 921,-580 921.64,-579.76 922.28,-579.51 922.93,-579.26"/>
<polygon fill="#63b8ff" stroke="#63b8ff" points="924.18,-582.53 932.1,-575.49 921.52,-576.06 924.18,-582.53"/>
</g>
<!-- Node47 -->
<g id="node45" class="node">
<title>Node47</title>
<g id="a_node45"><a xlink:title=" ">
<polygon fill="#e0e0e0" stroke="#999999" points="1037.5,-574.5 994.5,-574.5 994.5,-555.5 1037.5,-555.5 1037.5,-574.5"/>
<text text-anchor="middle" x="1016" y="-562.5" font-family="Helvetica,sans-Serif" font-size="10.00">queue</text>
</a>
</g>
</g>
<!-- Node2&#45;&gt;Node47 -->
<g id="edge63" class="edge">
<title>Node2&#45;&gt;Node47</title>
<path fill="none" stroke="#63b8ff" d="M805.45,-621.1C864.63,-608.31 968.12,-585.66 985,-580 985.8,-579.73 986.6,-579.45 987.41,-579.16"/>
<polygon fill="#63b8ff" stroke="#63b8ff" points="988.53,-582.48 996.48,-575.48 985.9,-576 988.53,-582.48"/>
</g>
<!-- Node48 -->
<g id="node46" class="node">
<title>Node48</title>
<g id="a_node46"><a xlink:title=" ">
<polygon fill="#e0e0e0" stroke="#999999" points="1100,-574.5 1056,-574.5 1056,-555.5 1100,-555.5 1100,-574.5"/>
<text text-anchor="middle" x="1078" y="-562.5" font-family="Helvetica,sans-Serif" font-size="10.00">thread</text>
</a>
</g>
</g>
<!-- Node2&#45;&gt;Node48 -->
<g id="edge64" class="edge">
<title>Node2&#45;&gt;Node48</title>
<path fill="none" stroke="#63b8ff" d="M805.41,-621.07C813.86,-619.33 822.71,-617.56 831,-616 926.65,-598.04 953.87,-608.27 1047,-580 1047.96,-579.71 1048.94,-579.39 1049.91,-579.06"/>
<polygon fill="#63b8ff" stroke="#63b8ff" points="1050.86,-582.45 1058.87,-575.51 1048.28,-575.94 1050.86,-582.45"/>
</g>
<!-- Node5 -->
<g id="node5" class="node">
<title>Node5</title>
<g id="a_node5"><a xlink:title=" ">
<polygon fill="#e0e0e0" stroke="#999999" points="191.5,-376.5 102.5,-376.5 102.5,-357.5 191.5,-357.5 191.5,-376.5"/>
<text text-anchor="middle" x="147" y="-364.5" font-family="Helvetica,sans-Serif" font-size="10.00">spdlog/fmt/ostr.h</text>
</a>
</g>
</g>
<!-- Node4&#45;&gt;Node5 -->
<g id="edge4" class="edge">
<title>Node4&#45;&gt;Node5</title>
<path fill="none" stroke="#63b8ff" d="M101.37,-423.1C109.36,-413.45 122.32,-397.81 132.39,-385.65"/>
<polygon fill="#63b8ff" stroke="#63b8ff" points="135.05,-387.92 138.73,-377.99 129.65,-383.46 135.05,-387.92"/>
</g>
<!-- Node6 -->
<g id="node6" class="node">
<title>Node6</title>
<g id="a_node6"><a xlink:title=" ">
<polygon fill="#e0e0e0" stroke="#999999" points="84,-376.5 0,-376.5 0,-357.5 84,-357.5 84,-376.5"/>
<text text-anchor="middle" x="42" y="-364.5" font-family="Helvetica,sans-Serif" font-size="10.00">spdlog/spdlog.h</text>
</a>
</g>
</g>
<!-- Node4&#45;&gt;Node6 -->
<g id="edge5" class="edge">
<title>Node4&#45;&gt;Node6</title>
<path fill="none" stroke="#63b8ff" d="M86.77,-423.1C78.93,-413.45 66.22,-397.81 56.34,-385.65"/>
<polygon fill="#63b8ff" stroke="#63b8ff" points="59.15,-383.55 50.12,-378 53.71,-387.97 59.15,-383.55"/>
</g>
<!-- Node9 -->
<g id="node9" class="node">
<title>Node9</title>
<g id="a_node9"><a xlink:title=" ">
<polygon fill="#e0e0e0" stroke="#999999" points="827.5,-508.5 784.5,-508.5 784.5,-489.5 827.5,-489.5 827.5,-508.5"/>
<text text-anchor="middle" x="806" y="-496.5" font-family="Helvetica,sans-Serif" font-size="10.00">mutex</text>
</a>
</g>
</g>
<!-- Node8&#45;&gt;Node9 -->
<g id="edge8" class="edge">
<title>Node8&#45;&gt;Node9</title>
<path fill="none" stroke="#63b8ff" d="M520.43,-555.03C527.51,-553.23 534.98,-551.45 542,-550 644.62,-528.82 674.55,-543.84 775,-514 775.97,-513.71 776.94,-513.4 777.92,-513.07"/>
<polygon fill="#63b8ff" stroke="#63b8ff" points="778.85,-516.47 786.88,-509.55 776.29,-509.95 778.85,-516.47"/>
</g>
<!-- Node8&#45;&gt;Node10 -->
<g id="edge9" class="edge">
<title>Node8&#45;&gt;Node10</title>
<path fill="none" stroke="#63b8ff" d="M480.35,-555.1C471.98,-545.36 458.35,-529.5 447.86,-517.29"/>
<polygon fill="#63b8ff" stroke="#63b8ff" points="450.74,-515.27 441.57,-509.97 445.43,-519.84 450.74,-515.27"/>
</g>
<!-- Node34 -->
<g id="node32" class="node">
<title>Node34</title>
<g id="a_node32"><a xlink:href="hierarchical__key_8hpp.html" target="_top" xlink:title=" ">
<polygon fill="white" stroke="#666666" points="646,-508.5 522,-508.5 522,-489.5 646,-489.5 646,-508.5"/>
<text text-anchor="middle" x="584" y="-496.5" font-family="Helvetica,sans-Serif" font-size="10.00">crdt/hierarchical_key.hpp</text>
</a>
</g>
</g>
<!-- Node8&#45;&gt;Node34 -->
<g id="edge39" class="edge">
<title>Node8&#45;&gt;Node34</title>
<path fill="none" stroke="#63b8ff" d="M501.35,-555.1C516.82,-544.78 542.59,-527.61 561.24,-515.17"/>
<polygon fill="#63b8ff" stroke="#63b8ff" points="563.13,-518.12 569.51,-509.66 559.24,-512.3 563.13,-518.12"/>
</g>
<!-- Node36 -->
<g id="node34" class="node">
<title>Node36</title>
<g id="a_node34"><a xlink:title=" ">
<polygon fill="#e0e0e0" stroke="#999999" points="766,-508.5 664,-508.5 664,-489.5 766,-489.5 766,-508.5"/>
<text text-anchor="middle" x="715" y="-496.5" font-family="Helvetica,sans-Serif" font-size="10.00">crdt/proto/delta.pb.h</text>
</a>
</g>
</g>
<!-- Node8&#45;&gt;Node36 -->
<g id="edge42" class="edge">
<title>Node8&#45;&gt;Node36</title>
<path fill="none" stroke="#63b8ff" d="M519.56,-555.1C559.35,-543.88 627.89,-524.56 672.32,-512.03"/>
<polygon fill="#63b8ff" stroke="#63b8ff" points="673.21,-515.42 681.88,-509.34 671.31,-508.68 673.21,-515.42"/>
</g>
<!-- Node10&#45;&gt;Node4 -->
<g id="edge15" class="edge">
<title>Node10&#45;&gt;Node4</title>
<path fill="none" stroke="#63b8ff" d="M385.51,-489.03C322.98,-477.23 213.32,-456.53 147.8,-444.16"/>
<polygon fill="#63b8ff" stroke="#63b8ff" points="148.85,-440.79 138.38,-442.38 147.55,-447.67 148.85,-440.79"/>
</g>
<!-- Node11 -->
<g id="node11" class="node">
<title>Node11</title>
<g id="a_node11"><a xlink:title=" ">
<polygon fill="#e0e0e0" stroke="#999999" points="860,-442.5 708,-442.5 708,-423.5 860,-423.5 860,-442.5"/>
<text text-anchor="middle" x="784" y="-430.5" font-family="Helvetica,sans-Serif" font-size="10.00">rocksdb/rocksdb_namespace.h</text>
</a>
</g>
</g>
<!-- Node10&#45;&gt;Node11 -->
<g id="edge10" class="edge">
<title>Node10&#45;&gt;Node11</title>
<path fill="none" stroke="#63b8ff" d="M482.17,-489.03C545.53,-477.48 655.62,-457.41 723.88,-444.96"/>
<polygon fill="#63b8ff" stroke="#63b8ff" points="724.18,-448.47 733.39,-443.23 722.92,-441.58 724.18,-448.47"/>
</g>
<!-- Node12 -->
<g id="node12" class="node">
<title>Node12</title>
<g id="a_node12"><a xlink:title=" ">
<polygon fill="#e0e0e0" stroke="#999999" points="348,-442.5 276,-442.5 276,-423.5 348,-423.5 348,-442.5"/>
<text text-anchor="middle" x="312" y="-430.5" font-family="Helvetica,sans-Serif" font-size="10.00">rocksdb/db.h</text>
</a>
</g>
</g>
<!-- Node10&#45;&gt;Node12 -->
<g id="edge11" class="edge">
<title>Node10&#45;&gt;Node12</title>
<path fill="none" stroke="#63b8ff" d="M416.18,-489.1C396.13,-478.5 362.38,-460.65 338.74,-448.15"/>
<polygon fill="#63b8ff" stroke="#63b8ff" points="340.5,-445.11 330.02,-443.53 337.22,-451.3 340.5,-445.11"/>
</g>
<!-- Node13 -->
<g id="node13" class="node">
<title>Node13</title>
<g id="a_node13"><a xlink:title=" ">
<polygon fill="#e0e0e0" stroke="#999999" points="448,-442.5 366,-442.5 366,-423.5 448,-423.5 448,-442.5"/>
<text text-anchor="middle" x="407" y="-430.5" font-family="Helvetica,sans-Serif" font-size="10.00">rocksdb/slice.h</text>
</a>
</g>
</g>
<!-- Node10&#45;&gt;Node13 -->
<g id="edge12" class="edge">
<title>Node10&#45;&gt;Node13</title>
<path fill="none" stroke="#63b8ff" d="M429.38,-489.1C425.66,-479.93 419.73,-465.34 414.91,-453.48"/>
<polygon fill="#63b8ff" stroke="#63b8ff" points="418.16,-452.17 411.15,-444.23 411.68,-454.81 418.16,-452.17"/>
</g>
<!-- Node14 -->
<g id="node14" class="node">
<title>Node14</title>
<g id="a_node14"><a xlink:title=" ">
<polygon fill="#e0e0e0" stroke="#999999" points="559.5,-442.5 466.5,-442.5 466.5,-423.5 559.5,-423.5 559.5,-442.5"/>
<text text-anchor="middle" x="513" y="-430.5" font-family="Helvetica,sans-Serif" font-size="10.00">rocksdb/options.h</text>
</a>
</g>
</g>
<!-- Node10&#45;&gt;Node14 -->
<g id="edge13" class="edge">
<title>Node10&#45;&gt;Node14</title>
<path fill="none" stroke="#63b8ff" d="M444.12,-489.1C456.78,-478.98 477.7,-462.24 493.17,-449.87"/>
<polygon fill="#63b8ff" stroke="#63b8ff" points="495.17,-452.75 500.79,-443.77 490.79,-447.28 495.17,-452.75"/>
</g>
<!-- Node15 -->
<g id="node15" class="node">
<title>Node15</title>
<g id="a_node15"><a xlink:title=" ">
<polygon fill="#e0e0e0" stroke="#999999" points="690,-442.5 578,-442.5 578,-423.5 690,-423.5 690,-442.5"/>
<text text-anchor="middle" x="634" y="-430.5" font-family="Helvetica,sans-Serif" font-size="10.00">rocksdb/write_batch.h</text>
</a>
</g>
</g>
<!-- Node10&#45;&gt;Node15 -->
<g id="edge14" class="edge">
<title>Node10&#45;&gt;Node15</title>
<path fill="none" stroke="#63b8ff" d="M460.95,-489.1C495.88,-477.98 555.84,-458.89 595.2,-446.35"/>
<polygon fill="#63b8ff" stroke="#63b8ff" points="596.06,-449.75 604.52,-443.39 593.93,-443.08 596.06,-449.75"/>
</g>
<!-- Node16 -->
<g id="node16" class="node">
<title>Node16</title>
<g id="a_node16"><a xlink:href="buffer__map__types_8hpp.html" target="_top" xlink:title=" ">
<polygon fill="white" stroke="#666666" points="1016,-448 916,-448 916,-418 1016,-418 1016,-448"/>
<text text-anchor="start" x="924" y="-436" font-family="Helvetica,sans-Serif" font-size="10.00">storage/buffer_map</text>
<text text-anchor="middle" x="966" y="-425" font-family="Helvetica,sans-Serif" font-size="10.00">_types.hpp</text>
</a>
</g>
</g>
<!-- Node10&#45;&gt;Node16 -->
<g id="edge16" class="edge">
<title>Node10&#45;&gt;Node16</title>
<path fill="none" stroke="#63b8ff" d="M480.71,-489.07C491.32,-487.24 502.52,-485.44 513,-484 670.54,-462.28 711.15,-467.36 869,-448 880.52,-446.59 892.78,-444.93 904.58,-443.27"/>
<polygon fill="#63b8ff" stroke="#63b8ff" points="904.81,-446.77 914.21,-441.89 903.82,-439.84 904.81,-446.77"/>
</g>
<!-- Node17 -->
<g id="node17" class="node">
<title>Node17</title>
<g id="a_node17"><a xlink:title=" ">
<polygon fill="#e0e0e0" stroke="#999999" points="936.5,-310.5 883.5,-310.5 883.5,-291.5 936.5,-291.5 936.5,-310.5"/>
<text text-anchor="middle" x="910" y="-298.5" font-family="Helvetica,sans-Serif" font-size="10.00">gsl/span</text>
</a>
</g>
</g>
<!-- Node16&#45;&gt;Node17 -->
<g id="edge17" class="edge">
<title>Node16&#45;&gt;Node17</title>
<path fill="none" stroke="#63b8ff" d="M959.79,-417.59C949.67,-394.09 929.59,-347.49 918.27,-321.2"/>
<polygon fill="#63b8ff" stroke="#63b8ff" points="921.52,-319.9 914.35,-312.1 915.09,-322.67 921.52,-319.9"/>
</g>
<!-- Node18 -->
<g id="node18" class="node">
<title>Node18</title>
<g id="a_node18"><a xlink:href="buffer_8hpp.html" target="_top" xlink:title=" ">
<polygon fill="white" stroke="#666666" points="683.5,-376.5 600.5,-376.5 600.5,-357.5 683.5,-357.5 683.5,-376.5"/>
<text text-anchor="middle" x="642" y="-364.5" font-family="Helvetica,sans-Serif" font-size="10.00">base/buffer.hpp</text>
</a>
</g>
</g>
<!-- Node16&#45;&gt;Node18 -->
<g id="edge18" class="edge">
<title>Node16&#45;&gt;Node18</title>
<path fill="none" stroke="#63b8ff" d="M915.73,-422.07C855.66,-410.2 755.62,-390.44 694.56,-378.38"/>
<polygon fill="#63b8ff" stroke="#63b8ff" points="695.6,-375.02 685.11,-376.52 694.24,-381.89 695.6,-375.02"/>
</g>
<!-- Node25 -->
<g id="node25" class="node">
<title>Node25</title>
<g id="a_node25"><a xlink:href="batchable_8hpp.html" target="_top" xlink:title=" ">
<polygon fill="white" stroke="#666666" points="1126,-250 992,-250 992,-231 1126,-231 1126,-250"/>
<text text-anchor="middle" x="1059" y="-238" font-family="Helvetica,sans-Serif" font-size="10.00">storage/face/batchable.hpp</text>
</a>
</g>
</g>
<!-- Node16&#45;&gt;Node25 -->
<g id="edge26" class="edge">
<title>Node16&#45;&gt;Node25</title>
<path fill="none" stroke="#63b8ff" d="M1016.43,-420.05C1036.37,-412.58 1057.29,-400.7 1069,-382 1092.51,-344.46 1077.74,-289.71 1067.1,-260.89"/>
<polygon fill="#63b8ff" stroke="#63b8ff" points="1070.39,-259.69 1063.47,-251.66 1063.87,-262.25 1070.39,-259.69"/>
</g>
<!-- Node27 -->
<g id="node27" class="node">
<title>Node27</title>
<g id="a_node27"><a xlink:href="write__batch_8hpp.html" target="_top" xlink:title=" ">
<polygon fill="white" stroke="#666666" points="1106.5,-195 1011.5,-195 1011.5,-165 1106.5,-165 1106.5,-195"/>
<text text-anchor="start" x="1019.5" y="-183" font-family="Helvetica,sans-Serif" font-size="10.00">storage/face/write</text>
<text text-anchor="middle" x="1059" y="-172" font-family="Helvetica,sans-Serif" font-size="10.00">_batch.hpp</text>
</a>
</g>
</g>
<!-- Node16&#45;&gt;Node27 -->
<g id="edge38" class="edge">
<title>Node16&#45;&gt;Node27</title>
<path fill="none" stroke="#63b8ff" d="M1011.95,-417.54C1041.74,-407.36 1076.98,-393.55 1088,-382 1136.52,-331.15 1168.35,-292.87 1135,-231 1128.26,-218.49 1116.87,-208.6 1104.93,-201.03"/>
<polygon fill="#63b8ff" stroke="#63b8ff" points="1107.04,-198.21 1096.63,-196.22 1103.52,-204.26 1107.04,-198.21"/>
</g>
<!-- Node29 -->
<g id="node29" class="node">
<title>Node29</title>
<g id="a_node29"><a xlink:href="generic__storage_8hpp.html" target="_top" xlink:title=" ">
<polygon fill="white" stroke="#666666" points="1059.5,-382 954.5,-382 954.5,-352 1059.5,-352 1059.5,-382"/>
<text text-anchor="start" x="962.5" y="-370" font-family="Helvetica,sans-Serif" font-size="10.00">storage/face/generic</text>
<text text-anchor="middle" x="1007" y="-359" font-family="Helvetica,sans-Serif" font-size="10.00">_storage.hpp</text>
</a>
</g>
</g>
<!-- Node16&#45;&gt;Node29 -->
<g id="edge32" class="edge">
<title>Node16&#45;&gt;Node29</title>
<path fill="none" stroke="#63b8ff" d="M975.1,-417.8C979.98,-410.17 986.13,-400.57 991.72,-391.84"/>
<polygon fill="#63b8ff" stroke="#63b8ff" points="994.66,-393.75 997.11,-383.44 988.77,-389.97 994.66,-393.75"/>
</g>
<!-- Node18&#45;&gt;Node17 -->
<g id="edge23" class="edge">
<title>Node18&#45;&gt;Node17</title>
<path fill="none" stroke="#63b8ff" d="M684,-359.02C730.86,-350.76 808.69,-335.6 874,-316 875.37,-315.59 876.77,-315.15 878.17,-314.69"/>
<polygon fill="#63b8ff" stroke="#63b8ff" points="879.21,-318.03 887.45,-311.37 876.85,-311.44 879.21,-318.03"/>
</g>
<!-- Node19 -->
<g id="node19" class="node">
<title>Node19</title>
<g id="a_node19"><a xlink:title=" ">
<polygon fill="#e0e0e0" stroke="#999999" points="675,-310.5 609,-310.5 609,-291.5 675,-291.5 675,-310.5"/>
<text text-anchor="middle" x="642" y="-298.5" font-family="Helvetica,sans-Serif" font-size="10.00">string_view</text>
</a>
</g>
</g>
<!-- Node18&#45;&gt;Node19 -->
<g id="edge19" class="edge">
<title>Node18&#45;&gt;Node19</title>
<path fill="none" stroke="#63b8ff" d="M642,-357.1C642,-348.12 642,-333.95 642,-322.22"/>
<polygon fill="#63b8ff" stroke="#63b8ff" points="645.5,-322.34 642,-312.34 638.5,-322.34 645.5,-322.34"/>
</g>
<!-- Node20 -->
<g id="node20" class="node">
<title>Node20</title>
<g id="a_node20"><a xlink:title=" ">
<polygon fill="#e0e0e0" stroke="#999999" points="865,-310.5 821,-310.5 821,-291.5 865,-291.5 865,-310.5"/>
<text text-anchor="middle" x="843" y="-298.5" font-family="Helvetica,sans-Serif" font-size="10.00">vector</text>
</a>
</g>
</g>
<!-- Node18&#45;&gt;Node20 -->
<g id="edge20" class="edge">
<title>Node18&#45;&gt;Node20</title>
<path fill="none" stroke="#63b8ff" d="M677.63,-357.06C712.35,-347.99 766.43,-332.9 812,-316 812.64,-315.76 813.29,-315.52 813.94,-315.27"/>
<polygon fill="#63b8ff" stroke="#63b8ff" points="815.21,-318.53 823.09,-311.45 812.51,-312.07 815.21,-318.53"/>
</g>
<!-- Node21 -->
<g id="node21" class="node">
<title>Node21</title>
<g id="a_node21"><a xlink:title=" ">
<polygon fill="#e0e0e0" stroke="#999999" points="803,-316 693,-316 693,-286 803,-286 803,-316"/>
<text text-anchor="start" x="701" y="-304" font-family="Helvetica,sans-Serif" font-size="10.00">boost/container_hash</text>
<text text-anchor="middle" x="748" y="-293" font-family="Helvetica,sans-Serif" font-size="10.00">/hash.hpp</text>
</a>
</g>
</g>
<!-- Node18&#45;&gt;Node21 -->
<g id="edge21" class="edge">
<title>Node18&#45;&gt;Node21</title>
<path fill="none" stroke="#63b8ff" d="M656.74,-357.1C671.56,-348.15 694.94,-334.04 714.32,-322.34"/>
<polygon fill="#63b8ff" stroke="#63b8ff" points="715.97,-325.42 722.73,-317.26 712.36,-319.43 715.97,-325.42"/>
</g>
<!-- Node22 -->
<g id="node22" class="node">
<title>Node22</title>
<g id="a_node22"><a xlink:title=" ">
<polygon fill="#e0e0e0" stroke="#999999" points="591,-310.5 489,-310.5 489,-291.5 591,-291.5 591,-310.5"/>
<text text-anchor="middle" x="540" y="-298.5" font-family="Helvetica,sans-Serif" font-size="10.00">boost/operators.hpp</text>
</a>
</g>
</g>
<!-- Node18&#45;&gt;Node22 -->
<g id="edge22" class="edge">
<title>Node18&#45;&gt;Node22</title>
<path fill="none" stroke="#63b8ff" d="M627.82,-357.1C611.22,-346.69 583.49,-329.29 563.63,-316.83"/>
<polygon fill="#63b8ff" stroke="#63b8ff" points="565.68,-313.98 555.34,-311.63 561.95,-319.91 565.68,-313.98"/>
</g>
<!-- Node23 -->
<g id="node23" class="node">
<title>Node23</title>
<g id="a_node23"><a xlink:href="outcome_8hpp.html" target="_top" xlink:title=" ">
<polygon fill="white" stroke="#666666" points="683.5,-74 570.5,-74 570.5,-55 683.5,-55 683.5,-74"/>
<text text-anchor="middle" x="627" y="-62" font-family="Helvetica,sans-Serif" font-size="10.00">outcome/outcome.hpp</text>
</a>
</g>
</g>
<!-- Node18&#45;&gt;Node23 -->
<g id="edge24" class="edge">
<title>Node18&#45;&gt;Node23</title>
<path fill="none" stroke="#63b8ff" d="M600.22,-364.15C563.52,-360.26 511.25,-348.84 480,-316 456.44,-291.25 461,-275.67 461,-241.5 461,-241.5 461,-241.5 461,-179 461,-122.81 526.63,-92.41 575.35,-77.58"/>
<polygon fill="#63b8ff" stroke="#63b8ff" points="576.3,-80.95 584.94,-74.81 574.36,-74.22 576.3,-80.95"/>
</g>
<!-- Node24 -->
<g id="node24" class="node">
<title>Node24</title>
<g id="a_node24"><a xlink:title=" ">
<polygon fill="#e0e0e0" stroke="#999999" points="697.5,-19 556.5,-19 556.5,0 697.5,0 697.5,-19"/>
<text text-anchor="middle" x="627" y="-7" font-family="Helvetica,sans-Serif" font-size="10.00">libp2p/outcome/outcome.hpp</text>
</a>
</g>
</g>
<!-- Node23&#45;&gt;Node24 -->
<g id="edge25" class="edge">
<title>Node23&#45;&gt;Node24</title>
<path fill="none" stroke="#63b8ff" d="M627,-54.75C627,-48.27 627,-39.16 627,-30.9"/>
<polygon fill="#63b8ff" stroke="#63b8ff" points="630.5,-30.96 627,-20.96 623.5,-30.96 630.5,-30.96"/>
</g>
<!-- Node26 -->
<g id="node26" class="node">
<title>Node26</title>
<g id="a_node26"><a xlink:title=" ">
<polygon fill="#e0e0e0" stroke="#999999" points="941.5,-189.5 890.5,-189.5 890.5,-170.5 941.5,-170.5 941.5,-189.5"/>
<text text-anchor="middle" x="916" y="-177.5" font-family="Helvetica,sans-Serif" font-size="10.00">memory</text>
</a>
</g>
</g>
<!-- Node25&#45;&gt;Node26 -->
<g id="edge27" class="edge">
<title>Node25&#45;&gt;Node26</title>
<path fill="none" stroke="#63b8ff" d="M1037.28,-230.62C1013.66,-220.95 975.64,-205.4 948.47,-194.28"/>
<polygon fill="#63b8ff" stroke="#63b8ff" points="949.9,-191.09 939.32,-190.54 947.25,-197.57 949.9,-191.09"/>
</g>
<!-- Node25&#45;&gt;Node27 -->
<g id="edge28" class="edge">
<title>Node25&#45;&gt;Node27</title>
<path fill="none" stroke="#63b8ff" d="M1059,-230.87C1059,-224.4 1059,-215.2 1059,-206.45"/>
<polygon fill="#63b8ff" stroke="#63b8ff" points="1062.5,-206.63 1059,-196.63 1055.5,-206.63 1062.5,-206.63"/>
</g>
<!-- Node28 -->
<g id="node28" class="node">
<title>Node28</title>
<g id="a_node28"><a xlink:href="writeable_8hpp.html" target="_top" xlink:title=" ">
<polygon fill="white" stroke="#666666" points="967.5,-129 836.5,-129 836.5,-110 967.5,-110 967.5,-129"/>
<text text-anchor="middle" x="902" y="-117" font-family="Helvetica,sans-Serif" font-size="10.00">storage/face/writeable.hpp</text>
</a>
</g>
</g>
<!-- Node25&#45;&gt;Node28 -->
<g id="edge31" class="edge">
<title>Node25&#45;&gt;Node28</title>
<path fill="none" stroke="#63b8ff" d="M1047.2,-230.56C1020.59,-210.39 955.64,-161.15 922.37,-135.94"/>
<polygon fill="#63b8ff" stroke="#63b8ff" points="924.8,-133.39 914.72,-130.14 920.57,-138.97 924.8,-133.39"/>
</g>
<!-- Node27&#45;&gt;Node28 -->
<g id="edge29" class="edge">
<title>Node27&#45;&gt;Node28</title>
<path fill="none" stroke="#63b8ff" d="M1020.19,-164.54C994.52,-154.97 961.16,-142.55 936.44,-133.33"/>
<polygon fill="#63b8ff" stroke="#63b8ff" points="937.75,-130.09 927.16,-129.87 935.31,-136.65 937.75,-130.09"/>
</g>
<!-- Node28&#45;&gt;Node23 -->
<g id="edge30" class="edge">
<title>Node28&#45;&gt;Node23</title>
<path fill="none" stroke="#63b8ff" d="M855.35,-109.51C808.19,-100.42 735.23,-86.36 684.52,-76.59"/>
<polygon fill="#63b8ff" stroke="#63b8ff" points="685.39,-73.19 674.91,-74.73 684.06,-80.06 685.39,-73.19"/>
</g>
<!-- Node30 -->
<g id="node30" class="node">
<title>Node30</title>
<g id="a_node30"><a xlink:href="generic__maps_8hpp.html" target="_top" xlink:title=" ">
<polygon fill="#fff0f0" stroke="red" points="1059.5,-316 954.5,-316 954.5,-286 1059.5,-286 1059.5,-316"/>
<text text-anchor="start" x="962.5" y="-304" font-family="Helvetica,sans-Serif" font-size="10.00">storage/face/generic</text>
<text text-anchor="middle" x="1007" y="-293" font-family="Helvetica,sans-Serif" font-size="10.00">_maps.hpp</text>
</a>
</g>
</g>
<!-- Node29&#45;&gt;Node30 -->
<g id="edge33" class="edge">
<title>Node29&#45;&gt;Node30</title>
<path fill="none" stroke="#63b8ff" d="M1007,-351.8C1007,-344.67 1007,-335.82 1007,-327.56"/>
<polygon fill="#63b8ff" stroke="#63b8ff" points="1010.5,-327.68 1007,-317.68 1003.5,-327.68 1010.5,-327.68"/>
</g>
<!-- Node30&#45;&gt;Node25 -->
<g id="edge34" class="edge">
<title>Node30&#45;&gt;Node25</title>
<path fill="none" stroke="#63b8ff" d="M1019.85,-285.54C1027.1,-277.39 1036.19,-267.16 1043.79,-258.61"/>
<polygon fill="#63b8ff" stroke="#63b8ff" points="1046.26,-261.11 1050.28,-251.31 1041.02,-256.46 1046.26,-261.11"/>
</g>
<!-- Node30&#45;&gt;Node28 -->
<g id="edge37" class="edge">
<title>Node30&#45;&gt;Node28</title>
<path fill="none" stroke="#63b8ff" d="M954.32,-287.36C908.7,-275.89 848.96,-259.38 842,-250 814.94,-213.53 857.38,-162.9 883.68,-137.08"/>
<polygon fill="#63b8ff" stroke="#63b8ff" points="885.9,-139.79 890.75,-130.38 881.09,-134.71 885.9,-139.79"/>
</g>
<!-- Node31 -->
<g id="node31" class="node">
<title>Node31</title>
<g id="a_node31"><a xlink:href="iterable_8hpp.html" target="_top" xlink:title=" ">
<polygon fill="#fff0f0" stroke="red" points="973.5,-250 850.5,-250 850.5,-231 973.5,-231 973.5,-250"/>
<text text-anchor="middle" x="912" y="-238" font-family="Helvetica,sans-Serif" font-size="10.00">storage/face/iterable.hpp</text>
</a>
</g>
</g>
<!-- Node30&#45;&gt;Node31 -->
<g id="edge35" class="edge">
<title>Node30&#45;&gt;Node31</title>
<path fill="none" stroke="#63b8ff" d="M983.52,-285.54C969.1,-276.66 950.69,-265.32 936.15,-256.37"/>
<polygon fill="#63b8ff" stroke="#63b8ff" points="938,-253.4 927.65,-251.14 934.33,-259.36 938,-253.4"/>
</g>
<!-- Node31&#45;&gt;Node26 -->
<g id="edge36" class="edge">
<title>Node31&#45;&gt;Node26</title>
<path fill="none" stroke="#63b8ff" d="M912.59,-230.87C913.13,-223 913.94,-211.1 914.64,-200.89"/>
<polygon fill="#63b8ff" stroke="#63b8ff" points="918.11,-201.39 915.3,-191.18 911.13,-200.92 918.11,-201.39"/>
</g>
<!-- Node34&#45;&gt;Node20 -->
<g id="edge41" class="edge">
<title>Node34&#45;&gt;Node20</title>
<path fill="none" stroke="#63b8ff" d="M628.28,-489.07C637.12,-487.34 646.35,-485.58 655,-484 702.44,-475.33 837.86,-484.82 869,-448 899.95,-411.41 872.15,-350.84 854.67,-320.51"/>
<polygon fill="#63b8ff" stroke="#63b8ff" points="857.76,-318.86 849.6,-312.1 851.76,-322.47 857.76,-318.86"/>
</g>
<!-- Node35 -->
<g id="node33" class="node">
<title>Node35</title>
<g id="a_node33"><a xlink:title=" ">
<polygon fill="#e0e0e0" stroke="#999999" points="1075.5,-442.5 1034.5,-442.5 1034.5,-423.5 1075.5,-423.5 1075.5,-442.5"/>
<text text-anchor="middle" x="1055" y="-430.5" font-family="Helvetica,sans-Serif" font-size="10.00">string</text>
</a>
</g>
</g>
<!-- Node34&#45;&gt;Node35 -->
<g id="edge40" class="edge">
<title>Node34&#45;&gt;Node35</title>
<path fill="none" stroke="#63b8ff" d="M625.93,-489.03C635.46,-487.19 645.55,-485.39 655,-484 818.47,-459.99 865.63,-491.56 1025,-448 1025.99,-447.73 1027,-447.43 1028,-447.1"/>
<polygon fill="#63b8ff" stroke="#63b8ff" points="1029.16,-450.4 1037.16,-443.45 1026.57,-443.9 1029.16,-450.4"/>
</g>
<!-- Node37&#45;&gt;Node7 -->
<g id="edge47" class="edge">
<title>Node37&#45;&gt;Node7</title>
<path fill="none" stroke="#63b8ff" d="M636.41,-555.07C644.74,-553.16 653.65,-551.32 662,-550 852.55,-519.91 1080.54,-507.13 1190.41,-502.41"/>
<polygon fill="#63b8ff" stroke="#63b8ff" points="1190.27,-505.92 1200.12,-502 1189.98,-498.92 1190.27,-505.92"/>
</g>
<!-- Node37&#45;&gt;Node9 -->
<g id="edge44" class="edge">
<title>Node37&#45;&gt;Node9</title>
<path fill="none" stroke="#63b8ff" d="M638.6,-555.05C673.96,-546.02 728.79,-531.01 775,-514 775.64,-513.76 776.29,-513.52 776.94,-513.27"/>
<polygon fill="#63b8ff" stroke="#63b8ff" points="778.21,-516.53 786.09,-509.46 775.52,-510.07 778.21,-516.53"/>
</g>
<!-- Node37&#45;&gt;Node10 -->
<g id="edge45" class="edge">
<title>Node37&#45;&gt;Node10</title>
<path fill="none" stroke="#63b8ff" d="M578.5,-555.1C549.57,-544.15 500.22,-525.46 467.12,-512.92"/>
<polygon fill="#63b8ff" stroke="#63b8ff" points="468.58,-509.73 457.99,-509.46 466.1,-516.28 468.58,-509.73"/>
</g>
<!-- Node37&#45;&gt;Node34 -->
<g id="edge46" class="edge">
<title>Node37&#45;&gt;Node34</title>
<path fill="none" stroke="#63b8ff" d="M599.5,-555.1C596.94,-546.03 592.9,-531.64 589.58,-519.85"/>
<polygon fill="#63b8ff" stroke="#63b8ff" points="592.97,-518.96 586.89,-510.28 586.23,-520.85 592.97,-518.96"/>
</g>
<!-- Node38&#45;&gt;Node18 -->
<g id="edge49" class="edge">
<title>Node38&#45;&gt;Node18</title>
<path fill="none" stroke="#63b8ff" d="M283.62,-489.18C271.1,-473.11 248.76,-438.84 267,-418 287.87,-394.17 490.22,-377.86 588.7,-371.27"/>
<polygon fill="#63b8ff" stroke="#63b8ff" points="588.91,-374.76 598.66,-370.62 588.45,-367.78 588.91,-374.76"/>
</g>
<!-- Node39&#45;&gt;Node7 -->
<g id="edge51" class="edge">
<title>Node39&#45;&gt;Node7</title>
<path fill="none" stroke="#63b8ff" d="M1346.4,-555.1C1329.24,-544.64 1300.51,-527.13 1280.04,-514.66"/>
<polygon fill="#63b8ff" stroke="#63b8ff" points="1282.13,-511.83 1271.77,-509.61 1278.49,-517.8 1282.13,-511.83"/>
</g>
<!-- Node40 -->
<g id="node38" class="node">
<title>Node40</title>
<g id="a_node38"><a xlink:title=" ">
<polygon fill="#e0e0e0" stroke="#999999" points="1447.5,-514 1328.5,-514 1328.5,-484 1447.5,-484 1447.5,-514"/>
<text text-anchor="start" x="1336.5" y="-502" font-family="Helvetica,sans-Serif" font-size="10.00">ipfs_lite/ipfs/merkledag</text>
<text text-anchor="middle" x="1388" y="-491" font-family="Helvetica,sans-Serif" font-size="10.00">/merkledag_service.hpp</text>
</a>
</g>
</g>
<!-- Node39&#45;&gt;Node40 -->
<g id="edge52" class="edge">
<title>Node39&#45;&gt;Node40</title>
<path fill="none" stroke="#63b8ff" d="M1364.75,-555.1C1368.07,-547.25 1373.05,-535.43 1377.56,-524.74"/>
<polygon fill="#63b8ff" stroke="#63b8ff" points="1380.74,-526.2 1381.41,-515.63 1374.3,-523.48 1380.74,-526.2"/>
</g>
<!-- Node41&#45;&gt;Node4 -->
<g id="edge55" class="edge">
<title>Node41&#45;&gt;Node4</title>
<path fill="none" stroke="#63b8ff" d="M177.44,-555.05C156.04,-547.51 129.11,-534.59 113,-514 99.61,-496.9 95.43,-471.86 94.24,-454.37"/>
<polygon fill="#63b8ff" stroke="#63b8ff" points="97.74,-454.32 93.86,-444.46 90.74,-454.59 97.74,-454.32"/>
</g>
<!-- Node41&#45;&gt;Node18 -->
<g id="edge54" class="edge">
<title>Node41&#45;&gt;Node18</title>
<path fill="none" stroke="#63b8ff" d="M209.66,-555.25C209.2,-529.3 211.78,-452.48 256,-418 306.72,-378.46 495.44,-370.07 588.88,-368.38"/>
<polygon fill="#63b8ff" stroke="#63b8ff" points="588.88,-371.88 598.82,-368.22 588.76,-364.88 588.88,-371.88"/>
</g>
<!-- Node41&#45;&gt;Node34 -->
<g id="edge56" class="edge">
<title>Node41&#45;&gt;Node34</title>
<path fill="none" stroke="#63b8ff" d="M263.73,-555.65C324.36,-546.11 425.91,-529.77 513,-514 518.14,-513.07 523.48,-512.07 528.82,-511.05"/>
<polygon fill="#63b8ff" stroke="#63b8ff" points="529.09,-514.57 538.24,-509.24 527.76,-507.7 529.09,-514.57"/>
</g>
<!-- Node42 -->
<g id="node40" class="node">
<title>Node42</title>
<g id="a_node40"><a xlink:title=" ">
<polygon fill="#e0e0e0" stroke="#999999" points="181.5,-508.5 122.5,-508.5 122.5,-489.5 181.5,-489.5 181.5,-508.5"/>
<text text-anchor="middle" x="152" y="-496.5" font-family="Helvetica,sans-Serif" font-size="10.00">functional</text>
</a>
</g>
</g>
<!-- Node41&#45;&gt;Node42 -->
<g id="edge57" class="edge">
<title>Node41&#45;&gt;Node42</title>
<path fill="none" stroke="#63b8ff" d="M201.94,-555.1C193.11,-545.36 178.73,-529.5 167.67,-517.29"/>
<polygon fill="#63b8ff" stroke="#63b8ff" points="170.32,-515 161.01,-509.94 165.13,-519.71 170.32,-515"/>
</g>
</g>
</svg>
