<?xml version="1.0" encoding="UTF-8" standalone="no"?>
<!DOCTYPE svg PUBLIC "-//W3C//DTD SVG 1.1//EN"
 "http://www.w3.org/Graphics/SVG/1.1/DTD/svg11.dtd">
<!-- Generated by graphviz version 7.0.5 (20221223.1930)
 -->
<!-- Title: src/crdt/crdt_datastore.hpp Pages: 1 -->
<svg width="1481pt" height="643pt"
 viewBox="0.00 0.00 1481.00 643.00" xmlns="http://www.w3.org/2000/svg" xmlns:xlink="http://www.w3.org/1999/xlink">
<g id="graph0" class="graph" transform="scale(1 1) rotate(0) translate(4 639)">
<title>src/crdt/crdt_datastore.hpp</title>
<!-- Node1 -->
<g id="node1" class="node">
<title>Node1</title>
<g id="a_node1"><a xlink:title=" ">
<polygon fill="#999999" stroke="#666666" points="966.5,-635 833.5,-635 833.5,-616 966.5,-616 966.5,-635"/>
<text text-anchor="middle" x="900" y="-623" font-family="Helvetica,sans-Serif" font-size="10.00">src/crdt/crdt_datastore.hpp</text>
</a>
</g>
</g>
<!-- Node2 -->
<g id="node2" class="node">
<title>Node2</title>
<g id="a_node2"><a xlink:title=" ">
<polygon fill="#e0e0e0" stroke="#999999" points="138,-574.5 0,-574.5 0,-555.5 138,-555.5 138,-574.5"/>
<text text-anchor="middle" x="69" y="-562.5" font-family="Helvetica,sans-Serif" font-size="10.00">boost/asio/steady_timer.hpp</text>
</a>
</g>
</g>
<!-- Node1&#45;&gt;Node2 -->
<g id="edge1" class="edge">
<title>Node1&#45;&gt;Node2</title>
<path fill="none" stroke="#63b8ff" d="M833.25,-622.94C702.25,-619.34 402.44,-608.49 152,-580 144.2,-579.11 136.03,-577.98 127.97,-576.75"/>
<polygon fill="#63b8ff" stroke="#63b8ff" points="128.64,-573.31 118.21,-575.19 127.53,-580.22 128.64,-573.31"/>
</g>
<!-- Node3 -->
<g id="node3" class="node">
<title>Node3</title>
<g id="a_node3"><a xlink:href="logger_8hpp.html" target="_top" xlink:title=" ">
<polygon fill="white" stroke="#666666" points="246.5,-442.5 161.5,-442.5 161.5,-423.5 246.5,-423.5 246.5,-442.5"/>
<text text-anchor="middle" x="204" y="-430.5" font-family="Helvetica,sans-Serif" font-size="10.00">base/logger.hpp</text>
</a>
</g>
</g>
<!-- Node1&#45;&gt;Node3 -->
<g id="edge2" class="edge">
<title>Node1&#45;&gt;Node3</title>
<path fill="none" stroke="#63b8ff" d="M833.19,-622.93C678.88,-618.86 306.99,-606.43 257,-580 223.99,-562.55 217.45,-549.21 205,-514 198.06,-494.38 198.9,-470.33 200.79,-453.75"/>
<polygon fill="#63b8ff" stroke="#63b8ff" points="204.21,-454.61 202.12,-444.22 197.27,-453.64 204.21,-454.61"/>
</g>
<!-- Node6 -->
<g id="node6" class="node">
<title>Node6</title>
<g id="a_node6"><a xlink:title=" ">
<polygon fill="#e0e0e0" stroke="#999999" points="1064,-508.5 956,-508.5 956,-489.5 1064,-489.5 1064,-508.5"/>
<text text-anchor="middle" x="1010" y="-496.5" font-family="Helvetica,sans-Serif" font-size="10.00">primitives/cid/cid.hpp</text>
</a>
</g>
</g>
<!-- Node1&#45;&gt;Node6 -->
<g id="edge5" class="edge">
<title>Node1&#45;&gt;Node6</title>
<path fill="none" stroke="#63b8ff" d="M900.06,-615.72C900.59,-600.72 903.63,-569.84 919,-550 932.1,-533.08 952.62,-521.1 970.86,-513.12"/>
<polygon fill="#63b8ff" stroke="#63b8ff" points="971.92,-516.47 979.86,-509.45 969.28,-509.99 971.92,-516.47"/>
</g>
<!-- Node7 -->
<g id="node7" class="node">
<title>Node7</title>
<g id="a_node7"><a xlink:href="crdt__set_8hpp.html" target="_top" xlink:title=" ">
<polygon fill="white" stroke="#666666" points="713.5,-574.5 624.5,-574.5 624.5,-555.5 713.5,-555.5 713.5,-574.5"/>
<text text-anchor="middle" x="669" y="-562.5" font-family="Helvetica,sans-Serif" font-size="10.00">crdt/crdt_set.hpp</text>
</a>
</g>
</g>
<!-- Node1&#45;&gt;Node7 -->
<g id="edge6" class="edge">
<title>Node1&#45;&gt;Node7</title>
<path fill="none" stroke="#63b8ff" d="M864.05,-615.54C828.27,-606.61 771.81,-592.46 723,-580 720.11,-579.26 717.13,-578.5 714.13,-577.73"/>
<polygon fill="#63b8ff" stroke="#63b8ff" points="715.29,-574.41 704.74,-575.3 713.54,-581.19 715.29,-574.41"/>
</g>
<!-- Node9 -->
<g id="node9" class="node">
<title>Node9</title>
<g id="a_node9"><a xlink:href="rocksdb_8hpp.html" target="_top" xlink:title=" ">
<polygon fill="white" stroke="#666666" points="938,-508.5 796,-508.5 796,-489.5 938,-489.5 938,-508.5"/>
<text text-anchor="middle" x="867" y="-496.5" font-family="Helvetica,sans-Serif" font-size="10.00">storage/rocksdb/rocksdb.hpp</text>
</a>
</g>
</g>
<!-- Node1&#45;&gt;Node9 -->
<g id="edge62" class="edge">
<title>Node1&#45;&gt;Node9</title>
<path fill="none" stroke="#63b8ff" d="M897.02,-615.69C894.05,-606.75 889.44,-592.49 886,-580 880.38,-559.6 874.9,-536.01 871.28,-519.75"/>
<polygon fill="#63b8ff" stroke="#63b8ff" points="874.79,-519.43 869.23,-510.41 867.95,-520.93 874.79,-519.43"/>
</g>
<!-- Node36 -->
<g id="node36" class="node">
<title>Node36</title>
<g id="a_node36"><a xlink:href="crdt__heads_8hpp.html" target="_top" xlink:title=" ">
<polygon fill="white" stroke="#666666" points="834,-574.5 732,-574.5 732,-555.5 834,-555.5 834,-574.5"/>
<text text-anchor="middle" x="783" y="-562.5" font-family="Helvetica,sans-Serif" font-size="10.00">crdt/crdt_heads.hpp</text>
</a>
</g>
</g>
<!-- Node1&#45;&gt;Node36 -->
<g id="edge47" class="edge">
<title>Node1&#45;&gt;Node36</title>
<path fill="none" stroke="#63b8ff" d="M882.23,-615.62C863.33,-606.17 833.18,-591.09 811.06,-580.03"/>
<polygon fill="#63b8ff" stroke="#63b8ff" points="812.8,-576.99 802.29,-575.65 809.67,-583.25 812.8,-576.99"/>
</g>
<!-- Node37 -->
<g id="node37" class="node">
<title>Node37</title>
<g id="a_node37"><a xlink:href="broadcaster_8hpp.html" target="_top" xlink:title=" ">
<polygon fill="white" stroke="#666666" points="453.5,-508.5 348.5,-508.5 348.5,-489.5 453.5,-489.5 453.5,-508.5"/>
<text text-anchor="middle" x="401" y="-496.5" font-family="Helvetica,sans-Serif" font-size="10.00">crdt/broadcaster.hpp</text>
</a>
</g>
</g>
<!-- Node1&#45;&gt;Node37 -->
<g id="edge52" class="edge">
<title>Node1&#45;&gt;Node37</title>
<path fill="none" stroke="#63b8ff" d="M833.23,-617.87C775.18,-611.2 689.15,-599.13 616,-580 548.23,-562.28 472.1,-531.15 431.09,-513.4"/>
<polygon fill="#63b8ff" stroke="#63b8ff" points="432.67,-510.27 422.11,-509.48 429.87,-516.69 432.67,-510.27"/>
</g>
<!-- Node38 -->
<g id="node38" class="node">
<title>Node38</title>
<g id="a_node38"><a xlink:href="dagsyncer_8hpp.html" target="_top" xlink:title=" ">
<polygon fill="white" stroke="#666666" points="1026,-574.5 928,-574.5 928,-555.5 1026,-555.5 1026,-574.5"/>
<text text-anchor="middle" x="977" y="-562.5" font-family="Helvetica,sans-Serif" font-size="10.00">crdt/dagsyncer.hpp</text>
</a>
</g>
</g>
<!-- Node1&#45;&gt;Node38 -->
<g id="edge54" class="edge">
<title>Node1&#45;&gt;Node38</title>
<path fill="none" stroke="#63b8ff" d="M911.69,-615.62C923.45,-606.68 941.84,-592.72 956.11,-581.87"/>
<polygon fill="#63b8ff" stroke="#63b8ff" points="958.14,-584.72 963.99,-575.88 953.91,-579.15 958.14,-584.72"/>
</g>
<!-- Node40 -->
<g id="node40" class="node">
<title>Node40</title>
<g id="a_node40"><a xlink:href="crdt__options_8hpp.html" target="_top" xlink:title=" ">
<polygon fill="white" stroke="#666666" points="373.5,-574.5 266.5,-574.5 266.5,-555.5 373.5,-555.5 373.5,-574.5"/>
<text text-anchor="middle" x="320" y="-562.5" font-family="Helvetica,sans-Serif" font-size="10.00">crdt/crdt_options.hpp</text>
</a>
</g>
</g>
<!-- Node1&#45;&gt;Node40 -->
<g id="edge57" class="edge">
<title>Node1&#45;&gt;Node40</title>
<path fill="none" stroke="#63b8ff" d="M833.18,-617.76C720.98,-606.44 496.12,-583.76 385.09,-572.57"/>
<polygon fill="#63b8ff" stroke="#63b8ff" points="385.55,-569.09 375.24,-571.57 384.84,-576.06 385.55,-569.09"/>
</g>
<!-- Node42 -->
<g id="node42" class="node">
<title>Node42</title>
<g id="a_node42"><a xlink:title=" ">
<polygon fill="#e0e0e0" stroke="#999999" points="1130,-580 1044,-580 1044,-550 1130,-550 1130,-580"/>
<text text-anchor="start" x="1052" y="-568" font-family="Helvetica,sans-Serif" font-size="10.00">ipfs_lite/ipld/ipld</text>
<text text-anchor="middle" x="1087" y="-557" font-family="Helvetica,sans-Serif" font-size="10.00">_node.hpp</text>
</a>
</g>
</g>
<!-- Node1&#45;&gt;Node42 -->
<g id="edge63" class="edge">
<title>Node1&#45;&gt;Node42</title>
<path fill="none" stroke="#63b8ff" d="M928.4,-615.62C956.06,-606.96 998.81,-593.59 1032.95,-582.91"/>
<polygon fill="#63b8ff" stroke="#63b8ff" points="1033.77,-586.32 1042.26,-579.99 1031.68,-579.64 1033.77,-586.32"/>
</g>
<!-- Node43 -->
<g id="node43" class="node">
<title>Node43</title>
<g id="a_node43"><a xlink:title=" ">
<polygon fill="#e0e0e0" stroke="#999999" points="1225.5,-574.5 1148.5,-574.5 1148.5,-555.5 1225.5,-555.5 1225.5,-574.5"/>
<text text-anchor="middle" x="1187" y="-562.5" font-family="Helvetica,sans-Serif" font-size="10.00">shared_mutex</text>
</a>
</g>
</g>
<!-- Node1&#45;&gt;Node43 -->
<g id="edge64" class="edge">
<title>Node1&#45;&gt;Node43</title>
<path fill="none" stroke="#63b8ff" d="M956.83,-615.56C1005.47,-607.52 1077.21,-594.72 1139,-580 1141.6,-579.38 1144.27,-578.71 1146.95,-578"/>
<polygon fill="#63b8ff" stroke="#63b8ff" points="1147.76,-581.41 1156.47,-575.38 1145.9,-574.66 1147.76,-581.41"/>
</g>
<!-- Node44 -->
<g id="node44" class="node">
<title>Node44</title>
<g id="a_node44"><a xlink:title=" ">
<polygon fill="#e0e0e0" stroke="#999999" points="1284.5,-574.5 1243.5,-574.5 1243.5,-555.5 1284.5,-555.5 1284.5,-574.5"/>
<text text-anchor="middle" x="1264" y="-562.5" font-family="Helvetica,sans-Serif" font-size="10.00">future</text>
</a>
</g>
</g>
<!-- Node1&#45;&gt;Node44 -->
<g id="edge65" class="edge">
<title>Node1&#45;&gt;Node44</title>
<path fill="none" stroke="#63b8ff" d="M966.78,-621.86C1035.34,-617.71 1144.51,-607.09 1235,-580 1235.8,-579.76 1236.61,-579.5 1237.42,-579.22"/>
<polygon fill="#63b8ff" stroke="#63b8ff" points="1238.5,-582.57 1246.4,-575.51 1235.82,-576.1 1238.5,-582.57"/>
</g>
<!-- Node45 -->
<g id="node45" class="node">
<title>Node45</title>
<g id="a_node45"><a xlink:title=" ">
<polygon fill="#e0e0e0" stroke="#999999" points="1349,-574.5 1303,-574.5 1303,-555.5 1349,-555.5 1349,-574.5"/>
<text text-anchor="middle" x="1326" y="-562.5" font-family="Helvetica,sans-Serif" font-size="10.00">chrono</text>
</a>
</g>
</g>
<!-- Node1&#45;&gt;Node45 -->
<g id="edge66" class="edge">
<title>Node1&#45;&gt;Node45</title>
<path fill="none" stroke="#63b8ff" d="M966.66,-623.03C1045.93,-619.91 1181.65,-610.18 1294,-580 1295.17,-579.69 1296.35,-579.33 1297.54,-578.95"/>
<polygon fill="#63b8ff" stroke="#63b8ff" points="1298.54,-582.32 1306.65,-575.5 1296.06,-575.77 1298.54,-582.32"/>
</g>
<!-- Node46 -->
<g id="node46" class="node">
<title>Node46</title>
<g id="a_node46"><a xlink:title=" ">
<polygon fill="#e0e0e0" stroke="#999999" points="1410.5,-574.5 1367.5,-574.5 1367.5,-555.5 1410.5,-555.5 1410.5,-574.5"/>
<text text-anchor="middle" x="1389" y="-562.5" font-family="Helvetica,sans-Serif" font-size="10.00">queue</text>
</a>
</g>
</g>
<!-- Node1&#45;&gt;Node46 -->
<g id="edge67" class="edge">
<title>Node1&#45;&gt;Node46</title>
<path fill="none" stroke="#63b8ff" d="M966.81,-624.78C1057.08,-623.65 1222.33,-616.17 1358,-580 1359.17,-579.69 1360.35,-579.34 1361.53,-578.95"/>
<polygon fill="#63b8ff" stroke="#63b8ff" points="1362.53,-582.32 1370.58,-575.43 1359.99,-575.8 1362.53,-582.32"/>
</g>
<!-- Node47 -->
<g id="node47" class="node">
<title>Node47</title>
<g id="a_node47"><a xlink:title=" ">
<polygon fill="#e0e0e0" stroke="#999999" points="1473,-574.5 1429,-574.5 1429,-555.5 1473,-555.5 1473,-574.5"/>
<text text-anchor="middle" x="1451" y="-562.5" font-family="Helvetica,sans-Serif" font-size="10.00">thread</text>
</a>
</g>
</g>
<!-- Node1&#45;&gt;Node47 -->
<g id="edge68" class="edge">
<title>Node1&#45;&gt;Node47</title>
<path fill="none" stroke="#63b8ff" d="M966.88,-621.59C1087.37,-615.88 1336.15,-601.84 1420,-580 1421.17,-579.69 1422.35,-579.35 1423.54,-578.97"/>
<polygon fill="#63b8ff" stroke="#63b8ff" points="1424.53,-582.34 1432.59,-575.47 1422,-575.81 1424.53,-582.34"/>
</g>
<!-- Node4 -->
<g id="node4" class="node">
<title>Node4</title>
<g id="a_node4"><a xlink:title=" ">
<polygon fill="#e0e0e0" stroke="#999999" points="305.5,-376.5 216.5,-376.5 216.5,-357.5 305.5,-357.5 305.5,-376.5"/>
<text text-anchor="middle" x="261" y="-364.5" font-family="Helvetica,sans-Serif" font-size="10.00">spdlog/fmt/ostr.h</text>
</a>
</g>
</g>
<!-- Node3&#45;&gt;Node4 -->
<g id="edge3" class="edge">
<title>Node3&#45;&gt;Node4</title>
<path fill="none" stroke="#63b8ff" d="M211.93,-423.1C220.6,-413.36 234.73,-397.5 245.6,-385.29"/>
<polygon fill="#63b8ff" stroke="#63b8ff" points="248.1,-387.75 252.14,-377.95 242.87,-383.09 248.1,-387.75"/>
</g>
<!-- Node5 -->
<g id="node5" class="node">
<title>Node5</title>
<g id="a_node5"><a xlink:title=" ">
<polygon fill="#e0e0e0" stroke="#999999" points="198,-376.5 114,-376.5 114,-357.5 198,-357.5 198,-376.5"/>
<text text-anchor="middle" x="156" y="-364.5" font-family="Helvetica,sans-Serif" font-size="10.00">spdlog/spdlog.h</text>
</a>
</g>
</g>
<!-- Node3&#45;&gt;Node5 -->
<g id="edge4" class="edge">
<title>Node3&#45;&gt;Node5</title>
<path fill="none" stroke="#63b8ff" d="M197.33,-423.1C190.16,-413.55 178.59,-398.11 169.51,-386.01"/>
<polygon fill="#63b8ff" stroke="#63b8ff" points="172.33,-383.93 163.53,-378.03 166.73,-388.13 172.33,-383.93"/>
</g>
<!-- Node8 -->
<g id="node8" class="node">
<title>Node8</title>
<g id="a_node8"><a xlink:title=" ">
<polygon fill="#e0e0e0" stroke="#999999" points="777.5,-508.5 734.5,-508.5 734.5,-489.5 777.5,-489.5 777.5,-508.5"/>
<text text-anchor="middle" x="756" y="-496.5" font-family="Helvetica,sans-Serif" font-size="10.00">mutex</text>
</a>
</g>
</g>
<!-- Node7&#45;&gt;Node8 -->
<g id="edge7" class="edge">
<title>Node7&#45;&gt;Node8</title>
<path fill="none" stroke="#63b8ff" d="M681.1,-555.1C694.99,-544.88 718.04,-527.93 734.91,-515.52"/>
<polygon fill="#63b8ff" stroke="#63b8ff" points="736.81,-518.47 742.79,-509.72 732.66,-512.83 736.81,-518.47"/>
</g>
<!-- Node7&#45;&gt;Node9 -->
<g id="edge8" class="edge">
<title>Node7&#45;&gt;Node9</title>
<path fill="none" stroke="#63b8ff" d="M696.53,-555.1C730.86,-544 789.75,-524.97 828.53,-512.43"/>
<polygon fill="#63b8ff" stroke="#63b8ff" points="829.51,-515.8 837.94,-509.39 827.35,-509.14 829.51,-515.8"/>
</g>
<!-- Node33 -->
<g id="node33" class="node">
<title>Node33</title>
<g id="a_node33"><a xlink:href="hierarchical__key_8hpp.html" target="_top" xlink:title=" ">
<polygon fill="white" stroke="#666666" points="596,-508.5 472,-508.5 472,-489.5 596,-489.5 596,-508.5"/>
<text text-anchor="middle" x="534" y="-496.5" font-family="Helvetica,sans-Serif" font-size="10.00">crdt/hierarchical_key.hpp</text>
</a>
</g>
</g>
<!-- Node7&#45;&gt;Node33 -->
<g id="edge43" class="edge">
<title>Node7&#45;&gt;Node33</title>
<path fill="none" stroke="#63b8ff" d="M650.23,-555.1C627.56,-544.35 589.19,-526.16 562.78,-513.64"/>
<polygon fill="#63b8ff" stroke="#63b8ff" points="564.51,-510.59 553.98,-509.47 561.52,-516.92 564.51,-510.59"/>
</g>
<!-- Node35 -->
<g id="node35" class="node">
<title>Node35</title>
<g id="a_node35"><a xlink:title=" ">
<polygon fill="#e0e0e0" stroke="#999999" points="716,-508.5 614,-508.5 614,-489.5 716,-489.5 716,-508.5"/>
<text text-anchor="middle" x="665" y="-496.5" font-family="Helvetica,sans-Serif" font-size="10.00">crdt/proto/delta.pb.h</text>
</a>
</g>
</g>
<!-- Node7&#45;&gt;Node35 -->
<g id="edge46" class="edge">
<title>Node7&#45;&gt;Node35</title>
<path fill="none" stroke="#63b8ff" d="M668.44,-555.1C667.88,-546.12 667,-531.95 666.26,-520.22"/>
<polygon fill="#63b8ff" stroke="#63b8ff" points="669.76,-520.1 665.65,-510.33 662.78,-520.53 669.76,-520.1"/>
</g>
<!-- Node9&#45;&gt;Node3 -->
<g id="edge14" class="edge">
<title>Node9&#45;&gt;Node3</title>
<path fill="none" stroke="#63b8ff" d="M819.73,-489.02C808.99,-487.18 797.63,-485.38 787,-484 593.24,-458.79 361.54,-443.24 258.28,-437.06"/>
<polygon fill="#63b8ff" stroke="#63b8ff" points="258.63,-433.58 248.44,-436.48 258.21,-440.56 258.63,-433.58"/>
</g>
<!-- Node10 -->
<g id="node10" class="node">
<title>Node10</title>
<g id="a_node10"><a xlink:title=" ">
<polygon fill="#e0e0e0" stroke="#999999" points="1255,-442.5 1103,-442.5 1103,-423.5 1255,-423.5 1255,-442.5"/>
<text text-anchor="middle" x="1179" y="-430.5" font-family="Helvetica,sans-Serif" font-size="10.00">rocksdb/rocksdb_namespace.h</text>
</a>
</g>
</g>
<!-- Node9&#45;&gt;Node10 -->
<g id="edge9" class="edge">
<title>Node9&#45;&gt;Node10</title>
<path fill="none" stroke="#63b8ff" d="M910.71,-489.03C966.68,-477.55 1063.67,-457.66 1124.43,-445.19"/>
<polygon fill="#63b8ff" stroke="#63b8ff" points="1124.76,-448.7 1133.85,-443.26 1123.35,-441.84 1124.76,-448.7"/>
</g>
<!-- Node11 -->
<g id="node11" class="node">
<title>Node11</title>
<g id="a_node11"><a xlink:title=" ">
<polygon fill="#e0e0e0" stroke="#999999" points="625,-442.5 553,-442.5 553,-423.5 625,-423.5 625,-442.5"/>
<text text-anchor="middle" x="589" y="-430.5" font-family="Helvetica,sans-Serif" font-size="10.00">rocksdb/db.h</text>
</a>
</g>
</g>
<!-- Node9&#45;&gt;Node11 -->
<g id="edge10" class="edge">
<title>Node9&#45;&gt;Node11</title>
<path fill="none" stroke="#63b8ff" d="M818.95,-489.01C771.63,-479.84 697.43,-464.64 634,-448 631.86,-447.44 629.68,-446.84 627.47,-446.22"/>
<polygon fill="#63b8ff" stroke="#63b8ff" points="628.53,-442.88 617.94,-443.41 626.55,-449.6 628.53,-442.88"/>
</g>
<!-- Node12 -->
<g id="node12" class="node">
<title>Node12</title>
<g id="a_node12"><a xlink:title=" ">
<polygon fill="#e0e0e0" stroke="#999999" points="725,-442.5 643,-442.5 643,-423.5 725,-423.5 725,-442.5"/>
<text text-anchor="middle" x="684" y="-430.5" font-family="Helvetica,sans-Serif" font-size="10.00">rocksdb/slice.h</text>
</a>
</g>
</g>
<!-- Node9&#45;&gt;Node12 -->
<g id="edge11" class="edge">
<title>Node9&#45;&gt;Node12</title>
<path fill="none" stroke="#63b8ff" d="M841.55,-489.1C809.96,-478.05 755.86,-459.13 720.02,-446.6"/>
<polygon fill="#63b8ff" stroke="#63b8ff" points="721.55,-443.42 710.95,-443.43 719.24,-450.03 721.55,-443.42"/>
</g>
<!-- Node13 -->
<g id="node13" class="node">
<title>Node13</title>
<g id="a_node13"><a xlink:title=" ">
<polygon fill="#e0e0e0" stroke="#999999" points="836.5,-442.5 743.5,-442.5 743.5,-423.5 836.5,-423.5 836.5,-442.5"/>
<text text-anchor="middle" x="790" y="-430.5" font-family="Helvetica,sans-Serif" font-size="10.00">rocksdb/options.h</text>
</a>
</g>
</g>
<!-- Node9&#45;&gt;Node13 -->
<g id="edge12" class="edge">
<title>Node9&#45;&gt;Node13</title>
<path fill="none" stroke="#63b8ff" d="M856.29,-489.1C844.11,-478.98 823.98,-462.24 809.09,-449.87"/>
<polygon fill="#63b8ff" stroke="#63b8ff" points="811.71,-447.49 801.78,-443.79 807.23,-452.87 811.71,-447.49"/>
</g>
<!-- Node14 -->
<g id="node14" class="node">
<title>Node14</title>
<g id="a_node14"><a xlink:title=" ">
<polygon fill="#e0e0e0" stroke="#999999" points="967,-442.5 855,-442.5 855,-423.5 967,-423.5 967,-442.5"/>
<text text-anchor="middle" x="911" y="-430.5" font-family="Helvetica,sans-Serif" font-size="10.00">rocksdb/write_batch.h</text>
</a>
</g>
</g>
<!-- Node9&#45;&gt;Node14 -->
<g id="edge13" class="edge">
<title>Node9&#45;&gt;Node14</title>
<path fill="none" stroke="#63b8ff" d="M873.12,-489.1C879.69,-479.55 890.3,-464.11 898.62,-452.01"/>
<polygon fill="#63b8ff" stroke="#63b8ff" points="901.3,-454.29 904.08,-444.07 895.53,-450.33 901.3,-454.29"/>
</g>
<!-- Node15 -->
<g id="node15" class="node">
<title>Node15</title>
<g id="a_node15"><a xlink:href="buffer__map__types_8hpp.html" target="_top" xlink:title=" ">
<polygon fill="white" stroke="#666666" points="1085,-448 985,-448 985,-418 1085,-418 1085,-448"/>
<text text-anchor="start" x="993" y="-436" font-family="Helvetica,sans-Serif" font-size="10.00">storage/buffer_map</text>
<text text-anchor="middle" x="1035" y="-425" font-family="Helvetica,sans-Serif" font-size="10.00">_types.hpp</text>
</a>
</g>
</g>
<!-- Node9&#45;&gt;Node15 -->
<g id="edge15" class="edge">
<title>Node9&#45;&gt;Node15</title>
<path fill="none" stroke="#63b8ff" d="M890.36,-489.1C915.15,-479.66 955.02,-464.47 986.63,-452.43"/>
<polygon fill="#63b8ff" stroke="#63b8ff" points="987.48,-455.85 995.58,-449.02 984.99,-449.31 987.48,-455.85"/>
</g>
<!-- Node16 -->
<g id="node16" class="node">
<title>Node16</title>
<g id="a_node16"><a xlink:title=" ">
<polygon fill="#e0e0e0" stroke="#999999" points="712.5,-310.5 659.5,-310.5 659.5,-291.5 712.5,-291.5 712.5,-310.5"/>
<text text-anchor="middle" x="686" y="-298.5" font-family="Helvetica,sans-Serif" font-size="10.00">gsl/span</text>
</a>
</g>
</g>
<!-- Node15&#45;&gt;Node16 -->
<g id="edge16" class="edge">
<title>Node15&#45;&gt;Node16</title>
<path fill="none" stroke="#63b8ff" d="M984.6,-419.87C927.14,-405.98 840.17,-384.78 833,-382 786.93,-364.1 737.18,-334.67 708.98,-316.93"/>
<polygon fill="#63b8ff" stroke="#63b8ff" points="711.21,-314.2 700.89,-311.78 707.45,-320.1 711.21,-314.2"/>
</g>
<!-- Node17 -->
<g id="node17" class="node">
<title>Node17</title>
<g id="a_node17"><a xlink:href="buffer_8hpp.html" target="_top" xlink:title=" ">
<polygon fill="white" stroke="#666666" points="453.5,-376.5 370.5,-376.5 370.5,-357.5 453.5,-357.5 453.5,-376.5"/>
<text text-anchor="middle" x="412" y="-364.5" font-family="Helvetica,sans-Serif" font-size="10.00">base/buffer.hpp</text>
</a>
</g>
</g>
<!-- Node15&#45;&gt;Node17 -->
<g id="edge17" class="edge">
<title>Node15&#45;&gt;Node17</title>
<path fill="none" stroke="#63b8ff" d="M984.57,-419.53C981.68,-418.97 978.81,-418.45 976,-418 789.56,-387.78 565.26,-374.76 464.97,-370.14"/>
<polygon fill="#63b8ff" stroke="#63b8ff" points="465.31,-366.65 455.16,-369.7 464.99,-373.64 465.31,-366.65"/>
</g>
<!-- Node24 -->
<g id="node24" class="node">
<title>Node24</title>
<g id="a_node24"><a xlink:href="batchable_8hpp.html" target="_top" xlink:title=" ">
<polygon fill="white" stroke="#666666" points="1075,-250 941,-250 941,-231 1075,-231 1075,-250"/>
<text text-anchor="middle" x="1008" y="-238" font-family="Helvetica,sans-Serif" font-size="10.00">storage/face/batchable.hpp</text>
</a>
</g>
</g>
<!-- Node15&#45;&gt;Node24 -->
<g id="edge25" class="edge">
<title>Node15&#45;&gt;Node24</title>
<path fill="none" stroke="#63b8ff" d="M1032.97,-417.68C1028.21,-384.1 1016.32,-300.19 1010.84,-261.55"/>
<polygon fill="#63b8ff" stroke="#63b8ff" points="1014.33,-261.23 1009.46,-251.82 1007.4,-262.21 1014.33,-261.23"/>
</g>
<!-- Node26 -->
<g id="node26" class="node">
<title>Node26</title>
<g id="a_node26"><a xlink:href="write__batch_8hpp.html" target="_top" xlink:title=" ">
<polygon fill="white" stroke="#666666" points="1055.5,-195 960.5,-195 960.5,-165 1055.5,-165 1055.5,-195"/>
<text text-anchor="start" x="968.5" y="-183" font-family="Helvetica,sans-Serif" font-size="10.00">storage/face/write</text>
<text text-anchor="middle" x="1008" y="-172" font-family="Helvetica,sans-Serif" font-size="10.00">_batch.hpp</text>
</a>
</g>
</g>
<!-- Node15&#45;&gt;Node26 -->
<g id="edge42" class="edge">
<title>Node15&#45;&gt;Node26</title>
<path fill="none" stroke="#63b8ff" d="M1045.05,-417.72C1067.77,-383.53 1118.52,-295.02 1084,-231 1077.26,-218.49 1065.87,-208.6 1053.93,-201.03"/>
<polygon fill="#63b8ff" stroke="#63b8ff" points="1056.04,-198.21 1045.63,-196.22 1052.52,-204.26 1056.04,-198.21"/>
</g>
<!-- Node28 -->
<g id="node28" class="node">
<title>Node28</title>
<g id="a_node28"><a xlink:href="generic__storage_8hpp.html" target="_top" xlink:title=" ">
<polygon fill="white" stroke="#666666" points="946.5,-382 841.5,-382 841.5,-352 946.5,-352 946.5,-382"/>
<text text-anchor="start" x="849.5" y="-370" font-family="Helvetica,sans-Serif" font-size="10.00">storage/face/generic</text>
<text text-anchor="middle" x="894" y="-359" font-family="Helvetica,sans-Serif" font-size="10.00">_storage.hpp</text>
</a>
</g>
</g>
<!-- Node15&#45;&gt;Node28 -->
<g id="edge31" class="edge">
<title>Node15&#45;&gt;Node28</title>
<path fill="none" stroke="#63b8ff" d="M1003.36,-417.64C983.4,-408.58 957.4,-396.78 935.76,-386.96"/>
<polygon fill="#63b8ff" stroke="#63b8ff" points="937.47,-383.89 926.92,-382.94 934.58,-390.26 937.47,-383.89"/>
</g>
<!-- Node17&#45;&gt;Node16 -->
<g id="edge22" class="edge">
<title>Node17&#45;&gt;Node16</title>
<path fill="none" stroke="#63b8ff" d="M450.39,-357.03C502.69,-344.82 595.8,-323.07 647.93,-310.89"/>
<polygon fill="#63b8ff" stroke="#63b8ff" points="648.61,-314.33 657.55,-308.64 647.02,-307.51 648.61,-314.33"/>
</g>
<!-- Node18 -->
<g id="node18" class="node">
<title>Node18</title>
<g id="a_node18"><a xlink:title=" ">
<polygon fill="#e0e0e0" stroke="#999999" points="215,-310.5 149,-310.5 149,-291.5 215,-291.5 215,-310.5"/>
<text text-anchor="middle" x="182" y="-298.5" font-family="Helvetica,sans-Serif" font-size="10.00">string_view</text>
</a>
</g>
</g>
<!-- Node17&#45;&gt;Node18 -->
<g id="edge18" class="edge">
<title>Node17&#45;&gt;Node18</title>
<path fill="none" stroke="#63b8ff" d="M375.77,-357.07C337.78,-347.54 276.42,-331.69 224,-316 222.39,-315.52 220.75,-315.02 219.09,-314.5"/>
<polygon fill="#63b8ff" stroke="#63b8ff" points="220.17,-311.17 209.58,-311.45 218.03,-317.84 220.17,-311.17"/>
</g>
<!-- Node19 -->
<g id="node19" class="node">
<title>Node19</title>
<g id="a_node19"><a xlink:title=" ">
<polygon fill="#e0e0e0" stroke="#999999" points="563,-310.5 519,-310.5 519,-291.5 563,-291.5 563,-310.5"/>
<text text-anchor="middle" x="541" y="-298.5" font-family="Helvetica,sans-Serif" font-size="10.00">vector</text>
</a>
</g>
</g>
<!-- Node17&#45;&gt;Node19 -->
<g id="edge19" class="edge">
<title>Node17&#45;&gt;Node19</title>
<path fill="none" stroke="#63b8ff" d="M429.94,-357.1C451.5,-346.4 487.94,-328.33 513.17,-315.81"/>
<polygon fill="#63b8ff" stroke="#63b8ff" points="514.46,-319.08 521.86,-311.5 511.35,-312.81 514.46,-319.08"/>
</g>
<!-- Node20 -->
<g id="node20" class="node">
<title>Node20</title>
<g id="a_node20"><a xlink:title=" ">
<polygon fill="#e0e0e0" stroke="#999999" points="343,-316 233,-316 233,-286 343,-286 343,-316"/>
<text text-anchor="start" x="241" y="-304" font-family="Helvetica,sans-Serif" font-size="10.00">boost/container_hash</text>
<text text-anchor="middle" x="288" y="-293" font-family="Helvetica,sans-Serif" font-size="10.00">/hash.hpp</text>
</a>
</g>
</g>
<!-- Node17&#45;&gt;Node20 -->
<g id="edge20" class="edge">
<title>Node17&#45;&gt;Node20</title>
<path fill="none" stroke="#63b8ff" d="M394.76,-357.1C377.1,-347.99 349.07,-333.52 326.16,-321.7"/>
<polygon fill="#63b8ff" stroke="#63b8ff" points="327.89,-318.65 317.4,-317.17 324.68,-324.87 327.89,-318.65"/>
</g>
<!-- Node21 -->
<g id="node21" class="node">
<title>Node21</title>
<g id="a_node21"><a xlink:title=" ">
<polygon fill="#e0e0e0" stroke="#999999" points="463,-310.5 361,-310.5 361,-291.5 463,-291.5 463,-310.5"/>
<text text-anchor="middle" x="412" y="-298.5" font-family="Helvetica,sans-Serif" font-size="10.00">boost/operators.hpp</text>
</a>
</g>
</g>
<!-- Node17&#45;&gt;Node21 -->
<g id="edge21" class="edge">
<title>Node17&#45;&gt;Node21</title>
<path fill="none" stroke="#63b8ff" d="M412,-357.1C412,-348.12 412,-333.95 412,-322.22"/>
<polygon fill="#63b8ff" stroke="#63b8ff" points="415.5,-322.34 412,-312.34 408.5,-322.34 415.5,-322.34"/>
</g>
<!-- Node22 -->
<g id="node22" class="node">
<title>Node22</title>
<g id="a_node22"><a xlink:href="outcome_8hpp.html" target="_top" xlink:title=" ">
<polygon fill="white" stroke="#666666" points="677.5,-74 564.5,-74 564.5,-55 677.5,-55 677.5,-74"/>
<text text-anchor="middle" x="621" y="-62" font-family="Helvetica,sans-Serif" font-size="10.00">outcome/outcome.hpp</text>
</a>
</g>
</g>
<!-- Node17&#45;&gt;Node22 -->
<g id="edge23" class="edge">
<title>Node17&#45;&gt;Node22</title>
<path fill="none" stroke="#63b8ff" d="M427.41,-357.09C441.15,-348.35 460.78,-333.77 472,-316 490.23,-287.1 491,-275.67 491,-241.5 491,-241.5 491,-241.5 491,-179 491,-128.75 546.81,-95.62 585.29,-78.75"/>
<polygon fill="#63b8ff" stroke="#63b8ff" points="586.36,-82.1 594.23,-75.01 583.65,-75.64 586.36,-82.1"/>
</g>
<!-- Node23 -->
<g id="node23" class="node">
<title>Node23</title>
<g id="a_node23"><a xlink:title=" ">
<polygon fill="#e0e0e0" stroke="#999999" points="691.5,-19 550.5,-19 550.5,0 691.5,0 691.5,-19"/>
<text text-anchor="middle" x="621" y="-7" font-family="Helvetica,sans-Serif" font-size="10.00">libp2p/outcome/outcome.hpp</text>
</a>
</g>
</g>
<!-- Node22&#45;&gt;Node23 -->
<g id="edge24" class="edge">
<title>Node22&#45;&gt;Node23</title>
<path fill="none" stroke="#63b8ff" d="M621,-54.75C621,-48.27 621,-39.16 621,-30.9"/>
<polygon fill="#63b8ff" stroke="#63b8ff" points="624.5,-30.96 621,-20.96 617.5,-30.96 624.5,-30.96"/>
</g>
<!-- Node25 -->
<g id="node25" class="node">
<title>Node25</title>
<g id="a_node25"><a xlink:title=" ">
<polygon fill="#e0e0e0" stroke="#999999" points="891.5,-189.5 840.5,-189.5 840.5,-170.5 891.5,-170.5 891.5,-189.5"/>
<text text-anchor="middle" x="866" y="-177.5" font-family="Helvetica,sans-Serif" font-size="10.00">memory</text>
</a>
</g>
</g>
<!-- Node24&#45;&gt;Node25 -->
<g id="edge26" class="edge">
<title>Node24&#45;&gt;Node25</title>
<path fill="none" stroke="#63b8ff" d="M986.43,-230.62C962.98,-220.95 925.23,-205.4 898.24,-194.28"/>
<polygon fill="#63b8ff" stroke="#63b8ff" points="899.75,-191.12 889.17,-190.55 897.08,-197.59 899.75,-191.12"/>
</g>
<!-- Node24&#45;&gt;Node26 -->
<g id="edge27" class="edge">
<title>Node24&#45;&gt;Node26</title>
<path fill="none" stroke="#63b8ff" d="M1008,-230.87C1008,-224.4 1008,-215.2 1008,-206.45"/>
<polygon fill="#63b8ff" stroke="#63b8ff" points="1011.5,-206.63 1008,-196.63 1004.5,-206.63 1011.5,-206.63"/>
</g>
<!-- Node27 -->
<g id="node27" class="node">
<title>Node27</title>
<g id="a_node27"><a xlink:href="writeable_8hpp.html" target="_top" xlink:title=" ">
<polygon fill="white" stroke="#666666" points="914.5,-129 783.5,-129 783.5,-110 914.5,-110 914.5,-129"/>
<text text-anchor="middle" x="849" y="-117" font-family="Helvetica,sans-Serif" font-size="10.00">storage/face/writeable.hpp</text>
</a>
</g>
</g>
<!-- Node24&#45;&gt;Node27 -->
<g id="edge30" class="edge">
<title>Node24&#45;&gt;Node27</title>
<path fill="none" stroke="#63b8ff" d="M996.05,-230.56C969.1,-210.39 903.32,-161.15 869.63,-135.94"/>
<polygon fill="#63b8ff" stroke="#63b8ff" points="871.97,-133.32 861.87,-130.13 867.78,-138.93 871.97,-133.32"/>
</g>
<!-- Node26&#45;&gt;Node27 -->
<g id="edge28" class="edge">
<title>Node26&#45;&gt;Node27</title>
<path fill="none" stroke="#63b8ff" d="M968.7,-164.54C942.58,-154.93 908.61,-142.43 883.54,-133.21"/>
<polygon fill="#63b8ff" stroke="#63b8ff" points="885.06,-130.04 874.46,-129.87 882.64,-136.61 885.06,-130.04"/>
</g>
<!-- Node27&#45;&gt;Node22 -->
<g id="edge29" class="edge">
<title>Node27&#45;&gt;Node22</title>
<path fill="none" stroke="#63b8ff" d="M810.32,-109.51C771.8,-100.55 712.51,-86.77 670.56,-77.02"/>
<polygon fill="#63b8ff" stroke="#63b8ff" points="671.49,-73.64 660.96,-74.79 669.91,-80.46 671.49,-73.64"/>
</g>
<!-- Node29 -->
<g id="node29" class="node">
<title>Node29</title>
<g id="a_node29"><a xlink:href="generic__maps_8hpp.html" target="_top" xlink:title=" ">
<polygon fill="white" stroke="#666666" points="913.5,-316 808.5,-316 808.5,-286 913.5,-286 913.5,-316"/>
<text text-anchor="start" x="816.5" y="-304" font-family="Helvetica,sans-Serif" font-size="10.00">storage/face/generic</text>
<text text-anchor="middle" x="861" y="-293" font-family="Helvetica,sans-Serif" font-size="10.00">_maps.hpp</text>
</a>
</g>
</g>
<!-- Node28&#45;&gt;Node29 -->
<g id="edge32" class="edge">
<title>Node28&#45;&gt;Node29</title>
<path fill="none" stroke="#63b8ff" d="M886.68,-351.8C882.79,-344.26 877.9,-334.78 873.44,-326.13"/>
<polygon fill="#63b8ff" stroke="#63b8ff" points="876.69,-324.79 869,-317.51 870.47,-328 876.69,-324.79"/>
</g>
<!-- Node29&#45;&gt;Node24 -->
<g id="edge33" class="edge">
<title>Node29&#45;&gt;Node24</title>
<path fill="none" stroke="#63b8ff" d="M897.34,-285.54C921.16,-276.06 952.04,-263.77 975.13,-254.58"/>
<polygon fill="#63b8ff" stroke="#63b8ff" points="976.37,-257.86 984.36,-250.91 973.78,-251.35 976.37,-257.86"/>
</g>
<!-- Node29&#45;&gt;Node27 -->
<g id="edge41" class="edge">
<title>Node29&#45;&gt;Node27</title>
<path fill="none" stroke="#63b8ff" d="M828.57,-285.53C814.3,-277.32 799,-265.54 791,-250 770.72,-210.59 807.59,-162.62 831.3,-137.58"/>
<polygon fill="#63b8ff" stroke="#63b8ff" points="833.72,-140.11 838.24,-130.53 828.73,-135.19 833.72,-140.11"/>
</g>
<!-- Node30 -->
<g id="node30" class="node">
<title>Node30</title>
<g id="a_node30"><a xlink:href="iterable_8hpp.html" target="_top" xlink:title=" ">
<polygon fill="white" stroke="#666666" points="922.5,-250 799.5,-250 799.5,-231 922.5,-231 922.5,-250"/>
<text text-anchor="middle" x="861" y="-238" font-family="Helvetica,sans-Serif" font-size="10.00">storage/face/iterable.hpp</text>
</a>
</g>
</g>
<!-- Node29&#45;&gt;Node30 -->
<g id="edge34" class="edge">
<title>Node29&#45;&gt;Node30</title>
<path fill="none" stroke="#63b8ff" d="M861,-285.54C861,-278.34 861,-269.53 861,-261.68"/>
<polygon fill="#63b8ff" stroke="#63b8ff" points="864.5,-261.69 861,-251.69 857.5,-261.69 864.5,-261.69"/>
</g>
<!-- Node32 -->
<g id="node32" class="node">
<title>Node32</title>
<g id="a_node32"><a xlink:href="readable_8hpp.html" target="_top" xlink:title=" ">
<polygon fill="white" stroke="#666666" points="735,-250 607,-250 607,-231 735,-231 735,-250"/>
<text text-anchor="middle" x="671" y="-238" font-family="Helvetica,sans-Serif" font-size="10.00">storage/face/readable.hpp</text>
</a>
</g>
</g>
<!-- Node29&#45;&gt;Node32 -->
<g id="edge38" class="edge">
<title>Node29&#45;&gt;Node32</title>
<path fill="none" stroke="#63b8ff" d="M814.03,-285.54C782.36,-275.79 741.03,-263.06 710.95,-253.8"/>
<polygon fill="#63b8ff" stroke="#63b8ff" points="712.04,-250.48 701.46,-250.88 709.98,-257.17 712.04,-250.48"/>
</g>
<!-- Node30&#45;&gt;Node25 -->
<g id="edge35" class="edge">
<title>Node30&#45;&gt;Node25</title>
<path fill="none" stroke="#63b8ff" d="M861.74,-230.87C862.41,-223 863.43,-211.1 864.3,-200.89"/>
<polygon fill="#63b8ff" stroke="#63b8ff" points="867.77,-201.44 865.13,-191.18 860.79,-200.84 867.77,-201.44"/>
</g>
<!-- Node31 -->
<g id="node31" class="node">
<title>Node31</title>
<g id="a_node31"><a xlink:href="map__cursor_8hpp.html" target="_top" xlink:title=" ">
<polygon fill="white" stroke="#666666" points="742.5,-189.5 599.5,-189.5 599.5,-170.5 742.5,-170.5 742.5,-189.5"/>
<text text-anchor="middle" x="671" y="-177.5" font-family="Helvetica,sans-Serif" font-size="10.00">storage/face/map_cursor.hpp</text>
</a>
</g>
</g>
<!-- Node30&#45;&gt;Node31 -->
<g id="edge36" class="edge">
<title>Node30&#45;&gt;Node31</title>
<path fill="none" stroke="#63b8ff" d="M832.14,-230.62C799.78,-220.65 747.08,-204.43 710.82,-193.26"/>
<polygon fill="#63b8ff" stroke="#63b8ff" points="712.16,-190.01 701.58,-190.41 710.1,-196.7 712.16,-190.01"/>
</g>
<!-- Node31&#45;&gt;Node22 -->
<g id="edge37" class="edge">
<title>Node31&#45;&gt;Node22</title>
<path fill="none" stroke="#63b8ff" d="M667.08,-170.09C659.01,-151.78 640.39,-109.52 629.45,-84.69"/>
<polygon fill="#63b8ff" stroke="#63b8ff" points="632.75,-83.49 625.52,-75.75 626.34,-86.31 632.75,-83.49"/>
</g>
<!-- Node32&#45;&gt;Node22 -->
<g id="edge39" class="edge">
<title>Node32&#45;&gt;Node22</title>
<path fill="none" stroke="#63b8ff" d="M638.34,-230.51C620.71,-223.8 600.46,-212.68 590,-195 568.9,-159.33 592.56,-110.1 608.63,-83.8"/>
<polygon fill="#63b8ff" stroke="#63b8ff" points="611.44,-85.91 613.89,-75.61 605.55,-82.13 611.44,-85.91"/>
</g>
<!-- Node32&#45;&gt;Node31 -->
<g id="edge40" class="edge">
<title>Node32&#45;&gt;Node31</title>
<path fill="none" stroke="#63b8ff" d="M671,-230.87C671,-223 671,-211.1 671,-200.89"/>
<polygon fill="#63b8ff" stroke="#63b8ff" points="674.5,-201.18 671,-191.18 667.5,-201.18 674.5,-201.18"/>
</g>
<!-- Node33&#45;&gt;Node19 -->
<g id="edge45" class="edge">
<title>Node33&#45;&gt;Node19</title>
<path fill="none" stroke="#63b8ff" d="M534.32,-489.07C535.37,-459.54 538.77,-364.56 540.27,-322.44"/>
<polygon fill="#63b8ff" stroke="#63b8ff" points="543.77,-322.61 540.63,-312.5 536.77,-322.36 543.77,-322.61"/>
</g>
<!-- Node34 -->
<g id="node34" class="node">
<title>Node34</title>
<g id="a_node34"><a xlink:title=" ">
<polygon fill="#e0e0e0" stroke="#999999" points="496.5,-442.5 455.5,-442.5 455.5,-423.5 496.5,-423.5 496.5,-442.5"/>
<text text-anchor="middle" x="476" y="-430.5" font-family="Helvetica,sans-Serif" font-size="10.00">string</text>
</a>
</g>
</g>
<!-- Node33&#45;&gt;Node34 -->
<g id="edge44" class="edge">
<title>Node33&#45;&gt;Node34</title>
<path fill="none" stroke="#63b8ff" d="M525.94,-489.1C517.11,-479.36 502.73,-463.5 491.67,-451.29"/>
<polygon fill="#63b8ff" stroke="#63b8ff" points="494.32,-449 485.01,-443.94 489.13,-453.71 494.32,-449"/>
</g>
<!-- Node36&#45;&gt;Node6 -->
<g id="edge51" class="edge">
<title>Node36&#45;&gt;Node6</title>
<path fill="none" stroke="#63b8ff" d="M814.56,-555.1C854.35,-543.88 922.89,-524.56 967.32,-512.03"/>
<polygon fill="#63b8ff" stroke="#63b8ff" points="968.21,-515.42 976.88,-509.34 966.31,-508.68 968.21,-515.42"/>
</g>
<!-- Node36&#45;&gt;Node8 -->
<g id="edge48" class="edge">
<title>Node36&#45;&gt;Node8</title>
<path fill="none" stroke="#63b8ff" d="M779.25,-555.1C775.34,-545.84 769.09,-531.04 764.06,-519.11"/>
<polygon fill="#63b8ff" stroke="#63b8ff" points="767.42,-518.07 760.31,-510.22 760.97,-520.79 767.42,-518.07"/>
</g>
<!-- Node36&#45;&gt;Node9 -->
<g id="edge49" class="edge">
<title>Node36&#45;&gt;Node9</title>
<path fill="none" stroke="#63b8ff" d="M794.68,-555.1C808.1,-544.88 830.35,-527.93 846.63,-515.52"/>
<polygon fill="#63b8ff" stroke="#63b8ff" points="848.38,-518.59 854.22,-509.74 844.14,-513.02 848.38,-518.59"/>
</g>
<!-- Node36&#45;&gt;Node33 -->
<g id="edge50" class="edge">
<title>Node36&#45;&gt;Node33</title>
<path fill="none" stroke="#63b8ff" d="M748.12,-555.03C704.13,-543.73 628.39,-524.26 579.78,-511.77"/>
<polygon fill="#63b8ff" stroke="#63b8ff" points="580.67,-508.38 570.11,-509.28 578.93,-515.16 580.67,-508.38"/>
</g>
<!-- Node37&#45;&gt;Node17 -->
<g id="edge53" class="edge">
<title>Node37&#45;&gt;Node17</title>
<path fill="none" stroke="#63b8ff" d="M401.76,-489.06C403.5,-468.47 407.83,-417.23 410.27,-388.45"/>
<polygon fill="#63b8ff" stroke="#63b8ff" points="413.76,-388.77 411.11,-378.51 406.78,-388.18 413.76,-388.77"/>
</g>
<!-- Node38&#45;&gt;Node6 -->
<g id="edge55" class="edge">
<title>Node38&#45;&gt;Node6</title>
<path fill="none" stroke="#63b8ff" d="M981.59,-555.1C986.42,-545.74 994.15,-530.73 1000.34,-518.74"/>
<polygon fill="#63b8ff" stroke="#63b8ff" points="1003.28,-520.66 1004.76,-510.17 997.06,-517.45 1003.28,-520.66"/>
</g>
<!-- Node39 -->
<g id="node39" class="node">
<title>Node39</title>
<g id="a_node39"><a xlink:title=" ">
<polygon fill="#e0e0e0" stroke="#999999" points="1201.5,-514 1082.5,-514 1082.5,-484 1201.5,-484 1201.5,-514"/>
<text text-anchor="start" x="1090.5" y="-502" font-family="Helvetica,sans-Serif" font-size="10.00">ipfs_lite/ipfs/merkledag</text>
<text text-anchor="middle" x="1142" y="-491" font-family="Helvetica,sans-Serif" font-size="10.00">/merkledag_service.hpp</text>
</a>
</g>
</g>
<!-- Node38&#45;&gt;Node39 -->
<g id="edge56" class="edge">
<title>Node38&#45;&gt;Node39</title>
<path fill="none" stroke="#63b8ff" d="M999.94,-555.1C1024.18,-545.7 1063.11,-530.6 1094.09,-518.59"/>
<polygon fill="#63b8ff" stroke="#63b8ff" points="1095.21,-521.9 1103.26,-515.02 1092.67,-515.38 1095.21,-521.9"/>
</g>
<!-- Node40&#45;&gt;Node3 -->
<g id="edge59" class="edge">
<title>Node40&#45;&gt;Node3</title>
<path fill="none" stroke="#63b8ff" d="M287.44,-555.05C266.04,-547.51 239.11,-534.59 223,-514 209.61,-496.9 205.43,-471.86 204.24,-454.37"/>
<polygon fill="#63b8ff" stroke="#63b8ff" points="207.74,-454.32 203.86,-444.46 200.74,-454.59 207.74,-454.32"/>
</g>
<!-- Node40&#45;&gt;Node17 -->
<g id="edge58" class="edge">
<title>Node40&#45;&gt;Node17</title>
<path fill="none" stroke="#63b8ff" d="M321.11,-555.3C323.23,-540.29 328.61,-508.75 339,-484 354.66,-446.69 381.73,-407.76 398.14,-385.82"/>
<polygon fill="#63b8ff" stroke="#63b8ff" points="400.85,-388.04 404.13,-377.96 395.29,-383.8 400.85,-388.04"/>
</g>
<!-- Node40&#45;&gt;Node33 -->
<g id="edge60" class="edge">
<title>Node40&#45;&gt;Node33</title>
<path fill="none" stroke="#63b8ff" d="M349.76,-555.1C387.1,-543.93 451.33,-524.72 493.23,-512.19"/>
<polygon fill="#63b8ff" stroke="#63b8ff" points="494.12,-515.58 502.7,-509.36 492.12,-508.87 494.12,-515.58"/>
</g>
<!-- Node41 -->
<g id="node41" class="node">
<title>Node41</title>
<g id="a_node41"><a xlink:title=" ">
<polygon fill="#e0e0e0" stroke="#999999" points="291.5,-508.5 232.5,-508.5 232.5,-489.5 291.5,-489.5 291.5,-508.5"/>
<text text-anchor="middle" x="262" y="-496.5" font-family="Helvetica,sans-Serif" font-size="10.00">functional</text>
</a>
</g>
</g>
<!-- Node40&#45;&gt;Node41 -->
<g id="edge61" class="edge">
<title>Node40&#45;&gt;Node41</title>
<path fill="none" stroke="#63b8ff" d="M311.94,-555.1C303.11,-545.36 288.73,-529.5 277.67,-517.29"/>
<polygon fill="#63b8ff" stroke="#63b8ff" points="280.32,-515 271.01,-509.94 275.13,-519.71 280.32,-515"/>
</g>
</g>
</svg>
