<?xml version="1.0" encoding="UTF-8" standalone="no"?>
<!DOCTYPE svg PUBLIC "-//W3C//DTD SVG 1.1//EN"
 "http://www.w3.org/Graphics/SVG/1.1/DTD/svg11.dtd">
<!-- Generated by graphviz version 7.0.5 (20221223.1930)
 -->
<!-- Title: src/crypto/crypto_store/crypto_store_impl.hpp Pages: 1 -->
<svg width="1688pt" height="412pt"
 viewBox="0.00 0.00 1688.00 412.00" xmlns="http://www.w3.org/2000/svg" xmlns:xlink="http://www.w3.org/1999/xlink">
<g id="graph0" class="graph" transform="scale(1 1) rotate(0) translate(4 408)">
<title>src/crypto/crypto_store/crypto_store_impl.hpp</title>
<!-- Node1 -->
<g id="node1" class="node">
<title>Node1</title>
<g id="a_node1"><a xlink:title=" ">
<polygon fill="#999999" stroke="#666666" points="916.5,-404 800.5,-404 800.5,-374 916.5,-374 916.5,-404"/>
<text text-anchor="start" x="808.5" y="-392" font-family="Helvetica,sans-Serif" font-size="10.00">src/crypto/crypto_store</text>
<text text-anchor="middle" x="858.5" y="-381" font-family="Helvetica,sans-Serif" font-size="10.00">/crypto_store_impl.hpp</text>
</a>
</g>
</g>
<!-- Node2 -->
<g id="node2" class="node">
<title>Node2</title>
<g id="a_node2"><a xlink:title=" ">
<polygon fill="#e0e0e0" stroke="#999999" points="428,-277.5 323,-277.5 323,-258.5 428,-258.5 428,-277.5"/>
<text text-anchor="middle" x="375.5" y="-265.5" font-family="Helvetica,sans-Serif" font-size="10.00">boost/filesystem.hpp</text>
</a>
</g>
</g>
<!-- Node1&#45;&gt;Node2 -->
<g id="edge1" class="edge">
<title>Node1&#45;&gt;Node2</title>
<path fill="none" stroke="#63b8ff" d="M813.72,-373.5C785.12,-363.99 747.37,-350.94 714.5,-338 695.06,-330.34 691.56,-324.86 671.5,-319 570.07,-289.39 540.29,-302.83 436.5,-283 432.24,-282.19 427.82,-281.29 423.41,-280.34"/>
<polygon fill="#63b8ff" stroke="#63b8ff" points="424.5,-277 413.98,-278.28 423,-283.84 424.5,-277"/>
</g>
<!-- Node3 -->
<g id="node3" class="node">
<title>Node3</title>
<g id="a_node3"><a xlink:title=" ">
<polygon fill="#e0e0e0" stroke="#999999" points="629,-338 538,-338 538,-319 629,-319 629,-338"/>
<text text-anchor="middle" x="583.5" y="-326" font-family="Helvetica,sans-Serif" font-size="10.00">boost/variant.hpp</text>
</a>
</g>
</g>
<!-- Node1&#45;&gt;Node3 -->
<g id="edge2" class="edge">
<title>Node1&#45;&gt;Node3</title>
<path fill="none" stroke="#63b8ff" d="M800.18,-375.59C751.82,-365.31 683.64,-350.8 636.75,-340.83"/>
<polygon fill="#63b8ff" stroke="#63b8ff" points="637.59,-337.43 627.08,-338.77 636.14,-344.28 637.59,-337.43"/>
</g>
<!-- Node4 -->
<g id="node4" class="node">
<title>Node4</title>
<g id="a_node4"><a xlink:href="blob_8hpp.html" target="_top" xlink:title=" ">
<polygon fill="white" stroke="#666666" points="978,-211.5 901,-211.5 901,-192.5 978,-192.5 978,-211.5"/>
<text text-anchor="middle" x="939.5" y="-199.5" font-family="Helvetica,sans-Serif" font-size="10.00">base/blob.hpp</text>
</a>
</g>
</g>
<!-- Node1&#45;&gt;Node4 -->
<g id="edge3" class="edge">
<title>Node1&#45;&gt;Node4</title>
<path fill="none" stroke="#63b8ff" d="M916.95,-386.02C952.37,-381.45 995.12,-369.21 1018.5,-338 1041.15,-307.77 1037.81,-286.04 1019.5,-253 1010.32,-236.43 993.1,-224.63 976.99,-216.67"/>
<polygon fill="#63b8ff" stroke="#63b8ff" points="978.58,-213.55 968.03,-212.6 975.69,-219.92 978.58,-213.55"/>
</g>
<!-- Node14 -->
<g id="node14" class="node">
<title>Node14</title>
<g id="a_node14"><a xlink:href="logger_8hpp.html" target="_top" xlink:title=" ">
<polygon fill="white" stroke="#666666" points="192,-338 107,-338 107,-319 192,-319 192,-338"/>
<text text-anchor="middle" x="149.5" y="-326" font-family="Helvetica,sans-Serif" font-size="10.00">base/logger.hpp</text>
</a>
</g>
</g>
<!-- Node1&#45;&gt;Node14 -->
<g id="edge13" class="edge">
<title>Node1&#45;&gt;Node14</title>
<path fill="none" stroke="#63b8ff" d="M800.18,-383.19C665.45,-372.07 334.17,-344.74 203.63,-333.97"/>
<polygon fill="#63b8ff" stroke="#63b8ff" points="204.13,-330.5 193.88,-333.16 203.55,-337.47 204.13,-330.5"/>
</g>
<!-- Node17 -->
<g id="node17" class="node">
<title>Node17</title>
<g id="a_node17"><a xlink:href="bip39__provider_8hpp.html" target="_top" xlink:title=" ">
<polygon fill="white" stroke="#666666" points="305,-283 210,-283 210,-253 305,-253 305,-283"/>
<text text-anchor="start" x="218" y="-271" font-family="Helvetica,sans-Serif" font-size="10.00">crypto/bip39/bip39</text>
<text text-anchor="middle" x="257.5" y="-260" font-family="Helvetica,sans-Serif" font-size="10.00">_provider.hpp</text>
</a>
</g>
</g>
<!-- Node1&#45;&gt;Node17 -->
<g id="edge16" class="edge">
<title>Node1&#45;&gt;Node17</title>
<path fill="none" stroke="#63b8ff" d="M800,-376.29C762.51,-367.84 713.23,-354.93 671.5,-338 655.46,-331.49 653.98,-324.28 637.5,-319 503.03,-275.91 458.37,-306.96 316.65,-283.37"/>
<polygon fill="#63b8ff" stroke="#63b8ff" points="317.31,-279.94 306.86,-281.68 316.12,-286.83 317.31,-279.94"/>
</g>
<!-- Node22 -->
<g id="node22" class="node">
<title>Node22</title>
<g id="a_node22"><a xlink:href="crypto__store_8hpp.html" target="_top" xlink:title=" ">
<polygon fill="white" stroke="#666666" points="841,-338 724,-338 724,-319 841,-319 841,-338"/>
<text text-anchor="middle" x="782.5" y="-326" font-family="Helvetica,sans-Serif" font-size="10.00">crypto/crypto_store.hpp</text>
</a>
</g>
</g>
<!-- Node1&#45;&gt;Node22 -->
<g id="edge26" class="edge">
<title>Node1&#45;&gt;Node22</title>
<path fill="none" stroke="#63b8ff" d="M839.71,-373.54C828.45,-364.87 814.13,-353.85 802.63,-345"/>
<polygon fill="#63b8ff" stroke="#63b8ff" points="805.03,-342.42 794.97,-339.1 800.76,-347.97 805.03,-342.42"/>
</g>
<!-- Node34 -->
<g id="node34" class="node">
<title>Node34</title>
<g id="a_node34"><a xlink:href="ed25519__provider_8hpp.html" target="_top" xlink:title=" ">
<polygon fill="white" stroke="#666666" points="1256.5,-338 1116.5,-338 1116.5,-319 1256.5,-319 1256.5,-338"/>
<text text-anchor="middle" x="1186.5" y="-326" font-family="Helvetica,sans-Serif" font-size="10.00">crypto/ed25519_provider.hpp</text>
</a>
</g>
</g>
<!-- Node1&#45;&gt;Node34 -->
<g id="edge48" class="edge">
<title>Node1&#45;&gt;Node34</title>
<path fill="none" stroke="#63b8ff" d="M916.76,-377.61C975.39,-367.15 1065.45,-351.09 1125.15,-340.44"/>
<polygon fill="#63b8ff" stroke="#63b8ff" points="1125.58,-343.92 1134.81,-338.72 1124.35,-337.03 1125.58,-343.92"/>
</g>
<!-- Node35 -->
<g id="node35" class="node">
<title>Node35</title>
<g id="a_node35"><a xlink:href="random__generator_8hpp.html" target="_top" xlink:title=" ">
<polygon fill="white" stroke="#666666" points="1659.5,-338 1517.5,-338 1517.5,-319 1659.5,-319 1659.5,-338"/>
<text text-anchor="middle" x="1588.5" y="-326" font-family="Helvetica,sans-Serif" font-size="10.00">crypto/random_generator.hpp</text>
</a>
</g>
</g>
<!-- Node1&#45;&gt;Node35 -->
<g id="edge52" class="edge">
<title>Node1&#45;&gt;Node35</title>
<path fill="none" stroke="#63b8ff" d="M916.7,-383.34C1045.83,-372.99 1356.66,-348.08 1505.86,-336.12"/>
<polygon fill="#63b8ff" stroke="#63b8ff" points="1505.99,-339.62 1515.68,-335.34 1505.43,-332.65 1505.99,-339.62"/>
</g>
<!-- Node37 -->
<g id="node37" class="node">
<title>Node37</title>
<g id="a_node37"><a xlink:href="secp256k1__provider_8hpp.html" target="_top" xlink:title=" ">
<polygon fill="white" stroke="#666666" points="1010,-338 859,-338 859,-319 1010,-319 1010,-338"/>
<text text-anchor="middle" x="934.5" y="-326" font-family="Helvetica,sans-Serif" font-size="10.00">crypto/secp256k1_provider.hpp</text>
</a>
</g>
</g>
<!-- Node1&#45;&gt;Node37 -->
<g id="edge54" class="edge">
<title>Node1&#45;&gt;Node37</title>
<path fill="none" stroke="#63b8ff" d="M877.29,-373.54C888.55,-364.87 902.87,-353.85 914.37,-345"/>
<polygon fill="#63b8ff" stroke="#63b8ff" points="916.24,-347.97 922.03,-339.1 911.97,-342.42 916.24,-347.97"/>
</g>
<!-- Node38 -->
<g id="node38" class="node">
<title>Node38</title>
<g id="a_node38"><a xlink:href="sr25519__provider_8hpp.html" target="_top" xlink:title=" ">
<polygon fill="white" stroke="#666666" points="1423.5,-338 1285.5,-338 1285.5,-319 1423.5,-319 1423.5,-338"/>
<text text-anchor="middle" x="1354.5" y="-326" font-family="Helvetica,sans-Serif" font-size="10.00">crypto/sr25519_provider.hpp</text>
</a>
</g>
</g>
<!-- Node1&#45;&gt;Node38 -->
<g id="edge57" class="edge">
<title>Node1&#45;&gt;Node38</title>
<path fill="none" stroke="#63b8ff" d="M916.86,-381.12C1005.38,-370.68 1173.86,-350.81 1273.98,-339"/>
<polygon fill="#63b8ff" stroke="#63b8ff" points="1274.22,-342.49 1283.74,-337.85 1273.4,-335.54 1274.22,-342.49"/>
</g>
<!-- Node5 -->
<g id="node5" class="node">
<title>Node5</title>
<g id="a_node5"><a xlink:title=" ">
<polygon fill="#e0e0e0" stroke="#999999" points="1097.5,-145.5 1059.5,-145.5 1059.5,-126.5 1097.5,-126.5 1097.5,-145.5"/>
<text text-anchor="middle" x="1078.5" y="-133.5" font-family="Helvetica,sans-Serif" font-size="10.00">array</text>
</a>
</g>
</g>
<!-- Node4&#45;&gt;Node5 -->
<g id="edge4" class="edge">
<title>Node4&#45;&gt;Node5</title>
<path fill="none" stroke="#63b8ff" d="M960.07,-192.03C980.61,-183.01 1013.26,-168.51 1050.65,-150.81"/>
<polygon fill="#63b8ff" stroke="#63b8ff" points="1051.88,-154.1 1059.41,-146.65 1048.88,-147.78 1051.88,-154.1"/>
</g>
<!-- Node6 -->
<g id="node6" class="node">
<title>Node6</title>
<g id="a_node6"><a xlink:title=" ">
<polygon fill="#e0e0e0" stroke="#999999" points="969.5,-145.5 841.5,-145.5 841.5,-126.5 969.5,-126.5 969.5,-145.5"/>
<text text-anchor="middle" x="905.5" y="-133.5" font-family="Helvetica,sans-Serif" font-size="10.00">boost/functional/hash.hpp</text>
</a>
</g>
</g>
<!-- Node4&#45;&gt;Node6 -->
<g id="edge5" class="edge">
<title>Node4&#45;&gt;Node6</title>
<path fill="none" stroke="#63b8ff" d="M934.77,-192.1C929.8,-182.74 921.83,-167.73 915.45,-155.74"/>
<polygon fill="#63b8ff" stroke="#63b8ff" points="918.68,-154.35 910.9,-147.16 912.5,-157.63 918.68,-154.35"/>
</g>
<!-- Node7 -->
<g id="node7" class="node">
<title>Node7</title>
<g id="a_node7"><a xlink:href="hexutil_8hpp.html" target="_top" xlink:title=" ">
<polygon fill="white" stroke="#666666" points="785.5,-145.5 699.5,-145.5 699.5,-126.5 785.5,-126.5 785.5,-145.5"/>
<text text-anchor="middle" x="742.5" y="-133.5" font-family="Helvetica,sans-Serif" font-size="10.00">base/hexutil.hpp</text>
</a>
</g>
</g>
<!-- Node4&#45;&gt;Node7 -->
<g id="edge6" class="edge">
<title>Node4&#45;&gt;Node7</title>
<path fill="none" stroke="#63b8ff" d="M912.11,-192.1C877.95,-181 819.36,-161.97 780.77,-149.43"/>
<polygon fill="#63b8ff" stroke="#63b8ff" points="782.01,-146.16 771.42,-146.39 779.84,-152.81 782.01,-146.16"/>
</g>
<!-- Node13 -->
<g id="node13" class="node">
<title>Node13</title>
<g id="a_node13"><a xlink:title=" ">
<polygon fill="#e0e0e0" stroke="#999999" points="1041.5,-145.5 987.5,-145.5 987.5,-126.5 1041.5,-126.5 1041.5,-145.5"/>
<text text-anchor="middle" x="1014.5" y="-133.5" font-family="Helvetica,sans-Serif" font-size="10.00">iostream</text>
</a>
</g>
</g>
<!-- Node4&#45;&gt;Node13 -->
<g id="edge12" class="edge">
<title>Node4&#45;&gt;Node13</title>
<path fill="none" stroke="#63b8ff" d="M949.93,-192.1C961.68,-182.07 981.04,-165.56 995.49,-153.22"/>
<polygon fill="#63b8ff" stroke="#63b8ff" points="997.67,-155.96 1003.01,-146.81 993.13,-150.63 997.67,-155.96"/>
</g>
<!-- Node8 -->
<g id="node8" class="node">
<title>Node8</title>
<g id="a_node8"><a xlink:title=" ">
<polygon fill="#e0e0e0" stroke="#999999" points="791.5,-79.5 725.5,-79.5 725.5,-60.5 791.5,-60.5 791.5,-79.5"/>
<text text-anchor="middle" x="758.5" y="-67.5" font-family="Helvetica,sans-Serif" font-size="10.00">string_view</text>
</a>
</g>
</g>
<!-- Node7&#45;&gt;Node8 -->
<g id="edge7" class="edge">
<title>Node7&#45;&gt;Node8</title>
<path fill="none" stroke="#63b8ff" d="M744.72,-126.1C746.99,-117.03 750.59,-102.64 753.54,-90.85"/>
<polygon fill="#63b8ff" stroke="#63b8ff" points="756.9,-91.84 755.93,-81.29 750.11,-90.14 756.9,-91.84"/>
</g>
<!-- Node9 -->
<g id="node9" class="node">
<title>Node9</title>
<g id="a_node9"><a xlink:title=" ">
<polygon fill="#e0e0e0" stroke="#999999" points="707.5,-79.5 663.5,-79.5 663.5,-60.5 707.5,-60.5 707.5,-79.5"/>
<text text-anchor="middle" x="685.5" y="-67.5" font-family="Helvetica,sans-Serif" font-size="10.00">vector</text>
</a>
</g>
</g>
<!-- Node7&#45;&gt;Node9 -->
<g id="edge8" class="edge">
<title>Node7&#45;&gt;Node9</title>
<path fill="none" stroke="#63b8ff" d="M734.57,-126.1C725.9,-116.36 711.77,-100.5 700.9,-88.29"/>
<polygon fill="#63b8ff" stroke="#63b8ff" points="703.63,-86.09 694.36,-80.95 698.4,-90.75 703.63,-86.09"/>
</g>
<!-- Node10 -->
<g id="node10" class="node">
<title>Node10</title>
<g id="a_node10"><a xlink:title=" ">
<polygon fill="#e0e0e0" stroke="#999999" points="1381,-79.5 1328,-79.5 1328,-60.5 1381,-60.5 1381,-79.5"/>
<text text-anchor="middle" x="1354.5" y="-67.5" font-family="Helvetica,sans-Serif" font-size="10.00">gsl/span</text>
</a>
</g>
</g>
<!-- Node7&#45;&gt;Node10 -->
<g id="edge9" class="edge">
<title>Node7&#45;&gt;Node10</title>
<path fill="none" stroke="#63b8ff" d="M785.92,-127.72C800.67,-125.38 817.28,-122.91 832.5,-121 1013.03,-98.33 1229.82,-80.58 1316.23,-73.89"/>
<polygon fill="#63b8ff" stroke="#63b8ff" points="1316.33,-77.39 1326.03,-73.14 1315.8,-70.41 1316.33,-77.39"/>
</g>
<!-- Node11 -->
<g id="node11" class="node">
<title>Node11</title>
<g id="a_node11"><a xlink:href="outcome_8hpp.html" target="_top" xlink:title=" ">
<polygon fill="white" stroke="#666666" points="1075,-79.5 962,-79.5 962,-60.5 1075,-60.5 1075,-79.5"/>
<text text-anchor="middle" x="1018.5" y="-67.5" font-family="Helvetica,sans-Serif" font-size="10.00">outcome/outcome.hpp</text>
</a>
</g>
</g>
<!-- Node7&#45;&gt;Node11 -->
<g id="edge10" class="edge">
<title>Node7&#45;&gt;Node11</title>
<path fill="none" stroke="#63b8ff" d="M778.66,-126.02C785.58,-124.33 792.76,-122.6 799.5,-121 856.93,-107.39 922.98,-92.4 967.4,-82.42"/>
<polygon fill="#63b8ff" stroke="#63b8ff" points="968.02,-85.86 977.02,-80.26 966.49,-79.03 968.02,-85.86"/>
</g>
<!-- Node12 -->
<g id="node12" class="node">
<title>Node12</title>
<g id="a_node12"><a xlink:title=" ">
<polygon fill="#e0e0e0" stroke="#999999" points="1089,-19 948,-19 948,0 1089,0 1089,-19"/>
<text text-anchor="middle" x="1018.5" y="-7" font-family="Helvetica,sans-Serif" font-size="10.00">libp2p/outcome/outcome.hpp</text>
</a>
</g>
</g>
<!-- Node11&#45;&gt;Node12 -->
<g id="edge11" class="edge">
<title>Node11&#45;&gt;Node12</title>
<path fill="none" stroke="#63b8ff" d="M1018.5,-60.37C1018.5,-52.5 1018.5,-40.6 1018.5,-30.39"/>
<polygon fill="#63b8ff" stroke="#63b8ff" points="1022,-30.68 1018.5,-20.68 1015,-30.68 1022,-30.68"/>
</g>
<!-- Node15 -->
<g id="node15" class="node">
<title>Node15</title>
<g id="a_node15"><a xlink:title=" ">
<polygon fill="#e0e0e0" stroke="#999999" points="89,-277.5 0,-277.5 0,-258.5 89,-258.5 89,-277.5"/>
<text text-anchor="middle" x="44.5" y="-265.5" font-family="Helvetica,sans-Serif" font-size="10.00">spdlog/fmt/ostr.h</text>
</a>
</g>
</g>
<!-- Node14&#45;&gt;Node15 -->
<g id="edge14" class="edge">
<title>Node14&#45;&gt;Node15</title>
<path fill="none" stroke="#63b8ff" d="M133.55,-318.62C116.82,-309.29 90.27,-294.5 70.5,-283.49"/>
<polygon fill="#63b8ff" stroke="#63b8ff" points="72.36,-280.51 61.92,-278.71 68.95,-286.63 72.36,-280.51"/>
</g>
<!-- Node16 -->
<g id="node16" class="node">
<title>Node16</title>
<g id="a_node16"><a xlink:title=" ">
<polygon fill="#e0e0e0" stroke="#999999" points="191.5,-277.5 107.5,-277.5 107.5,-258.5 191.5,-258.5 191.5,-277.5"/>
<text text-anchor="middle" x="149.5" y="-265.5" font-family="Helvetica,sans-Serif" font-size="10.00">spdlog/spdlog.h</text>
</a>
</g>
</g>
<!-- Node14&#45;&gt;Node16 -->
<g id="edge15" class="edge">
<title>Node14&#45;&gt;Node16</title>
<path fill="none" stroke="#63b8ff" d="M149.5,-318.87C149.5,-311 149.5,-299.1 149.5,-288.89"/>
<polygon fill="#63b8ff" stroke="#63b8ff" points="153,-289.18 149.5,-279.18 146,-289.18 153,-289.18"/>
</g>
<!-- Node18 -->
<g id="node18" class="node">
<title>Node18</title>
<g id="a_node18"><a xlink:href="buffer_8hpp.html" target="_top" xlink:title=" ">
<polygon fill="white" stroke="#666666" points="666,-145.5 583,-145.5 583,-126.5 666,-126.5 666,-145.5"/>
<text text-anchor="middle" x="624.5" y="-133.5" font-family="Helvetica,sans-Serif" font-size="10.00">base/buffer.hpp</text>
</a>
</g>
</g>
<!-- Node17&#45;&gt;Node18 -->
<g id="edge17" class="edge">
<title>Node17&#45;&gt;Node18</title>
<path fill="none" stroke="#63b8ff" d="M298.18,-252.59C370.48,-226.98 520.21,-173.94 588.79,-149.65"/>
<polygon fill="#63b8ff" stroke="#63b8ff" points="589.78,-153.01 598.04,-146.37 587.44,-146.41 589.78,-153.01"/>
</g>
<!-- Node21 -->
<g id="node21" class="node">
<title>Node21</title>
<g id="a_node21"><a xlink:href="bip39__types_8hpp.html" target="_top" xlink:title=" ">
<polygon fill="white" stroke="#666666" points="367,-217 272,-217 272,-187 367,-187 367,-217"/>
<text text-anchor="start" x="280" y="-205" font-family="Helvetica,sans-Serif" font-size="10.00">crypto/bip39/bip39</text>
<text text-anchor="middle" x="319.5" y="-194" font-family="Helvetica,sans-Serif" font-size="10.00">_types.hpp</text>
</a>
</g>
</g>
<!-- Node17&#45;&gt;Node21 -->
<g id="edge24" class="edge">
<title>Node17&#45;&gt;Node21</title>
<path fill="none" stroke="#63b8ff" d="M271.26,-252.8C279.05,-244.76 288.96,-234.53 297.77,-225.43"/>
<polygon fill="#63b8ff" stroke="#63b8ff" points="300.28,-227.87 304.73,-218.25 295.25,-223 300.28,-227.87"/>
</g>
<!-- Node18&#45;&gt;Node8 -->
<g id="edge18" class="edge">
<title>Node18&#45;&gt;Node8</title>
<path fill="none" stroke="#63b8ff" d="M643.13,-126.1C665.63,-115.35 703.72,-97.16 729.94,-84.64"/>
<polygon fill="#63b8ff" stroke="#63b8ff" points="731.15,-87.94 738.66,-80.48 728.13,-81.63 731.15,-87.94"/>
</g>
<!-- Node18&#45;&gt;Node9 -->
<g id="edge19" class="edge">
<title>Node18&#45;&gt;Node9</title>
<path fill="none" stroke="#63b8ff" d="M632.98,-126.1C642.36,-116.26 657.68,-100.18 669.37,-87.93"/>
<polygon fill="#63b8ff" stroke="#63b8ff" points="671.68,-90.57 676.05,-80.92 666.61,-85.74 671.68,-90.57"/>
</g>
<!-- Node18&#45;&gt;Node10 -->
<g id="edge22" class="edge">
<title>Node18&#45;&gt;Node10</title>
<path fill="none" stroke="#63b8ff" d="M662.39,-126.06C671.55,-124.15 681.34,-122.31 690.5,-121 812.88,-103.49 1194.24,-80.34 1316.43,-73.19"/>
<polygon fill="#63b8ff" stroke="#63b8ff" points="1316.46,-76.7 1326.24,-72.62 1316.05,-69.71 1316.46,-76.7"/>
</g>
<!-- Node18&#45;&gt;Node11 -->
<g id="edge23" class="edge">
<title>Node18&#45;&gt;Node11</title>
<path fill="none" stroke="#63b8ff" d="M664.92,-126.04C673.35,-124.28 682.2,-122.51 690.5,-121 780.1,-104.68 884.13,-89.45 950.6,-80.18"/>
<polygon fill="#63b8ff" stroke="#63b8ff" points="950.82,-83.69 960.24,-78.85 949.86,-76.75 950.82,-83.69"/>
</g>
<!-- Node19 -->
<g id="node19" class="node">
<title>Node19</title>
<g id="a_node19"><a xlink:title=" ">
<polygon fill="#e0e0e0" stroke="#999999" points="525.5,-85 415.5,-85 415.5,-55 525.5,-55 525.5,-85"/>
<text text-anchor="start" x="423.5" y="-73" font-family="Helvetica,sans-Serif" font-size="10.00">boost/container_hash</text>
<text text-anchor="middle" x="470.5" y="-62" font-family="Helvetica,sans-Serif" font-size="10.00">/hash.hpp</text>
</a>
</g>
</g>
<!-- Node18&#45;&gt;Node19 -->
<g id="edge20" class="edge">
<title>Node18&#45;&gt;Node19</title>
<path fill="none" stroke="#63b8ff" d="M603.09,-126.1C580.56,-116.74 544.45,-101.73 515.6,-89.74"/>
<polygon fill="#63b8ff" stroke="#63b8ff" points="517.31,-86.66 506.73,-86.06 514.63,-93.13 517.31,-86.66"/>
</g>
<!-- Node20 -->
<g id="node20" class="node">
<title>Node20</title>
<g id="a_node20"><a xlink:title=" ">
<polygon fill="#e0e0e0" stroke="#999999" points="645.5,-79.5 543.5,-79.5 543.5,-60.5 645.5,-60.5 645.5,-79.5"/>
<text text-anchor="middle" x="594.5" y="-67.5" font-family="Helvetica,sans-Serif" font-size="10.00">boost/operators.hpp</text>
</a>
</g>
</g>
<!-- Node18&#45;&gt;Node20 -->
<g id="edge21" class="edge">
<title>Node18&#45;&gt;Node20</title>
<path fill="none" stroke="#63b8ff" d="M620.33,-126.1C615.99,-116.84 609.05,-102.04 603.46,-90.11"/>
<polygon fill="#63b8ff" stroke="#63b8ff" points="606.69,-88.76 599.28,-81.19 600.35,-91.73 606.69,-88.76"/>
</g>
<!-- Node21&#45;&gt;Node18 -->
<g id="edge25" class="edge">
<title>Node21&#45;&gt;Node18</title>
<path fill="none" stroke="#63b8ff" d="M367.49,-190.93C423.01,-179.28 514.13,-160.16 571.64,-148.09"/>
<polygon fill="#63b8ff" stroke="#63b8ff" points="572.12,-151.57 581.19,-146.09 570.68,-144.72 572.12,-151.57"/>
</g>
<!-- Node22&#45;&gt;Node2 -->
<g id="edge28" class="edge">
<title>Node22&#45;&gt;Node2</title>
<path fill="none" stroke="#63b8ff" d="M723.66,-320.64C639.83,-310.74 490.23,-292.6 436.5,-283 432.11,-282.22 427.57,-281.32 423.02,-280.38"/>
<polygon fill="#63b8ff" stroke="#63b8ff" points="423.82,-276.97 413.31,-278.27 422.34,-283.81 423.82,-276.97"/>
</g>
<!-- Node22&#45;&gt;Node17 -->
<g id="edge31" class="edge">
<title>Node22&#45;&gt;Node17</title>
<path fill="none" stroke="#63b8ff" d="M723.73,-323.03C620.43,-315.01 409.16,-297.76 316.57,-283.31"/>
<polygon fill="#63b8ff" stroke="#63b8ff" points="317.29,-279.88 306.85,-281.71 316.16,-286.79 317.29,-279.88"/>
</g>
<!-- Node23 -->
<g id="node23" class="node">
<title>Node23</title>
<g id="a_node23"><a xlink:title=" ">
<polygon fill="#e0e0e0" stroke="#999999" points="622,-277.5 571,-277.5 571,-258.5 622,-258.5 622,-277.5"/>
<text text-anchor="middle" x="596.5" y="-265.5" font-family="Helvetica,sans-Serif" font-size="10.00">memory</text>
</a>
</g>
</g>
<!-- Node22&#45;&gt;Node23 -->
<g id="edge27" class="edge">
<title>Node22&#45;&gt;Node23</title>
<path fill="none" stroke="#63b8ff" d="M748.06,-318.54C717.04,-310.2 670.32,-296.98 630.5,-283 629.55,-282.67 628.59,-282.32 627.62,-281.97"/>
<polygon fill="#63b8ff" stroke="#63b8ff" points="629.22,-278.83 618.64,-278.49 626.7,-285.36 629.22,-278.83"/>
</g>
<!-- Node24 -->
<g id="node24" class="node">
<title>Node24</title>
<g id="a_node24"><a xlink:title=" ">
<polygon fill="#e0e0e0" stroke="#999999" points="735,-277.5 640,-277.5 640,-258.5 735,-258.5 735,-277.5"/>
<text text-anchor="middle" x="687.5" y="-265.5" font-family="Helvetica,sans-Serif" font-size="10.00">boost/optional.hpp</text>
</a>
</g>
</g>
<!-- Node22&#45;&gt;Node24 -->
<g id="edge29" class="edge">
<title>Node22&#45;&gt;Node24</title>
<path fill="none" stroke="#63b8ff" d="M768.07,-318.62C753.15,-309.42 729.57,-294.91 711.77,-283.94"/>
<polygon fill="#63b8ff" stroke="#63b8ff" points="713.7,-281.03 703.35,-278.76 710.03,-286.99 713.7,-281.03"/>
</g>
<!-- Node25 -->
<g id="node25" class="node">
<title>Node25</title>
<g id="a_node25"><a xlink:title=" ">
<polygon fill="#e0e0e0" stroke="#999999" points="553,-277.5 446,-277.5 446,-258.5 553,-258.5 553,-277.5"/>
<text text-anchor="middle" x="499.5" y="-265.5" font-family="Helvetica,sans-Serif" font-size="10.00">libp2p/crypto/key.hpp</text>
</a>
</g>
</g>
<!-- Node22&#45;&gt;Node25 -->
<g id="edge30" class="edge">
<title>Node22&#45;&gt;Node25</title>
<path fill="none" stroke="#63b8ff" d="M736.3,-318.52C691.54,-309.75 621.78,-295.87 561.5,-283 557.66,-282.18 553.69,-281.32 549.7,-280.44"/>
<polygon fill="#63b8ff" stroke="#63b8ff" points="550.49,-277.03 539.97,-278.28 548.98,-283.86 550.49,-277.03"/>
</g>
<!-- Node26 -->
<g id="node26" class="node">
<title>Node26</title>
<g id="a_node26"><a xlink:href="key__type_8hpp.html" target="_top" xlink:title=" ">
<polygon fill="white" stroke="#666666" points="852,-283 753,-283 753,-253 852,-253 852,-283"/>
<text text-anchor="start" x="761" y="-271" font-family="Helvetica,sans-Serif" font-size="10.00">crypto/crypto_store</text>
<text text-anchor="middle" x="802.5" y="-260" font-family="Helvetica,sans-Serif" font-size="10.00">/key_type.hpp</text>
</a>
</g>
</g>
<!-- Node22&#45;&gt;Node26 -->
<g id="edge32" class="edge">
<title>Node22&#45;&gt;Node26</title>
<path fill="none" stroke="#63b8ff" d="M785.45,-318.87C787.71,-312.25 790.95,-302.78 794,-293.86"/>
<polygon fill="#63b8ff" stroke="#63b8ff" points="797.26,-295.14 797.18,-284.55 790.64,-292.88 797.26,-295.14"/>
</g>
<!-- Node27 -->
<g id="node27" class="node">
<title>Node27</title>
<g id="a_node27"><a xlink:href="ed25519__types_8hpp.html" target="_top" xlink:title=" ">
<polygon fill="white" stroke="#666666" points="1196,-277.5 1067,-277.5 1067,-258.5 1196,-258.5 1196,-277.5"/>
<text text-anchor="middle" x="1131.5" y="-265.5" font-family="Helvetica,sans-Serif" font-size="10.00">crypto/ed25519_types.hpp</text>
</a>
</g>
</g>
<!-- Node22&#45;&gt;Node27 -->
<g id="edge35" class="edge">
<title>Node22&#45;&gt;Node27</title>
<path fill="none" stroke="#63b8ff" d="M835.89,-318.55C897.89,-308.16 1000.15,-291.02 1066.66,-279.87"/>
<polygon fill="#63b8ff" stroke="#63b8ff" points="1067.06,-283.35 1076.34,-278.25 1065.9,-276.45 1067.06,-283.35"/>
</g>
<!-- Node29 -->
<g id="node29" class="node">
<title>Node29</title>
<g id="a_node29"><a xlink:href="secp256k1__types_8hpp.html" target="_top" xlink:title=" ">
<polygon fill="white" stroke="#666666" points="1010.5,-277.5 870.5,-277.5 870.5,-258.5 1010.5,-258.5 1010.5,-277.5"/>
<text text-anchor="middle" x="940.5" y="-265.5" font-family="Helvetica,sans-Serif" font-size="10.00">crypto/secp256k1_types.hpp</text>
</a>
</g>
</g>
<!-- Node22&#45;&gt;Node29 -->
<g id="edge38" class="edge">
<title>Node22&#45;&gt;Node29</title>
<path fill="none" stroke="#63b8ff" d="M806.5,-318.62C832.95,-308.82 875.72,-292.98 905.82,-281.84"/>
<polygon fill="#63b8ff" stroke="#63b8ff" points="906.7,-285.25 914.86,-278.49 904.26,-278.68 906.7,-285.25"/>
</g>
<!-- Node30 -->
<g id="node30" class="node">
<title>Node30</title>
<g id="a_node30"><a xlink:href="sr25519__types_8hpp.html" target="_top" xlink:title=" ">
<polygon fill="white" stroke="#666666" points="1380,-277.5 1253,-277.5 1253,-258.5 1380,-258.5 1380,-277.5"/>
<text text-anchor="middle" x="1316.5" y="-265.5" font-family="Helvetica,sans-Serif" font-size="10.00">crypto/sr25519_types.hpp</text>
</a>
</g>
</g>
<!-- Node22&#45;&gt;Node30 -->
<g id="edge40" class="edge">
<title>Node22&#45;&gt;Node30</title>
<path fill="none" stroke="#63b8ff" d="M841.32,-319.95C844.08,-319.63 846.82,-319.31 849.5,-319 1007.06,-301.02 1046.92,-300.84 1204.5,-283 1216.43,-281.65 1229.06,-280.14 1241.37,-278.64"/>
<polygon fill="#63b8ff" stroke="#63b8ff" points="1241.57,-282.14 1251.06,-277.44 1240.71,-275.19 1241.57,-282.14"/>
</g>
<!-- Node26&#45;&gt;Node4 -->
<g id="edge33" class="edge">
<title>Node26&#45;&gt;Node4</title>
<path fill="none" stroke="#63b8ff" d="M833.25,-252.64C856.16,-241.93 887.27,-227.4 909.91,-216.82"/>
<polygon fill="#63b8ff" stroke="#63b8ff" points="911.31,-220.03 918.89,-212.63 908.35,-213.69 911.31,-220.03"/>
</g>
<!-- Node26&#45;&gt;Node11 -->
<g id="edge34" class="edge">
<title>Node26&#45;&gt;Node11</title>
<path fill="none" stroke="#63b8ff" d="M800.94,-252.78C798.61,-223.89 797.73,-157.92 832.5,-121 862.61,-89.03 910.79,-76.7 950.56,-72.28"/>
<polygon fill="#63b8ff" stroke="#63b8ff" points="950.67,-75.78 960.3,-71.35 950.01,-68.81 950.67,-75.78"/>
</g>
<!-- Node27&#45;&gt;Node4 -->
<g id="edge37" class="edge">
<title>Node27&#45;&gt;Node4</title>
<path fill="none" stroke="#63b8ff" d="M1104.8,-258.1C1071.51,-247 1014.41,-227.97 976.8,-215.43"/>
<polygon fill="#63b8ff" stroke="#63b8ff" points="978.31,-212.25 967.71,-212.4 976.09,-218.89 978.31,-212.25"/>
</g>
<!-- Node28 -->
<g id="node28" class="node">
<title>Node28</title>
<g id="a_node28"><a xlink:title=" ">
<polygon fill="#e0e0e0" stroke="#999999" points="1097,-211.5 996,-211.5 996,-192.5 1097,-192.5 1097,-211.5"/>
<text text-anchor="middle" x="1046.5" y="-199.5" font-family="Helvetica,sans-Serif" font-size="10.00">ed25519/ed25519.h</text>
</a>
</g>
</g>
<!-- Node27&#45;&gt;Node28 -->
<g id="edge36" class="edge">
<title>Node27&#45;&gt;Node28</title>
<path fill="none" stroke="#63b8ff" d="M1119.68,-258.1C1106.11,-247.88 1083.59,-230.93 1067.11,-218.52"/>
<polygon fill="#63b8ff" stroke="#63b8ff" points="1069.52,-215.95 1059.43,-212.73 1065.31,-221.54 1069.52,-215.95"/>
</g>
<!-- Node29&#45;&gt;Node4 -->
<g id="edge39" class="edge">
<title>Node29&#45;&gt;Node4</title>
<path fill="none" stroke="#63b8ff" d="M940.36,-258.1C940.22,-249.12 940,-234.95 939.82,-223.22"/>
<polygon fill="#63b8ff" stroke="#63b8ff" points="943.32,-223.28 939.66,-213.34 936.32,-223.39 943.32,-223.28"/>
</g>
<!-- Node30&#45;&gt;Node4 -->
<g id="edge44" class="edge">
<title>Node30&#45;&gt;Node4</title>
<path fill="none" stroke="#63b8ff" d="M1252.81,-258.43C1171.63,-247.31 1035.91,-228.05 986.5,-217 983.74,-216.38 980.9,-215.69 978.05,-214.95"/>
<polygon fill="#63b8ff" stroke="#63b8ff" points="979.2,-211.64 968.63,-212.34 977.33,-218.38 979.2,-211.64"/>
</g>
<!-- Node30&#45;&gt;Node10 -->
<g id="edge43" class="edge">
<title>Node30&#45;&gt;Node10</title>
<path fill="none" stroke="#63b8ff" d="M1332.72,-258.14C1346.45,-249.62 1365.19,-235.35 1373.5,-217 1392.69,-174.64 1375.01,-118.75 1363.17,-89.95"/>
<polygon fill="#63b8ff" stroke="#63b8ff" points="1366.52,-88.87 1359.32,-81.09 1360.09,-91.66 1366.52,-88.87"/>
</g>
<!-- Node31 -->
<g id="node31" class="node">
<title>Node31</title>
<g id="a_node31"><a xlink:title=" ">
<polygon fill="#e0e0e0" stroke="#999999" points="1251,-211.5 1192,-211.5 1192,-192.5 1251,-192.5 1251,-211.5"/>
<text text-anchor="middle" x="1221.5" y="-199.5" font-family="Helvetica,sans-Serif" font-size="10.00">sr25519.h</text>
</a>
</g>
</g>
<!-- Node30&#45;&gt;Node31 -->
<g id="edge41" class="edge">
<title>Node30&#45;&gt;Node31</title>
<path fill="none" stroke="#63b8ff" d="M1303.29,-258.1C1287.98,-247.78 1262.48,-230.61 1244.02,-218.17"/>
<polygon fill="#63b8ff" stroke="#63b8ff" points="1246.1,-215.35 1235.85,-212.67 1242.19,-221.16 1246.1,-215.35"/>
</g>
<!-- Node32 -->
<g id="node32" class="node">
<title>Node32</title>
<g id="a_node32"><a xlink:title=" ">
<polygon fill="#e0e0e0" stroke="#999999" points="1273.5,-151 1169.5,-151 1169.5,-121 1273.5,-121 1273.5,-151"/>
<text text-anchor="start" x="1177.5" y="-139" font-family="Helvetica,sans-Serif" font-size="10.00">boost/multiprecision</text>
<text text-anchor="middle" x="1221.5" y="-128" font-family="Helvetica,sans-Serif" font-size="10.00">/cpp_int.hpp</text>
</a>
</g>
</g>
<!-- Node30&#45;&gt;Node32 -->
<g id="edge42" class="edge">
<title>Node30&#45;&gt;Node32</title>
<path fill="none" stroke="#63b8ff" d="M1278.88,-258.06C1243.34,-248.77 1193.83,-233.32 1182.5,-217 1169.89,-198.84 1183.56,-175.99 1198.07,-159.37"/>
<polygon fill="#63b8ff" stroke="#63b8ff" points="1200.3,-162.11 1204.56,-152.41 1195.18,-157.33 1200.3,-162.11"/>
</g>
<!-- Node33 -->
<g id="node33" class="node">
<title>Node33</title>
<g id="a_node33"><a xlink:href="mp__utils_8hpp.html" target="_top" xlink:title=" ">
<polygon fill="white" stroke="#666666" points="1364,-211.5 1269,-211.5 1269,-192.5 1364,-192.5 1364,-211.5"/>
<text text-anchor="middle" x="1316.5" y="-199.5" font-family="Helvetica,sans-Serif" font-size="10.00">base/mp_utils.hpp</text>
</a>
</g>
</g>
<!-- Node30&#45;&gt;Node33 -->
<g id="edge45" class="edge">
<title>Node30&#45;&gt;Node33</title>
<path fill="none" stroke="#63b8ff" d="M1316.5,-258.1C1316.5,-249.12 1316.5,-234.95 1316.5,-223.22"/>
<polygon fill="#63b8ff" stroke="#63b8ff" points="1320,-223.34 1316.5,-213.34 1313,-223.34 1320,-223.34"/>
</g>
<!-- Node33&#45;&gt;Node10 -->
<g id="edge47" class="edge">
<title>Node33&#45;&gt;Node10</title>
<path fill="none" stroke="#63b8ff" d="M1319.11,-192.06C1325.19,-171.28 1340.38,-119.31 1348.75,-90.68"/>
<polygon fill="#63b8ff" stroke="#63b8ff" points="1352,-92.03 1351.45,-81.45 1345.28,-90.07 1352,-92.03"/>
</g>
<!-- Node33&#45;&gt;Node32 -->
<g id="edge46" class="edge">
<title>Node33&#45;&gt;Node32</title>
<path fill="none" stroke="#63b8ff" d="M1303.29,-192.1C1290.13,-183.23 1269.44,-169.3 1252.17,-157.66"/>
<polygon fill="#63b8ff" stroke="#63b8ff" points="1254.49,-155.01 1244.25,-152.32 1250.58,-160.81 1254.49,-155.01"/>
</g>
<!-- Node34&#45;&gt;Node10 -->
<g id="edge49" class="edge">
<title>Node34&#45;&gt;Node10</title>
<path fill="none" stroke="#63b8ff" d="M1256.87,-320.03C1329.05,-311.64 1432.44,-297.32 1444.5,-283 1496.47,-221.3 1410.64,-125.19 1371.92,-87.22"/>
<polygon fill="#63b8ff" stroke="#63b8ff" points="1374.75,-85.09 1365.11,-80.69 1369.91,-90.14 1374.75,-85.09"/>
</g>
<!-- Node34&#45;&gt;Node11 -->
<g id="edge50" class="edge">
<title>Node34&#45;&gt;Node11</title>
<path fill="none" stroke="#63b8ff" d="M1256.79,-321.37C1308.63,-315.23 1372.91,-303.63 1389.5,-283 1404.75,-264.04 1383.55,-202 1373.5,-187 1345.68,-145.5 1328.37,-140.79 1282.5,-121 1219.42,-93.78 1141.55,-81.33 1086.78,-75.67"/>
<polygon fill="#63b8ff" stroke="#63b8ff" points="1087.25,-72.2 1076.96,-74.71 1086.57,-79.16 1087.25,-72.2"/>
</g>
<!-- Node34&#45;&gt;Node27 -->
<g id="edge51" class="edge">
<title>Node34&#45;&gt;Node27</title>
<path fill="none" stroke="#63b8ff" d="M1178.38,-318.87C1170.26,-310.23 1157.54,-296.7 1147.4,-285.92"/>
<polygon fill="#63b8ff" stroke="#63b8ff" points="1150.09,-283.66 1140.69,-278.77 1144.99,-288.45 1150.09,-283.66"/>
</g>
<!-- Node36 -->
<g id="node36" class="node">
<title>Node36</title>
<g id="a_node36"><a xlink:title=" ">
<polygon fill="#e0e0e0" stroke="#999999" points="1680,-283 1573,-283 1573,-253 1680,-253 1680,-283"/>
<text text-anchor="start" x="1581" y="-271" font-family="Helvetica,sans-Serif" font-size="10.00">libp2p/crypto/random</text>
<text text-anchor="middle" x="1626.5" y="-260" font-family="Helvetica,sans-Serif" font-size="10.00">_generator.hpp</text>
</a>
</g>
</g>
<!-- Node35&#45;&gt;Node36 -->
<g id="edge53" class="edge">
<title>Node35&#45;&gt;Node36</title>
<path fill="none" stroke="#63b8ff" d="M1594.11,-318.87C1598.59,-311.96 1605.11,-301.93 1611.12,-292.67"/>
<polygon fill="#63b8ff" stroke="#63b8ff" points="1613.99,-294.68 1616.51,-284.38 1608.12,-290.86 1613.99,-294.68"/>
</g>
<!-- Node37&#45;&gt;Node11 -->
<g id="edge56" class="edge">
<title>Node37&#45;&gt;Node11</title>
<path fill="none" stroke="#63b8ff" d="M1010.22,-325.61C1081.21,-322.05 1179.98,-311.89 1204.5,-283 1213.13,-272.83 1209.04,-265.54 1204.5,-253 1197.41,-233.42 1187.2,-233.51 1174.5,-217 1142.63,-175.55 1145.27,-156.09 1106.5,-121 1089.81,-105.89 1067.78,-93.38 1049.94,-84.65"/>
<polygon fill="#63b8ff" stroke="#63b8ff" points="1051.63,-81.58 1041.09,-80.48 1048.65,-87.91 1051.63,-81.58"/>
</g>
<!-- Node37&#45;&gt;Node29 -->
<g id="edge55" class="edge">
<title>Node37&#45;&gt;Node29</title>
<path fill="none" stroke="#63b8ff" d="M935.39,-318.87C936.19,-311 937.41,-299.1 938.46,-288.89"/>
<polygon fill="#63b8ff" stroke="#63b8ff" points="941.92,-289.48 939.46,-279.17 934.95,-288.76 941.92,-289.48"/>
</g>
<!-- Node38&#45;&gt;Node10 -->
<g id="edge58" class="edge">
<title>Node38&#45;&gt;Node10</title>
<path fill="none" stroke="#63b8ff" d="M1418.03,-318.58C1459.33,-311.33 1507.79,-299.57 1520.5,-283 1565.52,-224.33 1538.57,-169.23 1482.5,-121 1456.78,-98.88 1420.15,-85.91 1392.65,-78.74"/>
<polygon fill="#63b8ff" stroke="#63b8ff" points="1393.5,-75.35 1382.96,-76.38 1391.85,-82.15 1393.5,-75.35"/>
</g>
<!-- Node38&#45;&gt;Node11 -->
<g id="edge59" class="edge">
<title>Node38&#45;&gt;Node11</title>
<path fill="none" stroke="#63b8ff" d="M1370.72,-318.56C1382.81,-310.9 1398.4,-298.62 1405.5,-283 1411.02,-270.86 1406.7,-266.28 1405.5,-253 1402.82,-223.31 1407.53,-213.3 1393.5,-187 1373.68,-149.84 1363.13,-139.92 1325.5,-121 1249.72,-82.89 1151.36,-72.72 1086.66,-70.56"/>
<polygon fill="#63b8ff" stroke="#63b8ff" points="1086.98,-67.06 1076.89,-70.29 1086.79,-74.06 1086.98,-67.06"/>
</g>
<!-- Node38&#45;&gt;Node30 -->
<g id="edge60" class="edge">
<title>Node38&#45;&gt;Node30</title>
<path fill="none" stroke="#63b8ff" d="M1348.89,-318.87C1343.5,-310.57 1335.19,-297.78 1328.34,-287.22"/>
<polygon fill="#63b8ff" stroke="#63b8ff" points="1331.34,-285.42 1322.95,-278.94 1325.47,-289.23 1331.34,-285.42"/>
</g>
</g>
</svg>
