<?xml version="1.0" encoding="UTF-8" standalone="no"?>
<!DOCTYPE svg PUBLIC "-//W3C//DTD SVG 1.1//EN"
 "http://www.w3.org/Graphics/SVG/1.1/DTD/svg11.dtd">
<!-- Generated by graphviz version 7.0.5 (20221223.1930)
 -->
<!-- Title: src/crypto/bip39/dictionary.hpp Pages: 1 -->
<svg width="887pt" height="445pt"
 viewBox="0.00 0.00 887.00 445.00" xmlns="http://www.w3.org/2000/svg" xmlns:xlink="http://www.w3.org/1999/xlink">
<g id="graph0" class="graph" transform="scale(1 1) rotate(0) translate(4 441)">
<title>src/crypto/bip39/dictionary.hpp</title>
<!-- Node1 -->
<g id="node1" class="node">
<title>Node1</title>
<g id="a_node1"><a xlink:title=" ">
<polygon fill="#999999" stroke="#666666" points="225,-437 77,-437 77,-418 225,-418 225,-437"/>
<text text-anchor="middle" x="151" y="-425" font-family="Helvetica,sans-Serif" font-size="10.00">src/crypto/bip39/dictionary.hpp</text>
</a>
</g>
</g>
<!-- Node2 -->
<g id="node2" class="node">
<title>Node2</title>
<g id="a_node2"><a xlink:href="dictionary_8cpp.html" target="_top" xlink:title=" ">
<polygon fill="white" stroke="#666666" points="148,-376.5 0,-376.5 0,-357.5 148,-357.5 148,-376.5"/>
<text text-anchor="middle" x="74" y="-364.5" font-family="Helvetica,sans-Serif" font-size="10.00">src/crypto/bip39/dictionary.cpp</text>
</a>
</g>
</g>
<!-- Node1&#45;&gt;Node2 -->
<g id="edge1" class="edge">
<title>Node1&#45;&gt;Node2</title>
<path fill="none" stroke="#63b8ff" d="M130.24,-410.73C115.99,-399.9 97.6,-385.93 85.8,-376.97"/>
<polygon fill="#63b8ff" stroke="#63b8ff" points="128.02,-413.44 138.1,-416.7 132.25,-407.86 128.02,-413.44"/>
</g>
<!-- Node3 -->
<g id="node3" class="node">
<title>Node3</title>
<g id="a_node3"><a xlink:href="bip39__provider__impl_8hpp.html" target="_top" xlink:title=" ">
<polygon fill="white" stroke="#666666" points="290,-382 166,-382 166,-352 290,-352 290,-382"/>
<text text-anchor="start" x="174" y="-370" font-family="Helvetica,sans-Serif" font-size="10.00">src/crypto/bip39/impl</text>
<text text-anchor="middle" x="228" y="-359" font-family="Helvetica,sans-Serif" font-size="10.00">/bip39_provider_impl.hpp</text>
</a>
</g>
</g>
<!-- Node1&#45;&gt;Node3 -->
<g id="edge2" class="edge">
<title>Node1&#45;&gt;Node3</title>
<path fill="none" stroke="#63b8ff" d="M171.67,-410.8C183.28,-401.98 197.67,-391.05 208.99,-382.44"/>
<polygon fill="#63b8ff" stroke="#63b8ff" points="169.75,-407.86 163.9,-416.7 173.98,-413.44 169.75,-407.86"/>
</g>
<!-- Node4 -->
<g id="node4" class="node">
<title>Node4</title>
<g id="a_node4"><a xlink:href="bip39__provider__impl_8cpp.html" target="_top" xlink:title=" ">
<polygon fill="white" stroke="#666666" points="159,-316 35,-316 35,-286 159,-286 159,-316"/>
<text text-anchor="start" x="43" y="-304" font-family="Helvetica,sans-Serif" font-size="10.00">src/crypto/bip39/impl</text>
<text text-anchor="middle" x="97" y="-293" font-family="Helvetica,sans-Serif" font-size="10.00">/bip39_provider_impl.cpp</text>
</a>
</g>
</g>
<!-- Node3&#45;&gt;Node4 -->
<g id="edge3" class="edge">
<title>Node3&#45;&gt;Node4</title>
<path fill="none" stroke="#63b8ff" d="M188.27,-346.59C168.31,-336.84 144.57,-325.24 126.3,-316.31"/>
<polygon fill="#63b8ff" stroke="#63b8ff" points="186.72,-349.73 197.24,-350.97 189.79,-343.44 186.72,-349.73"/>
</g>
<!-- Node5 -->
<g id="node5" class="node">
<title>Node5</title>
<g id="a_node5"><a xlink:href="extension__impl_8cpp.html" target="_top" xlink:title=" ">
<polygon fill="white" stroke="#666666" points="279,-316 177,-316 177,-286 279,-286 279,-316"/>
<text text-anchor="start" x="185" y="-304" font-family="Helvetica,sans-Serif" font-size="10.00">src/extensions/impl</text>
<text text-anchor="middle" x="228" y="-293" font-family="Helvetica,sans-Serif" font-size="10.00">/extension_impl.cpp</text>
</a>
</g>
</g>
<!-- Node3&#45;&gt;Node5 -->
<g id="edge4" class="edge">
<title>Node3&#45;&gt;Node5</title>
<path fill="none" stroke="#63b8ff" d="M228,-340.39C228,-332.13 228,-323.28 228,-316.16"/>
<polygon fill="#63b8ff" stroke="#63b8ff" points="224.5,-340.28 228,-350.28 231.5,-340.28 224.5,-340.28"/>
</g>
<!-- Node6 -->
<g id="node6" class="node">
<title>Node6</title>
<g id="a_node6"><a xlink:href="application__injector_8hpp.html" target="_top" xlink:title=" ">
<polygon fill="white" stroke="#666666" points="411,-316 297,-316 297,-286 411,-286 411,-316"/>
<text text-anchor="start" x="305" y="-304" font-family="Helvetica,sans-Serif" font-size="10.00">src/injector/application</text>
<text text-anchor="middle" x="354" y="-293" font-family="Helvetica,sans-Serif" font-size="10.00">_injector.hpp</text>
</a>
</g>
</g>
<!-- Node3&#45;&gt;Node6 -->
<g id="edge5" class="edge">
<title>Node3&#45;&gt;Node6</title>
<path fill="none" stroke="#63b8ff" d="M266.48,-346.45C285.62,-336.73 308.33,-325.2 325.82,-316.31"/>
<polygon fill="#63b8ff" stroke="#63b8ff" points="264.96,-343.3 257.63,-350.95 268.13,-349.54 264.96,-343.3"/>
</g>
<!-- Node7 -->
<g id="node7" class="node">
<title>Node7</title>
<g id="a_node7"><a xlink:href="application__injector_8cpp.html" target="_top" xlink:title=" ">
<polygon fill="white" stroke="#666666" points="245,-250 131,-250 131,-220 245,-220 245,-250"/>
<text text-anchor="start" x="139" y="-238" font-family="Helvetica,sans-Serif" font-size="10.00">src/injector/application</text>
<text text-anchor="middle" x="188" y="-227" font-family="Helvetica,sans-Serif" font-size="10.00">_injector.cpp</text>
</a>
</g>
</g>
<!-- Node6&#45;&gt;Node7 -->
<g id="edge6" class="edge">
<title>Node6&#45;&gt;Node7</title>
<path fill="none" stroke="#63b8ff" d="M306.12,-281.54C280.45,-271.64 249.29,-259.63 225.42,-250.43"/>
<polygon fill="#63b8ff" stroke="#63b8ff" points="304.74,-284.76 315.33,-285.09 307.26,-278.23 304.74,-284.76"/>
</g>
<!-- Node8 -->
<g id="node8" class="node">
<title>Node8</title>
<g id="a_node8"><a xlink:href="block__producing__node__injector_8hpp.html" target="_top" xlink:title=" ">
<polygon fill="white" stroke="#666666" points="550.5,-184 405.5,-184 405.5,-154 550.5,-154 550.5,-184"/>
<text text-anchor="start" x="413.5" y="-172" font-family="Helvetica,sans-Serif" font-size="10.00">src/injector/block</text>
<text text-anchor="middle" x="478" y="-161" font-family="Helvetica,sans-Serif" font-size="10.00">_producing_node_injector.hpp</text>
</a>
</g>
</g>
<!-- Node6&#45;&gt;Node8 -->
<g id="edge7" class="edge">
<title>Node6&#45;&gt;Node8</title>
<path fill="none" stroke="#63b8ff" d="M375.39,-277.57C400.86,-250.87 442.65,-207.06 464.19,-184.47"/>
<polygon fill="#63b8ff" stroke="#63b8ff" points="373.16,-274.84 368.79,-284.5 378.22,-279.68 373.16,-274.84"/>
</g>
<!-- Node13 -->
<g id="node13" class="node">
<title>Node13</title>
<g id="a_node13"><a xlink:href="syncing__node__injector_8hpp.html" target="_top" xlink:title=" ">
<polygon fill="white" stroke="#666666" points="364.5,-250 263.5,-250 263.5,-220 364.5,-220 364.5,-250"/>
<text text-anchor="start" x="271.5" y="-238" font-family="Helvetica,sans-Serif" font-size="10.00">src/injector/syncing</text>
<text text-anchor="middle" x="314" y="-227" font-family="Helvetica,sans-Serif" font-size="10.00">_node_injector.hpp</text>
</a>
</g>
</g>
<!-- Node6&#45;&gt;Node13 -->
<g id="edge12" class="edge">
<title>Node6&#45;&gt;Node13</title>
<path fill="none" stroke="#63b8ff" d="M339.07,-276.11C333.61,-267.38 327.61,-257.78 322.85,-250.16"/>
<polygon fill="#63b8ff" stroke="#63b8ff" points="336.05,-277.89 344.32,-284.51 341.99,-274.18 336.05,-277.89"/>
</g>
<!-- Node17 -->
<g id="node17" class="node">
<title>Node17</title>
<g id="a_node17"><a xlink:href="validating__node__injector_8hpp.html" target="_top" xlink:title=" ">
<polygon fill="white" stroke="#666666" points="574.5,-250 465.5,-250 465.5,-220 574.5,-220 574.5,-250"/>
<text text-anchor="start" x="473.5" y="-238" font-family="Helvetica,sans-Serif" font-size="10.00">src/injector/validating</text>
<text text-anchor="middle" x="520" y="-227" font-family="Helvetica,sans-Serif" font-size="10.00">_node_injector.hpp</text>
</a>
</g>
</g>
<!-- Node6&#45;&gt;Node17 -->
<g id="edge16" class="edge">
<title>Node6&#45;&gt;Node17</title>
<path fill="none" stroke="#63b8ff" d="M401.88,-281.54C427.55,-271.64 458.71,-259.63 482.58,-250.43"/>
<polygon fill="#63b8ff" stroke="#63b8ff" points="400.74,-278.23 392.67,-285.09 403.26,-284.76 400.74,-278.23"/>
</g>
<!-- Node9 -->
<g id="node9" class="node">
<title>Node9</title>
<g id="a_node9"><a xlink:href="block__producing__node__application_8hpp.html" target="_top" xlink:title=" ">
<polygon fill="white" stroke="#666666" points="681,-118 565,-118 565,-77 681,-77 681,-118"/>
<text text-anchor="start" x="573" y="-106" font-family="Helvetica,sans-Serif" font-size="10.00">src/application/impl</text>
<text text-anchor="start" x="573" y="-95" font-family="Helvetica,sans-Serif" font-size="10.00">/block_producing_node</text>
<text text-anchor="middle" x="623" y="-84" font-family="Helvetica,sans-Serif" font-size="10.00">_application.hpp</text>
</a>
</g>
</g>
<!-- Node8&#45;&gt;Node9 -->
<g id="edge8" class="edge">
<title>Node8&#45;&gt;Node9</title>
<path fill="none" stroke="#63b8ff" d="M518.23,-148.72C537.91,-139.28 561.59,-127.94 581.45,-118.42"/>
<polygon fill="#63b8ff" stroke="#63b8ff" points="516.91,-145.47 509.41,-152.95 519.94,-151.78 516.91,-145.47"/>
</g>
<!-- Node12 -->
<g id="node12" class="node">
<title>Node12</title>
<g id="a_node12"><a xlink:href="block__producing__node__injector_8cpp.html" target="_top" xlink:title=" ">
<polygon fill="white" stroke="#666666" points="546.5,-112.5 401.5,-112.5 401.5,-82.5 546.5,-82.5 546.5,-112.5"/>
<text text-anchor="start" x="409.5" y="-100.5" font-family="Helvetica,sans-Serif" font-size="10.00">src/injector/block</text>
<text text-anchor="middle" x="474" y="-89.5" font-family="Helvetica,sans-Serif" font-size="10.00">_producing_node_injector.cpp</text>
</a>
</g>
</g>
<!-- Node8&#45;&gt;Node12 -->
<g id="edge11" class="edge">
<title>Node8&#45;&gt;Node12</title>
<path fill="none" stroke="#63b8ff" d="M476.52,-142.26C475.95,-132.33 475.32,-121.36 474.83,-112.88"/>
<polygon fill="#63b8ff" stroke="#63b8ff" points="473.02,-142.31 477.08,-152.09 480,-141.9 473.02,-142.31"/>
</g>
<!-- Node10 -->
<g id="node10" class="node">
<title>Node10</title>
<g id="a_node10"><a xlink:href="app__delegate_8cpp.html" target="_top" xlink:title=" ">
<polygon fill="white" stroke="#666666" points="879,-30 763,-30 763,-11 879,-11 879,-30"/>
<text text-anchor="middle" x="821" y="-18" font-family="Helvetica,sans-Serif" font-size="10.00">node/app_delegate.cpp</text>
</a>
</g>
</g>
<!-- Node9&#45;&gt;Node10 -->
<g id="edge9" class="edge">
<title>Node9&#45;&gt;Node10</title>
<path fill="none" stroke="#63b8ff" d="M685.99,-72.64C723.89,-58.28 769.94,-40.84 797.28,-30.48"/>
<polygon fill="#63b8ff" stroke="#63b8ff" points="685.07,-69.25 676.96,-76.06 687.55,-75.79 685.07,-69.25"/>
</g>
<!-- Node11 -->
<g id="node11" class="node">
<title>Node11</title>
<g id="a_node11"><a xlink:href="block__producing__node__application_8cpp.html" target="_top" xlink:title=" ">
<polygon fill="white" stroke="#666666" points="681,-41 565,-41 565,0 681,0 681,-41"/>
<text text-anchor="start" x="573" y="-29" font-family="Helvetica,sans-Serif" font-size="10.00">src/application/impl</text>
<text text-anchor="start" x="573" y="-18" font-family="Helvetica,sans-Serif" font-size="10.00">/block_producing_node</text>
<text text-anchor="middle" x="623" y="-7" font-family="Helvetica,sans-Serif" font-size="10.00">_application.cpp</text>
</a>
</g>
</g>
<!-- Node9&#45;&gt;Node11 -->
<g id="edge10" class="edge">
<title>Node9&#45;&gt;Node11</title>
<path fill="none" stroke="#63b8ff" d="M623,-65.36C623,-57.24 623,-48.7 623,-41.33"/>
<polygon fill="#63b8ff" stroke="#63b8ff" points="619.5,-65.28 623,-75.28 626.5,-65.28 619.5,-65.28"/>
</g>
<!-- Node14 -->
<g id="node14" class="node">
<title>Node14</title>
<g id="a_node14"><a xlink:href="syncing__node__application_8hpp.html" target="_top" xlink:title=" ">
<polygon fill="white" stroke="#666666" points="387.5,-184 238.5,-184 238.5,-154 387.5,-154 387.5,-184"/>
<text text-anchor="start" x="246.5" y="-172" font-family="Helvetica,sans-Serif" font-size="10.00">src/application/impl</text>
<text text-anchor="middle" x="313" y="-161" font-family="Helvetica,sans-Serif" font-size="10.00">/syncing_node_application.hpp</text>
</a>
</g>
</g>
<!-- Node13&#45;&gt;Node14 -->
<g id="edge13" class="edge">
<title>Node13&#45;&gt;Node14</title>
<path fill="none" stroke="#63b8ff" d="M313.6,-208.39C313.47,-200.13 313.33,-191.28 313.22,-184.16"/>
<polygon fill="#63b8ff" stroke="#63b8ff" points="310.1,-208.34 313.75,-218.28 317.1,-208.23 310.1,-208.34"/>
</g>
<!-- Node16 -->
<g id="node16" class="node">
<title>Node16</title>
<g id="a_node16"><a xlink:href="syncing__node__injector_8cpp.html" target="_top" xlink:title=" ">
<polygon fill="white" stroke="#666666" points="220.5,-184 119.5,-184 119.5,-154 220.5,-154 220.5,-184"/>
<text text-anchor="start" x="127.5" y="-172" font-family="Helvetica,sans-Serif" font-size="10.00">src/injector/syncing</text>
<text text-anchor="middle" x="170" y="-161" font-family="Helvetica,sans-Serif" font-size="10.00">_node_injector.cpp</text>
</a>
</g>
</g>
<!-- Node13&#45;&gt;Node16 -->
<g id="edge15" class="edge">
<title>Node13&#45;&gt;Node16</title>
<path fill="none" stroke="#63b8ff" d="M271.23,-214.99C249.11,-205.16 222.57,-193.36 202.21,-184.31"/>
<polygon fill="#63b8ff" stroke="#63b8ff" points="269.74,-218.16 280.3,-219.02 272.58,-211.76 269.74,-218.16"/>
</g>
<!-- Node15 -->
<g id="node15" class="node">
<title>Node15</title>
<g id="a_node15"><a xlink:href="syncing__node__application_8cpp.html" target="_top" xlink:title=" ">
<polygon fill="white" stroke="#666666" points="383.5,-112.5 234.5,-112.5 234.5,-82.5 383.5,-82.5 383.5,-112.5"/>
<text text-anchor="start" x="242.5" y="-100.5" font-family="Helvetica,sans-Serif" font-size="10.00">src/application/impl</text>
<text text-anchor="middle" x="309" y="-89.5" font-family="Helvetica,sans-Serif" font-size="10.00">/syncing_node_application.cpp</text>
</a>
</g>
</g>
<!-- Node14&#45;&gt;Node15 -->
<g id="edge14" class="edge">
<title>Node14&#45;&gt;Node15</title>
<path fill="none" stroke="#63b8ff" d="M311.52,-142.26C310.95,-132.33 310.32,-121.36 309.83,-112.88"/>
<polygon fill="#63b8ff" stroke="#63b8ff" points="308.02,-142.31 312.08,-152.09 315,-141.9 308.02,-142.31"/>
</g>
<!-- Node17&#45;&gt;Node8 -->
<g id="edge20" class="edge">
<title>Node17&#45;&gt;Node8</title>
<path fill="none" stroke="#63b8ff" d="M504.51,-210.39C498.73,-201.59 492.35,-191.86 487.3,-184.16"/>
<polygon fill="#63b8ff" stroke="#63b8ff" points="501.44,-212.09 509.85,-218.53 507.29,-208.25 501.44,-212.09"/>
</g>
<!-- Node18 -->
<g id="node18" class="node">
<title>Node18</title>
<g id="a_node18"><a xlink:href="validating__node__application_8hpp.html" target="_top" xlink:title=" ">
<polygon fill="white" stroke="#666666" points="856.5,-184 699.5,-184 699.5,-154 856.5,-154 856.5,-184"/>
<text text-anchor="start" x="707.5" y="-172" font-family="Helvetica,sans-Serif" font-size="10.00">src/application/impl</text>
<text text-anchor="middle" x="778" y="-161" font-family="Helvetica,sans-Serif" font-size="10.00">/validating_node_application.hpp</text>
</a>
</g>
</g>
<!-- Node17&#45;&gt;Node18 -->
<g id="edge17" class="edge">
<title>Node17&#45;&gt;Node18</title>
<path fill="none" stroke="#63b8ff" d="M585.78,-217.68C627.12,-207.43 679.96,-194.32 719.78,-184.44"/>
<polygon fill="#63b8ff" stroke="#63b8ff" points="585.05,-214.26 576.18,-220.06 586.73,-221.05 585.05,-214.26"/>
</g>
<!-- Node20 -->
<g id="node20" class="node">
<title>Node20</title>
<g id="a_node20"><a xlink:href="validating__node__injector_8cpp.html" target="_top" xlink:title=" ">
<polygon fill="white" stroke="#666666" points="677.5,-184 568.5,-184 568.5,-154 677.5,-154 677.5,-184"/>
<text text-anchor="start" x="576.5" y="-172" font-family="Helvetica,sans-Serif" font-size="10.00">src/injector/validating</text>
<text text-anchor="middle" x="623" y="-161" font-family="Helvetica,sans-Serif" font-size="10.00">_node_injector.cpp</text>
</a>
</g>
</g>
<!-- Node17&#45;&gt;Node20 -->
<g id="edge21" class="edge">
<title>Node17&#45;&gt;Node20</title>
<path fill="none" stroke="#63b8ff" d="M552.77,-213.64C568.13,-204.09 586.06,-192.95 599.96,-184.31"/>
<polygon fill="#63b8ff" stroke="#63b8ff" points="551.05,-210.59 544.4,-218.84 554.74,-216.53 551.05,-210.59"/>
</g>
<!-- Node18&#45;&gt;Node10 -->
<g id="edge18" class="edge">
<title>Node18&#45;&gt;Node10</title>
<path fill="none" stroke="#63b8ff" d="M832.79,-148.43C845.96,-141 858.39,-131.07 866,-118 875.17,-102.25 872.09,-94.18 866,-77 859.2,-57.83 842.65,-40.44 831.62,-30.42"/>
<polygon fill="#63b8ff" stroke="#63b8ff" points="831.3,-145.26 824,-152.94 834.5,-151.49 831.3,-145.26"/>
</g>
<!-- Node19 -->
<g id="node19" class="node">
<title>Node19</title>
<g id="a_node19"><a xlink:href="validating__node__application_8cpp.html" target="_top" xlink:title=" ">
<polygon fill="white" stroke="#666666" points="856.5,-112.5 699.5,-112.5 699.5,-82.5 856.5,-82.5 856.5,-112.5"/>
<text text-anchor="start" x="707.5" y="-100.5" font-family="Helvetica,sans-Serif" font-size="10.00">src/application/impl</text>
<text text-anchor="middle" x="778" y="-89.5" font-family="Helvetica,sans-Serif" font-size="10.00">/validating_node_application.cpp</text>
</a>
</g>
</g>
<!-- Node18&#45;&gt;Node19 -->
<g id="edge19" class="edge">
<title>Node18&#45;&gt;Node19</title>
<path fill="none" stroke="#63b8ff" d="M778,-142.26C778,-132.33 778,-121.36 778,-112.88"/>
<polygon fill="#63b8ff" stroke="#63b8ff" points="774.5,-142.09 778,-152.09 781.5,-142.09 774.5,-142.09"/>
</g>
</g>
</svg>
