<?xml version="1.0" encoding="UTF-8" standalone="no"?>
<!DOCTYPE svg PUBLIC "-//W3C//DTD SVG 1.1//EN"
 "http://www.w3.org/Graphics/SVG/1.1/DTD/svg11.dtd">
<!-- Generated by graphviz version 7.0.5 (20221223.1930)
 -->
<!-- Title: src/runtime Pages: 1 -->
<svg width="767pt" height="196pt"
 viewBox="0.00 0.00 767.00 196.00" xmlns="http://www.w3.org/2000/svg" xmlns:xlink="http://www.w3.org/1999/xlink">
<g id="graph0" class="graph" transform="scale(1 1) rotate(0) translate(4 192)">
<title>src/runtime</title>
<g id="clust1" class="cluster">
<title>clusterdir_68267d1309a1af8e8297ef4c3efbcdba</title>
<g id="a_clust1"><a xlink:href="dir_68267d1309a1af8e8297ef4c3efbcdba.html" target="_top" xlink:title="src">
<polygon fill="#edf0f7" stroke="#404040" stroke-dasharray="5,2" points="8,-8 8,-180 751,-180 751,-8 8,-8"/>
<text text-anchor="middle" x="379.5" y="-168" font-family="Helvetica,sans-Serif" font-size="10.00">src</text>
</a>
</g>
</g>
<g id="clust2" class="cluster">
<title>clusterdir_bf9f26469d00835ba20ff8d80ee5a804</title>
<g id="a_clust2"><a xlink:href="dir_bf9f26469d00835ba20ff8d80ee5a804.html" target="_top">
<polygon fill="#edf0f7" stroke="#404040" stroke-width="2" points="16,-63 16,-153 219,-153 219,-63 16,-63"/>
</a>
</g>
</g>
<!-- dir_0af1587c8378955de40f48b4bd1869f0 -->
<g id="node1" class="node">
<title>dir_0af1587c8378955de40f48b4bd1869f0</title>
<g id="a_node1"><a xlink:href="dir_0af1587c8378955de40f48b4bd1869f0.html" target="_top" xlink:title="base">
<polygon fill="#a2b4d6" stroke="#404040" points="91,-35 53,-35 53,-16 91,-16 91,-35"/>
<text text-anchor="middle" x="72" y="-23" font-family="Helvetica,sans-Serif" font-size="10.00">base</text>
</a>
</g>
</g>
<!-- dir_40c73bf2095fd0473b1b85ccdcac2768 -->
<g id="node2" class="node">
<title>dir_40c73bf2095fd0473b1b85ccdcac2768</title>
<g id="a_node2"><a xlink:href="dir_40c73bf2095fd0473b1b85ccdcac2768.html" target="_top" xlink:title="extensions">
<polygon fill="#a2b4d6" stroke="red" points="661.5,-90 598.5,-90 598.5,-71 661.5,-71 661.5,-90"/>
<text text-anchor="middle" x="630" y="-78" font-family="Helvetica,sans-Serif" font-size="10.00">extensions</text>
</a>
</g>
</g>
<!-- dir_4261af1259721e3e39e0d2dd7354b511 -->
<g id="node3" class="node">
<title>dir_4261af1259721e3e39e0d2dd7354b511</title>
<g id="a_node3"><a xlink:href="dir_4261af1259721e3e39e0d2dd7354b511.html" target="_top" xlink:title="crypto">
<polygon fill="#a2b4d6" stroke="red" points="419.5,-90 376.5,-90 376.5,-71 419.5,-71 419.5,-90"/>
<text text-anchor="middle" x="398" y="-78" font-family="Helvetica,sans-Serif" font-size="10.00">crypto</text>
</a>
</g>
</g>
<!-- dir_452baf35e1d7639c9f2a5ece4ec85855 -->
<g id="node4" class="node">
<title>dir_452baf35e1d7639c9f2a5ece4ec85855</title>
<g id="a_node4"><a xlink:href="dir_452baf35e1d7639c9f2a5ece4ec85855.html" target="_top" xlink:title="storage">
<polygon fill="#a2b4d6" stroke="red" points="188.5,-35 139.5,-35 139.5,-16 188.5,-16 188.5,-35"/>
<text text-anchor="middle" x="164" y="-23" font-family="Helvetica,sans-Serif" font-size="10.00">storage</text>
</a>
</g>
</g>
<!-- dir_7be59ee8c4293a2ed5de3468b8a07cd9 -->
<g id="node5" class="node">
<title>dir_7be59ee8c4293a2ed5de3468b8a07cd9</title>
<g id="a_node5"><a xlink:href="dir_7be59ee8c4293a2ed5de3468b8a07cd9.html" target="_top" xlink:title="outcome">
<polygon fill="#a2b4d6" stroke="#404040" points="281,-90 227,-90 227,-71 281,-71 281,-90"/>
<text text-anchor="middle" x="254" y="-78" font-family="Helvetica,sans-Serif" font-size="10.00">outcome</text>
</a>
</g>
</g>
<!-- dir_844f6ab5c2ae79211596f3dcdd81adb7 -->
<g id="node6" class="node">
<title>dir_844f6ab5c2ae79211596f3dcdd81adb7</title>
<g id="a_node6"><a xlink:href="dir_844f6ab5c2ae79211596f3dcdd81adb7.html" target="_top" xlink:title="application">
<polygon fill="#a2b4d6" stroke="red" points="742.5,-90 679.5,-90 679.5,-71 742.5,-71 742.5,-90"/>
<text text-anchor="middle" x="711" y="-78" font-family="Helvetica,sans-Serif" font-size="10.00">application</text>
</a>
</g>
</g>
<!-- dir_bbf56bce9985720f86fc476f3812db24 -->
<g id="node7" class="node">
<title>dir_bbf56bce9985720f86fc476f3812db24</title>
<g id="a_node7"><a xlink:href="dir_bbf56bce9985720f86fc476f3812db24.html" target="_top" xlink:title="primitives">
<polygon fill="#a2b4d6" stroke="#404040" points="358.5,-90 299.5,-90 299.5,-71 358.5,-71 358.5,-90"/>
<text text-anchor="middle" x="329" y="-78" font-family="Helvetica,sans-Serif" font-size="10.00">primitives</text>
</a>
</g>
</g>
<!-- dir_028cfb450258cb26cf2de4f75f6778d5 -->
<g id="node8" class="node">
<title>dir_028cfb450258cb26cf2de4f75f6778d5</title>
<g id="a_node8"><a xlink:href="dir_028cfb450258cb26cf2de4f75f6778d5.html" target="_top" xlink:title="blockchain">
<polygon fill="#a2b4d6" stroke="red" points="521.5,-90 458.5,-90 458.5,-71 521.5,-71 521.5,-90"/>
<text text-anchor="middle" x="490" y="-78" font-family="Helvetica,sans-Serif" font-size="10.00">blockchain</text>
</a>
</g>
</g>
<!-- dir_e3ad572831d545eb552494b95f9c029d -->
<g id="node9" class="node">
<title>dir_e3ad572831d545eb552494b95f9c029d</title>
<g id="a_node9"><a xlink:href="dir_e3ad572831d545eb552494b95f9c029d.html" target="_top" xlink:title="scale">
<polygon fill="#a2b4d6" stroke="red" points="580,-90 540,-90 540,-71 580,-71 580,-90"/>
<text text-anchor="middle" x="560" y="-78" font-family="Helvetica,sans-Serif" font-size="10.00">scale</text>
</a>
</g>
</g>
<!-- dir_bf9f26469d00835ba20ff8d80ee5a804 -->
<g id="node10" class="node">
<title>dir_bf9f26469d00835ba20ff8d80ee5a804</title>
<text text-anchor="middle" x="49" y="-133" font-family="Helvetica,sans-Serif" font-size="10.00">runtime</text>
</g>
<!-- dir_bf9f26469d00835ba20ff8d80ee5a804&#45;&gt;dir_0af1587c8378955de40f48b4bd1869f0 -->
<g id="edge1" class="edge">
<title>dir_bf9f26469d00835ba20ff8d80ee5a804&#45;&gt;dir_0af1587c8378955de40f48b4bd1869f0</title>
<path fill="none" stroke="#63b8ff" d="M50.8,-126.03C54.43,-109 62.69,-70.22 67.76,-46.41"/>
<polygon fill="#63b8ff" stroke="#63b8ff" points="71.16,-47.23 69.82,-36.72 64.32,-45.77 71.16,-47.23"/>
<g id="a_edge1&#45;headlabel"><a xlink:href="dir_000070_000006.html" target="_top" xlink:title="19">
<text text-anchor="middle" x="73.51" y="-47.35" font-family="Helvetica,sans-Serif" font-size="10.00" fill="#63b8ff">19</text>
</a>
</g>
</g>
<!-- dir_bf9f26469d00835ba20ff8d80ee5a804&#45;&gt;dir_452baf35e1d7639c9f2a5ece4ec85855 -->
<g id="edge2" class="edge">
<title>dir_bf9f26469d00835ba20ff8d80ee5a804&#45;&gt;dir_452baf35e1d7639c9f2a5ece4ec85855</title>
<path fill="none" stroke="#63b8ff" d="M73.08,-127.3C100.74,-118.53 143.64,-103.26 154,-90 163.47,-77.87 165.64,-60.38 165.63,-46.82"/>
<polygon fill="#63b8ff" stroke="#63b8ff" points="169.12,-46.68 165.18,-36.85 162.13,-47 169.12,-46.68"/>
<g id="a_edge2&#45;headlabel"><a xlink:href="dir_000070_000080.html" target="_top" xlink:title="6">
<text text-anchor="middle" x="172.05" y="-46.13" font-family="Helvetica,sans-Serif" font-size="10.00" fill="#63b8ff">6</text>
</a>
</g>
</g>
<!-- dir_bf9f26469d00835ba20ff8d80ee5a804&#45;&gt;dir_7be59ee8c4293a2ed5de3468b8a07cd9 -->
<g id="edge3" class="edge">
<title>dir_bf9f26469d00835ba20ff8d80ee5a804&#45;&gt;dir_7be59ee8c4293a2ed5de3468b8a07cd9</title>
<path fill="none" stroke="#63b8ff" d="M73.24,-128.44C104.73,-120.54 161.68,-106.15 215.54,-91.96"/>
<polygon fill="#63b8ff" stroke="#63b8ff" points="216.38,-95.36 225.16,-89.42 214.6,-88.59 216.38,-95.36"/>
<g id="a_edge3&#45;headlabel"><a xlink:href="dir_000070_000058.html" target="_top" xlink:title="10">
<text text-anchor="middle" x="215.1" y="-96.14" font-family="Helvetica,sans-Serif" font-size="10.00" fill="#63b8ff">10</text>
</a>
</g>
</g>
<!-- dir_bf9f26469d00835ba20ff8d80ee5a804&#45;&gt;dir_bbf56bce9985720f86fc476f3812db24 -->
<g id="edge4" class="edge">
<title>dir_bf9f26469d00835ba20ff8d80ee5a804&#45;&gt;dir_bbf56bce9985720f86fc476f3812db24</title>
<path fill="none" stroke="#63b8ff" d="M73.46,-128.16C76.66,-127.39 79.9,-126.66 83,-126 170.88,-107.4 196.43,-107.88 288.02,-90.3"/>
<polygon fill="#63b8ff" stroke="#63b8ff" points="288.58,-93.76 297.73,-88.42 287.25,-86.89 288.58,-93.76"/>
<g id="a_edge4&#45;headlabel"><a xlink:href="dir_000070_000061.html" target="_top" xlink:title="27">
<text text-anchor="middle" x="287.08" y="-94.44" font-family="Helvetica,sans-Serif" font-size="10.00" fill="#63b8ff">27</text>
</a>
</g>
</g>
<!-- dir_44958365c35f3f985315b67acf2c9cfa -->
<g id="node11" class="node">
<title>dir_44958365c35f3f985315b67acf2c9cfa</title>
<g id="a_node11"><a xlink:href="dir_44958365c35f3f985315b67acf2c9cfa.html" target="_top" xlink:title="binaryen">
<polygon fill="#a2b4d6" stroke="#404040" points="144.5,-145 91.5,-145 91.5,-126 144.5,-126 144.5,-145"/>
<text text-anchor="middle" x="118" y="-133" font-family="Helvetica,sans-Serif" font-size="10.00">binaryen</text>
</a>
</g>
</g>
<!-- dir_44958365c35f3f985315b67acf2c9cfa&#45;&gt;dir_0af1587c8378955de40f48b4bd1869f0 -->
<g id="edge5" class="edge">
<title>dir_44958365c35f3f985315b67acf2c9cfa&#45;&gt;dir_0af1587c8378955de40f48b4bd1869f0</title>
<path fill="none" stroke="#63b8ff" d="M108.37,-125.6C99.98,-117.25 88.21,-103.98 82,-90 75.88,-76.23 73.44,-59.33 72.49,-46.42"/>
<polygon fill="#63b8ff" stroke="#63b8ff" points="75.99,-46.45 72.03,-36.62 69,-46.78 75.99,-46.45"/>
<g id="a_edge5&#45;headlabel"><a xlink:href="dir_000007_000006.html" target="_top" xlink:title="13">
<text text-anchor="middle" x="78.93" y="-45.9" font-family="Helvetica,sans-Serif" font-size="10.00" fill="#63b8ff">13</text>
</a>
</g>
</g>
<!-- dir_44958365c35f3f985315b67acf2c9cfa&#45;&gt;dir_40c73bf2095fd0473b1b85ccdcac2768 -->
<g id="edge6" class="edge">
<title>dir_44958365c35f3f985315b67acf2c9cfa&#45;&gt;dir_40c73bf2095fd0473b1b85ccdcac2768</title>
<path fill="none" stroke="#63b8ff" d="M144.65,-127.74C147.79,-127.08 150.96,-126.48 154,-126 341.95,-96.2 394.99,-116.92 586.95,-90.09"/>
<polygon fill="#63b8ff" stroke="#63b8ff" points="587.38,-93.56 596.79,-88.69 586.39,-86.63 587.38,-93.56"/>
<g id="a_edge6&#45;headlabel"><a xlink:href="dir_000007_000022.html" target="_top" xlink:title="3">
<text text-anchor="middle" x="585.72" y="-94.17" font-family="Helvetica,sans-Serif" font-size="10.00" fill="#63b8ff">3</text>
</a>
</g>
</g>
<!-- dir_44958365c35f3f985315b67acf2c9cfa&#45;&gt;dir_4261af1259721e3e39e0d2dd7354b511 -->
<g id="edge7" class="edge">
<title>dir_44958365c35f3f985315b67acf2c9cfa&#45;&gt;dir_4261af1259721e3e39e0d2dd7354b511</title>
<path fill="none" stroke="#63b8ff" d="M144.69,-127.99C147.82,-127.29 150.98,-126.61 154,-126 245.03,-107.62 271.93,-110.89 365.05,-90.47"/>
<polygon fill="#63b8ff" stroke="#63b8ff" points="365.64,-93.92 374.64,-88.33 364.12,-87.09 365.64,-93.92"/>
<g id="a_edge7&#45;headlabel"><a xlink:href="dir_000007_000017.html" target="_top" xlink:title="3">
<text text-anchor="middle" x="364.23" y="-94.65" font-family="Helvetica,sans-Serif" font-size="10.00" fill="#63b8ff">3</text>
</a>
</g>
</g>
<!-- dir_44958365c35f3f985315b67acf2c9cfa&#45;&gt;dir_452baf35e1d7639c9f2a5ece4ec85855 -->
<g id="edge8" class="edge">
<title>dir_44958365c35f3f985315b67acf2c9cfa&#45;&gt;dir_452baf35e1d7639c9f2a5ece4ec85855</title>
<path fill="none" stroke="#63b8ff" d="M144.67,-127.88C147.81,-127.2 150.97,-126.55 154,-126 214.63,-114.9 388.35,-136.32 429,-90 436.92,-80.98 436.89,-72.05 429,-63 399.77,-29.47 265.88,-25.68 200.35,-25.9"/>
<polygon fill="#63b8ff" stroke="#63b8ff" points="200.43,-22.4 190.46,-25.97 200.48,-29.4 200.43,-22.4"/>
<g id="a_edge8&#45;headlabel"><a xlink:href="dir_000007_000080.html" target="_top" xlink:title="3">
<text text-anchor="middle" x="202.5" y="-17.05" font-family="Helvetica,sans-Serif" font-size="10.00" fill="#63b8ff">3</text>
</a>
</g>
</g>
<!-- dir_44958365c35f3f985315b67acf2c9cfa&#45;&gt;dir_7be59ee8c4293a2ed5de3468b8a07cd9 -->
<g id="edge9" class="edge">
<title>dir_44958365c35f3f985315b67acf2c9cfa&#45;&gt;dir_7be59ee8c4293a2ed5de3468b8a07cd9</title>
<path fill="none" stroke="#63b8ff" d="M141.07,-125.51C162.89,-117.01 195.88,-104.15 220.58,-94.53"/>
<polygon fill="#63b8ff" stroke="#63b8ff" points="221.81,-97.8 229.86,-90.91 219.27,-91.28 221.81,-97.8"/>
<g id="a_edge9&#45;headlabel"><a xlink:href="dir_000007_000058.html" target="_top" xlink:title="3">
<text text-anchor="middle" x="220.91" y="-98.7" font-family="Helvetica,sans-Serif" font-size="10.00" fill="#63b8ff">3</text>
</a>
</g>
</g>
<!-- dir_44958365c35f3f985315b67acf2c9cfa&#45;&gt;dir_bbf56bce9985720f86fc476f3812db24 -->
<g id="edge12" class="edge">
<title>dir_44958365c35f3f985315b67acf2c9cfa&#45;&gt;dir_bbf56bce9985720f86fc476f3812db24</title>
<path fill="none" stroke="#63b8ff" d="M144.72,-127.79C180.89,-118.7 245.74,-102.41 288.06,-91.78"/>
<polygon fill="#63b8ff" stroke="#63b8ff" points="288.78,-95.21 297.63,-89.38 287.08,-88.42 288.78,-95.21"/>
<g id="a_edge12&#45;headlabel"><a xlink:href="dir_000007_000061.html" target="_top" xlink:title="1">
<text text-anchor="middle" x="287.46" y="-95.97" font-family="Helvetica,sans-Serif" font-size="10.00" fill="#63b8ff">1</text>
</a>
</g>
</g>
<!-- dir_44958365c35f3f985315b67acf2c9cfa&#45;&gt;dir_028cfb450258cb26cf2de4f75f6778d5 -->
<g id="edge11" class="edge">
<title>dir_44958365c35f3f985315b67acf2c9cfa&#45;&gt;dir_028cfb450258cb26cf2de4f75f6778d5</title>
<path fill="none" stroke="#63b8ff" d="M144.67,-127.86C147.8,-127.18 150.97,-126.54 154,-126 281.83,-103.04 315.64,-109.81 444,-90 445.02,-89.84 446.05,-89.68 447.09,-89.51"/>
<polygon fill="#63b8ff" stroke="#63b8ff" points="447.6,-92.98 456.88,-87.85 446.43,-86.07 447.6,-92.98"/>
<g id="a_edge11&#45;headlabel"><a xlink:href="dir_000007_000010.html" target="_top" xlink:title="1">
<text text-anchor="middle" x="446.03" y="-93.62" font-family="Helvetica,sans-Serif" font-size="10.00" fill="#63b8ff">1</text>
</a>
</g>
</g>
<!-- dir_44958365c35f3f985315b67acf2c9cfa&#45;&gt;dir_e3ad572831d545eb552494b95f9c029d -->
<g id="edge13" class="edge">
<title>dir_44958365c35f3f985315b67acf2c9cfa&#45;&gt;dir_e3ad572831d545eb552494b95f9c029d</title>
<path fill="none" stroke="#63b8ff" d="M144.65,-127.78C147.79,-127.11 150.96,-126.5 154,-126 316.5,-99.19 363.7,-120.84 528.5,-90.12"/>
<polygon fill="#63b8ff" stroke="#63b8ff" points="528.87,-93.62 538.04,-88.31 527.56,-86.74 528.87,-93.62"/>
<g id="a_edge13&#45;headlabel"><a xlink:href="dir_000007_000072.html" target="_top" xlink:title="1">
<text text-anchor="middle" x="527.35" y="-94.3" font-family="Helvetica,sans-Serif" font-size="10.00" fill="#63b8ff">1</text>
</a>
</g>
</g>
<!-- dir_395f0e28b55cbd9fd75290c88db061f9 -->
<g id="node12" class="node">
<title>dir_395f0e28b55cbd9fd75290c88db061f9</title>
<g id="a_node12"><a xlink:href="dir_395f0e28b55cbd9fd75290c88db061f9.html" target="_top" xlink:title="common">
<polygon fill="#a2b4d6" stroke="#404040" points="145,-90 91,-90 91,-71 145,-71 145,-90"/>
<text text-anchor="middle" x="118" y="-78" font-family="Helvetica,sans-Serif" font-size="10.00">common</text>
</a>
</g>
</g>
<!-- dir_44958365c35f3f985315b67acf2c9cfa&#45;&gt;dir_395f0e28b55cbd9fd75290c88db061f9 -->
<g id="edge10" class="edge">
<title>dir_44958365c35f3f985315b67acf2c9cfa&#45;&gt;dir_395f0e28b55cbd9fd75290c88db061f9</title>
<path fill="none" stroke="#63b8ff" d="M118,-125.75C118,-119.27 118,-110.16 118,-101.9"/>
<polygon fill="#63b8ff" stroke="#63b8ff" points="121.5,-101.96 118,-91.96 114.5,-101.96 121.5,-101.96"/>
<g id="a_edge10&#45;headlabel"><a xlink:href="dir_000007_000014.html" target="_top" xlink:title="1">
<text text-anchor="middle" x="124.34" y="-101.54" font-family="Helvetica,sans-Serif" font-size="10.00" fill="#63b8ff">1</text>
</a>
</g>
</g>
<!-- dir_395f0e28b55cbd9fd75290c88db061f9&#45;&gt;dir_0af1587c8378955de40f48b4bd1869f0 -->
<g id="edge14" class="edge">
<title>dir_395f0e28b55cbd9fd75290c88db061f9&#45;&gt;dir_0af1587c8378955de40f48b4bd1869f0</title>
<path fill="none" stroke="#63b8ff" d="M110.4,-70.75C104.12,-63.5 94.99,-52.98 87.2,-44.02"/>
<polygon fill="#63b8ff" stroke="#63b8ff" points="89.95,-41.84 80.75,-36.59 84.66,-46.43 89.95,-41.84"/>
<g id="a_edge14&#45;headlabel"><a xlink:href="dir_000014_000006.html" target="_top" xlink:title="1">
<text text-anchor="middle" x="93.46" y="-39.05" font-family="Helvetica,sans-Serif" font-size="10.00" fill="#63b8ff">1</text>
</a>
</g>
</g>
<!-- dir_395f0e28b55cbd9fd75290c88db061f9&#45;&gt;dir_452baf35e1d7639c9f2a5ece4ec85855 -->
<g id="edge15" class="edge">
<title>dir_395f0e28b55cbd9fd75290c88db061f9&#45;&gt;dir_452baf35e1d7639c9f2a5ece4ec85855</title>
<path fill="none" stroke="#63b8ff" d="M125.6,-70.75C131.88,-63.5 141.01,-52.98 148.8,-44.02"/>
<polygon fill="#63b8ff" stroke="#63b8ff" points="151.34,-46.43 155.25,-36.59 146.05,-41.84 151.34,-46.43"/>
<g id="a_edge15&#45;headlabel"><a xlink:href="dir_000014_000080.html" target="_top" xlink:title="2">
<text text-anchor="middle" x="152.12" y="-47.36" font-family="Helvetica,sans-Serif" font-size="10.00" fill="#63b8ff">2</text>
</a>
</g>
</g>
<!-- dir_5d90716f0df58d57cb5f51974505d33f -->
<g id="node13" class="node">
<title>dir_5d90716f0df58d57cb5f51974505d33f</title>
<g id="a_node13"><a xlink:href="dir_5d90716f0df58d57cb5f51974505d33f.html" target="_top" xlink:title="dummy">
<polygon fill="#a2b4d6" stroke="#404040" points="211,-145 163,-145 163,-126 211,-126 211,-145"/>
<text text-anchor="middle" x="187" y="-133" font-family="Helvetica,sans-Serif" font-size="10.00">dummy</text>
</a>
</g>
</g>
<!-- dir_5d90716f0df58d57cb5f51974505d33f&#45;&gt;dir_844f6ab5c2ae79211596f3dcdd81adb7 -->
<g id="edge16" class="edge">
<title>dir_5d90716f0df58d57cb5f51974505d33f&#45;&gt;dir_844f6ab5c2ae79211596f3dcdd81adb7</title>
<path fill="none" stroke="#63b8ff" d="M211.3,-133.28C280.89,-129.57 487.11,-117.1 667.87,-90.31"/>
<polygon fill="#63b8ff" stroke="#63b8ff" points="668.32,-93.79 677.69,-88.84 667.28,-86.86 668.32,-93.79"/>
<g id="a_edge16&#45;headlabel"><a xlink:href="dir_000020_000002.html" target="_top" xlink:title="1">
<text text-anchor="middle" x="666.68" y="-94.4" font-family="Helvetica,sans-Serif" font-size="10.00" fill="#63b8ff">1</text>
</a>
</g>
</g>
</g>
</svg>
