<?xml version="1.0" encoding="UTF-8" standalone="no"?>
<!DOCTYPE svg PUBLIC "-//W3C//DTD SVG 1.1//EN"
 "http://www.w3.org/Graphics/SVG/1.1/DTD/svg11.dtd">
<!-- Generated by graphviz version 7.0.5 (20221223.1930)
 -->
<!-- Title: src/api/service/author Pages: 1 -->
<!--zoomable 180 -->
<svg id="main" version="1.1" xmlns="http://www.w3.org/2000/svg" xmlns:xlink="http://www.w3.org/1999/xlink" xml:space="preserve" onload="init(evt)">
<style type="text/css"><![CDATA[
.edge:hover path { stroke: red; }
.edge:hover polygon { stroke: red; fill: red; }
]]></style>
<script type="text/javascript"><![CDATA[
var edges = document.getElementsByTagName('g');
if (edges && edges.length) {
  for (var i=0;i<edges.length;i++) {
    if (edges[i].id.substr(0,4)=='edge') {
      edges[i].setAttribute('class','edge');
    }
  }
}
]]></script>
        <defs>
                <circle id="rim" cx="0" cy="0" r="7"/>
                <circle id="rim2" cx="0" cy="0" r="3.5"/>
                <g id="zoomPlus">
                        <use xlink:href="#rim" fill="#404040">
                                <set attributeName="fill" to="#808080" begin="zoomplus.mouseover" end="zoomplus.mouseout"/>
                        </use>
                        <path d="M-4,0h8M0,-4v8" fill="none" stroke="white" stroke-width="1.5" pointer-events="none"/>
                </g>
                <g id="zoomMin">
                        <use xlink:href="#rim" fill="#404040">
                                <set attributeName="fill" to="#808080" begin="zoomminus.mouseover" end="zoomminus.mouseout"/>
                        </use>
                        <path d="M-4,0h8" fill="none" stroke="white" stroke-width="1.5" pointer-events="none"/>
                </g>
                <g id="dirArrow">
                        <path fill="none" stroke="white" stroke-width="1.5" d="M0,-3.0v7 M-2.5,-0.5L0,-3.0L2.5,-0.5"/>
                </g>
               <g id="resetDef">
                       <use xlink:href="#rim2" fill="#404040">
                               <set attributeName="fill" to="#808080" begin="reset.mouseover" end="reset.mouseout"/>
                       </use>
               </g>
        </defs>

<script type="text/javascript">
var viewWidth = 790;
var viewHeight = 180;
var sectionId = 'dynsection-0';
</script>
<script xlink:href="svgpan.js"/>
<svg id="graph" class="graph">
<g id="viewport">
<title>src/api/service/author</title>
<g id="clust1" class="cluster">
<title>clusterdir_c932be5467edd5e1d4bd27ec4a2b99ad</title>
<g id="a_clust1"><a xlink:href="dir_c932be5467edd5e1d4bd27ec4a2b99ad.html" target="_top" xlink:title="service">
<polygon fill="#edf0f7" stroke="#7f7f7f" stroke-dasharray="5,2" points="98,-39 98,-164 228,-164 228,-39 98,-39"/>
<text text-anchor="middle" x="163" y="-152" font-family="Helvetica,sans-Serif" font-size="10.00">service</text>
</a>
</g>
</g>
<g id="clust2" class="cluster">
<title>clusterdir_003c825bc488c457fd0a8ec90afdd3e7</title>
<g id="a_clust2"><a xlink:href="dir_003c825bc488c457fd0a8ec90afdd3e7.html" target="_top">
<polygon fill="#edf0f7" stroke="#404040" stroke-width="2" points="106,-47 106,-137 220,-137 220,-47 106,-47"/>
</a>
</g>
</g>
<!-- dir_003c825bc488c457fd0a8ec90afdd3e7 -->
<g id="node1" class="node">
<title>dir_003c825bc488c457fd0a8ec90afdd3e7</title>
<text text-anchor="middle" x="136" y="-117" font-family="Helvetica,sans-Serif" font-size="10.00">author</text>
</g>
<!-- dir_1dd7ab23593f6474c96aef36518f173e -->
<g id="node3" class="node">
<title>dir_1dd7ab23593f6474c96aef36518f173e</title>
<g id="a_node3"><a xlink:href="dir_1dd7ab23593f6474c96aef36518f173e.html" target="_top" xlink:title="requests">
<polygon fill="#a2b4d6" stroke="#404040" points="180,-74 126,-74 126,-55 180,-55 180,-74"/>
<text text-anchor="middle" x="153" y="-62" font-family="Helvetica,sans-Serif" font-size="10.00">requests</text>
</a>
</g>
</g>
<!-- dir_003c825bc488c457fd0a8ec90afdd3e7&#45;&gt;dir_1dd7ab23593f6474c96aef36518f173e -->
<g id="edge3" class="edge">
<title>dir_003c825bc488c457fd0a8ec90afdd3e7&#45;&gt;dir_1dd7ab23593f6474c96aef36518f173e</title>
<path fill="none" stroke="#63b8ff" d="M138.66,-110.22C140.81,-103.49 143.94,-93.73 146.73,-85.05"/>
<polygon fill="#63b8ff" stroke="#63b8ff" points="150.01,-86.28 149.73,-75.69 143.34,-84.15 150.01,-86.28"/>
<g id="a_edge3&#45;headlabel"><a xlink:href="dir_000003_000065.html" target="_top" xlink:title="2">
<text text-anchor="middle" x="152.08" y="-86.63" font-family="Helvetica,sans-Serif" font-size="10.00" fill="#63b8ff">2</text>
</a>
</g>
</g>
<!-- dir_08914cf7c1b1eb878b9474a0520eaa5b -->
<g id="node4" class="node">
<title>dir_08914cf7c1b1eb878b9474a0520eaa5b</title>
<g id="a_node4"><a xlink:href="dir_08914cf7c1b1eb878b9474a0520eaa5b.html" target="_top" xlink:title="jrpc">
<polygon fill="#edf0f7" stroke="#7f7f7f" points="32,-74 0,-74 0,-55 32,-55 32,-74"/>
<text text-anchor="middle" x="16" y="-62" font-family="Helvetica,sans-Serif" font-size="10.00">jrpc</text>
</a>
</g>
</g>
<!-- dir_003c825bc488c457fd0a8ec90afdd3e7&#45;&gt;dir_08914cf7c1b1eb878b9474a0520eaa5b -->
<g id="edge1" class="edge">
<title>dir_003c825bc488c457fd0a8ec90afdd3e7&#45;&gt;dir_08914cf7c1b1eb878b9474a0520eaa5b</title>
<path fill="none" stroke="#63b8ff" d="M116.99,-110.1C96.88,-101.22 65.01,-87.15 42.46,-77.19"/>
<polygon fill="#63b8ff" stroke="#63b8ff" points="44.18,-74.12 33.62,-73.28 41.35,-80.52 44.18,-74.12"/>
<g id="a_edge1&#45;headlabel"><a xlink:href="dir_000003_000052.html" target="_top" xlink:title="4">
<text text-anchor="middle" x="47.23" y="-69.86" font-family="Helvetica,sans-Serif" font-size="10.00" fill="#63b8ff">4</text>
</a>
</g>
</g>
<!-- dir_0af1587c8378955de40f48b4bd1869f0 -->
<g id="node5" class="node">
<title>dir_0af1587c8378955de40f48b4bd1869f0</title>
<g id="a_node5"><a xlink:href="dir_0af1587c8378955de40f48b4bd1869f0.html" target="_top" xlink:title="base">
<polygon fill="#edf0f7" stroke="#7f7f7f" points="115,-19 77,-19 77,0 115,0 115,-19"/>
<text text-anchor="middle" x="96" y="-7" font-family="Helvetica,sans-Serif" font-size="10.00">base</text>
</a>
</g>
</g>
<!-- dir_003c825bc488c457fd0a8ec90afdd3e7&#45;&gt;dir_0af1587c8378955de40f48b4bd1869f0 -->
<g id="edge2" class="edge">
<title>dir_003c825bc488c457fd0a8ec90afdd3e7&#45;&gt;dir_0af1587c8378955de40f48b4bd1869f0</title>
<path fill="none" stroke="#63b8ff" d="M120.47,-110.26C108.03,-102.69 91.45,-90.19 84,-74 77.53,-59.96 81.51,-42.63 86.55,-29.63"/>
<polygon fill="#63b8ff" stroke="#63b8ff" points="89.75,-31.06 90.61,-20.5 83.35,-28.22 89.75,-31.06"/>
<g id="a_edge2&#45;headlabel"><a xlink:href="dir_000003_000006.html" target="_top" xlink:title="4">
<text text-anchor="middle" x="91.5" y="-31.61" font-family="Helvetica,sans-Serif" font-size="10.00" fill="#63b8ff">4</text>
</a>
</g>
</g>
<!-- dir_bbf56bce9985720f86fc476f3812db24 -->
<g id="node6" class="node">
<title>dir_bbf56bce9985720f86fc476f3812db24</title>
<g id="a_node6"><a xlink:href="dir_bbf56bce9985720f86fc476f3812db24.html" target="_top" xlink:title="primitives">
<polygon fill="#edf0f7" stroke="#7f7f7f" points="250.5,-19 191.5,-19 191.5,0 250.5,0 250.5,-19"/>
<text text-anchor="middle" x="221" y="-7" font-family="Helvetica,sans-Serif" font-size="10.00">primitives</text>
</a>
</g>
</g>
<!-- dir_003c825bc488c457fd0a8ec90afdd3e7&#45;&gt;dir_bbf56bce9985720f86fc476f3812db24 -->
<g id="edge4" class="edge">
<title>dir_003c825bc488c457fd0a8ec90afdd3e7&#45;&gt;dir_bbf56bce9985720f86fc476f3812db24</title>
<path fill="none" stroke="#63b8ff" d="M148.62,-110.16C160.23,-102.01 177.37,-88.7 189,-74 199.67,-60.52 208.2,-42.93 213.76,-29.67"/>
<polygon fill="#63b8ff" stroke="#63b8ff" points="216.86,-31.35 217.3,-20.77 210.35,-28.76 216.86,-31.35"/>
<g id="a_edge4&#45;headlabel"><a xlink:href="dir_000003_000061.html" target="_top" xlink:title="6">
<text text-anchor="middle" x="218.73" y="-31.83" font-family="Helvetica,sans-Serif" font-size="10.00" fill="#63b8ff">6</text>
</a>
</g>
</g>
<!-- dir_97f7587690561767bb0dfdeb7077744f -->
<g id="node2" class="node">
<title>dir_97f7587690561767bb0dfdeb7077744f</title>
<g id="a_node2"><a xlink:href="dir_97f7587690561767bb0dfdeb7077744f.html" target="_top" xlink:title="impl">
<polygon fill="#a2b4d6" stroke="#404040" points="211.5,-129 176.5,-129 176.5,-110 211.5,-110 211.5,-129"/>
<text text-anchor="middle" x="194" y="-117" font-family="Helvetica,sans-Serif" font-size="10.00">impl</text>
</a>
</g>
</g>
<!-- dir_97f7587690561767bb0dfdeb7077744f&#45;&gt;dir_0af1587c8378955de40f48b4bd1869f0 -->
<g id="edge6" class="edge">
<title>dir_97f7587690561767bb0dfdeb7077744f&#45;&gt;dir_0af1587c8378955de40f48b4bd1869f0</title>
<path fill="none" stroke="#63b8ff" d="M176.21,-112.5C158.77,-105.75 132.59,-93.16 117,-74 106.79,-61.45 101.47,-43.75 98.75,-30.22"/>
<polygon fill="#63b8ff" stroke="#63b8ff" points="102.26,-30.02 97.16,-20.73 95.36,-31.17 102.26,-30.02"/>
<g id="a_edge6&#45;headlabel"><a xlink:href="dir_000030_000006.html" target="_top" xlink:title="2">
<text text-anchor="middle" x="105.4" y="-29.1" font-family="Helvetica,sans-Serif" font-size="10.00" fill="#63b8ff">2</text>
</a>
</g>
</g>
<!-- dir_97f7587690561767bb0dfdeb7077744f&#45;&gt;dir_bbf56bce9985720f86fc476f3812db24 -->
<g id="edge11" class="edge">
<title>dir_97f7587690561767bb0dfdeb7077744f&#45;&gt;dir_bbf56bce9985720f86fc476f3812db24</title>
<path fill="none" stroke="#63b8ff" d="M211.63,-116.52C235.28,-112.81 276.47,-102.41 295,-74 303.5,-60.97 303.8,-51.82 295,-39 287.35,-27.85 274.67,-21.06 261.96,-16.93"/>
<polygon fill="#63b8ff" stroke="#63b8ff" points="262.92,-13.56 252.36,-14.33 261.1,-20.32 262.92,-13.56"/>
<g id="a_edge11&#45;headlabel"><a xlink:href="dir_000030_000061.html" target="_top" xlink:title="1">
<text text-anchor="middle" x="265.67" y="-8.87" font-family="Helvetica,sans-Serif" font-size="10.00" fill="#63b8ff">1</text>
</a>
</g>
</g>
<!-- dir_fc4c7f03e1a69a98c370fae55a743828 -->
<g id="node7" class="node">
<title>dir_fc4c7f03e1a69a98c370fae55a743828</title>
<g id="a_node7"><a xlink:href="dir_fc4c7f03e1a69a98c370fae55a743828.html" target="_top" xlink:title="network">
<polygon fill="#edf0f7" stroke="red" stroke-dasharray="5,2" points="393.5,-74 342.5,-74 342.5,-55 393.5,-55 393.5,-74"/>
<text text-anchor="middle" x="368" y="-62" font-family="Helvetica,sans-Serif" font-size="10.00">network</text>
</a>
</g>
</g>
<!-- dir_97f7587690561767bb0dfdeb7077744f&#45;&gt;dir_fc4c7f03e1a69a98c370fae55a743828 -->
<g id="edge13" class="edge">
<title>dir_97f7587690561767bb0dfdeb7077744f&#45;&gt;dir_fc4c7f03e1a69a98c370fae55a743828</title>
<path fill="none" stroke="#63b8ff" d="M211.97,-113.03C240.06,-104.47 294.95,-87.75 331.56,-76.6"/>
<polygon fill="#63b8ff" stroke="#63b8ff" points="332.29,-80.04 340.83,-73.78 330.25,-73.34 332.29,-80.04"/>
<g id="a_edge13&#45;headlabel"><a xlink:href="dir_000030_000056.html" target="_top" xlink:title="2">
<text text-anchor="middle" x="331.12" y="-80.86" font-family="Helvetica,sans-Serif" font-size="10.00" fill="#63b8ff">2</text>
</a>
</g>
</g>
<!-- dir_bf9f26469d00835ba20ff8d80ee5a804 -->
<g id="node8" class="node">
<title>dir_bf9f26469d00835ba20ff8d80ee5a804</title>
<g id="a_node8"><a xlink:href="dir_bf9f26469d00835ba20ff8d80ee5a804.html" target="_top" xlink:title="runtime">
<polygon fill="#edf0f7" stroke="red" stroke-dasharray="5,2" points="460.5,-74 411.5,-74 411.5,-55 460.5,-55 460.5,-74"/>
<text text-anchor="middle" x="436" y="-62" font-family="Helvetica,sans-Serif" font-size="10.00">runtime</text>
</a>
</g>
</g>
<!-- dir_97f7587690561767bb0dfdeb7077744f&#45;&gt;dir_bf9f26469d00835ba20ff8d80ee5a804 -->
<g id="edge12" class="edge">
<title>dir_97f7587690561767bb0dfdeb7077744f&#45;&gt;dir_bf9f26469d00835ba20ff8d80ee5a804</title>
<path fill="none" stroke="#63b8ff" d="M211.95,-114.94C246.48,-108.05 324.77,-92.14 400.08,-74.62"/>
<polygon fill="#63b8ff" stroke="#63b8ff" points="400.75,-78.05 409.69,-72.36 399.15,-71.24 400.75,-78.05"/>
<g id="a_edge12&#45;headlabel"><a xlink:href="dir_000030_000070.html" target="_top" xlink:title="1">
<text text-anchor="middle" x="399.37" y="-78.79" font-family="Helvetica,sans-Serif" font-size="10.00" fill="#63b8ff">1</text>
</a>
</g>
</g>
<!-- dir_71cb0491f54dfad4ef07747199758048 -->
<g id="node9" class="node">
<title>dir_71cb0491f54dfad4ef07747199758048</title>
<g id="a_node9"><a xlink:href="dir_71cb0491f54dfad4ef07747199758048.html" target="_top" xlink:title="transaction_pool">
<polygon fill="#edf0f7" stroke="red" stroke-dasharray="5,2" points="567,-74 479,-74 479,-55 567,-55 567,-74"/>
<text text-anchor="middle" x="523" y="-62" font-family="Helvetica,sans-Serif" font-size="10.00">transaction_pool</text>
</a>
</g>
</g>
<!-- dir_97f7587690561767bb0dfdeb7077744f&#45;&gt;dir_71cb0491f54dfad4ef07747199758048 -->
<g id="edge9" class="edge">
<title>dir_97f7587690561767bb0dfdeb7077744f&#45;&gt;dir_71cb0491f54dfad4ef07747199758048</title>
<path fill="none" stroke="#63b8ff" d="M211.69,-115.65C259.23,-107.99 391.31,-86.71 467.28,-74.48"/>
<polygon fill="#63b8ff" stroke="#63b8ff" points="467.71,-77.95 477.02,-72.91 466.59,-71.04 467.71,-77.95"/>
<g id="a_edge9&#45;headlabel"><a xlink:href="dir_000030_000084.html" target="_top" xlink:title="1">
<text text-anchor="middle" x="466.1" y="-78.59" font-family="Helvetica,sans-Serif" font-size="10.00" fill="#63b8ff">1</text>
</a>
</g>
</g>
<!-- dir_028cfb450258cb26cf2de4f75f6778d5 -->
<g id="node10" class="node">
<title>dir_028cfb450258cb26cf2de4f75f6778d5</title>
<g id="a_node10"><a xlink:href="dir_028cfb450258cb26cf2de4f75f6778d5.html" target="_top" xlink:title="blockchain">
<polygon fill="#edf0f7" stroke="red" stroke-dasharray="5,2" points="648.5,-74 585.5,-74 585.5,-55 648.5,-55 648.5,-74"/>
<text text-anchor="middle" x="617" y="-62" font-family="Helvetica,sans-Serif" font-size="10.00">blockchain</text>
</a>
</g>
</g>
<!-- dir_97f7587690561767bb0dfdeb7077744f&#45;&gt;dir_028cfb450258cb26cf2de4f75f6778d5 -->
<g id="edge5" class="edge">
<title>dir_97f7587690561767bb0dfdeb7077744f&#45;&gt;dir_028cfb450258cb26cf2de4f75f6778d5</title>
<path fill="none" stroke="#63b8ff" d="M211.98,-116.98C265.4,-112.33 428.05,-97.31 573.9,-74.19"/>
<polygon fill="#63b8ff" stroke="#63b8ff" points="574.45,-77.65 583.77,-72.61 573.34,-70.74 574.45,-77.65"/>
<g id="a_edge5&#45;headlabel"><a xlink:href="dir_000030_000010.html" target="_top" xlink:title="1">
<text text-anchor="middle" x="572.85" y="-78.28" font-family="Helvetica,sans-Serif" font-size="10.00" fill="#63b8ff">1</text>
</a>
</g>
</g>
<!-- dir_4261af1259721e3e39e0d2dd7354b511 -->
<g id="node11" class="node">
<title>dir_4261af1259721e3e39e0d2dd7354b511</title>
<g id="a_node11"><a xlink:href="dir_4261af1259721e3e39e0d2dd7354b511.html" target="_top" xlink:title="crypto">
<polygon fill="#edf0f7" stroke="red" stroke-dasharray="5,2" points="709.5,-74 666.5,-74 666.5,-55 709.5,-55 709.5,-74"/>
<text text-anchor="middle" x="688" y="-62" font-family="Helvetica,sans-Serif" font-size="10.00">crypto</text>
</a>
</g>
</g>
<!-- dir_97f7587690561767bb0dfdeb7077744f&#45;&gt;dir_4261af1259721e3e39e0d2dd7354b511 -->
<g id="edge7" class="edge">
<title>dir_97f7587690561767bb0dfdeb7077744f&#45;&gt;dir_4261af1259721e3e39e0d2dd7354b511</title>
<path fill="none" stroke="#63b8ff" d="M211.86,-117.95C272.71,-115.82 477.57,-106.69 655.04,-74.25"/>
<polygon fill="#63b8ff" stroke="#63b8ff" points="655.48,-77.73 664.67,-72.46 654.19,-70.85 655.48,-77.73"/>
<g id="a_edge7&#45;headlabel"><a xlink:href="dir_000030_000017.html" target="_top" xlink:title="1">
<text text-anchor="middle" x="653.95" y="-78.4" font-family="Helvetica,sans-Serif" font-size="10.00" fill="#63b8ff">1</text>
</a>
</g>
</g>
<!-- dir_7be59ee8c4293a2ed5de3468b8a07cd9 -->
<g id="node12" class="node">
<title>dir_7be59ee8c4293a2ed5de3468b8a07cd9</title>
<g id="a_node12"><a xlink:href="dir_7be59ee8c4293a2ed5de3468b8a07cd9.html" target="_top" xlink:title="outcome">
<polygon fill="#edf0f7" stroke="#7f7f7f" points="782,-74 728,-74 728,-55 782,-55 782,-74"/>
<text text-anchor="middle" x="755" y="-62" font-family="Helvetica,sans-Serif" font-size="10.00">outcome</text>
</a>
</g>
</g>
<!-- dir_97f7587690561767bb0dfdeb7077744f&#45;&gt;dir_7be59ee8c4293a2ed5de3468b8a07cd9 -->
<g id="edge10" class="edge">
<title>dir_97f7587690561767bb0dfdeb7077744f&#45;&gt;dir_7be59ee8c4293a2ed5de3468b8a07cd9</title>
<path fill="none" stroke="#63b8ff" d="M211.79,-117.94C277.51,-115.68 512.91,-105.85 716.37,-74.19"/>
<polygon fill="#63b8ff" stroke="#63b8ff" points="716.74,-77.67 726.07,-72.65 715.65,-70.76 716.74,-77.67"/>
<g id="a_edge10&#45;headlabel"><a xlink:href="dir_000030_000058.html" target="_top" xlink:title="1">
<text text-anchor="middle" x="715.13" y="-78.3" font-family="Helvetica,sans-Serif" font-size="10.00" fill="#63b8ff">1</text>
</a>
</g>
</g>
<!-- dir_452baf35e1d7639c9f2a5ece4ec85855 -->
<g id="node13" class="node">
<title>dir_452baf35e1d7639c9f2a5ece4ec85855</title>
<g id="a_node13"><a xlink:href="dir_452baf35e1d7639c9f2a5ece4ec85855.html" target="_top" xlink:title="storage">
<polygon fill="#edf0f7" stroke="red" stroke-dasharray="5,2" points="285.5,-74 236.5,-74 236.5,-55 285.5,-55 285.5,-74"/>
<text text-anchor="middle" x="261" y="-62" font-family="Helvetica,sans-Serif" font-size="10.00">storage</text>
</a>
</g>
</g>
<!-- dir_97f7587690561767bb0dfdeb7077744f&#45;&gt;dir_452baf35e1d7639c9f2a5ece4ec85855 -->
<g id="edge8" class="edge">
<title>dir_97f7587690561767bb0dfdeb7077744f&#45;&gt;dir_452baf35e1d7639c9f2a5ece4ec85855</title>
<path fill="none" stroke="#63b8ff" d="M205.37,-109.51C215.05,-101.85 229.2,-90.66 240.81,-81.47"/>
<polygon fill="#63b8ff" stroke="#63b8ff" points="242.94,-84.25 248.62,-75.3 238.6,-78.76 242.94,-84.25"/>
<g id="a_edge8&#45;headlabel"><a xlink:href="dir_000030_000080.html" target="_top" xlink:title="1">
<text text-anchor="middle" x="243.07" y="-85.26" font-family="Helvetica,sans-Serif" font-size="10.00" fill="#63b8ff">1</text>
</a>
</g>
</g>
<!-- dir_1dd7ab23593f6474c96aef36518f173e&#45;&gt;dir_0af1587c8378955de40f48b4bd1869f0 -->
<g id="edge14" class="edge">
<title>dir_1dd7ab23593f6474c96aef36518f173e&#45;&gt;dir_0af1587c8378955de40f48b4bd1869f0</title>
<path fill="none" stroke="#63b8ff" d="M143.33,-54.51C135.26,-47 123.53,-36.1 113.78,-27.03"/>
<polygon fill="#63b8ff" stroke="#63b8ff" points="116.34,-24.63 106.63,-20.39 111.57,-29.76 116.34,-24.63"/>
<g id="a_edge14&#45;headlabel"><a xlink:href="dir_000065_000006.html" target="_top" xlink:title="1">
<text text-anchor="middle" x="119.8" y="-21.47" font-family="Helvetica,sans-Serif" font-size="10.00" fill="#63b8ff">1</text>
</a>
</g>
</g>
<!-- dir_1dd7ab23593f6474c96aef36518f173e&#45;&gt;dir_bbf56bce9985720f86fc476f3812db24 -->
<g id="edge15" class="edge">
<title>dir_1dd7ab23593f6474c96aef36518f173e&#45;&gt;dir_bbf56bce9985720f86fc476f3812db24</title>
<path fill="none" stroke="#63b8ff" d="M164.54,-54.51C174.46,-46.77 189.01,-35.43 200.86,-26.2"/>
<polygon fill="#63b8ff" stroke="#63b8ff" points="202.71,-29.2 208.44,-20.29 198.4,-23.68 202.71,-29.2"/>
<g id="a_edge15&#45;headlabel"><a xlink:href="dir_000065_000061.html" target="_top" xlink:title="3">
<text text-anchor="middle" x="202.81" y="-30.22" font-family="Helvetica,sans-Serif" font-size="10.00" fill="#63b8ff">3</text>
</a>
</g>
</g>
<!-- dir_e3ad572831d545eb552494b95f9c029d -->
<g id="node14" class="node">
<title>dir_e3ad572831d545eb552494b95f9c029d</title>
<g id="a_node14"><a xlink:href="dir_e3ad572831d545eb552494b95f9c029d.html" target="_top" xlink:title="scale">
<polygon fill="#edf0f7" stroke="red" stroke-dasharray="5,2" points="173,-19 133,-19 133,0 173,0 173,-19"/>
<text text-anchor="middle" x="153" y="-7" font-family="Helvetica,sans-Serif" font-size="10.00">scale</text>
</a>
</g>
</g>
<!-- dir_1dd7ab23593f6474c96aef36518f173e&#45;&gt;dir_e3ad572831d545eb552494b95f9c029d -->
<g id="edge16" class="edge">
<title>dir_1dd7ab23593f6474c96aef36518f173e&#45;&gt;dir_e3ad572831d545eb552494b95f9c029d</title>
<path fill="none" stroke="#63b8ff" d="M153,-54.75C153,-48.27 153,-39.16 153,-30.9"/>
<polygon fill="#63b8ff" stroke="#63b8ff" points="156.5,-30.96 153,-20.96 149.5,-30.96 156.5,-30.96"/>
<g id="a_edge16&#45;headlabel"><a xlink:href="dir_000065_000072.html" target="_top" xlink:title="1">
<text text-anchor="middle" x="159.34" y="-30.54" font-family="Helvetica,sans-Serif" font-size="10.00" fill="#63b8ff">1</text>
</a>
</g>
</g>
</g>
</svg>
        <g id="navigator" transform="translate(0 0)" fill="#404254">
                <rect fill="#f2f5e9" fill-opacity="0.5" stroke="#606060" stroke-width=".5" x="0" y="0" width="60" height="60"/>
                <use id="zoomplus" xlink:href="#zoomPlus" x="17" y="9" onmousedown="handleZoom(evt,'in')"/>
                <use id="zoomminus" xlink:href="#zoomMin" x="42" y="9" onmousedown="handleZoom(evt,'out')"/>
                <use id="reset" xlink:href="#resetDef" x="30" y="36" onmousedown="handleReset()"/>
                <g id="arrowUp" xlink:href="#dirArrow" transform="translate(30 24)" onmousedown="handlePan(0,-1)">
                  <use xlink:href="#rim" fill="#404040">
                        <set attributeName="fill" to="#808080" begin="arrowUp.mouseover" end="arrowUp.mouseout"/>
                  </use>
                  <path fill="none" stroke="white" stroke-width="1.5" d="M0,-3.0v7 M-2.5,-0.5L0,-3.0L2.5,-0.5"/>
                </g>
                <g id="arrowRight" xlink:href="#dirArrow" transform="rotate(90) translate(36 -43)" onmousedown="handlePan(1,0)">
                  <use xlink:href="#rim" fill="#404040">
                        <set attributeName="fill" to="#808080" begin="arrowRight.mouseover" end="arrowRight.mouseout"/>
                  </use>
                  <path fill="none" stroke="white" stroke-width="1.5" d="M0,-3.0v7 M-2.5,-0.5L0,-3.0L2.5,-0.5"/>
                </g>
                <g id="arrowDown" xlink:href="#dirArrow" transform="rotate(180) translate(-30 -48)" onmousedown="handlePan(0,1)">
                  <use xlink:href="#rim" fill="#404040">
                        <set attributeName="fill" to="#808080" begin="arrowDown.mouseover" end="arrowDown.mouseout"/>
                  </use>
                  <path fill="none" stroke="white" stroke-width="1.5" d="M0,-3.0v7 M-2.5,-0.5L0,-3.0L2.5,-0.5"/>
                </g>
                <g id="arrowLeft" xlink:href="#dirArrow" transform="rotate(270) translate(-36 17)" onmousedown="handlePan(-1,0)">
                  <use xlink:href="#rim" fill="#404040">
                        <set attributeName="fill" to="#808080" begin="arrowLeft.mouseover" end="arrowLeft.mouseout"/>
                  </use>
                  <path fill="none" stroke="white" stroke-width="1.5" d="M0,-3.0v7 M-2.5,-0.5L0,-3.0L2.5,-0.5"/>
                </g>
        </g>
        <svg viewBox="0 0 15 15" width="100%" height="30px" preserveAspectRatio="xMaxYMin meet">
         <g id="arrow_out" transform="scale(0.3 0.3)">
          <a xlink:href="dir_003c825bc488c457fd0a8ec90afdd3e7_dep_org.svg" target="_base">
           <rect id="button" ry="5" rx="5" y="6" x="6" height="38" width="38"
                fill="#f2f5e9" fill-opacity="0.5" stroke="#606060" stroke-width="1.0"/>
           <path id="arrow"
             d="M 11.500037,31.436501 C 11.940474,20.09759 22.043105,11.32322 32.158766,21.979434 L 37.068811,17.246167 C 37.068811,17.246167 37.088388,32 37.088388,32 L 22.160133,31.978069 C 22.160133,31.978069 26.997745,27.140456 26.997745,27.140456 C 18.528582,18.264221 13.291696,25.230495 11.500037,31.436501 z"
             style="fill:#404040;"/>
          </a>
         </g>
        </svg>
</svg>
