<?xml version="1.0" encoding="UTF-8" standalone="no"?>
<!DOCTYPE svg PUBLIC "-//W3C//DTD SVG 1.1//EN"
 "http://www.w3.org/Graphics/SVG/1.1/DTD/svg11.dtd">
<!-- Generated by graphviz version 7.0.5 (20221223.1930)
 -->
<!-- Title: src/blockchain/impl Pages: 1 -->
<svg width="559pt" height="117pt"
 viewBox="0.00 0.00 558.50 117.00" xmlns="http://www.w3.org/2000/svg" xmlns:xlink="http://www.w3.org/1999/xlink">
<g id="graph0" class="graph" transform="scale(1 1) rotate(0) translate(4 113)">
<title>src/blockchain/impl</title>
<g id="clust1" class="cluster">
<title>clusterdir_028cfb450258cb26cf2de4f75f6778d5</title>
<g id="a_clust1"><a xlink:href="dir_028cfb450258cb26cf2de4f75f6778d5.html" target="_top" xlink:title="blockchain">
<polygon fill="#edf0f7" stroke="#7f7f7f" stroke-dasharray="5,2" points="242,-47 242,-101 305,-101 305,-47 242,-47"/>
<text text-anchor="middle" x="273.5" y="-89" font-family="Helvetica,sans-Serif" font-size="10.00">blockchain</text>
</a>
</g>
</g>
<!-- dir_5e61800ccbec81520cf7316f0ec1438e -->
<g id="node1" class="node">
<title>dir_5e61800ccbec81520cf7316f0ec1438e</title>
<g id="a_node1"><a xlink:href="dir_5e61800ccbec81520cf7316f0ec1438e.html" target="_top" xlink:title="impl">
<polygon fill="#edf0f7" stroke="#404040" stroke-width="2" points="290.5,-74 255.5,-74 255.5,-55 290.5,-55 290.5,-74"/>
<text text-anchor="middle" x="273" y="-62" font-family="Helvetica,sans-Serif" font-size="10.00">impl</text>
</a>
</g>
</g>
<!-- dir_0af1587c8378955de40f48b4bd1869f0 -->
<g id="node2" class="node">
<title>dir_0af1587c8378955de40f48b4bd1869f0</title>
<g id="a_node2"><a xlink:href="dir_0af1587c8378955de40f48b4bd1869f0.html" target="_top" xlink:title="base">
<polygon fill="#edf0f7" stroke="#7f7f7f" points="38,-19 0,-19 0,0 38,0 38,-19"/>
<text text-anchor="middle" x="19" y="-7" font-family="Helvetica,sans-Serif" font-size="10.00">base</text>
</a>
</g>
</g>
<!-- dir_5e61800ccbec81520cf7316f0ec1438e&#45;&gt;dir_0af1587c8378955de40f48b4bd1869f0 -->
<g id="edge1" class="edge">
<title>dir_5e61800ccbec81520cf7316f0ec1438e&#45;&gt;dir_0af1587c8378955de40f48b4bd1869f0</title>
<path fill="none" stroke="#63b8ff" d="M255.28,-60.63C218.65,-54.58 131.73,-39.54 49.28,-19.36"/>
<polygon fill="#63b8ff" stroke="#63b8ff" points="50.23,-15.99 39.68,-16.97 48.54,-22.78 50.23,-15.99"/>
<g id="a_edge1&#45;headlabel"><a xlink:href="dir_000037_000006.html" target="_top" xlink:title="8">
<text text-anchor="middle" x="52.93" y="-11.23" font-family="Helvetica,sans-Serif" font-size="10.00" fill="#63b8ff">8</text>
</a>
</g>
</g>
<!-- dir_4261af1259721e3e39e0d2dd7354b511 -->
<g id="node3" class="node">
<title>dir_4261af1259721e3e39e0d2dd7354b511</title>
<g id="a_node3"><a xlink:href="dir_4261af1259721e3e39e0d2dd7354b511.html" target="_top" xlink:title="crypto">
<polygon fill="#edf0f7" stroke="red" stroke-dasharray="5,2" points="99.5,-19 56.5,-19 56.5,0 99.5,0 99.5,-19"/>
<text text-anchor="middle" x="78" y="-7" font-family="Helvetica,sans-Serif" font-size="10.00">crypto</text>
</a>
</g>
</g>
<!-- dir_5e61800ccbec81520cf7316f0ec1438e&#45;&gt;dir_4261af1259721e3e39e0d2dd7354b511 -->
<g id="edge2" class="edge">
<title>dir_5e61800ccbec81520cf7316f0ec1438e&#45;&gt;dir_4261af1259721e3e39e0d2dd7354b511</title>
<path fill="none" stroke="#63b8ff" d="M255.16,-58.77C226.64,-51.19 168.79,-35.74 110.77,-19.74"/>
<polygon fill="#63b8ff" stroke="#63b8ff" points="111.98,-16.45 101.4,-17.16 110.11,-23.19 111.98,-16.45"/>
<g id="a_edge2&#45;headlabel"><a xlink:href="dir_000037_000017.html" target="_top" xlink:title="4">
<text text-anchor="middle" x="114.74" y="-11.76" font-family="Helvetica,sans-Serif" font-size="10.00" fill="#63b8ff">4</text>
</a>
</g>
</g>
<!-- dir_452baf35e1d7639c9f2a5ece4ec85855 -->
<g id="node4" class="node">
<title>dir_452baf35e1d7639c9f2a5ece4ec85855</title>
<g id="a_node4"><a xlink:href="dir_452baf35e1d7639c9f2a5ece4ec85855.html" target="_top" xlink:title="storage">
<polygon fill="#edf0f7" stroke="red" stroke-dasharray="5,2" points="166.5,-19 117.5,-19 117.5,0 166.5,0 166.5,-19"/>
<text text-anchor="middle" x="142" y="-7" font-family="Helvetica,sans-Serif" font-size="10.00">storage</text>
</a>
</g>
</g>
<!-- dir_5e61800ccbec81520cf7316f0ec1438e&#45;&gt;dir_452baf35e1d7639c9f2a5ece4ec85855 -->
<g id="edge3" class="edge">
<title>dir_5e61800ccbec81520cf7316f0ec1438e&#45;&gt;dir_452baf35e1d7639c9f2a5ece4ec85855</title>
<path fill="none" stroke="#63b8ff" d="M255.06,-56.24C234.43,-47.89 200.14,-34.02 174.72,-23.74"/>
<polygon fill="#63b8ff" stroke="#63b8ff" points="176.08,-20.51 165.49,-20.01 173.45,-27 176.08,-20.51"/>
<g id="a_edge3&#45;headlabel"><a xlink:href="dir_000037_000080.html" target="_top" xlink:title="9">
<text text-anchor="middle" x="179.07" y="-16.16" font-family="Helvetica,sans-Serif" font-size="10.00" fill="#63b8ff">9</text>
</a>
</g>
</g>
<!-- dir_71cb0491f54dfad4ef07747199758048 -->
<g id="node5" class="node">
<title>dir_71cb0491f54dfad4ef07747199758048</title>
<g id="a_node5"><a xlink:href="dir_71cb0491f54dfad4ef07747199758048.html" target="_top" xlink:title="transaction_pool">
<polygon fill="#edf0f7" stroke="red" stroke-dasharray="5,2" points="273,-19 185,-19 185,0 273,0 273,-19"/>
<text text-anchor="middle" x="229" y="-7" font-family="Helvetica,sans-Serif" font-size="10.00">transaction_pool</text>
</a>
</g>
</g>
<!-- dir_5e61800ccbec81520cf7316f0ec1438e&#45;&gt;dir_71cb0491f54dfad4ef07747199758048 -->
<g id="edge4" class="edge">
<title>dir_5e61800ccbec81520cf7316f0ec1438e&#45;&gt;dir_71cb0491f54dfad4ef07747199758048</title>
<path fill="none" stroke="#63b8ff" d="M265.73,-54.75C259.72,-47.5 250.99,-36.98 243.54,-28.02"/>
<polygon fill="#63b8ff" stroke="#63b8ff" points="246.47,-26.07 237.39,-20.61 241.08,-30.54 246.47,-26.07"/>
<g id="a_edge4&#45;headlabel"><a xlink:href="dir_000037_000084.html" target="_top" xlink:title="1">
<text text-anchor="middle" x="249.98" y="-23.35" font-family="Helvetica,sans-Serif" font-size="10.00" fill="#63b8ff">1</text>
</a>
</g>
</g>
<!-- dir_7be59ee8c4293a2ed5de3468b8a07cd9 -->
<g id="node6" class="node">
<title>dir_7be59ee8c4293a2ed5de3468b8a07cd9</title>
<g id="a_node6"><a xlink:href="dir_7be59ee8c4293a2ed5de3468b8a07cd9.html" target="_top" xlink:title="outcome">
<polygon fill="#edf0f7" stroke="#7f7f7f" points="345,-19 291,-19 291,0 345,0 345,-19"/>
<text text-anchor="middle" x="318" y="-7" font-family="Helvetica,sans-Serif" font-size="10.00">outcome</text>
</a>
</g>
</g>
<!-- dir_5e61800ccbec81520cf7316f0ec1438e&#45;&gt;dir_7be59ee8c4293a2ed5de3468b8a07cd9 -->
<g id="edge5" class="edge">
<title>dir_5e61800ccbec81520cf7316f0ec1438e&#45;&gt;dir_7be59ee8c4293a2ed5de3468b8a07cd9</title>
<path fill="none" stroke="#63b8ff" d="M280.43,-54.75C286.58,-47.5 295.51,-36.98 303.13,-28.02"/>
<polygon fill="#63b8ff" stroke="#63b8ff" points="305.62,-30.48 309.43,-20.6 300.29,-25.95 305.62,-30.48"/>
<g id="a_edge5&#45;headlabel"><a xlink:href="dir_000037_000058.html" target="_top" xlink:title="1">
<text text-anchor="middle" x="306.44" y="-31.41" font-family="Helvetica,sans-Serif" font-size="10.00" fill="#63b8ff">1</text>
</a>
</g>
</g>
<!-- dir_bbf56bce9985720f86fc476f3812db24 -->
<g id="node7" class="node">
<title>dir_bbf56bce9985720f86fc476f3812db24</title>
<g id="a_node7"><a xlink:href="dir_bbf56bce9985720f86fc476f3812db24.html" target="_top" xlink:title="primitives">
<polygon fill="#edf0f7" stroke="#7f7f7f" points="422.5,-19 363.5,-19 363.5,0 422.5,0 422.5,-19"/>
<text text-anchor="middle" x="393" y="-7" font-family="Helvetica,sans-Serif" font-size="10.00">primitives</text>
</a>
</g>
</g>
<!-- dir_5e61800ccbec81520cf7316f0ec1438e&#45;&gt;dir_bbf56bce9985720f86fc476f3812db24 -->
<g id="edge6" class="edge">
<title>dir_5e61800ccbec81520cf7316f0ec1438e&#45;&gt;dir_bbf56bce9985720f86fc476f3812db24</title>
<path fill="none" stroke="#63b8ff" d="M290.97,-55.57C309.84,-47.23 339.88,-33.96 362.49,-23.98"/>
<polygon fill="#63b8ff" stroke="#63b8ff" points="363.79,-27.23 371.52,-19.99 360.96,-20.82 363.79,-27.23"/>
<g id="a_edge6&#45;headlabel"><a xlink:href="dir_000037_000061.html" target="_top" xlink:title="3">
<text text-anchor="middle" x="363.03" y="-28.17" font-family="Helvetica,sans-Serif" font-size="10.00" fill="#63b8ff">3</text>
</a>
</g>
</g>
<!-- dir_e3ad572831d545eb552494b95f9c029d -->
<g id="node8" class="node">
<title>dir_e3ad572831d545eb552494b95f9c029d</title>
<g id="a_node8"><a xlink:href="dir_e3ad572831d545eb552494b95f9c029d.html" target="_top" xlink:title="scale">
<polygon fill="#edf0f7" stroke="red" stroke-dasharray="5,2" points="481,-19 441,-19 441,0 481,0 481,-19"/>
<text text-anchor="middle" x="461" y="-7" font-family="Helvetica,sans-Serif" font-size="10.00">scale</text>
</a>
</g>
</g>
<!-- dir_5e61800ccbec81520cf7316f0ec1438e&#45;&gt;dir_e3ad572831d545eb552494b95f9c029d -->
<g id="edge7" class="edge">
<title>dir_5e61800ccbec81520cf7316f0ec1438e&#45;&gt;dir_e3ad572831d545eb552494b95f9c029d</title>
<path fill="none" stroke="#63b8ff" d="M290.67,-58.63C318.26,-51.01 373.51,-35.69 429.83,-19.6"/>
<polygon fill="#63b8ff" stroke="#63b8ff" points="430.62,-23.01 439.27,-16.89 428.7,-16.28 430.62,-23.01"/>
<g id="a_edge7&#45;headlabel"><a xlink:href="dir_000037_000072.html" target="_top" xlink:title="3">
<text text-anchor="middle" x="429.4" y="-23.81" font-family="Helvetica,sans-Serif" font-size="10.00" fill="#63b8ff">3</text>
</a>
</g>
</g>
<!-- dir_fc4c7f03e1a69a98c370fae55a743828 -->
<g id="node9" class="node">
<title>dir_fc4c7f03e1a69a98c370fae55a743828</title>
<g id="a_node9"><a xlink:href="dir_fc4c7f03e1a69a98c370fae55a743828.html" target="_top" xlink:title="network">
<polygon fill="#edf0f7" stroke="red" stroke-dasharray="5,2" points="550.5,-19 499.5,-19 499.5,0 550.5,0 550.5,-19"/>
<text text-anchor="middle" x="525" y="-7" font-family="Helvetica,sans-Serif" font-size="10.00">network</text>
</a>
</g>
</g>
<!-- dir_5e61800ccbec81520cf7316f0ec1438e&#45;&gt;dir_fc4c7f03e1a69a98c370fae55a743828 -->
<g id="edge8" class="edge">
<title>dir_5e61800ccbec81520cf7316f0ec1438e&#45;&gt;dir_fc4c7f03e1a69a98c370fae55a743828</title>
<path fill="none" stroke="#63b8ff" d="M290.77,-60.08C326.2,-53.22 408.42,-37.05 487.85,-19.41"/>
<polygon fill="#63b8ff" stroke="#63b8ff" points="488.56,-22.84 497.55,-17.25 487.03,-16.01 488.56,-22.84"/>
<g id="a_edge8&#45;headlabel"><a xlink:href="dir_000037_000056.html" target="_top" xlink:title="1">
<text text-anchor="middle" x="487.14" y="-23.57" font-family="Helvetica,sans-Serif" font-size="10.00" fill="#63b8ff">1</text>
</a>
</g>
</g>
</g>
</svg>
