<?xml version="1.0" encoding="UTF-8" standalone="no"?>
<!DOCTYPE svg PUBLIC "-//W3C//DTD SVG 1.1//EN"
 "http://www.w3.org/Graphics/SVG/1.1/DTD/svg11.dtd">
<!-- Generated by graphviz version 7.0.5 (20221223.1930)
 -->
<!-- Title: src/transaction_pool/impl Pages: 1 -->
<svg width="335pt" height="117pt"
 viewBox="0.00 0.00 335.00 117.00" xmlns="http://www.w3.org/2000/svg" xmlns:xlink="http://www.w3.org/1999/xlink">
<g id="graph0" class="graph" transform="scale(1 1) rotate(0) translate(4 113)">
<title>src/transaction_pool/impl</title>
<g id="clust1" class="cluster">
<title>clusterdir_71cb0491f54dfad4ef07747199758048</title>
<g id="a_clust1"><a xlink:href="dir_71cb0491f54dfad4ef07747199758048.html" target="_top" xlink:title="transaction_pool">
<polygon fill="#edf0f7" stroke="#7f7f7f" stroke-dasharray="5,2" points="120.5,-47 120.5,-101 208.5,-101 208.5,-47 120.5,-47"/>
<text text-anchor="middle" x="164.5" y="-89" font-family="Helvetica,sans-Serif" font-size="10.00">transaction_pool</text>
</a>
</g>
</g>
<!-- dir_dab204b63770ae884aa14402de541cff -->
<g id="node1" class="node">
<title>dir_dab204b63770ae884aa14402de541cff</title>
<g id="a_node1"><a xlink:href="dir_dab204b63770ae884aa14402de541cff.html" target="_top" xlink:title="impl">
<polygon fill="#edf0f7" stroke="#404040" stroke-width="2" points="182,-74 147,-74 147,-55 182,-55 182,-74"/>
<text text-anchor="middle" x="164.5" y="-62" font-family="Helvetica,sans-Serif" font-size="10.00">impl</text>
</a>
</g>
</g>
<!-- dir_028cfb450258cb26cf2de4f75f6778d5 -->
<g id="node2" class="node">
<title>dir_028cfb450258cb26cf2de4f75f6778d5</title>
<g id="a_node2"><a xlink:href="dir_028cfb450258cb26cf2de4f75f6778d5.html" target="_top" xlink:title="blockchain">
<polygon fill="#edf0f7" stroke="red" stroke-dasharray="5,2" points="63,-19 0,-19 0,0 63,0 63,-19"/>
<text text-anchor="middle" x="31.5" y="-7" font-family="Helvetica,sans-Serif" font-size="10.00">blockchain</text>
</a>
</g>
</g>
<!-- dir_dab204b63770ae884aa14402de541cff&#45;&gt;dir_028cfb450258cb26cf2de4f75f6778d5 -->
<g id="edge1" class="edge">
<title>dir_dab204b63770ae884aa14402de541cff&#45;&gt;dir_028cfb450258cb26cf2de4f75f6778d5</title>
<path fill="none" stroke="#63b8ff" d="M146.56,-56.35C125.59,-48 90.46,-33.99 64.52,-23.66"/>
<polygon fill="#63b8ff" stroke="#63b8ff" points="66.02,-20.49 55.44,-20.04 63.43,-26.99 66.02,-20.49"/>
<g id="a_edge1&#45;headlabel"><a xlink:href="dir_000046_000010.html" target="_top" xlink:title="1">
<text text-anchor="middle" x="69.01" y="-16.12" font-family="Helvetica,sans-Serif" font-size="10.00" fill="#63b8ff">1</text>
</a>
</g>
</g>
<!-- dir_0af1587c8378955de40f48b4bd1869f0 -->
<g id="node3" class="node">
<title>dir_0af1587c8378955de40f48b4bd1869f0</title>
<g id="a_node3"><a xlink:href="dir_0af1587c8378955de40f48b4bd1869f0.html" target="_top" xlink:title="base">
<polygon fill="#edf0f7" stroke="#7f7f7f" points="119.5,-19 81.5,-19 81.5,0 119.5,0 119.5,-19"/>
<text text-anchor="middle" x="100.5" y="-7" font-family="Helvetica,sans-Serif" font-size="10.00">base</text>
</a>
</g>
</g>
<!-- dir_dab204b63770ae884aa14402de541cff&#45;&gt;dir_0af1587c8378955de40f48b4bd1869f0 -->
<g id="edge2" class="edge">
<title>dir_dab204b63770ae884aa14402de541cff&#45;&gt;dir_0af1587c8378955de40f48b4bd1869f0</title>
<path fill="none" stroke="#63b8ff" d="M153.64,-54.51C144.39,-46.85 130.88,-35.66 119.79,-26.47"/>
<polygon fill="#63b8ff" stroke="#63b8ff" points="122.3,-24.01 112.36,-20.32 117.83,-29.4 122.3,-24.01"/>
<g id="a_edge2&#45;headlabel"><a xlink:href="dir_000046_000006.html" target="_top" xlink:title="1">
<text text-anchor="middle" x="125.71" y="-20.65" font-family="Helvetica,sans-Serif" font-size="10.00" fill="#63b8ff">1</text>
</a>
</g>
</g>
<!-- dir_7be59ee8c4293a2ed5de3468b8a07cd9 -->
<g id="node4" class="node">
<title>dir_7be59ee8c4293a2ed5de3468b8a07cd9</title>
<g id="a_node4"><a xlink:href="dir_7be59ee8c4293a2ed5de3468b8a07cd9.html" target="_top" xlink:title="outcome">
<polygon fill="#edf0f7" stroke="#7f7f7f" points="191.5,-19 137.5,-19 137.5,0 191.5,0 191.5,-19"/>
<text text-anchor="middle" x="164.5" y="-7" font-family="Helvetica,sans-Serif" font-size="10.00">outcome</text>
</a>
</g>
</g>
<!-- dir_dab204b63770ae884aa14402de541cff&#45;&gt;dir_7be59ee8c4293a2ed5de3468b8a07cd9 -->
<g id="edge3" class="edge">
<title>dir_dab204b63770ae884aa14402de541cff&#45;&gt;dir_7be59ee8c4293a2ed5de3468b8a07cd9</title>
<path fill="none" stroke="#63b8ff" d="M164.5,-54.75C164.5,-48.27 164.5,-39.16 164.5,-30.9"/>
<polygon fill="#63b8ff" stroke="#63b8ff" points="168,-30.96 164.5,-20.96 161,-30.96 168,-30.96"/>
<g id="a_edge3&#45;headlabel"><a xlink:href="dir_000046_000058.html" target="_top" xlink:title="1">
<text text-anchor="middle" x="170.84" y="-30.54" font-family="Helvetica,sans-Serif" font-size="10.00" fill="#63b8ff">1</text>
</a>
</g>
</g>
<!-- dir_80701e94095ce0a75d444d371dca094d -->
<g id="node5" class="node">
<title>dir_80701e94095ce0a75d444d371dca094d</title>
<g id="a_node5"><a xlink:href="dir_80701e94095ce0a75d444d371dca094d.html" target="_top" xlink:title="clock">
<polygon fill="#edf0f7" stroke="red" stroke-dasharray="5,2" points="249.5,-19 209.5,-19 209.5,0 249.5,0 249.5,-19"/>
<text text-anchor="middle" x="229.5" y="-7" font-family="Helvetica,sans-Serif" font-size="10.00">clock</text>
</a>
</g>
</g>
<!-- dir_dab204b63770ae884aa14402de541cff&#45;&gt;dir_80701e94095ce0a75d444d371dca094d -->
<g id="edge4" class="edge">
<title>dir_dab204b63770ae884aa14402de541cff&#45;&gt;dir_80701e94095ce0a75d444d371dca094d</title>
<path fill="none" stroke="#63b8ff" d="M175.53,-54.51C184.92,-46.85 198.65,-35.66 209.91,-26.47"/>
<polygon fill="#63b8ff" stroke="#63b8ff" points="211.93,-29.35 217.46,-20.31 207.5,-23.92 211.93,-29.35"/>
<g id="a_edge4&#45;headlabel"><a xlink:href="dir_000046_000013.html" target="_top" xlink:title="1">
<text text-anchor="middle" x="212.11" y="-30.36" font-family="Helvetica,sans-Serif" font-size="10.00" fill="#63b8ff">1</text>
</a>
</g>
</g>
<!-- dir_bbf56bce9985720f86fc476f3812db24 -->
<g id="node6" class="node">
<title>dir_bbf56bce9985720f86fc476f3812db24</title>
<g id="a_node6"><a xlink:href="dir_bbf56bce9985720f86fc476f3812db24.html" target="_top" xlink:title="primitives">
<polygon fill="#edf0f7" stroke="#7f7f7f" points="327,-19 268,-19 268,0 327,0 327,-19"/>
<text text-anchor="middle" x="297.5" y="-7" font-family="Helvetica,sans-Serif" font-size="10.00">primitives</text>
</a>
</g>
</g>
<!-- dir_dab204b63770ae884aa14402de541cff&#45;&gt;dir_bbf56bce9985720f86fc476f3812db24 -->
<g id="edge5" class="edge">
<title>dir_dab204b63770ae884aa14402de541cff&#45;&gt;dir_bbf56bce9985720f86fc476f3812db24</title>
<path fill="none" stroke="#63b8ff" d="M182.44,-56.35C203.41,-48 238.54,-33.99 264.48,-23.66"/>
<polygon fill="#63b8ff" stroke="#63b8ff" points="265.57,-26.99 273.56,-20.04 262.98,-20.49 265.57,-26.99"/>
<g id="a_edge5&#45;headlabel"><a xlink:href="dir_000046_000061.html" target="_top" xlink:title="1">
<text text-anchor="middle" x="264.69" y="-27.9" font-family="Helvetica,sans-Serif" font-size="10.00" fill="#63b8ff">1</text>
</a>
</g>
</g>
</g>
</svg>
