<?xml version="1.0" encoding="UTF-8" standalone="no"?>
<!DOCTYPE svg PUBLIC "-//W3C//DTD SVG 1.1//EN"
 "http://www.w3.org/Graphics/SVG/1.1/DTD/svg11.dtd">
<!-- Generated by graphviz version 7.0.5 (20221223.1930)
 -->
<!-- Title: src/network/types Pages: 1 -->
<svg width="182pt" height="117pt"
 viewBox="0.00 0.00 182.00 117.00" xmlns="http://www.w3.org/2000/svg" xmlns:xlink="http://www.w3.org/1999/xlink">
<g id="graph0" class="graph" transform="scale(1 1) rotate(0) translate(4 113)">
<title>src/network/types</title>
<g id="clust1" class="cluster">
<title>clusterdir_fc4c7f03e1a69a98c370fae55a743828</title>
<g id="a_clust1"><a xlink:href="dir_fc4c7f03e1a69a98c370fae55a743828.html" target="_top" xlink:title="network">
<polygon fill="#edf0f7" stroke="#7f7f7f" stroke-dasharray="5,2" points="58,-47 58,-101 114,-101 114,-47 58,-47"/>
<text text-anchor="middle" x="86" y="-89" font-family="Helvetica,sans-Serif" font-size="10.00">network</text>
</a>
</g>
</g>
<!-- dir_5b0f7ae60a65669f7a9337caa5cc645e -->
<g id="node1" class="node">
<title>dir_5b0f7ae60a65669f7a9337caa5cc645e</title>
<g id="a_node1"><a xlink:href="dir_5b0f7ae60a65669f7a9337caa5cc645e.html" target="_top" xlink:title="types">
<polygon fill="#edf0f7" stroke="#404040" stroke-width="2" points="106,-74 66,-74 66,-55 106,-55 106,-74"/>
<text text-anchor="middle" x="86" y="-62" font-family="Helvetica,sans-Serif" font-size="10.00">types</text>
</a>
</g>
</g>
<!-- dir_0af1587c8378955de40f48b4bd1869f0 -->
<g id="node2" class="node">
<title>dir_0af1587c8378955de40f48b4bd1869f0</title>
<g id="a_node2"><a xlink:href="dir_0af1587c8378955de40f48b4bd1869f0.html" target="_top" xlink:title="base">
<polygon fill="#edf0f7" stroke="#7f7f7f" points="38,-19 0,-19 0,0 38,0 38,-19"/>
<text text-anchor="middle" x="19" y="-7" font-family="Helvetica,sans-Serif" font-size="10.00">base</text>
</a>
</g>
</g>
<!-- dir_5b0f7ae60a65669f7a9337caa5cc645e&#45;&gt;dir_0af1587c8378955de40f48b4bd1869f0 -->
<g id="edge1" class="edge">
<title>dir_5b0f7ae60a65669f7a9337caa5cc645e&#45;&gt;dir_0af1587c8378955de40f48b4bd1869f0</title>
<path fill="none" stroke="#63b8ff" d="M74.63,-54.51C64.95,-46.85 50.8,-35.66 39.19,-26.47"/>
<polygon fill="#63b8ff" stroke="#63b8ff" points="41.4,-23.76 31.38,-20.3 37.06,-29.25 41.4,-23.76"/>
<g id="a_edge1&#45;headlabel"><a xlink:href="dir_000088_000006.html" target="_top" xlink:title="4">
<text text-anchor="middle" x="44.79" y="-20.32" font-family="Helvetica,sans-Serif" font-size="10.00" fill="#63b8ff">4</text>
</a>
</g>
</g>
<!-- dir_bbf56bce9985720f86fc476f3812db24 -->
<g id="node3" class="node">
<title>dir_bbf56bce9985720f86fc476f3812db24</title>
<g id="a_node3"><a xlink:href="dir_bbf56bce9985720f86fc476f3812db24.html" target="_top" xlink:title="primitives">
<polygon fill="#edf0f7" stroke="#7f7f7f" points="115.5,-19 56.5,-19 56.5,0 115.5,0 115.5,-19"/>
<text text-anchor="middle" x="86" y="-7" font-family="Helvetica,sans-Serif" font-size="10.00">primitives</text>
</a>
</g>
</g>
<!-- dir_5b0f7ae60a65669f7a9337caa5cc645e&#45;&gt;dir_bbf56bce9985720f86fc476f3812db24 -->
<g id="edge2" class="edge">
<title>dir_5b0f7ae60a65669f7a9337caa5cc645e&#45;&gt;dir_bbf56bce9985720f86fc476f3812db24</title>
<path fill="none" stroke="#63b8ff" d="M86,-54.75C86,-48.27 86,-39.16 86,-30.9"/>
<polygon fill="#63b8ff" stroke="#63b8ff" points="89.5,-30.96 86,-20.96 82.5,-30.96 89.5,-30.96"/>
<g id="a_edge2&#45;headlabel"><a xlink:href="dir_000088_000061.html" target="_top" xlink:title="8">
<text text-anchor="middle" x="92.34" y="-30.54" font-family="Helvetica,sans-Serif" font-size="10.00" fill="#63b8ff">8</text>
</a>
</g>
</g>
<!-- dir_e3ad572831d545eb552494b95f9c029d -->
<g id="node4" class="node">
<title>dir_e3ad572831d545eb552494b95f9c029d</title>
<g id="a_node4"><a xlink:href="dir_e3ad572831d545eb552494b95f9c029d.html" target="_top" xlink:title="scale">
<polygon fill="#edf0f7" stroke="red" stroke-dasharray="5,2" points="174,-19 134,-19 134,0 174,0 174,-19"/>
<text text-anchor="middle" x="154" y="-7" font-family="Helvetica,sans-Serif" font-size="10.00">scale</text>
</a>
</g>
</g>
<!-- dir_5b0f7ae60a65669f7a9337caa5cc645e&#45;&gt;dir_e3ad572831d545eb552494b95f9c029d -->
<g id="edge3" class="edge">
<title>dir_5b0f7ae60a65669f7a9337caa5cc645e&#45;&gt;dir_e3ad572831d545eb552494b95f9c029d</title>
<path fill="none" stroke="#63b8ff" d="M97.54,-54.51C107.46,-46.77 122.01,-35.43 133.86,-26.2"/>
<polygon fill="#63b8ff" stroke="#63b8ff" points="135.71,-29.2 141.44,-20.29 131.4,-23.68 135.71,-29.2"/>
<g id="a_edge3&#45;headlabel"><a xlink:href="dir_000088_000072.html" target="_top" xlink:title="2">
<text text-anchor="middle" x="135.81" y="-30.22" font-family="Helvetica,sans-Serif" font-size="10.00" fill="#63b8ff">2</text>
</a>
</g>
</g>
</g>
</svg>
