<?xml version="1.0" encoding="UTF-8" standalone="no"?>
<!DOCTYPE svg PUBLIC "-//W3C//DTD SVG 1.1//EN"
 "http://www.w3.org/Graphics/SVG/1.1/DTD/svg11.dtd">
<!-- Generated by graphviz version 7.0.5 (20221223.1930)
 -->
<!-- Title: src/storage/trie/serialization Pages: 1 -->
<svg width="360pt" height="133pt"
 viewBox="0.00 0.00 360.00 133.00" xmlns="http://www.w3.org/2000/svg" xmlns:xlink="http://www.w3.org/1999/xlink">
<g id="graph0" class="graph" transform="scale(1 1) rotate(0) translate(4 129)">
<title>src/storage/trie/serialization</title>
<g id="clust1" class="cluster">
<title>clusterdir_8f5e4fb549865540d4346189ec27fd9e</title>
<g id="a_clust1"><a xlink:href="dir_8f5e4fb549865540d4346189ec27fd9e.html" target="_top" xlink:title="trie">
<polygon fill="#edf0f7" stroke="#7f7f7f" stroke-dasharray="5,2" points="8,-8 8,-117 112,-117 112,-8 8,-8"/>
<text text-anchor="middle" x="60" y="-105" font-family="Helvetica,sans-Serif" font-size="10.00">trie</text>
</a>
</g>
</g>
<!-- dir_b96ded659b7e6f168a14461d5a0325d6 -->
<g id="node1" class="node">
<title>dir_b96ded659b7e6f168a14461d5a0325d6</title>
<g id="a_node1"><a xlink:href="dir_b96ded659b7e6f168a14461d5a0325d6.html" target="_top" xlink:title="supergenius_trie">
<polygon fill="#a2b4d6" stroke="#404040" points="104,-35 16,-35 16,-16 104,-16 104,-35"/>
<text text-anchor="middle" x="60" y="-23" font-family="Helvetica,sans-Serif" font-size="10.00">supergenius_trie</text>
</a>
</g>
</g>
<!-- dir_e2cec131312c9f73de1b5c208575099e -->
<g id="node2" class="node">
<title>dir_e2cec131312c9f73de1b5c208575099e</title>
<g id="a_node2"><a xlink:href="dir_e2cec131312c9f73de1b5c208575099e.html" target="_top" xlink:title="serialization">
<polygon fill="#edf0f7" stroke="#404040" stroke-width="2" points="104,-90 36,-90 36,-71 104,-71 104,-90"/>
<text text-anchor="middle" x="70" y="-78" font-family="Helvetica,sans-Serif" font-size="10.00">serialization</text>
</a>
</g>
</g>
<!-- dir_e2cec131312c9f73de1b5c208575099e&#45;&gt;dir_b96ded659b7e6f168a14461d5a0325d6 -->
<g id="edge4" class="edge">
<title>dir_e2cec131312c9f73de1b5c208575099e&#45;&gt;dir_b96ded659b7e6f168a14461d5a0325d6</title>
<path fill="none" stroke="#63b8ff" d="M68.35,-70.75C67.11,-64.19 65.37,-54.95 63.79,-46.6"/>
<polygon fill="#63b8ff" stroke="#63b8ff" points="67.26,-46.11 61.97,-36.93 60.38,-47.4 67.26,-46.11"/>
<g id="a_edge4&#45;headlabel"><a xlink:href="dir_000074_000082.html" target="_top" xlink:title="5">
<text text-anchor="middle" x="70.44" y="-45.13" font-family="Helvetica,sans-Serif" font-size="10.00" fill="#63b8ff">5</text>
</a>
</g>
</g>
<!-- dir_0af1587c8378955de40f48b4bd1869f0 -->
<g id="node3" class="node">
<title>dir_0af1587c8378955de40f48b4bd1869f0</title>
<g id="a_node3"><a xlink:href="dir_0af1587c8378955de40f48b4bd1869f0.html" target="_top" xlink:title="base">
<polygon fill="#edf0f7" stroke="#7f7f7f" points="160,-35 122,-35 122,-16 160,-16 160,-35"/>
<text text-anchor="middle" x="141" y="-23" font-family="Helvetica,sans-Serif" font-size="10.00">base</text>
</a>
</g>
</g>
<!-- dir_e2cec131312c9f73de1b5c208575099e&#45;&gt;dir_0af1587c8378955de40f48b4bd1869f0 -->
<g id="edge1" class="edge">
<title>dir_e2cec131312c9f73de1b5c208575099e&#45;&gt;dir_0af1587c8378955de40f48b4bd1869f0</title>
<path fill="none" stroke="#63b8ff" d="M82.04,-70.51C92.41,-62.77 107.6,-51.43 119.97,-42.2"/>
<polygon fill="#63b8ff" stroke="#63b8ff" points="122,-45.05 127.92,-36.26 117.81,-39.44 122,-45.05"/>
<g id="a_edge1&#45;headlabel"><a xlink:href="dir_000074_000006.html" target="_top" xlink:title="2">
<text text-anchor="middle" x="122.03" y="-46.07" font-family="Helvetica,sans-Serif" font-size="10.00" fill="#63b8ff">2</text>
</a>
</g>
</g>
<!-- dir_4261af1259721e3e39e0d2dd7354b511 -->
<g id="node4" class="node">
<title>dir_4261af1259721e3e39e0d2dd7354b511</title>
<g id="a_node4"><a xlink:href="dir_4261af1259721e3e39e0d2dd7354b511.html" target="_top" xlink:title="crypto">
<polygon fill="#edf0f7" stroke="red" stroke-dasharray="5,2" points="221.5,-35 178.5,-35 178.5,-16 221.5,-16 221.5,-35"/>
<text text-anchor="middle" x="200" y="-23" font-family="Helvetica,sans-Serif" font-size="10.00">crypto</text>
</a>
</g>
</g>
<!-- dir_e2cec131312c9f73de1b5c208575099e&#45;&gt;dir_4261af1259721e3e39e0d2dd7354b511 -->
<g id="edge2" class="edge">
<title>dir_e2cec131312c9f73de1b5c208575099e&#45;&gt;dir_4261af1259721e3e39e0d2dd7354b511</title>
<path fill="none" stroke="#63b8ff" d="M92.05,-70.51C112.81,-62.04 144.16,-49.27 167.73,-39.66"/>
<polygon fill="#63b8ff" stroke="#63b8ff" points="168.93,-42.95 176.87,-35.93 166.29,-36.46 168.93,-42.95"/>
<g id="a_edge2&#45;headlabel"><a xlink:href="dir_000074_000017.html" target="_top" xlink:title="2">
<text text-anchor="middle" x="168.08" y="-43.86" font-family="Helvetica,sans-Serif" font-size="10.00" fill="#63b8ff">2</text>
</a>
</g>
</g>
<!-- dir_7be59ee8c4293a2ed5de3468b8a07cd9 -->
<g id="node5" class="node">
<title>dir_7be59ee8c4293a2ed5de3468b8a07cd9</title>
<g id="a_node5"><a xlink:href="dir_7be59ee8c4293a2ed5de3468b8a07cd9.html" target="_top" xlink:title="outcome">
<polygon fill="#edf0f7" stroke="#7f7f7f" points="294,-35 240,-35 240,-16 294,-16 294,-35"/>
<text text-anchor="middle" x="267" y="-23" font-family="Helvetica,sans-Serif" font-size="10.00">outcome</text>
</a>
</g>
</g>
<!-- dir_e2cec131312c9f73de1b5c208575099e&#45;&gt;dir_7be59ee8c4293a2ed5de3468b8a07cd9 -->
<g id="edge3" class="edge">
<title>dir_e2cec131312c9f73de1b5c208575099e&#45;&gt;dir_7be59ee8c4293a2ed5de3468b8a07cd9</title>
<path fill="none" stroke="#63b8ff" d="M103.42,-70.51C138.24,-61.14 192.7,-46.49 229.1,-36.7"/>
<polygon fill="#63b8ff" stroke="#63b8ff" points="229.56,-40.2 238.31,-34.22 227.75,-33.44 229.56,-40.2"/>
<g id="a_edge3&#45;headlabel"><a xlink:href="dir_000074_000058.html" target="_top" xlink:title="1">
<text text-anchor="middle" x="228.29" y="-40.98" font-family="Helvetica,sans-Serif" font-size="10.00" fill="#63b8ff">1</text>
</a>
</g>
</g>
<!-- dir_e3ad572831d545eb552494b95f9c029d -->
<g id="node6" class="node">
<title>dir_e3ad572831d545eb552494b95f9c029d</title>
<g id="a_node6"><a xlink:href="dir_e3ad572831d545eb552494b95f9c029d.html" target="_top" xlink:title="scale">
<polygon fill="#edf0f7" stroke="red" stroke-dasharray="5,2" points="352,-35 312,-35 312,-16 352,-16 352,-35"/>
<text text-anchor="middle" x="332" y="-23" font-family="Helvetica,sans-Serif" font-size="10.00">scale</text>
</a>
</g>
</g>
<!-- dir_e2cec131312c9f73de1b5c208575099e&#45;&gt;dir_e3ad572831d545eb552494b95f9c029d -->
<g id="edge5" class="edge">
<title>dir_e2cec131312c9f73de1b5c208575099e&#45;&gt;dir_e3ad572831d545eb552494b95f9c029d</title>
<path fill="none" stroke="#63b8ff" d="M104.18,-74.03C147.65,-66.85 225.23,-53.27 300.67,-35.37"/>
<polygon fill="#63b8ff" stroke="#63b8ff" points="301.41,-38.79 310.31,-33.05 299.77,-31.98 301.41,-38.79"/>
<g id="a_edge5&#45;headlabel"><a xlink:href="dir_000074_000072.html" target="_top" xlink:title="3">
<text text-anchor="middle" x="300.05" y="-39.54" font-family="Helvetica,sans-Serif" font-size="10.00" fill="#63b8ff">3</text>
</a>
</g>
</g>
</g>
</svg>
