<?xml version="1.0" encoding="UTF-8" standalone="no"?>
<!DOCTYPE svg PUBLIC "-//W3C//DTD SVG 1.1//EN"
 "http://www.w3.org/Graphics/SVG/1.1/DTD/svg11.dtd">
<!-- Generated by graphviz version 7.0.5 (20221223.1930)
 -->
<!-- Title: src/verification/authority Pages: 1 -->
<!--zoomable 141 -->
<svg id="main" version="1.1" xmlns="http://www.w3.org/2000/svg" xmlns:xlink="http://www.w3.org/1999/xlink" xml:space="preserve" onload="init(evt)">
<style type="text/css"><![CDATA[
.edge:hover path { stroke: red; }
.edge:hover polygon { stroke: red; fill: red; }
]]></style>
<script type="text/javascript"><![CDATA[
var edges = document.getElementsByTagName('g');
if (edges && edges.length) {
  for (var i=0;i<edges.length;i++) {
    if (edges[i].id.substr(0,4)=='edge') {
      edges[i].setAttribute('class','edge');
    }
  }
}
]]></script>
        <defs>
                <circle id="rim" cx="0" cy="0" r="7"/>
                <circle id="rim2" cx="0" cy="0" r="3.5"/>
                <g id="zoomPlus">
                        <use xlink:href="#rim" fill="#404040">
                                <set attributeName="fill" to="#808080" begin="zoomplus.mouseover" end="zoomplus.mouseout"/>
                        </use>
                        <path d="M-4,0h8M0,-4v8" fill="none" stroke="white" stroke-width="1.5" pointer-events="none"/>
                </g>
                <g id="zoomMin">
                        <use xlink:href="#rim" fill="#404040">
                                <set attributeName="fill" to="#808080" begin="zoomminus.mouseover" end="zoomminus.mouseout"/>
                        </use>
                        <path d="M-4,0h8" fill="none" stroke="white" stroke-width="1.5" pointer-events="none"/>
                </g>
                <g id="dirArrow">
                        <path fill="none" stroke="white" stroke-width="1.5" d="M0,-3.0v7 M-2.5,-0.5L0,-3.0L2.5,-0.5"/>
                </g>
               <g id="resetDef">
                       <use xlink:href="#rim2" fill="#404040">
                               <set attributeName="fill" to="#808080" begin="reset.mouseover" end="reset.mouseout"/>
                       </use>
               </g>
        </defs>

<script type="text/javascript">
var viewWidth = 639;
var viewHeight = 141;
var sectionId = 'dynsection-0';
</script>
<script xlink:href="svgpan.js"/>
<svg id="graph" class="graph">
<g id="viewport">
<title>src/verification/authority</title>
<g id="clust1" class="cluster">
<title>clusterdir_54b1e6c540d67b59af2f275fe685da39</title>
<g id="a_clust1"><a xlink:href="dir_54b1e6c540d67b59af2f275fe685da39.html" target="_top" xlink:title="verification">
<polygon fill="#edf0f7" stroke="#7f7f7f" stroke-dasharray="5,2" points="8,-8 8,-125 147,-125 147,-8 8,-8"/>
<text text-anchor="middle" x="77.5" y="-113" font-family="Helvetica,sans-Serif" font-size="10.00">verification</text>
</a>
</g>
</g>
<g id="clust2" class="cluster">
<title>clusterdir_56f8bb20013cd868aedfcd850a309f20</title>
<g id="a_clust2"><a xlink:href="dir_56f8bb20013cd868aedfcd850a309f20.html" target="_top">
<polygon fill="#edf0f7" stroke="#404040" stroke-width="2" points="16,-63 16,-98 139,-98 139,-63 16,-63"/>
</a>
</g>
</g>
<!-- dir_1821253fa6cbfd615ad68c85af377eb7 -->
<g id="node1" class="node">
<title>dir_1821253fa6cbfd615ad68c85af377eb7</title>
<g id="a_node1"><a xlink:href="dir_1821253fa6cbfd615ad68c85af377eb7.html" target="_top" xlink:title="finality">
<polygon fill="#a2b4d6" stroke="red" points="135,-35 91,-35 91,-16 135,-16 135,-35"/>
<text text-anchor="middle" x="113" y="-23" font-family="Helvetica,sans-Serif" font-size="10.00">finality</text>
</a>
</g>
</g>
<!-- dir_56f8bb20013cd868aedfcd850a309f20 -->
<g id="node2" class="node">
<title>dir_56f8bb20013cd868aedfcd850a309f20</title>
<text text-anchor="middle" x="51" y="-78" font-family="Helvetica,sans-Serif" font-size="10.00">authority</text>
</g>
<!-- dir_7be59ee8c4293a2ed5de3468b8a07cd9 -->
<g id="node4" class="node">
<title>dir_7be59ee8c4293a2ed5de3468b8a07cd9</title>
<g id="a_node4"><a xlink:href="dir_7be59ee8c4293a2ed5de3468b8a07cd9.html" target="_top" xlink:title="outcome">
<polygon fill="#edf0f7" stroke="#7f7f7f" points="209,-35 155,-35 155,-16 209,-16 209,-35"/>
<text text-anchor="middle" x="182" y="-23" font-family="Helvetica,sans-Serif" font-size="10.00">outcome</text>
</a>
</g>
</g>
<!-- dir_56f8bb20013cd868aedfcd850a309f20&#45;&gt;dir_7be59ee8c4293a2ed5de3468b8a07cd9 -->
<g id="edge1" class="edge">
<title>dir_56f8bb20013cd868aedfcd850a309f20&#45;&gt;dir_7be59ee8c4293a2ed5de3468b8a07cd9</title>
<path fill="none" stroke="#63b8ff" d="M68.33,-71.01C73.93,-68.35 80.19,-65.47 86,-63 105.7,-54.62 128.05,-46.08 146.21,-39.36"/>
<polygon fill="#63b8ff" stroke="#63b8ff" points="147.32,-42.68 155.51,-35.95 144.91,-36.11 147.32,-42.68"/>
<g id="a_edge1&#45;headlabel"><a xlink:href="dir_000004_000058.html" target="_top" xlink:title="3">
<text text-anchor="middle" x="146.34" y="-43.56" font-family="Helvetica,sans-Serif" font-size="10.00" fill="#63b8ff">3</text>
</a>
</g>
</g>
<!-- dir_bbf56bce9985720f86fc476f3812db24 -->
<g id="node5" class="node">
<title>dir_bbf56bce9985720f86fc476f3812db24</title>
<g id="a_node5"><a xlink:href="dir_bbf56bce9985720f86fc476f3812db24.html" target="_top" xlink:title="primitives">
<polygon fill="#edf0f7" stroke="#7f7f7f" points="286.5,-35 227.5,-35 227.5,-16 286.5,-16 286.5,-35"/>
<text text-anchor="middle" x="257" y="-23" font-family="Helvetica,sans-Serif" font-size="10.00">primitives</text>
</a>
</g>
</g>
<!-- dir_56f8bb20013cd868aedfcd850a309f20&#45;&gt;dir_bbf56bce9985720f86fc476f3812db24 -->
<g id="edge2" class="edge">
<title>dir_56f8bb20013cd868aedfcd850a309f20&#45;&gt;dir_bbf56bce9985720f86fc476f3812db24</title>
<path fill="none" stroke="#63b8ff" d="M66.71,-71.14C72.63,-68.25 79.51,-65.19 86,-63 139.62,-44.95 157.37,-47.26 216.15,-35.32"/>
<polygon fill="#63b8ff" stroke="#63b8ff" points="216.64,-38.8 225.71,-33.32 215.21,-31.95 216.64,-38.8"/>
<g id="a_edge2&#45;headlabel"><a xlink:href="dir_000004_000061.html" target="_top" xlink:title="4">
<text text-anchor="middle" x="215.18" y="-39.5" font-family="Helvetica,sans-Serif" font-size="10.00" fill="#63b8ff">4</text>
</a>
</g>
</g>
<!-- dir_14f9a59f7db9502263804e0ceb505151 -->
<g id="node3" class="node">
<title>dir_14f9a59f7db9502263804e0ceb505151</title>
<g id="a_node3"><a xlink:href="dir_14f9a59f7db9502263804e0ceb505151.html" target="_top" xlink:title="impl">
<polygon fill="#a2b4d6" stroke="#404040" points="130.5,-90 95.5,-90 95.5,-71 130.5,-71 130.5,-90"/>
<text text-anchor="middle" x="113" y="-78" font-family="Helvetica,sans-Serif" font-size="10.00">impl</text>
</a>
</g>
</g>
<!-- dir_14f9a59f7db9502263804e0ceb505151&#45;&gt;dir_1821253fa6cbfd615ad68c85af377eb7 -->
<g id="edge5" class="edge">
<title>dir_14f9a59f7db9502263804e0ceb505151&#45;&gt;dir_1821253fa6cbfd615ad68c85af377eb7</title>
<path fill="none" stroke="#63b8ff" d="M113,-70.75C113,-64.27 113,-55.16 113,-46.9"/>
<polygon fill="#63b8ff" stroke="#63b8ff" points="116.5,-46.96 113,-36.96 109.5,-46.96 116.5,-46.96"/>
<g id="a_edge5&#45;headlabel"><a xlink:href="dir_000047_000024.html" target="_top" xlink:title="1">
<text text-anchor="middle" x="119.34" y="-46.54" font-family="Helvetica,sans-Serif" font-size="10.00" fill="#63b8ff">1</text>
</a>
</g>
</g>
<!-- dir_14f9a59f7db9502263804e0ceb505151&#45;&gt;dir_bbf56bce9985720f86fc476f3812db24 -->
<g id="edge8" class="edge">
<title>dir_14f9a59f7db9502263804e0ceb505151&#45;&gt;dir_bbf56bce9985720f86fc476f3812db24</title>
<path fill="none" stroke="#63b8ff" d="M130.95,-72.89C153.68,-64.53 193.34,-49.93 222.12,-39.34"/>
<polygon fill="#63b8ff" stroke="#63b8ff" points="222.96,-42.76 231.14,-36.02 220.55,-36.19 222.96,-42.76"/>
<g id="a_edge8&#45;headlabel"><a xlink:href="dir_000047_000061.html" target="_top" xlink:title="2">
<text text-anchor="middle" x="221.99" y="-43.64" font-family="Helvetica,sans-Serif" font-size="10.00" fill="#63b8ff">2</text>
</a>
</g>
</g>
<!-- dir_0af1587c8378955de40f48b4bd1869f0 -->
<g id="node6" class="node">
<title>dir_0af1587c8378955de40f48b4bd1869f0</title>
<g id="a_node6"><a xlink:href="dir_0af1587c8378955de40f48b4bd1869f0.html" target="_top" xlink:title="base">
<polygon fill="#edf0f7" stroke="#7f7f7f" points="631,-35 593,-35 593,-16 631,-16 631,-35"/>
<text text-anchor="middle" x="612" y="-23" font-family="Helvetica,sans-Serif" font-size="10.00">base</text>
</a>
</g>
</g>
<!-- dir_14f9a59f7db9502263804e0ceb505151&#45;&gt;dir_0af1587c8378955de40f48b4bd1869f0 -->
<g id="edge4" class="edge">
<title>dir_14f9a59f7db9502263804e0ceb505151&#45;&gt;dir_0af1587c8378955de40f48b4bd1869f0</title>
<path fill="none" stroke="#63b8ff" d="M130.72,-79.1C192.01,-77.47 400.73,-69.69 581.24,-35.16"/>
<polygon fill="#63b8ff" stroke="#63b8ff" points="581.91,-38.59 591.06,-33.24 580.57,-31.72 581.91,-38.59"/>
<g id="a_edge4&#45;headlabel"><a xlink:href="dir_000047_000006.html" target="_top" xlink:title="1">
<text text-anchor="middle" x="580.42" y="-39.28" font-family="Helvetica,sans-Serif" font-size="10.00" fill="#63b8ff">1</text>
</a>
</g>
</g>
<!-- dir_e3ad572831d545eb552494b95f9c029d -->
<g id="node7" class="node">
<title>dir_e3ad572831d545eb552494b95f9c029d</title>
<g id="a_node7"><a xlink:href="dir_e3ad572831d545eb552494b95f9c029d.html" target="_top" xlink:title="scale">
<polygon fill="#edf0f7" stroke="red" stroke-dasharray="5,2" points="345,-35 305,-35 305,-16 345,-16 345,-35"/>
<text text-anchor="middle" x="325" y="-23" font-family="Helvetica,sans-Serif" font-size="10.00">scale</text>
</a>
</g>
</g>
<!-- dir_14f9a59f7db9502263804e0ceb505151&#45;&gt;dir_e3ad572831d545eb552494b95f9c029d -->
<g id="edge9" class="edge">
<title>dir_14f9a59f7db9502263804e0ceb505151&#45;&gt;dir_e3ad572831d545eb552494b95f9c029d</title>
<path fill="none" stroke="#63b8ff" d="M130.99,-75.42C162.14,-68.29 228.36,-52.87 293.83,-35.49"/>
<polygon fill="#63b8ff" stroke="#63b8ff" points="294.53,-38.92 303.29,-32.96 292.73,-32.16 294.53,-38.92"/>
<g id="a_edge9&#45;headlabel"><a xlink:href="dir_000047_000072.html" target="_top" xlink:title="1">
<text text-anchor="middle" x="293.26" y="-39.7" font-family="Helvetica,sans-Serif" font-size="10.00" fill="#63b8ff">1</text>
</a>
</g>
</g>
<!-- dir_844f6ab5c2ae79211596f3dcdd81adb7 -->
<g id="node8" class="node">
<title>dir_844f6ab5c2ae79211596f3dcdd81adb7</title>
<g id="a_node8"><a xlink:href="dir_844f6ab5c2ae79211596f3dcdd81adb7.html" target="_top" xlink:title="application">
<polygon fill="#edf0f7" stroke="red" stroke-dasharray="5,2" points="426.5,-35 363.5,-35 363.5,-16 426.5,-16 426.5,-35"/>
<text text-anchor="middle" x="395" y="-23" font-family="Helvetica,sans-Serif" font-size="10.00">application</text>
</a>
</g>
</g>
<!-- dir_14f9a59f7db9502263804e0ceb505151&#45;&gt;dir_844f6ab5c2ae79211596f3dcdd81adb7 -->
<g id="edge7" class="edge">
<title>dir_14f9a59f7db9502263804e0ceb505151&#45;&gt;dir_844f6ab5c2ae79211596f3dcdd81adb7</title>
<path fill="none" stroke="#63b8ff" d="M130.86,-76.34C169.27,-69.51 262.8,-52.74 352.08,-35.34"/>
<polygon fill="#63b8ff" stroke="#63b8ff" points="352.6,-38.8 361.74,-33.45 351.26,-31.93 352.6,-38.8"/>
<g id="a_edge7&#45;headlabel"><a xlink:href="dir_000047_000002.html" target="_top" xlink:title="1">
<text text-anchor="middle" x="351.1" y="-39.49" font-family="Helvetica,sans-Serif" font-size="10.00" fill="#63b8ff">1</text>
</a>
</g>
</g>
<!-- dir_028cfb450258cb26cf2de4f75f6778d5 -->
<g id="node9" class="node">
<title>dir_028cfb450258cb26cf2de4f75f6778d5</title>
<g id="a_node9"><a xlink:href="dir_028cfb450258cb26cf2de4f75f6778d5.html" target="_top" xlink:title="blockchain">
<polygon fill="#edf0f7" stroke="red" stroke-dasharray="5,2" points="507.5,-35 444.5,-35 444.5,-16 507.5,-16 507.5,-35"/>
<text text-anchor="middle" x="476" y="-23" font-family="Helvetica,sans-Serif" font-size="10.00">blockchain</text>
</a>
</g>
</g>
<!-- dir_14f9a59f7db9502263804e0ceb505151&#45;&gt;dir_028cfb450258cb26cf2de4f75f6778d5 -->
<g id="edge3" class="edge">
<title>dir_14f9a59f7db9502263804e0ceb505151&#45;&gt;dir_028cfb450258cb26cf2de4f75f6778d5</title>
<path fill="none" stroke="#63b8ff" d="M130.93,-77.49C178.47,-72.07 311.88,-56.23 432.87,-35.44"/>
<polygon fill="#63b8ff" stroke="#63b8ff" points="433.42,-38.9 442.67,-33.74 432.22,-32 433.42,-38.9"/>
<g id="a_edge3&#45;headlabel"><a xlink:href="dir_000047_000010.html" target="_top" xlink:title="1">
<text text-anchor="middle" x="431.85" y="-39.56" font-family="Helvetica,sans-Serif" font-size="10.00" fill="#63b8ff">1</text>
</a>
</g>
</g>
<!-- dir_452baf35e1d7639c9f2a5ece4ec85855 -->
<g id="node10" class="node">
<title>dir_452baf35e1d7639c9f2a5ece4ec85855</title>
<g id="a_node10"><a xlink:href="dir_452baf35e1d7639c9f2a5ece4ec85855.html" target="_top" xlink:title="storage">
<polygon fill="#edf0f7" stroke="red" stroke-dasharray="5,2" points="574.5,-35 525.5,-35 525.5,-16 574.5,-16 574.5,-35"/>
<text text-anchor="middle" x="550" y="-23" font-family="Helvetica,sans-Serif" font-size="10.00">storage</text>
</a>
</g>
</g>
<!-- dir_14f9a59f7db9502263804e0ceb505151&#45;&gt;dir_452baf35e1d7639c9f2a5ece4ec85855 -->
<g id="edge6" class="edge">
<title>dir_14f9a59f7db9502263804e0ceb505151&#45;&gt;dir_452baf35e1d7639c9f2a5ece4ec85855</title>
<path fill="none" stroke="#63b8ff" d="M130.85,-78.44C186.32,-74.97 360.71,-62.64 514.2,-35.28"/>
<polygon fill="#63b8ff" stroke="#63b8ff" points="514.51,-38.78 523.73,-33.56 513.26,-31.9 514.51,-38.78"/>
<g id="a_edge6&#45;headlabel"><a xlink:href="dir_000047_000080.html" target="_top" xlink:title="1">
<text text-anchor="middle" x="512.97" y="-39.45" font-family="Helvetica,sans-Serif" font-size="10.00" fill="#63b8ff">1</text>
</a>
</g>
</g>
</g>
</svg>
        <g id="navigator" transform="translate(0 0)" fill="#404254">
                <rect fill="#f2f5e9" fill-opacity="0.5" stroke="#606060" stroke-width=".5" x="0" y="0" width="60" height="60"/>
                <use id="zoomplus" xlink:href="#zoomPlus" x="17" y="9" onmousedown="handleZoom(evt,'in')"/>
                <use id="zoomminus" xlink:href="#zoomMin" x="42" y="9" onmousedown="handleZoom(evt,'out')"/>
                <use id="reset" xlink:href="#resetDef" x="30" y="36" onmousedown="handleReset()"/>
                <g id="arrowUp" xlink:href="#dirArrow" transform="translate(30 24)" onmousedown="handlePan(0,-1)">
                  <use xlink:href="#rim" fill="#404040">
                        <set attributeName="fill" to="#808080" begin="arrowUp.mouseover" end="arrowUp.mouseout"/>
                  </use>
                  <path fill="none" stroke="white" stroke-width="1.5" d="M0,-3.0v7 M-2.5,-0.5L0,-3.0L2.5,-0.5"/>
                </g>
                <g id="arrowRight" xlink:href="#dirArrow" transform="rotate(90) translate(36 -43)" onmousedown="handlePan(1,0)">
                  <use xlink:href="#rim" fill="#404040">
                        <set attributeName="fill" to="#808080" begin="arrowRight.mouseover" end="arrowRight.mouseout"/>
                  </use>
                  <path fill="none" stroke="white" stroke-width="1.5" d="M0,-3.0v7 M-2.5,-0.5L0,-3.0L2.5,-0.5"/>
                </g>
                <g id="arrowDown" xlink:href="#dirArrow" transform="rotate(180) translate(-30 -48)" onmousedown="handlePan(0,1)">
                  <use xlink:href="#rim" fill="#404040">
                        <set attributeName="fill" to="#808080" begin="arrowDown.mouseover" end="arrowDown.mouseout"/>
                  </use>
                  <path fill="none" stroke="white" stroke-width="1.5" d="M0,-3.0v7 M-2.5,-0.5L0,-3.0L2.5,-0.5"/>
                </g>
                <g id="arrowLeft" xlink:href="#dirArrow" transform="rotate(270) translate(-36 17)" onmousedown="handlePan(-1,0)">
                  <use xlink:href="#rim" fill="#404040">
                        <set attributeName="fill" to="#808080" begin="arrowLeft.mouseover" end="arrowLeft.mouseout"/>
                  </use>
                  <path fill="none" stroke="white" stroke-width="1.5" d="M0,-3.0v7 M-2.5,-0.5L0,-3.0L2.5,-0.5"/>
                </g>
        </g>
        <svg viewBox="0 0 15 15" width="100%" height="30px" preserveAspectRatio="xMaxYMin meet">
         <g id="arrow_out" transform="scale(0.3 0.3)">
          <a xlink:href="dir_56f8bb20013cd868aedfcd850a309f20_dep_org.svg" target="_base">
           <rect id="button" ry="5" rx="5" y="6" x="6" height="38" width="38"
                fill="#f2f5e9" fill-opacity="0.5" stroke="#606060" stroke-width="1.0"/>
           <path id="arrow"
             d="M 11.500037,31.436501 C 11.940474,20.09759 22.043105,11.32322 32.158766,21.979434 L 37.068811,17.246167 C 37.068811,17.246167 37.088388,32 37.088388,32 L 22.160133,31.978069 C 22.160133,31.978069 26.997745,27.140456 26.997745,27.140456 C 18.528582,18.264221 13.291696,25.230495 11.500037,31.436501 z"
             style="fill:#404040;"/>
          </a>
         </g>
        </svg>
</svg>
