<?xml version="1.0" encoding="UTF-8" standalone="no"?>
<!DOCTYPE svg PUBLIC "-//W3C//DTD SVG 1.1//EN"
 "http://www.w3.org/Graphics/SVG/1.1/DTD/svg11.dtd">
<!-- Generated by graphviz version 7.0.5 (20221223.1930)
 -->
<!-- Title: src/extensions/impl Pages: 1 -->
<svg width="450pt" height="117pt"
 viewBox="0.00 0.00 450.00 117.00" xmlns="http://www.w3.org/2000/svg" xmlns:xlink="http://www.w3.org/1999/xlink">
<g id="graph0" class="graph" transform="scale(1 1) rotate(0) translate(4 113)">
<title>src/extensions/impl</title>
<g id="clust1" class="cluster">
<title>clusterdir_40c73bf2095fd0473b1b85ccdcac2768</title>
<g id="a_clust1"><a xlink:href="dir_40c73bf2095fd0473b1b85ccdcac2768.html" target="_top" xlink:title="extensions">
<polygon fill="#edf0f7" stroke="#7f7f7f" stroke-dasharray="5,2" points="181,-47 181,-101 244,-101 244,-47 181,-47"/>
<text text-anchor="middle" x="212.5" y="-89" font-family="Helvetica,sans-Serif" font-size="10.00">extensions</text>
</a>
</g>
</g>
<!-- dir_fdb6cc7b51d96302383973367d4484c1 -->
<g id="node1" class="node">
<title>dir_fdb6cc7b51d96302383973367d4484c1</title>
<g id="a_node1"><a xlink:href="dir_fdb6cc7b51d96302383973367d4484c1.html" target="_top" xlink:title="impl">
<polygon fill="#edf0f7" stroke="#404040" stroke-width="2" points="229.5,-74 194.5,-74 194.5,-55 229.5,-55 229.5,-74"/>
<text text-anchor="middle" x="212" y="-62" font-family="Helvetica,sans-Serif" font-size="10.00">impl</text>
</a>
</g>
</g>
<!-- dir_0af1587c8378955de40f48b4bd1869f0 -->
<g id="node2" class="node">
<title>dir_0af1587c8378955de40f48b4bd1869f0</title>
<g id="a_node2"><a xlink:href="dir_0af1587c8378955de40f48b4bd1869f0.html" target="_top" xlink:title="base">
<polygon fill="#edf0f7" stroke="#7f7f7f" points="38,-19 0,-19 0,0 38,0 38,-19"/>
<text text-anchor="middle" x="19" y="-7" font-family="Helvetica,sans-Serif" font-size="10.00">base</text>
</a>
</g>
</g>
<!-- dir_fdb6cc7b51d96302383973367d4484c1&#45;&gt;dir_0af1587c8378955de40f48b4bd1869f0 -->
<g id="edge1" class="edge">
<title>dir_fdb6cc7b51d96302383973367d4484c1&#45;&gt;dir_0af1587c8378955de40f48b4bd1869f0</title>
<path fill="none" stroke="#63b8ff" d="M194.13,-58.88C165.57,-51.45 107.66,-36.21 49.18,-19.56"/>
<polygon fill="#63b8ff" stroke="#63b8ff" points="50.29,-16.23 39.71,-16.85 48.36,-22.96 50.29,-16.23"/>
<g id="a_edge1&#45;headlabel"><a xlink:href="dir_000042_000006.html" target="_top" xlink:title="5">
<text text-anchor="middle" x="53.07" y="-11.58" font-family="Helvetica,sans-Serif" font-size="10.00" fill="#63b8ff">5</text>
</a>
</g>
</g>
<!-- dir_4261af1259721e3e39e0d2dd7354b511 -->
<g id="node3" class="node">
<title>dir_4261af1259721e3e39e0d2dd7354b511</title>
<g id="a_node3"><a xlink:href="dir_4261af1259721e3e39e0d2dd7354b511.html" target="_top" xlink:title="crypto">
<polygon fill="#edf0f7" stroke="red" stroke-dasharray="5,2" points="99.5,-19 56.5,-19 56.5,0 99.5,0 99.5,-19"/>
<text text-anchor="middle" x="78" y="-7" font-family="Helvetica,sans-Serif" font-size="10.00">crypto</text>
</a>
</g>
</g>
<!-- dir_fdb6cc7b51d96302383973367d4484c1&#45;&gt;dir_4261af1259721e3e39e0d2dd7354b511 -->
<g id="edge2" class="edge">
<title>dir_fdb6cc7b51d96302383973367d4484c1&#45;&gt;dir_4261af1259721e3e39e0d2dd7354b511</title>
<path fill="none" stroke="#63b8ff" d="M194.21,-56.46C172.9,-48.04 136.8,-33.76 110.48,-23.35"/>
<polygon fill="#63b8ff" stroke="#63b8ff" points="111.87,-20.13 101.28,-19.71 109.29,-26.64 111.87,-20.13"/>
<g id="a_edge2&#45;headlabel"><a xlink:href="dir_000042_000017.html" target="_top" xlink:title="24">
<text text-anchor="middle" x="114.85" y="-15.76" font-family="Helvetica,sans-Serif" font-size="10.00" fill="#63b8ff">24</text>
</a>
</g>
</g>
<!-- dir_452baf35e1d7639c9f2a5ece4ec85855 -->
<g id="node4" class="node">
<title>dir_452baf35e1d7639c9f2a5ece4ec85855</title>
<g id="a_node4"><a xlink:href="dir_452baf35e1d7639c9f2a5ece4ec85855.html" target="_top" xlink:title="storage">
<polygon fill="#edf0f7" stroke="red" stroke-dasharray="5,2" points="166.5,-19 117.5,-19 117.5,0 166.5,0 166.5,-19"/>
<text text-anchor="middle" x="142" y="-7" font-family="Helvetica,sans-Serif" font-size="10.00">storage</text>
</a>
</g>
</g>
<!-- dir_fdb6cc7b51d96302383973367d4484c1&#45;&gt;dir_452baf35e1d7639c9f2a5ece4ec85855 -->
<g id="edge3" class="edge">
<title>dir_fdb6cc7b51d96302383973367d4484c1&#45;&gt;dir_452baf35e1d7639c9f2a5ece4ec85855</title>
<path fill="none" stroke="#63b8ff" d="M200.13,-54.51C189.91,-46.77 174.93,-35.43 162.74,-26.2"/>
<polygon fill="#63b8ff" stroke="#63b8ff" points="164.99,-23.52 154.91,-20.27 160.77,-29.1 164.99,-23.52"/>
<g id="a_edge3&#45;headlabel"><a xlink:href="dir_000042_000080.html" target="_top" xlink:title="5">
<text text-anchor="middle" x="168.36" y="-20.01" font-family="Helvetica,sans-Serif" font-size="10.00" fill="#63b8ff">5</text>
</a>
</g>
</g>
<!-- dir_7be59ee8c4293a2ed5de3468b8a07cd9 -->
<g id="node5" class="node">
<title>dir_7be59ee8c4293a2ed5de3468b8a07cd9</title>
<g id="a_node5"><a xlink:href="dir_7be59ee8c4293a2ed5de3468b8a07cd9.html" target="_top" xlink:title="outcome">
<polygon fill="#edf0f7" stroke="#7f7f7f" points="239,-19 185,-19 185,0 239,0 239,-19"/>
<text text-anchor="middle" x="212" y="-7" font-family="Helvetica,sans-Serif" font-size="10.00">outcome</text>
</a>
</g>
</g>
<!-- dir_fdb6cc7b51d96302383973367d4484c1&#45;&gt;dir_7be59ee8c4293a2ed5de3468b8a07cd9 -->
<g id="edge4" class="edge">
<title>dir_fdb6cc7b51d96302383973367d4484c1&#45;&gt;dir_7be59ee8c4293a2ed5de3468b8a07cd9</title>
<path fill="none" stroke="#63b8ff" d="M212,-54.75C212,-48.27 212,-39.16 212,-30.9"/>
<polygon fill="#63b8ff" stroke="#63b8ff" points="215.5,-30.96 212,-20.96 208.5,-30.96 215.5,-30.96"/>
<g id="a_edge4&#45;headlabel"><a xlink:href="dir_000042_000058.html" target="_top" xlink:title="1">
<text text-anchor="middle" x="218.34" y="-30.54" font-family="Helvetica,sans-Serif" font-size="10.00" fill="#63b8ff">1</text>
</a>
</g>
</g>
<!-- dir_bbf56bce9985720f86fc476f3812db24 -->
<g id="node6" class="node">
<title>dir_bbf56bce9985720f86fc476f3812db24</title>
<g id="a_node6"><a xlink:href="dir_bbf56bce9985720f86fc476f3812db24.html" target="_top" xlink:title="primitives">
<polygon fill="#edf0f7" stroke="#7f7f7f" points="316.5,-19 257.5,-19 257.5,0 316.5,0 316.5,-19"/>
<text text-anchor="middle" x="287" y="-7" font-family="Helvetica,sans-Serif" font-size="10.00">primitives</text>
</a>
</g>
</g>
<!-- dir_fdb6cc7b51d96302383973367d4484c1&#45;&gt;dir_bbf56bce9985720f86fc476f3812db24 -->
<g id="edge5" class="edge">
<title>dir_fdb6cc7b51d96302383973367d4484c1&#45;&gt;dir_bbf56bce9985720f86fc476f3812db24</title>
<path fill="none" stroke="#63b8ff" d="M224.72,-54.51C235.78,-46.7 252.04,-35.21 265.17,-25.93"/>
<polygon fill="#63b8ff" stroke="#63b8ff" points="267.08,-28.86 273.23,-20.23 263.04,-23.14 267.08,-28.86"/>
<g id="a_edge5&#45;headlabel"><a xlink:href="dir_000042_000061.html" target="_top" xlink:title="1">
<text text-anchor="middle" x="267.02" y="-29.88" font-family="Helvetica,sans-Serif" font-size="10.00" fill="#63b8ff">1</text>
</a>
</g>
</g>
<!-- dir_bf9f26469d00835ba20ff8d80ee5a804 -->
<g id="node7" class="node">
<title>dir_bf9f26469d00835ba20ff8d80ee5a804</title>
<g id="a_node7"><a xlink:href="dir_bf9f26469d00835ba20ff8d80ee5a804.html" target="_top" xlink:title="runtime">
<polygon fill="#edf0f7" stroke="red" stroke-dasharray="5,2" points="383.5,-19 334.5,-19 334.5,0 383.5,0 383.5,-19"/>
<text text-anchor="middle" x="359" y="-7" font-family="Helvetica,sans-Serif" font-size="10.00">runtime</text>
</a>
</g>
</g>
<!-- dir_fdb6cc7b51d96302383973367d4484c1&#45;&gt;dir_bf9f26469d00835ba20ff8d80ee5a804 -->
<g id="edge6" class="edge">
<title>dir_fdb6cc7b51d96302383973367d4484c1&#45;&gt;dir_bf9f26469d00835ba20ff8d80ee5a804</title>
<path fill="none" stroke="#63b8ff" d="M229.73,-57.11C252.82,-48.78 293.72,-34.03 323.35,-23.35"/>
<polygon fill="#63b8ff" stroke="#63b8ff" points="324.44,-26.68 332.66,-20 322.07,-20.09 324.44,-26.68"/>
<g id="a_edge6&#45;headlabel"><a xlink:href="dir_000042_000070.html" target="_top" xlink:title="13">
<text text-anchor="middle" x="323.45" y="-27.56" font-family="Helvetica,sans-Serif" font-size="10.00" fill="#63b8ff">13</text>
</a>
</g>
</g>
<!-- dir_e3ad572831d545eb552494b95f9c029d -->
<g id="node8" class="node">
<title>dir_e3ad572831d545eb552494b95f9c029d</title>
<g id="a_node8"><a xlink:href="dir_e3ad572831d545eb552494b95f9c029d.html" target="_top" xlink:title="scale">
<polygon fill="#edf0f7" stroke="red" stroke-dasharray="5,2" points="442,-19 402,-19 402,0 442,0 442,-19"/>
<text text-anchor="middle" x="422" y="-7" font-family="Helvetica,sans-Serif" font-size="10.00">scale</text>
</a>
</g>
</g>
<!-- dir_fdb6cc7b51d96302383973367d4484c1&#45;&gt;dir_e3ad572831d545eb552494b95f9c029d -->
<g id="edge7" class="edge">
<title>dir_fdb6cc7b51d96302383973367d4484c1&#45;&gt;dir_e3ad572831d545eb552494b95f9c029d</title>
<path fill="none" stroke="#63b8ff" d="M229.79,-59.4C260.6,-52.24 326.08,-36.78 390.93,-19.47"/>
<polygon fill="#63b8ff" stroke="#63b8ff" points="391.54,-22.93 400.29,-16.95 389.72,-16.17 391.54,-22.93"/>
<g id="a_edge7&#45;headlabel"><a xlink:href="dir_000042_000072.html" target="_top" xlink:title="2">
<text text-anchor="middle" x="390.27" y="-23.71" font-family="Helvetica,sans-Serif" font-size="10.00" fill="#63b8ff">2</text>
</a>
</g>
</g>
</g>
</svg>
