<?xml version="1.0" encoding="UTF-8" standalone="no"?>
<!DOCTYPE svg PUBLIC "-//W3C//DTD SVG 1.1//EN"
 "http://www.w3.org/Graphics/SVG/1.1/DTD/svg11.dtd">
<!-- Generated by graphviz version 7.0.5 (20221223.1930)
 -->
<!-- Title: src/runtime/binaryen/runtime_api Pages: 1 -->
<svg width="484pt" height="117pt"
 viewBox="0.00 0.00 483.50 117.00" xmlns="http://www.w3.org/2000/svg" xmlns:xlink="http://www.w3.org/1999/xlink">
<g id="graph0" class="graph" transform="scale(1 1) rotate(0) translate(4 113)">
<title>src/runtime/binaryen/runtime_api</title>
<g id="clust1" class="cluster">
<title>clusterdir_44958365c35f3f985315b67acf2c9cfa</title>
<g id="a_clust1"><a xlink:href="dir_44958365c35f3f985315b67acf2c9cfa.html" target="_top" xlink:title="binaryen">
<polygon fill="#edf0f7" stroke="#7f7f7f" stroke-dasharray="5,2" points="199.5,-47 199.5,-101 283.5,-101 283.5,-47 199.5,-47"/>
<text text-anchor="middle" x="241.5" y="-89" font-family="Helvetica,sans-Serif" font-size="10.00">binaryen</text>
</a>
</g>
</g>
<!-- dir_2b85916d314e49a6760a923b752c9952 -->
<g id="node1" class="node">
<title>dir_2b85916d314e49a6760a923b752c9952</title>
<g id="a_node1"><a xlink:href="dir_2b85916d314e49a6760a923b752c9952.html" target="_top" xlink:title="runtime_api">
<polygon fill="#edf0f7" stroke="#404040" stroke-width="2" points="275,-74 208,-74 208,-55 275,-55 275,-74"/>
<text text-anchor="middle" x="241.5" y="-62" font-family="Helvetica,sans-Serif" font-size="10.00">runtime_api</text>
</a>
</g>
</g>
<!-- dir_028cfb450258cb26cf2de4f75f6778d5 -->
<g id="node2" class="node">
<title>dir_028cfb450258cb26cf2de4f75f6778d5</title>
<g id="a_node2"><a xlink:href="dir_028cfb450258cb26cf2de4f75f6778d5.html" target="_top" xlink:title="blockchain">
<polygon fill="#edf0f7" stroke="red" stroke-dasharray="5,2" points="63,-19 0,-19 0,0 63,0 63,-19"/>
<text text-anchor="middle" x="31.5" y="-7" font-family="Helvetica,sans-Serif" font-size="10.00">blockchain</text>
</a>
</g>
</g>
<!-- dir_2b85916d314e49a6760a923b752c9952&#45;&gt;dir_028cfb450258cb26cf2de4f75f6778d5 -->
<g id="edge1" class="edge">
<title>dir_2b85916d314e49a6760a923b752c9952&#45;&gt;dir_028cfb450258cb26cf2de4f75f6778d5</title>
<path fill="none" stroke="#63b8ff" d="M207.76,-54.98C171.56,-45.85 113.98,-31.32 74.54,-21.36"/>
<polygon fill="#63b8ff" stroke="#63b8ff" points="75.46,-17.98 64.9,-18.93 73.74,-24.77 75.46,-17.98"/>
<g id="a_edge1&#45;headlabel"><a xlink:href="dir_000071_000010.html" target="_top" xlink:title="1">
<text text-anchor="middle" x="78.17" y="-13.24" font-family="Helvetica,sans-Serif" font-size="10.00" fill="#63b8ff">1</text>
</a>
</g>
</g>
<!-- dir_0af1587c8378955de40f48b4bd1869f0 -->
<g id="node3" class="node">
<title>dir_0af1587c8378955de40f48b4bd1869f0</title>
<g id="a_node3"><a xlink:href="dir_0af1587c8378955de40f48b4bd1869f0.html" target="_top" xlink:title="base">
<polygon fill="#edf0f7" stroke="#7f7f7f" points="119.5,-19 81.5,-19 81.5,0 119.5,0 119.5,-19"/>
<text text-anchor="middle" x="100.5" y="-7" font-family="Helvetica,sans-Serif" font-size="10.00">base</text>
</a>
</g>
</g>
<!-- dir_2b85916d314e49a6760a923b752c9952&#45;&gt;dir_0af1587c8378955de40f48b4bd1869f0 -->
<g id="edge2" class="edge">
<title>dir_2b85916d314e49a6760a923b752c9952&#45;&gt;dir_0af1587c8378955de40f48b4bd1869f0</title>
<path fill="none" stroke="#63b8ff" d="M217.58,-54.51C193.63,-45.51 156.68,-31.62 130.72,-21.86"/>
<polygon fill="#63b8ff" stroke="#63b8ff" points="132,-18.6 121.4,-18.36 129.53,-25.15 132,-18.6"/>
<g id="a_edge2&#45;headlabel"><a xlink:href="dir_000071_000006.html" target="_top" xlink:title="6">
<text text-anchor="middle" x="134.94" y="-14.17" font-family="Helvetica,sans-Serif" font-size="10.00" fill="#63b8ff">6</text>
</a>
</g>
</g>
<!-- dir_395f0e28b55cbd9fd75290c88db061f9 -->
<g id="node4" class="node">
<title>dir_395f0e28b55cbd9fd75290c88db061f9</title>
<g id="a_node4"><a xlink:href="dir_395f0e28b55cbd9fd75290c88db061f9.html" target="_top" xlink:title="common">
<polygon fill="#edf0f7" stroke="#7f7f7f" points="191.5,-19 137.5,-19 137.5,0 191.5,0 191.5,-19"/>
<text text-anchor="middle" x="164.5" y="-7" font-family="Helvetica,sans-Serif" font-size="10.00">common</text>
</a>
</g>
</g>
<!-- dir_2b85916d314e49a6760a923b752c9952&#45;&gt;dir_395f0e28b55cbd9fd75290c88db061f9 -->
<g id="edge3" class="edge">
<title>dir_2b85916d314e49a6760a923b752c9952&#45;&gt;dir_395f0e28b55cbd9fd75290c88db061f9</title>
<path fill="none" stroke="#63b8ff" d="M228.44,-54.51C216.98,-46.62 200.07,-34.98 186.52,-25.65"/>
<polygon fill="#63b8ff" stroke="#63b8ff" points="188.84,-23 178.62,-20.22 184.87,-28.77 188.84,-23"/>
<g id="a_edge3&#45;headlabel"><a xlink:href="dir_000071_000014.html" target="_top" xlink:title="1">
<text text-anchor="middle" x="192.16" y="-19.34" font-family="Helvetica,sans-Serif" font-size="10.00" fill="#63b8ff">1</text>
</a>
</g>
</g>
<!-- dir_40c73bf2095fd0473b1b85ccdcac2768 -->
<g id="node5" class="node">
<title>dir_40c73bf2095fd0473b1b85ccdcac2768</title>
<g id="a_node5"><a xlink:href="dir_40c73bf2095fd0473b1b85ccdcac2768.html" target="_top" xlink:title="extensions">
<polygon fill="#edf0f7" stroke="red" stroke-dasharray="5,2" points="273,-19 210,-19 210,0 273,0 273,-19"/>
<text text-anchor="middle" x="241.5" y="-7" font-family="Helvetica,sans-Serif" font-size="10.00">extensions</text>
</a>
</g>
</g>
<!-- dir_2b85916d314e49a6760a923b752c9952&#45;&gt;dir_40c73bf2095fd0473b1b85ccdcac2768 -->
<g id="edge4" class="edge">
<title>dir_2b85916d314e49a6760a923b752c9952&#45;&gt;dir_40c73bf2095fd0473b1b85ccdcac2768</title>
<path fill="none" stroke="#63b8ff" d="M241.5,-54.75C241.5,-48.27 241.5,-39.16 241.5,-30.9"/>
<polygon fill="#63b8ff" stroke="#63b8ff" points="245,-30.96 241.5,-20.96 238,-30.96 245,-30.96"/>
<g id="a_edge4&#45;headlabel"><a xlink:href="dir_000071_000022.html" target="_top" xlink:title="1">
<text text-anchor="middle" x="247.84" y="-30.54" font-family="Helvetica,sans-Serif" font-size="10.00" fill="#63b8ff">1</text>
</a>
</g>
</g>
<!-- dir_452baf35e1d7639c9f2a5ece4ec85855 -->
<g id="node6" class="node">
<title>dir_452baf35e1d7639c9f2a5ece4ec85855</title>
<g id="a_node6"><a xlink:href="dir_452baf35e1d7639c9f2a5ece4ec85855.html" target="_top" xlink:title="storage">
<polygon fill="#edf0f7" stroke="red" stroke-dasharray="5,2" points="340,-19 291,-19 291,0 340,0 340,-19"/>
<text text-anchor="middle" x="315.5" y="-7" font-family="Helvetica,sans-Serif" font-size="10.00">storage</text>
</a>
</g>
</g>
<!-- dir_2b85916d314e49a6760a923b752c9952&#45;&gt;dir_452baf35e1d7639c9f2a5ece4ec85855 -->
<g id="edge5" class="edge">
<title>dir_2b85916d314e49a6760a923b752c9952&#45;&gt;dir_452baf35e1d7639c9f2a5ece4ec85855</title>
<path fill="none" stroke="#63b8ff" d="M254.05,-54.51C264.96,-46.7 281,-35.21 293.96,-25.93"/>
<polygon fill="#63b8ff" stroke="#63b8ff" points="295.81,-28.91 301.9,-20.24 291.73,-23.22 295.81,-28.91"/>
<g id="a_edge5&#45;headlabel"><a xlink:href="dir_000071_000080.html" target="_top" xlink:title="1">
<text text-anchor="middle" x="295.77" y="-29.93" font-family="Helvetica,sans-Serif" font-size="10.00" fill="#63b8ff">1</text>
</a>
</g>
</g>
<!-- dir_bbf56bce9985720f86fc476f3812db24 -->
<g id="node7" class="node">
<title>dir_bbf56bce9985720f86fc476f3812db24</title>
<g id="a_node7"><a xlink:href="dir_bbf56bce9985720f86fc476f3812db24.html" target="_top" xlink:title="primitives">
<polygon fill="#edf0f7" stroke="#7f7f7f" points="417,-19 358,-19 358,0 417,0 417,-19"/>
<text text-anchor="middle" x="387.5" y="-7" font-family="Helvetica,sans-Serif" font-size="10.00">primitives</text>
</a>
</g>
</g>
<!-- dir_2b85916d314e49a6760a923b752c9952&#45;&gt;dir_bbf56bce9985720f86fc476f3812db24 -->
<g id="edge6" class="edge">
<title>dir_2b85916d314e49a6760a923b752c9952&#45;&gt;dir_bbf56bce9985720f86fc476f3812db24</title>
<path fill="none" stroke="#63b8ff" d="M266.27,-54.51C289.9,-45.93 325.74,-32.92 352.33,-23.27"/>
<polygon fill="#63b8ff" stroke="#63b8ff" points="353.47,-26.58 361.68,-19.87 351.08,-20 353.47,-26.58"/>
<g id="a_edge6&#45;headlabel"><a xlink:href="dir_000071_000061.html" target="_top" xlink:title="1">
<text text-anchor="middle" x="352.48" y="-27.46" font-family="Helvetica,sans-Serif" font-size="10.00" fill="#63b8ff">1</text>
</a>
</g>
</g>
<!-- dir_e3ad572831d545eb552494b95f9c029d -->
<g id="node8" class="node">
<title>dir_e3ad572831d545eb552494b95f9c029d</title>
<g id="a_node8"><a xlink:href="dir_e3ad572831d545eb552494b95f9c029d.html" target="_top" xlink:title="scale">
<polygon fill="#edf0f7" stroke="red" stroke-dasharray="5,2" points="475.5,-19 435.5,-19 435.5,0 475.5,0 475.5,-19"/>
<text text-anchor="middle" x="455.5" y="-7" font-family="Helvetica,sans-Serif" font-size="10.00">scale</text>
</a>
</g>
</g>
<!-- dir_2b85916d314e49a6760a923b752c9952&#45;&gt;dir_e3ad572831d545eb552494b95f9c029d -->
<g id="edge7" class="edge">
<title>dir_2b85916d314e49a6760a923b752c9952&#45;&gt;dir_e3ad572831d545eb552494b95f9c029d</title>
<path fill="none" stroke="#63b8ff" d="M275.38,-55.87C310.33,-47.9 366.65,-34.72 424.13,-19.53"/>
<polygon fill="#63b8ff" stroke="#63b8ff" points="425.03,-22.92 433.79,-16.96 423.23,-16.15 425.03,-22.92"/>
<g id="a_edge7&#45;headlabel"><a xlink:href="dir_000071_000072.html" target="_top" xlink:title="1">
<text text-anchor="middle" x="423.75" y="-23.69" font-family="Helvetica,sans-Serif" font-size="10.00" fill="#63b8ff">1</text>
</a>
</g>
</g>
</g>
</svg>
