<?xml version="1.0" encoding="UTF-8" standalone="no"?>
<!DOCTYPE svg PUBLIC "-//W3C//DTD SVG 1.1//EN"
 "http://www.w3.org/Graphics/SVG/1.1/DTD/svg11.dtd">
<!-- Generated by graphviz version 7.0.5 (20221223.1930)
 -->
<!-- Title: src/crypto/hasher Pages: 1 -->
<svg width="257pt" height="133pt"
 viewBox="0.00 0.00 257.00 133.00" xmlns="http://www.w3.org/2000/svg" xmlns:xlink="http://www.w3.org/1999/xlink">
<g id="graph0" class="graph" transform="scale(1 1) rotate(0) translate(4 129)">
<title>src/crypto/hasher</title>
<g id="clust1" class="cluster">
<title>clusterdir_4261af1259721e3e39e0d2dd7354b511</title>
<g id="a_clust1"><a xlink:href="dir_4261af1259721e3e39e0d2dd7354b511.html" target="_top" xlink:title="crypto">
<polygon fill="#edf0f7" stroke="#7f7f7f" stroke-dasharray="5,2" points="8,-8 8,-117 241,-117 241,-8 8,-8"/>
<text text-anchor="middle" x="124.5" y="-105" font-family="Helvetica,sans-Serif" font-size="10.00">crypto</text>
</a>
</g>
</g>
<!-- dir_0688506dd10da2bf05e9f59c711f9106 -->
<g id="node1" class="node">
<title>dir_0688506dd10da2bf05e9f59c711f9106</title>
<g id="a_node1"><a xlink:href="dir_0688506dd10da2bf05e9f59c711f9106.html" target="_top" xlink:title="keccak">
<polygon fill="#a2b4d6" stroke="#404040" points="64,-35 16,-35 16,-16 64,-16 64,-35"/>
<text text-anchor="middle" x="40" y="-23" font-family="Helvetica,sans-Serif" font-size="10.00">keccak</text>
</a>
</g>
</g>
<!-- dir_5d58d02fca59986ee5ebe992a52c93e9 -->
<g id="node2" class="node">
<title>dir_5d58d02fca59986ee5ebe992a52c93e9</title>
<g id="a_node2"><a xlink:href="dir_5d58d02fca59986ee5ebe992a52c93e9.html" target="_top" xlink:title="sha">
<polygon fill="#a2b4d6" stroke="#404040" points="114,-35 82,-35 82,-16 114,-16 114,-35"/>
<text text-anchor="middle" x="98" y="-23" font-family="Helvetica,sans-Serif" font-size="10.00">sha</text>
</a>
</g>
</g>
<!-- dir_b0262cfdf1651c6d86b9cfcd09f4f201 -->
<g id="node3" class="node">
<title>dir_b0262cfdf1651c6d86b9cfcd09f4f201</title>
<g id="a_node3"><a xlink:href="dir_b0262cfdf1651c6d86b9cfcd09f4f201.html" target="_top" xlink:title="twox">
<polygon fill="#a2b4d6" stroke="#404040" points="169.5,-35 132.5,-35 132.5,-16 169.5,-16 169.5,-35"/>
<text text-anchor="middle" x="151" y="-23" font-family="Helvetica,sans-Serif" font-size="10.00">twox</text>
</a>
</g>
</g>
<!-- dir_d2d150989a37ff3082b82d2021cab3f9 -->
<g id="node4" class="node">
<title>dir_d2d150989a37ff3082b82d2021cab3f9</title>
<g id="a_node4"><a xlink:href="dir_d2d150989a37ff3082b82d2021cab3f9.html" target="_top" xlink:title="blake2">
<polygon fill="#a2b4d6" stroke="#404040" points="232.5,-35 187.5,-35 187.5,-16 232.5,-16 232.5,-35"/>
<text text-anchor="middle" x="210" y="-23" font-family="Helvetica,sans-Serif" font-size="10.00">blake2</text>
</a>
</g>
</g>
<!-- dir_587bd937ce34a6958fab9075ca8bf37a -->
<g id="node5" class="node">
<title>dir_587bd937ce34a6958fab9075ca8bf37a</title>
<g id="a_node5"><a xlink:href="dir_587bd937ce34a6958fab9075ca8bf37a.html" target="_top" xlink:title="hasher">
<polygon fill="#edf0f7" stroke="#404040" stroke-width="2" points="147,-90 101,-90 101,-71 147,-71 147,-90"/>
<text text-anchor="middle" x="124" y="-78" font-family="Helvetica,sans-Serif" font-size="10.00">hasher</text>
</a>
</g>
</g>
<!-- dir_587bd937ce34a6958fab9075ca8bf37a&#45;&gt;dir_0688506dd10da2bf05e9f59c711f9106 -->
<g id="edge1" class="edge">
<title>dir_587bd937ce34a6958fab9075ca8bf37a&#45;&gt;dir_0688506dd10da2bf05e9f59c711f9106</title>
<path fill="none" stroke="#63b8ff" d="M109.75,-70.51C97.12,-62.54 78.44,-50.75 63.59,-41.38"/>
<polygon fill="#63b8ff" stroke="#63b8ff" points="65.64,-38.54 55.32,-36.17 61.91,-44.46 65.64,-38.54"/>
<g id="a_edge1&#45;headlabel"><a xlink:href="dir_000027_000053.html" target="_top" xlink:title="1">
<text text-anchor="middle" x="68.92" y="-34.75" font-family="Helvetica,sans-Serif" font-size="10.00" fill="#63b8ff">1</text>
</a>
</g>
</g>
<!-- dir_587bd937ce34a6958fab9075ca8bf37a&#45;&gt;dir_5d58d02fca59986ee5ebe992a52c93e9 -->
<g id="edge2" class="edge">
<title>dir_587bd937ce34a6958fab9075ca8bf37a&#45;&gt;dir_5d58d02fca59986ee5ebe992a52c93e9</title>
<path fill="none" stroke="#63b8ff" d="M119.71,-70.75C116.38,-63.96 111.64,-54.3 107.44,-45.73"/>
<polygon fill="#63b8ff" stroke="#63b8ff" points="110.6,-44.24 103.05,-36.8 104.32,-47.32 110.6,-44.24"/>
<g id="a_edge2&#45;headlabel"><a xlink:href="dir_000027_000076.html" target="_top" xlink:title="1">
<text text-anchor="middle" x="114.07" y="-42.36" font-family="Helvetica,sans-Serif" font-size="10.00" fill="#63b8ff">1</text>
</a>
</g>
</g>
<!-- dir_587bd937ce34a6958fab9075ca8bf37a&#45;&gt;dir_b0262cfdf1651c6d86b9cfcd09f4f201 -->
<g id="edge3" class="edge">
<title>dir_587bd937ce34a6958fab9075ca8bf37a&#45;&gt;dir_b0262cfdf1651c6d86b9cfcd09f4f201</title>
<path fill="none" stroke="#63b8ff" d="M128.46,-70.75C131.95,-63.88 136.95,-54.08 141.35,-45.45"/>
<polygon fill="#63b8ff" stroke="#63b8ff" points="144.34,-47.29 145.76,-36.79 138.1,-44.11 144.34,-47.29"/>
<g id="a_edge3&#45;headlabel"><a xlink:href="dir_000027_000087.html" target="_top" xlink:title="1">
<text text-anchor="middle" x="145.92" y="-47.93" font-family="Helvetica,sans-Serif" font-size="10.00" fill="#63b8ff">1</text>
</a>
</g>
</g>
<!-- dir_587bd937ce34a6958fab9075ca8bf37a&#45;&gt;dir_d2d150989a37ff3082b82d2021cab3f9 -->
<g id="edge4" class="edge">
<title>dir_587bd937ce34a6958fab9075ca8bf37a&#45;&gt;dir_d2d150989a37ff3082b82d2021cab3f9</title>
<path fill="none" stroke="#63b8ff" d="M138.59,-70.51C151.52,-62.54 170.64,-50.75 185.85,-41.38"/>
<polygon fill="#63b8ff" stroke="#63b8ff" points="187.66,-44.38 194.34,-36.15 183.99,-38.42 187.66,-44.38"/>
<g id="a_edge4&#45;headlabel"><a xlink:href="dir_000027_000009.html" target="_top" xlink:title="2">
<text text-anchor="middle" x="187.38" y="-45.39" font-family="Helvetica,sans-Serif" font-size="10.00" fill="#63b8ff">2</text>
</a>
</g>
</g>
</g>
</svg>
