<?xml version="1.0" encoding="UTF-8" standalone="no"?>
<!DOCTYPE svg PUBLIC "-//W3C//DTD SVG 1.1//EN"
 "http://www.w3.org/Graphics/SVG/1.1/DTD/svg11.dtd">
<!-- Generated by graphviz version 7.0.5 (20221223.1930)
 -->
<!-- Title: src/primitives Pages: 1 -->
<svg width="351pt" height="133pt"
 viewBox="0.00 0.00 351.00 133.00" xmlns="http://www.w3.org/2000/svg" xmlns:xlink="http://www.w3.org/1999/xlink">
<g id="graph0" class="graph" transform="scale(1 1) rotate(0) translate(4 129)">
<title>src/primitives</title>
<g id="clust1" class="cluster">
<title>clusterdir_68267d1309a1af8e8297ef4c3efbcdba</title>
<g id="a_clust1"><a xlink:href="dir_68267d1309a1af8e8297ef4c3efbcdba.html" target="_top" xlink:title="src">
<polygon fill="#edf0f7" stroke="#404040" stroke-dasharray="5,2" points="8,-8 8,-117 335,-117 335,-8 8,-8"/>
<text text-anchor="middle" x="171.5" y="-105" font-family="Helvetica,sans-Serif" font-size="10.00">src</text>
</a>
</g>
</g>
<!-- dir_0af1587c8378955de40f48b4bd1869f0 -->
<g id="node1" class="node">
<title>dir_0af1587c8378955de40f48b4bd1869f0</title>
<g id="a_node1"><a xlink:href="dir_0af1587c8378955de40f48b4bd1869f0.html" target="_top" xlink:title="base">
<polygon fill="#a2b4d6" stroke="#404040" points="54,-35 16,-35 16,-16 54,-16 54,-35"/>
<text text-anchor="middle" x="35" y="-23" font-family="Helvetica,sans-Serif" font-size="10.00">base</text>
</a>
</g>
</g>
<!-- dir_4261af1259721e3e39e0d2dd7354b511 -->
<g id="node2" class="node">
<title>dir_4261af1259721e3e39e0d2dd7354b511</title>
<g id="a_node2"><a xlink:href="dir_4261af1259721e3e39e0d2dd7354b511.html" target="_top" xlink:title="crypto">
<polygon fill="#a2b4d6" stroke="red" points="115.5,-35 72.5,-35 72.5,-16 115.5,-16 115.5,-35"/>
<text text-anchor="middle" x="94" y="-23" font-family="Helvetica,sans-Serif" font-size="10.00">crypto</text>
</a>
</g>
</g>
<!-- dir_54b1e6c540d67b59af2f275fe685da39 -->
<g id="node3" class="node">
<title>dir_54b1e6c540d67b59af2f275fe685da39</title>
<g id="a_node3"><a xlink:href="dir_54b1e6c540d67b59af2f275fe685da39.html" target="_top" xlink:title="verification">
<polygon fill="#a2b4d6" stroke="red" points="196.5,-35 133.5,-35 133.5,-16 196.5,-16 196.5,-35"/>
<text text-anchor="middle" x="165" y="-23" font-family="Helvetica,sans-Serif" font-size="10.00">verification</text>
</a>
</g>
</g>
<!-- dir_7be59ee8c4293a2ed5de3468b8a07cd9 -->
<g id="node4" class="node">
<title>dir_7be59ee8c4293a2ed5de3468b8a07cd9</title>
<g id="a_node4"><a xlink:href="dir_7be59ee8c4293a2ed5de3468b8a07cd9.html" target="_top" xlink:title="outcome">
<polygon fill="#a2b4d6" stroke="#404040" points="269,-35 215,-35 215,-16 269,-16 269,-35"/>
<text text-anchor="middle" x="242" y="-23" font-family="Helvetica,sans-Serif" font-size="10.00">outcome</text>
</a>
</g>
</g>
<!-- dir_e3ad572831d545eb552494b95f9c029d -->
<g id="node5" class="node">
<title>dir_e3ad572831d545eb552494b95f9c029d</title>
<g id="a_node5"><a xlink:href="dir_e3ad572831d545eb552494b95f9c029d.html" target="_top" xlink:title="scale">
<polygon fill="#a2b4d6" stroke="red" points="327,-35 287,-35 287,-16 327,-16 327,-35"/>
<text text-anchor="middle" x="307" y="-23" font-family="Helvetica,sans-Serif" font-size="10.00">scale</text>
</a>
</g>
</g>
<!-- dir_bbf56bce9985720f86fc476f3812db24 -->
<g id="node6" class="node">
<title>dir_bbf56bce9985720f86fc476f3812db24</title>
<g id="a_node6"><a xlink:href="dir_bbf56bce9985720f86fc476f3812db24.html" target="_top" xlink:title="primitives">
<polygon fill="#edf0f7" stroke="#404040" stroke-width="2" points="194.5,-90 135.5,-90 135.5,-71 194.5,-71 194.5,-90"/>
<text text-anchor="middle" x="165" y="-78" font-family="Helvetica,sans-Serif" font-size="10.00">primitives</text>
</a>
</g>
</g>
<!-- dir_bbf56bce9985720f86fc476f3812db24&#45;&gt;dir_0af1587c8378955de40f48b4bd1869f0 -->
<g id="edge1" class="edge">
<title>dir_bbf56bce9985720f86fc476f3812db24&#45;&gt;dir_0af1587c8378955de40f48b4bd1869f0</title>
<path fill="none" stroke="#63b8ff" d="M142.95,-70.51C121.43,-61.74 88.56,-48.34 64.74,-38.63"/>
<polygon fill="#63b8ff" stroke="#63b8ff" points="66.17,-35.43 55.59,-34.9 63.53,-41.91 66.17,-35.43"/>
<g id="a_edge1&#45;headlabel"><a xlink:href="dir_000061_000006.html" target="_top" xlink:title="14">
<text text-anchor="middle" x="69.17" y="-31.09" font-family="Helvetica,sans-Serif" font-size="10.00" fill="#63b8ff">14</text>
</a>
</g>
</g>
<!-- dir_bbf56bce9985720f86fc476f3812db24&#45;&gt;dir_4261af1259721e3e39e0d2dd7354b511 -->
<g id="edge2" class="edge">
<title>dir_bbf56bce9985720f86fc476f3812db24&#45;&gt;dir_4261af1259721e3e39e0d2dd7354b511</title>
<path fill="none" stroke="#63b8ff" d="M152.96,-70.51C142.59,-62.77 127.4,-51.43 115.03,-42.2"/>
<polygon fill="#63b8ff" stroke="#63b8ff" points="117.19,-39.44 107.08,-36.26 113,-45.05 117.19,-39.44"/>
<g id="a_edge2&#45;headlabel"><a xlink:href="dir_000061_000017.html" target="_top" xlink:title="1">
<text text-anchor="middle" x="120.55" y="-35.91" font-family="Helvetica,sans-Serif" font-size="10.00" fill="#63b8ff">1</text>
</a>
</g>
</g>
<!-- dir_bbf56bce9985720f86fc476f3812db24&#45;&gt;dir_54b1e6c540d67b59af2f275fe685da39 -->
<g id="edge3" class="edge">
<title>dir_bbf56bce9985720f86fc476f3812db24&#45;&gt;dir_54b1e6c540d67b59af2f275fe685da39</title>
<path fill="none" stroke="#63b8ff" d="M165,-70.75C165,-64.27 165,-55.16 165,-46.9"/>
<polygon fill="#63b8ff" stroke="#63b8ff" points="168.5,-46.96 165,-36.96 161.5,-46.96 168.5,-46.96"/>
<g id="a_edge3&#45;headlabel"><a xlink:href="dir_000061_000091.html" target="_top" xlink:title="1">
<text text-anchor="middle" x="171.34" y="-46.54" font-family="Helvetica,sans-Serif" font-size="10.00" fill="#63b8ff">1</text>
</a>
</g>
</g>
<!-- dir_bbf56bce9985720f86fc476f3812db24&#45;&gt;dir_7be59ee8c4293a2ed5de3468b8a07cd9 -->
<g id="edge4" class="edge">
<title>dir_bbf56bce9985720f86fc476f3812db24&#45;&gt;dir_7be59ee8c4293a2ed5de3468b8a07cd9</title>
<path fill="none" stroke="#63b8ff" d="M178.06,-70.51C189.52,-62.62 206.43,-50.98 219.98,-41.65"/>
<polygon fill="#63b8ff" stroke="#63b8ff" points="221.63,-44.77 227.88,-36.22 217.66,-39 221.63,-44.77"/>
<g id="a_edge4&#45;headlabel"><a xlink:href="dir_000061_000058.html" target="_top" xlink:title="2">
<text text-anchor="middle" x="221.53" y="-45.79" font-family="Helvetica,sans-Serif" font-size="10.00" fill="#63b8ff">2</text>
</a>
</g>
</g>
<!-- dir_bbf56bce9985720f86fc476f3812db24&#45;&gt;dir_e3ad572831d545eb552494b95f9c029d -->
<g id="edge5" class="edge">
<title>dir_bbf56bce9985720f86fc476f3812db24&#45;&gt;dir_e3ad572831d545eb552494b95f9c029d</title>
<path fill="none" stroke="#63b8ff" d="M189.09,-70.51C213.18,-61.52 250.32,-47.65 276.47,-37.9"/>
<polygon fill="#63b8ff" stroke="#63b8ff" points="277.37,-41.3 285.51,-34.52 274.92,-34.74 277.37,-41.3"/>
<g id="a_edge5&#45;headlabel"><a xlink:href="dir_000061_000072.html" target="_top" xlink:title="3">
<text text-anchor="middle" x="276.41" y="-42.18" font-family="Helvetica,sans-Serif" font-size="10.00" fill="#63b8ff">3</text>
</a>
</g>
</g>
</g>
</svg>
