<?xml version="1.0" encoding="UTF-8" standalone="no"?>
<!DOCTYPE svg PUBLIC "-//W3C//DTD SVG 1.1//EN"
 "http://www.w3.org/Graphics/SVG/1.1/DTD/svg11.dtd">
<!-- Generated by graphviz version 7.0.5 (20221223.1930)
 -->
<!-- Title: src/verification/finality/impl Pages: 1 -->
<svg width="853pt" height="133pt"
 viewBox="0.00 0.00 852.50 133.00" xmlns="http://www.w3.org/2000/svg" xmlns:xlink="http://www.w3.org/1999/xlink">
<g id="graph0" class="graph" transform="scale(1 1) rotate(0) translate(4 129)">
<title>src/verification/finality/impl</title>
<g id="clust1" class="cluster">
<title>clusterdir_1821253fa6cbfd615ad68c85af377eb7</title>
<g id="a_clust1"><a xlink:href="dir_1821253fa6cbfd615ad68c85af377eb7.html" target="_top" xlink:title="finality">
<polygon fill="#edf0f7" stroke="#7f7f7f" stroke-dasharray="5,2" points="8,-8 8,-117 90,-117 90,-8 8,-8"/>
<text text-anchor="middle" x="49" y="-105" font-family="Helvetica,sans-Serif" font-size="10.00">finality</text>
</a>
</g>
</g>
<!-- dir_f7902e615f6c33f2a6c4fa209c8be933 -->
<g id="node1" class="node">
<title>dir_f7902e615f6c33f2a6c4fa209c8be933</title>
<g id="a_node1"><a xlink:href="dir_f7902e615f6c33f2a6c4fa209c8be933.html" target="_top" xlink:title="vote_graph">
<polygon fill="#a2b4d6" stroke="#404040" points="81.5,-35 16.5,-35 16.5,-16 81.5,-16 81.5,-35"/>
<text text-anchor="middle" x="49" y="-23" font-family="Helvetica,sans-Serif" font-size="10.00">vote_graph</text>
</a>
</g>
</g>
<!-- dir_8e301706a02d5696c3d76ae0dfac3361 -->
<g id="node2" class="node">
<title>dir_8e301706a02d5696c3d76ae0dfac3361</title>
<g id="a_node2"><a xlink:href="dir_8e301706a02d5696c3d76ae0dfac3361.html" target="_top" xlink:title="impl">
<polygon fill="#edf0f7" stroke="#404040" stroke-width="2" points="81.5,-90 46.5,-90 46.5,-71 81.5,-71 81.5,-90"/>
<text text-anchor="middle" x="64" y="-78" font-family="Helvetica,sans-Serif" font-size="10.00">impl</text>
</a>
</g>
</g>
<!-- dir_8e301706a02d5696c3d76ae0dfac3361&#45;&gt;dir_f7902e615f6c33f2a6c4fa209c8be933 -->
<g id="edge11" class="edge">
<title>dir_8e301706a02d5696c3d76ae0dfac3361&#45;&gt;dir_f7902e615f6c33f2a6c4fa209c8be933</title>
<path fill="none" stroke="#63b8ff" d="M61.52,-70.75C59.65,-64.11 56.99,-54.73 54.61,-46.31"/>
<polygon fill="#63b8ff" stroke="#63b8ff" points="58.03,-45.57 51.94,-36.9 51.3,-47.47 58.03,-45.57"/>
<g id="a_edge11&#45;headlabel"><a xlink:href="dir_000048_000092.html" target="_top" xlink:title="1">
<text text-anchor="middle" x="61.33" y="-44.3" font-family="Helvetica,sans-Serif" font-size="10.00" fill="#63b8ff">1</text>
</a>
</g>
</g>
<!-- dir_028cfb450258cb26cf2de4f75f6778d5 -->
<g id="node3" class="node">
<title>dir_028cfb450258cb26cf2de4f75f6778d5</title>
<g id="a_node3"><a xlink:href="dir_028cfb450258cb26cf2de4f75f6778d5.html" target="_top" xlink:title="blockchain">
<polygon fill="#edf0f7" stroke="red" stroke-dasharray="5,2" points="162.5,-35 99.5,-35 99.5,-16 162.5,-16 162.5,-35"/>
<text text-anchor="middle" x="131" y="-23" font-family="Helvetica,sans-Serif" font-size="10.00">blockchain</text>
</a>
</g>
</g>
<!-- dir_8e301706a02d5696c3d76ae0dfac3361&#45;&gt;dir_028cfb450258cb26cf2de4f75f6778d5 -->
<g id="edge1" class="edge">
<title>dir_8e301706a02d5696c3d76ae0dfac3361&#45;&gt;dir_028cfb450258cb26cf2de4f75f6778d5</title>
<path fill="none" stroke="#63b8ff" d="M75.37,-70.51C85.05,-62.85 99.2,-51.66 110.81,-42.47"/>
<polygon fill="#63b8ff" stroke="#63b8ff" points="112.94,-45.25 118.62,-36.3 108.6,-39.76 112.94,-45.25"/>
<g id="a_edge1&#45;headlabel"><a xlink:href="dir_000048_000010.html" target="_top" xlink:title="3">
<text text-anchor="middle" x="113.07" y="-46.26" font-family="Helvetica,sans-Serif" font-size="10.00" fill="#63b8ff">3</text>
</a>
</g>
</g>
<!-- dir_0af1587c8378955de40f48b4bd1869f0 -->
<g id="node4" class="node">
<title>dir_0af1587c8378955de40f48b4bd1869f0</title>
<g id="a_node4"><a xlink:href="dir_0af1587c8378955de40f48b4bd1869f0.html" target="_top" xlink:title="base">
<polygon fill="#edf0f7" stroke="#7f7f7f" points="219,-35 181,-35 181,-16 219,-16 219,-35"/>
<text text-anchor="middle" x="200" y="-23" font-family="Helvetica,sans-Serif" font-size="10.00">base</text>
</a>
</g>
</g>
<!-- dir_8e301706a02d5696c3d76ae0dfac3361&#45;&gt;dir_0af1587c8378955de40f48b4bd1869f0 -->
<g id="edge2" class="edge">
<title>dir_8e301706a02d5696c3d76ae0dfac3361&#45;&gt;dir_0af1587c8378955de40f48b4bd1869f0</title>
<path fill="none" stroke="#63b8ff" d="M81.78,-72.57C104.31,-63.79 143.45,-48.54 170.49,-38"/>
<polygon fill="#63b8ff" stroke="#63b8ff" points="171.44,-41.38 179.49,-34.49 168.9,-34.86 171.44,-41.38"/>
<g id="a_edge2&#45;headlabel"><a xlink:href="dir_000048_000006.html" target="_top" xlink:title="8">
<text text-anchor="middle" x="170.54" y="-42.29" font-family="Helvetica,sans-Serif" font-size="10.00" fill="#63b8ff">8</text>
</a>
</g>
</g>
<!-- dir_4261af1259721e3e39e0d2dd7354b511 -->
<g id="node5" class="node">
<title>dir_4261af1259721e3e39e0d2dd7354b511</title>
<g id="a_node5"><a xlink:href="dir_4261af1259721e3e39e0d2dd7354b511.html" target="_top" xlink:title="crypto">
<polygon fill="#edf0f7" stroke="red" stroke-dasharray="5,2" points="280.5,-35 237.5,-35 237.5,-16 280.5,-16 280.5,-35"/>
<text text-anchor="middle" x="259" y="-23" font-family="Helvetica,sans-Serif" font-size="10.00">crypto</text>
</a>
</g>
</g>
<!-- dir_8e301706a02d5696c3d76ae0dfac3361&#45;&gt;dir_4261af1259721e3e39e0d2dd7354b511 -->
<g id="edge3" class="edge">
<title>dir_8e301706a02d5696c3d76ae0dfac3361&#45;&gt;dir_4261af1259721e3e39e0d2dd7354b511</title>
<path fill="none" stroke="#63b8ff" d="M81.72,-74.71C110.04,-67.05 167.51,-51.49 226.33,-35.45"/>
<polygon fill="#63b8ff" stroke="#63b8ff" points="227.13,-38.86 235.86,-32.85 225.29,-32.1 227.13,-38.86"/>
<g id="a_edge3&#45;headlabel"><a xlink:href="dir_000048_000017.html" target="_top" xlink:title="3">
<text text-anchor="middle" x="225.87" y="-39.64" font-family="Helvetica,sans-Serif" font-size="10.00" fill="#63b8ff">3</text>
</a>
</g>
</g>
<!-- dir_452baf35e1d7639c9f2a5ece4ec85855 -->
<g id="node6" class="node">
<title>dir_452baf35e1d7639c9f2a5ece4ec85855</title>
<g id="a_node6"><a xlink:href="dir_452baf35e1d7639c9f2a5ece4ec85855.html" target="_top" xlink:title="storage">
<polygon fill="#edf0f7" stroke="red" stroke-dasharray="5,2" points="347.5,-35 298.5,-35 298.5,-16 347.5,-16 347.5,-35"/>
<text text-anchor="middle" x="323" y="-23" font-family="Helvetica,sans-Serif" font-size="10.00">storage</text>
</a>
</g>
</g>
<!-- dir_8e301706a02d5696c3d76ae0dfac3361&#45;&gt;dir_452baf35e1d7639c9f2a5ece4ec85855 -->
<g id="edge4" class="edge">
<title>dir_8e301706a02d5696c3d76ae0dfac3361&#45;&gt;dir_452baf35e1d7639c9f2a5ece4ec85855</title>
<path fill="none" stroke="#63b8ff" d="M81.95,-76.33C118.64,-69.77 205.12,-53.93 287.15,-35.55"/>
<polygon fill="#63b8ff" stroke="#63b8ff" points="287.71,-39.01 296.69,-33.39 286.17,-32.18 287.71,-39.01"/>
<g id="a_edge4&#45;headlabel"><a xlink:href="dir_000048_000080.html" target="_top" xlink:title="3">
<text text-anchor="middle" x="286.31" y="-39.74" font-family="Helvetica,sans-Serif" font-size="10.00" fill="#63b8ff">3</text>
</a>
</g>
</g>
<!-- dir_56f8bb20013cd868aedfcd850a309f20 -->
<g id="node7" class="node">
<title>dir_56f8bb20013cd868aedfcd850a309f20</title>
<g id="a_node7"><a xlink:href="dir_56f8bb20013cd868aedfcd850a309f20.html" target="_top" xlink:title="authority">
<polygon fill="#edf0f7" stroke="red" stroke-dasharray="5,2" points="418.5,-35 365.5,-35 365.5,-16 418.5,-16 418.5,-35"/>
<text text-anchor="middle" x="392" y="-23" font-family="Helvetica,sans-Serif" font-size="10.00">authority</text>
</a>
</g>
</g>
<!-- dir_8e301706a02d5696c3d76ae0dfac3361&#45;&gt;dir_56f8bb20013cd868aedfcd850a309f20 -->
<g id="edge5" class="edge">
<title>dir_8e301706a02d5696c3d76ae0dfac3361&#45;&gt;dir_56f8bb20013cd868aedfcd850a309f20</title>
<path fill="none" stroke="#63b8ff" d="M81.93,-77.33C126.35,-71.85 245.26,-56.45 354.12,-35.43"/>
<polygon fill="#63b8ff" stroke="#63b8ff" points="354.67,-38.88 363.81,-33.53 353.33,-32.01 354.67,-38.88"/>
<g id="a_edge5&#45;headlabel"><a xlink:href="dir_000048_000004.html" target="_top" xlink:title="1">
<text text-anchor="middle" x="353.18" y="-39.57" font-family="Helvetica,sans-Serif" font-size="10.00" fill="#63b8ff">1</text>
</a>
</g>
</g>
<!-- dir_7be59ee8c4293a2ed5de3468b8a07cd9 -->
<g id="node8" class="node">
<title>dir_7be59ee8c4293a2ed5de3468b8a07cd9</title>
<g id="a_node8"><a xlink:href="dir_7be59ee8c4293a2ed5de3468b8a07cd9.html" target="_top" xlink:title="outcome">
<polygon fill="#edf0f7" stroke="#7f7f7f" points="491,-35 437,-35 437,-16 491,-16 491,-35"/>
<text text-anchor="middle" x="464" y="-23" font-family="Helvetica,sans-Serif" font-size="10.00">outcome</text>
</a>
</g>
</g>
<!-- dir_8e301706a02d5696c3d76ae0dfac3361&#45;&gt;dir_7be59ee8c4293a2ed5de3468b8a07cd9 -->
<g id="edge6" class="edge">
<title>dir_8e301706a02d5696c3d76ae0dfac3361&#45;&gt;dir_7be59ee8c4293a2ed5de3468b8a07cd9</title>
<path fill="none" stroke="#63b8ff" d="M81.91,-78.02C133.6,-73.58 287.65,-59.34 425.4,-35.29"/>
<polygon fill="#63b8ff" stroke="#63b8ff" points="425.82,-38.77 435.06,-33.57 424.6,-31.87 425.82,-38.77"/>
<g id="a_edge6&#45;headlabel"><a xlink:href="dir_000048_000058.html" target="_top" xlink:title="1">
<text text-anchor="middle" x="424.27" y="-39.42" font-family="Helvetica,sans-Serif" font-size="10.00" fill="#63b8ff">1</text>
</a>
</g>
</g>
<!-- dir_844f6ab5c2ae79211596f3dcdd81adb7 -->
<g id="node9" class="node">
<title>dir_844f6ab5c2ae79211596f3dcdd81adb7</title>
<g id="a_node9"><a xlink:href="dir_844f6ab5c2ae79211596f3dcdd81adb7.html" target="_top" xlink:title="application">
<polygon fill="#edf0f7" stroke="red" stroke-dasharray="5,2" points="572.5,-35 509.5,-35 509.5,-16 572.5,-16 572.5,-35"/>
<text text-anchor="middle" x="541" y="-23" font-family="Helvetica,sans-Serif" font-size="10.00">application</text>
</a>
</g>
</g>
<!-- dir_8e301706a02d5696c3d76ae0dfac3361&#45;&gt;dir_844f6ab5c2ae79211596f3dcdd81adb7 -->
<g id="edge7" class="edge">
<title>dir_8e301706a02d5696c3d76ae0dfac3361&#45;&gt;dir_844f6ab5c2ae79211596f3dcdd81adb7</title>
<path fill="none" stroke="#63b8ff" d="M81.94,-78.33C140.29,-74.4 330.11,-60.51 497.99,-35.14"/>
<polygon fill="#63b8ff" stroke="#63b8ff" points="498.42,-38.62 507.78,-33.64 497.36,-31.7 498.42,-38.62"/>
<g id="a_edge7&#45;headlabel"><a xlink:href="dir_000048_000002.html" target="_top" xlink:title="1">
<text text-anchor="middle" x="496.8" y="-39.24" font-family="Helvetica,sans-Serif" font-size="10.00" fill="#63b8ff">1</text>
</a>
</g>
</g>
<!-- dir_bbf56bce9985720f86fc476f3812db24 -->
<g id="node10" class="node">
<title>dir_bbf56bce9985720f86fc476f3812db24</title>
<g id="a_node10"><a xlink:href="dir_bbf56bce9985720f86fc476f3812db24.html" target="_top" xlink:title="primitives">
<polygon fill="#edf0f7" stroke="#7f7f7f" points="649.5,-35 590.5,-35 590.5,-16 649.5,-16 649.5,-35"/>
<text text-anchor="middle" x="620" y="-23" font-family="Helvetica,sans-Serif" font-size="10.00">primitives</text>
</a>
</g>
</g>
<!-- dir_8e301706a02d5696c3d76ae0dfac3361&#45;&gt;dir_bbf56bce9985720f86fc476f3812db24 -->
<g id="edge8" class="edge">
<title>dir_8e301706a02d5696c3d76ae0dfac3361&#45;&gt;dir_bbf56bce9985720f86fc476f3812db24</title>
<path fill="none" stroke="#63b8ff" d="M82,-78.83C147.4,-76.21 378.72,-65.38 578.88,-35.29"/>
<polygon fill="#63b8ff" stroke="#63b8ff" points="579.35,-38.76 588.7,-33.79 578.29,-31.84 579.35,-38.76"/>
<g id="a_edge8&#45;headlabel"><a xlink:href="dir_000048_000061.html" target="_top" xlink:title="1">
<text text-anchor="middle" x="577.72" y="-39.38" font-family="Helvetica,sans-Serif" font-size="10.00" fill="#63b8ff">1</text>
</a>
</g>
</g>
<!-- dir_bf9f26469d00835ba20ff8d80ee5a804 -->
<g id="node11" class="node">
<title>dir_bf9f26469d00835ba20ff8d80ee5a804</title>
<g id="a_node11"><a xlink:href="dir_bf9f26469d00835ba20ff8d80ee5a804.html" target="_top" xlink:title="runtime">
<polygon fill="#edf0f7" stroke="red" stroke-dasharray="5,2" points="716.5,-35 667.5,-35 667.5,-16 716.5,-16 716.5,-35"/>
<text text-anchor="middle" x="692" y="-23" font-family="Helvetica,sans-Serif" font-size="10.00">runtime</text>
</a>
</g>
</g>
<!-- dir_8e301706a02d5696c3d76ae0dfac3361&#45;&gt;dir_bf9f26469d00835ba20ff8d80ee5a804 -->
<g id="edge9" class="edge">
<title>dir_8e301706a02d5696c3d76ae0dfac3361&#45;&gt;dir_bf9f26469d00835ba20ff8d80ee5a804</title>
<path fill="none" stroke="#63b8ff" d="M81.66,-79.32C152.65,-78.36 424.17,-72.43 655.88,-35.23"/>
<polygon fill="#63b8ff" stroke="#63b8ff" points="656.43,-38.69 665.74,-33.63 655.31,-31.78 656.43,-38.69"/>
<g id="a_edge9&#45;headlabel"><a xlink:href="dir_000048_000070.html" target="_top" xlink:title="1">
<text text-anchor="middle" x="654.84" y="-39.33" font-family="Helvetica,sans-Serif" font-size="10.00" fill="#63b8ff">1</text>
</a>
</g>
</g>
<!-- dir_e3ad572831d545eb552494b95f9c029d -->
<g id="node12" class="node">
<title>dir_e3ad572831d545eb552494b95f9c029d</title>
<g id="a_node12"><a xlink:href="dir_e3ad572831d545eb552494b95f9c029d.html" target="_top" xlink:title="scale">
<polygon fill="#edf0f7" stroke="red" stroke-dasharray="5,2" points="775,-35 735,-35 735,-16 775,-16 775,-35"/>
<text text-anchor="middle" x="755" y="-23" font-family="Helvetica,sans-Serif" font-size="10.00">scale</text>
</a>
</g>
</g>
<!-- dir_8e301706a02d5696c3d76ae0dfac3361&#45;&gt;dir_e3ad572831d545eb552494b95f9c029d -->
<g id="edge10" class="edge">
<title>dir_8e301706a02d5696c3d76ae0dfac3361&#45;&gt;dir_e3ad572831d545eb552494b95f9c029d</title>
<path fill="none" stroke="#63b8ff" d="M81.82,-79.72C158.08,-80.36 464.53,-79.97 723.41,-35.06"/>
<polygon fill="#63b8ff" stroke="#63b8ff" points="723.81,-38.55 733.05,-33.36 722.59,-31.65 723.81,-38.55"/>
<g id="a_edge10&#45;headlabel"><a xlink:href="dir_000048_000072.html" target="_top" xlink:title="3">
<text text-anchor="middle" x="722.25" y="-39.2" font-family="Helvetica,sans-Serif" font-size="10.00" fill="#63b8ff">3</text>
</a>
</g>
</g>
<!-- dir_fc4c7f03e1a69a98c370fae55a743828 -->
<g id="node13" class="node">
<title>dir_fc4c7f03e1a69a98c370fae55a743828</title>
<g id="a_node13"><a xlink:href="dir_fc4c7f03e1a69a98c370fae55a743828.html" target="_top" xlink:title="network">
<polygon fill="#edf0f7" stroke="red" stroke-dasharray="5,2" points="844.5,-35 793.5,-35 793.5,-16 844.5,-16 844.5,-35"/>
<text text-anchor="middle" x="819" y="-23" font-family="Helvetica,sans-Serif" font-size="10.00">network</text>
</a>
</g>
</g>
<!-- dir_8e301706a02d5696c3d76ae0dfac3361&#45;&gt;dir_fc4c7f03e1a69a98c370fae55a743828 -->
<g id="edge12" class="edge">
<title>dir_8e301706a02d5696c3d76ae0dfac3361&#45;&gt;dir_fc4c7f03e1a69a98c370fae55a743828</title>
<path fill="none" stroke="#63b8ff" d="M81.94,-79.55C162.33,-79.55 497.61,-76.99 781.75,-35.03"/>
<polygon fill="#63b8ff" stroke="#63b8ff" points="782.24,-38.5 791.61,-33.55 781.2,-31.57 782.24,-38.5"/>
<g id="a_edge12&#45;headlabel"><a xlink:href="dir_000048_000056.html" target="_top" xlink:title="1">
<text text-anchor="middle" x="780.6" y="-39.11" font-family="Helvetica,sans-Serif" font-size="10.00" fill="#63b8ff">1</text>
</a>
</g>
</g>
</g>
</svg>
