<?xml version="1.0" encoding="UTF-8" standalone="no"?>
<!DOCTYPE svg PUBLIC "-//W3C//DTD SVG 1.1//EN"
 "http://www.w3.org/Graphics/SVG/1.1/DTD/svg11.dtd">
<!-- Generated by graphviz version 7.0.5 (20221223.1930)
 -->
<!-- Title: src/crypto/bip39/entropy_accumulator.hpp Pages: 1 -->
<svg width="768pt" height="522pt"
 viewBox="0.00 0.00 767.50 522.00" xmlns="http://www.w3.org/2000/svg" xmlns:xlink="http://www.w3.org/1999/xlink">
<g id="graph0" class="graph" transform="scale(1 1) rotate(0) translate(4 518)">
<title>src/crypto/bip39/entropy_accumulator.hpp</title>
<!-- Node1 -->
<g id="node1" class="node">
<title>Node1</title>
<g id="a_node1"><a xlink:title=" ">
<polygon fill="#999999" stroke="#666666" points="359.5,-514 239.5,-514 239.5,-484 359.5,-484 359.5,-514"/>
<text text-anchor="start" x="247.5" y="-502" font-family="Helvetica,sans-Serif" font-size="10.00">src/crypto/bip39/entropy</text>
<text text-anchor="middle" x="299.5" y="-491" font-family="Helvetica,sans-Serif" font-size="10.00">_accumulator.hpp</text>
</a>
</g>
</g>
<!-- Node2 -->
<g id="node2" class="node">
<title>Node2</title>
<g id="a_node2"><a xlink:href="dictionary_8cpp.html" target="_top" xlink:title=" ">
<polygon fill="white" stroke="#666666" points="174.5,-376.5 26.5,-376.5 26.5,-357.5 174.5,-357.5 174.5,-376.5"/>
<text text-anchor="middle" x="100.5" y="-364.5" font-family="Helvetica,sans-Serif" font-size="10.00">src/crypto/bip39/dictionary.cpp</text>
</a>
</g>
</g>
<!-- Node1&#45;&gt;Node2 -->
<g id="edge1" class="edge">
<title>Node1&#45;&gt;Node2</title>
<path fill="none" stroke="#63b8ff" d="M229.87,-479.86C208.03,-472.18 184.65,-461.75 165.5,-448 137.74,-428.06 115.22,-393.34 105.57,-377"/>
<polygon fill="#63b8ff" stroke="#63b8ff" points="228.75,-483.18 239.34,-483.04 230.97,-476.54 228.75,-483.18"/>
</g>
<!-- Node3 -->
<g id="node3" class="node">
<title>Node3</title>
<g id="a_node3"><a xlink:href="dictionary_8hpp.html" target="_top" xlink:title=" ">
<polygon fill="white" stroke="#666666" points="322.5,-442.5 174.5,-442.5 174.5,-423.5 322.5,-423.5 322.5,-442.5"/>
<text text-anchor="middle" x="248.5" y="-430.5" font-family="Helvetica,sans-Serif" font-size="10.00">src/crypto/bip39/dictionary.hpp</text>
</a>
</g>
</g>
<!-- Node1&#45;&gt;Node3 -->
<g id="edge2" class="edge">
<title>Node1&#45;&gt;Node3</title>
<path fill="none" stroke="#63b8ff" d="M281.13,-474.95C272.26,-463.81 262.13,-451.11 255.55,-442.84"/>
<polygon fill="#63b8ff" stroke="#63b8ff" points="278.27,-476.97 287.24,-482.61 283.74,-472.61 278.27,-476.97"/>
</g>
<!-- Node5 -->
<g id="node5" class="node">
<title>Node5</title>
<g id="a_node5"><a xlink:href="bip39__provider__impl_8cpp.html" target="_top" xlink:title=" ">
<polygon fill="white" stroke="#666666" points="433.5,-316 309.5,-316 309.5,-286 433.5,-286 433.5,-316"/>
<text text-anchor="start" x="317.5" y="-304" font-family="Helvetica,sans-Serif" font-size="10.00">src/crypto/bip39/impl</text>
<text text-anchor="middle" x="371.5" y="-293" font-family="Helvetica,sans-Serif" font-size="10.00">/bip39_provider_impl.cpp</text>
</a>
</g>
</g>
<!-- Node1&#45;&gt;Node5 -->
<g id="edge25" class="edge">
<title>Node1&#45;&gt;Node5</title>
<path fill="none" stroke="#63b8ff" d="M316.73,-474.32C322.02,-466.26 327.5,-457.01 331.5,-448 352,-401.89 364.25,-342.82 369.09,-316.17"/>
<polygon fill="#63b8ff" stroke="#63b8ff" points="313.86,-472.31 311.1,-482.53 319.64,-476.26 313.86,-472.31"/>
</g>
<!-- Node22 -->
<g id="node22" class="node">
<title>Node22</title>
<g id="a_node22"><a xlink:href="entropy__accumulator_8cpp.html" target="_top" xlink:title=" ">
<polygon fill="white" stroke="#666666" points="498.5,-448 378.5,-448 378.5,-418 498.5,-418 498.5,-448"/>
<text text-anchor="start" x="386.5" y="-436" font-family="Helvetica,sans-Serif" font-size="10.00">src/crypto/bip39/entropy</text>
<text text-anchor="middle" x="438.5" y="-425" font-family="Helvetica,sans-Serif" font-size="10.00">_accumulator.cpp</text>
</a>
</g>
</g>
<!-- Node1&#45;&gt;Node22 -->
<g id="edge24" class="edge">
<title>Node1&#45;&gt;Node22</title>
<path fill="none" stroke="#63b8ff" d="M341.08,-478.86C362.37,-469.05 387.85,-457.32 407.41,-448.31"/>
<polygon fill="#63b8ff" stroke="#63b8ff" points="339.69,-475.64 332.07,-483 342.62,-482 339.69,-475.64"/>
</g>
<!-- Node3&#45;&gt;Node2 -->
<g id="edge3" class="edge">
<title>Node3&#45;&gt;Node2</title>
<path fill="none" stroke="#63b8ff" d="M217.52,-418.6C188.48,-406.04 145.89,-387.63 120.9,-376.82"/>
<polygon fill="#63b8ff" stroke="#63b8ff" points="215.96,-421.74 226.53,-422.5 218.74,-415.32 215.96,-421.74"/>
</g>
<!-- Node4 -->
<g id="node4" class="node">
<title>Node4</title>
<g id="a_node4"><a xlink:href="bip39__provider__impl_8hpp.html" target="_top" xlink:title=" ">
<polygon fill="white" stroke="#666666" points="316.5,-382 192.5,-382 192.5,-352 316.5,-352 316.5,-382"/>
<text text-anchor="start" x="200.5" y="-370" font-family="Helvetica,sans-Serif" font-size="10.00">src/crypto/bip39/impl</text>
<text text-anchor="middle" x="254.5" y="-359" font-family="Helvetica,sans-Serif" font-size="10.00">/bip39_provider_impl.hpp</text>
</a>
</g>
</g>
<!-- Node3&#45;&gt;Node4 -->
<g id="edge4" class="edge">
<title>Node3&#45;&gt;Node4</title>
<path fill="none" stroke="#63b8ff" d="M250.4,-411.78C251.3,-402.17 252.35,-390.92 253.17,-382.23"/>
<polygon fill="#63b8ff" stroke="#63b8ff" points="246.92,-411.31 249.48,-421.59 253.89,-411.96 246.92,-411.31"/>
</g>
<!-- Node4&#45;&gt;Node5 -->
<g id="edge5" class="edge">
<title>Node4&#45;&gt;Node5</title>
<path fill="none" stroke="#63b8ff" d="M290.73,-346.18C308.39,-336.52 329.24,-325.12 345.33,-316.31"/>
<polygon fill="#63b8ff" stroke="#63b8ff" points="289.18,-343.04 282.08,-350.91 292.54,-349.18 289.18,-343.04"/>
</g>
<!-- Node6 -->
<g id="node6" class="node">
<title>Node6</title>
<g id="a_node6"><a xlink:href="extension__impl_8cpp.html" target="_top" xlink:title=" ">
<polygon fill="white" stroke="#666666" points="159.5,-316 57.5,-316 57.5,-286 159.5,-286 159.5,-316"/>
<text text-anchor="start" x="65.5" y="-304" font-family="Helvetica,sans-Serif" font-size="10.00">src/extensions/impl</text>
<text text-anchor="middle" x="108.5" y="-293" font-family="Helvetica,sans-Serif" font-size="10.00">/extension_impl.cpp</text>
</a>
</g>
</g>
<!-- Node4&#45;&gt;Node6 -->
<g id="edge6" class="edge">
<title>Node4&#45;&gt;Node6</title>
<path fill="none" stroke="#63b8ff" d="M211.48,-347.14C189.08,-337.32 162.12,-325.51 141.41,-316.43"/>
<polygon fill="#63b8ff" stroke="#63b8ff" points="209.78,-350.22 220.35,-351.03 212.6,-343.81 209.78,-350.22"/>
</g>
<!-- Node7 -->
<g id="node7" class="node">
<title>Node7</title>
<g id="a_node7"><a xlink:href="application__injector_8hpp.html" target="_top" xlink:title=" ">
<polygon fill="white" stroke="#666666" points="291.5,-316 177.5,-316 177.5,-286 291.5,-286 291.5,-316"/>
<text text-anchor="start" x="185.5" y="-304" font-family="Helvetica,sans-Serif" font-size="10.00">src/injector/application</text>
<text text-anchor="middle" x="234.5" y="-293" font-family="Helvetica,sans-Serif" font-size="10.00">_injector.hpp</text>
</a>
</g>
</g>
<!-- Node4&#45;&gt;Node7 -->
<g id="edge7" class="edge">
<title>Node4&#45;&gt;Node7</title>
<path fill="none" stroke="#63b8ff" d="M246.68,-340.97C244.05,-332.55 241.2,-323.45 238.93,-316.16"/>
<polygon fill="#63b8ff" stroke="#63b8ff" points="243.29,-341.85 249.61,-350.35 249.97,-339.76 243.29,-341.85"/>
</g>
<!-- Node8 -->
<g id="node8" class="node">
<title>Node8</title>
<g id="a_node8"><a xlink:href="application__injector_8cpp.html" target="_top" xlink:title=" ">
<polygon fill="white" stroke="#666666" points="125.5,-250 11.5,-250 11.5,-220 125.5,-220 125.5,-250"/>
<text text-anchor="start" x="19.5" y="-238" font-family="Helvetica,sans-Serif" font-size="10.00">src/injector/application</text>
<text text-anchor="middle" x="68.5" y="-227" font-family="Helvetica,sans-Serif" font-size="10.00">_injector.cpp</text>
</a>
</g>
</g>
<!-- Node7&#45;&gt;Node8 -->
<g id="edge8" class="edge">
<title>Node7&#45;&gt;Node8</title>
<path fill="none" stroke="#63b8ff" d="M186.62,-281.54C160.95,-271.64 129.79,-259.63 105.92,-250.43"/>
<polygon fill="#63b8ff" stroke="#63b8ff" points="185.24,-284.76 195.83,-285.09 187.76,-278.23 185.24,-284.76"/>
</g>
<!-- Node9 -->
<g id="node9" class="node">
<title>Node9</title>
<g id="a_node9"><a xlink:href="block__producing__node__injector_8hpp.html" target="_top" xlink:title=" ">
<polygon fill="white" stroke="#666666" points="431,-184 286,-184 286,-154 431,-154 431,-184"/>
<text text-anchor="start" x="294" y="-172" font-family="Helvetica,sans-Serif" font-size="10.00">src/injector/block</text>
<text text-anchor="middle" x="358.5" y="-161" font-family="Helvetica,sans-Serif" font-size="10.00">_producing_node_injector.hpp</text>
</a>
</g>
</g>
<!-- Node7&#45;&gt;Node9 -->
<g id="edge9" class="edge">
<title>Node7&#45;&gt;Node9</title>
<path fill="none" stroke="#63b8ff" d="M255.89,-277.57C281.36,-250.87 323.15,-207.06 344.69,-184.47"/>
<polygon fill="#63b8ff" stroke="#63b8ff" points="253.66,-274.84 249.29,-284.5 258.72,-279.68 253.66,-274.84"/>
</g>
<!-- Node14 -->
<g id="node14" class="node">
<title>Node14</title>
<g id="a_node14"><a xlink:href="syncing__node__injector_8hpp.html" target="_top" xlink:title=" ">
<polygon fill="white" stroke="#666666" points="245,-250 144,-250 144,-220 245,-220 245,-250"/>
<text text-anchor="start" x="152" y="-238" font-family="Helvetica,sans-Serif" font-size="10.00">src/injector/syncing</text>
<text text-anchor="middle" x="194.5" y="-227" font-family="Helvetica,sans-Serif" font-size="10.00">_node_injector.hpp</text>
</a>
</g>
</g>
<!-- Node7&#45;&gt;Node14 -->
<g id="edge14" class="edge">
<title>Node7&#45;&gt;Node14</title>
<path fill="none" stroke="#63b8ff" d="M219.57,-276.11C214.11,-267.38 208.11,-257.78 203.35,-250.16"/>
<polygon fill="#63b8ff" stroke="#63b8ff" points="216.55,-277.89 224.82,-284.51 222.49,-274.18 216.55,-277.89"/>
</g>
<!-- Node18 -->
<g id="node18" class="node">
<title>Node18</title>
<g id="a_node18"><a xlink:href="validating__node__injector_8hpp.html" target="_top" xlink:title=" ">
<polygon fill="white" stroke="#666666" points="455,-250 346,-250 346,-220 455,-220 455,-250"/>
<text text-anchor="start" x="354" y="-238" font-family="Helvetica,sans-Serif" font-size="10.00">src/injector/validating</text>
<text text-anchor="middle" x="400.5" y="-227" font-family="Helvetica,sans-Serif" font-size="10.00">_node_injector.hpp</text>
</a>
</g>
</g>
<!-- Node7&#45;&gt;Node18 -->
<g id="edge18" class="edge">
<title>Node7&#45;&gt;Node18</title>
<path fill="none" stroke="#63b8ff" d="M282.38,-281.54C308.05,-271.64 339.21,-259.63 363.08,-250.43"/>
<polygon fill="#63b8ff" stroke="#63b8ff" points="281.24,-278.23 273.17,-285.09 283.76,-284.76 281.24,-278.23"/>
</g>
<!-- Node10 -->
<g id="node10" class="node">
<title>Node10</title>
<g id="a_node10"><a xlink:href="block__producing__node__application_8hpp.html" target="_top" xlink:title=" ">
<polygon fill="white" stroke="#666666" points="561.5,-118 445.5,-118 445.5,-77 561.5,-77 561.5,-118"/>
<text text-anchor="start" x="453.5" y="-106" font-family="Helvetica,sans-Serif" font-size="10.00">src/application/impl</text>
<text text-anchor="start" x="453.5" y="-95" font-family="Helvetica,sans-Serif" font-size="10.00">/block_producing_node</text>
<text text-anchor="middle" x="503.5" y="-84" font-family="Helvetica,sans-Serif" font-size="10.00">_application.hpp</text>
</a>
</g>
</g>
<!-- Node9&#45;&gt;Node10 -->
<g id="edge10" class="edge">
<title>Node9&#45;&gt;Node10</title>
<path fill="none" stroke="#63b8ff" d="M398.73,-148.72C418.41,-139.28 442.09,-127.94 461.95,-118.42"/>
<polygon fill="#63b8ff" stroke="#63b8ff" points="397.41,-145.47 389.91,-152.95 400.44,-151.78 397.41,-145.47"/>
</g>
<!-- Node13 -->
<g id="node13" class="node">
<title>Node13</title>
<g id="a_node13"><a xlink:href="block__producing__node__injector_8cpp.html" target="_top" xlink:title=" ">
<polygon fill="white" stroke="#666666" points="427,-112.5 282,-112.5 282,-82.5 427,-82.5 427,-112.5"/>
<text text-anchor="start" x="290" y="-100.5" font-family="Helvetica,sans-Serif" font-size="10.00">src/injector/block</text>
<text text-anchor="middle" x="354.5" y="-89.5" font-family="Helvetica,sans-Serif" font-size="10.00">_producing_node_injector.cpp</text>
</a>
</g>
</g>
<!-- Node9&#45;&gt;Node13 -->
<g id="edge13" class="edge">
<title>Node9&#45;&gt;Node13</title>
<path fill="none" stroke="#63b8ff" d="M357.02,-142.26C356.45,-132.33 355.82,-121.36 355.33,-112.88"/>
<polygon fill="#63b8ff" stroke="#63b8ff" points="353.52,-142.31 357.58,-152.09 360.5,-141.9 353.52,-142.31"/>
</g>
<!-- Node11 -->
<g id="node11" class="node">
<title>Node11</title>
<g id="a_node11"><a xlink:href="app__delegate_8cpp.html" target="_top" xlink:title=" ">
<polygon fill="white" stroke="#666666" points="759.5,-30 643.5,-30 643.5,-11 759.5,-11 759.5,-30"/>
<text text-anchor="middle" x="701.5" y="-18" font-family="Helvetica,sans-Serif" font-size="10.00">node/app_delegate.cpp</text>
</a>
</g>
</g>
<!-- Node10&#45;&gt;Node11 -->
<g id="edge11" class="edge">
<title>Node10&#45;&gt;Node11</title>
<path fill="none" stroke="#63b8ff" d="M566.49,-72.64C604.39,-58.28 650.44,-40.84 677.78,-30.48"/>
<polygon fill="#63b8ff" stroke="#63b8ff" points="565.57,-69.25 557.46,-76.06 568.05,-75.79 565.57,-69.25"/>
</g>
<!-- Node12 -->
<g id="node12" class="node">
<title>Node12</title>
<g id="a_node12"><a xlink:href="block__producing__node__application_8cpp.html" target="_top" xlink:title=" ">
<polygon fill="white" stroke="#666666" points="561.5,-41 445.5,-41 445.5,0 561.5,0 561.5,-41"/>
<text text-anchor="start" x="453.5" y="-29" font-family="Helvetica,sans-Serif" font-size="10.00">src/application/impl</text>
<text text-anchor="start" x="453.5" y="-18" font-family="Helvetica,sans-Serif" font-size="10.00">/block_producing_node</text>
<text text-anchor="middle" x="503.5" y="-7" font-family="Helvetica,sans-Serif" font-size="10.00">_application.cpp</text>
</a>
</g>
</g>
<!-- Node10&#45;&gt;Node12 -->
<g id="edge12" class="edge">
<title>Node10&#45;&gt;Node12</title>
<path fill="none" stroke="#63b8ff" d="M503.5,-65.36C503.5,-57.24 503.5,-48.7 503.5,-41.33"/>
<polygon fill="#63b8ff" stroke="#63b8ff" points="500,-65.28 503.5,-75.28 507,-65.28 500,-65.28"/>
</g>
<!-- Node15 -->
<g id="node15" class="node">
<title>Node15</title>
<g id="a_node15"><a xlink:href="syncing__node__application_8hpp.html" target="_top" xlink:title=" ">
<polygon fill="white" stroke="#666666" points="268,-184 119,-184 119,-154 268,-154 268,-184"/>
<text text-anchor="start" x="127" y="-172" font-family="Helvetica,sans-Serif" font-size="10.00">src/application/impl</text>
<text text-anchor="middle" x="193.5" y="-161" font-family="Helvetica,sans-Serif" font-size="10.00">/syncing_node_application.hpp</text>
</a>
</g>
</g>
<!-- Node14&#45;&gt;Node15 -->
<g id="edge15" class="edge">
<title>Node14&#45;&gt;Node15</title>
<path fill="none" stroke="#63b8ff" d="M194.1,-208.39C193.97,-200.13 193.83,-191.28 193.72,-184.16"/>
<polygon fill="#63b8ff" stroke="#63b8ff" points="190.6,-208.34 194.25,-218.28 197.6,-208.23 190.6,-208.34"/>
</g>
<!-- Node17 -->
<g id="node17" class="node">
<title>Node17</title>
<g id="a_node17"><a xlink:href="syncing__node__injector_8cpp.html" target="_top" xlink:title=" ">
<polygon fill="white" stroke="#666666" points="101,-184 0,-184 0,-154 101,-154 101,-184"/>
<text text-anchor="start" x="8" y="-172" font-family="Helvetica,sans-Serif" font-size="10.00">src/injector/syncing</text>
<text text-anchor="middle" x="50.5" y="-161" font-family="Helvetica,sans-Serif" font-size="10.00">_node_injector.cpp</text>
</a>
</g>
</g>
<!-- Node14&#45;&gt;Node17 -->
<g id="edge17" class="edge">
<title>Node14&#45;&gt;Node17</title>
<path fill="none" stroke="#63b8ff" d="M151.73,-214.99C129.61,-205.16 103.07,-193.36 82.71,-184.31"/>
<polygon fill="#63b8ff" stroke="#63b8ff" points="150.24,-218.16 160.8,-219.02 153.08,-211.76 150.24,-218.16"/>
</g>
<!-- Node16 -->
<g id="node16" class="node">
<title>Node16</title>
<g id="a_node16"><a xlink:href="syncing__node__application_8cpp.html" target="_top" xlink:title=" ">
<polygon fill="white" stroke="#666666" points="264,-112.5 115,-112.5 115,-82.5 264,-82.5 264,-112.5"/>
<text text-anchor="start" x="123" y="-100.5" font-family="Helvetica,sans-Serif" font-size="10.00">src/application/impl</text>
<text text-anchor="middle" x="189.5" y="-89.5" font-family="Helvetica,sans-Serif" font-size="10.00">/syncing_node_application.cpp</text>
</a>
</g>
</g>
<!-- Node15&#45;&gt;Node16 -->
<g id="edge16" class="edge">
<title>Node15&#45;&gt;Node16</title>
<path fill="none" stroke="#63b8ff" d="M192.02,-142.26C191.45,-132.33 190.82,-121.36 190.33,-112.88"/>
<polygon fill="#63b8ff" stroke="#63b8ff" points="188.52,-142.31 192.58,-152.09 195.5,-141.9 188.52,-142.31"/>
</g>
<!-- Node18&#45;&gt;Node9 -->
<g id="edge22" class="edge">
<title>Node18&#45;&gt;Node9</title>
<path fill="none" stroke="#63b8ff" d="M385.01,-210.39C379.23,-201.59 372.85,-191.86 367.8,-184.16"/>
<polygon fill="#63b8ff" stroke="#63b8ff" points="381.94,-212.09 390.35,-218.53 387.79,-208.25 381.94,-212.09"/>
</g>
<!-- Node19 -->
<g id="node19" class="node">
<title>Node19</title>
<g id="a_node19"><a xlink:href="validating__node__application_8hpp.html" target="_top" xlink:title=" ">
<polygon fill="white" stroke="#666666" points="737,-184 580,-184 580,-154 737,-154 737,-184"/>
<text text-anchor="start" x="588" y="-172" font-family="Helvetica,sans-Serif" font-size="10.00">src/application/impl</text>
<text text-anchor="middle" x="658.5" y="-161" font-family="Helvetica,sans-Serif" font-size="10.00">/validating_node_application.hpp</text>
</a>
</g>
</g>
<!-- Node18&#45;&gt;Node19 -->
<g id="edge19" class="edge">
<title>Node18&#45;&gt;Node19</title>
<path fill="none" stroke="#63b8ff" d="M466.28,-217.68C507.62,-207.43 560.46,-194.32 600.28,-184.44"/>
<polygon fill="#63b8ff" stroke="#63b8ff" points="465.55,-214.26 456.68,-220.06 467.23,-221.05 465.55,-214.26"/>
</g>
<!-- Node21 -->
<g id="node21" class="node">
<title>Node21</title>
<g id="a_node21"><a xlink:href="validating__node__injector_8cpp.html" target="_top" xlink:title=" ">
<polygon fill="white" stroke="#666666" points="558,-184 449,-184 449,-154 558,-154 558,-184"/>
<text text-anchor="start" x="457" y="-172" font-family="Helvetica,sans-Serif" font-size="10.00">src/injector/validating</text>
<text text-anchor="middle" x="503.5" y="-161" font-family="Helvetica,sans-Serif" font-size="10.00">_node_injector.cpp</text>
</a>
</g>
</g>
<!-- Node18&#45;&gt;Node21 -->
<g id="edge23" class="edge">
<title>Node18&#45;&gt;Node21</title>
<path fill="none" stroke="#63b8ff" d="M433.27,-213.64C448.63,-204.09 466.56,-192.95 480.46,-184.31"/>
<polygon fill="#63b8ff" stroke="#63b8ff" points="431.55,-210.59 424.9,-218.84 435.24,-216.53 431.55,-210.59"/>
</g>
<!-- Node19&#45;&gt;Node11 -->
<g id="edge20" class="edge">
<title>Node19&#45;&gt;Node11</title>
<path fill="none" stroke="#63b8ff" d="M713.29,-148.43C726.46,-141 738.89,-131.07 746.5,-118 755.67,-102.25 752.59,-94.18 746.5,-77 739.7,-57.83 723.15,-40.44 712.12,-30.42"/>
<polygon fill="#63b8ff" stroke="#63b8ff" points="711.8,-145.26 704.5,-152.94 715,-151.49 711.8,-145.26"/>
</g>
<!-- Node20 -->
<g id="node20" class="node">
<title>Node20</title>
<g id="a_node20"><a xlink:href="validating__node__application_8cpp.html" target="_top" xlink:title=" ">
<polygon fill="white" stroke="#666666" points="737,-112.5 580,-112.5 580,-82.5 737,-82.5 737,-112.5"/>
<text text-anchor="start" x="588" y="-100.5" font-family="Helvetica,sans-Serif" font-size="10.00">src/application/impl</text>
<text text-anchor="middle" x="658.5" y="-89.5" font-family="Helvetica,sans-Serif" font-size="10.00">/validating_node_application.cpp</text>
</a>
</g>
</g>
<!-- Node19&#45;&gt;Node20 -->
<g id="edge21" class="edge">
<title>Node19&#45;&gt;Node20</title>
<path fill="none" stroke="#63b8ff" d="M658.5,-142.26C658.5,-132.33 658.5,-121.36 658.5,-112.88"/>
<polygon fill="#63b8ff" stroke="#63b8ff" points="655,-142.09 658.5,-152.09 662,-142.09 655,-142.09"/>
</g>
</g>
</svg>
