<?xml version="1.0" encoding="UTF-8" standalone="no"?>
<!DOCTYPE svg PUBLIC "-//W3C//DTD SVG 1.1//EN"
 "http://www.w3.org/Graphics/SVG/1.1/DTD/svg11.dtd">
<!-- Generated by graphviz version 7.0.5 (20221223.1930)
 -->
<!-- Title: src/verification/production/impl/epoch_storage_impl.cpp Pages: 1 -->
<svg width="2079pt" height="610pt"
 viewBox="0.00 0.00 2078.53 610.00" xmlns="http://www.w3.org/2000/svg" xmlns:xlink="http://www.w3.org/1999/xlink">
<g id="graph0" class="graph" transform="scale(1 1) rotate(0) translate(4 606)">
<title>src/verification/production/impl/epoch_storage_impl.cpp</title>
<!-- Node1 -->
<g id="node1" class="node">
<title>Node1</title>
<g id="a_node1"><a xlink:title=" ">
<polygon fill="#999999" stroke="#666666" points="937.53,-602 791.53,-602 791.53,-572 937.53,-572 937.53,-602"/>
<text text-anchor="start" x="799.53" y="-590" font-family="Helvetica,sans-Serif" font-size="10.00">src/verification/production</text>
<text text-anchor="middle" x="864.53" y="-579" font-family="Helvetica,sans-Serif" font-size="10.00">/impl/epoch_storage_impl.cpp</text>
</a>
</g>
</g>
<!-- Node2 -->
<g id="node2" class="node">
<title>Node2</title>
<g id="a_node2"><a xlink:href="epoch__storage__impl_8hpp.html" target="_top" xlink:title=" ">
<polygon fill="white" stroke="#666666" points="709.53,-536 563.53,-536 563.53,-506 709.53,-506 709.53,-536"/>
<text text-anchor="start" x="571.53" y="-524" font-family="Helvetica,sans-Serif" font-size="10.00">verification/production</text>
<text text-anchor="middle" x="636.53" y="-513" font-family="Helvetica,sans-Serif" font-size="10.00">/impl/epoch_storage_impl.hpp</text>
</a>
</g>
</g>
<!-- Node1&#45;&gt;Node2 -->
<g id="edge1" class="edge">
<title>Node1&#45;&gt;Node2</title>
<path fill="none" stroke="#63b8ff" d="M813.07,-571.56C779.15,-562.04 734.53,-549.51 698.63,-539.43"/>
<polygon fill="#63b8ff" stroke="#63b8ff" points="699.82,-536.13 689.25,-536.8 697.93,-542.87 699.82,-536.13"/>
</g>
<!-- Node42 -->
<g id="node33" class="node">
<title>Node42</title>
<g id="a_node33"><a xlink:href="scale_8hpp.html" target="_top" xlink:title=" ">
<polygon fill="white" stroke="#666666" points="1407.53,-332.5 1323.53,-332.5 1323.53,-313.5 1407.53,-313.5 1407.53,-332.5"/>
<text text-anchor="middle" x="1365.53" y="-320.5" font-family="Helvetica,sans-Serif" font-size="10.00">scale/scale.hpp</text>
</a>
</g>
</g>
<!-- Node1&#45;&gt;Node42 -->
<g id="edge42" class="edge">
<title>Node1&#45;&gt;Node42</title>
<path fill="none" stroke="#63b8ff" d="M892.18,-571.54C979.91,-525.66 1251.39,-383.69 1338.4,-338.19"/>
<polygon fill="#63b8ff" stroke="#63b8ff" points="1339.94,-341.33 1347.18,-333.6 1336.69,-335.13 1339.94,-341.33"/>
</g>
<!-- Node3 -->
<g id="node3" class="node">
<title>Node3</title>
<g id="a_node3"><a xlink:href="epoch__storage_8hpp.html" target="_top" xlink:title=" ">
<polygon fill="white" stroke="#666666" points="811.03,-470 700.03,-470 700.03,-440 811.03,-440 811.03,-470"/>
<text text-anchor="start" x="708.03" y="-458" font-family="Helvetica,sans-Serif" font-size="10.00">verification/production</text>
<text text-anchor="middle" x="755.53" y="-447" font-family="Helvetica,sans-Serif" font-size="10.00">/epoch_storage.hpp</text>
</a>
</g>
</g>
<!-- Node2&#45;&gt;Node3 -->
<g id="edge2" class="edge">
<title>Node2&#45;&gt;Node3</title>
<path fill="none" stroke="#63b8ff" d="M663.23,-505.64C679.62,-496.83 700.82,-485.42 718.78,-475.77"/>
<polygon fill="#63b8ff" stroke="#63b8ff" points="720.43,-478.85 727.58,-471.03 717.11,-472.69 720.43,-478.85"/>
</g>
<!-- Node29 -->
<g id="node18" class="node">
<title>Node29</title>
<g id="a_node18"><a xlink:title=" ">
<polygon fill="#e0e0e0" stroke="#999999" points="449.03,-464.5 366.03,-464.5 366.03,-445.5 449.03,-445.5 449.03,-464.5"/>
<text text-anchor="middle" x="407.53" y="-452.5" font-family="Helvetica,sans-Serif" font-size="10.00">unordered_map</text>
</a>
</g>
</g>
<!-- Node2&#45;&gt;Node29 -->
<g id="edge20" class="edge">
<title>Node2&#45;&gt;Node29</title>
<path fill="none" stroke="#63b8ff" d="M584.85,-505.56C544.27,-494.22 488.44,-478.61 450.33,-467.96"/>
<polygon fill="#63b8ff" stroke="#63b8ff" points="451.63,-464.69 441.05,-465.37 449.74,-471.43 451.63,-464.69"/>
</g>
<!-- Node30 -->
<g id="node19" class="node">
<title>Node30</title>
<g id="a_node19"><a xlink:href="buffer__map__types_8hpp.html" target="_top" xlink:title=" ">
<polygon fill="white" stroke="#666666" points="567.53,-470 467.53,-470 467.53,-440 567.53,-440 567.53,-470"/>
<text text-anchor="start" x="475.53" y="-458" font-family="Helvetica,sans-Serif" font-size="10.00">storage/buffer_map</text>
<text text-anchor="middle" x="517.53" y="-447" font-family="Helvetica,sans-Serif" font-size="10.00">_types.hpp</text>
</a>
</g>
</g>
<!-- Node2&#45;&gt;Node30 -->
<g id="edge21" class="edge">
<title>Node2&#45;&gt;Node30</title>
<path fill="none" stroke="#63b8ff" d="M609.82,-505.64C593.44,-496.83 572.23,-485.42 554.28,-475.77"/>
<polygon fill="#63b8ff" stroke="#63b8ff" points="555.94,-472.69 545.48,-471.03 552.63,-478.85 555.94,-472.69"/>
</g>
<!-- Node4 -->
<g id="node4" class="node">
<title>Node4</title>
<g id="a_node4"><a xlink:title=" ">
<polygon fill="#e0e0e0" stroke="#999999" points="1285.03,-200.5 1190.03,-200.5 1190.03,-181.5 1285.03,-181.5 1285.03,-200.5"/>
<text text-anchor="middle" x="1237.53" y="-188.5" font-family="Helvetica,sans-Serif" font-size="10.00">boost/optional.hpp</text>
</a>
</g>
</g>
<!-- Node3&#45;&gt;Node4 -->
<g id="edge3" class="edge">
<title>Node3&#45;&gt;Node4</title>
<path fill="none" stroke="#63b8ff" d="M811.52,-446.78C887.49,-434.76 1024.83,-405.01 1121.53,-338 1171.29,-303.51 1210.26,-241.49 1227.64,-210.57"/>
<polygon fill="#63b8ff" stroke="#63b8ff" points="1230.59,-212.48 1232.32,-202.02 1224.45,-209.11 1230.59,-212.48"/>
</g>
<!-- Node5 -->
<g id="node5" class="node">
<title>Node5</title>
<g id="a_node5"><a xlink:href="src_2verification_2production_2common_8hpp.html" target="_top" xlink:title=" ">
<polygon fill="white" stroke="#666666" points="924.03,-404 813.03,-404 813.03,-374 924.03,-374 924.03,-404"/>
<text text-anchor="start" x="821.03" y="-392" font-family="Helvetica,sans-Serif" font-size="10.00">verification/production</text>
<text text-anchor="middle" x="868.53" y="-381" font-family="Helvetica,sans-Serif" font-size="10.00">/common.hpp</text>
</a>
</g>
</g>
<!-- Node3&#45;&gt;Node5 -->
<g id="edge4" class="edge">
<title>Node3&#45;&gt;Node5</title>
<path fill="none" stroke="#63b8ff" d="M780.89,-439.64C796.44,-430.83 816.58,-419.42 833.63,-409.77"/>
<polygon fill="#63b8ff" stroke="#63b8ff" points="834.96,-413.03 841.94,-405.06 831.51,-406.94 834.96,-413.03"/>
</g>
<!-- Node23 -->
<g id="node16" class="node">
<title>Node23</title>
<g id="a_node16"><a xlink:href="next__epoch__descriptor_8hpp.html" target="_top" xlink:title=" ">
<polygon fill="white" stroke="#666666" points="707.03,-404 546.03,-404 546.03,-374 707.03,-374 707.03,-404"/>
<text text-anchor="start" x="554.03" y="-392" font-family="Helvetica,sans-Serif" font-size="10.00">verification/production</text>
<text text-anchor="middle" x="626.53" y="-381" font-family="Helvetica,sans-Serif" font-size="10.00">/types/next_epoch_descriptor.hpp</text>
</a>
</g>
</g>
<!-- Node3&#45;&gt;Node23 -->
<g id="edge17" class="edge">
<title>Node3&#45;&gt;Node23</title>
<path fill="none" stroke="#63b8ff" d="M726.58,-439.64C708.57,-430.7 685.18,-419.1 665.55,-409.36"/>
<polygon fill="#63b8ff" stroke="#63b8ff" points="667.25,-406.3 656.74,-404.99 664.14,-412.57 667.25,-406.3"/>
</g>
<!-- Node6 -->
<g id="node6" class="node">
<title>Node6</title>
<g id="a_node6"><a xlink:title=" ">
<polygon fill="#e0e0e0" stroke="#999999" points="715.53,-140 669.53,-140 669.53,-121 715.53,-121 715.53,-140"/>
<text text-anchor="middle" x="692.53" y="-128" font-family="Helvetica,sans-Serif" font-size="10.00">cstdint</text>
</a>
</g>
</g>
<!-- Node5&#45;&gt;Node6 -->
<g id="edge5" class="edge">
<title>Node5&#45;&gt;Node6</title>
<path fill="none" stroke="#63b8ff" d="M842.96,-373.55C828.86,-364.65 811.79,-352.24 799.53,-338 748.17,-278.36 712.99,-189.84 699.13,-150.98"/>
<polygon fill="#63b8ff" stroke="#63b8ff" points="702.47,-149.93 695.88,-141.64 695.86,-152.23 702.47,-149.93"/>
</g>
<!-- Node7 -->
<g id="node7" class="node">
<title>Node7</title>
<g id="a_node7"><a xlink:href="clock_8hpp.html" target="_top" xlink:title=" ">
<polygon fill="white" stroke="#666666" points="1112.53,-332.5 1028.53,-332.5 1028.53,-313.5 1112.53,-313.5 1112.53,-332.5"/>
<text text-anchor="middle" x="1070.53" y="-320.5" font-family="Helvetica,sans-Serif" font-size="10.00">clock/clock.hpp</text>
</a>
</g>
</g>
<!-- Node5&#45;&gt;Node7 -->
<g id="edge6" class="edge">
<title>Node5&#45;&gt;Node7</title>
<path fill="none" stroke="#63b8ff" d="M914.11,-373.56C949.45,-362.36 997.89,-347.01 1031.46,-336.38"/>
<polygon fill="#63b8ff" stroke="#63b8ff" points="1032.32,-339.78 1040.79,-333.42 1030.2,-333.1 1032.32,-339.78"/>
</g>
<!-- Node9 -->
<g id="node9" class="node">
<title>Node9</title>
<g id="a_node9"><a xlink:href="sr25519__types_8hpp.html" target="_top" xlink:title=" ">
<polygon fill="white" stroke="#666666" points="936.03,-332.5 809.03,-332.5 809.03,-313.5 936.03,-313.5 936.03,-332.5"/>
<text text-anchor="middle" x="872.53" y="-320.5" font-family="Helvetica,sans-Serif" font-size="10.00">crypto/sr25519_types.hpp</text>
</a>
</g>
</g>
<!-- Node5&#45;&gt;Node9 -->
<g id="edge8" class="edge">
<title>Node5&#45;&gt;Node9</title>
<path fill="none" stroke="#63b8ff" d="M869.41,-373.8C869.96,-365.09 870.66,-353.81 871.27,-344.18"/>
<polygon fill="#63b8ff" stroke="#63b8ff" points="874.75,-344.55 871.88,-334.35 867.76,-344.12 874.75,-344.55"/>
</g>
<!-- Node8 -->
<g id="node8" class="node">
<title>Node8</title>
<g id="a_node8"><a xlink:title=" ">
<polygon fill="#e0e0e0" stroke="#999999" points="1167.53,-266.5 1121.53,-266.5 1121.53,-247.5 1167.53,-247.5 1167.53,-266.5"/>
<text text-anchor="middle" x="1144.53" y="-254.5" font-family="Helvetica,sans-Serif" font-size="10.00">chrono</text>
</a>
</g>
</g>
<!-- Node7&#45;&gt;Node8 -->
<g id="edge7" class="edge">
<title>Node7&#45;&gt;Node8</title>
<path fill="none" stroke="#63b8ff" d="M1080.82,-313.1C1092.41,-303.07 1111.51,-286.56 1125.77,-274.22"/>
<polygon fill="#63b8ff" stroke="#63b8ff" points="1127.91,-277 1133.18,-267.81 1123.33,-271.71 1127.91,-277"/>
</g>
<!-- Node10 -->
<g id="node10" class="node">
<title>Node10</title>
<g id="a_node10"><a xlink:title=" ">
<polygon fill="#e0e0e0" stroke="#999999" points="856.03,-266.5 797.03,-266.5 797.03,-247.5 856.03,-247.5 856.03,-266.5"/>
<text text-anchor="middle" x="826.53" y="-254.5" font-family="Helvetica,sans-Serif" font-size="10.00">sr25519.h</text>
</a>
</g>
</g>
<!-- Node9&#45;&gt;Node10 -->
<g id="edge9" class="edge">
<title>Node9&#45;&gt;Node10</title>
<path fill="none" stroke="#63b8ff" d="M866.13,-313.1C859.26,-303.55 848.17,-288.11 839.47,-276.01"/>
<polygon fill="#63b8ff" stroke="#63b8ff" points="842.43,-274.13 833.75,-268.05 836.75,-278.22 842.43,-274.13"/>
</g>
<!-- Node11 -->
<g id="node11" class="node">
<title>Node11</title>
<g id="a_node11"><a xlink:title=" ">
<polygon fill="#e0e0e0" stroke="#999999" points="1043.53,-206 939.53,-206 939.53,-176 1043.53,-176 1043.53,-206"/>
<text text-anchor="start" x="947.53" y="-194" font-family="Helvetica,sans-Serif" font-size="10.00">boost/multiprecision</text>
<text text-anchor="middle" x="991.53" y="-183" font-family="Helvetica,sans-Serif" font-size="10.00">/cpp_int.hpp</text>
</a>
</g>
</g>
<!-- Node9&#45;&gt;Node11 -->
<g id="edge10" class="edge">
<title>Node9&#45;&gt;Node11</title>
<path fill="none" stroke="#63b8ff" d="M911.48,-313.02C934.2,-305.75 961.46,-293.14 977.53,-272 989.27,-256.55 992.43,-234.6 992.85,-217.59"/>
<polygon fill="#63b8ff" stroke="#63b8ff" points="996.35,-217.74 992.76,-207.77 989.35,-217.8 996.35,-217.74"/>
</g>
<!-- Node12 -->
<g id="node12" class="node">
<title>Node12</title>
<g id="a_node12"><a xlink:title=" ">
<polygon fill="#e0e0e0" stroke="#999999" points="921.03,-200.5 868.03,-200.5 868.03,-181.5 921.03,-181.5 921.03,-200.5"/>
<text text-anchor="middle" x="894.53" y="-188.5" font-family="Helvetica,sans-Serif" font-size="10.00">gsl/span</text>
</a>
</g>
</g>
<!-- Node9&#45;&gt;Node12 -->
<g id="edge11" class="edge">
<title>Node9&#45;&gt;Node12</title>
<path fill="none" stroke="#63b8ff" d="M842.9,-313.16C823.39,-305.62 799.34,-292.66 787.53,-272 780.91,-260.43 780.37,-253.25 787.53,-242 802.64,-218.26 832.31,-205.6 856.58,-198.97"/>
<polygon fill="#63b8ff" stroke="#63b8ff" points="857.28,-202.4 866.15,-196.61 855.61,-195.6 857.28,-202.4"/>
</g>
<!-- Node13 -->
<g id="node13" class="node">
<title>Node13</title>
<g id="a_node13"><a xlink:href="blob_8hpp.html" target="_top" xlink:title=" ">
<polygon fill="#fff0f0" stroke="red" points="1103.03,-266.5 1026.03,-266.5 1026.03,-247.5 1103.03,-247.5 1103.03,-266.5"/>
<text text-anchor="middle" x="1064.53" y="-254.5" font-family="Helvetica,sans-Serif" font-size="10.00">base/blob.hpp</text>
</a>
</g>
</g>
<!-- Node9&#45;&gt;Node13 -->
<g id="edge12" class="edge">
<title>Node9&#45;&gt;Node13</title>
<path fill="none" stroke="#63b8ff" d="M899.22,-313.1C932.52,-302 989.62,-282.97 1027.22,-270.43"/>
<polygon fill="#63b8ff" stroke="#63b8ff" points="1027.93,-273.89 1036.31,-267.4 1025.72,-267.25 1027.93,-273.89"/>
</g>
<!-- Node22 -->
<g id="node15" class="node">
<title>Node22</title>
<g id="a_node15"><a xlink:href="mp__utils_8hpp.html" target="_top" xlink:title=" ">
<polygon fill="white" stroke="#666666" points="969.03,-266.5 874.03,-266.5 874.03,-247.5 969.03,-247.5 969.03,-266.5"/>
<text text-anchor="middle" x="921.53" y="-254.5" font-family="Helvetica,sans-Serif" font-size="10.00">base/mp_utils.hpp</text>
</a>
</g>
</g>
<!-- Node9&#45;&gt;Node22 -->
<g id="edge14" class="edge">
<title>Node9&#45;&gt;Node22</title>
<path fill="none" stroke="#63b8ff" d="M879.34,-313.1C886.73,-303.45 898.71,-287.81 908.02,-275.65"/>
<polygon fill="#63b8ff" stroke="#63b8ff" points="910.55,-278.09 913.85,-268.03 904.99,-273.84 910.55,-278.09"/>
</g>
<!-- Node14 -->
<g id="node14" class="node">
<title>Node14</title>
<g id="a_node14"><a xlink:title=" ">
<polygon fill="#e0e0e0" stroke="#999999" points="1061.53,-140 1023.53,-140 1023.53,-121 1061.53,-121 1061.53,-140"/>
<text text-anchor="middle" x="1042.53" y="-128" font-family="Helvetica,sans-Serif" font-size="10.00">array</text>
</a>
</g>
</g>
<!-- Node13&#45;&gt;Node14 -->
<g id="edge13" class="edge">
<title>Node13&#45;&gt;Node14</title>
<path fill="none" stroke="#63b8ff" d="M1063.4,-247.09C1061.49,-232.27 1057.33,-201.68 1052.53,-176 1051.02,-167.92 1049.09,-159.09 1047.33,-151.43"/>
<polygon fill="#63b8ff" stroke="#63b8ff" points="1050.76,-150.73 1045.06,-141.8 1043.95,-152.34 1050.76,-150.73"/>
</g>
<!-- Node22&#45;&gt;Node11 -->
<g id="edge15" class="edge">
<title>Node22&#45;&gt;Node11</title>
<path fill="none" stroke="#63b8ff" d="M931.26,-247.1C940.6,-238.56 955.08,-225.32 967.51,-213.96"/>
<polygon fill="#63b8ff" stroke="#63b8ff" points="969.56,-216.83 974.57,-207.5 964.83,-211.66 969.56,-216.83"/>
</g>
<!-- Node22&#45;&gt;Node12 -->
<g id="edge16" class="edge">
<title>Node22&#45;&gt;Node12</title>
<path fill="none" stroke="#63b8ff" d="M917.77,-247.1C913.86,-237.84 907.62,-223.04 902.59,-211.11"/>
<polygon fill="#63b8ff" stroke="#63b8ff" points="905.95,-210.07 898.84,-202.22 899.5,-212.79 905.95,-210.07"/>
</g>
<!-- Node24 -->
<g id="node17" class="node">
<title>Node24</title>
<g id="a_node17"><a xlink:href="authority_8hpp.html" target="_top" xlink:title=" ">
<polygon fill="#fff0f0" stroke="red" points="664.53,-332.5 548.53,-332.5 548.53,-313.5 664.53,-313.5 664.53,-332.5"/>
<text text-anchor="middle" x="606.53" y="-320.5" font-family="Helvetica,sans-Serif" font-size="10.00">primitives/authority.hpp</text>
</a>
</g>
</g>
<!-- Node23&#45;&gt;Node24 -->
<g id="edge18" class="edge">
<title>Node23&#45;&gt;Node24</title>
<path fill="none" stroke="#63b8ff" d="M622.09,-373.8C619.31,-364.89 615.68,-353.3 612.63,-343.54"/>
<polygon fill="#63b8ff" stroke="#63b8ff" points="616.07,-342.79 609.74,-334.29 609.38,-344.88 616.07,-342.79"/>
</g>
<!-- Node24&#45;&gt;Node6 -->
<g id="edge19" class="edge">
<title>Node24&#45;&gt;Node6</title>
<path fill="none" stroke="#63b8ff" d="M610.56,-313.07C623.74,-283.88 665.73,-190.87 683.95,-150.5"/>
<polygon fill="#63b8ff" stroke="#63b8ff" points="687.05,-152.13 687.98,-141.57 680.67,-149.25 687.05,-152.13"/>
</g>
<!-- Node30&#45;&gt;Node12 -->
<g id="edge22" class="edge">
<title>Node30&#45;&gt;Node12</title>
<path fill="none" stroke="#63b8ff" d="M567.72,-453.7C611.68,-450.83 674.74,-440.03 715.53,-404 773.42,-352.85 724.9,-297.6 778.53,-242 799.52,-220.24 831.55,-207.41 856.64,-200.21"/>
<polygon fill="#63b8ff" stroke="#63b8ff" points="857.39,-203.63 866.15,-197.68 855.58,-196.87 857.39,-203.63"/>
</g>
<!-- Node31 -->
<g id="node20" class="node">
<title>Node31</title>
<g id="a_node20"><a xlink:href="buffer_8hpp.html" target="_top" xlink:title=" ">
<polygon fill="white" stroke="#666666" points="329.03,-266.5 246.03,-266.5 246.03,-247.5 329.03,-247.5 329.03,-266.5"/>
<text text-anchor="middle" x="287.53" y="-254.5" font-family="Helvetica,sans-Serif" font-size="10.00">base/buffer.hpp</text>
</a>
</g>
</g>
<!-- Node30&#45;&gt;Node31 -->
<g id="edge23" class="edge">
<title>Node30&#45;&gt;Node31</title>
<path fill="none" stroke="#63b8ff" d="M467.5,-441.41C415.64,-428.18 341.42,-408.64 336.53,-404 300.7,-370.07 291.06,-309.17 288.47,-277.83"/>
<polygon fill="#63b8ff" stroke="#63b8ff" points="291.99,-277.97 287.85,-268.22 285.01,-278.42 291.99,-277.97"/>
</g>
<!-- Node33 -->
<g id="node27" class="node">
<title>Node33</title>
<g id="a_node27"><a xlink:href="batchable_8hpp.html" target="_top" xlink:title=" ">
<polygon fill="white" stroke="#666666" points="519.53,-266.5 385.53,-266.5 385.53,-247.5 519.53,-247.5 519.53,-266.5"/>
<text text-anchor="middle" x="452.53" y="-254.5" font-family="Helvetica,sans-Serif" font-size="10.00">storage/face/batchable.hpp</text>
</a>
</g>
</g>
<!-- Node30&#45;&gt;Node33 -->
<g id="edge31" class="edge">
<title>Node30&#45;&gt;Node33</title>
<path fill="none" stroke="#63b8ff" d="M512.75,-439.59C501.24,-404.89 471.99,-316.69 458.96,-277.4"/>
<polygon fill="#63b8ff" stroke="#63b8ff" points="462.35,-276.51 455.88,-268.12 455.71,-278.72 462.35,-276.51"/>
</g>
<!-- Node35 -->
<g id="node29" class="node">
<title>Node35</title>
<g id="a_node29"><a xlink:href="write__batch_8hpp.html" target="_top" xlink:title=" ">
<polygon fill="white" stroke="#666666" points="626.03,-206 531.03,-206 531.03,-176 626.03,-176 626.03,-206"/>
<text text-anchor="start" x="539.03" y="-194" font-family="Helvetica,sans-Serif" font-size="10.00">storage/face/write</text>
<text text-anchor="middle" x="578.53" y="-183" font-family="Helvetica,sans-Serif" font-size="10.00">_batch.hpp</text>
</a>
</g>
</g>
<!-- Node30&#45;&gt;Node35 -->
<g id="edge41" class="edge">
<title>Node30&#45;&gt;Node35</title>
<path fill="none" stroke="#63b8ff" d="M518.84,-439.75C521.44,-413.44 528.03,-355.59 539.53,-308 547.25,-276.02 559.9,-240.29 568.69,-217.04"/>
<polygon fill="#63b8ff" stroke="#63b8ff" points="571.91,-218.41 572.23,-207.82 565.38,-215.9 571.91,-218.41"/>
</g>
<!-- Node37 -->
<g id="node31" class="node">
<title>Node37</title>
<g id="a_node31"><a xlink:href="generic__storage_8hpp.html" target="_top" xlink:title=" ">
<polygon fill="white" stroke="#666666" points="451.03,-404 346.03,-404 346.03,-374 451.03,-374 451.03,-404"/>
<text text-anchor="start" x="354.03" y="-392" font-family="Helvetica,sans-Serif" font-size="10.00">storage/face/generic</text>
<text text-anchor="middle" x="398.53" y="-381" font-family="Helvetica,sans-Serif" font-size="10.00">_storage.hpp</text>
</a>
</g>
</g>
<!-- Node30&#45;&gt;Node37 -->
<g id="edge37" class="edge">
<title>Node30&#45;&gt;Node37</title>
<path fill="none" stroke="#63b8ff" d="M490.82,-439.64C474.44,-430.83 453.23,-419.42 435.28,-409.77"/>
<polygon fill="#63b8ff" stroke="#63b8ff" points="436.94,-406.69 426.48,-405.03 433.63,-412.85 436.94,-406.69"/>
</g>
<!-- Node31&#45;&gt;Node12 -->
<g id="edge28" class="edge">
<title>Node31&#45;&gt;Node12</title>
<path fill="none" stroke="#63b8ff" d="M329.11,-248.93C344.03,-246.53 361.01,-243.97 376.53,-242 555.65,-219.29 770.79,-201.56 856.55,-194.88"/>
<polygon fill="#63b8ff" stroke="#63b8ff" points="856.57,-198.39 866.27,-194.13 856.03,-191.41 856.57,-198.39"/>
</g>
<!-- Node17 -->
<g id="node21" class="node">
<title>Node17</title>
<g id="a_node21"><a xlink:title=" ">
<polygon fill="#e0e0e0" stroke="#999999" points="329.53,-200.5 263.53,-200.5 263.53,-181.5 329.53,-181.5 329.53,-200.5"/>
<text text-anchor="middle" x="296.53" y="-188.5" font-family="Helvetica,sans-Serif" font-size="10.00">string_view</text>
</a>
</g>
</g>
<!-- Node31&#45;&gt;Node17 -->
<g id="edge24" class="edge">
<title>Node31&#45;&gt;Node17</title>
<path fill="none" stroke="#63b8ff" d="M288.78,-247.1C290.04,-238.12 292.03,-223.95 293.68,-212.22"/>
<polygon fill="#63b8ff" stroke="#63b8ff" points="297.15,-212.71 295.08,-202.32 290.22,-211.74 297.15,-212.71"/>
</g>
<!-- Node18 -->
<g id="node22" class="node">
<title>Node18</title>
<g id="a_node22"><a xlink:title=" ">
<polygon fill="#e0e0e0" stroke="#999999" points="967.53,-140 923.53,-140 923.53,-121 967.53,-121 967.53,-140"/>
<text text-anchor="middle" x="945.53" y="-128" font-family="Helvetica,sans-Serif" font-size="10.00">vector</text>
</a>
</g>
</g>
<!-- Node31&#45;&gt;Node18 -->
<g id="edge25" class="edge">
<title>Node31&#45;&gt;Node18</title>
<path fill="none" stroke="#63b8ff" d="M301.4,-247.1C328.95,-229.94 393.02,-192.52 452.53,-176 539.48,-151.87 815.57,-137.38 911.94,-132.96"/>
<polygon fill="#63b8ff" stroke="#63b8ff" points="911.95,-136.46 921.78,-132.51 911.63,-129.47 911.95,-136.46"/>
</g>
<!-- Node32 -->
<g id="node23" class="node">
<title>Node32</title>
<g id="a_node23"><a xlink:title=" ">
<polygon fill="#e0e0e0" stroke="#999999" points="125.53,-206 15.53,-206 15.53,-176 125.53,-176 125.53,-206"/>
<text text-anchor="start" x="23.53" y="-194" font-family="Helvetica,sans-Serif" font-size="10.00">boost/container_hash</text>
<text text-anchor="middle" x="70.53" y="-183" font-family="Helvetica,sans-Serif" font-size="10.00">/hash.hpp</text>
</a>
</g>
</g>
<!-- Node31&#45;&gt;Node32 -->
<g id="edge26" class="edge">
<title>Node31&#45;&gt;Node32</title>
<path fill="none" stroke="#63b8ff" d="M257.35,-247.1C224.71,-237.47 171.81,-221.87 130.62,-209.72"/>
<polygon fill="#63b8ff" stroke="#63b8ff" points="131.65,-206.38 121.07,-206.91 129.67,-213.09 131.65,-206.38"/>
</g>
<!-- Node27 -->
<g id="node24" class="node">
<title>Node27</title>
<g id="a_node24"><a xlink:title=" ">
<polygon fill="#e0e0e0" stroke="#999999" points="245.53,-200.5 143.53,-200.5 143.53,-181.5 245.53,-181.5 245.53,-200.5"/>
<text text-anchor="middle" x="194.53" y="-188.5" font-family="Helvetica,sans-Serif" font-size="10.00">boost/operators.hpp</text>
</a>
</g>
</g>
<!-- Node31&#45;&gt;Node27 -->
<g id="edge27" class="edge">
<title>Node31&#45;&gt;Node27</title>
<path fill="none" stroke="#63b8ff" d="M274.6,-247.1C259.67,-236.83 234.88,-219.77 216.82,-207.34"/>
<polygon fill="#63b8ff" stroke="#63b8ff" points="218.82,-204.47 208.6,-201.68 214.85,-210.23 218.82,-204.47"/>
</g>
<!-- Node19 -->
<g id="node25" class="node">
<title>Node19</title>
<g id="a_node25"><a xlink:href="outcome_8hpp.html" target="_top" xlink:title=" ">
<polygon fill="white" stroke="#666666" points="1052.03,-79.5 939.03,-79.5 939.03,-60.5 1052.03,-60.5 1052.03,-79.5"/>
<text text-anchor="middle" x="995.53" y="-67.5" font-family="Helvetica,sans-Serif" font-size="10.00">outcome/outcome.hpp</text>
</a>
</g>
</g>
<!-- Node31&#45;&gt;Node19 -->
<g id="edge29" class="edge">
<title>Node31&#45;&gt;Node19</title>
<path fill="none" stroke="#63b8ff" d="M245.76,-254.88C175.06,-252.01 36.56,-241.85 6.53,-206 -2.04,-195.78 -2.28,-186.01 6.53,-176 67.32,-106.83 713.55,-80.03 927.31,-73.01"/>
<polygon fill="#63b8ff" stroke="#63b8ff" points="927.27,-76.52 937.15,-72.7 927.04,-69.52 927.27,-76.52"/>
</g>
<!-- Node20 -->
<g id="node26" class="node">
<title>Node20</title>
<g id="a_node26"><a xlink:title=" ">
<polygon fill="#e0e0e0" stroke="#999999" points="1066.03,-19 925.03,-19 925.03,0 1066.03,0 1066.03,-19"/>
<text text-anchor="middle" x="995.53" y="-7" font-family="Helvetica,sans-Serif" font-size="10.00">libp2p/outcome/outcome.hpp</text>
</a>
</g>
</g>
<!-- Node19&#45;&gt;Node20 -->
<g id="edge30" class="edge">
<title>Node19&#45;&gt;Node20</title>
<path fill="none" stroke="#63b8ff" d="M995.53,-60.37C995.53,-52.5 995.53,-40.6 995.53,-30.39"/>
<polygon fill="#63b8ff" stroke="#63b8ff" points="999.03,-30.68 995.53,-20.68 992.03,-30.68 999.03,-30.68"/>
</g>
<!-- Node34 -->
<g id="node28" class="node">
<title>Node34</title>
<g id="a_node28"><a xlink:title=" ">
<polygon fill="#e0e0e0" stroke="#999999" points="513.03,-200.5 462.03,-200.5 462.03,-181.5 513.03,-181.5 513.03,-200.5"/>
<text text-anchor="middle" x="487.53" y="-188.5" font-family="Helvetica,sans-Serif" font-size="10.00">memory</text>
</a>
</g>
</g>
<!-- Node33&#45;&gt;Node34 -->
<g id="edge32" class="edge">
<title>Node33&#45;&gt;Node34</title>
<path fill="none" stroke="#63b8ff" d="M457.39,-247.1C462.51,-237.74 470.72,-222.73 477.28,-210.74"/>
<polygon fill="#63b8ff" stroke="#63b8ff" points="480.25,-212.6 481.98,-202.15 474.11,-209.25 480.25,-212.6"/>
</g>
<!-- Node33&#45;&gt;Node35 -->
<g id="edge33" class="edge">
<title>Node33&#45;&gt;Node35</title>
<path fill="none" stroke="#63b8ff" d="M470.05,-247.1C488.07,-237.95 516.73,-223.39 540.07,-211.54"/>
<polygon fill="#63b8ff" stroke="#63b8ff" points="541.34,-214.81 548.67,-207.16 538.17,-208.57 541.34,-214.81"/>
</g>
<!-- Node36 -->
<g id="node30" class="node">
<title>Node36</title>
<g id="a_node30"><a xlink:href="writeable_8hpp.html" target="_top" xlink:title=" ">
<polygon fill="white" stroke="#666666" points="572.03,-140 441.03,-140 441.03,-121 572.03,-121 572.03,-140"/>
<text text-anchor="middle" x="506.53" y="-128" font-family="Helvetica,sans-Serif" font-size="10.00">storage/face/writeable.hpp</text>
</a>
</g>
</g>
<!-- Node33&#45;&gt;Node36 -->
<g id="edge36" class="edge">
<title>Node33&#45;&gt;Node36</title>
<path fill="none" stroke="#63b8ff" d="M450.17,-247.06C446.61,-231.69 441.39,-199.62 452.53,-176 458.28,-163.8 469.2,-153.82 479.72,-146.42"/>
<polygon fill="#63b8ff" stroke="#63b8ff" points="481.33,-149.54 487.84,-141.18 477.54,-143.66 481.33,-149.54"/>
</g>
<!-- Node35&#45;&gt;Node36 -->
<g id="edge34" class="edge">
<title>Node35&#45;&gt;Node36</title>
<path fill="none" stroke="#63b8ff" d="M560.73,-175.54C550.16,-166.96 536.76,-156.07 525.93,-147.26"/>
<polygon fill="#63b8ff" stroke="#63b8ff" points="528.35,-144.72 518.38,-141.13 523.93,-150.15 528.35,-144.72"/>
</g>
<!-- Node36&#45;&gt;Node19 -->
<g id="edge35" class="edge">
<title>Node36&#45;&gt;Node19</title>
<path fill="none" stroke="#63b8ff" d="M572.48,-121.61C665.2,-110.52 833.24,-90.41 927.22,-79.17"/>
<polygon fill="#63b8ff" stroke="#63b8ff" points="927.57,-82.66 937.08,-77.99 926.73,-75.7 927.57,-82.66"/>
</g>
<!-- Node38 -->
<g id="node32" class="node">
<title>Node38</title>
<g id="a_node32"><a xlink:href="generic__maps_8hpp.html" target="_top" xlink:title=" ">
<polygon fill="#fff0f0" stroke="red" points="451.03,-338 346.03,-338 346.03,-308 451.03,-308 451.03,-338"/>
<text text-anchor="start" x="354.03" y="-326" font-family="Helvetica,sans-Serif" font-size="10.00">storage/face/generic</text>
<text text-anchor="middle" x="398.53" y="-315" font-family="Helvetica,sans-Serif" font-size="10.00">_maps.hpp</text>
</a>
</g>
</g>
<!-- Node37&#45;&gt;Node38 -->
<g id="edge38" class="edge">
<title>Node37&#45;&gt;Node38</title>
<path fill="none" stroke="#63b8ff" d="M398.53,-373.8C398.53,-366.67 398.53,-357.82 398.53,-349.56"/>
<polygon fill="#63b8ff" stroke="#63b8ff" points="402.03,-349.68 398.53,-339.68 395.03,-349.68 402.03,-349.68"/>
</g>
<!-- Node38&#45;&gt;Node33 -->
<g id="edge39" class="edge">
<title>Node38&#45;&gt;Node33</title>
<path fill="none" stroke="#63b8ff" d="M410.51,-307.8C418.52,-298.31 429.11,-285.76 437.65,-275.63"/>
<polygon fill="#63b8ff" stroke="#63b8ff" points="440.31,-277.9 444.09,-268 434.96,-273.39 440.31,-277.9"/>
</g>
<!-- Node38&#45;&gt;Node36 -->
<g id="edge40" class="edge">
<title>Node38&#45;&gt;Node36</title>
<path fill="none" stroke="#63b8ff" d="M389.06,-307.77C379.49,-291.5 367.32,-264.22 376.53,-242 395.47,-196.27 445.08,-163.16 477.24,-145.67"/>
<polygon fill="#63b8ff" stroke="#63b8ff" points="478.84,-148.79 486.07,-141.05 475.59,-142.59 478.84,-148.79"/>
</g>
<!-- Node42&#45;&gt;Node12 -->
<g id="edge46" class="edge">
<title>Node42&#45;&gt;Node12</title>
<path fill="none" stroke="#63b8ff" d="M1330.8,-313.07C1300.5,-304.6 1255.84,-290.43 1219.53,-272 1198.75,-261.46 1198.19,-250.58 1176.53,-242 1073.8,-201.3 1037.36,-234.2 930.53,-206 928.95,-205.58 927.34,-205.12 925.73,-204.62"/>
<polygon fill="#63b8ff" stroke="#63b8ff" points="927.23,-201.43 916.63,-201.45 924.93,-208.05 927.23,-201.43"/>
</g>
<!-- Node42&#45;&gt;Node18 -->
<g id="edge43" class="edge">
<title>Node42&#45;&gt;Node18</title>
<path fill="none" stroke="#63b8ff" d="M1349.68,-313.11C1322.16,-297.82 1263.58,-265.85 1212.53,-242 1129.71,-203.3 1029.51,-163.71 978.64,-144.1"/>
<polygon fill="#63b8ff" stroke="#63b8ff" points="979.97,-140.87 969.38,-140.55 977.46,-147.4 979.97,-140.87"/>
</g>
<!-- Node42&#45;&gt;Node19 -->
<g id="edge47" class="edge">
<title>Node42&#45;&gt;Node19</title>
<path fill="none" stroke="#63b8ff" d="M1354.79,-313.05C1335.66,-297.37 1294.08,-264.48 1255.53,-242 1240.24,-233.08 1126.88,-182.78 1110.53,-176 1068.43,-158.55 1045.27,-173.64 1014.53,-140 1002.35,-126.67 997.87,-106.24 996.28,-91.07"/>
<polygon fill="#63b8ff" stroke="#63b8ff" points="999.79,-91.08 995.62,-81.34 992.81,-91.55 999.79,-91.08"/>
</g>
<!-- Node43 -->
<g id="node34" class="node">
<title>Node43</title>
<g id="a_node34"><a xlink:title=" ">
<polygon fill="#e0e0e0" stroke="#999999" points="1791.53,-85 1681.53,-85 1681.53,-55 1791.53,-55 1791.53,-85"/>
<text text-anchor="start" x="1689.53" y="-73" font-family="Helvetica,sans-Serif" font-size="10.00">boost/system/system</text>
<text text-anchor="middle" x="1736.53" y="-62" font-family="Helvetica,sans-Serif" font-size="10.00">_error.hpp</text>
</a>
</g>
</g>
<!-- Node42&#45;&gt;Node43 -->
<g id="edge44" class="edge">
<title>Node42&#45;&gt;Node43</title>
<path fill="none" stroke="#63b8ff" d="M1407.88,-317.15C1540.62,-300.93 1943.8,-243.71 2012.53,-140 2017.19,-132.96 2017.94,-127.48 2012.53,-121 1986.38,-89.69 1876.25,-77.95 1803.25,-73.57"/>
<polygon fill="#63b8ff" stroke="#63b8ff" points="1803.57,-70.08 1793.39,-73.01 1803.18,-77.07 1803.57,-70.08"/>
</g>
<!-- Node44 -->
<g id="node35" class="node">
<title>Node44</title>
<g id="a_node35"><a xlink:title=" ">
<polygon fill="#e0e0e0" stroke="#999999" points="2070.53,-79.5 1938.53,-79.5 1938.53,-60.5 2070.53,-60.5 2070.53,-79.5"/>
<text text-anchor="middle" x="2004.53" y="-67.5" font-family="Helvetica,sans-Serif" font-size="10.00">boost/throw_exception.hpp</text>
</a>
</g>
</g>
<!-- Node42&#45;&gt;Node44 -->
<g id="edge45" class="edge">
<title>Node42&#45;&gt;Node44</title>
<path fill="none" stroke="#63b8ff" d="M1407.91,-319.41C1480.9,-314.33 1634.69,-300.96 1761.53,-272 1851.55,-251.45 1879.48,-253.73 1958.53,-206 1994.85,-184.06 2010.85,-179.02 2027.53,-140 2034.72,-123.16 2026.38,-103.25 2017.8,-89.16"/>
<polygon fill="#63b8ff" stroke="#63b8ff" points="2020.76,-87.29 2012.29,-80.92 2014.94,-91.18 2020.76,-87.29"/>
</g>
<!-- Node45 -->
<g id="node36" class="node">
<title>Node45</title>
<g id="a_node36"><a xlink:href="scale__decoder__stream_8hpp.html" target="_top" xlink:title=" ">
<polygon fill="white" stroke="#666666" points="1443.53,-272 1337.53,-272 1337.53,-242 1443.53,-242 1443.53,-272"/>
<text text-anchor="start" x="1345.53" y="-260" font-family="Helvetica,sans-Serif" font-size="10.00">scale/scale_decoder</text>
<text text-anchor="middle" x="1390.53" y="-249" font-family="Helvetica,sans-Serif" font-size="10.00">_stream.hpp</text>
</a>
</g>
</g>
<!-- Node42&#45;&gt;Node45 -->
<g id="edge48" class="edge">
<title>Node42&#45;&gt;Node45</title>
<path fill="none" stroke="#63b8ff" d="M1369,-313.1C1372.07,-305.25 1376.69,-293.43 1380.86,-282.74"/>
<polygon fill="#63b8ff" stroke="#63b8ff" points="1384.04,-284.23 1384.42,-273.64 1377.52,-281.68 1384.04,-284.23"/>
</g>
<!-- Node62 -->
<g id="node49" class="node">
<title>Node62</title>
<g id="a_node49"><a xlink:href="scale__encoder__stream_8hpp.html" target="_top" xlink:title=" ">
<polygon fill="white" stroke="#666666" points="1586.53,-272 1480.53,-272 1480.53,-242 1586.53,-242 1586.53,-272"/>
<text text-anchor="start" x="1488.53" y="-260" font-family="Helvetica,sans-Serif" font-size="10.00">scale/scale_encoder</text>
<text text-anchor="middle" x="1533.53" y="-249" font-family="Helvetica,sans-Serif" font-size="10.00">_stream.hpp</text>
</a>
</g>
</g>
<!-- Node42&#45;&gt;Node62 -->
<g id="edge75" class="edge">
<title>Node42&#45;&gt;Node62</title>
<path fill="none" stroke="#63b8ff" d="M1388.89,-313.1C1413.67,-303.66 1453.54,-288.47 1485.15,-276.43"/>
<polygon fill="#63b8ff" stroke="#63b8ff" points="1486.01,-279.85 1494.11,-273.02 1483.52,-273.31 1486.01,-279.85"/>
</g>
<!-- Node45&#45;&gt;Node4 -->
<g id="edge51" class="edge">
<title>Node45&#45;&gt;Node4</title>
<path fill="none" stroke="#63b8ff" d="M1356.19,-241.64C1330.25,-230.79 1294.9,-216 1269.55,-205.39"/>
<polygon fill="#63b8ff" stroke="#63b8ff" points="1270.98,-202.2 1260.4,-201.57 1268.28,-208.66 1270.98,-202.2"/>
</g>
<!-- Node45&#45;&gt;Node11 -->
<g id="edge50" class="edge">
<title>Node45&#45;&gt;Node11</title>
<path fill="none" stroke="#63b8ff" d="M1337.13,-247.44C1264.06,-235.72 1133.12,-214.71 1055.09,-202.2"/>
<polygon fill="#63b8ff" stroke="#63b8ff" points="1055.9,-198.78 1045.47,-200.65 1054.79,-205.69 1055.9,-198.78"/>
</g>
<!-- Node45&#45;&gt;Node12 -->
<g id="edge52" class="edge">
<title>Node45&#45;&gt;Node12</title>
<path fill="none" stroke="#63b8ff" d="M1337.18,-251.97C1233.1,-243.82 1006.52,-224.56 930.53,-206 928.9,-205.6 927.24,-205.15 925.59,-204.65"/>
<polygon fill="#63b8ff" stroke="#63b8ff" points="926.81,-201.37 916.22,-201.44 924.54,-208 926.81,-201.37"/>
</g>
<!-- Node45&#45;&gt;Node14 -->
<g id="edge49" class="edge">
<title>Node45&#45;&gt;Node14</title>
<path fill="none" stroke="#63b8ff" d="M1374,-241.56C1348.78,-219.66 1302.68,-180.14 1293.53,-176 1205.27,-136.07 1170.78,-160.75 1072.97,-140.21"/>
<polygon fill="#63b8ff" stroke="#63b8ff" points="1074.02,-136.86 1063.5,-138.11 1072.5,-143.69 1074.02,-136.86"/>
</g>
<!-- Node46 -->
<g id="node37" class="node">
<title>Node46</title>
<g id="a_node37"><a xlink:href="outcome__throw_8hpp.html" target="_top" xlink:title=" ">
<polygon fill="white" stroke="#666666" points="1735.03,-140 1610.03,-140 1610.03,-121 1735.03,-121 1735.03,-140"/>
<text text-anchor="middle" x="1672.53" y="-128" font-family="Helvetica,sans-Serif" font-size="10.00">base/outcome_throw.hpp</text>
</a>
</g>
</g>
<!-- Node45&#45;&gt;Node46 -->
<g id="edge53" class="edge">
<title>Node45&#45;&gt;Node46</title>
<path fill="none" stroke="#63b8ff" d="M1407.12,-241.83C1433.38,-219.47 1482.02,-178.26 1486.53,-176 1521.34,-158.54 1563.31,-147.74 1598.56,-141.16"/>
<polygon fill="#63b8ff" stroke="#63b8ff" points="1599.03,-144.63 1608.26,-139.43 1597.8,-137.74 1599.03,-144.63"/>
</g>
<!-- Node47 -->
<g id="node38" class="node">
<title>Node47</title>
<g id="a_node38"><a xlink:href="fixed__witdh__integer_8hpp.html" target="_top" xlink:title=" ">
<polygon fill="white" stroke="#666666" points="1439.53,-206 1341.53,-206 1341.53,-176 1439.53,-176 1439.53,-206"/>
<text text-anchor="start" x="1349.53" y="-194" font-family="Helvetica,sans-Serif" font-size="10.00">scale/detail/fixed</text>
<text text-anchor="middle" x="1390.53" y="-183" font-family="Helvetica,sans-Serif" font-size="10.00">_witdh_integer.hpp</text>
</a>
</g>
</g>
<!-- Node45&#45;&gt;Node47 -->
<g id="edge56" class="edge">
<title>Node45&#45;&gt;Node47</title>
<path fill="none" stroke="#63b8ff" d="M1390.53,-241.8C1390.53,-234.67 1390.53,-225.82 1390.53,-217.56"/>
<polygon fill="#63b8ff" stroke="#63b8ff" points="1394.03,-217.68 1390.53,-207.68 1387.03,-217.68 1394.03,-217.68"/>
</g>
<!-- Node53 -->
<g id="node43" class="node">
<title>Node53</title>
<g id="a_node43"><a xlink:href="tuple_8hpp.html" target="_top" xlink:title=" ">
<polygon fill="white" stroke="#666666" points="1785.53,-200.5 1677.53,-200.5 1677.53,-181.5 1785.53,-181.5 1785.53,-200.5"/>
<text text-anchor="middle" x="1731.53" y="-188.5" font-family="Helvetica,sans-Serif" font-size="10.00">scale/detail/tuple.hpp</text>
</a>
</g>
</g>
<!-- Node45&#45;&gt;Node53 -->
<g id="edge66" class="edge">
<title>Node45&#45;&gt;Node53</title>
<path fill="none" stroke="#63b8ff" d="M1443.77,-246.69C1512,-234.71 1626.46,-214.45 1668.53,-206 1672.61,-205.18 1676.84,-204.3 1681.08,-203.4"/>
<polygon fill="#63b8ff" stroke="#63b8ff" points="1681.74,-206.84 1690.78,-201.3 1680.27,-200 1681.74,-206.84"/>
</g>
<!-- Node55 -->
<g id="node45" class="node">
<title>Node55</title>
<g id="a_node45"><a xlink:href="variant_8hpp.html" target="_top" xlink:title=" ">
<polygon fill="white" stroke="#666666" points="1611.53,-200.5 1495.53,-200.5 1495.53,-181.5 1611.53,-181.5 1611.53,-200.5"/>
<text text-anchor="middle" x="1553.53" y="-188.5" font-family="Helvetica,sans-Serif" font-size="10.00">scale/detail/variant.hpp</text>
</a>
</g>
</g>
<!-- Node45&#45;&gt;Node55 -->
<g id="edge68" class="edge">
<title>Node45&#45;&gt;Node55</title>
<path fill="none" stroke="#63b8ff" d="M1427.11,-241.64C1454.99,-230.69 1493.08,-215.73 1520.14,-205.11"/>
<polygon fill="#63b8ff" stroke="#63b8ff" points="1521.2,-208.45 1529.23,-201.54 1518.64,-201.94 1521.2,-208.45"/>
</g>
<!-- Node61 -->
<g id="node48" class="node">
<title>Node61</title>
<g id="a_node48"><a xlink:title=" ">
<polygon fill="#e0e0e0" stroke="#999999" points="1659.03,-200.5 1630.03,-200.5 1630.03,-181.5 1659.03,-181.5 1659.03,-200.5"/>
<text text-anchor="middle" x="1644.53" y="-188.5" font-family="Helvetica,sans-Serif" font-size="10.00">list</text>
</a>
</g>
</g>
<!-- Node45&#45;&gt;Node61 -->
<g id="edge74" class="edge">
<title>Node45&#45;&gt;Node61</title>
<path fill="none" stroke="#63b8ff" d="M1443.84,-246.41C1501.33,-235.72 1588.87,-218.32 1620.53,-206 1620.64,-205.96 1620.75,-205.91 1620.86,-205.87"/>
<polygon fill="#63b8ff" stroke="#63b8ff" points="1622.15,-209.13 1629.58,-201.58 1619.06,-202.85 1622.15,-209.13"/>
</g>
<!-- Node46&#45;&gt;Node43 -->
<g id="edge54" class="edge">
<title>Node46&#45;&gt;Node43</title>
<path fill="none" stroke="#63b8ff" d="M1682.25,-120.62C1690.22,-113.32 1701.87,-102.68 1712.33,-93.12"/>
<polygon fill="#63b8ff" stroke="#63b8ff" points="1714.59,-95.79 1719.61,-86.46 1709.87,-90.62 1714.59,-95.79"/>
</g>
<!-- Node46&#45;&gt;Node44 -->
<g id="edge55" class="edge">
<title>Node46&#45;&gt;Node44</title>
<path fill="none" stroke="#63b8ff" d="M1723.31,-120.55C1782.17,-110.18 1879.17,-93.09 1942.46,-81.94"/>
<polygon fill="#63b8ff" stroke="#63b8ff" points="1942.74,-85.44 1951.98,-80.26 1941.53,-78.55 1942.74,-85.44"/>
</g>
<!-- Node47&#45;&gt;Node6 -->
<g id="edge59" class="edge">
<title>Node47&#45;&gt;Node6</title>
<path fill="none" stroke="#63b8ff" d="M1341.26,-182.21C1325.99,-179.98 1309.09,-177.7 1293.53,-176 1078.77,-152.58 819.47,-137.99 727.18,-133.22"/>
<polygon fill="#63b8ff" stroke="#63b8ff" points="727.46,-129.73 717.3,-132.72 727.1,-136.72 727.46,-129.73"/>
</g>
<!-- Node47&#45;&gt;Node14 -->
<g id="edge58" class="edge">
<title>Node47&#45;&gt;Node14</title>
<path fill="none" stroke="#63b8ff" d="M1341.08,-178.62C1336.51,-177.69 1331.94,-176.8 1327.53,-176 1217.58,-156.12 1185.17,-164.27 1073.11,-140.26"/>
<polygon fill="#63b8ff" stroke="#63b8ff" points="1074,-136.88 1063.49,-138.16 1072.51,-143.71 1074,-136.88"/>
</g>
<!-- Node47&#45;&gt;Node18 -->
<g id="edge60" class="edge">
<title>Node47&#45;&gt;Node18</title>
<path fill="none" stroke="#63b8ff" d="M1341.2,-182.72C1325.93,-180.51 1309.04,-178.11 1293.53,-176 1232.95,-167.76 1053.36,-145.07 978.68,-135.67"/>
<polygon fill="#63b8ff" stroke="#63b8ff" points="979.49,-132.24 969.13,-134.47 978.62,-139.19 979.49,-132.24"/>
</g>
<!-- Node47&#45;&gt;Node46 -->
<g id="edge62" class="edge">
<title>Node47&#45;&gt;Node46</title>
<path fill="none" stroke="#63b8ff" d="M1439.69,-178.98C1444.36,-177.96 1449.03,-176.96 1453.53,-176 1508.68,-164.27 1571.81,-151.51 1616.07,-142.68"/>
<polygon fill="#63b8ff" stroke="#63b8ff" points="1616.57,-146.15 1625.69,-140.76 1615.2,-139.28 1616.57,-146.15"/>
</g>
<!-- Node48 -->
<g id="node39" class="node">
<title>Node48</title>
<g id="a_node39"><a xlink:title=" ">
<polygon fill="#e0e0e0" stroke="#999999" points="1271.53,-140 1215.53,-140 1215.53,-121 1271.53,-121 1271.53,-140"/>
<text text-anchor="middle" x="1243.53" y="-128" font-family="Helvetica,sans-Serif" font-size="10.00">algorithm</text>
</a>
</g>
</g>
<!-- Node47&#45;&gt;Node48 -->
<g id="edge57" class="edge">
<title>Node47&#45;&gt;Node48</title>
<path fill="none" stroke="#63b8ff" d="M1354.19,-175.54C1330.37,-166.06 1299.48,-153.77 1276.4,-144.58"/>
<polygon fill="#63b8ff" stroke="#63b8ff" points="1277.75,-141.35 1267.16,-140.91 1275.16,-147.86 1277.75,-141.35"/>
</g>
<!-- Node49 -->
<g id="node40" class="node">
<title>Node49</title>
<g id="a_node40"><a xlink:title=" ">
<polygon fill="#e0e0e0" stroke="#999999" points="1425.53,-140 1289.53,-140 1289.53,-121 1425.53,-121 1425.53,-140"/>
<text text-anchor="middle" x="1357.53" y="-128" font-family="Helvetica,sans-Serif" font-size="10.00">boost/endian/arithmetic.hpp</text>
</a>
</g>
</g>
<!-- Node47&#45;&gt;Node49 -->
<g id="edge61" class="edge">
<title>Node47&#45;&gt;Node49</title>
<path fill="none" stroke="#63b8ff" d="M1382.37,-175.54C1378.02,-167.82 1372.61,-158.24 1367.96,-149.99"/>
<polygon fill="#63b8ff" stroke="#63b8ff" points="1371.13,-148.48 1363.16,-141.49 1365.03,-151.92 1371.13,-148.48"/>
</g>
<!-- Node50 -->
<g id="node41" class="node">
<title>Node50</title>
<g id="a_node41"><a xlink:href="unreachable_8hpp.html" target="_top" xlink:title=" ">
<polygon fill="white" stroke="#666666" points="1197.03,-140 1080.03,-140 1080.03,-121 1197.03,-121 1197.03,-140"/>
<text text-anchor="middle" x="1138.53" y="-128" font-family="Helvetica,sans-Serif" font-size="10.00">macro/unreachable.hpp</text>
</a>
</g>
</g>
<!-- Node47&#45;&gt;Node50 -->
<g id="edge63" class="edge">
<title>Node47&#45;&gt;Node50</title>
<path fill="none" stroke="#63b8ff" d="M1341.04,-178.51C1296.87,-168.26 1232.5,-153.32 1188.26,-143.04"/>
<polygon fill="#63b8ff" stroke="#63b8ff" points="1189.19,-139.67 1178.66,-140.82 1187.61,-146.49 1189.19,-139.67"/>
</g>
<!-- Node51 -->
<g id="node42" class="node">
<title>Node51</title>
<g id="a_node42"><a xlink:href="scale__error_8hpp.html" target="_top" xlink:title=" ">
<polygon fill="#fff0f0" stroke="red" points="1553.03,-140 1444.03,-140 1444.03,-121 1553.03,-121 1553.03,-140"/>
<text text-anchor="middle" x="1498.53" y="-128" font-family="Helvetica,sans-Serif" font-size="10.00">scale/scale_error.hpp</text>
</a>
</g>
</g>
<!-- Node47&#45;&gt;Node51 -->
<g id="edge64" class="edge">
<title>Node47&#45;&gt;Node51</title>
<path fill="none" stroke="#63b8ff" d="M1417.22,-175.54C1434.09,-166.4 1455.77,-154.66 1472.5,-145.6"/>
<polygon fill="#63b8ff" stroke="#63b8ff" points="1473.74,-148.91 1480.86,-141.07 1470.4,-142.75 1473.74,-148.91"/>
</g>
<!-- Node51&#45;&gt;Node19 -->
<g id="edge65" class="edge">
<title>Node51&#45;&gt;Node19</title>
<path fill="none" stroke="#63b8ff" d="M1443.72,-122.15C1440.61,-121.76 1437.53,-121.37 1434.53,-121 1303.38,-104.82 1149.95,-87.78 1063.61,-78.36"/>
<polygon fill="#63b8ff" stroke="#63b8ff" points="1064.22,-74.9 1053.9,-77.3 1063.46,-81.86 1064.22,-74.9"/>
</g>
<!-- Node54 -->
<g id="node44" class="node">
<title>Node54</title>
<g id="a_node44"><a xlink:title=" ">
<polygon fill="#e0e0e0" stroke="#999999" points="2003.53,-140 1965.53,-140 1965.53,-121 2003.53,-121 2003.53,-140"/>
<text text-anchor="middle" x="1984.53" y="-128" font-family="Helvetica,sans-Serif" font-size="10.00">tuple</text>
</a>
</g>
</g>
<!-- Node53&#45;&gt;Node54 -->
<g id="edge67" class="edge">
<title>Node53&#45;&gt;Node54</title>
<path fill="none" stroke="#63b8ff" d="M1772.29,-181.03C1826.87,-169 1920.16,-148.4 1954.48,-140.23"/>
<polygon fill="#63b8ff" stroke="#63b8ff" points="1954.97,-143.71 1963.83,-137.91 1953.28,-136.92 1954.97,-143.71"/>
</g>
<!-- Node55&#45;&gt;Node19 -->
<g id="edge70" class="edge">
<title>Node55&#45;&gt;Node19</title>
<path fill="none" stroke="#63b8ff" d="M1558.58,-181.06C1566.07,-166.49 1577.7,-137.57 1562.53,-121 1529.43,-84.86 1207.15,-74.7 1063.74,-71.97"/>
<polygon fill="#63b8ff" stroke="#63b8ff" points="1064.07,-68.47 1054.01,-71.79 1063.94,-75.47 1064.07,-68.47"/>
</g>
<!-- Node55&#45;&gt;Node46 -->
<g id="edge71" class="edge">
<title>Node55&#45;&gt;Node46</title>
<path fill="none" stroke="#63b8ff" d="M1571.6,-181.12C1590.82,-171.67 1621.49,-156.59 1643.99,-145.53"/>
<polygon fill="#63b8ff" stroke="#63b8ff" points="1645.49,-148.69 1652.92,-141.14 1642.41,-142.41 1645.49,-148.69"/>
</g>
<!-- Node55&#45;&gt;Node51 -->
<g id="edge73" class="edge">
<title>Node55&#45;&gt;Node51</title>
<path fill="none" stroke="#63b8ff" d="M1545.41,-181.37C1537.29,-172.73 1524.57,-159.2 1514.43,-148.42"/>
<polygon fill="#63b8ff" stroke="#63b8ff" points="1517.11,-146.16 1507.71,-141.27 1512.01,-150.95 1517.11,-146.16"/>
</g>
<!-- Node56 -->
<g id="node46" class="node">
<title>Node56</title>
<g id="a_node46"><a xlink:title=" ">
<polygon fill="#e0e0e0" stroke="#999999" points="1844.03,-140 1753.03,-140 1753.03,-121 1844.03,-121 1844.03,-140"/>
<text text-anchor="middle" x="1798.53" y="-128" font-family="Helvetica,sans-Serif" font-size="10.00">boost/variant.hpp</text>
</a>
</g>
</g>
<!-- Node55&#45;&gt;Node56 -->
<g id="edge69" class="edge">
<title>Node55&#45;&gt;Node56</title>
<path fill="none" stroke="#63b8ff" d="M1591,-181.05C1633.6,-170.88 1703.27,-154.24 1749.99,-143.09"/>
<polygon fill="#63b8ff" stroke="#63b8ff" points="1750.67,-146.53 1759.58,-140.8 1749.04,-139.72 1750.67,-146.53"/>
</g>
<!-- Node57 -->
<g id="node47" class="node">
<title>Node57</title>
<g id="a_node47"><a xlink:href="visitor_8hpp.html" target="_top" xlink:title=" ">
<polygon fill="#fff0f0" stroke="red" points="1947.03,-140 1862.03,-140 1862.03,-121 1947.03,-121 1947.03,-140"/>
<text text-anchor="middle" x="1904.53" y="-128" font-family="Helvetica,sans-Serif" font-size="10.00">base/visitor.hpp</text>
</a>
</g>
</g>
<!-- Node55&#45;&gt;Node57 -->
<g id="edge72" class="edge">
<title>Node55&#45;&gt;Node57</title>
<path fill="none" stroke="#63b8ff" d="M1595.54,-181.01C1604.12,-179.27 1613.11,-177.52 1621.53,-176 1720.7,-158.11 1748.62,-156.66 1850.57,-140.45"/>
<polygon fill="#63b8ff" stroke="#63b8ff" points="1850.86,-143.95 1860.19,-138.92 1849.76,-137.04 1850.86,-143.95"/>
</g>
<!-- Node62&#45;&gt;Node4 -->
<g id="edge77" class="edge">
<title>Node62&#45;&gt;Node4</title>
<path fill="none" stroke="#63b8ff" d="M1480.27,-244.48C1426.34,-232.83 1343.48,-214.91 1289.88,-203.32"/>
<polygon fill="#63b8ff" stroke="#63b8ff" points="1290.91,-199.96 1280.39,-201.27 1289.43,-206.8 1290.91,-199.96"/>
</g>
<!-- Node62&#45;&gt;Node12 -->
<g id="edge78" class="edge">
<title>Node62&#45;&gt;Node12</title>
<path fill="none" stroke="#63b8ff" d="M1480.05,-245.96C1470.89,-244.47 1461.45,-243.08 1452.53,-242 1221.65,-214.16 1157.48,-256.72 930.53,-206 928.77,-205.61 926.98,-205.14 925.19,-204.62"/>
<polygon fill="#63b8ff" stroke="#63b8ff" points="926.4,-201.34 915.81,-201.44 924.15,-207.97 926.4,-201.34"/>
</g>
<!-- Node62&#45;&gt;Node47 -->
<g id="edge79" class="edge">
<title>Node62&#45;&gt;Node47</title>
<path fill="none" stroke="#63b8ff" d="M1501.43,-241.64C1481.2,-232.58 1454.83,-220.78 1432.88,-210.96"/>
<polygon fill="#63b8ff" stroke="#63b8ff" points="1434.45,-207.82 1423.89,-206.93 1431.59,-214.21 1434.45,-207.82"/>
</g>
<!-- Node62&#45;&gt;Node53 -->
<g id="edge80" class="edge">
<title>Node62&#45;&gt;Node53</title>
<path fill="none" stroke="#63b8ff" d="M1577.96,-241.64C1612.59,-230.45 1660.16,-215.07 1693.14,-204.41"/>
<polygon fill="#63b8ff" stroke="#63b8ff" points="1693.85,-207.86 1702.29,-201.45 1691.69,-201.2 1693.85,-207.86"/>
</g>
<!-- Node62&#45;&gt;Node55 -->
<g id="edge81" class="edge">
<title>Node62&#45;&gt;Node55</title>
<path fill="none" stroke="#63b8ff" d="M1537.97,-241.8C1540.75,-232.89 1544.37,-221.3 1547.42,-211.54"/>
<polygon fill="#63b8ff" stroke="#63b8ff" points="1550.67,-212.88 1550.31,-202.29 1543.99,-210.79 1550.67,-212.88"/>
</g>
<!-- Node62&#45;&gt;Node61 -->
<g id="edge82" class="edge">
<title>Node62&#45;&gt;Node61</title>
<path fill="none" stroke="#63b8ff" d="M1558.68,-241.6C1574.1,-232.76 1594.44,-221.08 1619.66,-206.49"/>
<polygon fill="#63b8ff" stroke="#63b8ff" points="1621.35,-209.55 1628.25,-201.51 1617.84,-203.49 1621.35,-209.55"/>
</g>
<!-- Node63 -->
<g id="node50" class="node">
<title>Node63</title>
<g id="a_node50"><a xlink:title=" ">
<polygon fill="#e0e0e0" stroke="#999999" points="1847.03,-200.5 1804.03,-200.5 1804.03,-181.5 1847.03,-181.5 1847.03,-200.5"/>
<text text-anchor="middle" x="1825.53" y="-188.5" font-family="Helvetica,sans-Serif" font-size="10.00">deque</text>
</a>
</g>
</g>
<!-- Node62&#45;&gt;Node63 -->
<g id="edge76" class="edge">
<title>Node62&#45;&gt;Node63</title>
<path fill="none" stroke="#63b8ff" d="M1586.92,-249.51C1640.32,-242.16 1724.37,-228.22 1794.53,-206 1795.49,-205.7 1796.46,-205.37 1797.43,-205.03"/>
<polygon fill="#63b8ff" stroke="#63b8ff" points="1798.39,-208.41 1806.37,-201.44 1795.79,-201.92 1798.39,-208.41"/>
</g>
</g>
</svg>
