<?xml version="1.0" encoding="UTF-8" standalone="no"?>
<!DOCTYPE svg PUBLIC "-//W3C//DTD SVG 1.1//EN"
 "http://www.w3.org/Graphics/SVG/1.1/DTD/svg11.dtd">
<!-- Generated by graphviz version 7.0.5 (20221223.1930)
 -->
<!-- Title: src/verification/production/epoch_storage.hpp Pages: 1 -->
<!--zoomable 478 -->
<svg id="main" version="1.1" xmlns="http://www.w3.org/2000/svg" xmlns:xlink="http://www.w3.org/1999/xlink" xml:space="preserve" onload="init(evt)">
<style type="text/css"><![CDATA[
.edge:hover path { stroke: red; }
.edge:hover polygon { stroke: red; fill: red; }
]]></style>
<script type="text/javascript"><![CDATA[
var edges = document.getElementsByTagName('g');
if (edges && edges.length) {
  for (var i=0;i<edges.length;i++) {
    if (edges[i].id.substr(0,4)=='edge') {
      edges[i].setAttribute('class','edge');
    }
  }
}
]]></script>
        <defs>
                <circle id="rim" cx="0" cy="0" r="7"/>
                <circle id="rim2" cx="0" cy="0" r="3.5"/>
                <g id="zoomPlus">
                        <use xlink:href="#rim" fill="#404040">
                                <set attributeName="fill" to="#808080" begin="zoomplus.mouseover" end="zoomplus.mouseout"/>
                        </use>
                        <path d="M-4,0h8M0,-4v8" fill="none" stroke="white" stroke-width="1.5" pointer-events="none"/>
                </g>
                <g id="zoomMin">
                        <use xlink:href="#rim" fill="#404040">
                                <set attributeName="fill" to="#808080" begin="zoomminus.mouseover" end="zoomminus.mouseout"/>
                        </use>
                        <path d="M-4,0h8" fill="none" stroke="white" stroke-width="1.5" pointer-events="none"/>
                </g>
                <g id="dirArrow">
                        <path fill="none" stroke="white" stroke-width="1.5" d="M0,-3.0v7 M-2.5,-0.5L0,-3.0L2.5,-0.5"/>
                </g>
               <g id="resetDef">
                       <use xlink:href="#rim2" fill="#404040">
                               <set attributeName="fill" to="#808080" begin="reset.mouseover" end="reset.mouseout"/>
                       </use>
               </g>
        </defs>

<script type="text/javascript">
var viewWidth = 902;
var viewHeight = 478;
var sectionId = 'dynsection-1';
</script>
<script xlink:href="svgpan.js"/>
<svg id="graph" class="graph">
<g id="viewport">
<title>src/verification/production/epoch_storage.hpp</title>
<!-- Node1 -->
<g id="node1" class="node">
<title>Node1</title>
<g id="a_node1"><a xlink:title=" ">
<polygon fill="#999999" stroke="#666666" points="475,-470 347,-470 347,-440 475,-440 475,-470"/>
<text text-anchor="start" x="355" y="-458" font-family="Helvetica,sans-Serif" font-size="10.00">src/verification/production</text>
<text text-anchor="middle" x="411" y="-447" font-family="Helvetica,sans-Serif" font-size="10.00">/epoch_storage.hpp</text>
</a>
</g>
</g>
<!-- Node2 -->
<g id="node2" class="node">
<title>Node2</title>
<g id="a_node2"><a xlink:href="block__executor_8hpp.html" target="_top" xlink:title=" ">
<polygon fill="white" stroke="#666666" points="320,-404 192,-404 192,-374 320,-374 320,-404"/>
<text text-anchor="start" x="200" y="-392" font-family="Helvetica,sans-Serif" font-size="10.00">src/verification/production</text>
<text text-anchor="middle" x="256" y="-381" font-family="Helvetica,sans-Serif" font-size="10.00">/impl/block_executor.hpp</text>
</a>
</g>
</g>
<!-- Node1&#45;&gt;Node2 -->
<g id="edge1" class="edge">
<title>Node1&#45;&gt;Node2</title>
<path fill="none" stroke="#63b8ff" d="M365.65,-435.27C341.81,-425.43 313.03,-413.55 290.94,-404.43"/>
<polygon fill="#63b8ff" stroke="#63b8ff" points="364.24,-438.48 374.82,-439.06 366.91,-432.01 364.24,-438.48"/>
</g>
<!-- Node4 -->
<g id="node4" class="node">
<title>Node4</title>
<g id="a_node4"><a xlink:href="production__impl_8hpp.html" target="_top" xlink:title=" ">
<polygon fill="white" stroke="#666666" points="716,-332.5 588,-332.5 588,-302.5 716,-302.5 716,-332.5"/>
<text text-anchor="start" x="596" y="-320.5" font-family="Helvetica,sans-Serif" font-size="10.00">src/verification/production</text>
<text text-anchor="middle" x="652" y="-309.5" font-family="Helvetica,sans-Serif" font-size="10.00">/impl/production_impl.hpp</text>
</a>
</g>
</g>
<!-- Node1&#45;&gt;Node4 -->
<g id="edge30" class="edge">
<title>Node1&#45;&gt;Node4</title>
<path fill="none" stroke="#63b8ff" d="M446.18,-434.22C495.2,-406.66 582.91,-357.34 626.28,-332.96"/>
<polygon fill="#63b8ff" stroke="#63b8ff" points="444.66,-431.06 437.66,-439.01 448.09,-437.16 444.66,-431.06"/>
</g>
<!-- Node21 -->
<g id="node21" class="node">
<title>Node21</title>
<g id="a_node21"><a xlink:href="epoch__storage__impl_8hpp.html" target="_top" xlink:title=" ">
<polygon fill="white" stroke="#666666" points="484,-404 338,-404 338,-374 484,-374 484,-404"/>
<text text-anchor="start" x="346" y="-392" font-family="Helvetica,sans-Serif" font-size="10.00">src/verification/production</text>
<text text-anchor="middle" x="411" y="-381" font-family="Helvetica,sans-Serif" font-size="10.00">/impl/epoch_storage_impl.hpp</text>
</a>
</g>
</g>
<!-- Node1&#45;&gt;Node21 -->
<g id="edge23" class="edge">
<title>Node1&#45;&gt;Node21</title>
<path fill="none" stroke="#63b8ff" d="M411,-428.39C411,-420.13 411,-411.28 411,-404.16"/>
<polygon fill="#63b8ff" stroke="#63b8ff" points="407.5,-428.28 411,-438.28 414.5,-428.28 407.5,-428.28"/>
</g>
<!-- Node3 -->
<g id="node3" class="node">
<title>Node3</title>
<g id="a_node3"><a xlink:href="block__executor_8cpp.html" target="_top" xlink:title=" ">
<polygon fill="white" stroke="#666666" points="128,-332.5 0,-332.5 0,-302.5 128,-302.5 128,-332.5"/>
<text text-anchor="start" x="8" y="-320.5" font-family="Helvetica,sans-Serif" font-size="10.00">src/verification/production</text>
<text text-anchor="middle" x="64" y="-309.5" font-family="Helvetica,sans-Serif" font-size="10.00">/impl/block_executor.cpp</text>
</a>
</g>
</g>
<!-- Node2&#45;&gt;Node3 -->
<g id="edge2" class="edge">
<title>Node2&#45;&gt;Node3</title>
<path fill="none" stroke="#63b8ff" d="M205.78,-369.82C173.94,-358.3 133.32,-343.59 103.73,-332.88"/>
<polygon fill="#63b8ff" stroke="#63b8ff" points="204.2,-372.97 214.79,-373.08 206.58,-366.39 204.2,-372.97"/>
</g>
<!-- Node2&#45;&gt;Node4 -->
<g id="edge3" class="edge">
<title>Node2&#45;&gt;Node4</title>
<path fill="none" stroke="#63b8ff" d="M331.71,-373.61C441.68,-355.72 472.57,-359.8 579,-338 586.2,-336.53 593.74,-334.76 601.13,-332.91"/>
<polygon fill="#63b8ff" stroke="#63b8ff" points="331.25,-370.14 321.95,-375.22 332.39,-377.04 331.25,-370.14"/>
</g>
<!-- Node15 -->
<g id="node15" class="node">
<title>Node15</title>
<g id="a_node15"><a xlink:href="syncing__production__observer_8hpp.html" target="_top" xlink:title=" ">
<polygon fill="white" stroke="#666666" points="274,-338 146,-338 146,-297 274,-297 274,-338"/>
<text text-anchor="start" x="154" y="-326" font-family="Helvetica,sans-Serif" font-size="10.00">src/verification/production</text>
<text text-anchor="start" x="154" y="-315" font-family="Helvetica,sans-Serif" font-size="10.00">/impl/syncing_production</text>
<text text-anchor="middle" x="210" y="-304" font-family="Helvetica,sans-Serif" font-size="10.00">_observer.hpp</text>
</a>
</g>
</g>
<!-- Node2&#45;&gt;Node15 -->
<g id="edge16" class="edge">
<title>Node2&#45;&gt;Node15</title>
<path fill="none" stroke="#63b8ff" d="M240.13,-364.02C234.6,-355.67 228.47,-346.4 223.18,-338.42"/>
<polygon fill="#63b8ff" stroke="#63b8ff" points="237.2,-365.93 245.63,-372.34 243.03,-362.07 237.2,-365.93"/>
</g>
<!-- Node5 -->
<g id="node5" class="node">
<title>Node5</title>
<g id="a_node5"><a xlink:href="block__producing__node__injector_8hpp.html" target="_top" xlink:title=" ">
<polygon fill="white" stroke="#666666" points="591.5,-184 446.5,-184 446.5,-154 591.5,-154 591.5,-184"/>
<text text-anchor="start" x="454.5" y="-172" font-family="Helvetica,sans-Serif" font-size="10.00">src/injector/block</text>
<text text-anchor="middle" x="519" y="-161" font-family="Helvetica,sans-Serif" font-size="10.00">_producing_node_injector.hpp</text>
</a>
</g>
</g>
<!-- Node4&#45;&gt;Node5 -->
<g id="edge4" class="edge">
<title>Node4&#45;&gt;Node5</title>
<path fill="none" stroke="#63b8ff" d="M624.34,-295.18C612.31,-285.34 598.4,-273.17 587,-261 563.54,-235.96 540.55,-202.92 528.24,-184.32"/>
<polygon fill="#63b8ff" stroke="#63b8ff" points="621.92,-297.73 631.91,-301.26 626.31,-292.27 621.92,-297.73"/>
</g>
<!-- Node10 -->
<g id="node10" class="node">
<title>Node10</title>
<g id="a_node10"><a xlink:href="validating__node__injector_8hpp.html" target="_top" xlink:title=" ">
<polygon fill="white" stroke="#666666" points="704.5,-255.5 595.5,-255.5 595.5,-225.5 704.5,-225.5 704.5,-255.5"/>
<text text-anchor="start" x="603.5" y="-243.5" font-family="Helvetica,sans-Serif" font-size="10.00">src/injector/validating</text>
<text text-anchor="middle" x="650" y="-232.5" font-family="Helvetica,sans-Serif" font-size="10.00">_node_injector.hpp</text>
</a>
</g>
</g>
<!-- Node4&#45;&gt;Node10 -->
<g id="edge9" class="edge">
<title>Node4&#45;&gt;Node10</title>
<path fill="none" stroke="#63b8ff" d="M651.31,-290.73C651,-279.08 650.65,-265.76 650.38,-255.92"/>
<polygon fill="#63b8ff" stroke="#63b8ff" points="647.81,-290.62 651.57,-300.53 654.81,-290.44 647.81,-290.62"/>
</g>
<!-- Node14 -->
<g id="node14" class="node">
<title>Node14</title>
<g id="a_node14"><a xlink:href="production__impl_8cpp.html" target="_top" xlink:title=" ">
<polygon fill="white" stroke="#666666" points="851,-255.5 723,-255.5 723,-225.5 851,-225.5 851,-255.5"/>
<text text-anchor="start" x="731" y="-243.5" font-family="Helvetica,sans-Serif" font-size="10.00">src/verification/production</text>
<text text-anchor="middle" x="787" y="-232.5" font-family="Helvetica,sans-Serif" font-size="10.00">/impl/production_impl.cpp</text>
</a>
</g>
</g>
<!-- Node4&#45;&gt;Node14 -->
<g id="edge15" class="edge">
<title>Node4&#45;&gt;Node14</title>
<path fill="none" stroke="#63b8ff" d="M687.79,-296.62C710.83,-283.82 740.25,-267.47 761.05,-255.92"/>
<polygon fill="#63b8ff" stroke="#63b8ff" points="686.39,-293.39 679.35,-301.3 689.79,-299.51 686.39,-293.39"/>
</g>
<!-- Node6 -->
<g id="node6" class="node">
<title>Node6</title>
<g id="a_node6"><a xlink:href="block__producing__node__application_8hpp.html" target="_top" xlink:title=" ">
<polygon fill="white" stroke="#666666" points="492,-118 376,-118 376,-77 492,-77 492,-118"/>
<text text-anchor="start" x="384" y="-106" font-family="Helvetica,sans-Serif" font-size="10.00">src/application/impl</text>
<text text-anchor="start" x="384" y="-95" font-family="Helvetica,sans-Serif" font-size="10.00">/block_producing_node</text>
<text text-anchor="middle" x="434" y="-84" font-family="Helvetica,sans-Serif" font-size="10.00">_application.hpp</text>
</a>
</g>
</g>
<!-- Node5&#45;&gt;Node6 -->
<g id="edge5" class="edge">
<title>Node5&#45;&gt;Node6</title>
<path fill="none" stroke="#63b8ff" d="M492.67,-146.47C481.72,-137.52 469.09,-127.19 458.36,-118.42"/>
<polygon fill="#63b8ff" stroke="#63b8ff" points="490.26,-149.02 500.22,-152.64 494.69,-143.6 490.26,-149.02"/>
</g>
<!-- Node9 -->
<g id="node9" class="node">
<title>Node9</title>
<g id="a_node9"><a xlink:href="block__producing__node__injector_8cpp.html" target="_top" xlink:title=" ">
<polygon fill="white" stroke="#666666" points="655.5,-112.5 510.5,-112.5 510.5,-82.5 655.5,-82.5 655.5,-112.5"/>
<text text-anchor="start" x="518.5" y="-100.5" font-family="Helvetica,sans-Serif" font-size="10.00">src/injector/block</text>
<text text-anchor="middle" x="583" y="-89.5" font-family="Helvetica,sans-Serif" font-size="10.00">_producing_node_injector.cpp</text>
</a>
</g>
</g>
<!-- Node5&#45;&gt;Node9 -->
<g id="edge8" class="edge">
<title>Node5&#45;&gt;Node9</title>
<path fill="none" stroke="#63b8ff" d="M540.03,-145.17C549.82,-134.53 561.18,-122.2 569.76,-112.88"/>
<polygon fill="#63b8ff" stroke="#63b8ff" points="537.49,-142.76 533.29,-152.49 542.63,-147.5 537.49,-142.76"/>
</g>
<!-- Node7 -->
<g id="node7" class="node">
<title>Node7</title>
<g id="a_node7"><a xlink:href="app__delegate_8cpp.html" target="_top" xlink:title=" ">
<polygon fill="white" stroke="#666666" points="684,-30 568,-30 568,-11 684,-11 684,-30"/>
<text text-anchor="middle" x="626" y="-18" font-family="Helvetica,sans-Serif" font-size="10.00">node/app_delegate.cpp</text>
</a>
</g>
</g>
<!-- Node6&#45;&gt;Node7 -->
<g id="edge6" class="edge">
<title>Node6&#45;&gt;Node7</title>
<path fill="none" stroke="#63b8ff" d="M495.55,-72.46C532.21,-58.13 576.6,-40.8 603,-30.48"/>
<polygon fill="#63b8ff" stroke="#63b8ff" points="494.4,-69.15 486.36,-76.05 496.95,-75.67 494.4,-69.15"/>
</g>
<!-- Node8 -->
<g id="node8" class="node">
<title>Node8</title>
<g id="a_node8"><a xlink:href="block__producing__node__application_8cpp.html" target="_top" xlink:title=" ">
<polygon fill="white" stroke="#666666" points="492,-41 376,-41 376,0 492,0 492,-41"/>
<text text-anchor="start" x="384" y="-29" font-family="Helvetica,sans-Serif" font-size="10.00">src/application/impl</text>
<text text-anchor="start" x="384" y="-18" font-family="Helvetica,sans-Serif" font-size="10.00">/block_producing_node</text>
<text text-anchor="middle" x="434" y="-7" font-family="Helvetica,sans-Serif" font-size="10.00">_application.cpp</text>
</a>
</g>
</g>
<!-- Node6&#45;&gt;Node8 -->
<g id="edge7" class="edge">
<title>Node6&#45;&gt;Node8</title>
<path fill="none" stroke="#63b8ff" d="M434,-65.36C434,-57.24 434,-48.7 434,-41.33"/>
<polygon fill="#63b8ff" stroke="#63b8ff" points="430.5,-65.28 434,-75.28 437.5,-65.28 430.5,-65.28"/>
</g>
<!-- Node10&#45;&gt;Node5 -->
<g id="edge13" class="edge">
<title>Node10&#45;&gt;Node5</title>
<path fill="none" stroke="#63b8ff" d="M612.87,-219.8C591.62,-208.53 565.42,-194.63 546.11,-184.38"/>
<polygon fill="#63b8ff" stroke="#63b8ff" points="611.05,-222.8 621.52,-224.39 614.33,-216.61 611.05,-222.8"/>
</g>
<!-- Node11 -->
<g id="node11" class="node">
<title>Node11</title>
<g id="a_node11"><a xlink:href="validating__node__application_8hpp.html" target="_top" xlink:title=" ">
<polygon fill="white" stroke="#666666" points="766.5,-184 609.5,-184 609.5,-154 766.5,-154 766.5,-184"/>
<text text-anchor="start" x="617.5" y="-172" font-family="Helvetica,sans-Serif" font-size="10.00">src/application/impl</text>
<text text-anchor="middle" x="688" y="-161" font-family="Helvetica,sans-Serif" font-size="10.00">/validating_node_application.hpp</text>
</a>
</g>
</g>
<!-- Node10&#45;&gt;Node11 -->
<g id="edge10" class="edge">
<title>Node10&#45;&gt;Node11</title>
<path fill="none" stroke="#63b8ff" d="M663.36,-215.06C668.97,-204.8 675.3,-193.23 680.14,-184.38"/>
<polygon fill="#63b8ff" stroke="#63b8ff" points="660.33,-213.32 658.6,-223.77 666.47,-216.68 660.33,-213.32"/>
</g>
<!-- Node13 -->
<g id="node13" class="node">
<title>Node13</title>
<g id="a_node13"><a xlink:href="validating__node__injector_8cpp.html" target="_top" xlink:title=" ">
<polygon fill="white" stroke="#666666" points="893.5,-184 784.5,-184 784.5,-154 893.5,-154 893.5,-184"/>
<text text-anchor="start" x="792.5" y="-172" font-family="Helvetica,sans-Serif" font-size="10.00">src/injector/validating</text>
<text text-anchor="middle" x="839" y="-161" font-family="Helvetica,sans-Serif" font-size="10.00">_node_injector.cpp</text>
</a>
</g>
</g>
<!-- Node10&#45;&gt;Node13 -->
<g id="edge14" class="edge">
<title>Node10&#45;&gt;Node13</title>
<path fill="none" stroke="#63b8ff" d="M699.84,-221.17C731.12,-209.67 770.89,-195.05 799.89,-184.38"/>
<polygon fill="#63b8ff" stroke="#63b8ff" points="698.76,-217.84 690.58,-224.58 701.17,-224.41 698.76,-217.84"/>
</g>
<!-- Node11&#45;&gt;Node7 -->
<g id="edge11" class="edge">
<title>Node11&#45;&gt;Node7</title>
<path fill="none" stroke="#63b8ff" d="M684.11,-142.41C680.66,-123.7 674.64,-98.02 665,-77 656.75,-59.02 642.53,-40.73 633.73,-30.29"/>
<polygon fill="#63b8ff" stroke="#63b8ff" points="680.63,-142.83 685.77,-152.09 687.53,-141.65 680.63,-142.83"/>
</g>
<!-- Node12 -->
<g id="node12" class="node">
<title>Node12</title>
<g id="a_node12"><a xlink:href="validating__node__application_8cpp.html" target="_top" xlink:title=" ">
<polygon fill="white" stroke="#666666" points="869.5,-112.5 712.5,-112.5 712.5,-82.5 869.5,-82.5 869.5,-112.5"/>
<text text-anchor="start" x="720.5" y="-100.5" font-family="Helvetica,sans-Serif" font-size="10.00">src/application/impl</text>
<text text-anchor="middle" x="791" y="-89.5" font-family="Helvetica,sans-Serif" font-size="10.00">/validating_node_application.cpp</text>
</a>
</g>
</g>
<!-- Node11&#45;&gt;Node12 -->
<g id="edge12" class="edge">
<title>Node11&#45;&gt;Node12</title>
<path fill="none" stroke="#63b8ff" d="M718.57,-147.37C735.02,-136.27 754.91,-122.85 769.69,-112.88"/>
<polygon fill="#63b8ff" stroke="#63b8ff" points="716.93,-144.26 710.6,-152.75 720.84,-150.06 716.93,-144.26"/>
</g>
<!-- Node15&#45;&gt;Node5 -->
<g id="edge17" class="edge">
<title>Node15&#45;&gt;Node5</title>
<path fill="none" stroke="#63b8ff" d="M275.93,-292.04C294.86,-283.58 314.97,-273.13 332,-261 352.49,-246.41 349.8,-233.53 371,-220 396.26,-203.88 427.29,-192.36 454.4,-184.47"/>
<polygon fill="#63b8ff" stroke="#63b8ff" points="274.74,-288.74 266.96,-295.93 277.53,-295.16 274.74,-288.74"/>
</g>
<!-- Node16 -->
<g id="node16" class="node">
<title>Node16</title>
<g id="a_node16"><a xlink:href="syncing__node__injector_8hpp.html" target="_top" xlink:title=" ">
<polygon fill="white" stroke="#666666" points="323.5,-255.5 222.5,-255.5 222.5,-225.5 323.5,-225.5 323.5,-255.5"/>
<text text-anchor="start" x="230.5" y="-243.5" font-family="Helvetica,sans-Serif" font-size="10.00">src/injector/syncing</text>
<text text-anchor="middle" x="273" y="-232.5" font-family="Helvetica,sans-Serif" font-size="10.00">_node_injector.hpp</text>
</a>
</g>
</g>
<!-- Node15&#45;&gt;Node16 -->
<g id="edge18" class="edge">
<title>Node15&#45;&gt;Node16</title>
<path fill="none" stroke="#63b8ff" d="M233.72,-288.26C243,-277.21 253.24,-265.02 260.94,-255.86"/>
<polygon fill="#63b8ff" stroke="#63b8ff" points="231.28,-285.73 227.53,-295.64 236.64,-290.23 231.28,-285.73"/>
</g>
<!-- Node20 -->
<g id="node20" class="node">
<title>Node20</title>
<g id="a_node20"><a xlink:href="syncing__production__observer_8cpp.html" target="_top" xlink:title=" ">
<polygon fill="white" stroke="#666666" points="204,-261 76,-261 76,-220 204,-220 204,-261"/>
<text text-anchor="start" x="84" y="-249" font-family="Helvetica,sans-Serif" font-size="10.00">src/verification/production</text>
<text text-anchor="start" x="84" y="-238" font-family="Helvetica,sans-Serif" font-size="10.00">/impl/syncing_production</text>
<text text-anchor="middle" x="140" y="-227" font-family="Helvetica,sans-Serif" font-size="10.00">_observer.cpp</text>
</a>
</g>
</g>
<!-- Node15&#45;&gt;Node20 -->
<g id="edge22" class="edge">
<title>Node15&#45;&gt;Node20</title>
<path fill="none" stroke="#63b8ff" d="M183.83,-288.46C175.41,-279.44 166.26,-269.64 158.51,-261.33"/>
<polygon fill="#63b8ff" stroke="#63b8ff" points="181.19,-290.77 190.58,-295.69 186.31,-285.99 181.19,-290.77"/>
</g>
<!-- Node17 -->
<g id="node17" class="node">
<title>Node17</title>
<g id="a_node17"><a xlink:href="syncing__node__application_8hpp.html" target="_top" xlink:title=" ">
<polygon fill="white" stroke="#666666" points="349.5,-184 200.5,-184 200.5,-154 349.5,-154 349.5,-184"/>
<text text-anchor="start" x="208.5" y="-172" font-family="Helvetica,sans-Serif" font-size="10.00">src/application/impl</text>
<text text-anchor="middle" x="275" y="-161" font-family="Helvetica,sans-Serif" font-size="10.00">/syncing_node_application.hpp</text>
</a>
</g>
</g>
<!-- Node16&#45;&gt;Node17 -->
<g id="edge19" class="edge">
<title>Node16&#45;&gt;Node17</title>
<path fill="none" stroke="#63b8ff" d="M273.74,-213.76C274.03,-203.83 274.34,-192.86 274.59,-184.38"/>
<polygon fill="#63b8ff" stroke="#63b8ff" points="270.25,-213.49 273.46,-223.59 277.24,-213.69 270.25,-213.49"/>
</g>
<!-- Node19 -->
<g id="node19" class="node">
<title>Node19</title>
<g id="a_node19"><a xlink:href="syncing__node__injector_8cpp.html" target="_top" xlink:title=" ">
<polygon fill="white" stroke="#666666" points="182.5,-184 81.5,-184 81.5,-154 182.5,-154 182.5,-184"/>
<text text-anchor="start" x="89.5" y="-172" font-family="Helvetica,sans-Serif" font-size="10.00">src/injector/syncing</text>
<text text-anchor="middle" x="132" y="-161" font-family="Helvetica,sans-Serif" font-size="10.00">_node_injector.cpp</text>
</a>
</g>
</g>
<!-- Node16&#45;&gt;Node19 -->
<g id="edge21" class="edge">
<title>Node16&#45;&gt;Node19</title>
<path fill="none" stroke="#63b8ff" d="M233.66,-220.11C210.67,-208.78 182.15,-194.72 161.18,-184.38"/>
<polygon fill="#63b8ff" stroke="#63b8ff" points="231.91,-223.15 242.43,-224.43 235,-216.87 231.91,-223.15"/>
</g>
<!-- Node18 -->
<g id="node18" class="node">
<title>Node18</title>
<g id="a_node18"><a xlink:href="syncing__node__application_8cpp.html" target="_top" xlink:title=" ">
<polygon fill="white" stroke="#666666" points="349.5,-112.5 200.5,-112.5 200.5,-82.5 349.5,-82.5 349.5,-112.5"/>
<text text-anchor="start" x="208.5" y="-100.5" font-family="Helvetica,sans-Serif" font-size="10.00">src/application/impl</text>
<text text-anchor="middle" x="275" y="-89.5" font-family="Helvetica,sans-Serif" font-size="10.00">/syncing_node_application.cpp</text>
</a>
</g>
</g>
<!-- Node17&#45;&gt;Node18 -->
<g id="edge20" class="edge">
<title>Node17&#45;&gt;Node18</title>
<path fill="none" stroke="#63b8ff" d="M275,-142.26C275,-132.33 275,-121.36 275,-112.88"/>
<polygon fill="#63b8ff" stroke="#63b8ff" points="271.5,-142.09 275,-152.09 278.5,-142.09 271.5,-142.09"/>
</g>
<!-- Node22 -->
<g id="node22" class="node">
<title>Node22</title>
<g id="a_node22"><a xlink:href="application__injector_8hpp.html" target="_top" xlink:title=" ">
<polygon fill="white" stroke="#666666" points="570,-332.5 456,-332.5 456,-302.5 570,-302.5 570,-332.5"/>
<text text-anchor="start" x="464" y="-320.5" font-family="Helvetica,sans-Serif" font-size="10.00">src/injector/application</text>
<text text-anchor="middle" x="513" y="-309.5" font-family="Helvetica,sans-Serif" font-size="10.00">_injector.hpp</text>
</a>
</g>
</g>
<!-- Node21&#45;&gt;Node22 -->
<g id="edge24" class="edge">
<title>Node21&#45;&gt;Node22</title>
<path fill="none" stroke="#63b8ff" d="M441.27,-367.37C457.57,-356.27 477.27,-342.85 491.89,-332.88"/>
<polygon fill="#63b8ff" stroke="#63b8ff" points="439.68,-364.22 433.39,-372.75 443.62,-370.01 439.68,-364.22"/>
</g>
<!-- Node24 -->
<g id="node24" class="node">
<title>Node24</title>
<g id="a_node24"><a xlink:href="epoch__storage__impl_8cpp.html" target="_top" xlink:title=" ">
<polygon fill="white" stroke="#666666" points="438,-332.5 292,-332.5 292,-302.5 438,-302.5 438,-332.5"/>
<text text-anchor="start" x="300" y="-320.5" font-family="Helvetica,sans-Serif" font-size="10.00">src/verification/production</text>
<text text-anchor="middle" x="365" y="-309.5" font-family="Helvetica,sans-Serif" font-size="10.00">/impl/epoch_storage_impl.cpp</text>
</a>
</g>
</g>
<!-- Node21&#45;&gt;Node24 -->
<g id="edge29" class="edge">
<title>Node21&#45;&gt;Node24</title>
<path fill="none" stroke="#63b8ff" d="M395.25,-364.2C388.36,-353.79 380.5,-341.92 374.52,-332.88"/>
<polygon fill="#63b8ff" stroke="#63b8ff" points="392.2,-365.93 400.63,-372.34 398.03,-362.07 392.2,-365.93"/>
</g>
<!-- Node22&#45;&gt;Node5 -->
<g id="edge26" class="edge">
<title>Node22&#45;&gt;Node5</title>
<path fill="none" stroke="#63b8ff" d="M514.04,-291.03C515.31,-260.04 517.41,-208.83 518.42,-184.16"/>
<polygon fill="#63b8ff" stroke="#63b8ff" points="510.56,-290.54 513.65,-300.67 517.55,-290.83 510.56,-290.54"/>
</g>
<!-- Node22&#45;&gt;Node10 -->
<g id="edge28" class="edge">
<title>Node22&#45;&gt;Node10</title>
<path fill="none" stroke="#63b8ff" d="M549.32,-296.62C572.7,-283.82 602.56,-267.47 623.67,-255.92"/>
<polygon fill="#63b8ff" stroke="#63b8ff" points="547.83,-293.44 540.74,-301.31 551.19,-299.58 547.83,-293.44"/>
</g>
<!-- Node22&#45;&gt;Node16 -->
<g id="edge27" class="edge">
<title>Node22&#45;&gt;Node16</title>
<path fill="none" stroke="#63b8ff" d="M455.88,-298.65C414.09,-285.59 358.1,-268.09 319.13,-255.92"/>
<polygon fill="#63b8ff" stroke="#63b8ff" points="454.69,-301.95 465.28,-301.59 456.78,-295.26 454.69,-301.95"/>
</g>
<!-- Node23 -->
<g id="node23" class="node">
<title>Node23</title>
<g id="a_node23"><a xlink:href="application__injector_8cpp.html" target="_top" xlink:title=" ">
<polygon fill="white" stroke="#666666" points="494,-255.5 380,-255.5 380,-225.5 494,-225.5 494,-255.5"/>
<text text-anchor="start" x="388" y="-243.5" font-family="Helvetica,sans-Serif" font-size="10.00">src/injector/application</text>
<text text-anchor="middle" x="437" y="-232.5" font-family="Helvetica,sans-Serif" font-size="10.00">_injector.cpp</text>
</a>
</g>
</g>
<!-- Node22&#45;&gt;Node23 -->
<g id="edge25" class="edge">
<title>Node22&#45;&gt;Node23</title>
<path fill="none" stroke="#63b8ff" d="M490.19,-293.99C477.67,-281.64 462.53,-266.7 451.61,-255.92"/>
<polygon fill="#63b8ff" stroke="#63b8ff" points="487.69,-296.44 497.27,-300.98 492.61,-291.46 487.69,-296.44"/>
</g>
</g>
</svg>
        <g id="navigator" transform="translate(0 0)" fill="#404254">
                <rect fill="#f2f5e9" fill-opacity="0.5" stroke="#606060" stroke-width=".5" x="0" y="0" width="60" height="60"/>
                <use id="zoomplus" xlink:href="#zoomPlus" x="17" y="9" onmousedown="handleZoom(evt,'in')"/>
                <use id="zoomminus" xlink:href="#zoomMin" x="42" y="9" onmousedown="handleZoom(evt,'out')"/>
                <use id="reset" xlink:href="#resetDef" x="30" y="36" onmousedown="handleReset()"/>
                <g id="arrowUp" xlink:href="#dirArrow" transform="translate(30 24)" onmousedown="handlePan(0,-1)">
                  <use xlink:href="#rim" fill="#404040">
                        <set attributeName="fill" to="#808080" begin="arrowUp.mouseover" end="arrowUp.mouseout"/>
                  </use>
                  <path fill="none" stroke="white" stroke-width="1.5" d="M0,-3.0v7 M-2.5,-0.5L0,-3.0L2.5,-0.5"/>
                </g>
                <g id="arrowRight" xlink:href="#dirArrow" transform="rotate(90) translate(36 -43)" onmousedown="handlePan(1,0)">
                  <use xlink:href="#rim" fill="#404040">
                        <set attributeName="fill" to="#808080" begin="arrowRight.mouseover" end="arrowRight.mouseout"/>
                  </use>
                  <path fill="none" stroke="white" stroke-width="1.5" d="M0,-3.0v7 M-2.5,-0.5L0,-3.0L2.5,-0.5"/>
                </g>
                <g id="arrowDown" xlink:href="#dirArrow" transform="rotate(180) translate(-30 -48)" onmousedown="handlePan(0,1)">
                  <use xlink:href="#rim" fill="#404040">
                        <set attributeName="fill" to="#808080" begin="arrowDown.mouseover" end="arrowDown.mouseout"/>
                  </use>
                  <path fill="none" stroke="white" stroke-width="1.5" d="M0,-3.0v7 M-2.5,-0.5L0,-3.0L2.5,-0.5"/>
                </g>
                <g id="arrowLeft" xlink:href="#dirArrow" transform="rotate(270) translate(-36 17)" onmousedown="handlePan(-1,0)">
                  <use xlink:href="#rim" fill="#404040">
                        <set attributeName="fill" to="#808080" begin="arrowLeft.mouseover" end="arrowLeft.mouseout"/>
                  </use>
                  <path fill="none" stroke="white" stroke-width="1.5" d="M0,-3.0v7 M-2.5,-0.5L0,-3.0L2.5,-0.5"/>
                </g>
        </g>
        <svg viewBox="0 0 15 15" width="100%" height="30px" preserveAspectRatio="xMaxYMin meet">
         <g id="arrow_out" transform="scale(0.3 0.3)">
          <a xlink:href="epoch__storage_8hpp__dep__incl_org.svg" target="_base">
           <rect id="button" ry="5" rx="5" y="6" x="6" height="38" width="38"
                fill="#f2f5e9" fill-opacity="0.5" stroke="#606060" stroke-width="1.0"/>
           <path id="arrow"
             d="M 11.500037,31.436501 C 11.940474,20.09759 22.043105,11.32322 32.158766,21.979434 L 37.068811,17.246167 C 37.068811,17.246167 37.088388,32 37.088388,32 L 22.160133,31.978069 C 22.160133,31.978069 26.997745,27.140456 26.997745,27.140456 C 18.528582,18.264221 13.291696,25.230495 11.500037,31.436501 z"
             style="fill:#404040;"/>
          </a>
         </g>
        </svg>
</svg>
