<?xml version="1.0" encoding="UTF-8" standalone="no"?>
<!DOCTYPE svg PUBLIC "-//W3C//DTD SVG 1.1//EN"
 "http://www.w3.org/Graphics/SVG/1.1/DTD/svg11.dtd">
<!-- Generated by graphviz version 7.0.5 (20221223.1930)
 -->
<!-- Title: src/verification/finality/impl/finalization_composite.hpp Pages: 1 -->
<svg width="421pt" height="445pt"
 viewBox="0.00 0.00 420.50 445.00" xmlns="http://www.w3.org/2000/svg" xmlns:xlink="http://www.w3.org/1999/xlink">
<g id="graph0" class="graph" transform="scale(1 1) rotate(0) translate(4 441)">
<title>src/verification/finality/impl/finalization_composite.hpp</title>
<!-- Node1 -->
<g id="node1" class="node">
<title>Node1</title>
<g id="a_node1"><a xlink:title=" ">
<polygon fill="#999999" stroke="#666666" points="210.5,-437 56.5,-437 56.5,-407 210.5,-407 210.5,-437"/>
<text text-anchor="start" x="64.5" y="-425" font-family="Helvetica,sans-Serif" font-size="10.00">src/verification/finality</text>
<text text-anchor="middle" x="133.5" y="-414" font-family="Helvetica,sans-Serif" font-size="10.00">/impl/finalization_composite.hpp</text>
</a>
</g>
</g>
<!-- Node2 -->
<g id="node2" class="node">
<title>Node2</title>
<g id="a_node2"><a xlink:href="finalization__observer_8hpp.html" target="_top" xlink:title=" ">
<polygon fill="white" stroke="#666666" points="130,-371 5,-371 5,-341 130,-341 130,-371"/>
<text text-anchor="start" x="13" y="-359" font-family="Helvetica,sans-Serif" font-size="10.00">verification/finality</text>
<text text-anchor="middle" x="67.5" y="-348" font-family="Helvetica,sans-Serif" font-size="10.00">/finalization_observer.hpp</text>
</a>
</g>
</g>
<!-- Node1&#45;&gt;Node2 -->
<g id="edge1" class="edge">
<title>Node1&#45;&gt;Node2</title>
<path fill="none" stroke="#63b8ff" d="M118.85,-406.8C110.48,-398.68 99.79,-388.31 90.34,-379.15"/>
<polygon fill="#63b8ff" stroke="#63b8ff" points="92.81,-376.67 83.19,-372.22 87.94,-381.69 92.81,-376.67"/>
</g>
<!-- Node17 -->
<g id="node17" class="node">
<title>Node17</title>
<g id="a_node17"><a xlink:href="type__traits_8hpp.html" target="_top" xlink:title=" ">
<polygon fill="white" stroke="#666666" points="252.5,-365.5 148.5,-365.5 148.5,-346.5 252.5,-346.5 252.5,-365.5"/>
<text text-anchor="middle" x="200.5" y="-353.5" font-family="Helvetica,sans-Serif" font-size="10.00">base/type_traits.hpp</text>
</a>
</g>
</g>
<!-- Node1&#45;&gt;Node17 -->
<g id="edge17" class="edge">
<title>Node1&#45;&gt;Node17</title>
<path fill="none" stroke="#63b8ff" d="M148.37,-406.8C158.61,-397.01 172.26,-383.98 183.02,-373.7"/>
<polygon fill="#63b8ff" stroke="#63b8ff" points="185.33,-376.33 190.15,-366.89 180.5,-371.27 185.33,-376.33"/>
</g>
<!-- Node3 -->
<g id="node3" class="node">
<title>Node3</title>
<g id="a_node3"><a xlink:href="outcome_8hpp.html" target="_top" xlink:title=" ">
<polygon fill="white" stroke="#666666" points="127,-74 14,-74 14,-55 127,-55 127,-74"/>
<text text-anchor="middle" x="70.5" y="-62" font-family="Helvetica,sans-Serif" font-size="10.00">outcome/outcome.hpp</text>
</a>
</g>
</g>
<!-- Node2&#45;&gt;Node3 -->
<g id="edge2" class="edge">
<title>Node2&#45;&gt;Node3</title>
<path fill="none" stroke="#63b8ff" d="M58.59,-340.58C46,-318.78 24.5,-275.76 24.5,-236 24.5,-236 24.5,-236 24.5,-173.5 24.5,-139.83 43.66,-104.64 57.25,-83.91"/>
<polygon fill="#63b8ff" stroke="#63b8ff" points="60.09,-85.95 62.86,-75.73 54.32,-82 60.09,-85.95"/>
</g>
<!-- Node5 -->
<g id="node5" class="node">
<title>Node5</title>
<g id="a_node5"><a xlink:href="src_2primitives_2common_8hpp.html" target="_top" xlink:title=" ">
<polygon fill="white" stroke="#666666" points="198,-305 81,-305 81,-286 198,-286 198,-305"/>
<text text-anchor="middle" x="139.5" y="-293" font-family="Helvetica,sans-Serif" font-size="10.00">primitives/common.hpp</text>
</a>
</g>
</g>
<!-- Node2&#45;&gt;Node5 -->
<g id="edge4" class="edge">
<title>Node2&#45;&gt;Node5</title>
<path fill="none" stroke="#63b8ff" d="M85.3,-340.54C95.86,-331.96 109.26,-321.07 120.1,-312.26"/>
<polygon fill="#63b8ff" stroke="#63b8ff" points="122.09,-315.15 127.65,-306.13 117.68,-309.72 122.09,-315.15"/>
</g>
<!-- Node4 -->
<g id="node4" class="node">
<title>Node4</title>
<g id="a_node4"><a xlink:title=" ">
<polygon fill="#e0e0e0" stroke="#999999" points="141,-19 0,-19 0,0 141,0 141,-19"/>
<text text-anchor="middle" x="70.5" y="-7" font-family="Helvetica,sans-Serif" font-size="10.00">libp2p/outcome/outcome.hpp</text>
</a>
</g>
</g>
<!-- Node3&#45;&gt;Node4 -->
<g id="edge3" class="edge">
<title>Node3&#45;&gt;Node4</title>
<path fill="none" stroke="#63b8ff" d="M70.5,-54.75C70.5,-48.27 70.5,-39.16 70.5,-30.9"/>
<polygon fill="#63b8ff" stroke="#63b8ff" points="74,-30.96 70.5,-20.96 67,-30.96 74,-30.96"/>
</g>
<!-- Node6 -->
<g id="node6" class="node">
<title>Node6</title>
<g id="a_node6"><a xlink:title=" ">
<polygon fill="#e0e0e0" stroke="#999999" points="98.5,-244.5 52.5,-244.5 52.5,-225.5 98.5,-225.5 98.5,-244.5"/>
<text text-anchor="middle" x="75.5" y="-232.5" font-family="Helvetica,sans-Serif" font-size="10.00">cstdint</text>
</a>
</g>
</g>
<!-- Node5&#45;&gt;Node6 -->
<g id="edge5" class="edge">
<title>Node5&#45;&gt;Node6</title>
<path fill="none" stroke="#63b8ff" d="M129.78,-285.62C120.19,-276.85 105.31,-263.25 93.56,-252.5"/>
<polygon fill="#63b8ff" stroke="#63b8ff" points="96.17,-250.15 86.43,-245.99 91.45,-255.32 96.17,-250.15"/>
</g>
<!-- Node7 -->
<g id="node7" class="node">
<title>Node7</title>
<g id="a_node7"><a xlink:title=" ">
<polygon fill="#e0e0e0" stroke="#999999" points="218.5,-244.5 116.5,-244.5 116.5,-225.5 218.5,-225.5 218.5,-244.5"/>
<text text-anchor="middle" x="167.5" y="-232.5" font-family="Helvetica,sans-Serif" font-size="10.00">boost/operators.hpp</text>
</a>
</g>
</g>
<!-- Node5&#45;&gt;Node7 -->
<g id="edge6" class="edge">
<title>Node5&#45;&gt;Node7</title>
<path fill="none" stroke="#63b8ff" d="M143.63,-285.87C147.52,-277.75 153.47,-265.31 158.46,-254.89"/>
<polygon fill="#63b8ff" stroke="#63b8ff" points="161.54,-256.56 162.7,-246.03 155.22,-253.54 161.54,-256.56"/>
</g>
<!-- Node8 -->
<g id="node8" class="node">
<title>Node8</title>
<g id="a_node8"><a xlink:href="session__key_8hpp.html" target="_top" xlink:title=" ">
<polygon fill="white" stroke="#666666" points="332,-250 237,-250 237,-220 332,-220 332,-250"/>
<text text-anchor="start" x="245" y="-238" font-family="Helvetica,sans-Serif" font-size="10.00">primitives/session</text>
<text text-anchor="middle" x="284.5" y="-227" font-family="Helvetica,sans-Serif" font-size="10.00">_key.hpp</text>
</a>
</g>
</g>
<!-- Node5&#45;&gt;Node8 -->
<g id="edge7" class="edge">
<title>Node5&#45;&gt;Node8</title>
<path fill="none" stroke="#63b8ff" d="M161.52,-285.62C181.76,-277.45 212.43,-265.08 238.07,-254.73"/>
<polygon fill="#63b8ff" stroke="#63b8ff" points="239.34,-257.99 247.31,-251.01 236.72,-251.5 239.34,-257.99"/>
</g>
<!-- Node9 -->
<g id="node9" class="node">
<title>Node9</title>
<g id="a_node9"><a xlink:href="blob_8hpp.html" target="_top" xlink:title=" ">
<polygon fill="white" stroke="#666666" points="323,-184 246,-184 246,-165 323,-165 323,-184"/>
<text text-anchor="middle" x="284.5" y="-172" font-family="Helvetica,sans-Serif" font-size="10.00">base/blob.hpp</text>
</a>
</g>
</g>
<!-- Node8&#45;&gt;Node9 -->
<g id="edge8" class="edge">
<title>Node8&#45;&gt;Node9</title>
<path fill="none" stroke="#63b8ff" d="M284.5,-219.54C284.5,-212.34 284.5,-203.53 284.5,-195.68"/>
<polygon fill="#63b8ff" stroke="#63b8ff" points="288,-195.69 284.5,-185.69 281,-195.69 288,-195.69"/>
</g>
<!-- Node10 -->
<g id="node10" class="node">
<title>Node10</title>
<g id="a_node10"><a xlink:title=" ">
<polygon fill="#e0e0e0" stroke="#999999" points="90.5,-129 52.5,-129 52.5,-110 90.5,-110 90.5,-129"/>
<text text-anchor="middle" x="71.5" y="-117" font-family="Helvetica,sans-Serif" font-size="10.00">array</text>
</a>
</g>
</g>
<!-- Node9&#45;&gt;Node10 -->
<g id="edge9" class="edge">
<title>Node9&#45;&gt;Node10</title>
<path fill="none" stroke="#63b8ff" d="M245.71,-164.87C210.51,-156.88 156.93,-144.34 101.78,-129.5"/>
<polygon fill="#63b8ff" stroke="#63b8ff" points="102.77,-126.14 92.2,-126.9 100.93,-132.9 102.77,-126.14"/>
</g>
<!-- Node11 -->
<g id="node11" class="node">
<title>Node11</title>
<g id="a_node11"><a xlink:title=" ">
<polygon fill="#e0e0e0" stroke="#999999" points="236.5,-129 108.5,-129 108.5,-110 236.5,-110 236.5,-129"/>
<text text-anchor="middle" x="172.5" y="-117" font-family="Helvetica,sans-Serif" font-size="10.00">boost/functional/hash.hpp</text>
</a>
</g>
</g>
<!-- Node9&#45;&gt;Node11 -->
<g id="edge10" class="edge">
<title>Node9&#45;&gt;Node11</title>
<path fill="none" stroke="#63b8ff" d="M265.5,-164.51C247.94,-156.2 221.58,-143.73 201.41,-134.18"/>
<polygon fill="#63b8ff" stroke="#63b8ff" points="203.12,-131.12 192.59,-130.01 200.13,-137.45 203.12,-131.12"/>
</g>
<!-- Node12 -->
<g id="node12" class="node">
<title>Node12</title>
<g id="a_node12"><a xlink:href="hexutil_8hpp.html" target="_top" xlink:title=" ">
<polygon fill="white" stroke="#666666" points="340.5,-129 254.5,-129 254.5,-110 340.5,-110 340.5,-129"/>
<text text-anchor="middle" x="297.5" y="-117" font-family="Helvetica,sans-Serif" font-size="10.00">base/hexutil.hpp</text>
</a>
</g>
</g>
<!-- Node9&#45;&gt;Node12 -->
<g id="edge11" class="edge">
<title>Node9&#45;&gt;Node12</title>
<path fill="none" stroke="#63b8ff" d="M286.65,-164.75C288.26,-158.19 290.52,-148.95 292.57,-140.6"/>
<polygon fill="#63b8ff" stroke="#63b8ff" points="295.96,-141.46 294.95,-130.91 289.16,-139.79 295.96,-141.46"/>
</g>
<!-- Node16 -->
<g id="node16" class="node">
<title>Node16</title>
<g id="a_node16"><a xlink:title=" ">
<polygon fill="#e0e0e0" stroke="#999999" points="412.5,-129 358.5,-129 358.5,-110 412.5,-110 412.5,-129"/>
<text text-anchor="middle" x="385.5" y="-117" font-family="Helvetica,sans-Serif" font-size="10.00">iostream</text>
</a>
</g>
</g>
<!-- Node9&#45;&gt;Node16 -->
<g id="edge16" class="edge">
<title>Node9&#45;&gt;Node16</title>
<path fill="none" stroke="#63b8ff" d="M301.63,-164.51C317.25,-156.31 340.58,-144.07 358.67,-134.58"/>
<polygon fill="#63b8ff" stroke="#63b8ff" points="360.05,-137.81 367.28,-130.06 356.8,-131.61 360.05,-137.81"/>
</g>
<!-- Node12&#45;&gt;Node3 -->
<g id="edge15" class="edge">
<title>Node12&#45;&gt;Node3</title>
<path fill="none" stroke="#63b8ff" d="M258.99,-109.51C220.64,-100.55 161.61,-86.77 119.84,-77.02"/>
<polygon fill="#63b8ff" stroke="#63b8ff" points="120.82,-73.66 110.29,-74.79 119.23,-80.47 120.82,-73.66"/>
</g>
<!-- Node13 -->
<g id="node13" class="node">
<title>Node13</title>
<g id="a_node13"><a xlink:title=" ">
<polygon fill="#e0e0e0" stroke="#999999" points="257.5,-74 191.5,-74 191.5,-55 257.5,-55 257.5,-74"/>
<text text-anchor="middle" x="224.5" y="-62" font-family="Helvetica,sans-Serif" font-size="10.00">string_view</text>
</a>
</g>
</g>
<!-- Node12&#45;&gt;Node13 -->
<g id="edge12" class="edge">
<title>Node12&#45;&gt;Node13</title>
<path fill="none" stroke="#63b8ff" d="M285.12,-109.51C274.35,-101.7 258.53,-90.21 245.75,-80.93"/>
<polygon fill="#63b8ff" stroke="#63b8ff" points="248.07,-78.29 237.93,-75.25 243.96,-83.95 248.07,-78.29"/>
</g>
<!-- Node14 -->
<g id="node14" class="node">
<title>Node14</title>
<g id="a_node14"><a xlink:title=" ">
<polygon fill="#e0e0e0" stroke="#999999" points="319.5,-74 275.5,-74 275.5,-55 319.5,-55 319.5,-74"/>
<text text-anchor="middle" x="297.5" y="-62" font-family="Helvetica,sans-Serif" font-size="10.00">vector</text>
</a>
</g>
</g>
<!-- Node12&#45;&gt;Node14 -->
<g id="edge13" class="edge">
<title>Node12&#45;&gt;Node14</title>
<path fill="none" stroke="#63b8ff" d="M297.5,-109.75C297.5,-103.27 297.5,-94.16 297.5,-85.9"/>
<polygon fill="#63b8ff" stroke="#63b8ff" points="301,-85.96 297.5,-75.96 294,-85.96 301,-85.96"/>
</g>
<!-- Node15 -->
<g id="node15" class="node">
<title>Node15</title>
<g id="a_node15"><a xlink:title=" ">
<polygon fill="#e0e0e0" stroke="#999999" points="391,-74 338,-74 338,-55 391,-55 391,-74"/>
<text text-anchor="middle" x="364.5" y="-62" font-family="Helvetica,sans-Serif" font-size="10.00">gsl/span</text>
</a>
</g>
</g>
<!-- Node12&#45;&gt;Node15 -->
<g id="edge14" class="edge">
<title>Node12&#45;&gt;Node15</title>
<path fill="none" stroke="#63b8ff" d="M308.87,-109.51C318.55,-101.85 332.7,-90.66 344.31,-81.47"/>
<polygon fill="#63b8ff" stroke="#63b8ff" points="346.44,-84.25 352.12,-75.3 342.1,-78.76 346.44,-84.25"/>
</g>
</g>
</svg>
