<?xml version="1.0" encoding="UTF-8" standalone="no"?>
<!DOCTYPE svg PUBLIC "-//W3C//DTD SVG 1.1//EN"
 "http://www.w3.org/Graphics/SVG/1.1/DTD/svg11.dtd">
<!-- Generated by graphviz version 7.0.5 (20221223.1930)
 -->
<!-- Title: src/runtime/finality_api.hpp Pages: 1 -->
<!--zoomable 478 -->
<svg id="main" version="1.1" xmlns="http://www.w3.org/2000/svg" xmlns:xlink="http://www.w3.org/1999/xlink" xml:space="preserve" onload="init(evt)">
<style type="text/css"><![CDATA[
.edge:hover path { stroke: red; }
.edge:hover polygon { stroke: red; fill: red; }
]]></style>
<script type="text/javascript"><![CDATA[
var edges = document.getElementsByTagName('g');
if (edges && edges.length) {
  for (var i=0;i<edges.length;i++) {
    if (edges[i].id.substr(0,4)=='edge') {
      edges[i].setAttribute('class','edge');
    }
  }
}
]]></script>
        <defs>
                <circle id="rim" cx="0" cy="0" r="7"/>
                <circle id="rim2" cx="0" cy="0" r="3.5"/>
                <g id="zoomPlus">
                        <use xlink:href="#rim" fill="#404040">
                                <set attributeName="fill" to="#808080" begin="zoomplus.mouseover" end="zoomplus.mouseout"/>
                        </use>
                        <path d="M-4,0h8M0,-4v8" fill="none" stroke="white" stroke-width="1.5" pointer-events="none"/>
                </g>
                <g id="zoomMin">
                        <use xlink:href="#rim" fill="#404040">
                                <set attributeName="fill" to="#808080" begin="zoomminus.mouseover" end="zoomminus.mouseout"/>
                        </use>
                        <path d="M-4,0h8" fill="none" stroke="white" stroke-width="1.5" pointer-events="none"/>
                </g>
                <g id="dirArrow">
                        <path fill="none" stroke="white" stroke-width="1.5" d="M0,-3.0v7 M-2.5,-0.5L0,-3.0L2.5,-0.5"/>
                </g>
               <g id="resetDef">
                       <use xlink:href="#rim2" fill="#404040">
                               <set attributeName="fill" to="#808080" begin="reset.mouseover" end="reset.mouseout"/>
                       </use>
               </g>
        </defs>

<script type="text/javascript">
var viewWidth = 835;
var viewHeight = 478;
var sectionId = 'dynsection-1';
</script>
<script xlink:href="svgpan.js"/>
<svg id="graph" class="graph">
<g id="viewport">
<title>src/runtime/finality_api.hpp</title>
<!-- Node1 -->
<g id="node1" class="node">
<title>Node1</title>
<g id="a_node1"><a xlink:title=" ">
<polygon fill="#999999" stroke="#666666" points="558,-470 463,-470 463,-440 558,-440 558,-470"/>
<text text-anchor="start" x="471" y="-458" font-family="Helvetica,sans-Serif" font-size="10.00">src/runtime/finality</text>
<text text-anchor="middle" x="510.5" y="-447" font-family="Helvetica,sans-Serif" font-size="10.00">_api.hpp</text>
</a>
</g>
</g>
<!-- Node2 -->
<g id="node2" class="node">
<title>Node2</title>
<g id="a_node2"><a xlink:href="finality__api__impl_8hpp.html" target="_top" xlink:title=" ">
<polygon fill="white" stroke="#666666" points="420.5,-404 316.5,-404 316.5,-363 420.5,-363 420.5,-404"/>
<text text-anchor="start" x="324.5" y="-392" font-family="Helvetica,sans-Serif" font-size="10.00">src/runtime/binaryen</text>
<text text-anchor="start" x="324.5" y="-381" font-family="Helvetica,sans-Serif" font-size="10.00">/runtime_api/finality</text>
<text text-anchor="middle" x="368.5" y="-370" font-family="Helvetica,sans-Serif" font-size="10.00">_api_impl.hpp</text>
</a>
</g>
</g>
<!-- Node1&#45;&gt;Node2 -->
<g id="edge1" class="edge">
<title>Node1&#45;&gt;Node2</title>
<path fill="none" stroke="#63b8ff" d="M470.84,-434.59C451.61,-425.18 428.55,-413.89 409.19,-404.42"/>
<polygon fill="#63b8ff" stroke="#63b8ff" points="469.2,-437.68 479.72,-438.93 472.27,-431.39 469.2,-437.68"/>
</g>
<!-- Node19 -->
<g id="node19" class="node">
<title>Node19</title>
<g id="a_node19"><a xlink:href="finality__api__dummy_8hpp.html" target="_top" xlink:title=" ">
<polygon fill="white" stroke="#666666" points="765.5,-321.5 635.5,-321.5 635.5,-291.5 765.5,-291.5 765.5,-321.5"/>
<text text-anchor="start" x="643.5" y="-309.5" font-family="Helvetica,sans-Serif" font-size="10.00">src/runtime/dummy/finality</text>
<text text-anchor="middle" x="700.5" y="-298.5" font-family="Helvetica,sans-Serif" font-size="10.00">_api_dummy.hpp</text>
</a>
</g>
</g>
<!-- Node1&#45;&gt;Node19 -->
<g id="edge21" class="edge">
<title>Node1&#45;&gt;Node19</title>
<path fill="none" stroke="#63b8ff" d="M537.84,-432.92C577.04,-402.7 648.18,-347.84 681.86,-321.87"/>
<polygon fill="#63b8ff" stroke="#63b8ff" points="536.04,-429.88 530.26,-438.76 540.32,-435.43 536.04,-429.88"/>
</g>
<!-- Node21 -->
<g id="node21" class="node">
<title>Node21</title>
<g id="a_node21"><a xlink:href="finality__impl_8hpp.html" target="_top" xlink:title=" ">
<polygon fill="white" stroke="#666666" points="565.5,-398.5 455.5,-398.5 455.5,-368.5 565.5,-368.5 565.5,-398.5"/>
<text text-anchor="start" x="463.5" y="-386.5" font-family="Helvetica,sans-Serif" font-size="10.00">src/verification/finality</text>
<text text-anchor="middle" x="510.5" y="-375.5" font-family="Helvetica,sans-Serif" font-size="10.00">/impl/finality_impl.hpp</text>
</a>
</g>
</g>
<!-- Node1&#45;&gt;Node21 -->
<g id="edge26" class="edge">
<title>Node1&#45;&gt;Node21</title>
<path fill="none" stroke="#63b8ff" d="M510.5,-428.26C510.5,-418.33 510.5,-407.36 510.5,-398.88"/>
<polygon fill="#63b8ff" stroke="#63b8ff" points="507,-428.09 510.5,-438.09 514,-428.09 507,-428.09"/>
</g>
<!-- Node3 -->
<g id="node3" class="node">
<title>Node3</title>
<g id="a_node3"><a xlink:href="application__injector_8hpp.html" target="_top" xlink:title=" ">
<polygon fill="white" stroke="#666666" points="291.5,-321.5 177.5,-321.5 177.5,-291.5 291.5,-291.5 291.5,-321.5"/>
<text text-anchor="start" x="185.5" y="-309.5" font-family="Helvetica,sans-Serif" font-size="10.00">src/injector/application</text>
<text text-anchor="middle" x="234.5" y="-298.5" font-family="Helvetica,sans-Serif" font-size="10.00">_injector.hpp</text>
</a>
</g>
</g>
<!-- Node2&#45;&gt;Node3 -->
<g id="edge2" class="edge">
<title>Node2&#45;&gt;Node3</title>
<path fill="none" stroke="#63b8ff" d="M322.92,-356.99C301.92,-345.23 277.77,-331.72 260.02,-321.79"/>
<polygon fill="#63b8ff" stroke="#63b8ff" points="321.19,-360.03 331.62,-361.86 324.6,-353.92 321.19,-360.03"/>
</g>
<!-- Node14 -->
<g id="node14" class="node">
<title>Node14</title>
<g id="a_node14"><a xlink:href="validating__node__injector_8hpp.html" target="_top" xlink:title=" ">
<polygon fill="white" stroke="#666666" points="519,-250 410,-250 410,-220 519,-220 519,-250"/>
<text text-anchor="start" x="418" y="-238" font-family="Helvetica,sans-Serif" font-size="10.00">src/injector/validating</text>
<text text-anchor="middle" x="464.5" y="-227" font-family="Helvetica,sans-Serif" font-size="10.00">_node_injector.hpp</text>
</a>
</g>
</g>
<!-- Node2&#45;&gt;Node14 -->
<g id="edge19" class="edge">
<title>Node2&#45;&gt;Node14</title>
<path fill="none" stroke="#63b8ff" d="M346.74,-352.92C334.76,-332.73 324.84,-306.11 338.5,-286 347.32,-273 381.21,-259.96 411.62,-250.46"/>
<polygon fill="#63b8ff" stroke="#63b8ff" points="343.73,-354.71 352.06,-361.26 349.63,-350.95 343.73,-354.71"/>
</g>
<!-- Node18 -->
<g id="node18" class="node">
<title>Node18</title>
<g id="a_node18"><a xlink:href="finality__api__impl_8cpp.html" target="_top" xlink:title=" ">
<polygon fill="white" stroke="#666666" points="451.5,-327 347.5,-327 347.5,-286 451.5,-286 451.5,-327"/>
<text text-anchor="start" x="355.5" y="-315" font-family="Helvetica,sans-Serif" font-size="10.00">src/runtime/binaryen</text>
<text text-anchor="start" x="355.5" y="-304" font-family="Helvetica,sans-Serif" font-size="10.00">/runtime_api/finality</text>
<text text-anchor="middle" x="399.5" y="-293" font-family="Helvetica,sans-Serif" font-size="10.00">_api_impl.cpp</text>
</a>
</g>
</g>
<!-- Node2&#45;&gt;Node18 -->
<g id="edge20" class="edge">
<title>Node2&#45;&gt;Node18</title>
<path fill="none" stroke="#63b8ff" d="M381.02,-352.21C384.48,-343.83 388.15,-334.95 391.3,-327.33"/>
<polygon fill="#63b8ff" stroke="#63b8ff" points="377.81,-350.82 377.22,-361.4 384.28,-353.49 377.81,-350.82"/>
</g>
<!-- Node4 -->
<g id="node4" class="node">
<title>Node4</title>
<g id="a_node4"><a xlink:href="application__injector_8cpp.html" target="_top" xlink:title=" ">
<polygon fill="white" stroke="#666666" points="381.5,-250 267.5,-250 267.5,-220 381.5,-220 381.5,-250"/>
<text text-anchor="start" x="275.5" y="-238" font-family="Helvetica,sans-Serif" font-size="10.00">src/injector/application</text>
<text text-anchor="middle" x="324.5" y="-227" font-family="Helvetica,sans-Serif" font-size="10.00">_injector.cpp</text>
</a>
</g>
</g>
<!-- Node3&#45;&gt;Node4 -->
<g id="edge3" class="edge">
<title>Node3&#45;&gt;Node4</title>
<path fill="none" stroke="#63b8ff" d="M262.02,-284.25C276.24,-273.27 293.21,-260.16 305.88,-250.38"/>
<polygon fill="#63b8ff" stroke="#63b8ff" points="260.12,-281.29 254.35,-290.17 264.4,-286.83 260.12,-281.29"/>
</g>
<!-- Node5 -->
<g id="node5" class="node">
<title>Node5</title>
<g id="a_node5"><a xlink:href="block__producing__node__injector_8hpp.html" target="_top" xlink:title=" ">
<polygon fill="white" stroke="#666666" points="586,-184 441,-184 441,-154 586,-154 586,-184"/>
<text text-anchor="start" x="449" y="-172" font-family="Helvetica,sans-Serif" font-size="10.00">src/injector/block</text>
<text text-anchor="middle" x="513.5" y="-161" font-family="Helvetica,sans-Serif" font-size="10.00">_producing_node_injector.hpp</text>
</a>
</g>
</g>
<!-- Node3&#45;&gt;Node5 -->
<g id="edge4" class="edge">
<title>Node3&#45;&gt;Node5</title>
<path fill="none" stroke="#63b8ff" d="M234.86,-279.79C236.55,-260.6 242.07,-235.17 258.5,-220 261.91,-216.85 366.54,-197.05 440.7,-183.33"/>
<polygon fill="#63b8ff" stroke="#63b8ff" points="231.37,-279.37 234.31,-289.55 238.36,-279.76 231.37,-279.37"/>
</g>
<!-- Node10 -->
<g id="node10" class="node">
<title>Node10</title>
<g id="a_node10"><a xlink:href="syncing__node__injector_8hpp.html" target="_top" xlink:title=" ">
<polygon fill="white" stroke="#666666" points="211,-250 110,-250 110,-220 211,-220 211,-250"/>
<text text-anchor="start" x="118" y="-238" font-family="Helvetica,sans-Serif" font-size="10.00">src/injector/syncing</text>
<text text-anchor="middle" x="160.5" y="-227" font-family="Helvetica,sans-Serif" font-size="10.00">_node_injector.hpp</text>
</a>
</g>
</g>
<!-- Node3&#45;&gt;Node10 -->
<g id="edge9" class="edge">
<title>Node3&#45;&gt;Node10</title>
<path fill="none" stroke="#63b8ff" d="M210.87,-283.3C199.39,-272.52 185.93,-259.88 175.81,-250.38"/>
<polygon fill="#63b8ff" stroke="#63b8ff" points="208.38,-285.77 218.06,-290.06 213.17,-280.67 208.38,-285.77"/>
</g>
<!-- Node3&#45;&gt;Node14 -->
<g id="edge13" class="edge">
<title>Node3&#45;&gt;Node14</title>
<path fill="none" stroke="#63b8ff" d="M293.41,-287.7C331.64,-276.15 380.81,-261.29 416.63,-250.47"/>
<polygon fill="#63b8ff" stroke="#63b8ff" points="292.44,-284.33 283.88,-290.58 294.47,-291.04 292.44,-284.33"/>
</g>
<!-- Node6 -->
<g id="node6" class="node">
<title>Node6</title>
<g id="a_node6"><a xlink:href="block__producing__node__application_8hpp.html" target="_top" xlink:title=" ">
<polygon fill="white" stroke="#666666" points="449.5,-118 333.5,-118 333.5,-77 449.5,-77 449.5,-118"/>
<text text-anchor="start" x="341.5" y="-106" font-family="Helvetica,sans-Serif" font-size="10.00">src/application/impl</text>
<text text-anchor="start" x="341.5" y="-95" font-family="Helvetica,sans-Serif" font-size="10.00">/block_producing_node</text>
<text text-anchor="middle" x="391.5" y="-84" font-family="Helvetica,sans-Serif" font-size="10.00">_application.hpp</text>
</a>
</g>
</g>
<!-- Node5&#45;&gt;Node6 -->
<g id="edge5" class="edge">
<title>Node5&#45;&gt;Node6</title>
<path fill="none" stroke="#63b8ff" d="M478.5,-148.06C462.17,-138.76 442.79,-127.72 426.46,-118.42"/>
<polygon fill="#63b8ff" stroke="#63b8ff" points="476.48,-150.94 486.91,-152.85 479.95,-144.86 476.48,-150.94"/>
</g>
<!-- Node9 -->
<g id="node9" class="node">
<title>Node9</title>
<g id="a_node9"><a xlink:href="block__producing__node__injector_8cpp.html" target="_top" xlink:title=" ">
<polygon fill="white" stroke="#666666" points="613,-112.5 468,-112.5 468,-82.5 613,-82.5 613,-112.5"/>
<text text-anchor="start" x="476" y="-100.5" font-family="Helvetica,sans-Serif" font-size="10.00">src/injector/block</text>
<text text-anchor="middle" x="540.5" y="-89.5" font-family="Helvetica,sans-Serif" font-size="10.00">_producing_node_injector.cpp</text>
</a>
</g>
</g>
<!-- Node5&#45;&gt;Node9 -->
<g id="edge8" class="edge">
<title>Node5&#45;&gt;Node9</title>
<path fill="none" stroke="#63b8ff" d="M523.25,-142.91C527.17,-132.82 531.55,-121.54 534.91,-112.88"/>
<polygon fill="#63b8ff" stroke="#63b8ff" points="520,-141.6 519.64,-152.19 526.53,-144.13 520,-141.6"/>
</g>
<!-- Node7 -->
<g id="node7" class="node">
<title>Node7</title>
<g id="a_node7"><a xlink:href="app__delegate_8cpp.html" target="_top" xlink:title=" ">
<polygon fill="white" stroke="#666666" points="641.5,-30 525.5,-30 525.5,-11 641.5,-11 641.5,-30"/>
<text text-anchor="middle" x="583.5" y="-18" font-family="Helvetica,sans-Serif" font-size="10.00">node/app_delegate.cpp</text>
</a>
</g>
</g>
<!-- Node6&#45;&gt;Node7 -->
<g id="edge6" class="edge">
<title>Node6&#45;&gt;Node7</title>
<path fill="none" stroke="#63b8ff" d="M453.05,-72.46C489.71,-58.13 534.1,-40.8 560.5,-30.48"/>
<polygon fill="#63b8ff" stroke="#63b8ff" points="451.9,-69.15 443.86,-76.05 454.45,-75.67 451.9,-69.15"/>
</g>
<!-- Node8 -->
<g id="node8" class="node">
<title>Node8</title>
<g id="a_node8"><a xlink:href="block__producing__node__application_8cpp.html" target="_top" xlink:title=" ">
<polygon fill="white" stroke="#666666" points="449.5,-41 333.5,-41 333.5,0 449.5,0 449.5,-41"/>
<text text-anchor="start" x="341.5" y="-29" font-family="Helvetica,sans-Serif" font-size="10.00">src/application/impl</text>
<text text-anchor="start" x="341.5" y="-18" font-family="Helvetica,sans-Serif" font-size="10.00">/block_producing_node</text>
<text text-anchor="middle" x="391.5" y="-7" font-family="Helvetica,sans-Serif" font-size="10.00">_application.cpp</text>
</a>
</g>
</g>
<!-- Node6&#45;&gt;Node8 -->
<g id="edge7" class="edge">
<title>Node6&#45;&gt;Node8</title>
<path fill="none" stroke="#63b8ff" d="M391.5,-65.36C391.5,-57.24 391.5,-48.7 391.5,-41.33"/>
<polygon fill="#63b8ff" stroke="#63b8ff" points="388,-65.28 391.5,-75.28 395,-65.28 388,-65.28"/>
</g>
<!-- Node11 -->
<g id="node11" class="node">
<title>Node11</title>
<g id="a_node11"><a xlink:href="syncing__node__application_8hpp.html" target="_top" xlink:title=" ">
<polygon fill="white" stroke="#666666" points="268,-184 119,-184 119,-154 268,-154 268,-184"/>
<text text-anchor="start" x="127" y="-172" font-family="Helvetica,sans-Serif" font-size="10.00">src/application/impl</text>
<text text-anchor="middle" x="193.5" y="-161" font-family="Helvetica,sans-Serif" font-size="10.00">/syncing_node_application.hpp</text>
</a>
</g>
</g>
<!-- Node10&#45;&gt;Node11 -->
<g id="edge10" class="edge">
<title>Node10&#45;&gt;Node11</title>
<path fill="none" stroke="#63b8ff" d="M172.97,-209.83C177.43,-201.17 182.31,-191.7 186.2,-184.16"/>
<polygon fill="#63b8ff" stroke="#63b8ff" points="169.99,-207.96 168.52,-218.45 176.21,-211.17 169.99,-207.96"/>
</g>
<!-- Node13 -->
<g id="node13" class="node">
<title>Node13</title>
<g id="a_node13"><a xlink:href="syncing__node__injector_8cpp.html" target="_top" xlink:title=" ">
<polygon fill="white" stroke="#666666" points="101,-184 0,-184 0,-154 101,-154 101,-184"/>
<text text-anchor="start" x="8" y="-172" font-family="Helvetica,sans-Serif" font-size="10.00">src/injector/syncing</text>
<text text-anchor="middle" x="50.5" y="-161" font-family="Helvetica,sans-Serif" font-size="10.00">_node_injector.cpp</text>
</a>
</g>
</g>
<!-- Node10&#45;&gt;Node13 -->
<g id="edge12" class="edge">
<title>Node10&#45;&gt;Node13</title>
<path fill="none" stroke="#63b8ff" d="M125.97,-213.91C109.47,-204.31 90.09,-193.03 75.1,-184.31"/>
<polygon fill="#63b8ff" stroke="#63b8ff" points="124.1,-216.87 134.51,-218.88 127.62,-210.82 124.1,-216.87"/>
</g>
<!-- Node12 -->
<g id="node12" class="node">
<title>Node12</title>
<g id="a_node12"><a xlink:href="syncing__node__application_8cpp.html" target="_top" xlink:title=" ">
<polygon fill="white" stroke="#666666" points="268,-112.5 119,-112.5 119,-82.5 268,-82.5 268,-112.5"/>
<text text-anchor="start" x="127" y="-100.5" font-family="Helvetica,sans-Serif" font-size="10.00">src/application/impl</text>
<text text-anchor="middle" x="193.5" y="-89.5" font-family="Helvetica,sans-Serif" font-size="10.00">/syncing_node_application.cpp</text>
</a>
</g>
</g>
<!-- Node11&#45;&gt;Node12 -->
<g id="edge11" class="edge">
<title>Node11&#45;&gt;Node12</title>
<path fill="none" stroke="#63b8ff" d="M193.5,-142.26C193.5,-132.33 193.5,-121.36 193.5,-112.88"/>
<polygon fill="#63b8ff" stroke="#63b8ff" points="190,-142.09 193.5,-152.09 197,-142.09 190,-142.09"/>
</g>
<!-- Node14&#45;&gt;Node5 -->
<g id="edge17" class="edge">
<title>Node14&#45;&gt;Node5</title>
<path fill="none" stroke="#63b8ff" d="M482.36,-210.68C489.16,-201.79 496.7,-191.95 502.66,-184.16"/>
<polygon fill="#63b8ff" stroke="#63b8ff" points="479.59,-208.53 476.29,-218.59 485.15,-212.78 479.59,-208.53"/>
</g>
<!-- Node15 -->
<g id="node15" class="node">
<title>Node15</title>
<g id="a_node15"><a xlink:href="validating__node__application_8hpp.html" target="_top" xlink:title=" ">
<polygon fill="white" stroke="#666666" points="780,-184 623,-184 623,-154 780,-154 780,-184"/>
<text text-anchor="start" x="631" y="-172" font-family="Helvetica,sans-Serif" font-size="10.00">src/application/impl</text>
<text text-anchor="middle" x="701.5" y="-161" font-family="Helvetica,sans-Serif" font-size="10.00">/validating_node_application.hpp</text>
</a>
</g>
</g>
<!-- Node14&#45;&gt;Node15 -->
<g id="edge14" class="edge">
<title>Node14&#45;&gt;Node15</title>
<path fill="none" stroke="#63b8ff" d="M528.78,-216.64C566.21,-206.53 612.84,-193.94 648.21,-184.39"/>
<polygon fill="#63b8ff" stroke="#63b8ff" points="528.19,-213.18 519.44,-219.16 530.01,-219.93 528.19,-213.18"/>
</g>
<!-- Node17 -->
<g id="node17" class="node">
<title>Node17</title>
<g id="a_node17"><a xlink:href="validating__node__injector_8cpp.html" target="_top" xlink:title=" ">
<polygon fill="white" stroke="#666666" points="423,-184 314,-184 314,-154 423,-154 423,-184"/>
<text text-anchor="start" x="322" y="-172" font-family="Helvetica,sans-Serif" font-size="10.00">src/injector/validating</text>
<text text-anchor="middle" x="368.5" y="-161" font-family="Helvetica,sans-Serif" font-size="10.00">_node_injector.cpp</text>
</a>
</g>
</g>
<!-- Node14&#45;&gt;Node17 -->
<g id="edge18" class="edge">
<title>Node14&#45;&gt;Node17</title>
<path fill="none" stroke="#63b8ff" d="M433.79,-213.52C419.55,-204.03 402.97,-192.98 390.08,-184.39"/>
<polygon fill="#63b8ff" stroke="#63b8ff" points="431.67,-216.32 441.94,-218.96 435.56,-210.5 431.67,-216.32"/>
</g>
<!-- Node15&#45;&gt;Node7 -->
<g id="edge15" class="edge">
<title>Node15&#45;&gt;Node7</title>
<path fill="none" stroke="#63b8ff" d="M683.07,-145.12C656.44,-112.05 608.42,-52.44 590.5,-30.19"/>
<polygon fill="#63b8ff" stroke="#63b8ff" points="680.02,-146.92 689.02,-152.51 685.47,-142.52 680.02,-146.92"/>
</g>
<!-- Node16 -->
<g id="node16" class="node">
<title>Node16</title>
<g id="a_node16"><a xlink:href="validating__node__application_8cpp.html" target="_top" xlink:title=" ">
<polygon fill="white" stroke="#666666" points="827,-112.5 670,-112.5 670,-82.5 827,-82.5 827,-112.5"/>
<text text-anchor="start" x="678" y="-100.5" font-family="Helvetica,sans-Serif" font-size="10.00">src/application/impl</text>
<text text-anchor="middle" x="748.5" y="-89.5" font-family="Helvetica,sans-Serif" font-size="10.00">/validating_node_application.cpp</text>
</a>
</g>
</g>
<!-- Node15&#45;&gt;Node16 -->
<g id="edge16" class="edge">
<title>Node15&#45;&gt;Node16</title>
<path fill="none" stroke="#63b8ff" d="M717.59,-144.2C724.63,-133.79 732.66,-121.92 738.77,-112.88"/>
<polygon fill="#63b8ff" stroke="#63b8ff" points="714.79,-142.1 712.09,-152.35 720.59,-146.02 714.79,-142.1"/>
</g>
<!-- Node19&#45;&gt;Node5 -->
<g id="edge23" class="edge">
<title>Node19&#45;&gt;Node5</title>
<path fill="none" stroke="#63b8ff" d="M699.63,-279.67C697.63,-260.8 691.96,-235.84 676.5,-220 652.82,-195.75 617.72,-183.19 586.15,-176.71"/>
<polygon fill="#63b8ff" stroke="#63b8ff" points="696.13,-279.81 700.36,-289.53 703.11,-279.29 696.13,-279.81"/>
</g>
<!-- Node19&#45;&gt;Node14 -->
<g id="edge24" class="edge">
<title>Node19&#45;&gt;Node14</title>
<path fill="none" stroke="#63b8ff" d="M640.3,-287.77C601.04,-276.21 550.45,-261.31 513.62,-250.47"/>
<polygon fill="#63b8ff" stroke="#63b8ff" points="639.28,-291.12 649.86,-290.59 641.26,-284.41 639.28,-291.12"/>
</g>
<!-- Node19&#45;&gt;Node15 -->
<g id="edge22" class="edge">
<title>Node19&#45;&gt;Node15</title>
<path fill="none" stroke="#63b8ff" d="M705.45,-280.37C707.09,-270.89 708.7,-259.99 709.5,-250 710.57,-236.71 710.56,-233.29 709.5,-220 708.54,-207.91 706.29,-194.32 704.42,-184.37"/>
<polygon fill="#63b8ff" stroke="#63b8ff" points="702.06,-279.48 703.7,-289.94 708.94,-280.74 702.06,-279.48"/>
</g>
<!-- Node20 -->
<g id="node20" class="node">
<title>Node20</title>
<g id="a_node20"><a xlink:href="finality__api__dummy_8cpp.html" target="_top" xlink:title=" ">
<polygon fill="white" stroke="#666666" points="667.5,-250 537.5,-250 537.5,-220 667.5,-220 667.5,-250"/>
<text text-anchor="start" x="545.5" y="-238" font-family="Helvetica,sans-Serif" font-size="10.00">src/runtime/dummy/finality</text>
<text text-anchor="middle" x="602.5" y="-227" font-family="Helvetica,sans-Serif" font-size="10.00">_api_dummy.cpp</text>
</a>
</g>
</g>
<!-- Node19&#45;&gt;Node20 -->
<g id="edge25" class="edge">
<title>Node19&#45;&gt;Node20</title>
<path fill="none" stroke="#63b8ff" d="M670.98,-284.56C655.41,-273.52 636.7,-260.26 622.78,-250.38"/>
<polygon fill="#63b8ff" stroke="#63b8ff" points="668.78,-287.29 678.96,-290.22 672.83,-281.58 668.78,-287.29"/>
</g>
<!-- Node21&#45;&gt;Node14 -->
<g id="edge27" class="edge">
<title>Node21&#45;&gt;Node14</title>
<path fill="none" stroke="#63b8ff" d="M502.63,-357.44C492.92,-326.5 476.73,-274.94 468.94,-250.16"/>
<polygon fill="#63b8ff" stroke="#63b8ff" points="499.22,-358.25 505.55,-366.74 505.9,-356.15 499.22,-358.25"/>
</g>
<!-- Node22 -->
<g id="node22" class="node">
<title>Node22</title>
<g id="a_node22"><a xlink:href="finality__impl_8cpp.html" target="_top" xlink:title=" ">
<polygon fill="white" stroke="#666666" points="617.5,-321.5 507.5,-321.5 507.5,-291.5 617.5,-291.5 617.5,-321.5"/>
<text text-anchor="start" x="515.5" y="-309.5" font-family="Helvetica,sans-Serif" font-size="10.00">src/verification/finality</text>
<text text-anchor="middle" x="562.5" y="-298.5" font-family="Helvetica,sans-Serif" font-size="10.00">/impl/finality_impl.cpp</text>
</a>
</g>
</g>
<!-- Node21&#45;&gt;Node22 -->
<g id="edge28" class="edge">
<title>Node21&#45;&gt;Node22</title>
<path fill="none" stroke="#63b8ff" d="M526.85,-358.91C535.27,-346.78 545.25,-332.38 552.5,-321.92"/>
<polygon fill="#63b8ff" stroke="#63b8ff" points="524.21,-356.58 521.39,-366.8 529.96,-360.57 524.21,-356.58"/>
</g>
</g>
</svg>
        <g id="navigator" transform="translate(0 0)" fill="#404254">
                <rect fill="#f2f5e9" fill-opacity="0.5" stroke="#606060" stroke-width=".5" x="0" y="0" width="60" height="60"/>
                <use id="zoomplus" xlink:href="#zoomPlus" x="17" y="9" onmousedown="handleZoom(evt,'in')"/>
                <use id="zoomminus" xlink:href="#zoomMin" x="42" y="9" onmousedown="handleZoom(evt,'out')"/>
                <use id="reset" xlink:href="#resetDef" x="30" y="36" onmousedown="handleReset()"/>
                <g id="arrowUp" xlink:href="#dirArrow" transform="translate(30 24)" onmousedown="handlePan(0,-1)">
                  <use xlink:href="#rim" fill="#404040">
                        <set attributeName="fill" to="#808080" begin="arrowUp.mouseover" end="arrowUp.mouseout"/>
                  </use>
                  <path fill="none" stroke="white" stroke-width="1.5" d="M0,-3.0v7 M-2.5,-0.5L0,-3.0L2.5,-0.5"/>
                </g>
                <g id="arrowRight" xlink:href="#dirArrow" transform="rotate(90) translate(36 -43)" onmousedown="handlePan(1,0)">
                  <use xlink:href="#rim" fill="#404040">
                        <set attributeName="fill" to="#808080" begin="arrowRight.mouseover" end="arrowRight.mouseout"/>
                  </use>
                  <path fill="none" stroke="white" stroke-width="1.5" d="M0,-3.0v7 M-2.5,-0.5L0,-3.0L2.5,-0.5"/>
                </g>
                <g id="arrowDown" xlink:href="#dirArrow" transform="rotate(180) translate(-30 -48)" onmousedown="handlePan(0,1)">
                  <use xlink:href="#rim" fill="#404040">
                        <set attributeName="fill" to="#808080" begin="arrowDown.mouseover" end="arrowDown.mouseout"/>
                  </use>
                  <path fill="none" stroke="white" stroke-width="1.5" d="M0,-3.0v7 M-2.5,-0.5L0,-3.0L2.5,-0.5"/>
                </g>
                <g id="arrowLeft" xlink:href="#dirArrow" transform="rotate(270) translate(-36 17)" onmousedown="handlePan(-1,0)">
                  <use xlink:href="#rim" fill="#404040">
                        <set attributeName="fill" to="#808080" begin="arrowLeft.mouseover" end="arrowLeft.mouseout"/>
                  </use>
                  <path fill="none" stroke="white" stroke-width="1.5" d="M0,-3.0v7 M-2.5,-0.5L0,-3.0L2.5,-0.5"/>
                </g>
        </g>
        <svg viewBox="0 0 15 15" width="100%" height="30px" preserveAspectRatio="xMaxYMin meet">
         <g id="arrow_out" transform="scale(0.3 0.3)">
          <a xlink:href="finality__api_8hpp__dep__incl_org.svg" target="_base">
           <rect id="button" ry="5" rx="5" y="6" x="6" height="38" width="38"
                fill="#f2f5e9" fill-opacity="0.5" stroke="#606060" stroke-width="1.0"/>
           <path id="arrow"
             d="M 11.500037,31.436501 C 11.940474,20.09759 22.043105,11.32322 32.158766,21.979434 L 37.068811,17.246167 C 37.068811,17.246167 37.088388,32 37.088388,32 L 22.160133,31.978069 C 22.160133,31.978069 26.997745,27.140456 26.997745,27.140456 C 18.528582,18.264221 13.291696,25.230495 11.500037,31.436501 z"
             style="fill:#404040;"/>
          </a>
         </g>
        </svg>
</svg>
