<?xml version="1.0" encoding="UTF-8" standalone="no"?>
<!DOCTYPE svg PUBLIC "-//W3C//DTD SVG 1.1//EN"
 "http://www.w3.org/Graphics/SVG/1.1/DTD/svg11.dtd">
<!-- Generated by graphviz version 7.0.5 (20221223.1930)
 -->
<!-- Title: src/storage/face/generic_list.hpp Pages: 1 -->
<svg width="219pt" height="159pt"
 viewBox="0.00 0.00 219.00 159.00" xmlns="http://www.w3.org/2000/svg" xmlns:xlink="http://www.w3.org/1999/xlink">
<g id="graph0" class="graph" transform="scale(1 1) rotate(0) translate(4 155)">
<title>src/storage/face/generic_list.hpp</title>
<!-- Node1 -->
<g id="node1" class="node">
<title>Node1</title>
<g id="a_node1"><a xlink:title=" ">
<polygon fill="#999999" stroke="#666666" points="138.5,-151 16.5,-151 16.5,-121 138.5,-121 138.5,-151"/>
<text text-anchor="start" x="24.5" y="-139" font-family="Helvetica,sans-Serif" font-size="10.00">src/storage/face/generic</text>
<text text-anchor="middle" x="77.5" y="-128" font-family="Helvetica,sans-Serif" font-size="10.00">_list.hpp</text>
</a>
</g>
</g>
<!-- Node2 -->
<g id="node2" class="node">
<title>Node2</title>
<g id="a_node2"><a xlink:title=" ">
<polygon fill="#e0e0e0" stroke="#999999" points="49,-79.5 0,-79.5 0,-60.5 49,-60.5 49,-79.5"/>
<text text-anchor="middle" x="24.5" y="-67.5" font-family="Helvetica,sans-Serif" font-size="10.00">cstddef</text>
</a>
</g>
</g>
<!-- Node1&#45;&gt;Node2 -->
<g id="edge1" class="edge">
<title>Node1&#45;&gt;Node2</title>
<path fill="none" stroke="#63b8ff" d="M65.74,-120.8C57.88,-111.31 47.49,-98.76 39.1,-88.63"/>
<polygon fill="#63b8ff" stroke="#63b8ff" points="41.86,-86.48 32.79,-81.01 36.47,-90.94 41.86,-86.48"/>
</g>
<!-- Node3 -->
<g id="node3" class="node">
<title>Node3</title>
<g id="a_node3"><a xlink:title=" ">
<polygon fill="#e0e0e0" stroke="#999999" points="143,-19 92,-19 92,0 143,0 143,-19"/>
<text text-anchor="middle" x="117.5" y="-7" font-family="Helvetica,sans-Serif" font-size="10.00">memory</text>
</a>
</g>
</g>
<!-- Node1&#45;&gt;Node3 -->
<g id="edge2" class="edge">
<title>Node1&#45;&gt;Node3</title>
<path fill="none" stroke="#63b8ff" d="M80.29,-120.61C83.62,-104.43 89.72,-77.45 97.5,-55 100.48,-46.4 104.49,-37.17 108.13,-29.36"/>
<polygon fill="#63b8ff" stroke="#63b8ff" points="111.19,-31.07 112.39,-20.54 104.89,-28.03 111.19,-31.07"/>
</g>
<!-- Node4 -->
<g id="node4" class="node">
<title>Node4</title>
<g id="a_node4"><a xlink:href="generic__iterator_8hpp.html" target="_top" xlink:title=" ">
<polygon fill="white" stroke="#666666" points="211,-85 106,-85 106,-55 211,-55 211,-85"/>
<text text-anchor="start" x="114" y="-73" font-family="Helvetica,sans-Serif" font-size="10.00">storage/face/generic</text>
<text text-anchor="middle" x="158.5" y="-62" font-family="Helvetica,sans-Serif" font-size="10.00">_iterator.hpp</text>
</a>
</g>
</g>
<!-- Node1&#45;&gt;Node4 -->
<g id="edge3" class="edge">
<title>Node1&#45;&gt;Node4</title>
<path fill="none" stroke="#63b8ff" d="M95.48,-120.8C105.99,-112.49 119.48,-101.83 131.28,-92.5"/>
<polygon fill="#63b8ff" stroke="#63b8ff" points="133.43,-95.27 139.11,-86.32 129.09,-89.78 133.43,-95.27"/>
</g>
<!-- Node4&#45;&gt;Node3 -->
<g id="edge4" class="edge">
<title>Node4&#45;&gt;Node3</title>
<path fill="none" stroke="#63b8ff" d="M148.37,-54.54C142.84,-46.65 135.94,-36.81 130.07,-28.44"/>
<polygon fill="#63b8ff" stroke="#63b8ff" points="133.05,-26.59 124.45,-20.41 127.32,-30.61 133.05,-26.59"/>
</g>
</g>
</svg>
