<?xml version="1.0" encoding="UTF-8" standalone="no"?>
<!DOCTYPE svg PUBLIC "-//W3C//DTD SVG 1.1//EN"
 "http://www.w3.org/Graphics/SVG/1.1/DTD/svg11.dtd">
<!-- Generated by graphviz version 7.0.5 (20221223.1930)
 -->
<!-- Title: src/network/types/gossip_message.hpp Pages: 1 -->
<svg width="768pt" height="456pt"
 viewBox="0.00 0.00 767.50 456.00" xmlns="http://www.w3.org/2000/svg" xmlns:xlink="http://www.w3.org/1999/xlink">
<g id="graph0" class="graph" transform="scale(1 1) rotate(0) translate(4 452)">
<title>src/network/types/gossip_message.hpp</title>
<!-- Node1 -->
<g id="node1" class="node">
<title>Node1</title>
<g id="a_node1"><a xlink:title=" ">
<polygon fill="#999999" stroke="#666666" points="336,-448 211,-448 211,-418 336,-418 336,-448"/>
<text text-anchor="start" x="219" y="-436" font-family="Helvetica,sans-Serif" font-size="10.00">src/network/types/gossip</text>
<text text-anchor="middle" x="273.5" y="-425" font-family="Helvetica,sans-Serif" font-size="10.00">_message.hpp</text>
</a>
</g>
</g>
<!-- Node2 -->
<g id="node2" class="node">
<title>Node2</title>
<g id="a_node2"><a xlink:href="gossiper__broadcast_8hpp.html" target="_top" xlink:title=" ">
<polygon fill="white" stroke="#666666" points="267.5,-382 139.5,-382 139.5,-352 267.5,-352 267.5,-382"/>
<text text-anchor="start" x="147.5" y="-370" font-family="Helvetica,sans-Serif" font-size="10.00">src/network/impl/gossiper</text>
<text text-anchor="middle" x="203.5" y="-359" font-family="Helvetica,sans-Serif" font-size="10.00">_broadcast.hpp</text>
</a>
</g>
</g>
<!-- Node1&#45;&gt;Node2 -->
<g id="edge1" class="edge">
<title>Node1&#45;&gt;Node2</title>
<path fill="none" stroke="#63b8ff" d="M249.53,-410.09C239.43,-400.85 227.96,-390.36 218.99,-382.16"/>
<polygon fill="#63b8ff" stroke="#63b8ff" points="247.11,-412.61 256.85,-416.78 251.83,-407.44 247.11,-412.61"/>
</g>
<!-- Node19 -->
<g id="node19" class="node">
<title>Node19</title>
<g id="a_node19"><a xlink:href="router__libp2p_8hpp.html" target="_top" xlink:title=" ">
<polygon fill="white" stroke="#666666" points="401.5,-382 285.5,-382 285.5,-352 401.5,-352 401.5,-382"/>
<text text-anchor="start" x="293.5" y="-370" font-family="Helvetica,sans-Serif" font-size="10.00">src/network/impl/router</text>
<text text-anchor="middle" x="343.5" y="-359" font-family="Helvetica,sans-Serif" font-size="10.00">_libp2p.hpp</text>
</a>
</g>
</g>
<!-- Node1&#45;&gt;Node19 -->
<g id="edge20" class="edge">
<title>Node1&#45;&gt;Node19</title>
<path fill="none" stroke="#63b8ff" d="M297.47,-410.09C307.57,-400.85 319.04,-390.36 328.01,-382.16"/>
<polygon fill="#63b8ff" stroke="#63b8ff" points="295.17,-407.44 290.15,-416.78 299.89,-412.61 295.17,-407.44"/>
</g>
<!-- Node3 -->
<g id="node3" class="node">
<title>Node3</title>
<g id="a_node3"><a xlink:href="application__injector_8hpp.html" target="_top" xlink:title=" ">
<polygon fill="white" stroke="#666666" points="333.5,-316 219.5,-316 219.5,-286 333.5,-286 333.5,-316"/>
<text text-anchor="start" x="227.5" y="-304" font-family="Helvetica,sans-Serif" font-size="10.00">src/injector/application</text>
<text text-anchor="middle" x="276.5" y="-293" font-family="Helvetica,sans-Serif" font-size="10.00">_injector.hpp</text>
</a>
</g>
</g>
<!-- Node2&#45;&gt;Node3 -->
<g id="edge2" class="edge">
<title>Node2&#45;&gt;Node3</title>
<path fill="none" stroke="#63b8ff" d="M228.11,-344.42C238.65,-335.18 250.67,-324.65 260.09,-316.39"/>
<polygon fill="#63b8ff" stroke="#63b8ff" points="226.05,-341.57 220.84,-350.8 230.67,-346.84 226.05,-341.57"/>
</g>
<!-- Node18 -->
<g id="node18" class="node">
<title>Node18</title>
<g id="a_node18"><a xlink:href="gossiper__broadcast_8cpp.html" target="_top" xlink:title=" ">
<polygon fill="white" stroke="#666666" points="201.5,-316 73.5,-316 73.5,-286 201.5,-286 201.5,-316"/>
<text text-anchor="start" x="81.5" y="-304" font-family="Helvetica,sans-Serif" font-size="10.00">src/network/impl/gossiper</text>
<text text-anchor="middle" x="137.5" y="-293" font-family="Helvetica,sans-Serif" font-size="10.00">_broadcast.cpp</text>
</a>
</g>
</g>
<!-- Node2&#45;&gt;Node18 -->
<g id="edge19" class="edge">
<title>Node2&#45;&gt;Node18</title>
<path fill="none" stroke="#63b8ff" d="M180.61,-343.81C171.16,-334.64 160.47,-324.28 152.11,-316.16"/>
<polygon fill="#63b8ff" stroke="#63b8ff" points="178.15,-346.29 187.77,-350.74 183.02,-341.27 178.15,-346.29"/>
</g>
<!-- Node4 -->
<g id="node4" class="node">
<title>Node4</title>
<g id="a_node4"><a xlink:href="application__injector_8cpp.html" target="_top" xlink:title=" ">
<polygon fill="white" stroke="#666666" points="167.5,-250 53.5,-250 53.5,-220 167.5,-220 167.5,-250"/>
<text text-anchor="start" x="61.5" y="-238" font-family="Helvetica,sans-Serif" font-size="10.00">src/injector/application</text>
<text text-anchor="middle" x="110.5" y="-227" font-family="Helvetica,sans-Serif" font-size="10.00">_injector.cpp</text>
</a>
</g>
</g>
<!-- Node3&#45;&gt;Node4 -->
<g id="edge3" class="edge">
<title>Node3&#45;&gt;Node4</title>
<path fill="none" stroke="#63b8ff" d="M228.62,-281.54C202.95,-271.64 171.79,-259.63 147.92,-250.43"/>
<polygon fill="#63b8ff" stroke="#63b8ff" points="227.24,-284.76 237.83,-285.09 229.76,-278.23 227.24,-284.76"/>
</g>
<!-- Node5 -->
<g id="node5" class="node">
<title>Node5</title>
<g id="a_node5"><a xlink:href="block__producing__node__injector_8hpp.html" target="_top" xlink:title=" ">
<polygon fill="white" stroke="#666666" points="431,-184 286,-184 286,-154 431,-154 431,-184"/>
<text text-anchor="start" x="294" y="-172" font-family="Helvetica,sans-Serif" font-size="10.00">src/injector/block</text>
<text text-anchor="middle" x="358.5" y="-161" font-family="Helvetica,sans-Serif" font-size="10.00">_producing_node_injector.hpp</text>
</a>
</g>
</g>
<!-- Node3&#45;&gt;Node5 -->
<g id="edge4" class="edge">
<title>Node3&#45;&gt;Node5</title>
<path fill="none" stroke="#63b8ff" d="M291.53,-276.17C308.44,-249.36 335.37,-206.67 349.37,-184.47"/>
<polygon fill="#63b8ff" stroke="#63b8ff" points="288.77,-273.99 286.4,-284.31 294.69,-277.72 288.77,-273.99"/>
</g>
<!-- Node10 -->
<g id="node10" class="node">
<title>Node10</title>
<g id="a_node10"><a xlink:href="syncing__node__injector_8hpp.html" target="_top" xlink:title=" ">
<polygon fill="white" stroke="#666666" points="287,-250 186,-250 186,-220 287,-220 287,-250"/>
<text text-anchor="start" x="194" y="-238" font-family="Helvetica,sans-Serif" font-size="10.00">src/injector/syncing</text>
<text text-anchor="middle" x="236.5" y="-227" font-family="Helvetica,sans-Serif" font-size="10.00">_node_injector.hpp</text>
</a>
</g>
</g>
<!-- Node3&#45;&gt;Node10 -->
<g id="edge9" class="edge">
<title>Node3&#45;&gt;Node10</title>
<path fill="none" stroke="#63b8ff" d="M261.57,-276.11C256.11,-267.38 250.11,-257.78 245.35,-250.16"/>
<polygon fill="#63b8ff" stroke="#63b8ff" points="258.55,-277.89 266.82,-284.51 264.49,-274.18 258.55,-277.89"/>
</g>
<!-- Node14 -->
<g id="node14" class="node">
<title>Node14</title>
<g id="a_node14"><a xlink:href="validating__node__injector_8hpp.html" target="_top" xlink:title=" ">
<polygon fill="white" stroke="#666666" points="455,-250 346,-250 346,-220 455,-220 455,-250"/>
<text text-anchor="start" x="354" y="-238" font-family="Helvetica,sans-Serif" font-size="10.00">src/injector/validating</text>
<text text-anchor="middle" x="400.5" y="-227" font-family="Helvetica,sans-Serif" font-size="10.00">_node_injector.hpp</text>
</a>
</g>
</g>
<!-- Node3&#45;&gt;Node14 -->
<g id="edge13" class="edge">
<title>Node3&#45;&gt;Node14</title>
<path fill="none" stroke="#63b8ff" d="M314.37,-280.45C333.2,-270.73 355.55,-259.2 372.76,-250.31"/>
<polygon fill="#63b8ff" stroke="#63b8ff" points="312.95,-277.25 305.67,-284.94 316.16,-283.47 312.95,-277.25"/>
</g>
<!-- Node6 -->
<g id="node6" class="node">
<title>Node6</title>
<g id="a_node6"><a xlink:href="block__producing__node__application_8hpp.html" target="_top" xlink:title=" ">
<polygon fill="white" stroke="#666666" points="561.5,-118 445.5,-118 445.5,-77 561.5,-77 561.5,-118"/>
<text text-anchor="start" x="453.5" y="-106" font-family="Helvetica,sans-Serif" font-size="10.00">src/application/impl</text>
<text text-anchor="start" x="453.5" y="-95" font-family="Helvetica,sans-Serif" font-size="10.00">/block_producing_node</text>
<text text-anchor="middle" x="503.5" y="-84" font-family="Helvetica,sans-Serif" font-size="10.00">_application.hpp</text>
</a>
</g>
</g>
<!-- Node5&#45;&gt;Node6 -->
<g id="edge5" class="edge">
<title>Node5&#45;&gt;Node6</title>
<path fill="none" stroke="#63b8ff" d="M398.73,-148.72C418.41,-139.28 442.09,-127.94 461.95,-118.42"/>
<polygon fill="#63b8ff" stroke="#63b8ff" points="397.41,-145.47 389.91,-152.95 400.44,-151.78 397.41,-145.47"/>
</g>
<!-- Node9 -->
<g id="node9" class="node">
<title>Node9</title>
<g id="a_node9"><a xlink:href="block__producing__node__injector_8cpp.html" target="_top" xlink:title=" ">
<polygon fill="white" stroke="#666666" points="427,-112.5 282,-112.5 282,-82.5 427,-82.5 427,-112.5"/>
<text text-anchor="start" x="290" y="-100.5" font-family="Helvetica,sans-Serif" font-size="10.00">src/injector/block</text>
<text text-anchor="middle" x="354.5" y="-89.5" font-family="Helvetica,sans-Serif" font-size="10.00">_producing_node_injector.cpp</text>
</a>
</g>
</g>
<!-- Node5&#45;&gt;Node9 -->
<g id="edge8" class="edge">
<title>Node5&#45;&gt;Node9</title>
<path fill="none" stroke="#63b8ff" d="M357.02,-142.26C356.45,-132.33 355.82,-121.36 355.33,-112.88"/>
<polygon fill="#63b8ff" stroke="#63b8ff" points="353.52,-142.31 357.58,-152.09 360.5,-141.9 353.52,-142.31"/>
</g>
<!-- Node7 -->
<g id="node7" class="node">
<title>Node7</title>
<g id="a_node7"><a xlink:href="app__delegate_8cpp.html" target="_top" xlink:title=" ">
<polygon fill="white" stroke="#666666" points="759.5,-30 643.5,-30 643.5,-11 759.5,-11 759.5,-30"/>
<text text-anchor="middle" x="701.5" y="-18" font-family="Helvetica,sans-Serif" font-size="10.00">node/app_delegate.cpp</text>
</a>
</g>
</g>
<!-- Node6&#45;&gt;Node7 -->
<g id="edge6" class="edge">
<title>Node6&#45;&gt;Node7</title>
<path fill="none" stroke="#63b8ff" d="M566.49,-72.64C604.39,-58.28 650.44,-40.84 677.78,-30.48"/>
<polygon fill="#63b8ff" stroke="#63b8ff" points="565.57,-69.25 557.46,-76.06 568.05,-75.79 565.57,-69.25"/>
</g>
<!-- Node8 -->
<g id="node8" class="node">
<title>Node8</title>
<g id="a_node8"><a xlink:href="block__producing__node__application_8cpp.html" target="_top" xlink:title=" ">
<polygon fill="white" stroke="#666666" points="561.5,-41 445.5,-41 445.5,0 561.5,0 561.5,-41"/>
<text text-anchor="start" x="453.5" y="-29" font-family="Helvetica,sans-Serif" font-size="10.00">src/application/impl</text>
<text text-anchor="start" x="453.5" y="-18" font-family="Helvetica,sans-Serif" font-size="10.00">/block_producing_node</text>
<text text-anchor="middle" x="503.5" y="-7" font-family="Helvetica,sans-Serif" font-size="10.00">_application.cpp</text>
</a>
</g>
</g>
<!-- Node6&#45;&gt;Node8 -->
<g id="edge7" class="edge">
<title>Node6&#45;&gt;Node8</title>
<path fill="none" stroke="#63b8ff" d="M503.5,-65.36C503.5,-57.24 503.5,-48.7 503.5,-41.33"/>
<polygon fill="#63b8ff" stroke="#63b8ff" points="500,-65.28 503.5,-75.28 507,-65.28 500,-65.28"/>
</g>
<!-- Node11 -->
<g id="node11" class="node">
<title>Node11</title>
<g id="a_node11"><a xlink:href="syncing__node__application_8hpp.html" target="_top" xlink:title=" ">
<polygon fill="white" stroke="#666666" points="268,-184 119,-184 119,-154 268,-154 268,-184"/>
<text text-anchor="start" x="127" y="-172" font-family="Helvetica,sans-Serif" font-size="10.00">src/application/impl</text>
<text text-anchor="middle" x="193.5" y="-161" font-family="Helvetica,sans-Serif" font-size="10.00">/syncing_node_application.hpp</text>
</a>
</g>
</g>
<!-- Node10&#45;&gt;Node11 -->
<g id="edge10" class="edge">
<title>Node10&#45;&gt;Node11</title>
<path fill="none" stroke="#63b8ff" d="M220.64,-210.39C214.72,-201.59 208.19,-191.86 203.02,-184.16"/>
<polygon fill="#63b8ff" stroke="#63b8ff" points="217.63,-212.19 226.11,-218.54 223.44,-208.29 217.63,-212.19"/>
</g>
<!-- Node13 -->
<g id="node13" class="node">
<title>Node13</title>
<g id="a_node13"><a xlink:href="syncing__node__injector_8cpp.html" target="_top" xlink:title=" ">
<polygon fill="white" stroke="#666666" points="101,-184 0,-184 0,-154 101,-154 101,-184"/>
<text text-anchor="start" x="8" y="-172" font-family="Helvetica,sans-Serif" font-size="10.00">src/injector/syncing</text>
<text text-anchor="middle" x="50.5" y="-161" font-family="Helvetica,sans-Serif" font-size="10.00">_node_injector.cpp</text>
</a>
</g>
</g>
<!-- Node10&#45;&gt;Node13 -->
<g id="edge12" class="edge">
<title>Node10&#45;&gt;Node13</title>
<path fill="none" stroke="#63b8ff" d="M184,-215.94C155.03,-205.97 119.53,-193.75 92.42,-184.43"/>
<polygon fill="#63b8ff" stroke="#63b8ff" points="182.73,-219.2 193.33,-219.14 185.01,-212.58 182.73,-219.2"/>
</g>
<!-- Node12 -->
<g id="node12" class="node">
<title>Node12</title>
<g id="a_node12"><a xlink:href="syncing__node__application_8cpp.html" target="_top" xlink:title=" ">
<polygon fill="white" stroke="#666666" points="264,-112.5 115,-112.5 115,-82.5 264,-82.5 264,-112.5"/>
<text text-anchor="start" x="123" y="-100.5" font-family="Helvetica,sans-Serif" font-size="10.00">src/application/impl</text>
<text text-anchor="middle" x="189.5" y="-89.5" font-family="Helvetica,sans-Serif" font-size="10.00">/syncing_node_application.cpp</text>
</a>
</g>
</g>
<!-- Node11&#45;&gt;Node12 -->
<g id="edge11" class="edge">
<title>Node11&#45;&gt;Node12</title>
<path fill="none" stroke="#63b8ff" d="M192.02,-142.26C191.45,-132.33 190.82,-121.36 190.33,-112.88"/>
<polygon fill="#63b8ff" stroke="#63b8ff" points="188.52,-142.31 192.58,-152.09 195.5,-141.9 188.52,-142.31"/>
</g>
<!-- Node14&#45;&gt;Node5 -->
<g id="edge17" class="edge">
<title>Node14&#45;&gt;Node5</title>
<path fill="none" stroke="#63b8ff" d="M385.01,-210.39C379.23,-201.59 372.85,-191.86 367.8,-184.16"/>
<polygon fill="#63b8ff" stroke="#63b8ff" points="381.94,-212.09 390.35,-218.53 387.79,-208.25 381.94,-212.09"/>
</g>
<!-- Node15 -->
<g id="node15" class="node">
<title>Node15</title>
<g id="a_node15"><a xlink:href="validating__node__application_8hpp.html" target="_top" xlink:title=" ">
<polygon fill="white" stroke="#666666" points="737,-184 580,-184 580,-154 737,-154 737,-184"/>
<text text-anchor="start" x="588" y="-172" font-family="Helvetica,sans-Serif" font-size="10.00">src/application/impl</text>
<text text-anchor="middle" x="658.5" y="-161" font-family="Helvetica,sans-Serif" font-size="10.00">/validating_node_application.hpp</text>
</a>
</g>
</g>
<!-- Node14&#45;&gt;Node15 -->
<g id="edge14" class="edge">
<title>Node14&#45;&gt;Node15</title>
<path fill="none" stroke="#63b8ff" d="M466.28,-217.68C507.62,-207.43 560.46,-194.32 600.28,-184.44"/>
<polygon fill="#63b8ff" stroke="#63b8ff" points="465.55,-214.26 456.68,-220.06 467.23,-221.05 465.55,-214.26"/>
</g>
<!-- Node17 -->
<g id="node17" class="node">
<title>Node17</title>
<g id="a_node17"><a xlink:href="validating__node__injector_8cpp.html" target="_top" xlink:title=" ">
<polygon fill="white" stroke="#666666" points="558,-184 449,-184 449,-154 558,-154 558,-184"/>
<text text-anchor="start" x="457" y="-172" font-family="Helvetica,sans-Serif" font-size="10.00">src/injector/validating</text>
<text text-anchor="middle" x="503.5" y="-161" font-family="Helvetica,sans-Serif" font-size="10.00">_node_injector.cpp</text>
</a>
</g>
</g>
<!-- Node14&#45;&gt;Node17 -->
<g id="edge18" class="edge">
<title>Node14&#45;&gt;Node17</title>
<path fill="none" stroke="#63b8ff" d="M433.27,-213.64C448.63,-204.09 466.56,-192.95 480.46,-184.31"/>
<polygon fill="#63b8ff" stroke="#63b8ff" points="431.55,-210.59 424.9,-218.84 435.24,-216.53 431.55,-210.59"/>
</g>
<!-- Node15&#45;&gt;Node7 -->
<g id="edge15" class="edge">
<title>Node15&#45;&gt;Node7</title>
<path fill="none" stroke="#63b8ff" d="M713.29,-148.43C726.46,-141 738.89,-131.07 746.5,-118 755.67,-102.25 752.59,-94.18 746.5,-77 739.7,-57.83 723.15,-40.44 712.12,-30.42"/>
<polygon fill="#63b8ff" stroke="#63b8ff" points="711.8,-145.26 704.5,-152.94 715,-151.49 711.8,-145.26"/>
</g>
<!-- Node16 -->
<g id="node16" class="node">
<title>Node16</title>
<g id="a_node16"><a xlink:href="validating__node__application_8cpp.html" target="_top" xlink:title=" ">
<polygon fill="white" stroke="#666666" points="737,-112.5 580,-112.5 580,-82.5 737,-82.5 737,-112.5"/>
<text text-anchor="start" x="588" y="-100.5" font-family="Helvetica,sans-Serif" font-size="10.00">src/application/impl</text>
<text text-anchor="middle" x="658.5" y="-89.5" font-family="Helvetica,sans-Serif" font-size="10.00">/validating_node_application.cpp</text>
</a>
</g>
</g>
<!-- Node15&#45;&gt;Node16 -->
<g id="edge16" class="edge">
<title>Node15&#45;&gt;Node16</title>
<path fill="none" stroke="#63b8ff" d="M658.5,-142.26C658.5,-132.33 658.5,-121.36 658.5,-112.88"/>
<polygon fill="#63b8ff" stroke="#63b8ff" points="655,-142.09 658.5,-152.09 662,-142.09 655,-142.09"/>
</g>
<!-- Node19&#45;&gt;Node3 -->
<g id="edge21" class="edge">
<title>Node19&#45;&gt;Node3</title>
<path fill="none" stroke="#63b8ff" d="M320.56,-344.09C310.89,-334.85 299.91,-324.36 291.33,-316.16"/>
<polygon fill="#63b8ff" stroke="#63b8ff" points="317.89,-346.37 327.54,-350.75 322.72,-341.31 317.89,-346.37"/>
</g>
<!-- Node20 -->
<g id="node20" class="node">
<title>Node20</title>
<g id="a_node20"><a xlink:href="router__libp2p_8cpp.html" target="_top" xlink:title=" ">
<polygon fill="white" stroke="#666666" points="467.5,-316 351.5,-316 351.5,-286 467.5,-286 467.5,-316"/>
<text text-anchor="start" x="359.5" y="-304" font-family="Helvetica,sans-Serif" font-size="10.00">src/network/impl/router</text>
<text text-anchor="middle" x="409.5" y="-293" font-family="Helvetica,sans-Serif" font-size="10.00">_libp2p.cpp</text>
</a>
</g>
</g>
<!-- Node19&#45;&gt;Node20 -->
<g id="edge22" class="edge">
<title>Node19&#45;&gt;Node20</title>
<path fill="none" stroke="#63b8ff" d="M366.39,-343.81C375.84,-334.64 386.53,-324.28 394.89,-316.16"/>
<polygon fill="#63b8ff" stroke="#63b8ff" points="363.98,-341.27 359.23,-350.74 368.85,-346.29 363.98,-341.27"/>
</g>
</g>
</svg>
