<?xml version="1.0" encoding="UTF-8" standalone="no"?>
<!DOCTYPE svg PUBLIC "-//W3C//DTD SVG 1.1//EN"
 "http://www.w3.org/Graphics/SVG/1.1/DTD/svg11.dtd">
<!-- Generated by graphviz version 7.0.5 (20221223.1930)
 -->
<!-- Title: src/api/transport/impl/http/http_session.hpp Pages: 1 -->
<svg width="1122pt" height="214pt"
 viewBox="0.00 0.00 1121.50 214.00" xmlns="http://www.w3.org/2000/svg" xmlns:xlink="http://www.w3.org/1999/xlink">
<g id="graph0" class="graph" transform="scale(1 1) rotate(0) translate(4 210)">
<title>src/api/transport/impl/http/http_session.hpp</title>
<!-- Node1 -->
<g id="node1" class="node">
<title>Node1</title>
<g id="a_node1"><a xlink:title=" ">
<polygon fill="#999999" stroke="#666666" points="407,-206 294,-206 294,-176 407,-176 407,-206"/>
<text text-anchor="start" x="302" y="-194" font-family="Helvetica,sans-Serif" font-size="10.00">src/api/transport/impl</text>
<text text-anchor="middle" x="350.5" y="-183" font-family="Helvetica,sans-Serif" font-size="10.00">/http/http_session.hpp</text>
</a>
</g>
</g>
<!-- Node2 -->
<g id="node2" class="node">
<title>Node2</title>
<g id="a_node2"><a xlink:title=" ">
<polygon fill="#e0e0e0" stroke="#999999" points="141.5,-140 31.5,-140 31.5,-121 141.5,-121 141.5,-140"/>
<text text-anchor="middle" x="86.5" y="-128" font-family="Helvetica,sans-Serif" font-size="10.00">boost/asio/strand.hpp</text>
</a>
</g>
</g>
<!-- Node1&#45;&gt;Node2 -->
<g id="edge1" class="edge">
<title>Node1&#45;&gt;Node2</title>
<path fill="none" stroke="#63b8ff" d="M293.54,-177.38C247.39,-167.15 182.9,-152.86 138.21,-142.96"/>
<polygon fill="#63b8ff" stroke="#63b8ff" points="139.02,-139.55 128.5,-140.81 137.5,-146.39 139.02,-139.55"/>
</g>
<!-- Node3 -->
<g id="node3" class="node">
<title>Node3</title>
<g id="a_node3"><a xlink:title=" ">
<polygon fill="#e0e0e0" stroke="#999999" points="245.5,-140 159.5,-140 159.5,-121 245.5,-121 245.5,-140"/>
<text text-anchor="middle" x="202.5" y="-128" font-family="Helvetica,sans-Serif" font-size="10.00">boost/beast.hpp</text>
</a>
</g>
</g>
<!-- Node1&#45;&gt;Node3 -->
<g id="edge2" class="edge">
<title>Node1&#45;&gt;Node3</title>
<path fill="none" stroke="#63b8ff" d="M313.92,-175.54C289.83,-166.02 258.56,-153.66 235.28,-144.46"/>
<polygon fill="#63b8ff" stroke="#63b8ff" points="236.87,-141.32 226.29,-140.9 234.3,-147.83 236.87,-141.32"/>
</g>
<!-- Node4 -->
<g id="node4" class="node">
<title>Node4</title>
<g id="a_node4"><a xlink:title=" ">
<polygon fill="#e0e0e0" stroke="#999999" points="309.5,-140 263.5,-140 263.5,-121 309.5,-121 309.5,-140"/>
<text text-anchor="middle" x="286.5" y="-128" font-family="Helvetica,sans-Serif" font-size="10.00">chrono</text>
</a>
</g>
</g>
<!-- Node1&#45;&gt;Node4 -->
<g id="edge3" class="edge">
<title>Node1&#45;&gt;Node4</title>
<path fill="none" stroke="#63b8ff" d="M334.68,-175.54C325.48,-167.13 313.86,-156.51 304.33,-147.8"/>
<polygon fill="#63b8ff" stroke="#63b8ff" points="306.85,-145.36 297.11,-141.2 302.13,-150.53 306.85,-145.36"/>
</g>
<!-- Node5 -->
<g id="node5" class="node">
<title>Node5</title>
<g id="a_node5"><a xlink:title=" ">
<polygon fill="#e0e0e0" stroke="#999999" points="373,-140 328,-140 328,-121 373,-121 373,-140"/>
<text text-anchor="middle" x="350.5" y="-128" font-family="Helvetica,sans-Serif" font-size="10.00">cstdlib</text>
</a>
</g>
</g>
<!-- Node1&#45;&gt;Node5 -->
<g id="edge4" class="edge">
<title>Node1&#45;&gt;Node5</title>
<path fill="none" stroke="#63b8ff" d="M350.5,-175.54C350.5,-168.34 350.5,-159.53 350.5,-151.68"/>
<polygon fill="#63b8ff" stroke="#63b8ff" points="354,-151.69 350.5,-141.69 347,-151.69 354,-151.69"/>
</g>
<!-- Node6 -->
<g id="node6" class="node">
<title>Node6</title>
<g id="a_node6"><a xlink:title=" ">
<polygon fill="#e0e0e0" stroke="#999999" points="442,-140 391,-140 391,-121 442,-121 442,-140"/>
<text text-anchor="middle" x="416.5" y="-128" font-family="Helvetica,sans-Serif" font-size="10.00">memory</text>
</a>
</g>
</g>
<!-- Node1&#45;&gt;Node6 -->
<g id="edge5" class="edge">
<title>Node1&#45;&gt;Node6</title>
<path fill="none" stroke="#63b8ff" d="M366.81,-175.54C376.3,-167.13 388.29,-156.51 398.11,-147.8"/>
<polygon fill="#63b8ff" stroke="#63b8ff" points="400.42,-150.43 405.58,-141.18 395.77,-145.19 400.42,-150.43"/>
</g>
<!-- Node7 -->
<g id="node7" class="node">
<title>Node7</title>
<g id="a_node7"><a xlink:href="session_8hpp.html" target="_top" xlink:title=" ">
<polygon fill="white" stroke="#666666" points="585,-140 460,-140 460,-121 585,-121 585,-140"/>
<text text-anchor="middle" x="522.5" y="-128" font-family="Helvetica,sans-Serif" font-size="10.00">api/transport/session.hpp</text>
</a>
</g>
</g>
<!-- Node1&#45;&gt;Node7 -->
<g id="edge6" class="edge">
<title>Node1&#45;&gt;Node7</title>
<path fill="none" stroke="#63b8ff" d="M393.02,-175.54C421.43,-165.87 458.44,-153.29 485.62,-144.04"/>
<polygon fill="#63b8ff" stroke="#63b8ff" points="486.46,-147.45 494.81,-140.92 484.21,-140.83 486.46,-147.45"/>
</g>
<!-- Node16 -->
<g id="node16" class="node">
<title>Node16</title>
<g id="a_node16"><a xlink:href="logger_8hpp.html" target="_top" xlink:title=" ">
<polygon fill="white" stroke="#666666" points="1009,-140 924,-140 924,-121 1009,-121 1009,-140"/>
<text text-anchor="middle" x="966.5" y="-128" font-family="Helvetica,sans-Serif" font-size="10.00">base/logger.hpp</text>
</a>
</g>
</g>
<!-- Node1&#45;&gt;Node16 -->
<g id="edge15" class="edge">
<title>Node1&#45;&gt;Node16</title>
<path fill="none" stroke="#63b8ff" d="M407.35,-184.6C525.55,-173.38 796.47,-147.65 912.33,-136.64"/>
<polygon fill="#63b8ff" stroke="#63b8ff" points="912.57,-140.14 922.2,-135.71 911.91,-133.17 912.57,-140.14"/>
</g>
<!-- Node8 -->
<g id="node8" class="node">
<title>Node8</title>
<g id="a_node8"><a xlink:title=" ">
<polygon fill="#e0e0e0" stroke="#999999" points="107,-79.5 0,-79.5 0,-60.5 107,-60.5 107,-79.5"/>
<text text-anchor="middle" x="53.5" y="-67.5" font-family="Helvetica,sans-Serif" font-size="10.00">boost/asio/buffer.hpp</text>
</a>
</g>
</g>
<!-- Node7&#45;&gt;Node8 -->
<g id="edge7" class="edge">
<title>Node7&#45;&gt;Node8</title>
<path fill="none" stroke="#63b8ff" d="M459.68,-122.04C456.57,-121.69 453.5,-121.34 450.5,-121 301.7,-104.22 263.22,-109.53 115.5,-85 110.85,-84.23 106.02,-83.32 101.2,-82.35"/>
<polygon fill="#63b8ff" stroke="#63b8ff" points="102.07,-78.96 91.56,-80.31 100.62,-85.8 102.07,-78.96"/>
</g>
<!-- Node9 -->
<g id="node9" class="node">
<title>Node9</title>
<g id="a_node9"><a xlink:title=" ">
<polygon fill="#e0e0e0" stroke="#999999" points="232,-79.5 125,-79.5 125,-60.5 232,-60.5 232,-79.5"/>
<text text-anchor="middle" x="178.5" y="-67.5" font-family="Helvetica,sans-Serif" font-size="10.00">boost/asio/ip/tcp.hpp</text>
</a>
</g>
</g>
<!-- Node7&#45;&gt;Node9 -->
<g id="edge8" class="edge">
<title>Node7&#45;&gt;Node9</title>
<path fill="none" stroke="#63b8ff" d="M459.57,-120.78C402.29,-112.55 315.47,-99.36 240.5,-85 236.23,-84.18 231.81,-83.29 227.38,-82.35"/>
<polygon fill="#63b8ff" stroke="#63b8ff" points="228.45,-79 217.93,-80.3 226.96,-85.84 228.45,-79"/>
</g>
<!-- Node10 -->
<g id="node10" class="node">
<title>Node10</title>
<g id="a_node10"><a xlink:title=" ">
<polygon fill="#e0e0e0" stroke="#999999" points="375,-79.5 250,-79.5 250,-60.5 375,-60.5 375,-79.5"/>
<text text-anchor="middle" x="312.5" y="-67.5" font-family="Helvetica,sans-Serif" font-size="10.00">boost/asio/read_until.hpp</text>
</a>
</g>
</g>
<!-- Node7&#45;&gt;Node10 -->
<g id="edge9" class="edge">
<title>Node7&#45;&gt;Node10</title>
<path fill="none" stroke="#63b8ff" d="M490.61,-120.62C454.6,-110.59 395.84,-94.22 355.73,-83.04"/>
<polygon fill="#63b8ff" stroke="#63b8ff" points="356.73,-79.69 346.15,-80.37 354.85,-86.43 356.73,-79.69"/>
</g>
<!-- Node11 -->
<g id="node11" class="node">
<title>Node11</title>
<g id="a_node11"><a xlink:title=" ">
<polygon fill="#e0e0e0" stroke="#999999" points="519.5,-79.5 393.5,-79.5 393.5,-60.5 519.5,-60.5 519.5,-79.5"/>
<text text-anchor="middle" x="456.5" y="-67.5" font-family="Helvetica,sans-Serif" font-size="10.00">boost/asio/streambuf.hpp</text>
</a>
</g>
</g>
<!-- Node7&#45;&gt;Node11 -->
<g id="edge10" class="edge">
<title>Node7&#45;&gt;Node11</title>
<path fill="none" stroke="#63b8ff" d="M512.48,-120.62C502.59,-111.85 487.24,-98.25 475.12,-87.5"/>
<polygon fill="#63b8ff" stroke="#63b8ff" points="477.56,-84.99 467.75,-80.97 472.91,-90.22 477.56,-84.99"/>
</g>
<!-- Node12 -->
<g id="node12" class="node">
<title>Node12</title>
<g id="a_node12"><a xlink:title=" ">
<polygon fill="#e0e0e0" stroke="#999999" points="641.5,-79.5 537.5,-79.5 537.5,-60.5 641.5,-60.5 641.5,-79.5"/>
<text text-anchor="middle" x="589.5" y="-67.5" font-family="Helvetica,sans-Serif" font-size="10.00">boost/asio/write.hpp</text>
</a>
</g>
</g>
<!-- Node7&#45;&gt;Node12 -->
<g id="edge11" class="edge">
<title>Node7&#45;&gt;Node12</title>
<path fill="none" stroke="#63b8ff" d="M532.68,-120.62C542.71,-111.85 558.29,-98.25 570.6,-87.5"/>
<polygon fill="#63b8ff" stroke="#63b8ff" points="572.86,-90.18 578.09,-80.96 568.25,-84.9 572.86,-90.18"/>
</g>
<!-- Node13 -->
<g id="node13" class="node">
<title>Node13</title>
<g id="a_node13"><a xlink:title=" ">
<polygon fill="#e0e0e0" stroke="#999999" points="785.5,-79.5 659.5,-79.5 659.5,-60.5 785.5,-60.5 785.5,-79.5"/>
<text text-anchor="middle" x="722.5" y="-67.5" font-family="Helvetica,sans-Serif" font-size="10.00">boost/signals2/signal.hpp</text>
</a>
</g>
</g>
<!-- Node7&#45;&gt;Node13 -->
<g id="edge12" class="edge">
<title>Node7&#45;&gt;Node13</title>
<path fill="none" stroke="#63b8ff" d="M552.88,-120.62C587.09,-110.61 642.89,-94.29 681.08,-83.12"/>
<polygon fill="#63b8ff" stroke="#63b8ff" points="681.77,-86.56 690.39,-80.39 679.81,-79.84 681.77,-86.56"/>
</g>
<!-- Node14 -->
<g id="node14" class="node">
<title>Node14</title>
<g id="a_node14"><a xlink:href="rpc__io__context_8hpp.html" target="_top" xlink:title=" ">
<polygon fill="white" stroke="#666666" points="903.5,-85 803.5,-85 803.5,-55 903.5,-55 903.5,-85"/>
<text text-anchor="start" x="811.5" y="-73" font-family="Helvetica,sans-Serif" font-size="10.00">api/transport/rpc_io</text>
<text text-anchor="middle" x="853.5" y="-62" font-family="Helvetica,sans-Serif" font-size="10.00">_context.hpp</text>
</a>
</g>
</g>
<!-- Node7&#45;&gt;Node14 -->
<g id="edge13" class="edge">
<title>Node7&#45;&gt;Node14</title>
<path fill="none" stroke="#63b8ff" d="M585.39,-120.5C638.07,-112.67 715.51,-100.49 791.78,-85.46"/>
<polygon fill="#63b8ff" stroke="#63b8ff" points="792.41,-88.91 801.54,-83.52 791.05,-82.04 792.41,-88.91"/>
</g>
<!-- Node15 -->
<g id="node15" class="node">
<title>Node15</title>
<g id="a_node15"><a xlink:title=" ">
<polygon fill="#e0e0e0" stroke="#999999" points="917,-19 790,-19 790,0 917,0 917,-19"/>
<text text-anchor="middle" x="853.5" y="-7" font-family="Helvetica,sans-Serif" font-size="10.00">boost/asio/io_context.hpp</text>
</a>
</g>
</g>
<!-- Node14&#45;&gt;Node15 -->
<g id="edge14" class="edge">
<title>Node14&#45;&gt;Node15</title>
<path fill="none" stroke="#63b8ff" d="M853.5,-54.54C853.5,-47.34 853.5,-38.53 853.5,-30.68"/>
<polygon fill="#63b8ff" stroke="#63b8ff" points="857,-30.69 853.5,-20.69 850,-30.69 857,-30.69"/>
</g>
<!-- Node17 -->
<g id="node17" class="node">
<title>Node17</title>
<g id="a_node17"><a xlink:title=" ">
<polygon fill="#e0e0e0" stroke="#999999" points="1011,-79.5 922,-79.5 922,-60.5 1011,-60.5 1011,-79.5"/>
<text text-anchor="middle" x="966.5" y="-67.5" font-family="Helvetica,sans-Serif" font-size="10.00">spdlog/fmt/ostr.h</text>
</a>
</g>
</g>
<!-- Node16&#45;&gt;Node17 -->
<g id="edge16" class="edge">
<title>Node16&#45;&gt;Node17</title>
<path fill="none" stroke="#63b8ff" d="M966.5,-120.87C966.5,-113 966.5,-101.1 966.5,-90.89"/>
<polygon fill="#63b8ff" stroke="#63b8ff" points="970,-91.18 966.5,-81.18 963,-91.18 970,-91.18"/>
</g>
<!-- Node18 -->
<g id="node18" class="node">
<title>Node18</title>
<g id="a_node18"><a xlink:title=" ">
<polygon fill="#e0e0e0" stroke="#999999" points="1113.5,-79.5 1029.5,-79.5 1029.5,-60.5 1113.5,-60.5 1113.5,-79.5"/>
<text text-anchor="middle" x="1071.5" y="-67.5" font-family="Helvetica,sans-Serif" font-size="10.00">spdlog/spdlog.h</text>
</a>
</g>
</g>
<!-- Node16&#45;&gt;Node18 -->
<g id="edge17" class="edge">
<title>Node16&#45;&gt;Node18</title>
<path fill="none" stroke="#63b8ff" d="M982.45,-120.62C999.18,-111.29 1025.73,-96.5 1045.5,-85.49"/>
<polygon fill="#63b8ff" stroke="#63b8ff" points="1047.05,-88.63 1054.08,-80.71 1043.64,-82.51 1047.05,-88.63"/>
</g>
</g>
</svg>
