<?xml version="1.0" encoding="UTF-8" standalone="no"?>
<!DOCTYPE svg PUBLIC "-//W3C//DTD SVG 1.1//EN"
 "http://www.w3.org/Graphics/SVG/1.1/DTD/svg11.dtd">
<!-- Generated by graphviz version 7.0.5 (20221223.1930)
 -->
<!-- Title: Graphical Class Hierarchy Pages: 1 -->
<svg width="333pt" height="134pt"
 viewBox="0.00 0.00 333.00 134.00" xmlns="http://www.w3.org/2000/svg" xmlns:xlink="http://www.w3.org/1999/xlink">
<g id="graph0" class="graph" transform="scale(1 1) rotate(0) translate(4 130)">
<title>Graphical Class Hierarchy</title>
<!-- Node0 -->
<g id="node1" class="node">
<title>Node0</title>
<g id="a_node1"><a xlink:href="classsgns_1_1authority_1_1_authority_manager.html" target="_top" xlink:title=" ">
<polygon fill="white" stroke="#666666" points="131.5,-126 9.5,-126 9.5,-96 131.5,-96 131.5,-126"/>
<text text-anchor="start" x="17.5" y="-114" font-family="Helvetica,sans-Serif" font-size="10.00">sgns::authority::Authority</text>
<text text-anchor="middle" x="70.5" y="-103" font-family="Helvetica,sans-Serif" font-size="10.00">Manager</text>
</a>
</g>
</g>
<!-- Node1 -->
<g id="node2" class="node">
<title>Node1</title>
<g id="a_node2"><a xlink:href="classsgns_1_1authority_1_1_authority_manager_impl.html" target="_top" xlink:title=" ">
<polygon fill="white" stroke="#666666" points="312,-78 190,-78 190,-48 312,-48 312,-78"/>
<text text-anchor="start" x="198" y="-66" font-family="Helvetica,sans-Serif" font-size="10.00">sgns::authority::Authority</text>
<text text-anchor="middle" x="251" y="-55" font-family="Helvetica,sans-Serif" font-size="10.00">ManagerImpl</text>
</a>
</g>
</g>
<!-- Node0&#45;&gt;Node1 -->
<g id="edge1" class="edge">
<title>Node0&#45;&gt;Node1</title>
<path fill="none" stroke="#63b8ff" d="M139.67,-92.67C157.15,-87.97 175.77,-82.96 192.65,-78.42"/>
<polygon fill="#63b8ff" stroke="#63b8ff" points="139.17,-89.18 130.42,-95.16 140.99,-95.94 139.17,-89.18"/>
</g>
<!-- Node2 -->
<g id="node3" class="node">
<title>Node2</title>
<g id="a_node3"><a xlink:href="classsgns_1_1authority_1_1_authority_update_observer.html" target="_top" xlink:title=" ">
<polygon fill="white" stroke="#666666" points="131.5,-78 9.5,-78 9.5,-48 131.5,-48 131.5,-78"/>
<text text-anchor="start" x="17.5" y="-66" font-family="Helvetica,sans-Serif" font-size="10.00">sgns::authority::Authority</text>
<text text-anchor="middle" x="70.5" y="-55" font-family="Helvetica,sans-Serif" font-size="10.00">UpdateObserver</text>
</a>
</g>
</g>
<!-- Node2&#45;&gt;Node1 -->
<g id="edge2" class="edge">
<title>Node2&#45;&gt;Node1</title>
<path fill="none" stroke="#63b8ff" d="M143.02,-63C158.47,-63 174.66,-63 189.63,-63"/>
<polygon fill="#63b8ff" stroke="#63b8ff" points="143.45,-59.5 133.45,-63 143.45,-66.5 143.45,-59.5"/>
</g>
<!-- Node3 -->
<g id="node4" class="node">
<title>Node3</title>
<g id="a_node4"><a xlink:href="classsgns_1_1verification_1_1finality_1_1_finalization_observer.html" target="_top" xlink:title=" ">
<polygon fill="white" stroke="#666666" points="141,-30 0,-30 0,0 141,0 141,-30"/>
<text text-anchor="start" x="8" y="-18" font-family="Helvetica,sans-Serif" font-size="10.00">sgns::verification</text>
<text text-anchor="middle" x="70.5" y="-7" font-family="Helvetica,sans-Serif" font-size="10.00">::finality::FinalizationObserver</text>
</a>
</g>
</g>
<!-- Node3&#45;&gt;Node1 -->
<g id="edge3" class="edge">
<title>Node3&#45;&gt;Node1</title>
<path fill="none" stroke="#63b8ff" d="M139.67,-33.33C157.15,-38.03 175.77,-43.04 192.65,-47.58"/>
<polygon fill="#63b8ff" stroke="#63b8ff" points="140.99,-30.06 130.42,-30.84 139.17,-36.82 140.99,-30.06"/>
</g>
<!-- Node4 -->
<g id="node5" class="node">
<title>Node4</title>
<g id="a_node5"><a xlink:href="classsgns_1_1verification_1_1finality_1_1_finalization_composite.html" target="_top" xlink:title="Special wrapper for aggregate anyone finalisation observers. Needed in order to have single endpoint ...">
<polygon fill="white" stroke="#666666" points="325,-30 177,-30 177,0 325,0 325,-30"/>
<text text-anchor="start" x="185" y="-18" font-family="Helvetica,sans-Serif" font-size="10.00">sgns::verification</text>
<text text-anchor="middle" x="251" y="-7" font-family="Helvetica,sans-Serif" font-size="10.00">::finality::FinalizationComposite</text>
</a>
</g>
</g>
<!-- Node3&#45;&gt;Node4 -->
<g id="edge4" class="edge">
<title>Node3&#45;&gt;Node4</title>
<path fill="none" stroke="#63b8ff" d="M152.58,-15C160.63,-15 168.77,-15 176.74,-15"/>
<polygon fill="#63b8ff" stroke="#63b8ff" points="152.79,-11.5 142.79,-15 152.79,-18.5 152.79,-11.5"/>
</g>
</g>
</svg>
