<?xml version="1.0" encoding="UTF-8" standalone="no"?>
<!DOCTYPE svg PUBLIC "-//W3C//DTD SVG 1.1//EN"
 "http://www.w3.org/Graphics/SVG/1.1/DTD/svg11.dtd">
<!-- Generated by graphviz version 7.0.5 (20221223.1930)
 -->
<!-- Title: Graphical Class Hierarchy Pages: 1 -->
<svg width="254pt" height="397pt"
 viewBox="0.00 0.00 254.00 397.00" xmlns="http://www.w3.org/2000/svg" xmlns:xlink="http://www.w3.org/1999/xlink">
<g id="graph0" class="graph" transform="scale(1 1) rotate(0) translate(4 393)">
<title>Graphical Class Hierarchy</title>
<!-- Node0 -->
<g id="node1" class="node">
<title>Node0</title>
<g id="a_node1"><a xlink:href="classsgns_1_1message.html" target="_top" xlink:title=" ">
<polygon fill="white" stroke="#666666" points="82,-204 0,-204 0,-185 82,-185 82,-204"/>
<text text-anchor="middle" x="41" y="-192" font-family="Helvetica,sans-Serif" font-size="10.00">sgns::message</text>
</a>
</g>
</g>
<!-- Node1 -->
<g id="node2" class="node">
<title>Node1</title>
<g id="a_node2"><a xlink:href="classsgns_1_1bulk__pull.html" target="_top" xlink:title=" ">
<polygon fill="white" stroke="#666666" points="222,-389 142,-389 142,-370 222,-370 222,-389"/>
<text text-anchor="middle" x="182" y="-377" font-family="Helvetica,sans-Serif" font-size="10.00">sgns::bulk_pull</text>
</a>
</g>
</g>
<!-- Node0&#45;&gt;Node1 -->
<g id="edge1" class="edge">
<title>Node0&#45;&gt;Node1</title>
<path fill="none" stroke="#63b8ff" d="M45.64,-215.36C52.92,-250.73 72.64,-322.43 118,-361.5 124.72,-367.29 133.2,-371.22 141.73,-373.89"/>
<polygon fill="#63b8ff" stroke="#63b8ff" points="49.09,-214.76 43.78,-205.59 42.21,-216.07 49.09,-214.76"/>
</g>
<!-- Node2 -->
<g id="node3" class="node">
<title>Node2</title>
<g id="a_node3"><a xlink:href="classsgns_1_1bulk__pull__account.html" target="_top" xlink:title=" ">
<polygon fill="white" stroke="#666666" points="242,-352 122,-352 122,-333 242,-333 242,-352"/>
<text text-anchor="middle" x="182" y="-340" font-family="Helvetica,sans-Serif" font-size="10.00">sgns::bulk_pull_account</text>
</a>
</g>
</g>
<!-- Node0&#45;&gt;Node2 -->
<g id="edge2" class="edge">
<title>Node0&#45;&gt;Node2</title>
<path fill="none" stroke="#63b8ff" d="M48.54,-215.16C58.73,-243.97 81.14,-295.89 118,-324.5 122.13,-327.71 126.82,-330.34 131.72,-332.51"/>
<polygon fill="#63b8ff" stroke="#63b8ff" points="51.9,-214.17 45.4,-205.8 45.26,-216.39 51.9,-214.17"/>
</g>
<!-- Node3 -->
<g id="node4" class="node">
<title>Node3</title>
<g id="a_node4"><a xlink:href="classsgns_1_1bulk__push.html" target="_top" xlink:title=" ">
<polygon fill="white" stroke="#666666" points="225,-315 139,-315 139,-296 225,-296 225,-315"/>
<text text-anchor="middle" x="182" y="-303" font-family="Helvetica,sans-Serif" font-size="10.00">sgns::bulk_push</text>
</a>
</g>
</g>
<!-- Node0&#45;&gt;Node3 -->
<g id="edge3" class="edge">
<title>Node0&#45;&gt;Node3</title>
<path fill="none" stroke="#63b8ff" d="M53.04,-214.15C65.94,-235.34 89.22,-268.57 118,-287.5 124.27,-291.63 131.5,-294.82 138.77,-297.29"/>
<polygon fill="#63b8ff" stroke="#63b8ff" points="56.11,-212.47 48.03,-205.62 50.07,-216.01 56.11,-212.47"/>
</g>
<!-- Node4 -->
<g id="node5" class="node">
<title>Node4</title>
<g id="a_node5"><a xlink:href="classsgns_1_1confirm__ack.html" target="_top" xlink:title=" ">
<polygon fill="white" stroke="#666666" points="229.5,-278 134.5,-278 134.5,-259 229.5,-259 229.5,-278"/>
<text text-anchor="middle" x="182" y="-266" font-family="Helvetica,sans-Serif" font-size="10.00">sgns::confirm_ack</text>
</a>
</g>
</g>
<!-- Node0&#45;&gt;Node4 -->
<g id="edge4" class="edge">
<title>Node0&#45;&gt;Node4</title>
<path fill="none" stroke="#63b8ff" d="M61.14,-211.63C75.79,-223.96 97,-240.18 118,-250.5 124.33,-253.61 131.29,-256.27 138.2,-258.51"/>
<polygon fill="#63b8ff" stroke="#63b8ff" points="63.52,-209.06 53.66,-205.17 58.94,-214.36 63.52,-209.06"/>
</g>
<!-- Node5 -->
<g id="node6" class="node">
<title>Node5</title>
<g id="a_node6"><a xlink:href="classsgns_1_1confirm__req.html" target="_top" xlink:title=" ">
<polygon fill="white" stroke="#666666" points="228,-241 136,-241 136,-222 228,-222 228,-241"/>
<text text-anchor="middle" x="182" y="-229" font-family="Helvetica,sans-Serif" font-size="10.00">sgns::confirm_req</text>
</a>
</g>
</g>
<!-- Node0&#45;&gt;Node5 -->
<g id="edge5" class="edge">
<title>Node0&#45;&gt;Node5</title>
<path fill="none" stroke="#63b8ff" d="M89.89,-207.25C107.48,-211.93 127.12,-217.16 143.65,-221.56"/>
<polygon fill="#63b8ff" stroke="#63b8ff" points="91.28,-203.99 80.71,-204.8 89.48,-210.76 91.28,-203.99"/>
</g>
<!-- Node6 -->
<g id="node7" class="node">
<title>Node6</title>
<g id="a_node7"><a xlink:href="classsgns_1_1frontier__req.html" target="_top" xlink:title=" ">
<polygon fill="white" stroke="#666666" points="227.5,-204 136.5,-204 136.5,-185 227.5,-185 227.5,-204"/>
<text text-anchor="middle" x="182" y="-192" font-family="Helvetica,sans-Serif" font-size="10.00">sgns::frontier_req</text>
</a>
</g>
</g>
<!-- Node0&#45;&gt;Node6 -->
<g id="edge6" class="edge">
<title>Node0&#45;&gt;Node6</title>
<path fill="none" stroke="#63b8ff" d="M93.6,-194.5C107.53,-194.5 122.48,-194.5 136.01,-194.5"/>
<polygon fill="#63b8ff" stroke="#63b8ff" points="93.72,-191 83.72,-194.5 93.72,-198 93.72,-191"/>
</g>
<!-- Node7 -->
<g id="node8" class="node">
<title>Node7</title>
<g id="a_node8"><a xlink:href="classsgns_1_1keepalive.html" target="_top" xlink:title=" ">
<polygon fill="white" stroke="#666666" points="223.5,-167 140.5,-167 140.5,-148 223.5,-148 223.5,-167"/>
<text text-anchor="middle" x="182" y="-155" font-family="Helvetica,sans-Serif" font-size="10.00">sgns::keepalive</text>
</a>
</g>
</g>
<!-- Node0&#45;&gt;Node7 -->
<g id="edge7" class="edge">
<title>Node0&#45;&gt;Node7</title>
<path fill="none" stroke="#63b8ff" d="M89.89,-181.75C107.48,-177.07 127.12,-171.84 143.65,-167.44"/>
<polygon fill="#63b8ff" stroke="#63b8ff" points="89.48,-178.24 80.71,-184.2 91.28,-185.01 89.48,-178.24"/>
</g>
<!-- Node8 -->
<g id="node9" class="node">
<title>Node8</title>
<g id="a_node9"><a xlink:href="classsgns_1_1node__id__handshake.html" target="_top" xlink:title=" ">
<polygon fill="white" stroke="#666666" points="246,-130 118,-130 118,-111 246,-111 246,-130"/>
<text text-anchor="middle" x="182" y="-118" font-family="Helvetica,sans-Serif" font-size="10.00">sgns::node_id_handshake</text>
</a>
</g>
</g>
<!-- Node0&#45;&gt;Node8 -->
<g id="edge8" class="edge">
<title>Node0&#45;&gt;Node8</title>
<path fill="none" stroke="#63b8ff" d="M61.74,-177.37C76.43,-165.36 97.41,-149.7 118,-139.5 125.17,-135.95 133.12,-132.92 140.9,-130.4"/>
<polygon fill="#63b8ff" stroke="#63b8ff" points="59.65,-174.56 54.23,-183.66 64.14,-179.92 59.65,-174.56"/>
</g>
<!-- Node9 -->
<g id="node10" class="node">
<title>Node9</title>
<g id="a_node10"><a xlink:href="classsgns_1_1publish.html" target="_top" xlink:title=" ">
<polygon fill="white" stroke="#666666" points="218.5,-93 145.5,-93 145.5,-74 218.5,-74 218.5,-93"/>
<text text-anchor="middle" x="182" y="-81" font-family="Helvetica,sans-Serif" font-size="10.00">sgns::publish</text>
</a>
</g>
</g>
<!-- Node0&#45;&gt;Node9 -->
<g id="edge9" class="edge">
<title>Node0&#45;&gt;Node9</title>
<path fill="none" stroke="#63b8ff" d="M53.34,-174.82C66.37,-153.91 89.64,-121.35 118,-102.5 126.09,-97.12 135.75,-93.22 145.05,-90.41"/>
<polygon fill="#63b8ff" stroke="#63b8ff" points="50.43,-172.88 48.27,-183.25 56.43,-176.48 50.43,-172.88"/>
</g>
<!-- Node10 -->
<g id="node11" class="node">
<title>Node10</title>
<g id="a_node11"><a xlink:href="classsgns_1_1telemetry__ack.html" target="_top" xlink:title=" ">
<polygon fill="white" stroke="#666666" points="233.5,-56 130.5,-56 130.5,-37 233.5,-37 233.5,-56"/>
<text text-anchor="middle" x="182" y="-44" font-family="Helvetica,sans-Serif" font-size="10.00">sgns::telemetry_ack</text>
</a>
</g>
</g>
<!-- Node0&#45;&gt;Node10 -->
<g id="edge10" class="edge">
<title>Node0&#45;&gt;Node10</title>
<path fill="none" stroke="#63b8ff" d="M48.64,-174.07C58.95,-145.57 81.51,-94.15 118,-65.5 122.67,-61.83 128.05,-58.87 133.64,-56.48"/>
<polygon fill="#63b8ff" stroke="#63b8ff" points="45.41,-172.72 45.46,-183.32 52.03,-175 45.41,-172.72"/>
</g>
<!-- Node11 -->
<g id="node12" class="node">
<title>Node11</title>
<g id="a_node12"><a xlink:href="classsgns_1_1telemetry__req.html" target="_top" xlink:title=" ">
<polygon fill="white" stroke="#666666" points="232.5,-19 131.5,-19 131.5,0 232.5,0 232.5,-19"/>
<text text-anchor="middle" x="182" y="-7" font-family="Helvetica,sans-Serif" font-size="10.00">sgns::telemetry_req</text>
</a>
</g>
</g>
<!-- Node0&#45;&gt;Node11 -->
<g id="edge11" class="edge">
<title>Node0&#45;&gt;Node11</title>
<path fill="none" stroke="#63b8ff" d="M45.85,-173.33C53.36,-138.1 73.32,-67.46 118,-28.5 122.22,-24.82 127.13,-21.85 132.32,-19.46"/>
<polygon fill="#63b8ff" stroke="#63b8ff" points="42.42,-172.61 43.91,-183.1 49.29,-173.97 42.42,-172.61"/>
</g>
</g>
</svg>
