<?xml version="1.0" encoding="UTF-8" standalone="no"?>
<!DOCTYPE svg PUBLIC "-//W3C//DTD SVG 1.1//EN"
 "http://www.w3.org/Graphics/SVG/1.1/DTD/svg11.dtd">
<!-- Generated by graphviz version 7.0.5 (20221223.1930)
 -->
<!-- Title: Graphical Class Hierarchy Pages: 1 -->
<svg width="296pt" height="101pt"
 viewBox="0.00 0.00 296.00 101.00" xmlns="http://www.w3.org/2000/svg" xmlns:xlink="http://www.w3.org/1999/xlink">
<g id="graph0" class="graph" transform="scale(1 1) rotate(0) translate(4 97)">
<title>Graphical Class Hierarchy</title>
<!-- Node0 -->
<g id="node1" class="node">
<title>Node0</title>
<g id="a_node1"><a xlink:href="structsgns_1_1primitives_1_1detail_1_1_digest_item_common.html" target="_top" xlink:title=" ">
<polygon fill="white" stroke="#666666" points="112,-61.5 0,-61.5 0,-31.5 112,-31.5 112,-61.5"/>
<text text-anchor="start" x="8" y="-49.5" font-family="Helvetica,sans-Serif" font-size="10.00">sgns::primitives::detail</text>
<text text-anchor="middle" x="56" y="-38.5" font-family="Helvetica,sans-Serif" font-size="10.00">::DigestItemCommon</text>
</a>
</g>
</g>
<!-- Node1 -->
<g id="node2" class="node">
<title>Node1</title>
<g id="a_node2"><a xlink:href="structsgns_1_1primitives_1_1_pre_runtime.html" target="_top" xlink:title=" ">
<polygon fill="white" stroke="#666666" points="288,-93 148,-93 148,-74 288,-74 288,-93"/>
<text text-anchor="middle" x="218" y="-81" font-family="Helvetica,sans-Serif" font-size="10.00">sgns::primitives::PreRuntime</text>
</a>
</g>
</g>
<!-- Node0&#45;&gt;Node1 -->
<g id="edge1" class="edge">
<title>Node0&#45;&gt;Node1</title>
<path fill="none" stroke="#63b8ff" d="M123.17,-61.8C140.32,-65.77 158.35,-69.94 173.97,-73.55"/>
<polygon fill="#63b8ff" stroke="#63b8ff" points="124.07,-58.42 113.54,-59.57 122.49,-65.24 124.07,-58.42"/>
</g>
<!-- Node2 -->
<g id="node3" class="node">
<title>Node2</title>
<g id="a_node3"><a xlink:href="structsgns_1_1primitives_1_1_seal.html" target="_top" xlink:title=" ">
<polygon fill="white" stroke="#666666" points="272,-56 164,-56 164,-37 272,-37 272,-56"/>
<text text-anchor="middle" x="218" y="-44" font-family="Helvetica,sans-Serif" font-size="10.00">sgns::primitives::Seal</text>
</a>
</g>
</g>
<!-- Node0&#45;&gt;Node2 -->
<g id="edge2" class="edge">
<title>Node0&#45;&gt;Node2</title>
<path fill="none" stroke="#63b8ff" d="M123.23,-46.5C136.73,-46.5 150.76,-46.5 163.73,-46.5"/>
<polygon fill="#63b8ff" stroke="#63b8ff" points="123.58,-43 113.58,-46.5 123.58,-50 123.58,-43"/>
</g>
<!-- Node3 -->
<g id="node4" class="node">
<title>Node3</title>
<g id="a_node4"><a xlink:href="structsgns_1_1primitives_1_1_verification.html" target="_top" xlink:title=" ">
<polygon fill="white" stroke="#666666" points="286.5,-19 149.5,-19 149.5,0 286.5,0 286.5,-19"/>
<text text-anchor="middle" x="218" y="-7" font-family="Helvetica,sans-Serif" font-size="10.00">sgns::primitives::Verification</text>
</a>
</g>
</g>
<!-- Node0&#45;&gt;Node3 -->
<g id="edge3" class="edge">
<title>Node0&#45;&gt;Node3</title>
<path fill="none" stroke="#63b8ff" d="M123.17,-31.2C140.32,-27.23 158.35,-23.06 173.97,-19.45"/>
<polygon fill="#63b8ff" stroke="#63b8ff" points="122.49,-27.76 113.54,-33.43 124.07,-34.58 122.49,-27.76"/>
</g>
</g>
</svg>
