<?xml version="1.0" encoding="UTF-8" standalone="no"?>
<!DOCTYPE svg PUBLIC "-//W3C//DTD SVG 1.1//EN"
 "http://www.w3.org/Graphics/SVG/1.1/DTD/svg11.dtd">
<!-- Generated by graphviz version 7.0.5 (20221223.1930)
 -->
<!-- Title: Graphical Class Hierarchy Pages: 1 -->
<svg width="327pt" height="86pt"
 viewBox="0.00 0.00 327.00 86.00" xmlns="http://www.w3.org/2000/svg" xmlns:xlink="http://www.w3.org/1999/xlink">
<g id="graph0" class="graph" transform="scale(1 1) rotate(0) translate(4 82)">
<title>Graphical Class Hierarchy</title>
<!-- Node0 -->
<g id="node1" class="node">
<title>Node0</title>
<g id="a_node1"><a xlink:href="classsgns_1_1runtime_1_1_wasm_provider.html" target="_top" xlink:title=" ">
<polygon fill="white" stroke="#666666" points="143,-48.5 0,-48.5 0,-29.5 143,-29.5 143,-48.5"/>
<text text-anchor="middle" x="71.5" y="-36.5" font-family="Helvetica,sans-Serif" font-size="10.00">sgns::runtime::WasmProvider</text>
</a>
</g>
</g>
<!-- Node1 -->
<g id="node2" class="node">
<title>Node1</title>
<g id="a_node2"><a xlink:href="classsgns_1_1runtime_1_1_const_wasm_provider.html" target="_top" xlink:title=" ">
<polygon fill="white" stroke="#666666" points="315,-78 183,-78 183,-48 315,-48 315,-78"/>
<text text-anchor="start" x="191" y="-66" font-family="Helvetica,sans-Serif" font-size="10.00">sgns::runtime::ConstWasm</text>
<text text-anchor="middle" x="249" y="-55" font-family="Helvetica,sans-Serif" font-size="10.00">Provider</text>
</a>
</g>
</g>
<!-- Node0&#45;&gt;Node1 -->
<g id="edge1" class="edge">
<title>Node0&#45;&gt;Node1</title>
<path fill="none" stroke="#63b8ff" d="M154.7,-50.24C164.03,-51.52 173.45,-52.81 182.53,-54.05"/>
<polygon fill="#63b8ff" stroke="#63b8ff" points="155.26,-46.78 144.88,-48.9 154.31,-53.72 155.26,-46.78"/>
</g>
<!-- Node2 -->
<g id="node3" class="node">
<title>Node2</title>
<g id="a_node3"><a xlink:href="classsgns_1_1runtime_1_1_storage_wasm_provider.html" target="_top" xlink:title=" ">
<polygon fill="white" stroke="#666666" points="319,-30 179,-30 179,0 319,0 319,-30"/>
<text text-anchor="start" x="187" y="-18" font-family="Helvetica,sans-Serif" font-size="10.00">sgns::runtime::StorageWasm</text>
<text text-anchor="middle" x="249" y="-7" font-family="Helvetica,sans-Serif" font-size="10.00">Provider</text>
</a>
</g>
</g>
<!-- Node0&#45;&gt;Node2 -->
<g id="edge2" class="edge">
<title>Node0&#45;&gt;Node2</title>
<path fill="none" stroke="#63b8ff" d="M154.63,-27.77C162.63,-26.67 170.7,-25.57 178.57,-24.49"/>
<polygon fill="#63b8ff" stroke="#63b8ff" points="154.31,-24.28 144.88,-29.1 155.26,-31.22 154.31,-24.28"/>
</g>
</g>
</svg>
