<?xml version="1.0" encoding="UTF-8" standalone="no"?>
<!DOCTYPE svg PUBLIC "-//W3C//DTD SVG 1.1//EN"
 "http://www.w3.org/Graphics/SVG/1.1/DTD/svg11.dtd">
<!-- Generated by graphviz version 7.0.5 (20221223.1930)
 -->
<!-- Title: Graphical Class Hierarchy Pages: 1 -->
<svg width="275pt" height="402pt"
 viewBox="0.00 0.00 275.00 401.50" xmlns="http://www.w3.org/2000/svg" xmlns:xlink="http://www.w3.org/1999/xlink">
<g id="graph0" class="graph" transform="scale(1 1) rotate(0) translate(4 397.5)">
<title>Graphical Class Hierarchy</title>
<!-- Node0 -->
<g id="node1" class="node">
<title>Node0</title>
<g id="a_node1"><a xlink:title=" ">
<polygon fill="#e0e0e0" stroke="#999999" points="78,-201 0,-201 0,-182 78,-182 78,-201"/>
<text text-anchor="middle" x="39" y="-189" font-family="Helvetica,sans-Serif" font-size="10.00">std::array&lt; T &gt;</text>
</a>
</g>
</g>
<!-- Node1 -->
<g id="node2" class="node">
<title>Node1</title>
<g id="a_node2"><a xlink:href="classsgns_1_1base_1_1_blob.html" target="_top" xlink:title=" ">
<polygon fill="white" stroke="#666666" points="260.5,-393.5 120.5,-393.5 120.5,-363.5 260.5,-363.5 260.5,-393.5"/>
<text text-anchor="start" x="128.5" y="-381.5" font-family="Helvetica,sans-Serif" font-size="10.00">sgns::base::Blob&lt; constants</text>
<text text-anchor="middle" x="190.5" y="-370.5" font-family="Helvetica,sans-Serif" font-size="10.00">::ed25519::PRIVKEY_SIZE &gt;</text>
</a>
</g>
</g>
<!-- Node0&#45;&gt;Node1 -->
<g id="edge1" class="edge">
<title>Node0&#45;&gt;Node1</title>
<path fill="none" stroke="#63b8ff" d="M43.76,-212.21C51.08,-246.7 70.54,-315.9 114,-354.5 117.7,-357.79 121.86,-360.63 126.26,-363.08"/>
<polygon fill="#63b8ff" stroke="#63b8ff" points="47.25,-211.82 41.88,-202.68 40.38,-213.17 47.25,-211.82"/>
</g>
<!-- Node2 -->
<g id="node3" class="node">
<title>Node2</title>
<g id="a_node3"><a xlink:href="classsgns_1_1base_1_1_blob.html" target="_top" xlink:title=" ">
<polygon fill="white" stroke="#666666" points="259.5,-345.5 121.5,-345.5 121.5,-315.5 259.5,-315.5 259.5,-345.5"/>
<text text-anchor="start" x="129.5" y="-333.5" font-family="Helvetica,sans-Serif" font-size="10.00">sgns::base::Blob&lt; constants</text>
<text text-anchor="middle" x="190.5" y="-322.5" font-family="Helvetica,sans-Serif" font-size="10.00">::ed25519::PUBKEY_SIZE &gt;</text>
</a>
</g>
</g>
<!-- Node0&#45;&gt;Node2 -->
<g id="edge2" class="edge">
<title>Node0&#45;&gt;Node2</title>
<path fill="none" stroke="#63b8ff" d="M47.92,-211.86C58.95,-237.57 81.3,-281.47 114,-306.5 118.26,-309.76 122.97,-312.58 127.9,-315.03"/>
<polygon fill="#63b8ff" stroke="#63b8ff" points="51.27,-210.78 44.24,-202.86 44.79,-213.44 51.27,-210.78"/>
</g>
<!-- Node3 -->
<g id="node4" class="node">
<title>Node3</title>
<g id="a_node4"><a xlink:href="classsgns_1_1base_1_1_blob.html" target="_top" xlink:title=" ">
<polygon fill="white" stroke="#666666" points="259.5,-297.5 121.5,-297.5 121.5,-267.5 259.5,-267.5 259.5,-297.5"/>
<text text-anchor="start" x="129.5" y="-285.5" font-family="Helvetica,sans-Serif" font-size="10.00">sgns::base::Blob&lt; constants</text>
<text text-anchor="middle" x="190.5" y="-274.5" font-family="Helvetica,sans-Serif" font-size="10.00">::sr25519::SECRET_SIZE &gt;</text>
</a>
</g>
</g>
<!-- Node0&#45;&gt;Node3 -->
<g id="edge3" class="edge">
<title>Node0&#45;&gt;Node3</title>
<path fill="none" stroke="#63b8ff" d="M55.76,-209.57C69.72,-224.57 91.36,-245.48 114,-258.5 119.6,-261.72 125.7,-264.57 131.91,-267.07"/>
<polygon fill="#63b8ff" stroke="#63b8ff" points="58.44,-207.31 49.14,-202.24 53.25,-212 58.44,-207.31"/>
</g>
<!-- Node4 -->
<g id="node5" class="node">
<title>Node4</title>
<g id="a_node5"><a xlink:href="classsgns_1_1base_1_1_blob.html" target="_top" xlink:title=" ">
<polygon fill="white" stroke="#666666" points="259.5,-249.5 121.5,-249.5 121.5,-219.5 259.5,-219.5 259.5,-249.5"/>
<text text-anchor="start" x="129.5" y="-237.5" font-family="Helvetica,sans-Serif" font-size="10.00">sgns::base::Blob&lt; constants</text>
<text text-anchor="middle" x="190.5" y="-226.5" font-family="Helvetica,sans-Serif" font-size="10.00">::sr25519::PUBLIC_SIZE &gt;</text>
</a>
</g>
</g>
<!-- Node0&#45;&gt;Node4 -->
<g id="edge4" class="edge">
<title>Node0&#45;&gt;Node4</title>
<path fill="none" stroke="#63b8ff" d="M85.29,-204.53C101.17,-209.1 119.17,-214.27 135.69,-219.02"/>
<polygon fill="#63b8ff" stroke="#63b8ff" points="86.71,-201.29 76.13,-201.89 84.77,-208.02 86.71,-201.29"/>
</g>
<!-- Node5 -->
<g id="node6" class="node">
<title>Node5</title>
<g id="a_node6"><a xlink:href="classsgns_1_1base_1_1_blob.html" target="_top" xlink:title=" ">
<polygon fill="white" stroke="#666666" points="247.5,-201 133.5,-201 133.5,-182 247.5,-182 247.5,-201"/>
<text text-anchor="middle" x="190.5" y="-189" font-family="Helvetica,sans-Serif" font-size="10.00">sgns::base::Blob&lt; 32 &gt;</text>
</a>
</g>
</g>
<!-- Node0&#45;&gt;Node5 -->
<g id="edge5" class="edge">
<title>Node0&#45;&gt;Node5</title>
<path fill="none" stroke="#63b8ff" d="M89.8,-191.5C103.68,-191.5 118.86,-191.5 133.09,-191.5"/>
<polygon fill="#63b8ff" stroke="#63b8ff" points="90.01,-188 80.01,-191.5 90.01,-195 90.01,-188"/>
</g>
<!-- Node6 -->
<g id="node7" class="node">
<title>Node6</title>
<g id="a_node7"><a xlink:href="classsgns_1_1base_1_1_blob.html" target="_top" xlink:title=" ">
<polygon fill="white" stroke="#666666" points="251.5,-164 129.5,-164 129.5,-123 251.5,-123 251.5,-164"/>
<text text-anchor="start" x="137.5" y="-152" font-family="Helvetica,sans-Serif" font-size="10.00">sgns::base::Blob&lt; crypto</text>
<text text-anchor="start" x="137.5" y="-141" font-family="Helvetica,sans-Serif" font-size="10.00">::constants::sr25519::vrf</text>
<text text-anchor="middle" x="190.5" y="-130" font-family="Helvetica,sans-Serif" font-size="10.00">::OUTPUT_SIZE &gt;</text>
</a>
</g>
</g>
<!-- Node0&#45;&gt;Node6 -->
<g id="edge6" class="edge">
<title>Node0&#45;&gt;Node6</title>
<path fill="none" stroke="#63b8ff" d="M81.76,-178.09C96.47,-173.37 113.32,-167.96 129.25,-162.85"/>
<polygon fill="#63b8ff" stroke="#63b8ff" points="80.87,-174.7 72.42,-181.09 83.01,-181.37 80.87,-174.7"/>
</g>
<!-- Node7 -->
<g id="node8" class="node">
<title>Node7</title>
<g id="a_node8"><a xlink:href="classsgns_1_1base_1_1_blob.html" target="_top" xlink:title=" ">
<polygon fill="white" stroke="#666666" points="245,-105 136,-105 136,-86 245,-86 245,-105"/>
<text text-anchor="middle" x="190.5" y="-93" font-family="Helvetica,sans-Serif" font-size="10.00">sgns::base::Blob&lt; 4 &gt;</text>
</a>
</g>
</g>
<!-- Node0&#45;&gt;Node7 -->
<g id="edge7" class="edge">
<title>Node0&#45;&gt;Node7</title>
<path fill="none" stroke="#63b8ff" d="M53.15,-172.68C66.48,-155.02 88.7,-129.19 114,-114.5 120.66,-110.63 128.1,-107.55 135.64,-105.08"/>
<polygon fill="#63b8ff" stroke="#63b8ff" points="50.65,-170.16 47.59,-180.3 56.31,-174.29 50.65,-170.16"/>
</g>
<!-- Node8 -->
<g id="node9" class="node">
<title>Node8</title>
<g id="a_node9"><a xlink:href="classsgns_1_1base_1_1_blob.html" target="_top" xlink:title=" ">
<polygon fill="white" stroke="#666666" points="267,-67.5 114,-67.5 114,-37.5 267,-37.5 267,-67.5"/>
<text text-anchor="start" x="122" y="-55.5" font-family="Helvetica,sans-Serif" font-size="10.00">sgns::base::Blob&lt; constants</text>
<text text-anchor="middle" x="190.5" y="-44.5" font-family="Helvetica,sans-Serif" font-size="10.00">::sr25519::SIGNATURE_SIZE &gt;</text>
</a>
</g>
</g>
<!-- Node0&#45;&gt;Node8 -->
<g id="edge8" class="edge">
<title>Node0&#45;&gt;Node8</title>
<path fill="none" stroke="#63b8ff" d="M48.02,-171.38C59.14,-145.96 81.61,-102.51 114,-77.5 118.81,-73.79 124.2,-70.61 129.82,-67.9"/>
<polygon fill="#63b8ff" stroke="#63b8ff" points="44.93,-169.69 44.3,-180.27 51.39,-172.39 44.93,-169.69"/>
</g>
<!-- Node9 -->
<g id="node10" class="node">
<title>Node9</title>
<g id="a_node10"><a xlink:href="classsgns_1_1base_1_1_blob.html" target="_top" xlink:title=" ">
<polygon fill="white" stroke="#666666" points="253.5,-19 127.5,-19 127.5,0 253.5,0 253.5,-19"/>
<text text-anchor="middle" x="190.5" y="-7" font-family="Helvetica,sans-Serif" font-size="10.00">sgns::base::Blob&lt; size_ &gt;</text>
</a>
</g>
</g>
<!-- Node0&#45;&gt;Node9 -->
<g id="edge9" class="edge">
<title>Node0&#45;&gt;Node9</title>
<path fill="none" stroke="#63b8ff" d="M43.5,-170.49C50.46,-135.57 69.38,-65.75 114,-28.5 118.46,-24.78 123.55,-21.77 128.94,-19.34"/>
<polygon fill="#63b8ff" stroke="#63b8ff" points="40.09,-169.7 41.73,-180.17 46.98,-170.96 40.09,-169.7"/>
</g>
</g>
</svg>
