<?xml version="1.0" encoding="UTF-8" standalone="no"?>
<!DOCTYPE svg PUBLIC "-//W3C//DTD SVG 1.1//EN"
 "http://www.w3.org/Graphics/SVG/1.1/DTD/svg11.dtd">
<!-- Generated by graphviz version 7.0.5 (20221223.1930)
 -->
<!-- Title: Graphical Class Hierarchy Pages: 1 -->
<svg width="237pt" height="182pt"
 viewBox="0.00 0.00 237.00 182.00" xmlns="http://www.w3.org/2000/svg" xmlns:xlink="http://www.w3.org/1999/xlink">
<g id="graph0" class="graph" transform="scale(1 1) rotate(0) translate(4 178)">
<title>Graphical Class Hierarchy</title>
<!-- Node0 -->
<g id="node1" class="node">
<title>Node0</title>
<g id="a_node1"><a xlink:title=" ">
<polygon fill="#e0e0e0" stroke="#999999" points="74,-96.5 0,-96.5 0,-77.5 74,-77.5 74,-96.5"/>
<text text-anchor="middle" x="37" y="-84.5" font-family="Helvetica,sans-Serif" font-size="10.00">std::true_type</text>
</a>
</g>
</g>
<!-- Node1 -->
<g id="node2" class="node">
<title>Node1</title>
<g id="a_node2"><a xlink:href="structsgns_1_1is__shared__ptr_3_01std_1_1shared__ptr_3_01_t_01_4_01_4.html" target="_top" xlink:title=" ">
<polygon fill="white" stroke="#666666" points="229,-174 110,-174 110,-144 229,-144 229,-174"/>
<text text-anchor="start" x="118" y="-162" font-family="Helvetica,sans-Serif" font-size="10.00">sgns::is_shared_ptr</text>
<text text-anchor="middle" x="169.5" y="-151" font-family="Helvetica,sans-Serif" font-size="10.00">&lt; std::shared_ptr&lt; T &gt; &gt;</text>
</a>
</g>
</g>
<!-- Node0&#45;&gt;Node1 -->
<g id="edge1" class="edge">
<title>Node0&#45;&gt;Node1</title>
<path fill="none" stroke="#63b8ff" d="M60.25,-103.51C74.13,-113.38 92.6,-125.75 110,-135 115.62,-137.99 121.7,-140.86 127.74,-143.5"/>
<polygon fill="#63b8ff" stroke="#63b8ff" points="62.42,-100.76 52.27,-97.74 58.32,-106.43 62.42,-100.76"/>
</g>
<!-- Node2 -->
<g id="node3" class="node">
<title>Node2</title>
<g id="a_node3"><a xlink:href="structsgns_1_1is__smart__ptr_3_01std_1_1shared__ptr_3_01_t_01_4_01_4.html" target="_top" xlink:title=" ">
<polygon fill="white" stroke="#666666" points="229,-126 110,-126 110,-96 229,-96 229,-126"/>
<text text-anchor="start" x="118" y="-114" font-family="Helvetica,sans-Serif" font-size="10.00">sgns::is_smart_ptr</text>
<text text-anchor="middle" x="169.5" y="-103" font-family="Helvetica,sans-Serif" font-size="10.00">&lt; std::shared_ptr&lt; T &gt; &gt;</text>
</a>
</g>
</g>
<!-- Node0&#45;&gt;Node2 -->
<g id="edge2" class="edge">
<title>Node0&#45;&gt;Node2</title>
<path fill="none" stroke="#63b8ff" d="M85.58,-95.75C93.46,-97.2 101.71,-98.72 109.83,-100.21"/>
<polygon fill="#63b8ff" stroke="#63b8ff" points="86.31,-92.33 75.84,-93.96 85.04,-99.21 86.31,-92.33"/>
</g>
<!-- Node3 -->
<g id="node4" class="node">
<title>Node3</title>
<g id="a_node4"><a xlink:href="structsgns_1_1is__smart__ptr_3_01std_1_1unique__ptr_3_01_t_01_4_01_4.html" target="_top" xlink:title=" ">
<polygon fill="white" stroke="#666666" points="229,-78 110,-78 110,-48 229,-48 229,-78"/>
<text text-anchor="start" x="118" y="-66" font-family="Helvetica,sans-Serif" font-size="10.00">sgns::is_smart_ptr</text>
<text text-anchor="middle" x="169.5" y="-55" font-family="Helvetica,sans-Serif" font-size="10.00">&lt; std::unique_ptr&lt; T &gt; &gt;</text>
</a>
</g>
</g>
<!-- Node0&#45;&gt;Node3 -->
<g id="edge3" class="edge">
<title>Node0&#45;&gt;Node3</title>
<path fill="none" stroke="#63b8ff" d="M85.58,-78.25C93.46,-76.8 101.71,-75.28 109.83,-73.79"/>
<polygon fill="#63b8ff" stroke="#63b8ff" points="85.04,-74.79 75.84,-80.04 86.31,-81.67 85.04,-74.79"/>
</g>
<!-- Node4 -->
<g id="node5" class="node">
<title>Node4</title>
<g id="a_node5"><a xlink:href="structsgns_1_1is__unique__ptr_3_01std_1_1unique__ptr_3_01_t_01_4_01_4.html" target="_top" xlink:title=" ">
<polygon fill="white" stroke="#666666" points="229,-30 110,-30 110,0 229,0 229,-30"/>
<text text-anchor="start" x="118" y="-18" font-family="Helvetica,sans-Serif" font-size="10.00">sgns::is_unique_ptr</text>
<text text-anchor="middle" x="169.5" y="-7" font-family="Helvetica,sans-Serif" font-size="10.00">&lt; std::unique_ptr&lt; T &gt; &gt;</text>
</a>
</g>
</g>
<!-- Node0&#45;&gt;Node4 -->
<g id="edge4" class="edge">
<title>Node0&#45;&gt;Node4</title>
<path fill="none" stroke="#63b8ff" d="M60.25,-70.49C74.13,-60.62 92.6,-48.25 110,-39 115.62,-36.01 121.7,-33.14 127.74,-30.5"/>
<polygon fill="#63b8ff" stroke="#63b8ff" points="58.32,-67.57 52.27,-76.26 62.42,-73.24 58.32,-67.57"/>
</g>
</g>
</svg>
