<?xml version="1.0" encoding="UTF-8" standalone="no"?>
<!DOCTYPE svg PUBLIC "-//W3C//DTD SVG 1.1//EN"
 "http://www.w3.org/Graphics/SVG/1.1/DTD/svg11.dtd">
<!-- Generated by graphviz version 7.0.5 (20221223.1930)
 -->
<!-- Title: Graphical Class Hierarchy Pages: 1 -->
<svg width="246pt" height="101pt"
 viewBox="0.00 0.00 246.00 101.00" xmlns="http://www.w3.org/2000/svg" xmlns:xlink="http://www.w3.org/1999/xlink">
<g id="graph0" class="graph" transform="scale(1 1) rotate(0) translate(4 97)">
<title>Graphical Class Hierarchy</title>
<!-- Node0 -->
<g id="node1" class="node">
<title>Node0</title>
<g id="a_node1"><a xlink:title=" ">
<polygon fill="#e0e0e0" stroke="#999999" points="79,-56 0,-56 0,-37 79,-37 79,-56"/>
<text text-anchor="middle" x="39.5" y="-44" font-family="Helvetica,sans-Serif" font-size="10.00">std::false_type</text>
</a>
</g>
</g>
<!-- Node1 -->
<g id="node2" class="node">
<title>Node1</title>
<g id="a_node2"><a xlink:href="structsgns_1_1is__shared__ptr.html" target="_top" xlink:title=" ">
<polygon fill="white" stroke="#666666" points="238,-93 115,-93 115,-74 238,-74 238,-93"/>
<text text-anchor="middle" x="176.5" y="-81" font-family="Helvetica,sans-Serif" font-size="10.00">sgns::is_shared_ptr&lt; T &gt;</text>
</a>
</g>
</g>
<!-- Node0&#45;&gt;Node1 -->
<g id="edge1" class="edge">
<title>Node0&#45;&gt;Node1</title>
<path fill="none" stroke="#63b8ff" d="M87.5,-59.38C104.45,-64.03 123.32,-69.2 139.22,-73.56"/>
<polygon fill="#63b8ff" stroke="#63b8ff" points="88.71,-56.08 78.14,-56.82 86.86,-62.83 88.71,-56.08"/>
</g>
<!-- Node2 -->
<g id="node3" class="node">
<title>Node2</title>
<g id="a_node3"><a xlink:href="structsgns_1_1is__smart__ptr.html" target="_top" xlink:title=" ">
<polygon fill="white" stroke="#666666" points="236,-56 117,-56 117,-37 236,-37 236,-56"/>
<text text-anchor="middle" x="176.5" y="-44" font-family="Helvetica,sans-Serif" font-size="10.00">sgns::is_smart_ptr&lt; T &gt;</text>
</a>
</g>
</g>
<!-- Node0&#45;&gt;Node2 -->
<g id="edge2" class="edge">
<title>Node0&#45;&gt;Node2</title>
<path fill="none" stroke="#63b8ff" d="M90.5,-46.5C99.02,-46.5 107.94,-46.5 116.67,-46.5"/>
<polygon fill="#63b8ff" stroke="#63b8ff" points="90.7,-43 80.7,-46.5 90.7,-50 90.7,-43"/>
</g>
<!-- Node3 -->
<g id="node4" class="node">
<title>Node3</title>
<g id="a_node4"><a xlink:href="structsgns_1_1is__unique__ptr.html" target="_top" xlink:title=" ">
<polygon fill="white" stroke="#666666" points="237.5,-19 115.5,-19 115.5,0 237.5,0 237.5,-19"/>
<text text-anchor="middle" x="176.5" y="-7" font-family="Helvetica,sans-Serif" font-size="10.00">sgns::is_unique_ptr&lt; T &gt;</text>
</a>
</g>
</g>
<!-- Node0&#45;&gt;Node3 -->
<g id="edge3" class="edge">
<title>Node0&#45;&gt;Node3</title>
<path fill="none" stroke="#63b8ff" d="M87.5,-33.62C104.45,-28.97 123.32,-23.8 139.22,-19.44"/>
<polygon fill="#63b8ff" stroke="#63b8ff" points="86.86,-30.17 78.14,-36.18 88.71,-36.92 86.86,-30.17"/>
</g>
</g>
</svg>
