<?xml version="1.0" encoding="UTF-8" standalone="no"?>
<!DOCTYPE svg PUBLIC "-//W3C//DTD SVG 1.1//EN"
 "http://www.w3.org/Graphics/SVG/1.1/DTD/svg11.dtd">
<!-- Generated by graphviz version 7.0.5 (20221223.1930)
 -->
<!-- Title: src/extensions/impl/io_extension.cpp Pages: 1 -->
<!--zoomable 335 -->
<svg id="main" version="1.1" xmlns="http://www.w3.org/2000/svg" xmlns:xlink="http://www.w3.org/1999/xlink" xml:space="preserve" onload="init(evt)">
<style type="text/css"><![CDATA[
.edge:hover path { stroke: red; }
.edge:hover polygon { stroke: red; fill: red; }
]]></style>
<script type="text/javascript"><![CDATA[
var edges = document.getElementsByTagName('g');
if (edges && edges.length) {
  for (var i=0;i<edges.length;i++) {
    if (edges[i].id.substr(0,4)=='edge') {
      edges[i].setAttribute('class','edge');
    }
  }
}
]]></script>
        <defs>
                <circle id="rim" cx="0" cy="0" r="7"/>
                <circle id="rim2" cx="0" cy="0" r="3.5"/>
                <g id="zoomPlus">
                        <use xlink:href="#rim" fill="#404040">
                                <set attributeName="fill" to="#808080" begin="zoomplus.mouseover" end="zoomplus.mouseout"/>
                        </use>
                        <path d="M-4,0h8M0,-4v8" fill="none" stroke="white" stroke-width="1.5" pointer-events="none"/>
                </g>
                <g id="zoomMin">
                        <use xlink:href="#rim" fill="#404040">
                                <set attributeName="fill" to="#808080" begin="zoomminus.mouseover" end="zoomminus.mouseout"/>
                        </use>
                        <path d="M-4,0h8" fill="none" stroke="white" stroke-width="1.5" pointer-events="none"/>
                </g>
                <g id="dirArrow">
                        <path fill="none" stroke="white" stroke-width="1.5" d="M0,-3.0v7 M-2.5,-0.5L0,-3.0L2.5,-0.5"/>
                </g>
               <g id="resetDef">
                       <use xlink:href="#rim2" fill="#404040">
                               <set attributeName="fill" to="#808080" begin="reset.mouseover" end="reset.mouseout"/>
                       </use>
               </g>
        </defs>

<script type="text/javascript">
var viewWidth = 722;
var viewHeight = 335;
var sectionId = 'dynsection-0';
</script>
<script xlink:href="svgpan.js"/>
<svg id="graph" class="graph">
<g id="viewport">
<title>src/extensions/impl/io_extension.cpp</title>
<!-- Node1 -->
<g id="node1" class="node">
<title>Node1</title>
<g id="a_node1"><a xlink:title=" ">
<polygon fill="#999999" stroke="#666666" points="266.5,-327 165.5,-327 165.5,-297 266.5,-297 266.5,-327"/>
<text text-anchor="start" x="173.5" y="-315" font-family="Helvetica,sans-Serif" font-size="10.00">src/extensions/impl</text>
<text text-anchor="middle" x="216" y="-304" font-family="Helvetica,sans-Serif" font-size="10.00">/io_extension.cpp</text>
</a>
</g>
</g>
<!-- Node2 -->
<g id="node2" class="node">
<title>Node2</title>
<g id="a_node2"><a xlink:href="io__extension_8hpp.html" target="_top" xlink:title=" ">
<polygon fill="white" stroke="#666666" points="199.5,-261 104.5,-261 104.5,-231 199.5,-231 199.5,-261"/>
<text text-anchor="start" x="112.5" y="-249" font-family="Helvetica,sans-Serif" font-size="10.00">extensions/impl/io</text>
<text text-anchor="middle" x="152" y="-238" font-family="Helvetica,sans-Serif" font-size="10.00">_extension.hpp</text>
</a>
</g>
</g>
<!-- Node1&#45;&gt;Node2 -->
<g id="edge1" class="edge">
<title>Node1&#45;&gt;Node2</title>
<path fill="none" stroke="#63b8ff" d="M201.8,-296.8C193.68,-288.68 183.31,-278.31 174.15,-269.15"/>
<polygon fill="#63b8ff" stroke="#63b8ff" points="176.78,-266.83 167.23,-262.23 171.83,-271.78 176.78,-266.83"/>
</g>
<!-- Node20 -->
<g id="node20" class="node">
<title>Node20</title>
<g id="a_node20"><a xlink:href="wasm__result_8hpp.html" target="_top" xlink:title=" ">
<polygon fill="white" stroke="#666666" points="342.5,-255.5 217.5,-255.5 217.5,-236.5 342.5,-236.5 342.5,-255.5"/>
<text text-anchor="middle" x="280" y="-243.5" font-family="Helvetica,sans-Serif" font-size="10.00">runtime/wasm_result.hpp</text>
</a>
</g>
</g>
<!-- Node1&#45;&gt;Node20 -->
<g id="edge21" class="edge">
<title>Node1&#45;&gt;Node20</title>
<path fill="none" stroke="#63b8ff" d="M230.2,-296.8C239.99,-287.01 253.02,-273.98 263.3,-263.7"/>
<polygon fill="#63b8ff" stroke="#63b8ff" points="265.49,-266.46 270.09,-256.91 260.54,-261.51 265.49,-266.46"/>
</g>
<!-- Node3 -->
<g id="node3" class="node">
<title>Node3</title>
<g id="a_node3"><a xlink:title=" ">
<polygon fill="#e0e0e0" stroke="#999999" points="46,-79.5 0,-79.5 0,-60.5 46,-60.5 46,-79.5"/>
<text text-anchor="middle" x="23" y="-67.5" font-family="Helvetica,sans-Serif" font-size="10.00">cstdint</text>
</a>
</g>
</g>
<!-- Node2&#45;&gt;Node3 -->
<g id="edge2" class="edge">
<title>Node2&#45;&gt;Node3</title>
<path fill="none" stroke="#63b8ff" d="M118.84,-230.53C85.64,-214.02 36.48,-183.53 15,-140 7.33,-124.45 10.79,-104.61 15.31,-90.2"/>
<polygon fill="#63b8ff" stroke="#63b8ff" points="18.52,-91.6 18.62,-81.01 11.94,-89.23 18.52,-91.6"/>
</g>
<!-- Node4 -->
<g id="node4" class="node">
<title>Node4</title>
<g id="a_node4"><a xlink:href="logger_8hpp.html" target="_top" xlink:title=" ">
<polygon fill="white" stroke="#666666" points="194.5,-195 109.5,-195 109.5,-176 194.5,-176 194.5,-195"/>
<text text-anchor="middle" x="152" y="-183" font-family="Helvetica,sans-Serif" font-size="10.00">base/logger.hpp</text>
</a>
</g>
</g>
<!-- Node2&#45;&gt;Node4 -->
<g id="edge3" class="edge">
<title>Node2&#45;&gt;Node4</title>
<path fill="none" stroke="#63b8ff" d="M152,-230.54C152,-223.34 152,-214.53 152,-206.68"/>
<polygon fill="#63b8ff" stroke="#63b8ff" points="155.5,-206.69 152,-196.69 148.5,-206.69 155.5,-206.69"/>
</g>
<!-- Node7 -->
<g id="node7" class="node">
<title>Node7</title>
<g id="a_node7"><a xlink:href="wasm__memory_8hpp.html" target="_top" xlink:title=" ">
<polygon fill="white" stroke="#666666" points="493,-195 357,-195 357,-176 493,-176 493,-195"/>
<text text-anchor="middle" x="425" y="-183" font-family="Helvetica,sans-Serif" font-size="10.00">runtime/wasm_memory.hpp</text>
</a>
</g>
</g>
<!-- Node2&#45;&gt;Node7 -->
<g id="edge6" class="edge">
<title>Node2&#45;&gt;Node7</title>
<path fill="none" stroke="#63b8ff" d="M199.86,-233.11C202.95,-232.38 206.02,-231.67 209,-231 262.65,-218.89 324.11,-206.36 367.72,-197.69"/>
<polygon fill="#63b8ff" stroke="#63b8ff" points="368.35,-201.13 377.48,-195.76 366.99,-194.27 368.35,-201.13"/>
</g>
<!-- Node5 -->
<g id="node5" class="node">
<title>Node5</title>
<g id="a_node5"><a xlink:title=" ">
<polygon fill="#e0e0e0" stroke="#999999" points="215.5,-140 126.5,-140 126.5,-121 215.5,-121 215.5,-140"/>
<text text-anchor="middle" x="171" y="-128" font-family="Helvetica,sans-Serif" font-size="10.00">spdlog/fmt/ostr.h</text>
</a>
</g>
</g>
<!-- Node4&#45;&gt;Node5 -->
<g id="edge4" class="edge">
<title>Node4&#45;&gt;Node5</title>
<path fill="none" stroke="#63b8ff" d="M155.14,-175.75C157.54,-169.04 160.96,-159.52 164,-151.02"/>
<polygon fill="#63b8ff" stroke="#63b8ff" points="167.2,-152.46 167.28,-141.87 160.61,-150.1 167.2,-152.46"/>
</g>
<!-- Node6 -->
<g id="node6" class="node">
<title>Node6</title>
<g id="a_node6"><a xlink:title=" ">
<polygon fill="#e0e0e0" stroke="#999999" points="108,-140 24,-140 24,-121 108,-121 108,-140"/>
<text text-anchor="middle" x="66" y="-128" font-family="Helvetica,sans-Serif" font-size="10.00">spdlog/spdlog.h</text>
</a>
</g>
</g>
<!-- Node4&#45;&gt;Node6 -->
<g id="edge5" class="edge">
<title>Node4&#45;&gt;Node6</title>
<path fill="none" stroke="#63b8ff" d="M137.41,-175.51C124.48,-167.54 105.36,-155.75 90.15,-146.38"/>
<polygon fill="#63b8ff" stroke="#63b8ff" points="92.01,-143.42 81.66,-141.15 88.34,-149.38 92.01,-143.42"/>
</g>
<!-- Node8 -->
<g id="node8" class="node">
<title>Node8</title>
<g id="a_node8"><a xlink:title=" ">
<polygon fill="#e0e0e0" stroke="#999999" points="484,-140 446,-140 446,-121 484,-121 484,-140"/>
<text text-anchor="middle" x="465" y="-128" font-family="Helvetica,sans-Serif" font-size="10.00">array</text>
</a>
</g>
</g>
<!-- Node7&#45;&gt;Node8 -->
<g id="edge7" class="edge">
<title>Node7&#45;&gt;Node8</title>
<path fill="none" stroke="#63b8ff" d="M431.61,-175.75C436.96,-168.66 444.68,-158.42 451.35,-149.59"/>
<polygon fill="#63b8ff" stroke="#63b8ff" points="454.11,-151.74 457.34,-141.65 448.52,-147.52 454.11,-151.74"/>
</g>
<!-- Node9 -->
<g id="node9" class="node">
<title>Node9</title>
<g id="a_node9"><a xlink:title=" ">
<polygon fill="#e0e0e0" stroke="#999999" points="597.5,-140 502.5,-140 502.5,-121 597.5,-121 597.5,-140"/>
<text text-anchor="middle" x="550" y="-128" font-family="Helvetica,sans-Serif" font-size="10.00">boost/optional.hpp</text>
</a>
</g>
</g>
<!-- Node7&#45;&gt;Node9 -->
<g id="edge8" class="edge">
<title>Node7&#45;&gt;Node9</title>
<path fill="none" stroke="#63b8ff" d="M446.2,-175.51C466.08,-167.08 496.03,-154.38 518.66,-144.79"/>
<polygon fill="#63b8ff" stroke="#63b8ff" points="519.87,-148.07 527.72,-140.95 517.14,-141.63 519.87,-148.07"/>
</g>
<!-- Node10 -->
<g id="node10" class="node">
<title>Node10</title>
<g id="a_node10"><a xlink:title=" ">
<polygon fill="#e0e0e0" stroke="#999999" points="713.5,-79.5 660.5,-79.5 660.5,-60.5 713.5,-60.5 713.5,-79.5"/>
<text text-anchor="middle" x="687" y="-67.5" font-family="Helvetica,sans-Serif" font-size="10.00">gsl/span</text>
</a>
</g>
</g>
<!-- Node7&#45;&gt;Node10 -->
<g id="edge9" class="edge">
<title>Node7&#45;&gt;Node10</title>
<path fill="none" stroke="#63b8ff" d="M493.4,-175.63C528.73,-169.13 571.72,-158.18 607,-140 632.62,-126.8 656.94,-103.8 671.89,-88.01"/>
<polygon fill="#63b8ff" stroke="#63b8ff" points="674.34,-90.52 678.53,-80.79 669.18,-85.78 674.34,-90.52"/>
</g>
<!-- Node11 -->
<g id="node11" class="node">
<title>Node11</title>
<g id="a_node11"><a xlink:href="buffer_8hpp.html" target="_top" xlink:title=" ">
<polygon fill="white" stroke="#666666" points="427.5,-140 344.5,-140 344.5,-121 427.5,-121 427.5,-140"/>
<text text-anchor="middle" x="386" y="-128" font-family="Helvetica,sans-Serif" font-size="10.00">base/buffer.hpp</text>
</a>
</g>
</g>
<!-- Node7&#45;&gt;Node11 -->
<g id="edge10" class="edge">
<title>Node7&#45;&gt;Node11</title>
<path fill="none" stroke="#63b8ff" d="M418.56,-175.75C413.34,-168.66 405.81,-158.42 399.31,-149.59"/>
<polygon fill="#63b8ff" stroke="#63b8ff" points="402.22,-147.64 393.48,-141.66 396.58,-151.79 402.22,-147.64"/>
</g>
<!-- Node18 -->
<g id="node18" class="node">
<title>Node18</title>
<g id="a_node18"><a xlink:href="runtime_2types_8hpp.html" target="_top" xlink:title=" ">
<polygon fill="white" stroke="#666666" points="326.5,-140 233.5,-140 233.5,-121 326.5,-121 326.5,-140"/>
<text text-anchor="middle" x="280" y="-128" font-family="Helvetica,sans-Serif" font-size="10.00">runtime/types.hpp</text>
</a>
</g>
</g>
<!-- Node7&#45;&gt;Node18 -->
<g id="edge18" class="edge">
<title>Node7&#45;&gt;Node18</title>
<path fill="none" stroke="#63b8ff" d="M400.4,-175.51C376.93,-166.93 341.33,-153.92 314.93,-144.27"/>
<polygon fill="#63b8ff" stroke="#63b8ff" points="316.25,-141.02 305.66,-140.88 313.85,-147.6 316.25,-141.02"/>
</g>
<!-- Node11&#45;&gt;Node10 -->
<g id="edge15" class="edge">
<title>Node11&#45;&gt;Node10</title>
<path fill="none" stroke="#63b8ff" d="M427.77,-122.54C501.74,-110.21 648.31,-85.74 651,-85 652.58,-84.57 654.18,-84.09 655.79,-83.58"/>
<polygon fill="#63b8ff" stroke="#63b8ff" points="656.6,-87 664.88,-80.38 654.28,-80.4 656.6,-87"/>
</g>
<!-- Node12 -->
<g id="node12" class="node">
<title>Node12</title>
<g id="a_node12"><a xlink:title=" ">
<polygon fill="#e0e0e0" stroke="#999999" points="332,-79.5 266,-79.5 266,-60.5 332,-60.5 332,-79.5"/>
<text text-anchor="middle" x="299" y="-67.5" font-family="Helvetica,sans-Serif" font-size="10.00">string_view</text>
</a>
</g>
</g>
<!-- Node11&#45;&gt;Node12 -->
<g id="edge11" class="edge">
<title>Node11&#45;&gt;Node12</title>
<path fill="none" stroke="#63b8ff" d="M372.79,-120.62C359.25,-111.51 337.93,-97.18 321.68,-86.25"/>
<polygon fill="#63b8ff" stroke="#63b8ff" points="323.85,-83.49 313.59,-80.81 319.94,-89.3 323.85,-83.49"/>
</g>
<!-- Node13 -->
<g id="node13" class="node">
<title>Node13</title>
<g id="a_node13"><a xlink:title=" ">
<polygon fill="#e0e0e0" stroke="#999999" points="394,-79.5 350,-79.5 350,-60.5 394,-60.5 394,-79.5"/>
<text text-anchor="middle" x="372" y="-67.5" font-family="Helvetica,sans-Serif" font-size="10.00">vector</text>
</a>
</g>
</g>
<!-- Node11&#45;&gt;Node13 -->
<g id="edge12" class="edge">
<title>Node11&#45;&gt;Node13</title>
<path fill="none" stroke="#63b8ff" d="M383.93,-120.87C382.03,-112.92 379.14,-100.83 376.68,-90.55"/>
<polygon fill="#63b8ff" stroke="#63b8ff" points="380.16,-90.05 374.43,-81.14 373.35,-91.68 380.16,-90.05"/>
</g>
<!-- Node14 -->
<g id="node14" class="node">
<title>Node14</title>
<g id="a_node14"><a xlink:title=" ">
<polygon fill="#e0e0e0" stroke="#999999" points="522,-85 412,-85 412,-55 522,-55 522,-85"/>
<text text-anchor="start" x="420" y="-73" font-family="Helvetica,sans-Serif" font-size="10.00">boost/container_hash</text>
<text text-anchor="middle" x="467" y="-62" font-family="Helvetica,sans-Serif" font-size="10.00">/hash.hpp</text>
</a>
</g>
</g>
<!-- Node11&#45;&gt;Node14 -->
<g id="edge13" class="edge">
<title>Node11&#45;&gt;Node14</title>
<path fill="none" stroke="#63b8ff" d="M398.3,-120.62C408.8,-113.03 424.32,-101.82 437.95,-91.98"/>
<polygon fill="#63b8ff" stroke="#63b8ff" points="439.72,-95.02 445.78,-86.33 435.62,-89.34 439.72,-95.02"/>
</g>
<!-- Node15 -->
<g id="node15" class="node">
<title>Node15</title>
<g id="a_node15"><a xlink:title=" ">
<polygon fill="#e0e0e0" stroke="#999999" points="642,-79.5 540,-79.5 540,-60.5 642,-60.5 642,-79.5"/>
<text text-anchor="middle" x="591" y="-67.5" font-family="Helvetica,sans-Serif" font-size="10.00">boost/operators.hpp</text>
</a>
</g>
</g>
<!-- Node11&#45;&gt;Node15 -->
<g id="edge14" class="edge">
<title>Node11&#45;&gt;Node15</title>
<path fill="none" stroke="#63b8ff" d="M417.14,-120.62C452.2,-110.61 509.4,-94.29 548.55,-83.12"/>
<polygon fill="#63b8ff" stroke="#63b8ff" points="549.46,-86.49 558.12,-80.38 547.54,-79.76 549.46,-86.49"/>
</g>
<!-- Node16 -->
<g id="node16" class="node">
<title>Node16</title>
<g id="a_node16"><a xlink:href="outcome_8hpp.html" target="_top" xlink:title=" ">
<polygon fill="white" stroke="#666666" points="247.5,-79.5 134.5,-79.5 134.5,-60.5 247.5,-60.5 247.5,-79.5"/>
<text text-anchor="middle" x="191" y="-67.5" font-family="Helvetica,sans-Serif" font-size="10.00">outcome/outcome.hpp</text>
</a>
</g>
</g>
<!-- Node11&#45;&gt;Node16 -->
<g id="edge16" class="edge">
<title>Node11&#45;&gt;Node16</title>
<path fill="none" stroke="#63b8ff" d="M356.38,-120.62C323.17,-110.65 269.09,-94.43 231.86,-83.26"/>
<polygon fill="#63b8ff" stroke="#63b8ff" points="232.93,-79.92 222.34,-80.4 230.92,-86.63 232.93,-79.92"/>
</g>
<!-- Node17 -->
<g id="node17" class="node">
<title>Node17</title>
<g id="a_node17"><a xlink:title=" ">
<polygon fill="#e0e0e0" stroke="#999999" points="261.5,-19 120.5,-19 120.5,0 261.5,0 261.5,-19"/>
<text text-anchor="middle" x="191" y="-7" font-family="Helvetica,sans-Serif" font-size="10.00">libp2p/outcome/outcome.hpp</text>
</a>
</g>
</g>
<!-- Node16&#45;&gt;Node17 -->
<g id="edge17" class="edge">
<title>Node16&#45;&gt;Node17</title>
<path fill="none" stroke="#63b8ff" d="M191,-60.37C191,-52.5 191,-40.6 191,-30.39"/>
<polygon fill="#63b8ff" stroke="#63b8ff" points="194.5,-30.68 191,-20.68 187.5,-30.68 194.5,-30.68"/>
</g>
<!-- Node18&#45;&gt;Node3 -->
<g id="edge19" class="edge">
<title>Node18&#45;&gt;Node3</title>
<path fill="none" stroke="#63b8ff" d="M233.21,-120.85C190.27,-112.63 125.02,-99.4 69,-85 65.16,-84.01 61.17,-82.91 57.21,-81.77"/>
<polygon fill="#63b8ff" stroke="#63b8ff" points="58.32,-78.45 47.74,-78.95 56.33,-85.16 58.32,-78.45"/>
</g>
<!-- Node19 -->
<g id="node19" class="node">
<title>Node19</title>
<g id="a_node19"><a xlink:title=" ">
<polygon fill="#e0e0e0" stroke="#999999" points="116.5,-79.5 77.5,-79.5 77.5,-60.5 116.5,-60.5 116.5,-79.5"/>
<text text-anchor="middle" x="97" y="-67.5" font-family="Helvetica,sans-Serif" font-size="10.00">utility</text>
</a>
</g>
</g>
<!-- Node18&#45;&gt;Node19 -->
<g id="edge20" class="edge">
<title>Node18&#45;&gt;Node19</title>
<path fill="none" stroke="#63b8ff" d="M242.39,-120.52C210.85,-112.55 164.86,-99.87 126,-85 125.52,-84.82 125.03,-84.63 124.54,-84.43"/>
<polygon fill="#63b8ff" stroke="#63b8ff" points="126.22,-81.35 115.66,-80.53 123.41,-87.76 126.22,-81.35"/>
</g>
<!-- Node20&#45;&gt;Node18 -->
<g id="edge22" class="edge">
<title>Node20&#45;&gt;Node18</title>
<path fill="none" stroke="#63b8ff" d="M280,-236.09C280,-218.03 280,-176.67 280,-151.71"/>
<polygon fill="#63b8ff" stroke="#63b8ff" points="283.5,-151.88 280,-141.88 276.5,-151.88 283.5,-151.88"/>
</g>
</g>
</svg>
        <g id="navigator" transform="translate(0 0)" fill="#404254">
                <rect fill="#f2f5e9" fill-opacity="0.5" stroke="#606060" stroke-width=".5" x="0" y="0" width="60" height="60"/>
                <use id="zoomplus" xlink:href="#zoomPlus" x="17" y="9" onmousedown="handleZoom(evt,'in')"/>
                <use id="zoomminus" xlink:href="#zoomMin" x="42" y="9" onmousedown="handleZoom(evt,'out')"/>
                <use id="reset" xlink:href="#resetDef" x="30" y="36" onmousedown="handleReset()"/>
                <g id="arrowUp" xlink:href="#dirArrow" transform="translate(30 24)" onmousedown="handlePan(0,-1)">
                  <use xlink:href="#rim" fill="#404040">
                        <set attributeName="fill" to="#808080" begin="arrowUp.mouseover" end="arrowUp.mouseout"/>
                  </use>
                  <path fill="none" stroke="white" stroke-width="1.5" d="M0,-3.0v7 M-2.5,-0.5L0,-3.0L2.5,-0.5"/>
                </g>
                <g id="arrowRight" xlink:href="#dirArrow" transform="rotate(90) translate(36 -43)" onmousedown="handlePan(1,0)">
                  <use xlink:href="#rim" fill="#404040">
                        <set attributeName="fill" to="#808080" begin="arrowRight.mouseover" end="arrowRight.mouseout"/>
                  </use>
                  <path fill="none" stroke="white" stroke-width="1.5" d="M0,-3.0v7 M-2.5,-0.5L0,-3.0L2.5,-0.5"/>
                </g>
                <g id="arrowDown" xlink:href="#dirArrow" transform="rotate(180) translate(-30 -48)" onmousedown="handlePan(0,1)">
                  <use xlink:href="#rim" fill="#404040">
                        <set attributeName="fill" to="#808080" begin="arrowDown.mouseover" end="arrowDown.mouseout"/>
                  </use>
                  <path fill="none" stroke="white" stroke-width="1.5" d="M0,-3.0v7 M-2.5,-0.5L0,-3.0L2.5,-0.5"/>
                </g>
                <g id="arrowLeft" xlink:href="#dirArrow" transform="rotate(270) translate(-36 17)" onmousedown="handlePan(-1,0)">
                  <use xlink:href="#rim" fill="#404040">
                        <set attributeName="fill" to="#808080" begin="arrowLeft.mouseover" end="arrowLeft.mouseout"/>
                  </use>
                  <path fill="none" stroke="white" stroke-width="1.5" d="M0,-3.0v7 M-2.5,-0.5L0,-3.0L2.5,-0.5"/>
                </g>
        </g>
        <svg viewBox="0 0 15 15" width="100%" height="30px" preserveAspectRatio="xMaxYMin meet">
         <g id="arrow_out" transform="scale(0.3 0.3)">
          <a xlink:href="io__extension_8cpp__incl_org.svg" target="_base">
           <rect id="button" ry="5" rx="5" y="6" x="6" height="38" width="38"
                fill="#f2f5e9" fill-opacity="0.5" stroke="#606060" stroke-width="1.0"/>
           <path id="arrow"
             d="M 11.500037,31.436501 C 11.940474,20.09759 22.043105,11.32322 32.158766,21.979434 L 37.068811,17.246167 C 37.068811,17.246167 37.088388,32 37.088388,32 L 22.160133,31.978069 C 22.160133,31.978069 26.997745,27.140456 26.997745,27.140456 C 18.528582,18.264221 13.291696,25.230495 11.500037,31.436501 z"
             style="fill:#404040;"/>
          </a>
         </g>
        </svg>
</svg>
