<?xml version="1.0" encoding="UTF-8" standalone="no"?>
<!DOCTYPE svg PUBLIC "-//W3C//DTD SVG 1.1//EN"
 "http://www.w3.org/Graphics/SVG/1.1/DTD/svg11.dtd">
<!-- Generated by graphviz version 7.0.5 (20221223.1930)
 -->
<!-- Title: node/ipfs_lite_store.hpp Pages: 1 -->
<svg width="407pt" height="93pt"
 viewBox="0.00 0.00 406.50 93.00" xmlns="http://www.w3.org/2000/svg" xmlns:xlink="http://www.w3.org/1999/xlink">
<g id="graph0" class="graph" transform="scale(1 1) rotate(0) translate(4 89)">
<title>node/ipfs_lite_store.hpp</title>
<!-- Node1 -->
<g id="node1" class="node">
<title>Node1</title>
<g id="a_node1"><a xlink:title=" ">
<polygon fill="#999999" stroke="#666666" points="273,-85 154,-85 154,-66 273,-66 273,-85"/>
<text text-anchor="middle" x="213.5" y="-73" font-family="Helvetica,sans-Serif" font-size="10.00">node/ipfs_lite_store.hpp</text>
</a>
</g>
</g>
<!-- Node2 -->
<g id="node2" class="node">
<title>Node2</title>
<g id="a_node2"><a xlink:title=" ">
<polygon fill="#e0e0e0" stroke="#999999" points="143,-24.5 0,-24.5 0,-5.5 143,-5.5 143,-24.5"/>
<text text-anchor="middle" x="71.5" y="-12.5" font-family="Helvetica,sans-Serif" font-size="10.00">secure/blockstore_partial.hpp</text>
</a>
</g>
</g>
<!-- Node1&#45;&gt;Node2 -->
<g id="edge1" class="edge">
<title>Node1&#45;&gt;Node2</title>
<path fill="none" stroke="#63b8ff" d="M191.93,-65.62C168.48,-55.95 130.73,-40.4 103.74,-29.28"/>
<polygon fill="#63b8ff" stroke="#63b8ff" points="105.25,-26.12 94.67,-25.55 102.58,-32.59 105.25,-26.12"/>
</g>
<!-- Node3 -->
<g id="node3" class="node">
<title>Node3</title>
<g id="a_node3"><a xlink:title=" ">
<polygon fill="#e0e0e0" stroke="#999999" points="266,-24.5 161,-24.5 161,-5.5 266,-5.5 266,-24.5"/>
<text text-anchor="middle" x="213.5" y="-12.5" font-family="Helvetica,sans-Serif" font-size="10.00">boost/filesystem.hpp</text>
</a>
</g>
</g>
<!-- Node1&#45;&gt;Node3 -->
<g id="edge2" class="edge">
<title>Node1&#45;&gt;Node3</title>
<path fill="none" stroke="#63b8ff" d="M213.5,-65.87C213.5,-58 213.5,-46.1 213.5,-35.89"/>
<polygon fill="#63b8ff" stroke="#63b8ff" points="217,-36.18 213.5,-26.18 210,-36.18 217,-36.18"/>
</g>
<!-- Node4 -->
<g id="node4" class="node">
<title>Node4</title>
<g id="a_node4"><a xlink:title=" ">
<polygon fill="#e0e0e0" stroke="#999999" points="398.5,-30 284.5,-30 284.5,0 398.5,0 398.5,-30"/>
<text text-anchor="start" x="292.5" y="-18" font-family="Helvetica,sans-Serif" font-size="10.00">ipfs_lite/ipfs/impl</text>
<text text-anchor="middle" x="341.5" y="-7" font-family="Helvetica,sans-Serif" font-size="10.00">/datastore_leveldb.hpp</text>
</a>
</g>
</g>
<!-- Node1&#45;&gt;Node4 -->
<g id="edge3" class="edge">
<title>Node1&#45;&gt;Node4</title>
<path fill="none" stroke="#63b8ff" d="M232.94,-65.62C250.57,-57.56 277.15,-45.41 299.6,-35.15"/>
<polygon fill="#63b8ff" stroke="#63b8ff" points="300.89,-38.41 308.53,-31.07 297.98,-32.04 300.89,-38.41"/>
</g>
</g>
</svg>
