<?xml version="1.0" encoding="UTF-8" standalone="no"?>
<!DOCTYPE svg PUBLIC "-//W3C//DTD SVG 1.1//EN"
 "http://www.w3.org/Graphics/SVG/1.1/DTD/svg11.dtd">
<!-- Generated by graphviz version 7.0.5 (20221223.1930)
 -->
<!-- Title: node/ipfs_lite_store.hpp Pages: 1 -->
<svg width="226pt" height="82pt"
 viewBox="0.00 0.00 225.50 82.00" xmlns="http://www.w3.org/2000/svg" xmlns:xlink="http://www.w3.org/1999/xlink">
<g id="graph0" class="graph" transform="scale(1 1) rotate(0) translate(4 78)">
<title>node/ipfs_lite_store.hpp</title>
<!-- Node1 -->
<g id="node1" class="node">
<title>Node1</title>
<g id="a_node1"><a xlink:title=" ">
<polygon fill="#999999" stroke="#666666" points="178,-74 59,-74 59,-55 178,-55 178,-74"/>
<text text-anchor="middle" x="118.5" y="-62" font-family="Helvetica,sans-Serif" font-size="10.00">node/ipfs_lite_store.hpp</text>
</a>
</g>
</g>
<!-- Node2 -->
<g id="node2" class="node">
<title>Node2</title>
<g id="a_node2"><a xlink:href="ipfs__lite__store_8cpp.html" target="_top" xlink:title=" ">
<polygon fill="white" stroke="#666666" points="119,-19 0,-19 0,0 119,0 119,-19"/>
<text text-anchor="middle" x="59.5" y="-7" font-family="Helvetica,sans-Serif" font-size="10.00">node/ipfs_lite_store.cpp</text>
</a>
</g>
</g>
<!-- Node1&#45;&gt;Node2 -->
<g id="edge1" class="edge">
<title>Node1&#45;&gt;Node2</title>
<path fill="none" stroke="#63b8ff" d="M100.23,-47.09C90.04,-37.94 77.76,-26.9 69.36,-19.36"/>
<polygon fill="#63b8ff" stroke="#63b8ff" points="97.59,-49.42 107.37,-53.5 102.27,-44.21 97.59,-49.42"/>
</g>
<!-- Node3 -->
<g id="node3" class="node">
<title>Node3</title>
<g id="a_node3"><a xlink:href="node_8cpp.html" target="_top" xlink:title=" ">
<polygon fill="white" stroke="#666666" points="217.5,-19 137.5,-19 137.5,0 217.5,0 217.5,-19"/>
<text text-anchor="middle" x="177.5" y="-7" font-family="Helvetica,sans-Serif" font-size="10.00">node/node.cpp</text>
</a>
</g>
</g>
<!-- Node1&#45;&gt;Node3 -->
<g id="edge2" class="edge">
<title>Node1&#45;&gt;Node3</title>
<path fill="none" stroke="#63b8ff" d="M136.77,-47.09C146.96,-37.94 159.24,-26.9 167.64,-19.36"/>
<polygon fill="#63b8ff" stroke="#63b8ff" points="134.73,-44.21 129.63,-53.5 139.41,-49.42 134.73,-44.21"/>
</g>
</g>
</svg>
