<?xml version="1.0" encoding="UTF-8" standalone="no"?>
<!DOCTYPE svg PUBLIC "-//W3C//DTD SVG 1.1//EN"
 "http://www.w3.org/Graphics/SVG/1.1/DTD/svg11.dtd">
<!-- Generated by graphviz version 7.0.5 (20221223.1930)
 -->
<!-- Title: src/api/jrpc/jrpc_method.hpp Pages: 1 -->
<!--zoomable 324 -->
<svg id="main" version="1.1" xmlns="http://www.w3.org/2000/svg" xmlns:xlink="http://www.w3.org/1999/xlink" xml:space="preserve" onload="init(evt)">
<style type="text/css"><![CDATA[
.edge:hover path { stroke: red; }
.edge:hover polygon { stroke: red; fill: red; }
]]></style>
<script type="text/javascript"><![CDATA[
var edges = document.getElementsByTagName('g');
if (edges && edges.length) {
  for (var i=0;i<edges.length;i++) {
    if (edges[i].id.substr(0,4)=='edge') {
      edges[i].setAttribute('class','edge');
    }
  }
}
]]></script>
        <defs>
                <circle id="rim" cx="0" cy="0" r="7"/>
                <circle id="rim2" cx="0" cy="0" r="3.5"/>
                <g id="zoomPlus">
                        <use xlink:href="#rim" fill="#404040">
                                <set attributeName="fill" to="#808080" begin="zoomplus.mouseover" end="zoomplus.mouseout"/>
                        </use>
                        <path d="M-4,0h8M0,-4v8" fill="none" stroke="white" stroke-width="1.5" pointer-events="none"/>
                </g>
                <g id="zoomMin">
                        <use xlink:href="#rim" fill="#404040">
                                <set attributeName="fill" to="#808080" begin="zoomminus.mouseover" end="zoomminus.mouseout"/>
                        </use>
                        <path d="M-4,0h8" fill="none" stroke="white" stroke-width="1.5" pointer-events="none"/>
                </g>
                <g id="dirArrow">
                        <path fill="none" stroke="white" stroke-width="1.5" d="M0,-3.0v7 M-2.5,-0.5L0,-3.0L2.5,-0.5"/>
                </g>
               <g id="resetDef">
                       <use xlink:href="#rim2" fill="#404040">
                               <set attributeName="fill" to="#808080" begin="reset.mouseover" end="reset.mouseout"/>
                       </use>
               </g>
        </defs>

<script type="text/javascript">
var viewWidth = 845;
var viewHeight = 324;
var sectionId = 'dynsection-0';
</script>
<script xlink:href="svgpan.js"/>
<svg id="graph" class="graph">
<g id="viewport">
<title>src/api/jrpc/jrpc_method.hpp</title>
<!-- Node1 -->
<g id="node1" class="node">
<title>Node1</title>
<g id="a_node1"><a xlink:title=" ">
<polygon fill="#999999" stroke="#666666" points="369,-316 230,-316 230,-297 369,-297 369,-316"/>
<text text-anchor="middle" x="299.5" y="-304" font-family="Helvetica,sans-Serif" font-size="10.00">src/api/jrpc/jrpc_method.hpp</text>
</a>
</g>
</g>
<!-- Node2 -->
<g id="node2" class="node">
<title>Node2</title>
<g id="a_node2"><a xlink:title=" ">
<polygon fill="#e0e0e0" stroke="#999999" points="125,-261 0,-261 0,-242 125,-242 125,-261"/>
<text text-anchor="middle" x="62.5" y="-249" font-family="Helvetica,sans-Serif" font-size="10.00">jsonrpc&#45;lean/dispatcher.h</text>
</a>
</g>
</g>
<!-- Node1&#45;&gt;Node2 -->
<g id="edge1" class="edge">
<title>Node1&#45;&gt;Node2</title>
<path fill="none" stroke="#63b8ff" d="M259.3,-296.51C219.17,-287.54 157.36,-273.71 113.74,-263.96"/>
<polygon fill="#63b8ff" stroke="#63b8ff" points="114.5,-260.54 103.98,-261.78 112.98,-267.37 114.5,-260.54"/>
</g>
<!-- Node3 -->
<g id="node3" class="node">
<title>Node3</title>
<g id="a_node3"><a xlink:title=" ">
<polygon fill="#e0e0e0" stroke="#999999" points="255.5,-261 143.5,-261 143.5,-242 255.5,-242 255.5,-261"/>
<text text-anchor="middle" x="199.5" y="-249" font-family="Helvetica,sans-Serif" font-size="10.00">jsonrpc&#45;lean/request.h</text>
</a>
</g>
</g>
<!-- Node1&#45;&gt;Node3 -->
<g id="edge2" class="edge">
<title>Node1&#45;&gt;Node3</title>
<path fill="none" stroke="#63b8ff" d="M282.54,-296.51C267.14,-288.35 244.19,-276.19 226.31,-266.71"/>
<polygon fill="#63b8ff" stroke="#63b8ff" points="228.03,-263.66 217.55,-262.07 224.75,-269.84 228.03,-263.66"/>
</g>
<!-- Node4 -->
<g id="node4" class="node">
<title>Node4</title>
<g id="a_node4"><a xlink:title=" ">
<polygon fill="#e0e0e0" stroke="#999999" points="325,-261 274,-261 274,-242 325,-242 325,-261"/>
<text text-anchor="middle" x="299.5" y="-249" font-family="Helvetica,sans-Serif" font-size="10.00">memory</text>
</a>
</g>
</g>
<!-- Node1&#45;&gt;Node4 -->
<g id="edge3" class="edge">
<title>Node1&#45;&gt;Node4</title>
<path fill="none" stroke="#63b8ff" d="M299.5,-296.75C299.5,-290.27 299.5,-281.16 299.5,-272.9"/>
<polygon fill="#63b8ff" stroke="#63b8ff" points="303,-272.96 299.5,-262.96 296,-272.96 303,-272.96"/>
</g>
<!-- Node5 -->
<g id="node5" class="node">
<title>Node5</title>
<g id="a_node5"><a xlink:title=" ">
<polygon fill="#e0e0e0" stroke="#999999" points="836.5,-145.5 774.5,-145.5 774.5,-126.5 836.5,-126.5 836.5,-145.5"/>
<text text-anchor="middle" x="805.5" y="-133.5" font-family="Helvetica,sans-Serif" font-size="10.00">type_traits</text>
</a>
</g>
</g>
<!-- Node1&#45;&gt;Node5 -->
<g id="edge4" class="edge">
<title>Node1&#45;&gt;Node5</title>
<path fill="none" stroke="#63b8ff" d="M369.32,-303.87C462.32,-298.77 628.98,-279.15 748.5,-206 768.74,-193.61 785.12,-171.44 795.04,-155.57"/>
<polygon fill="#63b8ff" stroke="#63b8ff" points="797.98,-157.48 800.07,-147.09 791.96,-153.91 797.98,-157.48"/>
</g>
<!-- Node6 -->
<g id="node6" class="node">
<title>Node6</title>
<g id="a_node6"><a xlink:href="value__converter_8hpp.html" target="_top" xlink:title=" ">
<polygon fill="white" stroke="#666666" points="481.5,-261 343.5,-261 343.5,-242 481.5,-242 481.5,-261"/>
<text text-anchor="middle" x="412.5" y="-249" font-family="Helvetica,sans-Serif" font-size="10.00">api/jrpc/value_converter.hpp</text>
</a>
</g>
</g>
<!-- Node1&#45;&gt;Node6 -->
<g id="edge5" class="edge">
<title>Node1&#45;&gt;Node6</title>
<path fill="none" stroke="#63b8ff" d="M318.67,-296.51C336.39,-288.2 362.98,-275.73 383.33,-266.18"/>
<polygon fill="#63b8ff" stroke="#63b8ff" points="384.68,-269.42 392.24,-262 381.7,-263.08 384.68,-269.42"/>
</g>
<!-- Node7 -->
<g id="node7" class="node">
<title>Node7</title>
<g id="a_node7"><a xlink:title=" ">
<polygon fill="#e0e0e0" stroke="#999999" points="202.5,-79.5 158.5,-79.5 158.5,-60.5 202.5,-60.5 202.5,-79.5"/>
<text text-anchor="middle" x="180.5" y="-67.5" font-family="Helvetica,sans-Serif" font-size="10.00">vector</text>
</a>
</g>
</g>
<!-- Node6&#45;&gt;Node7 -->
<g id="edge6" class="edge">
<title>Node6&#45;&gt;Node7</title>
<path fill="none" stroke="#63b8ff" d="M343.33,-242.73C240,-231.02 56.69,-209.8 50.5,-206 15.38,-184.45 -11.1,-154.05 13.5,-121 44.13,-79.86 107.39,-71.28 146.66,-70.17"/>
<polygon fill="#63b8ff" stroke="#63b8ff" points="146.54,-73.68 156.5,-70.06 146.46,-66.68 146.54,-73.68"/>
</g>
<!-- Node8 -->
<g id="node8" class="node">
<title>Node8</title>
<g id="a_node8"><a xlink:title=" ">
<polygon fill="#e0e0e0" stroke="#999999" points="464,-206 361,-206 361,-187 464,-187 464,-206"/>
<text text-anchor="middle" x="412.5" y="-194" font-family="Helvetica,sans-Serif" font-size="10.00">jsonrpc&#45;lean/value.h</text>
</a>
</g>
</g>
<!-- Node6&#45;&gt;Node8 -->
<g id="edge7" class="edge">
<title>Node6&#45;&gt;Node8</title>
<path fill="none" stroke="#63b8ff" d="M412.5,-241.75C412.5,-235.27 412.5,-226.16 412.5,-217.9"/>
<polygon fill="#63b8ff" stroke="#63b8ff" points="416,-217.96 412.5,-207.96 409,-217.96 416,-217.96"/>
</g>
<!-- Node9 -->
<g id="node9" class="node">
<title>Node9</title>
<g id="a_node9"><a xlink:href="blob_8hpp.html" target="_top" xlink:title=" ">
<polygon fill="white" stroke="#666666" points="343,-206 266,-206 266,-187 343,-187 343,-206"/>
<text text-anchor="middle" x="304.5" y="-194" font-family="Helvetica,sans-Serif" font-size="10.00">base/blob.hpp</text>
</a>
</g>
</g>
<!-- Node6&#45;&gt;Node9 -->
<g id="edge8" class="edge">
<title>Node6&#45;&gt;Node9</title>
<path fill="none" stroke="#63b8ff" d="M394.18,-241.51C377.32,-233.24 352.07,-220.84 332.65,-211.31"/>
<polygon fill="#63b8ff" stroke="#63b8ff" points="334.43,-208.29 323.91,-207.02 331.34,-214.57 334.43,-208.29"/>
</g>
<!-- Node18 -->
<g id="node18" class="node">
<title>Node18</title>
<g id="a_node18"><a xlink:href="visitor_8hpp.html" target="_top" xlink:title=" ">
<polygon fill="white" stroke="#666666" points="739,-206 654,-206 654,-187 739,-187 739,-206"/>
<text text-anchor="middle" x="696.5" y="-194" font-family="Helvetica,sans-Serif" font-size="10.00">base/visitor.hpp</text>
</a>
</g>
</g>
<!-- Node6&#45;&gt;Node18 -->
<g id="edge18" class="edge">
<title>Node6&#45;&gt;Node18</title>
<path fill="none" stroke="#63b8ff" d="M460.68,-241.51C511.1,-232.1 590.09,-217.36 642.57,-207.56"/>
<polygon fill="#63b8ff" stroke="#63b8ff" points="642.99,-211.05 652.18,-205.77 641.71,-204.16 642.99,-211.05"/>
</g>
<!-- Node21 -->
<g id="node21" class="node">
<title>Node21</title>
<g id="a_node21"><a xlink:href="extrinsic_8hpp.html" target="_top" xlink:title=" ">
<polygon fill="white" stroke="#666666" points="598.5,-206 482.5,-206 482.5,-187 598.5,-187 598.5,-206"/>
<text text-anchor="middle" x="540.5" y="-194" font-family="Helvetica,sans-Serif" font-size="10.00">primitives/extrinsic.hpp</text>
</a>
</g>
</g>
<!-- Node6&#45;&gt;Node21 -->
<g id="edge22" class="edge">
<title>Node6&#45;&gt;Node21</title>
<path fill="none" stroke="#63b8ff" d="M434.21,-241.51C454.66,-233.04 485.52,-220.27 508.73,-210.66"/>
<polygon fill="#63b8ff" stroke="#63b8ff" points="509.81,-214 517.71,-206.94 507.13,-207.53 509.81,-214"/>
</g>
<!-- Node25 -->
<g id="node25" class="node">
<title>Node25</title>
<g id="a_node25"><a xlink:href="primitives_2version_8hpp.html" target="_top" xlink:title=" ">
<polygon fill="white" stroke="#666666" points="171,-206 60,-206 60,-187 171,-187 171,-206"/>
<text text-anchor="middle" x="115.5" y="-194" font-family="Helvetica,sans-Serif" font-size="10.00">primitives/version.hpp</text>
</a>
</g>
</g>
<!-- Node6&#45;&gt;Node25 -->
<g id="edge30" class="edge">
<title>Node6&#45;&gt;Node25</title>
<path fill="none" stroke="#63b8ff" d="M362.12,-241.51C310.98,-232.38 231.73,-218.24 176.94,-208.46"/>
<polygon fill="#63b8ff" stroke="#63b8ff" points="177.58,-205.02 167.12,-206.71 176.35,-211.91 177.58,-205.02"/>
</g>
<!-- Node10 -->
<g id="node10" class="node">
<title>Node10</title>
<g id="a_node10"><a xlink:title=" ">
<polygon fill="#e0e0e0" stroke="#999999" points="158.5,-145.5 120.5,-145.5 120.5,-126.5 158.5,-126.5 158.5,-145.5"/>
<text text-anchor="middle" x="139.5" y="-133.5" font-family="Helvetica,sans-Serif" font-size="10.00">array</text>
</a>
</g>
</g>
<!-- Node9&#45;&gt;Node10 -->
<g id="edge9" class="edge">
<title>Node9&#45;&gt;Node10</title>
<path fill="none" stroke="#63b8ff" d="M272.46,-186.57C244.38,-178.4 202.67,-165.41 167.5,-151 167.15,-150.86 166.8,-150.71 166.45,-150.56"/>
<polygon fill="#63b8ff" stroke="#63b8ff" points="168.11,-147.48 157.57,-146.49 165.19,-153.84 168.11,-147.48"/>
</g>
<!-- Node11 -->
<g id="node11" class="node">
<title>Node11</title>
<g id="a_node11"><a xlink:title=" ">
<polygon fill="#e0e0e0" stroke="#999999" points="304.5,-145.5 176.5,-145.5 176.5,-126.5 304.5,-126.5 304.5,-145.5"/>
<text text-anchor="middle" x="240.5" y="-133.5" font-family="Helvetica,sans-Serif" font-size="10.00">boost/functional/hash.hpp</text>
</a>
</g>
</g>
<!-- Node9&#45;&gt;Node11 -->
<g id="edge10" class="edge">
<title>Node9&#45;&gt;Node11</title>
<path fill="none" stroke="#63b8ff" d="M294.78,-186.62C285.19,-177.85 270.31,-164.25 258.56,-153.5"/>
<polygon fill="#63b8ff" stroke="#63b8ff" points="261.17,-151.15 251.43,-146.99 256.45,-156.32 261.17,-151.15"/>
</g>
<!-- Node12 -->
<g id="node12" class="node">
<title>Node12</title>
<g id="a_node12"><a xlink:href="hexutil_8hpp.html" target="_top" xlink:title=" ">
<polygon fill="white" stroke="#666666" points="480.5,-145.5 394.5,-145.5 394.5,-126.5 480.5,-126.5 480.5,-145.5"/>
<text text-anchor="middle" x="437.5" y="-133.5" font-family="Helvetica,sans-Serif" font-size="10.00">base/hexutil.hpp</text>
</a>
</g>
</g>
<!-- Node9&#45;&gt;Node12 -->
<g id="edge11" class="edge">
<title>Node9&#45;&gt;Node12</title>
<path fill="none" stroke="#63b8ff" d="M324.7,-186.62C346.48,-177.04 381.4,-161.68 406.62,-150.58"/>
<polygon fill="#63b8ff" stroke="#63b8ff" points="407.98,-153.81 415.72,-146.58 405.16,-147.4 407.98,-153.81"/>
</g>
<!-- Node17 -->
<g id="node17" class="node">
<title>Node17</title>
<g id="a_node17"><a xlink:title=" ">
<polygon fill="#e0e0e0" stroke="#999999" points="376.5,-145.5 322.5,-145.5 322.5,-126.5 376.5,-126.5 376.5,-145.5"/>
<text text-anchor="middle" x="349.5" y="-133.5" font-family="Helvetica,sans-Serif" font-size="10.00">iostream</text>
</a>
</g>
</g>
<!-- Node9&#45;&gt;Node17 -->
<g id="edge17" class="edge">
<title>Node9&#45;&gt;Node17</title>
<path fill="none" stroke="#63b8ff" d="M311.14,-186.87C317.65,-178.4 327.78,-165.24 335.99,-154.57"/>
<polygon fill="#63b8ff" stroke="#63b8ff" points="338.59,-156.93 341.91,-146.87 333.04,-152.66 338.59,-156.93"/>
</g>
<!-- Node12&#45;&gt;Node7 -->
<g id="edge13" class="edge">
<title>Node12&#45;&gt;Node7</title>
<path fill="none" stroke="#63b8ff" d="M404.8,-126.07C398.41,-124.36 391.75,-122.6 385.5,-121 325.27,-105.55 254.78,-88.61 214.12,-78.94"/>
<polygon fill="#63b8ff" stroke="#63b8ff" points="215,-75.55 204.46,-76.65 213.39,-82.36 215,-75.55"/>
</g>
<!-- Node13 -->
<g id="node13" class="node">
<title>Node13</title>
<g id="a_node13"><a xlink:title=" ">
<polygon fill="#e0e0e0" stroke="#999999" points="575.5,-79.5 509.5,-79.5 509.5,-60.5 575.5,-60.5 575.5,-79.5"/>
<text text-anchor="middle" x="542.5" y="-67.5" font-family="Helvetica,sans-Serif" font-size="10.00">string_view</text>
</a>
</g>
</g>
<!-- Node12&#45;&gt;Node13 -->
<g id="edge12" class="edge">
<title>Node12&#45;&gt;Node13</title>
<path fill="none" stroke="#63b8ff" d="M452.1,-126.1C469.26,-115.64 497.99,-98.13 518.46,-85.66"/>
<polygon fill="#63b8ff" stroke="#63b8ff" points="520.01,-88.8 526.73,-80.61 516.37,-82.83 520.01,-88.8"/>
</g>
<!-- Node14 -->
<g id="node14" class="node">
<title>Node14</title>
<g id="a_node14"><a xlink:title=" ">
<polygon fill="#e0e0e0" stroke="#999999" points="360,-79.5 307,-79.5 307,-60.5 360,-60.5 360,-79.5"/>
<text text-anchor="middle" x="333.5" y="-67.5" font-family="Helvetica,sans-Serif" font-size="10.00">gsl/span</text>
</a>
</g>
</g>
<!-- Node12&#45;&gt;Node14 -->
<g id="edge14" class="edge">
<title>Node12&#45;&gt;Node14</title>
<path fill="none" stroke="#63b8ff" d="M423.04,-126.1C406.12,-115.69 377.84,-98.29 357.59,-85.83"/>
<polygon fill="#63b8ff" stroke="#63b8ff" points="359.48,-82.88 349.13,-80.62 355.81,-88.84 359.48,-82.88"/>
</g>
<!-- Node15 -->
<g id="node15" class="node">
<title>Node15</title>
<g id="a_node15"><a xlink:href="outcome_8hpp.html" target="_top" xlink:title=" ">
<polygon fill="white" stroke="#666666" points="491,-79.5 378,-79.5 378,-60.5 491,-60.5 491,-79.5"/>
<text text-anchor="middle" x="434.5" y="-67.5" font-family="Helvetica,sans-Serif" font-size="10.00">outcome/outcome.hpp</text>
</a>
</g>
</g>
<!-- Node12&#45;&gt;Node15 -->
<g id="edge15" class="edge">
<title>Node12&#45;&gt;Node15</title>
<path fill="none" stroke="#63b8ff" d="M437.08,-126.1C436.66,-117.12 436,-102.95 435.45,-91.22"/>
<polygon fill="#63b8ff" stroke="#63b8ff" points="438.95,-91.16 434.98,-81.34 431.96,-91.49 438.95,-91.16"/>
</g>
<!-- Node16 -->
<g id="node16" class="node">
<title>Node16</title>
<g id="a_node16"><a xlink:title=" ">
<polygon fill="#e0e0e0" stroke="#999999" points="505,-19 364,-19 364,0 505,0 505,-19"/>
<text text-anchor="middle" x="434.5" y="-7" font-family="Helvetica,sans-Serif" font-size="10.00">libp2p/outcome/outcome.hpp</text>
</a>
</g>
</g>
<!-- Node15&#45;&gt;Node16 -->
<g id="edge16" class="edge">
<title>Node15&#45;&gt;Node16</title>
<path fill="none" stroke="#63b8ff" d="M434.5,-60.37C434.5,-52.5 434.5,-40.6 434.5,-30.39"/>
<polygon fill="#63b8ff" stroke="#63b8ff" points="438,-30.68 434.5,-20.68 431,-30.68 438,-30.68"/>
</g>
<!-- Node18&#45;&gt;Node5 -->
<g id="edge19" class="edge">
<title>Node18&#45;&gt;Node5</title>
<path fill="none" stroke="#63b8ff" d="M713.05,-186.62C730.5,-177.25 758.25,-162.36 778.79,-151.33"/>
<polygon fill="#63b8ff" stroke="#63b8ff" points="780.3,-154.5 787.46,-146.68 776.99,-148.33 780.3,-154.5"/>
</g>
<!-- Node19 -->
<g id="node19" class="node">
<title>Node19</title>
<g id="a_node19"><a xlink:title=" ">
<polygon fill="#e0e0e0" stroke="#999999" points="756,-145.5 717,-145.5 717,-126.5 756,-126.5 756,-145.5"/>
<text text-anchor="middle" x="736.5" y="-133.5" font-family="Helvetica,sans-Serif" font-size="10.00">utility</text>
</a>
</g>
</g>
<!-- Node18&#45;&gt;Node19 -->
<g id="edge20" class="edge">
<title>Node18&#45;&gt;Node19</title>
<path fill="none" stroke="#63b8ff" d="M702.4,-186.87C708.13,-178.49 717.01,-165.51 724.26,-154.89"/>
<polygon fill="#63b8ff" stroke="#63b8ff" points="726.96,-157.15 729.72,-146.92 721.19,-153.2 726.96,-157.15"/>
</g>
<!-- Node20 -->
<g id="node20" class="node">
<title>Node20</title>
<g id="a_node20"><a xlink:title=" ">
<polygon fill="#e0e0e0" stroke="#999999" points="698.5,-151 600.5,-151 600.5,-121 698.5,-121 698.5,-151"/>
<text text-anchor="start" x="608.5" y="-139" font-family="Helvetica,sans-Serif" font-size="10.00">boost/variant/apply</text>
<text text-anchor="middle" x="649.5" y="-128" font-family="Helvetica,sans-Serif" font-size="10.00">_visitor.hpp</text>
</a>
</g>
</g>
<!-- Node18&#45;&gt;Node20 -->
<g id="edge21" class="edge">
<title>Node18&#45;&gt;Node20</title>
<path fill="none" stroke="#63b8ff" d="M689.56,-186.87C683.9,-179.81 675.61,-169.5 668.04,-160.08"/>
<polygon fill="#63b8ff" stroke="#63b8ff" points="670.78,-157.9 661.79,-152.29 665.32,-162.28 670.78,-157.9"/>
</g>
<!-- Node22 -->
<g id="node22" class="node">
<title>Node22</title>
<g id="a_node22"><a xlink:href="buffer_8hpp.html" target="_top" xlink:title=" ">
<polygon fill="white" stroke="#666666" points="582,-145.5 499,-145.5 499,-126.5 582,-126.5 582,-145.5"/>
<text text-anchor="middle" x="540.5" y="-133.5" font-family="Helvetica,sans-Serif" font-size="10.00">base/buffer.hpp</text>
</a>
</g>
</g>
<!-- Node21&#45;&gt;Node22 -->
<g id="edge23" class="edge">
<title>Node21&#45;&gt;Node22</title>
<path fill="none" stroke="#63b8ff" d="M540.5,-186.87C540.5,-179 540.5,-167.1 540.5,-156.89"/>
<polygon fill="#63b8ff" stroke="#63b8ff" points="544,-157.18 540.5,-147.18 537,-157.18 544,-157.18"/>
</g>
<!-- Node22&#45;&gt;Node7 -->
<g id="edge25" class="edge">
<title>Node22&#45;&gt;Node7</title>
<path fill="none" stroke="#63b8ff" d="M509.89,-126.02C503.2,-124.22 496.14,-122.44 489.5,-121 390.1,-99.38 270.86,-82.64 213.93,-75.21"/>
<polygon fill="#63b8ff" stroke="#63b8ff" points="214.63,-71.77 204.26,-73.96 213.73,-78.71 214.63,-71.77"/>
</g>
<!-- Node22&#45;&gt;Node13 -->
<g id="edge24" class="edge">
<title>Node22&#45;&gt;Node13</title>
<path fill="none" stroke="#63b8ff" d="M540.78,-126.1C541.06,-117.12 541.5,-102.95 541.87,-91.22"/>
<polygon fill="#63b8ff" stroke="#63b8ff" points="545.36,-91.44 542.18,-81.34 538.37,-91.22 545.36,-91.44"/>
</g>
<!-- Node22&#45;&gt;Node14 -->
<g id="edge28" class="edge">
<title>Node22&#45;&gt;Node14</title>
<path fill="none" stroke="#63b8ff" d="M508.75,-126.07C466.84,-114.22 395.34,-93.79 369.5,-85 368.36,-84.61 367.2,-84.21 366.03,-83.79"/>
<polygon fill="#63b8ff" stroke="#63b8ff" points="367.49,-80.6 356.89,-80.42 365.06,-87.17 367.49,-80.6"/>
</g>
<!-- Node22&#45;&gt;Node15 -->
<g id="edge29" class="edge">
<title>Node22&#45;&gt;Node15</title>
<path fill="none" stroke="#63b8ff" d="M525.76,-126.1C508.44,-115.64 479.43,-98.13 458.77,-85.66"/>
<polygon fill="#63b8ff" stroke="#63b8ff" points="460.78,-82.78 450.41,-80.61 457.16,-88.77 460.78,-82.78"/>
</g>
<!-- Node23 -->
<g id="node23" class="node">
<title>Node23</title>
<g id="a_node23"><a xlink:title=" ">
<polygon fill="#e0e0e0" stroke="#999999" points="823.5,-85 713.5,-85 713.5,-55 823.5,-55 823.5,-85"/>
<text text-anchor="start" x="721.5" y="-73" font-family="Helvetica,sans-Serif" font-size="10.00">boost/container_hash</text>
<text text-anchor="middle" x="768.5" y="-62" font-family="Helvetica,sans-Serif" font-size="10.00">/hash.hpp</text>
</a>
</g>
</g>
<!-- Node22&#45;&gt;Node23 -->
<g id="edge26" class="edge">
<title>Node22&#45;&gt;Node23</title>
<path fill="none" stroke="#63b8ff" d="M572.2,-126.1C606.65,-116.43 662.55,-100.74 705.91,-88.57"/>
<polygon fill="#63b8ff" stroke="#63b8ff" points="706.78,-91.96 715.47,-85.89 704.89,-85.22 706.78,-91.96"/>
</g>
<!-- Node24 -->
<g id="node24" class="node">
<title>Node24</title>
<g id="a_node24"><a xlink:title=" ">
<polygon fill="#e0e0e0" stroke="#999999" points="695.5,-79.5 593.5,-79.5 593.5,-60.5 695.5,-60.5 695.5,-79.5"/>
<text text-anchor="middle" x="644.5" y="-67.5" font-family="Helvetica,sans-Serif" font-size="10.00">boost/operators.hpp</text>
</a>
</g>
</g>
<!-- Node22&#45;&gt;Node24 -->
<g id="edge27" class="edge">
<title>Node22&#45;&gt;Node24</title>
<path fill="none" stroke="#63b8ff" d="M554.96,-126.1C571.88,-115.69 600.16,-98.29 620.41,-85.83"/>
<polygon fill="#63b8ff" stroke="#63b8ff" points="622.19,-88.84 628.87,-80.62 618.52,-82.88 622.19,-88.84"/>
</g>
<!-- Node25&#45;&gt;Node7 -->
<g id="edge33" class="edge">
<title>Node25&#45;&gt;Node7</title>
<path fill="none" stroke="#63b8ff" d="M112.31,-186.65C107.62,-172.06 100.55,-142.46 111.5,-121 119.45,-105.41 134.79,-93.56 148.99,-85.31"/>
<polygon fill="#63b8ff" stroke="#63b8ff" points="150.51,-88.46 157.67,-80.65 147.2,-82.29 150.51,-88.46"/>
</g>
<!-- Node25&#45;&gt;Node10 -->
<g id="edge31" class="edge">
<title>Node25&#45;&gt;Node10</title>
<path fill="none" stroke="#63b8ff" d="M119.04,-186.87C122.34,-178.83 127.37,-166.57 131.62,-156.22"/>
<polygon fill="#63b8ff" stroke="#63b8ff" points="134.81,-157.65 135.37,-147.07 128.34,-154.99 134.81,-157.65"/>
</g>
<!-- Node26 -->
<g id="node26" class="node">
<title>Node26</title>
<g id="a_node26"><a xlink:title=" ">
<polygon fill="#e0e0e0" stroke="#999999" points="64,-145.5 23,-145.5 23,-126.5 64,-126.5 64,-145.5"/>
<text text-anchor="middle" x="43.5" y="-133.5" font-family="Helvetica,sans-Serif" font-size="10.00">string</text>
</a>
</g>
</g>
<!-- Node25&#45;&gt;Node26 -->
<g id="edge32" class="edge">
<title>Node25&#45;&gt;Node26</title>
<path fill="none" stroke="#63b8ff" d="M104.56,-186.62C93.68,-177.77 76.71,-163.98 63.42,-153.19"/>
<polygon fill="#63b8ff" stroke="#63b8ff" points="65.68,-150.51 55.71,-146.92 61.27,-155.95 65.68,-150.51"/>
</g>
</g>
</svg>
        <g id="navigator" transform="translate(0 0)" fill="#404254">
                <rect fill="#f2f5e9" fill-opacity="0.5" stroke="#606060" stroke-width=".5" x="0" y="0" width="60" height="60"/>
                <use id="zoomplus" xlink:href="#zoomPlus" x="17" y="9" onmousedown="handleZoom(evt,'in')"/>
                <use id="zoomminus" xlink:href="#zoomMin" x="42" y="9" onmousedown="handleZoom(evt,'out')"/>
                <use id="reset" xlink:href="#resetDef" x="30" y="36" onmousedown="handleReset()"/>
                <g id="arrowUp" xlink:href="#dirArrow" transform="translate(30 24)" onmousedown="handlePan(0,-1)">
                  <use xlink:href="#rim" fill="#404040">
                        <set attributeName="fill" to="#808080" begin="arrowUp.mouseover" end="arrowUp.mouseout"/>
                  </use>
                  <path fill="none" stroke="white" stroke-width="1.5" d="M0,-3.0v7 M-2.5,-0.5L0,-3.0L2.5,-0.5"/>
                </g>
                <g id="arrowRight" xlink:href="#dirArrow" transform="rotate(90) translate(36 -43)" onmousedown="handlePan(1,0)">
                  <use xlink:href="#rim" fill="#404040">
                        <set attributeName="fill" to="#808080" begin="arrowRight.mouseover" end="arrowRight.mouseout"/>
                  </use>
                  <path fill="none" stroke="white" stroke-width="1.5" d="M0,-3.0v7 M-2.5,-0.5L0,-3.0L2.5,-0.5"/>
                </g>
                <g id="arrowDown" xlink:href="#dirArrow" transform="rotate(180) translate(-30 -48)" onmousedown="handlePan(0,1)">
                  <use xlink:href="#rim" fill="#404040">
                        <set attributeName="fill" to="#808080" begin="arrowDown.mouseover" end="arrowDown.mouseout"/>
                  </use>
                  <path fill="none" stroke="white" stroke-width="1.5" d="M0,-3.0v7 M-2.5,-0.5L0,-3.0L2.5,-0.5"/>
                </g>
                <g id="arrowLeft" xlink:href="#dirArrow" transform="rotate(270) translate(-36 17)" onmousedown="handlePan(-1,0)">
                  <use xlink:href="#rim" fill="#404040">
                        <set attributeName="fill" to="#808080" begin="arrowLeft.mouseover" end="arrowLeft.mouseout"/>
                  </use>
                  <path fill="none" stroke="white" stroke-width="1.5" d="M0,-3.0v7 M-2.5,-0.5L0,-3.0L2.5,-0.5"/>
                </g>
        </g>
        <svg viewBox="0 0 15 15" width="100%" height="30px" preserveAspectRatio="xMaxYMin meet">
         <g id="arrow_out" transform="scale(0.3 0.3)">
          <a xlink:href="jrpc__method_8hpp__incl_org.svg" target="_base">
           <rect id="button" ry="5" rx="5" y="6" x="6" height="38" width="38"
                fill="#f2f5e9" fill-opacity="0.5" stroke="#606060" stroke-width="1.0"/>
           <path id="arrow"
             d="M 11.500037,31.436501 C 11.940474,20.09759 22.043105,11.32322 32.158766,21.979434 L 37.068811,17.246167 C 37.068811,17.246167 37.088388,32 37.088388,32 L 22.160133,31.978069 C 22.160133,31.978069 26.997745,27.140456 26.997745,27.140456 C 18.528582,18.264221 13.291696,25.230495 11.500037,31.436501 z"
             style="fill:#404040;"/>
          </a>
         </g>
        </svg>
</svg>
