<?xml version="1.0" encoding="UTF-8" standalone="no"?>
<!DOCTYPE svg PUBLIC "-//W3C//DTD SVG 1.1//EN"
 "http://www.w3.org/Graphics/SVG/1.1/DTD/svg11.dtd">
<!-- Generated by graphviz version 7.0.5 (20221223.1930)
 -->
<!-- Title: src/api/transport/listener.hpp Pages: 1 -->
<svg width="1307pt" height="599pt"
 viewBox="0.00 0.00 1307.00 599.00" xmlns="http://www.w3.org/2000/svg" xmlns:xlink="http://www.w3.org/1999/xlink">
<g id="graph0" class="graph" transform="scale(1 1) rotate(0) translate(4 595)">
<title>src/api/transport/listener.hpp</title>
<!-- Node1 -->
<g id="node1" class="node">
<title>Node1</title>
<g id="a_node1"><a xlink:title=" ">
<polygon fill="#999999" stroke="#666666" points="1046,-591 906,-591 906,-572 1046,-572 1046,-591"/>
<text text-anchor="middle" x="976" y="-579" font-family="Helvetica,sans-Serif" font-size="10.00">src/api/transport/listener.hpp</text>
</a>
</g>
</g>
<!-- Node2 -->
<g id="node2" class="node">
<title>Node2</title>
<g id="a_node2"><a xlink:href="api__service_8hpp.html" target="_top" xlink:title=" ">
<polygon fill="white" stroke="#666666" points="813,-536 717,-536 717,-506 813,-506 813,-536"/>
<text text-anchor="start" x="725" y="-524" font-family="Helvetica,sans-Serif" font-size="10.00">src/api/service/api</text>
<text text-anchor="middle" x="765" y="-513" font-family="Helvetica,sans-Serif" font-size="10.00">_service.hpp</text>
</a>
</g>
</g>
<!-- Node1&#45;&gt;Node2 -->
<g id="edge1" class="edge">
<title>Node1&#45;&gt;Node2</title>
<path fill="none" stroke="#63b8ff" d="M933.22,-568.64C898.51,-559.02 849.59,-545.45 813.45,-535.43"/>
<polygon fill="#63b8ff" stroke="#63b8ff" points="931.92,-571.91 942.5,-571.21 933.79,-565.17 931.92,-571.91"/>
</g>
<!-- Node32 -->
<g id="node32" class="node">
<title>Node32</title>
<g id="a_node32"><a xlink:href="http__listener__impl_8hpp.html" target="_top" xlink:title=" ">
<polygon fill="white" stroke="#666666" points="1043,-536 909,-536 909,-506 1043,-506 1043,-536"/>
<text text-anchor="start" x="917" y="-524" font-family="Helvetica,sans-Serif" font-size="10.00">src/api/transport/impl</text>
<text text-anchor="middle" x="976" y="-513" font-family="Helvetica,sans-Serif" font-size="10.00">/http/http_listener_impl.hpp</text>
</a>
</g>
</g>
<!-- Node1&#45;&gt;Node32 -->
<g id="edge40" class="edge">
<title>Node1&#45;&gt;Node32</title>
<path fill="none" stroke="#63b8ff" d="M976,-560.51C976,-552.49 976,-543.43 976,-536.11"/>
<polygon fill="#63b8ff" stroke="#63b8ff" points="972.5,-560.35 976,-570.35 979.5,-560.35 972.5,-560.35"/>
</g>
<!-- Node34 -->
<g id="node34" class="node">
<title>Node34</title>
<g id="a_node34"><a xlink:href="ws__listener__impl_8hpp.html" target="_top" xlink:title=" ">
<polygon fill="white" stroke="#666666" points="1208,-536 1082,-536 1082,-506 1208,-506 1208,-536"/>
<text text-anchor="start" x="1090" y="-524" font-family="Helvetica,sans-Serif" font-size="10.00">src/api/transport/impl</text>
<text text-anchor="middle" x="1145" y="-513" font-family="Helvetica,sans-Serif" font-size="10.00">/ws/ws_listener_impl.hpp</text>
</a>
</g>
</g>
<!-- Node1&#45;&gt;Node34 -->
<g id="edge43" class="edge">
<title>Node1&#45;&gt;Node34</title>
<path fill="none" stroke="#63b8ff" d="M1012.47,-567.88C1039.17,-558.64 1075.44,-546.08 1103.29,-536.44"/>
<polygon fill="#63b8ff" stroke="#63b8ff" points="1011.4,-564.54 1003.1,-571.12 1013.69,-571.16 1011.4,-564.54"/>
</g>
<!-- Node3 -->
<g id="node3" class="node">
<title>Node3</title>
<g id="a_node3"><a xlink:href="api__service_8cpp.html" target="_top" xlink:title=" ">
<polygon fill="white" stroke="#666666" points="813,-470 717,-470 717,-440 813,-440 813,-470"/>
<text text-anchor="start" x="725" y="-458" font-family="Helvetica,sans-Serif" font-size="10.00">src/api/service/api</text>
<text text-anchor="middle" x="765" y="-447" font-family="Helvetica,sans-Serif" font-size="10.00">_service.cpp</text>
</a>
</g>
</g>
<!-- Node2&#45;&gt;Node3 -->
<g id="edge2" class="edge">
<title>Node2&#45;&gt;Node3</title>
<path fill="none" stroke="#63b8ff" d="M765,-494.39C765,-486.13 765,-477.28 765,-470.16"/>
<polygon fill="#63b8ff" stroke="#63b8ff" points="761.5,-494.28 765,-504.28 768.5,-494.28 761.5,-494.28"/>
</g>
<!-- Node4 -->
<g id="node4" class="node">
<title>Node4</title>
<g id="a_node4"><a xlink:href="state__api_8hpp.html" target="_top" xlink:title=" ">
<polygon fill="white" stroke="#666666" points="598.5,-470 493.5,-470 493.5,-440 598.5,-440 598.5,-470"/>
<text text-anchor="start" x="501.5" y="-458" font-family="Helvetica,sans-Serif" font-size="10.00">src/api/service/state</text>
<text text-anchor="middle" x="546" y="-447" font-family="Helvetica,sans-Serif" font-size="10.00">/state_api.hpp</text>
</a>
</g>
</g>
<!-- Node2&#45;&gt;Node4 -->
<g id="edge3" class="edge">
<title>Node2&#45;&gt;Node4</title>
<path fill="none" stroke="#63b8ff" d="M705.77,-502.69C671.19,-492.58 628.07,-479.98 595.35,-470.42"/>
<polygon fill="#63b8ff" stroke="#63b8ff" points="704.64,-506.01 715.22,-505.45 706.6,-499.29 704.64,-506.01"/>
</g>
<!-- Node7 -->
<g id="node7" class="node">
<title>Node7</title>
<g id="a_node7"><a xlink:href="application__injector_8hpp.html" target="_top" xlink:title=" ">
<polygon fill="white" stroke="#666666" points="1013,-321.5 899,-321.5 899,-291.5 1013,-291.5 1013,-321.5"/>
<text text-anchor="start" x="907" y="-309.5" font-family="Helvetica,sans-Serif" font-size="10.00">src/injector/application</text>
<text text-anchor="middle" x="956" y="-298.5" font-family="Helvetica,sans-Serif" font-size="10.00">_injector.hpp</text>
</a>
</g>
</g>
<!-- Node2&#45;&gt;Node7 -->
<g id="edge39" class="edge">
<title>Node2&#45;&gt;Node7</title>
<path fill="none" stroke="#63b8ff" d="M794.33,-498.75C822.97,-477.06 866.71,-441.35 898,-404 920.22,-377.48 939.44,-341.5 949.19,-321.82"/>
<polygon fill="#63b8ff" stroke="#63b8ff" points="792.35,-495.86 786.44,-504.65 796.55,-501.46 792.35,-495.86"/>
</g>
<!-- Node19 -->
<g id="node19" class="node">
<title>Node19</title>
<g id="a_node19"><a xlink:href="validating__node__application_8hpp.html" target="_top" xlink:title=" ">
<polygon fill="white" stroke="#666666" points="636.5,-184 479.5,-184 479.5,-154 636.5,-154 636.5,-184"/>
<text text-anchor="start" x="487.5" y="-172" font-family="Helvetica,sans-Serif" font-size="10.00">src/application/impl</text>
<text text-anchor="middle" x="558" y="-161" font-family="Helvetica,sans-Serif" font-size="10.00">/validating_node_application.hpp</text>
</a>
</g>
</g>
<!-- Node2&#45;&gt;Node19 -->
<g id="edge38" class="edge">
<title>Node2&#45;&gt;Node19</title>
<path fill="none" stroke="#63b8ff" d="M705.21,-515.72C525.09,-502.04 0,-456.02 0,-384.5 0,-384.5 0,-384.5 0,-305.5 0,-208.05 325.42,-180.42 479.24,-172.8"/>
<polygon fill="#63b8ff" stroke="#63b8ff" points="704.82,-519.2 715.06,-516.46 705.35,-512.22 704.82,-519.2"/>
</g>
<!-- Node5 -->
<g id="node5" class="node">
<title>Node5</title>
<g id="a_node5"><a xlink:href="state__api__impl_8hpp.html" target="_top" xlink:title=" ">
<polygon fill="white" stroke="#666666" points="889,-398.5 767,-398.5 767,-368.5 889,-368.5 889,-398.5"/>
<text text-anchor="start" x="775" y="-386.5" font-family="Helvetica,sans-Serif" font-size="10.00">src/api/service/state</text>
<text text-anchor="middle" x="828" y="-375.5" font-family="Helvetica,sans-Serif" font-size="10.00">/impl/state_api_impl.hpp</text>
</a>
</g>
</g>
<!-- Node4&#45;&gt;Node5 -->
<g id="edge4" class="edge">
<title>Node4&#45;&gt;Node5</title>
<path fill="none" stroke="#63b8ff" d="M610.07,-439.59C652.21,-429.94 708.52,-416.72 758,-404 764.23,-402.4 770.76,-400.66 777.21,-398.9"/>
<polygon fill="#63b8ff" stroke="#63b8ff" points="609.3,-436.18 600.33,-441.82 610.86,-443 609.3,-436.18"/>
</g>
<!-- Node22 -->
<g id="node22" class="node">
<title>Node22</title>
<g id="a_node22"><a xlink:href="get__runtime__version_8hpp.html" target="_top" xlink:title=" ">
<polygon fill="white" stroke="#666666" points="147.5,-404 36.5,-404 36.5,-363 147.5,-363 147.5,-404"/>
<text text-anchor="start" x="44.5" y="-392" font-family="Helvetica,sans-Serif" font-size="10.00">src/api/service/state</text>
<text text-anchor="start" x="44.5" y="-381" font-family="Helvetica,sans-Serif" font-size="10.00">/requests/get_runtime</text>
<text text-anchor="middle" x="92" y="-370" font-family="Helvetica,sans-Serif" font-size="10.00">_version.hpp</text>
</a>
</g>
</g>
<!-- Node4&#45;&gt;Node22 -->
<g id="edge23" class="edge">
<title>Node4&#45;&gt;Node22</title>
<path fill="none" stroke="#63b8ff" d="M482.13,-449.13C404.42,-442.45 269.55,-428.4 156,-404 153.27,-403.41 150.5,-402.77 147.7,-402.08"/>
<polygon fill="#63b8ff" stroke="#63b8ff" points="481.4,-452.58 491.66,-449.94 481.99,-445.61 481.4,-452.58"/>
</g>
<!-- Node25 -->
<g id="node25" class="node">
<title>Node25</title>
<g id="a_node25"><a xlink:href="get__storage_8hpp.html" target="_top" xlink:title=" ">
<polygon fill="white" stroke="#666666" points="294.5,-398.5 165.5,-398.5 165.5,-368.5 294.5,-368.5 294.5,-398.5"/>
<text text-anchor="start" x="173.5" y="-386.5" font-family="Helvetica,sans-Serif" font-size="10.00">src/api/service/state</text>
<text text-anchor="middle" x="230" y="-375.5" font-family="Helvetica,sans-Serif" font-size="10.00">/requests/get_storage.hpp</text>
</a>
</g>
</g>
<!-- Node4&#45;&gt;Node25 -->
<g id="edge26" class="edge">
<title>Node4&#45;&gt;Node25</title>
<path fill="none" stroke="#63b8ff" d="M482.37,-441.83C433.45,-432.23 364.25,-418.15 304,-404 297.27,-402.42 290.23,-400.68 283.27,-398.9"/>
<polygon fill="#63b8ff" stroke="#63b8ff" points="481.45,-445.21 491.94,-443.7 482.79,-438.34 481.45,-445.21"/>
</g>
<!-- Node27 -->
<g id="node27" class="node">
<title>Node27</title>
<g id="a_node27"><a xlink:href="subscribe__storage_8hpp.html" target="_top" xlink:title=" ">
<polygon fill="white" stroke="#666666" points="471,-398.5 313,-398.5 313,-368.5 471,-368.5 471,-398.5"/>
<text text-anchor="start" x="321" y="-386.5" font-family="Helvetica,sans-Serif" font-size="10.00">src/api/service/state</text>
<text text-anchor="middle" x="392" y="-375.5" font-family="Helvetica,sans-Serif" font-size="10.00">/requests/subscribe_storage.hpp</text>
</a>
</g>
</g>
<!-- Node4&#45;&gt;Node27 -->
<g id="edge29" class="edge">
<title>Node4&#45;&gt;Node27</title>
<path fill="none" stroke="#63b8ff" d="M503.71,-434.91C478.49,-423.53 446.98,-409.31 423.87,-398.88"/>
<polygon fill="#63b8ff" stroke="#63b8ff" points="502.16,-438.05 512.71,-438.98 505.04,-431.67 502.16,-438.05"/>
</g>
<!-- Node29 -->
<g id="node29" class="node">
<title>Node29</title>
<g id="a_node29"><a xlink:href="unsubscribe__storage_8hpp.html" target="_top" xlink:title=" ">
<polygon fill="white" stroke="#666666" points="602.5,-404 489.5,-404 489.5,-363 602.5,-363 602.5,-404"/>
<text text-anchor="start" x="497.5" y="-392" font-family="Helvetica,sans-Serif" font-size="10.00">src/api/service/state</text>
<text text-anchor="start" x="497.5" y="-381" font-family="Helvetica,sans-Serif" font-size="10.00">/requests/unsubscribe</text>
<text text-anchor="middle" x="546" y="-370" font-family="Helvetica,sans-Serif" font-size="10.00">_storage.hpp</text>
</a>
</g>
</g>
<!-- Node4&#45;&gt;Node29 -->
<g id="edge32" class="edge">
<title>Node4&#45;&gt;Node29</title>
<path fill="none" stroke="#63b8ff" d="M546,-428.36C546,-420.45 546,-411.87 546,-404.42"/>
<polygon fill="#63b8ff" stroke="#63b8ff" points="542.5,-428.09 546,-438.09 549.5,-428.09 542.5,-428.09"/>
</g>
<!-- Node31 -->
<g id="node31" class="node">
<title>Node31</title>
<g id="a_node31"><a xlink:href="state__jrpc__processor_8hpp.html" target="_top" xlink:title=" ">
<polygon fill="white" stroke="#666666" points="749,-398.5 621,-398.5 621,-368.5 749,-368.5 749,-398.5"/>
<text text-anchor="start" x="629" y="-386.5" font-family="Helvetica,sans-Serif" font-size="10.00">src/api/service/state</text>
<text text-anchor="middle" x="685" y="-375.5" font-family="Helvetica,sans-Serif" font-size="10.00">/state_jrpc_processor.hpp</text>
</a>
</g>
</g>
<!-- Node4&#45;&gt;Node31 -->
<g id="edge35" class="edge">
<title>Node4&#45;&gt;Node31</title>
<path fill="none" stroke="#63b8ff" d="M585.09,-434.46C607.7,-423.15 635.65,-409.17 656.24,-398.88"/>
<polygon fill="#63b8ff" stroke="#63b8ff" points="583.53,-431.32 576.15,-438.92 586.66,-437.58 583.53,-431.32"/>
</g>
<!-- Node6 -->
<g id="node6" class="node">
<title>Node6</title>
<g id="a_node6"><a xlink:href="state__api__impl_8cpp.html" target="_top" xlink:title=" ">
<polygon fill="white" stroke="#666666" points="881,-321.5 759,-321.5 759,-291.5 881,-291.5 881,-321.5"/>
<text text-anchor="start" x="767" y="-309.5" font-family="Helvetica,sans-Serif" font-size="10.00">src/api/service/state</text>
<text text-anchor="middle" x="820" y="-298.5" font-family="Helvetica,sans-Serif" font-size="10.00">/impl/state_api_impl.cpp</text>
</a>
</g>
</g>
<!-- Node5&#45;&gt;Node6 -->
<g id="edge5" class="edge">
<title>Node5&#45;&gt;Node6</title>
<path fill="none" stroke="#63b8ff" d="M825.25,-356.73C824.01,-345.08 822.59,-331.76 821.54,-321.92"/>
<polygon fill="#63b8ff" stroke="#63b8ff" points="821.76,-356.96 826.3,-366.53 828.72,-356.22 821.76,-356.96"/>
</g>
<!-- Node5&#45;&gt;Node7 -->
<g id="edge6" class="edge">
<title>Node5&#45;&gt;Node7</title>
<path fill="none" stroke="#63b8ff" d="M862.52,-362.27C884.28,-349.52 911.85,-333.37 931.4,-321.92"/>
<polygon fill="#63b8ff" stroke="#63b8ff" points="860.84,-359.2 853.99,-367.27 864.38,-365.24 860.84,-359.2"/>
</g>
<!-- Node8 -->
<g id="node8" class="node">
<title>Node8</title>
<g id="a_node8"><a xlink:href="application__injector_8cpp.html" target="_top" xlink:title=" ">
<polygon fill="white" stroke="#666666" points="928,-250 814,-250 814,-220 928,-220 928,-250"/>
<text text-anchor="start" x="822" y="-238" font-family="Helvetica,sans-Serif" font-size="10.00">src/injector/application</text>
<text text-anchor="middle" x="871" y="-227" font-family="Helvetica,sans-Serif" font-size="10.00">_injector.cpp</text>
</a>
</g>
</g>
<!-- Node7&#45;&gt;Node8 -->
<g id="edge7" class="edge">
<title>Node7&#45;&gt;Node8</title>
<path fill="none" stroke="#63b8ff" d="M929.62,-283.93C916.28,-273.02 900.44,-260.07 888.59,-250.38"/>
<polygon fill="#63b8ff" stroke="#63b8ff" points="927.26,-286.52 937.22,-290.14 931.69,-281.1 927.26,-286.52"/>
</g>
<!-- Node9 -->
<g id="node9" class="node">
<title>Node9</title>
<g id="a_node9"><a xlink:href="block__producing__node__injector_8hpp.html" target="_top" xlink:title=" ">
<polygon fill="white" stroke="#666666" points="950.5,-184 805.5,-184 805.5,-154 950.5,-154 950.5,-184"/>
<text text-anchor="start" x="813.5" y="-172" font-family="Helvetica,sans-Serif" font-size="10.00">src/injector/block</text>
<text text-anchor="middle" x="878" y="-161" font-family="Helvetica,sans-Serif" font-size="10.00">_producing_node_injector.hpp</text>
</a>
</g>
</g>
<!-- Node7&#45;&gt;Node9 -->
<g id="edge8" class="edge">
<title>Node7&#45;&gt;Node9</title>
<path fill="none" stroke="#63b8ff" d="M954.6,-279.87C952.64,-262 947.98,-238.19 937,-220 928.26,-205.52 913.83,-193.18 901.43,-184.38"/>
<polygon fill="#63b8ff" stroke="#63b8ff" points="951.1,-279.99 955.44,-289.65 958.07,-279.38 951.1,-279.99"/>
</g>
<!-- Node14 -->
<g id="node14" class="node">
<title>Node14</title>
<g id="a_node14"><a xlink:href="syncing__node__injector_8hpp.html" target="_top" xlink:title=" ">
<polygon fill="white" stroke="#666666" points="1093.5,-250 992.5,-250 992.5,-220 1093.5,-220 1093.5,-250"/>
<text text-anchor="start" x="1000.5" y="-238" font-family="Helvetica,sans-Serif" font-size="10.00">src/injector/syncing</text>
<text text-anchor="middle" x="1043" y="-227" font-family="Helvetica,sans-Serif" font-size="10.00">_node_injector.hpp</text>
</a>
</g>
</g>
<!-- Node7&#45;&gt;Node14 -->
<g id="edge13" class="edge">
<title>Node7&#45;&gt;Node14</title>
<path fill="none" stroke="#63b8ff" d="M983,-283.93C996.66,-273.02 1012.87,-260.07 1025,-250.38"/>
<polygon fill="#63b8ff" stroke="#63b8ff" points="980.84,-281.18 975.21,-290.15 985.21,-286.65 980.84,-281.18"/>
</g>
<!-- Node18 -->
<g id="node18" class="node">
<title>Node18</title>
<g id="a_node18"><a xlink:href="validating__node__injector_8hpp.html" target="_top" xlink:title=" ">
<polygon fill="white" stroke="#666666" points="791.5,-250 682.5,-250 682.5,-220 791.5,-220 791.5,-250"/>
<text text-anchor="start" x="690.5" y="-238" font-family="Helvetica,sans-Serif" font-size="10.00">src/injector/validating</text>
<text text-anchor="middle" x="737" y="-227" font-family="Helvetica,sans-Serif" font-size="10.00">_node_injector.hpp</text>
</a>
</g>
</g>
<!-- Node7&#45;&gt;Node18 -->
<g id="edge17" class="edge">
<title>Node7&#45;&gt;Node18</title>
<path fill="none" stroke="#63b8ff" d="M899.44,-287.55C863.11,-276.02 816.54,-261.24 782.58,-250.47"/>
<polygon fill="#63b8ff" stroke="#63b8ff" points="898.32,-290.87 908.91,-290.56 900.44,-284.2 898.32,-290.87"/>
</g>
<!-- Node10 -->
<g id="node10" class="node">
<title>Node10</title>
<g id="a_node10"><a xlink:href="block__producing__node__application_8hpp.html" target="_top" xlink:title=" ">
<polygon fill="white" stroke="#666666" points="787,-118 671,-118 671,-77 787,-77 787,-118"/>
<text text-anchor="start" x="679" y="-106" font-family="Helvetica,sans-Serif" font-size="10.00">src/application/impl</text>
<text text-anchor="start" x="679" y="-95" font-family="Helvetica,sans-Serif" font-size="10.00">/block_producing_node</text>
<text text-anchor="middle" x="729" y="-84" font-family="Helvetica,sans-Serif" font-size="10.00">_application.hpp</text>
</a>
</g>
</g>
<!-- Node9&#45;&gt;Node10 -->
<g id="edge9" class="edge">
<title>Node9&#45;&gt;Node10</title>
<path fill="none" stroke="#63b8ff" d="M836.94,-148.85C816.66,-139.39 792.2,-127.98 771.7,-118.42"/>
<polygon fill="#63b8ff" stroke="#63b8ff" points="835.21,-151.9 845.76,-152.96 838.17,-145.56 835.21,-151.9"/>
</g>
<!-- Node13 -->
<g id="node13" class="node">
<title>Node13</title>
<g id="a_node13"><a xlink:href="block__producing__node__injector_8cpp.html" target="_top" xlink:title=" ">
<polygon fill="white" stroke="#666666" points="950.5,-112.5 805.5,-112.5 805.5,-82.5 950.5,-82.5 950.5,-112.5"/>
<text text-anchor="start" x="813.5" y="-100.5" font-family="Helvetica,sans-Serif" font-size="10.00">src/injector/block</text>
<text text-anchor="middle" x="878" y="-89.5" font-family="Helvetica,sans-Serif" font-size="10.00">_producing_node_injector.cpp</text>
</a>
</g>
</g>
<!-- Node9&#45;&gt;Node13 -->
<g id="edge12" class="edge">
<title>Node9&#45;&gt;Node13</title>
<path fill="none" stroke="#63b8ff" d="M878,-142.26C878,-132.33 878,-121.36 878,-112.88"/>
<polygon fill="#63b8ff" stroke="#63b8ff" points="874.5,-142.09 878,-152.09 881.5,-142.09 874.5,-142.09"/>
</g>
<!-- Node11 -->
<g id="node11" class="node">
<title>Node11</title>
<g id="a_node11"><a xlink:href="app__delegate_8cpp.html" target="_top" xlink:title=" ">
<polygon fill="white" stroke="#666666" points="676,-30 560,-30 560,-11 676,-11 676,-30"/>
<text text-anchor="middle" x="618" y="-18" font-family="Helvetica,sans-Serif" font-size="10.00">node/app_delegate.cpp</text>
</a>
</g>
</g>
<!-- Node10&#45;&gt;Node11 -->
<g id="edge10" class="edge">
<title>Node10&#45;&gt;Node11</title>
<path fill="none" stroke="#63b8ff" d="M690.08,-70.2C669.51,-56.31 645.61,-40.15 631.15,-30.38"/>
<polygon fill="#63b8ff" stroke="#63b8ff" points="688.05,-73.05 698.29,-75.75 691.96,-67.25 688.05,-73.05"/>
</g>
<!-- Node12 -->
<g id="node12" class="node">
<title>Node12</title>
<g id="a_node12"><a xlink:href="block__producing__node__application_8cpp.html" target="_top" xlink:title=" ">
<polygon fill="white" stroke="#666666" points="810,-41 694,-41 694,0 810,0 810,-41"/>
<text text-anchor="start" x="702" y="-29" font-family="Helvetica,sans-Serif" font-size="10.00">src/application/impl</text>
<text text-anchor="start" x="702" y="-18" font-family="Helvetica,sans-Serif" font-size="10.00">/block_producing_node</text>
<text text-anchor="middle" x="752" y="-7" font-family="Helvetica,sans-Serif" font-size="10.00">_application.cpp</text>
</a>
</g>
</g>
<!-- Node10&#45;&gt;Node12 -->
<g id="edge11" class="edge">
<title>Node10&#45;&gt;Node12</title>
<path fill="none" stroke="#63b8ff" d="M738.37,-65.93C740.92,-57.63 743.61,-48.87 745.92,-41.33"/>
<polygon fill="#63b8ff" stroke="#63b8ff" points="735.07,-64.76 735.49,-75.35 741.76,-66.81 735.07,-64.76"/>
</g>
<!-- Node15 -->
<g id="node15" class="node">
<title>Node15</title>
<g id="a_node15"><a xlink:href="syncing__node__application_8hpp.html" target="_top" xlink:title=" ">
<polygon fill="white" stroke="#666666" points="1117.5,-184 968.5,-184 968.5,-154 1117.5,-154 1117.5,-184"/>
<text text-anchor="start" x="976.5" y="-172" font-family="Helvetica,sans-Serif" font-size="10.00">src/application/impl</text>
<text text-anchor="middle" x="1043" y="-161" font-family="Helvetica,sans-Serif" font-size="10.00">/syncing_node_application.hpp</text>
</a>
</g>
</g>
<!-- Node14&#45;&gt;Node15 -->
<g id="edge14" class="edge">
<title>Node14&#45;&gt;Node15</title>
<path fill="none" stroke="#63b8ff" d="M1043,-208.39C1043,-200.13 1043,-191.28 1043,-184.16"/>
<polygon fill="#63b8ff" stroke="#63b8ff" points="1039.5,-208.28 1043,-218.28 1046.5,-208.28 1039.5,-208.28"/>
</g>
<!-- Node17 -->
<g id="node17" class="node">
<title>Node17</title>
<g id="a_node17"><a xlink:href="syncing__node__injector_8cpp.html" target="_top" xlink:title=" ">
<polygon fill="white" stroke="#666666" points="1236.5,-184 1135.5,-184 1135.5,-154 1236.5,-154 1236.5,-184"/>
<text text-anchor="start" x="1143.5" y="-172" font-family="Helvetica,sans-Serif" font-size="10.00">src/injector/syncing</text>
<text text-anchor="middle" x="1186" y="-161" font-family="Helvetica,sans-Serif" font-size="10.00">_node_injector.cpp</text>
</a>
</g>
</g>
<!-- Node14&#45;&gt;Node17 -->
<g id="edge16" class="edge">
<title>Node14&#45;&gt;Node17</title>
<path fill="none" stroke="#63b8ff" d="M1085.47,-214.99C1107.44,-205.16 1133.8,-193.36 1154.02,-184.31"/>
<polygon fill="#63b8ff" stroke="#63b8ff" points="1084.17,-211.74 1076.47,-219.02 1087.03,-218.13 1084.17,-211.74"/>
</g>
<!-- Node16 -->
<g id="node16" class="node">
<title>Node16</title>
<g id="a_node16"><a xlink:href="syncing__node__application_8cpp.html" target="_top" xlink:title=" ">
<polygon fill="white" stroke="#666666" points="1117.5,-112.5 968.5,-112.5 968.5,-82.5 1117.5,-82.5 1117.5,-112.5"/>
<text text-anchor="start" x="976.5" y="-100.5" font-family="Helvetica,sans-Serif" font-size="10.00">src/application/impl</text>
<text text-anchor="middle" x="1043" y="-89.5" font-family="Helvetica,sans-Serif" font-size="10.00">/syncing_node_application.cpp</text>
</a>
</g>
</g>
<!-- Node15&#45;&gt;Node16 -->
<g id="edge15" class="edge">
<title>Node15&#45;&gt;Node16</title>
<path fill="none" stroke="#63b8ff" d="M1043,-142.26C1043,-132.33 1043,-121.36 1043,-112.88"/>
<polygon fill="#63b8ff" stroke="#63b8ff" points="1039.5,-142.09 1043,-152.09 1046.5,-142.09 1039.5,-142.09"/>
</g>
<!-- Node18&#45;&gt;Node9 -->
<g id="edge21" class="edge">
<title>Node18&#45;&gt;Node9</title>
<path fill="none" stroke="#63b8ff" d="M778.88,-214.99C800.53,-205.16 826.53,-193.36 846.46,-184.31"/>
<polygon fill="#63b8ff" stroke="#63b8ff" points="777.68,-211.69 770.02,-219.01 780.57,-218.07 777.68,-211.69"/>
</g>
<!-- Node18&#45;&gt;Node19 -->
<g id="edge18" class="edge">
<title>Node18&#45;&gt;Node19</title>
<path fill="none" stroke="#63b8ff" d="M686.11,-215.8C658.29,-205.86 624.32,-193.71 598.35,-184.43"/>
<polygon fill="#63b8ff" stroke="#63b8ff" points="684.81,-219.06 695.4,-219.13 687.17,-212.47 684.81,-219.06"/>
</g>
<!-- Node21 -->
<g id="node21" class="node">
<title>Node21</title>
<g id="a_node21"><a xlink:href="validating__node__injector_8cpp.html" target="_top" xlink:title=" ">
<polygon fill="white" stroke="#666666" points="787.5,-184 678.5,-184 678.5,-154 787.5,-154 787.5,-184"/>
<text text-anchor="start" x="686.5" y="-172" font-family="Helvetica,sans-Serif" font-size="10.00">src/injector/validating</text>
<text text-anchor="middle" x="733" y="-161" font-family="Helvetica,sans-Serif" font-size="10.00">_node_injector.cpp</text>
</a>
</g>
</g>
<!-- Node18&#45;&gt;Node21 -->
<g id="edge22" class="edge">
<title>Node18&#45;&gt;Node21</title>
<path fill="none" stroke="#63b8ff" d="M735.4,-208.39C734.88,-200.13 734.33,-191.28 733.89,-184.16"/>
<polygon fill="#63b8ff" stroke="#63b8ff" points="731.9,-208.52 736.02,-218.29 738.89,-208.09 731.9,-208.52"/>
</g>
<!-- Node19&#45;&gt;Node11 -->
<g id="edge19" class="edge">
<title>Node19&#45;&gt;Node11</title>
<path fill="none" stroke="#63b8ff" d="M580.04,-145.11C586.71,-137.08 593.46,-127.65 598,-118 612.12,-87.96 616.33,-48.03 617.53,-30.45"/>
<polygon fill="#63b8ff" stroke="#63b8ff" points="577.63,-142.56 573.67,-152.38 582.89,-147.17 577.63,-142.56"/>
</g>
<!-- Node20 -->
<g id="node20" class="node">
<title>Node20</title>
<g id="a_node20"><a xlink:href="validating__node__application_8cpp.html" target="_top" xlink:title=" ">
<polygon fill="white" stroke="#666666" points="589.5,-112.5 432.5,-112.5 432.5,-82.5 589.5,-82.5 589.5,-112.5"/>
<text text-anchor="start" x="440.5" y="-100.5" font-family="Helvetica,sans-Serif" font-size="10.00">src/application/impl</text>
<text text-anchor="middle" x="511" y="-89.5" font-family="Helvetica,sans-Serif" font-size="10.00">/validating_node_application.cpp</text>
</a>
</g>
</g>
<!-- Node19&#45;&gt;Node20 -->
<g id="edge20" class="edge">
<title>Node19&#45;&gt;Node20</title>
<path fill="none" stroke="#63b8ff" d="M541.91,-144.2C534.87,-133.79 526.84,-121.92 520.73,-112.88"/>
<polygon fill="#63b8ff" stroke="#63b8ff" points="538.91,-146.02 547.41,-152.35 544.71,-142.1 538.91,-146.02"/>
</g>
<!-- Node23 -->
<g id="node23" class="node">
<title>Node23</title>
<g id="a_node23"><a xlink:href="get__runtime__version_8cpp.html" target="_top" xlink:title=" ">
<polygon fill="white" stroke="#666666" points="139.5,-327 28.5,-327 28.5,-286 139.5,-286 139.5,-327"/>
<text text-anchor="start" x="36.5" y="-315" font-family="Helvetica,sans-Serif" font-size="10.00">src/api/service/state</text>
<text text-anchor="start" x="36.5" y="-304" font-family="Helvetica,sans-Serif" font-size="10.00">/requests/get_runtime</text>
<text text-anchor="middle" x="84" y="-293" font-family="Helvetica,sans-Serif" font-size="10.00">_version.cpp</text>
</a>
</g>
</g>
<!-- Node22&#45;&gt;Node23 -->
<g id="edge24" class="edge">
<title>Node22&#45;&gt;Node23</title>
<path fill="none" stroke="#63b8ff" d="M88.68,-351.36C87.81,-343.24 86.9,-334.7 86.12,-327.33"/>
<polygon fill="#63b8ff" stroke="#63b8ff" points="85.2,-351.72 89.74,-361.29 92.16,-350.97 85.2,-351.72"/>
</g>
<!-- Node24 -->
<g id="node24" class="node">
<title>Node24</title>
<g id="a_node24"><a xlink:href="state__jrpc__processor_8cpp.html" target="_top" xlink:title=" ">
<polygon fill="white" stroke="#666666" points="609,-321.5 481,-321.5 481,-291.5 609,-291.5 609,-321.5"/>
<text text-anchor="start" x="489" y="-309.5" font-family="Helvetica,sans-Serif" font-size="10.00">src/api/service/state</text>
<text text-anchor="middle" x="545" y="-298.5" font-family="Helvetica,sans-Serif" font-size="10.00">/state_jrpc_processor.cpp</text>
</a>
</g>
</g>
<!-- Node22&#45;&gt;Node24 -->
<g id="edge25" class="edge">
<title>Node22&#45;&gt;Node24</title>
<path fill="none" stroke="#63b8ff" d="M158.66,-362.64C296.44,-335.22 336.64,-352.64 472,-327 479.48,-325.58 487.31,-323.81 494.96,-321.91"/>
<polygon fill="#63b8ff" stroke="#63b8ff" points="158.28,-359.15 149.18,-364.58 159.67,-366.01 158.28,-359.15"/>
</g>
<!-- Node25&#45;&gt;Node24 -->
<g id="edge28" class="edge">
<title>Node25&#45;&gt;Node24</title>
<path fill="none" stroke="#63b8ff" d="M294.57,-365.3C297.75,-364.51 300.91,-363.74 304,-363 378.27,-345.27 397.76,-344.86 472,-327 478.5,-325.44 485.31,-323.72 492.05,-321.98"/>
<polygon fill="#63b8ff" stroke="#63b8ff" points="293.99,-361.83 285.15,-367.67 295.7,-368.62 293.99,-361.83"/>
</g>
<!-- Node26 -->
<g id="node26" class="node">
<title>Node26</title>
<g id="a_node26"><a xlink:href="get__storage_8cpp.html" target="_top" xlink:title=" ">
<polygon fill="white" stroke="#666666" points="286.5,-321.5 157.5,-321.5 157.5,-291.5 286.5,-291.5 286.5,-321.5"/>
<text text-anchor="start" x="165.5" y="-309.5" font-family="Helvetica,sans-Serif" font-size="10.00">src/api/service/state</text>
<text text-anchor="middle" x="222" y="-298.5" font-family="Helvetica,sans-Serif" font-size="10.00">/requests/get_storage.cpp</text>
</a>
</g>
</g>
<!-- Node25&#45;&gt;Node26 -->
<g id="edge27" class="edge">
<title>Node25&#45;&gt;Node26</title>
<path fill="none" stroke="#63b8ff" d="M227.25,-356.73C226.01,-345.08 224.59,-331.76 223.54,-321.92"/>
<polygon fill="#63b8ff" stroke="#63b8ff" points="223.76,-356.96 228.3,-366.53 230.72,-356.22 223.76,-356.96"/>
</g>
<!-- Node27&#45;&gt;Node24 -->
<g id="edge31" class="edge">
<title>Node27&#45;&gt;Node24</title>
<path fill="none" stroke="#63b8ff" d="M431.51,-363.13C457.78,-350.26 491.7,-333.63 515.59,-321.92"/>
<polygon fill="#63b8ff" stroke="#63b8ff" points="430.3,-359.83 422.86,-367.37 433.38,-366.11 430.3,-359.83"/>
</g>
<!-- Node28 -->
<g id="node28" class="node">
<title>Node28</title>
<g id="a_node28"><a xlink:href="subscribe__storage_8cpp.html" target="_top" xlink:title=" ">
<polygon fill="white" stroke="#666666" points="463,-321.5 305,-321.5 305,-291.5 463,-291.5 463,-321.5"/>
<text text-anchor="start" x="313" y="-309.5" font-family="Helvetica,sans-Serif" font-size="10.00">src/api/service/state</text>
<text text-anchor="middle" x="384" y="-298.5" font-family="Helvetica,sans-Serif" font-size="10.00">/requests/subscribe_storage.cpp</text>
</a>
</g>
</g>
<!-- Node27&#45;&gt;Node28 -->
<g id="edge30" class="edge">
<title>Node27&#45;&gt;Node28</title>
<path fill="none" stroke="#63b8ff" d="M389.25,-356.73C388.01,-345.08 386.59,-331.76 385.54,-321.92"/>
<polygon fill="#63b8ff" stroke="#63b8ff" points="385.76,-356.96 390.3,-366.53 392.72,-356.22 385.76,-356.96"/>
</g>
<!-- Node29&#45;&gt;Node24 -->
<g id="edge34" class="edge">
<title>Node29&#45;&gt;Node24</title>
<path fill="none" stroke="#63b8ff" d="M545.58,-351.28C545.45,-341.07 545.3,-330.21 545.19,-321.86"/>
<polygon fill="#63b8ff" stroke="#63b8ff" points="542.08,-351.33 545.72,-361.28 549.08,-351.24 542.08,-351.33"/>
</g>
<!-- Node30 -->
<g id="node30" class="node">
<title>Node30</title>
<g id="a_node30"><a xlink:href="unsubscribe__storage_8cpp.html" target="_top" xlink:title=" ">
<polygon fill="white" stroke="#666666" points="740.5,-327 627.5,-327 627.5,-286 740.5,-286 740.5,-327"/>
<text text-anchor="start" x="635.5" y="-315" font-family="Helvetica,sans-Serif" font-size="10.00">src/api/service/state</text>
<text text-anchor="start" x="635.5" y="-304" font-family="Helvetica,sans-Serif" font-size="10.00">/requests/unsubscribe</text>
<text text-anchor="middle" x="684" y="-293" font-family="Helvetica,sans-Serif" font-size="10.00">_storage.cpp</text>
</a>
</g>
</g>
<!-- Node29&#45;&gt;Node30 -->
<g id="edge33" class="edge">
<title>Node29&#45;&gt;Node30</title>
<path fill="none" stroke="#63b8ff" d="M592.28,-357.35C610.17,-347.63 630.34,-336.66 647.21,-327.49"/>
<polygon fill="#63b8ff" stroke="#63b8ff" points="591.06,-354.03 583.95,-361.88 594.41,-360.18 591.06,-354.03"/>
</g>
<!-- Node31&#45;&gt;Node7 -->
<g id="edge37" class="edge">
<title>Node31&#45;&gt;Node7</title>
<path fill="none" stroke="#63b8ff" d="M749.84,-365.12C799.49,-351.78 863.78,-334.42 890,-327 895.75,-325.37 901.77,-323.64 907.74,-321.9"/>
<polygon fill="#63b8ff" stroke="#63b8ff" points="749.06,-361.71 740.31,-367.68 750.87,-368.47 749.06,-361.71"/>
</g>
<!-- Node31&#45;&gt;Node24 -->
<g id="edge36" class="edge">
<title>Node31&#45;&gt;Node24</title>
<path fill="none" stroke="#63b8ff" d="M647.88,-362.62C623.99,-349.82 593.48,-333.47 571.91,-321.92"/>
<polygon fill="#63b8ff" stroke="#63b8ff" points="646.2,-365.69 656.67,-367.32 649.51,-359.52 646.2,-365.69"/>
</g>
<!-- Node32&#45;&gt;Node7 -->
<g id="edge42" class="edge">
<title>Node32&#45;&gt;Node7</title>
<path fill="none" stroke="#63b8ff" d="M973.59,-494.36C969.35,-449.35 960.71,-357.52 957.36,-321.99"/>
<polygon fill="#63b8ff" stroke="#63b8ff" points="970.09,-494.59 974.51,-504.22 977.06,-493.94 970.09,-494.59"/>
</g>
<!-- Node33 -->
<g id="node33" class="node">
<title>Node33</title>
<g id="a_node33"><a xlink:href="http__listener__impl_8cpp.html" target="_top" xlink:title=" ">
<polygon fill="white" stroke="#666666" points="1117,-470 983,-470 983,-440 1117,-440 1117,-470"/>
<text text-anchor="start" x="991" y="-458" font-family="Helvetica,sans-Serif" font-size="10.00">src/api/transport/impl</text>
<text text-anchor="middle" x="1050" y="-447" font-family="Helvetica,sans-Serif" font-size="10.00">/http/http_listener_impl.cpp</text>
</a>
</g>
</g>
<!-- Node32&#45;&gt;Node33 -->
<g id="edge41" class="edge">
<title>Node32&#45;&gt;Node33</title>
<path fill="none" stroke="#63b8ff" d="M1000.95,-498.42C1011.63,-489.18 1023.81,-478.65 1033.37,-470.39"/>
<polygon fill="#63b8ff" stroke="#63b8ff" points="998.84,-495.62 993.57,-504.81 1003.42,-500.91 998.84,-495.62"/>
</g>
<!-- Node34&#45;&gt;Node7 -->
<g id="edge45" class="edge">
<title>Node34&#45;&gt;Node7</title>
<path fill="none" stroke="#63b8ff" d="M1143.31,-494.51C1141.2,-477.89 1136.49,-456.33 1126,-440 1090.41,-384.59 1023.4,-342.74 985,-322"/>
<polygon fill="#63b8ff" stroke="#63b8ff" points="1139.79,-494.49 1144.27,-504.09 1146.75,-493.79 1139.79,-494.49"/>
</g>
<!-- Node35 -->
<g id="node35" class="node">
<title>Node35</title>
<g id="a_node35"><a xlink:href="ws__listener__impl_8cpp.html" target="_top" xlink:title=" ">
<polygon fill="white" stroke="#666666" points="1299,-470 1173,-470 1173,-440 1299,-440 1299,-470"/>
<text text-anchor="start" x="1181" y="-458" font-family="Helvetica,sans-Serif" font-size="10.00">src/api/transport/impl</text>
<text text-anchor="middle" x="1236" y="-447" font-family="Helvetica,sans-Serif" font-size="10.00">/ws/ws_listener_impl.cpp</text>
</a>
</g>
</g>
<!-- Node34&#45;&gt;Node35 -->
<g id="edge44" class="edge">
<title>Node34&#45;&gt;Node35</title>
<path fill="none" stroke="#63b8ff" d="M1174.5,-499.25C1187.91,-489.82 1203.45,-478.9 1215.55,-470.39"/>
<polygon fill="#63b8ff" stroke="#63b8ff" points="1172.6,-496.31 1166.43,-504.93 1176.63,-502.04 1172.6,-496.31"/>
</g>
</g>
</svg>
