<?xml version="1.0" encoding="UTF-8" standalone="no"?>
<!DOCTYPE svg PUBLIC "-//W3C//DTD SVG 1.1//EN"
 "http://www.w3.org/Graphics/SVG/1.1/DTD/svg11.dtd">
<!-- Generated by graphviz version 7.0.5 (20221223.1930)
 -->
<!-- Title: src/application/impl/local_key_storage.hpp Pages: 1 -->
<svg width="816pt" height="401pt"
 viewBox="0.00 0.00 815.85 401.00" xmlns="http://www.w3.org/2000/svg" xmlns:xlink="http://www.w3.org/1999/xlink">
<g id="graph0" class="graph" transform="scale(1 1) rotate(0) translate(4 397)">
<title>src/application/impl/local_key_storage.hpp</title>
<!-- Node1 -->
<g id="node1" class="node">
<title>Node1</title>
<g id="a_node1"><a xlink:title=" ">
<polygon fill="#999999" stroke="#666666" points="529.85,-393 413.85,-393 413.85,-363 529.85,-363 529.85,-393"/>
<text text-anchor="start" x="421.85" y="-381" font-family="Helvetica,sans-Serif" font-size="10.00">src/application/impl</text>
<text text-anchor="middle" x="471.85" y="-370" font-family="Helvetica,sans-Serif" font-size="10.00">/local_key_storage.hpp</text>
</a>
</g>
</g>
<!-- Node2 -->
<g id="node2" class="node">
<title>Node2</title>
<g id="a_node2"><a xlink:href="key__storage_8hpp.html" target="_top" xlink:title=" ">
<polygon fill="white" stroke="#666666" points="341.35,-321.5 204.35,-321.5 204.35,-302.5 341.35,-302.5 341.35,-321.5"/>
<text text-anchor="middle" x="272.85" y="-309.5" font-family="Helvetica,sans-Serif" font-size="10.00">application/key_storage.hpp</text>
</a>
</g>
</g>
<!-- Node1&#45;&gt;Node2 -->
<g id="edge1" class="edge">
<title>Node1&#45;&gt;Node2</title>
<path fill="none" stroke="#63b8ff" d="M427.19,-362.64C392.39,-351.45 344.58,-336.07 311.43,-325.41"/>
<polygon fill="#63b8ff" stroke="#63b8ff" points="312.82,-322.18 302.23,-322.45 310.68,-328.84 312.82,-322.18"/>
</g>
<!-- Node21 -->
<g id="node21" class="node">
<title>Node21</title>
<g id="a_node21"><a xlink:title=" ">
<polygon fill="#e0e0e0" stroke="#999999" points="464.35,-321.5 359.35,-321.5 359.35,-302.5 464.35,-302.5 464.35,-321.5"/>
<text text-anchor="middle" x="411.85" y="-309.5" font-family="Helvetica,sans-Serif" font-size="10.00">boost/filesystem.hpp</text>
</a>
</g>
</g>
<!-- Node1&#45;&gt;Node21 -->
<g id="edge24" class="edge">
<title>Node1&#45;&gt;Node21</title>
<path fill="none" stroke="#63b8ff" d="M458.54,-362.8C449.46,-353.11 437.39,-340.24 427.8,-330.01"/>
<polygon fill="#63b8ff" stroke="#63b8ff" points="430.57,-327.85 421.18,-322.95 425.47,-332.64 430.57,-327.85"/>
</g>
<!-- Node22 -->
<g id="node22" class="node">
<title>Node22</title>
<g id="a_node22"><a xlink:title=" ">
<polygon fill="#e0e0e0" stroke="#999999" points="582.85,-327 482.85,-327 482.85,-297 582.85,-297 582.85,-327"/>
<text text-anchor="start" x="490.85" y="-315" font-family="Helvetica,sans-Serif" font-size="10.00">boost/property_tree</text>
<text text-anchor="middle" x="532.85" y="-304" font-family="Helvetica,sans-Serif" font-size="10.00">/ptree.hpp</text>
</a>
</g>
</g>
<!-- Node1&#45;&gt;Node22 -->
<g id="edge25" class="edge">
<title>Node1&#45;&gt;Node22</title>
<path fill="none" stroke="#63b8ff" d="M485.39,-362.8C493.05,-354.76 502.8,-344.53 511.48,-335.43"/>
<polygon fill="#63b8ff" stroke="#63b8ff" points="513.94,-337.91 518.31,-328.26 508.88,-333.08 513.94,-337.91"/>
</g>
<!-- Node23 -->
<g id="node23" class="node">
<title>Node23</title>
<g id="a_node23"><a xlink:href="buffer_8hpp.html" target="_top" xlink:title=" ">
<polygon fill="white" stroke="#666666" points="652.35,-145.5 569.35,-145.5 569.35,-126.5 652.35,-126.5 652.35,-145.5"/>
<text text-anchor="middle" x="610.85" y="-133.5" font-family="Helvetica,sans-Serif" font-size="10.00">base/buffer.hpp</text>
</a>
</g>
</g>
<!-- Node1&#45;&gt;Node23 -->
<g id="edge26" class="edge">
<title>Node1&#45;&gt;Node23</title>
<path fill="none" stroke="#63b8ff" d="M530.31,-366.12C553.05,-358.87 577.14,-346.85 591.85,-327 629.82,-275.78 621.46,-194.28 614.96,-156.91"/>
<polygon fill="#63b8ff" stroke="#63b8ff" points="618.41,-156.31 613.1,-147.14 611.53,-157.62 618.41,-156.31"/>
</g>
<!-- Node3 -->
<g id="node3" class="node">
<title>Node3</title>
<g id="a_node3"><a xlink:title=" ">
<polygon fill="#e0e0e0" stroke="#999999" points="298.35,-261 173.35,-261 173.35,-242 298.35,-242 298.35,-261"/>
<text text-anchor="middle" x="235.85" y="-249" font-family="Helvetica,sans-Serif" font-size="10.00">libp2p/peer/peer_info.hpp</text>
</a>
</g>
</g>
<!-- Node2&#45;&gt;Node3 -->
<g id="edge2" class="edge">
<title>Node2&#45;&gt;Node3</title>
<path fill="none" stroke="#63b8ff" d="M267.39,-302.37C262.15,-294.07 254.05,-281.28 247.38,-270.72"/>
<polygon fill="#63b8ff" stroke="#63b8ff" points="250.45,-269.03 242.14,-262.45 244.53,-272.77 250.45,-269.03"/>
</g>
<!-- Node4 -->
<g id="node4" class="node">
<title>Node4</title>
<g id="a_node4"><a xlink:title=" ">
<polygon fill="#e0e0e0" stroke="#999999" points="423.35,-261 316.35,-261 316.35,-242 423.35,-242 423.35,-261"/>
<text text-anchor="middle" x="369.85" y="-249" font-family="Helvetica,sans-Serif" font-size="10.00">libp2p/crypto/key.hpp</text>
</a>
</g>
</g>
<!-- Node2&#45;&gt;Node4 -->
<g id="edge3" class="edge">
<title>Node2&#45;&gt;Node4</title>
<path fill="none" stroke="#63b8ff" d="M287.58,-302.12C302.9,-292.88 327.12,-278.27 345.33,-267.29"/>
<polygon fill="#63b8ff" stroke="#63b8ff" points="346.93,-270.41 353.69,-262.25 343.31,-264.42 346.93,-270.41"/>
</g>
<!-- Node5 -->
<g id="node5" class="node">
<title>Node5</title>
<g id="a_node5"><a xlink:href="ed25519__types_8hpp.html" target="_top" xlink:title=" ">
<polygon fill="white" stroke="#666666" points="570.35,-261 441.35,-261 441.35,-242 570.35,-242 570.35,-261"/>
<text text-anchor="middle" x="505.85" y="-249" font-family="Helvetica,sans-Serif" font-size="10.00">crypto/ed25519_types.hpp</text>
</a>
</g>
</g>
<!-- Node2&#45;&gt;Node5 -->
<g id="edge4" class="edge">
<title>Node2&#45;&gt;Node5</title>
<path fill="none" stroke="#63b8ff" d="M308.49,-302.05C348.84,-291.92 414.7,-275.39 459.13,-264.23"/>
<polygon fill="#63b8ff" stroke="#63b8ff" points="459.9,-267.65 468.75,-261.82 458.2,-260.86 459.9,-267.65"/>
</g>
<!-- Node17 -->
<g id="node17" class="node">
<title>Node17</title>
<g id="a_node17"><a xlink:href="sr25519__types_8hpp.html" target="_top" xlink:title=" ">
<polygon fill="white" stroke="#666666" points="155.35,-261 28.35,-261 28.35,-242 155.35,-242 155.35,-261"/>
<text text-anchor="middle" x="91.85" y="-249" font-family="Helvetica,sans-Serif" font-size="10.00">crypto/sr25519_types.hpp</text>
</a>
</g>
</g>
<!-- Node2&#45;&gt;Node17 -->
<g id="edge16" class="edge">
<title>Node2&#45;&gt;Node17</title>
<path fill="none" stroke="#63b8ff" d="M245.36,-302.12C214.66,-292.19 164.77,-276.07 130.23,-264.9"/>
<polygon fill="#63b8ff" stroke="#63b8ff" points="131.63,-261.68 121.04,-261.93 129.48,-268.34 131.63,-261.68"/>
</g>
<!-- Node6 -->
<g id="node6" class="node">
<title>Node6</title>
<g id="a_node6"><a xlink:title=" ">
<polygon fill="#e0e0e0" stroke="#999999" points="556.35,-206 455.35,-206 455.35,-187 556.35,-187 556.35,-206"/>
<text text-anchor="middle" x="505.85" y="-194" font-family="Helvetica,sans-Serif" font-size="10.00">ed25519/ed25519.h</text>
</a>
</g>
</g>
<!-- Node5&#45;&gt;Node6 -->
<g id="edge5" class="edge">
<title>Node5&#45;&gt;Node6</title>
<path fill="none" stroke="#63b8ff" d="M505.85,-241.75C505.85,-235.27 505.85,-226.16 505.85,-217.9"/>
<polygon fill="#63b8ff" stroke="#63b8ff" points="509.35,-217.96 505.85,-207.96 502.35,-217.96 509.35,-217.96"/>
</g>
<!-- Node7 -->
<g id="node7" class="node">
<title>Node7</title>
<g id="a_node7"><a xlink:href="blob_8hpp.html" target="_top" xlink:title=" ">
<polygon fill="white" stroke="#666666" points="427.35,-206 350.35,-206 350.35,-187 427.35,-187 427.35,-206"/>
<text text-anchor="middle" x="388.85" y="-194" font-family="Helvetica,sans-Serif" font-size="10.00">base/blob.hpp</text>
</a>
</g>
</g>
<!-- Node5&#45;&gt;Node7 -->
<g id="edge6" class="edge">
<title>Node5&#45;&gt;Node7</title>
<path fill="none" stroke="#63b8ff" d="M486,-241.51C467.57,-233.16 439.87,-220.61 418.76,-211.05"/>
<polygon fill="#63b8ff" stroke="#63b8ff" points="420.34,-207.92 409.79,-206.98 417.45,-214.3 420.34,-207.92"/>
</g>
<!-- Node8 -->
<g id="node8" class="node">
<title>Node8</title>
<g id="a_node8"><a xlink:title=" ">
<polygon fill="#e0e0e0" stroke="#999999" points="550.85,-145.5 512.85,-145.5 512.85,-126.5 550.85,-126.5 550.85,-145.5"/>
<text text-anchor="middle" x="531.85" y="-133.5" font-family="Helvetica,sans-Serif" font-size="10.00">array</text>
</a>
</g>
</g>
<!-- Node7&#45;&gt;Node8 -->
<g id="edge7" class="edge">
<title>Node7&#45;&gt;Node8</title>
<path fill="none" stroke="#63b8ff" d="M413.81,-186.62C437.29,-178.08 473.31,-164.51 503.85,-151 503.96,-150.95 504.07,-150.9 504.18,-150.86"/>
<polygon fill="#63b8ff" stroke="#63b8ff" points="505.57,-154.07 513.13,-146.64 502.59,-147.73 505.57,-154.07"/>
</g>
<!-- Node9 -->
<g id="node9" class="node">
<title>Node9</title>
<g id="a_node9"><a xlink:title=" ">
<polygon fill="#e0e0e0" stroke="#999999" points="318.85,-145.5 190.85,-145.5 190.85,-126.5 318.85,-126.5 318.85,-145.5"/>
<text text-anchor="middle" x="254.85" y="-133.5" font-family="Helvetica,sans-Serif" font-size="10.00">boost/functional/hash.hpp</text>
</a>
</g>
</g>
<!-- Node7&#45;&gt;Node9 -->
<g id="edge8" class="edge">
<title>Node7&#45;&gt;Node9</title>
<path fill="none" stroke="#63b8ff" d="M368.5,-186.62C346.46,-176.99 311.06,-161.54 285.62,-150.43"/>
<polygon fill="#63b8ff" stroke="#63b8ff" points="287.35,-147.37 276.78,-146.57 284.55,-153.78 287.35,-147.37"/>
</g>
<!-- Node10 -->
<g id="node10" class="node">
<title>Node10</title>
<g id="a_node10"><a xlink:href="hexutil_8hpp.html" target="_top" xlink:title=" ">
<polygon fill="white" stroke="#666666" points="422.85,-145.5 336.85,-145.5 336.85,-126.5 422.85,-126.5 422.85,-145.5"/>
<text text-anchor="middle" x="379.85" y="-133.5" font-family="Helvetica,sans-Serif" font-size="10.00">base/hexutil.hpp</text>
</a>
</g>
</g>
<!-- Node7&#45;&gt;Node10 -->
<g id="edge9" class="edge">
<title>Node7&#45;&gt;Node10</title>
<path fill="none" stroke="#63b8ff" d="M387.52,-186.87C386.31,-179 384.48,-167.1 382.91,-156.89"/>
<polygon fill="#63b8ff" stroke="#63b8ff" points="386.4,-156.51 381.42,-147.16 379.48,-157.58 386.4,-156.51"/>
</g>
<!-- Node16 -->
<g id="node16" class="node">
<title>Node16</title>
<g id="a_node16"><a xlink:title=" ">
<polygon fill="#e0e0e0" stroke="#999999" points="494.85,-145.5 440.85,-145.5 440.85,-126.5 494.85,-126.5 494.85,-145.5"/>
<text text-anchor="middle" x="467.85" y="-133.5" font-family="Helvetica,sans-Serif" font-size="10.00">iostream</text>
</a>
</g>
</g>
<!-- Node7&#45;&gt;Node16 -->
<g id="edge15" class="edge">
<title>Node7&#45;&gt;Node16</title>
<path fill="none" stroke="#63b8ff" d="M400.85,-186.62C413.03,-177.6 432.14,-163.45 446.84,-152.56"/>
<polygon fill="#63b8ff" stroke="#63b8ff" points="448.57,-155.63 454.52,-146.87 444.41,-150.01 448.57,-155.63"/>
</g>
<!-- Node11 -->
<g id="node11" class="node">
<title>Node11</title>
<g id="a_node11"><a xlink:title=" ">
<polygon fill="#e0e0e0" stroke="#999999" points="497.85,-79.5 431.85,-79.5 431.85,-60.5 497.85,-60.5 497.85,-79.5"/>
<text text-anchor="middle" x="464.85" y="-67.5" font-family="Helvetica,sans-Serif" font-size="10.00">string_view</text>
</a>
</g>
</g>
<!-- Node10&#45;&gt;Node11 -->
<g id="edge10" class="edge">
<title>Node10&#45;&gt;Node11</title>
<path fill="none" stroke="#63b8ff" d="M391.67,-126.1C405.25,-115.88 427.76,-98.93 444.24,-86.52"/>
<polygon fill="#63b8ff" stroke="#63b8ff" points="446.04,-89.54 451.92,-80.73 441.83,-83.95 446.04,-89.54"/>
</g>
<!-- Node12 -->
<g id="node12" class="node">
<title>Node12</title>
<g id="a_node12"><a xlink:title=" ">
<polygon fill="#e0e0e0" stroke="#999999" points="559.85,-79.5 515.85,-79.5 515.85,-60.5 559.85,-60.5 559.85,-79.5"/>
<text text-anchor="middle" x="537.85" y="-67.5" font-family="Helvetica,sans-Serif" font-size="10.00">vector</text>
</a>
</g>
</g>
<!-- Node10&#45;&gt;Node12 -->
<g id="edge11" class="edge">
<title>Node10&#45;&gt;Node12</title>
<path fill="none" stroke="#63b8ff" d="M403.4,-126.13C429,-116.39 471.05,-100.12 506.85,-85 507.33,-84.8 507.81,-84.6 508.29,-84.39"/>
<polygon fill="#63b8ff" stroke="#63b8ff" points="509.43,-87.71 517.18,-80.49 506.62,-81.3 509.43,-87.71"/>
</g>
<!-- Node13 -->
<g id="node13" class="node">
<title>Node13</title>
<g id="a_node13"><a xlink:title=" ">
<polygon fill="#e0e0e0" stroke="#999999" points="186.35,-79.5 133.35,-79.5 133.35,-60.5 186.35,-60.5 186.35,-79.5"/>
<text text-anchor="middle" x="159.85" y="-67.5" font-family="Helvetica,sans-Serif" font-size="10.00">gsl/span</text>
</a>
</g>
</g>
<!-- Node10&#45;&gt;Node13 -->
<g id="edge12" class="edge">
<title>Node10&#45;&gt;Node13</title>
<path fill="none" stroke="#63b8ff" d="M349.26,-126.1C309.59,-114.56 240.43,-94.44 197.56,-81.97"/>
<polygon fill="#63b8ff" stroke="#63b8ff" points="198.77,-78.68 188.19,-79.24 196.81,-85.4 198.77,-78.68"/>
</g>
<!-- Node14 -->
<g id="node14" class="node">
<title>Node14</title>
<g id="a_node14"><a xlink:href="outcome_8hpp.html" target="_top" xlink:title=" ">
<polygon fill="white" stroke="#666666" points="413.35,-79.5 300.35,-79.5 300.35,-60.5 413.35,-60.5 413.35,-79.5"/>
<text text-anchor="middle" x="356.85" y="-67.5" font-family="Helvetica,sans-Serif" font-size="10.00">outcome/outcome.hpp</text>
</a>
</g>
</g>
<!-- Node10&#45;&gt;Node14 -->
<g id="edge13" class="edge">
<title>Node10&#45;&gt;Node14</title>
<path fill="none" stroke="#63b8ff" d="M376.65,-126.1C373.36,-116.93 368.12,-102.34 363.85,-90.48"/>
<polygon fill="#63b8ff" stroke="#63b8ff" points="367.21,-89.47 360.54,-81.25 360.62,-91.84 367.21,-89.47"/>
</g>
<!-- Node15 -->
<g id="node15" class="node">
<title>Node15</title>
<g id="a_node15"><a xlink:title=" ">
<polygon fill="#e0e0e0" stroke="#999999" points="427.35,-19 286.35,-19 286.35,0 427.35,0 427.35,-19"/>
<text text-anchor="middle" x="356.85" y="-7" font-family="Helvetica,sans-Serif" font-size="10.00">libp2p/outcome/outcome.hpp</text>
</a>
</g>
</g>
<!-- Node14&#45;&gt;Node15 -->
<g id="edge14" class="edge">
<title>Node14&#45;&gt;Node15</title>
<path fill="none" stroke="#63b8ff" d="M356.85,-60.37C356.85,-52.5 356.85,-40.6 356.85,-30.39"/>
<polygon fill="#63b8ff" stroke="#63b8ff" points="360.35,-30.68 356.85,-20.68 353.35,-30.68 360.35,-30.68"/>
</g>
<!-- Node17&#45;&gt;Node7 -->
<g id="edge20" class="edge">
<title>Node17&#45;&gt;Node7</title>
<path fill="none" stroke="#63b8ff" d="M142.23,-241.51C197.08,-231.72 284.26,-216.16 338.93,-206.41"/>
<polygon fill="#63b8ff" stroke="#63b8ff" points="339.36,-209.89 348.59,-204.68 338.13,-203 339.36,-209.89"/>
</g>
<!-- Node17&#45;&gt;Node13 -->
<g id="edge19" class="edge">
<title>Node17&#45;&gt;Node13</title>
<path fill="none" stroke="#63b8ff" d="M53.79,-241.58C35.01,-235.05 14.02,-224.08 2.85,-206 -1.59,-198.82 0.32,-195.06 2.85,-187 13.57,-152.89 21.34,-143.83 48.85,-121 70.38,-103.14 99.31,-90.38 122.24,-82.22"/>
<polygon fill="#63b8ff" stroke="#63b8ff" points="123.18,-85.6 131.53,-79.07 120.93,-78.97 123.18,-85.6"/>
</g>
<!-- Node18 -->
<g id="node18" class="node">
<title>Node18</title>
<g id="a_node18"><a xlink:title=" ">
<polygon fill="#e0e0e0" stroke="#999999" points="184.35,-206 125.35,-206 125.35,-187 184.35,-187 184.35,-206"/>
<text text-anchor="middle" x="154.85" y="-194" font-family="Helvetica,sans-Serif" font-size="10.00">sr25519.h</text>
</a>
</g>
</g>
<!-- Node17&#45;&gt;Node18 -->
<g id="edge17" class="edge">
<title>Node17&#45;&gt;Node18</title>
<path fill="none" stroke="#63b8ff" d="M102.54,-241.51C111.55,-233.93 124.68,-222.88 135.54,-213.75"/>
<polygon fill="#63b8ff" stroke="#63b8ff" points="137.77,-216.45 143.16,-207.33 133.26,-211.09 137.77,-216.45"/>
</g>
<!-- Node19 -->
<g id="node19" class="node">
<title>Node19</title>
<g id="a_node19"><a xlink:title=" ">
<polygon fill="#e0e0e0" stroke="#999999" points="172.85,-151 68.85,-151 68.85,-121 172.85,-121 172.85,-151"/>
<text text-anchor="start" x="76.85" y="-139" font-family="Helvetica,sans-Serif" font-size="10.00">boost/multiprecision</text>
<text text-anchor="middle" x="120.85" y="-128" font-family="Helvetica,sans-Serif" font-size="10.00">/cpp_int.hpp</text>
</a>
</g>
</g>
<!-- Node17&#45;&gt;Node19 -->
<g id="edge18" class="edge">
<title>Node17&#45;&gt;Node19</title>
<path fill="none" stroke="#63b8ff" d="M139.59,-241.5C159.59,-235.12 180.92,-224.3 192.85,-206 205.24,-187.01 186.11,-169.39 164.48,-156.72"/>
<polygon fill="#63b8ff" stroke="#63b8ff" points="166.24,-153.69 155.79,-151.97 162.89,-159.84 166.24,-153.69"/>
</g>
<!-- Node20 -->
<g id="node20" class="node">
<title>Node20</title>
<g id="a_node20"><a xlink:href="mp__utils_8hpp.html" target="_top" xlink:title=" ">
<polygon fill="white" stroke="#666666" points="107.35,-206 12.35,-206 12.35,-187 107.35,-187 107.35,-206"/>
<text text-anchor="middle" x="59.85" y="-194" font-family="Helvetica,sans-Serif" font-size="10.00">base/mp_utils.hpp</text>
</a>
</g>
</g>
<!-- Node17&#45;&gt;Node20 -->
<g id="edge21" class="edge">
<title>Node17&#45;&gt;Node20</title>
<path fill="none" stroke="#63b8ff" d="M86.57,-241.75C82.38,-234.81 76.37,-224.86 71.12,-216.16"/>
<polygon fill="#63b8ff" stroke="#63b8ff" points="74.2,-214.49 66.03,-207.74 68.21,-218.11 74.2,-214.49"/>
</g>
<!-- Node20&#45;&gt;Node13 -->
<g id="edge23" class="edge">
<title>Node20&#45;&gt;Node13</title>
<path fill="none" stroke="#63b8ff" d="M57.15,-186.9C53.06,-172.17 47.07,-141.68 59.85,-121 73.47,-98.97 100.07,-86.32 122.41,-79.26"/>
<polygon fill="#63b8ff" stroke="#63b8ff" points="123.18,-82.67 131.83,-76.55 121.25,-75.95 123.18,-82.67"/>
</g>
<!-- Node20&#45;&gt;Node19 -->
<g id="edge22" class="edge">
<title>Node20&#45;&gt;Node19</title>
<path fill="none" stroke="#63b8ff" d="M69.12,-186.62C76.64,-179.4 87.6,-168.89 97.49,-159.41"/>
<polygon fill="#63b8ff" stroke="#63b8ff" points="99.91,-161.93 104.7,-152.49 95.06,-156.88 99.91,-161.93"/>
</g>
<!-- Node23&#45;&gt;Node11 -->
<g id="edge27" class="edge">
<title>Node23&#45;&gt;Node11</title>
<path fill="none" stroke="#63b8ff" d="M590.55,-126.1C565.82,-115.26 523.8,-96.84 495.21,-84.31"/>
<polygon fill="#63b8ff" stroke="#63b8ff" points="496.93,-81.24 486.37,-80.43 494.12,-87.65 496.93,-81.24"/>
</g>
<!-- Node23&#45;&gt;Node12 -->
<g id="edge28" class="edge">
<title>Node23&#45;&gt;Node12</title>
<path fill="none" stroke="#63b8ff" d="M600.7,-126.1C589.26,-116.07 570.42,-99.56 556.35,-87.22"/>
<polygon fill="#63b8ff" stroke="#63b8ff" points="558.88,-84.78 549.05,-80.82 554.27,-90.05 558.88,-84.78"/>
</g>
<!-- Node23&#45;&gt;Node13 -->
<g id="edge31" class="edge">
<title>Node23&#45;&gt;Node13</title>
<path fill="none" stroke="#63b8ff" d="M581.09,-126.06C574.16,-124.19 566.79,-122.38 559.85,-121 490.93,-107.31 284.02,-84.33 198.01,-75.06"/>
<polygon fill="#63b8ff" stroke="#63b8ff" points="198.52,-71.6 188.2,-74.01 197.77,-78.56 198.52,-71.6"/>
</g>
<!-- Node23&#45;&gt;Node14 -->
<g id="edge32" class="edge">
<title>Node23&#45;&gt;Node14</title>
<path fill="none" stroke="#63b8ff" d="M578.78,-126.06C572.51,-124.35 565.98,-122.6 559.85,-121 507.2,-107.29 446.6,-92.49 405.42,-82.58"/>
<polygon fill="#63b8ff" stroke="#63b8ff" points="406.35,-79.21 395.81,-80.27 404.72,-86.01 406.35,-79.21"/>
</g>
<!-- Node24 -->
<g id="node24" class="node">
<title>Node24</title>
<g id="a_node24"><a xlink:title=" ">
<polygon fill="#e0e0e0" stroke="#999999" points="687.85,-85 577.85,-85 577.85,-55 687.85,-55 687.85,-85"/>
<text text-anchor="start" x="585.85" y="-73" font-family="Helvetica,sans-Serif" font-size="10.00">boost/container_hash</text>
<text text-anchor="middle" x="632.85" y="-62" font-family="Helvetica,sans-Serif" font-size="10.00">/hash.hpp</text>
</a>
</g>
</g>
<!-- Node23&#45;&gt;Node24 -->
<g id="edge29" class="edge">
<title>Node23&#45;&gt;Node24</title>
<path fill="none" stroke="#63b8ff" d="M613.91,-126.1C616.58,-118.33 620.59,-106.67 624.23,-96.08"/>
<polygon fill="#63b8ff" stroke="#63b8ff" points="627.53,-97.26 627.47,-86.66 620.91,-94.98 627.53,-97.26"/>
</g>
<!-- Node25 -->
<g id="node25" class="node">
<title>Node25</title>
<g id="a_node25"><a xlink:title=" ">
<polygon fill="#e0e0e0" stroke="#999999" points="807.85,-79.5 705.85,-79.5 705.85,-60.5 807.85,-60.5 807.85,-79.5"/>
<text text-anchor="middle" x="756.85" y="-67.5" font-family="Helvetica,sans-Serif" font-size="10.00">boost/operators.hpp</text>
</a>
</g>
</g>
<!-- Node23&#45;&gt;Node25 -->
<g id="edge30" class="edge">
<title>Node23&#45;&gt;Node25</title>
<path fill="none" stroke="#63b8ff" d="M631.15,-126.1C655.89,-115.26 697.9,-96.84 726.49,-84.31"/>
<polygon fill="#63b8ff" stroke="#63b8ff" points="727.58,-87.65 735.34,-80.43 724.77,-81.24 727.58,-87.65"/>
</g>
</g>
</svg>
