<?xml version="1.0" encoding="UTF-8" standalone="no"?>
<!DOCTYPE svg PUBLIC "-//W3C//DTD SVG 1.1//EN"
 "http://www.w3.org/Graphics/SVG/1.1/DTD/svg11.dtd">
<!-- Generated by graphviz version 7.0.5 (20221223.1930)
 -->
<!-- Title: src/extensions/impl/memory_extension.cpp Pages: 1 -->
<!--zoomable 335 -->
<svg id="main" version="1.1" xmlns="http://www.w3.org/2000/svg" xmlns:xlink="http://www.w3.org/1999/xlink" xml:space="preserve" onload="init(evt)">
<style type="text/css"><![CDATA[
.edge:hover path { stroke: red; }
.edge:hover polygon { stroke: red; fill: red; }
]]></style>
<script type="text/javascript"><![CDATA[
var edges = document.getElementsByTagName('g');
if (edges && edges.length) {
  for (var i=0;i<edges.length;i++) {
    if (edges[i].id.substr(0,4)=='edge') {
      edges[i].setAttribute('class','edge');
    }
  }
}
]]></script>
        <defs>
                <circle id="rim" cx="0" cy="0" r="7"/>
                <circle id="rim2" cx="0" cy="0" r="3.5"/>
                <g id="zoomPlus">
                        <use xlink:href="#rim" fill="#404040">
                                <set attributeName="fill" to="#808080" begin="zoomplus.mouseover" end="zoomplus.mouseout"/>
                        </use>
                        <path d="M-4,0h8M0,-4v8" fill="none" stroke="white" stroke-width="1.5" pointer-events="none"/>
                </g>
                <g id="zoomMin">
                        <use xlink:href="#rim" fill="#404040">
                                <set attributeName="fill" to="#808080" begin="zoomminus.mouseover" end="zoomminus.mouseout"/>
                        </use>
                        <path d="M-4,0h8" fill="none" stroke="white" stroke-width="1.5" pointer-events="none"/>
                </g>
                <g id="dirArrow">
                        <path fill="none" stroke="white" stroke-width="1.5" d="M0,-3.0v7 M-2.5,-0.5L0,-3.0L2.5,-0.5"/>
                </g>
               <g id="resetDef">
                       <use xlink:href="#rim2" fill="#404040">
                               <set attributeName="fill" to="#808080" begin="reset.mouseover" end="reset.mouseout"/>
                       </use>
               </g>
        </defs>

<script type="text/javascript">
var viewWidth = 754;
var viewHeight = 335;
var sectionId = 'dynsection-0';
</script>
<script xlink:href="svgpan.js"/>
<svg id="graph" class="graph">
<g id="viewport">
<title>src/extensions/impl/memory_extension.cpp</title>
<!-- Node1 -->
<g id="node1" class="node">
<title>Node1</title>
<g id="a_node1"><a xlink:title=" ">
<polygon fill="#999999" stroke="#666666" points="148.17,-327 29.17,-327 29.17,-297 148.17,-297 148.17,-327"/>
<text text-anchor="start" x="37.17" y="-315" font-family="Helvetica,sans-Serif" font-size="10.00">src/extensions/impl</text>
<text text-anchor="middle" x="88.67" y="-304" font-family="Helvetica,sans-Serif" font-size="10.00">/memory_extension.cpp</text>
</a>
</g>
</g>
<!-- Node2 -->
<g id="node2" class="node">
<title>Node2</title>
<g id="a_node2"><a xlink:title=" ">
<polygon fill="#e0e0e0" stroke="#999999" points="56.17,-79.5 17.17,-79.5 17.17,-60.5 56.17,-60.5 56.17,-79.5"/>
<text text-anchor="middle" x="36.67" y="-67.5" font-family="Helvetica,sans-Serif" font-size="10.00">utility</text>
</a>
</g>
</g>
<!-- Node1&#45;&gt;Node2 -->
<g id="edge1" class="edge">
<title>Node1&#45;&gt;Node2</title>
<path fill="none" stroke="#63b8ff" d="M76.29,-296.84C68.27,-287.19 58.01,-273.89 50.67,-261 21.98,-210.57 12.77,-196.95 1.67,-140 0.06,-131.71 -0.87,-129.05 1.67,-121 5.42,-109.13 13.1,-97.62 20.31,-88.64"/>
<polygon fill="#63b8ff" stroke="#63b8ff" points="22.89,-91.01 26.76,-81.15 17.59,-86.44 22.89,-91.01"/>
</g>
<!-- Node3 -->
<g id="node3" class="node">
<title>Node3</title>
<g id="a_node3"><a xlink:title=" ">
<polygon fill="#e0e0e0" stroke="#999999" points="117.67,-255.5 59.67,-255.5 59.67,-236.5 117.67,-236.5 117.67,-255.5"/>
<text text-anchor="middle" x="88.67" y="-243.5" font-family="Helvetica,sans-Serif" font-size="10.00">exception</text>
</a>
</g>
</g>
<!-- Node1&#45;&gt;Node3 -->
<g id="edge2" class="edge">
<title>Node1&#45;&gt;Node3</title>
<path fill="none" stroke="#63b8ff" d="M88.67,-296.8C88.67,-288.09 88.67,-276.81 88.67,-267.18"/>
<polygon fill="#63b8ff" stroke="#63b8ff" points="92.17,-267.36 88.67,-257.36 85.17,-267.36 92.17,-267.36"/>
</g>
<!-- Node4 -->
<g id="node4" class="node">
<title>Node4</title>
<g id="a_node4"><a xlink:href="memory__extension_8hpp.html" target="_top" xlink:title=" ">
<polygon fill="white" stroke="#666666" points="306.67,-261 184.67,-261 184.67,-231 306.67,-231 306.67,-261"/>
<text text-anchor="start" x="192.67" y="-249" font-family="Helvetica,sans-Serif" font-size="10.00">extensions/impl/memory</text>
<text text-anchor="middle" x="245.67" y="-238" font-family="Helvetica,sans-Serif" font-size="10.00">_extension.hpp</text>
</a>
</g>
</g>
<!-- Node1&#45;&gt;Node4 -->
<g id="edge3" class="edge">
<title>Node1&#45;&gt;Node4</title>
<path fill="none" stroke="#63b8ff" d="M123.91,-296.64C146.35,-287.49 175.66,-275.54 199.9,-265.66"/>
<polygon fill="#63b8ff" stroke="#63b8ff" points="200.94,-269.01 208.88,-262 198.3,-262.53 200.94,-269.01"/>
</g>
<!-- Node5 -->
<g id="node5" class="node">
<title>Node5</title>
<g id="a_node5"><a xlink:href="logger_8hpp.html" target="_top" xlink:title=" ">
<polygon fill="white" stroke="#666666" points="519.17,-195 434.17,-195 434.17,-176 519.17,-176 519.17,-195"/>
<text text-anchor="middle" x="476.67" y="-183" font-family="Helvetica,sans-Serif" font-size="10.00">base/logger.hpp</text>
</a>
</g>
</g>
<!-- Node4&#45;&gt;Node5 -->
<g id="edge4" class="edge">
<title>Node4&#45;&gt;Node5</title>
<path fill="none" stroke="#63b8ff" d="M302.77,-230.54C342.12,-220.57 393.75,-207.5 430.5,-198.19"/>
<polygon fill="#63b8ff" stroke="#63b8ff" points="431.1,-201.65 439.94,-195.8 429.38,-194.87 431.1,-201.65"/>
</g>
<!-- Node8 -->
<g id="node8" class="node">
<title>Node8</title>
<g id="a_node8"><a xlink:href="wasm__memory_8hpp.html" target="_top" xlink:title=" ">
<polygon fill="white" stroke="#666666" points="313.67,-195 177.67,-195 177.67,-176 313.67,-176 313.67,-195"/>
<text text-anchor="middle" x="245.67" y="-183" font-family="Helvetica,sans-Serif" font-size="10.00">runtime/wasm_memory.hpp</text>
</a>
</g>
</g>
<!-- Node4&#45;&gt;Node8 -->
<g id="edge7" class="edge">
<title>Node4&#45;&gt;Node8</title>
<path fill="none" stroke="#63b8ff" d="M245.67,-230.54C245.67,-223.34 245.67,-214.53 245.67,-206.68"/>
<polygon fill="#63b8ff" stroke="#63b8ff" points="249.17,-206.69 245.67,-196.69 242.17,-206.69 249.17,-206.69"/>
</g>
<!-- Node6 -->
<g id="node6" class="node">
<title>Node6</title>
<g id="a_node6"><a xlink:title=" ">
<polygon fill="#e0e0e0" stroke="#999999" points="521.17,-140 432.17,-140 432.17,-121 521.17,-121 521.17,-140"/>
<text text-anchor="middle" x="476.67" y="-128" font-family="Helvetica,sans-Serif" font-size="10.00">spdlog/fmt/ostr.h</text>
</a>
</g>
</g>
<!-- Node5&#45;&gt;Node6 -->
<g id="edge5" class="edge">
<title>Node5&#45;&gt;Node6</title>
<path fill="none" stroke="#63b8ff" d="M476.67,-175.75C476.67,-169.27 476.67,-160.16 476.67,-151.9"/>
<polygon fill="#63b8ff" stroke="#63b8ff" points="480.17,-151.96 476.67,-141.96 473.17,-151.96 480.17,-151.96"/>
</g>
<!-- Node7 -->
<g id="node7" class="node">
<title>Node7</title>
<g id="a_node7"><a xlink:title=" ">
<polygon fill="#e0e0e0" stroke="#999999" points="623.67,-140 539.67,-140 539.67,-121 623.67,-121 623.67,-140"/>
<text text-anchor="middle" x="581.67" y="-128" font-family="Helvetica,sans-Serif" font-size="10.00">spdlog/spdlog.h</text>
</a>
</g>
</g>
<!-- Node5&#45;&gt;Node7 -->
<g id="edge6" class="edge">
<title>Node5&#45;&gt;Node7</title>
<path fill="none" stroke="#63b8ff" d="M494.48,-175.51C510.8,-167.27 535.2,-154.96 554.05,-145.45"/>
<polygon fill="#63b8ff" stroke="#63b8ff" points="555.42,-148.67 562.77,-141.04 552.27,-142.42 555.42,-148.67"/>
</g>
<!-- Node9 -->
<g id="node9" class="node">
<title>Node9</title>
<g id="a_node9"><a xlink:title=" ">
<polygon fill="#e0e0e0" stroke="#999999" points="413.67,-140 375.67,-140 375.67,-121 413.67,-121 413.67,-140"/>
<text text-anchor="middle" x="394.67" y="-128" font-family="Helvetica,sans-Serif" font-size="10.00">array</text>
</a>
</g>
</g>
<!-- Node8&#45;&gt;Node9 -->
<g id="edge8" class="edge">
<title>Node8&#45;&gt;Node9</title>
<path fill="none" stroke="#63b8ff" d="M270.95,-175.51C296.93,-166.27 337.36,-151.89 364.88,-142.1"/>
<polygon fill="#63b8ff" stroke="#63b8ff" points="365.77,-145.5 374.02,-138.85 363.43,-138.9 365.77,-145.5"/>
</g>
<!-- Node10 -->
<g id="node10" class="node">
<title>Node10</title>
<g id="a_node10"><a xlink:title=" ">
<polygon fill="#e0e0e0" stroke="#999999" points="106.17,-140 11.17,-140 11.17,-121 106.17,-121 106.17,-140"/>
<text text-anchor="middle" x="58.67" y="-128" font-family="Helvetica,sans-Serif" font-size="10.00">boost/optional.hpp</text>
</a>
</g>
</g>
<!-- Node8&#45;&gt;Node10 -->
<g id="edge9" class="edge">
<title>Node8&#45;&gt;Node10</title>
<path fill="none" stroke="#63b8ff" d="M213.95,-175.51C182.83,-166.69 135.18,-153.18 100.87,-143.46"/>
<polygon fill="#63b8ff" stroke="#63b8ff" points="102.27,-140.22 91.69,-140.86 100.36,-146.95 102.27,-140.22"/>
</g>
<!-- Node11 -->
<g id="node11" class="node">
<title>Node11</title>
<g id="a_node11"><a xlink:title=" ">
<polygon fill="#e0e0e0" stroke="#999999" points="219.17,-79.5 166.17,-79.5 166.17,-60.5 219.17,-60.5 219.17,-79.5"/>
<text text-anchor="middle" x="192.67" y="-67.5" font-family="Helvetica,sans-Serif" font-size="10.00">gsl/span</text>
</a>
</g>
</g>
<!-- Node8&#45;&gt;Node11 -->
<g id="edge10" class="edge">
<title>Node8&#45;&gt;Node11</title>
<path fill="none" stroke="#63b8ff" d="M243.7,-175.58C240.73,-163.02 234.52,-139.58 225.67,-121 220.35,-109.81 212.83,-98.2 206.31,-88.99"/>
<polygon fill="#63b8ff" stroke="#63b8ff" points="209.18,-86.99 200.45,-80.99 203.53,-91.12 209.18,-86.99"/>
</g>
<!-- Node12 -->
<g id="node12" class="node">
<title>Node12</title>
<g id="a_node12"><a xlink:href="buffer_8hpp.html" target="_top" xlink:title=" ">
<polygon fill="white" stroke="#666666" points="357.17,-140 274.17,-140 274.17,-121 357.17,-121 357.17,-140"/>
<text text-anchor="middle" x="315.67" y="-128" font-family="Helvetica,sans-Serif" font-size="10.00">base/buffer.hpp</text>
</a>
</g>
</g>
<!-- Node8&#45;&gt;Node12 -->
<g id="edge11" class="edge">
<title>Node8&#45;&gt;Node12</title>
<path fill="none" stroke="#63b8ff" d="M257.55,-175.51C267.77,-167.77 282.74,-156.43 294.94,-147.2"/>
<polygon fill="#63b8ff" stroke="#63b8ff" points="296.91,-150.1 302.77,-141.27 292.68,-144.52 296.91,-150.1"/>
</g>
<!-- Node19 -->
<g id="node19" class="node">
<title>Node19</title>
<g id="a_node19"><a xlink:href="runtime_2types_8hpp.html" target="_top" xlink:title=" ">
<polygon fill="white" stroke="#666666" points="217.17,-140 124.17,-140 124.17,-121 217.17,-121 217.17,-140"/>
<text text-anchor="middle" x="170.67" y="-128" font-family="Helvetica,sans-Serif" font-size="10.00">runtime/types.hpp</text>
</a>
</g>
</g>
<!-- Node8&#45;&gt;Node19 -->
<g id="edge19" class="edge">
<title>Node8&#45;&gt;Node19</title>
<path fill="none" stroke="#63b8ff" d="M232.95,-175.51C221.89,-167.7 205.64,-156.21 192.5,-146.93"/>
<polygon fill="#63b8ff" stroke="#63b8ff" points="194.63,-144.14 184.44,-141.23 190.59,-149.86 194.63,-144.14"/>
</g>
<!-- Node12&#45;&gt;Node11 -->
<g id="edge16" class="edge">
<title>Node12&#45;&gt;Node11</title>
<path fill="none" stroke="#63b8ff" d="M296.99,-120.62C277.03,-111.12 245.13,-95.95 221.86,-84.88"/>
<polygon fill="#63b8ff" stroke="#63b8ff" points="223.43,-81.75 212.9,-80.62 220.42,-88.07 223.43,-81.75"/>
</g>
<!-- Node13 -->
<g id="node13" class="node">
<title>Node13</title>
<g id="a_node13"><a xlink:title=" ">
<polygon fill="#e0e0e0" stroke="#999999" points="555.67,-79.5 489.67,-79.5 489.67,-60.5 555.67,-60.5 555.67,-79.5"/>
<text text-anchor="middle" x="522.67" y="-67.5" font-family="Helvetica,sans-Serif" font-size="10.00">string_view</text>
</a>
</g>
</g>
<!-- Node12&#45;&gt;Node13 -->
<g id="edge12" class="edge">
<title>Node12&#45;&gt;Node13</title>
<path fill="none" stroke="#63b8ff" d="M351.25,-120.55C384.78,-111.95 436.36,-98.35 480.67,-85 482.28,-84.52 483.92,-84.01 485.58,-83.49"/>
<polygon fill="#63b8ff" stroke="#63b8ff" points="486.64,-86.83 495.09,-80.44 484.5,-80.16 486.64,-86.83"/>
</g>
<!-- Node14 -->
<g id="node14" class="node">
<title>Node14</title>
<g id="a_node14"><a xlink:title=" ">
<polygon fill="#e0e0e0" stroke="#999999" points="617.67,-79.5 573.67,-79.5 573.67,-60.5 617.67,-60.5 617.67,-79.5"/>
<text text-anchor="middle" x="595.67" y="-67.5" font-family="Helvetica,sans-Serif" font-size="10.00">vector</text>
</a>
</g>
</g>
<!-- Node12&#45;&gt;Node14 -->
<g id="edge13" class="edge">
<title>Node12&#45;&gt;Node14</title>
<path fill="none" stroke="#63b8ff" d="M357.5,-122.3C425.84,-110.5 554.84,-88.05 564.67,-85 565.64,-84.7 566.61,-84.38 567.58,-84.04"/>
<polygon fill="#63b8ff" stroke="#63b8ff" points="568.54,-87.43 576.53,-80.48 565.94,-80.93 568.54,-87.43"/>
</g>
<!-- Node15 -->
<g id="node15" class="node">
<title>Node15</title>
<g id="a_node15"><a xlink:title=" ">
<polygon fill="#e0e0e0" stroke="#999999" points="745.67,-85 635.67,-85 635.67,-55 745.67,-55 745.67,-85"/>
<text text-anchor="start" x="643.67" y="-73" font-family="Helvetica,sans-Serif" font-size="10.00">boost/container_hash</text>
<text text-anchor="middle" x="690.67" y="-62" font-family="Helvetica,sans-Serif" font-size="10.00">/hash.hpp</text>
</a>
</g>
</g>
<!-- Node12&#45;&gt;Node15 -->
<g id="edge14" class="edge">
<title>Node12&#45;&gt;Node15</title>
<path fill="none" stroke="#63b8ff" d="M357.41,-122.45C360.54,-121.95 363.66,-121.46 366.67,-121 478.39,-103.96 509.88,-105.37 623.92,-85.41"/>
<polygon fill="#63b8ff" stroke="#63b8ff" points="624.5,-88.86 633.73,-83.67 623.28,-81.97 624.5,-88.86"/>
</g>
<!-- Node16 -->
<g id="node16" class="node">
<title>Node16</title>
<g id="a_node16"><a xlink:title=" ">
<polygon fill="#e0e0e0" stroke="#999999" points="339.67,-79.5 237.67,-79.5 237.67,-60.5 339.67,-60.5 339.67,-79.5"/>
<text text-anchor="middle" x="288.67" y="-67.5" font-family="Helvetica,sans-Serif" font-size="10.00">boost/operators.hpp</text>
</a>
</g>
</g>
<!-- Node12&#45;&gt;Node16 -->
<g id="edge15" class="edge">
<title>Node12&#45;&gt;Node16</title>
<path fill="none" stroke="#63b8ff" d="M311.69,-120.87C307.94,-112.75 302.2,-100.31 297.39,-89.89"/>
<polygon fill="#63b8ff" stroke="#63b8ff" points="300.68,-88.65 293.31,-81.04 294.32,-91.59 300.68,-88.65"/>
</g>
<!-- Node17 -->
<g id="node17" class="node">
<title>Node17</title>
<g id="a_node17"><a xlink:href="outcome_8hpp.html" target="_top" xlink:title=" ">
<polygon fill="white" stroke="#666666" points="471.17,-79.5 358.17,-79.5 358.17,-60.5 471.17,-60.5 471.17,-79.5"/>
<text text-anchor="middle" x="414.67" y="-67.5" font-family="Helvetica,sans-Serif" font-size="10.00">outcome/outcome.hpp</text>
</a>
</g>
</g>
<!-- Node12&#45;&gt;Node17 -->
<g id="edge17" class="edge">
<title>Node12&#45;&gt;Node17</title>
<path fill="none" stroke="#63b8ff" d="M330.71,-120.62C346.34,-111.38 371.06,-96.77 389.64,-85.79"/>
<polygon fill="#63b8ff" stroke="#63b8ff" points="391.36,-88.84 398.19,-80.74 387.8,-82.81 391.36,-88.84"/>
</g>
<!-- Node18 -->
<g id="node18" class="node">
<title>Node18</title>
<g id="a_node18"><a xlink:title=" ">
<polygon fill="#e0e0e0" stroke="#999999" points="485.17,-19 344.17,-19 344.17,0 485.17,0 485.17,-19"/>
<text text-anchor="middle" x="414.67" y="-7" font-family="Helvetica,sans-Serif" font-size="10.00">libp2p/outcome/outcome.hpp</text>
</a>
</g>
</g>
<!-- Node17&#45;&gt;Node18 -->
<g id="edge18" class="edge">
<title>Node17&#45;&gt;Node18</title>
<path fill="none" stroke="#63b8ff" d="M414.67,-60.37C414.67,-52.5 414.67,-40.6 414.67,-30.39"/>
<polygon fill="#63b8ff" stroke="#63b8ff" points="418.17,-30.68 414.67,-20.68 411.17,-30.68 418.17,-30.68"/>
</g>
<!-- Node19&#45;&gt;Node2 -->
<g id="edge21" class="edge">
<title>Node19&#45;&gt;Node2</title>
<path fill="none" stroke="#63b8ff" d="M150.32,-120.62C128.03,-110.88 92.05,-95.18 66.56,-84.05"/>
<polygon fill="#63b8ff" stroke="#63b8ff" points="68.29,-80.99 57.73,-80.19 65.49,-87.4 68.29,-80.99"/>
</g>
<!-- Node20 -->
<g id="node20" class="node">
<title>Node20</title>
<g id="a_node20"><a xlink:title=" ">
<polygon fill="#e0e0e0" stroke="#999999" points="147.67,-79.5 101.67,-79.5 101.67,-60.5 147.67,-60.5 147.67,-79.5"/>
<text text-anchor="middle" x="124.67" y="-67.5" font-family="Helvetica,sans-Serif" font-size="10.00">cstdint</text>
</a>
</g>
</g>
<!-- Node19&#45;&gt;Node20 -->
<g id="edge20" class="edge">
<title>Node19&#45;&gt;Node20</title>
<path fill="none" stroke="#63b8ff" d="M163.89,-120.87C157.23,-112.4 146.88,-99.24 138.49,-88.57"/>
<polygon fill="#63b8ff" stroke="#63b8ff" points="141.36,-86.55 132.42,-80.86 135.85,-90.88 141.36,-86.55"/>
</g>
</g>
</svg>
        <g id="navigator" transform="translate(0 0)" fill="#404254">
                <rect fill="#f2f5e9" fill-opacity="0.5" stroke="#606060" stroke-width=".5" x="0" y="0" width="60" height="60"/>
                <use id="zoomplus" xlink:href="#zoomPlus" x="17" y="9" onmousedown="handleZoom(evt,'in')"/>
                <use id="zoomminus" xlink:href="#zoomMin" x="42" y="9" onmousedown="handleZoom(evt,'out')"/>
                <use id="reset" xlink:href="#resetDef" x="30" y="36" onmousedown="handleReset()"/>
                <g id="arrowUp" xlink:href="#dirArrow" transform="translate(30 24)" onmousedown="handlePan(0,-1)">
                  <use xlink:href="#rim" fill="#404040">
                        <set attributeName="fill" to="#808080" begin="arrowUp.mouseover" end="arrowUp.mouseout"/>
                  </use>
                  <path fill="none" stroke="white" stroke-width="1.5" d="M0,-3.0v7 M-2.5,-0.5L0,-3.0L2.5,-0.5"/>
                </g>
                <g id="arrowRight" xlink:href="#dirArrow" transform="rotate(90) translate(36 -43)" onmousedown="handlePan(1,0)">
                  <use xlink:href="#rim" fill="#404040">
                        <set attributeName="fill" to="#808080" begin="arrowRight.mouseover" end="arrowRight.mouseout"/>
                  </use>
                  <path fill="none" stroke="white" stroke-width="1.5" d="M0,-3.0v7 M-2.5,-0.5L0,-3.0L2.5,-0.5"/>
                </g>
                <g id="arrowDown" xlink:href="#dirArrow" transform="rotate(180) translate(-30 -48)" onmousedown="handlePan(0,1)">
                  <use xlink:href="#rim" fill="#404040">
                        <set attributeName="fill" to="#808080" begin="arrowDown.mouseover" end="arrowDown.mouseout"/>
                  </use>
                  <path fill="none" stroke="white" stroke-width="1.5" d="M0,-3.0v7 M-2.5,-0.5L0,-3.0L2.5,-0.5"/>
                </g>
                <g id="arrowLeft" xlink:href="#dirArrow" transform="rotate(270) translate(-36 17)" onmousedown="handlePan(-1,0)">
                  <use xlink:href="#rim" fill="#404040">
                        <set attributeName="fill" to="#808080" begin="arrowLeft.mouseover" end="arrowLeft.mouseout"/>
                  </use>
                  <path fill="none" stroke="white" stroke-width="1.5" d="M0,-3.0v7 M-2.5,-0.5L0,-3.0L2.5,-0.5"/>
                </g>
        </g>
        <svg viewBox="0 0 15 15" width="100%" height="30px" preserveAspectRatio="xMaxYMin meet">
         <g id="arrow_out" transform="scale(0.3 0.3)">
          <a xlink:href="memory__extension_8cpp__incl_org.svg" target="_base">
           <rect id="button" ry="5" rx="5" y="6" x="6" height="38" width="38"
                fill="#f2f5e9" fill-opacity="0.5" stroke="#606060" stroke-width="1.0"/>
           <path id="arrow"
             d="M 11.500037,31.436501 C 11.940474,20.09759 22.043105,11.32322 32.158766,21.979434 L 37.068811,17.246167 C 37.068811,17.246167 37.088388,32 37.088388,32 L 22.160133,31.978069 C 22.160133,31.978069 26.997745,27.140456 26.997745,27.140456 C 18.528582,18.264221 13.291696,25.230495 11.500037,31.436501 z"
             style="fill:#404040;"/>
          </a>
         </g>
        </svg>
</svg>
