<?xml version="1.0" encoding="UTF-8" standalone="no"?>
<!DOCTYPE svg PUBLIC "-//W3C//DTD SVG 1.1//EN"
 "http://www.w3.org/Graphics/SVG/1.1/DTD/svg11.dtd">
<!-- Generated by graphviz version 7.0.5 (20221223.1930)
 -->
<!-- Title: src/base/mp_utils.cpp Pages: 1 -->
<svg width="237pt" height="148pt"
 viewBox="0.00 0.00 236.50 148.00" xmlns="http://www.w3.org/2000/svg" xmlns:xlink="http://www.w3.org/1999/xlink">
<g id="graph0" class="graph" transform="scale(1 1) rotate(0) translate(4 144)">
<title>src/base/mp_utils.cpp</title>
<!-- Node1 -->
<g id="node1" class="node">
<title>Node1</title>
<g id="a_node1"><a xlink:title=" ">
<polygon fill="#999999" stroke="#666666" points="204,-140 92,-140 92,-121 204,-121 204,-140"/>
<text text-anchor="middle" x="148" y="-128" font-family="Helvetica,sans-Serif" font-size="10.00">src/base/mp_utils.cpp</text>
</a>
</g>
</g>
<!-- Node2 -->
<g id="node2" class="node">
<title>Node2</title>
<g id="a_node2"><a xlink:href="mp__utils_8hpp.html" target="_top" xlink:title=" ">
<polygon fill="white" stroke="#666666" points="147.5,-85 52.5,-85 52.5,-66 147.5,-66 147.5,-85"/>
<text text-anchor="middle" x="100" y="-73" font-family="Helvetica,sans-Serif" font-size="10.00">base/mp_utils.hpp</text>
</a>
</g>
</g>
<!-- Node1&#45;&gt;Node2 -->
<g id="edge1" class="edge">
<title>Node1&#45;&gt;Node2</title>
<path fill="none" stroke="#63b8ff" d="M140.07,-120.75C133.44,-113.43 123.78,-102.76 115.61,-93.74"/>
<polygon fill="#63b8ff" stroke="#63b8ff" points="118.42,-91.63 109.11,-86.56 113.23,-96.33 118.42,-91.63"/>
</g>
<!-- Node5 -->
<g id="node5" class="node">
<title>Node5</title>
<g id="a_node5"><a xlink:title=" ">
<polygon fill="#e0e0e0" stroke="#999999" points="228.5,-85 165.5,-85 165.5,-66 228.5,-66 228.5,-85"/>
<text text-anchor="middle" x="197" y="-73" font-family="Helvetica,sans-Serif" font-size="10.00">gsl/gsl_util</text>
</a>
</g>
</g>
<!-- Node1&#45;&gt;Node5 -->
<g id="edge4" class="edge">
<title>Node1&#45;&gt;Node5</title>
<path fill="none" stroke="#63b8ff" d="M156.09,-120.75C162.86,-113.43 172.72,-102.76 181.06,-93.74"/>
<polygon fill="#63b8ff" stroke="#63b8ff" points="183.49,-96.27 187.71,-86.55 178.35,-91.52 183.49,-96.27"/>
</g>
<!-- Node3 -->
<g id="node3" class="node">
<title>Node3</title>
<g id="a_node3"><a xlink:title=" ">
<polygon fill="#e0e0e0" stroke="#999999" points="104,-30 0,-30 0,0 104,0 104,-30"/>
<text text-anchor="start" x="8" y="-18" font-family="Helvetica,sans-Serif" font-size="10.00">boost/multiprecision</text>
<text text-anchor="middle" x="52" y="-7" font-family="Helvetica,sans-Serif" font-size="10.00">/cpp_int.hpp</text>
</a>
</g>
</g>
<!-- Node2&#45;&gt;Node3 -->
<g id="edge2" class="edge">
<title>Node2&#45;&gt;Node3</title>
<path fill="none" stroke="#63b8ff" d="M92.92,-65.87C87.07,-58.74 78.49,-48.28 70.7,-38.79"/>
<polygon fill="#63b8ff" stroke="#63b8ff" points="73.59,-36.8 64.54,-31.28 68.18,-41.24 73.59,-36.8"/>
</g>
<!-- Node4 -->
<g id="node4" class="node">
<title>Node4</title>
<g id="a_node4"><a xlink:title=" ">
<polygon fill="#e0e0e0" stroke="#999999" points="175.5,-24.5 122.5,-24.5 122.5,-5.5 175.5,-5.5 175.5,-24.5"/>
<text text-anchor="middle" x="149" y="-12.5" font-family="Helvetica,sans-Serif" font-size="10.00">gsl/span</text>
</a>
</g>
</g>
<!-- Node2&#45;&gt;Node4 -->
<g id="edge3" class="edge">
<title>Node2&#45;&gt;Node4</title>
<path fill="none" stroke="#63b8ff" d="M107.23,-65.87C114.4,-57.31 125.57,-43.97 134.56,-33.24"/>
<polygon fill="#63b8ff" stroke="#63b8ff" points="137.03,-35.74 140.77,-25.83 131.66,-31.25 137.03,-35.74"/>
</g>
</g>
</svg>
