<?xml version="1.0" encoding="UTF-8" standalone="no"?>
<!DOCTYPE svg PUBLIC "-//W3C//DTD SVG 1.1//EN"
 "http://www.w3.org/Graphics/SVG/1.1/DTD/svg11.dtd">
<!-- Generated by graphviz version 7.0.5 (20221223.1930)
 -->
<!-- Title: src/verification/production/types/next_epoch_descriptor.hpp Pages: 1 -->
<!--zoomable 566 -->
<svg id="main" version="1.1" xmlns="http://www.w3.org/2000/svg" xmlns:xlink="http://www.w3.org/1999/xlink" xml:space="preserve" onload="init(evt)">
<style type="text/css"><![CDATA[
.edge:hover path { stroke: red; }
.edge:hover polygon { stroke: red; fill: red; }
]]></style>
<script type="text/javascript"><![CDATA[
var edges = document.getElementsByTagName('g');
if (edges && edges.length) {
  for (var i=0;i<edges.length;i++) {
    if (edges[i].id.substr(0,4)=='edge') {
      edges[i].setAttribute('class','edge');
    }
  }
}
]]></script>
        <defs>
                <circle id="rim" cx="0" cy="0" r="7"/>
                <circle id="rim2" cx="0" cy="0" r="3.5"/>
                <g id="zoomPlus">
                        <use xlink:href="#rim" fill="#404040">
                                <set attributeName="fill" to="#808080" begin="zoomplus.mouseover" end="zoomplus.mouseout"/>
                        </use>
                        <path d="M-4,0h8M0,-4v8" fill="none" stroke="white" stroke-width="1.5" pointer-events="none"/>
                </g>
                <g id="zoomMin">
                        <use xlink:href="#rim" fill="#404040">
                                <set attributeName="fill" to="#808080" begin="zoomminus.mouseover" end="zoomminus.mouseout"/>
                        </use>
                        <path d="M-4,0h8" fill="none" stroke="white" stroke-width="1.5" pointer-events="none"/>
                </g>
                <g id="dirArrow">
                        <path fill="none" stroke="white" stroke-width="1.5" d="M0,-3.0v7 M-2.5,-0.5L0,-3.0L2.5,-0.5"/>
                </g>
               <g id="resetDef">
                       <use xlink:href="#rim2" fill="#404040">
                               <set attributeName="fill" to="#808080" begin="reset.mouseover" end="reset.mouseout"/>
                       </use>
               </g>
        </defs>

<script type="text/javascript">
var viewWidth = 1102;
var viewHeight = 566;
var sectionId = 'dynsection-1';
</script>
<script xlink:href="svgpan.js"/>
<svg id="graph" class="graph">
<g id="viewport">
<title>src/verification/production/types/next_epoch_descriptor.hpp</title>
<!-- Node1 -->
<g id="node1" class="node">
<title>Node1</title>
<g id="a_node1"><a xlink:title=" ">
<polygon fill="#999999" stroke="#666666" points="926.5,-558 765.5,-558 765.5,-528 926.5,-528 926.5,-558"/>
<text text-anchor="start" x="773.5" y="-546" font-family="Helvetica,sans-Serif" font-size="10.00">src/verification/production</text>
<text text-anchor="middle" x="846" y="-535" font-family="Helvetica,sans-Serif" font-size="10.00">/types/next_epoch_descriptor.hpp</text>
</a>
</g>
</g>
<!-- Node2 -->
<g id="node2" class="node">
<title>Node2</title>
<g id="a_node2"><a xlink:href="epoch__storage_8hpp.html" target="_top" xlink:title=" ">
<polygon fill="white" stroke="#666666" points="654,-486.5 526,-486.5 526,-456.5 654,-456.5 654,-486.5"/>
<text text-anchor="start" x="534" y="-474.5" font-family="Helvetica,sans-Serif" font-size="10.00">src/verification/production</text>
<text text-anchor="middle" x="590" y="-463.5" font-family="Helvetica,sans-Serif" font-size="10.00">/epoch_storage.hpp</text>
</a>
</g>
</g>
<!-- Node1&#45;&gt;Node2 -->
<g id="edge1" class="edge">
<title>Node1&#45;&gt;Node2</title>
<path fill="none" stroke="#63b8ff" d="M781.79,-524.57C739.06,-512.97 683.57,-497.9 643.29,-486.97"/>
<polygon fill="#63b8ff" stroke="#63b8ff" points="780.62,-527.88 791.18,-527.12 782.45,-521.12 780.62,-527.88"/>
</g>
<!-- Node26 -->
<g id="node26" class="node">
<title>Node26</title>
<g id="a_node26"><a xlink:href="production__digests__util_8hpp.html" target="_top" xlink:title=" ">
<polygon fill="white" stroke="#666666" points="910,-492 782,-492 782,-451 910,-451 910,-492"/>
<text text-anchor="start" x="790" y="-480" font-family="Helvetica,sans-Serif" font-size="10.00">src/verification/production</text>
<text text-anchor="start" x="790" y="-469" font-family="Helvetica,sans-Serif" font-size="10.00">/impl/production_digests</text>
<text text-anchor="middle" x="846" y="-458" font-family="Helvetica,sans-Serif" font-size="10.00">_util.hpp</text>
</a>
</g>
</g>
<!-- Node1&#45;&gt;Node26 -->
<g id="edge32" class="edge">
<title>Node1&#45;&gt;Node26</title>
<path fill="none" stroke="#63b8ff" d="M846,-516.36C846,-508.45 846,-499.87 846,-492.42"/>
<polygon fill="#63b8ff" stroke="#63b8ff" points="842.5,-516.09 846,-526.09 849.5,-516.09 842.5,-516.09"/>
</g>
<!-- Node29 -->
<g id="node29" class="node">
<title>Node29</title>
<g id="a_node29"><a xlink:href="verification__log_8hpp.html" target="_top" xlink:title=" ">
<polygon fill="white" stroke="#666666" points="1081,-486.5 953,-486.5 953,-456.5 1081,-456.5 1081,-486.5"/>
<text text-anchor="start" x="961" y="-474.5" font-family="Helvetica,sans-Serif" font-size="10.00">src/verification/production</text>
<text text-anchor="middle" x="1017" y="-463.5" font-family="Helvetica,sans-Serif" font-size="10.00">/types/verification_log.hpp</text>
</a>
</g>
</g>
<!-- Node1&#45;&gt;Node29 -->
<g id="edge37" class="edge">
<title>Node1&#45;&gt;Node29</title>
<path fill="none" stroke="#63b8ff" d="M891.84,-523.37C920.03,-511.91 955.6,-497.45 981.61,-486.88"/>
<polygon fill="#63b8ff" stroke="#63b8ff" points="890.78,-520.02 882.83,-527.03 893.42,-526.51 890.78,-520.02"/>
</g>
<!-- Node3 -->
<g id="node3" class="node">
<title>Node3</title>
<g id="a_node3"><a xlink:href="block__executor_8hpp.html" target="_top" xlink:title=" ">
<polygon fill="white" stroke="#666666" points="700,-409.5 572,-409.5 572,-379.5 700,-379.5 700,-409.5"/>
<text text-anchor="start" x="580" y="-397.5" font-family="Helvetica,sans-Serif" font-size="10.00">src/verification/production</text>
<text text-anchor="middle" x="636" y="-386.5" font-family="Helvetica,sans-Serif" font-size="10.00">/impl/block_executor.hpp</text>
</a>
</g>
</g>
<!-- Node2&#45;&gt;Node3 -->
<g id="edge2" class="edge">
<title>Node2&#45;&gt;Node3</title>
<path fill="none" stroke="#63b8ff" d="M604.69,-446.55C612.08,-434.5 620.8,-420.28 627.16,-409.92"/>
<polygon fill="#63b8ff" stroke="#63b8ff" points="601.91,-444.39 599.66,-454.75 607.87,-448.05 601.91,-444.39"/>
</g>
<!-- Node5 -->
<g id="node5" class="node">
<title>Node5</title>
<g id="a_node5"><a xlink:href="production__impl_8hpp.html" target="_top" xlink:title=" ">
<polygon fill="white" stroke="#666666" points="681,-332.5 553,-332.5 553,-302.5 681,-302.5 681,-332.5"/>
<text text-anchor="start" x="561" y="-320.5" font-family="Helvetica,sans-Serif" font-size="10.00">src/verification/production</text>
<text text-anchor="middle" x="617" y="-309.5" font-family="Helvetica,sans-Serif" font-size="10.00">/impl/production_impl.hpp</text>
</a>
</g>
</g>
<!-- Node2&#45;&gt;Node5 -->
<g id="edge31" class="edge">
<title>Node2&#45;&gt;Node5</title>
<path fill="none" stroke="#63b8ff" d="M574.54,-446.34C563.9,-426.51 553.29,-397.91 563,-374 569.78,-357.31 584.26,-342.89 596.52,-332.93"/>
<polygon fill="#63b8ff" stroke="#63b8ff" points="571.38,-447.87 579.4,-454.79 577.45,-444.38 571.38,-447.87"/>
</g>
<!-- Node22 -->
<g id="node22" class="node">
<title>Node22</title>
<g id="a_node22"><a xlink:href="epoch__storage__impl_8hpp.html" target="_top" xlink:title=" ">
<polygon fill="white" stroke="#666666" points="516,-409.5 370,-409.5 370,-379.5 516,-379.5 516,-409.5"/>
<text text-anchor="start" x="378" y="-397.5" font-family="Helvetica,sans-Serif" font-size="10.00">src/verification/production</text>
<text text-anchor="middle" x="443" y="-386.5" font-family="Helvetica,sans-Serif" font-size="10.00">/impl/epoch_storage_impl.hpp</text>
</a>
</g>
</g>
<!-- Node2&#45;&gt;Node22 -->
<g id="edge24" class="edge">
<title>Node2&#45;&gt;Node22</title>
<path fill="none" stroke="#63b8ff" d="M551.7,-450.96C526.52,-438.11 494.11,-421.58 471.26,-409.92"/>
<polygon fill="#63b8ff" stroke="#63b8ff" points="549.81,-453.92 560.31,-455.35 552.99,-447.69 549.81,-453.92"/>
</g>
<!-- Node4 -->
<g id="node4" class="node">
<title>Node4</title>
<g id="a_node4"><a xlink:href="block__executor_8cpp.html" target="_top" xlink:title=" ">
<polygon fill="white" stroke="#666666" points="827,-332.5 699,-332.5 699,-302.5 827,-302.5 827,-332.5"/>
<text text-anchor="start" x="707" y="-320.5" font-family="Helvetica,sans-Serif" font-size="10.00">src/verification/production</text>
<text text-anchor="middle" x="763" y="-309.5" font-family="Helvetica,sans-Serif" font-size="10.00">/impl/block_executor.cpp</text>
</a>
</g>
</g>
<!-- Node3&#45;&gt;Node4 -->
<g id="edge3" class="edge">
<title>Node3&#45;&gt;Node4</title>
<path fill="none" stroke="#63b8ff" d="M670.25,-373.27C691.84,-360.52 719.19,-344.37 738.59,-332.92"/>
<polygon fill="#63b8ff" stroke="#63b8ff" points="668.62,-370.17 661.79,-378.27 672.18,-376.2 668.62,-370.17"/>
</g>
<!-- Node3&#45;&gt;Node5 -->
<g id="edge4" class="edge">
<title>Node3&#45;&gt;Node5</title>
<path fill="none" stroke="#63b8ff" d="M629.56,-368.1C626.59,-356.37 623.17,-342.87 620.65,-332.92"/>
<polygon fill="#63b8ff" stroke="#63b8ff" points="626.12,-368.74 631.96,-377.57 632.9,-367.02 626.12,-368.74"/>
</g>
<!-- Node16 -->
<g id="node16" class="node">
<title>Node16</title>
<g id="a_node16"><a xlink:href="syncing__production__observer_8hpp.html" target="_top" xlink:title=" ">
<polygon fill="white" stroke="#666666" points="239,-338 111,-338 111,-297 239,-297 239,-338"/>
<text text-anchor="start" x="119" y="-326" font-family="Helvetica,sans-Serif" font-size="10.00">src/verification/production</text>
<text text-anchor="start" x="119" y="-315" font-family="Helvetica,sans-Serif" font-size="10.00">/impl/syncing_production</text>
<text text-anchor="middle" x="175" y="-304" font-family="Helvetica,sans-Serif" font-size="10.00">_observer.hpp</text>
</a>
</g>
</g>
<!-- Node3&#45;&gt;Node16 -->
<g id="edge17" class="edge">
<title>Node3&#45;&gt;Node16</title>
<path fill="none" stroke="#63b8ff" d="M560.31,-379.74C548.5,-377.73 536.43,-375.75 525,-374 402.28,-355.26 369.79,-362.07 248,-338 245.17,-337.44 242.29,-336.83 239.38,-336.19"/>
<polygon fill="#63b8ff" stroke="#63b8ff" points="559.57,-383.16 570.02,-381.41 560.76,-376.26 559.57,-383.16"/>
</g>
<!-- Node6 -->
<g id="node6" class="node">
<title>Node6</title>
<g id="a_node6"><a xlink:href="block__producing__node__injector_8hpp.html" target="_top" xlink:title=" ">
<polygon fill="white" stroke="#666666" points="464.5,-184 319.5,-184 319.5,-154 464.5,-154 464.5,-184"/>
<text text-anchor="start" x="327.5" y="-172" font-family="Helvetica,sans-Serif" font-size="10.00">src/injector/block</text>
<text text-anchor="middle" x="392" y="-161" font-family="Helvetica,sans-Serif" font-size="10.00">_producing_node_injector.hpp</text>
</a>
</g>
</g>
<!-- Node5&#45;&gt;Node6 -->
<g id="edge5" class="edge">
<title>Node5&#45;&gt;Node6</title>
<path fill="none" stroke="#63b8ff" d="M568.2,-297.53C547.13,-288.16 522.81,-275.7 503,-261 483.05,-246.2 483.81,-236.23 465,-220 449.53,-206.65 430.43,-193.68 415.65,-184.29"/>
<polygon fill="#63b8ff" stroke="#63b8ff" points="566.61,-300.66 577.18,-301.41 569.39,-294.23 566.61,-300.66"/>
</g>
<!-- Node11 -->
<g id="node11" class="node">
<title>Node11</title>
<g id="a_node11"><a xlink:href="validating__node__injector_8hpp.html" target="_top" xlink:title=" ">
<polygon fill="white" stroke="#666666" points="621.5,-255.5 512.5,-255.5 512.5,-225.5 621.5,-225.5 621.5,-255.5"/>
<text text-anchor="start" x="520.5" y="-243.5" font-family="Helvetica,sans-Serif" font-size="10.00">src/injector/validating</text>
<text text-anchor="middle" x="567" y="-232.5" font-family="Helvetica,sans-Serif" font-size="10.00">_node_injector.hpp</text>
</a>
</g>
</g>
<!-- Node5&#45;&gt;Node11 -->
<g id="edge10" class="edge">
<title>Node5&#45;&gt;Node11</title>
<path fill="none" stroke="#63b8ff" d="M601.03,-292.55C593,-280.5 583.52,-266.28 576.61,-255.92"/>
<polygon fill="#63b8ff" stroke="#63b8ff" points="598.06,-294.4 606.52,-300.78 603.89,-290.52 598.06,-294.4"/>
</g>
<!-- Node15 -->
<g id="node15" class="node">
<title>Node15</title>
<g id="a_node15"><a xlink:href="production__impl_8cpp.html" target="_top" xlink:title=" ">
<polygon fill="white" stroke="#666666" points="875,-255.5 747,-255.5 747,-225.5 875,-225.5 875,-255.5"/>
<text text-anchor="start" x="755" y="-243.5" font-family="Helvetica,sans-Serif" font-size="10.00">src/verification/production</text>
<text text-anchor="middle" x="811" y="-232.5" font-family="Helvetica,sans-Serif" font-size="10.00">/impl/production_impl.cpp</text>
</a>
</g>
</g>
<!-- Node5&#45;&gt;Node15 -->
<g id="edge16" class="edge">
<title>Node5&#45;&gt;Node15</title>
<path fill="none" stroke="#63b8ff" d="M664.9,-297.98C698.49,-285 742.74,-267.89 773.71,-255.92"/>
<polygon fill="#63b8ff" stroke="#63b8ff" points="663.88,-294.62 655.82,-301.49 666.41,-301.15 663.88,-294.62"/>
</g>
<!-- Node7 -->
<g id="node7" class="node">
<title>Node7</title>
<g id="a_node7"><a xlink:href="block__producing__node__application_8hpp.html" target="_top" xlink:title=" ">
<polygon fill="white" stroke="#666666" points="438,-118 322,-118 322,-77 438,-77 438,-118"/>
<text text-anchor="start" x="330" y="-106" font-family="Helvetica,sans-Serif" font-size="10.00">src/application/impl</text>
<text text-anchor="start" x="330" y="-95" font-family="Helvetica,sans-Serif" font-size="10.00">/block_producing_node</text>
<text text-anchor="middle" x="380" y="-84" font-family="Helvetica,sans-Serif" font-size="10.00">_application.hpp</text>
</a>
</g>
</g>
<!-- Node6&#45;&gt;Node7 -->
<g id="edge6" class="edge">
<title>Node6&#45;&gt;Node7</title>
<path fill="none" stroke="#63b8ff" d="M387.57,-142.36C386.21,-134.45 384.73,-125.87 383.44,-118.42"/>
<polygon fill="#63b8ff" stroke="#63b8ff" points="384.11,-142.85 389.26,-152.11 391,-141.66 384.11,-142.85"/>
</g>
<!-- Node10 -->
<g id="node10" class="node">
<title>Node10</title>
<g id="a_node10"><a xlink:href="block__producing__node__injector_8cpp.html" target="_top" xlink:title=" ">
<polygon fill="white" stroke="#666666" points="601.5,-112.5 456.5,-112.5 456.5,-82.5 601.5,-82.5 601.5,-112.5"/>
<text text-anchor="start" x="464.5" y="-100.5" font-family="Helvetica,sans-Serif" font-size="10.00">src/injector/block</text>
<text text-anchor="middle" x="529" y="-89.5" font-family="Helvetica,sans-Serif" font-size="10.00">_producing_node_injector.cpp</text>
</a>
</g>
</g>
<!-- Node6&#45;&gt;Node10 -->
<g id="edge9" class="edge">
<title>Node6&#45;&gt;Node10</title>
<path fill="none" stroke="#63b8ff" d="M430.53,-148.46C452.81,-137.15 480.36,-123.17 500.65,-112.88"/>
<polygon fill="#63b8ff" stroke="#63b8ff" points="429.07,-145.27 421.74,-152.91 432.24,-151.51 429.07,-145.27"/>
</g>
<!-- Node8 -->
<g id="node8" class="node">
<title>Node8</title>
<g id="a_node8"><a xlink:href="app__delegate_8cpp.html" target="_top" xlink:title=" ">
<polygon fill="white" stroke="#666666" points="717,-30 601,-30 601,-11 717,-11 717,-30"/>
<text text-anchor="middle" x="659" y="-18" font-family="Helvetica,sans-Serif" font-size="10.00">node/app_delegate.cpp</text>
</a>
</g>
</g>
<!-- Node7&#45;&gt;Node8 -->
<g id="edge7" class="edge">
<title>Node7&#45;&gt;Node8</title>
<path fill="none" stroke="#63b8ff" d="M449.2,-76.42C516.26,-57.99 583.65,-40.63 623.66,-30.44"/>
<polygon fill="#63b8ff" stroke="#63b8ff" points="448.61,-72.96 439.9,-78.99 450.47,-79.7 448.61,-72.96"/>
</g>
<!-- Node9 -->
<g id="node9" class="node">
<title>Node9</title>
<g id="a_node9"><a xlink:href="block__producing__node__application_8cpp.html" target="_top" xlink:title=" ">
<polygon fill="white" stroke="#666666" points="438,-41 322,-41 322,0 438,0 438,-41"/>
<text text-anchor="start" x="330" y="-29" font-family="Helvetica,sans-Serif" font-size="10.00">src/application/impl</text>
<text text-anchor="start" x="330" y="-18" font-family="Helvetica,sans-Serif" font-size="10.00">/block_producing_node</text>
<text text-anchor="middle" x="380" y="-7" font-family="Helvetica,sans-Serif" font-size="10.00">_application.cpp</text>
</a>
</g>
</g>
<!-- Node7&#45;&gt;Node9 -->
<g id="edge8" class="edge">
<title>Node7&#45;&gt;Node9</title>
<path fill="none" stroke="#63b8ff" d="M380,-65.36C380,-57.24 380,-48.7 380,-41.33"/>
<polygon fill="#63b8ff" stroke="#63b8ff" points="376.5,-65.28 380,-75.28 383.5,-65.28 376.5,-65.28"/>
</g>
<!-- Node11&#45;&gt;Node6 -->
<g id="edge14" class="edge">
<title>Node11&#45;&gt;Node6</title>
<path fill="none" stroke="#63b8ff" d="M520.09,-220.87C491.24,-209.41 454.83,-194.95 428.21,-184.38"/>
<polygon fill="#63b8ff" stroke="#63b8ff" points="518.75,-224.1 529.33,-224.54 521.33,-217.6 518.75,-224.1"/>
</g>
<!-- Node12 -->
<g id="node12" class="node">
<title>Node12</title>
<g id="a_node12"><a xlink:href="validating__node__application_8hpp.html" target="_top" xlink:title=" ">
<polygon fill="white" stroke="#666666" points="783.5,-184 626.5,-184 626.5,-154 783.5,-154 783.5,-184"/>
<text text-anchor="start" x="634.5" y="-172" font-family="Helvetica,sans-Serif" font-size="10.00">src/application/impl</text>
<text text-anchor="middle" x="705" y="-161" font-family="Helvetica,sans-Serif" font-size="10.00">/validating_node_application.hpp</text>
</a>
</g>
</g>
<!-- Node11&#45;&gt;Node12 -->
<g id="edge11" class="edge">
<title>Node11&#45;&gt;Node12</title>
<path fill="none" stroke="#63b8ff" d="M605.81,-219.96C628.25,-208.65 656.01,-194.67 676.44,-184.38"/>
<polygon fill="#63b8ff" stroke="#63b8ff" points="604.3,-216.79 596.95,-224.42 607.45,-223.05 604.3,-216.79"/>
</g>
<!-- Node14 -->
<g id="node14" class="node">
<title>Node14</title>
<g id="a_node14"><a xlink:href="validating__node__injector_8cpp.html" target="_top" xlink:title=" ">
<polygon fill="white" stroke="#666666" points="608.5,-184 499.5,-184 499.5,-154 608.5,-154 608.5,-184"/>
<text text-anchor="start" x="507.5" y="-172" font-family="Helvetica,sans-Serif" font-size="10.00">src/injector/validating</text>
<text text-anchor="middle" x="554" y="-161" font-family="Helvetica,sans-Serif" font-size="10.00">_node_injector.cpp</text>
</a>
</g>
</g>
<!-- Node11&#45;&gt;Node14 -->
<g id="edge15" class="edge">
<title>Node11&#45;&gt;Node14</title>
<path fill="none" stroke="#63b8ff" d="M562.25,-214.08C560.37,-204.08 558.29,-192.95 556.69,-184.38"/>
<polygon fill="#63b8ff" stroke="#63b8ff" points="558.75,-214.43 564.03,-223.61 565.63,-213.14 558.75,-214.43"/>
</g>
<!-- Node12&#45;&gt;Node8 -->
<g id="edge12" class="edge">
<title>Node12&#45;&gt;Node8</title>
<path fill="none" stroke="#63b8ff" d="M753.96,-148.05C766.28,-140.54 777.98,-130.66 785,-118 793.83,-102.06 794.95,-92.26 785,-77 768.61,-51.87 738.01,-38.04 711.07,-30.47"/>
<polygon fill="#63b8ff" stroke="#63b8ff" points="752.38,-144.91 745.34,-152.83 755.78,-151.03 752.38,-144.91"/>
</g>
<!-- Node13 -->
<g id="node13" class="node">
<title>Node13</title>
<g id="a_node13"><a xlink:href="validating__node__application_8cpp.html" target="_top" xlink:title=" ">
<polygon fill="white" stroke="#666666" points="776.5,-112.5 619.5,-112.5 619.5,-82.5 776.5,-82.5 776.5,-112.5"/>
<text text-anchor="start" x="627.5" y="-100.5" font-family="Helvetica,sans-Serif" font-size="10.00">src/application/impl</text>
<text text-anchor="middle" x="698" y="-89.5" font-family="Helvetica,sans-Serif" font-size="10.00">/validating_node_application.cpp</text>
</a>
</g>
</g>
<!-- Node12&#45;&gt;Node13 -->
<g id="edge13" class="edge">
<title>Node12&#45;&gt;Node13</title>
<path fill="none" stroke="#63b8ff" d="M702.41,-142.26C701.41,-132.33 700.3,-121.36 699.45,-112.88"/>
<polygon fill="#63b8ff" stroke="#63b8ff" points="698.91,-142.49 703.4,-152.09 705.88,-141.79 698.91,-142.49"/>
</g>
<!-- Node16&#45;&gt;Node6 -->
<g id="edge18" class="edge">
<title>Node16&#45;&gt;Node6</title>
<path fill="none" stroke="#63b8ff" d="M213.69,-290.06C227.1,-280.88 242.23,-270.5 256,-261 282.28,-242.86 288.5,-237.81 315,-220 333.13,-207.82 353.9,-194.36 369.3,-184.47"/>
<polygon fill="#63b8ff" stroke="#63b8ff" points="211.8,-287.12 205.52,-295.65 215.75,-292.89 211.8,-287.12"/>
</g>
<!-- Node17 -->
<g id="node17" class="node">
<title>Node17</title>
<g id="a_node17"><a xlink:href="syncing__node__injector_8hpp.html" target="_top" xlink:title=" ">
<polygon fill="white" stroke="#666666" points="247.5,-255.5 146.5,-255.5 146.5,-225.5 247.5,-225.5 247.5,-255.5"/>
<text text-anchor="start" x="154.5" y="-243.5" font-family="Helvetica,sans-Serif" font-size="10.00">src/injector/syncing</text>
<text text-anchor="middle" x="197" y="-232.5" font-family="Helvetica,sans-Serif" font-size="10.00">_node_injector.hpp</text>
</a>
</g>
</g>
<!-- Node16&#45;&gt;Node17 -->
<g id="edge19" class="edge">
<title>Node16&#45;&gt;Node17</title>
<path fill="none" stroke="#63b8ff" d="M183.96,-285.95C187.02,-275.54 190.29,-264.39 192.79,-255.86"/>
<polygon fill="#63b8ff" stroke="#63b8ff" points="180.66,-284.76 181.21,-295.34 187.38,-286.73 180.66,-284.76"/>
</g>
<!-- Node21 -->
<g id="node21" class="node">
<title>Node21</title>
<g id="a_node21"><a xlink:href="syncing__production__observer_8cpp.html" target="_top" xlink:title=" ">
<polygon fill="white" stroke="#666666" points="128,-261 0,-261 0,-220 128,-220 128,-261"/>
<text text-anchor="start" x="8" y="-249" font-family="Helvetica,sans-Serif" font-size="10.00">src/verification/production</text>
<text text-anchor="start" x="8" y="-238" font-family="Helvetica,sans-Serif" font-size="10.00">/impl/syncing_production</text>
<text text-anchor="middle" x="64" y="-227" font-family="Helvetica,sans-Serif" font-size="10.00">_observer.cpp</text>
</a>
</g>
</g>
<!-- Node16&#45;&gt;Node21 -->
<g id="edge23" class="edge">
<title>Node16&#45;&gt;Node21</title>
<path fill="none" stroke="#63b8ff" d="M136.17,-290.26C122.19,-280.82 106.66,-270.32 93.59,-261.49"/>
<polygon fill="#63b8ff" stroke="#63b8ff" points="134.05,-293.05 144.29,-295.75 137.96,-287.25 134.05,-293.05"/>
</g>
<!-- Node18 -->
<g id="node18" class="node">
<title>Node18</title>
<g id="a_node18"><a xlink:href="syncing__node__application_8hpp.html" target="_top" xlink:title=" ">
<polygon fill="white" stroke="#666666" points="277.5,-184 128.5,-184 128.5,-154 277.5,-154 277.5,-184"/>
<text text-anchor="start" x="136.5" y="-172" font-family="Helvetica,sans-Serif" font-size="10.00">src/application/impl</text>
<text text-anchor="middle" x="203" y="-161" font-family="Helvetica,sans-Serif" font-size="10.00">/syncing_node_application.hpp</text>
</a>
</g>
</g>
<!-- Node17&#45;&gt;Node18 -->
<g id="edge20" class="edge">
<title>Node17&#45;&gt;Node18</title>
<path fill="none" stroke="#63b8ff" d="M199.22,-213.76C200.08,-203.83 201.03,-192.86 201.76,-184.38"/>
<polygon fill="#63b8ff" stroke="#63b8ff" points="195.75,-213.33 198.37,-223.59 202.72,-213.93 195.75,-213.33"/>
</g>
<!-- Node20 -->
<g id="node20" class="node">
<title>Node20</title>
<g id="a_node20"><a xlink:href="syncing__node__injector_8cpp.html" target="_top" xlink:title=" ">
<polygon fill="white" stroke="#666666" points="110.5,-184 9.5,-184 9.5,-154 110.5,-154 110.5,-184"/>
<text text-anchor="start" x="17.5" y="-172" font-family="Helvetica,sans-Serif" font-size="10.00">src/injector/syncing</text>
<text text-anchor="middle" x="60" y="-161" font-family="Helvetica,sans-Serif" font-size="10.00">_node_injector.cpp</text>
</a>
</g>
</g>
<!-- Node17&#45;&gt;Node20 -->
<g id="edge22" class="edge">
<title>Node17&#45;&gt;Node20</title>
<path fill="none" stroke="#63b8ff" d="M158.47,-219.96C136.19,-208.65 108.64,-194.67 88.35,-184.38"/>
<polygon fill="#63b8ff" stroke="#63b8ff" points="156.76,-223.01 167.26,-224.41 159.93,-216.77 156.76,-223.01"/>
</g>
<!-- Node19 -->
<g id="node19" class="node">
<title>Node19</title>
<g id="a_node19"><a xlink:href="syncing__node__application_8cpp.html" target="_top" xlink:title=" ">
<polygon fill="white" stroke="#666666" points="277.5,-112.5 128.5,-112.5 128.5,-82.5 277.5,-82.5 277.5,-112.5"/>
<text text-anchor="start" x="136.5" y="-100.5" font-family="Helvetica,sans-Serif" font-size="10.00">src/application/impl</text>
<text text-anchor="middle" x="203" y="-89.5" font-family="Helvetica,sans-Serif" font-size="10.00">/syncing_node_application.cpp</text>
</a>
</g>
</g>
<!-- Node18&#45;&gt;Node19 -->
<g id="edge21" class="edge">
<title>Node18&#45;&gt;Node19</title>
<path fill="none" stroke="#63b8ff" d="M203,-142.26C203,-132.33 203,-121.36 203,-112.88"/>
<polygon fill="#63b8ff" stroke="#63b8ff" points="199.5,-142.09 203,-152.09 206.5,-142.09 199.5,-142.09"/>
</g>
<!-- Node23 -->
<g id="node23" class="node">
<title>Node23</title>
<g id="a_node23"><a xlink:href="application__injector_8hpp.html" target="_top" xlink:title=" ">
<polygon fill="white" stroke="#666666" points="371,-332.5 257,-332.5 257,-302.5 371,-302.5 371,-332.5"/>
<text text-anchor="start" x="265" y="-320.5" font-family="Helvetica,sans-Serif" font-size="10.00">src/injector/application</text>
<text text-anchor="middle" x="314" y="-309.5" font-family="Helvetica,sans-Serif" font-size="10.00">_injector.hpp</text>
</a>
</g>
</g>
<!-- Node22&#45;&gt;Node23 -->
<g id="edge25" class="edge">
<title>Node22&#45;&gt;Node23</title>
<path fill="none" stroke="#63b8ff" d="M408.21,-373.27C386.28,-360.52 358.5,-344.37 338.8,-332.92"/>
<polygon fill="#63b8ff" stroke="#63b8ff" points="406.41,-376.28 416.82,-378.28 409.93,-370.23 406.41,-376.28"/>
</g>
<!-- Node25 -->
<g id="node25" class="node">
<title>Node25</title>
<g id="a_node25"><a xlink:href="epoch__storage__impl_8cpp.html" target="_top" xlink:title=" ">
<polygon fill="white" stroke="#666666" points="535,-332.5 389,-332.5 389,-302.5 535,-302.5 535,-332.5"/>
<text text-anchor="start" x="397" y="-320.5" font-family="Helvetica,sans-Serif" font-size="10.00">src/verification/production</text>
<text text-anchor="middle" x="462" y="-309.5" font-family="Helvetica,sans-Serif" font-size="10.00">/impl/epoch_storage_impl.cpp</text>
</a>
</g>
</g>
<!-- Node22&#45;&gt;Node25 -->
<g id="edge30" class="edge">
<title>Node22&#45;&gt;Node25</title>
<path fill="none" stroke="#63b8ff" d="M449.44,-368.1C452.41,-356.37 455.83,-342.87 458.35,-332.92"/>
<polygon fill="#63b8ff" stroke="#63b8ff" points="446.1,-367.02 447.04,-377.57 452.88,-368.74 446.1,-367.02"/>
</g>
<!-- Node23&#45;&gt;Node6 -->
<g id="edge27" class="edge">
<title>Node23&#45;&gt;Node6</title>
<path fill="none" stroke="#63b8ff" d="M314.48,-290.8C315.89,-270.35 320.26,-241.68 333,-220 341.57,-205.41 355.99,-193.07 368.44,-184.3"/>
<polygon fill="#63b8ff" stroke="#63b8ff" points="310.99,-290.38 314.01,-300.54 317.99,-290.72 310.99,-290.38"/>
</g>
<!-- Node23&#45;&gt;Node11 -->
<g id="edge29" class="edge">
<title>Node23&#45;&gt;Node11</title>
<path fill="none" stroke="#63b8ff" d="M373.65,-298.82C417.77,-285.74 477.11,-268.15 518.37,-255.92"/>
<polygon fill="#63b8ff" stroke="#63b8ff" points="372.82,-295.41 364.23,-301.61 374.81,-302.12 372.82,-295.41"/>
</g>
<!-- Node23&#45;&gt;Node17 -->
<g id="edge28" class="edge">
<title>Node23&#45;&gt;Node17</title>
<path fill="none" stroke="#63b8ff" d="M281.9,-295.92C262.1,-283.23 237.19,-267.27 219.49,-255.92"/>
<polygon fill="#63b8ff" stroke="#63b8ff" points="279.86,-298.77 290.17,-301.22 283.64,-292.88 279.86,-298.77"/>
</g>
<!-- Node24 -->
<g id="node24" class="node">
<title>Node24</title>
<g id="a_node24"><a xlink:href="application__injector_8cpp.html" target="_top" xlink:title=" ">
<polygon fill="white" stroke="#666666" points="456,-255.5 342,-255.5 342,-225.5 456,-225.5 456,-255.5"/>
<text text-anchor="start" x="350" y="-243.5" font-family="Helvetica,sans-Serif" font-size="10.00">src/injector/application</text>
<text text-anchor="middle" x="399" y="-232.5" font-family="Helvetica,sans-Serif" font-size="10.00">_injector.cpp</text>
</a>
</g>
</g>
<!-- Node23&#45;&gt;Node24 -->
<g id="edge26" class="edge">
<title>Node23&#45;&gt;Node24</title>
<path fill="none" stroke="#63b8ff" d="M338.71,-294.7C352.86,-282.22 370.21,-266.9 382.66,-255.92"/>
<polygon fill="#63b8ff" stroke="#63b8ff" points="336.71,-291.8 331.52,-301.04 341.34,-297.05 336.71,-291.8"/>
</g>
<!-- Node26&#45;&gt;Node4 -->
<g id="edge33" class="edge">
<title>Node26&#45;&gt;Node4</title>
<path fill="none" stroke="#63b8ff" d="M777.5,-444.86C765.32,-437.15 754.23,-427.34 747,-415 731.81,-389.06 745.27,-352.86 755.03,-332.99"/>
<polygon fill="#63b8ff" stroke="#63b8ff" points="775.73,-447.88 786.14,-449.85 779.23,-441.82 775.73,-447.88"/>
</g>
<!-- Node26&#45;&gt;Node15 -->
<g id="edge35" class="edge">
<title>Node26&#45;&gt;Node15</title>
<path fill="none" stroke="#63b8ff" d="M893.88,-444.18C903.99,-436.22 913.31,-426.47 919,-415 927.1,-398.67 925.11,-391.17 919,-374 900.99,-323.39 854.46,-278.11 828.74,-255.92"/>
<polygon fill="#63b8ff" stroke="#63b8ff" points="892.13,-441.13 886.09,-449.84 896.24,-446.79 892.13,-441.13"/>
</g>
<!-- Node27 -->
<g id="node27" class="node">
<title>Node27</title>
<g id="a_node27"><a xlink:href="production__digests__util_8cpp.html" target="_top" xlink:title=" ">
<polygon fill="white" stroke="#666666" points="1094,-415 966,-415 966,-374 1094,-374 1094,-415"/>
<text text-anchor="start" x="974" y="-403" font-family="Helvetica,sans-Serif" font-size="10.00">src/verification/production</text>
<text text-anchor="start" x="974" y="-392" font-family="Helvetica,sans-Serif" font-size="10.00">/impl/production_digests</text>
<text text-anchor="middle" x="1030" y="-381" font-family="Helvetica,sans-Serif" font-size="10.00">_util.cpp</text>
</a>
</g>
</g>
<!-- Node26&#45;&gt;Node27 -->
<g id="edge34" class="edge">
<title>Node26&#45;&gt;Node27</title>
<path fill="none" stroke="#63b8ff" d="M905.4,-446.29C929.81,-436.34 957.73,-424.96 980.95,-415.49"/>
<polygon fill="#63b8ff" stroke="#63b8ff" points="904.17,-443.01 896.23,-450.03 906.81,-449.49 904.17,-443.01"/>
</g>
<!-- Node28 -->
<g id="node28" class="node">
<title>Node28</title>
<g id="a_node28"><a xlink:href="production__block__validator_8cpp.html" target="_top" xlink:title=" ">
<polygon fill="white" stroke="#666666" points="909.5,-409.5 756.5,-409.5 756.5,-379.5 909.5,-379.5 909.5,-409.5"/>
<text text-anchor="start" x="764.5" y="-397.5" font-family="Helvetica,sans-Serif" font-size="10.00">src/verification/validation</text>
<text text-anchor="middle" x="833" y="-386.5" font-family="Helvetica,sans-Serif" font-size="10.00">/production_block_validator.cpp</text>
</a>
</g>
</g>
<!-- Node26&#45;&gt;Node28 -->
<g id="edge36" class="edge">
<title>Node26&#45;&gt;Node28</title>
<path fill="none" stroke="#63b8ff" d="M840.65,-439.62C838.86,-429.3 836.95,-418.3 835.49,-409.86"/>
<polygon fill="#63b8ff" stroke="#63b8ff" points="837.17,-440.05 842.33,-449.3 844.07,-438.85 837.17,-440.05"/>
</g>
<!-- Node29&#45;&gt;Node27 -->
<g id="edge38" class="edge">
<title>Node29&#45;&gt;Node27</title>
<path fill="none" stroke="#63b8ff" d="M1021.42,-445C1023.1,-435.3 1024.99,-424.4 1026.57,-415.3"/>
<polygon fill="#63b8ff" stroke="#63b8ff" points="1018.02,-444.1 1019.77,-454.55 1024.92,-445.29 1018.02,-444.1"/>
</g>
</g>
</svg>
        <g id="navigator" transform="translate(0 0)" fill="#404254">
                <rect fill="#f2f5e9" fill-opacity="0.5" stroke="#606060" stroke-width=".5" x="0" y="0" width="60" height="60"/>
                <use id="zoomplus" xlink:href="#zoomPlus" x="17" y="9" onmousedown="handleZoom(evt,'in')"/>
                <use id="zoomminus" xlink:href="#zoomMin" x="42" y="9" onmousedown="handleZoom(evt,'out')"/>
                <use id="reset" xlink:href="#resetDef" x="30" y="36" onmousedown="handleReset()"/>
                <g id="arrowUp" xlink:href="#dirArrow" transform="translate(30 24)" onmousedown="handlePan(0,-1)">
                  <use xlink:href="#rim" fill="#404040">
                        <set attributeName="fill" to="#808080" begin="arrowUp.mouseover" end="arrowUp.mouseout"/>
                  </use>
                  <path fill="none" stroke="white" stroke-width="1.5" d="M0,-3.0v7 M-2.5,-0.5L0,-3.0L2.5,-0.5"/>
                </g>
                <g id="arrowRight" xlink:href="#dirArrow" transform="rotate(90) translate(36 -43)" onmousedown="handlePan(1,0)">
                  <use xlink:href="#rim" fill="#404040">
                        <set attributeName="fill" to="#808080" begin="arrowRight.mouseover" end="arrowRight.mouseout"/>
                  </use>
                  <path fill="none" stroke="white" stroke-width="1.5" d="M0,-3.0v7 M-2.5,-0.5L0,-3.0L2.5,-0.5"/>
                </g>
                <g id="arrowDown" xlink:href="#dirArrow" transform="rotate(180) translate(-30 -48)" onmousedown="handlePan(0,1)">
                  <use xlink:href="#rim" fill="#404040">
                        <set attributeName="fill" to="#808080" begin="arrowDown.mouseover" end="arrowDown.mouseout"/>
                  </use>
                  <path fill="none" stroke="white" stroke-width="1.5" d="M0,-3.0v7 M-2.5,-0.5L0,-3.0L2.5,-0.5"/>
                </g>
                <g id="arrowLeft" xlink:href="#dirArrow" transform="rotate(270) translate(-36 17)" onmousedown="handlePan(-1,0)">
                  <use xlink:href="#rim" fill="#404040">
                        <set attributeName="fill" to="#808080" begin="arrowLeft.mouseover" end="arrowLeft.mouseout"/>
                  </use>
                  <path fill="none" stroke="white" stroke-width="1.5" d="M0,-3.0v7 M-2.5,-0.5L0,-3.0L2.5,-0.5"/>
                </g>
        </g>
        <svg viewBox="0 0 15 15" width="100%" height="30px" preserveAspectRatio="xMaxYMin meet">
         <g id="arrow_out" transform="scale(0.3 0.3)">
          <a xlink:href="next__epoch__descriptor_8hpp__dep__incl_org.svg" target="_base">
           <rect id="button" ry="5" rx="5" y="6" x="6" height="38" width="38"
                fill="#f2f5e9" fill-opacity="0.5" stroke="#606060" stroke-width="1.0"/>
           <path id="arrow"
             d="M 11.500037,31.436501 C 11.940474,20.09759 22.043105,11.32322 32.158766,21.979434 L 37.068811,17.246167 C 37.068811,17.246167 37.088388,32 37.088388,32 L 22.160133,31.978069 C 22.160133,31.978069 26.997745,27.140456 26.997745,27.140456 C 18.528582,18.264221 13.291696,25.230495 11.500037,31.436501 z"
             style="fill:#404040;"/>
          </a>
         </g>
        </svg>
</svg>
