<?xml version="1.0" encoding="UTF-8" standalone="no"?>
<!DOCTYPE svg PUBLIC "-//W3C//DTD SVG 1.1//EN"
 "http://www.w3.org/Graphics/SVG/1.1/DTD/svg11.dtd">
<!-- Generated by graphviz version 7.0.5 (20221223.1930)
 -->
<!-- Title: node/node.cpp Pages: 1 -->
<svg width="1148pt" height="258pt"
 viewBox="0.00 0.00 1147.50 258.00" xmlns="http://www.w3.org/2000/svg" xmlns:xlink="http://www.w3.org/1999/xlink">
<g id="graph0" class="graph" transform="scale(1 1) rotate(0) translate(4 254)">
<title>node/node.cpp</title>
<!-- Node1 -->
<g id="node1" class="node">
<title>Node1</title>
<g id="a_node1"><a xlink:title=" ">
<polygon fill="#999999" stroke="#666666" points="617.5,-250 537.5,-250 537.5,-231 617.5,-231 617.5,-250"/>
<text text-anchor="middle" x="577.5" y="-238" font-family="Helvetica,sans-Serif" font-size="10.00">node/node.cpp</text>
</a>
</g>
</g>
<!-- Node2 -->
<g id="node2" class="node">
<title>Node2</title>
<g id="a_node2"><a xlink:href="node_2node_8hpp.html" target="_top" xlink:title=" ">
<polygon fill="white" stroke="#666666" points="424.5,-195 368.5,-195 368.5,-176 424.5,-176 424.5,-195"/>
<text text-anchor="middle" x="396.5" y="-183" font-family="Helvetica,sans-Serif" font-size="10.00">node.hpp</text>
</a>
</g>
</g>
<!-- Node1&#45;&gt;Node2 -->
<g id="edge1" class="edge">
<title>Node1&#45;&gt;Node2</title>
<path fill="none" stroke="#63b8ff" d="M546.8,-230.51C516.17,-221.54 469,-207.73 435.69,-197.97"/>
<polygon fill="#63b8ff" stroke="#63b8ff" points="437,-194.71 426.42,-195.26 435.03,-201.43 437,-194.71"/>
</g>
<!-- Node23 -->
<g id="node23" class="node">
<title>Node23</title>
<g id="a_node23"><a xlink:href="ipfs__lite__store_8hpp.html" target="_top" xlink:title=" ">
<polygon fill="white" stroke="#666666" points="931,-195 836,-195 836,-176 931,-176 931,-195"/>
<text text-anchor="middle" x="883.5" y="-183" font-family="Helvetica,sans-Serif" font-size="10.00">ipfs_lite_store.hpp</text>
</a>
</g>
</g>
<!-- Node1&#45;&gt;Node23 -->
<g id="edge26" class="edge">
<title>Node1&#45;&gt;Node23</title>
<path fill="none" stroke="#63b8ff" d="M617.82,-232.52C670.57,-223.38 763.43,-207.3 824.2,-196.77"/>
<polygon fill="#63b8ff" stroke="#63b8ff" points="824.79,-200.22 834.04,-195.07 823.59,-193.32 824.79,-200.22"/>
</g>
<!-- Node3 -->
<g id="node3" class="node">
<title>Node3</title>
<g id="a_node3"><a xlink:title=" ">
<polygon fill="#e0e0e0" stroke="#999999" points="69,-74 0,-74 0,-55 69,-55 69,-74"/>
<text text-anchor="middle" x="34.5" y="-62" font-family="Helvetica,sans-Serif" font-size="10.00">lib/stats.hpp</text>
</a>
</g>
</g>
<!-- Node2&#45;&gt;Node3 -->
<g id="edge2" class="edge">
<title>Node2&#45;&gt;Node3</title>
<path fill="none" stroke="#63b8ff" d="M368.01,-183.15C301.15,-179.55 136.29,-168.01 89.5,-140 67.89,-127.06 52.13,-102.05 43.15,-84.6"/>
<polygon fill="#63b8ff" stroke="#63b8ff" points="46.4,-83.27 38.9,-75.78 40.09,-86.31 46.4,-83.27"/>
</g>
<!-- Node4 -->
<g id="node4" class="node">
<title>Node4</title>
<g id="a_node4"><a xlink:title=" ">
<polygon fill="#e0e0e0" stroke="#999999" points="170,-134.5 99,-134.5 99,-115.5 170,-115.5 170,-134.5"/>
<text text-anchor="middle" x="134.5" y="-122.5" font-family="Helvetica,sans-Serif" font-size="10.00">lib/alarm.hpp</text>
</a>
</g>
</g>
<!-- Node2&#45;&gt;Node4 -->
<g id="edge3" class="edge">
<title>Node2&#45;&gt;Node4</title>
<path fill="none" stroke="#63b8ff" d="M368.06,-179.69C326.23,-172.4 245.79,-157.52 178.5,-140 176.26,-139.42 173.96,-138.79 171.65,-138.13"/>
<polygon fill="#63b8ff" stroke="#63b8ff" points="172.93,-134.85 162.34,-135.34 170.91,-141.56 172.93,-134.85"/>
</g>
<!-- Node5 -->
<g id="node5" class="node">
<title>Node5</title>
<g id="a_node5"><a xlink:title=" ">
<polygon fill="#e0e0e0" stroke="#999999" points="281,-134.5 188,-134.5 188,-115.5 281,-115.5 281,-134.5"/>
<text text-anchor="middle" x="234.5" y="-122.5" font-family="Helvetica,sans-Serif" font-size="10.00">secure/ledger.hpp</text>
</a>
</g>
</g>
<!-- Node2&#45;&gt;Node5 -->
<g id="edge4" class="edge">
<title>Node2&#45;&gt;Node5</title>
<path fill="none" stroke="#63b8ff" d="M371.9,-175.62C344.78,-165.82 300.92,-149.98 270.06,-138.84"/>
<polygon fill="#63b8ff" stroke="#63b8ff" points="271.35,-135.59 260.76,-135.48 268.98,-142.17 271.35,-135.59"/>
</g>
<!-- Node6 -->
<g id="node6" class="node">
<title>Node6</title>
<g id="a_node6"><a xlink:title=" ">
<polygon fill="#e0e0e0" stroke="#999999" points="388,-134.5 299,-134.5 299,-115.5 388,-115.5 388,-134.5"/>
<text text-anchor="middle" x="343.5" y="-122.5" font-family="Helvetica,sans-Serif" font-size="10.00">secure/utility.hpp</text>
</a>
</g>
</g>
<!-- Node2&#45;&gt;Node6 -->
<g id="edge5" class="edge">
<title>Node2&#45;&gt;Node6</title>
<path fill="none" stroke="#63b8ff" d="M388.68,-175.87C380.85,-167.23 368.6,-153.7 358.83,-142.92"/>
<polygon fill="#63b8ff" stroke="#63b8ff" points="361.68,-140.85 352.37,-135.79 356.49,-145.55 361.68,-140.85"/>
</g>
<!-- Node7 -->
<g id="node7" class="node">
<title>Node7</title>
<g id="a_node7"><a xlink:href="node__config_8hpp.html" target="_top" xlink:title=" ">
<polygon fill="white" stroke="#666666" points="492.5,-134.5 406.5,-134.5 406.5,-115.5 492.5,-115.5 492.5,-134.5"/>
<text text-anchor="middle" x="449.5" y="-122.5" font-family="Helvetica,sans-Serif" font-size="10.00">node_config.hpp</text>
</a>
</g>
</g>
<!-- Node2&#45;&gt;Node7 -->
<g id="edge6" class="edge">
<title>Node2&#45;&gt;Node7</title>
<path fill="none" stroke="#63b8ff" d="M404.32,-175.87C412.15,-167.23 424.4,-153.7 434.17,-142.92"/>
<polygon fill="#63b8ff" stroke="#63b8ff" points="436.51,-145.55 440.63,-135.79 431.32,-140.85 436.51,-145.55"/>
</g>
<!-- Node20 -->
<g id="node20" class="node">
<title>Node20</title>
<g id="a_node20"><a xlink:href="wallet_8hpp.html" target="_top" xlink:title=" ">
<polygon fill="white" stroke="#666666" points="570.5,-134.5 510.5,-134.5 510.5,-115.5 570.5,-115.5 570.5,-134.5"/>
<text text-anchor="middle" x="540.5" y="-122.5" font-family="Helvetica,sans-Serif" font-size="10.00">wallet.hpp</text>
</a>
</g>
</g>
<!-- Node2&#45;&gt;Node20 -->
<g id="edge22" class="edge">
<title>Node2&#45;&gt;Node20</title>
<path fill="none" stroke="#63b8ff" d="M418.37,-175.62C442.16,-165.95 480.44,-150.4 507.8,-139.28"/>
<polygon fill="#63b8ff" stroke="#63b8ff" points="509.07,-142.54 517.02,-135.54 506.44,-136.06 509.07,-142.54"/>
</g>
<!-- Node22 -->
<g id="node22" class="node">
<title>Node22</title>
<g id="a_node22"><a xlink:title=" ">
<polygon fill="#e0e0e0" stroke="#999999" points="722.5,-134.5 588.5,-134.5 588.5,-115.5 722.5,-115.5 722.5,-134.5"/>
<text text-anchor="middle" x="655.5" y="-122.5" font-family="Helvetica,sans-Serif" font-size="10.00">boost/program_options.hpp</text>
</a>
</g>
</g>
<!-- Node2&#45;&gt;Node22 -->
<g id="edge25" class="edge">
<title>Node2&#45;&gt;Node22</title>
<path fill="none" stroke="#63b8ff" d="M424.71,-178.13C467.92,-168.37 551.12,-149.58 604.93,-137.42"/>
<polygon fill="#63b8ff" stroke="#63b8ff" points="605.48,-140.89 614.47,-135.27 603.94,-134.06 605.48,-140.89"/>
</g>
<!-- Node7&#45;&gt;Node3 -->
<g id="edge11" class="edge">
<title>Node7&#45;&gt;Node3</title>
<path fill="none" stroke="#63b8ff" d="M418.56,-115.02C411.37,-113.15 403.7,-111.35 396.5,-110 259.83,-84.38 220.48,-95.26 80.35,-74.32"/>
<polygon fill="#63b8ff" stroke="#63b8ff" points="81.1,-70.89 70.69,-72.84 80.04,-77.81 81.1,-70.89"/>
</g>
<!-- Node8 -->
<g id="node8" class="node">
<title>Node8</title>
<g id="a_node8"><a xlink:title=" ">
<polygon fill="#e0e0e0" stroke="#999999" points="160,-74 87,-74 87,-55 160,-55 160,-74"/>
<text text-anchor="middle" x="123.5" y="-62" font-family="Helvetica,sans-Serif" font-size="10.00">lib/config.hpp</text>
</a>
</g>
</g>
<!-- Node7&#45;&gt;Node8 -->
<g id="edge7" class="edge">
<title>Node7&#45;&gt;Node8</title>
<path fill="none" stroke="#63b8ff" d="M417.67,-115.05C410.72,-113.25 403.39,-111.46 396.5,-110 298.73,-89.21 273.13,-90.22 174.5,-74 173.49,-73.83 172.47,-73.67 171.45,-73.5"/>
<polygon fill="#63b8ff" stroke="#63b8ff" points="172.2,-70.07 161.76,-71.89 171.06,-76.98 172.2,-70.07"/>
</g>
<!-- Node9 -->
<g id="node9" class="node">
<title>Node9</title>
<g id="a_node9"><a xlink:title=" ">
<polygon fill="#e0e0e0" stroke="#999999" points="186.5,-19 114.5,-19 114.5,0 186.5,0 186.5,-19"/>
<text text-anchor="middle" x="150.5" y="-7" font-family="Helvetica,sans-Serif" font-size="10.00">lib/errors.hpp</text>
</a>
</g>
</g>
<!-- Node7&#45;&gt;Node9 -->
<g id="edge8" class="edge">
<title>Node7&#45;&gt;Node9</title>
<path fill="none" stroke="#63b8ff" d="M417.08,-115.05C410.3,-113.29 403.18,-111.52 396.5,-110 313.11,-91.07 281.97,-116.02 207.5,-74 188.19,-63.1 171.98,-43.24 161.84,-28.62"/>
<polygon fill="#63b8ff" stroke="#63b8ff" points="164.83,-26.8 156.4,-20.37 158.98,-30.65 164.83,-26.8"/>
</g>
<!-- Node10 -->
<g id="node10" class="node">
<title>Node10</title>
<g id="a_node10"><a xlink:title=" ">
<polygon fill="#e0e0e0" stroke="#999999" points="308,-74 217,-74 217,-55 308,-55 308,-74"/>
<text text-anchor="middle" x="262.5" y="-62" font-family="Helvetica,sans-Serif" font-size="10.00">lib/jsonconfig.hpp</text>
</a>
</g>
</g>
<!-- Node7&#45;&gt;Node10 -->
<g id="edge9" class="edge">
<title>Node7&#45;&gt;Node10</title>
<path fill="none" stroke="#63b8ff" d="M421.1,-115.12C389.38,-105.19 337.83,-89.07 302.15,-77.9"/>
<polygon fill="#63b8ff" stroke="#63b8ff" points="303.2,-74.57 292.61,-74.92 301.11,-81.25 303.2,-74.57"/>
</g>
<!-- Node11 -->
<g id="node11" class="node">
<title>Node11</title>
<g id="a_node11"><a xlink:title=" ">
<polygon fill="#e0e0e0" stroke="#999999" points="411,-74 326,-74 326,-55 411,-55 411,-74"/>
<text text-anchor="middle" x="368.5" y="-62" font-family="Helvetica,sans-Serif" font-size="10.00">lib/numbers.hpp</text>
</a>
</g>
</g>
<!-- Node7&#45;&gt;Node11 -->
<g id="edge10" class="edge">
<title>Node7&#45;&gt;Node11</title>
<path fill="none" stroke="#63b8ff" d="M437.2,-115.12C424.71,-106.1 405.12,-91.95 390.05,-81.06"/>
<polygon fill="#63b8ff" stroke="#63b8ff" points="392.3,-78.37 382.14,-75.35 388.2,-84.05 392.3,-78.37"/>
</g>
<!-- Node12 -->
<g id="node12" class="node">
<title>Node12</title>
<g id="a_node12"><a xlink:href="logging_8hpp.html" target="_top" xlink:title=" ">
<polygon fill="white" stroke="#666666" points="494,-74 429,-74 429,-55 494,-55 494,-74"/>
<text text-anchor="middle" x="461.5" y="-62" font-family="Helvetica,sans-Serif" font-size="10.00">logging.hpp</text>
</a>
</g>
</g>
<!-- Node7&#45;&gt;Node12 -->
<g id="edge12" class="edge">
<title>Node7&#45;&gt;Node12</title>
<path fill="none" stroke="#63b8ff" d="M451.27,-115.37C452.88,-107.5 455.33,-95.6 457.42,-85.39"/>
<polygon fill="#63b8ff" stroke="#63b8ff" points="460.84,-86.15 459.42,-75.65 453.98,-84.74 460.84,-86.15"/>
</g>
<!-- Node16 -->
<g id="node16" class="node">
<title>Node16</title>
<g id="a_node16"><a xlink:title=" ">
<polygon fill="#e0e0e0" stroke="#999999" points="651.5,-19 605.5,-19 605.5,0 651.5,0 651.5,-19"/>
<text text-anchor="middle" x="628.5" y="-7" font-family="Helvetica,sans-Serif" font-size="10.00">chrono</text>
</a>
</g>
</g>
<!-- Node7&#45;&gt;Node16 -->
<g id="edge20" class="edge">
<title>Node7&#45;&gt;Node16</title>
<path fill="none" stroke="#63b8ff" d="M460.12,-115.09C476.81,-101.29 510.51,-74.35 541.5,-55 559.85,-43.54 581.51,-32.46 598.63,-24.22"/>
<polygon fill="#63b8ff" stroke="#63b8ff" points="599.72,-27.57 607.26,-20.12 596.72,-21.24 599.72,-27.57"/>
</g>
<!-- Node18 -->
<g id="node18" class="node">
<title>Node18</title>
<g id="a_node18"><a xlink:title=" ">
<polygon fill="#e0e0e0" stroke="#999999" points="716.5,-74 612.5,-74 612.5,-55 716.5,-55 716.5,-74"/>
<text text-anchor="middle" x="664.5" y="-62" font-family="Helvetica,sans-Serif" font-size="10.00">secure/common.hpp</text>
</a>
</g>
</g>
<!-- Node7&#45;&gt;Node18 -->
<g id="edge19" class="edge">
<title>Node7&#45;&gt;Node18</title>
<path fill="none" stroke="#63b8ff" d="M482.15,-115.12C519.09,-105.06 579.43,-88.65 620.5,-77.47"/>
<polygon fill="#63b8ff" stroke="#63b8ff" points="621.35,-80.87 630.08,-74.87 619.51,-74.11 621.35,-80.87"/>
</g>
<!-- Node19 -->
<g id="node19" class="node">
<title>Node19</title>
<g id="a_node19"><a xlink:title=" ">
<polygon fill="#e0e0e0" stroke="#999999" points="594.5,-74 550.5,-74 550.5,-55 594.5,-55 594.5,-74"/>
<text text-anchor="middle" x="572.5" y="-62" font-family="Helvetica,sans-Serif" font-size="10.00">vector</text>
</a>
</g>
</g>
<!-- Node7&#45;&gt;Node19 -->
<g id="edge21" class="edge">
<title>Node7&#45;&gt;Node19</title>
<path fill="none" stroke="#63b8ff" d="M468.18,-115.12C488.14,-105.62 520.04,-90.45 543.32,-79.38"/>
<polygon fill="#63b8ff" stroke="#63b8ff" points="544.75,-82.57 552.28,-75.12 541.74,-76.25 544.75,-82.57"/>
</g>
<!-- Node12&#45;&gt;Node9 -->
<g id="edge13" class="edge">
<title>Node12&#45;&gt;Node9</title>
<path fill="none" stroke="#63b8ff" d="M428.51,-56.69C425.47,-56.1 422.43,-55.53 419.5,-55 323.78,-37.63 296.71,-36.43 197.92,-19.38"/>
<polygon fill="#63b8ff" stroke="#63b8ff" points="198.78,-15.97 188.32,-17.71 197.58,-22.87 198.78,-15.97"/>
</g>
<!-- Node13 -->
<g id="node13" class="node">
<title>Node13</title>
<g id="a_node13"><a xlink:title=" ">
<polygon fill="#e0e0e0" stroke="#999999" points="334,-19 205,-19 205,0 334,0 334,-19"/>
<text text-anchor="middle" x="269.5" y="-7" font-family="Helvetica,sans-Serif" font-size="10.00">boost/log/detail/config.hpp</text>
</a>
</g>
</g>
<!-- Node12&#45;&gt;Node13 -->
<g id="edge14" class="edge">
<title>Node12&#45;&gt;Node13</title>
<path fill="none" stroke="#63b8ff" d="M428.93,-54.51C396.97,-45.69 348.05,-32.18 312.82,-22.46"/>
<polygon fill="#63b8ff" stroke="#63b8ff" points="313.94,-19.14 303.37,-19.85 312.08,-25.88 313.94,-19.14"/>
</g>
<!-- Node14 -->
<g id="node14" class="node">
<title>Node14</title>
<g id="a_node14"><a xlink:title=" ">
<polygon fill="#e0e0e0" stroke="#999999" points="459,-19 352,-19 352,0 459,0 459,-19"/>
<text text-anchor="middle" x="405.5" y="-7" font-family="Helvetica,sans-Serif" font-size="10.00">boost/shared_ptr.hpp</text>
</a>
</g>
</g>
<!-- Node12&#45;&gt;Node14 -->
<g id="edge15" class="edge">
<title>Node12&#45;&gt;Node14</title>
<path fill="none" stroke="#63b8ff" d="M452,-54.51C444.07,-47 432.55,-36.1 422.96,-27.03"/>
<polygon fill="#63b8ff" stroke="#63b8ff" points="425.63,-24.73 415.96,-20.4 420.82,-29.81 425.63,-24.73"/>
</g>
<!-- Node15 -->
<g id="node15" class="node">
<title>Node15</title>
<g id="a_node15"><a xlink:title=" ">
<polygon fill="#e0e0e0" stroke="#999999" points="523.5,-19 477.5,-19 477.5,0 523.5,0 523.5,-19"/>
<text text-anchor="middle" x="500.5" y="-7" font-family="Helvetica,sans-Serif" font-size="10.00">atomic</text>
</a>
</g>
</g>
<!-- Node12&#45;&gt;Node15 -->
<g id="edge16" class="edge">
<title>Node12&#45;&gt;Node15</title>
<path fill="none" stroke="#63b8ff" d="M467.94,-54.75C473.16,-47.66 480.69,-37.42 487.19,-28.59"/>
<polygon fill="#63b8ff" stroke="#63b8ff" points="489.92,-30.79 493.02,-20.66 484.28,-26.64 489.92,-30.79"/>
</g>
<!-- Node12&#45;&gt;Node16 -->
<g id="edge17" class="edge">
<title>Node12&#45;&gt;Node16</title>
<path fill="none" stroke="#63b8ff" d="M489.83,-54.51C518.75,-45.33 563.67,-31.08 594.5,-21.29"/>
<polygon fill="#63b8ff" stroke="#63b8ff" points="595.24,-24.73 603.72,-18.37 593.13,-18.05 595.24,-24.73"/>
</g>
<!-- Node17 -->
<g id="node17" class="node">
<title>Node17</title>
<g id="a_node17"><a xlink:title=" ">
<polygon fill="#e0e0e0" stroke="#999999" points="587.5,-19 541.5,-19 541.5,0 587.5,0 587.5,-19"/>
<text text-anchor="middle" x="564.5" y="-7" font-family="Helvetica,sans-Serif" font-size="10.00">cstdint</text>
</a>
</g>
</g>
<!-- Node12&#45;&gt;Node17 -->
<g id="edge18" class="edge">
<title>Node12&#45;&gt;Node17</title>
<path fill="none" stroke="#63b8ff" d="M478.97,-54.51C494.9,-46.31 518.69,-34.07 537.14,-24.58"/>
<polygon fill="#63b8ff" stroke="#63b8ff" points="538.65,-27.74 545.94,-20.05 535.45,-21.51 538.65,-27.74"/>
</g>
<!-- Node20&#45;&gt;Node18 -->
<g id="edge24" class="edge">
<title>Node20&#45;&gt;Node18</title>
<path fill="none" stroke="#63b8ff" d="M559.33,-115.12C579.45,-105.62 611.61,-90.45 635.08,-79.38"/>
<polygon fill="#63b8ff" stroke="#63b8ff" points="636.57,-82.55 644.12,-75.11 633.58,-76.22 636.57,-82.55"/>
</g>
<!-- Node21 -->
<g id="node21" class="node">
<title>Node21</title>
<g id="a_node21"><a xlink:title=" ">
<polygon fill="#e0e0e0" stroke="#999999" points="846.5,-74 734.5,-74 734.5,-55 846.5,-55 846.5,-74"/>
<text text-anchor="middle" x="790.5" y="-62" font-family="Helvetica,sans-Serif" font-size="10.00">secure/blockstore.hpp</text>
</a>
</g>
</g>
<!-- Node20&#45;&gt;Node21 -->
<g id="edge23" class="edge">
<title>Node20&#45;&gt;Node21</title>
<path fill="none" stroke="#63b8ff" d="M563.84,-115.03C568.96,-113.23 574.38,-111.45 579.5,-110 628.5,-96.11 685,-84.42 727.19,-76.51"/>
<polygon fill="#63b8ff" stroke="#63b8ff" points="727.74,-79.97 736.93,-74.7 726.46,-73.08 727.74,-79.97"/>
</g>
<!-- Node24 -->
<g id="node24" class="node">
<title>Node24</title>
<g id="a_node24"><a xlink:title=" ">
<polygon fill="#e0e0e0" stroke="#999999" points="884,-134.5 741,-134.5 741,-115.5 884,-115.5 884,-134.5"/>
<text text-anchor="middle" x="812.5" y="-122.5" font-family="Helvetica,sans-Serif" font-size="10.00">secure/blockstore_partial.hpp</text>
</a>
</g>
</g>
<!-- Node23&#45;&gt;Node24 -->
<g id="edge27" class="edge">
<title>Node23&#45;&gt;Node24</title>
<path fill="none" stroke="#63b8ff" d="M872.72,-175.62C861.98,-166.77 845.25,-152.98 832.15,-142.19"/>
<polygon fill="#63b8ff" stroke="#63b8ff" points="834.5,-139.59 824.55,-135.93 830.05,-144.99 834.5,-139.59"/>
</g>
<!-- Node25 -->
<g id="node25" class="node">
<title>Node25</title>
<g id="a_node25"><a xlink:title=" ">
<polygon fill="#e0e0e0" stroke="#999999" points="1007,-134.5 902,-134.5 902,-115.5 1007,-115.5 1007,-134.5"/>
<text text-anchor="middle" x="954.5" y="-122.5" font-family="Helvetica,sans-Serif" font-size="10.00">boost/filesystem.hpp</text>
</a>
</g>
</g>
<!-- Node23&#45;&gt;Node25 -->
<g id="edge28" class="edge">
<title>Node23&#45;&gt;Node25</title>
<path fill="none" stroke="#63b8ff" d="M894.28,-175.62C905.02,-166.77 921.75,-152.98 934.85,-142.19"/>
<polygon fill="#63b8ff" stroke="#63b8ff" points="936.95,-144.99 942.45,-135.93 932.5,-139.59 936.95,-144.99"/>
</g>
<!-- Node26 -->
<g id="node26" class="node">
<title>Node26</title>
<g id="a_node26"><a xlink:title=" ">
<polygon fill="#e0e0e0" stroke="#999999" points="1139.5,-140 1025.5,-140 1025.5,-110 1139.5,-110 1139.5,-140"/>
<text text-anchor="start" x="1033.5" y="-128" font-family="Helvetica,sans-Serif" font-size="10.00">ipfs_lite/ipfs/impl</text>
<text text-anchor="middle" x="1082.5" y="-117" font-family="Helvetica,sans-Serif" font-size="10.00">/datastore_leveldb.hpp</text>
</a>
</g>
</g>
<!-- Node23&#45;&gt;Node26 -->
<g id="edge29" class="edge">
<title>Node23&#45;&gt;Node26</title>
<path fill="none" stroke="#63b8ff" d="M913.72,-175.62C942.5,-167.16 986.61,-154.19 1022.52,-143.63"/>
<polygon fill="#63b8ff" stroke="#63b8ff" points="1023.32,-147.04 1031.93,-140.87 1021.35,-140.33 1023.32,-147.04"/>
</g>
</g>
</svg>
