<?xml version="1.0" encoding="UTF-8" standalone="no"?>
<!DOCTYPE svg PUBLIC "-//W3C//DTD SVG 1.1//EN"
 "http://www.w3.org/Graphics/SVG/1.1/DTD/svg11.dtd">
<!-- Generated by graphviz version 7.0.5 (20221223.1930)
 -->
<!-- Title: src/base/outcome_throw.hpp Pages: 1 -->
<svg width="268pt" height="93pt"
 viewBox="0.00 0.00 268.00 93.00" xmlns="http://www.w3.org/2000/svg" xmlns:xlink="http://www.w3.org/1999/xlink">
<g id="graph0" class="graph" transform="scale(1 1) rotate(0) translate(4 89)">
<title>src/base/outcome_throw.hpp</title>
<!-- Node1 -->
<g id="node1" class="node">
<title>Node1</title>
<g id="a_node1"><a xlink:title=" ">
<polygon fill="#999999" stroke="#666666" points="195,-85 53,-85 53,-66 195,-66 195,-85"/>
<text text-anchor="middle" x="124" y="-73" font-family="Helvetica,sans-Serif" font-size="10.00">src/base/outcome_throw.hpp</text>
</a>
</g>
</g>
<!-- Node2 -->
<g id="node2" class="node">
<title>Node2</title>
<g id="a_node2"><a xlink:title=" ">
<polygon fill="#e0e0e0" stroke="#999999" points="110,-30 0,-30 0,0 110,0 110,-30"/>
<text text-anchor="start" x="8" y="-18" font-family="Helvetica,sans-Serif" font-size="10.00">boost/system/system</text>
<text text-anchor="middle" x="55" y="-7" font-family="Helvetica,sans-Serif" font-size="10.00">_error.hpp</text>
</a>
</g>
</g>
<!-- Node1&#45;&gt;Node2 -->
<g id="edge1" class="edge">
<title>Node1&#45;&gt;Node2</title>
<path fill="none" stroke="#63b8ff" d="M113.52,-65.62C104.83,-58.25 92.11,-47.47 80.75,-37.83"/>
<polygon fill="#63b8ff" stroke="#63b8ff" points="83.08,-35.22 73.19,-31.42 78.55,-40.55 83.08,-35.22"/>
</g>
<!-- Node3 -->
<g id="node3" class="node">
<title>Node3</title>
<g id="a_node3"><a xlink:title=" ">
<polygon fill="#e0e0e0" stroke="#999999" points="260,-24.5 128,-24.5 128,-5.5 260,-5.5 260,-24.5"/>
<text text-anchor="middle" x="194" y="-12.5" font-family="Helvetica,sans-Serif" font-size="10.00">boost/throw_exception.hpp</text>
</a>
</g>
</g>
<!-- Node1&#45;&gt;Node3 -->
<g id="edge2" class="edge">
<title>Node1&#45;&gt;Node3</title>
<path fill="none" stroke="#63b8ff" d="M134.63,-65.62C145.22,-56.77 161.71,-42.98 174.63,-32.19"/>
<polygon fill="#63b8ff" stroke="#63b8ff" points="176.68,-35.04 182.11,-25.94 172.19,-29.67 176.68,-35.04"/>
</g>
</g>
</svg>
