<?xml version="1.0" encoding="UTF-8" standalone="no"?>
<!DOCTYPE svg PUBLIC "-//W3C//DTD SVG 1.1//EN"
 "http://www.w3.org/Graphics/SVG/1.1/DTD/svg11.dtd">
<!-- Generated by graphviz version 7.0.5 (20221223.1930)
 -->
<!-- Title: src/network/types/own_peer_info.hpp Pages: 1 -->
<svg width="774pt" height="456pt"
 viewBox="0.00 0.00 773.57 456.00" xmlns="http://www.w3.org/2000/svg" xmlns:xlink="http://www.w3.org/1999/xlink">
<g id="graph0" class="graph" transform="scale(1 1) rotate(0) translate(4 452)">
<title>src/network/types/own_peer_info.hpp</title>
<!-- Node1 -->
<g id="node1" class="node">
<title>Node1</title>
<g id="a_node1"><a xlink:title=" ">
<polygon fill="#999999" stroke="#666666" points="448,-448 333,-448 333,-418 448,-418 448,-448"/>
<text text-anchor="start" x="341" y="-436" font-family="Helvetica,sans-Serif" font-size="10.00">src/network/types/own</text>
<text text-anchor="middle" x="390.5" y="-425" font-family="Helvetica,sans-Serif" font-size="10.00">_peer_info.hpp</text>
</a>
</g>
</g>
<!-- Node2 -->
<g id="node2" class="node">
<title>Node2</title>
<g id="a_node2"><a xlink:href="syncing__node__injector_8hpp.html" target="_top" xlink:title=" ">
<polygon fill="white" stroke="#666666" points="231,-250 130,-250 130,-220 231,-220 231,-250"/>
<text text-anchor="start" x="138" y="-238" font-family="Helvetica,sans-Serif" font-size="10.00">src/injector/syncing</text>
<text text-anchor="middle" x="180.5" y="-227" font-family="Helvetica,sans-Serif" font-size="10.00">_node_injector.hpp</text>
</a>
</g>
</g>
<!-- Node1&#45;&gt;Node2 -->
<g id="edge1" class="edge">
<title>Node1&#45;&gt;Node2</title>
<path fill="none" stroke="#63b8ff" d="M322,-414.24C298.3,-406.39 272.25,-395.76 250.5,-382 215.45,-359.82 201.33,-353.92 184.5,-316 175.02,-294.65 176.26,-266.87 178.23,-250.29"/>
<polygon fill="#63b8ff" stroke="#63b8ff" points="320.67,-417.49 331.26,-417.19 322.79,-410.82 320.67,-417.49"/>
</g>
<!-- Node6 -->
<g id="node6" class="node">
<title>Node6</title>
<g id="a_node6"><a xlink:href="validating__node__injector_8hpp.html" target="_top" xlink:title=" ">
<polygon fill="white" stroke="#666666" points="611,-250 502,-250 502,-220 611,-220 611,-250"/>
<text text-anchor="start" x="510" y="-238" font-family="Helvetica,sans-Serif" font-size="10.00">src/injector/validating</text>
<text text-anchor="middle" x="556.5" y="-227" font-family="Helvetica,sans-Serif" font-size="10.00">_node_injector.hpp</text>
</a>
</g>
</g>
<!-- Node1&#45;&gt;Node6 -->
<g id="edge5" class="edge">
<title>Node1&#45;&gt;Node6</title>
<path fill="none" stroke="#63b8ff" d="M459.36,-419.27C513.57,-404.9 583.94,-375.29 608.5,-316 613.6,-303.68 613.72,-298.27 608.5,-286 602.32,-271.48 589.62,-259.14 578.33,-250.35"/>
<polygon fill="#63b8ff" stroke="#63b8ff" points="458.71,-415.83 449.87,-421.66 460.42,-422.62 458.71,-415.83"/>
</g>
<!-- Node15 -->
<g id="node15" class="node">
<title>Node15</title>
<g id="a_node15"><a xlink:href="router__libp2p_8hpp.html" target="_top" xlink:title=" ">
<polygon fill="white" stroke="#666666" points="375.5,-382 259.5,-382 259.5,-352 375.5,-352 375.5,-382"/>
<text text-anchor="start" x="267.5" y="-370" font-family="Helvetica,sans-Serif" font-size="10.00">src/network/impl/router</text>
<text text-anchor="middle" x="317.5" y="-359" font-family="Helvetica,sans-Serif" font-size="10.00">_libp2p.hpp</text>
</a>
</g>
</g>
<!-- Node1&#45;&gt;Node15 -->
<g id="edge15" class="edge">
<title>Node1&#45;&gt;Node15</title>
<path fill="none" stroke="#63b8ff" d="M365.89,-410.42C355.35,-401.18 343.33,-390.65 333.91,-382.39"/>
<polygon fill="#63b8ff" stroke="#63b8ff" points="363.33,-412.84 373.16,-416.8 367.95,-407.57 363.33,-412.84"/>
</g>
<!-- Node19 -->
<g id="node19" class="node">
<title>Node19</title>
<g id="a_node19"><a xlink:href="sync__protocol__observer__impl_8hpp.html" target="_top" xlink:title=" ">
<polygon fill="white" stroke="#666666" points="533.5,-382 393.5,-382 393.5,-352 533.5,-352 533.5,-382"/>
<text text-anchor="start" x="401.5" y="-370" font-family="Helvetica,sans-Serif" font-size="10.00">src/network/impl/sync</text>
<text text-anchor="middle" x="463.5" y="-359" font-family="Helvetica,sans-Serif" font-size="10.00">_protocol_observer_impl.hpp</text>
</a>
</g>
</g>
<!-- Node1&#45;&gt;Node19 -->
<g id="edge22" class="edge">
<title>Node1&#45;&gt;Node19</title>
<path fill="none" stroke="#63b8ff" d="M415.11,-410.42C425.65,-401.18 437.67,-390.65 447.09,-382.39"/>
<polygon fill="#63b8ff" stroke="#63b8ff" points="413.05,-407.57 407.84,-416.8 417.67,-412.84 413.05,-407.57"/>
</g>
<!-- Node3 -->
<g id="node3" class="node">
<title>Node3</title>
<g id="a_node3"><a xlink:href="syncing__node__application_8hpp.html" target="_top" xlink:title=" ">
<polygon fill="white" stroke="#666666" points="268,-184 119,-184 119,-154 268,-154 268,-184"/>
<text text-anchor="start" x="127" y="-172" font-family="Helvetica,sans-Serif" font-size="10.00">src/application/impl</text>
<text text-anchor="middle" x="193.5" y="-161" font-family="Helvetica,sans-Serif" font-size="10.00">/syncing_node_application.hpp</text>
</a>
</g>
</g>
<!-- Node2&#45;&gt;Node3 -->
<g id="edge2" class="edge">
<title>Node2&#45;&gt;Node3</title>
<path fill="none" stroke="#63b8ff" d="M185.64,-208.68C187.34,-200.34 189.16,-191.37 190.62,-184.16"/>
<polygon fill="#63b8ff" stroke="#63b8ff" points="182.25,-207.82 183.69,-218.31 189.11,-209.21 182.25,-207.82"/>
</g>
<!-- Node5 -->
<g id="node5" class="node">
<title>Node5</title>
<g id="a_node5"><a xlink:href="syncing__node__injector_8cpp.html" target="_top" xlink:title=" ">
<polygon fill="white" stroke="#666666" points="101,-184 0,-184 0,-154 101,-154 101,-184"/>
<text text-anchor="start" x="8" y="-172" font-family="Helvetica,sans-Serif" font-size="10.00">src/injector/syncing</text>
<text text-anchor="middle" x="50.5" y="-161" font-family="Helvetica,sans-Serif" font-size="10.00">_node_injector.cpp</text>
</a>
</g>
</g>
<!-- Node2&#45;&gt;Node5 -->
<g id="edge4" class="edge">
<title>Node2&#45;&gt;Node5</title>
<path fill="none" stroke="#63b8ff" d="M141.07,-214.59C121.27,-204.84 97.71,-193.24 79.58,-184.31"/>
<polygon fill="#63b8ff" stroke="#63b8ff" points="139.45,-217.69 149.97,-218.97 142.54,-211.41 139.45,-217.69"/>
</g>
<!-- Node4 -->
<g id="node4" class="node">
<title>Node4</title>
<g id="a_node4"><a xlink:href="syncing__node__application_8cpp.html" target="_top" xlink:title=" ">
<polygon fill="white" stroke="#666666" points="268,-112.5 119,-112.5 119,-82.5 268,-82.5 268,-112.5"/>
<text text-anchor="start" x="127" y="-100.5" font-family="Helvetica,sans-Serif" font-size="10.00">src/application/impl</text>
<text text-anchor="middle" x="193.5" y="-89.5" font-family="Helvetica,sans-Serif" font-size="10.00">/syncing_node_application.cpp</text>
</a>
</g>
</g>
<!-- Node3&#45;&gt;Node4 -->
<g id="edge3" class="edge">
<title>Node3&#45;&gt;Node4</title>
<path fill="none" stroke="#63b8ff" d="M193.5,-142.26C193.5,-132.33 193.5,-121.36 193.5,-112.88"/>
<polygon fill="#63b8ff" stroke="#63b8ff" points="190,-142.09 193.5,-152.09 197,-142.09 190,-142.09"/>
</g>
<!-- Node7 -->
<g id="node7" class="node">
<title>Node7</title>
<g id="a_node7"><a xlink:href="validating__node__application_8hpp.html" target="_top" xlink:title=" ">
<polygon fill="white" stroke="#666666" points="761,-184 604,-184 604,-154 761,-154 761,-184"/>
<text text-anchor="start" x="612" y="-172" font-family="Helvetica,sans-Serif" font-size="10.00">src/application/impl</text>
<text text-anchor="middle" x="682.5" y="-161" font-family="Helvetica,sans-Serif" font-size="10.00">/validating_node_application.hpp</text>
</a>
</g>
</g>
<!-- Node6&#45;&gt;Node7 -->
<g id="edge6" class="edge">
<title>Node6&#45;&gt;Node7</title>
<path fill="none" stroke="#63b8ff" d="M594.98,-214.45C614.12,-204.73 636.83,-193.2 654.32,-184.31"/>
<polygon fill="#63b8ff" stroke="#63b8ff" points="593.46,-211.3 586.13,-218.95 596.63,-217.54 593.46,-211.3"/>
</g>
<!-- Node10 -->
<g id="node10" class="node">
<title>Node10</title>
<g id="a_node10"><a xlink:href="block__producing__node__injector_8hpp.html" target="_top" xlink:title=" ">
<polygon fill="white" stroke="#666666" points="455,-184 310,-184 310,-154 455,-154 455,-184"/>
<text text-anchor="start" x="318" y="-172" font-family="Helvetica,sans-Serif" font-size="10.00">src/injector/block</text>
<text text-anchor="middle" x="382.5" y="-161" font-family="Helvetica,sans-Serif" font-size="10.00">_producing_node_injector.hpp</text>
</a>
</g>
</g>
<!-- Node6&#45;&gt;Node10 -->
<g id="edge9" class="edge">
<title>Node6&#45;&gt;Node10</title>
<path fill="none" stroke="#63b8ff" d="M506.67,-215.67C479.7,-205.75 446.85,-193.67 421.72,-184.43"/>
<polygon fill="#63b8ff" stroke="#63b8ff" points="505.44,-218.95 516.03,-219.11 507.85,-212.38 505.44,-218.95"/>
</g>
<!-- Node14 -->
<g id="node14" class="node">
<title>Node14</title>
<g id="a_node14"><a xlink:href="validating__node__injector_8cpp.html" target="_top" xlink:title=" ">
<polygon fill="white" stroke="#666666" points="586,-184 477,-184 477,-154 586,-154 586,-184"/>
<text text-anchor="start" x="485" y="-172" font-family="Helvetica,sans-Serif" font-size="10.00">src/injector/validating</text>
<text text-anchor="middle" x="531.5" y="-161" font-family="Helvetica,sans-Serif" font-size="10.00">_node_injector.cpp</text>
</a>
</g>
</g>
<!-- Node6&#45;&gt;Node14 -->
<g id="edge14" class="edge">
<title>Node6&#45;&gt;Node14</title>
<path fill="none" stroke="#63b8ff" d="M546.83,-209.25C543.51,-200.75 539.91,-191.53 537.03,-184.16"/>
<polygon fill="#63b8ff" stroke="#63b8ff" points="543.5,-210.35 550.4,-218.39 550.02,-207.8 543.5,-210.35"/>
</g>
<!-- Node8 -->
<g id="node8" class="node">
<title>Node8</title>
<g id="a_node8"><a xlink:href="app__delegate_8cpp.html" target="_top" xlink:title=" ">
<polygon fill="white" stroke="#666666" points="689.5,-30 573.5,-30 573.5,-11 689.5,-11 689.5,-30"/>
<text text-anchor="middle" x="631.5" y="-18" font-family="Helvetica,sans-Serif" font-size="10.00">node/app_delegate.cpp</text>
</a>
</g>
</g>
<!-- Node7&#45;&gt;Node8 -->
<g id="edge7" class="edge">
<title>Node7&#45;&gt;Node8</title>
<path fill="none" stroke="#63b8ff" d="M728.43,-147.97C740.37,-140.4 751.76,-130.51 758.5,-118 767.15,-101.96 768.48,-92.25 758.5,-77 742.03,-51.83 711.37,-38.01 684.3,-30.45"/>
<polygon fill="#63b8ff" stroke="#63b8ff" points="727.02,-144.74 720.13,-152.78 730.54,-150.79 727.02,-144.74"/>
</g>
<!-- Node9 -->
<g id="node9" class="node">
<title>Node9</title>
<g id="a_node9"><a xlink:href="validating__node__application_8cpp.html" target="_top" xlink:title=" ">
<polygon fill="white" stroke="#666666" points="749,-112.5 592,-112.5 592,-82.5 749,-82.5 749,-112.5"/>
<text text-anchor="start" x="600" y="-100.5" font-family="Helvetica,sans-Serif" font-size="10.00">src/application/impl</text>
<text text-anchor="middle" x="670.5" y="-89.5" font-family="Helvetica,sans-Serif" font-size="10.00">/validating_node_application.cpp</text>
</a>
</g>
</g>
<!-- Node7&#45;&gt;Node9 -->
<g id="edge8" class="edge">
<title>Node7&#45;&gt;Node9</title>
<path fill="none" stroke="#63b8ff" d="M678.06,-142.26C676.34,-132.33 674.45,-121.36 672.98,-112.88"/>
<polygon fill="#63b8ff" stroke="#63b8ff" points="674.61,-142.85 679.76,-152.11 681.5,-141.66 674.61,-142.85"/>
</g>
<!-- Node11 -->
<g id="node11" class="node">
<title>Node11</title>
<g id="a_node11"><a xlink:href="block__producing__node__application_8hpp.html" target="_top" xlink:title=" ">
<polygon fill="white" stroke="#666666" points="410.5,-118 294.5,-118 294.5,-77 410.5,-77 410.5,-118"/>
<text text-anchor="start" x="302.5" y="-106" font-family="Helvetica,sans-Serif" font-size="10.00">src/application/impl</text>
<text text-anchor="start" x="302.5" y="-95" font-family="Helvetica,sans-Serif" font-size="10.00">/block_producing_node</text>
<text text-anchor="middle" x="352.5" y="-84" font-family="Helvetica,sans-Serif" font-size="10.00">_application.hpp</text>
</a>
</g>
</g>
<!-- Node10&#45;&gt;Node11 -->
<g id="edge10" class="edge">
<title>Node10&#45;&gt;Node11</title>
<path fill="none" stroke="#63b8ff" d="M371.79,-143.19C368.28,-135.06 364.43,-126.14 361.1,-118.42"/>
<polygon fill="#63b8ff" stroke="#63b8ff" points="368.51,-144.42 375.68,-152.21 374.93,-141.64 368.51,-144.42"/>
</g>
<!-- Node13 -->
<g id="node13" class="node">
<title>Node13</title>
<g id="a_node13"><a xlink:href="block__producing__node__injector_8cpp.html" target="_top" xlink:title=" ">
<polygon fill="white" stroke="#666666" points="574,-112.5 429,-112.5 429,-82.5 574,-82.5 574,-112.5"/>
<text text-anchor="start" x="437" y="-100.5" font-family="Helvetica,sans-Serif" font-size="10.00">src/injector/block</text>
<text text-anchor="middle" x="501.5" y="-89.5" font-family="Helvetica,sans-Serif" font-size="10.00">_producing_node_injector.cpp</text>
</a>
</g>
</g>
<!-- Node10&#45;&gt;Node13 -->
<g id="edge13" class="edge">
<title>Node10&#45;&gt;Node13</title>
<path fill="none" stroke="#63b8ff" d="M417.02,-147.84C436.18,-136.65 459.57,-122.99 476.87,-112.88"/>
<polygon fill="#63b8ff" stroke="#63b8ff" points="415.33,-144.77 408.46,-152.84 418.86,-150.82 415.33,-144.77"/>
</g>
<!-- Node11&#45;&gt;Node8 -->
<g id="edge11" class="edge">
<title>Node11&#45;&gt;Node8</title>
<path fill="none" stroke="#63b8ff" d="M421.7,-76.42C488.76,-57.99 556.15,-40.63 596.16,-30.44"/>
<polygon fill="#63b8ff" stroke="#63b8ff" points="421.11,-72.96 412.4,-78.99 422.97,-79.7 421.11,-72.96"/>
</g>
<!-- Node12 -->
<g id="node12" class="node">
<title>Node12</title>
<g id="a_node12"><a xlink:href="block__producing__node__application_8cpp.html" target="_top" xlink:title=" ">
<polygon fill="white" stroke="#666666" points="410.5,-41 294.5,-41 294.5,0 410.5,0 410.5,-41"/>
<text text-anchor="start" x="302.5" y="-29" font-family="Helvetica,sans-Serif" font-size="10.00">src/application/impl</text>
<text text-anchor="start" x="302.5" y="-18" font-family="Helvetica,sans-Serif" font-size="10.00">/block_producing_node</text>
<text text-anchor="middle" x="352.5" y="-7" font-family="Helvetica,sans-Serif" font-size="10.00">_application.cpp</text>
</a>
</g>
</g>
<!-- Node11&#45;&gt;Node12 -->
<g id="edge12" class="edge">
<title>Node11&#45;&gt;Node12</title>
<path fill="none" stroke="#63b8ff" d="M352.5,-65.36C352.5,-57.24 352.5,-48.7 352.5,-41.33"/>
<polygon fill="#63b8ff" stroke="#63b8ff" points="349,-65.28 352.5,-75.28 356,-65.28 349,-65.28"/>
</g>
<!-- Node16 -->
<g id="node16" class="node">
<title>Node16</title>
<g id="a_node16"><a xlink:href="application__injector_8hpp.html" target="_top" xlink:title=" ">
<polygon fill="white" stroke="#666666" points="441.5,-316 327.5,-316 327.5,-286 441.5,-286 441.5,-316"/>
<text text-anchor="start" x="335.5" y="-304" font-family="Helvetica,sans-Serif" font-size="10.00">src/injector/application</text>
<text text-anchor="middle" x="384.5" y="-293" font-family="Helvetica,sans-Serif" font-size="10.00">_injector.hpp</text>
</a>
</g>
</g>
<!-- Node15&#45;&gt;Node16 -->
<g id="edge16" class="edge">
<title>Node15&#45;&gt;Node16</title>
<path fill="none" stroke="#63b8ff" d="M340.44,-344.09C350.11,-334.85 361.09,-324.36 369.67,-316.16"/>
<polygon fill="#63b8ff" stroke="#63b8ff" points="338.28,-341.31 333.46,-350.75 343.11,-346.37 338.28,-341.31"/>
</g>
<!-- Node18 -->
<g id="node18" class="node">
<title>Node18</title>
<g id="a_node18"><a xlink:href="router__libp2p_8cpp.html" target="_top" xlink:title=" ">
<polygon fill="white" stroke="#666666" points="309.5,-316 193.5,-316 193.5,-286 309.5,-286 309.5,-316"/>
<text text-anchor="start" x="201.5" y="-304" font-family="Helvetica,sans-Serif" font-size="10.00">src/network/impl/router</text>
<text text-anchor="middle" x="251.5" y="-293" font-family="Helvetica,sans-Serif" font-size="10.00">_libp2p.cpp</text>
</a>
</g>
</g>
<!-- Node15&#45;&gt;Node18 -->
<g id="edge21" class="edge">
<title>Node15&#45;&gt;Node18</title>
<path fill="none" stroke="#63b8ff" d="M294.61,-343.81C285.16,-334.64 274.47,-324.28 266.11,-316.16"/>
<polygon fill="#63b8ff" stroke="#63b8ff" points="292.15,-346.29 301.77,-350.74 297.02,-341.27 292.15,-346.29"/>
</g>
<!-- Node16&#45;&gt;Node2 -->
<g id="edge19" class="edge">
<title>Node16&#45;&gt;Node2</title>
<path fill="none" stroke="#63b8ff" d="M327.51,-282.12C295.58,-272.1 256.29,-259.78 226.37,-250.39"/>
<polygon fill="#63b8ff" stroke="#63b8ff" points="326.43,-285.45 337.02,-285.1 328.53,-278.77 326.43,-285.45"/>
</g>
<!-- Node16&#45;&gt;Node6 -->
<g id="edge20" class="edge">
<title>Node16&#45;&gt;Node6</title>
<path fill="none" stroke="#63b8ff" d="M433.76,-281.67C460.42,-271.75 492.89,-259.67 517.73,-250.43"/>
<polygon fill="#63b8ff" stroke="#63b8ff" points="432.67,-278.34 424.52,-285.11 435.11,-284.9 432.67,-278.34"/>
</g>
<!-- Node16&#45;&gt;Node10 -->
<g id="edge18" class="edge">
<title>Node16&#45;&gt;Node10</title>
<path fill="none" stroke="#63b8ff" d="M370.18,-275.75C366.24,-267.81 362.5,-258.78 360.5,-250 357.54,-237 357.76,-233.05 360.5,-220 363.15,-207.38 369.2,-194.06 374.28,-184.34"/>
<polygon fill="#63b8ff" stroke="#63b8ff" points="367.02,-277.26 374.82,-284.42 373.19,-273.96 367.02,-277.26"/>
</g>
<!-- Node17 -->
<g id="node17" class="node">
<title>Node17</title>
<g id="a_node17"><a xlink:href="application__injector_8cpp.html" target="_top" xlink:title=" ">
<polygon fill="white" stroke="#666666" points="483.5,-250 369.5,-250 369.5,-220 483.5,-220 483.5,-250"/>
<text text-anchor="start" x="377.5" y="-238" font-family="Helvetica,sans-Serif" font-size="10.00">src/injector/application</text>
<text text-anchor="middle" x="426.5" y="-227" font-family="Helvetica,sans-Serif" font-size="10.00">_injector.cpp</text>
</a>
</g>
</g>
<!-- Node16&#45;&gt;Node17 -->
<g id="edge17" class="edge">
<title>Node16&#45;&gt;Node17</title>
<path fill="none" stroke="#63b8ff" d="M399.99,-276.39C405.77,-267.59 412.15,-257.86 417.2,-250.16"/>
<polygon fill="#63b8ff" stroke="#63b8ff" points="397.21,-274.25 394.65,-284.53 403.06,-278.09 397.21,-274.25"/>
</g>
<!-- Node19&#45;&gt;Node16 -->
<g id="edge23" class="edge">
<title>Node19&#45;&gt;Node16</title>
<path fill="none" stroke="#63b8ff" d="M437.21,-344.7C425.72,-335.4 412.56,-324.73 402.26,-316.39"/>
<polygon fill="#63b8ff" stroke="#63b8ff" points="434.82,-347.27 444.79,-350.84 439.22,-341.83 434.82,-347.27"/>
</g>
<!-- Node20 -->
<g id="node20" class="node">
<title>Node20</title>
<g id="a_node20"><a xlink:href="sync__protocol__observer__impl_8cpp.html" target="_top" xlink:title=" ">
<polygon fill="white" stroke="#666666" points="599.5,-316 459.5,-316 459.5,-286 599.5,-286 599.5,-316"/>
<text text-anchor="start" x="467.5" y="-304" font-family="Helvetica,sans-Serif" font-size="10.00">src/network/impl/sync</text>
<text text-anchor="middle" x="529.5" y="-293" font-family="Helvetica,sans-Serif" font-size="10.00">_protocol_observer_impl.cpp</text>
</a>
</g>
</g>
<!-- Node19&#45;&gt;Node20 -->
<g id="edge24" class="edge">
<title>Node19&#45;&gt;Node20</title>
<path fill="none" stroke="#63b8ff" d="M486.39,-343.81C495.84,-334.64 506.53,-324.28 514.89,-316.16"/>
<polygon fill="#63b8ff" stroke="#63b8ff" points="483.98,-341.27 479.23,-350.74 488.85,-346.29 483.98,-341.27"/>
</g>
</g>
</svg>
