<?xml version="1.0" encoding="UTF-8" standalone="no"?>
<!DOCTYPE svg PUBLIC "-//W3C//DTD SVG 1.1//EN"
 "http://www.w3.org/Graphics/SVG/1.1/DTD/svg11.dtd">
<!-- Generated by graphviz version 7.0.5 (20221223.1930)
 -->
<!-- Title: src/crypto/pbkdf2/impl/pbkdf2_provider_impl.cpp Pages: 1 -->
<!--zoomable 346 -->
<svg id="main" version="1.1" xmlns="http://www.w3.org/2000/svg" xmlns:xlink="http://www.w3.org/1999/xlink" xml:space="preserve" onload="init(evt)">
<style type="text/css"><![CDATA[
.edge:hover path { stroke: red; }
.edge:hover polygon { stroke: red; fill: red; }
]]></style>
<script type="text/javascript"><![CDATA[
var edges = document.getElementsByTagName('g');
if (edges && edges.length) {
  for (var i=0;i<edges.length;i++) {
    if (edges[i].id.substr(0,4)=='edge') {
      edges[i].setAttribute('class','edge');
    }
  }
}
]]></script>
        <defs>
                <circle id="rim" cx="0" cy="0" r="7"/>
                <circle id="rim2" cx="0" cy="0" r="3.5"/>
                <g id="zoomPlus">
                        <use xlink:href="#rim" fill="#404040">
                                <set attributeName="fill" to="#808080" begin="zoomplus.mouseover" end="zoomplus.mouseout"/>
                        </use>
                        <path d="M-4,0h8M0,-4v8" fill="none" stroke="white" stroke-width="1.5" pointer-events="none"/>
                </g>
                <g id="zoomMin">
                        <use xlink:href="#rim" fill="#404040">
                                <set attributeName="fill" to="#808080" begin="zoomminus.mouseover" end="zoomminus.mouseout"/>
                        </use>
                        <path d="M-4,0h8" fill="none" stroke="white" stroke-width="1.5" pointer-events="none"/>
                </g>
                <g id="dirArrow">
                        <path fill="none" stroke="white" stroke-width="1.5" d="M0,-3.0v7 M-2.5,-0.5L0,-3.0L2.5,-0.5"/>
                </g>
               <g id="resetDef">
                       <use xlink:href="#rim2" fill="#404040">
                               <set attributeName="fill" to="#808080" begin="reset.mouseover" end="reset.mouseout"/>
                       </use>
               </g>
        </defs>

<script type="text/javascript">
var viewWidth = 601;
var viewHeight = 346;
var sectionId = 'dynsection-0';
</script>
<script xlink:href="svgpan.js"/>
<svg id="graph" class="graph">
<g id="viewport">
<title>src/crypto/pbkdf2/impl/pbkdf2_provider_impl.cpp</title>
<!-- Node1 -->
<g id="node1" class="node">
<title>Node1</title>
<g id="a_node1"><a xlink:title=" ">
<polygon fill="#999999" stroke="#666666" points="350.5,-338 220.5,-338 220.5,-308 350.5,-308 350.5,-338"/>
<text text-anchor="start" x="228.5" y="-326" font-family="Helvetica,sans-Serif" font-size="10.00">src/crypto/pbkdf2/impl</text>
<text text-anchor="middle" x="285.5" y="-315" font-family="Helvetica,sans-Serif" font-size="10.00">/pbkdf2_provider_impl.cpp</text>
</a>
</g>
</g>
<!-- Node2 -->
<g id="node2" class="node">
<title>Node2</title>
<g id="a_node2"><a xlink:href="pbkdf2__provider__impl_8hpp.html" target="_top" xlink:title=" ">
<polygon fill="white" stroke="#666666" points="289.5,-272 159.5,-272 159.5,-242 289.5,-242 289.5,-272"/>
<text text-anchor="start" x="167.5" y="-260" font-family="Helvetica,sans-Serif" font-size="10.00">crypto/pbkdf2/impl</text>
<text text-anchor="middle" x="224.5" y="-249" font-family="Helvetica,sans-Serif" font-size="10.00">/pbkdf2_provider_impl.hpp</text>
</a>
</g>
</g>
<!-- Node1&#45;&gt;Node2 -->
<g id="edge1" class="edge">
<title>Node1&#45;&gt;Node2</title>
<path fill="none" stroke="#63b8ff" d="M271.96,-307.8C264.3,-299.76 254.55,-289.53 245.88,-280.43"/>
<polygon fill="#63b8ff" stroke="#63b8ff" points="248.48,-278.08 239.04,-273.26 243.41,-282.91 248.48,-278.08"/>
</g>
<!-- Node12 -->
<g id="node12" class="node">
<title>Node12</title>
<g id="a_node12"><a xlink:title=" ">
<polygon fill="#e0e0e0" stroke="#999999" points="385,-266.5 308,-266.5 308,-247.5 385,-247.5 385,-266.5"/>
<text text-anchor="middle" x="346.5" y="-254.5" font-family="Helvetica,sans-Serif" font-size="10.00">openssl/evp.h</text>
</a>
</g>
</g>
<!-- Node1&#45;&gt;Node12 -->
<g id="edge13" class="edge">
<title>Node1&#45;&gt;Node12</title>
<path fill="none" stroke="#63b8ff" d="M299.04,-307.8C308.27,-298.11 320.54,-285.24 330.29,-275.01"/>
<polygon fill="#63b8ff" stroke="#63b8ff" points="332.66,-277.59 337.03,-267.94 327.59,-272.76 332.66,-277.59"/>
</g>
<!-- Node3 -->
<g id="node3" class="node">
<title>Node3</title>
<g id="a_node3"><a xlink:href="pbkdf2__provider_8hpp.html" target="_top" xlink:title=" ">
<polygon fill="white" stroke="#666666" points="278,-206 171,-206 171,-176 278,-176 278,-206"/>
<text text-anchor="start" x="179" y="-194" font-family="Helvetica,sans-Serif" font-size="10.00">crypto/pbkdf2/pbkdf2</text>
<text text-anchor="middle" x="224.5" y="-183" font-family="Helvetica,sans-Serif" font-size="10.00">_provider.hpp</text>
</a>
</g>
</g>
<!-- Node2&#45;&gt;Node3 -->
<g id="edge2" class="edge">
<title>Node2&#45;&gt;Node3</title>
<path fill="none" stroke="#63b8ff" d="M224.5,-241.8C224.5,-234.67 224.5,-225.82 224.5,-217.56"/>
<polygon fill="#63b8ff" stroke="#63b8ff" points="228,-217.68 224.5,-207.68 221,-217.68 228,-217.68"/>
</g>
<!-- Node4 -->
<g id="node4" class="node">
<title>Node4</title>
<g id="a_node4"><a xlink:title=" ">
<polygon fill="#e0e0e0" stroke="#999999" points="53,-79.5 0,-79.5 0,-60.5 53,-60.5 53,-79.5"/>
<text text-anchor="middle" x="26.5" y="-67.5" font-family="Helvetica,sans-Serif" font-size="10.00">gsl/span</text>
</a>
</g>
</g>
<!-- Node3&#45;&gt;Node4 -->
<g id="edge3" class="edge">
<title>Node3&#45;&gt;Node4</title>
<path fill="none" stroke="#63b8ff" d="M200.62,-175.65C162.82,-152.93 89.59,-108.92 51.26,-85.88"/>
<polygon fill="#63b8ff" stroke="#63b8ff" points="53.1,-82.91 42.73,-80.75 49.5,-88.9 53.1,-82.91"/>
</g>
<!-- Node5 -->
<g id="node5" class="node">
<title>Node5</title>
<g id="a_node5"><a xlink:href="buffer_8hpp.html" target="_top" xlink:title=" ">
<polygon fill="white" stroke="#666666" points="266,-140 183,-140 183,-121 266,-121 266,-140"/>
<text text-anchor="middle" x="224.5" y="-128" font-family="Helvetica,sans-Serif" font-size="10.00">base/buffer.hpp</text>
</a>
</g>
</g>
<!-- Node3&#45;&gt;Node5 -->
<g id="edge4" class="edge">
<title>Node3&#45;&gt;Node5</title>
<path fill="none" stroke="#63b8ff" d="M224.5,-175.54C224.5,-168.34 224.5,-159.53 224.5,-151.68"/>
<polygon fill="#63b8ff" stroke="#63b8ff" points="228,-151.69 224.5,-141.69 221,-151.69 228,-151.69"/>
</g>
<!-- Node10 -->
<g id="node10" class="node">
<title>Node10</title>
<g id="a_node10"><a xlink:href="outcome_8hpp.html" target="_top" xlink:title=" ">
<polygon fill="white" stroke="#666666" points="579,-79.5 466,-79.5 466,-60.5 579,-60.5 579,-79.5"/>
<text text-anchor="middle" x="522.5" y="-67.5" font-family="Helvetica,sans-Serif" font-size="10.00">outcome/outcome.hpp</text>
</a>
</g>
</g>
<!-- Node3&#45;&gt;Node10 -->
<g id="edge12" class="edge">
<title>Node3&#45;&gt;Node10</title>
<path fill="none" stroke="#63b8ff" d="M260.74,-175.53C319.2,-152.18 433.42,-106.57 489.64,-84.12"/>
<polygon fill="#63b8ff" stroke="#63b8ff" points="490.69,-87.47 498.67,-80.51 488.09,-80.97 490.69,-87.47"/>
</g>
<!-- Node5&#45;&gt;Node4 -->
<g id="edge9" class="edge">
<title>Node5&#45;&gt;Node4</title>
<path fill="none" stroke="#63b8ff" d="M187.83,-120.57C154.78,-112.26 105.01,-99.06 62.5,-85 61.35,-84.62 60.19,-84.23 59.02,-83.82"/>
<polygon fill="#63b8ff" stroke="#63b8ff" points="60.47,-80.62 49.88,-80.47 58.06,-87.2 60.47,-80.62"/>
</g>
<!-- Node6 -->
<g id="node6" class="node">
<title>Node6</title>
<g id="a_node6"><a xlink:title=" ">
<polygon fill="#e0e0e0" stroke="#999999" points="137.5,-79.5 71.5,-79.5 71.5,-60.5 137.5,-60.5 137.5,-79.5"/>
<text text-anchor="middle" x="104.5" y="-67.5" font-family="Helvetica,sans-Serif" font-size="10.00">string_view</text>
</a>
</g>
</g>
<!-- Node5&#45;&gt;Node6 -->
<g id="edge5" class="edge">
<title>Node5&#45;&gt;Node6</title>
<path fill="none" stroke="#63b8ff" d="M206.27,-120.62C186.8,-111.12 155.68,-95.95 132.97,-84.88"/>
<polygon fill="#63b8ff" stroke="#63b8ff" points="134.78,-81.87 124.26,-80.63 131.71,-88.16 134.78,-81.87"/>
</g>
<!-- Node7 -->
<g id="node7" class="node">
<title>Node7</title>
<g id="a_node7"><a xlink:title=" ">
<polygon fill="#e0e0e0" stroke="#999999" points="199.5,-79.5 155.5,-79.5 155.5,-60.5 199.5,-60.5 199.5,-79.5"/>
<text text-anchor="middle" x="177.5" y="-67.5" font-family="Helvetica,sans-Serif" font-size="10.00">vector</text>
</a>
</g>
</g>
<!-- Node5&#45;&gt;Node7 -->
<g id="edge6" class="edge">
<title>Node5&#45;&gt;Node7</title>
<path fill="none" stroke="#63b8ff" d="M217.56,-120.87C210.76,-112.4 200.19,-99.24 191.61,-88.57"/>
<polygon fill="#63b8ff" stroke="#63b8ff" points="194.4,-86.45 185.41,-80.85 188.95,-90.84 194.4,-86.45"/>
</g>
<!-- Node8 -->
<g id="node8" class="node">
<title>Node8</title>
<g id="a_node8"><a xlink:title=" ">
<polygon fill="#e0e0e0" stroke="#999999" points="327.5,-85 217.5,-85 217.5,-55 327.5,-55 327.5,-85"/>
<text text-anchor="start" x="225.5" y="-73" font-family="Helvetica,sans-Serif" font-size="10.00">boost/container_hash</text>
<text text-anchor="middle" x="272.5" y="-62" font-family="Helvetica,sans-Serif" font-size="10.00">/hash.hpp</text>
</a>
</g>
</g>
<!-- Node5&#45;&gt;Node8 -->
<g id="edge7" class="edge">
<title>Node5&#45;&gt;Node8</title>
<path fill="none" stroke="#63b8ff" d="M231.58,-120.87C237.43,-113.74 246.01,-103.28 253.8,-93.79"/>
<polygon fill="#63b8ff" stroke="#63b8ff" points="256.32,-96.24 259.96,-86.28 250.91,-91.8 256.32,-96.24"/>
</g>
<!-- Node9 -->
<g id="node9" class="node">
<title>Node9</title>
<g id="a_node9"><a xlink:title=" ">
<polygon fill="#e0e0e0" stroke="#999999" points="447.5,-79.5 345.5,-79.5 345.5,-60.5 447.5,-60.5 447.5,-79.5"/>
<text text-anchor="middle" x="396.5" y="-67.5" font-family="Helvetica,sans-Serif" font-size="10.00">boost/operators.hpp</text>
</a>
</g>
</g>
<!-- Node5&#45;&gt;Node9 -->
<g id="edge8" class="edge">
<title>Node5&#45;&gt;Node9</title>
<path fill="none" stroke="#63b8ff" d="M250.62,-120.62C279.67,-110.74 326.8,-94.71 359.6,-83.55"/>
<polygon fill="#63b8ff" stroke="#63b8ff" points="360.36,-86.99 368.7,-80.46 358.1,-80.36 360.36,-86.99"/>
</g>
<!-- Node5&#45;&gt;Node10 -->
<g id="edge10" class="edge">
<title>Node5&#45;&gt;Node10</title>
<path fill="none" stroke="#63b8ff" d="M266.46,-121.71C312.97,-113.01 390.17,-98.4 456.5,-85 460.83,-84.13 465.32,-83.2 469.83,-82.27"/>
<polygon fill="#63b8ff" stroke="#63b8ff" points="470.43,-85.72 479.5,-80.25 468.99,-78.87 470.43,-85.72"/>
</g>
<!-- Node11 -->
<g id="node11" class="node">
<title>Node11</title>
<g id="a_node11"><a xlink:title=" ">
<polygon fill="#e0e0e0" stroke="#999999" points="593,-19 452,-19 452,0 593,0 593,-19"/>
<text text-anchor="middle" x="522.5" y="-7" font-family="Helvetica,sans-Serif" font-size="10.00">libp2p/outcome/outcome.hpp</text>
</a>
</g>
</g>
<!-- Node10&#45;&gt;Node11 -->
<g id="edge11" class="edge">
<title>Node10&#45;&gt;Node11</title>
<path fill="none" stroke="#63b8ff" d="M522.5,-60.37C522.5,-52.5 522.5,-40.6 522.5,-30.39"/>
<polygon fill="#63b8ff" stroke="#63b8ff" points="526,-30.68 522.5,-20.68 519,-30.68 526,-30.68"/>
</g>
</g>
</svg>
        <g id="navigator" transform="translate(0 0)" fill="#404254">
                <rect fill="#f2f5e9" fill-opacity="0.5" stroke="#606060" stroke-width=".5" x="0" y="0" width="60" height="60"/>
                <use id="zoomplus" xlink:href="#zoomPlus" x="17" y="9" onmousedown="handleZoom(evt,'in')"/>
                <use id="zoomminus" xlink:href="#zoomMin" x="42" y="9" onmousedown="handleZoom(evt,'out')"/>
                <use id="reset" xlink:href="#resetDef" x="30" y="36" onmousedown="handleReset()"/>
                <g id="arrowUp" xlink:href="#dirArrow" transform="translate(30 24)" onmousedown="handlePan(0,-1)">
                  <use xlink:href="#rim" fill="#404040">
                        <set attributeName="fill" to="#808080" begin="arrowUp.mouseover" end="arrowUp.mouseout"/>
                  </use>
                  <path fill="none" stroke="white" stroke-width="1.5" d="M0,-3.0v7 M-2.5,-0.5L0,-3.0L2.5,-0.5"/>
                </g>
                <g id="arrowRight" xlink:href="#dirArrow" transform="rotate(90) translate(36 -43)" onmousedown="handlePan(1,0)">
                  <use xlink:href="#rim" fill="#404040">
                        <set attributeName="fill" to="#808080" begin="arrowRight.mouseover" end="arrowRight.mouseout"/>
                  </use>
                  <path fill="none" stroke="white" stroke-width="1.5" d="M0,-3.0v7 M-2.5,-0.5L0,-3.0L2.5,-0.5"/>
                </g>
                <g id="arrowDown" xlink:href="#dirArrow" transform="rotate(180) translate(-30 -48)" onmousedown="handlePan(0,1)">
                  <use xlink:href="#rim" fill="#404040">
                        <set attributeName="fill" to="#808080" begin="arrowDown.mouseover" end="arrowDown.mouseout"/>
                  </use>
                  <path fill="none" stroke="white" stroke-width="1.5" d="M0,-3.0v7 M-2.5,-0.5L0,-3.0L2.5,-0.5"/>
                </g>
                <g id="arrowLeft" xlink:href="#dirArrow" transform="rotate(270) translate(-36 17)" onmousedown="handlePan(-1,0)">
                  <use xlink:href="#rim" fill="#404040">
                        <set attributeName="fill" to="#808080" begin="arrowLeft.mouseover" end="arrowLeft.mouseout"/>
                  </use>
                  <path fill="none" stroke="white" stroke-width="1.5" d="M0,-3.0v7 M-2.5,-0.5L0,-3.0L2.5,-0.5"/>
                </g>
        </g>
        <svg viewBox="0 0 15 15" width="100%" height="30px" preserveAspectRatio="xMaxYMin meet">
         <g id="arrow_out" transform="scale(0.3 0.3)">
          <a xlink:href="pbkdf2__provider__impl_8cpp__incl_org.svg" target="_base">
           <rect id="button" ry="5" rx="5" y="6" x="6" height="38" width="38"
                fill="#f2f5e9" fill-opacity="0.5" stroke="#606060" stroke-width="1.0"/>
           <path id="arrow"
             d="M 11.500037,31.436501 C 11.940474,20.09759 22.043105,11.32322 32.158766,21.979434 L 37.068811,17.246167 C 37.068811,17.246167 37.088388,32 37.088388,32 L 22.160133,31.978069 C 22.160133,31.978069 26.997745,27.140456 26.997745,27.140456 C 18.528582,18.264221 13.291696,25.230495 11.500037,31.436501 z"
             style="fill:#404040;"/>
          </a>
         </g>
        </svg>
</svg>
