<?xml version="1.0" encoding="UTF-8" standalone="no"?>
<!DOCTYPE svg PUBLIC "-//W3C//DTD SVG 1.1//EN"
 "http://www.w3.org/Graphics/SVG/1.1/DTD/svg11.dtd">
<!-- Generated by graphviz version 7.0.5 (20221223.1930)
 -->
<!-- Title: src/platform/platform.hpp Pages: 1 -->
<svg width="355pt" height="247pt"
 viewBox="0.00 0.00 354.50 247.00" xmlns="http://www.w3.org/2000/svg" xmlns:xlink="http://www.w3.org/1999/xlink">
<g id="graph0" class="graph" transform="scale(1 1) rotate(0) translate(4 243)">
<title>src/platform/platform.hpp</title>
<!-- Node1 -->
<g id="node1" class="node">
<title>Node1</title>
<g id="a_node1"><a xlink:title=" ">
<polygon fill="#999999" stroke="#666666" points="261.5,-239 136.5,-239 136.5,-220 261.5,-220 261.5,-239"/>
<text text-anchor="middle" x="199" y="-227" font-family="Helvetica,sans-Serif" font-size="10.00">src/platform/platform.hpp</text>
</a>
</g>
</g>
<!-- Node2 -->
<g id="node2" class="node">
<title>Node2</title>
<g id="a_node2"><a xlink:href="block__producing__node__injector_8hpp.html" target="_top" xlink:title=" ">
<polygon fill="white" stroke="#666666" points="271.5,-184 126.5,-184 126.5,-154 271.5,-154 271.5,-184"/>
<text text-anchor="start" x="134.5" y="-172" font-family="Helvetica,sans-Serif" font-size="10.00">src/injector/block</text>
<text text-anchor="middle" x="199" y="-161" font-family="Helvetica,sans-Serif" font-size="10.00">_producing_node_injector.hpp</text>
</a>
</g>
</g>
<!-- Node1&#45;&gt;Node2 -->
<g id="edge1" class="edge">
<title>Node1&#45;&gt;Node2</title>
<path fill="none" stroke="#63b8ff" d="M199,-208.51C199,-200.49 199,-191.43 199,-184.11"/>
<polygon fill="#63b8ff" stroke="#63b8ff" points="195.5,-208.35 199,-218.35 202.5,-208.35 195.5,-208.35"/>
</g>
<!-- Node3 -->
<g id="node3" class="node">
<title>Node3</title>
<g id="a_node3"><a xlink:href="block__producing__node__application_8hpp.html" target="_top" xlink:title=" ">
<polygon fill="white" stroke="#666666" points="183,-118 67,-118 67,-77 183,-77 183,-118"/>
<text text-anchor="start" x="75" y="-106" font-family="Helvetica,sans-Serif" font-size="10.00">src/application/impl</text>
<text text-anchor="start" x="75" y="-95" font-family="Helvetica,sans-Serif" font-size="10.00">/block_producing_node</text>
<text text-anchor="middle" x="125" y="-84" font-family="Helvetica,sans-Serif" font-size="10.00">_application.hpp</text>
</a>
</g>
</g>
<!-- Node2&#45;&gt;Node3 -->
<g id="edge2" class="edge">
<title>Node2&#45;&gt;Node3</title>
<path fill="none" stroke="#63b8ff" d="M175.5,-145.93C166.1,-137.1 155.36,-127.01 146.21,-118.42"/>
<polygon fill="#63b8ff" stroke="#63b8ff" points="172.88,-148.27 182.56,-152.56 177.67,-143.17 172.88,-148.27"/>
</g>
<!-- Node6 -->
<g id="node6" class="node">
<title>Node6</title>
<g id="a_node6"><a xlink:href="block__producing__node__injector_8cpp.html" target="_top" xlink:title=" ">
<polygon fill="white" stroke="#666666" points="346.5,-112.5 201.5,-112.5 201.5,-82.5 346.5,-82.5 346.5,-112.5"/>
<text text-anchor="start" x="209.5" y="-100.5" font-family="Helvetica,sans-Serif" font-size="10.00">src/injector/block</text>
<text text-anchor="middle" x="274" y="-89.5" font-family="Helvetica,sans-Serif" font-size="10.00">_producing_node_injector.cpp</text>
</a>
</g>
</g>
<!-- Node2&#45;&gt;Node6 -->
<g id="edge5" class="edge">
<title>Node2&#45;&gt;Node6</title>
<path fill="none" stroke="#63b8ff" d="M222.95,-145.8C234.59,-135.02 248.23,-122.38 258.48,-112.88"/>
<polygon fill="#63b8ff" stroke="#63b8ff" points="220.61,-143.21 215.65,-152.57 225.36,-148.34 220.61,-143.21"/>
</g>
<!-- Node4 -->
<g id="node4" class="node">
<title>Node4</title>
<g id="a_node4"><a xlink:href="app__delegate_8cpp.html" target="_top" xlink:title=" ">
<polygon fill="white" stroke="#666666" points="116,-30 0,-30 0,-11 116,-11 116,-30"/>
<text text-anchor="middle" x="58" y="-18" font-family="Helvetica,sans-Serif" font-size="10.00">node/app_delegate.cpp</text>
</a>
</g>
</g>
<!-- Node3&#45;&gt;Node4 -->
<g id="edge3" class="edge">
<title>Node3&#45;&gt;Node4</title>
<path fill="none" stroke="#63b8ff" d="M99.76,-68.25C87.7,-54.75 74.11,-39.54 65.8,-30.24"/>
<polygon fill="#63b8ff" stroke="#63b8ff" points="97.12,-70.54 106.39,-75.67 102.34,-65.88 97.12,-70.54"/>
</g>
<!-- Node5 -->
<g id="node5" class="node">
<title>Node5</title>
<g id="a_node5"><a xlink:href="block__producing__node__application_8cpp.html" target="_top" xlink:title=" ">
<polygon fill="white" stroke="#666666" points="250,-41 134,-41 134,0 250,0 250,-41"/>
<text text-anchor="start" x="142" y="-29" font-family="Helvetica,sans-Serif" font-size="10.00">src/application/impl</text>
<text text-anchor="start" x="142" y="-18" font-family="Helvetica,sans-Serif" font-size="10.00">/block_producing_node</text>
<text text-anchor="middle" x="192" y="-7" font-family="Helvetica,sans-Serif" font-size="10.00">_application.cpp</text>
</a>
</g>
</g>
<!-- Node3&#45;&gt;Node5 -->
<g id="edge4" class="edge">
<title>Node3&#45;&gt;Node5</title>
<path fill="none" stroke="#63b8ff" d="M150.05,-68.46C158.11,-59.44 166.86,-49.64 174.28,-41.33"/>
<polygon fill="#63b8ff" stroke="#63b8ff" points="147.66,-65.88 143.61,-75.67 152.88,-70.54 147.66,-65.88"/>
</g>
</g>
</svg>
