<?xml version="1.0" encoding="UTF-8" standalone="no"?>
<!DOCTYPE svg PUBLIC "-//W3C//DTD SVG 1.1//EN"
 "http://www.w3.org/Graphics/SVG/1.1/DTD/svg11.dtd">
<!-- Generated by graphviz version 7.0.5 (20221223.1930)
 -->
<!-- Title: src/transaction_pool/impl/pool_moderator_impl.cpp Pages: 1 -->
<svg width="726pt" height="588pt"
 viewBox="0.00 0.00 726.00 588.00" xmlns="http://www.w3.org/2000/svg" xmlns:xlink="http://www.w3.org/1999/xlink">
<g id="graph0" class="graph" transform="scale(1 1) rotate(0) translate(4 584)">
<title>src/transaction_pool/impl/pool_moderator_impl.cpp</title>
<!-- Node1 -->
<g id="node1" class="node">
<title>Node1</title>
<g id="a_node1"><a xlink:title=" ">
<polygon fill="#999999" stroke="#666666" points="496.5,-580 389.5,-580 389.5,-539 496.5,-539 496.5,-580"/>
<text text-anchor="start" x="397.5" y="-568" font-family="Helvetica,sans-Serif" font-size="10.00">src/transaction_pool</text>
<text text-anchor="start" x="397.5" y="-557" font-family="Helvetica,sans-Serif" font-size="10.00">/impl/pool_moderator</text>
<text text-anchor="middle" x="443" y="-546" font-family="Helvetica,sans-Serif" font-size="10.00">_impl.cpp</text>
</a>
</g>
</g>
<!-- Node2 -->
<g id="node2" class="node">
<title>Node2</title>
<g id="a_node2"><a xlink:href="pool__moderator__impl_8hpp.html" target="_top" xlink:title=" ">
<polygon fill="white" stroke="#666666" points="507,-503 379,-503 379,-473 507,-473 507,-503"/>
<text text-anchor="start" x="387" y="-491" font-family="Helvetica,sans-Serif" font-size="10.00">transaction_pool/impl</text>
<text text-anchor="middle" x="443" y="-480" font-family="Helvetica,sans-Serif" font-size="10.00">/pool_moderator_impl.hpp</text>
</a>
</g>
</g>
<!-- Node1&#45;&gt;Node2 -->
<g id="edge1" class="edge">
<title>Node1&#45;&gt;Node2</title>
<path fill="none" stroke="#63b8ff" d="M443,-538.77C443,-531.31 443,-522.7 443,-514.77"/>
<polygon fill="#63b8ff" stroke="#63b8ff" points="446.5,-514.99 443,-504.99 439.5,-514.99 446.5,-514.99"/>
</g>
<!-- Node3 -->
<g id="node3" class="node">
<title>Node3</title>
<g id="a_node3"><a xlink:href="pool__moderator_8hpp.html" target="_top" xlink:title=" ">
<polygon fill="white" stroke="#666666" points="407.5,-437 298.5,-437 298.5,-407 407.5,-407 407.5,-437"/>
<text text-anchor="start" x="306.5" y="-425" font-family="Helvetica,sans-Serif" font-size="10.00">transaction_pool/pool</text>
<text text-anchor="middle" x="353" y="-414" font-family="Helvetica,sans-Serif" font-size="10.00">_moderator.hpp</text>
</a>
</g>
</g>
<!-- Node2&#45;&gt;Node3 -->
<g id="edge2" class="edge">
<title>Node2&#45;&gt;Node3</title>
<path fill="none" stroke="#63b8ff" d="M423.03,-472.8C411.11,-464.32 395.76,-453.4 382.46,-443.95"/>
<polygon fill="#63b8ff" stroke="#63b8ff" points="384.64,-441.21 374.46,-438.26 380.58,-446.91 384.64,-441.21"/>
</g>
<!-- Node24 -->
<g id="node24" class="node">
<title>Node24</title>
<g id="a_node24"><a xlink:title=" ">
<polygon fill="#e0e0e0" stroke="#999999" points="460.5,-431.5 425.5,-431.5 425.5,-412.5 460.5,-412.5 460.5,-431.5"/>
<text text-anchor="middle" x="443" y="-419.5" font-family="Helvetica,sans-Serif" font-size="10.00">map</text>
</a>
</g>
</g>
<!-- Node2&#45;&gt;Node24 -->
<g id="edge30" class="edge">
<title>Node2&#45;&gt;Node24</title>
<path fill="none" stroke="#63b8ff" d="M443,-472.8C443,-464.09 443,-452.81 443,-443.18"/>
<polygon fill="#63b8ff" stroke="#63b8ff" points="446.5,-443.36 443,-433.36 439.5,-443.36 446.5,-443.36"/>
</g>
<!-- Node25 -->
<g id="node25" class="node">
<title>Node25</title>
<g id="a_node25"><a xlink:href="clock_8hpp.html" target="_top" xlink:title=" ">
<polygon fill="white" stroke="#666666" points="563,-431.5 479,-431.5 479,-412.5 563,-412.5 563,-431.5"/>
<text text-anchor="middle" x="521" y="-419.5" font-family="Helvetica,sans-Serif" font-size="10.00">clock/clock.hpp</text>
</a>
</g>
</g>
<!-- Node2&#45;&gt;Node25 -->
<g id="edge31" class="edge">
<title>Node2&#45;&gt;Node25</title>
<path fill="none" stroke="#63b8ff" d="M460.31,-472.8C472.47,-462.82 488.76,-449.46 501.4,-439.09"/>
<polygon fill="#63b8ff" stroke="#63b8ff" points="503.54,-441.85 509.05,-432.8 499.1,-436.44 503.54,-441.85"/>
</g>
<!-- Node4 -->
<g id="node4" class="node">
<title>Node4</title>
<g id="a_node4"><a xlink:href="block__id_8hpp.html" target="_top" xlink:title=" ">
<polygon fill="white" stroke="#666666" points="312,-371 196,-371 196,-352 312,-352 312,-371"/>
<text text-anchor="middle" x="254" y="-359" font-family="Helvetica,sans-Serif" font-size="10.00">primitives/block_id.hpp</text>
</a>
</g>
</g>
<!-- Node3&#45;&gt;Node4 -->
<g id="edge3" class="edge">
<title>Node3&#45;&gt;Node4</title>
<path fill="none" stroke="#63b8ff" d="M328.53,-406.54C313.36,-397.58 293.94,-386.1 278.73,-377.11"/>
<polygon fill="#63b8ff" stroke="#63b8ff" points="280.66,-374.19 270.27,-372.12 277.1,-380.22 280.66,-374.19"/>
</g>
<!-- Node20 -->
<g id="node20" class="node">
<title>Node20</title>
<g id="a_node20"><a xlink:href="transaction_8hpp.html" target="_top" xlink:title=" ">
<polygon fill="white" stroke="#666666" points="484,-255.5 356,-255.5 356,-236.5 484,-236.5 484,-255.5"/>
<text text-anchor="middle" x="420" y="-243.5" font-family="Helvetica,sans-Serif" font-size="10.00">primitives/transaction.hpp</text>
</a>
</g>
</g>
<!-- Node3&#45;&gt;Node20 -->
<g id="edge20" class="edge">
<title>Node3&#45;&gt;Node20</title>
<path fill="none" stroke="#63b8ff" d="M358.48,-406.76C370.5,-375.55 399.17,-301.11 412.69,-265.97"/>
<polygon fill="#63b8ff" stroke="#63b8ff" points="415.78,-267.69 416.11,-257.1 409.25,-265.17 415.78,-267.69"/>
</g>
<!-- Node5 -->
<g id="node5" class="node">
<title>Node5</title>
<g id="a_node5"><a xlink:title=" ">
<polygon fill="#e0e0e0" stroke="#999999" points="185.5,-316 94.5,-316 94.5,-297 185.5,-297 185.5,-316"/>
<text text-anchor="middle" x="140" y="-304" font-family="Helvetica,sans-Serif" font-size="10.00">boost/variant.hpp</text>
</a>
</g>
</g>
<!-- Node4&#45;&gt;Node5 -->
<g id="edge4" class="edge">
<title>Node4&#45;&gt;Node5</title>
<path fill="none" stroke="#63b8ff" d="M234.66,-351.51C216.78,-343.2 189.96,-330.73 169.43,-321.18"/>
<polygon fill="#63b8ff" stroke="#63b8ff" points="170.97,-318.04 160.43,-317 168.02,-324.39 170.97,-318.04"/>
</g>
<!-- Node6 -->
<g id="node6" class="node">
<title>Node6</title>
<g id="a_node6"><a xlink:href="blob_8hpp.html" target="_top" xlink:title=" ">
<polygon fill="white" stroke="#666666" points="283.5,-195 206.5,-195 206.5,-176 283.5,-176 283.5,-195"/>
<text text-anchor="middle" x="245" y="-183" font-family="Helvetica,sans-Serif" font-size="10.00">base/blob.hpp</text>
</a>
</g>
</g>
<!-- Node4&#45;&gt;Node6 -->
<g id="edge5" class="edge">
<title>Node4&#45;&gt;Node6</title>
<path fill="none" stroke="#63b8ff" d="M250.78,-351.73C243.53,-330.87 226.96,-276.61 233,-231 234.1,-222.67 236.32,-213.69 238.55,-205.99"/>
<polygon fill="#63b8ff" stroke="#63b8ff" points="241.82,-207.26 241.46,-196.67 235.14,-205.17 241.82,-207.26"/>
</g>
<!-- Node16 -->
<g id="node16" class="node">
<title>Node16</title>
<g id="a_node16"><a xlink:href="src_2primitives_2common_8hpp.html" target="_top" xlink:title=" ">
<polygon fill="white" stroke="#666666" points="375.5,-316 258.5,-316 258.5,-297 375.5,-297 375.5,-316"/>
<text text-anchor="middle" x="317" y="-304" font-family="Helvetica,sans-Serif" font-size="10.00">primitives/common.hpp</text>
</a>
</g>
</g>
<!-- Node4&#45;&gt;Node16 -->
<g id="edge15" class="edge">
<title>Node4&#45;&gt;Node16</title>
<path fill="none" stroke="#63b8ff" d="M264.69,-351.51C273.7,-343.93 286.83,-332.88 297.68,-323.75"/>
<polygon fill="#63b8ff" stroke="#63b8ff" points="299.91,-326.45 305.31,-317.33 295.41,-321.09 299.91,-326.45"/>
</g>
<!-- Node7 -->
<g id="node7" class="node">
<title>Node7</title>
<g id="a_node7"><a xlink:title=" ">
<polygon fill="#e0e0e0" stroke="#999999" points="38,-140 0,-140 0,-121 38,-121 38,-140"/>
<text text-anchor="middle" x="19" y="-128" font-family="Helvetica,sans-Serif" font-size="10.00">array</text>
</a>
</g>
</g>
<!-- Node6&#45;&gt;Node7 -->
<g id="edge6" class="edge">
<title>Node6&#45;&gt;Node7</title>
<path fill="none" stroke="#63b8ff" d="M206.1,-176.64C168.29,-168.81 109.04,-156.02 49.04,-140.39"/>
<polygon fill="#63b8ff" stroke="#63b8ff" points="50.25,-137.09 39.69,-137.93 48.47,-143.86 50.25,-137.09"/>
</g>
<!-- Node8 -->
<g id="node8" class="node">
<title>Node8</title>
<g id="a_node8"><a xlink:title=" ">
<polygon fill="#e0e0e0" stroke="#999999" points="184,-140 56,-140 56,-121 184,-121 184,-140"/>
<text text-anchor="middle" x="120" y="-128" font-family="Helvetica,sans-Serif" font-size="10.00">boost/functional/hash.hpp</text>
</a>
</g>
</g>
<!-- Node6&#45;&gt;Node8 -->
<g id="edge7" class="edge">
<title>Node6&#45;&gt;Node8</title>
<path fill="none" stroke="#63b8ff" d="M223.8,-175.51C203.92,-167.08 173.97,-154.38 151.34,-144.79"/>
<polygon fill="#63b8ff" stroke="#63b8ff" points="152.86,-141.63 142.28,-140.95 150.13,-148.07 152.86,-141.63"/>
</g>
<!-- Node9 -->
<g id="node9" class="node">
<title>Node9</title>
<g id="a_node9"><a xlink:href="hexutil_8hpp.html" target="_top" xlink:title=" ">
<polygon fill="white" stroke="#666666" points="288,-140 202,-140 202,-121 288,-121 288,-140"/>
<text text-anchor="middle" x="245" y="-128" font-family="Helvetica,sans-Serif" font-size="10.00">base/hexutil.hpp</text>
</a>
</g>
</g>
<!-- Node6&#45;&gt;Node9 -->
<g id="edge8" class="edge">
<title>Node6&#45;&gt;Node9</title>
<path fill="none" stroke="#63b8ff" d="M245,-175.75C245,-169.27 245,-160.16 245,-151.9"/>
<polygon fill="#63b8ff" stroke="#63b8ff" points="248.5,-151.96 245,-141.96 241.5,-151.96 248.5,-151.96"/>
</g>
<!-- Node15 -->
<g id="node15" class="node">
<title>Node15</title>
<g id="a_node15"><a xlink:title=" ">
<polygon fill="#e0e0e0" stroke="#999999" points="360,-140 306,-140 306,-121 360,-121 360,-140"/>
<text text-anchor="middle" x="333" y="-128" font-family="Helvetica,sans-Serif" font-size="10.00">iostream</text>
</a>
</g>
</g>
<!-- Node6&#45;&gt;Node15 -->
<g id="edge14" class="edge">
<title>Node6&#45;&gt;Node15</title>
<path fill="none" stroke="#63b8ff" d="M259.93,-175.51C273.28,-167.47 293.11,-155.53 308.74,-146.11"/>
<polygon fill="#63b8ff" stroke="#63b8ff" points="310.24,-149.3 317,-141.14 306.62,-143.3 310.24,-149.3"/>
</g>
<!-- Node10 -->
<g id="node10" class="node">
<title>Node10</title>
<g id="a_node10"><a xlink:title=" ">
<polygon fill="#e0e0e0" stroke="#999999" points="205,-79.5 139,-79.5 139,-60.5 205,-60.5 205,-79.5"/>
<text text-anchor="middle" x="172" y="-67.5" font-family="Helvetica,sans-Serif" font-size="10.00">string_view</text>
</a>
</g>
</g>
<!-- Node9&#45;&gt;Node10 -->
<g id="edge9" class="edge">
<title>Node9&#45;&gt;Node10</title>
<path fill="none" stroke="#63b8ff" d="M233.91,-120.62C222.76,-111.68 205.34,-97.72 191.81,-86.87"/>
<polygon fill="#63b8ff" stroke="#63b8ff" points="194.36,-84.44 184.37,-80.91 189.99,-89.9 194.36,-84.44"/>
</g>
<!-- Node11 -->
<g id="node11" class="node">
<title>Node11</title>
<g id="a_node11"><a xlink:title=" ">
<polygon fill="#e0e0e0" stroke="#999999" points="267,-79.5 223,-79.5 223,-60.5 267,-60.5 267,-79.5"/>
<text text-anchor="middle" x="245" y="-67.5" font-family="Helvetica,sans-Serif" font-size="10.00">vector</text>
</a>
</g>
</g>
<!-- Node9&#45;&gt;Node11 -->
<g id="edge10" class="edge">
<title>Node9&#45;&gt;Node11</title>
<path fill="none" stroke="#63b8ff" d="M245,-120.87C245,-113 245,-101.1 245,-90.89"/>
<polygon fill="#63b8ff" stroke="#63b8ff" points="248.5,-91.18 245,-81.18 241.5,-91.18 248.5,-91.18"/>
</g>
<!-- Node12 -->
<g id="node12" class="node">
<title>Node12</title>
<g id="a_node12"><a xlink:title=" ">
<polygon fill="#e0e0e0" stroke="#999999" points="338.5,-79.5 285.5,-79.5 285.5,-60.5 338.5,-60.5 338.5,-79.5"/>
<text text-anchor="middle" x="312" y="-67.5" font-family="Helvetica,sans-Serif" font-size="10.00">gsl/span</text>
</a>
</g>
</g>
<!-- Node9&#45;&gt;Node12 -->
<g id="edge11" class="edge">
<title>Node9&#45;&gt;Node12</title>
<path fill="none" stroke="#63b8ff" d="M255.18,-120.62C265.21,-111.85 280.79,-98.25 293.1,-87.5"/>
<polygon fill="#63b8ff" stroke="#63b8ff" points="295.36,-90.18 300.59,-80.96 290.75,-84.9 295.36,-90.18"/>
</g>
<!-- Node13 -->
<g id="node13" class="node">
<title>Node13</title>
<g id="a_node13"><a xlink:href="outcome_8hpp.html" target="_top" xlink:title=" ">
<polygon fill="white" stroke="#666666" points="469.5,-79.5 356.5,-79.5 356.5,-60.5 469.5,-60.5 469.5,-79.5"/>
<text text-anchor="middle" x="413" y="-67.5" font-family="Helvetica,sans-Serif" font-size="10.00">outcome/outcome.hpp</text>
</a>
</g>
</g>
<!-- Node9&#45;&gt;Node13 -->
<g id="edge12" class="edge">
<title>Node9&#45;&gt;Node13</title>
<path fill="none" stroke="#63b8ff" d="M270.52,-120.62C298.76,-110.78 344.52,-94.84 376.54,-83.69"/>
<polygon fill="#63b8ff" stroke="#63b8ff" points="377.52,-87.06 385.81,-80.47 375.22,-80.45 377.52,-87.06"/>
</g>
<!-- Node14 -->
<g id="node14" class="node">
<title>Node14</title>
<g id="a_node14"><a xlink:title=" ">
<polygon fill="#e0e0e0" stroke="#999999" points="483.5,-19 342.5,-19 342.5,0 483.5,0 483.5,-19"/>
<text text-anchor="middle" x="413" y="-7" font-family="Helvetica,sans-Serif" font-size="10.00">libp2p/outcome/outcome.hpp</text>
</a>
</g>
</g>
<!-- Node13&#45;&gt;Node14 -->
<g id="edge13" class="edge">
<title>Node13&#45;&gt;Node14</title>
<path fill="none" stroke="#63b8ff" d="M413,-60.37C413,-52.5 413,-40.6 413,-30.39"/>
<polygon fill="#63b8ff" stroke="#63b8ff" points="416.5,-30.68 413,-20.68 409.5,-30.68 416.5,-30.68"/>
</g>
<!-- Node17 -->
<g id="node17" class="node">
<title>Node17</title>
<g id="a_node17"><a xlink:title=" ">
<polygon fill="#e0e0e0" stroke="#999999" points="586,-255.5 540,-255.5 540,-236.5 586,-236.5 586,-255.5"/>
<text text-anchor="middle" x="563" y="-243.5" font-family="Helvetica,sans-Serif" font-size="10.00">cstdint</text>
</a>
</g>
</g>
<!-- Node16&#45;&gt;Node17 -->
<g id="edge16" class="edge">
<title>Node16&#45;&gt;Node17</title>
<path fill="none" stroke="#63b8ff" d="M369.95,-296.53C412.53,-288.76 473.68,-276.37 526,-261 527.37,-260.6 528.76,-260.17 530.17,-259.72"/>
<polygon fill="#63b8ff" stroke="#63b8ff" points="531.15,-263.08 539.45,-256.49 528.86,-256.47 531.15,-263.08"/>
</g>
<!-- Node18 -->
<g id="node18" class="node">
<title>Node18</title>
<g id="a_node18"><a xlink:title=" ">
<polygon fill="#e0e0e0" stroke="#999999" points="718,-79.5 616,-79.5 616,-60.5 718,-60.5 718,-79.5"/>
<text text-anchor="middle" x="667" y="-67.5" font-family="Helvetica,sans-Serif" font-size="10.00">boost/operators.hpp</text>
</a>
</g>
</g>
<!-- Node16&#45;&gt;Node18 -->
<g id="edge17" class="edge">
<title>Node16&#45;&gt;Node18</title>
<path fill="none" stroke="#63b8ff" d="M375.74,-299.31C411.61,-293.5 457.28,-282.34 493,-261 532.1,-237.64 619.12,-131.19 653.06,-88.64"/>
<polygon fill="#63b8ff" stroke="#63b8ff" points="655.73,-90.91 659.21,-80.9 650.25,-86.56 655.73,-90.91"/>
</g>
<!-- Node19 -->
<g id="node19" class="node">
<title>Node19</title>
<g id="a_node19"><a xlink:href="session__key_8hpp.html" target="_top" xlink:title=" ">
<polygon fill="white" stroke="#666666" points="337.5,-261 242.5,-261 242.5,-231 337.5,-231 337.5,-261"/>
<text text-anchor="start" x="250.5" y="-249" font-family="Helvetica,sans-Serif" font-size="10.00">primitives/session</text>
<text text-anchor="middle" x="290" y="-238" font-family="Helvetica,sans-Serif" font-size="10.00">_key.hpp</text>
</a>
</g>
</g>
<!-- Node16&#45;&gt;Node19 -->
<g id="edge18" class="edge">
<title>Node16&#45;&gt;Node19</title>
<path fill="none" stroke="#63b8ff" d="M313.02,-296.87C309.93,-290.18 305.49,-280.57 301.34,-271.56"/>
<polygon fill="#63b8ff" stroke="#63b8ff" points="304.52,-270.1 297.15,-262.49 298.16,-273.04 304.52,-270.1"/>
</g>
<!-- Node19&#45;&gt;Node6 -->
<g id="edge19" class="edge">
<title>Node19&#45;&gt;Node6</title>
<path fill="none" stroke="#63b8ff" d="M278.88,-230.54C272.74,-222.56 265.07,-212.59 258.59,-204.16"/>
<polygon fill="#63b8ff" stroke="#63b8ff" points="261.47,-202.17 252.6,-196.37 255.92,-206.44 261.47,-202.17"/>
</g>
<!-- Node20&#45;&gt;Node6 -->
<g id="edge21" class="edge">
<title>Node20&#45;&gt;Node6</title>
<path fill="none" stroke="#63b8ff" d="M393.42,-236.12C363.87,-226.24 315.91,-210.21 282.54,-199.05"/>
<polygon fill="#63b8ff" stroke="#63b8ff" points="283.86,-195.8 273.26,-195.95 281.64,-202.44 283.86,-195.8"/>
</g>
<!-- Node21 -->
<g id="node21" class="node">
<title>Node21</title>
<g id="a_node21"><a xlink:href="extrinsic_8hpp.html" target="_top" xlink:title=" ">
<polygon fill="white" stroke="#666666" points="478,-195 362,-195 362,-176 478,-176 478,-195"/>
<text text-anchor="middle" x="420" y="-183" font-family="Helvetica,sans-Serif" font-size="10.00">primitives/extrinsic.hpp</text>
</a>
</g>
</g>
<!-- Node20&#45;&gt;Node21 -->
<g id="edge22" class="edge">
<title>Node20&#45;&gt;Node21</title>
<path fill="none" stroke="#63b8ff" d="M420,-236.37C420,-228.5 420,-216.6 420,-206.39"/>
<polygon fill="#63b8ff" stroke="#63b8ff" points="423.5,-206.68 420,-196.68 416.5,-206.68 423.5,-206.68"/>
</g>
<!-- Node22 -->
<g id="node22" class="node">
<title>Node22</title>
<g id="a_node22"><a xlink:href="buffer_8hpp.html" target="_top" xlink:title=" ">
<polygon fill="white" stroke="#666666" points="461.5,-140 378.5,-140 378.5,-121 461.5,-121 461.5,-140"/>
<text text-anchor="middle" x="420" y="-128" font-family="Helvetica,sans-Serif" font-size="10.00">base/buffer.hpp</text>
</a>
</g>
</g>
<!-- Node21&#45;&gt;Node22 -->
<g id="edge23" class="edge">
<title>Node21&#45;&gt;Node22</title>
<path fill="none" stroke="#63b8ff" d="M420,-175.75C420,-169.27 420,-160.16 420,-151.9"/>
<polygon fill="#63b8ff" stroke="#63b8ff" points="423.5,-151.96 420,-141.96 416.5,-151.96 423.5,-151.96"/>
</g>
<!-- Node22&#45;&gt;Node10 -->
<g id="edge24" class="edge">
<title>Node22&#45;&gt;Node10</title>
<path fill="none" stroke="#63b8ff" d="M378.25,-121.87C336.4,-113.89 270.29,-100.41 214,-85 212.03,-84.46 210.01,-83.88 207.99,-83.28"/>
<polygon fill="#63b8ff" stroke="#63b8ff" points="209.22,-80 198.63,-80.34 207.12,-86.67 209.22,-80"/>
</g>
<!-- Node22&#45;&gt;Node11 -->
<g id="edge25" class="edge">
<title>Node22&#45;&gt;Node11</title>
<path fill="none" stroke="#63b8ff" d="M387.01,-120.57C357.56,-112.3 313.44,-99.18 276,-85 275.38,-84.76 274.75,-84.52 274.12,-84.28"/>
<polygon fill="#63b8ff" stroke="#63b8ff" points="275.83,-81.2 265.26,-80.55 273.12,-87.65 275.83,-81.2"/>
</g>
<!-- Node22&#45;&gt;Node12 -->
<g id="edge28" class="edge">
<title>Node22&#45;&gt;Node12</title>
<path fill="none" stroke="#63b8ff" d="M403.6,-120.62C386.31,-111.25 358.82,-96.36 338.46,-85.33"/>
<polygon fill="#63b8ff" stroke="#63b8ff" points="340.35,-82.37 329.89,-80.69 337.01,-88.53 340.35,-82.37"/>
</g>
<!-- Node22&#45;&gt;Node13 -->
<g id="edge29" class="edge">
<title>Node22&#45;&gt;Node13</title>
<path fill="none" stroke="#63b8ff" d="M418.97,-120.87C418.03,-113 416.6,-101.1 415.38,-90.89"/>
<polygon fill="#63b8ff" stroke="#63b8ff" points="418.88,-90.68 414.22,-81.17 411.93,-91.52 418.88,-90.68"/>
</g>
<!-- Node22&#45;&gt;Node18 -->
<g id="edge27" class="edge">
<title>Node22&#45;&gt;Node18</title>
<path fill="none" stroke="#63b8ff" d="M457.78,-120.55C500.73,-110.38 570.97,-93.74 618.07,-82.59"/>
<polygon fill="#63b8ff" stroke="#63b8ff" points="618.82,-86.01 627.75,-80.3 617.21,-79.2 618.82,-86.01"/>
</g>
<!-- Node23 -->
<g id="node23" class="node">
<title>Node23</title>
<g id="a_node23"><a xlink:title=" ">
<polygon fill="#e0e0e0" stroke="#999999" points="598,-85 488,-85 488,-55 598,-55 598,-85"/>
<text text-anchor="start" x="496" y="-73" font-family="Helvetica,sans-Serif" font-size="10.00">boost/container_hash</text>
<text text-anchor="middle" x="543" y="-62" font-family="Helvetica,sans-Serif" font-size="10.00">/hash.hpp</text>
</a>
</g>
</g>
<!-- Node22&#45;&gt;Node23 -->
<g id="edge26" class="edge">
<title>Node22&#45;&gt;Node23</title>
<path fill="none" stroke="#63b8ff" d="M438.68,-120.62C455.55,-112.59 480.94,-100.52 502.45,-90.29"/>
<polygon fill="#63b8ff" stroke="#63b8ff" points="503.75,-93.55 511.27,-86.09 500.74,-87.22 503.75,-93.55"/>
</g>
<!-- Node26 -->
<g id="node26" class="node">
<title>Node26</title>
<g id="a_node26"><a xlink:title=" ">
<polygon fill="#e0e0e0" stroke="#999999" points="544,-371 498,-371 498,-352 544,-352 544,-371"/>
<text text-anchor="middle" x="521" y="-359" font-family="Helvetica,sans-Serif" font-size="10.00">chrono</text>
</a>
</g>
</g>
<!-- Node25&#45;&gt;Node26 -->
<g id="edge32" class="edge">
<title>Node25&#45;&gt;Node26</title>
<path fill="none" stroke="#63b8ff" d="M521,-412.37C521,-404.5 521,-392.6 521,-382.39"/>
<polygon fill="#63b8ff" stroke="#63b8ff" points="524.5,-382.68 521,-372.68 517.5,-382.68 524.5,-382.68"/>
</g>
</g>
</svg>
