<?xml version="1.0" encoding="UTF-8" standalone="no"?>
<!DOCTYPE svg PUBLIC "-//W3C//DTD SVG 1.1//EN"
 "http://www.w3.org/Graphics/SVG/1.1/DTD/svg11.dtd">
<!-- Generated by graphviz version 7.0.5 (20221223.1930)
 -->
<!-- Title: src/processing/processing_subtask_queue_channel_pubsub.hpp Pages: 1 -->
<svg width="288pt" height="126pt"
 viewBox="0.00 0.00 288.00 126.00" xmlns="http://www.w3.org/2000/svg" xmlns:xlink="http://www.w3.org/1999/xlink">
<g id="graph0" class="graph" transform="scale(1 1) rotate(0) translate(4 122)">
<title>src/processing/processing_subtask_queue_channel_pubsub.hpp</title>
<!-- Node1 -->
<g id="node1" class="node">
<title>Node1</title>
<g id="a_node1"><a xlink:title=" ">
<polygon fill="#999999" stroke="#666666" points="205,-118 74,-118 74,-77 205,-77 205,-118"/>
<text text-anchor="start" x="82" y="-106" font-family="Helvetica,sans-Serif" font-size="10.00">src/processing/processing</text>
<text text-anchor="start" x="82" y="-95" font-family="Helvetica,sans-Serif" font-size="10.00">_subtask_queue_channel</text>
<text text-anchor="middle" x="139.5" y="-84" font-family="Helvetica,sans-Serif" font-size="10.00">_pubsub.hpp</text>
</a>
</g>
</g>
<!-- Node2 -->
<g id="node2" class="node">
<title>Node2</title>
<g id="a_node2"><a xlink:href="processing__node_8cpp.html" target="_top" xlink:title=" ">
<polygon fill="white" stroke="#666666" points="131,-35.5 0,-35.5 0,-5.5 131,-5.5 131,-35.5"/>
<text text-anchor="start" x="8" y="-23.5" font-family="Helvetica,sans-Serif" font-size="10.00">src/processing/processing</text>
<text text-anchor="middle" x="65.5" y="-12.5" font-family="Helvetica,sans-Serif" font-size="10.00">_node.cpp</text>
</a>
</g>
</g>
<!-- Node1&#45;&gt;Node2 -->
<g id="edge1" class="edge">
<title>Node1&#45;&gt;Node2</title>
<path fill="none" stroke="#63b8ff" d="M112.28,-68.92C101.22,-57.7 88.89,-45.21 79.67,-35.86"/>
<polygon fill="#63b8ff" stroke="#63b8ff" points="109.48,-71.06 118.99,-75.72 114.46,-66.14 109.48,-71.06"/>
</g>
<!-- Node3 -->
<g id="node3" class="node">
<title>Node3</title>
<g id="a_node3"><a xlink:href="processing__subtask__queue__channel__pubsub_8cpp.html" target="_top" xlink:title=" ">
<polygon fill="white" stroke="#666666" points="280,-41 149,-41 149,0 280,0 280,-41"/>
<text text-anchor="start" x="157" y="-29" font-family="Helvetica,sans-Serif" font-size="10.00">src/processing/processing</text>
<text text-anchor="start" x="157" y="-18" font-family="Helvetica,sans-Serif" font-size="10.00">_subtask_queue_channel</text>
<text text-anchor="middle" x="214.5" y="-7" font-family="Helvetica,sans-Serif" font-size="10.00">_pubsub.cpp</text>
</a>
</g>
</g>
<!-- Node1&#45;&gt;Node3 -->
<g id="edge2" class="edge">
<title>Node1&#45;&gt;Node3</title>
<path fill="none" stroke="#63b8ff" d="M167.26,-68.74C176.36,-59.64 186.28,-49.72 194.67,-41.33"/>
<polygon fill="#63b8ff" stroke="#63b8ff" points="164.87,-66.18 160.28,-75.72 169.82,-71.13 164.87,-66.18"/>
</g>
</g>
</svg>
