<?xml version="1.0" encoding="UTF-8" standalone="no"?>
<!DOCTYPE svg PUBLIC "-//W3C//DTD SVG 1.1//EN"
 "http://www.w3.org/Graphics/SVG/1.1/DTD/svg11.dtd">
<!-- Generated by graphviz version 7.0.5 (20221223.1930)
 -->
<!-- Title: src/processing/processing_subtask_queue_accessor.hpp Pages: 1 -->
<svg width="478pt" height="324pt"
 viewBox="0.00 0.00 478.00 324.00" xmlns="http://www.w3.org/2000/svg" xmlns:xlink="http://www.w3.org/1999/xlink">
<g id="graph0" class="graph" transform="scale(1 1) rotate(0) translate(4 320)">
<title>src/processing/processing_subtask_queue_accessor.hpp</title>
<!-- Node1 -->
<g id="node1" class="node">
<title>Node1</title>
<g id="a_node1"><a xlink:title=" ">
<polygon fill="#999999" stroke="#666666" points="290,-316 139,-316 139,-286 290,-286 290,-316"/>
<text text-anchor="start" x="147" y="-304" font-family="Helvetica,sans-Serif" font-size="10.00">src/processing/processing</text>
<text text-anchor="middle" x="214.5" y="-293" font-family="Helvetica,sans-Serif" font-size="10.00">_subtask_queue_accessor.hpp</text>
</a>
</g>
</g>
<!-- Node2 -->
<g id="node2" class="node">
<title>Node2</title>
<g id="a_node2"><a xlink:href="processing__engine_8hpp.html" target="_top" xlink:title=" ">
<polygon fill="white" stroke="#666666" points="186,-244.5 55,-244.5 55,-214.5 186,-214.5 186,-244.5"/>
<text text-anchor="start" x="63" y="-232.5" font-family="Helvetica,sans-Serif" font-size="10.00">src/processing/processing</text>
<text text-anchor="middle" x="120.5" y="-221.5" font-family="Helvetica,sans-Serif" font-size="10.00">_engine.hpp</text>
</a>
</g>
</g>
<!-- Node1&#45;&gt;Node2 -->
<g id="edge1" class="edge">
<title>Node1&#45;&gt;Node2</title>
<path fill="none" stroke="#63b8ff" d="M186.18,-279.06C171.25,-268.02 153.31,-254.76 139.95,-244.88"/>
<polygon fill="#63b8ff" stroke="#63b8ff" points="183.68,-281.57 193.81,-284.7 187.85,-275.94 183.68,-281.57"/>
</g>
<!-- Node4 -->
<g id="node4" class="node">
<title>Node4</title>
<g id="a_node4"><a xlink:href="processing__node_8hpp.html" target="_top" xlink:title=" ">
<polygon fill="white" stroke="#666666" points="280,-167.5 149,-167.5 149,-137.5 280,-137.5 280,-167.5"/>
<text text-anchor="start" x="157" y="-155.5" font-family="Helvetica,sans-Serif" font-size="10.00">src/processing/processing</text>
<text text-anchor="middle" x="214.5" y="-144.5" font-family="Helvetica,sans-Serif" font-size="10.00">_node.hpp</text>
</a>
</g>
</g>
<!-- Node1&#45;&gt;Node4 -->
<g id="edge7" class="edge">
<title>Node1&#45;&gt;Node4</title>
<path fill="none" stroke="#63b8ff" d="M214.5,-274.53C214.5,-243.54 214.5,-192.33 214.5,-167.66"/>
<polygon fill="#63b8ff" stroke="#63b8ff" points="211,-274.17 214.5,-284.17 218,-274.17 211,-274.17"/>
</g>
<!-- Node8 -->
<g id="node8" class="node">
<title>Node8</title>
<g id="a_node8"><a xlink:href="processing__subtask__queue__accessor__impl_8hpp.html" target="_top" xlink:title=" ">
<polygon fill="white" stroke="#666666" points="376,-250 243,-250 243,-209 376,-209 376,-250"/>
<text text-anchor="start" x="251" y="-238" font-family="Helvetica,sans-Serif" font-size="10.00">src/processing/processing</text>
<text text-anchor="start" x="251" y="-227" font-family="Helvetica,sans-Serif" font-size="10.00">_subtask_queue_accessor</text>
<text text-anchor="middle" x="309.5" y="-216" font-family="Helvetica,sans-Serif" font-size="10.00">_impl.hpp</text>
</a>
</g>
</g>
<!-- Node1&#45;&gt;Node8 -->
<g id="edge8" class="edge">
<title>Node1&#45;&gt;Node8</title>
<path fill="none" stroke="#63b8ff" d="M243.2,-279C255.6,-269.93 270.04,-259.37 282.28,-250.42"/>
<polygon fill="#63b8ff" stroke="#63b8ff" points="241.41,-275.98 235.41,-284.71 245.54,-281.63 241.41,-275.98"/>
</g>
<!-- Node3 -->
<g id="node3" class="node">
<title>Node3</title>
<g id="a_node3"><a xlink:href="processing__engine_8cpp.html" target="_top" xlink:title=" ">
<polygon fill="white" stroke="#666666" points="131,-167.5 0,-167.5 0,-137.5 131,-137.5 131,-167.5"/>
<text text-anchor="start" x="8" y="-155.5" font-family="Helvetica,sans-Serif" font-size="10.00">src/processing/processing</text>
<text text-anchor="middle" x="65.5" y="-144.5" font-family="Helvetica,sans-Serif" font-size="10.00">_engine.cpp</text>
</a>
</g>
</g>
<!-- Node2&#45;&gt;Node3 -->
<g id="edge2" class="edge">
<title>Node2&#45;&gt;Node3</title>
<path fill="none" stroke="#63b8ff" d="M103.2,-204.91C94.31,-192.78 83.75,-178.38 76.07,-167.92"/>
<polygon fill="#63b8ff" stroke="#63b8ff" points="100.26,-206.82 109,-212.82 105.91,-202.68 100.26,-206.82"/>
</g>
<!-- Node2&#45;&gt;Node4 -->
<g id="edge3" class="edge">
<title>Node2&#45;&gt;Node4</title>
<path fill="none" stroke="#63b8ff" d="M147.38,-207.05C163.11,-194.51 182.53,-179.01 196.43,-167.92"/>
<polygon fill="#63b8ff" stroke="#63b8ff" points="145.44,-204.12 139.81,-213.1 149.81,-209.59 145.44,-204.12"/>
</g>
<!-- Node5 -->
<g id="node5" class="node">
<title>Node5</title>
<g id="a_node5"><a xlink:href="processing__node_8cpp.html" target="_top" xlink:title=" ">
<polygon fill="white" stroke="#666666" points="374,-96 243,-96 243,-66 374,-66 374,-96"/>
<text text-anchor="start" x="251" y="-84" font-family="Helvetica,sans-Serif" font-size="10.00">src/processing/processing</text>
<text text-anchor="middle" x="308.5" y="-73" font-family="Helvetica,sans-Serif" font-size="10.00">_node.cpp</text>
</a>
</g>
</g>
<!-- Node4&#45;&gt;Node5 -->
<g id="edge4" class="edge">
<title>Node4&#45;&gt;Node5</title>
<path fill="none" stroke="#63b8ff" d="M242.82,-130.56C257.75,-119.52 275.69,-106.26 289.05,-96.38"/>
<polygon fill="#63b8ff" stroke="#63b8ff" points="241.15,-127.44 235.19,-136.2 245.32,-133.07 241.15,-127.44"/>
</g>
<!-- Node6 -->
<g id="node6" class="node">
<title>Node6</title>
<g id="a_node6"><a xlink:href="processing__service_8hpp.html" target="_top" xlink:title=" ">
<polygon fill="white" stroke="#666666" points="225,-96 94,-96 94,-66 225,-66 225,-96"/>
<text text-anchor="start" x="102" y="-84" font-family="Helvetica,sans-Serif" font-size="10.00">src/processing/processing</text>
<text text-anchor="middle" x="159.5" y="-73" font-family="Helvetica,sans-Serif" font-size="10.00">_service.hpp</text>
</a>
</g>
</g>
<!-- Node4&#45;&gt;Node6 -->
<g id="edge5" class="edge">
<title>Node4&#45;&gt;Node6</title>
<path fill="none" stroke="#63b8ff" d="M196.18,-128.35C187.82,-117.78 178.18,-105.6 170.88,-96.38"/>
<polygon fill="#63b8ff" stroke="#63b8ff" points="193.21,-130.24 202.16,-135.91 198.7,-125.9 193.21,-130.24"/>
</g>
<!-- Node7 -->
<g id="node7" class="node">
<title>Node7</title>
<g id="a_node7"><a xlink:href="processing__service_8cpp.html" target="_top" xlink:title=" ">
<polygon fill="white" stroke="#666666" points="225,-30 94,-30 94,0 225,0 225,-30"/>
<text text-anchor="start" x="102" y="-18" font-family="Helvetica,sans-Serif" font-size="10.00">src/processing/processing</text>
<text text-anchor="middle" x="159.5" y="-7" font-family="Helvetica,sans-Serif" font-size="10.00">_service.cpp</text>
</a>
</g>
</g>
<!-- Node6&#45;&gt;Node7 -->
<g id="edge6" class="edge">
<title>Node6&#45;&gt;Node7</title>
<path fill="none" stroke="#63b8ff" d="M159.5,-54.39C159.5,-46.13 159.5,-37.28 159.5,-30.16"/>
<polygon fill="#63b8ff" stroke="#63b8ff" points="156,-54.28 159.5,-64.28 163,-54.28 156,-54.28"/>
</g>
<!-- Node8&#45;&gt;Node5 -->
<g id="edge9" class="edge">
<title>Node8&#45;&gt;Node5</title>
<path fill="none" stroke="#63b8ff" d="M309.29,-197.62C309.08,-166.38 308.76,-119.48 308.6,-96.18"/>
<polygon fill="#63b8ff" stroke="#63b8ff" points="305.79,-197.25 309.35,-207.23 312.79,-197.21 305.79,-197.25"/>
</g>
<!-- Node9 -->
<g id="node9" class="node">
<title>Node9</title>
<g id="a_node9"><a xlink:href="processing__subtask__queue__accessor__impl_8cpp.html" target="_top" xlink:title=" ">
<polygon fill="white" stroke="#666666" points="470,-173 337,-173 337,-132 470,-132 470,-173"/>
<text text-anchor="start" x="345" y="-161" font-family="Helvetica,sans-Serif" font-size="10.00">src/processing/processing</text>
<text text-anchor="start" x="345" y="-150" font-family="Helvetica,sans-Serif" font-size="10.00">_subtask_queue_accessor</text>
<text text-anchor="middle" x="403.5" y="-139" font-family="Helvetica,sans-Serif" font-size="10.00">_impl.cpp</text>
</a>
</g>
</g>
<!-- Node8&#45;&gt;Node9 -->
<g id="edge10" class="edge">
<title>Node8&#45;&gt;Node9</title>
<path fill="none" stroke="#63b8ff" d="M342.9,-201.85C354.68,-192.45 367.7,-182.07 378.64,-173.33"/>
<polygon fill="#63b8ff" stroke="#63b8ff" points="341.01,-198.88 335.38,-207.85 345.38,-204.35 341.01,-198.88"/>
</g>
</g>
</svg>
