<?xml version="1.0" encoding="UTF-8" standalone="no"?>
<!DOCTYPE svg PUBLIC "-//W3C//DTD SVG 1.1//EN"
 "http://www.w3.org/Graphics/SVG/1.1/DTD/svg11.dtd">
<!-- Generated by graphviz version 7.0.5 (20221223.1930)
 -->
<!-- Title: src/processing/processing_subtask_result_storage.hpp Pages: 1 -->
<svg width="439pt" height="258pt"
 viewBox="0.00 0.00 439.00 258.00" xmlns="http://www.w3.org/2000/svg" xmlns:xlink="http://www.w3.org/1999/xlink">
<g id="graph0" class="graph" transform="scale(1 1) rotate(0) translate(4 254)">
<title>src/processing/processing_subtask_result_storage.hpp</title>
<!-- Node1 -->
<g id="node1" class="node">
<title>Node1</title>
<g id="a_node1"><a xlink:title=" ">
<polygon fill="#999999" stroke="#666666" points="285,-250 144,-250 144,-220 285,-220 285,-250"/>
<text text-anchor="start" x="152" y="-238" font-family="Helvetica,sans-Serif" font-size="10.00">src/processing/processing</text>
<text text-anchor="middle" x="214.5" y="-227" font-family="Helvetica,sans-Serif" font-size="10.00">_subtask_result_storage.hpp</text>
</a>
</g>
</g>
<!-- Node2 -->
<g id="node2" class="node">
<title>Node2</title>
<g id="a_node2"><a xlink:href="processing__node_8hpp.html" target="_top" xlink:title=" ">
<polygon fill="white" stroke="#666666" points="205,-178.5 74,-178.5 74,-148.5 205,-148.5 205,-178.5"/>
<text text-anchor="start" x="82" y="-166.5" font-family="Helvetica,sans-Serif" font-size="10.00">src/processing/processing</text>
<text text-anchor="middle" x="139.5" y="-155.5" font-family="Helvetica,sans-Serif" font-size="10.00">_node.hpp</text>
</a>
</g>
</g>
<!-- Node1&#45;&gt;Node2 -->
<g id="edge1" class="edge">
<title>Node1&#45;&gt;Node2</title>
<path fill="none" stroke="#63b8ff" d="M190.55,-211.8C178.91,-201.02 165.27,-188.38 155.02,-178.88"/>
<polygon fill="#63b8ff" stroke="#63b8ff" points="188.14,-214.34 197.85,-218.57 192.89,-209.21 188.14,-214.34"/>
</g>
<!-- Node6 -->
<g id="node6" class="node">
<title>Node6</title>
<g id="a_node6"><a xlink:href="processing__subtask__queue__accessor__impl_8hpp.html" target="_top" xlink:title=" ">
<polygon fill="white" stroke="#666666" points="356,-184 223,-184 223,-143 356,-143 356,-184"/>
<text text-anchor="start" x="231" y="-172" font-family="Helvetica,sans-Serif" font-size="10.00">src/processing/processing</text>
<text text-anchor="start" x="231" y="-161" font-family="Helvetica,sans-Serif" font-size="10.00">_subtask_queue_accessor</text>
<text text-anchor="middle" x="289.5" y="-150" font-family="Helvetica,sans-Serif" font-size="10.00">_impl.hpp</text>
</a>
</g>
</g>
<!-- Node1&#45;&gt;Node6 -->
<g id="edge5" class="edge">
<title>Node1&#45;&gt;Node6</title>
<path fill="none" stroke="#63b8ff" d="M238.32,-211.93C247.84,-203.1 258.73,-193.01 268.01,-184.42"/>
<polygon fill="#63b8ff" stroke="#63b8ff" points="236.11,-209.21 231.15,-218.57 240.86,-214.34 236.11,-209.21"/>
</g>
<!-- Node3 -->
<g id="node3" class="node">
<title>Node3</title>
<g id="a_node3"><a xlink:href="processing__node_8cpp.html" target="_top" xlink:title=" ">
<polygon fill="white" stroke="#666666" points="280,-101.5 149,-101.5 149,-71.5 280,-71.5 280,-101.5"/>
<text text-anchor="start" x="157" y="-89.5" font-family="Helvetica,sans-Serif" font-size="10.00">src/processing/processing</text>
<text text-anchor="middle" x="214.5" y="-78.5" font-family="Helvetica,sans-Serif" font-size="10.00">_node.cpp</text>
</a>
</g>
</g>
<!-- Node2&#45;&gt;Node3 -->
<g id="edge2" class="edge">
<title>Node2&#45;&gt;Node3</title>
<path fill="none" stroke="#63b8ff" d="M162.01,-139.99C174.36,-127.64 189.3,-112.7 200.08,-101.92"/>
<polygon fill="#63b8ff" stroke="#63b8ff" points="159.63,-137.42 155.03,-146.97 164.58,-142.37 159.63,-137.42"/>
</g>
<!-- Node4 -->
<g id="node4" class="node">
<title>Node4</title>
<g id="a_node4"><a xlink:href="processing__service_8hpp.html" target="_top" xlink:title=" ">
<polygon fill="white" stroke="#666666" points="131,-101.5 0,-101.5 0,-71.5 131,-71.5 131,-101.5"/>
<text text-anchor="start" x="8" y="-89.5" font-family="Helvetica,sans-Serif" font-size="10.00">src/processing/processing</text>
<text text-anchor="middle" x="65.5" y="-78.5" font-family="Helvetica,sans-Serif" font-size="10.00">_service.hpp</text>
</a>
</g>
</g>
<!-- Node2&#45;&gt;Node4 -->
<g id="edge3" class="edge">
<title>Node2&#45;&gt;Node4</title>
<path fill="none" stroke="#63b8ff" d="M117.29,-139.99C105.1,-127.64 90.36,-112.7 79.72,-101.92"/>
<polygon fill="#63b8ff" stroke="#63b8ff" points="114.65,-142.3 124.17,-146.96 119.64,-137.39 114.65,-142.3"/>
</g>
<!-- Node5 -->
<g id="node5" class="node">
<title>Node5</title>
<g id="a_node5"><a xlink:href="processing__service_8cpp.html" target="_top" xlink:title=" ">
<polygon fill="white" stroke="#666666" points="131,-30 0,-30 0,0 131,0 131,-30"/>
<text text-anchor="start" x="8" y="-18" font-family="Helvetica,sans-Serif" font-size="10.00">src/processing/processing</text>
<text text-anchor="middle" x="65.5" y="-7" font-family="Helvetica,sans-Serif" font-size="10.00">_service.cpp</text>
</a>
</g>
</g>
<!-- Node4&#45;&gt;Node5 -->
<g id="edge4" class="edge">
<title>Node4&#45;&gt;Node5</title>
<path fill="none" stroke="#63b8ff" d="M65.5,-59.76C65.5,-49.83 65.5,-38.86 65.5,-30.38"/>
<polygon fill="#63b8ff" stroke="#63b8ff" points="62,-59.59 65.5,-69.59 69,-59.59 62,-59.59"/>
</g>
<!-- Node6&#45;&gt;Node3 -->
<g id="edge6" class="edge">
<title>Node6&#45;&gt;Node3</title>
<path fill="none" stroke="#63b8ff" d="M261.92,-134.92C250.7,-123.7 238.21,-111.21 228.86,-101.86"/>
<polygon fill="#63b8ff" stroke="#63b8ff" points="259.18,-137.13 268.72,-141.72 264.13,-132.18 259.18,-137.13"/>
</g>
<!-- Node7 -->
<g id="node7" class="node">
<title>Node7</title>
<g id="a_node7"><a xlink:href="processing__subtask__queue__accessor__impl_8cpp.html" target="_top" xlink:title=" ">
<polygon fill="white" stroke="#666666" points="431,-107 298,-107 298,-66 431,-66 431,-107"/>
<text text-anchor="start" x="306" y="-95" font-family="Helvetica,sans-Serif" font-size="10.00">src/processing/processing</text>
<text text-anchor="start" x="306" y="-84" font-family="Helvetica,sans-Serif" font-size="10.00">_subtask_queue_accessor</text>
<text text-anchor="middle" x="364.5" y="-73" font-family="Helvetica,sans-Serif" font-size="10.00">_impl.cpp</text>
</a>
</g>
</g>
<!-- Node6&#45;&gt;Node7 -->
<g id="edge7" class="edge">
<title>Node6&#45;&gt;Node7</title>
<path fill="none" stroke="#63b8ff" d="M317.26,-134.74C326.36,-125.64 336.28,-115.72 344.67,-107.33"/>
<polygon fill="#63b8ff" stroke="#63b8ff" points="314.87,-132.18 310.28,-141.72 319.82,-137.13 314.87,-132.18"/>
</g>
</g>
</svg>
