<?xml version="1.0" encoding="UTF-8" standalone="no"?>
<!DOCTYPE svg PUBLIC "-//W3C//DTD SVG 1.1//EN"
 "http://www.w3.org/Graphics/SVG/1.1/DTD/svg11.dtd">
<!-- Generated by graphviz version 7.0.5 (20221223.1930)
 -->
<!-- Title: src/processing/processing_subtask_queue_manager.hpp Pages: 1 -->
<svg width="606pt" height="258pt"
 viewBox="0.00 0.00 606.00 258.00" xmlns="http://www.w3.org/2000/svg" xmlns:xlink="http://www.w3.org/1999/xlink">
<g id="graph0" class="graph" transform="scale(1 1) rotate(0) translate(4 254)">
<title>src/processing/processing_subtask_queue_manager.hpp</title>
<!-- Node1 -->
<g id="node1" class="node">
<title>Node1</title>
<g id="a_node1"><a xlink:title=" ">
<polygon fill="#999999" stroke="#666666" points="364,-250 215,-250 215,-220 364,-220 364,-250"/>
<text text-anchor="start" x="223" y="-238" font-family="Helvetica,sans-Serif" font-size="10.00">src/processing/processing</text>
<text text-anchor="middle" x="289.5" y="-227" font-family="Helvetica,sans-Serif" font-size="10.00">_subtask_queue_manager.hpp</text>
</a>
</g>
</g>
<!-- Node2 -->
<g id="node2" class="node">
<title>Node2</title>
<g id="a_node2"><a xlink:href="processing__engine_8cpp.html" target="_top" xlink:title=" ">
<polygon fill="white" stroke="#666666" points="131,-178.5 0,-178.5 0,-148.5 131,-148.5 131,-178.5"/>
<text text-anchor="start" x="8" y="-166.5" font-family="Helvetica,sans-Serif" font-size="10.00">src/processing/processing</text>
<text text-anchor="middle" x="65.5" y="-155.5" font-family="Helvetica,sans-Serif" font-size="10.00">_engine.cpp</text>
</a>
</g>
</g>
<!-- Node1&#45;&gt;Node2 -->
<g id="edge1" class="edge">
<title>Node1&#45;&gt;Node2</title>
<path fill="none" stroke="#63b8ff" d="M232.12,-216.2C194.9,-204.65 147,-189.79 112.12,-178.97"/>
<polygon fill="#63b8ff" stroke="#63b8ff" points="230.78,-219.45 241.37,-219.07 232.86,-212.76 230.78,-219.45"/>
</g>
<!-- Node3 -->
<g id="node3" class="node">
<title>Node3</title>
<g id="a_node3"><a xlink:href="processing__node_8hpp.html" target="_top" xlink:title=" ">
<polygon fill="white" stroke="#666666" points="280,-178.5 149,-178.5 149,-148.5 280,-148.5 280,-178.5"/>
<text text-anchor="start" x="157" y="-166.5" font-family="Helvetica,sans-Serif" font-size="10.00">src/processing/processing</text>
<text text-anchor="middle" x="214.5" y="-155.5" font-family="Helvetica,sans-Serif" font-size="10.00">_node.hpp</text>
</a>
</g>
</g>
<!-- Node1&#45;&gt;Node3 -->
<g id="edge2" class="edge">
<title>Node1&#45;&gt;Node3</title>
<path fill="none" stroke="#63b8ff" d="M265.55,-211.8C253.91,-201.02 240.27,-188.38 230.02,-178.88"/>
<polygon fill="#63b8ff" stroke="#63b8ff" points="263.14,-214.34 272.85,-218.57 267.89,-209.21 263.14,-214.34"/>
</g>
<!-- Node7 -->
<g id="node7" class="node">
<title>Node7</title>
<g id="a_node7"><a xlink:href="processing__subtask__queue__accessor__impl_8hpp.html" target="_top" xlink:title=" ">
<polygon fill="white" stroke="#666666" points="431,-184 298,-184 298,-143 431,-143 431,-184"/>
<text text-anchor="start" x="306" y="-172" font-family="Helvetica,sans-Serif" font-size="10.00">src/processing/processing</text>
<text text-anchor="start" x="306" y="-161" font-family="Helvetica,sans-Serif" font-size="10.00">_subtask_queue_accessor</text>
<text text-anchor="middle" x="364.5" y="-150" font-family="Helvetica,sans-Serif" font-size="10.00">_impl.hpp</text>
</a>
</g>
</g>
<!-- Node1&#45;&gt;Node7 -->
<g id="edge6" class="edge">
<title>Node1&#45;&gt;Node7</title>
<path fill="none" stroke="#63b8ff" d="M313.32,-211.93C322.84,-203.1 333.73,-193.01 343.01,-184.42"/>
<polygon fill="#63b8ff" stroke="#63b8ff" points="311.11,-209.21 306.15,-218.57 315.86,-214.34 311.11,-209.21"/>
</g>
<!-- Node9 -->
<g id="node9" class="node">
<title>Node9</title>
<g id="a_node9"><a xlink:href="processing__subtask__queue__manager_8cpp.html" target="_top" xlink:title=" ">
<polygon fill="white" stroke="#666666" points="598,-178.5 449,-178.5 449,-148.5 598,-148.5 598,-178.5"/>
<text text-anchor="start" x="457" y="-166.5" font-family="Helvetica,sans-Serif" font-size="10.00">src/processing/processing</text>
<text text-anchor="middle" x="523.5" y="-155.5" font-family="Helvetica,sans-Serif" font-size="10.00">_subtask_queue_manager.cpp</text>
</a>
</g>
</g>
<!-- Node1&#45;&gt;Node9 -->
<g id="edge9" class="edge">
<title>Node1&#45;&gt;Node9</title>
<path fill="none" stroke="#63b8ff" d="M349.19,-216.27C388.11,-204.71 438.28,-189.81 474.79,-178.97"/>
<polygon fill="#63b8ff" stroke="#63b8ff" points="348.31,-212.88 339.72,-219.08 350.3,-219.59 348.31,-212.88"/>
</g>
<!-- Node4 -->
<g id="node4" class="node">
<title>Node4</title>
<g id="a_node4"><a xlink:href="processing__node_8cpp.html" target="_top" xlink:title=" ">
<polygon fill="white" stroke="#666666" points="354,-101.5 223,-101.5 223,-71.5 354,-71.5 354,-101.5"/>
<text text-anchor="start" x="231" y="-89.5" font-family="Helvetica,sans-Serif" font-size="10.00">src/processing/processing</text>
<text text-anchor="middle" x="288.5" y="-78.5" font-family="Helvetica,sans-Serif" font-size="10.00">_node.cpp</text>
</a>
</g>
</g>
<!-- Node3&#45;&gt;Node4 -->
<g id="edge3" class="edge">
<title>Node3&#45;&gt;Node4</title>
<path fill="none" stroke="#63b8ff" d="M236.71,-139.99C248.9,-127.64 263.64,-112.7 274.28,-101.92"/>
<polygon fill="#63b8ff" stroke="#63b8ff" points="234.36,-137.39 229.83,-146.96 239.35,-142.3 234.36,-137.39"/>
</g>
<!-- Node5 -->
<g id="node5" class="node">
<title>Node5</title>
<g id="a_node5"><a xlink:href="processing__service_8hpp.html" target="_top" xlink:title=" ">
<polygon fill="white" stroke="#666666" points="205,-101.5 74,-101.5 74,-71.5 205,-71.5 205,-101.5"/>
<text text-anchor="start" x="82" y="-89.5" font-family="Helvetica,sans-Serif" font-size="10.00">src/processing/processing</text>
<text text-anchor="middle" x="139.5" y="-78.5" font-family="Helvetica,sans-Serif" font-size="10.00">_service.hpp</text>
</a>
</g>
</g>
<!-- Node3&#45;&gt;Node5 -->
<g id="edge4" class="edge">
<title>Node3&#45;&gt;Node5</title>
<path fill="none" stroke="#63b8ff" d="M191.99,-139.99C179.64,-127.64 164.7,-112.7 153.92,-101.92"/>
<polygon fill="#63b8ff" stroke="#63b8ff" points="189.42,-142.37 198.97,-146.97 194.37,-137.42 189.42,-142.37"/>
</g>
<!-- Node6 -->
<g id="node6" class="node">
<title>Node6</title>
<g id="a_node6"><a xlink:href="processing__service_8cpp.html" target="_top" xlink:title=" ">
<polygon fill="white" stroke="#666666" points="205,-30 74,-30 74,0 205,0 205,-30"/>
<text text-anchor="start" x="82" y="-18" font-family="Helvetica,sans-Serif" font-size="10.00">src/processing/processing</text>
<text text-anchor="middle" x="139.5" y="-7" font-family="Helvetica,sans-Serif" font-size="10.00">_service.cpp</text>
</a>
</g>
</g>
<!-- Node5&#45;&gt;Node6 -->
<g id="edge5" class="edge">
<title>Node5&#45;&gt;Node6</title>
<path fill="none" stroke="#63b8ff" d="M139.5,-59.76C139.5,-49.83 139.5,-38.86 139.5,-30.38"/>
<polygon fill="#63b8ff" stroke="#63b8ff" points="136,-59.59 139.5,-69.59 143,-59.59 136,-59.59"/>
</g>
<!-- Node7&#45;&gt;Node4 -->
<g id="edge7" class="edge">
<title>Node7&#45;&gt;Node4</title>
<path fill="none" stroke="#63b8ff" d="M336.55,-134.92C325.18,-123.7 312.52,-111.21 303.05,-101.86"/>
<polygon fill="#63b8ff" stroke="#63b8ff" points="333.88,-137.2 343.45,-141.73 338.8,-132.22 333.88,-137.2"/>
</g>
<!-- Node8 -->
<g id="node8" class="node">
<title>Node8</title>
<g id="a_node8"><a xlink:href="processing__subtask__queue__accessor__impl_8cpp.html" target="_top" xlink:title=" ">
<polygon fill="white" stroke="#666666" points="505,-107 372,-107 372,-66 505,-66 505,-107"/>
<text text-anchor="start" x="380" y="-95" font-family="Helvetica,sans-Serif" font-size="10.00">src/processing/processing</text>
<text text-anchor="start" x="380" y="-84" font-family="Helvetica,sans-Serif" font-size="10.00">_subtask_queue_accessor</text>
<text text-anchor="middle" x="438.5" y="-73" font-family="Helvetica,sans-Serif" font-size="10.00">_impl.cpp</text>
</a>
</g>
</g>
<!-- Node7&#45;&gt;Node8 -->
<g id="edge8" class="edge">
<title>Node7&#45;&gt;Node8</title>
<path fill="none" stroke="#63b8ff" d="M391.89,-134.74C400.87,-125.64 410.65,-115.72 418.93,-107.33"/>
<polygon fill="#63b8ff" stroke="#63b8ff" points="389.54,-132.14 385.01,-141.72 394.52,-137.06 389.54,-132.14"/>
</g>
</g>
</svg>
