<?xml version="1.0" encoding="UTF-8" standalone="no"?>
<!DOCTYPE svg PUBLIC "-//W3C//DTD SVG 1.1//EN"
 "http://www.w3.org/Graphics/SVG/1.1/DTD/svg11.dtd">
<!-- Generated by graphviz version 7.0.5 (20221223.1930)
 -->
<!-- Title: src/processing/processing_subtask_queue_channel_pubsub.cpp Pages: 1 -->
<svg width="571pt" height="236pt"
 viewBox="0.00 0.00 570.50 236.00" xmlns="http://www.w3.org/2000/svg" xmlns:xlink="http://www.w3.org/1999/xlink">
<g id="graph0" class="graph" transform="scale(1 1) rotate(0) translate(4 232)">
<title>src/processing/processing_subtask_queue_channel_pubsub.cpp</title>
<!-- Node1 -->
<g id="node1" class="node">
<title>Node1</title>
<g id="a_node1"><a xlink:title=" ">
<polygon fill="#999999" stroke="#666666" points="475,-228 344,-228 344,-187 475,-187 475,-228"/>
<text text-anchor="start" x="352" y="-216" font-family="Helvetica,sans-Serif" font-size="10.00">src/processing/processing</text>
<text text-anchor="start" x="352" y="-205" font-family="Helvetica,sans-Serif" font-size="10.00">_subtask_queue_channel</text>
<text text-anchor="middle" x="409.5" y="-194" font-family="Helvetica,sans-Serif" font-size="10.00">_pubsub.cpp</text>
</a>
</g>
</g>
<!-- Node2 -->
<g id="node2" class="node">
<title>Node2</title>
<g id="a_node2"><a xlink:href="processing__subtask__queue__channel__pubsub_8hpp.html" target="_top" xlink:title=" ">
<polygon fill="white" stroke="#666666" points="425.5,-151 283.5,-151 283.5,-121 425.5,-121 425.5,-151"/>
<text text-anchor="start" x="291.5" y="-139" font-family="Helvetica,sans-Serif" font-size="10.00">processing_subtask</text>
<text text-anchor="middle" x="354.5" y="-128" font-family="Helvetica,sans-Serif" font-size="10.00">_queue_channel_pubsub.hpp</text>
</a>
</g>
</g>
<!-- Node1&#45;&gt;Node2 -->
<g id="edge1" class="edge">
<title>Node1&#45;&gt;Node2</title>
<path fill="none" stroke="#63b8ff" d="M393.89,-186.77C387.36,-178.52 379.72,-168.87 372.92,-160.27"/>
<polygon fill="#63b8ff" stroke="#63b8ff" points="375.84,-158.33 366.89,-152.66 370.35,-162.67 375.84,-158.33"/>
</g>
<!-- Node11 -->
<g id="node11" class="node">
<title>Node11</title>
<g id="a_node11"><a xlink:title=" ">
<polygon fill="#e0e0e0" stroke="#999999" points="487.5,-145.5 443.5,-145.5 443.5,-126.5 487.5,-126.5 487.5,-145.5"/>
<text text-anchor="middle" x="465.5" y="-133.5" font-family="Helvetica,sans-Serif" font-size="10.00">thread</text>
</a>
</g>
</g>
<!-- Node1&#45;&gt;Node11 -->
<g id="edge10" class="edge">
<title>Node1&#45;&gt;Node11</title>
<path fill="none" stroke="#63b8ff" d="M425.4,-186.77C433.55,-176.66 443.39,-164.44 451.28,-154.64"/>
<polygon fill="#63b8ff" stroke="#63b8ff" points="453.89,-156.98 457.44,-147 448.44,-152.59 453.89,-156.98"/>
</g>
<!-- Node3 -->
<g id="node3" class="node">
<title>Node3</title>
<g id="a_node3"><a xlink:href="processing__subtask__queue__channel_8hpp.html" target="_top" xlink:title=" ">
<polygon fill="white" stroke="#666666" points="286,-85 141,-85 141,-55 286,-55 286,-85"/>
<text text-anchor="start" x="149" y="-73" font-family="Helvetica,sans-Serif" font-size="10.00">processing/processing</text>
<text text-anchor="middle" x="213.5" y="-62" font-family="Helvetica,sans-Serif" font-size="10.00">_subtask_queue_channel.hpp</text>
</a>
</g>
</g>
<!-- Node2&#45;&gt;Node3 -->
<g id="edge2" class="edge">
<title>Node2&#45;&gt;Node3</title>
<path fill="none" stroke="#63b8ff" d="M322.86,-120.64C302.9,-111.58 276.9,-99.78 255.26,-89.96"/>
<polygon fill="#63b8ff" stroke="#63b8ff" points="256.97,-86.89 246.42,-85.94 254.08,-93.26 256.97,-86.89"/>
</g>
<!-- Node7 -->
<g id="node7" class="node">
<title>Node7</title>
<g id="a_node7"><a xlink:title=" ">
<polygon fill="#e0e0e0" stroke="#999999" points="405,-85 304,-85 304,-55 405,-55 405,-85"/>
<text text-anchor="start" x="312" y="-73" font-family="Helvetica,sans-Serif" font-size="10.00">ipfs_pubsub/gossip</text>
<text text-anchor="middle" x="354.5" y="-62" font-family="Helvetica,sans-Serif" font-size="10.00">_pubsub_topic.hpp</text>
</a>
</g>
</g>
<!-- Node2&#45;&gt;Node7 -->
<g id="edge6" class="edge">
<title>Node2&#45;&gt;Node7</title>
<path fill="none" stroke="#63b8ff" d="M354.5,-120.8C354.5,-113.67 354.5,-104.82 354.5,-96.56"/>
<polygon fill="#63b8ff" stroke="#63b8ff" points="358,-96.68 354.5,-86.68 351,-96.68 358,-96.68"/>
</g>
<!-- Node8 -->
<g id="node8" class="node">
<title>Node8</title>
<g id="a_node8"><a xlink:href="logger_8hpp.html" target="_top" xlink:title=" ">
<polygon fill="white" stroke="#666666" points="508,-79.5 423,-79.5 423,-60.5 508,-60.5 508,-79.5"/>
<text text-anchor="middle" x="465.5" y="-67.5" font-family="Helvetica,sans-Serif" font-size="10.00">base/logger.hpp</text>
</a>
</g>
</g>
<!-- Node2&#45;&gt;Node8 -->
<g id="edge7" class="edge">
<title>Node2&#45;&gt;Node8</title>
<path fill="none" stroke="#63b8ff" d="M379.41,-120.64C397.47,-110.22 421.82,-96.19 440.01,-85.7"/>
<polygon fill="#63b8ff" stroke="#63b8ff" points="441.69,-88.77 448.6,-80.74 438.19,-82.7 441.69,-88.77"/>
</g>
<!-- Node4 -->
<g id="node4" class="node">
<title>Node4</title>
<g id="a_node4"><a xlink:title=" ">
<polygon fill="#e0e0e0" stroke="#999999" points="175,-19 0,-19 0,0 175,0 175,-19"/>
<text text-anchor="middle" x="87.5" y="-7" font-family="Helvetica,sans-Serif" font-size="10.00">processing/proto/SGProcessing.pb.h</text>
</a>
</g>
</g>
<!-- Node3&#45;&gt;Node4 -->
<g id="edge3" class="edge">
<title>Node3&#45;&gt;Node4</title>
<path fill="none" stroke="#63b8ff" d="M182.35,-54.54C162.31,-45.23 136.42,-33.22 116.76,-24.09"/>
<polygon fill="#63b8ff" stroke="#63b8ff" points="118.47,-21.02 107.93,-19.98 115.52,-27.37 118.47,-21.02"/>
</g>
<!-- Node5 -->
<g id="node5" class="node">
<title>Node5</title>
<g id="a_node5"><a xlink:title=" ">
<polygon fill="#e0e0e0" stroke="#999999" points="234,-19 193,-19 193,0 234,0 234,-19"/>
<text text-anchor="middle" x="213.5" y="-7" font-family="Helvetica,sans-Serif" font-size="10.00">string</text>
</a>
</g>
</g>
<!-- Node3&#45;&gt;Node5 -->
<g id="edge4" class="edge">
<title>Node3&#45;&gt;Node5</title>
<path fill="none" stroke="#63b8ff" d="M213.5,-54.54C213.5,-47.34 213.5,-38.53 213.5,-30.68"/>
<polygon fill="#63b8ff" stroke="#63b8ff" points="217,-30.69 213.5,-20.69 210,-30.69 217,-30.69"/>
</g>
<!-- Node6 -->
<g id="node6" class="node">
<title>Node6</title>
<g id="a_node6"><a xlink:title=" ">
<polygon fill="#e0e0e0" stroke="#999999" points="303,-19 252,-19 252,0 303,0 303,-19"/>
<text text-anchor="middle" x="277.5" y="-7" font-family="Helvetica,sans-Serif" font-size="10.00">memory</text>
</a>
</g>
</g>
<!-- Node3&#45;&gt;Node6 -->
<g id="edge5" class="edge">
<title>Node3&#45;&gt;Node6</title>
<path fill="none" stroke="#63b8ff" d="M229.32,-54.54C238.52,-46.13 250.14,-35.51 259.67,-26.8"/>
<polygon fill="#63b8ff" stroke="#63b8ff" points="261.87,-29.53 266.89,-20.2 257.15,-24.36 261.87,-29.53"/>
</g>
<!-- Node9 -->
<g id="node9" class="node">
<title>Node9</title>
<g id="a_node9"><a xlink:title=" ">
<polygon fill="#e0e0e0" stroke="#999999" points="460,-19 371,-19 371,0 460,0 460,-19"/>
<text text-anchor="middle" x="415.5" y="-7" font-family="Helvetica,sans-Serif" font-size="10.00">spdlog/fmt/ostr.h</text>
</a>
</g>
</g>
<!-- Node8&#45;&gt;Node9 -->
<g id="edge8" class="edge">
<title>Node8&#45;&gt;Node9</title>
<path fill="none" stroke="#63b8ff" d="M458.12,-60.37C450.81,-51.81 439.41,-38.47 430.24,-27.74"/>
<polygon fill="#63b8ff" stroke="#63b8ff" points="433.05,-25.65 423.89,-20.32 427.73,-30.19 433.05,-25.65"/>
</g>
<!-- Node10 -->
<g id="node10" class="node">
<title>Node10</title>
<g id="a_node10"><a xlink:title=" ">
<polygon fill="#e0e0e0" stroke="#999999" points="562.5,-19 478.5,-19 478.5,0 562.5,0 562.5,-19"/>
<text text-anchor="middle" x="520.5" y="-7" font-family="Helvetica,sans-Serif" font-size="10.00">spdlog/spdlog.h</text>
</a>
</g>
</g>
<!-- Node8&#45;&gt;Node10 -->
<g id="edge9" class="edge">
<title>Node8&#45;&gt;Node10</title>
<path fill="none" stroke="#63b8ff" d="M473.62,-60.37C481.74,-51.73 494.46,-38.2 504.6,-27.42"/>
<polygon fill="#63b8ff" stroke="#63b8ff" points="507.01,-29.95 511.31,-20.27 501.91,-25.16 507.01,-29.95"/>
</g>
</g>
</svg>
