<?xml version="1.0" encoding="UTF-8" standalone="no"?>
<!DOCTYPE svg PUBLIC "-//W3C//DTD SVG 1.1//EN"
 "http://www.w3.org/Graphics/SVG/1.1/DTD/svg11.dtd">
<!-- Generated by graphviz version 7.0.5 (20221223.1930)
 -->
<!-- Title: src/verification/production/types/production_block_header.hpp Pages: 1 -->
<!--zoomable 599 -->
<svg id="main" version="1.1" xmlns="http://www.w3.org/2000/svg" xmlns:xlink="http://www.w3.org/1999/xlink" xml:space="preserve" onload="init(evt)">
<style type="text/css"><![CDATA[
.edge:hover path { stroke: red; }
.edge:hover polygon { stroke: red; fill: red; }
]]></style>
<script type="text/javascript"><![CDATA[
var edges = document.getElementsByTagName('g');
if (edges && edges.length) {
  for (var i=0;i<edges.length;i++) {
    if (edges[i].id.substr(0,4)=='edge') {
      edges[i].setAttribute('class','edge');
    }
  }
}
]]></script>
        <defs>
                <circle id="rim" cx="0" cy="0" r="7"/>
                <circle id="rim2" cx="0" cy="0" r="3.5"/>
                <g id="zoomPlus">
                        <use xlink:href="#rim" fill="#404040">
                                <set attributeName="fill" to="#808080" begin="zoomplus.mouseover" end="zoomplus.mouseout"/>
                        </use>
                        <path d="M-4,0h8M0,-4v8" fill="none" stroke="white" stroke-width="1.5" pointer-events="none"/>
                </g>
                <g id="zoomMin">
                        <use xlink:href="#rim" fill="#404040">
                                <set attributeName="fill" to="#808080" begin="zoomminus.mouseover" end="zoomminus.mouseout"/>
                        </use>
                        <path d="M-4,0h8" fill="none" stroke="white" stroke-width="1.5" pointer-events="none"/>
                </g>
                <g id="dirArrow">
                        <path fill="none" stroke="white" stroke-width="1.5" d="M0,-3.0v7 M-2.5,-0.5L0,-3.0L2.5,-0.5"/>
                </g>
               <g id="resetDef">
                       <use xlink:href="#rim2" fill="#404040">
                               <set attributeName="fill" to="#808080" begin="reset.mouseover" end="reset.mouseout"/>
                       </use>
               </g>
        </defs>

<script type="text/javascript">
var viewWidth = 889;
var viewHeight = 599;
var sectionId = 'dynsection-0';
</script>
<script xlink:href="svgpan.js"/>
<svg id="graph" class="graph">
<g id="viewport">
<title>src/verification/production/types/production_block_header.hpp</title>
<!-- Node1 -->
<g id="node1" class="node">
<title>Node1</title>
<g id="a_node1"><a xlink:title=" ">
<polygon fill="#999999" stroke="#666666" points="438,-591 310,-591 310,-550 438,-550 438,-591"/>
<text text-anchor="start" x="318" y="-579" font-family="Helvetica,sans-Serif" font-size="10.00">src/verification/production</text>
<text text-anchor="start" x="318" y="-568" font-family="Helvetica,sans-Serif" font-size="10.00">/types/production_block</text>
<text text-anchor="middle" x="374" y="-557" font-family="Helvetica,sans-Serif" font-size="10.00">_header.hpp</text>
</a>
</g>
</g>
<!-- Node2 -->
<g id="node2" class="node">
<title>Node2</title>
<g id="a_node2"><a xlink:href="src_2verification_2production_2common_8hpp.html" target="_top" xlink:title=" ">
<polygon fill="white" stroke="#666666" points="259.5,-338 148.5,-338 148.5,-308 259.5,-308 259.5,-338"/>
<text text-anchor="start" x="156.5" y="-326" font-family="Helvetica,sans-Serif" font-size="10.00">verification/production</text>
<text text-anchor="middle" x="204" y="-315" font-family="Helvetica,sans-Serif" font-size="10.00">/common.hpp</text>
</a>
</g>
</g>
<!-- Node1&#45;&gt;Node2 -->
<g id="edge1" class="edge">
<title>Node1&#45;&gt;Node2</title>
<path fill="none" stroke="#63b8ff" d="M322.25,-549.59C305.01,-540.84 286.92,-529.08 274,-514 232.11,-465.12 214.33,-388.95 207.6,-349.54"/>
<polygon fill="#63b8ff" stroke="#63b8ff" points="211.09,-349.17 206.06,-339.84 204.17,-350.26 211.09,-349.17"/>
</g>
<!-- Node6 -->
<g id="node6" class="node">
<title>Node6</title>
<g id="a_node6"><a xlink:href="sr25519__types_8hpp.html" target="_top" xlink:title=" ">
<polygon fill="white" stroke="#666666" points="274.5,-266.5 147.5,-266.5 147.5,-247.5 274.5,-247.5 274.5,-266.5"/>
<text text-anchor="middle" x="211" y="-254.5" font-family="Helvetica,sans-Serif" font-size="10.00">crypto/sr25519_types.hpp</text>
</a>
</g>
</g>
<!-- Node1&#45;&gt;Node6 -->
<g id="edge22" class="edge">
<title>Node1&#45;&gt;Node6</title>
<path fill="none" stroke="#63b8ff" d="M348.66,-549.51C323.29,-527.06 288,-488.08 288,-445 288,-445 288,-445 288,-382.5 288,-348.33 286.99,-337.05 269,-308 260.47,-294.23 246.91,-282.23 235.05,-273.45"/>
<polygon fill="#63b8ff" stroke="#63b8ff" points="237.08,-270.59 226.88,-267.72 233.06,-276.33 237.08,-270.59"/>
</g>
<!-- Node20 -->
<g id="node20" class="node">
<title>Node20</title>
<g id="a_node20"><a xlink:href="src_2primitives_2common_8hpp.html" target="_top" xlink:title=" ">
<polygon fill="white" stroke="#666666" points="549.5,-332.5 432.5,-332.5 432.5,-313.5 549.5,-313.5 549.5,-332.5"/>
<text text-anchor="middle" x="491" y="-320.5" font-family="Helvetica,sans-Serif" font-size="10.00">primitives/common.hpp</text>
</a>
</g>
</g>
<!-- Node1&#45;&gt;Node20 -->
<g id="edge23" class="edge">
<title>Node1&#45;&gt;Node20</title>
<path fill="none" stroke="#63b8ff" d="M383.38,-549.82C405.43,-503.56 460.33,-388.36 482,-342.89"/>
<polygon fill="#63b8ff" stroke="#63b8ff" points="485.07,-344.59 486.21,-334.06 478.75,-341.58 485.07,-344.59"/>
</g>
<!-- Node23 -->
<g id="node23" class="node">
<title>Node23</title>
<g id="a_node23"><a xlink:href="digest_8hpp.html" target="_top" xlink:title=" ">
<polygon fill="white" stroke="#666666" points="725,-514 619,-514 619,-495 725,-495 725,-514"/>
<text text-anchor="middle" x="672" y="-502" font-family="Helvetica,sans-Serif" font-size="10.00">primitives/digest.hpp</text>
</a>
</g>
</g>
<!-- Node1&#45;&gt;Node23 -->
<g id="edge28" class="edge">
<title>Node1&#45;&gt;Node23</title>
<path fill="none" stroke="#63b8ff" d="M438.29,-555.69C492.38,-544.08 568.76,-527.67 619.29,-516.82"/>
<polygon fill="#63b8ff" stroke="#63b8ff" points="619.77,-520.3 628.81,-514.78 618.3,-513.45 619.77,-520.3"/>
</g>
<!-- Node3 -->
<g id="node3" class="node">
<title>Node3</title>
<g id="a_node3"><a xlink:title=" ">
<polygon fill="#e0e0e0" stroke="#999999" points="425,-266.5 379,-266.5 379,-247.5 425,-247.5 425,-266.5"/>
<text text-anchor="middle" x="402" y="-254.5" font-family="Helvetica,sans-Serif" font-size="10.00">cstdint</text>
</a>
</g>
</g>
<!-- Node2&#45;&gt;Node3 -->
<g id="edge2" class="edge">
<title>Node2&#45;&gt;Node3</title>
<path fill="none" stroke="#63b8ff" d="M248.44,-307.64C284.54,-295.97 334.73,-279.74 367.77,-269.07"/>
<polygon fill="#63b8ff" stroke="#63b8ff" points="368.81,-272.41 377.24,-266 366.65,-265.75 368.81,-272.41"/>
</g>
<!-- Node4 -->
<g id="node4" class="node">
<title>Node4</title>
<g id="a_node4"><a xlink:href="clock_8hpp.html" target="_top" xlink:title=" ">
<polygon fill="white" stroke="#666666" points="87,-266.5 3,-266.5 3,-247.5 87,-247.5 87,-266.5"/>
<text text-anchor="middle" x="45" y="-254.5" font-family="Helvetica,sans-Serif" font-size="10.00">clock/clock.hpp</text>
</a>
</g>
</g>
<!-- Node2&#45;&gt;Node4 -->
<g id="edge3" class="edge">
<title>Node2&#45;&gt;Node4</title>
<path fill="none" stroke="#63b8ff" d="M168.32,-307.64C141.24,-296.74 104.3,-281.87 77.92,-271.25"/>
<polygon fill="#63b8ff" stroke="#63b8ff" points="79.31,-268.04 68.73,-267.55 76.7,-274.53 79.31,-268.04"/>
</g>
<!-- Node2&#45;&gt;Node6 -->
<g id="edge5" class="edge">
<title>Node2&#45;&gt;Node6</title>
<path fill="none" stroke="#63b8ff" d="M205.55,-307.8C206.51,-299.09 207.74,-287.81 208.79,-278.18"/>
<polygon fill="#63b8ff" stroke="#63b8ff" points="212.26,-278.67 209.87,-268.35 205.3,-277.91 212.26,-278.67"/>
</g>
<!-- Node5 -->
<g id="node5" class="node">
<title>Node5</title>
<g id="a_node5"><a xlink:title=" ">
<polygon fill="#e0e0e0" stroke="#999999" points="46,-206 0,-206 0,-187 46,-187 46,-206"/>
<text text-anchor="middle" x="23" y="-194" font-family="Helvetica,sans-Serif" font-size="10.00">chrono</text>
</a>
</g>
</g>
<!-- Node4&#45;&gt;Node5 -->
<g id="edge4" class="edge">
<title>Node4&#45;&gt;Node5</title>
<path fill="none" stroke="#63b8ff" d="M41.75,-247.37C38.73,-239.33 34.12,-227.07 30.23,-216.72"/>
<polygon fill="#63b8ff" stroke="#63b8ff" points="33.59,-215.71 26.79,-207.58 27.04,-218.18 33.59,-215.71"/>
</g>
<!-- Node7 -->
<g id="node7" class="node">
<title>Node7</title>
<g id="a_node7"><a xlink:title=" ">
<polygon fill="#e0e0e0" stroke="#999999" points="123.5,-206 64.5,-206 64.5,-187 123.5,-187 123.5,-206"/>
<text text-anchor="middle" x="94" y="-194" font-family="Helvetica,sans-Serif" font-size="10.00">sr25519.h</text>
</a>
</g>
</g>
<!-- Node6&#45;&gt;Node7 -->
<g id="edge6" class="edge">
<title>Node6&#45;&gt;Node7</title>
<path fill="none" stroke="#63b8ff" d="M193.23,-247.12C174.33,-237.67 144.18,-222.59 122.06,-211.53"/>
<polygon fill="#63b8ff" stroke="#63b8ff" points="123.8,-208.49 113.29,-207.15 120.67,-214.75 123.8,-208.49"/>
</g>
<!-- Node8 -->
<g id="node8" class="node">
<title>Node8</title>
<g id="a_node8"><a xlink:title=" ">
<polygon fill="#e0e0e0" stroke="#999999" points="284,-151 180,-151 180,-121 284,-121 284,-151"/>
<text text-anchor="start" x="188" y="-139" font-family="Helvetica,sans-Serif" font-size="10.00">boost/multiprecision</text>
<text text-anchor="middle" x="232" y="-128" font-family="Helvetica,sans-Serif" font-size="10.00">/cpp_int.hpp</text>
</a>
</g>
</g>
<!-- Node6&#45;&gt;Node8 -->
<g id="edge7" class="edge">
<title>Node6&#45;&gt;Node8</title>
<path fill="none" stroke="#63b8ff" d="M212.58,-247.06C215.71,-229.34 222.79,-189.2 227.48,-162.61"/>
<polygon fill="#63b8ff" stroke="#63b8ff" points="230.89,-163.42 229.18,-152.96 224,-162.2 230.89,-163.42"/>
</g>
<!-- Node9 -->
<g id="node9" class="node">
<title>Node9</title>
<g id="a_node9"><a xlink:title=" ">
<polygon fill="#e0e0e0" stroke="#999999" points="339.5,-79.5 286.5,-79.5 286.5,-60.5 339.5,-60.5 339.5,-79.5"/>
<text text-anchor="middle" x="313" y="-67.5" font-family="Helvetica,sans-Serif" font-size="10.00">gsl/span</text>
</a>
</g>
</g>
<!-- Node6&#45;&gt;Node9 -->
<g id="edge8" class="edge">
<title>Node6&#45;&gt;Node9</title>
<path fill="none" stroke="#63b8ff" d="M203.69,-247.27C185.53,-224.47 141.9,-162.1 171,-121 194.37,-87.99 241.38,-76.62 274.9,-72.79"/>
<polygon fill="#63b8ff" stroke="#63b8ff" points="275.01,-76.29 284.63,-71.87 274.35,-69.32 275.01,-76.29"/>
</g>
<!-- Node10 -->
<g id="node10" class="node">
<title>Node10</title>
<g id="a_node10"><a xlink:href="blob_8hpp.html" target="_top" xlink:title=" ">
<polygon fill="white" stroke="#666666" points="522.5,-206 445.5,-206 445.5,-187 522.5,-187 522.5,-206"/>
<text text-anchor="middle" x="484" y="-194" font-family="Helvetica,sans-Serif" font-size="10.00">base/blob.hpp</text>
</a>
</g>
</g>
<!-- Node6&#45;&gt;Node10 -->
<g id="edge9" class="edge">
<title>Node6&#45;&gt;Node10</title>
<path fill="none" stroke="#63b8ff" d="M252.76,-247.05C301.6,-236.58 382.38,-219.28 434.38,-208.13"/>
<polygon fill="#63b8ff" stroke="#63b8ff" points="434.81,-211.62 443.86,-206.1 433.35,-204.78 434.81,-211.62"/>
</g>
<!-- Node19 -->
<g id="node19" class="node">
<title>Node19</title>
<g id="a_node19"><a xlink:href="mp__utils_8hpp.html" target="_top" xlink:title=" ">
<polygon fill="white" stroke="#666666" points="334.5,-206 239.5,-206 239.5,-187 334.5,-187 334.5,-206"/>
<text text-anchor="middle" x="287" y="-194" font-family="Helvetica,sans-Serif" font-size="10.00">base/mp_utils.hpp</text>
</a>
</g>
</g>
<!-- Node6&#45;&gt;Node19 -->
<g id="edge19" class="edge">
<title>Node6&#45;&gt;Node19</title>
<path fill="none" stroke="#63b8ff" d="M222.54,-247.12C234.15,-238.18 252.29,-224.22 266.38,-213.37"/>
<polygon fill="#63b8ff" stroke="#63b8ff" points="268.36,-216.26 274.15,-207.39 264.09,-210.72 268.36,-216.26"/>
</g>
<!-- Node11 -->
<g id="node11" class="node">
<title>Node11</title>
<g id="a_node11"><a xlink:title=" ">
<polygon fill="#e0e0e0" stroke="#999999" points="554,-145.5 516,-145.5 516,-126.5 554,-126.5 554,-145.5"/>
<text text-anchor="middle" x="535" y="-133.5" font-family="Helvetica,sans-Serif" font-size="10.00">array</text>
</a>
</g>
</g>
<!-- Node10&#45;&gt;Node11 -->
<g id="edge10" class="edge">
<title>Node10&#45;&gt;Node11</title>
<path fill="none" stroke="#63b8ff" d="M491.53,-186.87C498.98,-178.31 510.61,-164.97 519.97,-154.24"/>
<polygon fill="#63b8ff" stroke="#63b8ff" points="522.52,-156.65 526.45,-146.81 517.24,-152.05 522.52,-156.65"/>
</g>
<!-- Node12 -->
<g id="node12" class="node">
<title>Node12</title>
<g id="a_node12"><a xlink:title=" ">
<polygon fill="#e0e0e0" stroke="#999999" points="700,-145.5 572,-145.5 572,-126.5 700,-126.5 700,-145.5"/>
<text text-anchor="middle" x="636" y="-133.5" font-family="Helvetica,sans-Serif" font-size="10.00">boost/functional/hash.hpp</text>
</a>
</g>
</g>
<!-- Node10&#45;&gt;Node12 -->
<g id="edge11" class="edge">
<title>Node10&#45;&gt;Node12</title>
<path fill="none" stroke="#63b8ff" d="M507.09,-186.62C532.42,-176.87 573.32,-161.12 602.25,-149.99"/>
<polygon fill="#63b8ff" stroke="#63b8ff" points="603.21,-153.37 611.28,-146.51 600.69,-146.84 603.21,-153.37"/>
</g>
<!-- Node13 -->
<g id="node13" class="node">
<title>Node13</title>
<g id="a_node13"><a xlink:href="hexutil_8hpp.html" target="_top" xlink:title=" ">
<polygon fill="white" stroke="#666666" points="426,-145.5 340,-145.5 340,-126.5 426,-126.5 426,-145.5"/>
<text text-anchor="middle" x="383" y="-133.5" font-family="Helvetica,sans-Serif" font-size="10.00">base/hexutil.hpp</text>
</a>
</g>
</g>
<!-- Node10&#45;&gt;Node13 -->
<g id="edge12" class="edge">
<title>Node10&#45;&gt;Node13</title>
<path fill="none" stroke="#63b8ff" d="M468.66,-186.62C452.64,-177.34 427.26,-162.63 408.27,-151.64"/>
<polygon fill="#63b8ff" stroke="#63b8ff" points="410.2,-148.71 399.79,-146.73 406.69,-154.77 410.2,-148.71"/>
</g>
<!-- Node18 -->
<g id="node18" class="node">
<title>Node18</title>
<g id="a_node18"><a xlink:title=" ">
<polygon fill="#e0e0e0" stroke="#999999" points="498,-145.5 444,-145.5 444,-126.5 498,-126.5 498,-145.5"/>
<text text-anchor="middle" x="471" y="-133.5" font-family="Helvetica,sans-Serif" font-size="10.00">iostream</text>
</a>
</g>
</g>
<!-- Node10&#45;&gt;Node18 -->
<g id="edge18" class="edge">
<title>Node10&#45;&gt;Node18</title>
<path fill="none" stroke="#63b8ff" d="M482.08,-186.87C480.33,-179 477.69,-167.1 475.42,-156.89"/>
<polygon fill="#63b8ff" stroke="#63b8ff" points="478.84,-156.15 473.25,-147.14 472.01,-157.67 478.84,-156.15"/>
</g>
<!-- Node13&#45;&gt;Node9 -->
<g id="edge15" class="edge">
<title>Node13&#45;&gt;Node9</title>
<path fill="none" stroke="#63b8ff" d="M373.27,-126.1C362.4,-116.17 344.58,-99.87 331.13,-87.57"/>
<polygon fill="#63b8ff" stroke="#63b8ff" points="333.51,-85.01 323.77,-80.84 328.79,-90.18 333.51,-85.01"/>
</g>
<!-- Node14 -->
<g id="node14" class="node">
<title>Node14</title>
<g id="a_node14"><a xlink:title=" ">
<polygon fill="#e0e0e0" stroke="#999999" points="432,-79.5 366,-79.5 366,-60.5 432,-60.5 432,-79.5"/>
<text text-anchor="middle" x="399" y="-67.5" font-family="Helvetica,sans-Serif" font-size="10.00">string_view</text>
</a>
</g>
</g>
<!-- Node13&#45;&gt;Node14 -->
<g id="edge13" class="edge">
<title>Node13&#45;&gt;Node14</title>
<path fill="none" stroke="#63b8ff" d="M385.22,-126.1C387.49,-117.03 391.09,-102.64 394.04,-90.85"/>
<polygon fill="#63b8ff" stroke="#63b8ff" points="397.4,-91.84 396.43,-81.29 390.61,-90.14 397.4,-91.84"/>
</g>
<!-- Node15 -->
<g id="node15" class="node">
<title>Node15</title>
<g id="a_node15"><a xlink:title=" ">
<polygon fill="#e0e0e0" stroke="#999999" points="498,-79.5 454,-79.5 454,-60.5 498,-60.5 498,-79.5"/>
<text text-anchor="middle" x="476" y="-67.5" font-family="Helvetica,sans-Serif" font-size="10.00">vector</text>
</a>
</g>
</g>
<!-- Node13&#45;&gt;Node15 -->
<g id="edge14" class="edge">
<title>Node13&#45;&gt;Node15</title>
<path fill="none" stroke="#63b8ff" d="M395.93,-126.1C410.85,-115.83 435.65,-98.77 453.7,-86.34"/>
<polygon fill="#63b8ff" stroke="#63b8ff" points="455.68,-89.23 461.93,-80.68 451.71,-83.47 455.68,-89.23"/>
</g>
<!-- Node16 -->
<g id="node16" class="node">
<title>Node16</title>
<g id="a_node16"><a xlink:href="outcome_8hpp.html" target="_top" xlink:title=" ">
<polygon fill="white" stroke="#666666" points="631.5,-79.5 518.5,-79.5 518.5,-60.5 631.5,-60.5 631.5,-79.5"/>
<text text-anchor="middle" x="575" y="-67.5" font-family="Helvetica,sans-Serif" font-size="10.00">outcome/outcome.hpp</text>
</a>
</g>
</g>
<!-- Node13&#45;&gt;Node16 -->
<g id="edge16" class="edge">
<title>Node13&#45;&gt;Node16</title>
<path fill="none" stroke="#63b8ff" d="M409.7,-126.1C442.99,-115 500.09,-95.97 537.7,-83.43"/>
<polygon fill="#63b8ff" stroke="#63b8ff" points="538.41,-86.89 546.79,-80.4 536.19,-80.25 538.41,-86.89"/>
</g>
<!-- Node17 -->
<g id="node17" class="node">
<title>Node17</title>
<g id="a_node17"><a xlink:title=" ">
<polygon fill="#e0e0e0" stroke="#999999" points="645.5,-19 504.5,-19 504.5,0 645.5,0 645.5,-19"/>
<text text-anchor="middle" x="575" y="-7" font-family="Helvetica,sans-Serif" font-size="10.00">libp2p/outcome/outcome.hpp</text>
</a>
</g>
</g>
<!-- Node16&#45;&gt;Node17 -->
<g id="edge17" class="edge">
<title>Node16&#45;&gt;Node17</title>
<path fill="none" stroke="#63b8ff" d="M575,-60.37C575,-52.5 575,-40.6 575,-30.39"/>
<polygon fill="#63b8ff" stroke="#63b8ff" points="578.5,-30.68 575,-20.68 571.5,-30.68 578.5,-30.68"/>
</g>
<!-- Node19&#45;&gt;Node8 -->
<g id="edge20" class="edge">
<title>Node19&#45;&gt;Node8</title>
<path fill="none" stroke="#63b8ff" d="M278.88,-186.87C272.11,-179.67 262.15,-169.07 253.15,-159.49"/>
<polygon fill="#63b8ff" stroke="#63b8ff" points="255.71,-157.11 246.31,-152.22 250.61,-161.9 255.71,-157.11"/>
</g>
<!-- Node19&#45;&gt;Node9 -->
<g id="edge21" class="edge">
<title>Node19&#45;&gt;Node9</title>
<path fill="none" stroke="#63b8ff" d="M288.87,-186.55C293.03,-166.63 303.13,-118.24 308.86,-90.82"/>
<polygon fill="#63b8ff" stroke="#63b8ff" points="312.22,-91.86 310.84,-81.35 305.37,-90.43 312.22,-91.86"/>
</g>
<!-- Node20&#45;&gt;Node3 -->
<g id="edge24" class="edge">
<title>Node20&#45;&gt;Node3</title>
<path fill="none" stroke="#63b8ff" d="M478.62,-313.1C464.41,-302.88 440.83,-285.93 423.58,-273.52"/>
<polygon fill="#63b8ff" stroke="#63b8ff" points="425.66,-270.7 415.5,-267.71 421.57,-276.39 425.66,-270.7"/>
</g>
<!-- Node21 -->
<g id="node21" class="node">
<title>Node21</title>
<g id="a_node21"><a xlink:title=" ">
<polygon fill="#e0e0e0" stroke="#999999" points="881,-79.5 779,-79.5 779,-60.5 881,-60.5 881,-79.5"/>
<text text-anchor="middle" x="830" y="-67.5" font-family="Helvetica,sans-Serif" font-size="10.00">boost/operators.hpp</text>
</a>
</g>
</g>
<!-- Node20&#45;&gt;Node21 -->
<g id="edge25" class="edge">
<title>Node20&#45;&gt;Node21</title>
<path fill="none" stroke="#63b8ff" d="M527.95,-313.03C595.2,-294.71 737.46,-246.42 811,-151 824.26,-133.8 828.47,-108.78 829.7,-91.32"/>
<polygon fill="#63b8ff" stroke="#63b8ff" points="833.19,-91.57 830.1,-81.44 826.2,-91.29 833.19,-91.57"/>
</g>
<!-- Node22 -->
<g id="node22" class="node">
<title>Node22</title>
<g id="a_node22"><a xlink:href="session__key_8hpp.html" target="_top" xlink:title=" ">
<polygon fill="white" stroke="#666666" points="538.5,-272 443.5,-272 443.5,-242 538.5,-242 538.5,-272"/>
<text text-anchor="start" x="451.5" y="-260" font-family="Helvetica,sans-Serif" font-size="10.00">primitives/session</text>
<text text-anchor="middle" x="491" y="-249" font-family="Helvetica,sans-Serif" font-size="10.00">_key.hpp</text>
</a>
</g>
</g>
<!-- Node20&#45;&gt;Node22 -->
<g id="edge26" class="edge">
<title>Node20&#45;&gt;Node22</title>
<path fill="none" stroke="#63b8ff" d="M491,-313.1C491,-305.41 491,-293.92 491,-283.42"/>
<polygon fill="#63b8ff" stroke="#63b8ff" points="494.5,-283.75 491,-273.75 487.5,-283.75 494.5,-283.75"/>
</g>
<!-- Node22&#45;&gt;Node10 -->
<g id="edge27" class="edge">
<title>Node22&#45;&gt;Node10</title>
<path fill="none" stroke="#63b8ff" d="M489.27,-241.54C488.4,-234.26 487.33,-225.31 486.38,-217.39"/>
<polygon fill="#63b8ff" stroke="#63b8ff" points="489.88,-217.19 485.22,-207.68 482.93,-218.02 489.88,-217.19"/>
</g>
<!-- Node24 -->
<g id="node24" class="node">
<title>Node24</title>
<g id="a_node24"><a xlink:title=" ">
<polygon fill="#e0e0e0" stroke="#999999" points="826.5,-453.5 735.5,-453.5 735.5,-434.5 826.5,-434.5 826.5,-453.5"/>
<text text-anchor="middle" x="781" y="-441.5" font-family="Helvetica,sans-Serif" font-size="10.00">boost/variant.hpp</text>
</a>
</g>
</g>
<!-- Node23&#45;&gt;Node24 -->
<g id="edge29" class="edge">
<title>Node23&#45;&gt;Node24</title>
<path fill="none" stroke="#63b8ff" d="M688.55,-494.62C706,-485.25 733.75,-470.36 754.29,-459.33"/>
<polygon fill="#63b8ff" stroke="#63b8ff" points="755.8,-462.5 762.96,-454.68 752.49,-456.33 755.8,-462.5"/>
</g>
<!-- Node25 -->
<g id="node25" class="node">
<title>Node25</title>
<g id="a_node25"><a xlink:href="buffer_8hpp.html" target="_top" xlink:title=" ">
<polygon fill="white" stroke="#666666" points="801.5,-145.5 718.5,-145.5 718.5,-126.5 801.5,-126.5 801.5,-145.5"/>
<text text-anchor="middle" x="760" y="-133.5" font-family="Helvetica,sans-Serif" font-size="10.00">base/buffer.hpp</text>
</a>
</g>
</g>
<!-- Node23&#45;&gt;Node25 -->
<g id="edge30" class="edge">
<title>Node23&#45;&gt;Node25</title>
<path fill="none" stroke="#63b8ff" d="M725.2,-500.82C760.33,-496.46 805.37,-485.6 836,-459 863.21,-435.37 868,-420.54 868,-384.5 868,-384.5 868,-384.5 868,-256 868,-207.92 819.05,-170.64 787.06,-151.41"/>
<polygon fill="#63b8ff" stroke="#63b8ff" points="789.07,-148.53 778.66,-146.57 785.58,-154.6 789.07,-148.53"/>
</g>
<!-- Node27 -->
<g id="node27" class="node">
<title>Node27</title>
<g id="a_node27"><a xlink:href="unused_8hpp.html" target="_top" xlink:title=" ">
<polygon fill="white" stroke="#666666" points="717,-453.5 627,-453.5 627,-434.5 717,-434.5 717,-453.5"/>
<text text-anchor="middle" x="672" y="-441.5" font-family="Helvetica,sans-Serif" font-size="10.00">base/unused.hpp</text>
</a>
</g>
</g>
<!-- Node23&#45;&gt;Node27 -->
<g id="edge37" class="edge">
<title>Node23&#45;&gt;Node27</title>
<path fill="none" stroke="#63b8ff" d="M672,-494.87C672,-487 672,-475.1 672,-464.89"/>
<polygon fill="#63b8ff" stroke="#63b8ff" points="675.5,-465.18 672,-455.18 668.5,-465.18 675.5,-465.18"/>
</g>
<!-- Node28 -->
<g id="node28" class="node">
<title>Node28</title>
<g id="a_node28"><a xlink:href="scheduled__change_8hpp.html" target="_top" xlink:title=" ">
<polygon fill="white" stroke="#666666" points="609,-459 503,-459 503,-429 609,-429 609,-459"/>
<text text-anchor="start" x="511" y="-447" font-family="Helvetica,sans-Serif" font-size="10.00">primitives/scheduled</text>
<text text-anchor="middle" x="556" y="-436" font-family="Helvetica,sans-Serif" font-size="10.00">_change.hpp</text>
</a>
</g>
</g>
<!-- Node23&#45;&gt;Node28 -->
<g id="edge38" class="edge">
<title>Node23&#45;&gt;Node28</title>
<path fill="none" stroke="#63b8ff" d="M654.38,-494.62C638.62,-486.67 614.97,-474.74 594.8,-464.57"/>
<polygon fill="#63b8ff" stroke="#63b8ff" points="596.49,-461.5 585.98,-460.12 593.34,-467.75 596.49,-461.5"/>
</g>
<!-- Node25&#45;&gt;Node9 -->
<g id="edge35" class="edge">
<title>Node25&#45;&gt;Node9</title>
<path fill="none" stroke="#63b8ff" d="M730.53,-126.02C723.52,-124.13 716.04,-122.32 709,-121 554.42,-92.09 510.97,-117.01 357,-85 354.35,-84.45 351.64,-83.8 348.92,-83.09"/>
<polygon fill="#63b8ff" stroke="#63b8ff" points="349.92,-79.74 339.35,-80.32 347.98,-86.46 349.92,-79.74"/>
</g>
<!-- Node25&#45;&gt;Node14 -->
<g id="edge31" class="edge">
<title>Node25&#45;&gt;Node14</title>
<path fill="none" stroke="#63b8ff" d="M729.96,-126.04C723.11,-124.2 715.84,-122.4 709,-121 592.98,-97.27 560.68,-110.32 445,-85 442.22,-84.39 439.36,-83.7 436.49,-82.95"/>
<polygon fill="#63b8ff" stroke="#63b8ff" points="437.6,-79.62 427.02,-80.28 435.7,-86.36 437.6,-79.62"/>
</g>
<!-- Node25&#45;&gt;Node15 -->
<g id="edge32" class="edge">
<title>Node25&#45;&gt;Node15</title>
<path fill="none" stroke="#63b8ff" d="M729.1,-126.04C722.49,-124.26 715.54,-122.49 709,-121 621.35,-101.08 596.26,-110.25 510,-85 508.66,-84.61 507.29,-84.18 505.92,-83.72"/>
<polygon fill="#63b8ff" stroke="#63b8ff" points="507.54,-80.59 496.94,-80.39 505.1,-87.15 507.54,-80.59"/>
</g>
<!-- Node25&#45;&gt;Node16 -->
<g id="edge36" class="edge">
<title>Node25&#45;&gt;Node16</title>
<path fill="none" stroke="#63b8ff" d="M734.28,-126.1C702.34,-115.05 647.65,-96.13 611.41,-83.6"/>
<polygon fill="#63b8ff" stroke="#63b8ff" points="612.83,-80.38 602.23,-80.42 610.54,-87 612.83,-80.38"/>
</g>
<!-- Node25&#45;&gt;Node21 -->
<g id="edge34" class="edge">
<title>Node25&#45;&gt;Node21</title>
<path fill="none" stroke="#63b8ff" d="M769.73,-126.1C780.6,-116.17 798.42,-99.87 811.87,-87.57"/>
<polygon fill="#63b8ff" stroke="#63b8ff" points="814.21,-90.18 819.23,-80.84 809.49,-85.01 814.21,-90.18"/>
</g>
<!-- Node26 -->
<g id="node26" class="node">
<title>Node26</title>
<g id="a_node26"><a xlink:title=" ">
<polygon fill="#e0e0e0" stroke="#999999" points="761,-85 651,-85 651,-55 761,-55 761,-85"/>
<text text-anchor="start" x="659" y="-73" font-family="Helvetica,sans-Serif" font-size="10.00">boost/container_hash</text>
<text text-anchor="middle" x="706" y="-62" font-family="Helvetica,sans-Serif" font-size="10.00">/hash.hpp</text>
</a>
</g>
</g>
<!-- Node25&#45;&gt;Node26 -->
<g id="edge33" class="edge">
<title>Node25&#45;&gt;Node26</title>
<path fill="none" stroke="#63b8ff" d="M752.49,-126.1C745.45,-117.75 734.62,-104.92 725.18,-93.73"/>
<polygon fill="#63b8ff" stroke="#63b8ff" points="728.11,-91.78 718.99,-86.39 722.76,-96.29 728.11,-91.78"/>
</g>
<!-- Node28&#45;&gt;Node20 -->
<g id="edge43" class="edge">
<title>Node28&#45;&gt;Node20</title>
<path fill="none" stroke="#63b8ff" d="M548.29,-428.88C536.56,-407.41 514.23,-366.52 501.18,-342.64"/>
<polygon fill="#63b8ff" stroke="#63b8ff" points="504.35,-341.14 496.48,-334.04 498.21,-344.49 504.35,-341.14"/>
</g>
<!-- Node29 -->
<g id="node29" class="node">
<title>Node29</title>
<g id="a_node29"><a xlink:href="authority_8hpp.html" target="_top" xlink:title=" ">
<polygon fill="white" stroke="#666666" points="447,-393 331,-393 331,-374 447,-374 447,-393"/>
<text text-anchor="middle" x="389" y="-381" font-family="Helvetica,sans-Serif" font-size="10.00">primitives/authority.hpp</text>
</a>
</g>
</g>
<!-- Node28&#45;&gt;Node29 -->
<g id="edge39" class="edge">
<title>Node28&#45;&gt;Node29</title>
<path fill="none" stroke="#63b8ff" d="M514.72,-428.54C487.17,-418.89 451.29,-406.32 424.92,-397.08"/>
<polygon fill="#63b8ff" stroke="#63b8ff" points="426.28,-393.85 415.68,-393.85 423.96,-400.46 426.28,-393.85"/>
</g>
<!-- Node29&#45;&gt;Node3 -->
<g id="edge40" class="edge">
<title>Node29&#45;&gt;Node3</title>
<path fill="none" stroke="#63b8ff" d="M389.93,-373.55C392.01,-353.72 397.02,-305.68 399.89,-278.19"/>
<polygon fill="#63b8ff" stroke="#63b8ff" points="403.36,-278.69 400.92,-268.38 396.4,-277.96 403.36,-278.69"/>
</g>
<!-- Node29&#45;&gt;Node20 -->
<g id="edge42" class="edge">
<title>Node29&#45;&gt;Node20</title>
<path fill="none" stroke="#63b8ff" d="M404.49,-373.62C420.67,-364.34 446.3,-349.63 465.48,-338.64"/>
<polygon fill="#63b8ff" stroke="#63b8ff" points="467.12,-341.73 474.05,-333.72 463.63,-335.66 467.12,-341.73"/>
</g>
<!-- Node30 -->
<g id="node30" class="node">
<title>Node30</title>
<g id="a_node30"><a xlink:title=" ">
<polygon fill="#e0e0e0" stroke="#999999" points="375.5,-332.5 316.5,-332.5 316.5,-313.5 375.5,-313.5 375.5,-332.5"/>
<text text-anchor="middle" x="346" y="-320.5" font-family="Helvetica,sans-Serif" font-size="10.00">functional</text>
</a>
</g>
</g>
<!-- Node29&#45;&gt;Node30 -->
<g id="edge41" class="edge">
<title>Node29&#45;&gt;Node30</title>
<path fill="none" stroke="#63b8ff" d="M382.66,-373.87C376.49,-365.49 366.96,-352.51 359.15,-341.89"/>
<polygon fill="#63b8ff" stroke="#63b8ff" points="362.01,-339.87 353.27,-333.89 356.37,-344.02 362.01,-339.87"/>
</g>
</g>
</svg>
        <g id="navigator" transform="translate(0 0)" fill="#404254">
                <rect fill="#f2f5e9" fill-opacity="0.5" stroke="#606060" stroke-width=".5" x="0" y="0" width="60" height="60"/>
                <use id="zoomplus" xlink:href="#zoomPlus" x="17" y="9" onmousedown="handleZoom(evt,'in')"/>
                <use id="zoomminus" xlink:href="#zoomMin" x="42" y="9" onmousedown="handleZoom(evt,'out')"/>
                <use id="reset" xlink:href="#resetDef" x="30" y="36" onmousedown="handleReset()"/>
                <g id="arrowUp" xlink:href="#dirArrow" transform="translate(30 24)" onmousedown="handlePan(0,-1)">
                  <use xlink:href="#rim" fill="#404040">
                        <set attributeName="fill" to="#808080" begin="arrowUp.mouseover" end="arrowUp.mouseout"/>
                  </use>
                  <path fill="none" stroke="white" stroke-width="1.5" d="M0,-3.0v7 M-2.5,-0.5L0,-3.0L2.5,-0.5"/>
                </g>
                <g id="arrowRight" xlink:href="#dirArrow" transform="rotate(90) translate(36 -43)" onmousedown="handlePan(1,0)">
                  <use xlink:href="#rim" fill="#404040">
                        <set attributeName="fill" to="#808080" begin="arrowRight.mouseover" end="arrowRight.mouseout"/>
                  </use>
                  <path fill="none" stroke="white" stroke-width="1.5" d="M0,-3.0v7 M-2.5,-0.5L0,-3.0L2.5,-0.5"/>
                </g>
                <g id="arrowDown" xlink:href="#dirArrow" transform="rotate(180) translate(-30 -48)" onmousedown="handlePan(0,1)">
                  <use xlink:href="#rim" fill="#404040">
                        <set attributeName="fill" to="#808080" begin="arrowDown.mouseover" end="arrowDown.mouseout"/>
                  </use>
                  <path fill="none" stroke="white" stroke-width="1.5" d="M0,-3.0v7 M-2.5,-0.5L0,-3.0L2.5,-0.5"/>
                </g>
                <g id="arrowLeft" xlink:href="#dirArrow" transform="rotate(270) translate(-36 17)" onmousedown="handlePan(-1,0)">
                  <use xlink:href="#rim" fill="#404040">
                        <set attributeName="fill" to="#808080" begin="arrowLeft.mouseover" end="arrowLeft.mouseout"/>
                  </use>
                  <path fill="none" stroke="white" stroke-width="1.5" d="M0,-3.0v7 M-2.5,-0.5L0,-3.0L2.5,-0.5"/>
                </g>
        </g>
        <svg viewBox="0 0 15 15" width="100%" height="30px" preserveAspectRatio="xMaxYMin meet">
         <g id="arrow_out" transform="scale(0.3 0.3)">
          <a xlink:href="production__block__header_8hpp__incl_org.svg" target="_base">
           <rect id="button" ry="5" rx="5" y="6" x="6" height="38" width="38"
                fill="#f2f5e9" fill-opacity="0.5" stroke="#606060" stroke-width="1.0"/>
           <path id="arrow"
             d="M 11.500037,31.436501 C 11.940474,20.09759 22.043105,11.32322 32.158766,21.979434 L 37.068811,17.246167 C 37.068811,17.246167 37.088388,32 37.088388,32 L 22.160133,31.978069 C 22.160133,31.978069 26.997745,27.140456 26.997745,27.140456 C 18.528582,18.264221 13.291696,25.230495 11.500037,31.436501 z"
             style="fill:#404040;"/>
          </a>
         </g>
        </svg>
</svg>
