<?xml version="1.0" encoding="UTF-8" standalone="no"?>
<!DOCTYPE svg PUBLIC "-//W3C//DTD SVG 1.1//EN"
 "http://www.w3.org/Graphics/SVG/1.1/DTD/svg11.dtd">
<!-- Generated by graphviz version 7.0.5 (20221223.1930)
 -->
<!-- Title: src/verification/production/production_lottery.hpp Pages: 1 -->
<!--zoomable 544 -->
<svg id="main" version="1.1" xmlns="http://www.w3.org/2000/svg" xmlns:xlink="http://www.w3.org/1999/xlink" xml:space="preserve" onload="init(evt)">
<style type="text/css"><![CDATA[
.edge:hover path { stroke: red; }
.edge:hover polygon { stroke: red; fill: red; }
]]></style>
<script type="text/javascript"><![CDATA[
var edges = document.getElementsByTagName('g');
if (edges && edges.length) {
  for (var i=0;i<edges.length;i++) {
    if (edges[i].id.substr(0,4)=='edge') {
      edges[i].setAttribute('class','edge');
    }
  }
}
]]></script>
        <defs>
                <circle id="rim" cx="0" cy="0" r="7"/>
                <circle id="rim2" cx="0" cy="0" r="3.5"/>
                <g id="zoomPlus">
                        <use xlink:href="#rim" fill="#404040">
                                <set attributeName="fill" to="#808080" begin="zoomplus.mouseover" end="zoomplus.mouseout"/>
                        </use>
                        <path d="M-4,0h8M0,-4v8" fill="none" stroke="white" stroke-width="1.5" pointer-events="none"/>
                </g>
                <g id="zoomMin">
                        <use xlink:href="#rim" fill="#404040">
                                <set attributeName="fill" to="#808080" begin="zoomminus.mouseover" end="zoomminus.mouseout"/>
                        </use>
                        <path d="M-4,0h8" fill="none" stroke="white" stroke-width="1.5" pointer-events="none"/>
                </g>
                <g id="dirArrow">
                        <path fill="none" stroke="white" stroke-width="1.5" d="M0,-3.0v7 M-2.5,-0.5L0,-3.0L2.5,-0.5"/>
                </g>
               <g id="resetDef">
                       <use xlink:href="#rim2" fill="#404040">
                               <set attributeName="fill" to="#808080" begin="reset.mouseover" end="reset.mouseout"/>
                       </use>
               </g>
        </defs>

<script type="text/javascript">
var viewWidth = 837;
var viewHeight = 544;
var sectionId = 'dynsection-1';
</script>
<script xlink:href="svgpan.js"/>
<svg id="graph" class="graph">
<g id="viewport">
<title>src/verification/production/production_lottery.hpp</title>
<!-- Node1 -->
<g id="node1" class="node">
<title>Node1</title>
<g id="a_node1"><a xlink:title=" ">
<polygon fill="#999999" stroke="#666666" points="284,-536 156,-536 156,-506 284,-506 284,-536"/>
<text text-anchor="start" x="164" y="-524" font-family="Helvetica,sans-Serif" font-size="10.00">src/verification/production</text>
<text text-anchor="middle" x="220" y="-513" font-family="Helvetica,sans-Serif" font-size="10.00">/production_lottery.hpp</text>
</a>
</g>
</g>
<!-- Node2 -->
<g id="node2" class="node">
<title>Node2</title>
<g id="a_node2"><a xlink:href="application__injector_8hpp.html" target="_top" xlink:title=" ">
<polygon fill="white" stroke="#666666" points="462,-387.5 348,-387.5 348,-357.5 462,-357.5 462,-387.5"/>
<text text-anchor="start" x="356" y="-375.5" font-family="Helvetica,sans-Serif" font-size="10.00">src/injector/application</text>
<text text-anchor="middle" x="405" y="-364.5" font-family="Helvetica,sans-Serif" font-size="10.00">_injector.hpp</text>
</a>
</g>
</g>
<!-- Node1&#45;&gt;Node2 -->
<g id="edge1" class="edge">
<title>Node1&#45;&gt;Node2</title>
<path fill="none" stroke="#63b8ff" d="M282.48,-501.5C301.9,-493.8 322.52,-483.45 339,-470 367.31,-446.9 388.44,-408.58 398.49,-387.86"/>
<polygon fill="#63b8ff" stroke="#63b8ff" points="281.38,-498.17 273.26,-504.97 283.85,-504.72 281.38,-498.17"/>
</g>
<!-- Node17 -->
<g id="node17" class="node">
<title>Node17</title>
<g id="a_node17"><a xlink:href="production__impl_8hpp.html" target="_top" xlink:title=" ">
<polygon fill="white" stroke="#666666" points="216,-316 88,-316 88,-286 216,-286 216,-316"/>
<text text-anchor="start" x="96" y="-304" font-family="Helvetica,sans-Serif" font-size="10.00">src/verification/production</text>
<text text-anchor="middle" x="152" y="-293" font-family="Helvetica,sans-Serif" font-size="10.00">/impl/production_impl.hpp</text>
</a>
</g>
</g>
<!-- Node1&#45;&gt;Node17 -->
<g id="edge18" class="edge">
<title>Node1&#45;&gt;Node17</title>
<path fill="none" stroke="#63b8ff" d="M205.33,-495.81C200.91,-487.8 196.35,-478.71 193,-470 171.87,-415.08 159.06,-345.78 154.22,-316.31"/>
<polygon fill="#63b8ff" stroke="#63b8ff" points="202.17,-497.35 210.19,-504.28 208.24,-493.87 202.17,-497.35"/>
</g>
<!-- Node19 -->
<g id="node19" class="node">
<title>Node19</title>
<g id="a_node19"><a xlink:href="production__lottery__impl_8hpp.html" target="_top" xlink:title=" ">
<polygon fill="white" stroke="#666666" points="330,-470 202,-470 202,-429 330,-429 330,-470"/>
<text text-anchor="start" x="210" y="-458" font-family="Helvetica,sans-Serif" font-size="10.00">src/verification/production</text>
<text text-anchor="start" x="210" y="-447" font-family="Helvetica,sans-Serif" font-size="10.00">/impl/production_lottery</text>
<text text-anchor="middle" x="266" y="-436" font-family="Helvetica,sans-Serif" font-size="10.00">_impl.hpp</text>
</a>
</g>
</g>
<!-- Node1&#45;&gt;Node19 -->
<g id="edge22" class="edge">
<title>Node1&#45;&gt;Node19</title>
<path fill="none" stroke="#63b8ff" d="M235.87,-496.02C241.4,-487.67 247.53,-478.4 252.82,-470.42"/>
<polygon fill="#63b8ff" stroke="#63b8ff" points="232.97,-494.07 230.37,-504.34 238.8,-497.93 232.97,-494.07"/>
</g>
<!-- Node21 -->
<g id="node21" class="node">
<title>Node21</title>
<g id="a_node21"><a xlink:href="production__meta_8hpp.html" target="_top" xlink:title=" ">
<polygon fill="white" stroke="#666666" points="144,-464.5 8,-464.5 8,-434.5 144,-434.5 144,-464.5"/>
<text text-anchor="start" x="16" y="-452.5" font-family="Helvetica,sans-Serif" font-size="10.00">src/verification/production</text>
<text text-anchor="middle" x="76" y="-441.5" font-family="Helvetica,sans-Serif" font-size="10.00">/types/production_meta.hpp</text>
</a>
</g>
</g>
<!-- Node1&#45;&gt;Node21 -->
<g id="edge25" class="edge">
<title>Node1&#45;&gt;Node21</title>
<path fill="none" stroke="#63b8ff" d="M179.82,-500.61C156.35,-489.28 127.22,-475.22 105.8,-464.88"/>
<polygon fill="#63b8ff" stroke="#63b8ff" points="178.27,-503.75 188.8,-504.94 181.32,-497.44 178.27,-503.75"/>
</g>
<!-- Node3 -->
<g id="node3" class="node">
<title>Node3</title>
<g id="a_node3"><a xlink:href="application__injector_8cpp.html" target="_top" xlink:title=" ">
<polygon fill="white" stroke="#666666" points="348,-316 234,-316 234,-286 348,-286 348,-316"/>
<text text-anchor="start" x="242" y="-304" font-family="Helvetica,sans-Serif" font-size="10.00">src/injector/application</text>
<text text-anchor="middle" x="291" y="-293" font-family="Helvetica,sans-Serif" font-size="10.00">_injector.cpp</text>
</a>
</g>
</g>
<!-- Node2&#45;&gt;Node3 -->
<g id="edge2" class="edge">
<title>Node2&#45;&gt;Node3</title>
<path fill="none" stroke="#63b8ff" d="M371.68,-351.18C353.37,-340.02 331.09,-326.44 314.59,-316.38"/>
<polygon fill="#63b8ff" stroke="#63b8ff" points="369.73,-354.09 380.09,-356.31 373.37,-348.12 369.73,-354.09"/>
</g>
<!-- Node4 -->
<g id="node4" class="node">
<title>Node4</title>
<g id="a_node4"><a xlink:href="block__producing__node__injector_8hpp.html" target="_top" xlink:title=" ">
<polygon fill="white" stroke="#666666" points="359.5,-184 214.5,-184 214.5,-154 359.5,-154 359.5,-184"/>
<text text-anchor="start" x="222.5" y="-172" font-family="Helvetica,sans-Serif" font-size="10.00">src/injector/block</text>
<text text-anchor="middle" x="287" y="-161" font-family="Helvetica,sans-Serif" font-size="10.00">_producing_node_injector.hpp</text>
</a>
</g>
</g>
<!-- Node2&#45;&gt;Node4 -->
<g id="edge3" class="edge">
<title>Node2&#45;&gt;Node4</title>
<path fill="none" stroke="#63b8ff" d="M391.74,-347.41C382.21,-330.22 368.99,-306.59 357,-286 335.46,-249 309.17,-205.98 295.77,-184.2"/>
<polygon fill="#63b8ff" stroke="#63b8ff" points="388.52,-348.82 396.42,-355.88 394.65,-345.43 388.52,-348.82"/>
</g>
<!-- Node9 -->
<g id="node9" class="node">
<title>Node9</title>
<g id="a_node9"><a xlink:href="syncing__node__injector_8hpp.html" target="_top" xlink:title=" ">
<polygon fill="white" stroke="#666666" points="640.5,-316 539.5,-316 539.5,-286 640.5,-286 640.5,-316"/>
<text text-anchor="start" x="547.5" y="-304" font-family="Helvetica,sans-Serif" font-size="10.00">src/injector/syncing</text>
<text text-anchor="middle" x="590" y="-293" font-family="Helvetica,sans-Serif" font-size="10.00">_node_injector.hpp</text>
</a>
</g>
</g>
<!-- Node2&#45;&gt;Node9 -->
<g id="edge8" class="edge">
<title>Node2&#45;&gt;Node9</title>
<path fill="none" stroke="#63b8ff" d="M453.79,-353.17C484.41,-341.67 523.33,-327.05 551.72,-316.38"/>
<polygon fill="#63b8ff" stroke="#63b8ff" points="452.88,-349.77 444.75,-356.57 455.34,-356.33 452.88,-349.77"/>
</g>
<!-- Node13 -->
<g id="node13" class="node">
<title>Node13</title>
<g id="a_node13"><a xlink:href="validating__node__injector_8hpp.html" target="_top" xlink:title=" ">
<polygon fill="white" stroke="#666666" points="493.5,-250 384.5,-250 384.5,-220 493.5,-220 493.5,-250"/>
<text text-anchor="start" x="392.5" y="-238" font-family="Helvetica,sans-Serif" font-size="10.00">src/injector/validating</text>
<text text-anchor="middle" x="439" y="-227" font-family="Helvetica,sans-Serif" font-size="10.00">_node_injector.hpp</text>
</a>
</g>
</g>
<!-- Node2&#45;&gt;Node13 -->
<g id="edge12" class="edge">
<title>Node2&#45;&gt;Node13</title>
<path fill="none" stroke="#63b8ff" d="M411.33,-346.29C418.41,-318.07 429.64,-273.31 435.37,-250.46"/>
<polygon fill="#63b8ff" stroke="#63b8ff" points="407.98,-345.24 408.94,-355.79 414.77,-346.94 407.98,-345.24"/>
</g>
<!-- Node5 -->
<g id="node5" class="node">
<title>Node5</title>
<g id="a_node5"><a xlink:href="block__producing__node__application_8hpp.html" target="_top" xlink:title=" ">
<polygon fill="white" stroke="#666666" points="315,-118 199,-118 199,-77 315,-77 315,-118"/>
<text text-anchor="start" x="207" y="-106" font-family="Helvetica,sans-Serif" font-size="10.00">src/application/impl</text>
<text text-anchor="start" x="207" y="-95" font-family="Helvetica,sans-Serif" font-size="10.00">/block_producing_node</text>
<text text-anchor="middle" x="257" y="-84" font-family="Helvetica,sans-Serif" font-size="10.00">_application.hpp</text>
</a>
</g>
</g>
<!-- Node4&#45;&gt;Node5 -->
<g id="edge4" class="edge">
<title>Node4&#45;&gt;Node5</title>
<path fill="none" stroke="#63b8ff" d="M276.29,-143.19C272.78,-135.06 268.93,-126.14 265.6,-118.42"/>
<polygon fill="#63b8ff" stroke="#63b8ff" points="273.01,-144.42 280.18,-152.21 279.43,-141.64 273.01,-144.42"/>
</g>
<!-- Node8 -->
<g id="node8" class="node">
<title>Node8</title>
<g id="a_node8"><a xlink:href="block__producing__node__injector_8cpp.html" target="_top" xlink:title=" ">
<polygon fill="white" stroke="#666666" points="478.5,-112.5 333.5,-112.5 333.5,-82.5 478.5,-82.5 478.5,-112.5"/>
<text text-anchor="start" x="341.5" y="-100.5" font-family="Helvetica,sans-Serif" font-size="10.00">src/injector/block</text>
<text text-anchor="middle" x="406" y="-89.5" font-family="Helvetica,sans-Serif" font-size="10.00">_producing_node_injector.cpp</text>
</a>
</g>
</g>
<!-- Node4&#45;&gt;Node8 -->
<g id="edge7" class="edge">
<title>Node4&#45;&gt;Node8</title>
<path fill="none" stroke="#63b8ff" d="M321.52,-147.84C340.68,-136.65 364.07,-122.99 381.37,-112.88"/>
<polygon fill="#63b8ff" stroke="#63b8ff" points="319.83,-144.77 312.96,-152.84 323.36,-150.82 319.83,-144.77"/>
</g>
<!-- Node6 -->
<g id="node6" class="node">
<title>Node6</title>
<g id="a_node6"><a xlink:href="app__delegate_8cpp.html" target="_top" xlink:title=" ">
<polygon fill="white" stroke="#666666" points="507,-30 391,-30 391,-11 507,-11 507,-30"/>
<text text-anchor="middle" x="449" y="-18" font-family="Helvetica,sans-Serif" font-size="10.00">node/app_delegate.cpp</text>
</a>
</g>
</g>
<!-- Node5&#45;&gt;Node6 -->
<g id="edge5" class="edge">
<title>Node5&#45;&gt;Node6</title>
<path fill="none" stroke="#63b8ff" d="M318.55,-72.46C355.21,-58.13 399.6,-40.8 426,-30.48"/>
<polygon fill="#63b8ff" stroke="#63b8ff" points="317.4,-69.15 309.36,-76.05 319.95,-75.67 317.4,-69.15"/>
</g>
<!-- Node7 -->
<g id="node7" class="node">
<title>Node7</title>
<g id="a_node7"><a xlink:href="block__producing__node__application_8cpp.html" target="_top" xlink:title=" ">
<polygon fill="white" stroke="#666666" points="315,-41 199,-41 199,0 315,0 315,-41"/>
<text text-anchor="start" x="207" y="-29" font-family="Helvetica,sans-Serif" font-size="10.00">src/application/impl</text>
<text text-anchor="start" x="207" y="-18" font-family="Helvetica,sans-Serif" font-size="10.00">/block_producing_node</text>
<text text-anchor="middle" x="257" y="-7" font-family="Helvetica,sans-Serif" font-size="10.00">_application.cpp</text>
</a>
</g>
</g>
<!-- Node5&#45;&gt;Node7 -->
<g id="edge6" class="edge">
<title>Node5&#45;&gt;Node7</title>
<path fill="none" stroke="#63b8ff" d="M257,-65.36C257,-57.24 257,-48.7 257,-41.33"/>
<polygon fill="#63b8ff" stroke="#63b8ff" points="253.5,-65.28 257,-75.28 260.5,-65.28 253.5,-65.28"/>
</g>
<!-- Node10 -->
<g id="node10" class="node">
<title>Node10</title>
<g id="a_node10"><a xlink:href="syncing__node__application_8hpp.html" target="_top" xlink:title=" ">
<polygon fill="white" stroke="#666666" points="821.5,-250 672.5,-250 672.5,-220 821.5,-220 821.5,-250"/>
<text text-anchor="start" x="680.5" y="-238" font-family="Helvetica,sans-Serif" font-size="10.00">src/application/impl</text>
<text text-anchor="middle" x="747" y="-227" font-family="Helvetica,sans-Serif" font-size="10.00">/syncing_node_application.hpp</text>
</a>
</g>
</g>
<!-- Node9&#45;&gt;Node10 -->
<g id="edge9" class="edge">
<title>Node9&#45;&gt;Node10</title>
<path fill="none" stroke="#63b8ff" d="M635.61,-281.41C659.82,-271.54 689.14,-259.59 711.61,-250.43"/>
<polygon fill="#63b8ff" stroke="#63b8ff" points="634.57,-278.05 626.64,-285.07 637.22,-284.53 634.57,-278.05"/>
</g>
<!-- Node12 -->
<g id="node12" class="node">
<title>Node12</title>
<g id="a_node12"><a xlink:href="syncing__node__injector_8cpp.html" target="_top" xlink:title=" ">
<polygon fill="white" stroke="#666666" points="640.5,-250 539.5,-250 539.5,-220 640.5,-220 640.5,-250"/>
<text text-anchor="start" x="547.5" y="-238" font-family="Helvetica,sans-Serif" font-size="10.00">src/injector/syncing</text>
<text text-anchor="middle" x="590" y="-227" font-family="Helvetica,sans-Serif" font-size="10.00">_node_injector.cpp</text>
</a>
</g>
</g>
<!-- Node9&#45;&gt;Node12 -->
<g id="edge11" class="edge">
<title>Node9&#45;&gt;Node12</title>
<path fill="none" stroke="#63b8ff" d="M590,-274.39C590,-266.13 590,-257.28 590,-250.16"/>
<polygon fill="#63b8ff" stroke="#63b8ff" points="586.5,-274.28 590,-284.28 593.5,-274.28 586.5,-274.28"/>
</g>
<!-- Node11 -->
<g id="node11" class="node">
<title>Node11</title>
<g id="a_node11"><a xlink:href="syncing__node__application_8cpp.html" target="_top" xlink:title=" ">
<polygon fill="white" stroke="#666666" points="828.5,-184 679.5,-184 679.5,-154 828.5,-154 828.5,-184"/>
<text text-anchor="start" x="687.5" y="-172" font-family="Helvetica,sans-Serif" font-size="10.00">src/application/impl</text>
<text text-anchor="middle" x="754" y="-161" font-family="Helvetica,sans-Serif" font-size="10.00">/syncing_node_application.cpp</text>
</a>
</g>
</g>
<!-- Node10&#45;&gt;Node11 -->
<g id="edge10" class="edge">
<title>Node10&#45;&gt;Node11</title>
<path fill="none" stroke="#63b8ff" d="M749.8,-208.39C750.7,-200.13 751.67,-191.28 752.45,-184.16"/>
<polygon fill="#63b8ff" stroke="#63b8ff" points="746.33,-207.97 748.72,-218.29 753.28,-208.73 746.33,-207.97"/>
</g>
<!-- Node13&#45;&gt;Node4 -->
<g id="edge16" class="edge">
<title>Node13&#45;&gt;Node4</title>
<path fill="none" stroke="#63b8ff" d="M394.53,-215.27C371.14,-205.43 342.92,-193.55 321.26,-184.43"/>
<polygon fill="#63b8ff" stroke="#63b8ff" points="392.92,-218.39 403.49,-219.05 395.64,-211.94 392.92,-218.39"/>
</g>
<!-- Node14 -->
<g id="node14" class="node">
<title>Node14</title>
<g id="a_node14"><a xlink:href="validating__node__application_8hpp.html" target="_top" xlink:title=" ">
<polygon fill="white" stroke="#666666" points="661.5,-184 504.5,-184 504.5,-154 661.5,-154 661.5,-184"/>
<text text-anchor="start" x="512.5" y="-172" font-family="Helvetica,sans-Serif" font-size="10.00">src/application/impl</text>
<text text-anchor="middle" x="583" y="-161" font-family="Helvetica,sans-Serif" font-size="10.00">/validating_node_application.hpp</text>
</a>
</g>
</g>
<!-- Node13&#45;&gt;Node14 -->
<g id="edge13" class="edge">
<title>Node13&#45;&gt;Node14</title>
<path fill="none" stroke="#63b8ff" d="M481.77,-214.99C503.89,-205.16 530.43,-193.36 550.79,-184.31"/>
<polygon fill="#63b8ff" stroke="#63b8ff" points="480.42,-211.76 472.7,-219.02 483.26,-218.16 480.42,-211.76"/>
</g>
<!-- Node16 -->
<g id="node16" class="node">
<title>Node16</title>
<g id="a_node16"><a xlink:href="validating__node__injector_8cpp.html" target="_top" xlink:title=" ">
<polygon fill="white" stroke="#666666" points="486.5,-184 377.5,-184 377.5,-154 486.5,-154 486.5,-184"/>
<text text-anchor="start" x="385.5" y="-172" font-family="Helvetica,sans-Serif" font-size="10.00">src/injector/validating</text>
<text text-anchor="middle" x="432" y="-161" font-family="Helvetica,sans-Serif" font-size="10.00">_node_injector.cpp</text>
</a>
</g>
</g>
<!-- Node13&#45;&gt;Node16 -->
<g id="edge17" class="edge">
<title>Node13&#45;&gt;Node16</title>
<path fill="none" stroke="#63b8ff" d="M436.2,-208.39C435.3,-200.13 434.33,-191.28 433.55,-184.16"/>
<polygon fill="#63b8ff" stroke="#63b8ff" points="432.72,-208.73 437.28,-218.29 439.67,-207.97 432.72,-208.73"/>
</g>
<!-- Node14&#45;&gt;Node6 -->
<g id="edge14" class="edge">
<title>Node14&#45;&gt;Node6</title>
<path fill="none" stroke="#63b8ff" d="M556.92,-146.28C547.21,-137.79 536.29,-127.76 527,-118 498.18,-87.73 468.25,-47.92 455.44,-30.41"/>
<polygon fill="#63b8ff" stroke="#63b8ff" points="554.41,-148.74 564.28,-152.6 558.98,-143.43 554.41,-148.74"/>
</g>
<!-- Node15 -->
<g id="node15" class="node">
<title>Node15</title>
<g id="a_node15"><a xlink:href="validating__node__application_8cpp.html" target="_top" xlink:title=" ">
<polygon fill="white" stroke="#666666" points="692.5,-112.5 535.5,-112.5 535.5,-82.5 692.5,-82.5 692.5,-112.5"/>
<text text-anchor="start" x="543.5" y="-100.5" font-family="Helvetica,sans-Serif" font-size="10.00">src/application/impl</text>
<text text-anchor="middle" x="614" y="-89.5" font-family="Helvetica,sans-Serif" font-size="10.00">/validating_node_application.cpp</text>
</a>
</g>
</g>
<!-- Node14&#45;&gt;Node15 -->
<g id="edge15" class="edge">
<title>Node14&#45;&gt;Node15</title>
<path fill="none" stroke="#63b8ff" d="M594.05,-143.23C598.58,-133.06 603.68,-121.64 607.59,-112.88"/>
<polygon fill="#63b8ff" stroke="#63b8ff" points="590.92,-141.66 590.04,-152.22 597.31,-144.51 590.92,-141.66"/>
</g>
<!-- Node17&#45;&gt;Node4 -->
<g id="edge19" class="edge">
<title>Node17&#45;&gt;Node4</title>
<path fill="none" stroke="#63b8ff" d="M152.33,-274.15C153.83,-257.03 158.37,-235.04 171,-220 185.03,-203.29 205.68,-192.02 225.68,-184.48"/>
<polygon fill="#63b8ff" stroke="#63b8ff" points="148.84,-273.89 151.78,-284.07 155.83,-274.28 148.84,-273.89"/>
</g>
<!-- Node17&#45;&gt;Node13 -->
<g id="edge20" class="edge">
<title>Node17&#45;&gt;Node13</title>
<path fill="none" stroke="#63b8ff" d="M227.34,-283.2C276.66,-272.2 339.98,-258.08 384.46,-248.16"/>
<polygon fill="#63b8ff" stroke="#63b8ff" points="226.88,-279.72 217.89,-285.31 228.41,-286.55 226.88,-279.72"/>
</g>
<!-- Node18 -->
<g id="node18" class="node">
<title>Node18</title>
<g id="a_node18"><a xlink:href="production__impl_8cpp.html" target="_top" xlink:title=" ">
<polygon fill="white" stroke="#666666" points="308,-250 180,-250 180,-220 308,-220 308,-250"/>
<text text-anchor="start" x="188" y="-238" font-family="Helvetica,sans-Serif" font-size="10.00">src/verification/production</text>
<text text-anchor="middle" x="244" y="-227" font-family="Helvetica,sans-Serif" font-size="10.00">/impl/production_impl.cpp</text>
</a>
</g>
</g>
<!-- Node17&#45;&gt;Node18 -->
<g id="edge21" class="edge">
<title>Node17&#45;&gt;Node18</title>
<path fill="none" stroke="#63b8ff" d="M181.83,-279.25C195.39,-269.82 211.09,-258.9 223.32,-250.39"/>
<polygon fill="#63b8ff" stroke="#63b8ff" points="179.87,-276.35 173.66,-284.93 183.87,-282.09 179.87,-276.35"/>
</g>
<!-- Node19&#45;&gt;Node2 -->
<g id="edge23" class="edge">
<title>Node19&#45;&gt;Node2</title>
<path fill="none" stroke="#63b8ff" d="M312.98,-423.15C334.84,-411.36 360.03,-397.76 378.52,-387.79"/>
<polygon fill="#63b8ff" stroke="#63b8ff" points="311.36,-420.05 304.22,-427.88 314.68,-426.21 311.36,-420.05"/>
</g>
<!-- Node20 -->
<g id="node20" class="node">
<title>Node20</title>
<g id="a_node20"><a xlink:href="production__lottery__impl_8cpp.html" target="_top" xlink:title=" ">
<polygon fill="white" stroke="#666666" points="330,-393 202,-393 202,-352 330,-352 330,-393"/>
<text text-anchor="start" x="210" y="-381" font-family="Helvetica,sans-Serif" font-size="10.00">src/verification/production</text>
<text text-anchor="start" x="210" y="-370" font-family="Helvetica,sans-Serif" font-size="10.00">/impl/production_lottery</text>
<text text-anchor="middle" x="266" y="-359" font-family="Helvetica,sans-Serif" font-size="10.00">_impl.cpp</text>
</a>
</g>
</g>
<!-- Node19&#45;&gt;Node20 -->
<g id="edge24" class="edge">
<title>Node19&#45;&gt;Node20</title>
<path fill="none" stroke="#63b8ff" d="M266,-417.36C266,-409.24 266,-400.7 266,-393.33"/>
<polygon fill="#63b8ff" stroke="#63b8ff" points="262.5,-417.28 266,-427.28 269.5,-417.28 262.5,-417.28"/>
</g>
<!-- Node22 -->
<g id="node22" class="node">
<title>Node22</title>
<g id="a_node22"><a xlink:href="production_8hpp.html" target="_top" xlink:title=" ">
<polygon fill="white" stroke="#666666" points="146,-382 0,-382 0,-363 146,-363 146,-382"/>
<text text-anchor="middle" x="73" y="-370" font-family="Helvetica,sans-Serif" font-size="10.00">src/verification/production.hpp</text>
</a>
</g>
</g>
<!-- Node21&#45;&gt;Node22 -->
<g id="edge26" class="edge">
<title>Node21&#45;&gt;Node22</title>
<path fill="none" stroke="#63b8ff" d="M74.96,-422.56C74.4,-408.54 73.75,-392.13 73.35,-382.29"/>
<polygon fill="#63b8ff" stroke="#63b8ff" points="71.46,-422.67 75.36,-432.53 78.46,-422.39 71.46,-422.67"/>
</g>
<!-- Node22&#45;&gt;Node17 -->
<g id="edge27" class="edge">
<title>Node22&#45;&gt;Node17</title>
<path fill="none" stroke="#63b8ff" d="M91.45,-355.27C104.88,-343.45 122.89,-327.61 135.77,-316.27"/>
<polygon fill="#63b8ff" stroke="#63b8ff" points="89.34,-352.46 84.14,-361.7 93.96,-357.72 89.34,-352.46"/>
</g>
</g>
</svg>
        <g id="navigator" transform="translate(0 0)" fill="#404254">
                <rect fill="#f2f5e9" fill-opacity="0.5" stroke="#606060" stroke-width=".5" x="0" y="0" width="60" height="60"/>
                <use id="zoomplus" xlink:href="#zoomPlus" x="17" y="9" onmousedown="handleZoom(evt,'in')"/>
                <use id="zoomminus" xlink:href="#zoomMin" x="42" y="9" onmousedown="handleZoom(evt,'out')"/>
                <use id="reset" xlink:href="#resetDef" x="30" y="36" onmousedown="handleReset()"/>
                <g id="arrowUp" xlink:href="#dirArrow" transform="translate(30 24)" onmousedown="handlePan(0,-1)">
                  <use xlink:href="#rim" fill="#404040">
                        <set attributeName="fill" to="#808080" begin="arrowUp.mouseover" end="arrowUp.mouseout"/>
                  </use>
                  <path fill="none" stroke="white" stroke-width="1.5" d="M0,-3.0v7 M-2.5,-0.5L0,-3.0L2.5,-0.5"/>
                </g>
                <g id="arrowRight" xlink:href="#dirArrow" transform="rotate(90) translate(36 -43)" onmousedown="handlePan(1,0)">
                  <use xlink:href="#rim" fill="#404040">
                        <set attributeName="fill" to="#808080" begin="arrowRight.mouseover" end="arrowRight.mouseout"/>
                  </use>
                  <path fill="none" stroke="white" stroke-width="1.5" d="M0,-3.0v7 M-2.5,-0.5L0,-3.0L2.5,-0.5"/>
                </g>
                <g id="arrowDown" xlink:href="#dirArrow" transform="rotate(180) translate(-30 -48)" onmousedown="handlePan(0,1)">
                  <use xlink:href="#rim" fill="#404040">
                        <set attributeName="fill" to="#808080" begin="arrowDown.mouseover" end="arrowDown.mouseout"/>
                  </use>
                  <path fill="none" stroke="white" stroke-width="1.5" d="M0,-3.0v7 M-2.5,-0.5L0,-3.0L2.5,-0.5"/>
                </g>
                <g id="arrowLeft" xlink:href="#dirArrow" transform="rotate(270) translate(-36 17)" onmousedown="handlePan(-1,0)">
                  <use xlink:href="#rim" fill="#404040">
                        <set attributeName="fill" to="#808080" begin="arrowLeft.mouseover" end="arrowLeft.mouseout"/>
                  </use>
                  <path fill="none" stroke="white" stroke-width="1.5" d="M0,-3.0v7 M-2.5,-0.5L0,-3.0L2.5,-0.5"/>
                </g>
        </g>
        <svg viewBox="0 0 15 15" width="100%" height="30px" preserveAspectRatio="xMaxYMin meet">
         <g id="arrow_out" transform="scale(0.3 0.3)">
          <a xlink:href="production__lottery_8hpp__dep__incl_org.svg" target="_base">
           <rect id="button" ry="5" rx="5" y="6" x="6" height="38" width="38"
                fill="#f2f5e9" fill-opacity="0.5" stroke="#606060" stroke-width="1.0"/>
           <path id="arrow"
             d="M 11.500037,31.436501 C 11.940474,20.09759 22.043105,11.32322 32.158766,21.979434 L 37.068811,17.246167 C 37.068811,17.246167 37.088388,32 37.088388,32 L 22.160133,31.978069 C 22.160133,31.978069 26.997745,27.140456 26.997745,27.140456 C 18.528582,18.264221 13.291696,25.230495 11.500037,31.436501 z"
             style="fill:#404040;"/>
          </a>
         </g>
        </svg>
</svg>
