<?xml version="1.0" encoding="UTF-8" standalone="no"?>
<!DOCTYPE svg PUBLIC "-//W3C//DTD SVG 1.1//EN"
 "http://www.w3.org/Graphics/SVG/1.1/DTD/svg11.dtd">
<!-- Generated by graphviz version 7.0.5 (20221223.1930)
 -->
<!-- Title: src/verification/production/production_lottery.hpp Pages: 1 -->
<!--zoomable 522 -->
<svg id="main" version="1.1" xmlns="http://www.w3.org/2000/svg" xmlns:xlink="http://www.w3.org/1999/xlink" xml:space="preserve" onload="init(evt)">
<style type="text/css"><![CDATA[
.edge:hover path { stroke: red; }
.edge:hover polygon { stroke: red; fill: red; }
]]></style>
<script type="text/javascript"><![CDATA[
var edges = document.getElementsByTagName('g');
if (edges && edges.length) {
  for (var i=0;i<edges.length;i++) {
    if (edges[i].id.substr(0,4)=='edge') {
      edges[i].setAttribute('class','edge');
    }
  }
}
]]></script>
        <defs>
                <circle id="rim" cx="0" cy="0" r="7"/>
                <circle id="rim2" cx="0" cy="0" r="3.5"/>
                <g id="zoomPlus">
                        <use xlink:href="#rim" fill="#404040">
                                <set attributeName="fill" to="#808080" begin="zoomplus.mouseover" end="zoomplus.mouseout"/>
                        </use>
                        <path d="M-4,0h8M0,-4v8" fill="none" stroke="white" stroke-width="1.5" pointer-events="none"/>
                </g>
                <g id="zoomMin">
                        <use xlink:href="#rim" fill="#404040">
                                <set attributeName="fill" to="#808080" begin="zoomminus.mouseover" end="zoomminus.mouseout"/>
                        </use>
                        <path d="M-4,0h8" fill="none" stroke="white" stroke-width="1.5" pointer-events="none"/>
                </g>
                <g id="dirArrow">
                        <path fill="none" stroke="white" stroke-width="1.5" d="M0,-3.0v7 M-2.5,-0.5L0,-3.0L2.5,-0.5"/>
                </g>
               <g id="resetDef">
                       <use xlink:href="#rim2" fill="#404040">
                               <set attributeName="fill" to="#808080" begin="reset.mouseover" end="reset.mouseout"/>
                       </use>
               </g>
        </defs>

<script type="text/javascript">
var viewWidth = 652;
var viewHeight = 522;
var sectionId = 'dynsection-0';
</script>
<script xlink:href="svgpan.js"/>
<svg id="graph" class="graph">
<g id="viewport">
<title>src/verification/production/production_lottery.hpp</title>
<!-- Node1 -->
<g id="node1" class="node">
<title>Node1</title>
<g id="a_node1"><a xlink:title=" ">
<polygon fill="#999999" stroke="#666666" points="187.5,-514 59.5,-514 59.5,-484 187.5,-484 187.5,-514"/>
<text text-anchor="start" x="67.5" y="-502" font-family="Helvetica,sans-Serif" font-size="10.00">src/verification/production</text>
<text text-anchor="middle" x="123.5" y="-491" font-family="Helvetica,sans-Serif" font-size="10.00">/production_lottery.hpp</text>
</a>
</g>
</g>
<!-- Node2 -->
<g id="node2" class="node">
<title>Node2</title>
<g id="a_node2"><a xlink:title=" ">
<polygon fill="#e0e0e0" stroke="#999999" points="95,-442.5 0,-442.5 0,-423.5 95,-423.5 95,-442.5"/>
<text text-anchor="middle" x="47.5" y="-430.5" font-family="Helvetica,sans-Serif" font-size="10.00">boost/optional.hpp</text>
</a>
</g>
</g>
<!-- Node1&#45;&gt;Node2 -->
<g id="edge1" class="edge">
<title>Node1&#45;&gt;Node2</title>
<path fill="none" stroke="#63b8ff" d="M106.63,-483.8C94.78,-473.82 78.92,-460.46 66.6,-450.09"/>
<polygon fill="#63b8ff" stroke="#63b8ff" points="69.06,-447.58 59.16,-443.82 64.55,-452.94 69.06,-447.58"/>
</g>
<!-- Node3 -->
<g id="node3" class="node">
<title>Node3</title>
<g id="a_node3"><a xlink:href="epoch_8hpp.html" target="_top" xlink:title=" ">
<polygon fill="white" stroke="#666666" points="455,-448 344,-448 344,-418 455,-418 455,-448"/>
<text text-anchor="start" x="352" y="-436" font-family="Helvetica,sans-Serif" font-size="10.00">verification/production</text>
<text text-anchor="middle" x="399.5" y="-425" font-family="Helvetica,sans-Serif" font-size="10.00">/types/epoch.hpp</text>
</a>
</g>
</g>
<!-- Node1&#45;&gt;Node3 -->
<g id="edge2" class="edge">
<title>Node1&#45;&gt;Node3</title>
<path fill="none" stroke="#63b8ff" d="M185.78,-483.56C229.46,-473.43 287.8,-459.9 332.48,-449.54"/>
<polygon fill="#63b8ff" stroke="#63b8ff" points="333.11,-452.99 342.06,-447.32 331.53,-446.17 333.11,-452.99"/>
</g>
<!-- Node9 -->
<g id="node9" class="node">
<title>Node9</title>
<g id="a_node9"><a xlink:href="sr25519__types_8hpp.html" target="_top" xlink:title=" ">
<polygon fill="white" stroke="#666666" points="167,-255.5 40,-255.5 40,-236.5 167,-236.5 167,-255.5"/>
<text text-anchor="middle" x="103.5" y="-243.5" font-family="Helvetica,sans-Serif" font-size="10.00">crypto/sr25519_types.hpp</text>
</a>
</g>
</g>
<!-- Node1&#45;&gt;Node9 -->
<g id="edge34" class="edge">
<title>Node1&#45;&gt;Node9</title>
<path fill="none" stroke="#63b8ff" d="M122.37,-483.79C119,-441.52 109.04,-316.49 105.11,-267.26"/>
<polygon fill="#63b8ff" stroke="#63b8ff" points="108.62,-267.18 104.34,-257.49 101.64,-267.74 108.62,-267.18"/>
</g>
<!-- Node4 -->
<g id="node4" class="node">
<title>Node4</title>
<g id="a_node4"><a xlink:title=" ">
<polygon fill="#e0e0e0" stroke="#999999" points="537.5,-195 491.5,-195 491.5,-176 537.5,-176 537.5,-195"/>
<text text-anchor="middle" x="514.5" y="-183" font-family="Helvetica,sans-Serif" font-size="10.00">chrono</text>
</a>
</g>
</g>
<!-- Node3&#45;&gt;Node4 -->
<g id="edge3" class="edge">
<title>Node3&#45;&gt;Node4</title>
<path fill="none" stroke="#63b8ff" d="M426.95,-417.65C458.68,-399.92 510.85,-367.13 544.5,-327 573.4,-292.54 597.03,-271.01 576.5,-231 569.88,-218.11 557.6,-208.11 545.71,-200.88"/>
<polygon fill="#63b8ff" stroke="#63b8ff" points="547.7,-197.99 537.26,-196.2 544.31,-204.11 547.7,-197.99"/>
</g>
<!-- Node5 -->
<g id="node5" class="node">
<title>Node5</title>
<g id="a_node5"><a xlink:title=" ">
<polygon fill="#e0e0e0" stroke="#999999" points="643.5,-74 599.5,-74 599.5,-55 643.5,-55 643.5,-74"/>
<text text-anchor="middle" x="621.5" y="-62" font-family="Helvetica,sans-Serif" font-size="10.00">vector</text>
</a>
</g>
</g>
<!-- Node3&#45;&gt;Node5 -->
<g id="edge4" class="edge">
<title>Node3&#45;&gt;Node5</title>
<path fill="none" stroke="#63b8ff" d="M455.25,-427.72C524.46,-419.01 633.5,-392.64 633.5,-313 633.5,-313 633.5,-313 633.5,-184.5 633.5,-149.64 628.34,-109.31 624.79,-85.69"/>
<polygon fill="#63b8ff" stroke="#63b8ff" points="628.26,-85.26 623.25,-75.92 621.34,-86.34 628.26,-85.26"/>
</g>
<!-- Node6 -->
<g id="node6" class="node">
<title>Node6</title>
<g id="a_node6"><a xlink:href="src_2verification_2production_2common_8hpp.html" target="_top" xlink:title=" ">
<polygon fill="white" stroke="#666666" points="283,-327 172,-327 172,-297 283,-297 283,-327"/>
<text text-anchor="start" x="180" y="-315" font-family="Helvetica,sans-Serif" font-size="10.00">verification/production</text>
<text text-anchor="middle" x="227.5" y="-304" font-family="Helvetica,sans-Serif" font-size="10.00">/common.hpp</text>
</a>
</g>
</g>
<!-- Node3&#45;&gt;Node6 -->
<g id="edge5" class="edge">
<title>Node3&#45;&gt;Node6</title>
<path fill="none" stroke="#63b8ff" d="M378.75,-417.65C348.53,-396.74 292.24,-357.79 257.51,-333.76"/>
<polygon fill="#63b8ff" stroke="#63b8ff" points="259.78,-331.08 249.57,-328.27 255.8,-336.83 259.78,-331.08"/>
</g>
<!-- Node22 -->
<g id="node22" class="node">
<title>Node22</title>
<g id="a_node22"><a xlink:href="authority_8hpp.html" target="_top" xlink:title=" ">
<polygon fill="white" stroke="#666666" points="457.5,-382 341.5,-382 341.5,-363 457.5,-363 457.5,-382"/>
<text text-anchor="middle" x="399.5" y="-370" font-family="Helvetica,sans-Serif" font-size="10.00">primitives/authority.hpp</text>
</a>
</g>
</g>
<!-- Node3&#45;&gt;Node22 -->
<g id="edge26" class="edge">
<title>Node3&#45;&gt;Node22</title>
<path fill="none" stroke="#63b8ff" d="M399.5,-417.54C399.5,-410.34 399.5,-401.53 399.5,-393.68"/>
<polygon fill="#63b8ff" stroke="#63b8ff" points="403,-393.69 399.5,-383.69 396,-393.69 403,-393.69"/>
</g>
<!-- Node7 -->
<g id="node7" class="node">
<title>Node7</title>
<g id="a_node7"><a xlink:title=" ">
<polygon fill="#e0e0e0" stroke="#999999" points="333.5,-255.5 287.5,-255.5 287.5,-236.5 333.5,-236.5 333.5,-255.5"/>
<text text-anchor="middle" x="310.5" y="-243.5" font-family="Helvetica,sans-Serif" font-size="10.00">cstdint</text>
</a>
</g>
</g>
<!-- Node6&#45;&gt;Node7 -->
<g id="edge6" class="edge">
<title>Node6&#45;&gt;Node7</title>
<path fill="none" stroke="#63b8ff" d="M245.92,-296.8C258.99,-286.72 276.53,-273.19 290.03,-262.78"/>
<polygon fill="#63b8ff" stroke="#63b8ff" points="292.05,-265.65 297.83,-256.77 287.78,-260.1 292.05,-265.65"/>
</g>
<!-- Node8 -->
<g id="node8" class="node">
<title>Node8</title>
<g id="a_node8"><a xlink:href="clock_8hpp.html" target="_top" xlink:title=" ">
<polygon fill="white" stroke="#666666" points="269.5,-255.5 185.5,-255.5 185.5,-236.5 269.5,-236.5 269.5,-255.5"/>
<text text-anchor="middle" x="227.5" y="-243.5" font-family="Helvetica,sans-Serif" font-size="10.00">clock/clock.hpp</text>
</a>
</g>
</g>
<!-- Node6&#45;&gt;Node8 -->
<g id="edge7" class="edge">
<title>Node6&#45;&gt;Node8</title>
<path fill="none" stroke="#63b8ff" d="M227.5,-296.8C227.5,-288.09 227.5,-276.81 227.5,-267.18"/>
<polygon fill="#63b8ff" stroke="#63b8ff" points="231,-267.36 227.5,-257.36 224,-267.36 231,-267.36"/>
</g>
<!-- Node6&#45;&gt;Node9 -->
<g id="edge9" class="edge">
<title>Node6&#45;&gt;Node9</title>
<path fill="none" stroke="#63b8ff" d="M199.67,-296.64C179.21,-286.08 151.54,-271.79 131.13,-261.26"/>
<polygon fill="#63b8ff" stroke="#63b8ff" points="132.75,-258.16 122.26,-256.68 129.54,-264.38 132.75,-258.16"/>
</g>
<!-- Node8&#45;&gt;Node4 -->
<g id="edge8" class="edge">
<title>Node8&#45;&gt;Node4</title>
<path fill="none" stroke="#63b8ff" d="M258.68,-236.01C265.21,-234.25 272.06,-232.49 278.5,-231 349.69,-214.55 434.01,-199.77 480.12,-192.08"/>
<polygon fill="#63b8ff" stroke="#63b8ff" points="480.47,-195.57 489.76,-190.48 479.33,-188.66 480.47,-195.57"/>
</g>
<!-- Node10 -->
<g id="node10" class="node">
<title>Node10</title>
<g id="a_node10"><a xlink:title=" ">
<polygon fill="#e0e0e0" stroke="#999999" points="300,-195 241,-195 241,-176 300,-176 300,-195"/>
<text text-anchor="middle" x="270.5" y="-183" font-family="Helvetica,sans-Serif" font-size="10.00">sr25519.h</text>
</a>
</g>
</g>
<!-- Node9&#45;&gt;Node10 -->
<g id="edge10" class="edge">
<title>Node9&#45;&gt;Node10</title>
<path fill="none" stroke="#63b8ff" d="M128.86,-236.12C156.94,-226.28 202.43,-210.34 234.26,-199.19"/>
<polygon fill="#63b8ff" stroke="#63b8ff" points="235.19,-202.58 243.47,-195.97 232.87,-195.97 235.19,-202.58"/>
</g>
<!-- Node11 -->
<g id="node11" class="node">
<title>Node11</title>
<g id="a_node11"><a xlink:title=" ">
<polygon fill="#e0e0e0" stroke="#999999" points="189.5,-140 85.5,-140 85.5,-110 189.5,-110 189.5,-140"/>
<text text-anchor="start" x="93.5" y="-128" font-family="Helvetica,sans-Serif" font-size="10.00">boost/multiprecision</text>
<text text-anchor="middle" x="137.5" y="-117" font-family="Helvetica,sans-Serif" font-size="10.00">/cpp_int.hpp</text>
</a>
</g>
</g>
<!-- Node9&#45;&gt;Node11 -->
<g id="edge11" class="edge">
<title>Node9&#45;&gt;Node11</title>
<path fill="none" stroke="#63b8ff" d="M104.94,-236.4C107.25,-223.24 112.15,-197.39 118.5,-176 120.98,-167.65 124.19,-158.71 127.27,-150.73"/>
<polygon fill="#63b8ff" stroke="#63b8ff" points="130.43,-152.24 130.88,-141.65 123.93,-149.65 130.43,-152.24"/>
</g>
<!-- Node12 -->
<g id="node12" class="node">
<title>Node12</title>
<g id="a_node12"><a xlink:title=" ">
<polygon fill="#e0e0e0" stroke="#999999" points="244,-74 191,-74 191,-55 244,-55 244,-74"/>
<text text-anchor="middle" x="217.5" y="-62" font-family="Helvetica,sans-Serif" font-size="10.00">gsl/span</text>
</a>
</g>
</g>
<!-- Node9&#45;&gt;Node12 -->
<g id="edge12" class="edge">
<title>Node9&#45;&gt;Node12</title>
<path fill="none" stroke="#63b8ff" d="M97.48,-236.11C82.61,-212.93 47.39,-149.71 76.5,-110 99.92,-78.05 146.33,-68.45 179.51,-65.86"/>
<polygon fill="#63b8ff" stroke="#63b8ff" points="179.35,-69.38 189.13,-65.3 178.94,-62.39 179.35,-69.38"/>
</g>
<!-- Node13 -->
<g id="node13" class="node">
<title>Node13</title>
<g id="a_node13"><a xlink:href="blob_8hpp.html" target="_top" xlink:title=" ">
<polygon fill="white" stroke="#666666" points="421,-195 344,-195 344,-176 421,-176 421,-195"/>
<text text-anchor="middle" x="382.5" y="-183" font-family="Helvetica,sans-Serif" font-size="10.00">base/blob.hpp</text>
</a>
</g>
</g>
<!-- Node9&#45;&gt;Node13 -->
<g id="edge13" class="edge">
<title>Node9&#45;&gt;Node13</title>
<path fill="none" stroke="#63b8ff" d="M146.18,-236.05C196.38,-225.53 279.59,-208.08 332.69,-196.94"/>
<polygon fill="#63b8ff" stroke="#63b8ff" points="333.32,-200.39 342.39,-194.91 331.89,-193.54 333.32,-200.39"/>
</g>
<!-- Node21 -->
<g id="node21" class="node">
<title>Node21</title>
<g id="a_node21"><a xlink:href="mp__utils_8hpp.html" target="_top" xlink:title=" ">
<polygon fill="white" stroke="#666666" points="223,-195 128,-195 128,-176 223,-176 223,-195"/>
<text text-anchor="middle" x="175.5" y="-183" font-family="Helvetica,sans-Serif" font-size="10.00">base/mp_utils.hpp</text>
</a>
</g>
</g>
<!-- Node9&#45;&gt;Node21 -->
<g id="edge23" class="edge">
<title>Node9&#45;&gt;Node21</title>
<path fill="none" stroke="#63b8ff" d="M114.44,-236.12C125.32,-227.27 142.29,-213.48 155.58,-202.69"/>
<polygon fill="#63b8ff" stroke="#63b8ff" points="157.73,-205.45 163.29,-196.42 153.32,-200.01 157.73,-205.45"/>
</g>
<!-- Node14 -->
<g id="node14" class="node">
<title>Node14</title>
<g id="a_node14"><a xlink:title=" ">
<polygon fill="#e0e0e0" stroke="#999999" points="283.5,-134.5 245.5,-134.5 245.5,-115.5 283.5,-115.5 283.5,-134.5"/>
<text text-anchor="middle" x="264.5" y="-122.5" font-family="Helvetica,sans-Serif" font-size="10.00">array</text>
</a>
</g>
</g>
<!-- Node13&#45;&gt;Node14 -->
<g id="edge14" class="edge">
<title>Node13&#45;&gt;Node14</title>
<path fill="none" stroke="#63b8ff" d="M364.56,-175.66C348.16,-167.57 323.02,-155.15 292.4,-139.94"/>
<polygon fill="#63b8ff" stroke="#63b8ff" points="294.14,-136.89 283.62,-135.57 291.02,-143.16 294.14,-136.89"/>
</g>
<!-- Node15 -->
<g id="node15" class="node">
<title>Node15</title>
<g id="a_node15"><a xlink:title=" ">
<polygon fill="#e0e0e0" stroke="#999999" points="429.5,-134.5 301.5,-134.5 301.5,-115.5 429.5,-115.5 429.5,-134.5"/>
<text text-anchor="middle" x="365.5" y="-122.5" font-family="Helvetica,sans-Serif" font-size="10.00">boost/functional/hash.hpp</text>
</a>
</g>
</g>
<!-- Node13&#45;&gt;Node15 -->
<g id="edge15" class="edge">
<title>Node13&#45;&gt;Node15</title>
<path fill="none" stroke="#63b8ff" d="M379.99,-175.87C377.68,-167.92 374.17,-155.83 371.18,-145.55"/>
<polygon fill="#63b8ff" stroke="#63b8ff" points="374.59,-144.75 368.44,-136.12 367.87,-146.7 374.59,-144.75"/>
</g>
<!-- Node16 -->
<g id="node16" class="node">
<title>Node16</title>
<g id="a_node16"><a xlink:href="hexutil_8hpp.html" target="_top" xlink:title=" ">
<polygon fill="white" stroke="#666666" points="533.5,-134.5 447.5,-134.5 447.5,-115.5 533.5,-115.5 533.5,-134.5"/>
<text text-anchor="middle" x="490.5" y="-122.5" font-family="Helvetica,sans-Serif" font-size="10.00">base/hexutil.hpp</text>
</a>
</g>
</g>
<!-- Node13&#45;&gt;Node16 -->
<g id="edge16" class="edge">
<title>Node13&#45;&gt;Node16</title>
<path fill="none" stroke="#63b8ff" d="M398.9,-175.62C416.19,-166.25 443.68,-151.36 464.04,-140.33"/>
<polygon fill="#63b8ff" stroke="#63b8ff" points="465.49,-143.53 472.61,-135.69 462.15,-137.37 465.49,-143.53"/>
</g>
<!-- Node20 -->
<g id="node20" class="node">
<title>Node20</title>
<g id="a_node20"><a xlink:title=" ">
<polygon fill="#e0e0e0" stroke="#999999" points="605.5,-134.5 551.5,-134.5 551.5,-115.5 605.5,-115.5 605.5,-134.5"/>
<text text-anchor="middle" x="578.5" y="-122.5" font-family="Helvetica,sans-Serif" font-size="10.00">iostream</text>
</a>
</g>
</g>
<!-- Node13&#45;&gt;Node20 -->
<g id="edge22" class="edge">
<title>Node13&#45;&gt;Node20</title>
<path fill="none" stroke="#63b8ff" d="M418.71,-175.53C451.35,-167.18 500.5,-153.97 542.5,-140 543.65,-139.62 544.81,-139.22 545.98,-138.81"/>
<polygon fill="#63b8ff" stroke="#63b8ff" points="546.94,-142.19 555.12,-135.46 544.53,-135.62 546.94,-142.19"/>
</g>
<!-- Node16&#45;&gt;Node5 -->
<g id="edge18" class="edge">
<title>Node16&#45;&gt;Node5</title>
<path fill="none" stroke="#63b8ff" d="M510.4,-115.12C531.84,-105.54 566.24,-90.18 591.09,-79.08"/>
<polygon fill="#63b8ff" stroke="#63b8ff" points="592.33,-82.36 600.03,-75.09 589.48,-75.97 592.33,-82.36"/>
</g>
<!-- Node16&#45;&gt;Node12 -->
<g id="edge19" class="edge">
<title>Node16&#45;&gt;Node12</title>
<path fill="none" stroke="#63b8ff" d="M458.4,-115.01C451.84,-113.27 444.96,-111.52 438.5,-110 374.67,-95 299.74,-80.57 255.57,-72.4"/>
<polygon fill="#63b8ff" stroke="#63b8ff" points="256.45,-69 245.98,-70.63 255.19,-75.88 256.45,-69"/>
</g>
<!-- Node17 -->
<g id="node17" class="node">
<title>Node17</title>
<g id="a_node17"><a xlink:title=" ">
<polygon fill="#e0e0e0" stroke="#999999" points="426.5,-74 360.5,-74 360.5,-55 426.5,-55 426.5,-74"/>
<text text-anchor="middle" x="393.5" y="-62" font-family="Helvetica,sans-Serif" font-size="10.00">string_view</text>
</a>
</g>
</g>
<!-- Node16&#45;&gt;Node17 -->
<g id="edge17" class="edge">
<title>Node16&#45;&gt;Node17</title>
<path fill="none" stroke="#63b8ff" d="M475.77,-115.12C460.46,-105.88 436.23,-91.27 418.03,-80.29"/>
<polygon fill="#63b8ff" stroke="#63b8ff" points="420.04,-77.42 409.67,-75.25 416.42,-83.41 420.04,-77.42"/>
</g>
<!-- Node18 -->
<g id="node18" class="node">
<title>Node18</title>
<g id="a_node18"><a xlink:href="outcome_8hpp.html" target="_top" xlink:title=" ">
<polygon fill="white" stroke="#666666" points="558,-74 445,-74 445,-55 558,-55 558,-74"/>
<text text-anchor="middle" x="501.5" y="-62" font-family="Helvetica,sans-Serif" font-size="10.00">outcome/outcome.hpp</text>
</a>
</g>
</g>
<!-- Node16&#45;&gt;Node18 -->
<g id="edge20" class="edge">
<title>Node16&#45;&gt;Node18</title>
<path fill="none" stroke="#63b8ff" d="M492.12,-115.37C493.6,-107.5 495.84,-95.6 497.76,-85.39"/>
<polygon fill="#63b8ff" stroke="#63b8ff" points="501.18,-86.13 499.59,-75.65 494.3,-84.84 501.18,-86.13"/>
</g>
<!-- Node19 -->
<g id="node19" class="node">
<title>Node19</title>
<g id="a_node19"><a xlink:title=" ">
<polygon fill="#e0e0e0" stroke="#999999" points="572,-19 431,-19 431,0 572,0 572,-19"/>
<text text-anchor="middle" x="501.5" y="-7" font-family="Helvetica,sans-Serif" font-size="10.00">libp2p/outcome/outcome.hpp</text>
</a>
</g>
</g>
<!-- Node18&#45;&gt;Node19 -->
<g id="edge21" class="edge">
<title>Node18&#45;&gt;Node19</title>
<path fill="none" stroke="#63b8ff" d="M501.5,-54.75C501.5,-48.27 501.5,-39.16 501.5,-30.9"/>
<polygon fill="#63b8ff" stroke="#63b8ff" points="505,-30.96 501.5,-20.96 498,-30.96 505,-30.96"/>
</g>
<!-- Node21&#45;&gt;Node11 -->
<g id="edge24" class="edge">
<title>Node21&#45;&gt;Node11</title>
<path fill="none" stroke="#63b8ff" d="M169.89,-175.87C165.41,-168.96 158.89,-158.93 152.88,-149.67"/>
<polygon fill="#63b8ff" stroke="#63b8ff" points="155.88,-147.86 147.49,-141.38 150.01,-151.68 155.88,-147.86"/>
</g>
<!-- Node21&#45;&gt;Node12 -->
<g id="edge25" class="edge">
<title>Node21&#45;&gt;Node12</title>
<path fill="none" stroke="#63b8ff" d="M180.88,-175.58C186,-166.78 193.62,-152.84 198.5,-140 205.32,-122.07 210.47,-100.78 213.68,-85.56"/>
<polygon fill="#63b8ff" stroke="#63b8ff" points="217.08,-86.39 215.61,-75.9 210.22,-85.02 217.08,-86.39"/>
</g>
<!-- Node22&#45;&gt;Node7 -->
<g id="edge27" class="edge">
<title>Node22&#45;&gt;Node7</title>
<path fill="none" stroke="#63b8ff" d="M378.02,-362.56C362.85,-355.17 343.21,-343.26 331.5,-327 318.73,-309.27 313.72,-284.36 311.76,-267.06"/>
<polygon fill="#63b8ff" stroke="#63b8ff" points="315.27,-266.97 310.92,-257.3 308.29,-267.57 315.27,-266.97"/>
</g>
<!-- Node23 -->
<g id="node23" class="node">
<title>Node23</title>
<g id="a_node23"><a xlink:title=" ">
<polygon fill="#e0e0e0" stroke="#999999" points="535,-321.5 476,-321.5 476,-302.5 535,-302.5 535,-321.5"/>
<text text-anchor="middle" x="505.5" y="-309.5" font-family="Helvetica,sans-Serif" font-size="10.00">functional</text>
</a>
</g>
</g>
<!-- Node22&#45;&gt;Node23 -->
<g id="edge28" class="edge">
<title>Node22&#45;&gt;Node23</title>
<path fill="none" stroke="#63b8ff" d="M415.6,-362.62C432.49,-353.29 459.3,-338.5 479.25,-327.49"/>
<polygon fill="#63b8ff" stroke="#63b8ff" points="480.86,-330.6 487.92,-322.7 477.48,-324.47 480.86,-330.6"/>
</g>
<!-- Node24 -->
<g id="node24" class="node">
<title>Node24</title>
<g id="a_node24"><a xlink:href="src_2primitives_2common_8hpp.html" target="_top" xlink:title=" ">
<polygon fill="white" stroke="#666666" points="458,-321.5 341,-321.5 341,-302.5 458,-302.5 458,-321.5"/>
<text text-anchor="middle" x="399.5" y="-309.5" font-family="Helvetica,sans-Serif" font-size="10.00">primitives/common.hpp</text>
</a>
</g>
</g>
<!-- Node22&#45;&gt;Node24 -->
<g id="edge29" class="edge">
<title>Node22&#45;&gt;Node24</title>
<path fill="none" stroke="#63b8ff" d="M399.5,-362.87C399.5,-355 399.5,-343.1 399.5,-332.89"/>
<polygon fill="#63b8ff" stroke="#63b8ff" points="403,-333.18 399.5,-323.18 396,-333.18 403,-333.18"/>
</g>
<!-- Node24&#45;&gt;Node7 -->
<g id="edge30" class="edge">
<title>Node24&#45;&gt;Node7</title>
<path fill="none" stroke="#63b8ff" d="M387.12,-302.1C372.91,-291.88 349.33,-274.93 332.08,-262.52"/>
<polygon fill="#63b8ff" stroke="#63b8ff" points="334.16,-259.7 324,-256.71 330.07,-265.39 334.16,-259.7"/>
</g>
<!-- Node25 -->
<g id="node25" class="node">
<title>Node25</title>
<g id="a_node25"><a xlink:title=" ">
<polygon fill="#e0e0e0" stroke="#999999" points="567.5,-255.5 465.5,-255.5 465.5,-236.5 567.5,-236.5 567.5,-255.5"/>
<text text-anchor="middle" x="516.5" y="-243.5" font-family="Helvetica,sans-Serif" font-size="10.00">boost/operators.hpp</text>
</a>
</g>
</g>
<!-- Node24&#45;&gt;Node25 -->
<g id="edge31" class="edge">
<title>Node24&#45;&gt;Node25</title>
<path fill="none" stroke="#63b8ff" d="M415.77,-302.1C435.07,-291.55 467.49,-273.81 490.33,-261.32"/>
<polygon fill="#63b8ff" stroke="#63b8ff" points="491.95,-264.42 499.04,-256.55 488.59,-258.28 491.95,-264.42"/>
</g>
<!-- Node26 -->
<g id="node26" class="node">
<title>Node26</title>
<g id="a_node26"><a xlink:href="session__key_8hpp.html" target="_top" xlink:title=" ">
<polygon fill="white" stroke="#666666" points="447,-261 352,-261 352,-231 447,-231 447,-261"/>
<text text-anchor="start" x="360" y="-249" font-family="Helvetica,sans-Serif" font-size="10.00">primitives/session</text>
<text text-anchor="middle" x="399.5" y="-238" font-family="Helvetica,sans-Serif" font-size="10.00">_key.hpp</text>
</a>
</g>
</g>
<!-- Node24&#45;&gt;Node26 -->
<g id="edge32" class="edge">
<title>Node24&#45;&gt;Node26</title>
<path fill="none" stroke="#63b8ff" d="M399.5,-302.1C399.5,-294.41 399.5,-282.92 399.5,-272.42"/>
<polygon fill="#63b8ff" stroke="#63b8ff" points="403,-272.75 399.5,-262.75 396,-272.75 403,-272.75"/>
</g>
<!-- Node26&#45;&gt;Node13 -->
<g id="edge33" class="edge">
<title>Node26&#45;&gt;Node13</title>
<path fill="none" stroke="#63b8ff" d="M395.3,-230.54C393.16,-223.17 390.52,-214.1 388.2,-206.11"/>
<polygon fill="#63b8ff" stroke="#63b8ff" points="391.59,-205.25 385.44,-196.63 384.87,-207.21 391.59,-205.25"/>
</g>
</g>
</svg>
        <g id="navigator" transform="translate(0 0)" fill="#404254">
                <rect fill="#f2f5e9" fill-opacity="0.5" stroke="#606060" stroke-width=".5" x="0" y="0" width="60" height="60"/>
                <use id="zoomplus" xlink:href="#zoomPlus" x="17" y="9" onmousedown="handleZoom(evt,'in')"/>
                <use id="zoomminus" xlink:href="#zoomMin" x="42" y="9" onmousedown="handleZoom(evt,'out')"/>
                <use id="reset" xlink:href="#resetDef" x="30" y="36" onmousedown="handleReset()"/>
                <g id="arrowUp" xlink:href="#dirArrow" transform="translate(30 24)" onmousedown="handlePan(0,-1)">
                  <use xlink:href="#rim" fill="#404040">
                        <set attributeName="fill" to="#808080" begin="arrowUp.mouseover" end="arrowUp.mouseout"/>
                  </use>
                  <path fill="none" stroke="white" stroke-width="1.5" d="M0,-3.0v7 M-2.5,-0.5L0,-3.0L2.5,-0.5"/>
                </g>
                <g id="arrowRight" xlink:href="#dirArrow" transform="rotate(90) translate(36 -43)" onmousedown="handlePan(1,0)">
                  <use xlink:href="#rim" fill="#404040">
                        <set attributeName="fill" to="#808080" begin="arrowRight.mouseover" end="arrowRight.mouseout"/>
                  </use>
                  <path fill="none" stroke="white" stroke-width="1.5" d="M0,-3.0v7 M-2.5,-0.5L0,-3.0L2.5,-0.5"/>
                </g>
                <g id="arrowDown" xlink:href="#dirArrow" transform="rotate(180) translate(-30 -48)" onmousedown="handlePan(0,1)">
                  <use xlink:href="#rim" fill="#404040">
                        <set attributeName="fill" to="#808080" begin="arrowDown.mouseover" end="arrowDown.mouseout"/>
                  </use>
                  <path fill="none" stroke="white" stroke-width="1.5" d="M0,-3.0v7 M-2.5,-0.5L0,-3.0L2.5,-0.5"/>
                </g>
                <g id="arrowLeft" xlink:href="#dirArrow" transform="rotate(270) translate(-36 17)" onmousedown="handlePan(-1,0)">
                  <use xlink:href="#rim" fill="#404040">
                        <set attributeName="fill" to="#808080" begin="arrowLeft.mouseover" end="arrowLeft.mouseout"/>
                  </use>
                  <path fill="none" stroke="white" stroke-width="1.5" d="M0,-3.0v7 M-2.5,-0.5L0,-3.0L2.5,-0.5"/>
                </g>
        </g>
        <svg viewBox="0 0 15 15" width="100%" height="30px" preserveAspectRatio="xMaxYMin meet">
         <g id="arrow_out" transform="scale(0.3 0.3)">
          <a xlink:href="production__lottery_8hpp__incl_org.svg" target="_base">
           <rect id="button" ry="5" rx="5" y="6" x="6" height="38" width="38"
                fill="#f2f5e9" fill-opacity="0.5" stroke="#606060" stroke-width="1.0"/>
           <path id="arrow"
             d="M 11.500037,31.436501 C 11.940474,20.09759 22.043105,11.32322 32.158766,21.979434 L 37.068811,17.246167 C 37.068811,17.246167 37.088388,32 37.088388,32 L 22.160133,31.978069 C 22.160133,31.978069 26.997745,27.140456 26.997745,27.140456 C 18.528582,18.264221 13.291696,25.230495 11.500037,31.436501 z"
             style="fill:#404040;"/>
          </a>
         </g>
        </svg>
</svg>
