<?xml version="1.0" encoding="UTF-8" standalone="no"?>
<!DOCTYPE svg PUBLIC "-//W3C//DTD SVG 1.1//EN"
 "http://www.w3.org/Graphics/SVG/1.1/DTD/svg11.dtd">
<!-- Generated by graphviz version 7.0.5 (20221223.1930)
 -->
<!-- Title: src/verification/production/production_synchronizer.hpp Pages: 1 -->
<!--zoomable 698 -->
<svg id="main" version="1.1" xmlns="http://www.w3.org/2000/svg" xmlns:xlink="http://www.w3.org/1999/xlink" xml:space="preserve" onload="init(evt)">
<style type="text/css"><![CDATA[
.edge:hover path { stroke: red; }
.edge:hover polygon { stroke: red; fill: red; }
]]></style>
<script type="text/javascript"><![CDATA[
var edges = document.getElementsByTagName('g');
if (edges && edges.length) {
  for (var i=0;i<edges.length;i++) {
    if (edges[i].id.substr(0,4)=='edge') {
      edges[i].setAttribute('class','edge');
    }
  }
}
]]></script>
        <defs>
                <circle id="rim" cx="0" cy="0" r="7"/>
                <circle id="rim2" cx="0" cy="0" r="3.5"/>
                <g id="zoomPlus">
                        <use xlink:href="#rim" fill="#404040">
                                <set attributeName="fill" to="#808080" begin="zoomplus.mouseover" end="zoomplus.mouseout"/>
                        </use>
                        <path d="M-4,0h8M0,-4v8" fill="none" stroke="white" stroke-width="1.5" pointer-events="none"/>
                </g>
                <g id="zoomMin">
                        <use xlink:href="#rim" fill="#404040">
                                <set attributeName="fill" to="#808080" begin="zoomminus.mouseover" end="zoomminus.mouseout"/>
                        </use>
                        <path d="M-4,0h8" fill="none" stroke="white" stroke-width="1.5" pointer-events="none"/>
                </g>
                <g id="dirArrow">
                        <path fill="none" stroke="white" stroke-width="1.5" d="M0,-3.0v7 M-2.5,-0.5L0,-3.0L2.5,-0.5"/>
                </g>
               <g id="resetDef">
                       <use xlink:href="#rim2" fill="#404040">
                               <set attributeName="fill" to="#808080" begin="reset.mouseover" end="reset.mouseout"/>
                       </use>
               </g>
        </defs>

<script type="text/javascript">
var viewWidth = 1066;
var viewHeight = 698;
var sectionId = 'dynsection-0';
</script>
<script xlink:href="svgpan.js"/>
<svg id="graph" class="graph">
<g id="viewport">
<title>src/verification/production/production_synchronizer.hpp</title>
<!-- Node1 -->
<g id="node1" class="node">
<title>Node1</title>
<g id="a_node1"><a xlink:title=" ">
<polygon fill="#999999" stroke="#666666" points="350,-690 208,-690 208,-660 350,-660 350,-690"/>
<text text-anchor="start" x="216" y="-678" font-family="Helvetica,sans-Serif" font-size="10.00">src/verification/production</text>
<text text-anchor="middle" x="279" y="-667" font-family="Helvetica,sans-Serif" font-size="10.00">/production_synchronizer.hpp</text>
</a>
</g>
</g>
<!-- Node2 -->
<g id="node2" class="node">
<title>Node2</title>
<g id="a_node2"><a xlink:href="authority_8hpp.html" target="_top" xlink:title=" ">
<polygon fill="white" stroke="#666666" points="116,-376.5 0,-376.5 0,-357.5 116,-357.5 116,-376.5"/>
<text text-anchor="middle" x="58" y="-364.5" font-family="Helvetica,sans-Serif" font-size="10.00">primitives/authority.hpp</text>
</a>
</g>
</g>
<!-- Node1&#45;&gt;Node2 -->
<g id="edge1" class="edge">
<title>Node1&#45;&gt;Node2</title>
<path fill="none" stroke="#63b8ff" d="M207.51,-661.61C152.92,-647.57 87,-618.58 87,-560.5 87,-560.5 87,-560.5 87,-498 87,-458.06 73.8,-412.83 65.21,-387.64"/>
<polygon fill="#63b8ff" stroke="#63b8ff" points="68.58,-386.67 61.95,-378.41 61.98,-389.01 68.58,-386.67"/>
</g>
<!-- Node18 -->
<g id="node18" class="node">
<title>Node18</title>
<g id="a_node18"><a xlink:href="block_8hpp.html" target="_top" xlink:title=" ">
<polygon fill="white" stroke="#666666" points="416.5,-624 313.5,-624 313.5,-605 416.5,-605 416.5,-624"/>
<text text-anchor="middle" x="365" y="-612" font-family="Helvetica,sans-Serif" font-size="10.00">primitives/block.hpp</text>
</a>
</g>
</g>
<!-- Node1&#45;&gt;Node18 -->
<g id="edge18" class="edge">
<title>Node1&#45;&gt;Node18</title>
<path fill="none" stroke="#63b8ff" d="M300.26,-659.54C313.18,-650.75 329.66,-639.54 342.75,-630.63"/>
<polygon fill="#63b8ff" stroke="#63b8ff" points="344.44,-633.72 350.74,-625.2 340.51,-627.93 344.44,-633.72"/>
</g>
<!-- Node31 -->
<g id="node31" class="node">
<title>Node31</title>
<g id="a_node31"><a xlink:href="block__id_8hpp.html" target="_top" xlink:title=" ">
<polygon fill="white" stroke="#666666" points="337,-508.5 221,-508.5 221,-489.5 337,-489.5 337,-508.5"/>
<text text-anchor="middle" x="279" y="-496.5" font-family="Helvetica,sans-Serif" font-size="10.00">primitives/block_id.hpp</text>
</a>
</g>
</g>
<!-- Node1&#45;&gt;Node31 -->
<g id="edge45" class="edge">
<title>Node1&#45;&gt;Node31</title>
<path fill="none" stroke="#63b8ff" d="M279,-659.76C279,-628.82 279,-555.4 279,-519.9"/>
<polygon fill="#63b8ff" stroke="#63b8ff" points="282.5,-520.2 279,-510.2 275.5,-520.2 282.5,-520.2"/>
</g>
<!-- Node3 -->
<g id="node3" class="node">
<title>Node3</title>
<g id="a_node3"><a xlink:title=" ">
<polygon fill="#e0e0e0" stroke="#999999" points="90,-255.5 44,-255.5 44,-236.5 90,-236.5 90,-255.5"/>
<text text-anchor="middle" x="67" y="-243.5" font-family="Helvetica,sans-Serif" font-size="10.00">cstdint</text>
</a>
</g>
</g>
<!-- Node2&#45;&gt;Node3 -->
<g id="edge2" class="edge">
<title>Node2&#45;&gt;Node3</title>
<path fill="none" stroke="#63b8ff" d="M56.43,-357.03C54.35,-343.83 51.26,-318.42 54,-297 55.3,-286.85 58.02,-275.81 60.64,-266.69"/>
<polygon fill="#63b8ff" stroke="#63b8ff" points="63.98,-267.75 63.57,-257.17 57.29,-265.7 63.98,-267.75"/>
</g>
<!-- Node4 -->
<g id="node4" class="node">
<title>Node4</title>
<g id="a_node4"><a xlink:title=" ">
<polygon fill="#e0e0e0" stroke="#999999" points="122.5,-316 63.5,-316 63.5,-297 122.5,-297 122.5,-316"/>
<text text-anchor="middle" x="93" y="-304" font-family="Helvetica,sans-Serif" font-size="10.00">functional</text>
</a>
</g>
</g>
<!-- Node2&#45;&gt;Node4 -->
<g id="edge3" class="edge">
<title>Node2&#45;&gt;Node4</title>
<path fill="none" stroke="#63b8ff" d="M63.16,-357.37C68.13,-349.07 75.78,-336.28 82.1,-325.72"/>
<polygon fill="#63b8ff" stroke="#63b8ff" points="84.91,-327.84 87.04,-317.47 78.9,-324.25 84.91,-327.84"/>
</g>
<!-- Node5 -->
<g id="node5" class="node">
<title>Node5</title>
<g id="a_node5"><a xlink:href="src_2primitives_2common_8hpp.html" target="_top" xlink:title=" ">
<polygon fill="white" stroke="#666666" points="257.5,-316 140.5,-316 140.5,-297 257.5,-297 257.5,-316"/>
<text text-anchor="middle" x="199" y="-304" font-family="Helvetica,sans-Serif" font-size="10.00">primitives/common.hpp</text>
</a>
</g>
</g>
<!-- Node2&#45;&gt;Node5 -->
<g id="edge4" class="edge">
<title>Node2&#45;&gt;Node5</title>
<path fill="none" stroke="#63b8ff" d="M79.41,-357.12C102.71,-347.45 140.19,-331.9 166.98,-320.78"/>
<polygon fill="#63b8ff" stroke="#63b8ff" points="168.09,-324.11 175.99,-317.05 165.41,-317.65 168.09,-324.11"/>
</g>
<!-- Node5&#45;&gt;Node3 -->
<g id="edge5" class="edge">
<title>Node5&#45;&gt;Node3</title>
<path fill="none" stroke="#63b8ff" d="M178.95,-296.62C157.34,-287.04 122.68,-271.68 97.64,-260.58"/>
<polygon fill="#63b8ff" stroke="#63b8ff" points="99.18,-257.43 88.62,-256.58 96.34,-263.83 99.18,-257.43"/>
</g>
<!-- Node6 -->
<g id="node6" class="node">
<title>Node6</title>
<g id="a_node6"><a xlink:title=" ">
<polygon fill="#e0e0e0" stroke="#999999" points="213,-79.5 111,-79.5 111,-60.5 213,-60.5 213,-79.5"/>
<text text-anchor="middle" x="162" y="-67.5" font-family="Helvetica,sans-Serif" font-size="10.00">boost/operators.hpp</text>
</a>
</g>
</g>
<!-- Node5&#45;&gt;Node6 -->
<g id="edge6" class="edge">
<title>Node5&#45;&gt;Node6</title>
<path fill="none" stroke="#63b8ff" d="M197.59,-296.59C192.21,-262.5 172.84,-139.73 165.17,-91.07"/>
<polygon fill="#63b8ff" stroke="#63b8ff" points="168.66,-90.74 163.64,-81.41 161.74,-91.83 168.66,-90.74"/>
</g>
<!-- Node7 -->
<g id="node7" class="node">
<title>Node7</title>
<g id="a_node7"><a xlink:href="session__key_8hpp.html" target="_top" xlink:title=" ">
<polygon fill="white" stroke="#666666" points="488.5,-261 393.5,-261 393.5,-231 488.5,-231 488.5,-261"/>
<text text-anchor="start" x="401.5" y="-249" font-family="Helvetica,sans-Serif" font-size="10.00">primitives/session</text>
<text text-anchor="middle" x="441" y="-238" font-family="Helvetica,sans-Serif" font-size="10.00">_key.hpp</text>
</a>
</g>
</g>
<!-- Node5&#45;&gt;Node7 -->
<g id="edge7" class="edge">
<title>Node5&#45;&gt;Node7</title>
<path fill="none" stroke="#63b8ff" d="M236.02,-296.55C274.92,-287.15 336.66,-272.22 382.23,-261.21"/>
<polygon fill="#63b8ff" stroke="#63b8ff" points="382.78,-264.67 391.68,-258.92 381.14,-257.87 382.78,-264.67"/>
</g>
<!-- Node8 -->
<g id="node8" class="node">
<title>Node8</title>
<g id="a_node8"><a xlink:href="blob_8hpp.html" target="_top" xlink:title=" ">
<polygon fill="white" stroke="#666666" points="584.5,-195 507.5,-195 507.5,-176 584.5,-176 584.5,-195"/>
<text text-anchor="middle" x="546" y="-183" font-family="Helvetica,sans-Serif" font-size="10.00">base/blob.hpp</text>
</a>
</g>
</g>
<!-- Node7&#45;&gt;Node8 -->
<g id="edge8" class="edge">
<title>Node7&#45;&gt;Node8</title>
<path fill="none" stroke="#63b8ff" d="M466.96,-230.54C483.2,-221.49 504.03,-209.88 520.24,-200.85"/>
<polygon fill="#63b8ff" stroke="#63b8ff" points="521.77,-204.01 528.8,-196.08 518.36,-197.89 521.77,-204.01"/>
</g>
<!-- Node9 -->
<g id="node9" class="node">
<title>Node9</title>
<g id="a_node9"><a xlink:title=" ">
<polygon fill="#e0e0e0" stroke="#999999" points="565,-140 527,-140 527,-121 565,-121 565,-140"/>
<text text-anchor="middle" x="546" y="-128" font-family="Helvetica,sans-Serif" font-size="10.00">array</text>
</a>
</g>
</g>
<!-- Node8&#45;&gt;Node9 -->
<g id="edge9" class="edge">
<title>Node8&#45;&gt;Node9</title>
<path fill="none" stroke="#63b8ff" d="M546,-175.75C546,-169.27 546,-160.16 546,-151.9"/>
<polygon fill="#63b8ff" stroke="#63b8ff" points="549.5,-151.96 546,-141.96 542.5,-151.96 549.5,-151.96"/>
</g>
<!-- Node10 -->
<g id="node10" class="node">
<title>Node10</title>
<g id="a_node10"><a xlink:title=" ">
<polygon fill="#e0e0e0" stroke="#999999" points="711,-140 583,-140 583,-121 711,-121 711,-140"/>
<text text-anchor="middle" x="647" y="-128" font-family="Helvetica,sans-Serif" font-size="10.00">boost/functional/hash.hpp</text>
</a>
</g>
</g>
<!-- Node8&#45;&gt;Node10 -->
<g id="edge10" class="edge">
<title>Node8&#45;&gt;Node10</title>
<path fill="none" stroke="#63b8ff" d="M563.13,-175.51C578.75,-167.31 602.08,-155.07 620.17,-145.58"/>
<polygon fill="#63b8ff" stroke="#63b8ff" points="621.55,-148.81 628.78,-141.06 618.3,-142.61 621.55,-148.81"/>
</g>
<!-- Node11 -->
<g id="node11" class="node">
<title>Node11</title>
<g id="a_node11"><a xlink:href="hexutil_8hpp.html" target="_top" xlink:title=" ">
<polygon fill="white" stroke="#666666" points="509,-140 423,-140 423,-121 509,-121 509,-140"/>
<text text-anchor="middle" x="466" y="-128" font-family="Helvetica,sans-Serif" font-size="10.00">base/hexutil.hpp</text>
</a>
</g>
</g>
<!-- Node8&#45;&gt;Node11 -->
<g id="edge11" class="edge">
<title>Node8&#45;&gt;Node11</title>
<path fill="none" stroke="#63b8ff" d="M532.43,-175.51C520.52,-167.62 502.95,-155.98 488.87,-146.65"/>
<polygon fill="#63b8ff" stroke="#63b8ff" points="490.9,-143.8 480.63,-141.19 487.04,-149.63 490.9,-143.8"/>
</g>
<!-- Node17 -->
<g id="node17" class="node">
<title>Node17</title>
<g id="a_node17"><a xlink:title=" ">
<polygon fill="#e0e0e0" stroke="#999999" points="783,-140 729,-140 729,-121 783,-121 783,-140"/>
<text text-anchor="middle" x="756" y="-128" font-family="Helvetica,sans-Serif" font-size="10.00">iostream</text>
</a>
</g>
</g>
<!-- Node8&#45;&gt;Node17 -->
<g id="edge17" class="edge">
<title>Node8&#45;&gt;Node17</title>
<path fill="none" stroke="#63b8ff" d="M581.62,-175.51C619.43,-165.97 678.97,-150.94 717.75,-141.15"/>
<polygon fill="#63b8ff" stroke="#63b8ff" points="718.28,-144.63 727.12,-138.79 716.56,-137.84 718.28,-144.63"/>
</g>
<!-- Node12 -->
<g id="node12" class="node">
<title>Node12</title>
<g id="a_node12"><a xlink:title=" ">
<polygon fill="#e0e0e0" stroke="#999999" points="425,-79.5 359,-79.5 359,-60.5 425,-60.5 425,-79.5"/>
<text text-anchor="middle" x="392" y="-67.5" font-family="Helvetica,sans-Serif" font-size="10.00">string_view</text>
</a>
</g>
</g>
<!-- Node11&#45;&gt;Node12 -->
<g id="edge12" class="edge">
<title>Node11&#45;&gt;Node12</title>
<path fill="none" stroke="#63b8ff" d="M454.76,-120.62C443.46,-111.68 425.79,-97.72 412.08,-86.87"/>
<polygon fill="#63b8ff" stroke="#63b8ff" points="414.55,-84.36 404.53,-80.91 410.21,-89.85 414.55,-84.36"/>
</g>
<!-- Node13 -->
<g id="node13" class="node">
<title>Node13</title>
<g id="a_node13"><a xlink:title=" ">
<polygon fill="#e0e0e0" stroke="#999999" points="559,-79.5 515,-79.5 515,-60.5 559,-60.5 559,-79.5"/>
<text text-anchor="middle" x="537" y="-67.5" font-family="Helvetica,sans-Serif" font-size="10.00">vector</text>
</a>
</g>
</g>
<!-- Node11&#45;&gt;Node13 -->
<g id="edge13" class="edge">
<title>Node11&#45;&gt;Node13</title>
<path fill="none" stroke="#63b8ff" d="M476.78,-120.62C487.52,-111.77 504.25,-97.98 517.35,-87.19"/>
<polygon fill="#63b8ff" stroke="#63b8ff" points="519.45,-89.99 524.95,-80.93 515,-84.59 519.45,-89.99"/>
</g>
<!-- Node14 -->
<g id="node14" class="node">
<title>Node14</title>
<g id="a_node14"><a xlink:title=" ">
<polygon fill="#e0e0e0" stroke="#999999" points="496.5,-79.5 443.5,-79.5 443.5,-60.5 496.5,-60.5 496.5,-79.5"/>
<text text-anchor="middle" x="470" y="-67.5" font-family="Helvetica,sans-Serif" font-size="10.00">gsl/span</text>
</a>
</g>
</g>
<!-- Node11&#45;&gt;Node14 -->
<g id="edge14" class="edge">
<title>Node11&#45;&gt;Node14</title>
<path fill="none" stroke="#63b8ff" d="M466.59,-120.87C467.13,-113 467.94,-101.1 468.64,-90.89"/>
<polygon fill="#63b8ff" stroke="#63b8ff" points="472.11,-91.39 469.3,-81.18 465.13,-90.92 472.11,-91.39"/>
</g>
<!-- Node15 -->
<g id="node15" class="node">
<title>Node15</title>
<g id="a_node15"><a xlink:href="outcome_8hpp.html" target="_top" xlink:title=" ">
<polygon fill="white" stroke="#666666" points="690.5,-79.5 577.5,-79.5 577.5,-60.5 690.5,-60.5 690.5,-79.5"/>
<text text-anchor="middle" x="634" y="-67.5" font-family="Helvetica,sans-Serif" font-size="10.00">outcome/outcome.hpp</text>
</a>
</g>
</g>
<!-- Node11&#45;&gt;Node15 -->
<g id="edge15" class="edge">
<title>Node11&#45;&gt;Node15</title>
<path fill="none" stroke="#63b8ff" d="M491.52,-120.62C519.76,-110.78 565.52,-94.84 597.54,-83.69"/>
<polygon fill="#63b8ff" stroke="#63b8ff" points="598.52,-87.06 606.81,-80.47 596.22,-80.45 598.52,-87.06"/>
</g>
<!-- Node16 -->
<g id="node16" class="node">
<title>Node16</title>
<g id="a_node16"><a xlink:title=" ">
<polygon fill="#e0e0e0" stroke="#999999" points="704.5,-19 563.5,-19 563.5,0 704.5,0 704.5,-19"/>
<text text-anchor="middle" x="634" y="-7" font-family="Helvetica,sans-Serif" font-size="10.00">libp2p/outcome/outcome.hpp</text>
</a>
</g>
</g>
<!-- Node15&#45;&gt;Node16 -->
<g id="edge16" class="edge">
<title>Node15&#45;&gt;Node16</title>
<path fill="none" stroke="#63b8ff" d="M634,-60.37C634,-52.5 634,-40.6 634,-30.39"/>
<polygon fill="#63b8ff" stroke="#63b8ff" points="637.5,-30.68 634,-20.68 630.5,-30.68 637.5,-30.68"/>
</g>
<!-- Node19 -->
<g id="node19" class="node">
<title>Node19</title>
<g id="a_node19"><a xlink:href="block__header_8hpp.html" target="_top" xlink:title=" ">
<polygon fill="white" stroke="#666666" points="716.5,-569 579.5,-569 579.5,-550 716.5,-550 716.5,-569"/>
<text text-anchor="middle" x="648" y="-557" font-family="Helvetica,sans-Serif" font-size="10.00">primitives/block_header.hpp</text>
</a>
</g>
</g>
<!-- Node18&#45;&gt;Node19 -->
<g id="edge19" class="edge">
<title>Node18&#45;&gt;Node19</title>
<path fill="none" stroke="#63b8ff" d="M413.01,-604.51C461.64,-595.4 536.93,-581.3 589.13,-571.52"/>
<polygon fill="#63b8ff" stroke="#63b8ff" points="589.56,-575.01 598.74,-569.72 588.27,-568.13 589.56,-575.01"/>
</g>
<!-- Node30 -->
<g id="node30" class="node">
<title>Node30</title>
<g id="a_node30"><a xlink:href="extrinsic_8hpp.html" target="_top" xlink:title=" ">
<polygon fill="white" stroke="#666666" points="471,-195 355,-195 355,-176 471,-176 471,-195"/>
<text text-anchor="middle" x="413" y="-183" font-family="Helvetica,sans-Serif" font-size="10.00">primitives/extrinsic.hpp</text>
</a>
</g>
</g>
<!-- Node18&#45;&gt;Node30 -->
<g id="edge43" class="edge">
<title>Node18&#45;&gt;Node30</title>
<path fill="none" stroke="#63b8ff" d="M365,-604.67C365,-585.58 365,-539.02 365,-500 365,-500 365,-500 365,-305.5 365,-271.33 370.27,-262.29 384,-231 388.07,-221.72 393.99,-212.21 399.42,-204.38"/>
<polygon fill="#63b8ff" stroke="#63b8ff" points="402.15,-206.58 405.19,-196.43 396.48,-202.47 402.15,-206.58"/>
</g>
<!-- Node19&#45;&gt;Node5 -->
<g id="edge24" class="edge">
<title>Node19&#45;&gt;Node5</title>
<path fill="none" stroke="#63b8ff" d="M579.37,-557.06C473.34,-553.91 275.31,-544.08 212,-514 165.23,-491.78 134.52,-468.49 146,-418 153.83,-383.55 173.81,-347.3 186.87,-326.08"/>
<polygon fill="#63b8ff" stroke="#63b8ff" points="189.77,-328.04 192.16,-317.72 183.86,-324.3 189.77,-328.04"/>
</g>
<!-- Node19&#45;&gt;Node8 -->
<g id="edge23" class="edge">
<title>Node19&#45;&gt;Node8</title>
<path fill="none" stroke="#63b8ff" d="M635.91,-549.72C603.48,-525.07 517,-451.49 517,-368 517,-368 517,-368 517,-305.5 517,-269.47 529.71,-228.99 538.3,-205.75"/>
<polygon fill="#63b8ff" stroke="#63b8ff" points="541.46,-207.28 541.78,-196.69 534.93,-204.77 541.46,-207.28"/>
</g>
<!-- Node19&#45;&gt;Node13 -->
<g id="edge21" class="edge">
<title>Node19&#45;&gt;Node13</title>
<path fill="none" stroke="#63b8ff" d="M666.76,-549.52C697.9,-533.62 759.97,-497.46 792,-448 811.87,-417.33 811,-404.54 811,-368 811,-368 811,-368 811,-184.5 811,-155.04 814.15,-140.43 792,-121 716.53,-54.8 665.31,-113.35 569,-85 568.01,-84.71 567.01,-84.39 566,-84.06"/>
<polygon fill="#63b8ff" stroke="#63b8ff" points="567.32,-80.82 556.73,-80.5 564.81,-87.35 567.32,-80.82"/>
</g>
<!-- Node20 -->
<g id="node20" class="node">
<title>Node20</title>
<g id="a_node20"><a xlink:title=" ">
<polygon fill="#e0e0e0" stroke="#999999" points="996,-508.5 934,-508.5 934,-489.5 996,-489.5 996,-508.5"/>
<text text-anchor="middle" x="965" y="-496.5" font-family="Helvetica,sans-Serif" font-size="10.00">type_traits</text>
</a>
</g>
</g>
<!-- Node19&#45;&gt;Node20 -->
<g id="edge20" class="edge">
<title>Node19&#45;&gt;Node20</title>
<path fill="none" stroke="#63b8ff" d="M716.99,-550.87C773.46,-543.8 855.12,-531.69 925,-514 926.86,-513.53 928.76,-513.01 930.67,-512.45"/>
<polygon fill="#63b8ff" stroke="#63b8ff" points="931.61,-515.82 940.08,-509.45 929.49,-509.15 931.61,-515.82"/>
</g>
<!-- Node21 -->
<g id="node21" class="node">
<title>Node21</title>
<g id="a_node21"><a xlink:title=" ">
<polygon fill="#e0e0e0" stroke="#999999" points="1058,-382 954,-382 954,-352 1058,-352 1058,-382"/>
<text text-anchor="start" x="962" y="-370" font-family="Helvetica,sans-Serif" font-size="10.00">boost/multiprecision</text>
<text text-anchor="middle" x="1006" y="-359" font-family="Helvetica,sans-Serif" font-size="10.00">/cpp_int.hpp</text>
</a>
</g>
</g>
<!-- Node19&#45;&gt;Node21 -->
<g id="edge22" class="edge">
<title>Node19&#45;&gt;Node21</title>
<path fill="none" stroke="#63b8ff" d="M716.73,-554.74C815.06,-548.66 986.19,-535.15 1005,-514 1034.4,-480.93 1024.17,-425.08 1014.69,-392.89"/>
<polygon fill="#63b8ff" stroke="#63b8ff" points="1018.11,-392.1 1011.76,-383.63 1011.44,-394.22 1018.11,-392.1"/>
</g>
<!-- Node22 -->
<g id="node22" class="node">
<title>Node22</title>
<g id="a_node22"><a xlink:href="compact__integer_8hpp.html" target="_top" xlink:title=" ">
<polygon fill="white" stroke="#666666" points="915.5,-514 816.5,-514 816.5,-484 915.5,-484 915.5,-514"/>
<text text-anchor="start" x="824.5" y="-502" font-family="Helvetica,sans-Serif" font-size="10.00">primitives/compact</text>
<text text-anchor="middle" x="866" y="-491" font-family="Helvetica,sans-Serif" font-size="10.00">_integer.hpp</text>
</a>
</g>
</g>
<!-- Node19&#45;&gt;Node22 -->
<g id="edge25" class="edge">
<title>Node19&#45;&gt;Node22</title>
<path fill="none" stroke="#63b8ff" d="M681.11,-549.62C713.99,-540.79 765.16,-527.06 805.34,-516.28"/>
<polygon fill="#63b8ff" stroke="#63b8ff" points="806.14,-519.69 814.9,-513.71 804.33,-512.93 806.14,-519.69"/>
</g>
<!-- Node24 -->
<g id="node24" class="node">
<title>Node24</title>
<g id="a_node24"><a xlink:href="digest_8hpp.html" target="_top" xlink:title=" ">
<polygon fill="white" stroke="#666666" points="499,-508.5 393,-508.5 393,-489.5 499,-489.5 499,-508.5"/>
<text text-anchor="middle" x="446" y="-496.5" font-family="Helvetica,sans-Serif" font-size="10.00">primitives/digest.hpp</text>
</a>
</g>
</g>
<!-- Node19&#45;&gt;Node24 -->
<g id="edge30" class="edge">
<title>Node19&#45;&gt;Node24</title>
<path fill="none" stroke="#63b8ff" d="M617.32,-549.62C582.76,-539.61 526.41,-523.29 487.83,-512.12"/>
<polygon fill="#63b8ff" stroke="#63b8ff" points="489,-508.81 478.42,-509.39 487.05,-515.53 489,-508.81"/>
</g>
<!-- Node23 -->
<g id="node23" class="node">
<title>Node23</title>
<g id="a_node23"><a xlink:href="scale_2types_8hpp.html" target="_top" xlink:title=" ">
<polygon fill="white" stroke="#666666" points="926,-442.5 842,-442.5 842,-423.5 926,-423.5 926,-442.5"/>
<text text-anchor="middle" x="884" y="-430.5" font-family="Helvetica,sans-Serif" font-size="10.00">scale/types.hpp</text>
</a>
</g>
</g>
<!-- Node22&#45;&gt;Node23 -->
<g id="edge26" class="edge">
<title>Node22&#45;&gt;Node23</title>
<path fill="none" stroke="#63b8ff" d="M869.99,-483.8C872.47,-474.99 875.69,-463.55 878.41,-453.86"/>
<polygon fill="#63b8ff" stroke="#63b8ff" points="881.76,-454.88 881.1,-444.3 875.03,-452.98 881.76,-454.88"/>
</g>
<!-- Node23&#45;&gt;Node13 -->
<g id="edge27" class="edge">
<title>Node23&#45;&gt;Node13</title>
<path fill="none" stroke="#63b8ff" d="M879.71,-423.18C870.36,-403.13 849,-352.4 849,-307.5 849,-307.5 849,-307.5 849,-184.5 849,-154.33 848.56,-139.84 825,-121 735.27,-49.24 679.55,-116.32 569,-85 567.83,-84.67 566.65,-84.31 565.47,-83.91"/>
<polygon fill="#63b8ff" stroke="#63b8ff" points="566.96,-80.74 556.37,-80.42 564.45,-87.27 566.96,-80.74"/>
</g>
<!-- Node23&#45;&gt;Node15 -->
<g id="edge29" class="edge">
<title>Node23&#45;&gt;Node15</title>
<path fill="none" stroke="#63b8ff" d="M884.36,-423.25C885.15,-402.92 887,-350.96 887,-307.5 887,-307.5 887,-307.5 887,-184.5 887,-154.33 885.84,-140.72 863,-121 839.21,-100.46 760.77,-86.51 702.28,-78.67"/>
<polygon fill="#63b8ff" stroke="#63b8ff" points="702.74,-75.2 692.37,-77.38 701.84,-82.14 702.74,-75.2"/>
</g>
<!-- Node23&#45;&gt;Node21 -->
<g id="edge28" class="edge">
<title>Node23&#45;&gt;Node21</title>
<path fill="none" stroke="#63b8ff" d="M900.96,-423.1C918.34,-413.99 945.92,-399.52 968.46,-387.7"/>
<polygon fill="#63b8ff" stroke="#63b8ff" points="969.83,-390.93 977.06,-383.18 966.58,-384.73 969.83,-390.93"/>
</g>
<!-- Node25 -->
<g id="node25" class="node">
<title>Node25</title>
<g id="a_node25"><a xlink:title=" ">
<polygon fill="#e0e0e0" stroke="#999999" points="674.5,-442.5 583.5,-442.5 583.5,-423.5 674.5,-423.5 674.5,-442.5"/>
<text text-anchor="middle" x="629" y="-430.5" font-family="Helvetica,sans-Serif" font-size="10.00">boost/variant.hpp</text>
</a>
</g>
</g>
<!-- Node24&#45;&gt;Node25 -->
<g id="edge31" class="edge">
<title>Node24&#45;&gt;Node25</title>
<path fill="none" stroke="#63b8ff" d="M471.45,-489.1C503.04,-478.05 557.14,-459.13 592.98,-446.6"/>
<polygon fill="#63b8ff" stroke="#63b8ff" points="593.76,-450.03 602.05,-443.43 591.45,-443.42 593.76,-450.03"/>
</g>
<!-- Node26 -->
<g id="node26" class="node">
<title>Node26</title>
<g id="a_node26"><a xlink:href="buffer_8hpp.html" target="_top" xlink:title=" ">
<polygon fill="white" stroke="#666666" points="404.5,-140 321.5,-140 321.5,-121 404.5,-121 404.5,-140"/>
<text text-anchor="middle" x="363" y="-128" font-family="Helvetica,sans-Serif" font-size="10.00">base/buffer.hpp</text>
</a>
</g>
</g>
<!-- Node24&#45;&gt;Node26 -->
<g id="edge32" class="edge">
<title>Node24&#45;&gt;Node26</title>
<path fill="none" stroke="#63b8ff" d="M428.18,-489.12C394.99,-471.18 327,-427.21 327,-368 327,-368 327,-368 327,-245 327,-210.32 342.46,-172.35 353.12,-150.3"/>
<polygon fill="#63b8ff" stroke="#63b8ff" points="356.09,-152.17 357.46,-141.67 349.84,-149.03 356.09,-152.17"/>
</g>
<!-- Node28 -->
<g id="node28" class="node">
<title>Node28</title>
<g id="a_node28"><a xlink:href="unused_8hpp.html" target="_top" xlink:title=" ">
<polygon fill="white" stroke="#666666" points="783,-442.5 693,-442.5 693,-423.5 783,-423.5 783,-442.5"/>
<text text-anchor="middle" x="738" y="-430.5" font-family="Helvetica,sans-Serif" font-size="10.00">base/unused.hpp</text>
</a>
</g>
</g>
<!-- Node24&#45;&gt;Node28 -->
<g id="edge39" class="edge">
<title>Node24&#45;&gt;Node28</title>
<path fill="none" stroke="#63b8ff" d="M491.77,-489.04C539.79,-479.49 617.41,-463.62 684,-448 687.09,-447.27 690.28,-446.5 693.49,-445.71"/>
<polygon fill="#63b8ff" stroke="#63b8ff" points="694.05,-449.18 702.89,-443.35 692.34,-442.39 694.05,-449.18"/>
</g>
<!-- Node29 -->
<g id="node29" class="node">
<title>Node29</title>
<g id="a_node29"><a xlink:href="scheduled__change_8hpp.html" target="_top" xlink:title=" ">
<polygon fill="white" stroke="#666666" points="261,-448 155,-448 155,-418 261,-418 261,-448"/>
<text text-anchor="start" x="163" y="-436" font-family="Helvetica,sans-Serif" font-size="10.00">primitives/scheduled</text>
<text text-anchor="middle" x="208" y="-425" font-family="Helvetica,sans-Serif" font-size="10.00">_change.hpp</text>
</a>
</g>
</g>
<!-- Node24&#45;&gt;Node29 -->
<g id="edge40" class="edge">
<title>Node24&#45;&gt;Node29</title>
<path fill="none" stroke="#63b8ff" d="M412.66,-489.03C376.37,-479.28 317.49,-463.44 272.18,-451.26"/>
<polygon fill="#63b8ff" stroke="#63b8ff" points="273.29,-447.93 262.73,-448.72 271.48,-454.69 273.29,-447.93"/>
</g>
<!-- Node26&#45;&gt;Node6 -->
<g id="edge36" class="edge">
<title>Node26&#45;&gt;Node6</title>
<path fill="none" stroke="#63b8ff" d="M332.47,-120.62C298.09,-110.61 242.01,-94.29 203.63,-83.12"/>
<polygon fill="#63b8ff" stroke="#63b8ff" points="204.85,-79.83 194.27,-80.39 202.89,-86.55 204.85,-79.83"/>
</g>
<!-- Node26&#45;&gt;Node12 -->
<g id="edge33" class="edge">
<title>Node26&#45;&gt;Node12</title>
<path fill="none" stroke="#63b8ff" d="M367.28,-120.87C371.31,-112.75 377.47,-100.31 382.64,-89.89"/>
<polygon fill="#63b8ff" stroke="#63b8ff" points="385.73,-91.54 387.03,-81.02 379.45,-88.43 385.73,-91.54"/>
</g>
<!-- Node26&#45;&gt;Node13 -->
<g id="edge34" class="edge">
<title>Node26&#45;&gt;Node13</title>
<path fill="none" stroke="#63b8ff" d="M395.76,-120.54C425,-112.26 468.81,-99.12 506,-85 506.62,-84.76 507.25,-84.52 507.88,-84.27"/>
<polygon fill="#63b8ff" stroke="#63b8ff" points="508.88,-87.65 516.74,-80.55 506.17,-81.2 508.88,-87.65"/>
</g>
<!-- Node26&#45;&gt;Node14 -->
<g id="edge37" class="edge">
<title>Node26&#45;&gt;Node14</title>
<path fill="none" stroke="#63b8ff" d="M379.25,-120.62C396.3,-111.29 423.36,-96.5 443.51,-85.49"/>
<polygon fill="#63b8ff" stroke="#63b8ff" points="445.17,-88.56 452.27,-80.69 441.81,-82.42 445.17,-88.56"/>
</g>
<!-- Node26&#45;&gt;Node15 -->
<g id="edge38" class="edge">
<title>Node26&#45;&gt;Node15</title>
<path fill="none" stroke="#63b8ff" d="M404.45,-120.55C451.97,-110.29 529.94,-93.46 581.62,-82.31"/>
<polygon fill="#63b8ff" stroke="#63b8ff" points="582.03,-85.8 591.07,-80.27 580.56,-78.96 582.03,-85.8"/>
</g>
<!-- Node27 -->
<g id="node27" class="node">
<title>Node27</title>
<g id="a_node27"><a xlink:title=" ">
<polygon fill="#e0e0e0" stroke="#999999" points="341,-85 231,-85 231,-55 341,-55 341,-85"/>
<text text-anchor="start" x="239" y="-73" font-family="Helvetica,sans-Serif" font-size="10.00">boost/container_hash</text>
<text text-anchor="middle" x="286" y="-62" font-family="Helvetica,sans-Serif" font-size="10.00">/hash.hpp</text>
</a>
</g>
</g>
<!-- Node26&#45;&gt;Node27 -->
<g id="edge35" class="edge">
<title>Node26&#45;&gt;Node27</title>
<path fill="none" stroke="#63b8ff" d="M351.31,-120.62C341.42,-113.1 326.85,-102.04 313.99,-92.26"/>
<polygon fill="#63b8ff" stroke="#63b8ff" points="316.29,-89.62 306.21,-86.36 312.06,-95.19 316.29,-89.62"/>
</g>
<!-- Node29&#45;&gt;Node2 -->
<g id="edge41" class="edge">
<title>Node29&#45;&gt;Node2</title>
<path fill="none" stroke="#63b8ff" d="M174.34,-417.64C148.91,-406.79 114.25,-392 89.39,-381.39"/>
<polygon fill="#63b8ff" stroke="#63b8ff" points="91.02,-378.29 80.45,-377.58 88.28,-384.72 91.02,-378.29"/>
</g>
<!-- Node29&#45;&gt;Node5 -->
<g id="edge42" class="edge">
<title>Node29&#45;&gt;Node5</title>
<path fill="none" stroke="#63b8ff" d="M206.97,-417.72C205.37,-395.64 202.3,-353.12 200.47,-327.83"/>
<polygon fill="#63b8ff" stroke="#63b8ff" points="203.96,-327.61 199.75,-317.89 196.98,-328.12 203.96,-327.61"/>
</g>
<!-- Node30&#45;&gt;Node26 -->
<g id="edge44" class="edge">
<title>Node30&#45;&gt;Node26</title>
<path fill="none" stroke="#63b8ff" d="M404.74,-175.75C397.84,-168.43 387.78,-157.76 379.26,-148.74"/>
<polygon fill="#63b8ff" stroke="#63b8ff" points="381.88,-146.42 372.47,-141.54 376.79,-151.22 381.88,-146.42"/>
</g>
<!-- Node31&#45;&gt;Node5 -->
<g id="edge48" class="edge">
<title>Node31&#45;&gt;Node5</title>
<path fill="none" stroke="#63b8ff" d="M279.3,-489.31C279.53,-474.3 278.8,-442.76 270,-418 257.21,-382.02 230.77,-345.82 214.01,-325.09"/>
<polygon fill="#63b8ff" stroke="#63b8ff" points="216.91,-323.11 207.83,-317.64 211.52,-327.57 216.91,-323.11"/>
</g>
<!-- Node31&#45;&gt;Node8 -->
<g id="edge47" class="edge">
<title>Node31&#45;&gt;Node8</title>
<path fill="none" stroke="#63b8ff" d="M315.37,-489.01C390.31,-469.4 555,-420.37 555,-368 555,-368 555,-368 555,-305.5 555,-270.71 551.13,-230.37 548.46,-206.72"/>
<polygon fill="#63b8ff" stroke="#63b8ff" points="551.96,-206.47 547.32,-196.94 545.01,-207.28 551.96,-206.47"/>
</g>
<!-- Node31&#45;&gt;Node25 -->
<g id="edge46" class="edge">
<title>Node31&#45;&gt;Node25</title>
<path fill="none" stroke="#63b8ff" d="M336.96,-489.03C395.63,-479.71 488.89,-464.24 569,-448 573.01,-447.19 577.16,-446.3 581.32,-445.39"/>
<polygon fill="#63b8ff" stroke="#63b8ff" points="581.8,-448.87 590.79,-443.26 580.27,-442.04 581.8,-448.87"/>
</g>
</g>
</svg>
        <g id="navigator" transform="translate(0 0)" fill="#404254">
                <rect fill="#f2f5e9" fill-opacity="0.5" stroke="#606060" stroke-width=".5" x="0" y="0" width="60" height="60"/>
                <use id="zoomplus" xlink:href="#zoomPlus" x="17" y="9" onmousedown="handleZoom(evt,'in')"/>
                <use id="zoomminus" xlink:href="#zoomMin" x="42" y="9" onmousedown="handleZoom(evt,'out')"/>
                <use id="reset" xlink:href="#resetDef" x="30" y="36" onmousedown="handleReset()"/>
                <g id="arrowUp" xlink:href="#dirArrow" transform="translate(30 24)" onmousedown="handlePan(0,-1)">
                  <use xlink:href="#rim" fill="#404040">
                        <set attributeName="fill" to="#808080" begin="arrowUp.mouseover" end="arrowUp.mouseout"/>
                  </use>
                  <path fill="none" stroke="white" stroke-width="1.5" d="M0,-3.0v7 M-2.5,-0.5L0,-3.0L2.5,-0.5"/>
                </g>
                <g id="arrowRight" xlink:href="#dirArrow" transform="rotate(90) translate(36 -43)" onmousedown="handlePan(1,0)">
                  <use xlink:href="#rim" fill="#404040">
                        <set attributeName="fill" to="#808080" begin="arrowRight.mouseover" end="arrowRight.mouseout"/>
                  </use>
                  <path fill="none" stroke="white" stroke-width="1.5" d="M0,-3.0v7 M-2.5,-0.5L0,-3.0L2.5,-0.5"/>
                </g>
                <g id="arrowDown" xlink:href="#dirArrow" transform="rotate(180) translate(-30 -48)" onmousedown="handlePan(0,1)">
                  <use xlink:href="#rim" fill="#404040">
                        <set attributeName="fill" to="#808080" begin="arrowDown.mouseover" end="arrowDown.mouseout"/>
                  </use>
                  <path fill="none" stroke="white" stroke-width="1.5" d="M0,-3.0v7 M-2.5,-0.5L0,-3.0L2.5,-0.5"/>
                </g>
                <g id="arrowLeft" xlink:href="#dirArrow" transform="rotate(270) translate(-36 17)" onmousedown="handlePan(-1,0)">
                  <use xlink:href="#rim" fill="#404040">
                        <set attributeName="fill" to="#808080" begin="arrowLeft.mouseover" end="arrowLeft.mouseout"/>
                  </use>
                  <path fill="none" stroke="white" stroke-width="1.5" d="M0,-3.0v7 M-2.5,-0.5L0,-3.0L2.5,-0.5"/>
                </g>
        </g>
        <svg viewBox="0 0 15 15" width="100%" height="30px" preserveAspectRatio="xMaxYMin meet">
         <g id="arrow_out" transform="scale(0.3 0.3)">
          <a xlink:href="production__synchronizer_8hpp__incl_org.svg" target="_base">
           <rect id="button" ry="5" rx="5" y="6" x="6" height="38" width="38"
                fill="#f2f5e9" fill-opacity="0.5" stroke="#606060" stroke-width="1.0"/>
           <path id="arrow"
             d="M 11.500037,31.436501 C 11.940474,20.09759 22.043105,11.32322 32.158766,21.979434 L 37.068811,17.246167 C 37.068811,17.246167 37.088388,32 37.088388,32 L 22.160133,31.978069 C 22.160133,31.978069 26.997745,27.140456 26.997745,27.140456 C 18.528582,18.264221 13.291696,25.230495 11.500037,31.436501 z"
             style="fill:#404040;"/>
          </a>
         </g>
        </svg>
</svg>
