<?xml version="1.0" encoding="UTF-8" standalone="no"?>
<!DOCTYPE svg PUBLIC "-//W3C//DTD SVG 1.1//EN"
 "http://www.w3.org/Graphics/SVG/1.1/DTD/svg11.dtd">
<!-- Generated by graphviz version 7.0.5 (20221223.1930)
 -->
<!-- Title: src/verification/production/types/production_meta.hpp Pages: 1 -->
<svg width="556pt" height="445pt"
 viewBox="0.00 0.00 555.50 445.00" xmlns="http://www.w3.org/2000/svg" xmlns:xlink="http://www.w3.org/1999/xlink">
<g id="graph0" class="graph" transform="scale(1 1) rotate(0) translate(4 441)">
<title>src/verification/production/types/production_meta.hpp</title>
<!-- Node1 -->
<g id="node1" class="node">
<title>Node1</title>
<g id="a_node1"><a xlink:title=" ">
<polygon fill="#999999" stroke="#666666" points="388,-437 252,-437 252,-407 388,-407 388,-437"/>
<text text-anchor="start" x="260" y="-425" font-family="Helvetica,sans-Serif" font-size="10.00">src/verification/production</text>
<text text-anchor="middle" x="320" y="-414" font-family="Helvetica,sans-Serif" font-size="10.00">/types/production_meta.hpp</text>
</a>
</g>
</g>
<!-- Node2 -->
<g id="node2" class="node">
<title>Node2</title>
<g id="a_node2"><a xlink:href="production_8hpp.html" target="_top" xlink:title=" ">
<polygon fill="white" stroke="#666666" points="393,-371 247,-371 247,-352 393,-352 393,-371"/>
<text text-anchor="middle" x="320" y="-359" font-family="Helvetica,sans-Serif" font-size="10.00">src/verification/production.hpp</text>
</a>
</g>
</g>
<!-- Node1&#45;&gt;Node2 -->
<g id="edge1" class="edge">
<title>Node1&#45;&gt;Node2</title>
<path fill="none" stroke="#63b8ff" d="M320,-395.3C320,-386.65 320,-377.58 320,-371.18"/>
<polygon fill="#63b8ff" stroke="#63b8ff" points="316.5,-395.03 320,-405.03 323.5,-395.03 316.5,-395.03"/>
</g>
<!-- Node3 -->
<g id="node3" class="node">
<title>Node3</title>
<g id="a_node3"><a xlink:href="production__impl_8hpp.html" target="_top" xlink:title=" ">
<polygon fill="white" stroke="#666666" points="384,-316 256,-316 256,-286 384,-286 384,-316"/>
<text text-anchor="start" x="264" y="-304" font-family="Helvetica,sans-Serif" font-size="10.00">src/verification/production</text>
<text text-anchor="middle" x="320" y="-293" font-family="Helvetica,sans-Serif" font-size="10.00">/impl/production_impl.hpp</text>
</a>
</g>
</g>
<!-- Node2&#45;&gt;Node3 -->
<g id="edge2" class="edge">
<title>Node2&#45;&gt;Node3</title>
<path fill="none" stroke="#63b8ff" d="M320,-340.51C320,-332.49 320,-323.43 320,-316.11"/>
<polygon fill="#63b8ff" stroke="#63b8ff" points="316.5,-340.35 320,-350.35 323.5,-340.35 316.5,-340.35"/>
</g>
<!-- Node4 -->
<g id="node4" class="node">
<title>Node4</title>
<g id="a_node4"><a xlink:href="block__producing__node__injector_8hpp.html" target="_top" xlink:title=" ">
<polygon fill="white" stroke="#666666" points="245.5,-184 100.5,-184 100.5,-154 245.5,-154 245.5,-184"/>
<text text-anchor="start" x="108.5" y="-172" font-family="Helvetica,sans-Serif" font-size="10.00">src/injector/block</text>
<text text-anchor="middle" x="173" y="-161" font-family="Helvetica,sans-Serif" font-size="10.00">_producing_node_injector.hpp</text>
</a>
</g>
</g>
<!-- Node3&#45;&gt;Node4 -->
<g id="edge3" class="edge">
<title>Node3&#45;&gt;Node4</title>
<path fill="none" stroke="#63b8ff" d="M291.53,-278.77C280.26,-270.11 267.31,-259.82 256,-250 230.76,-228.09 203.13,-200.72 186.97,-184.34"/>
<polygon fill="#63b8ff" stroke="#63b8ff" points="289.26,-281.44 299.34,-284.71 293.5,-275.87 289.26,-281.44"/>
</g>
<!-- Node9 -->
<g id="node9" class="node">
<title>Node9</title>
<g id="a_node9"><a xlink:href="validating__node__injector_8hpp.html" target="_top" xlink:title=" ">
<polygon fill="white" stroke="#666666" points="374.5,-250 265.5,-250 265.5,-220 374.5,-220 374.5,-250"/>
<text text-anchor="start" x="273.5" y="-238" font-family="Helvetica,sans-Serif" font-size="10.00">src/injector/validating</text>
<text text-anchor="middle" x="320" y="-227" font-family="Helvetica,sans-Serif" font-size="10.00">_node_injector.hpp</text>
</a>
</g>
</g>
<!-- Node3&#45;&gt;Node9 -->
<g id="edge8" class="edge">
<title>Node3&#45;&gt;Node9</title>
<path fill="none" stroke="#63b8ff" d="M320,-274.39C320,-266.13 320,-257.28 320,-250.16"/>
<polygon fill="#63b8ff" stroke="#63b8ff" points="316.5,-274.28 320,-284.28 323.5,-274.28 316.5,-274.28"/>
</g>
<!-- Node13 -->
<g id="node13" class="node">
<title>Node13</title>
<g id="a_node13"><a xlink:href="production__impl_8cpp.html" target="_top" xlink:title=" ">
<polygon fill="white" stroke="#666666" points="521,-250 393,-250 393,-220 521,-220 521,-250"/>
<text text-anchor="start" x="401" y="-238" font-family="Helvetica,sans-Serif" font-size="10.00">src/verification/production</text>
<text text-anchor="middle" x="457" y="-227" font-family="Helvetica,sans-Serif" font-size="10.00">/impl/production_impl.cpp</text>
</a>
</g>
</g>
<!-- Node3&#45;&gt;Node13 -->
<g id="edge14" class="edge">
<title>Node3&#45;&gt;Node13</title>
<path fill="none" stroke="#63b8ff" d="M360.98,-280.86C381.96,-271.05 407.08,-259.32 426.36,-250.31"/>
<polygon fill="#63b8ff" stroke="#63b8ff" points="359.7,-277.59 352.12,-285 362.66,-283.94 359.7,-277.59"/>
</g>
<!-- Node5 -->
<g id="node5" class="node">
<title>Node5</title>
<g id="a_node5"><a xlink:href="block__producing__node__application_8hpp.html" target="_top" xlink:title=" ">
<polygon fill="white" stroke="#666666" points="116,-118 0,-118 0,-77 116,-77 116,-118"/>
<text text-anchor="start" x="8" y="-106" font-family="Helvetica,sans-Serif" font-size="10.00">src/application/impl</text>
<text text-anchor="start" x="8" y="-95" font-family="Helvetica,sans-Serif" font-size="10.00">/block_producing_node</text>
<text text-anchor="middle" x="58" y="-84" font-family="Helvetica,sans-Serif" font-size="10.00">_application.hpp</text>
</a>
</g>
</g>
<!-- Node4&#45;&gt;Node5 -->
<g id="edge4" class="edge">
<title>Node4&#45;&gt;Node5</title>
<path fill="none" stroke="#63b8ff" d="M139.58,-147.8C124.27,-138.55 106.2,-127.63 90.95,-118.42"/>
<polygon fill="#63b8ff" stroke="#63b8ff" points="137.51,-150.64 147.88,-152.82 141.13,-144.65 137.51,-150.64"/>
</g>
<!-- Node8 -->
<g id="node8" class="node">
<title>Node8</title>
<g id="a_node8"><a xlink:href="block__producing__node__injector_8cpp.html" target="_top" xlink:title=" ">
<polygon fill="white" stroke="#666666" points="279.5,-112.5 134.5,-112.5 134.5,-82.5 279.5,-82.5 279.5,-112.5"/>
<text text-anchor="start" x="142.5" y="-100.5" font-family="Helvetica,sans-Serif" font-size="10.00">src/injector/block</text>
<text text-anchor="middle" x="207" y="-89.5" font-family="Helvetica,sans-Serif" font-size="10.00">_producing_node_injector.cpp</text>
</a>
</g>
</g>
<!-- Node4&#45;&gt;Node8 -->
<g id="edge7" class="edge">
<title>Node4&#45;&gt;Node8</title>
<path fill="none" stroke="#63b8ff" d="M184.96,-143.56C189.97,-133.3 195.64,-121.73 199.96,-112.88"/>
<polygon fill="#63b8ff" stroke="#63b8ff" points="181.96,-141.72 180.71,-152.24 188.25,-144.8 181.96,-141.72"/>
</g>
<!-- Node6 -->
<g id="node6" class="node">
<title>Node6</title>
<g id="a_node6"><a xlink:href="app__delegate_8cpp.html" target="_top" xlink:title=" ">
<polygon fill="white" stroke="#666666" points="308,-30 192,-30 192,-11 308,-11 308,-30"/>
<text text-anchor="middle" x="250" y="-18" font-family="Helvetica,sans-Serif" font-size="10.00">node/app_delegate.cpp</text>
</a>
</g>
</g>
<!-- Node5&#45;&gt;Node6 -->
<g id="edge5" class="edge">
<title>Node5&#45;&gt;Node6</title>
<path fill="none" stroke="#63b8ff" d="M119.55,-72.46C156.21,-58.13 200.6,-40.8 227,-30.48"/>
<polygon fill="#63b8ff" stroke="#63b8ff" points="118.4,-69.15 110.36,-76.05 120.95,-75.67 118.4,-69.15"/>
</g>
<!-- Node7 -->
<g id="node7" class="node">
<title>Node7</title>
<g id="a_node7"><a xlink:href="block__producing__node__application_8cpp.html" target="_top" xlink:title=" ">
<polygon fill="white" stroke="#666666" points="116,-41 0,-41 0,0 116,0 116,-41"/>
<text text-anchor="start" x="8" y="-29" font-family="Helvetica,sans-Serif" font-size="10.00">src/application/impl</text>
<text text-anchor="start" x="8" y="-18" font-family="Helvetica,sans-Serif" font-size="10.00">/block_producing_node</text>
<text text-anchor="middle" x="58" y="-7" font-family="Helvetica,sans-Serif" font-size="10.00">_application.cpp</text>
</a>
</g>
</g>
<!-- Node5&#45;&gt;Node7 -->
<g id="edge6" class="edge">
<title>Node5&#45;&gt;Node7</title>
<path fill="none" stroke="#63b8ff" d="M58,-65.36C58,-57.24 58,-48.7 58,-41.33"/>
<polygon fill="#63b8ff" stroke="#63b8ff" points="54.5,-65.28 58,-75.28 61.5,-65.28 54.5,-65.28"/>
</g>
<!-- Node9&#45;&gt;Node4 -->
<g id="edge12" class="edge">
<title>Node9&#45;&gt;Node4</title>
<path fill="none" stroke="#63b8ff" d="M276.68,-215.14C254.13,-205.32 226.99,-193.51 206.13,-184.43"/>
<polygon fill="#63b8ff" stroke="#63b8ff" points="275.06,-218.25 285.62,-219.03 277.85,-211.83 275.06,-218.25"/>
</g>
<!-- Node10 -->
<g id="node10" class="node">
<title>Node10</title>
<g id="a_node10"><a xlink:href="validating__node__application_8hpp.html" target="_top" xlink:title=" ">
<polygon fill="white" stroke="#666666" points="420.5,-184 263.5,-184 263.5,-154 420.5,-154 420.5,-184"/>
<text text-anchor="start" x="271.5" y="-172" font-family="Helvetica,sans-Serif" font-size="10.00">src/application/impl</text>
<text text-anchor="middle" x="342" y="-161" font-family="Helvetica,sans-Serif" font-size="10.00">/validating_node_application.hpp</text>
</a>
</g>
</g>
<!-- Node9&#45;&gt;Node10 -->
<g id="edge9" class="edge">
<title>Node9&#45;&gt;Node10</title>
<path fill="none" stroke="#63b8ff" d="M328.61,-208.97C331.5,-200.55 334.63,-191.45 337.13,-184.16"/>
<polygon fill="#63b8ff" stroke="#63b8ff" points="325.32,-207.77 325.37,-218.36 331.94,-210.05 325.32,-207.77"/>
</g>
<!-- Node12 -->
<g id="node12" class="node">
<title>Node12</title>
<g id="a_node12"><a xlink:href="validating__node__injector_8cpp.html" target="_top" xlink:title=" ">
<polygon fill="white" stroke="#666666" points="547.5,-184 438.5,-184 438.5,-154 547.5,-154 547.5,-184"/>
<text text-anchor="start" x="446.5" y="-172" font-family="Helvetica,sans-Serif" font-size="10.00">src/injector/validating</text>
<text text-anchor="middle" x="493" y="-161" font-family="Helvetica,sans-Serif" font-size="10.00">_node_injector.cpp</text>
</a>
</g>
</g>
<!-- Node9&#45;&gt;Node12 -->
<g id="edge13" class="edge">
<title>Node9&#45;&gt;Node12</title>
<path fill="none" stroke="#63b8ff" d="M369.54,-215.67C396.36,-205.75 429.02,-193.67 454.01,-184.43"/>
<polygon fill="#63b8ff" stroke="#63b8ff" points="368.41,-212.36 360.24,-219.11 370.84,-218.92 368.41,-212.36"/>
</g>
<!-- Node10&#45;&gt;Node6 -->
<g id="edge10" class="edge">
<title>Node10&#45;&gt;Node6</title>
<path fill="none" stroke="#63b8ff" d="M328.16,-143.71C317.49,-125.23 302.21,-99.27 288,-77 277.32,-60.26 264.07,-41.28 256.37,-30.42"/>
<polygon fill="#63b8ff" stroke="#63b8ff" points="325.09,-145.4 333.11,-152.33 331.16,-141.91 325.09,-145.4"/>
</g>
<!-- Node11 -->
<g id="node11" class="node">
<title>Node11</title>
<g id="a_node11"><a xlink:href="validating__node__application_8cpp.html" target="_top" xlink:title=" ">
<polygon fill="white" stroke="#666666" points="493.5,-112.5 336.5,-112.5 336.5,-82.5 493.5,-82.5 493.5,-112.5"/>
<text text-anchor="start" x="344.5" y="-100.5" font-family="Helvetica,sans-Serif" font-size="10.00">src/application/impl</text>
<text text-anchor="middle" x="415" y="-89.5" font-family="Helvetica,sans-Serif" font-size="10.00">/validating_node_application.cpp</text>
</a>
</g>
</g>
<!-- Node10&#45;&gt;Node11 -->
<g id="edge11" class="edge">
<title>Node10&#45;&gt;Node11</title>
<path fill="none" stroke="#63b8ff" d="M365.32,-145.8C376.64,-135.02 389.91,-122.38 399.89,-112.88"/>
<polygon fill="#63b8ff" stroke="#63b8ff" points="363.05,-143.13 358.22,-152.56 367.88,-148.2 363.05,-143.13"/>
</g>
</g>
</svg>
