<?xml version="1.0" encoding="UTF-8" standalone="no"?>
<!DOCTYPE svg PUBLIC "-//W3C//DTD SVG 1.1//EN"
 "http://www.w3.org/Graphics/SVG/1.1/DTD/svg11.dtd">
<!-- Generated by graphviz version 7.0.5 (20221223.1930)
 -->
<!-- Title: src/primitives/production_configuration.hpp Pages: 1 -->
<svg width="828pt" height="566pt"
 viewBox="0.00 0.00 827.50 566.00" xmlns="http://www.w3.org/2000/svg" xmlns:xlink="http://www.w3.org/1999/xlink">
<g id="graph0" class="graph" transform="scale(1 1) rotate(0) translate(4 562)">
<title>src/primitives/production_configuration.hpp</title>
<!-- Node1 -->
<g id="node1" class="node">
<title>Node1</title>
<g id="a_node1"><a xlink:title=" ">
<polygon fill="#999999" stroke="#666666" points="387,-558 264,-558 264,-528 387,-528 387,-558"/>
<text text-anchor="start" x="272" y="-546" font-family="Helvetica,sans-Serif" font-size="10.00">src/primitives/production</text>
<text text-anchor="middle" x="325.5" y="-535" font-family="Helvetica,sans-Serif" font-size="10.00">_configuration.hpp</text>
</a>
</g>
</g>
<!-- Node2 -->
<g id="node2" class="node">
<title>Node2</title>
<g id="a_node2"><a xlink:href="application__injector_8hpp.html" target="_top" xlink:title=" ">
<polygon fill="white" stroke="#666666" points="304.5,-332.5 190.5,-332.5 190.5,-302.5 304.5,-302.5 304.5,-332.5"/>
<text text-anchor="start" x="198.5" y="-320.5" font-family="Helvetica,sans-Serif" font-size="10.00">src/injector/application</text>
<text text-anchor="middle" x="247.5" y="-309.5" font-family="Helvetica,sans-Serif" font-size="10.00">_injector.hpp</text>
</a>
</g>
</g>
<!-- Node1&#45;&gt;Node2 -->
<g id="edge1" class="edge">
<title>Node1&#45;&gt;Node2</title>
<path fill="none" stroke="#63b8ff" d="M285.18,-521.7C273.96,-513.99 263.07,-504.08 256.5,-492 227.84,-439.26 238.3,-363.68 244.38,-332.63"/>
<polygon fill="#63b8ff" stroke="#63b8ff" points="282.99,-524.45 293.31,-526.85 286.74,-518.54 282.99,-524.45"/>
</g>
<!-- Node17 -->
<g id="node17" class="node">
<title>Node17</title>
<g id="a_node17"><a xlink:href="production__api_8hpp.html" target="_top" xlink:title=" ">
<polygon fill="white" stroke="#666666" points="189,-486.5 76,-486.5 76,-456.5 189,-456.5 189,-486.5"/>
<text text-anchor="start" x="84" y="-474.5" font-family="Helvetica,sans-Serif" font-size="10.00">src/runtime/production</text>
<text text-anchor="middle" x="132.5" y="-463.5" font-family="Helvetica,sans-Serif" font-size="10.00">_api.hpp</text>
</a>
</g>
</g>
<!-- Node1&#45;&gt;Node17 -->
<g id="edge18" class="edge">
<title>Node1&#45;&gt;Node17</title>
<path fill="none" stroke="#63b8ff" d="M275.02,-523.82C243.01,-512.3 202.19,-497.59 172.44,-486.88"/>
<polygon fill="#63b8ff" stroke="#63b8ff" points="273.49,-526.99 284.09,-527.09 275.86,-520.41 273.49,-526.99"/>
</g>
<!-- Node20 -->
<g id="node20" class="node">
<title>Node20</title>
<g id="a_node20"><a xlink:href="authority__manager__impl_8hpp.html" target="_top" xlink:title=" ">
<polygon fill="white" stroke="#666666" points="385.5,-492 265.5,-492 265.5,-451 385.5,-451 385.5,-492"/>
<text text-anchor="start" x="273.5" y="-480" font-family="Helvetica,sans-Serif" font-size="10.00">src/verification/authority</text>
<text text-anchor="start" x="273.5" y="-469" font-family="Helvetica,sans-Serif" font-size="10.00">/impl/authority_manager</text>
<text text-anchor="middle" x="325.5" y="-458" font-family="Helvetica,sans-Serif" font-size="10.00">_impl.hpp</text>
</a>
</g>
</g>
<!-- Node1&#45;&gt;Node20 -->
<g id="edge22" class="edge">
<title>Node1&#45;&gt;Node20</title>
<path fill="none" stroke="#63b8ff" d="M325.5,-516.36C325.5,-508.45 325.5,-499.87 325.5,-492.42"/>
<polygon fill="#63b8ff" stroke="#63b8ff" points="322,-516.09 325.5,-526.09 329,-516.09 322,-516.09"/>
</g>
<!-- Node22 -->
<g id="node22" class="node">
<title>Node22</title>
<g id="a_node22"><a xlink:href="block__executor_8hpp.html" target="_top" xlink:title=" ">
<polygon fill="white" stroke="#666666" points="605.5,-409.5 477.5,-409.5 477.5,-379.5 605.5,-379.5 605.5,-409.5"/>
<text text-anchor="start" x="485.5" y="-397.5" font-family="Helvetica,sans-Serif" font-size="10.00">src/verification/production</text>
<text text-anchor="middle" x="541.5" y="-386.5" font-family="Helvetica,sans-Serif" font-size="10.00">/impl/block_executor.hpp</text>
</a>
</g>
</g>
<!-- Node1&#45;&gt;Node22 -->
<g id="edge25" class="edge">
<title>Node1&#45;&gt;Node22</title>
<path fill="none" stroke="#63b8ff" d="M383.19,-523.59C404.07,-515.55 427.23,-504.97 446.5,-492 481.6,-468.37 514.31,-430.26 530.63,-409.72"/>
<polygon fill="#63b8ff" stroke="#63b8ff" points="382.08,-520.27 373.93,-527.03 384.52,-526.83 382.08,-520.27"/>
</g>
<!-- Node24 -->
<g id="node24" class="node">
<title>Node24</title>
<g id="a_node24"><a xlink:href="production__impl_8hpp.html" target="_top" xlink:title=" ">
<polygon fill="white" stroke="#666666" points="468.5,-332.5 340.5,-332.5 340.5,-302.5 468.5,-302.5 468.5,-332.5"/>
<text text-anchor="start" x="348.5" y="-320.5" font-family="Helvetica,sans-Serif" font-size="10.00">src/verification/production</text>
<text text-anchor="middle" x="404.5" y="-309.5" font-family="Helvetica,sans-Serif" font-size="10.00">/impl/production_impl.hpp</text>
</a>
</g>
</g>
<!-- Node1&#45;&gt;Node24 -->
<g id="edge35" class="edge">
<title>Node1&#45;&gt;Node24</title>
<path fill="none" stroke="#63b8ff" d="M363.62,-521.45C375.05,-513.61 386.62,-503.69 394.5,-492 428.21,-441.95 415.35,-364.21 408.11,-332.59"/>
<polygon fill="#63b8ff" stroke="#63b8ff" points="361.93,-518.38 355.41,-526.73 365.71,-524.27 361.93,-518.38"/>
</g>
<!-- Node3 -->
<g id="node3" class="node">
<title>Node3</title>
<g id="a_node3"><a xlink:href="application__injector_8cpp.html" target="_top" xlink:title=" ">
<polygon fill="white" stroke="#666666" points="165.5,-255.5 51.5,-255.5 51.5,-225.5 165.5,-225.5 165.5,-255.5"/>
<text text-anchor="start" x="59.5" y="-243.5" font-family="Helvetica,sans-Serif" font-size="10.00">src/injector/application</text>
<text text-anchor="middle" x="108.5" y="-232.5" font-family="Helvetica,sans-Serif" font-size="10.00">_injector.cpp</text>
</a>
</g>
</g>
<!-- Node2&#45;&gt;Node3 -->
<g id="edge2" class="edge">
<title>Node2&#45;&gt;Node3</title>
<path fill="none" stroke="#63b8ff" d="M210.65,-296.62C186.93,-283.82 156.64,-267.47 135.22,-255.92"/>
<polygon fill="#63b8ff" stroke="#63b8ff" points="208.9,-299.65 219.37,-301.32 212.23,-293.49 208.9,-299.65"/>
</g>
<!-- Node4 -->
<g id="node4" class="node">
<title>Node4</title>
<g id="a_node4"><a xlink:href="block__producing__node__injector_8hpp.html" target="_top" xlink:title=" ">
<polygon fill="white" stroke="#666666" points="492,-184 347,-184 347,-154 492,-154 492,-184"/>
<text text-anchor="start" x="355" y="-172" font-family="Helvetica,sans-Serif" font-size="10.00">src/injector/block</text>
<text text-anchor="middle" x="419.5" y="-161" font-family="Helvetica,sans-Serif" font-size="10.00">_producing_node_injector.hpp</text>
</a>
</g>
</g>
<!-- Node2&#45;&gt;Node4 -->
<g id="edge3" class="edge">
<title>Node2&#45;&gt;Node4</title>
<path fill="none" stroke="#63b8ff" d="M270.02,-294.12C280.04,-284.07 291.94,-272.02 302.5,-261 319.69,-243.06 321.4,-235.89 340.5,-220 356.85,-206.4 377.15,-193.63 393.08,-184.4"/>
<polygon fill="#63b8ff" stroke="#63b8ff" points="267.78,-291.41 263.18,-300.95 272.73,-296.36 267.78,-291.41"/>
</g>
<!-- Node9 -->
<g id="node9" class="node">
<title>Node9</title>
<g id="a_node9"><a xlink:href="syncing__node__injector_8hpp.html" target="_top" xlink:title=" ">
<polygon fill="white" stroke="#666666" points="673,-255.5 572,-255.5 572,-225.5 673,-225.5 673,-255.5"/>
<text text-anchor="start" x="580" y="-243.5" font-family="Helvetica,sans-Serif" font-size="10.00">src/injector/syncing</text>
<text text-anchor="middle" x="622.5" y="-232.5" font-family="Helvetica,sans-Serif" font-size="10.00">_node_injector.hpp</text>
</a>
</g>
</g>
<!-- Node2&#45;&gt;Node9 -->
<g id="edge8" class="edge">
<title>Node2&#45;&gt;Node9</title>
<path fill="none" stroke="#63b8ff" d="M315.74,-300.42C321.07,-299.24 326.37,-298.08 331.5,-297 415.41,-279.27 513.47,-261.09 571.65,-250.57"/>
<polygon fill="#63b8ff" stroke="#63b8ff" points="315.28,-296.94 306.3,-302.54 316.82,-303.76 315.28,-296.94"/>
</g>
<!-- Node13 -->
<g id="node13" class="node">
<title>Node13</title>
<g id="a_node13"><a xlink:href="validating__node__injector_8hpp.html" target="_top" xlink:title=" ">
<polygon fill="white" stroke="#666666" points="293,-255.5 184,-255.5 184,-225.5 293,-225.5 293,-255.5"/>
<text text-anchor="start" x="192" y="-243.5" font-family="Helvetica,sans-Serif" font-size="10.00">src/injector/validating</text>
<text text-anchor="middle" x="238.5" y="-232.5" font-family="Helvetica,sans-Serif" font-size="10.00">_node_injector.hpp</text>
</a>
</g>
</g>
<!-- Node2&#45;&gt;Node13 -->
<g id="edge12" class="edge">
<title>Node2&#45;&gt;Node13</title>
<path fill="none" stroke="#63b8ff" d="M244.41,-290.73C243.01,-279.08 241.41,-265.76 240.23,-255.92"/>
<polygon fill="#63b8ff" stroke="#63b8ff" points="240.92,-291.02 245.58,-300.54 247.87,-290.19 240.92,-291.02"/>
</g>
<!-- Node5 -->
<g id="node5" class="node">
<title>Node5</title>
<g id="a_node5"><a xlink:href="block__producing__node__application_8hpp.html" target="_top" xlink:title=" ">
<polygon fill="white" stroke="#666666" points="493.5,-118 377.5,-118 377.5,-77 493.5,-77 493.5,-118"/>
<text text-anchor="start" x="385.5" y="-106" font-family="Helvetica,sans-Serif" font-size="10.00">src/application/impl</text>
<text text-anchor="start" x="385.5" y="-95" font-family="Helvetica,sans-Serif" font-size="10.00">/block_producing_node</text>
<text text-anchor="middle" x="435.5" y="-84" font-family="Helvetica,sans-Serif" font-size="10.00">_application.hpp</text>
</a>
</g>
</g>
<!-- Node4&#45;&gt;Node5 -->
<g id="edge4" class="edge">
<title>Node4&#45;&gt;Node5</title>
<path fill="none" stroke="#63b8ff" d="M425.34,-142.64C427.18,-134.66 429.18,-125.96 430.92,-118.42"/>
<polygon fill="#63b8ff" stroke="#63b8ff" points="421.99,-141.59 423.15,-152.12 428.81,-143.16 421.99,-141.59"/>
</g>
<!-- Node8 -->
<g id="node8" class="node">
<title>Node8</title>
<g id="a_node8"><a xlink:href="block__producing__node__injector_8cpp.html" target="_top" xlink:title=" ">
<polygon fill="white" stroke="#666666" points="359,-112.5 214,-112.5 214,-82.5 359,-82.5 359,-112.5"/>
<text text-anchor="start" x="222" y="-100.5" font-family="Helvetica,sans-Serif" font-size="10.00">src/injector/block</text>
<text text-anchor="middle" x="286.5" y="-89.5" font-family="Helvetica,sans-Serif" font-size="10.00">_producing_node_injector.cpp</text>
</a>
</g>
</g>
<!-- Node4&#45;&gt;Node8 -->
<g id="edge7" class="edge">
<title>Node4&#45;&gt;Node8</title>
<path fill="none" stroke="#63b8ff" d="M381.8,-148.3C360.23,-137.03 333.63,-123.13 314.02,-112.88"/>
<polygon fill="#63b8ff" stroke="#63b8ff" points="380.12,-151.37 390.6,-152.9 383.36,-145.17 380.12,-151.37"/>
</g>
<!-- Node6 -->
<g id="node6" class="node">
<title>Node6</title>
<g id="a_node6"><a xlink:href="app__delegate_8cpp.html" target="_top" xlink:title=" ">
<polygon fill="white" stroke="#666666" points="301.5,-30 185.5,-30 185.5,-11 301.5,-11 301.5,-30"/>
<text text-anchor="middle" x="243.5" y="-18" font-family="Helvetica,sans-Serif" font-size="10.00">node/app_delegate.cpp</text>
</a>
</g>
</g>
<!-- Node5&#45;&gt;Node6 -->
<g id="edge5" class="edge">
<title>Node5&#45;&gt;Node6</title>
<path fill="none" stroke="#63b8ff" d="M373.95,-72.46C337.29,-58.13 292.9,-40.8 266.5,-30.48"/>
<polygon fill="#63b8ff" stroke="#63b8ff" points="372.55,-75.67 383.14,-76.05 375.1,-69.15 372.55,-75.67"/>
</g>
<!-- Node7 -->
<g id="node7" class="node">
<title>Node7</title>
<g id="a_node7"><a xlink:href="block__producing__node__application_8cpp.html" target="_top" xlink:title=" ">
<polygon fill="white" stroke="#666666" points="493.5,-41 377.5,-41 377.5,0 493.5,0 493.5,-41"/>
<text text-anchor="start" x="385.5" y="-29" font-family="Helvetica,sans-Serif" font-size="10.00">src/application/impl</text>
<text text-anchor="start" x="385.5" y="-18" font-family="Helvetica,sans-Serif" font-size="10.00">/block_producing_node</text>
<text text-anchor="middle" x="435.5" y="-7" font-family="Helvetica,sans-Serif" font-size="10.00">_application.cpp</text>
</a>
</g>
</g>
<!-- Node5&#45;&gt;Node7 -->
<g id="edge6" class="edge">
<title>Node5&#45;&gt;Node7</title>
<path fill="none" stroke="#63b8ff" d="M435.5,-65.36C435.5,-57.24 435.5,-48.7 435.5,-41.33"/>
<polygon fill="#63b8ff" stroke="#63b8ff" points="432,-65.28 435.5,-75.28 439,-65.28 432,-65.28"/>
</g>
<!-- Node10 -->
<g id="node10" class="node">
<title>Node10</title>
<g id="a_node10"><a xlink:href="syncing__node__application_8hpp.html" target="_top" xlink:title=" ">
<polygon fill="white" stroke="#666666" points="819,-184 670,-184 670,-154 819,-154 819,-184"/>
<text text-anchor="start" x="678" y="-172" font-family="Helvetica,sans-Serif" font-size="10.00">src/application/impl</text>
<text text-anchor="middle" x="744.5" y="-161" font-family="Helvetica,sans-Serif" font-size="10.00">/syncing_node_application.hpp</text>
</a>
</g>
</g>
<!-- Node9&#45;&gt;Node10 -->
<g id="edge9" class="edge">
<title>Node9&#45;&gt;Node10</title>
<path fill="none" stroke="#63b8ff" d="M657.62,-219.49C677.32,-208.27 701.43,-194.54 719.25,-184.38"/>
<polygon fill="#63b8ff" stroke="#63b8ff" points="656.05,-216.36 649.09,-224.35 659.52,-222.44 656.05,-216.36"/>
</g>
<!-- Node12 -->
<g id="node12" class="node">
<title>Node12</title>
<g id="a_node12"><a xlink:href="syncing__node__injector_8cpp.html" target="_top" xlink:title=" ">
<polygon fill="white" stroke="#666666" points="652,-184 551,-184 551,-154 652,-154 652,-184"/>
<text text-anchor="start" x="559" y="-172" font-family="Helvetica,sans-Serif" font-size="10.00">src/injector/syncing</text>
<text text-anchor="middle" x="601.5" y="-161" font-family="Helvetica,sans-Serif" font-size="10.00">_node_injector.cpp</text>
</a>
</g>
</g>
<!-- Node9&#45;&gt;Node12 -->
<g id="edge11" class="edge">
<title>Node9&#45;&gt;Node12</title>
<path fill="none" stroke="#63b8ff" d="M614.82,-214.08C611.8,-204.08 608.43,-192.95 605.85,-184.38"/>
<polygon fill="#63b8ff" stroke="#63b8ff" points="611.47,-215.09 617.71,-223.65 618.17,-213.07 611.47,-215.09"/>
</g>
<!-- Node11 -->
<g id="node11" class="node">
<title>Node11</title>
<g id="a_node11"><a xlink:href="syncing__node__application_8cpp.html" target="_top" xlink:title=" ">
<polygon fill="white" stroke="#666666" points="819,-112.5 670,-112.5 670,-82.5 819,-82.5 819,-112.5"/>
<text text-anchor="start" x="678" y="-100.5" font-family="Helvetica,sans-Serif" font-size="10.00">src/application/impl</text>
<text text-anchor="middle" x="744.5" y="-89.5" font-family="Helvetica,sans-Serif" font-size="10.00">/syncing_node_application.cpp</text>
</a>
</g>
</g>
<!-- Node10&#45;&gt;Node11 -->
<g id="edge10" class="edge">
<title>Node10&#45;&gt;Node11</title>
<path fill="none" stroke="#63b8ff" d="M744.5,-142.26C744.5,-132.33 744.5,-121.36 744.5,-112.88"/>
<polygon fill="#63b8ff" stroke="#63b8ff" points="741,-142.09 744.5,-152.09 748,-142.09 741,-142.09"/>
</g>
<!-- Node13&#45;&gt;Node4 -->
<g id="edge16" class="edge">
<title>Node13&#45;&gt;Node4</title>
<path fill="none" stroke="#63b8ff" d="M286.62,-221.02C316.52,-209.54 354.39,-195 382.04,-184.38"/>
<polygon fill="#63b8ff" stroke="#63b8ff" points="285.5,-217.7 277.42,-224.56 288.01,-224.24 285.5,-217.7"/>
</g>
<!-- Node14 -->
<g id="node14" class="node">
<title>Node14</title>
<g id="a_node14"><a xlink:href="validating__node__application_8hpp.html" target="_top" xlink:title=" ">
<polygon fill="white" stroke="#666666" points="187,-184 30,-184 30,-154 187,-154 187,-184"/>
<text text-anchor="start" x="38" y="-172" font-family="Helvetica,sans-Serif" font-size="10.00">src/application/impl</text>
<text text-anchor="middle" x="108.5" y="-161" font-family="Helvetica,sans-Serif" font-size="10.00">/validating_node_application.hpp</text>
</a>
</g>
</g>
<!-- Node13&#45;&gt;Node14 -->
<g id="edge13" class="edge">
<title>Node13&#45;&gt;Node14</title>
<path fill="none" stroke="#63b8ff" d="M201.65,-219.8C180.56,-208.53 154.57,-194.63 135.4,-184.38"/>
<polygon fill="#63b8ff" stroke="#63b8ff" points="199.76,-222.76 210.23,-224.39 203.06,-216.58 199.76,-222.76"/>
</g>
<!-- Node16 -->
<g id="node16" class="node">
<title>Node16</title>
<g id="a_node16"><a xlink:href="validating__node__injector_8cpp.html" target="_top" xlink:title=" ">
<polygon fill="white" stroke="#666666" points="314,-184 205,-184 205,-154 314,-154 314,-184"/>
<text text-anchor="start" x="213" y="-172" font-family="Helvetica,sans-Serif" font-size="10.00">src/injector/validating</text>
<text text-anchor="middle" x="259.5" y="-161" font-family="Helvetica,sans-Serif" font-size="10.00">_node_injector.cpp</text>
</a>
</g>
</g>
<!-- Node13&#45;&gt;Node16 -->
<g id="edge17" class="edge">
<title>Node13&#45;&gt;Node16</title>
<path fill="none" stroke="#63b8ff" d="M246.18,-214.08C249.2,-204.08 252.57,-192.95 255.15,-184.38"/>
<polygon fill="#63b8ff" stroke="#63b8ff" points="242.83,-213.07 243.29,-223.65 249.53,-215.09 242.83,-213.07"/>
</g>
<!-- Node14&#45;&gt;Node6 -->
<g id="edge14" class="edge">
<title>Node14&#45;&gt;Node6</title>
<path fill="none" stroke="#63b8ff" d="M135.08,-146.34C144.97,-137.85 156.08,-127.81 165.5,-118 194.45,-87.86 224.32,-47.98 237.08,-30.44"/>
<polygon fill="#63b8ff" stroke="#63b8ff" points="132.96,-143.54 127.57,-152.66 137.47,-148.89 132.96,-143.54"/>
</g>
<!-- Node15 -->
<g id="node15" class="node">
<title>Node15</title>
<g id="a_node15"><a xlink:href="validating__node__application_8cpp.html" target="_top" xlink:title=" ">
<polygon fill="white" stroke="#666666" points="157,-112.5 0,-112.5 0,-82.5 157,-82.5 157,-112.5"/>
<text text-anchor="start" x="8" y="-100.5" font-family="Helvetica,sans-Serif" font-size="10.00">src/application/impl</text>
<text text-anchor="middle" x="78.5" y="-89.5" font-family="Helvetica,sans-Serif" font-size="10.00">/validating_node_application.cpp</text>
</a>
</g>
</g>
<!-- Node14&#45;&gt;Node15 -->
<g id="edge15" class="edge">
<title>Node14&#45;&gt;Node15</title>
<path fill="none" stroke="#63b8ff" d="M97.81,-143.23C93.42,-133.06 88.49,-121.64 84.71,-112.88"/>
<polygon fill="#63b8ff" stroke="#63b8ff" points="94.51,-144.42 101.68,-152.21 100.93,-141.64 94.51,-144.42"/>
</g>
<!-- Node18 -->
<g id="node18" class="node">
<title>Node18</title>
<g id="a_node18"><a xlink:href="production__api__impl_8hpp.html" target="_top" xlink:title=" ">
<polygon fill="white" stroke="#666666" points="190.5,-415 72.5,-415 72.5,-374 190.5,-374 190.5,-415"/>
<text text-anchor="start" x="80.5" y="-403" font-family="Helvetica,sans-Serif" font-size="10.00">src/runtime/binaryen</text>
<text text-anchor="start" x="80.5" y="-392" font-family="Helvetica,sans-Serif" font-size="10.00">/runtime_api/production</text>
<text text-anchor="middle" x="131.5" y="-381" font-family="Helvetica,sans-Serif" font-size="10.00">_api_impl.hpp</text>
</a>
</g>
</g>
<!-- Node17&#45;&gt;Node18 -->
<g id="edge19" class="edge">
<title>Node17&#45;&gt;Node18</title>
<path fill="none" stroke="#63b8ff" d="M132.16,-444.68C132.03,-435.06 131.88,-424.3 131.76,-415.3"/>
<polygon fill="#63b8ff" stroke="#63b8ff" points="128.65,-444.57 132.29,-454.53 135.65,-444.48 128.65,-444.57"/>
</g>
<!-- Node18&#45;&gt;Node2 -->
<g id="edge20" class="edge">
<title>Node18&#45;&gt;Node2</title>
<path fill="none" stroke="#63b8ff" d="M171.95,-367.35C189.9,-355.74 210.32,-342.54 225.4,-332.79"/>
<polygon fill="#63b8ff" stroke="#63b8ff" points="170.05,-364.41 163.55,-372.78 173.85,-370.29 170.05,-364.41"/>
</g>
<!-- Node19 -->
<g id="node19" class="node">
<title>Node19</title>
<g id="a_node19"><a xlink:href="production__api__impl_8cpp.html" target="_top" xlink:title=" ">
<polygon fill="white" stroke="#666666" points="172.5,-338 54.5,-338 54.5,-297 172.5,-297 172.5,-338"/>
<text text-anchor="start" x="62.5" y="-326" font-family="Helvetica,sans-Serif" font-size="10.00">src/runtime/binaryen</text>
<text text-anchor="start" x="62.5" y="-315" font-family="Helvetica,sans-Serif" font-size="10.00">/runtime_api/production</text>
<text text-anchor="middle" x="113.5" y="-304" font-family="Helvetica,sans-Serif" font-size="10.00">_api_impl.cpp</text>
</a>
</g>
</g>
<!-- Node18&#45;&gt;Node19 -->
<g id="edge21" class="edge">
<title>Node18&#45;&gt;Node19</title>
<path fill="none" stroke="#63b8ff" d="M124.1,-362.65C122.12,-354.43 120.05,-345.78 118.26,-338.33"/>
<polygon fill="#63b8ff" stroke="#63b8ff" points="120.68,-363.42 126.42,-372.32 127.49,-361.78 120.68,-363.42"/>
</g>
<!-- Node20&#45;&gt;Node2 -->
<g id="edge23" class="edge">
<title>Node20&#45;&gt;Node2</title>
<path fill="none" stroke="#63b8ff" d="M295.84,-442.5C288.36,-434.23 280.93,-424.76 275.5,-415 260.48,-388.02 252.85,-352.22 249.56,-332.69"/>
<polygon fill="#63b8ff" stroke="#63b8ff" points="293.1,-444.7 302.52,-449.55 298.18,-439.89 293.1,-444.7"/>
</g>
<!-- Node21 -->
<g id="node21" class="node">
<title>Node21</title>
<g id="a_node21"><a xlink:href="authority__manager__impl_8cpp.html" target="_top" xlink:title=" ">
<polygon fill="white" stroke="#666666" points="404.5,-415 284.5,-415 284.5,-374 404.5,-374 404.5,-415"/>
<text text-anchor="start" x="292.5" y="-403" font-family="Helvetica,sans-Serif" font-size="10.00">src/verification/authority</text>
<text text-anchor="start" x="292.5" y="-392" font-family="Helvetica,sans-Serif" font-size="10.00">/impl/authority_manager</text>
<text text-anchor="middle" x="344.5" y="-381" font-family="Helvetica,sans-Serif" font-size="10.00">_impl.cpp</text>
</a>
</g>
</g>
<!-- Node20&#45;&gt;Node21 -->
<g id="edge24" class="edge">
<title>Node20&#45;&gt;Node21</title>
<path fill="none" stroke="#63b8ff" d="M333.32,-439.65C335.4,-431.43 337.59,-422.78 339.48,-415.33"/>
<polygon fill="#63b8ff" stroke="#63b8ff" points="329.93,-438.77 330.86,-449.33 336.71,-440.49 329.93,-438.77"/>
</g>
<!-- Node23 -->
<g id="node23" class="node">
<title>Node23</title>
<g id="a_node23"><a xlink:href="block__executor_8cpp.html" target="_top" xlink:title=" ">
<polygon fill="white" stroke="#666666" points="614.5,-332.5 486.5,-332.5 486.5,-302.5 614.5,-302.5 614.5,-332.5"/>
<text text-anchor="start" x="494.5" y="-320.5" font-family="Helvetica,sans-Serif" font-size="10.00">src/verification/production</text>
<text text-anchor="middle" x="550.5" y="-309.5" font-family="Helvetica,sans-Serif" font-size="10.00">/impl/block_executor.cpp</text>
</a>
</g>
</g>
<!-- Node22&#45;&gt;Node23 -->
<g id="edge26" class="edge">
<title>Node22&#45;&gt;Node23</title>
<path fill="none" stroke="#63b8ff" d="M544.59,-367.73C545.99,-356.08 547.59,-342.76 548.77,-332.92"/>
<polygon fill="#63b8ff" stroke="#63b8ff" points="541.13,-367.19 543.42,-377.54 548.08,-368.02 541.13,-367.19"/>
</g>
<!-- Node22&#45;&gt;Node24 -->
<g id="edge27" class="edge">
<title>Node22&#45;&gt;Node24</title>
<path fill="none" stroke="#63b8ff" d="M505.18,-373.62C481.8,-360.82 451.94,-344.47 430.83,-332.92"/>
<polygon fill="#63b8ff" stroke="#63b8ff" points="503.31,-376.58 513.76,-378.31 506.67,-370.44 503.31,-376.58"/>
</g>
<!-- Node26 -->
<g id="node26" class="node">
<title>Node26</title>
<g id="a_node26"><a xlink:href="syncing__production__observer_8hpp.html" target="_top" xlink:title=" ">
<polygon fill="white" stroke="#666666" points="760.5,-338 632.5,-338 632.5,-297 760.5,-297 760.5,-338"/>
<text text-anchor="start" x="640.5" y="-326" font-family="Helvetica,sans-Serif" font-size="10.00">src/verification/production</text>
<text text-anchor="start" x="640.5" y="-315" font-family="Helvetica,sans-Serif" font-size="10.00">/impl/syncing_production</text>
<text text-anchor="middle" x="696.5" y="-304" font-family="Helvetica,sans-Serif" font-size="10.00">_observer.hpp</text>
</a>
</g>
</g>
<!-- Node22&#45;&gt;Node26 -->
<g id="edge31" class="edge">
<title>Node22&#45;&gt;Node26</title>
<path fill="none" stroke="#63b8ff" d="M581.67,-374.06C604.29,-363.12 632.49,-349.47 655.28,-338.44"/>
<polygon fill="#63b8ff" stroke="#63b8ff" points="580.23,-370.87 572.75,-378.38 583.27,-377.17 580.23,-370.87"/>
</g>
<!-- Node24&#45;&gt;Node4 -->
<g id="edge28" class="edge">
<title>Node24&#45;&gt;Node4</title>
<path fill="none" stroke="#63b8ff" d="M450.14,-296.48C464.42,-287.77 478.51,-276.05 486.5,-261 495.04,-244.9 494.67,-236.29 486.5,-220 478.76,-204.56 463.74,-192.67 449.88,-184.37"/>
<polygon fill="#63b8ff" stroke="#63b8ff" points="448.61,-293.32 441.62,-301.28 452.05,-299.42 448.61,-293.32"/>
</g>
<!-- Node24&#45;&gt;Node13 -->
<g id="edge29" class="edge">
<title>Node24&#45;&gt;Node13</title>
<path fill="none" stroke="#63b8ff" d="M362.01,-297.3C333.46,-284.4 296.45,-267.68 270.41,-255.92"/>
<polygon fill="#63b8ff" stroke="#63b8ff" points="360.56,-300.49 371.11,-301.42 363.44,-294.11 360.56,-300.49"/>
</g>
<!-- Node25 -->
<g id="node25" class="node">
<title>Node25</title>
<g id="a_node25"><a xlink:href="production__impl_8cpp.html" target="_top" xlink:title=" ">
<polygon fill="white" stroke="#666666" points="477.5,-255.5 349.5,-255.5 349.5,-225.5 477.5,-225.5 477.5,-255.5"/>
<text text-anchor="start" x="357.5" y="-243.5" font-family="Helvetica,sans-Serif" font-size="10.00">src/verification/production</text>
<text text-anchor="middle" x="413.5" y="-232.5" font-family="Helvetica,sans-Serif" font-size="10.00">/impl/production_impl.cpp</text>
</a>
</g>
</g>
<!-- Node24&#45;&gt;Node25 -->
<g id="edge30" class="edge">
<title>Node24&#45;&gt;Node25</title>
<path fill="none" stroke="#63b8ff" d="M407.59,-290.73C408.99,-279.08 410.59,-265.76 411.77,-255.92"/>
<polygon fill="#63b8ff" stroke="#63b8ff" points="404.13,-290.19 406.42,-300.54 411.08,-291.02 404.13,-290.19"/>
</g>
<!-- Node26&#45;&gt;Node4 -->
<g id="edge32" class="edge">
<title>Node26&#45;&gt;Node4</title>
<path fill="none" stroke="#63b8ff" d="M631.07,-292.3C609.14,-283.38 584.85,-272.59 563.5,-261 535.12,-245.59 530.72,-237.38 503.5,-220 484.05,-207.58 461.55,-194.25 444.74,-184.47"/>
<polygon fill="#63b8ff" stroke="#63b8ff" points="629.63,-295.49 640.22,-295.96 632.24,-288.99 629.63,-295.49"/>
</g>
<!-- Node26&#45;&gt;Node9 -->
<g id="edge33" class="edge">
<title>Node26&#45;&gt;Node9</title>
<path fill="none" stroke="#63b8ff" d="M669.28,-288.92C658.22,-277.7 645.89,-265.21 636.67,-255.86"/>
<polygon fill="#63b8ff" stroke="#63b8ff" points="666.48,-291.06 675.99,-295.72 671.46,-286.14 666.48,-291.06"/>
</g>
<!-- Node27 -->
<g id="node27" class="node">
<title>Node27</title>
<g id="a_node27"><a xlink:href="syncing__production__observer_8cpp.html" target="_top" xlink:title=" ">
<polygon fill="white" stroke="#666666" points="819.5,-261 691.5,-261 691.5,-220 819.5,-220 819.5,-261"/>
<text text-anchor="start" x="699.5" y="-249" font-family="Helvetica,sans-Serif" font-size="10.00">src/verification/production</text>
<text text-anchor="start" x="699.5" y="-238" font-family="Helvetica,sans-Serif" font-size="10.00">/impl/syncing_production</text>
<text text-anchor="middle" x="755.5" y="-227" font-family="Helvetica,sans-Serif" font-size="10.00">_observer.cpp</text>
</a>
</g>
</g>
<!-- Node26&#45;&gt;Node27 -->
<g id="edge34" class="edge">
<title>Node26&#45;&gt;Node27</title>
<path fill="none" stroke="#63b8ff" d="M719,-287.9C725.97,-279.04 733.5,-269.47 739.9,-261.33"/>
<polygon fill="#63b8ff" stroke="#63b8ff" points="716.37,-285.58 712.94,-295.61 721.87,-289.91 716.37,-285.58"/>
</g>
</g>
</svg>
