<?xml version="1.0" encoding="UTF-8" standalone="no"?>
<!DOCTYPE svg PUBLIC "-//W3C//DTD SVG 1.1//EN"
 "http://www.w3.org/Graphics/SVG/1.1/DTD/svg11.dtd">
<!-- Generated by graphviz version 7.0.5 (20221223.1930)
 -->
<!-- Title: src/verification/production.hpp Pages: 1 -->
<svg width="1209pt" height="786pt"
 viewBox="0.00 0.00 1208.50 786.00" xmlns="http://www.w3.org/2000/svg" xmlns:xlink="http://www.w3.org/1999/xlink">
<g id="graph0" class="graph" transform="scale(1 1) rotate(0) translate(4 782)">
<title>src/verification/production.hpp</title>
<!-- Node1 -->
<g id="node1" class="node">
<title>Node1</title>
<g id="a_node1"><a xlink:title=" ">
<polygon fill="#999999" stroke="#666666" points="389.5,-778 243.5,-778 243.5,-759 389.5,-759 389.5,-778"/>
<text text-anchor="middle" x="316.5" y="-766" font-family="Helvetica,sans-Serif" font-size="10.00">src/verification/production.hpp</text>
</a>
</g>
</g>
<!-- Node2 -->
<g id="node2" class="node">
<title>Node2</title>
<g id="a_node2"><a xlink:title=" ">
<polygon fill="#e0e0e0" stroke="#999999" points="95,-453.5 0,-453.5 0,-434.5 95,-434.5 95,-453.5"/>
<text text-anchor="middle" x="47.5" y="-441.5" font-family="Helvetica,sans-Serif" font-size="10.00">boost/optional.hpp</text>
</a>
</g>
</g>
<!-- Node1&#45;&gt;Node2 -->
<g id="edge1" class="edge">
<title>Node1&#45;&gt;Node2</title>
<path fill="none" stroke="#63b8ff" d="M243.08,-767.23C155.13,-762.58 19.5,-739.72 19.5,-643 19.5,-643 19.5,-643 19.5,-575 19.5,-535.12 32.25,-489.87 40.54,-464.66"/>
<polygon fill="#63b8ff" stroke="#63b8ff" points="43.77,-466.02 43.69,-455.43 37.15,-463.76 43.77,-466.02"/>
</g>
<!-- Node3 -->
<g id="node3" class="node">
<title>Node3</title>
<g id="a_node3"><a xlink:title=" ">
<polygon fill="#e0e0e0" stroke="#999999" points="607.5,-723 493.5,-723 493.5,-693 607.5,-693 607.5,-723"/>
<text text-anchor="start" x="501.5" y="-711" font-family="Helvetica,sans-Serif" font-size="10.00">boost/optional/optional</text>
<text text-anchor="middle" x="550.5" y="-700" font-family="Helvetica,sans-Serif" font-size="10.00">_io.hpp</text>
</a>
</g>
</g>
<!-- Node1&#45;&gt;Node3 -->
<g id="edge2" class="edge">
<title>Node1&#45;&gt;Node3</title>
<path fill="none" stroke="#63b8ff" d="M352.29,-758.55C386.73,-749.94 439.68,-736.7 482.2,-726.08"/>
<polygon fill="#63b8ff" stroke="#63b8ff" points="483,-729.48 491.85,-723.66 481.3,-722.69 483,-729.48"/>
</g>
<!-- Node4 -->
<g id="node4" class="node">
<title>Node4</title>
<g id="a_node4"><a xlink:href="src_2verification_2production_2common_8hpp.html" target="_top" xlink:title=" ">
<polygon fill="white" stroke="#666666" points="329,-393 218,-393 218,-363 329,-363 329,-393"/>
<text text-anchor="start" x="226" y="-381" font-family="Helvetica,sans-Serif" font-size="10.00">verification/production</text>
<text text-anchor="middle" x="273.5" y="-370" font-family="Helvetica,sans-Serif" font-size="10.00">/common.hpp</text>
</a>
</g>
</g>
<!-- Node1&#45;&gt;Node4 -->
<g id="edge3" class="edge">
<title>Node1&#45;&gt;Node4</title>
<path fill="none" stroke="#63b8ff" d="M315.52,-758.66C310.22,-710.73 284.85,-481.5 276.31,-404.38"/>
<polygon fill="#63b8ff" stroke="#63b8ff" points="279.84,-404.42 275.26,-394.87 272.88,-405.19 279.84,-404.42"/>
</g>
<!-- Node22 -->
<g id="node22" class="node">
<title>Node22</title>
<g id="a_node22"><a xlink:href="production__meta_8hpp.html" target="_top" xlink:title=" ">
<polygon fill="white" stroke="#666666" points="250.5,-591 114.5,-591 114.5,-561 250.5,-561 250.5,-591"/>
<text text-anchor="start" x="122.5" y="-579" font-family="Helvetica,sans-Serif" font-size="10.00">verification/production</text>
<text text-anchor="middle" x="182.5" y="-568" font-family="Helvetica,sans-Serif" font-size="10.00">/types/production_meta.hpp</text>
</a>
</g>
</g>
<!-- Node1&#45;&gt;Node22 -->
<g id="edge24" class="edge">
<title>Node1&#45;&gt;Node22</title>
<path fill="none" stroke="#63b8ff" d="M303.84,-758.67C292.57,-750.37 276.11,-737.14 264.5,-723 232.93,-684.55 206.93,-632.26 193.15,-601.82"/>
<polygon fill="#63b8ff" stroke="#63b8ff" points="196.35,-600.4 189.1,-592.68 189.95,-603.24 196.35,-600.4"/>
</g>
<!-- Node24 -->
<g id="node24" class="node">
<title>Node24</title>
<g id="a_node24"><a xlink:href="epoch_8hpp.html" target="_top" xlink:title=" ">
<polygon fill="white" stroke="#666666" points="411,-459 300,-459 300,-429 411,-429 411,-459"/>
<text text-anchor="start" x="308" y="-447" font-family="Helvetica,sans-Serif" font-size="10.00">verification/production</text>
<text text-anchor="middle" x="355.5" y="-436" font-family="Helvetica,sans-Serif" font-size="10.00">/types/epoch.hpp</text>
</a>
</g>
</g>
<!-- Node1&#45;&gt;Node24 -->
<g id="edge43" class="edge">
<title>Node1&#45;&gt;Node24</title>
<path fill="none" stroke="#63b8ff" d="M320.3,-758.63C328.58,-738.48 347.5,-687.55 347.5,-643 347.5,-643 347.5,-643 347.5,-575 347.5,-538.69 350.65,-496.79 352.99,-470.59"/>
<polygon fill="#63b8ff" stroke="#63b8ff" points="356.45,-471.2 353.89,-460.92 349.48,-470.55 356.45,-471.2"/>
</g>
<!-- Node30 -->
<g id="node30" class="node">
<title>Node30</title>
<g id="a_node30"><a xlink:href="production__observer_8hpp.html" target="_top" xlink:title=" ">
<polygon fill="white" stroke="#666666" points="475,-723 376,-723 376,-693 475,-693 475,-723"/>
<text text-anchor="start" x="384" y="-711" font-family="Helvetica,sans-Serif" font-size="10.00">network/production</text>
<text text-anchor="middle" x="425.5" y="-700" font-family="Helvetica,sans-Serif" font-size="10.00">_observer.hpp</text>
</a>
</g>
</g>
<!-- Node1&#45;&gt;Node30 -->
<g id="edge44" class="edge">
<title>Node1&#45;&gt;Node30</title>
<path fill="none" stroke="#63b8ff" d="M333.05,-758.62C347.73,-750.74 369.69,-738.96 388.52,-728.85"/>
<polygon fill="#63b8ff" stroke="#63b8ff" points="390.11,-731.97 397.26,-724.16 386.8,-725.8 390.11,-731.97"/>
</g>
<!-- Node5 -->
<g id="node5" class="node">
<title>Node5</title>
<g id="a_node5"><a xlink:title=" ">
<polygon fill="#e0e0e0" stroke="#999999" points="606.5,-266.5 560.5,-266.5 560.5,-247.5 606.5,-247.5 606.5,-266.5"/>
<text text-anchor="middle" x="583.5" y="-254.5" font-family="Helvetica,sans-Serif" font-size="10.00">cstdint</text>
</a>
</g>
</g>
<!-- Node4&#45;&gt;Node5 -->
<g id="edge4" class="edge">
<title>Node4&#45;&gt;Node5</title>
<path fill="none" stroke="#63b8ff" d="M311.2,-362.53C372.14,-339.13 491.33,-293.38 549.68,-270.98"/>
<polygon fill="#63b8ff" stroke="#63b8ff" points="550.68,-274.35 558.76,-267.5 548.17,-267.81 550.68,-274.35"/>
</g>
<!-- Node6 -->
<g id="node6" class="node">
<title>Node6</title>
<g id="a_node6"><a xlink:href="clock_8hpp.html" target="_top" xlink:title=" ">
<polygon fill="white" stroke="#666666" points="329.5,-327 245.5,-327 245.5,-308 329.5,-308 329.5,-327"/>
<text text-anchor="middle" x="287.5" y="-315" font-family="Helvetica,sans-Serif" font-size="10.00">clock/clock.hpp</text>
</a>
</g>
</g>
<!-- Node4&#45;&gt;Node6 -->
<g id="edge5" class="edge">
<title>Node4&#45;&gt;Node6</title>
<path fill="none" stroke="#63b8ff" d="M276.96,-362.54C278.72,-355.17 280.89,-346.1 282.81,-338.11"/>
<polygon fill="#63b8ff" stroke="#63b8ff" points="286.15,-339.19 285.07,-328.65 279.34,-337.56 286.15,-339.19"/>
</g>
<!-- Node8 -->
<g id="node8" class="node">
<title>Node8</title>
<g id="a_node8"><a xlink:href="sr25519__types_8hpp.html" target="_top" xlink:title=" ">
<polygon fill="white" stroke="#666666" points="303,-266.5 176,-266.5 176,-247.5 303,-247.5 303,-266.5"/>
<text text-anchor="middle" x="239.5" y="-254.5" font-family="Helvetica,sans-Serif" font-size="10.00">crypto/sr25519_types.hpp</text>
</a>
</g>
</g>
<!-- Node4&#45;&gt;Node8 -->
<g id="edge7" class="edge">
<title>Node4&#45;&gt;Node8</title>
<path fill="none" stroke="#63b8ff" d="M259.01,-362.7C250.66,-353.41 240.96,-340.54 236.5,-327 231.27,-311.13 232.62,-292.1 234.94,-278.04"/>
<polygon fill="#63b8ff" stroke="#63b8ff" points="238.37,-278.74 236.88,-268.25 231.5,-277.38 238.37,-278.74"/>
</g>
<!-- Node7 -->
<g id="node7" class="node">
<title>Node7</title>
<g id="a_node7"><a xlink:title=" ">
<polygon fill="#e0e0e0" stroke="#999999" points="367.5,-266.5 321.5,-266.5 321.5,-247.5 367.5,-247.5 367.5,-266.5"/>
<text text-anchor="middle" x="344.5" y="-254.5" font-family="Helvetica,sans-Serif" font-size="10.00">chrono</text>
</a>
</g>
</g>
<!-- Node6&#45;&gt;Node7 -->
<g id="edge6" class="edge">
<title>Node6&#45;&gt;Node7</title>
<path fill="none" stroke="#63b8ff" d="M295.91,-307.87C304.41,-299.14 317.77,-285.43 328.33,-274.59"/>
<polygon fill="#63b8ff" stroke="#63b8ff" points="330.53,-277.36 335,-267.75 325.51,-272.47 330.53,-277.36"/>
</g>
<!-- Node9 -->
<g id="node9" class="node">
<title>Node9</title>
<g id="a_node9"><a xlink:title=" ">
<polygon fill="#e0e0e0" stroke="#999999" points="215,-206 156,-206 156,-187 215,-187 215,-206"/>
<text text-anchor="middle" x="185.5" y="-194" font-family="Helvetica,sans-Serif" font-size="10.00">sr25519.h</text>
</a>
</g>
</g>
<!-- Node8&#45;&gt;Node9 -->
<g id="edge8" class="edge">
<title>Node8&#45;&gt;Node9</title>
<path fill="none" stroke="#63b8ff" d="M231.53,-247.37C223.56,-238.73 211.07,-225.2 201.11,-214.42"/>
<polygon fill="#63b8ff" stroke="#63b8ff" points="203.88,-212.25 194.53,-207.28 198.74,-217 203.88,-212.25"/>
</g>
<!-- Node10 -->
<g id="node10" class="node">
<title>Node10</title>
<g id="a_node10"><a xlink:title=" ">
<polygon fill="#e0e0e0" stroke="#999999" points="527.5,-151 423.5,-151 423.5,-121 527.5,-121 527.5,-151"/>
<text text-anchor="start" x="431.5" y="-139" font-family="Helvetica,sans-Serif" font-size="10.00">boost/multiprecision</text>
<text text-anchor="middle" x="475.5" y="-128" font-family="Helvetica,sans-Serif" font-size="10.00">/cpp_int.hpp</text>
</a>
</g>
</g>
<!-- Node8&#45;&gt;Node10 -->
<g id="edge9" class="edge">
<title>Node8&#45;&gt;Node10</title>
<path fill="none" stroke="#63b8ff" d="M270.94,-247.08C299.35,-238.42 341.9,-223.98 376.5,-206 402.42,-192.53 429.48,-173.26 448.74,-158.51"/>
<polygon fill="#63b8ff" stroke="#63b8ff" points="450.85,-161.3 456.6,-152.4 446.56,-155.77 450.85,-161.3"/>
</g>
<!-- Node11 -->
<g id="node11" class="node">
<title>Node11</title>
<g id="a_node11"><a xlink:title=" ">
<polygon fill="#e0e0e0" stroke="#999999" points="487,-79.5 434,-79.5 434,-60.5 487,-60.5 487,-79.5"/>
<text text-anchor="middle" x="460.5" y="-67.5" font-family="Helvetica,sans-Serif" font-size="10.00">gsl/span</text>
</a>
</g>
</g>
<!-- Node8&#45;&gt;Node11 -->
<g id="edge10" class="edge">
<title>Node8&#45;&gt;Node11</title>
<path fill="none" stroke="#63b8ff" d="M240.72,-247.18C243.01,-233.27 248.97,-205.89 262.5,-187 302.18,-131.62 377.2,-98.47 422.64,-82.56"/>
<polygon fill="#63b8ff" stroke="#63b8ff" points="423.73,-85.88 432.08,-79.36 421.49,-79.25 423.73,-85.88"/>
</g>
<!-- Node12 -->
<g id="node12" class="node">
<title>Node12</title>
<g id="a_node12"><a xlink:href="blob_8hpp.html" target="_top" xlink:title=" ">
<polygon fill="white" stroke="#666666" points="825,-206 748,-206 748,-187 825,-187 825,-206"/>
<text text-anchor="middle" x="786.5" y="-194" font-family="Helvetica,sans-Serif" font-size="10.00">base/blob.hpp</text>
</a>
</g>
</g>
<!-- Node8&#45;&gt;Node12 -->
<g id="edge11" class="edge">
<title>Node8&#45;&gt;Node12</title>
<path fill="none" stroke="#63b8ff" d="M282.62,-247.02C292.41,-245.18 302.79,-243.38 312.5,-242 466.22,-220.09 649.59,-206.38 736.31,-200.62"/>
<polygon fill="#63b8ff" stroke="#63b8ff" points="736.38,-204.13 746.13,-199.98 735.93,-197.14 736.38,-204.13"/>
</g>
<!-- Node21 -->
<g id="node21" class="node">
<title>Node21</title>
<g id="a_node21"><a xlink:href="mp__utils_8hpp.html" target="_top" xlink:title=" ">
<polygon fill="white" stroke="#666666" points="367,-206 272,-206 272,-187 367,-187 367,-206"/>
<text text-anchor="middle" x="319.5" y="-194" font-family="Helvetica,sans-Serif" font-size="10.00">base/mp_utils.hpp</text>
</a>
</g>
</g>
<!-- Node8&#45;&gt;Node21 -->
<g id="edge21" class="edge">
<title>Node8&#45;&gt;Node21</title>
<path fill="none" stroke="#63b8ff" d="M251.65,-247.12C263.98,-238.1 283.33,-223.95 298.22,-213.06"/>
<polygon fill="#63b8ff" stroke="#63b8ff" points="300.01,-216.09 306.01,-207.36 295.88,-210.44 300.01,-216.09"/>
</g>
<!-- Node13 -->
<g id="node13" class="node">
<title>Node13</title>
<g id="a_node13"><a xlink:title=" ">
<polygon fill="#e0e0e0" stroke="#999999" points="801.5,-145.5 763.5,-145.5 763.5,-126.5 801.5,-126.5 801.5,-145.5"/>
<text text-anchor="middle" x="782.5" y="-133.5" font-family="Helvetica,sans-Serif" font-size="10.00">array</text>
</a>
</g>
</g>
<!-- Node12&#45;&gt;Node13 -->
<g id="edge12" class="edge">
<title>Node12&#45;&gt;Node13</title>
<path fill="none" stroke="#63b8ff" d="M785.91,-186.87C785.37,-179 784.56,-167.1 783.86,-156.89"/>
<polygon fill="#63b8ff" stroke="#63b8ff" points="787.37,-156.92 783.2,-147.18 780.39,-157.39 787.37,-156.92"/>
</g>
<!-- Node14 -->
<g id="node14" class="node">
<title>Node14</title>
<g id="a_node14"><a xlink:title=" ">
<polygon fill="#e0e0e0" stroke="#999999" points="947.5,-145.5 819.5,-145.5 819.5,-126.5 947.5,-126.5 947.5,-145.5"/>
<text text-anchor="middle" x="883.5" y="-133.5" font-family="Helvetica,sans-Serif" font-size="10.00">boost/functional/hash.hpp</text>
</a>
</g>
</g>
<!-- Node12&#45;&gt;Node14 -->
<g id="edge13" class="edge">
<title>Node12&#45;&gt;Node14</title>
<path fill="none" stroke="#63b8ff" d="M801.23,-186.62C816.54,-177.38 840.77,-162.77 858.97,-151.79"/>
<polygon fill="#63b8ff" stroke="#63b8ff" points="860.58,-154.91 867.33,-146.75 856.96,-148.92 860.58,-154.91"/>
</g>
<!-- Node15 -->
<g id="node15" class="node">
<title>Node15</title>
<g id="a_node15"><a xlink:href="hexutil_8hpp.html" target="_top" xlink:title=" ">
<polygon fill="white" stroke="#666666" points="745.5,-145.5 659.5,-145.5 659.5,-126.5 745.5,-126.5 745.5,-145.5"/>
<text text-anchor="middle" x="702.5" y="-133.5" font-family="Helvetica,sans-Serif" font-size="10.00">base/hexutil.hpp</text>
</a>
</g>
</g>
<!-- Node12&#45;&gt;Node15 -->
<g id="edge14" class="edge">
<title>Node12&#45;&gt;Node15</title>
<path fill="none" stroke="#63b8ff" d="M773.74,-186.62C760.67,-177.51 740.09,-163.18 724.4,-152.25"/>
<polygon fill="#63b8ff" stroke="#63b8ff" points="726.83,-149.68 716.62,-146.83 722.83,-155.42 726.83,-149.68"/>
</g>
<!-- Node20 -->
<g id="node20" class="node">
<title>Node20</title>
<g id="a_node20"><a xlink:title=" ">
<polygon fill="#e0e0e0" stroke="#999999" points="1019.5,-145.5 965.5,-145.5 965.5,-126.5 1019.5,-126.5 1019.5,-145.5"/>
<text text-anchor="middle" x="992.5" y="-133.5" font-family="Helvetica,sans-Serif" font-size="10.00">iostream</text>
</a>
</g>
</g>
<!-- Node12&#45;&gt;Node20 -->
<g id="edge20" class="edge">
<title>Node12&#45;&gt;Node20</title>
<path fill="none" stroke="#63b8ff" d="M825.35,-186.68C860.05,-178.48 912.1,-165.39 956.5,-151 957.65,-150.63 958.81,-150.24 959.99,-149.84"/>
<polygon fill="#63b8ff" stroke="#63b8ff" points="960.93,-153.22 969.14,-146.51 958.54,-146.64 960.93,-153.22"/>
</g>
<!-- Node15&#45;&gt;Node11 -->
<g id="edge17" class="edge">
<title>Node15&#45;&gt;Node11</title>
<path fill="none" stroke="#63b8ff" d="M668.6,-126.03C623.77,-114.18 545.02,-93.35 498.32,-81"/>
<polygon fill="#63b8ff" stroke="#63b8ff" points="499.48,-77.69 488.92,-78.52 497.69,-84.46 499.48,-77.69"/>
</g>
<!-- Node16 -->
<g id="node16" class="node">
<title>Node16</title>
<g id="a_node16"><a xlink:title=" ">
<polygon fill="#e0e0e0" stroke="#999999" points="911.5,-79.5 845.5,-79.5 845.5,-60.5 911.5,-60.5 911.5,-79.5"/>
<text text-anchor="middle" x="878.5" y="-67.5" font-family="Helvetica,sans-Serif" font-size="10.00">string_view</text>
</a>
</g>
</g>
<!-- Node15&#45;&gt;Node16 -->
<g id="edge15" class="edge">
<title>Node15&#45;&gt;Node16</title>
<path fill="none" stroke="#63b8ff" d="M726.97,-126.1C757.23,-115.1 808.94,-96.3 843.41,-83.76"/>
<polygon fill="#63b8ff" stroke="#63b8ff" points="844.33,-87.15 852.53,-80.44 841.94,-80.57 844.33,-87.15"/>
</g>
<!-- Node17 -->
<g id="node17" class="node">
<title>Node17</title>
<g id="a_node17"><a xlink:title=" ">
<polygon fill="#e0e0e0" stroke="#999999" points="640.5,-79.5 596.5,-79.5 596.5,-60.5 640.5,-60.5 640.5,-79.5"/>
<text text-anchor="middle" x="618.5" y="-67.5" font-family="Helvetica,sans-Serif" font-size="10.00">vector</text>
</a>
</g>
</g>
<!-- Node15&#45;&gt;Node17 -->
<g id="edge16" class="edge">
<title>Node15&#45;&gt;Node17</title>
<path fill="none" stroke="#63b8ff" d="M690.82,-126.1C677.4,-115.88 655.15,-98.93 638.87,-86.52"/>
<polygon fill="#63b8ff" stroke="#63b8ff" points="641.36,-84.02 631.28,-80.74 637.12,-89.59 641.36,-84.02"/>
</g>
<!-- Node18 -->
<g id="node18" class="node">
<title>Node18</title>
<g id="a_node18"><a xlink:href="outcome_8hpp.html" target="_top" xlink:title=" ">
<polygon fill="white" stroke="#666666" points="772,-79.5 659,-79.5 659,-60.5 772,-60.5 772,-79.5"/>
<text text-anchor="middle" x="715.5" y="-67.5" font-family="Helvetica,sans-Serif" font-size="10.00">outcome/outcome.hpp</text>
</a>
</g>
</g>
<!-- Node15&#45;&gt;Node18 -->
<g id="edge18" class="edge">
<title>Node15&#45;&gt;Node18</title>
<path fill="none" stroke="#63b8ff" d="M704.31,-126.1C706.15,-117.03 709.07,-102.64 711.47,-90.85"/>
<polygon fill="#63b8ff" stroke="#63b8ff" points="714.85,-91.8 713.41,-81.31 707.99,-90.41 714.85,-91.8"/>
</g>
<!-- Node19 -->
<g id="node19" class="node">
<title>Node19</title>
<g id="a_node19"><a xlink:title=" ">
<polygon fill="#e0e0e0" stroke="#999999" points="786,-19 645,-19 645,0 786,0 786,-19"/>
<text text-anchor="middle" x="715.5" y="-7" font-family="Helvetica,sans-Serif" font-size="10.00">libp2p/outcome/outcome.hpp</text>
</a>
</g>
</g>
<!-- Node18&#45;&gt;Node19 -->
<g id="edge19" class="edge">
<title>Node18&#45;&gt;Node19</title>
<path fill="none" stroke="#63b8ff" d="M715.5,-60.37C715.5,-52.5 715.5,-40.6 715.5,-30.39"/>
<polygon fill="#63b8ff" stroke="#63b8ff" points="719,-30.68 715.5,-20.68 712,-30.68 719,-30.68"/>
</g>
<!-- Node21&#45;&gt;Node10 -->
<g id="edge22" class="edge">
<title>Node21&#45;&gt;Node10</title>
<path fill="none" stroke="#63b8ff" d="M343.19,-186.62C365.17,-178.38 398.55,-165.86 426.29,-155.45"/>
<polygon fill="#63b8ff" stroke="#63b8ff" points="427.44,-158.76 435.58,-151.97 424.99,-152.21 427.44,-158.76"/>
</g>
<!-- Node21&#45;&gt;Node11 -->
<g id="edge23" class="edge">
<title>Node21&#45;&gt;Node11</title>
<path fill="none" stroke="#63b8ff" d="M325.27,-186.94C335.43,-172.27 357.73,-141.87 381.5,-121 397.31,-107.12 417.36,-94.48 433.31,-85.38"/>
<polygon fill="#63b8ff" stroke="#63b8ff" points="434.74,-88.59 441.78,-80.67 431.34,-82.47 434.74,-88.59"/>
</g>
<!-- Node22&#45;&gt;Node4 -->
<g id="edge41" class="edge">
<title>Node22&#45;&gt;Node4</title>
<path fill="none" stroke="#63b8ff" d="M189.19,-560.59C204.61,-527.39 242.77,-445.19 262.01,-403.74"/>
<polygon fill="#63b8ff" stroke="#63b8ff" points="265.12,-405.35 266.16,-394.81 258.78,-402.4 265.12,-405.35"/>
</g>
<!-- Node22&#45;&gt;Node6 -->
<g id="edge25" class="edge">
<title>Node22&#45;&gt;Node6</title>
<path fill="none" stroke="#63b8ff" d="M180.15,-560.63C174.98,-524.11 166.21,-426.17 208.5,-363 217.87,-349 233.21,-338.93 247.9,-331.95"/>
<polygon fill="#63b8ff" stroke="#63b8ff" points="249.21,-335.19 256.99,-328 246.42,-328.77 249.21,-335.19"/>
</g>
<!-- Node23 -->
<g id="node23" class="node">
<title>Node23</title>
<g id="a_node23"><a xlink:href="production__lottery_8hpp.html" target="_top" xlink:title=" ">
<polygon fill="white" stroke="#666666" points="161.5,-525 47.5,-525 47.5,-495 161.5,-495 161.5,-525"/>
<text text-anchor="start" x="55.5" y="-513" font-family="Helvetica,sans-Serif" font-size="10.00">verification/production</text>
<text text-anchor="middle" x="104.5" y="-502" font-family="Helvetica,sans-Serif" font-size="10.00">/production_lottery.hpp</text>
</a>
</g>
</g>
<!-- Node22&#45;&gt;Node23 -->
<g id="edge26" class="edge">
<title>Node22&#45;&gt;Node23</title>
<path fill="none" stroke="#63b8ff" d="M165.19,-560.8C155.06,-552.49 142.07,-541.83 130.71,-532.5"/>
<polygon fill="#63b8ff" stroke="#63b8ff" points="133.15,-529.98 123.2,-526.35 128.71,-535.39 133.15,-529.98"/>
</g>
<!-- Node22&#45;&gt;Node24 -->
<g id="edge42" class="edge">
<title>Node22&#45;&gt;Node24</title>
<path fill="none" stroke="#63b8ff" d="M201.68,-560.59C232.2,-537.65 292,-492.71 327.38,-466.13"/>
<polygon fill="#63b8ff" stroke="#63b8ff" points="329.14,-469.19 335.03,-460.38 324.93,-463.59 329.14,-469.19"/>
</g>
<!-- Node23&#45;&gt;Node2 -->
<g id="edge27" class="edge">
<title>Node23&#45;&gt;Node2</title>
<path fill="none" stroke="#63b8ff" d="M91.85,-494.8C83.31,-485.21 71.99,-472.5 62.93,-462.32"/>
<polygon fill="#63b8ff" stroke="#63b8ff" points="65.65,-460.11 56.38,-454.97 60.42,-464.77 65.65,-460.11"/>
</g>
<!-- Node23&#45;&gt;Node8 -->
<g id="edge40" class="edge">
<title>Node23&#45;&gt;Node8</title>
<path fill="none" stroke="#63b8ff" d="M112.14,-494.79C135.07,-452.16 203.27,-325.36 229.27,-277.01"/>
<polygon fill="#63b8ff" stroke="#63b8ff" points="232.3,-278.78 233.95,-268.32 226.13,-275.47 232.3,-278.78"/>
</g>
<!-- Node23&#45;&gt;Node24 -->
<g id="edge28" class="edge">
<title>Node23&#45;&gt;Node24</title>
<path fill="none" stroke="#63b8ff" d="M161.14,-494.56C199.07,-484.89 249.16,-472.11 288.99,-461.96"/>
<polygon fill="#63b8ff" stroke="#63b8ff" points="289.64,-465.41 298.46,-459.54 287.91,-458.62 289.64,-465.41"/>
</g>
<!-- Node24&#45;&gt;Node4 -->
<g id="edge31" class="edge">
<title>Node24&#45;&gt;Node4</title>
<path fill="none" stroke="#63b8ff" d="M337.3,-428.8C326.55,-420.4 312.73,-409.62 300.7,-400.23"/>
<polygon fill="#63b8ff" stroke="#63b8ff" points="303.16,-397.71 293.12,-394.32 298.85,-403.23 303.16,-397.71"/>
</g>
<!-- Node24&#45;&gt;Node7 -->
<g id="edge29" class="edge">
<title>Node24&#45;&gt;Node7</title>
<path fill="none" stroke="#63b8ff" d="M354.66,-428.79C352.72,-396.25 347.96,-316.21 345.71,-278.4"/>
<polygon fill="#63b8ff" stroke="#63b8ff" points="349.21,-278.22 345.12,-268.45 342.22,-278.64 349.21,-278.22"/>
</g>
<!-- Node24&#45;&gt;Node17 -->
<g id="edge30" class="edge">
<title>Node24&#45;&gt;Node17</title>
<path fill="none" stroke="#63b8ff" d="M363.4,-428.54C375.06,-405.81 395.5,-360.05 395.5,-318.5 395.5,-318.5 395.5,-318.5 395.5,-195.5 395.5,-161.33 390.22,-145.05 414.5,-121 438.35,-97.37 533.45,-81.86 584.95,-75.02"/>
<polygon fill="#63b8ff" stroke="#63b8ff" points="585.17,-78.52 594.64,-73.77 584.27,-71.58 585.17,-78.52"/>
</g>
<!-- Node25 -->
<g id="node25" class="node">
<title>Node25</title>
<g id="a_node25"><a xlink:href="authority_8hpp.html" target="_top" xlink:title=" ">
<polygon fill="white" stroke="#666666" points="699.5,-387.5 583.5,-387.5 583.5,-368.5 699.5,-368.5 699.5,-387.5"/>
<text text-anchor="middle" x="641.5" y="-375.5" font-family="Helvetica,sans-Serif" font-size="10.00">primitives/authority.hpp</text>
</a>
</g>
</g>
<!-- Node24&#45;&gt;Node25 -->
<g id="edge32" class="edge">
<title>Node24&#45;&gt;Node25</title>
<path fill="none" stroke="#63b8ff" d="M411.32,-430.51C463.31,-418.87 540.16,-401.68 590.53,-390.41"/>
<polygon fill="#63b8ff" stroke="#63b8ff" points="591.01,-393.89 600,-388.29 589.48,-387.05 591.01,-393.89"/>
</g>
<!-- Node25&#45;&gt;Node5 -->
<g id="edge33" class="edge">
<title>Node25&#45;&gt;Node5</title>
<path fill="none" stroke="#63b8ff" d="M633.1,-368.11C624.55,-358.61 611.44,-342.78 603.5,-327 595.61,-311.32 590.35,-292.02 587.21,-277.82"/>
<polygon fill="#63b8ff" stroke="#63b8ff" points="590.71,-277.47 585.29,-268.36 583.85,-278.86 590.71,-277.47"/>
</g>
<!-- Node26 -->
<g id="node26" class="node">
<title>Node26</title>
<g id="a_node26"><a xlink:title=" ">
<polygon fill="#e0e0e0" stroke="#999999" points="671,-327 612,-327 612,-308 671,-308 671,-327"/>
<text text-anchor="middle" x="641.5" y="-315" font-family="Helvetica,sans-Serif" font-size="10.00">functional</text>
</a>
</g>
</g>
<!-- Node25&#45;&gt;Node26 -->
<g id="edge34" class="edge">
<title>Node25&#45;&gt;Node26</title>
<path fill="none" stroke="#63b8ff" d="M641.5,-368.37C641.5,-360.5 641.5,-348.6 641.5,-338.39"/>
<polygon fill="#63b8ff" stroke="#63b8ff" points="645,-338.68 641.5,-328.68 638,-338.68 645,-338.68"/>
</g>
<!-- Node27 -->
<g id="node27" class="node">
<title>Node27</title>
<g id="a_node27"><a xlink:href="src_2primitives_2common_8hpp.html" target="_top" xlink:title=" ">
<polygon fill="white" stroke="#666666" points="845,-327 728,-327 728,-308 845,-308 845,-327"/>
<text text-anchor="middle" x="786.5" y="-315" font-family="Helvetica,sans-Serif" font-size="10.00">primitives/common.hpp</text>
</a>
</g>
</g>
<!-- Node25&#45;&gt;Node27 -->
<g id="edge35" class="edge">
<title>Node25&#45;&gt;Node27</title>
<path fill="none" stroke="#63b8ff" d="M663.52,-368.12C687.58,-358.41 726.37,-342.76 753.94,-331.64"/>
<polygon fill="#63b8ff" stroke="#63b8ff" points="754.9,-335.02 762.87,-328.03 752.28,-328.53 754.9,-335.02"/>
</g>
<!-- Node27&#45;&gt;Node5 -->
<g id="edge36" class="edge">
<title>Node27&#45;&gt;Node5</title>
<path fill="none" stroke="#63b8ff" d="M755.67,-307.62C718.42,-296.88 655.96,-278.88 617.39,-267.77"/>
<polygon fill="#63b8ff" stroke="#63b8ff" points="618.74,-264.51 608.17,-265.11 616.81,-271.24 618.74,-264.51"/>
</g>
<!-- Node28 -->
<g id="node28" class="node">
<title>Node28</title>
<g id="a_node28"><a xlink:title=" ">
<polygon fill="#e0e0e0" stroke="#999999" points="1200.5,-79.5 1098.5,-79.5 1098.5,-60.5 1200.5,-60.5 1200.5,-79.5"/>
<text text-anchor="middle" x="1149.5" y="-67.5" font-family="Helvetica,sans-Serif" font-size="10.00">boost/operators.hpp</text>
</a>
</g>
</g>
<!-- Node27&#45;&gt;Node28 -->
<g id="edge37" class="edge">
<title>Node27&#45;&gt;Node28</title>
<path fill="none" stroke="#63b8ff" d="M832.86,-307.55C907.42,-290.64 1053.41,-246.77 1130.5,-151 1144.12,-134.08 1148.26,-109.01 1149.38,-91.46"/>
<polygon fill="#63b8ff" stroke="#63b8ff" points="1152.88,-91.62 1149.7,-81.51 1145.88,-91.39 1152.88,-91.62"/>
</g>
<!-- Node29 -->
<g id="node29" class="node">
<title>Node29</title>
<g id="a_node29"><a xlink:href="session__key_8hpp.html" target="_top" xlink:title=" ">
<polygon fill="white" stroke="#666666" points="834,-272 739,-272 739,-242 834,-242 834,-272"/>
<text text-anchor="start" x="747" y="-260" font-family="Helvetica,sans-Serif" font-size="10.00">primitives/session</text>
<text text-anchor="middle" x="786.5" y="-249" font-family="Helvetica,sans-Serif" font-size="10.00">_key.hpp</text>
</a>
</g>
</g>
<!-- Node27&#45;&gt;Node29 -->
<g id="edge38" class="edge">
<title>Node27&#45;&gt;Node29</title>
<path fill="none" stroke="#63b8ff" d="M786.5,-307.87C786.5,-301.4 786.5,-292.2 786.5,-283.45"/>
<polygon fill="#63b8ff" stroke="#63b8ff" points="790,-283.63 786.5,-273.63 783,-283.63 790,-283.63"/>
</g>
<!-- Node29&#45;&gt;Node12 -->
<g id="edge39" class="edge">
<title>Node29&#45;&gt;Node12</title>
<path fill="none" stroke="#63b8ff" d="M786.5,-241.54C786.5,-234.34 786.5,-225.53 786.5,-217.68"/>
<polygon fill="#63b8ff" stroke="#63b8ff" points="790,-217.69 786.5,-207.69 783,-217.69 790,-217.69"/>
</g>
<!-- Node31 -->
<g id="node31" class="node">
<title>Node31</title>
<g id="a_node31"><a xlink:href="block__announce_8hpp.html" target="_top" xlink:title=" ">
<polygon fill="white" stroke="#666666" points="628.5,-657 524.5,-657 524.5,-627 628.5,-627 628.5,-657"/>
<text text-anchor="start" x="532.5" y="-645" font-family="Helvetica,sans-Serif" font-size="10.00">network/types/block</text>
<text text-anchor="middle" x="576.5" y="-634" font-family="Helvetica,sans-Serif" font-size="10.00">_announce.hpp</text>
</a>
</g>
</g>
<!-- Node30&#45;&gt;Node31 -->
<g id="edge45" class="edge">
<title>Node30&#45;&gt;Node31</title>
<path fill="none" stroke="#63b8ff" d="M459.39,-692.64C480.88,-683.53 508.91,-671.65 532.16,-661.79"/>
<polygon fill="#63b8ff" stroke="#63b8ff" points="533.23,-665.14 541.07,-658.02 530.5,-658.7 533.23,-665.14"/>
</g>
<!-- Node32 -->
<g id="node32" class="node">
<title>Node32</title>
<g id="a_node32"><a xlink:href="block__header_8hpp.html" target="_top" xlink:title=" ">
<polygon fill="white" stroke="#666666" points="815,-585.5 678,-585.5 678,-566.5 815,-566.5 815,-585.5"/>
<text text-anchor="middle" x="746.5" y="-573.5" font-family="Helvetica,sans-Serif" font-size="10.00">primitives/block_header.hpp</text>
</a>
</g>
</g>
<!-- Node31&#45;&gt;Node32 -->
<g id="edge46" class="edge">
<title>Node31&#45;&gt;Node32</title>
<path fill="none" stroke="#63b8ff" d="M614.65,-626.64C643.86,-615.64 683.81,-600.6 712.05,-589.97"/>
<polygon fill="#63b8ff" stroke="#63b8ff" points="713.09,-593.32 721.21,-586.52 710.62,-586.77 713.09,-593.32"/>
</g>
<!-- Node32&#45;&gt;Node10 -->
<g id="edge49" class="edge">
<title>Node32&#45;&gt;Node10</title>
<path fill="none" stroke="#63b8ff" d="M713.32,-566.04C649.53,-546.77 511.3,-494.67 457.5,-393 417.27,-316.96 447.96,-210 465.48,-162.01"/>
<polygon fill="#63b8ff" stroke="#63b8ff" points="468.7,-163.4 468.96,-152.81 462.15,-160.92 468.7,-163.4"/>
</g>
<!-- Node32&#45;&gt;Node12 -->
<g id="edge50" class="edge">
<title>Node32&#45;&gt;Node12</title>
<path fill="none" stroke="#63b8ff" d="M784,-566.1C837.02,-551.02 927.5,-515.03 927.5,-445 927.5,-445 927.5,-445 927.5,-316.5 927.5,-262.4 866.12,-227.88 824.35,-210.66"/>
<polygon fill="#63b8ff" stroke="#63b8ff" points="825.68,-207.42 815.09,-207.01 823.11,-213.94 825.68,-207.42"/>
</g>
<!-- Node32&#45;&gt;Node17 -->
<g id="edge48" class="edge">
<title>Node32&#45;&gt;Node17</title>
<path fill="none" stroke="#63b8ff" d="M745.29,-566.03C741.25,-536.66 727.38,-440.76 708.5,-363 683.22,-258.89 641.82,-137.32 625.46,-90.63"/>
<polygon fill="#63b8ff" stroke="#63b8ff" points="628.83,-89.67 622.21,-81.4 622.23,-91.99 628.83,-89.67"/>
</g>
<!-- Node32&#45;&gt;Node27 -->
<g id="edge51" class="edge">
<title>Node32&#45;&gt;Node27</title>
<path fill="none" stroke="#63b8ff" d="M747.88,-566.17C753.55,-529.79 775.2,-390.95 783.36,-338.62"/>
<polygon fill="#63b8ff" stroke="#63b8ff" points="786.81,-339.21 784.9,-328.79 779.9,-338.13 786.81,-339.21"/>
</g>
<!-- Node33 -->
<g id="node33" class="node">
<title>Node33</title>
<g id="a_node33"><a xlink:title=" ">
<polygon fill="#e0e0e0" stroke="#999999" points="1141.5,-519.5 1079.5,-519.5 1079.5,-500.5 1141.5,-500.5 1141.5,-519.5"/>
<text text-anchor="middle" x="1110.5" y="-507.5" font-family="Helvetica,sans-Serif" font-size="10.00">type_traits</text>
</a>
</g>
</g>
<!-- Node32&#45;&gt;Node33 -->
<g id="edge47" class="edge">
<title>Node32&#45;&gt;Node33</title>
<path fill="none" stroke="#63b8ff" d="M815.49,-568.07C881.59,-560.56 983.81,-546.67 1070.5,-525 1072.5,-524.5 1074.54,-523.94 1076.59,-523.34"/>
<polygon fill="#63b8ff" stroke="#63b8ff" points="1077.55,-526.71 1086.01,-520.34 1075.42,-520.04 1077.55,-526.71"/>
</g>
<!-- Node34 -->
<g id="node34" class="node">
<title>Node34</title>
<g id="a_node34"><a xlink:href="compact__integer_8hpp.html" target="_top" xlink:title=" ">
<polygon fill="white" stroke="#666666" points="565,-393 466,-393 466,-363 565,-363 565,-393"/>
<text text-anchor="start" x="474" y="-381" font-family="Helvetica,sans-Serif" font-size="10.00">primitives/compact</text>
<text text-anchor="middle" x="515.5" y="-370" font-family="Helvetica,sans-Serif" font-size="10.00">_integer.hpp</text>
</a>
</g>
</g>
<!-- Node32&#45;&gt;Node34 -->
<g id="edge52" class="edge">
<title>Node32&#45;&gt;Node34</title>
<path fill="none" stroke="#63b8ff" d="M735.97,-566.07C701.49,-536.81 591.26,-443.28 540.96,-400.6"/>
<polygon fill="#63b8ff" stroke="#63b8ff" points="543.34,-398.03 533.45,-394.23 538.81,-403.37 543.34,-398.03"/>
</g>
<!-- Node36 -->
<g id="node36" class="node">
<title>Node36</title>
<g id="a_node36"><a xlink:href="digest_8hpp.html" target="_top" xlink:title=" ">
<polygon fill="white" stroke="#666666" points="1061.5,-519.5 955.5,-519.5 955.5,-500.5 1061.5,-500.5 1061.5,-519.5"/>
<text text-anchor="middle" x="1008.5" y="-507.5" font-family="Helvetica,sans-Serif" font-size="10.00">primitives/digest.hpp</text>
</a>
</g>
</g>
<!-- Node32&#45;&gt;Node36 -->
<g id="edge57" class="edge">
<title>Node32&#45;&gt;Node36</title>
<path fill="none" stroke="#63b8ff" d="M783.21,-566.03C829.69,-554.68 909.86,-535.1 960.97,-522.61"/>
<polygon fill="#63b8ff" stroke="#63b8ff" points="961.69,-526.04 970.57,-520.26 960.03,-519.24 961.69,-526.04"/>
</g>
<!-- Node35 -->
<g id="node35" class="node">
<title>Node35</title>
<g id="a_node35"><a xlink:href="scale_2types_8hpp.html" target="_top" xlink:title=" ">
<polygon fill="white" stroke="#666666" points="590.5,-206 506.5,-206 506.5,-187 590.5,-187 590.5,-206"/>
<text text-anchor="middle" x="548.5" y="-194" font-family="Helvetica,sans-Serif" font-size="10.00">scale/types.hpp</text>
</a>
</g>
</g>
<!-- Node34&#45;&gt;Node35 -->
<g id="edge53" class="edge">
<title>Node34&#45;&gt;Node35</title>
<path fill="none" stroke="#63b8ff" d="M518.14,-362.61C524,-330.76 538.07,-254.22 544.8,-217.64"/>
<polygon fill="#63b8ff" stroke="#63b8ff" points="548.21,-218.46 546.57,-207.99 541.32,-217.19 548.21,-218.46"/>
</g>
<!-- Node35&#45;&gt;Node10 -->
<g id="edge55" class="edge">
<title>Node35&#45;&gt;Node10</title>
<path fill="none" stroke="#63b8ff" d="M537.41,-186.62C528.13,-179.18 514.5,-168.25 502.39,-158.55"/>
<polygon fill="#63b8ff" stroke="#63b8ff" points="504.69,-155.91 494.7,-152.39 500.31,-161.37 504.69,-155.91"/>
</g>
<!-- Node35&#45;&gt;Node17 -->
<g id="edge54" class="edge">
<title>Node35&#45;&gt;Node17</title>
<path fill="none" stroke="#63b8ff" d="M551.24,-186.88C555.95,-172.63 566.36,-143.5 579.5,-121 586.26,-109.43 595.4,-97.56 603.14,-88.29"/>
<polygon fill="#63b8ff" stroke="#63b8ff" points="605.68,-90.7 609.55,-80.84 600.37,-86.14 605.68,-90.7"/>
</g>
<!-- Node35&#45;&gt;Node18 -->
<g id="edge56" class="edge">
<title>Node35&#45;&gt;Node18</title>
<path fill="none" stroke="#63b8ff" d="M560.51,-186.55C588.68,-165.55 659.26,-112.93 694.62,-86.56"/>
<polygon fill="#63b8ff" stroke="#63b8ff" points="696.46,-89.56 702.39,-80.78 692.28,-83.95 696.46,-89.56"/>
</g>
<!-- Node37 -->
<g id="node37" class="node">
<title>Node37</title>
<g id="a_node37"><a xlink:title=" ">
<polygon fill="#e0e0e0" stroke="#999999" points="1155,-453.5 1064,-453.5 1064,-434.5 1155,-434.5 1155,-453.5"/>
<text text-anchor="middle" x="1109.5" y="-441.5" font-family="Helvetica,sans-Serif" font-size="10.00">boost/variant.hpp</text>
</a>
</g>
</g>
<!-- Node36&#45;&gt;Node37 -->
<g id="edge58" class="edge">
<title>Node36&#45;&gt;Node37</title>
<path fill="none" stroke="#63b8ff" d="M1022.54,-500.1C1038.98,-489.69 1066.43,-472.29 1086.1,-459.83"/>
<polygon fill="#63b8ff" stroke="#63b8ff" points="1087.72,-462.94 1094.3,-454.63 1083.98,-457.03 1087.72,-462.94"/>
</g>
<!-- Node38 -->
<g id="node38" class="node">
<title>Node38</title>
<g id="a_node38"><a xlink:href="buffer_8hpp.html" target="_top" xlink:title=" ">
<polygon fill="white" stroke="#666666" points="1121,-145.5 1038,-145.5 1038,-126.5 1121,-126.5 1121,-145.5"/>
<text text-anchor="middle" x="1079.5" y="-133.5" font-family="Helvetica,sans-Serif" font-size="10.00">base/buffer.hpp</text>
</a>
</g>
</g>
<!-- Node36&#45;&gt;Node38 -->
<g id="edge59" class="edge">
<title>Node36&#45;&gt;Node38</title>
<path fill="none" stroke="#63b8ff" d="M1043.64,-500.07C1087.36,-488.61 1157.19,-469.02 1164.5,-459 1236.06,-360.91 1133.02,-207.07 1093.68,-154.95"/>
<polygon fill="#63b8ff" stroke="#63b8ff" points="1096.53,-152.92 1087.65,-147.13 1090.98,-157.19 1096.53,-152.92"/>
</g>
<!-- Node40 -->
<g id="node40" class="node">
<title>Node40</title>
<g id="a_node40"><a xlink:href="unused_8hpp.html" target="_top" xlink:title=" ">
<polygon fill="white" stroke="#666666" points="1045.5,-453.5 955.5,-453.5 955.5,-434.5 1045.5,-434.5 1045.5,-453.5"/>
<text text-anchor="middle" x="1000.5" y="-441.5" font-family="Helvetica,sans-Serif" font-size="10.00">base/unused.hpp</text>
</a>
</g>
</g>
<!-- Node36&#45;&gt;Node40 -->
<g id="edge66" class="edge">
<title>Node36&#45;&gt;Node40</title>
<path fill="none" stroke="#63b8ff" d="M1007.39,-500.1C1006.27,-491.12 1004.49,-476.95 1003.03,-465.22"/>
<polygon fill="#63b8ff" stroke="#63b8ff" points="1006.5,-464.81 1001.79,-455.33 999.56,-465.68 1006.5,-464.81"/>
</g>
<!-- Node41 -->
<g id="node41" class="node">
<title>Node41</title>
<g id="a_node41"><a xlink:href="scheduled__change_8hpp.html" target="_top" xlink:title=" ">
<polygon fill="white" stroke="#666666" points="899.5,-459 793.5,-459 793.5,-429 899.5,-429 899.5,-459"/>
<text text-anchor="start" x="801.5" y="-447" font-family="Helvetica,sans-Serif" font-size="10.00">primitives/scheduled</text>
<text text-anchor="middle" x="846.5" y="-436" font-family="Helvetica,sans-Serif" font-size="10.00">_change.hpp</text>
</a>
</g>
</g>
<!-- Node36&#45;&gt;Node41 -->
<g id="edge67" class="edge">
<title>Node36&#45;&gt;Node41</title>
<path fill="none" stroke="#63b8ff" d="M985.97,-500.1C962.18,-490.7 923.96,-475.6 893.54,-463.59"/>
<polygon fill="#63b8ff" stroke="#63b8ff" points="895.14,-460.45 884.55,-460.03 892.57,-466.96 895.14,-460.45"/>
</g>
<!-- Node38&#45;&gt;Node11 -->
<g id="edge64" class="edge">
<title>Node38&#45;&gt;Node11</title>
<path fill="none" stroke="#63b8ff" d="M1050.59,-126.06C1043.43,-124.12 1035.73,-122.28 1028.5,-121 834.84,-86.82 783.25,-103.78 587.5,-85 557.57,-82.13 523.74,-78.37 498.52,-75.48"/>
<polygon fill="#63b8ff" stroke="#63b8ff" points="499.08,-72.02 488.74,-74.34 498.27,-78.97 499.08,-72.02"/>
</g>
<!-- Node38&#45;&gt;Node16 -->
<g id="edge60" class="edge">
<title>Node38&#45;&gt;Node16</title>
<path fill="none" stroke="#63b8ff" d="M1051.55,-126.1C1016.62,-114.98 956.66,-95.89 917.3,-83.35"/>
<polygon fill="#63b8ff" stroke="#63b8ff" points="918.57,-80.08 907.98,-80.39 916.44,-86.75 918.57,-80.08"/>
</g>
<!-- Node38&#45;&gt;Node17 -->
<g id="edge61" class="edge">
<title>Node38&#45;&gt;Node17</title>
<path fill="none" stroke="#63b8ff" d="M1050.3,-126.05C1043.22,-124.14 1035.63,-122.31 1028.5,-121 862.51,-90.55 813.86,-127.35 650.5,-85 649.15,-84.65 647.78,-84.25 646.41,-83.81"/>
<polygon fill="#63b8ff" stroke="#63b8ff" points="648.09,-80.7 637.5,-80.42 645.6,-87.25 648.09,-80.7"/>
</g>
<!-- Node38&#45;&gt;Node18 -->
<g id="edge65" class="edge">
<title>Node38&#45;&gt;Node18</title>
<path fill="none" stroke="#63b8ff" d="M1048.89,-126.01C1042.2,-124.21 1035.14,-122.44 1028.5,-121 944.78,-102.88 847.16,-88.31 783.48,-79.67"/>
<polygon fill="#63b8ff" stroke="#63b8ff" points="784.27,-76.25 773.89,-78.38 783.34,-83.18 784.27,-76.25"/>
</g>
<!-- Node38&#45;&gt;Node28 -->
<g id="edge63" class="edge">
<title>Node38&#45;&gt;Node28</title>
<path fill="none" stroke="#63b8ff" d="M1089.23,-126.1C1100.1,-116.17 1117.92,-99.87 1131.37,-87.57"/>
<polygon fill="#63b8ff" stroke="#63b8ff" points="1133.71,-90.18 1138.73,-80.84 1128.99,-85.01 1133.71,-90.18"/>
</g>
<!-- Node39 -->
<g id="node39" class="node">
<title>Node39</title>
<g id="a_node39"><a xlink:title=" ">
<polygon fill="#e0e0e0" stroke="#999999" points="1080.5,-85 970.5,-85 970.5,-55 1080.5,-55 1080.5,-85"/>
<text text-anchor="start" x="978.5" y="-73" font-family="Helvetica,sans-Serif" font-size="10.00">boost/container_hash</text>
<text text-anchor="middle" x="1025.5" y="-62" font-family="Helvetica,sans-Serif" font-size="10.00">/hash.hpp</text>
</a>
</g>
</g>
<!-- Node38&#45;&gt;Node39 -->
<g id="edge62" class="edge">
<title>Node38&#45;&gt;Node39</title>
<path fill="none" stroke="#63b8ff" d="M1071.99,-126.1C1064.95,-117.75 1054.12,-104.92 1044.68,-93.73"/>
<polygon fill="#63b8ff" stroke="#63b8ff" points="1047.61,-91.78 1038.49,-86.39 1042.26,-96.29 1047.61,-91.78"/>
</g>
<!-- Node41&#45;&gt;Node25 -->
<g id="edge68" class="edge">
<title>Node41&#45;&gt;Node25</title>
<path fill="none" stroke="#63b8ff" d="M800.24,-428.56C764.38,-417.36 715.21,-402.01 681.14,-391.38"/>
<polygon fill="#63b8ff" stroke="#63b8ff" points="682.24,-388.05 671.65,-388.41 680.16,-394.74 682.24,-388.05"/>
</g>
<!-- Node41&#45;&gt;Node27 -->
<g id="edge69" class="edge">
<title>Node41&#45;&gt;Node27</title>
<path fill="none" stroke="#63b8ff" d="M839.62,-428.72C828.78,-406.23 807.73,-362.55 795.64,-337.46"/>
<polygon fill="#63b8ff" stroke="#63b8ff" points="798.93,-336.23 791.44,-328.75 792.63,-339.27 798.93,-336.23"/>
</g>
</g>
</svg>
