<?xml version="1.0" encoding="UTF-8" standalone="no"?>
<!DOCTYPE svg PUBLIC "-//W3C//DTD SVG 1.1//EN"
 "http://www.w3.org/Graphics/SVG/1.1/DTD/svg11.dtd">
<!-- Generated by graphviz version 7.0.5 (20221223.1930)
 -->
<!-- Title: src/authorship/proposer.hpp Pages: 1 -->
<!--zoomable 445 -->
<svg id="main" version="1.1" xmlns="http://www.w3.org/2000/svg" xmlns:xlink="http://www.w3.org/1999/xlink" xml:space="preserve" onload="init(evt)">
<style type="text/css"><![CDATA[
.edge:hover path { stroke: red; }
.edge:hover polygon { stroke: red; fill: red; }
]]></style>
<script type="text/javascript"><![CDATA[
var edges = document.getElementsByTagName('g');
if (edges && edges.length) {
  for (var i=0;i<edges.length;i++) {
    if (edges[i].id.substr(0,4)=='edge') {
      edges[i].setAttribute('class','edge');
    }
  }
}
]]></script>
        <defs>
                <circle id="rim" cx="0" cy="0" r="7"/>
                <circle id="rim2" cx="0" cy="0" r="3.5"/>
                <g id="zoomPlus">
                        <use xlink:href="#rim" fill="#404040">
                                <set attributeName="fill" to="#808080" begin="zoomplus.mouseover" end="zoomplus.mouseout"/>
                        </use>
                        <path d="M-4,0h8M0,-4v8" fill="none" stroke="white" stroke-width="1.5" pointer-events="none"/>
                </g>
                <g id="zoomMin">
                        <use xlink:href="#rim" fill="#404040">
                                <set attributeName="fill" to="#808080" begin="zoomminus.mouseover" end="zoomminus.mouseout"/>
                        </use>
                        <path d="M-4,0h8" fill="none" stroke="white" stroke-width="1.5" pointer-events="none"/>
                </g>
                <g id="dirArrow">
                        <path fill="none" stroke="white" stroke-width="1.5" d="M0,-3.0v7 M-2.5,-0.5L0,-3.0L2.5,-0.5"/>
                </g>
               <g id="resetDef">
                       <use xlink:href="#rim2" fill="#404040">
                               <set attributeName="fill" to="#808080" begin="reset.mouseover" end="reset.mouseout"/>
                       </use>
               </g>
        </defs>

<script type="text/javascript">
var viewWidth = 791;
var viewHeight = 445;
var sectionId = 'dynsection-1';
</script>
<script xlink:href="svgpan.js"/>
<svg id="graph" class="graph">
<g id="viewport">
<title>src/authorship/proposer.hpp</title>
<!-- Node1 -->
<g id="node1" class="node">
<title>Node1</title>
<g id="a_node1"><a xlink:title=" ">
<polygon fill="#999999" stroke="#666666" points="556,-437 419,-437 419,-418 556,-418 556,-437"/>
<text text-anchor="middle" x="487.5" y="-425" font-family="Helvetica,sans-Serif" font-size="10.00">src/authorship/proposer.hpp</text>
</a>
</g>
</g>
<!-- Node2 -->
<g id="node2" class="node">
<title>Node2</title>
<g id="a_node2"><a xlink:href="proposer__impl_8hpp.html" target="_top" xlink:title=" ">
<polygon fill="white" stroke="#666666" points="498,-382 399,-382 399,-352 498,-352 498,-382"/>
<text text-anchor="start" x="407" y="-370" font-family="Helvetica,sans-Serif" font-size="10.00">src/authorship/impl</text>
<text text-anchor="middle" x="448.5" y="-359" font-family="Helvetica,sans-Serif" font-size="10.00">/proposer_impl.hpp</text>
</a>
</g>
</g>
<!-- Node1&#45;&gt;Node2 -->
<g id="edge1" class="edge">
<title>Node1&#45;&gt;Node2</title>
<path fill="none" stroke="#63b8ff" d="M475.5,-408.5C469.84,-400.01 463.19,-390.04 457.91,-382.11"/>
<polygon fill="#63b8ff" stroke="#63b8ff" points="472.45,-410.23 480.91,-416.61 478.27,-406.35 472.45,-410.23"/>
</g>
<!-- Node19 -->
<g id="node19" class="node">
<title>Node19</title>
<g id="a_node19"><a xlink:href="production__impl_8hpp.html" target="_top" xlink:title=" ">
<polygon fill="white" stroke="#666666" points="644.5,-316 516.5,-316 516.5,-286 644.5,-286 644.5,-316"/>
<text text-anchor="start" x="524.5" y="-304" font-family="Helvetica,sans-Serif" font-size="10.00">src/verification/production</text>
<text text-anchor="middle" x="580.5" y="-293" font-family="Helvetica,sans-Serif" font-size="10.00">/impl/production_impl.hpp</text>
</a>
</g>
</g>
<!-- Node1&#45;&gt;Node19 -->
<g id="edge20" class="edge">
<title>Node1&#45;&gt;Node19</title>
<path fill="none" stroke="#63b8ff" d="M500.96,-408.48C519.53,-383.62 552.66,-339.27 569.71,-316.45"/>
<polygon fill="#63b8ff" stroke="#63b8ff" points="498.27,-406.23 495.09,-416.33 503.88,-410.42 498.27,-406.23"/>
</g>
<!-- Node3 -->
<g id="node3" class="node">
<title>Node3</title>
<g id="a_node3"><a xlink:href="proposer__impl_8cpp.html" target="_top" xlink:title=" ">
<polygon fill="white" stroke="#666666" points="498,-316 399,-316 399,-286 498,-286 498,-316"/>
<text text-anchor="start" x="407" y="-304" font-family="Helvetica,sans-Serif" font-size="10.00">src/authorship/impl</text>
<text text-anchor="middle" x="448.5" y="-293" font-family="Helvetica,sans-Serif" font-size="10.00">/proposer_impl.cpp</text>
</a>
</g>
</g>
<!-- Node2&#45;&gt;Node3 -->
<g id="edge2" class="edge">
<title>Node2&#45;&gt;Node3</title>
<path fill="none" stroke="#63b8ff" d="M448.5,-340.39C448.5,-332.13 448.5,-323.28 448.5,-316.16"/>
<polygon fill="#63b8ff" stroke="#63b8ff" points="445,-340.28 448.5,-350.28 452,-340.28 445,-340.28"/>
</g>
<!-- Node4 -->
<g id="node4" class="node">
<title>Node4</title>
<g id="a_node4"><a xlink:href="application__injector_8hpp.html" target="_top" xlink:title=" ">
<polygon fill="white" stroke="#666666" points="380.5,-316 266.5,-316 266.5,-286 380.5,-286 380.5,-316"/>
<text text-anchor="start" x="274.5" y="-304" font-family="Helvetica,sans-Serif" font-size="10.00">src/injector/application</text>
<text text-anchor="middle" x="323.5" y="-293" font-family="Helvetica,sans-Serif" font-size="10.00">_injector.hpp</text>
</a>
</g>
</g>
<!-- Node2&#45;&gt;Node4 -->
<g id="edge3" class="edge">
<title>Node2&#45;&gt;Node4</title>
<path fill="none" stroke="#63b8ff" d="M410.32,-346.45C391.34,-336.73 368.81,-325.2 351.46,-316.31"/>
<polygon fill="#63b8ff" stroke="#63b8ff" points="408.6,-349.51 419.1,-350.95 411.79,-343.27 408.6,-349.51"/>
</g>
<!-- Node5 -->
<g id="node5" class="node">
<title>Node5</title>
<g id="a_node5"><a xlink:href="application__injector_8cpp.html" target="_top" xlink:title=" ">
<polygon fill="white" stroke="#666666" points="380.5,-250 266.5,-250 266.5,-220 380.5,-220 380.5,-250"/>
<text text-anchor="start" x="274.5" y="-238" font-family="Helvetica,sans-Serif" font-size="10.00">src/injector/application</text>
<text text-anchor="middle" x="323.5" y="-227" font-family="Helvetica,sans-Serif" font-size="10.00">_injector.cpp</text>
</a>
</g>
</g>
<!-- Node4&#45;&gt;Node5 -->
<g id="edge4" class="edge">
<title>Node4&#45;&gt;Node5</title>
<path fill="none" stroke="#63b8ff" d="M323.5,-274.39C323.5,-266.13 323.5,-257.28 323.5,-250.16"/>
<polygon fill="#63b8ff" stroke="#63b8ff" points="320,-274.28 323.5,-284.28 327,-274.28 320,-274.28"/>
</g>
<!-- Node6 -->
<g id="node6" class="node">
<title>Node6</title>
<g id="a_node6"><a xlink:href="block__producing__node__injector_8hpp.html" target="_top" xlink:title=" ">
<polygon fill="white" stroke="#666666" points="481,-184 336,-184 336,-154 481,-154 481,-184"/>
<text text-anchor="start" x="344" y="-172" font-family="Helvetica,sans-Serif" font-size="10.00">src/injector/block</text>
<text text-anchor="middle" x="408.5" y="-161" font-family="Helvetica,sans-Serif" font-size="10.00">_producing_node_injector.hpp</text>
</a>
</g>
</g>
<!-- Node4&#45;&gt;Node6 -->
<g id="edge5" class="edge">
<title>Node4&#45;&gt;Node6</title>
<path fill="none" stroke="#63b8ff" d="M360.08,-279.15C371,-271.3 382.03,-261.46 389.5,-250 402.68,-229.79 406.74,-201.4 407.97,-184.44"/>
<polygon fill="#63b8ff" stroke="#63b8ff" points="358.21,-276.2 351.87,-284.68 362.12,-282 358.21,-276.2"/>
</g>
<!-- Node11 -->
<g id="node11" class="node">
<title>Node11</title>
<g id="a_node11"><a xlink:href="syncing__node__injector_8hpp.html" target="_top" xlink:title=" ">
<polygon fill="white" stroke="#666666" points="248,-250 147,-250 147,-220 248,-220 248,-250"/>
<text text-anchor="start" x="155" y="-238" font-family="Helvetica,sans-Serif" font-size="10.00">src/injector/syncing</text>
<text text-anchor="middle" x="197.5" y="-227" font-family="Helvetica,sans-Serif" font-size="10.00">_node_injector.hpp</text>
</a>
</g>
</g>
<!-- Node4&#45;&gt;Node11 -->
<g id="edge10" class="edge">
<title>Node4&#45;&gt;Node11</title>
<path fill="none" stroke="#63b8ff" d="M285.02,-280.45C265.88,-270.73 243.17,-259.2 225.68,-250.31"/>
<polygon fill="#63b8ff" stroke="#63b8ff" points="283.37,-283.54 293.87,-284.95 286.54,-277.3 283.37,-283.54"/>
</g>
<!-- Node15 -->
<g id="node15" class="node">
<title>Node15</title>
<g id="a_node15"><a xlink:href="validating__node__injector_8hpp.html" target="_top" xlink:title=" ">
<polygon fill="white" stroke="#666666" points="620,-250 511,-250 511,-220 620,-220 620,-250"/>
<text text-anchor="start" x="519" y="-238" font-family="Helvetica,sans-Serif" font-size="10.00">src/injector/validating</text>
<text text-anchor="middle" x="565.5" y="-227" font-family="Helvetica,sans-Serif" font-size="10.00">_node_injector.hpp</text>
</a>
</g>
</g>
<!-- Node4&#45;&gt;Node15 -->
<g id="edge14" class="edge">
<title>Node4&#45;&gt;Node15</title>
<path fill="none" stroke="#63b8ff" d="M389.13,-282.64C427.35,-272.53 474.97,-259.94 511.09,-250.39"/>
<polygon fill="#63b8ff" stroke="#63b8ff" points="388.35,-279.23 379.57,-285.17 390.14,-286 388.35,-279.23"/>
</g>
<!-- Node7 -->
<g id="node7" class="node">
<title>Node7</title>
<g id="a_node7"><a xlink:href="block__producing__node__application_8hpp.html" target="_top" xlink:title=" ">
<polygon fill="white" stroke="#666666" points="473.5,-118 357.5,-118 357.5,-77 473.5,-77 473.5,-118"/>
<text text-anchor="start" x="365.5" y="-106" font-family="Helvetica,sans-Serif" font-size="10.00">src/application/impl</text>
<text text-anchor="start" x="365.5" y="-95" font-family="Helvetica,sans-Serif" font-size="10.00">/block_producing_node</text>
<text text-anchor="middle" x="415.5" y="-84" font-family="Helvetica,sans-Serif" font-size="10.00">_application.hpp</text>
</a>
</g>
</g>
<!-- Node6&#45;&gt;Node7 -->
<g id="edge6" class="edge">
<title>Node6&#45;&gt;Node7</title>
<path fill="none" stroke="#63b8ff" d="M411.08,-142.36C411.88,-134.45 412.74,-125.87 413.49,-118.42"/>
<polygon fill="#63b8ff" stroke="#63b8ff" points="407.62,-141.79 410.1,-152.09 414.59,-142.49 407.62,-141.79"/>
</g>
<!-- Node10 -->
<g id="node10" class="node">
<title>Node10</title>
<g id="a_node10"><a xlink:href="block__producing__node__injector_8cpp.html" target="_top" xlink:title=" ">
<polygon fill="white" stroke="#666666" points="339,-112.5 194,-112.5 194,-82.5 339,-82.5 339,-112.5"/>
<text text-anchor="start" x="202" y="-100.5" font-family="Helvetica,sans-Serif" font-size="10.00">src/injector/block</text>
<text text-anchor="middle" x="266.5" y="-89.5" font-family="Helvetica,sans-Serif" font-size="10.00">_producing_node_injector.cpp</text>
</a>
</g>
</g>
<!-- Node6&#45;&gt;Node10 -->
<g id="edge9" class="edge">
<title>Node6&#45;&gt;Node10</title>
<path fill="none" stroke="#63b8ff" d="M368.88,-148.61C345.73,-137.28 317.01,-123.22 295.88,-112.88"/>
<polygon fill="#63b8ff" stroke="#63b8ff" points="367.2,-151.68 377.72,-152.93 370.27,-145.39 367.2,-151.68"/>
</g>
<!-- Node8 -->
<g id="node8" class="node">
<title>Node8</title>
<g id="a_node8"><a xlink:href="app__delegate_8cpp.html" target="_top" xlink:title=" ">
<polygon fill="white" stroke="#666666" points="671.5,-30 555.5,-30 555.5,-11 671.5,-11 671.5,-30"/>
<text text-anchor="middle" x="613.5" y="-18" font-family="Helvetica,sans-Serif" font-size="10.00">node/app_delegate.cpp</text>
</a>
</g>
</g>
<!-- Node7&#45;&gt;Node8 -->
<g id="edge7" class="edge">
<title>Node7&#45;&gt;Node8</title>
<path fill="none" stroke="#63b8ff" d="M478.49,-72.64C516.39,-58.28 562.44,-40.84 589.78,-30.48"/>
<polygon fill="#63b8ff" stroke="#63b8ff" points="477.57,-69.25 469.46,-76.06 480.05,-75.79 477.57,-69.25"/>
</g>
<!-- Node9 -->
<g id="node9" class="node">
<title>Node9</title>
<g id="a_node9"><a xlink:href="block__producing__node__application_8cpp.html" target="_top" xlink:title=" ">
<polygon fill="white" stroke="#666666" points="473.5,-41 357.5,-41 357.5,0 473.5,0 473.5,-41"/>
<text text-anchor="start" x="365.5" y="-29" font-family="Helvetica,sans-Serif" font-size="10.00">src/application/impl</text>
<text text-anchor="start" x="365.5" y="-18" font-family="Helvetica,sans-Serif" font-size="10.00">/block_producing_node</text>
<text text-anchor="middle" x="415.5" y="-7" font-family="Helvetica,sans-Serif" font-size="10.00">_application.cpp</text>
</a>
</g>
</g>
<!-- Node7&#45;&gt;Node9 -->
<g id="edge8" class="edge">
<title>Node7&#45;&gt;Node9</title>
<path fill="none" stroke="#63b8ff" d="M415.5,-65.36C415.5,-57.24 415.5,-48.7 415.5,-41.33"/>
<polygon fill="#63b8ff" stroke="#63b8ff" points="412,-65.28 415.5,-75.28 419,-65.28 412,-65.28"/>
</g>
<!-- Node12 -->
<g id="node12" class="node">
<title>Node12</title>
<g id="a_node12"><a xlink:href="syncing__node__application_8hpp.html" target="_top" xlink:title=" ">
<polygon fill="white" stroke="#666666" points="149,-184 0,-184 0,-154 149,-154 149,-184"/>
<text text-anchor="start" x="8" y="-172" font-family="Helvetica,sans-Serif" font-size="10.00">src/application/impl</text>
<text text-anchor="middle" x="74.5" y="-161" font-family="Helvetica,sans-Serif" font-size="10.00">/syncing_node_application.hpp</text>
</a>
</g>
</g>
<!-- Node11&#45;&gt;Node12 -->
<g id="edge11" class="edge">
<title>Node11&#45;&gt;Node12</title>
<path fill="none" stroke="#63b8ff" d="M159.93,-214.45C141.25,-204.73 119.09,-193.2 102.01,-184.31"/>
<polygon fill="#63b8ff" stroke="#63b8ff" points="158.07,-217.43 168.55,-218.94 161.3,-211.22 158.07,-217.43"/>
</g>
<!-- Node14 -->
<g id="node14" class="node">
<title>Node14</title>
<g id="a_node14"><a xlink:href="syncing__node__injector_8cpp.html" target="_top" xlink:title=" ">
<polygon fill="white" stroke="#666666" points="268,-184 167,-184 167,-154 268,-154 268,-184"/>
<text text-anchor="start" x="175" y="-172" font-family="Helvetica,sans-Serif" font-size="10.00">src/injector/syncing</text>
<text text-anchor="middle" x="217.5" y="-161" font-family="Helvetica,sans-Serif" font-size="10.00">_node_injector.cpp</text>
</a>
</g>
</g>
<!-- Node11&#45;&gt;Node14 -->
<g id="edge13" class="edge">
<title>Node11&#45;&gt;Node14</title>
<path fill="none" stroke="#63b8ff" d="M205.32,-208.97C207.95,-200.55 210.8,-191.45 213.07,-184.16"/>
<polygon fill="#63b8ff" stroke="#63b8ff" points="202.03,-207.76 202.39,-218.35 208.71,-209.85 202.03,-207.76"/>
</g>
<!-- Node13 -->
<g id="node13" class="node">
<title>Node13</title>
<g id="a_node13"><a xlink:href="syncing__node__application_8cpp.html" target="_top" xlink:title=" ">
<polygon fill="white" stroke="#666666" points="149,-112.5 0,-112.5 0,-82.5 149,-82.5 149,-112.5"/>
<text text-anchor="start" x="8" y="-100.5" font-family="Helvetica,sans-Serif" font-size="10.00">src/application/impl</text>
<text text-anchor="middle" x="74.5" y="-89.5" font-family="Helvetica,sans-Serif" font-size="10.00">/syncing_node_application.cpp</text>
</a>
</g>
</g>
<!-- Node12&#45;&gt;Node13 -->
<g id="edge12" class="edge">
<title>Node12&#45;&gt;Node13</title>
<path fill="none" stroke="#63b8ff" d="M74.5,-142.26C74.5,-132.33 74.5,-121.36 74.5,-112.88"/>
<polygon fill="#63b8ff" stroke="#63b8ff" points="71,-142.09 74.5,-152.09 78,-142.09 71,-142.09"/>
</g>
<!-- Node15&#45;&gt;Node6 -->
<g id="edge18" class="edge">
<title>Node15&#45;&gt;Node6</title>
<path fill="none" stroke="#63b8ff" d="M519.89,-215.41C495.68,-205.54 466.36,-193.59 443.89,-184.43"/>
<polygon fill="#63b8ff" stroke="#63b8ff" points="518.28,-218.53 528.86,-219.07 520.93,-212.05 518.28,-218.53"/>
</g>
<!-- Node16 -->
<g id="node16" class="node">
<title>Node16</title>
<g id="a_node16"><a xlink:href="validating__node__application_8hpp.html" target="_top" xlink:title=" ">
<polygon fill="white" stroke="#666666" points="656,-184 499,-184 499,-154 656,-154 656,-184"/>
<text text-anchor="start" x="507" y="-172" font-family="Helvetica,sans-Serif" font-size="10.00">src/application/impl</text>
<text text-anchor="middle" x="577.5" y="-161" font-family="Helvetica,sans-Serif" font-size="10.00">/validating_node_application.hpp</text>
</a>
</g>
</g>
<!-- Node15&#45;&gt;Node16 -->
<g id="edge15" class="edge">
<title>Node15&#45;&gt;Node16</title>
<path fill="none" stroke="#63b8ff" d="M570.25,-208.68C571.81,-200.34 573.49,-191.37 574.84,-184.16"/>
<polygon fill="#63b8ff" stroke="#63b8ff" points="566.85,-207.83 568.44,-218.31 573.73,-209.13 566.85,-207.83"/>
</g>
<!-- Node18 -->
<g id="node18" class="node">
<title>Node18</title>
<g id="a_node18"><a xlink:href="validating__node__injector_8cpp.html" target="_top" xlink:title=" ">
<polygon fill="white" stroke="#666666" points="783,-184 674,-184 674,-154 783,-154 783,-184"/>
<text text-anchor="start" x="682" y="-172" font-family="Helvetica,sans-Serif" font-size="10.00">src/injector/validating</text>
<text text-anchor="middle" x="728.5" y="-161" font-family="Helvetica,sans-Serif" font-size="10.00">_node_injector.cpp</text>
</a>
</g>
</g>
<!-- Node15&#45;&gt;Node18 -->
<g id="edge19" class="edge">
<title>Node15&#45;&gt;Node18</title>
<path fill="none" stroke="#63b8ff" d="M612.52,-215.54C637.72,-205.64 668.32,-193.63 691.76,-184.43"/>
<polygon fill="#63b8ff" stroke="#63b8ff" points="611.52,-212.17 603.49,-219.08 614.08,-218.69 611.52,-212.17"/>
</g>
<!-- Node16&#45;&gt;Node8 -->
<g id="edge16" class="edge">
<title>Node16&#45;&gt;Node8</title>
<path fill="none" stroke="#63b8ff" d="M627.05,-148.17C639.53,-140.66 651.38,-130.75 658.5,-118 667.38,-102.09 664.59,-94.18 658.5,-77 651.7,-57.83 635.15,-40.44 624.12,-30.42"/>
<polygon fill="#63b8ff" stroke="#63b8ff" points="625.41,-145.08 618.32,-152.95 628.77,-151.22 625.41,-145.08"/>
</g>
<!-- Node17 -->
<g id="node17" class="node">
<title>Node17</title>
<g id="a_node17"><a xlink:href="validating__node__application_8cpp.html" target="_top" xlink:title=" ">
<polygon fill="white" stroke="#666666" points="649,-112.5 492,-112.5 492,-82.5 649,-82.5 649,-112.5"/>
<text text-anchor="start" x="500" y="-100.5" font-family="Helvetica,sans-Serif" font-size="10.00">src/application/impl</text>
<text text-anchor="middle" x="570.5" y="-89.5" font-family="Helvetica,sans-Serif" font-size="10.00">/validating_node_application.cpp</text>
</a>
</g>
</g>
<!-- Node16&#45;&gt;Node17 -->
<g id="edge17" class="edge">
<title>Node16&#45;&gt;Node17</title>
<path fill="none" stroke="#63b8ff" d="M574.91,-142.26C573.91,-132.33 572.8,-121.36 571.95,-112.88"/>
<polygon fill="#63b8ff" stroke="#63b8ff" points="571.41,-142.49 575.9,-152.09 578.38,-141.79 571.41,-142.49"/>
</g>
<!-- Node19&#45;&gt;Node6 -->
<g id="edge21" class="edge">
<title>Node19&#45;&gt;Node6</title>
<path fill="none" stroke="#63b8ff" d="M546.67,-279.71C532.71,-270.98 516.54,-260.4 502.5,-250 473.57,-228.57 442.13,-200.81 423.93,-184.26"/>
<polygon fill="#63b8ff" stroke="#63b8ff" points="544.76,-282.64 555.1,-284.92 548.43,-276.68 544.76,-282.64"/>
</g>
<!-- Node19&#45;&gt;Node15 -->
<g id="edge22" class="edge">
<title>Node19&#45;&gt;Node15</title>
<path fill="none" stroke="#63b8ff" d="M574.57,-274.68C572.61,-266.34 570.51,-257.37 568.82,-250.16"/>
<polygon fill="#63b8ff" stroke="#63b8ff" points="571.14,-275.39 576.83,-284.32 577.95,-273.79 571.14,-275.39"/>
</g>
<!-- Node20 -->
<g id="node20" class="node">
<title>Node20</title>
<g id="a_node20"><a xlink:href="production__impl_8cpp.html" target="_top" xlink:title=" ">
<polygon fill="white" stroke="#666666" points="766.5,-250 638.5,-250 638.5,-220 766.5,-220 766.5,-250"/>
<text text-anchor="start" x="646.5" y="-238" font-family="Helvetica,sans-Serif" font-size="10.00">src/verification/production</text>
<text text-anchor="middle" x="702.5" y="-227" font-family="Helvetica,sans-Serif" font-size="10.00">/impl/production_impl.cpp</text>
</a>
</g>
</g>
<!-- Node19&#45;&gt;Node20 -->
<g id="edge23" class="edge">
<title>Node19&#45;&gt;Node20</title>
<path fill="none" stroke="#63b8ff" d="M618.02,-280.32C636.49,-270.63 658.36,-259.16 675.21,-250.31"/>
<polygon fill="#63b8ff" stroke="#63b8ff" points="616.45,-277.19 609.22,-284.93 619.7,-283.39 616.45,-277.19"/>
</g>
</g>
</svg>
        <g id="navigator" transform="translate(0 0)" fill="#404254">
                <rect fill="#f2f5e9" fill-opacity="0.5" stroke="#606060" stroke-width=".5" x="0" y="0" width="60" height="60"/>
                <use id="zoomplus" xlink:href="#zoomPlus" x="17" y="9" onmousedown="handleZoom(evt,'in')"/>
                <use id="zoomminus" xlink:href="#zoomMin" x="42" y="9" onmousedown="handleZoom(evt,'out')"/>
                <use id="reset" xlink:href="#resetDef" x="30" y="36" onmousedown="handleReset()"/>
                <g id="arrowUp" xlink:href="#dirArrow" transform="translate(30 24)" onmousedown="handlePan(0,-1)">
                  <use xlink:href="#rim" fill="#404040">
                        <set attributeName="fill" to="#808080" begin="arrowUp.mouseover" end="arrowUp.mouseout"/>
                  </use>
                  <path fill="none" stroke="white" stroke-width="1.5" d="M0,-3.0v7 M-2.5,-0.5L0,-3.0L2.5,-0.5"/>
                </g>
                <g id="arrowRight" xlink:href="#dirArrow" transform="rotate(90) translate(36 -43)" onmousedown="handlePan(1,0)">
                  <use xlink:href="#rim" fill="#404040">
                        <set attributeName="fill" to="#808080" begin="arrowRight.mouseover" end="arrowRight.mouseout"/>
                  </use>
                  <path fill="none" stroke="white" stroke-width="1.5" d="M0,-3.0v7 M-2.5,-0.5L0,-3.0L2.5,-0.5"/>
                </g>
                <g id="arrowDown" xlink:href="#dirArrow" transform="rotate(180) translate(-30 -48)" onmousedown="handlePan(0,1)">
                  <use xlink:href="#rim" fill="#404040">
                        <set attributeName="fill" to="#808080" begin="arrowDown.mouseover" end="arrowDown.mouseout"/>
                  </use>
                  <path fill="none" stroke="white" stroke-width="1.5" d="M0,-3.0v7 M-2.5,-0.5L0,-3.0L2.5,-0.5"/>
                </g>
                <g id="arrowLeft" xlink:href="#dirArrow" transform="rotate(270) translate(-36 17)" onmousedown="handlePan(-1,0)">
                  <use xlink:href="#rim" fill="#404040">
                        <set attributeName="fill" to="#808080" begin="arrowLeft.mouseover" end="arrowLeft.mouseout"/>
                  </use>
                  <path fill="none" stroke="white" stroke-width="1.5" d="M0,-3.0v7 M-2.5,-0.5L0,-3.0L2.5,-0.5"/>
                </g>
        </g>
        <svg viewBox="0 0 15 15" width="100%" height="30px" preserveAspectRatio="xMaxYMin meet">
         <g id="arrow_out" transform="scale(0.3 0.3)">
          <a xlink:href="proposer_8hpp__dep__incl_org.svg" target="_base">
           <rect id="button" ry="5" rx="5" y="6" x="6" height="38" width="38"
                fill="#f2f5e9" fill-opacity="0.5" stroke="#606060" stroke-width="1.0"/>
           <path id="arrow"
             d="M 11.500037,31.436501 C 11.940474,20.09759 22.043105,11.32322 32.158766,21.979434 L 37.068811,17.246167 C 37.068811,17.246167 37.088388,32 37.088388,32 L 22.160133,31.978069 C 22.160133,31.978069 26.997745,27.140456 26.997745,27.140456 C 18.528582,18.264221 13.291696,25.230495 11.500037,31.436501 z"
             style="fill:#404040;"/>
          </a>
         </g>
        </svg>
</svg>
