<?xml version="1.0" encoding="UTF-8" standalone="no"?>
<!DOCTYPE svg PUBLIC "-//W3C//DTD SVG 1.1//EN"
 "http://www.w3.org/Graphics/SVG/1.1/DTD/svg11.dtd">
<!-- Generated by graphviz version 7.0.5 (20221223.1930)
 -->
<!-- Title: src/crdt/globaldb/pubsub_broadcaster_ext.hpp Pages: 1 -->
<svg width="1563pt" height="302pt"
 viewBox="0.00 0.00 1563.00 302.00" xmlns="http://www.w3.org/2000/svg" xmlns:xlink="http://www.w3.org/1999/xlink">
<g id="graph0" class="graph" transform="scale(1 1) rotate(0) translate(4 298)">
<title>src/crdt/globaldb/pubsub_broadcaster_ext.hpp</title>
<!-- Node1 -->
<g id="node1" class="node">
<title>Node1</title>
<g id="a_node1"><a xlink:title=" ">
<polygon fill="#999999" stroke="#666666" points="901.5,-294 778.5,-294 778.5,-264 901.5,-264 901.5,-294"/>
<text text-anchor="start" x="786.5" y="-282" font-family="Helvetica,sans-Serif" font-size="10.00">src/crdt/globaldb/pubsub</text>
<text text-anchor="middle" x="840" y="-271" font-family="Helvetica,sans-Serif" font-size="10.00">_broadcaster_ext.hpp</text>
</a>
</g>
</g>
<!-- Node2 -->
<g id="node2" class="node">
<title>Node2</title>
<g id="a_node2"><a xlink:href="broadcaster_8hpp.html" target="_top" xlink:title=" ">
<polygon fill="white" stroke="#666666" points="601.5,-222.5 496.5,-222.5 496.5,-203.5 601.5,-203.5 601.5,-222.5"/>
<text text-anchor="middle" x="549" y="-210.5" font-family="Helvetica,sans-Serif" font-size="10.00">crdt/broadcaster.hpp</text>
</a>
</g>
</g>
<!-- Node1&#45;&gt;Node2 -->
<g id="edge1" class="edge">
<title>Node1&#45;&gt;Node2</title>
<path fill="none" stroke="#63b8ff" d="M778.29,-264.43C725.51,-252.82 650.41,-236.3 600.73,-225.38"/>
<polygon fill="#63b8ff" stroke="#63b8ff" points="601.6,-221.99 591.08,-223.26 600.1,-228.82 601.6,-221.99"/>
</g>
<!-- Node11 -->
<g id="node11" class="node">
<title>Node11</title>
<g id="a_node11"><a xlink:href="graphsync__dagsyncer_8hpp.html" target="_top" xlink:title=" ">
<polygon fill="white" stroke="#666666" points="914,-222.5 766,-222.5 766,-203.5 914,-203.5 914,-222.5"/>
<text text-anchor="middle" x="840" y="-210.5" font-family="Helvetica,sans-Serif" font-size="10.00">crdt/graphsync_dagsyncer.hpp</text>
</a>
</g>
</g>
<!-- Node1&#45;&gt;Node11 -->
<g id="edge10" class="edge">
<title>Node1&#45;&gt;Node11</title>
<path fill="none" stroke="#63b8ff" d="M840,-263.8C840,-255.09 840,-243.81 840,-234.18"/>
<polygon fill="#63b8ff" stroke="#63b8ff" points="843.5,-234.36 840,-224.36 836.5,-234.36 843.5,-234.36"/>
</g>
<!-- Node15 -->
<g id="node15" class="node">
<title>Node15</title>
<g id="a_node15"><a xlink:href="logger_8hpp.html" target="_top" xlink:title=" ">
<polygon fill="white" stroke="#666666" points="703.5,-151 618.5,-151 618.5,-132 703.5,-132 703.5,-151"/>
<text text-anchor="middle" x="661" y="-139" font-family="Helvetica,sans-Serif" font-size="10.00">base/logger.hpp</text>
</a>
</g>
</g>
<!-- Node1&#45;&gt;Node15 -->
<g id="edge24" class="edge">
<title>Node1&#45;&gt;Node15</title>
<path fill="none" stroke="#63b8ff" d="M813.41,-263.65C796.71,-254.25 775.01,-241.27 757,-228 727.51,-206.27 696.37,-177.26 677.82,-159.23"/>
<polygon fill="#63b8ff" stroke="#63b8ff" points="680.45,-156.92 670.87,-152.41 675.55,-161.91 680.45,-156.92"/>
</g>
<!-- Node24 -->
<g id="node24" class="node">
<title>Node24</title>
<g id="a_node24"><a xlink:title=" ">
<polygon fill="#e0e0e0" stroke="#999999" points="1033.5,-228 932.5,-228 932.5,-198 1033.5,-198 1033.5,-228"/>
<text text-anchor="start" x="940.5" y="-216" font-family="Helvetica,sans-Serif" font-size="10.00">ipfs_pubsub/gossip</text>
<text text-anchor="middle" x="983" y="-205" font-family="Helvetica,sans-Serif" font-size="10.00">_pubsub_topic.hpp</text>
</a>
</g>
</g>
<!-- Node1&#45;&gt;Node24 -->
<g id="edge25" class="edge">
<title>Node1&#45;&gt;Node24</title>
<path fill="none" stroke="#63b8ff" d="M872.09,-263.64C892.33,-254.58 918.7,-242.78 940.64,-232.96"/>
<polygon fill="#63b8ff" stroke="#63b8ff" points="941.94,-236.21 949.63,-228.93 939.08,-229.82 941.94,-236.21"/>
</g>
<!-- Node25 -->
<g id="node25" class="node">
<title>Node25</title>
<g id="a_node25"><a xlink:title=" ">
<polygon fill="#e0e0e0" stroke="#999999" points="1094.5,-222.5 1051.5,-222.5 1051.5,-203.5 1094.5,-203.5 1094.5,-222.5"/>
<text text-anchor="middle" x="1073" y="-210.5" font-family="Helvetica,sans-Serif" font-size="10.00">queue</text>
</a>
</g>
</g>
<!-- Node1&#45;&gt;Node25 -->
<g id="edge26" class="edge">
<title>Node1&#45;&gt;Node25</title>
<path fill="none" stroke="#63b8ff" d="M901.76,-266.07C942.46,-257.41 996.62,-244.36 1043,-228 1043.64,-227.77 1044.29,-227.54 1044.94,-227.29"/>
<polygon fill="#63b8ff" stroke="#63b8ff" points="1046.21,-230.56 1054.08,-223.46 1043.5,-224.1 1046.21,-230.56"/>
</g>
<!-- Node3 -->
<g id="node3" class="node">
<title>Node3</title>
<g id="a_node3"><a xlink:href="buffer_8hpp.html" target="_top" xlink:title=" ">
<polygon fill="white" stroke="#666666" points="414.5,-151 331.5,-151 331.5,-132 414.5,-132 414.5,-151"/>
<text text-anchor="middle" x="373" y="-139" font-family="Helvetica,sans-Serif" font-size="10.00">base/buffer.hpp</text>
</a>
</g>
</g>
<!-- Node2&#45;&gt;Node3 -->
<g id="edge2" class="edge">
<title>Node2&#45;&gt;Node3</title>
<path fill="none" stroke="#63b8ff" d="M526.35,-203.06C495.86,-191.01 441.38,-169.5 406.24,-155.62"/>
<polygon fill="#63b8ff" stroke="#63b8ff" points="407.56,-152.38 396.97,-151.97 404.99,-158.89 407.56,-152.38"/>
</g>
<!-- Node4 -->
<g id="node4" class="node">
<title>Node4</title>
<g id="a_node4"><a xlink:title=" ">
<polygon fill="#e0e0e0" stroke="#999999" points="66,-79.5 0,-79.5 0,-60.5 66,-60.5 66,-79.5"/>
<text text-anchor="middle" x="33" y="-67.5" font-family="Helvetica,sans-Serif" font-size="10.00">string_view</text>
</a>
</g>
</g>
<!-- Node3&#45;&gt;Node4 -->
<g id="edge3" class="edge">
<title>Node3&#45;&gt;Node4</title>
<path fill="none" stroke="#63b8ff" d="M331.14,-134.57C273.12,-125.92 165.18,-108.31 75,-85 72.88,-84.45 70.71,-83.85 68.53,-83.22"/>
<polygon fill="#63b8ff" stroke="#63b8ff" points="69.74,-79.93 59.15,-80.31 67.67,-86.62 69.74,-79.93"/>
</g>
<!-- Node5 -->
<g id="node5" class="node">
<title>Node5</title>
<g id="a_node5"><a xlink:title=" ">
<polygon fill="#e0e0e0" stroke="#999999" points="128,-79.5 84,-79.5 84,-60.5 128,-60.5 128,-79.5"/>
<text text-anchor="middle" x="106" y="-67.5" font-family="Helvetica,sans-Serif" font-size="10.00">vector</text>
</a>
</g>
</g>
<!-- Node3&#45;&gt;Node5 -->
<g id="edge4" class="edge">
<title>Node3&#45;&gt;Node5</title>
<path fill="none" stroke="#63b8ff" d="M331.39,-133.24C283.71,-124.34 203.55,-107.62 137,-85 136.2,-84.73 135.4,-84.45 134.59,-84.15"/>
<polygon fill="#63b8ff" stroke="#63b8ff" points="136.11,-80.99 125.53,-80.46 133.47,-87.47 136.11,-80.99"/>
</g>
<!-- Node6 -->
<g id="node6" class="node">
<title>Node6</title>
<g id="a_node6"><a xlink:title=" ">
<polygon fill="#e0e0e0" stroke="#999999" points="256,-85 146,-85 146,-55 256,-55 256,-85"/>
<text text-anchor="start" x="154" y="-73" font-family="Helvetica,sans-Serif" font-size="10.00">boost/container_hash</text>
<text text-anchor="middle" x="201" y="-62" font-family="Helvetica,sans-Serif" font-size="10.00">/hash.hpp</text>
</a>
</g>
</g>
<!-- Node3&#45;&gt;Node6 -->
<g id="edge5" class="edge">
<title>Node3&#45;&gt;Node6</title>
<path fill="none" stroke="#63b8ff" d="M350.87,-131.56C324.83,-121.04 280.91,-103.29 247.32,-89.72"/>
<polygon fill="#63b8ff" stroke="#63b8ff" points="248.8,-86.54 238.22,-86.04 246.18,-93.03 248.8,-86.54"/>
</g>
<!-- Node7 -->
<g id="node7" class="node">
<title>Node7</title>
<g id="a_node7"><a xlink:title=" ">
<polygon fill="#e0e0e0" stroke="#999999" points="376,-79.5 274,-79.5 274,-60.5 376,-60.5 376,-79.5"/>
<text text-anchor="middle" x="325" y="-67.5" font-family="Helvetica,sans-Serif" font-size="10.00">boost/operators.hpp</text>
</a>
</g>
</g>
<!-- Node3&#45;&gt;Node7 -->
<g id="edge6" class="edge">
<title>Node3&#45;&gt;Node7</title>
<path fill="none" stroke="#63b8ff" d="M366.92,-131.7C359.6,-121.1 347.12,-103.03 337.68,-89.36"/>
<polygon fill="#63b8ff" stroke="#63b8ff" points="340.6,-87.43 332.04,-81.2 334.84,-91.41 340.6,-87.43"/>
</g>
<!-- Node8 -->
<g id="node8" class="node">
<title>Node8</title>
<g id="a_node8"><a xlink:title=" ">
<polygon fill="#e0e0e0" stroke="#999999" points="447.5,-79.5 394.5,-79.5 394.5,-60.5 447.5,-60.5 447.5,-79.5"/>
<text text-anchor="middle" x="421" y="-67.5" font-family="Helvetica,sans-Serif" font-size="10.00">gsl/span</text>
</a>
</g>
</g>
<!-- Node3&#45;&gt;Node8 -->
<g id="edge7" class="edge">
<title>Node3&#45;&gt;Node8</title>
<path fill="none" stroke="#63b8ff" d="M379.08,-131.7C386.4,-121.1 398.88,-103.03 408.32,-89.36"/>
<polygon fill="#63b8ff" stroke="#63b8ff" points="411.16,-91.41 413.96,-81.2 405.4,-87.43 411.16,-91.41"/>
</g>
<!-- Node9 -->
<g id="node9" class="node">
<title>Node9</title>
<g id="a_node9"><a xlink:href="outcome_8hpp.html" target="_top" xlink:title=" ">
<polygon fill="white" stroke="#666666" points="578.5,-79.5 465.5,-79.5 465.5,-60.5 578.5,-60.5 578.5,-79.5"/>
<text text-anchor="middle" x="522" y="-67.5" font-family="Helvetica,sans-Serif" font-size="10.00">outcome/outcome.hpp</text>
</a>
</g>
</g>
<!-- Node3&#45;&gt;Node9 -->
<g id="edge8" class="edge">
<title>Node3&#45;&gt;Node9</title>
<path fill="none" stroke="#63b8ff" d="M392.17,-131.56C417.65,-119.67 462.92,-98.56 492.69,-84.67"/>
<polygon fill="#63b8ff" stroke="#63b8ff" points="493.94,-87.95 501.53,-80.55 490.99,-81.6 493.94,-87.95"/>
</g>
<!-- Node10 -->
<g id="node10" class="node">
<title>Node10</title>
<g id="a_node10"><a xlink:title=" ">
<polygon fill="#e0e0e0" stroke="#999999" points="592.5,-19 451.5,-19 451.5,0 592.5,0 592.5,-19"/>
<text text-anchor="middle" x="522" y="-7" font-family="Helvetica,sans-Serif" font-size="10.00">libp2p/outcome/outcome.hpp</text>
</a>
</g>
</g>
<!-- Node9&#45;&gt;Node10 -->
<g id="edge9" class="edge">
<title>Node9&#45;&gt;Node10</title>
<path fill="none" stroke="#63b8ff" d="M522,-60.37C522,-52.5 522,-40.6 522,-30.39"/>
<polygon fill="#63b8ff" stroke="#63b8ff" points="525.5,-30.68 522,-20.68 518.5,-30.68 525.5,-30.68"/>
</g>
<!-- Node11&#45;&gt;Node3 -->
<g id="edge17" class="edge">
<title>Node11&#45;&gt;Node3</title>
<path fill="none" stroke="#63b8ff" d="M779.9,-203.06C687.96,-189.37 513.83,-163.46 426.2,-150.42"/>
<polygon fill="#63b8ff" stroke="#63b8ff" points="426.84,-146.97 416.43,-148.96 425.81,-153.9 426.84,-146.97"/>
</g>
<!-- Node12 -->
<g id="node12" class="node">
<title>Node12</title>
<g id="a_node12"><a xlink:href="dagsyncer_8hpp.html" target="_top" xlink:title=" ">
<polygon fill="white" stroke="#666666" points="889,-151 791,-151 791,-132 889,-132 889,-151"/>
<text text-anchor="middle" x="840" y="-139" font-family="Helvetica,sans-Serif" font-size="10.00">crdt/dagsyncer.hpp</text>
</a>
</g>
</g>
<!-- Node11&#45;&gt;Node12 -->
<g id="edge11" class="edge">
<title>Node11&#45;&gt;Node12</title>
<path fill="none" stroke="#63b8ff" d="M840,-203.2C840,-193.12 840,-176.29 840,-162.9"/>
<polygon fill="#63b8ff" stroke="#63b8ff" points="843.5,-162.96 840,-152.96 836.5,-162.96 843.5,-162.96"/>
</g>
<!-- Node11&#45;&gt;Node15 -->
<g id="edge14" class="edge">
<title>Node11&#45;&gt;Node15</title>
<path fill="none" stroke="#63b8ff" d="M816.97,-203.06C785.82,-190.96 730.06,-169.32 694.34,-155.44"/>
<polygon fill="#63b8ff" stroke="#63b8ff" points="695.95,-152.31 685.36,-151.96 693.41,-158.84 695.95,-152.31"/>
</g>
<!-- Node18 -->
<g id="node18" class="node">
<title>Node18</title>
<g id="a_node18"><a xlink:title=" ">
<polygon fill="#e0e0e0" stroke="#999999" points="1023,-156.5 907,-156.5 907,-126.5 1023,-126.5 1023,-156.5"/>
<text text-anchor="start" x="915" y="-144.5" font-family="Helvetica,sans-Serif" font-size="10.00">ipfs_lite/ipfs/graphsync</text>
<text text-anchor="middle" x="965" y="-133.5" font-family="Helvetica,sans-Serif" font-size="10.00">/graphsync.hpp</text>
</a>
</g>
</g>
<!-- Node11&#45;&gt;Node18 -->
<g id="edge18" class="edge">
<title>Node11&#45;&gt;Node18</title>
<path fill="none" stroke="#63b8ff" d="M856.09,-203.06C874.43,-192.86 905.01,-175.86 929.1,-162.46"/>
<polygon fill="#63b8ff" stroke="#63b8ff" points="930.61,-165.63 937.65,-157.71 927.21,-159.51 930.61,-165.63"/>
</g>
<!-- Node19 -->
<g id="node19" class="node">
<title>Node19</title>
<g id="a_node19"><a xlink:title=" ">
<polygon fill="#e0e0e0" stroke="#999999" points="1157,-156.5 1041,-156.5 1041,-126.5 1157,-126.5 1157,-156.5"/>
<text text-anchor="start" x="1049" y="-144.5" font-family="Helvetica,sans-Serif" font-size="10.00">ipfs_lite/ipfs/graphsync</text>
<text text-anchor="middle" x="1099" y="-133.5" font-family="Helvetica,sans-Serif" font-size="10.00">/extension.hpp</text>
</a>
</g>
</g>
<!-- Node11&#45;&gt;Node19 -->
<g id="edge19" class="edge">
<title>Node11&#45;&gt;Node19</title>
<path fill="none" stroke="#63b8ff" d="M875.47,-203.09C914.06,-193.31 977.54,-177.01 1032,-162 1034.28,-161.37 1036.6,-160.72 1038.95,-160.07"/>
<polygon fill="#63b8ff" stroke="#63b8ff" points="1039.89,-163.44 1048.56,-157.34 1037.98,-156.7 1039.89,-163.44"/>
</g>
<!-- Node20 -->
<g id="node20" class="node">
<title>Node20</title>
<g id="a_node20"><a xlink:title=" ">
<polygon fill="#e0e0e0" stroke="#999999" points="1292.5,-162 1175.5,-162 1175.5,-121 1292.5,-121 1292.5,-162"/>
<text text-anchor="start" x="1183.5" y="-150" font-family="Helvetica,sans-Serif" font-size="10.00">ipfs_lite/ipfs/graphsync</text>
<text text-anchor="start" x="1183.5" y="-139" font-family="Helvetica,sans-Serif" font-size="10.00">/impl/merkledag_bridge</text>
<text text-anchor="middle" x="1234" y="-128" font-family="Helvetica,sans-Serif" font-size="10.00">_impl.hpp</text>
</a>
</g>
</g>
<!-- Node11&#45;&gt;Node20 -->
<g id="edge20" class="edge">
<title>Node11&#45;&gt;Node20</title>
<path fill="none" stroke="#63b8ff" d="M892.85,-203.05C903.18,-201.34 913.92,-199.59 924,-198 1027.85,-181.62 1057.76,-184.8 1163.93,-162.3"/>
<polygon fill="#63b8ff" stroke="#63b8ff" points="1164.63,-165.73 1173.67,-160.21 1163.16,-158.89 1164.63,-165.73"/>
</g>
<!-- Node21 -->
<g id="node21" class="node">
<title>Node21</title>
<g id="a_node21"><a xlink:title=" ">
<polygon fill="#e0e0e0" stroke="#999999" points="1433,-162 1311,-162 1311,-121 1433,-121 1433,-162"/>
<text text-anchor="start" x="1319" y="-150" font-family="Helvetica,sans-Serif" font-size="10.00">ipfs_lite/ipfs/merkledag</text>
<text text-anchor="start" x="1319" y="-139" font-family="Helvetica,sans-Serif" font-size="10.00">/impl/merkledag_service</text>
<text text-anchor="middle" x="1372" y="-128" font-family="Helvetica,sans-Serif" font-size="10.00">_impl.hpp</text>
</a>
</g>
</g>
<!-- Node11&#45;&gt;Node21 -->
<g id="edge21" class="edge">
<title>Node11&#45;&gt;Node21</title>
<path fill="none" stroke="#63b8ff" d="M890.11,-203.06C901.24,-201.24 913.01,-199.44 924,-198 1087.74,-176.58 1134.09,-192.07 1299.61,-162.27"/>
<polygon fill="#63b8ff" stroke="#63b8ff" points="1299.99,-165.76 1309.19,-160.51 1298.73,-158.87 1299.99,-165.76"/>
</g>
<!-- Node22 -->
<g id="node22" class="node">
<title>Node22</title>
<g id="a_node22"><a xlink:title=" ">
<polygon fill="#e0e0e0" stroke="#999999" points="1555,-151 1451,-151 1451,-132 1555,-132 1555,-151"/>
<text text-anchor="middle" x="1503" y="-139" font-family="Helvetica,sans-Serif" font-size="10.00">libp2p/host/host.hpp</text>
</a>
</g>
</g>
<!-- Node11&#45;&gt;Node22 -->
<g id="edge22" class="edge">
<title>Node11&#45;&gt;Node22</title>
<path fill="none" stroke="#63b8ff" d="M888.75,-203.06C900.28,-201.18 912.55,-199.35 924,-198 1153.19,-171 1215.35,-205.45 1442,-162 1450.81,-160.31 1460.12,-157.75 1468.75,-155.04"/>
<polygon fill="#63b8ff" stroke="#63b8ff" points="1469.76,-158.39 1478.15,-151.92 1467.56,-151.74 1469.76,-158.39"/>
</g>
<!-- Node23 -->
<g id="node23" class="node">
<title>Node23</title>
<g id="a_node23"><a xlink:title=" ">
<polygon fill="#e0e0e0" stroke="#999999" points="772.5,-151 721.5,-151 721.5,-132 772.5,-132 772.5,-151"/>
<text text-anchor="middle" x="747" y="-139" font-family="Helvetica,sans-Serif" font-size="10.00">memory</text>
</a>
</g>
</g>
<!-- Node11&#45;&gt;Node23 -->
<g id="edge23" class="edge">
<title>Node11&#45;&gt;Node23</title>
<path fill="none" stroke="#63b8ff" d="M828.22,-203.2C813.14,-191.93 786.74,-172.2 768.14,-158.3"/>
<polygon fill="#63b8ff" stroke="#63b8ff" points="770.29,-155.54 760.19,-152.36 766.1,-161.15 770.29,-155.54"/>
</g>
<!-- Node13 -->
<g id="node13" class="node">
<title>Node13</title>
<g id="a_node13"><a xlink:title=" ">
<polygon fill="#e0e0e0" stroke="#999999" points="914,-79.5 806,-79.5 806,-60.5 914,-60.5 914,-79.5"/>
<text text-anchor="middle" x="860" y="-67.5" font-family="Helvetica,sans-Serif" font-size="10.00">primitives/cid/cid.hpp</text>
</a>
</g>
</g>
<!-- Node12&#45;&gt;Node13 -->
<g id="edge12" class="edge">
<title>Node12&#45;&gt;Node13</title>
<path fill="none" stroke="#63b8ff" d="M842.53,-131.7C845.46,-121.52 850.38,-104.44 854.25,-90.98"/>
<polygon fill="#63b8ff" stroke="#63b8ff" points="857.6,-91.98 857.01,-81.4 850.88,-90.05 857.6,-91.98"/>
</g>
<!-- Node14 -->
<g id="node14" class="node">
<title>Node14</title>
<g id="a_node14"><a xlink:title=" ">
<polygon fill="#e0e0e0" stroke="#999999" points="1051.5,-85 932.5,-85 932.5,-55 1051.5,-55 1051.5,-85"/>
<text text-anchor="start" x="940.5" y="-73" font-family="Helvetica,sans-Serif" font-size="10.00">ipfs_lite/ipfs/merkledag</text>
<text text-anchor="middle" x="992" y="-62" font-family="Helvetica,sans-Serif" font-size="10.00">/merkledag_service.hpp</text>
</a>
</g>
</g>
<!-- Node12&#45;&gt;Node14 -->
<g id="edge13" class="edge">
<title>Node12&#45;&gt;Node14</title>
<path fill="none" stroke="#63b8ff" d="M859.56,-131.56C882.27,-121.17 920.38,-103.75 949.9,-90.25"/>
<polygon fill="#63b8ff" stroke="#63b8ff" points="951.33,-93.44 958.97,-86.1 948.42,-87.08 951.33,-93.44"/>
</g>
<!-- Node16 -->
<g id="node16" class="node">
<title>Node16</title>
<g id="a_node16"><a xlink:title=" ">
<polygon fill="#e0e0e0" stroke="#999999" points="685.5,-79.5 596.5,-79.5 596.5,-60.5 685.5,-60.5 685.5,-79.5"/>
<text text-anchor="middle" x="641" y="-67.5" font-family="Helvetica,sans-Serif" font-size="10.00">spdlog/fmt/ostr.h</text>
</a>
</g>
</g>
<!-- Node15&#45;&gt;Node16 -->
<g id="edge15" class="edge">
<title>Node15&#45;&gt;Node16</title>
<path fill="none" stroke="#63b8ff" d="M658.47,-131.7C655.54,-121.52 650.62,-104.44 646.75,-90.98"/>
<polygon fill="#63b8ff" stroke="#63b8ff" points="650.12,-90.05 643.99,-81.4 643.4,-91.98 650.12,-90.05"/>
</g>
<!-- Node17 -->
<g id="node17" class="node">
<title>Node17</title>
<g id="a_node17"><a xlink:title=" ">
<polygon fill="#e0e0e0" stroke="#999999" points="788,-79.5 704,-79.5 704,-60.5 788,-60.5 788,-79.5"/>
<text text-anchor="middle" x="746" y="-67.5" font-family="Helvetica,sans-Serif" font-size="10.00">spdlog/spdlog.h</text>
</a>
</g>
</g>
<!-- Node15&#45;&gt;Node17 -->
<g id="edge16" class="edge">
<title>Node15&#45;&gt;Node17</title>
<path fill="none" stroke="#63b8ff" d="M671.77,-131.7C685.49,-120.48 709.46,-100.88 726.44,-86.99"/>
<polygon fill="#63b8ff" stroke="#63b8ff" points="728.36,-89.95 733.88,-80.91 723.92,-84.53 728.36,-89.95"/>
</g>
</g>
</svg>
