<?xml version="1.0" encoding="UTF-8" standalone="no"?>
<!DOCTYPE svg PUBLIC "-//W3C//DTD SVG 1.1//EN"
 "http://www.w3.org/Graphics/SVG/1.1/DTD/svg11.dtd">
<!-- Generated by graphviz version 7.0.5 (20221223.1930)
 -->
<!-- Title: src/storage/rocksdb/rocksdb.hpp Pages: 1 -->
<svg width="1441pt" height="522pt"
 viewBox="0.00 0.00 1441.00 522.00" xmlns="http://www.w3.org/2000/svg" xmlns:xlink="http://www.w3.org/1999/xlink">
<g id="graph0" class="graph" transform="scale(1 1) rotate(0) translate(4 518)">
<title>src/storage/rocksdb/rocksdb.hpp</title>
<!-- Node1 -->
<g id="node1" class="node">
<title>Node1</title>
<g id="a_node1"><a xlink:title=" ">
<polygon fill="#999999" stroke="#666666" points="458.5,-514 355.5,-514 355.5,-484 458.5,-484 458.5,-514"/>
<text text-anchor="start" x="363.5" y="-502" font-family="Helvetica,sans-Serif" font-size="10.00">src/storage/rocksdb</text>
<text text-anchor="middle" x="407" y="-491" font-family="Helvetica,sans-Serif" font-size="10.00">/rocksdb.hpp</text>
</a>
</g>
</g>
<!-- Node2 -->
<g id="node2" class="node">
<title>Node2</title>
<g id="a_node2"><a xlink:title=" ">
<polygon fill="#e0e0e0" stroke="#999999" points="152,-442.5 0,-442.5 0,-423.5 152,-423.5 152,-442.5"/>
<text text-anchor="middle" x="76" y="-430.5" font-family="Helvetica,sans-Serif" font-size="10.00">rocksdb/rocksdb_namespace.h</text>
</a>
</g>
</g>
<!-- Node1&#45;&gt;Node2 -->
<g id="edge1" class="edge">
<title>Node1&#45;&gt;Node2</title>
<path fill="none" stroke="#63b8ff" d="M355.28,-488C295.11,-476.37 196.06,-457.21 133.52,-445.12"/>
<polygon fill="#63b8ff" stroke="#63b8ff" points="134.25,-441.7 123.77,-443.24 132.93,-448.57 134.25,-441.7"/>
</g>
<!-- Node3 -->
<g id="node3" class="node">
<title>Node3</title>
<g id="a_node3"><a xlink:title=" ">
<polygon fill="#e0e0e0" stroke="#999999" points="242,-442.5 170,-442.5 170,-423.5 242,-423.5 242,-442.5"/>
<text text-anchor="middle" x="206" y="-430.5" font-family="Helvetica,sans-Serif" font-size="10.00">rocksdb/db.h</text>
</a>
</g>
</g>
<!-- Node1&#45;&gt;Node3 -->
<g id="edge2" class="edge">
<title>Node1&#45;&gt;Node3</title>
<path fill="none" stroke="#63b8ff" d="M361.64,-483.56C326.48,-472.36 278.28,-457.01 244.87,-446.38"/>
<polygon fill="#63b8ff" stroke="#63b8ff" points="246.18,-443.12 235.59,-443.42 244.06,-449.79 246.18,-443.12"/>
</g>
<!-- Node4 -->
<g id="node4" class="node">
<title>Node4</title>
<g id="a_node4"><a xlink:title=" ">
<polygon fill="#e0e0e0" stroke="#999999" points="342,-442.5 260,-442.5 260,-423.5 342,-423.5 342,-442.5"/>
<text text-anchor="middle" x="301" y="-430.5" font-family="Helvetica,sans-Serif" font-size="10.00">rocksdb/slice.h</text>
</a>
</g>
</g>
<!-- Node1&#45;&gt;Node4 -->
<g id="edge3" class="edge">
<title>Node1&#45;&gt;Node4</title>
<path fill="none" stroke="#63b8ff" d="M383.21,-483.64C365.96,-473.22 342.72,-459.19 325.34,-448.7"/>
<polygon fill="#63b8ff" stroke="#63b8ff" points="327.55,-445.94 317.18,-443.77 323.93,-451.93 327.55,-445.94"/>
</g>
<!-- Node5 -->
<g id="node5" class="node">
<title>Node5</title>
<g id="a_node5"><a xlink:title=" ">
<polygon fill="#e0e0e0" stroke="#999999" points="453.5,-442.5 360.5,-442.5 360.5,-423.5 453.5,-423.5 453.5,-442.5"/>
<text text-anchor="middle" x="407" y="-430.5" font-family="Helvetica,sans-Serif" font-size="10.00">rocksdb/options.h</text>
</a>
</g>
</g>
<!-- Node1&#45;&gt;Node5 -->
<g id="edge4" class="edge">
<title>Node1&#45;&gt;Node5</title>
<path fill="none" stroke="#63b8ff" d="M407,-483.8C407,-475.09 407,-463.81 407,-454.18"/>
<polygon fill="#63b8ff" stroke="#63b8ff" points="410.5,-454.36 407,-444.36 403.5,-454.36 410.5,-454.36"/>
</g>
<!-- Node6 -->
<g id="node6" class="node">
<title>Node6</title>
<g id="a_node6"><a xlink:title=" ">
<polygon fill="#e0e0e0" stroke="#999999" points="584,-442.5 472,-442.5 472,-423.5 584,-423.5 584,-442.5"/>
<text text-anchor="middle" x="528" y="-430.5" font-family="Helvetica,sans-Serif" font-size="10.00">rocksdb/write_batch.h</text>
</a>
</g>
</g>
<!-- Node1&#45;&gt;Node6 -->
<g id="edge5" class="edge">
<title>Node1&#45;&gt;Node6</title>
<path fill="none" stroke="#63b8ff" d="M434.15,-483.64C454.12,-473.08 481.13,-458.79 501.04,-448.26"/>
<polygon fill="#63b8ff" stroke="#63b8ff" points="502.47,-451.46 509.67,-443.69 499.2,-445.28 502.47,-451.46"/>
</g>
<!-- Node7 -->
<g id="node7" class="node">
<title>Node7</title>
<g id="a_node7"><a xlink:href="logger_8hpp.html" target="_top" xlink:title=" ">
<polygon fill="white" stroke="#666666" points="687.5,-442.5 602.5,-442.5 602.5,-423.5 687.5,-423.5 687.5,-442.5"/>
<text text-anchor="middle" x="645" y="-430.5" font-family="Helvetica,sans-Serif" font-size="10.00">base/logger.hpp</text>
</a>
</g>
</g>
<!-- Node1&#45;&gt;Node7 -->
<g id="edge6" class="edge">
<title>Node1&#45;&gt;Node7</title>
<path fill="none" stroke="#63b8ff" d="M458.72,-484.1C496.04,-474.07 547.63,-460.2 593,-448 595.55,-447.31 598.17,-446.61 600.82,-445.9"/>
<polygon fill="#63b8ff" stroke="#63b8ff" points="601.5,-449.34 610.25,-443.36 599.68,-442.58 601.5,-449.34"/>
</g>
<!-- Node10 -->
<g id="node10" class="node">
<title>Node10</title>
<g id="a_node10"><a xlink:href="buffer__map__types_8hpp.html" target="_top" xlink:title=" ">
<polygon fill="white" stroke="#666666" points="975,-448 875,-448 875,-418 975,-418 975,-448"/>
<text text-anchor="start" x="883" y="-436" font-family="Helvetica,sans-Serif" font-size="10.00">storage/buffer_map</text>
<text text-anchor="middle" x="925" y="-425" font-family="Helvetica,sans-Serif" font-size="10.00">_types.hpp</text>
</a>
</g>
</g>
<!-- Node1&#45;&gt;Node10 -->
<g id="edge9" class="edge">
<title>Node1&#45;&gt;Node10</title>
<path fill="none" stroke="#63b8ff" d="M458.56,-491.63C554.63,-479.76 760.6,-454.31 863.65,-441.58"/>
<polygon fill="#63b8ff" stroke="#63b8ff" points="863.79,-445.09 873.29,-440.39 862.94,-438.14 863.79,-445.09"/>
</g>
<!-- Node8 -->
<g id="node8" class="node">
<title>Node8</title>
<g id="a_node8"><a xlink:title=" ">
<polygon fill="#e0e0e0" stroke="#999999" points="689.5,-376.5 600.5,-376.5 600.5,-357.5 689.5,-357.5 689.5,-376.5"/>
<text text-anchor="middle" x="645" y="-364.5" font-family="Helvetica,sans-Serif" font-size="10.00">spdlog/fmt/ostr.h</text>
</a>
</g>
</g>
<!-- Node7&#45;&gt;Node8 -->
<g id="edge7" class="edge">
<title>Node7&#45;&gt;Node8</title>
<path fill="none" stroke="#63b8ff" d="M645,-423.1C645,-414.12 645,-399.95 645,-388.22"/>
<polygon fill="#63b8ff" stroke="#63b8ff" points="648.5,-388.34 645,-378.34 641.5,-388.34 648.5,-388.34"/>
</g>
<!-- Node9 -->
<g id="node9" class="node">
<title>Node9</title>
<g id="a_node9"><a xlink:title=" ">
<polygon fill="#e0e0e0" stroke="#999999" points="582,-376.5 498,-376.5 498,-357.5 582,-357.5 582,-376.5"/>
<text text-anchor="middle" x="540" y="-364.5" font-family="Helvetica,sans-Serif" font-size="10.00">spdlog/spdlog.h</text>
</a>
</g>
</g>
<!-- Node7&#45;&gt;Node9 -->
<g id="edge8" class="edge">
<title>Node7&#45;&gt;Node9</title>
<path fill="none" stroke="#63b8ff" d="M630.4,-423.1C613.24,-412.64 584.51,-395.13 564.04,-382.66"/>
<polygon fill="#63b8ff" stroke="#63b8ff" points="566.13,-379.83 555.77,-377.61 562.49,-385.8 566.13,-379.83"/>
</g>
<!-- Node11 -->
<g id="node11" class="node">
<title>Node11</title>
<g id="a_node11"><a xlink:title=" ">
<polygon fill="#e0e0e0" stroke="#999999" points="916.5,-310.5 863.5,-310.5 863.5,-291.5 916.5,-291.5 916.5,-310.5"/>
<text text-anchor="middle" x="890" y="-298.5" font-family="Helvetica,sans-Serif" font-size="10.00">gsl/span</text>
</a>
</g>
</g>
<!-- Node10&#45;&gt;Node11 -->
<g id="edge10" class="edge">
<title>Node10&#45;&gt;Node11</title>
<path fill="none" stroke="#63b8ff" d="M921.12,-417.59C914.82,-394.19 902.36,-347.9 895.27,-321.56"/>
<polygon fill="#63b8ff" stroke="#63b8ff" points="898.72,-320.92 892.74,-312.17 891.96,-322.74 898.72,-320.92"/>
</g>
<!-- Node12 -->
<g id="node12" class="node">
<title>Node12</title>
<g id="a_node12"><a xlink:href="buffer_8hpp.html" target="_top" xlink:title=" ">
<polygon fill="white" stroke="#666666" points="790.5,-376.5 707.5,-376.5 707.5,-357.5 790.5,-357.5 790.5,-376.5"/>
<text text-anchor="middle" x="749" y="-364.5" font-family="Helvetica,sans-Serif" font-size="10.00">base/buffer.hpp</text>
</a>
</g>
</g>
<!-- Node10&#45;&gt;Node12 -->
<g id="edge11" class="edge">
<title>Node10&#45;&gt;Node12</title>
<path fill="none" stroke="#63b8ff" d="M885.5,-417.64C855.13,-406.59 813.54,-391.47 784.27,-380.83"/>
<polygon fill="#63b8ff" stroke="#63b8ff" points="785.73,-377.63 775.13,-377.5 783.34,-384.21 785.73,-377.63"/>
</g>
<!-- Node19 -->
<g id="node19" class="node">
<title>Node19</title>
<g id="a_node19"><a xlink:href="batchable_8hpp.html" target="_top" xlink:title=" ">
<polygon fill="white" stroke="#666666" points="1107,-250 973,-250 973,-231 1107,-231 1107,-250"/>
<text text-anchor="middle" x="1040" y="-238" font-family="Helvetica,sans-Serif" font-size="10.00">storage/face/batchable.hpp</text>
</a>
</g>
</g>
<!-- Node10&#45;&gt;Node19 -->
<g id="edge19" class="edge">
<title>Node10&#45;&gt;Node19</title>
<path fill="none" stroke="#63b8ff" d="M935.11,-417.75C942.03,-407.84 951.3,-394.27 959,-382 985.83,-339.21 1014.83,-287.41 1029.78,-260.23"/>
<polygon fill="#63b8ff" stroke="#63b8ff" points="1032.82,-261.96 1034.56,-251.51 1026.69,-258.6 1032.82,-261.96"/>
</g>
<!-- Node21 -->
<g id="node21" class="node">
<title>Node21</title>
<g id="a_node21"><a xlink:href="write__batch_8hpp.html" target="_top" xlink:title=" ">
<polygon fill="white" stroke="#666666" points="1068.5,-195 973.5,-195 973.5,-165 1068.5,-165 1068.5,-195"/>
<text text-anchor="start" x="981.5" y="-183" font-family="Helvetica,sans-Serif" font-size="10.00">storage/face/write</text>
<text text-anchor="middle" x="1021" y="-172" font-family="Helvetica,sans-Serif" font-size="10.00">_batch.hpp</text>
</a>
</g>
</g>
<!-- Node10&#45;&gt;Node21 -->
<g id="edge36" class="edge">
<title>Node10&#45;&gt;Node21</title>
<path fill="none" stroke="#63b8ff" d="M924.7,-417.51C924.62,-382.86 928.16,-293.42 964,-231 970.26,-220.1 979.78,-210.37 989.26,-202.46"/>
<polygon fill="#63b8ff" stroke="#63b8ff" points="991.3,-205.31 997.03,-196.39 986.99,-199.79 991.3,-205.31"/>
</g>
<!-- Node23 -->
<g id="node23" class="node">
<title>Node23</title>
<g id="a_node23"><a xlink:href="generic__storage_8hpp.html" target="_top" xlink:title=" ">
<polygon fill="white" stroke="#666666" points="1152.5,-382 1047.5,-382 1047.5,-352 1152.5,-352 1152.5,-382"/>
<text text-anchor="start" x="1055.5" y="-370" font-family="Helvetica,sans-Serif" font-size="10.00">storage/face/generic</text>
<text text-anchor="middle" x="1100" y="-359" font-family="Helvetica,sans-Serif" font-size="10.00">_storage.hpp</text>
</a>
</g>
</g>
<!-- Node10&#45;&gt;Node23 -->
<g id="edge25" class="edge">
<title>Node10&#45;&gt;Node23</title>
<path fill="none" stroke="#63b8ff" d="M964.27,-417.64C989.63,-408.36 1022.84,-396.22 1050.06,-386.26"/>
<polygon fill="#63b8ff" stroke="#63b8ff" points="1050.94,-389.67 1059.13,-382.95 1048.54,-383.09 1050.94,-389.67"/>
</g>
<!-- Node12&#45;&gt;Node11 -->
<g id="edge16" class="edge">
<title>Node12&#45;&gt;Node11</title>
<path fill="none" stroke="#63b8ff" d="M768.61,-357.1C792.39,-346.31 832.71,-328 860.31,-315.48"/>
<polygon fill="#63b8ff" stroke="#63b8ff" points="861.52,-318.77 869.18,-311.45 858.63,-312.4 861.52,-318.77"/>
</g>
<!-- Node13 -->
<g id="node13" class="node">
<title>Node13</title>
<g id="a_node13"><a xlink:title=" ">
<polygon fill="#e0e0e0" stroke="#999999" points="617,-310.5 551,-310.5 551,-291.5 617,-291.5 617,-310.5"/>
<text text-anchor="middle" x="584" y="-298.5" font-family="Helvetica,sans-Serif" font-size="10.00">string_view</text>
</a>
</g>
</g>
<!-- Node12&#45;&gt;Node13 -->
<g id="edge12" class="edge">
<title>Node12&#45;&gt;Node13</title>
<path fill="none" stroke="#63b8ff" d="M726.06,-357.1C697.94,-346.19 650.05,-327.62 617.74,-315.09"/>
<polygon fill="#63b8ff" stroke="#63b8ff" points="619.01,-311.83 608.42,-311.47 616.48,-318.35 619.01,-311.83"/>
</g>
<!-- Node14 -->
<g id="node14" class="node">
<title>Node14</title>
<g id="a_node14"><a xlink:title=" ">
<polygon fill="#e0e0e0" stroke="#999999" points="679,-310.5 635,-310.5 635,-291.5 679,-291.5 679,-310.5"/>
<text text-anchor="middle" x="657" y="-298.5" font-family="Helvetica,sans-Serif" font-size="10.00">vector</text>
</a>
</g>
</g>
<!-- Node12&#45;&gt;Node14 -->
<g id="edge13" class="edge">
<title>Node12&#45;&gt;Node14</title>
<path fill="none" stroke="#63b8ff" d="M736.21,-357.1C721.45,-346.83 696.91,-329.77 679.06,-317.34"/>
<polygon fill="#63b8ff" stroke="#63b8ff" points="681.13,-314.53 670.93,-311.69 677.14,-320.27 681.13,-314.53"/>
</g>
<!-- Node15 -->
<g id="node15" class="node">
<title>Node15</title>
<g id="a_node15"><a xlink:title=" ">
<polygon fill="#e0e0e0" stroke="#999999" points="845,-316 735,-316 735,-286 845,-286 845,-316"/>
<text text-anchor="start" x="743" y="-304" font-family="Helvetica,sans-Serif" font-size="10.00">boost/container_hash</text>
<text text-anchor="middle" x="790" y="-293" font-family="Helvetica,sans-Serif" font-size="10.00">/hash.hpp</text>
</a>
</g>
</g>
<!-- Node12&#45;&gt;Node15 -->
<g id="edge14" class="edge">
<title>Node12&#45;&gt;Node15</title>
<path fill="none" stroke="#63b8ff" d="M754.7,-357.1C759.89,-349 767.79,-336.67 774.8,-325.73"/>
<polygon fill="#63b8ff" stroke="#63b8ff" points="777.62,-327.82 780.07,-317.51 771.72,-324.04 777.62,-327.82"/>
</g>
<!-- Node16 -->
<g id="node16" class="node">
<title>Node16</title>
<g id="a_node16"><a xlink:title=" ">
<polygon fill="#e0e0e0" stroke="#999999" points="533,-310.5 431,-310.5 431,-291.5 533,-291.5 533,-310.5"/>
<text text-anchor="middle" x="482" y="-298.5" font-family="Helvetica,sans-Serif" font-size="10.00">boost/operators.hpp</text>
</a>
</g>
</g>
<!-- Node12&#45;&gt;Node16 -->
<g id="edge15" class="edge">
<title>Node12&#45;&gt;Node16</title>
<path fill="none" stroke="#63b8ff" d="M717.22,-357.06C710.87,-355.33 704.23,-353.57 698,-352 629.01,-334.58 611.31,-332.08 542,-316 538.62,-315.22 535.13,-314.4 531.62,-313.59"/>
<polygon fill="#63b8ff" stroke="#63b8ff" points="532.41,-310.18 521.88,-311.32 530.83,-317 532.41,-310.18"/>
</g>
<!-- Node17 -->
<g id="node17" class="node">
<title>Node17</title>
<g id="a_node17"><a xlink:href="outcome_8hpp.html" target="_top" xlink:title=" ">
<polygon fill="white" stroke="#666666" points="1247.5,-74 1134.5,-74 1134.5,-55 1247.5,-55 1247.5,-74"/>
<text text-anchor="middle" x="1191" y="-62" font-family="Helvetica,sans-Serif" font-size="10.00">outcome/outcome.hpp</text>
</a>
</g>
</g>
<!-- Node12&#45;&gt;Node17 -->
<g id="edge17" class="edge">
<title>Node12&#45;&gt;Node17</title>
<path fill="none" stroke="#63b8ff" d="M743.85,-357.28C732.63,-337.45 707,-287.12 707,-241.5 707,-241.5 707,-241.5 707,-179 707,-94.61 989.41,-72.92 1122.78,-67.38"/>
<polygon fill="#63b8ff" stroke="#63b8ff" points="1122.69,-70.89 1132.54,-67 1122.41,-63.89 1122.69,-70.89"/>
</g>
<!-- Node18 -->
<g id="node18" class="node">
<title>Node18</title>
<g id="a_node18"><a xlink:title=" ">
<polygon fill="#e0e0e0" stroke="#999999" points="1261.5,-19 1120.5,-19 1120.5,0 1261.5,0 1261.5,-19"/>
<text text-anchor="middle" x="1191" y="-7" font-family="Helvetica,sans-Serif" font-size="10.00">libp2p/outcome/outcome.hpp</text>
</a>
</g>
</g>
<!-- Node17&#45;&gt;Node18 -->
<g id="edge18" class="edge">
<title>Node17&#45;&gt;Node18</title>
<path fill="none" stroke="#63b8ff" d="M1191,-54.75C1191,-48.27 1191,-39.16 1191,-30.9"/>
<polygon fill="#63b8ff" stroke="#63b8ff" points="1194.5,-30.96 1191,-20.96 1187.5,-30.96 1194.5,-30.96"/>
</g>
<!-- Node20 -->
<g id="node20" class="node">
<title>Node20</title>
<g id="a_node20"><a xlink:title=" ">
<polygon fill="#e0e0e0" stroke="#999999" points="1214.5,-189.5 1163.5,-189.5 1163.5,-170.5 1214.5,-170.5 1214.5,-189.5"/>
<text text-anchor="middle" x="1189" y="-177.5" font-family="Helvetica,sans-Serif" font-size="10.00">memory</text>
</a>
</g>
</g>
<!-- Node19&#45;&gt;Node20 -->
<g id="edge20" class="edge">
<title>Node19&#45;&gt;Node20</title>
<path fill="none" stroke="#63b8ff" d="M1062.63,-230.62C1087.35,-220.91 1127.21,-205.26 1155.54,-194.14"/>
<polygon fill="#63b8ff" stroke="#63b8ff" points="1156.72,-197.43 1164.75,-190.52 1154.16,-190.92 1156.72,-197.43"/>
</g>
<!-- Node19&#45;&gt;Node21 -->
<g id="edge21" class="edge">
<title>Node19&#45;&gt;Node21</title>
<path fill="none" stroke="#63b8ff" d="M1037.2,-230.87C1035.05,-224.25 1031.97,-214.78 1029.07,-205.86"/>
<polygon fill="#63b8ff" stroke="#63b8ff" points="1032.47,-204.98 1026.05,-196.55 1025.81,-207.15 1032.47,-204.98"/>
</g>
<!-- Node22 -->
<g id="node22" class="node">
<title>Node22</title>
<g id="a_node22"><a xlink:href="writeable_8hpp.html" target="_top" xlink:title=" ">
<polygon fill="white" stroke="#666666" points="1181.5,-129 1050.5,-129 1050.5,-110 1181.5,-110 1181.5,-129"/>
<text text-anchor="middle" x="1116" y="-117" font-family="Helvetica,sans-Serif" font-size="10.00">storage/face/writeable.hpp</text>
</a>
</g>
</g>
<!-- Node19&#45;&gt;Node22 -->
<g id="edge24" class="edge">
<title>Node19&#45;&gt;Node22</title>
<path fill="none" stroke="#63b8ff" d="M1048.24,-230.74C1056.16,-222.06 1068.19,-208.21 1077,-195 1089,-176.99 1100.18,-154.87 1107.46,-139.42"/>
<polygon fill="#63b8ff" stroke="#63b8ff" points="1110.58,-141.02 1111.59,-130.47 1104.23,-138.09 1110.58,-141.02"/>
</g>
<!-- Node21&#45;&gt;Node22 -->
<g id="edge22" class="edge">
<title>Node21&#45;&gt;Node22</title>
<path fill="none" stroke="#63b8ff" d="M1044.48,-164.54C1058.9,-155.66 1077.31,-144.32 1091.85,-135.37"/>
<polygon fill="#63b8ff" stroke="#63b8ff" points="1093.67,-138.36 1100.35,-130.14 1090,-132.4 1093.67,-138.36"/>
</g>
<!-- Node22&#45;&gt;Node17 -->
<g id="edge23" class="edge">
<title>Node22&#45;&gt;Node17</title>
<path fill="none" stroke="#63b8ff" d="M1128.72,-109.51C1139.78,-101.7 1156.04,-90.21 1169.17,-80.93"/>
<polygon fill="#63b8ff" stroke="#63b8ff" points="1171.08,-83.86 1177.23,-75.23 1167.04,-78.14 1171.08,-83.86"/>
</g>
<!-- Node24 -->
<g id="node24" class="node">
<title>Node24</title>
<g id="a_node24"><a xlink:href="generic__maps_8hpp.html" target="_top" xlink:title=" ">
<polygon fill="white" stroke="#666666" points="1187.5,-316 1082.5,-316 1082.5,-286 1187.5,-286 1187.5,-316"/>
<text text-anchor="start" x="1090.5" y="-304" font-family="Helvetica,sans-Serif" font-size="10.00">storage/face/generic</text>
<text text-anchor="middle" x="1135" y="-293" font-family="Helvetica,sans-Serif" font-size="10.00">_maps.hpp</text>
</a>
</g>
</g>
<!-- Node23&#45;&gt;Node24 -->
<g id="edge26" class="edge">
<title>Node23&#45;&gt;Node24</title>
<path fill="none" stroke="#63b8ff" d="M1107.77,-351.8C1111.89,-344.26 1117.07,-334.78 1121.8,-326.13"/>
<polygon fill="#63b8ff" stroke="#63b8ff" points="1124.8,-327.94 1126.53,-317.49 1118.66,-324.59 1124.8,-327.94"/>
</g>
<!-- Node24&#45;&gt;Node19 -->
<g id="edge27" class="edge">
<title>Node24&#45;&gt;Node19</title>
<path fill="none" stroke="#63b8ff" d="M1111.52,-285.54C1097.1,-276.66 1078.69,-265.32 1064.15,-256.37"/>
<polygon fill="#63b8ff" stroke="#63b8ff" points="1066,-253.4 1055.65,-251.14 1062.33,-259.36 1066,-253.4"/>
</g>
<!-- Node24&#45;&gt;Node22 -->
<g id="edge35" class="edge">
<title>Node24&#45;&gt;Node22</title>
<path fill="none" stroke="#63b8ff" d="M1133.48,-285.61C1130.11,-253.76 1122,-177.22 1118.13,-140.64"/>
<polygon fill="#63b8ff" stroke="#63b8ff" points="1121.65,-140.58 1117.11,-131 1114.68,-141.32 1121.65,-140.58"/>
</g>
<!-- Node25 -->
<g id="node25" class="node">
<title>Node25</title>
<g id="a_node25"><a xlink:href="iterable_8hpp.html" target="_top" xlink:title=" ">
<polygon fill="white" stroke="#666666" points="1286.5,-250 1163.5,-250 1163.5,-231 1286.5,-231 1286.5,-250"/>
<text text-anchor="middle" x="1225" y="-238" font-family="Helvetica,sans-Serif" font-size="10.00">storage/face/iterable.hpp</text>
</a>
</g>
</g>
<!-- Node24&#45;&gt;Node25 -->
<g id="edge28" class="edge">
<title>Node24&#45;&gt;Node25</title>
<path fill="none" stroke="#63b8ff" d="M1157.25,-285.54C1170.9,-276.66 1188.35,-265.32 1202.12,-256.37"/>
<polygon fill="#63b8ff" stroke="#63b8ff" points="1203.64,-259.56 1210.12,-251.17 1199.83,-253.69 1203.64,-259.56"/>
</g>
<!-- Node27 -->
<g id="node27" class="node">
<title>Node27</title>
<g id="a_node27"><a xlink:href="readable_8hpp.html" target="_top" xlink:title=" ">
<polygon fill="white" stroke="#666666" points="1433,-250 1305,-250 1305,-231 1433,-231 1433,-250"/>
<text text-anchor="middle" x="1369" y="-238" font-family="Helvetica,sans-Serif" font-size="10.00">storage/face/readable.hpp</text>
</a>
</g>
</g>
<!-- Node24&#45;&gt;Node27 -->
<g id="edge32" class="edge">
<title>Node24&#45;&gt;Node27</title>
<path fill="none" stroke="#63b8ff" d="M1187.81,-286.8C1228.17,-276.71 1283.3,-262.93 1322.11,-253.22"/>
<polygon fill="#63b8ff" stroke="#63b8ff" points="1322.78,-256.66 1331.63,-250.84 1321.08,-249.87 1322.78,-256.66"/>
</g>
<!-- Node25&#45;&gt;Node20 -->
<g id="edge29" class="edge">
<title>Node25&#45;&gt;Node20</title>
<path fill="none" stroke="#63b8ff" d="M1219.69,-230.87C1214.58,-222.57 1206.71,-209.78 1200.21,-199.22"/>
<polygon fill="#63b8ff" stroke="#63b8ff" points="1203.35,-197.64 1195.13,-190.96 1197.39,-201.31 1203.35,-197.64"/>
</g>
<!-- Node26 -->
<g id="node26" class="node">
<title>Node26</title>
<g id="a_node26"><a xlink:href="map__cursor_8hpp.html" target="_top" xlink:title=" ">
<polygon fill="white" stroke="#666666" points="1375.5,-189.5 1232.5,-189.5 1232.5,-170.5 1375.5,-170.5 1375.5,-189.5"/>
<text text-anchor="middle" x="1304" y="-177.5" font-family="Helvetica,sans-Serif" font-size="10.00">storage/face/map_cursor.hpp</text>
</a>
</g>
</g>
<!-- Node25&#45;&gt;Node26 -->
<g id="edge30" class="edge">
<title>Node25&#45;&gt;Node26</title>
<path fill="none" stroke="#63b8ff" d="M1237,-230.62C1249.18,-221.6 1268.29,-207.45 1282.98,-196.56"/>
<polygon fill="#63b8ff" stroke="#63b8ff" points="1284.72,-199.63 1290.67,-190.87 1280.55,-194.01 1284.72,-199.63"/>
</g>
<!-- Node26&#45;&gt;Node17 -->
<g id="edge31" class="edge">
<title>Node26&#45;&gt;Node17</title>
<path fill="none" stroke="#63b8ff" d="M1295.13,-170.09C1276.32,-151.2 1232.14,-106.82 1207.81,-82.38"/>
<polygon fill="#63b8ff" stroke="#63b8ff" points="1210.43,-80.05 1200.89,-75.44 1205.47,-84.99 1210.43,-80.05"/>
</g>
<!-- Node27&#45;&gt;Node17 -->
<g id="edge33" class="edge">
<title>Node27&#45;&gt;Node17</title>
<path fill="none" stroke="#63b8ff" d="M1374.81,-230.55C1383.57,-215.81 1397.83,-186 1385,-165 1355.19,-116.21 1293.02,-90.36 1247.06,-77.36"/>
<polygon fill="#63b8ff" stroke="#63b8ff" points="1248.07,-74.01 1237.51,-74.79 1246.25,-80.77 1248.07,-74.01"/>
</g>
<!-- Node27&#45;&gt;Node26 -->
<g id="edge34" class="edge">
<title>Node27&#45;&gt;Node26</title>
<path fill="none" stroke="#63b8ff" d="M1359.13,-230.62C1349.39,-221.85 1334.28,-208.25 1322.34,-197.5"/>
<polygon fill="#63b8ff" stroke="#63b8ff" points="1324.86,-195.07 1315.09,-190.98 1320.18,-200.27 1324.86,-195.07"/>
</g>
</g>
</svg>
