<?xml version="1.0" encoding="UTF-8" standalone="no"?>
<!DOCTYPE svg PUBLIC "-//W3C//DTD SVG 1.1//EN"
 "http://www.w3.org/Graphics/SVG/1.1/DTD/svg11.dtd">
<!-- Generated by graphviz version 7.0.5 (20221223.1930)
 -->
<!-- Title: src/storage/rocksdb/rocksdb_util.hpp Pages: 1 -->
<svg width="877pt" height="214pt"
 viewBox="0.00 0.00 876.50 214.00" xmlns="http://www.w3.org/2000/svg" xmlns:xlink="http://www.w3.org/1999/xlink">
<g id="graph0" class="graph" transform="scale(1 1) rotate(0) translate(4 210)">
<title>src/storage/rocksdb/rocksdb_util.hpp</title>
<!-- Node1 -->
<g id="node1" class="node">
<title>Node1</title>
<g id="a_node1"><a xlink:title=" ">
<polygon fill="#999999" stroke="#666666" points="254,-206 151,-206 151,-176 254,-176 254,-206"/>
<text text-anchor="start" x="159" y="-194" font-family="Helvetica,sans-Serif" font-size="10.00">src/storage/rocksdb</text>
<text text-anchor="middle" x="202.5" y="-183" font-family="Helvetica,sans-Serif" font-size="10.00">/rocksdb_util.hpp</text>
</a>
</g>
</g>
<!-- Node2 -->
<g id="node2" class="node">
<title>Node2</title>
<g id="a_node2"><a xlink:title=" ">
<polygon fill="#e0e0e0" stroke="#999999" points="89,-140 0,-140 0,-121 89,-121 89,-140"/>
<text text-anchor="middle" x="44.5" y="-128" font-family="Helvetica,sans-Serif" font-size="10.00">rocksdb/status.h</text>
</a>
</g>
</g>
<!-- Node1&#45;&gt;Node2 -->
<g id="edge1" class="edge">
<title>Node1&#45;&gt;Node2</title>
<path fill="none" stroke="#63b8ff" d="M163.44,-175.54C137.61,-165.97 104.04,-153.55 79.16,-144.33"/>
<polygon fill="#63b8ff" stroke="#63b8ff" points="80.4,-141.06 69.81,-140.87 77.97,-147.63 80.4,-141.06"/>
</g>
<!-- Node3 -->
<g id="node3" class="node">
<title>Node3</title>
<g id="a_node3"><a xlink:title=" ">
<polygon fill="#e0e0e0" stroke="#999999" points="133,-79.5 80,-79.5 80,-60.5 133,-60.5 133,-79.5"/>
<text text-anchor="middle" x="106.5" y="-67.5" font-family="Helvetica,sans-Serif" font-size="10.00">gsl/span</text>
</a>
</g>
</g>
<!-- Node1&#45;&gt;Node3 -->
<g id="edge2" class="edge">
<title>Node1&#45;&gt;Node3</title>
<path fill="none" stroke="#63b8ff" d="M191.11,-175.88C173.47,-154.02 139.61,-112.04 120.5,-88.36"/>
<polygon fill="#63b8ff" stroke="#63b8ff" points="123.48,-86.47 114.48,-80.89 118.03,-90.87 123.48,-86.47"/>
</g>
<!-- Node4 -->
<g id="node4" class="node">
<title>Node4</title>
<g id="a_node4"><a xlink:href="outcome_8hpp.html" target="_top" xlink:title=" ">
<polygon fill="white" stroke="#666666" points="264,-79.5 151,-79.5 151,-60.5 264,-60.5 264,-79.5"/>
<text text-anchor="middle" x="207.5" y="-67.5" font-family="Helvetica,sans-Serif" font-size="10.00">outcome/outcome.hpp</text>
</a>
</g>
</g>
<!-- Node1&#45;&gt;Node4 -->
<g id="edge3" class="edge">
<title>Node1&#45;&gt;Node4</title>
<path fill="none" stroke="#63b8ff" d="M190.56,-175.75C180.52,-161.99 168.66,-140.44 174.5,-121 178.06,-109.15 185.44,-97.51 192.32,-88.45"/>
<polygon fill="#63b8ff" stroke="#63b8ff" points="194.84,-90.89 198.43,-80.92 189.41,-86.48 194.84,-90.89"/>
</g>
<!-- Node6 -->
<g id="node6" class="node">
<title>Node6</title>
<g id="a_node6"><a xlink:href="buffer_8hpp.html" target="_top" xlink:title=" ">
<polygon fill="white" stroke="#666666" points="419,-140 336,-140 336,-121 419,-121 419,-140"/>
<text text-anchor="middle" x="377.5" y="-128" font-family="Helvetica,sans-Serif" font-size="10.00">base/buffer.hpp</text>
</a>
</g>
</g>
<!-- Node1&#45;&gt;Node6 -->
<g id="edge5" class="edge">
<title>Node1&#45;&gt;Node6</title>
<path fill="none" stroke="#63b8ff" d="M245.76,-175.54C274.67,-165.87 312.33,-153.29 339.97,-144.04"/>
<polygon fill="#63b8ff" stroke="#63b8ff" points="340.97,-147.4 349.34,-140.91 338.75,-140.76 340.97,-147.4"/>
</g>
<!-- Node11 -->
<g id="node11" class="node">
<title>Node11</title>
<g id="a_node11"><a xlink:href="logger_8hpp.html" target="_top" xlink:title=" ">
<polygon fill="white" stroke="#666666" points="764,-140 679,-140 679,-121 764,-121 764,-140"/>
<text text-anchor="middle" x="721.5" y="-128" font-family="Helvetica,sans-Serif" font-size="10.00">base/logger.hpp</text>
</a>
</g>
</g>
<!-- Node1&#45;&gt;Node11 -->
<g id="edge12" class="edge">
<title>Node1&#45;&gt;Node11</title>
<path fill="none" stroke="#63b8ff" d="M254.16,-184.18C352.69,-173.07 566.58,-148.96 667.16,-137.62"/>
<polygon fill="#63b8ff" stroke="#63b8ff" points="667.51,-141.11 677.06,-136.51 666.73,-134.15 667.51,-141.11"/>
</g>
<!-- Node14 -->
<g id="node14" class="node">
<title>Node14</title>
<g id="a_node14"><a xlink:href="database__error_8hpp.html" target="_top" xlink:title=" ">
<polygon fill="white" stroke="#666666" points="317.5,-140 183.5,-140 183.5,-121 317.5,-121 317.5,-140"/>
<text text-anchor="middle" x="250.5" y="-128" font-family="Helvetica,sans-Serif" font-size="10.00">storage/database_error.hpp</text>
</a>
</g>
</g>
<!-- Node1&#45;&gt;Node14 -->
<g id="edge15" class="edge">
<title>Node1&#45;&gt;Node14</title>
<path fill="none" stroke="#63b8ff" d="M214.37,-175.54C220.98,-167.48 229.27,-157.38 236.23,-148.89"/>
<polygon fill="#63b8ff" stroke="#63b8ff" points="238.78,-151.3 242.42,-141.35 233.37,-146.86 238.78,-151.3"/>
</g>
<!-- Node5 -->
<g id="node5" class="node">
<title>Node5</title>
<g id="a_node5"><a xlink:title=" ">
<polygon fill="#e0e0e0" stroke="#999999" points="278,-19 137,-19 137,0 278,0 278,-19"/>
<text text-anchor="middle" x="207.5" y="-7" font-family="Helvetica,sans-Serif" font-size="10.00">libp2p/outcome/outcome.hpp</text>
</a>
</g>
</g>
<!-- Node4&#45;&gt;Node5 -->
<g id="edge4" class="edge">
<title>Node4&#45;&gt;Node5</title>
<path fill="none" stroke="#63b8ff" d="M207.5,-60.37C207.5,-52.5 207.5,-40.6 207.5,-30.39"/>
<polygon fill="#63b8ff" stroke="#63b8ff" points="211,-30.68 207.5,-20.68 204,-30.68 211,-30.68"/>
</g>
<!-- Node6&#45;&gt;Node3 -->
<g id="edge10" class="edge">
<title>Node6&#45;&gt;Node3</title>
<path fill="none" stroke="#63b8ff" d="M335.6,-122.06C272.85,-110.84 159.84,-90.34 141.5,-85 140.16,-84.61 138.79,-84.19 137.42,-83.74"/>
<polygon fill="#63b8ff" stroke="#63b8ff" points="139.01,-80.59 128.42,-80.48 136.63,-87.17 139.01,-80.59"/>
</g>
<!-- Node6&#45;&gt;Node4 -->
<g id="edge11" class="edge">
<title>Node6&#45;&gt;Node4</title>
<path fill="none" stroke="#63b8ff" d="M351.68,-120.62C323.1,-110.78 276.79,-94.84 244.39,-83.69"/>
<polygon fill="#63b8ff" stroke="#63b8ff" points="245.59,-80.41 234.99,-80.46 243.31,-87.02 245.59,-80.41"/>
</g>
<!-- Node7 -->
<g id="node7" class="node">
<title>Node7</title>
<g id="a_node7"><a xlink:title=" ">
<polygon fill="#e0e0e0" stroke="#999999" points="348.5,-79.5 282.5,-79.5 282.5,-60.5 348.5,-60.5 348.5,-79.5"/>
<text text-anchor="middle" x="315.5" y="-67.5" font-family="Helvetica,sans-Serif" font-size="10.00">string_view</text>
</a>
</g>
</g>
<!-- Node6&#45;&gt;Node7 -->
<g id="edge6" class="edge">
<title>Node6&#45;&gt;Node7</title>
<path fill="none" stroke="#63b8ff" d="M368.08,-120.62C358.89,-111.94 344.66,-98.52 333.33,-87.82"/>
<polygon fill="#63b8ff" stroke="#63b8ff" points="335.78,-85.32 326.11,-81.01 330.98,-90.42 335.78,-85.32"/>
</g>
<!-- Node8 -->
<g id="node8" class="node">
<title>Node8</title>
<g id="a_node8"><a xlink:title=" ">
<polygon fill="#e0e0e0" stroke="#999999" points="410.5,-79.5 366.5,-79.5 366.5,-60.5 410.5,-60.5 410.5,-79.5"/>
<text text-anchor="middle" x="388.5" y="-67.5" font-family="Helvetica,sans-Serif" font-size="10.00">vector</text>
</a>
</g>
</g>
<!-- Node6&#45;&gt;Node8 -->
<g id="edge7" class="edge">
<title>Node6&#45;&gt;Node8</title>
<path fill="none" stroke="#63b8ff" d="M379.12,-120.87C380.6,-113 382.84,-101.1 384.76,-90.89"/>
<polygon fill="#63b8ff" stroke="#63b8ff" points="388.18,-91.63 386.59,-81.15 381.3,-90.34 388.18,-91.63"/>
</g>
<!-- Node9 -->
<g id="node9" class="node">
<title>Node9</title>
<g id="a_node9"><a xlink:title=" ">
<polygon fill="#e0e0e0" stroke="#999999" points="538.5,-85 428.5,-85 428.5,-55 538.5,-55 538.5,-85"/>
<text text-anchor="start" x="436.5" y="-73" font-family="Helvetica,sans-Serif" font-size="10.00">boost/container_hash</text>
<text text-anchor="middle" x="483.5" y="-62" font-family="Helvetica,sans-Serif" font-size="10.00">/hash.hpp</text>
</a>
</g>
</g>
<!-- Node6&#45;&gt;Node9 -->
<g id="edge8" class="edge">
<title>Node6&#45;&gt;Node9</title>
<path fill="none" stroke="#63b8ff" d="M393.6,-120.62C407.8,-112.78 429.02,-101.06 447.28,-90.99"/>
<polygon fill="#63b8ff" stroke="#63b8ff" points="448.95,-94.07 456.01,-86.17 445.56,-87.94 448.95,-94.07"/>
</g>
<!-- Node10 -->
<g id="node10" class="node">
<title>Node10</title>
<g id="a_node10"><a xlink:title=" ">
<polygon fill="#e0e0e0" stroke="#999999" points="658.5,-79.5 556.5,-79.5 556.5,-60.5 658.5,-60.5 658.5,-79.5"/>
<text text-anchor="middle" x="607.5" y="-67.5" font-family="Helvetica,sans-Serif" font-size="10.00">boost/operators.hpp</text>
</a>
</g>
</g>
<!-- Node6&#45;&gt;Node10 -->
<g id="edge9" class="edge">
<title>Node6&#45;&gt;Node10</title>
<path fill="none" stroke="#63b8ff" d="M412.68,-120.55C452.5,-110.42 517.52,-93.89 561.38,-82.73"/>
<polygon fill="#63b8ff" stroke="#63b8ff" points="562.03,-86.18 570.85,-80.32 560.3,-79.39 562.03,-86.18"/>
</g>
<!-- Node12 -->
<g id="node12" class="node">
<title>Node12</title>
<g id="a_node12"><a xlink:title=" ">
<polygon fill="#e0e0e0" stroke="#999999" points="766,-79.5 677,-79.5 677,-60.5 766,-60.5 766,-79.5"/>
<text text-anchor="middle" x="721.5" y="-67.5" font-family="Helvetica,sans-Serif" font-size="10.00">spdlog/fmt/ostr.h</text>
</a>
</g>
</g>
<!-- Node11&#45;&gt;Node12 -->
<g id="edge13" class="edge">
<title>Node11&#45;&gt;Node12</title>
<path fill="none" stroke="#63b8ff" d="M721.5,-120.87C721.5,-113 721.5,-101.1 721.5,-90.89"/>
<polygon fill="#63b8ff" stroke="#63b8ff" points="725,-91.18 721.5,-81.18 718,-91.18 725,-91.18"/>
</g>
<!-- Node13 -->
<g id="node13" class="node">
<title>Node13</title>
<g id="a_node13"><a xlink:title=" ">
<polygon fill="#e0e0e0" stroke="#999999" points="868.5,-79.5 784.5,-79.5 784.5,-60.5 868.5,-60.5 868.5,-79.5"/>
<text text-anchor="middle" x="826.5" y="-67.5" font-family="Helvetica,sans-Serif" font-size="10.00">spdlog/spdlog.h</text>
</a>
</g>
</g>
<!-- Node11&#45;&gt;Node13 -->
<g id="edge14" class="edge">
<title>Node11&#45;&gt;Node13</title>
<path fill="none" stroke="#63b8ff" d="M737.45,-120.62C754.18,-111.29 780.73,-96.5 800.5,-85.49"/>
<polygon fill="#63b8ff" stroke="#63b8ff" points="802.05,-88.63 809.08,-80.71 798.64,-82.51 802.05,-88.63"/>
</g>
<!-- Node14&#45;&gt;Node4 -->
<g id="edge16" class="edge">
<title>Node14&#45;&gt;Node4</title>
<path fill="none" stroke="#63b8ff" d="M244.16,-120.87C237.99,-112.49 228.46,-99.51 220.65,-88.89"/>
<polygon fill="#63b8ff" stroke="#63b8ff" points="223.51,-86.87 214.77,-80.89 217.87,-91.02 223.51,-86.87"/>
</g>
</g>
</svg>
