<?xml version="1.0" encoding="UTF-8" standalone="no"?>
<!DOCTYPE svg PUBLIC "-//W3C//DTD SVG 1.1//EN"
 "http://www.w3.org/Graphics/SVG/1.1/DTD/svg11.dtd">
<!-- Generated by graphviz version 7.0.5 (20221223.1930)
 -->
<!-- Title: src/verification/finality/round_observer.hpp Pages: 1 -->
<svg width="928pt" height="522pt"
 viewBox="0.00 0.00 928.00 522.00" xmlns="http://www.w3.org/2000/svg" xmlns:xlink="http://www.w3.org/1999/xlink">
<g id="graph0" class="graph" transform="scale(1 1) rotate(0) translate(4 518)">
<title>src/verification/finality/round_observer.hpp</title>
<!-- Node1 -->
<g id="node1" class="node">
<title>Node1</title>
<g id="a_node1"><a xlink:title=" ">
<polygon fill="#999999" stroke="#666666" points="514,-514 404,-514 404,-484 514,-484 514,-514"/>
<text text-anchor="start" x="412" y="-502" font-family="Helvetica,sans-Serif" font-size="10.00">src/verification/finality</text>
<text text-anchor="middle" x="459" y="-491" font-family="Helvetica,sans-Serif" font-size="10.00">/round_observer.hpp</text>
</a>
</g>
</g>
<!-- Node2 -->
<g id="node2" class="node">
<title>Node2</title>
<g id="a_node2"><a xlink:href="router__libp2p_8hpp.html" target="_top" xlink:title=" ">
<polygon fill="white" stroke="#666666" points="287,-382 171,-382 171,-352 287,-352 287,-382"/>
<text text-anchor="start" x="179" y="-370" font-family="Helvetica,sans-Serif" font-size="10.00">src/network/impl/router</text>
<text text-anchor="middle" x="229" y="-359" font-family="Helvetica,sans-Serif" font-size="10.00">_libp2p.hpp</text>
</a>
</g>
</g>
<!-- Node1&#45;&gt;Node2 -->
<g id="edge1" class="edge">
<title>Node1&#45;&gt;Node2</title>
<path fill="none" stroke="#63b8ff" d="M423.53,-477.95C376.81,-451.55 295.78,-405.75 254.61,-382.47"/>
<polygon fill="#63b8ff" stroke="#63b8ff" points="421.76,-480.97 432.19,-482.85 425.21,-474.88 421.76,-480.97"/>
</g>
<!-- Node19 -->
<g id="node19" class="node">
<title>Node19</title>
<g id="a_node19"><a xlink:href="finality_8hpp.html" target="_top" xlink:title=" ">
<polygon fill="white" stroke="#666666" points="428,-382 318,-382 318,-352 428,-352 428,-382"/>
<text text-anchor="start" x="326" y="-370" font-family="Helvetica,sans-Serif" font-size="10.00">src/verification/finality</text>
<text text-anchor="middle" x="373" y="-359" font-family="Helvetica,sans-Serif" font-size="10.00">/finality.hpp</text>
</a>
</g>
</g>
<!-- Node1&#45;&gt;Node19 -->
<g id="edge20" class="edge">
<title>Node1&#45;&gt;Node19</title>
<path fill="none" stroke="#63b8ff" d="M441.1,-474.7C434.89,-466.39 427.99,-456.88 422,-448 406.88,-425.58 390.77,-398.6 381.31,-382.4"/>
<polygon fill="#63b8ff" stroke="#63b8ff" points="438.24,-476.72 447.06,-482.59 443.83,-472.5 438.24,-476.72"/>
</g>
<!-- Node23 -->
<g id="node23" class="node">
<title>Node23</title>
<g id="a_node23"><a xlink:href="syncing__round__observer_8hpp.html" target="_top" xlink:title=" ">
<polygon fill="white" stroke="#666666" points="790,-316 626,-316 626,-286 790,-286 790,-316"/>
<text text-anchor="start" x="634" y="-304" font-family="Helvetica,sans-Serif" font-size="10.00">src/verification/finality</text>
<text text-anchor="middle" x="708" y="-293" font-family="Helvetica,sans-Serif" font-size="10.00">/impl/syncing_round_observer.hpp</text>
</a>
</g>
</g>
<!-- Node1&#45;&gt;Node23 -->
<g id="edge26" class="edge">
<title>Node1&#45;&gt;Node23</title>
<path fill="none" stroke="#63b8ff" d="M499.39,-478.52C515.66,-469.99 534.25,-459.34 550,-448 608.79,-405.65 669.21,-343.64 695.03,-316.09"/>
<polygon fill="#63b8ff" stroke="#63b8ff" points="498.26,-475.16 490.96,-482.85 501.45,-481.39 498.26,-475.16"/>
</g>
<!-- Node25 -->
<g id="node25" class="node">
<title>Node25</title>
<g id="a_node25"><a xlink:href="voting__round_8hpp.html" target="_top" xlink:title=" ">
<polygon fill="white" stroke="#666666" points="541,-448 431,-448 431,-418 541,-418 541,-448"/>
<text text-anchor="start" x="439" y="-436" font-family="Helvetica,sans-Serif" font-size="10.00">src/verification/finality</text>
<text text-anchor="middle" x="486" y="-425" font-family="Helvetica,sans-Serif" font-size="10.00">/voting_round.hpp</text>
</a>
</g>
</g>
<!-- Node1&#45;&gt;Node25 -->
<g id="edge30" class="edge">
<title>Node1&#45;&gt;Node25</title>
<path fill="none" stroke="#63b8ff" d="M469.44,-473.25C473.03,-464.75 476.92,-455.53 480.02,-448.16"/>
<polygon fill="#63b8ff" stroke="#63b8ff" points="466.24,-471.83 465.58,-482.4 472.69,-474.55 466.24,-471.83"/>
</g>
<!-- Node3 -->
<g id="node3" class="node">
<title>Node3</title>
<g id="a_node3"><a xlink:href="application__injector_8hpp.html" target="_top" xlink:title=" ">
<polygon fill="white" stroke="#666666" points="286,-316 172,-316 172,-286 286,-286 286,-316"/>
<text text-anchor="start" x="180" y="-304" font-family="Helvetica,sans-Serif" font-size="10.00">src/injector/application</text>
<text text-anchor="middle" x="229" y="-293" font-family="Helvetica,sans-Serif" font-size="10.00">_injector.hpp</text>
</a>
</g>
</g>
<!-- Node2&#45;&gt;Node3 -->
<g id="edge2" class="edge">
<title>Node2&#45;&gt;Node3</title>
<path fill="none" stroke="#63b8ff" d="M229,-340.39C229,-332.13 229,-323.28 229,-316.16"/>
<polygon fill="#63b8ff" stroke="#63b8ff" points="225.5,-340.28 229,-350.28 232.5,-340.28 225.5,-340.28"/>
</g>
<!-- Node18 -->
<g id="node18" class="node">
<title>Node18</title>
<g id="a_node18"><a xlink:href="router__libp2p_8cpp.html" target="_top" xlink:title=" ">
<polygon fill="white" stroke="#666666" points="116,-316 0,-316 0,-286 116,-286 116,-316"/>
<text text-anchor="start" x="8" y="-304" font-family="Helvetica,sans-Serif" font-size="10.00">src/network/impl/router</text>
<text text-anchor="middle" x="58" y="-293" font-family="Helvetica,sans-Serif" font-size="10.00">_libp2p.cpp</text>
</a>
</g>
</g>
<!-- Node2&#45;&gt;Node18 -->
<g id="edge19" class="edge">
<title>Node2&#45;&gt;Node18</title>
<path fill="none" stroke="#63b8ff" d="M180.03,-347.67C153.52,-337.75 121.24,-325.67 96.54,-316.43"/>
<polygon fill="#63b8ff" stroke="#63b8ff" points="178.61,-350.88 189.21,-351.11 181.07,-344.32 178.61,-350.88"/>
</g>
<!-- Node4 -->
<g id="node4" class="node">
<title>Node4</title>
<g id="a_node4"><a xlink:href="application__injector_8cpp.html" target="_top" xlink:title=" ">
<polygon fill="white" stroke="#666666" points="286,-250 172,-250 172,-220 286,-220 286,-250"/>
<text text-anchor="start" x="180" y="-238" font-family="Helvetica,sans-Serif" font-size="10.00">src/injector/application</text>
<text text-anchor="middle" x="229" y="-227" font-family="Helvetica,sans-Serif" font-size="10.00">_injector.cpp</text>
</a>
</g>
</g>
<!-- Node3&#45;&gt;Node4 -->
<g id="edge3" class="edge">
<title>Node3&#45;&gt;Node4</title>
<path fill="none" stroke="#63b8ff" d="M229,-274.39C229,-266.13 229,-257.28 229,-250.16"/>
<polygon fill="#63b8ff" stroke="#63b8ff" points="225.5,-274.28 229,-284.28 232.5,-274.28 225.5,-274.28"/>
</g>
<!-- Node5 -->
<g id="node5" class="node">
<title>Node5</title>
<g id="a_node5"><a xlink:href="block__producing__node__injector_8hpp.html" target="_top" xlink:title=" ">
<polygon fill="white" stroke="#666666" points="540.5,-184 395.5,-184 395.5,-154 540.5,-154 540.5,-184"/>
<text text-anchor="start" x="403.5" y="-172" font-family="Helvetica,sans-Serif" font-size="10.00">src/injector/block</text>
<text text-anchor="middle" x="468" y="-161" font-family="Helvetica,sans-Serif" font-size="10.00">_producing_node_injector.hpp</text>
</a>
</g>
</g>
<!-- Node3&#45;&gt;Node5 -->
<g id="edge4" class="edge">
<title>Node3&#45;&gt;Node5</title>
<path fill="none" stroke="#63b8ff" d="M297.49,-284.99C348.79,-273.29 411.81,-257.77 422,-250 444.04,-233.2 457.3,-202.57 463.58,-184.48"/>
<polygon fill="#63b8ff" stroke="#63b8ff" points="296.87,-281.54 287.89,-287.16 298.42,-288.37 296.87,-281.54"/>
</g>
<!-- Node10 -->
<g id="node10" class="node">
<title>Node10</title>
<g id="a_node10"><a xlink:href="syncing__node__injector_8hpp.html" target="_top" xlink:title=" ">
<polygon fill="white" stroke="#666666" points="737.5,-250 636.5,-250 636.5,-220 737.5,-220 737.5,-250"/>
<text text-anchor="start" x="644.5" y="-238" font-family="Helvetica,sans-Serif" font-size="10.00">src/injector/syncing</text>
<text text-anchor="middle" x="687" y="-227" font-family="Helvetica,sans-Serif" font-size="10.00">_node_injector.hpp</text>
</a>
</g>
</g>
<!-- Node3&#45;&gt;Node10 -->
<g id="edge9" class="edge">
<title>Node3&#45;&gt;Node10</title>
<path fill="none" stroke="#63b8ff" d="M297.32,-285.7C426.76,-264.47 462.07,-266.84 589,-250 604.33,-247.97 621,-245.63 636.16,-243.46"/>
<polygon fill="#63b8ff" stroke="#63b8ff" points="296.97,-282.22 287.67,-287.3 298.11,-289.12 296.97,-282.22"/>
</g>
<!-- Node14 -->
<g id="node14" class="node">
<title>Node14</title>
<g id="a_node14"><a xlink:href="validating__node__injector_8hpp.html" target="_top" xlink:title=" ">
<polygon fill="white" stroke="#666666" points="413.5,-250 304.5,-250 304.5,-220 413.5,-220 413.5,-250"/>
<text text-anchor="start" x="312.5" y="-238" font-family="Helvetica,sans-Serif" font-size="10.00">src/injector/validating</text>
<text text-anchor="middle" x="359" y="-227" font-family="Helvetica,sans-Serif" font-size="10.00">_node_injector.hpp</text>
</a>
</g>
</g>
<!-- Node3&#45;&gt;Node14 -->
<g id="edge13" class="edge">
<title>Node3&#45;&gt;Node14</title>
<path fill="none" stroke="#63b8ff" d="M268.43,-280.59C288.23,-270.84 311.79,-259.24 329.92,-250.31"/>
<polygon fill="#63b8ff" stroke="#63b8ff" points="266.96,-277.41 259.53,-284.97 270.05,-283.69 266.96,-277.41"/>
</g>
<!-- Node6 -->
<g id="node6" class="node">
<title>Node6</title>
<g id="a_node6"><a xlink:href="block__producing__node__application_8hpp.html" target="_top" xlink:title=" ">
<polygon fill="white" stroke="#666666" points="556,-118 440,-118 440,-77 556,-77 556,-118"/>
<text text-anchor="start" x="448" y="-106" font-family="Helvetica,sans-Serif" font-size="10.00">src/application/impl</text>
<text text-anchor="start" x="448" y="-95" font-family="Helvetica,sans-Serif" font-size="10.00">/block_producing_node</text>
<text text-anchor="middle" x="498" y="-84" font-family="Helvetica,sans-Serif" font-size="10.00">_application.hpp</text>
</a>
</g>
</g>
<!-- Node5&#45;&gt;Node6 -->
<g id="edge5" class="edge">
<title>Node5&#45;&gt;Node6</title>
<path fill="none" stroke="#63b8ff" d="M478.71,-143.19C482.22,-135.06 486.07,-126.14 489.4,-118.42"/>
<polygon fill="#63b8ff" stroke="#63b8ff" points="475.57,-141.64 474.82,-152.21 481.99,-144.42 475.57,-141.64"/>
</g>
<!-- Node9 -->
<g id="node9" class="node">
<title>Node9</title>
<g id="a_node9"><a xlink:href="block__producing__node__injector_8cpp.html" target="_top" xlink:title=" ">
<polygon fill="white" stroke="#666666" points="421.5,-112.5 276.5,-112.5 276.5,-82.5 421.5,-82.5 421.5,-112.5"/>
<text text-anchor="start" x="284.5" y="-100.5" font-family="Helvetica,sans-Serif" font-size="10.00">src/injector/block</text>
<text text-anchor="middle" x="349" y="-89.5" font-family="Helvetica,sans-Serif" font-size="10.00">_producing_node_injector.cpp</text>
</a>
</g>
</g>
<!-- Node5&#45;&gt;Node9 -->
<g id="edge8" class="edge">
<title>Node5&#45;&gt;Node9</title>
<path fill="none" stroke="#63b8ff" d="M433.48,-147.84C414.32,-136.65 390.93,-122.99 373.63,-112.88"/>
<polygon fill="#63b8ff" stroke="#63b8ff" points="431.64,-150.82 442.04,-152.84 435.17,-144.77 431.64,-150.82"/>
</g>
<!-- Node7 -->
<g id="node7" class="node">
<title>Node7</title>
<g id="a_node7"><a xlink:href="app__delegate_8cpp.html" target="_top" xlink:title=" ">
<polygon fill="white" stroke="#666666" points="364,-30 248,-30 248,-11 364,-11 364,-30"/>
<text text-anchor="middle" x="306" y="-18" font-family="Helvetica,sans-Serif" font-size="10.00">node/app_delegate.cpp</text>
</a>
</g>
</g>
<!-- Node6&#45;&gt;Node7 -->
<g id="edge6" class="edge">
<title>Node6&#45;&gt;Node7</title>
<path fill="none" stroke="#63b8ff" d="M436.45,-72.46C399.79,-58.13 355.4,-40.8 329,-30.48"/>
<polygon fill="#63b8ff" stroke="#63b8ff" points="435.05,-75.67 445.64,-76.05 437.6,-69.15 435.05,-75.67"/>
</g>
<!-- Node8 -->
<g id="node8" class="node">
<title>Node8</title>
<g id="a_node8"><a xlink:href="block__producing__node__application_8cpp.html" target="_top" xlink:title=" ">
<polygon fill="white" stroke="#666666" points="556,-41 440,-41 440,0 556,0 556,-41"/>
<text text-anchor="start" x="448" y="-29" font-family="Helvetica,sans-Serif" font-size="10.00">src/application/impl</text>
<text text-anchor="start" x="448" y="-18" font-family="Helvetica,sans-Serif" font-size="10.00">/block_producing_node</text>
<text text-anchor="middle" x="498" y="-7" font-family="Helvetica,sans-Serif" font-size="10.00">_application.cpp</text>
</a>
</g>
</g>
<!-- Node6&#45;&gt;Node8 -->
<g id="edge7" class="edge">
<title>Node6&#45;&gt;Node8</title>
<path fill="none" stroke="#63b8ff" d="M498,-65.36C498,-57.24 498,-48.7 498,-41.33"/>
<polygon fill="#63b8ff" stroke="#63b8ff" points="494.5,-65.28 498,-75.28 501.5,-65.28 494.5,-65.28"/>
</g>
<!-- Node11 -->
<g id="node11" class="node">
<title>Node11</title>
<g id="a_node11"><a xlink:href="syncing__node__application_8hpp.html" target="_top" xlink:title=" ">
<polygon fill="white" stroke="#666666" points="878.5,-184 729.5,-184 729.5,-154 878.5,-154 878.5,-184"/>
<text text-anchor="start" x="737.5" y="-172" font-family="Helvetica,sans-Serif" font-size="10.00">src/application/impl</text>
<text text-anchor="middle" x="804" y="-161" font-family="Helvetica,sans-Serif" font-size="10.00">/syncing_node_application.hpp</text>
</a>
</g>
</g>
<!-- Node10&#45;&gt;Node11 -->
<g id="edge10" class="edge">
<title>Node10&#45;&gt;Node11</title>
<path fill="none" stroke="#63b8ff" d="M723.23,-214.18C740.89,-204.52 761.74,-193.12 777.83,-184.31"/>
<polygon fill="#63b8ff" stroke="#63b8ff" points="721.68,-211.04 714.58,-218.91 725.04,-217.18 721.68,-211.04"/>
</g>
<!-- Node13 -->
<g id="node13" class="node">
<title>Node13</title>
<g id="a_node13"><a xlink:href="syncing__node__injector_8cpp.html" target="_top" xlink:title=" ">
<polygon fill="white" stroke="#666666" points="711.5,-184 610.5,-184 610.5,-154 711.5,-154 711.5,-184"/>
<text text-anchor="start" x="618.5" y="-172" font-family="Helvetica,sans-Serif" font-size="10.00">src/injector/syncing</text>
<text text-anchor="middle" x="661" y="-161" font-family="Helvetica,sans-Serif" font-size="10.00">_node_injector.cpp</text>
</a>
</g>
</g>
<!-- Node10&#45;&gt;Node13 -->
<g id="edge12" class="edge">
<title>Node10&#45;&gt;Node13</title>
<path fill="none" stroke="#63b8ff" d="M676.95,-209.25C673.49,-200.75 669.75,-191.53 666.75,-184.16"/>
<polygon fill="#63b8ff" stroke="#63b8ff" points="673.65,-210.45 680.66,-218.39 680.14,-207.81 673.65,-210.45"/>
</g>
<!-- Node12 -->
<g id="node12" class="node">
<title>Node12</title>
<g id="a_node12"><a xlink:href="syncing__node__application_8cpp.html" target="_top" xlink:title=" ">
<polygon fill="white" stroke="#666666" points="878.5,-112.5 729.5,-112.5 729.5,-82.5 878.5,-82.5 878.5,-112.5"/>
<text text-anchor="start" x="737.5" y="-100.5" font-family="Helvetica,sans-Serif" font-size="10.00">src/application/impl</text>
<text text-anchor="middle" x="804" y="-89.5" font-family="Helvetica,sans-Serif" font-size="10.00">/syncing_node_application.cpp</text>
</a>
</g>
</g>
<!-- Node11&#45;&gt;Node12 -->
<g id="edge11" class="edge">
<title>Node11&#45;&gt;Node12</title>
<path fill="none" stroke="#63b8ff" d="M804,-142.26C804,-132.33 804,-121.36 804,-112.88"/>
<polygon fill="#63b8ff" stroke="#63b8ff" points="800.5,-142.09 804,-152.09 807.5,-142.09 800.5,-142.09"/>
</g>
<!-- Node14&#45;&gt;Node5 -->
<g id="edge17" class="edge">
<title>Node14&#45;&gt;Node5</title>
<path fill="none" stroke="#63b8ff" d="M393.21,-213.91C409.57,-204.31 428.77,-193.03 443.62,-184.31"/>
<polygon fill="#63b8ff" stroke="#63b8ff" points="391.62,-210.79 384.77,-218.87 395.16,-216.83 391.62,-210.79"/>
</g>
<!-- Node15 -->
<g id="node15" class="node">
<title>Node15</title>
<g id="a_node15"><a xlink:href="validating__node__application_8hpp.html" target="_top" xlink:title=" ">
<polygon fill="white" stroke="#666666" points="249.5,-184 92.5,-184 92.5,-154 249.5,-154 249.5,-184"/>
<text text-anchor="start" x="100.5" y="-172" font-family="Helvetica,sans-Serif" font-size="10.00">src/application/impl</text>
<text text-anchor="middle" x="171" y="-161" font-family="Helvetica,sans-Serif" font-size="10.00">/validating_node_application.hpp</text>
</a>
</g>
</g>
<!-- Node14&#45;&gt;Node15 -->
<g id="edge14" class="edge">
<title>Node14&#45;&gt;Node15</title>
<path fill="none" stroke="#63b8ff" d="M305.94,-215.94C276.65,-205.97 240.77,-193.75 213.37,-184.43"/>
<polygon fill="#63b8ff" stroke="#63b8ff" points="304.78,-219.24 315.38,-219.15 307.04,-212.61 304.78,-219.24"/>
</g>
<!-- Node17 -->
<g id="node17" class="node">
<title>Node17</title>
<g id="a_node17"><a xlink:href="validating__node__injector_8cpp.html" target="_top" xlink:title=" ">
<polygon fill="white" stroke="#666666" points="377.5,-184 268.5,-184 268.5,-154 377.5,-154 377.5,-184"/>
<text text-anchor="start" x="276.5" y="-172" font-family="Helvetica,sans-Serif" font-size="10.00">src/injector/validating</text>
<text text-anchor="middle" x="323" y="-161" font-family="Helvetica,sans-Serif" font-size="10.00">_node_injector.cpp</text>
</a>
</g>
</g>
<!-- Node14&#45;&gt;Node17 -->
<g id="edge18" class="edge">
<title>Node14&#45;&gt;Node17</title>
<path fill="none" stroke="#63b8ff" d="M345.4,-209.83C340.53,-201.17 335.2,-191.7 330.97,-184.16"/>
<polygon fill="#63b8ff" stroke="#63b8ff" points="342.32,-211.48 350.27,-218.48 348.42,-208.05 342.32,-211.48"/>
</g>
<!-- Node15&#45;&gt;Node7 -->
<g id="edge15" class="edge">
<title>Node15&#45;&gt;Node7</title>
<path fill="none" stroke="#63b8ff" d="M197.58,-146.34C207.47,-137.85 218.58,-127.81 228,-118 256.95,-87.86 286.82,-47.98 299.58,-30.44"/>
<polygon fill="#63b8ff" stroke="#63b8ff" points="195.46,-143.54 190.07,-152.66 199.97,-148.89 195.46,-143.54"/>
</g>
<!-- Node16 -->
<g id="node16" class="node">
<title>Node16</title>
<g id="a_node16"><a xlink:href="validating__node__application_8cpp.html" target="_top" xlink:title=" ">
<polygon fill="white" stroke="#666666" points="219.5,-112.5 62.5,-112.5 62.5,-82.5 219.5,-82.5 219.5,-112.5"/>
<text text-anchor="start" x="70.5" y="-100.5" font-family="Helvetica,sans-Serif" font-size="10.00">src/application/impl</text>
<text text-anchor="middle" x="141" y="-89.5" font-family="Helvetica,sans-Serif" font-size="10.00">/validating_node_application.cpp</text>
</a>
</g>
</g>
<!-- Node15&#45;&gt;Node16 -->
<g id="edge16" class="edge">
<title>Node15&#45;&gt;Node16</title>
<path fill="none" stroke="#63b8ff" d="M160.31,-143.23C155.92,-133.06 150.99,-121.64 147.21,-112.88"/>
<polygon fill="#63b8ff" stroke="#63b8ff" points="157.01,-144.42 164.18,-152.21 163.43,-141.64 157.01,-144.42"/>
</g>
<!-- Node19&#45;&gt;Node15 -->
<g id="edge21" class="edge">
<title>Node19&#45;&gt;Node15</title>
<path fill="none" stroke="#63b8ff" d="M306.7,-352.28C246.9,-339.58 167.6,-321.82 163,-316 132.32,-277.15 153.02,-212.78 164.63,-184.3"/>
<polygon fill="#63b8ff" stroke="#63b8ff" points="305.63,-355.63 316.14,-354.27 307.08,-348.78 305.63,-355.63"/>
</g>
<!-- Node20 -->
<g id="node20" class="node">
<title>Node20</title>
<g id="a_node20"><a xlink:href="finality__impl_8hpp.html" target="_top" xlink:title=" ">
<polygon fill="white" stroke="#666666" points="570,-316 460,-316 460,-286 570,-286 570,-316"/>
<text text-anchor="start" x="468" y="-304" font-family="Helvetica,sans-Serif" font-size="10.00">src/verification/finality</text>
<text text-anchor="middle" x="515" y="-293" font-family="Helvetica,sans-Serif" font-size="10.00">/impl/finality_impl.hpp</text>
</a>
</g>
</g>
<!-- Node19&#45;&gt;Node20 -->
<g id="edge22" class="edge">
<title>Node19&#45;&gt;Node20</title>
<path fill="none" stroke="#63b8ff" d="M415.18,-346.99C436.98,-337.16 463.16,-325.36 483.24,-316.31"/>
<polygon fill="#63b8ff" stroke="#63b8ff" points="413.93,-343.72 406.25,-351.02 416.8,-350.1 413.93,-343.72"/>
</g>
<!-- Node22 -->
<g id="node22" class="node">
<title>Node22</title>
<g id="a_node22"><a xlink:href="voting__round__impl_8cpp.html" target="_top" xlink:title=" ">
<polygon fill="white" stroke="#666666" points="441.5,-316 304.5,-316 304.5,-286 441.5,-286 441.5,-316"/>
<text text-anchor="start" x="312.5" y="-304" font-family="Helvetica,sans-Serif" font-size="10.00">src/verification/finality</text>
<text text-anchor="middle" x="373" y="-293" font-family="Helvetica,sans-Serif" font-size="10.00">/impl/voting_round_impl.cpp</text>
</a>
</g>
</g>
<!-- Node19&#45;&gt;Node22 -->
<g id="edge25" class="edge">
<title>Node19&#45;&gt;Node22</title>
<path fill="none" stroke="#63b8ff" d="M373,-340.39C373,-332.13 373,-323.28 373,-316.16"/>
<polygon fill="#63b8ff" stroke="#63b8ff" points="369.5,-340.28 373,-350.28 376.5,-340.28 369.5,-340.28"/>
</g>
<!-- Node20&#45;&gt;Node14 -->
<g id="edge23" class="edge">
<title>Node20&#45;&gt;Node14</title>
<path fill="none" stroke="#63b8ff" d="M469.36,-281.27C445.36,-271.43 416.39,-259.55 394.16,-250.43"/>
<polygon fill="#63b8ff" stroke="#63b8ff" points="468.01,-284.51 478.59,-285.06 470.67,-278.03 468.01,-284.51"/>
</g>
<!-- Node21 -->
<g id="node21" class="node">
<title>Node21</title>
<g id="a_node21"><a xlink:href="finality__impl_8cpp.html" target="_top" xlink:title=" ">
<polygon fill="white" stroke="#666666" points="580,-250 470,-250 470,-220 580,-220 580,-250"/>
<text text-anchor="start" x="478" y="-238" font-family="Helvetica,sans-Serif" font-size="10.00">src/verification/finality</text>
<text text-anchor="middle" x="525" y="-227" font-family="Helvetica,sans-Serif" font-size="10.00">/impl/finality_impl.cpp</text>
</a>
</g>
</g>
<!-- Node20&#45;&gt;Node21 -->
<g id="edge24" class="edge">
<title>Node20&#45;&gt;Node21</title>
<path fill="none" stroke="#63b8ff" d="M518.96,-274.68C520.26,-266.34 521.66,-257.37 522.79,-250.16"/>
<polygon fill="#63b8ff" stroke="#63b8ff" points="515.54,-273.88 517.45,-284.3 522.45,-274.96 515.54,-273.88"/>
</g>
<!-- Node23&#45;&gt;Node5 -->
<g id="edge27" class="edge">
<title>Node23&#45;&gt;Node5</title>
<path fill="none" stroke="#63b8ff" d="M673.42,-279.86C658.85,-271.06 641.85,-260.39 627,-250 609.37,-237.66 607.56,-230.88 589,-220 564.39,-205.58 534.83,-193.28 511.09,-184.49"/>
<polygon fill="#63b8ff" stroke="#63b8ff" points="671.39,-282.72 681.77,-284.85 674.98,-276.71 671.39,-282.72"/>
</g>
<!-- Node23&#45;&gt;Node10 -->
<g id="edge28" class="edge">
<title>Node23&#45;&gt;Node10</title>
<path fill="none" stroke="#63b8ff" d="M699.79,-274.97C697.02,-266.55 694.04,-257.45 691.65,-250.16"/>
<polygon fill="#63b8ff" stroke="#63b8ff" points="696.42,-275.95 702.87,-284.36 703.08,-273.77 696.42,-275.95"/>
</g>
<!-- Node24 -->
<g id="node24" class="node">
<title>Node24</title>
<g id="a_node24"><a xlink:href="syncing__round__observer_8cpp.html" target="_top" xlink:title=" ">
<polygon fill="white" stroke="#666666" points="920,-250 756,-250 756,-220 920,-220 920,-250"/>
<text text-anchor="start" x="764" y="-238" font-family="Helvetica,sans-Serif" font-size="10.00">src/verification/finality</text>
<text text-anchor="middle" x="838" y="-227" font-family="Helvetica,sans-Serif" font-size="10.00">/impl/syncing_round_observer.cpp</text>
</a>
</g>
</g>
<!-- Node23&#45;&gt;Node24 -->
<g id="edge29" class="edge">
<title>Node23&#45;&gt;Node24</title>
<path fill="none" stroke="#63b8ff" d="M747.43,-280.59C767.23,-270.84 790.79,-259.24 808.92,-250.31"/>
<polygon fill="#63b8ff" stroke="#63b8ff" points="745.96,-277.41 738.53,-284.97 749.05,-283.69 745.96,-277.41"/>
</g>
<!-- Node26 -->
<g id="node26" class="node">
<title>Node26</title>
<g id="a_node26"><a xlink:href="voting__round__impl_8hpp.html" target="_top" xlink:title=" ">
<polygon fill="white" stroke="#666666" points="583.5,-382 446.5,-382 446.5,-352 583.5,-352 583.5,-382"/>
<text text-anchor="start" x="454.5" y="-370" font-family="Helvetica,sans-Serif" font-size="10.00">src/verification/finality</text>
<text text-anchor="middle" x="515" y="-359" font-family="Helvetica,sans-Serif" font-size="10.00">/impl/voting_round_impl.hpp</text>
</a>
</g>
</g>
<!-- Node25&#45;&gt;Node26 -->
<g id="edge31" class="edge">
<title>Node25&#45;&gt;Node26</title>
<path fill="none" stroke="#63b8ff" d="M497.08,-407.54C500.97,-398.96 505.21,-389.61 508.58,-382.16"/>
<polygon fill="#63b8ff" stroke="#63b8ff" points="494,-405.86 493.06,-416.42 500.38,-408.75 494,-405.86"/>
</g>
<!-- Node26&#45;&gt;Node20 -->
<g id="edge33" class="edge">
<title>Node26&#45;&gt;Node20</title>
<path fill="none" stroke="#63b8ff" d="M515,-340.39C515,-332.13 515,-323.28 515,-316.16"/>
<polygon fill="#63b8ff" stroke="#63b8ff" points="511.5,-340.28 515,-350.28 518.5,-340.28 511.5,-340.28"/>
</g>
<!-- Node26&#45;&gt;Node21 -->
<g id="edge32" class="edge">
<title>Node26&#45;&gt;Node21</title>
<path fill="none" stroke="#63b8ff" d="M553.18,-345.05C563.48,-337.37 573.32,-327.64 579,-316 584.85,-304.02 584.34,-298.22 579,-286 572.61,-271.37 559.58,-259.1 547.93,-250.38"/>
<polygon fill="#63b8ff" stroke="#63b8ff" points="551.24,-342.14 544.96,-350.68 555.19,-347.92 551.24,-342.14"/>
</g>
<!-- Node26&#45;&gt;Node22 -->
<g id="edge34" class="edge">
<title>Node26&#45;&gt;Node22</title>
<path fill="none" stroke="#63b8ff" d="M472.82,-346.99C451.02,-337.16 424.84,-325.36 404.76,-316.31"/>
<polygon fill="#63b8ff" stroke="#63b8ff" points="471.2,-350.1 481.75,-351.02 474.07,-343.72 471.2,-350.1"/>
</g>
</g>
</svg>
