<?xml version="1.0" encoding="UTF-8" standalone="no"?>
<!DOCTYPE svg PUBLIC "-//W3C//DTD SVG 1.1//EN"
 "http://www.w3.org/Graphics/SVG/1.1/DTD/svg11.dtd">
<!-- Generated by graphviz version 7.0.5 (20221223.1930)
 -->
<!-- Title: src/api/transport/rpc_thread_pool.hpp Pages: 1 -->
<svg width="719pt" height="214pt"
 viewBox="0.00 0.00 718.50 214.00" xmlns="http://www.w3.org/2000/svg" xmlns:xlink="http://www.w3.org/1999/xlink">
<g id="graph0" class="graph" transform="scale(1 1) rotate(0) translate(4 210)">
<title>src/api/transport/rpc_thread_pool.hpp</title>
<!-- Node1 -->
<g id="node1" class="node">
<title>Node1</title>
<g id="a_node1"><a xlink:title=" ">
<polygon fill="#999999" stroke="#666666" points="412.5,-206 308.5,-206 308.5,-176 412.5,-176 412.5,-206"/>
<text text-anchor="start" x="316.5" y="-194" font-family="Helvetica,sans-Serif" font-size="10.00">src/api/transport/rpc</text>
<text text-anchor="middle" x="360.5" y="-183" font-family="Helvetica,sans-Serif" font-size="10.00">_thread_pool.hpp</text>
</a>
</g>
</g>
<!-- Node2 -->
<g id="node2" class="node">
<title>Node2</title>
<g id="a_node2"><a xlink:title=" ">
<polygon fill="#e0e0e0" stroke="#999999" points="127,-134.5 0,-134.5 0,-115.5 127,-115.5 127,-134.5"/>
<text text-anchor="middle" x="63.5" y="-122.5" font-family="Helvetica,sans-Serif" font-size="10.00">boost/asio/io_service.hpp</text>
</a>
</g>
</g>
<!-- Node1&#45;&gt;Node2 -->
<g id="edge1" class="edge">
<title>Node1&#45;&gt;Node2</title>
<path fill="none" stroke="#63b8ff" d="M308.09,-178.71C253.98,-167.05 170.06,-148.96 115.94,-137.3"/>
<polygon fill="#63b8ff" stroke="#63b8ff" points="116.86,-133.92 106.35,-135.23 115.39,-140.76 116.86,-133.92"/>
</g>
<!-- Node3 -->
<g id="node3" class="node">
<title>Node3</title>
<g id="a_node3"><a xlink:title=" ">
<polygon fill="#e0e0e0" stroke="#999999" points="272,-134.5 145,-134.5 145,-115.5 272,-115.5 272,-134.5"/>
<text text-anchor="middle" x="208.5" y="-122.5" font-family="Helvetica,sans-Serif" font-size="10.00">boost/asio/signal_set.hpp</text>
</a>
</g>
</g>
<!-- Node1&#45;&gt;Node3 -->
<g id="edge2" class="edge">
<title>Node1&#45;&gt;Node3</title>
<path fill="none" stroke="#63b8ff" d="M326.39,-175.64C300.62,-164.79 265.5,-150 240.31,-139.39"/>
<polygon fill="#63b8ff" stroke="#63b8ff" points="241.81,-136.23 231.24,-135.57 239.09,-142.68 241.81,-136.23"/>
</g>
<!-- Node4 -->
<g id="node4" class="node">
<title>Node4</title>
<g id="a_node4"><a xlink:title=" ">
<polygon fill="#e0e0e0" stroke="#999999" points="320.5,-134.5 290.5,-134.5 290.5,-115.5 320.5,-115.5 320.5,-134.5"/>
<text text-anchor="middle" x="305.5" y="-122.5" font-family="Helvetica,sans-Serif" font-size="10.00">set</text>
</a>
</g>
</g>
<!-- Node1&#45;&gt;Node4 -->
<g id="edge3" class="edge">
<title>Node1&#45;&gt;Node4</title>
<path fill="none" stroke="#63b8ff" d="M348.29,-175.8C340.06,-166.21 329.13,-153.5 320.38,-143.32"/>
<polygon fill="#63b8ff" stroke="#63b8ff" points="323.26,-141.3 314.09,-135.99 317.95,-145.86 323.26,-141.3"/>
</g>
<!-- Node5 -->
<g id="node5" class="node">
<title>Node5</title>
<g id="a_node5"><a xlink:title=" ">
<polygon fill="#e0e0e0" stroke="#999999" points="382.5,-134.5 338.5,-134.5 338.5,-115.5 382.5,-115.5 382.5,-134.5"/>
<text text-anchor="middle" x="360.5" y="-122.5" font-family="Helvetica,sans-Serif" font-size="10.00">thread</text>
</a>
</g>
</g>
<!-- Node1&#45;&gt;Node5 -->
<g id="edge4" class="edge">
<title>Node1&#45;&gt;Node5</title>
<path fill="none" stroke="#63b8ff" d="M360.5,-175.8C360.5,-167.09 360.5,-155.81 360.5,-146.18"/>
<polygon fill="#63b8ff" stroke="#63b8ff" points="364,-146.36 360.5,-136.36 357,-146.36 364,-146.36"/>
</g>
<!-- Node6 -->
<g id="node6" class="node">
<title>Node6</title>
<g id="a_node6"><a xlink:href="rpc__io__context_8hpp.html" target="_top" xlink:title=" ">
<polygon fill="white" stroke="#666666" points="500.5,-140 400.5,-140 400.5,-110 500.5,-110 500.5,-140"/>
<text text-anchor="start" x="408.5" y="-128" font-family="Helvetica,sans-Serif" font-size="10.00">api/transport/rpc_io</text>
<text text-anchor="middle" x="450.5" y="-117" font-family="Helvetica,sans-Serif" font-size="10.00">_context.hpp</text>
</a>
</g>
</g>
<!-- Node1&#45;&gt;Node6 -->
<g id="edge5" class="edge">
<title>Node1&#45;&gt;Node6</title>
<path fill="none" stroke="#63b8ff" d="M380.47,-175.8C392.39,-167.32 407.74,-156.4 421.04,-146.95"/>
<polygon fill="#63b8ff" stroke="#63b8ff" points="422.92,-149.91 429.04,-141.26 418.86,-144.21 422.92,-149.91"/>
</g>
<!-- Node8 -->
<g id="node8" class="node">
<title>Node8</title>
<g id="a_node8"><a xlink:href="app__state__manager_8hpp.html" target="_top" xlink:title=" ">
<polygon fill="white" stroke="#666666" points="628,-140 519,-140 519,-110 628,-110 628,-140"/>
<text text-anchor="start" x="527" y="-128" font-family="Helvetica,sans-Serif" font-size="10.00">application/app_state</text>
<text text-anchor="middle" x="573.5" y="-117" font-family="Helvetica,sans-Serif" font-size="10.00">_manager.hpp</text>
</a>
</g>
</g>
<!-- Node1&#45;&gt;Node8 -->
<g id="edge7" class="edge">
<title>Node1&#45;&gt;Node8</title>
<path fill="none" stroke="#63b8ff" d="M408.57,-175.56C439.98,-166.12 481.23,-153.72 514.61,-143.69"/>
<polygon fill="#63b8ff" stroke="#63b8ff" points="515.59,-147.06 524.16,-140.83 513.57,-140.35 515.59,-147.06"/>
</g>
<!-- Node9 -->
<g id="node9" class="node">
<title>Node9</title>
<g id="a_node9"><a xlink:href="logger_8hpp.html" target="_top" xlink:title=" ">
<polygon fill="white" stroke="#666666" points="658,-74 573,-74 573,-55 658,-55 658,-74"/>
<text text-anchor="middle" x="615.5" y="-62" font-family="Helvetica,sans-Serif" font-size="10.00">base/logger.hpp</text>
</a>
</g>
</g>
<!-- Node1&#45;&gt;Node9 -->
<g id="edge11" class="edge">
<title>Node1&#45;&gt;Node9</title>
<path fill="none" stroke="#63b8ff" d="M412.99,-188.26C485.2,-184.63 609.45,-173.56 637.5,-140 650.96,-123.89 639.91,-99.82 629.19,-83.43"/>
<polygon fill="#63b8ff" stroke="#63b8ff" points="632.28,-81.74 623.65,-75.59 626.56,-85.78 632.28,-81.74"/>
</g>
<!-- Node7 -->
<g id="node7" class="node">
<title>Node7</title>
<g id="a_node7"><a xlink:title=" ">
<polygon fill="#e0e0e0" stroke="#999999" points="514,-74 387,-74 387,-55 514,-55 514,-74"/>
<text text-anchor="middle" x="450.5" y="-62" font-family="Helvetica,sans-Serif" font-size="10.00">boost/asio/io_context.hpp</text>
</a>
</g>
</g>
<!-- Node6&#45;&gt;Node7 -->
<g id="edge6" class="edge">
<title>Node6&#45;&gt;Node7</title>
<path fill="none" stroke="#63b8ff" d="M450.5,-109.54C450.5,-102.34 450.5,-93.53 450.5,-85.68"/>
<polygon fill="#63b8ff" stroke="#63b8ff" points="454,-85.69 450.5,-75.69 447,-85.69 454,-85.69"/>
</g>
<!-- Node8&#45;&gt;Node9 -->
<g id="edge8" class="edge">
<title>Node8&#45;&gt;Node9</title>
<path fill="none" stroke="#63b8ff" d="M583.88,-109.54C589.55,-101.65 596.61,-91.81 602.62,-83.44"/>
<polygon fill="#63b8ff" stroke="#63b8ff" points="605.4,-85.57 608.39,-75.4 599.71,-81.49 605.4,-85.57"/>
</g>
<!-- Node10 -->
<g id="node10" class="node">
<title>Node10</title>
<g id="a_node10"><a xlink:title=" ">
<polygon fill="#e0e0e0" stroke="#999999" points="608,-19 519,-19 519,0 608,0 608,-19"/>
<text text-anchor="middle" x="563.5" y="-7" font-family="Helvetica,sans-Serif" font-size="10.00">spdlog/fmt/ostr.h</text>
</a>
</g>
</g>
<!-- Node9&#45;&gt;Node10 -->
<g id="edge9" class="edge">
<title>Node9&#45;&gt;Node10</title>
<path fill="none" stroke="#63b8ff" d="M606.91,-54.75C599.66,-47.35 589.05,-36.54 580.13,-27.45"/>
<polygon fill="#63b8ff" stroke="#63b8ff" points="582.84,-25.21 573.33,-20.52 577.84,-30.11 582.84,-25.21"/>
</g>
<!-- Node11 -->
<g id="node11" class="node">
<title>Node11</title>
<g id="a_node11"><a xlink:title=" ">
<polygon fill="#e0e0e0" stroke="#999999" points="710.5,-19 626.5,-19 626.5,0 710.5,0 710.5,-19"/>
<text text-anchor="middle" x="668.5" y="-7" font-family="Helvetica,sans-Serif" font-size="10.00">spdlog/spdlog.h</text>
</a>
</g>
</g>
<!-- Node9&#45;&gt;Node11 -->
<g id="edge10" class="edge">
<title>Node9&#45;&gt;Node11</title>
<path fill="none" stroke="#63b8ff" d="M624.25,-54.75C631.65,-47.35 642.46,-36.54 651.55,-27.45"/>
<polygon fill="#63b8ff" stroke="#63b8ff" points="653.89,-30.06 658.49,-20.51 648.94,-25.11 653.89,-30.06"/>
</g>
</g>
</svg>
