<?xml version="1.0" encoding="UTF-8" standalone="no"?>
<!DOCTYPE svg PUBLIC "-//W3C//DTD SVG 1.1//EN"
 "http://www.w3.org/Graphics/SVG/1.1/DTD/svg11.dtd">
<!-- Generated by graphviz version 7.0.5 (20221223.1930)
 -->
<!-- Title: src/runtime/parachain_host.hpp Pages: 1 -->
<!--zoomable 456 -->
<svg id="main" version="1.1" xmlns="http://www.w3.org/2000/svg" xmlns:xlink="http://www.w3.org/1999/xlink" xml:space="preserve" onload="init(evt)">
<style type="text/css"><![CDATA[
.edge:hover path { stroke: red; }
.edge:hover polygon { stroke: red; fill: red; }
]]></style>
<script type="text/javascript"><![CDATA[
var edges = document.getElementsByTagName('g');
if (edges && edges.length) {
  for (var i=0;i<edges.length;i++) {
    if (edges[i].id.substr(0,4)=='edge') {
      edges[i].setAttribute('class','edge');
    }
  }
}
]]></script>
        <defs>
                <circle id="rim" cx="0" cy="0" r="7"/>
                <circle id="rim2" cx="0" cy="0" r="3.5"/>
                <g id="zoomPlus">
                        <use xlink:href="#rim" fill="#404040">
                                <set attributeName="fill" to="#808080" begin="zoomplus.mouseover" end="zoomplus.mouseout"/>
                        </use>
                        <path d="M-4,0h8M0,-4v8" fill="none" stroke="white" stroke-width="1.5" pointer-events="none"/>
                </g>
                <g id="zoomMin">
                        <use xlink:href="#rim" fill="#404040">
                                <set attributeName="fill" to="#808080" begin="zoomminus.mouseover" end="zoomminus.mouseout"/>
                        </use>
                        <path d="M-4,0h8" fill="none" stroke="white" stroke-width="1.5" pointer-events="none"/>
                </g>
                <g id="dirArrow">
                        <path fill="none" stroke="white" stroke-width="1.5" d="M0,-3.0v7 M-2.5,-0.5L0,-3.0L2.5,-0.5"/>
                </g>
               <g id="resetDef">
                       <use xlink:href="#rim2" fill="#404040">
                               <set attributeName="fill" to="#808080" begin="reset.mouseover" end="reset.mouseout"/>
                       </use>
               </g>
        </defs>

<script type="text/javascript">
var viewWidth = 816;
var viewHeight = 456;
var sectionId = 'dynsection-0';
</script>
<script xlink:href="svgpan.js"/>
<svg id="graph" class="graph">
<g id="viewport">
<title>src/runtime/parachain_host.hpp</title>
<!-- Node1 -->
<g id="node1" class="node">
<title>Node1</title>
<g id="a_node1"><a xlink:title=" ">
<polygon fill="#999999" stroke="#666666" points="613,-448 503,-448 503,-418 613,-418 613,-448"/>
<text text-anchor="start" x="511" y="-436" font-family="Helvetica,sans-Serif" font-size="10.00">src/runtime/parachain</text>
<text text-anchor="middle" x="558" y="-425" font-family="Helvetica,sans-Serif" font-size="10.00">_host.hpp</text>
</a>
</g>
</g>
<!-- Node2 -->
<g id="node2" class="node">
<title>Node2</title>
<g id="a_node2"><a xlink:href="block__id_8hpp.html" target="_top" xlink:title=" ">
<polygon fill="white" stroke="#666666" points="573,-382 457,-382 457,-363 573,-363 573,-382"/>
<text text-anchor="middle" x="515" y="-370" font-family="Helvetica,sans-Serif" font-size="10.00">primitives/block_id.hpp</text>
</a>
</g>
</g>
<!-- Node1&#45;&gt;Node2 -->
<g id="edge1" class="edge">
<title>Node1&#45;&gt;Node2</title>
<path fill="none" stroke="#63b8ff" d="M547.37,-417.54C541.57,-409.65 534.34,-399.81 528.18,-391.44"/>
<polygon fill="#63b8ff" stroke="#63b8ff" points="531.02,-389.38 522.27,-383.39 525.38,-393.53 531.02,-389.38"/>
</g>
<!-- Node18 -->
<g id="node18" class="node">
<title>Node18</title>
<g id="a_node18"><a xlink:href="primitives_2parachain__host_8hpp.html" target="_top" xlink:title=" ">
<polygon fill="white" stroke="#666666" points="705,-327 601,-327 601,-297 705,-297 705,-327"/>
<text text-anchor="start" x="609" y="-315" font-family="Helvetica,sans-Serif" font-size="10.00">primitives/parachain</text>
<text text-anchor="middle" x="653" y="-304" font-family="Helvetica,sans-Serif" font-size="10.00">_host.hpp</text>
</a>
</g>
</g>
<!-- Node1&#45;&gt;Node18 -->
<g id="edge18" class="edge">
<title>Node1&#45;&gt;Node18</title>
<path fill="none" stroke="#63b8ff" d="M569.27,-417.88C585.33,-397.77 614.97,-360.63 634.34,-336.38"/>
<polygon fill="#63b8ff" stroke="#63b8ff" points="637,-338.65 640.5,-328.65 631.53,-334.29 637,-338.65"/>
</g>
<!-- Node3 -->
<g id="node3" class="node">
<title>Node3</title>
<g id="a_node3"><a xlink:title=" ">
<polygon fill="#e0e0e0" stroke="#999999" points="624.5,-255.5 533.5,-255.5 533.5,-236.5 624.5,-236.5 624.5,-255.5"/>
<text text-anchor="middle" x="579" y="-243.5" font-family="Helvetica,sans-Serif" font-size="10.00">boost/variant.hpp</text>
</a>
</g>
</g>
<!-- Node2&#45;&gt;Node3 -->
<g id="edge2" class="edge">
<title>Node2&#45;&gt;Node3</title>
<path fill="none" stroke="#63b8ff" d="M519.6,-362.55C529.94,-342.45 555.16,-293.37 569.19,-266.08"/>
<polygon fill="#63b8ff" stroke="#63b8ff" points="572.29,-267.71 573.75,-257.22 566.06,-264.51 572.29,-267.71"/>
</g>
<!-- Node4 -->
<g id="node4" class="node">
<title>Node4</title>
<g id="a_node4"><a xlink:href="blob_8hpp.html" target="_top" xlink:title=" ">
<polygon fill="white" stroke="#666666" points="327.5,-195 250.5,-195 250.5,-176 327.5,-176 327.5,-195"/>
<text text-anchor="middle" x="289" y="-183" font-family="Helvetica,sans-Serif" font-size="10.00">base/blob.hpp</text>
</a>
</g>
</g>
<!-- Node2&#45;&gt;Node4 -->
<g id="edge3" class="edge">
<title>Node2&#45;&gt;Node4</title>
<path fill="none" stroke="#63b8ff" d="M476.07,-362.53C449.09,-355.32 412.95,-343.63 384,-327 345.2,-304.72 331.49,-299.08 308,-261 297.72,-244.33 292.98,-222.28 290.81,-206.51"/>
<polygon fill="#63b8ff" stroke="#63b8ff" points="294.33,-206.47 289.73,-196.93 287.37,-207.26 294.33,-206.47"/>
</g>
<!-- Node14 -->
<g id="node14" class="node">
<title>Node14</title>
<g id="a_node14"><a xlink:href="src_2primitives_2common_8hpp.html" target="_top" xlink:title=" ">
<polygon fill="white" stroke="#666666" points="510.5,-321.5 393.5,-321.5 393.5,-302.5 510.5,-302.5 510.5,-321.5"/>
<text text-anchor="middle" x="452" y="-309.5" font-family="Helvetica,sans-Serif" font-size="10.00">primitives/common.hpp</text>
</a>
</g>
</g>
<!-- Node2&#45;&gt;Node14 -->
<g id="edge13" class="edge">
<title>Node2&#45;&gt;Node14</title>
<path fill="none" stroke="#63b8ff" d="M505.43,-362.62C496,-353.85 481.35,-340.25 469.77,-329.5"/>
<polygon fill="#63b8ff" stroke="#63b8ff" points="472.48,-327.24 462.77,-323 467.71,-332.37 472.48,-327.24"/>
</g>
<!-- Node5 -->
<g id="node5" class="node">
<title>Node5</title>
<g id="a_node5"><a xlink:title=" ">
<polygon fill="#e0e0e0" stroke="#999999" points="38,-140 0,-140 0,-121 38,-121 38,-140"/>
<text text-anchor="middle" x="19" y="-128" font-family="Helvetica,sans-Serif" font-size="10.00">array</text>
</a>
</g>
</g>
<!-- Node4&#45;&gt;Node5 -->
<g id="edge4" class="edge">
<title>Node4&#45;&gt;Node5</title>
<path fill="none" stroke="#63b8ff" d="M250.16,-178.74C204.27,-171.64 125.47,-158.49 48.98,-140.25"/>
<polygon fill="#63b8ff" stroke="#63b8ff" points="50.21,-136.95 39.67,-138 48.57,-143.75 50.21,-136.95"/>
</g>
<!-- Node6 -->
<g id="node6" class="node">
<title>Node6</title>
<g id="a_node6"><a xlink:title=" ">
<polygon fill="#e0e0e0" stroke="#999999" points="184,-140 56,-140 56,-121 184,-121 184,-140"/>
<text text-anchor="middle" x="120" y="-128" font-family="Helvetica,sans-Serif" font-size="10.00">boost/functional/hash.hpp</text>
</a>
</g>
</g>
<!-- Node4&#45;&gt;Node6 -->
<g id="edge5" class="edge">
<title>Node4&#45;&gt;Node6</title>
<path fill="none" stroke="#63b8ff" d="M260.33,-175.51C232.57,-166.8 190.25,-153.53 159.35,-143.84"/>
<polygon fill="#63b8ff" stroke="#63b8ff" points="160.56,-140.55 149.97,-140.9 158.47,-147.23 160.56,-140.55"/>
</g>
<!-- Node7 -->
<g id="node7" class="node">
<title>Node7</title>
<g id="a_node7"><a xlink:href="hexutil_8hpp.html" target="_top" xlink:title=" ">
<polygon fill="white" stroke="#666666" points="288,-140 202,-140 202,-121 288,-121 288,-140"/>
<text text-anchor="middle" x="245" y="-128" font-family="Helvetica,sans-Serif" font-size="10.00">base/hexutil.hpp</text>
</a>
</g>
</g>
<!-- Node4&#45;&gt;Node7 -->
<g id="edge6" class="edge">
<title>Node4&#45;&gt;Node7</title>
<path fill="none" stroke="#63b8ff" d="M281.73,-175.75C275.72,-168.5 266.99,-157.98 259.54,-149.02"/>
<polygon fill="#63b8ff" stroke="#63b8ff" points="262.47,-147.07 253.39,-141.61 257.08,-151.54 262.47,-147.07"/>
</g>
<!-- Node13 -->
<g id="node13" class="node">
<title>Node13</title>
<g id="a_node13"><a xlink:title=" ">
<polygon fill="#e0e0e0" stroke="#999999" points="360,-140 306,-140 306,-121 360,-121 360,-140"/>
<text text-anchor="middle" x="333" y="-128" font-family="Helvetica,sans-Serif" font-size="10.00">iostream</text>
</a>
</g>
</g>
<!-- Node4&#45;&gt;Node13 -->
<g id="edge12" class="edge">
<title>Node4&#45;&gt;Node13</title>
<path fill="none" stroke="#63b8ff" d="M296.27,-175.75C302.28,-168.5 311.01,-157.98 318.46,-149.02"/>
<polygon fill="#63b8ff" stroke="#63b8ff" points="320.92,-151.54 324.61,-141.61 315.53,-147.07 320.92,-151.54"/>
</g>
<!-- Node8 -->
<g id="node8" class="node">
<title>Node8</title>
<g id="a_node8"><a xlink:title=" ">
<polygon fill="#e0e0e0" stroke="#999999" points="276,-79.5 210,-79.5 210,-60.5 276,-60.5 276,-79.5"/>
<text text-anchor="middle" x="243" y="-67.5" font-family="Helvetica,sans-Serif" font-size="10.00">string_view</text>
</a>
</g>
</g>
<!-- Node7&#45;&gt;Node8 -->
<g id="edge7" class="edge">
<title>Node7&#45;&gt;Node8</title>
<path fill="none" stroke="#63b8ff" d="M244.7,-120.87C244.44,-113 244.03,-101.1 243.68,-90.89"/>
<polygon fill="#63b8ff" stroke="#63b8ff" points="247.19,-91.05 243.35,-81.18 240.19,-91.29 247.19,-91.05"/>
</g>
<!-- Node9 -->
<g id="node9" class="node">
<title>Node9</title>
<g id="a_node9"><a xlink:title=" ">
<polygon fill="#e0e0e0" stroke="#999999" points="538,-79.5 494,-79.5 494,-60.5 538,-60.5 538,-79.5"/>
<text text-anchor="middle" x="516" y="-67.5" font-family="Helvetica,sans-Serif" font-size="10.00">vector</text>
</a>
</g>
</g>
<!-- Node7&#45;&gt;Node9 -->
<g id="edge8" class="edge">
<title>Node7&#45;&gt;Node9</title>
<path fill="none" stroke="#63b8ff" d="M288.43,-122.03C352.43,-110.94 466.55,-90.78 485,-85 485.96,-84.7 486.93,-84.38 487.91,-84.03"/>
<polygon fill="#63b8ff" stroke="#63b8ff" points="488.86,-87.42 496.85,-80.46 486.26,-80.92 488.86,-87.42"/>
</g>
<!-- Node10 -->
<g id="node10" class="node">
<title>Node10</title>
<g id="a_node10"><a xlink:title=" ">
<polygon fill="#e0e0e0" stroke="#999999" points="347.5,-79.5 294.5,-79.5 294.5,-60.5 347.5,-60.5 347.5,-79.5"/>
<text text-anchor="middle" x="321" y="-67.5" font-family="Helvetica,sans-Serif" font-size="10.00">gsl/span</text>
</a>
</g>
</g>
<!-- Node7&#45;&gt;Node10 -->
<g id="edge9" class="edge">
<title>Node7&#45;&gt;Node10</title>
<path fill="none" stroke="#63b8ff" d="M256.54,-120.62C268.15,-111.68 286.29,-97.72 300.38,-86.87"/>
<polygon fill="#63b8ff" stroke="#63b8ff" points="302.36,-89.76 308.15,-80.89 298.09,-84.22 302.36,-89.76"/>
</g>
<!-- Node11 -->
<g id="node11" class="node">
<title>Node11</title>
<g id="a_node11"><a xlink:href="outcome_8hpp.html" target="_top" xlink:title=" ">
<polygon fill="white" stroke="#666666" points="191.5,-79.5 78.5,-79.5 78.5,-60.5 191.5,-60.5 191.5,-79.5"/>
<text text-anchor="middle" x="135" y="-67.5" font-family="Helvetica,sans-Serif" font-size="10.00">outcome/outcome.hpp</text>
</a>
</g>
</g>
<!-- Node7&#45;&gt;Node11 -->
<g id="edge10" class="edge">
<title>Node7&#45;&gt;Node11</title>
<path fill="none" stroke="#63b8ff" d="M228.29,-120.62C210.69,-111.25 182.69,-96.36 161.95,-85.33"/>
<polygon fill="#63b8ff" stroke="#63b8ff" points="163.67,-82.28 153.2,-80.68 160.39,-88.46 163.67,-82.28"/>
</g>
<!-- Node12 -->
<g id="node12" class="node">
<title>Node12</title>
<g id="a_node12"><a xlink:title=" ">
<polygon fill="#e0e0e0" stroke="#999999" points="205.5,-19 64.5,-19 64.5,0 205.5,0 205.5,-19"/>
<text text-anchor="middle" x="135" y="-7" font-family="Helvetica,sans-Serif" font-size="10.00">libp2p/outcome/outcome.hpp</text>
</a>
</g>
</g>
<!-- Node11&#45;&gt;Node12 -->
<g id="edge11" class="edge">
<title>Node11&#45;&gt;Node12</title>
<path fill="none" stroke="#63b8ff" d="M135,-60.37C135,-52.5 135,-40.6 135,-30.39"/>
<polygon fill="#63b8ff" stroke="#63b8ff" points="138.5,-30.68 135,-20.68 131.5,-30.68 138.5,-30.68"/>
</g>
<!-- Node15 -->
<g id="node15" class="node">
<title>Node15</title>
<g id="a_node15"><a xlink:title=" ">
<polygon fill="#e0e0e0" stroke="#999999" points="515,-255.5 469,-255.5 469,-236.5 515,-236.5 515,-255.5"/>
<text text-anchor="middle" x="492" y="-243.5" font-family="Helvetica,sans-Serif" font-size="10.00">cstdint</text>
</a>
</g>
</g>
<!-- Node14&#45;&gt;Node15 -->
<g id="edge14" class="edge">
<title>Node14&#45;&gt;Node15</title>
<path fill="none" stroke="#63b8ff" d="M457.56,-302.1C463.47,-292.64 472.99,-277.42 480.52,-265.37"/>
<polygon fill="#63b8ff" stroke="#63b8ff" points="483.35,-267.44 485.68,-257.11 477.42,-263.73 483.35,-267.44"/>
</g>
<!-- Node16 -->
<g id="node16" class="node">
<title>Node16</title>
<g id="a_node16"><a xlink:title=" ">
<polygon fill="#e0e0e0" stroke="#999999" points="658,-79.5 556,-79.5 556,-60.5 658,-60.5 658,-79.5"/>
<text text-anchor="middle" x="607" y="-67.5" font-family="Helvetica,sans-Serif" font-size="10.00">boost/operators.hpp</text>
</a>
</g>
</g>
<!-- Node14&#45;&gt;Node16 -->
<g id="edge15" class="edge">
<title>Node14&#45;&gt;Node16</title>
<path fill="none" stroke="#63b8ff" d="M451.12,-302.13C449.98,-286.87 449.27,-254.95 460,-231 488.51,-167.4 552.44,-112.26 585.81,-86.5"/>
<polygon fill="#63b8ff" stroke="#63b8ff" points="587.66,-89.49 593.53,-80.66 583.44,-83.9 587.66,-89.49"/>
</g>
<!-- Node17 -->
<g id="node17" class="node">
<title>Node17</title>
<g id="a_node17"><a xlink:href="session__key_8hpp.html" target="_top" xlink:title=" ">
<polygon fill="white" stroke="#666666" points="412.5,-261 317.5,-261 317.5,-231 412.5,-231 412.5,-261"/>
<text text-anchor="start" x="325.5" y="-249" font-family="Helvetica,sans-Serif" font-size="10.00">primitives/session</text>
<text text-anchor="middle" x="365" y="-238" font-family="Helvetica,sans-Serif" font-size="10.00">_key.hpp</text>
</a>
</g>
</g>
<!-- Node14&#45;&gt;Node17 -->
<g id="edge16" class="edge">
<title>Node14&#45;&gt;Node17</title>
<path fill="none" stroke="#63b8ff" d="M439.9,-302.1C427.96,-293.32 409.25,-279.55 393.52,-267.98"/>
<polygon fill="#63b8ff" stroke="#63b8ff" points="396.03,-265.48 385.9,-262.37 391.88,-271.12 396.03,-265.48"/>
</g>
<!-- Node17&#45;&gt;Node4 -->
<g id="edge17" class="edge">
<title>Node17&#45;&gt;Node4</title>
<path fill="none" stroke="#63b8ff" d="M346.21,-230.54C334.95,-221.87 320.63,-210.85 309.13,-202"/>
<polygon fill="#63b8ff" stroke="#63b8ff" points="311.53,-199.42 301.47,-196.1 307.26,-204.97 311.53,-199.42"/>
</g>
<!-- Node18&#45;&gt;Node3 -->
<g id="edge22" class="edge">
<title>Node18&#45;&gt;Node3</title>
<path fill="none" stroke="#63b8ff" d="M636.58,-296.8C625.04,-286.82 609.59,-273.46 597.6,-263.09"/>
<polygon fill="#63b8ff" stroke="#63b8ff" points="600.22,-260.73 590.37,-256.83 595.65,-266.02 600.22,-260.73"/>
</g>
<!-- Node18&#45;&gt;Node4 -->
<g id="edge23" class="edge">
<title>Node18&#45;&gt;Node4</title>
<path fill="none" stroke="#63b8ff" d="M654.08,-296.75C654.6,-278.6 652.46,-247.62 634,-231 591.67,-192.89 424.41,-186.78 339.31,-186.21"/>
<polygon fill="#63b8ff" stroke="#63b8ff" points="339.4,-182.71 329.38,-186.16 339.37,-189.71 339.4,-182.71"/>
</g>
<!-- Node18&#45;&gt;Node9 -->
<g id="edge20" class="edge">
<title>Node18&#45;&gt;Node9</title>
<path fill="none" stroke="#63b8ff" d="M705.42,-303.96C757.62,-294.43 826.82,-273.47 803,-231 788.76,-205.61 614.83,-119.02 544.87,-84.94"/>
<polygon fill="#63b8ff" stroke="#63b8ff" points="546.46,-81.82 535.93,-80.6 543.4,-88.12 546.46,-81.82"/>
</g>
<!-- Node18&#45;&gt;Node15 -->
<g id="edge19" class="edge">
<title>Node18&#45;&gt;Node15</title>
<path fill="none" stroke="#63b8ff" d="M614.45,-296.55C588.72,-286.79 554.2,-273.45 524,-261 523.39,-260.75 522.77,-260.49 522.14,-260.23"/>
<polygon fill="#63b8ff" stroke="#63b8ff" points="523.88,-257.17 513.31,-256.46 521.13,-263.6 523.88,-257.17"/>
</g>
<!-- Node19 -->
<g id="node19" class="node">
<title>Node19</title>
<g id="a_node19"><a xlink:title=" ">
<polygon fill="#e0e0e0" stroke="#999999" points="776.5,-255.5 681.5,-255.5 681.5,-236.5 776.5,-236.5 776.5,-255.5"/>
<text text-anchor="middle" x="729" y="-243.5" font-family="Helvetica,sans-Serif" font-size="10.00">boost/optional.hpp</text>
</a>
</g>
</g>
<!-- Node18&#45;&gt;Node19 -->
<g id="edge21" class="edge">
<title>Node18&#45;&gt;Node19</title>
<path fill="none" stroke="#63b8ff" d="M669.87,-296.8C681.72,-286.82 697.58,-273.46 709.9,-263.09"/>
<polygon fill="#63b8ff" stroke="#63b8ff" points="711.95,-265.94 717.34,-256.82 707.44,-260.58 711.95,-265.94"/>
</g>
<!-- Node20 -->
<g id="node20" class="node">
<title>Node20</title>
<g id="a_node20"><a xlink:href="buffer_8hpp.html" target="_top" xlink:title=" ">
<polygon fill="white" stroke="#666666" points="461.5,-140 378.5,-140 378.5,-121 461.5,-121 461.5,-140"/>
<text text-anchor="middle" x="420" y="-128" font-family="Helvetica,sans-Serif" font-size="10.00">base/buffer.hpp</text>
</a>
</g>
</g>
<!-- Node18&#45;&gt;Node20 -->
<g id="edge24" class="edge">
<title>Node18&#45;&gt;Node20</title>
<path fill="none" stroke="#63b8ff" d="M705.24,-300.36C752.95,-288.22 812.35,-265.47 786,-231 748.03,-181.33 565.04,-150.6 473.04,-138.04"/>
<polygon fill="#63b8ff" stroke="#63b8ff" points="473.63,-134.59 463.25,-136.73 472.7,-141.53 473.63,-134.59"/>
</g>
<!-- Node20&#45;&gt;Node8 -->
<g id="edge25" class="edge">
<title>Node20&#45;&gt;Node8</title>
<path fill="none" stroke="#63b8ff" d="M392.84,-120.58C365.57,-111.61 322.36,-97.38 285,-85 283.45,-84.49 281.87,-83.96 280.27,-83.43"/>
<polygon fill="#63b8ff" stroke="#63b8ff" points="281.69,-80.21 271.09,-80.38 279.48,-86.86 281.69,-80.21"/>
</g>
<!-- Node20&#45;&gt;Node9 -->
<g id="edge26" class="edge">
<title>Node20&#45;&gt;Node9</title>
<path fill="none" stroke="#63b8ff" d="M434.58,-120.62C449.66,-111.42 473.49,-96.91 491.48,-85.94"/>
<polygon fill="#63b8ff" stroke="#63b8ff" points="493.27,-88.95 499.99,-80.76 489.63,-82.97 493.27,-88.95"/>
</g>
<!-- Node20&#45;&gt;Node10 -->
<g id="edge29" class="edge">
<title>Node20&#45;&gt;Node10</title>
<path fill="none" stroke="#63b8ff" d="M404.96,-120.62C389.34,-111.38 364.61,-96.77 346.03,-85.79"/>
<polygon fill="#63b8ff" stroke="#63b8ff" points="347.87,-82.81 337.48,-80.74 344.31,-88.84 347.87,-82.81"/>
</g>
<!-- Node20&#45;&gt;Node11 -->
<g id="edge30" class="edge">
<title>Node20&#45;&gt;Node11</title>
<path fill="none" stroke="#63b8ff" d="M378.4,-121.16C334.33,-112.29 262.73,-97.82 201,-85 196.74,-84.11 192.32,-83.19 187.88,-82.26"/>
<polygon fill="#63b8ff" stroke="#63b8ff" points="188.87,-78.89 178.37,-80.25 187.43,-85.74 188.87,-78.89"/>
</g>
<!-- Node20&#45;&gt;Node16 -->
<g id="edge28" class="edge">
<title>Node20&#45;&gt;Node16</title>
<path fill="none" stroke="#63b8ff" d="M448.4,-120.62C480.12,-110.69 531.67,-94.57 567.35,-83.4"/>
<polygon fill="#63b8ff" stroke="#63b8ff" points="568.39,-86.75 576.89,-80.42 566.3,-80.07 568.39,-86.75"/>
</g>
<!-- Node21 -->
<g id="node21" class="node">
<title>Node21</title>
<g id="a_node21"><a xlink:title=" ">
<polygon fill="#e0e0e0" stroke="#999999" points="476,-85 366,-85 366,-55 476,-55 476,-85"/>
<text text-anchor="start" x="374" y="-73" font-family="Helvetica,sans-Serif" font-size="10.00">boost/container_hash</text>
<text text-anchor="middle" x="421" y="-62" font-family="Helvetica,sans-Serif" font-size="10.00">/hash.hpp</text>
</a>
</g>
</g>
<!-- Node20&#45;&gt;Node21 -->
<g id="edge27" class="edge">
<title>Node20&#45;&gt;Node21</title>
<path fill="none" stroke="#63b8ff" d="M420.15,-120.87C420.26,-114.4 420.42,-105.2 420.56,-96.45"/>
<polygon fill="#63b8ff" stroke="#63b8ff" points="424.06,-96.69 420.73,-86.63 417.06,-96.57 424.06,-96.69"/>
</g>
</g>
</svg>
        <g id="navigator" transform="translate(0 0)" fill="#404254">
                <rect fill="#f2f5e9" fill-opacity="0.5" stroke="#606060" stroke-width=".5" x="0" y="0" width="60" height="60"/>
                <use id="zoomplus" xlink:href="#zoomPlus" x="17" y="9" onmousedown="handleZoom(evt,'in')"/>
                <use id="zoomminus" xlink:href="#zoomMin" x="42" y="9" onmousedown="handleZoom(evt,'out')"/>
                <use id="reset" xlink:href="#resetDef" x="30" y="36" onmousedown="handleReset()"/>
                <g id="arrowUp" xlink:href="#dirArrow" transform="translate(30 24)" onmousedown="handlePan(0,-1)">
                  <use xlink:href="#rim" fill="#404040">
                        <set attributeName="fill" to="#808080" begin="arrowUp.mouseover" end="arrowUp.mouseout"/>
                  </use>
                  <path fill="none" stroke="white" stroke-width="1.5" d="M0,-3.0v7 M-2.5,-0.5L0,-3.0L2.5,-0.5"/>
                </g>
                <g id="arrowRight" xlink:href="#dirArrow" transform="rotate(90) translate(36 -43)" onmousedown="handlePan(1,0)">
                  <use xlink:href="#rim" fill="#404040">
                        <set attributeName="fill" to="#808080" begin="arrowRight.mouseover" end="arrowRight.mouseout"/>
                  </use>
                  <path fill="none" stroke="white" stroke-width="1.5" d="M0,-3.0v7 M-2.5,-0.5L0,-3.0L2.5,-0.5"/>
                </g>
                <g id="arrowDown" xlink:href="#dirArrow" transform="rotate(180) translate(-30 -48)" onmousedown="handlePan(0,1)">
                  <use xlink:href="#rim" fill="#404040">
                        <set attributeName="fill" to="#808080" begin="arrowDown.mouseover" end="arrowDown.mouseout"/>
                  </use>
                  <path fill="none" stroke="white" stroke-width="1.5" d="M0,-3.0v7 M-2.5,-0.5L0,-3.0L2.5,-0.5"/>
                </g>
                <g id="arrowLeft" xlink:href="#dirArrow" transform="rotate(270) translate(-36 17)" onmousedown="handlePan(-1,0)">
                  <use xlink:href="#rim" fill="#404040">
                        <set attributeName="fill" to="#808080" begin="arrowLeft.mouseover" end="arrowLeft.mouseout"/>
                  </use>
                  <path fill="none" stroke="white" stroke-width="1.5" d="M0,-3.0v7 M-2.5,-0.5L0,-3.0L2.5,-0.5"/>
                </g>
        </g>
        <svg viewBox="0 0 15 15" width="100%" height="30px" preserveAspectRatio="xMaxYMin meet">
         <g id="arrow_out" transform="scale(0.3 0.3)">
          <a xlink:href="runtime_2parachain__host_8hpp__incl_org.svg" target="_base">
           <rect id="button" ry="5" rx="5" y="6" x="6" height="38" width="38"
                fill="#f2f5e9" fill-opacity="0.5" stroke="#606060" stroke-width="1.0"/>
           <path id="arrow"
             d="M 11.500037,31.436501 C 11.940474,20.09759 22.043105,11.32322 32.158766,21.979434 L 37.068811,17.246167 C 37.068811,17.246167 37.088388,32 37.088388,32 L 22.160133,31.978069 C 22.160133,31.978069 26.997745,27.140456 26.997745,27.140456 C 18.528582,18.264221 13.291696,25.230495 11.500037,31.436501 z"
             style="fill:#404040;"/>
          </a>
         </g>
        </svg>
</svg>
