<?xml version="1.0" encoding="UTF-8" standalone="no"?>
<!DOCTYPE svg PUBLIC "-//W3C//DTD SVG 1.1//EN"
 "http://www.w3.org/Graphics/SVG/1.1/DTD/svg11.dtd">
<!-- Generated by graphviz version 7.0.5 (20221223.1930)
 -->
<!-- Title: src/network/helpers/scale_message_read_writer.hpp Pages: 1 -->
<!--zoomable 478 -->
<svg id="main" version="1.1" xmlns="http://www.w3.org/2000/svg" xmlns:xlink="http://www.w3.org/1999/xlink" xml:space="preserve" onload="init(evt)">
<style type="text/css"><![CDATA[
.edge:hover path { stroke: red; }
.edge:hover polygon { stroke: red; fill: red; }
]]></style>
<script type="text/javascript"><![CDATA[
var edges = document.getElementsByTagName('g');
if (edges && edges.length) {
  for (var i=0;i<edges.length;i++) {
    if (edges[i].id.substr(0,4)=='edge') {
      edges[i].setAttribute('class','edge');
    }
  }
}
]]></script>
        <defs>
                <circle id="rim" cx="0" cy="0" r="7"/>
                <circle id="rim2" cx="0" cy="0" r="3.5"/>
                <g id="zoomPlus">
                        <use xlink:href="#rim" fill="#404040">
                                <set attributeName="fill" to="#808080" begin="zoomplus.mouseover" end="zoomplus.mouseout"/>
                        </use>
                        <path d="M-4,0h8M0,-4v8" fill="none" stroke="white" stroke-width="1.5" pointer-events="none"/>
                </g>
                <g id="zoomMin">
                        <use xlink:href="#rim" fill="#404040">
                                <set attributeName="fill" to="#808080" begin="zoomminus.mouseover" end="zoomminus.mouseout"/>
                        </use>
                        <path d="M-4,0h8" fill="none" stroke="white" stroke-width="1.5" pointer-events="none"/>
                </g>
                <g id="dirArrow">
                        <path fill="none" stroke="white" stroke-width="1.5" d="M0,-3.0v7 M-2.5,-0.5L0,-3.0L2.5,-0.5"/>
                </g>
               <g id="resetDef">
                       <use xlink:href="#rim2" fill="#404040">
                               <set attributeName="fill" to="#808080" begin="reset.mouseover" end="reset.mouseout"/>
                       </use>
               </g>
        </defs>

<script type="text/javascript">
var viewWidth = 947;
var viewHeight = 478;
var sectionId = 'dynsection-1';
</script>
<script xlink:href="svgpan.js"/>
<svg id="graph" class="graph">
<g id="viewport">
<title>src/network/helpers/scale_message_read_writer.hpp</title>
<!-- Node1 -->
<g id="node1" class="node">
<title>Node1</title>
<g id="a_node1"><a xlink:title=" ">
<polygon fill="#999999" stroke="#666666" points="323,-470 211,-470 211,-429 323,-429 323,-470"/>
<text text-anchor="start" x="219" y="-458" font-family="Helvetica,sans-Serif" font-size="10.00">src/network/helpers</text>
<text text-anchor="start" x="219" y="-447" font-family="Helvetica,sans-Serif" font-size="10.00">/scale_message_read</text>
<text text-anchor="middle" x="267" y="-436" font-family="Helvetica,sans-Serif" font-size="10.00">_writer.hpp</text>
</a>
</g>
</g>
<!-- Node2 -->
<g id="node2" class="node">
<title>Node2</title>
<g id="a_node2"><a xlink:href="scale__message__read__writer_8cpp.html" target="_top" xlink:title=" ">
<polygon fill="white" stroke="#666666" points="112,-393 0,-393 0,-352 112,-352 112,-393"/>
<text text-anchor="start" x="8" y="-381" font-family="Helvetica,sans-Serif" font-size="10.00">src/network/helpers</text>
<text text-anchor="start" x="8" y="-370" font-family="Helvetica,sans-Serif" font-size="10.00">/scale_message_read</text>
<text text-anchor="middle" x="56" y="-359" font-family="Helvetica,sans-Serif" font-size="10.00">_writer.cpp</text>
</a>
</g>
</g>
<!-- Node1&#45;&gt;Node2 -->
<g id="edge1" class="edge">
<title>Node1&#45;&gt;Node2</title>
<path fill="none" stroke="#63b8ff" d="M200.38,-424.82C172.04,-414.75 139.35,-403.13 112.25,-393.49"/>
<polygon fill="#63b8ff" stroke="#63b8ff" points="198.99,-428.04 209.58,-428.09 201.33,-421.44 198.99,-428.04"/>
</g>
<!-- Node3 -->
<g id="node3" class="node">
<title>Node3</title>
<g id="a_node3"><a xlink:href="gossiper__broadcast_8cpp.html" target="_top" xlink:title=" ">
<polygon fill="white" stroke="#666666" points="258,-387.5 130,-387.5 130,-357.5 258,-357.5 258,-387.5"/>
<text text-anchor="start" x="138" y="-375.5" font-family="Helvetica,sans-Serif" font-size="10.00">src/network/impl/gossiper</text>
<text text-anchor="middle" x="194" y="-364.5" font-family="Helvetica,sans-Serif" font-size="10.00">_broadcast.cpp</text>
</a>
</g>
</g>
<!-- Node1&#45;&gt;Node3 -->
<g id="edge2" class="edge">
<title>Node1&#45;&gt;Node3</title>
<path fill="none" stroke="#63b8ff" d="M239.83,-420.59C229,-409.46 216.99,-397.12 207.98,-387.86"/>
<polygon fill="#63b8ff" stroke="#63b8ff" points="237.28,-422.99 246.76,-427.71 242.3,-418.1 237.28,-422.99"/>
</g>
<!-- Node4 -->
<g id="node4" class="node">
<title>Node4</title>
<g id="a_node4"><a xlink:href="remote__sync__protocol__client_8cpp.html" target="_top" xlink:title=" ">
<polygon fill="white" stroke="#666666" points="404,-387.5 276,-387.5 276,-357.5 404,-357.5 404,-387.5"/>
<text text-anchor="start" x="284" y="-375.5" font-family="Helvetica,sans-Serif" font-size="10.00">src/network/impl/remote</text>
<text text-anchor="middle" x="340" y="-364.5" font-family="Helvetica,sans-Serif" font-size="10.00">_sync_protocol_client.cpp</text>
</a>
</g>
</g>
<!-- Node1&#45;&gt;Node4 -->
<g id="edge3" class="edge">
<title>Node1&#45;&gt;Node4</title>
<path fill="none" stroke="#63b8ff" d="M294.17,-420.59C305,-409.46 317.01,-397.12 326.02,-387.86"/>
<polygon fill="#63b8ff" stroke="#63b8ff" points="291.7,-418.1 287.24,-427.71 296.72,-422.99 291.7,-418.1"/>
</g>
<!-- Node5 -->
<g id="node5" class="node">
<title>Node5</title>
<g id="a_node5"><a xlink:href="router__libp2p_8hpp.html" target="_top" xlink:title=" ">
<polygon fill="white" stroke="#666666" points="538,-387.5 422,-387.5 422,-357.5 538,-357.5 538,-387.5"/>
<text text-anchor="start" x="430" y="-375.5" font-family="Helvetica,sans-Serif" font-size="10.00">src/network/impl/router</text>
<text text-anchor="middle" x="480" y="-364.5" font-family="Helvetica,sans-Serif" font-size="10.00">_libp2p.hpp</text>
</a>
</g>
</g>
<!-- Node1&#45;&gt;Node5 -->
<g id="edge4" class="edge">
<title>Node1&#45;&gt;Node5</title>
<path fill="none" stroke="#63b8ff" d="M333.72,-425.01C368.2,-412.87 409.19,-398.43 438.99,-387.94"/>
<polygon fill="#63b8ff" stroke="#63b8ff" points="332.94,-421.57 324.67,-428.19 335.26,-428.17 332.94,-421.57"/>
</g>
<!-- Node6 -->
<g id="node6" class="node">
<title>Node6</title>
<g id="a_node6"><a xlink:href="application__injector_8hpp.html" target="_top" xlink:title=" ">
<polygon fill="white" stroke="#666666" points="471,-316 357,-316 357,-286 471,-286 471,-316"/>
<text text-anchor="start" x="365" y="-304" font-family="Helvetica,sans-Serif" font-size="10.00">src/injector/application</text>
<text text-anchor="middle" x="414" y="-293" font-family="Helvetica,sans-Serif" font-size="10.00">_injector.hpp</text>
</a>
</g>
</g>
<!-- Node5&#45;&gt;Node6 -->
<g id="edge5" class="edge">
<title>Node5&#45;&gt;Node6</title>
<path fill="none" stroke="#63b8ff" d="M458.62,-348.98C448.45,-338.28 436.59,-325.79 427.66,-316.38"/>
<polygon fill="#63b8ff" stroke="#63b8ff" points="455.86,-351.16 465.28,-356 460.93,-346.34 455.86,-351.16"/>
</g>
<!-- Node21 -->
<g id="node21" class="node">
<title>Node21</title>
<g id="a_node21"><a xlink:href="router__libp2p_8cpp.html" target="_top" xlink:title=" ">
<polygon fill="white" stroke="#666666" points="605,-316 489,-316 489,-286 605,-286 605,-316"/>
<text text-anchor="start" x="497" y="-304" font-family="Helvetica,sans-Serif" font-size="10.00">src/network/impl/router</text>
<text text-anchor="middle" x="547" y="-293" font-family="Helvetica,sans-Serif" font-size="10.00">_libp2p.cpp</text>
</a>
</g>
</g>
<!-- Node5&#45;&gt;Node21 -->
<g id="edge22" class="edge">
<title>Node5&#45;&gt;Node21</title>
<path fill="none" stroke="#63b8ff" d="M501.71,-348.98C512.03,-338.28 524.07,-325.79 533.14,-316.38"/>
<polygon fill="#63b8ff" stroke="#63b8ff" points="499.35,-346.38 494.93,-356.01 504.39,-351.24 499.35,-346.38"/>
</g>
<!-- Node7 -->
<g id="node7" class="node">
<title>Node7</title>
<g id="a_node7"><a xlink:href="application__injector_8cpp.html" target="_top" xlink:title=" ">
<polygon fill="white" stroke="#666666" points="305,-250 191,-250 191,-220 305,-220 305,-250"/>
<text text-anchor="start" x="199" y="-238" font-family="Helvetica,sans-Serif" font-size="10.00">src/injector/application</text>
<text text-anchor="middle" x="248" y="-227" font-family="Helvetica,sans-Serif" font-size="10.00">_injector.cpp</text>
</a>
</g>
</g>
<!-- Node6&#45;&gt;Node7 -->
<g id="edge6" class="edge">
<title>Node6&#45;&gt;Node7</title>
<path fill="none" stroke="#63b8ff" d="M366.12,-281.54C340.45,-271.64 309.29,-259.63 285.42,-250.43"/>
<polygon fill="#63b8ff" stroke="#63b8ff" points="364.74,-284.76 375.33,-285.09 367.26,-278.23 364.74,-284.76"/>
</g>
<!-- Node8 -->
<g id="node8" class="node">
<title>Node8</title>
<g id="a_node8"><a xlink:href="block__producing__node__injector_8hpp.html" target="_top" xlink:title=" ">
<polygon fill="white" stroke="#666666" points="610.5,-184 465.5,-184 465.5,-154 610.5,-154 610.5,-184"/>
<text text-anchor="start" x="473.5" y="-172" font-family="Helvetica,sans-Serif" font-size="10.00">src/injector/block</text>
<text text-anchor="middle" x="538" y="-161" font-family="Helvetica,sans-Serif" font-size="10.00">_producing_node_injector.hpp</text>
</a>
</g>
</g>
<!-- Node6&#45;&gt;Node8 -->
<g id="edge7" class="edge">
<title>Node6&#45;&gt;Node8</title>
<path fill="none" stroke="#63b8ff" d="M435.39,-277.57C460.86,-250.87 502.65,-207.06 524.19,-184.47"/>
<polygon fill="#63b8ff" stroke="#63b8ff" points="433.16,-274.84 428.79,-284.5 438.22,-279.68 433.16,-274.84"/>
</g>
<!-- Node13 -->
<g id="node13" class="node">
<title>Node13</title>
<g id="a_node13"><a xlink:href="syncing__node__injector_8hpp.html" target="_top" xlink:title=" ">
<polygon fill="white" stroke="#666666" points="424.5,-250 323.5,-250 323.5,-220 424.5,-220 424.5,-250"/>
<text text-anchor="start" x="331.5" y="-238" font-family="Helvetica,sans-Serif" font-size="10.00">src/injector/syncing</text>
<text text-anchor="middle" x="374" y="-227" font-family="Helvetica,sans-Serif" font-size="10.00">_node_injector.hpp</text>
</a>
</g>
</g>
<!-- Node6&#45;&gt;Node13 -->
<g id="edge12" class="edge">
<title>Node6&#45;&gt;Node13</title>
<path fill="none" stroke="#63b8ff" d="M399.07,-276.11C393.61,-267.38 387.61,-257.78 382.85,-250.16"/>
<polygon fill="#63b8ff" stroke="#63b8ff" points="396.05,-277.89 404.32,-284.51 401.99,-274.18 396.05,-277.89"/>
</g>
<!-- Node17 -->
<g id="node17" class="node">
<title>Node17</title>
<g id="a_node17"><a xlink:href="validating__node__injector_8hpp.html" target="_top" xlink:title=" ">
<polygon fill="white" stroke="#666666" points="634.5,-250 525.5,-250 525.5,-220 634.5,-220 634.5,-250"/>
<text text-anchor="start" x="533.5" y="-238" font-family="Helvetica,sans-Serif" font-size="10.00">src/injector/validating</text>
<text text-anchor="middle" x="580" y="-227" font-family="Helvetica,sans-Serif" font-size="10.00">_node_injector.hpp</text>
</a>
</g>
</g>
<!-- Node6&#45;&gt;Node17 -->
<g id="edge16" class="edge">
<title>Node6&#45;&gt;Node17</title>
<path fill="none" stroke="#63b8ff" d="M461.88,-281.54C487.55,-271.64 518.71,-259.63 542.58,-250.43"/>
<polygon fill="#63b8ff" stroke="#63b8ff" points="460.74,-278.23 452.67,-285.09 463.26,-284.76 460.74,-278.23"/>
</g>
<!-- Node9 -->
<g id="node9" class="node">
<title>Node9</title>
<g id="a_node9"><a xlink:href="block__producing__node__application_8hpp.html" target="_top" xlink:title=" ">
<polygon fill="white" stroke="#666666" points="741,-118 625,-118 625,-77 741,-77 741,-118"/>
<text text-anchor="start" x="633" y="-106" font-family="Helvetica,sans-Serif" font-size="10.00">src/application/impl</text>
<text text-anchor="start" x="633" y="-95" font-family="Helvetica,sans-Serif" font-size="10.00">/block_producing_node</text>
<text text-anchor="middle" x="683" y="-84" font-family="Helvetica,sans-Serif" font-size="10.00">_application.hpp</text>
</a>
</g>
</g>
<!-- Node8&#45;&gt;Node9 -->
<g id="edge8" class="edge">
<title>Node8&#45;&gt;Node9</title>
<path fill="none" stroke="#63b8ff" d="M578.23,-148.72C597.91,-139.28 621.59,-127.94 641.45,-118.42"/>
<polygon fill="#63b8ff" stroke="#63b8ff" points="576.91,-145.47 569.41,-152.95 579.94,-151.78 576.91,-145.47"/>
</g>
<!-- Node12 -->
<g id="node12" class="node">
<title>Node12</title>
<g id="a_node12"><a xlink:href="block__producing__node__injector_8cpp.html" target="_top" xlink:title=" ">
<polygon fill="white" stroke="#666666" points="606.5,-112.5 461.5,-112.5 461.5,-82.5 606.5,-82.5 606.5,-112.5"/>
<text text-anchor="start" x="469.5" y="-100.5" font-family="Helvetica,sans-Serif" font-size="10.00">src/injector/block</text>
<text text-anchor="middle" x="534" y="-89.5" font-family="Helvetica,sans-Serif" font-size="10.00">_producing_node_injector.cpp</text>
</a>
</g>
</g>
<!-- Node8&#45;&gt;Node12 -->
<g id="edge11" class="edge">
<title>Node8&#45;&gt;Node12</title>
<path fill="none" stroke="#63b8ff" d="M536.52,-142.26C535.95,-132.33 535.32,-121.36 534.83,-112.88"/>
<polygon fill="#63b8ff" stroke="#63b8ff" points="533.02,-142.31 537.08,-152.09 540,-141.9 533.02,-142.31"/>
</g>
<!-- Node10 -->
<g id="node10" class="node">
<title>Node10</title>
<g id="a_node10"><a xlink:href="app__delegate_8cpp.html" target="_top" xlink:title=" ">
<polygon fill="white" stroke="#666666" points="939,-30 823,-30 823,-11 939,-11 939,-30"/>
<text text-anchor="middle" x="881" y="-18" font-family="Helvetica,sans-Serif" font-size="10.00">node/app_delegate.cpp</text>
</a>
</g>
</g>
<!-- Node9&#45;&gt;Node10 -->
<g id="edge9" class="edge">
<title>Node9&#45;&gt;Node10</title>
<path fill="none" stroke="#63b8ff" d="M745.99,-72.64C783.89,-58.28 829.94,-40.84 857.28,-30.48"/>
<polygon fill="#63b8ff" stroke="#63b8ff" points="745.07,-69.25 736.96,-76.06 747.55,-75.79 745.07,-69.25"/>
</g>
<!-- Node11 -->
<g id="node11" class="node">
<title>Node11</title>
<g id="a_node11"><a xlink:href="block__producing__node__application_8cpp.html" target="_top" xlink:title=" ">
<polygon fill="white" stroke="#666666" points="741,-41 625,-41 625,0 741,0 741,-41"/>
<text text-anchor="start" x="633" y="-29" font-family="Helvetica,sans-Serif" font-size="10.00">src/application/impl</text>
<text text-anchor="start" x="633" y="-18" font-family="Helvetica,sans-Serif" font-size="10.00">/block_producing_node</text>
<text text-anchor="middle" x="683" y="-7" font-family="Helvetica,sans-Serif" font-size="10.00">_application.cpp</text>
</a>
</g>
</g>
<!-- Node9&#45;&gt;Node11 -->
<g id="edge10" class="edge">
<title>Node9&#45;&gt;Node11</title>
<path fill="none" stroke="#63b8ff" d="M683,-65.36C683,-57.24 683,-48.7 683,-41.33"/>
<polygon fill="#63b8ff" stroke="#63b8ff" points="679.5,-65.28 683,-75.28 686.5,-65.28 679.5,-65.28"/>
</g>
<!-- Node14 -->
<g id="node14" class="node">
<title>Node14</title>
<g id="a_node14"><a xlink:href="syncing__node__application_8hpp.html" target="_top" xlink:title=" ">
<polygon fill="white" stroke="#666666" points="447.5,-184 298.5,-184 298.5,-154 447.5,-154 447.5,-184"/>
<text text-anchor="start" x="306.5" y="-172" font-family="Helvetica,sans-Serif" font-size="10.00">src/application/impl</text>
<text text-anchor="middle" x="373" y="-161" font-family="Helvetica,sans-Serif" font-size="10.00">/syncing_node_application.hpp</text>
</a>
</g>
</g>
<!-- Node13&#45;&gt;Node14 -->
<g id="edge13" class="edge">
<title>Node13&#45;&gt;Node14</title>
<path fill="none" stroke="#63b8ff" d="M373.6,-208.39C373.47,-200.13 373.33,-191.28 373.22,-184.16"/>
<polygon fill="#63b8ff" stroke="#63b8ff" points="370.1,-208.34 373.75,-218.28 377.1,-208.23 370.1,-208.34"/>
</g>
<!-- Node16 -->
<g id="node16" class="node">
<title>Node16</title>
<g id="a_node16"><a xlink:href="syncing__node__injector_8cpp.html" target="_top" xlink:title=" ">
<polygon fill="white" stroke="#666666" points="280.5,-184 179.5,-184 179.5,-154 280.5,-154 280.5,-184"/>
<text text-anchor="start" x="187.5" y="-172" font-family="Helvetica,sans-Serif" font-size="10.00">src/injector/syncing</text>
<text text-anchor="middle" x="230" y="-161" font-family="Helvetica,sans-Serif" font-size="10.00">_node_injector.cpp</text>
</a>
</g>
</g>
<!-- Node13&#45;&gt;Node16 -->
<g id="edge15" class="edge">
<title>Node13&#45;&gt;Node16</title>
<path fill="none" stroke="#63b8ff" d="M331.23,-214.99C309.11,-205.16 282.57,-193.36 262.21,-184.31"/>
<polygon fill="#63b8ff" stroke="#63b8ff" points="329.74,-218.16 340.3,-219.02 332.58,-211.76 329.74,-218.16"/>
</g>
<!-- Node15 -->
<g id="node15" class="node">
<title>Node15</title>
<g id="a_node15"><a xlink:href="syncing__node__application_8cpp.html" target="_top" xlink:title=" ">
<polygon fill="white" stroke="#666666" points="443.5,-112.5 294.5,-112.5 294.5,-82.5 443.5,-82.5 443.5,-112.5"/>
<text text-anchor="start" x="302.5" y="-100.5" font-family="Helvetica,sans-Serif" font-size="10.00">src/application/impl</text>
<text text-anchor="middle" x="369" y="-89.5" font-family="Helvetica,sans-Serif" font-size="10.00">/syncing_node_application.cpp</text>
</a>
</g>
</g>
<!-- Node14&#45;&gt;Node15 -->
<g id="edge14" class="edge">
<title>Node14&#45;&gt;Node15</title>
<path fill="none" stroke="#63b8ff" d="M371.52,-142.26C370.95,-132.33 370.32,-121.36 369.83,-112.88"/>
<polygon fill="#63b8ff" stroke="#63b8ff" points="368.02,-142.31 372.08,-152.09 375,-141.9 368.02,-142.31"/>
</g>
<!-- Node17&#45;&gt;Node8 -->
<g id="edge20" class="edge">
<title>Node17&#45;&gt;Node8</title>
<path fill="none" stroke="#63b8ff" d="M564.51,-210.39C558.73,-201.59 552.35,-191.86 547.3,-184.16"/>
<polygon fill="#63b8ff" stroke="#63b8ff" points="561.44,-212.09 569.85,-218.53 567.29,-208.25 561.44,-212.09"/>
</g>
<!-- Node18 -->
<g id="node18" class="node">
<title>Node18</title>
<g id="a_node18"><a xlink:href="validating__node__application_8hpp.html" target="_top" xlink:title=" ">
<polygon fill="white" stroke="#666666" points="916.5,-184 759.5,-184 759.5,-154 916.5,-154 916.5,-184"/>
<text text-anchor="start" x="767.5" y="-172" font-family="Helvetica,sans-Serif" font-size="10.00">src/application/impl</text>
<text text-anchor="middle" x="838" y="-161" font-family="Helvetica,sans-Serif" font-size="10.00">/validating_node_application.hpp</text>
</a>
</g>
</g>
<!-- Node17&#45;&gt;Node18 -->
<g id="edge17" class="edge">
<title>Node17&#45;&gt;Node18</title>
<path fill="none" stroke="#63b8ff" d="M645.78,-217.68C687.12,-207.43 739.96,-194.32 779.78,-184.44"/>
<polygon fill="#63b8ff" stroke="#63b8ff" points="645.05,-214.26 636.18,-220.06 646.73,-221.05 645.05,-214.26"/>
</g>
<!-- Node20 -->
<g id="node20" class="node">
<title>Node20</title>
<g id="a_node20"><a xlink:href="validating__node__injector_8cpp.html" target="_top" xlink:title=" ">
<polygon fill="white" stroke="#666666" points="737.5,-184 628.5,-184 628.5,-154 737.5,-154 737.5,-184"/>
<text text-anchor="start" x="636.5" y="-172" font-family="Helvetica,sans-Serif" font-size="10.00">src/injector/validating</text>
<text text-anchor="middle" x="683" y="-161" font-family="Helvetica,sans-Serif" font-size="10.00">_node_injector.cpp</text>
</a>
</g>
</g>
<!-- Node17&#45;&gt;Node20 -->
<g id="edge21" class="edge">
<title>Node17&#45;&gt;Node20</title>
<path fill="none" stroke="#63b8ff" d="M612.77,-213.64C628.13,-204.09 646.06,-192.95 659.96,-184.31"/>
<polygon fill="#63b8ff" stroke="#63b8ff" points="611.05,-210.59 604.4,-218.84 614.74,-216.53 611.05,-210.59"/>
</g>
<!-- Node18&#45;&gt;Node10 -->
<g id="edge18" class="edge">
<title>Node18&#45;&gt;Node10</title>
<path fill="none" stroke="#63b8ff" d="M892.79,-148.43C905.96,-141 918.39,-131.07 926,-118 935.17,-102.25 932.09,-94.18 926,-77 919.2,-57.83 902.65,-40.44 891.62,-30.42"/>
<polygon fill="#63b8ff" stroke="#63b8ff" points="891.3,-145.26 884,-152.94 894.5,-151.49 891.3,-145.26"/>
</g>
<!-- Node19 -->
<g id="node19" class="node">
<title>Node19</title>
<g id="a_node19"><a xlink:href="validating__node__application_8cpp.html" target="_top" xlink:title=" ">
<polygon fill="white" stroke="#666666" points="916.5,-112.5 759.5,-112.5 759.5,-82.5 916.5,-82.5 916.5,-112.5"/>
<text text-anchor="start" x="767.5" y="-100.5" font-family="Helvetica,sans-Serif" font-size="10.00">src/application/impl</text>
<text text-anchor="middle" x="838" y="-89.5" font-family="Helvetica,sans-Serif" font-size="10.00">/validating_node_application.cpp</text>
</a>
</g>
</g>
<!-- Node18&#45;&gt;Node19 -->
<g id="edge19" class="edge">
<title>Node18&#45;&gt;Node19</title>
<path fill="none" stroke="#63b8ff" d="M838,-142.26C838,-132.33 838,-121.36 838,-112.88"/>
<polygon fill="#63b8ff" stroke="#63b8ff" points="834.5,-142.09 838,-152.09 841.5,-142.09 834.5,-142.09"/>
</g>
</g>
</svg>
        <g id="navigator" transform="translate(0 0)" fill="#404254">
                <rect fill="#f2f5e9" fill-opacity="0.5" stroke="#606060" stroke-width=".5" x="0" y="0" width="60" height="60"/>
                <use id="zoomplus" xlink:href="#zoomPlus" x="17" y="9" onmousedown="handleZoom(evt,'in')"/>
                <use id="zoomminus" xlink:href="#zoomMin" x="42" y="9" onmousedown="handleZoom(evt,'out')"/>
                <use id="reset" xlink:href="#resetDef" x="30" y="36" onmousedown="handleReset()"/>
                <g id="arrowUp" xlink:href="#dirArrow" transform="translate(30 24)" onmousedown="handlePan(0,-1)">
                  <use xlink:href="#rim" fill="#404040">
                        <set attributeName="fill" to="#808080" begin="arrowUp.mouseover" end="arrowUp.mouseout"/>
                  </use>
                  <path fill="none" stroke="white" stroke-width="1.5" d="M0,-3.0v7 M-2.5,-0.5L0,-3.0L2.5,-0.5"/>
                </g>
                <g id="arrowRight" xlink:href="#dirArrow" transform="rotate(90) translate(36 -43)" onmousedown="handlePan(1,0)">
                  <use xlink:href="#rim" fill="#404040">
                        <set attributeName="fill" to="#808080" begin="arrowRight.mouseover" end="arrowRight.mouseout"/>
                  </use>
                  <path fill="none" stroke="white" stroke-width="1.5" d="M0,-3.0v7 M-2.5,-0.5L0,-3.0L2.5,-0.5"/>
                </g>
                <g id="arrowDown" xlink:href="#dirArrow" transform="rotate(180) translate(-30 -48)" onmousedown="handlePan(0,1)">
                  <use xlink:href="#rim" fill="#404040">
                        <set attributeName="fill" to="#808080" begin="arrowDown.mouseover" end="arrowDown.mouseout"/>
                  </use>
                  <path fill="none" stroke="white" stroke-width="1.5" d="M0,-3.0v7 M-2.5,-0.5L0,-3.0L2.5,-0.5"/>
                </g>
                <g id="arrowLeft" xlink:href="#dirArrow" transform="rotate(270) translate(-36 17)" onmousedown="handlePan(-1,0)">
                  <use xlink:href="#rim" fill="#404040">
                        <set attributeName="fill" to="#808080" begin="arrowLeft.mouseover" end="arrowLeft.mouseout"/>
                  </use>
                  <path fill="none" stroke="white" stroke-width="1.5" d="M0,-3.0v7 M-2.5,-0.5L0,-3.0L2.5,-0.5"/>
                </g>
        </g>
        <svg viewBox="0 0 15 15" width="100%" height="30px" preserveAspectRatio="xMaxYMin meet">
         <g id="arrow_out" transform="scale(0.3 0.3)">
          <a xlink:href="scale__message__read__writer_8hpp__dep__incl_org.svg" target="_base">
           <rect id="button" ry="5" rx="5" y="6" x="6" height="38" width="38"
                fill="#f2f5e9" fill-opacity="0.5" stroke="#606060" stroke-width="1.0"/>
           <path id="arrow"
             d="M 11.500037,31.436501 C 11.940474,20.09759 22.043105,11.32322 32.158766,21.979434 L 37.068811,17.246167 C 37.068811,17.246167 37.088388,32 37.088388,32 L 22.160133,31.978069 C 22.160133,31.978069 26.997745,27.140456 26.997745,27.140456 C 18.528582,18.264221 13.291696,25.230495 11.500037,31.436501 z"
             style="fill:#404040;"/>
          </a>
         </g>
        </svg>
</svg>
