<?xml version="1.0" encoding="UTF-8" standalone="no"?>
<!DOCTYPE svg PUBLIC "-//W3C//DTD SVG 1.1//EN"
 "http://www.w3.org/Graphics/SVG/1.1/DTD/svg11.dtd">
<!-- Generated by graphviz version 7.0.5 (20221223.1930)
 -->
<!-- Title: src/scale/scale_encoder_stream.cpp Pages: 1 -->
<!--zoomable 412 -->
<svg id="main" version="1.1" xmlns="http://www.w3.org/2000/svg" xmlns:xlink="http://www.w3.org/1999/xlink" xml:space="preserve" onload="init(evt)">
<style type="text/css"><![CDATA[
.edge:hover path { stroke: red; }
.edge:hover polygon { stroke: red; fill: red; }
]]></style>
<script type="text/javascript"><![CDATA[
var edges = document.getElementsByTagName('g');
if (edges && edges.length) {
  for (var i=0;i<edges.length;i++) {
    if (edges[i].id.substr(0,4)=='edge') {
      edges[i].setAttribute('class','edge');
    }
  }
}
]]></script>
        <defs>
                <circle id="rim" cx="0" cy="0" r="7"/>
                <circle id="rim2" cx="0" cy="0" r="3.5"/>
                <g id="zoomPlus">
                        <use xlink:href="#rim" fill="#404040">
                                <set attributeName="fill" to="#808080" begin="zoomplus.mouseover" end="zoomplus.mouseout"/>
                        </use>
                        <path d="M-4,0h8M0,-4v8" fill="none" stroke="white" stroke-width="1.5" pointer-events="none"/>
                </g>
                <g id="zoomMin">
                        <use xlink:href="#rim" fill="#404040">
                                <set attributeName="fill" to="#808080" begin="zoomminus.mouseover" end="zoomminus.mouseout"/>
                        </use>
                        <path d="M-4,0h8" fill="none" stroke="white" stroke-width="1.5" pointer-events="none"/>
                </g>
                <g id="dirArrow">
                        <path fill="none" stroke="white" stroke-width="1.5" d="M0,-3.0v7 M-2.5,-0.5L0,-3.0L2.5,-0.5"/>
                </g>
               <g id="resetDef">
                       <use xlink:href="#rim2" fill="#404040">
                               <set attributeName="fill" to="#808080" begin="reset.mouseover" end="reset.mouseout"/>
                       </use>
               </g>
        </defs>

<script type="text/javascript">
var viewWidth = 1318;
var viewHeight = 412;
var sectionId = 'dynsection-0';
</script>
<script xlink:href="svgpan.js"/>
<svg id="graph" class="graph">
<g id="viewport">
<title>src/scale/scale_encoder_stream.cpp</title>
<!-- Node1 -->
<g id="node1" class="node">
<title>Node1</title>
<g id="a_node1"><a xlink:title=" ">
<polygon fill="#999999" stroke="#666666" points="1062,-404 940,-404 940,-374 1062,-374 1062,-404"/>
<text text-anchor="start" x="948" y="-392" font-family="Helvetica,sans-Serif" font-size="10.00">src/scale/scale_encoder</text>
<text text-anchor="middle" x="1001" y="-381" font-family="Helvetica,sans-Serif" font-size="10.00">_stream.cpp</text>
</a>
</g>
</g>
<!-- Node2 -->
<g id="node2" class="node">
<title>Node2</title>
<g id="a_node2"><a xlink:href="scale__encoder__stream_8hpp.html" target="_top" xlink:title=" ">
<polygon fill="white" stroke="#666666" points="877,-338 771,-338 771,-308 877,-308 877,-338"/>
<text text-anchor="start" x="779" y="-326" font-family="Helvetica,sans-Serif" font-size="10.00">scale/scale_encoder</text>
<text text-anchor="middle" x="824" y="-315" font-family="Helvetica,sans-Serif" font-size="10.00">_stream.hpp</text>
</a>
</g>
</g>
<!-- Node1&#45;&gt;Node2 -->
<g id="edge1" class="edge">
<title>Node1&#45;&gt;Node2</title>
<path fill="none" stroke="#63b8ff" d="M961.28,-373.64C935.63,-364.36 902.04,-352.22 874.51,-342.26"/>
<polygon fill="#63b8ff" stroke="#63b8ff" points="875.91,-339.05 865.32,-338.94 873.53,-345.63 875.91,-339.05"/>
</g>
<!-- Node12 -->
<g id="node12" class="node">
<title>Node12</title>
<g id="a_node12"><a xlink:href="outcome__throw_8hpp.html" target="_top" xlink:title=" ">
<polygon fill="white" stroke="#666666" points="704.5,-206 579.5,-206 579.5,-187 704.5,-187 704.5,-206"/>
<text text-anchor="middle" x="642" y="-194" font-family="Helvetica,sans-Serif" font-size="10.00">base/outcome_throw.hpp</text>
</a>
</g>
</g>
<!-- Node1&#45;&gt;Node12 -->
<g id="edge34" class="edge">
<title>Node1&#45;&gt;Node12</title>
<path fill="none" stroke="#63b8ff" d="M939.73,-381.56C890.31,-374.87 819.77,-361.92 762,-338 712.45,-317.49 692.19,-315.62 661,-272 649.48,-255.89 644.93,-233.44 643.14,-217.4"/>
<polygon fill="#63b8ff" stroke="#63b8ff" points="646.65,-217.34 642.34,-207.66 639.67,-217.92 646.65,-217.34"/>
</g>
<!-- Node16 -->
<g id="node16" class="node">
<title>Node16</title>
<g id="a_node16"><a xlink:href="scale__error_8hpp.html" target="_top" xlink:title=" ">
<polygon fill="white" stroke="#666666" points="1186.5,-206 1077.5,-206 1077.5,-187 1186.5,-187 1186.5,-206"/>
<text text-anchor="middle" x="1132" y="-194" font-family="Helvetica,sans-Serif" font-size="10.00">scale/scale_error.hpp</text>
</a>
</g>
</g>
<!-- Node1&#45;&gt;Node16 -->
<g id="edge35" class="edge">
<title>Node1&#45;&gt;Node16</title>
<path fill="none" stroke="#63b8ff" d="M1012.31,-373.67C1029.2,-352.07 1061.73,-309.69 1087,-272 1099.46,-253.42 1112.56,-231.41 1121.39,-216.15"/>
<polygon fill="#63b8ff" stroke="#63b8ff" points="1124.3,-218.11 1126.24,-207.7 1118.23,-214.63 1124.3,-218.11"/>
</g>
<!-- Node19 -->
<g id="node19" class="node">
<title>Node19</title>
<g id="a_node19"><a xlink:href="scale_2types_8hpp.html" target="_top" xlink:title=" ">
<polygon fill="white" stroke="#666666" points="1192,-145.5 1108,-145.5 1108,-126.5 1192,-126.5 1192,-145.5"/>
<text text-anchor="middle" x="1150" y="-133.5" font-family="Helvetica,sans-Serif" font-size="10.00">scale/types.hpp</text>
</a>
</g>
</g>
<!-- Node1&#45;&gt;Node19 -->
<g id="edge36" class="edge">
<title>Node1&#45;&gt;Node19</title>
<path fill="none" stroke="#63b8ff" d="M1027.55,-373.53C1072.66,-347.21 1162.59,-286.65 1196,-206 1204.15,-186.32 1187.51,-166.34 1172.02,-152.98"/>
<polygon fill="#63b8ff" stroke="#63b8ff" points="1174.4,-150.4 1164.41,-146.88 1170.02,-155.86 1174.4,-150.4"/>
</g>
<!-- Node3 -->
<g id="node3" class="node">
<title>Node3</title>
<g id="a_node3"><a xlink:title=" ">
<polygon fill="#e0e0e0" stroke="#999999" points="712.5,-266.5 669.5,-266.5 669.5,-247.5 712.5,-247.5 712.5,-266.5"/>
<text text-anchor="middle" x="691" y="-254.5" font-family="Helvetica,sans-Serif" font-size="10.00">deque</text>
</a>
</g>
</g>
<!-- Node2&#45;&gt;Node3 -->
<g id="edge2" class="edge">
<title>Node2&#45;&gt;Node3</title>
<path fill="none" stroke="#63b8ff" d="M794.15,-307.64C772.01,-296.98 741.98,-282.53 720.03,-271.97"/>
<polygon fill="#63b8ff" stroke="#63b8ff" points="721.57,-268.82 711.04,-267.64 718.53,-275.13 721.57,-268.82"/>
</g>
<!-- Node4 -->
<g id="node4" class="node">
<title>Node4</title>
<g id="a_node4"><a xlink:title=" ">
<polygon fill="#e0e0e0" stroke="#999999" points="825.5,-266.5 730.5,-266.5 730.5,-247.5 825.5,-247.5 825.5,-266.5"/>
<text text-anchor="middle" x="778" y="-254.5" font-family="Helvetica,sans-Serif" font-size="10.00">boost/optional.hpp</text>
</a>
</g>
</g>
<!-- Node2&#45;&gt;Node4 -->
<g id="edge3" class="edge">
<title>Node2&#45;&gt;Node4</title>
<path fill="none" stroke="#63b8ff" d="M813.79,-307.8C807.04,-298.41 798.14,-286.02 790.9,-275.95"/>
<polygon fill="#63b8ff" stroke="#63b8ff" points="793.92,-274.15 785.24,-268.07 788.23,-278.24 793.92,-274.15"/>
</g>
<!-- Node5 -->
<g id="node5" class="node">
<title>Node5</title>
<g id="a_node5"><a xlink:title=" ">
<polygon fill="#e0e0e0" stroke="#999999" points="896.5,-266.5 843.5,-266.5 843.5,-247.5 896.5,-247.5 896.5,-266.5"/>
<text text-anchor="middle" x="870" y="-254.5" font-family="Helvetica,sans-Serif" font-size="10.00">gsl/span</text>
</a>
</g>
</g>
<!-- Node2&#45;&gt;Node5 -->
<g id="edge4" class="edge">
<title>Node2&#45;&gt;Node5</title>
<path fill="none" stroke="#63b8ff" d="M834.21,-307.8C840.96,-298.41 849.86,-286.02 857.1,-275.95"/>
<polygon fill="#63b8ff" stroke="#63b8ff" points="859.77,-278.24 862.76,-268.07 854.08,-274.15 859.77,-278.24"/>
</g>
<!-- Node6 -->
<g id="node6" class="node">
<title>Node6</title>
<g id="a_node6"><a xlink:href="fixed__witdh__integer_8hpp.html" target="_top" xlink:title=" ">
<polygon fill="white" stroke="#666666" points="543,-272 445,-272 445,-242 543,-242 543,-272"/>
<text text-anchor="start" x="453" y="-260" font-family="Helvetica,sans-Serif" font-size="10.00">scale/detail/fixed</text>
<text text-anchor="middle" x="494" y="-249" font-family="Helvetica,sans-Serif" font-size="10.00">_witdh_integer.hpp</text>
</a>
</g>
</g>
<!-- Node2&#45;&gt;Node6 -->
<g id="edge5" class="edge">
<title>Node2&#45;&gt;Node6</title>
<path fill="none" stroke="#63b8ff" d="M770.61,-311.65C711.45,-300.17 616.25,-281.71 554.41,-269.72"/>
<polygon fill="#63b8ff" stroke="#63b8ff" points="555.24,-266.31 544.75,-267.84 553.9,-273.18 555.24,-266.31"/>
</g>
<!-- Node21 -->
<g id="node21" class="node">
<title>Node21</title>
<g id="a_node21"><a xlink:href="tuple_8hpp.html" target="_top" xlink:title=" ">
<polygon fill="white" stroke="#666666" points="250,-266.5 142,-266.5 142,-247.5 250,-247.5 250,-266.5"/>
<text text-anchor="middle" x="196" y="-254.5" font-family="Helvetica,sans-Serif" font-size="10.00">scale/detail/tuple.hpp</text>
</a>
</g>
</g>
<!-- Node2&#45;&gt;Node21 -->
<g id="edge22" class="edge">
<title>Node2&#45;&gt;Node21</title>
<path fill="none" stroke="#63b8ff" d="M770.73,-316.57C656.14,-304.89 386.52,-277.42 261.62,-264.69"/>
<polygon fill="#63b8ff" stroke="#63b8ff" points="262.17,-261.23 251.87,-263.69 261.46,-268.19 262.17,-261.23"/>
</g>
<!-- Node23 -->
<g id="node23" class="node">
<title>Node23</title>
<g id="a_node23"><a xlink:href="variant_8hpp.html" target="_top" xlink:title=" ">
<polygon fill="white" stroke="#666666" points="1078,-266.5 962,-266.5 962,-247.5 1078,-247.5 1078,-266.5"/>
<text text-anchor="middle" x="1020" y="-254.5" font-family="Helvetica,sans-Serif" font-size="10.00">scale/detail/variant.hpp</text>
</a>
</g>
</g>
<!-- Node2&#45;&gt;Node23 -->
<g id="edge24" class="edge">
<title>Node2&#45;&gt;Node23</title>
<path fill="none" stroke="#63b8ff" d="M867.99,-307.64C902.11,-296.49 948.94,-281.2 981.58,-270.55"/>
<polygon fill="#63b8ff" stroke="#63b8ff" points="982.62,-273.89 991.04,-267.46 980.45,-267.23 982.62,-273.89"/>
</g>
<!-- Node29 -->
<g id="node29" class="node">
<title>Node29</title>
<g id="a_node29"><a xlink:title=" ">
<polygon fill="#e0e0e0" stroke="#999999" points="943.5,-266.5 914.5,-266.5 914.5,-247.5 943.5,-247.5 943.5,-266.5"/>
<text text-anchor="middle" x="929" y="-254.5" font-family="Helvetica,sans-Serif" font-size="10.00">list</text>
</a>
</g>
</g>
<!-- Node2&#45;&gt;Node29 -->
<g id="edge33" class="edge">
<title>Node2&#45;&gt;Node29</title>
<path fill="none" stroke="#63b8ff" d="M847.56,-307.64C864.65,-297.22 887.68,-283.19 904.89,-272.7"/>
<polygon fill="#63b8ff" stroke="#63b8ff" points="906.25,-275.97 912.97,-267.77 902.6,-269.99 906.25,-275.97"/>
</g>
<!-- Node7 -->
<g id="node7" class="node">
<title>Node7</title>
<g id="a_node7"><a xlink:title=" ">
<polygon fill="#e0e0e0" stroke="#999999" points="522,-206 466,-206 466,-187 522,-187 522,-206"/>
<text text-anchor="middle" x="494" y="-194" font-family="Helvetica,sans-Serif" font-size="10.00">algorithm</text>
</a>
</g>
</g>
<!-- Node6&#45;&gt;Node7 -->
<g id="edge6" class="edge">
<title>Node6&#45;&gt;Node7</title>
<path fill="none" stroke="#63b8ff" d="M494,-241.54C494,-234.34 494,-225.53 494,-217.68"/>
<polygon fill="#63b8ff" stroke="#63b8ff" points="497.5,-217.69 494,-207.69 490.5,-217.69 497.5,-217.69"/>
</g>
<!-- Node8 -->
<g id="node8" class="node">
<title>Node8</title>
<g id="a_node8"><a xlink:title=" ">
<polygon fill="#e0e0e0" stroke="#999999" points="94,-206 56,-206 56,-187 94,-187 94,-206"/>
<text text-anchor="middle" x="75" y="-194" font-family="Helvetica,sans-Serif" font-size="10.00">array</text>
</a>
</g>
</g>
<!-- Node6&#45;&gt;Node8 -->
<g id="edge7" class="edge">
<title>Node6&#45;&gt;Node8</title>
<path fill="none" stroke="#63b8ff" d="M444.79,-252.37C372.34,-246.44 232.66,-232.81 105.55,-206.22"/>
<polygon fill="#63b8ff" stroke="#63b8ff" points="106.46,-202.84 95.95,-204.18 105.01,-209.69 106.46,-202.84"/>
</g>
<!-- Node9 -->
<g id="node9" class="node">
<title>Node9</title>
<g id="a_node9"><a xlink:title=" ">
<polygon fill="#e0e0e0" stroke="#999999" points="158,-206 112,-206 112,-187 158,-187 158,-206"/>
<text text-anchor="middle" x="135" y="-194" font-family="Helvetica,sans-Serif" font-size="10.00">cstdint</text>
</a>
</g>
</g>
<!-- Node6&#45;&gt;Node9 -->
<g id="edge8" class="edge">
<title>Node6&#45;&gt;Node9</title>
<path fill="none" stroke="#63b8ff" d="M444.68,-250.14C382.66,-242.41 272.76,-227.48 169.6,-206.35"/>
<polygon fill="#63b8ff" stroke="#63b8ff" points="170.33,-202.93 159.83,-204.32 168.91,-209.78 170.33,-202.93"/>
</g>
<!-- Node10 -->
<g id="node10" class="node">
<title>Node10</title>
<g id="a_node10"><a xlink:title=" ">
<polygon fill="#e0e0e0" stroke="#999999" points="816,-79.5 772,-79.5 772,-60.5 816,-60.5 816,-79.5"/>
<text text-anchor="middle" x="794" y="-67.5" font-family="Helvetica,sans-Serif" font-size="10.00">vector</text>
</a>
</g>
</g>
<!-- Node6&#45;&gt;Node10 -->
<g id="edge9" class="edge">
<title>Node6&#45;&gt;Node10</title>
<path fill="none" stroke="#63b8ff" d="M505.97,-241.75C513.73,-232.07 523.72,-218.75 531,-206 551.34,-170.37 535.45,-147.22 567,-121 596.13,-96.79 704.6,-81.2 760.39,-74.61"/>
<polygon fill="#63b8ff" stroke="#63b8ff" points="760.73,-78.09 770.26,-73.47 759.93,-71.14 760.73,-78.09"/>
</g>
<!-- Node11 -->
<g id="node11" class="node">
<title>Node11</title>
<g id="a_node11"><a xlink:title=" ">
<polygon fill="#e0e0e0" stroke="#999999" points="312,-206 176,-206 176,-187 312,-187 312,-206"/>
<text text-anchor="middle" x="244" y="-194" font-family="Helvetica,sans-Serif" font-size="10.00">boost/endian/arithmetic.hpp</text>
</a>
</g>
</g>
<!-- Node6&#45;&gt;Node11 -->
<g id="edge10" class="edge">
<title>Node6&#45;&gt;Node11</title>
<path fill="none" stroke="#63b8ff" d="M444.61,-244.44C400.75,-234.18 337.01,-219.27 293.22,-209.02"/>
<polygon fill="#63b8ff" stroke="#63b8ff" points="294.26,-205.67 283.73,-206.8 292.67,-212.48 294.26,-205.67"/>
</g>
<!-- Node6&#45;&gt;Node12 -->
<g id="edge11" class="edge">
<title>Node6&#45;&gt;Node12</title>
<path fill="none" stroke="#63b8ff" d="M530.58,-241.54C554.67,-232.02 585.94,-219.66 609.22,-210.46"/>
<polygon fill="#63b8ff" stroke="#63b8ff" points="610.2,-213.83 618.21,-206.9 607.63,-207.32 610.2,-213.83"/>
</g>
<!-- Node15 -->
<g id="node15" class="node">
<title>Node15</title>
<g id="a_node15"><a xlink:href="unreachable_8hpp.html" target="_top" xlink:title=" ">
<polygon fill="white" stroke="#666666" points="447.5,-206 330.5,-206 330.5,-187 447.5,-187 447.5,-206"/>
<text text-anchor="middle" x="389" y="-194" font-family="Helvetica,sans-Serif" font-size="10.00">macro/unreachable.hpp</text>
</a>
</g>
</g>
<!-- Node6&#45;&gt;Node15 -->
<g id="edge14" class="edge">
<title>Node6&#45;&gt;Node15</title>
<path fill="none" stroke="#63b8ff" d="M468.04,-241.54C451.8,-232.49 430.97,-220.88 414.76,-211.85"/>
<polygon fill="#63b8ff" stroke="#63b8ff" points="416.64,-208.89 406.2,-207.08 413.23,-215.01 416.64,-208.89"/>
</g>
<!-- Node6&#45;&gt;Node16 -->
<g id="edge15" class="edge">
<title>Node6&#45;&gt;Node16</title>
<path fill="none" stroke="#63b8ff" d="M543.47,-251.83C666.73,-241.44 983.06,-214.63 1065.83,-206.25"/>
<polygon fill="#63b8ff" stroke="#63b8ff" points="1065.96,-209.76 1075.54,-205.23 1065.23,-202.8 1065.96,-209.76"/>
</g>
<!-- Node13 -->
<g id="node13" class="node">
<title>Node13</title>
<g id="a_node13"><a xlink:title=" ">
<polygon fill="#e0e0e0" stroke="#999999" points="836,-151 726,-151 726,-121 836,-121 836,-151"/>
<text text-anchor="start" x="734" y="-139" font-family="Helvetica,sans-Serif" font-size="10.00">boost/system/system</text>
<text text-anchor="middle" x="781" y="-128" font-family="Helvetica,sans-Serif" font-size="10.00">_error.hpp</text>
</a>
</g>
</g>
<!-- Node12&#45;&gt;Node13 -->
<g id="edge12" class="edge">
<title>Node12&#45;&gt;Node13</title>
<path fill="none" stroke="#63b8ff" d="M663.11,-186.62C682.43,-178.48 711.65,-166.19 736.16,-155.87"/>
<polygon fill="#63b8ff" stroke="#63b8ff" points="737.44,-159.13 745.3,-152.03 734.72,-152.68 737.44,-159.13"/>
</g>
<!-- Node14 -->
<g id="node14" class="node">
<title>Node14</title>
<g id="a_node14"><a xlink:title=" ">
<polygon fill="#e0e0e0" stroke="#999999" points="708,-145.5 576,-145.5 576,-126.5 708,-126.5 708,-145.5"/>
<text text-anchor="middle" x="642" y="-133.5" font-family="Helvetica,sans-Serif" font-size="10.00">boost/throw_exception.hpp</text>
</a>
</g>
</g>
<!-- Node12&#45;&gt;Node14 -->
<g id="edge13" class="edge">
<title>Node12&#45;&gt;Node14</title>
<path fill="none" stroke="#63b8ff" d="M642,-186.87C642,-179 642,-167.1 642,-156.89"/>
<polygon fill="#63b8ff" stroke="#63b8ff" points="645.5,-157.18 642,-147.18 638.5,-157.18 645.5,-157.18"/>
</g>
<!-- Node17 -->
<g id="node17" class="node">
<title>Node17</title>
<g id="a_node17"><a xlink:href="outcome_8hpp.html" target="_top" xlink:title=" ">
<polygon fill="white" stroke="#666666" points="1295.5,-79.5 1182.5,-79.5 1182.5,-60.5 1295.5,-60.5 1295.5,-79.5"/>
<text text-anchor="middle" x="1239" y="-67.5" font-family="Helvetica,sans-Serif" font-size="10.00">outcome/outcome.hpp</text>
</a>
</g>
</g>
<!-- Node16&#45;&gt;Node17 -->
<g id="edge16" class="edge">
<title>Node16&#45;&gt;Node17</title>
<path fill="none" stroke="#63b8ff" d="M1151.66,-186.57C1166.75,-178.91 1187.27,-166.64 1201,-151 1216.59,-133.25 1227.15,-107.99 1233.11,-90.63"/>
<polygon fill="#63b8ff" stroke="#63b8ff" points="1236.39,-91.87 1236.11,-81.27 1229.72,-89.73 1236.39,-91.87"/>
</g>
<!-- Node16&#45;&gt;Node19 -->
<g id="edge18" class="edge">
<title>Node16&#45;&gt;Node19</title>
<path fill="none" stroke="#63b8ff" d="M1134.66,-186.87C1137.1,-178.92 1140.82,-166.83 1143.98,-156.55"/>
<polygon fill="#63b8ff" stroke="#63b8ff" points="1147.29,-157.7 1146.89,-147.11 1140.6,-155.64 1147.29,-157.7"/>
</g>
<!-- Node18 -->
<g id="node18" class="node">
<title>Node18</title>
<g id="a_node18"><a xlink:title=" ">
<polygon fill="#e0e0e0" stroke="#999999" points="1309.5,-19 1168.5,-19 1168.5,0 1309.5,0 1309.5,-19"/>
<text text-anchor="middle" x="1239" y="-7" font-family="Helvetica,sans-Serif" font-size="10.00">libp2p/outcome/outcome.hpp</text>
</a>
</g>
</g>
<!-- Node17&#45;&gt;Node18 -->
<g id="edge17" class="edge">
<title>Node17&#45;&gt;Node18</title>
<path fill="none" stroke="#63b8ff" d="M1239,-60.37C1239,-52.5 1239,-40.6 1239,-30.39"/>
<polygon fill="#63b8ff" stroke="#63b8ff" points="1242.5,-30.68 1239,-20.68 1235.5,-30.68 1242.5,-30.68"/>
</g>
<!-- Node19&#45;&gt;Node10 -->
<g id="edge19" class="edge">
<title>Node19&#45;&gt;Node10</title>
<path fill="none" stroke="#63b8ff" d="M1119.39,-126.03C1112.7,-124.23 1105.64,-122.45 1099,-121 1001.12,-99.61 883.77,-82.82 827.42,-75.3"/>
<polygon fill="#63b8ff" stroke="#63b8ff" points="828.22,-71.88 817.85,-74.04 827.3,-78.82 828.22,-71.88"/>
</g>
<!-- Node19&#45;&gt;Node17 -->
<g id="edge21" class="edge">
<title>Node19&#45;&gt;Node17</title>
<path fill="none" stroke="#63b8ff" d="M1162.38,-126.1C1176.59,-115.88 1200.17,-98.93 1217.42,-86.52"/>
<polygon fill="#63b8ff" stroke="#63b8ff" points="1219.43,-89.39 1225.5,-80.71 1215.34,-83.7 1219.43,-89.39"/>
</g>
<!-- Node20 -->
<g id="node20" class="node">
<title>Node20</title>
<g id="a_node20"><a xlink:title=" ">
<polygon fill="#e0e0e0" stroke="#999999" points="1164,-85 1060,-85 1060,-55 1164,-55 1164,-85"/>
<text text-anchor="start" x="1068" y="-73" font-family="Helvetica,sans-Serif" font-size="10.00">boost/multiprecision</text>
<text text-anchor="middle" x="1112" y="-62" font-family="Helvetica,sans-Serif" font-size="10.00">/cpp_int.hpp</text>
</a>
</g>
</g>
<!-- Node19&#45;&gt;Node20 -->
<g id="edge20" class="edge">
<title>Node19&#45;&gt;Node20</title>
<path fill="none" stroke="#63b8ff" d="M1144.72,-126.1C1139.96,-118.08 1132.74,-105.93 1126.29,-95.07"/>
<polygon fill="#63b8ff" stroke="#63b8ff" points="1129.34,-93.35 1121.22,-86.53 1123.32,-96.92 1129.34,-93.35"/>
</g>
<!-- Node22 -->
<g id="node22" class="node">
<title>Node22</title>
<g id="a_node22"><a xlink:title=" ">
<polygon fill="#e0e0e0" stroke="#999999" points="38,-206 0,-206 0,-187 38,-187 38,-206"/>
<text text-anchor="middle" x="19" y="-194" font-family="Helvetica,sans-Serif" font-size="10.00">tuple</text>
</a>
</g>
</g>
<!-- Node21&#45;&gt;Node22 -->
<g id="edge23" class="edge">
<title>Node21&#45;&gt;Node22</title>
<path fill="none" stroke="#63b8ff" d="M169.12,-247.12C136.8,-236.43 82.7,-218.55 49.04,-207.43"/>
<polygon fill="#63b8ff" stroke="#63b8ff" points="50.49,-204.22 39.9,-204.41 48.3,-210.87 50.49,-204.22"/>
</g>
<!-- Node23&#45;&gt;Node12 -->
<g id="edge27" class="edge">
<title>Node23&#45;&gt;Node12</title>
<path fill="none" stroke="#63b8ff" d="M979.33,-247.07C970.66,-245.29 961.54,-243.5 953,-242 872.17,-227.79 778.92,-214.91 715.77,-206.71"/>
<polygon fill="#63b8ff" stroke="#63b8ff" points="716.6,-203.28 706.23,-205.47 715.7,-210.23 716.6,-203.28"/>
</g>
<!-- Node23&#45;&gt;Node16 -->
<g id="edge32" class="edge">
<title>Node23&#45;&gt;Node16</title>
<path fill="none" stroke="#63b8ff" d="M1037.01,-247.12C1055.02,-237.71 1083.71,-222.72 1104.85,-211.68"/>
<polygon fill="#63b8ff" stroke="#63b8ff" points="1106.24,-214.9 1113.49,-207.17 1103,-208.7 1106.24,-214.9"/>
</g>
<!-- Node23&#45;&gt;Node17 -->
<g id="edge26" class="edge">
<title>Node23&#45;&gt;Node17</title>
<path fill="none" stroke="#63b8ff" d="M1078.18,-251.37C1115.4,-245.75 1162.76,-233.34 1196,-206 1230.59,-177.55 1237.73,-121.29 1238.97,-91.16"/>
<polygon fill="#63b8ff" stroke="#63b8ff" points="1242.46,-91.26 1239.17,-81.19 1235.47,-91.12 1242.46,-91.26"/>
</g>
<!-- Node24 -->
<g id="node24" class="node">
<title>Node24</title>
<g id="a_node24"><a xlink:title=" ">
<polygon fill="#e0e0e0" stroke="#999999" points="1059.5,-206 968.5,-206 968.5,-187 1059.5,-187 1059.5,-206"/>
<text text-anchor="middle" x="1014" y="-194" font-family="Helvetica,sans-Serif" font-size="10.00">boost/variant.hpp</text>
</a>
</g>
</g>
<!-- Node23&#45;&gt;Node24 -->
<g id="edge25" class="edge">
<title>Node23&#45;&gt;Node24</title>
<path fill="none" stroke="#63b8ff" d="M1019.11,-247.37C1018.31,-239.5 1017.09,-227.6 1016.04,-217.39"/>
<polygon fill="#63b8ff" stroke="#63b8ff" points="1019.55,-217.26 1015.04,-207.67 1012.58,-217.98 1019.55,-217.26"/>
</g>
<!-- Node25 -->
<g id="node25" class="node">
<title>Node25</title>
<g id="a_node25"><a xlink:href="visitor_8hpp.html" target="_top" xlink:title=" ">
<polygon fill="white" stroke="#666666" points="950.5,-206 865.5,-206 865.5,-187 950.5,-187 950.5,-206"/>
<text text-anchor="middle" x="908" y="-194" font-family="Helvetica,sans-Serif" font-size="10.00">base/visitor.hpp</text>
</a>
</g>
</g>
<!-- Node23&#45;&gt;Node25 -->
<g id="edge28" class="edge">
<title>Node23&#45;&gt;Node25</title>
<path fill="none" stroke="#63b8ff" d="M1002.99,-247.12C984.98,-237.71 956.29,-222.72 935.15,-211.68"/>
<polygon fill="#63b8ff" stroke="#63b8ff" points="937,-208.7 926.51,-207.17 933.76,-214.9 937,-208.7"/>
</g>
<!-- Node26 -->
<g id="node26" class="node">
<title>Node26</title>
<g id="a_node26"><a xlink:title=" ">
<polygon fill="#e0e0e0" stroke="#999999" points="1032,-145.5 970,-145.5 970,-126.5 1032,-126.5 1032,-145.5"/>
<text text-anchor="middle" x="1001" y="-133.5" font-family="Helvetica,sans-Serif" font-size="10.00">type_traits</text>
</a>
</g>
</g>
<!-- Node25&#45;&gt;Node26 -->
<g id="edge29" class="edge">
<title>Node25&#45;&gt;Node26</title>
<path fill="none" stroke="#63b8ff" d="M922.12,-186.62C936.74,-177.42 959.82,-162.91 977.24,-151.94"/>
<polygon fill="#63b8ff" stroke="#63b8ff" points="978.86,-155.06 985.46,-146.77 975.13,-149.14 978.86,-155.06"/>
</g>
<!-- Node27 -->
<g id="node27" class="node">
<title>Node27</title>
<g id="a_node27"><a xlink:title=" ">
<polygon fill="#e0e0e0" stroke="#999999" points="1089.5,-145.5 1050.5,-145.5 1050.5,-126.5 1089.5,-126.5 1089.5,-145.5"/>
<text text-anchor="middle" x="1070" y="-133.5" font-family="Helvetica,sans-Serif" font-size="10.00">utility</text>
</a>
</g>
</g>
<!-- Node25&#45;&gt;Node27 -->
<g id="edge30" class="edge">
<title>Node25&#45;&gt;Node27</title>
<path fill="none" stroke="#63b8ff" d="M938.51,-186.5C965.73,-178.19 1006.49,-165.04 1041,-151 1041.35,-150.86 1041.7,-150.71 1042.05,-150.57"/>
<polygon fill="#63b8ff" stroke="#63b8ff" points="1043.29,-153.85 1050.99,-146.57 1040.43,-147.46 1043.29,-153.85"/>
</g>
<!-- Node28 -->
<g id="node28" class="node">
<title>Node28</title>
<g id="a_node28"><a xlink:title=" ">
<polygon fill="#e0e0e0" stroke="#999999" points="952,-151 854,-151 854,-121 952,-121 952,-151"/>
<text text-anchor="start" x="862" y="-139" font-family="Helvetica,sans-Serif" font-size="10.00">boost/variant/apply</text>
<text text-anchor="middle" x="903" y="-128" font-family="Helvetica,sans-Serif" font-size="10.00">_visitor.hpp</text>
</a>
</g>
</g>
<!-- Node25&#45;&gt;Node28 -->
<g id="edge31" class="edge">
<title>Node25&#45;&gt;Node28</title>
<path fill="none" stroke="#63b8ff" d="M907.26,-186.87C906.71,-180.4 905.92,-171.2 905.18,-162.45"/>
<polygon fill="#63b8ff" stroke="#63b8ff" points="908.67,-162.29 904.34,-152.62 901.7,-162.88 908.67,-162.29"/>
</g>
</g>
</svg>
        <g id="navigator" transform="translate(0 0)" fill="#404254">
                <rect fill="#f2f5e9" fill-opacity="0.5" stroke="#606060" stroke-width=".5" x="0" y="0" width="60" height="60"/>
                <use id="zoomplus" xlink:href="#zoomPlus" x="17" y="9" onmousedown="handleZoom(evt,'in')"/>
                <use id="zoomminus" xlink:href="#zoomMin" x="42" y="9" onmousedown="handleZoom(evt,'out')"/>
                <use id="reset" xlink:href="#resetDef" x="30" y="36" onmousedown="handleReset()"/>
                <g id="arrowUp" xlink:href="#dirArrow" transform="translate(30 24)" onmousedown="handlePan(0,-1)">
                  <use xlink:href="#rim" fill="#404040">
                        <set attributeName="fill" to="#808080" begin="arrowUp.mouseover" end="arrowUp.mouseout"/>
                  </use>
                  <path fill="none" stroke="white" stroke-width="1.5" d="M0,-3.0v7 M-2.5,-0.5L0,-3.0L2.5,-0.5"/>
                </g>
                <g id="arrowRight" xlink:href="#dirArrow" transform="rotate(90) translate(36 -43)" onmousedown="handlePan(1,0)">
                  <use xlink:href="#rim" fill="#404040">
                        <set attributeName="fill" to="#808080" begin="arrowRight.mouseover" end="arrowRight.mouseout"/>
                  </use>
                  <path fill="none" stroke="white" stroke-width="1.5" d="M0,-3.0v7 M-2.5,-0.5L0,-3.0L2.5,-0.5"/>
                </g>
                <g id="arrowDown" xlink:href="#dirArrow" transform="rotate(180) translate(-30 -48)" onmousedown="handlePan(0,1)">
                  <use xlink:href="#rim" fill="#404040">
                        <set attributeName="fill" to="#808080" begin="arrowDown.mouseover" end="arrowDown.mouseout"/>
                  </use>
                  <path fill="none" stroke="white" stroke-width="1.5" d="M0,-3.0v7 M-2.5,-0.5L0,-3.0L2.5,-0.5"/>
                </g>
                <g id="arrowLeft" xlink:href="#dirArrow" transform="rotate(270) translate(-36 17)" onmousedown="handlePan(-1,0)">
                  <use xlink:href="#rim" fill="#404040">
                        <set attributeName="fill" to="#808080" begin="arrowLeft.mouseover" end="arrowLeft.mouseout"/>
                  </use>
                  <path fill="none" stroke="white" stroke-width="1.5" d="M0,-3.0v7 M-2.5,-0.5L0,-3.0L2.5,-0.5"/>
                </g>
        </g>
        <svg viewBox="0 0 15 15" width="100%" height="30px" preserveAspectRatio="xMaxYMin meet">
         <g id="arrow_out" transform="scale(0.3 0.3)">
          <a xlink:href="scale__encoder__stream_8cpp__incl_org.svg" target="_base">
           <rect id="button" ry="5" rx="5" y="6" x="6" height="38" width="38"
                fill="#f2f5e9" fill-opacity="0.5" stroke="#606060" stroke-width="1.0"/>
           <path id="arrow"
             d="M 11.500037,31.436501 C 11.940474,20.09759 22.043105,11.32322 32.158766,21.979434 L 37.068811,17.246167 C 37.068811,17.246167 37.088388,32 37.088388,32 L 22.160133,31.978069 C 22.160133,31.978069 26.997745,27.140456 26.997745,27.140456 C 18.528582,18.264221 13.291696,25.230495 11.500037,31.436501 z"
             style="fill:#404040;"/>
          </a>
         </g>
        </svg>
</svg>
