<?xml version="1.0" encoding="UTF-8" standalone="no"?>
<!DOCTYPE svg PUBLIC "-//W3C//DTD SVG 1.1//EN"
 "http://www.w3.org/Graphics/SVG/1.1/DTD/svg11.dtd">
<!-- Generated by graphviz version 7.0.5 (20221223.1930)
 -->
<!-- Title: src/primitives/scheduled_change.hpp Pages: 1 -->
<svg width="529pt" height="434pt"
 viewBox="0.00 0.00 528.50 434.00" xmlns="http://www.w3.org/2000/svg" xmlns:xlink="http://www.w3.org/1999/xlink">
<g id="graph0" class="graph" transform="scale(1 1) rotate(0) translate(4 430)">
<title>src/primitives/scheduled_change.hpp</title>
<!-- Node1 -->
<g id="node1" class="node">
<title>Node1</title>
<g id="a_node1"><a xlink:title=" ">
<polygon fill="#999999" stroke="#666666" points="162,-426 40,-426 40,-396 162,-396 162,-426"/>
<text text-anchor="start" x="48" y="-414" font-family="Helvetica,sans-Serif" font-size="10.00">src/primitives/scheduled</text>
<text text-anchor="middle" x="101" y="-403" font-family="Helvetica,sans-Serif" font-size="10.00">_change.hpp</text>
</a>
</g>
</g>
<!-- Node2 -->
<g id="node2" class="node">
<title>Node2</title>
<g id="a_node2"><a xlink:href="authority_8hpp.html" target="_top" xlink:title=" ">
<polygon fill="white" stroke="#666666" points="116,-360 0,-360 0,-341 116,-341 116,-360"/>
<text text-anchor="middle" x="58" y="-348" font-family="Helvetica,sans-Serif" font-size="10.00">primitives/authority.hpp</text>
</a>
</g>
</g>
<!-- Node1&#45;&gt;Node2 -->
<g id="edge1" class="edge">
<title>Node1&#45;&gt;Node2</title>
<path fill="none" stroke="#63b8ff" d="M90.37,-395.54C84.57,-387.65 77.34,-377.81 71.18,-369.44"/>
<polygon fill="#63b8ff" stroke="#63b8ff" points="74.02,-367.38 65.27,-361.39 68.38,-371.53 74.02,-367.38"/>
</g>
<!-- Node5 -->
<g id="node5" class="node">
<title>Node5</title>
<g id="a_node5"><a xlink:href="src_2primitives_2common_8hpp.html" target="_top" xlink:title=" ">
<polygon fill="white" stroke="#666666" points="212.5,-305 95.5,-305 95.5,-286 212.5,-286 212.5,-305"/>
<text text-anchor="middle" x="154" y="-293" font-family="Helvetica,sans-Serif" font-size="10.00">primitives/common.hpp</text>
</a>
</g>
</g>
<!-- Node1&#45;&gt;Node5 -->
<g id="edge18" class="edge">
<title>Node1&#45;&gt;Node5</title>
<path fill="none" stroke="#63b8ff" d="M108,-395.59C112.83,-385.62 119.36,-372.03 125,-360 132,-345.04 139.77,-328.01 145.5,-315.36"/>
<polygon fill="#63b8ff" stroke="#63b8ff" points="148.56,-317.09 149.49,-306.53 142.18,-314.2 148.56,-317.09"/>
</g>
<!-- Node3 -->
<g id="node3" class="node">
<title>Node3</title>
<g id="a_node3"><a xlink:title=" ">
<polygon fill="#e0e0e0" stroke="#999999" points="49,-244.5 3,-244.5 3,-225.5 49,-225.5 49,-244.5"/>
<text text-anchor="middle" x="26" y="-232.5" font-family="Helvetica,sans-Serif" font-size="10.00">cstdint</text>
</a>
</g>
</g>
<!-- Node2&#45;&gt;Node3 -->
<g id="edge2" class="edge">
<title>Node2&#45;&gt;Node3</title>
<path fill="none" stroke="#63b8ff" d="M42.87,-340.73C31.19,-332.99 15.88,-320.55 9,-305 1.83,-288.8 8.05,-269.06 14.9,-254.85"/>
<polygon fill="#63b8ff" stroke="#63b8ff" points="17.93,-256.62 19.57,-246.15 11.76,-253.31 17.93,-256.62"/>
</g>
<!-- Node4 -->
<g id="node4" class="node">
<title>Node4</title>
<g id="a_node4"><a xlink:title=" ">
<polygon fill="#e0e0e0" stroke="#999999" points="77.5,-305 18.5,-305 18.5,-286 77.5,-286 77.5,-305"/>
<text text-anchor="middle" x="48" y="-293" font-family="Helvetica,sans-Serif" font-size="10.00">functional</text>
</a>
</g>
</g>
<!-- Node2&#45;&gt;Node4 -->
<g id="edge3" class="edge">
<title>Node2&#45;&gt;Node4</title>
<path fill="none" stroke="#63b8ff" d="M56.35,-340.75C55.11,-334.19 53.37,-324.95 51.79,-316.6"/>
<polygon fill="#63b8ff" stroke="#63b8ff" points="55.26,-316.11 49.97,-306.93 48.38,-317.4 55.26,-316.11"/>
</g>
<!-- Node2&#45;&gt;Node5 -->
<g id="edge4" class="edge">
<title>Node2&#45;&gt;Node5</title>
<path fill="none" stroke="#63b8ff" d="M74.29,-340.51C88.99,-332.39 110.89,-320.3 128.02,-310.85"/>
<polygon fill="#63b8ff" stroke="#63b8ff" points="129.57,-313.99 136.63,-306.09 126.18,-307.86 129.57,-313.99"/>
</g>
<!-- Node5&#45;&gt;Node3 -->
<g id="edge5" class="edge">
<title>Node5&#45;&gt;Node3</title>
<path fill="none" stroke="#63b8ff" d="M134.56,-285.62C113.7,-276.08 80.29,-260.81 56.04,-249.73"/>
<polygon fill="#63b8ff" stroke="#63b8ff" points="57.55,-246.57 47,-245.6 54.64,-252.94 57.55,-246.57"/>
</g>
<!-- Node6 -->
<g id="node6" class="node">
<title>Node6</title>
<g id="a_node6"><a xlink:title=" ">
<polygon fill="#e0e0e0" stroke="#999999" points="187,-244.5 85,-244.5 85,-225.5 187,-225.5 187,-244.5"/>
<text text-anchor="middle" x="136" y="-232.5" font-family="Helvetica,sans-Serif" font-size="10.00">boost/operators.hpp</text>
</a>
</g>
</g>
<!-- Node5&#45;&gt;Node6 -->
<g id="edge6" class="edge">
<title>Node5&#45;&gt;Node6</title>
<path fill="none" stroke="#63b8ff" d="M151.34,-285.87C148.9,-277.92 145.18,-265.83 142.02,-255.55"/>
<polygon fill="#63b8ff" stroke="#63b8ff" points="145.4,-254.64 139.11,-246.11 138.71,-256.7 145.4,-254.64"/>
</g>
<!-- Node7 -->
<g id="node7" class="node">
<title>Node7</title>
<g id="a_node7"><a xlink:href="session__key_8hpp.html" target="_top" xlink:title=" ">
<polygon fill="white" stroke="#666666" points="300.5,-250 205.5,-250 205.5,-220 300.5,-220 300.5,-250"/>
<text text-anchor="start" x="213.5" y="-238" font-family="Helvetica,sans-Serif" font-size="10.00">primitives/session</text>
<text text-anchor="middle" x="253" y="-227" font-family="Helvetica,sans-Serif" font-size="10.00">_key.hpp</text>
</a>
</g>
</g>
<!-- Node5&#45;&gt;Node7 -->
<g id="edge7" class="edge">
<title>Node5&#45;&gt;Node7</title>
<path fill="none" stroke="#63b8ff" d="M169.04,-285.62C182.24,-277.81 201.94,-266.17 218.94,-256.13"/>
<polygon fill="#63b8ff" stroke="#63b8ff" points="220.43,-259.31 227.26,-251.21 216.87,-253.28 220.43,-259.31"/>
</g>
<!-- Node8 -->
<g id="node8" class="node">
<title>Node8</title>
<g id="a_node8"><a xlink:href="blob_8hpp.html" target="_top" xlink:title=" ">
<polygon fill="white" stroke="#666666" points="291.5,-184 214.5,-184 214.5,-165 291.5,-165 291.5,-184"/>
<text text-anchor="middle" x="253" y="-172" font-family="Helvetica,sans-Serif" font-size="10.00">base/blob.hpp</text>
</a>
</g>
</g>
<!-- Node7&#45;&gt;Node8 -->
<g id="edge8" class="edge">
<title>Node7&#45;&gt;Node8</title>
<path fill="none" stroke="#63b8ff" d="M253,-219.54C253,-212.34 253,-203.53 253,-195.68"/>
<polygon fill="#63b8ff" stroke="#63b8ff" points="256.5,-195.69 253,-185.69 249.5,-195.69 256.5,-195.69"/>
</g>
<!-- Node9 -->
<g id="node9" class="node">
<title>Node9</title>
<g id="a_node9"><a xlink:title=" ">
<polygon fill="#e0e0e0" stroke="#999999" points="109,-129 71,-129 71,-110 109,-110 109,-129"/>
<text text-anchor="middle" x="90" y="-117" font-family="Helvetica,sans-Serif" font-size="10.00">array</text>
</a>
</g>
</g>
<!-- Node8&#45;&gt;Node9 -->
<g id="edge9" class="edge">
<title>Node8&#45;&gt;Node9</title>
<path fill="none" stroke="#63b8ff" d="M225.35,-164.51C196.03,-154.98 149.89,-139.97 119.79,-130.19"/>
<polygon fill="#63b8ff" stroke="#63b8ff" points="121.13,-126.94 110.54,-127.18 118.97,-133.6 121.13,-126.94"/>
</g>
<!-- Node10 -->
<g id="node10" class="node">
<title>Node10</title>
<g id="a_node10"><a xlink:title=" ">
<polygon fill="#e0e0e0" stroke="#999999" points="255,-129 127,-129 127,-110 255,-110 255,-129"/>
<text text-anchor="middle" x="191" y="-117" font-family="Helvetica,sans-Serif" font-size="10.00">boost/functional/hash.hpp</text>
</a>
</g>
</g>
<!-- Node8&#45;&gt;Node10 -->
<g id="edge10" class="edge">
<title>Node8&#45;&gt;Node10</title>
<path fill="none" stroke="#63b8ff" d="M242.48,-164.51C233.61,-156.93 220.69,-145.88 210.01,-136.75"/>
<polygon fill="#63b8ff" stroke="#63b8ff" points="212.39,-134.18 202.51,-130.34 207.84,-139.5 212.39,-134.18"/>
</g>
<!-- Node11 -->
<g id="node11" class="node">
<title>Node11</title>
<g id="a_node11"><a xlink:href="hexutil_8hpp.html" target="_top" xlink:title=" ">
<polygon fill="white" stroke="#666666" points="359,-129 273,-129 273,-110 359,-110 359,-129"/>
<text text-anchor="middle" x="316" y="-117" font-family="Helvetica,sans-Serif" font-size="10.00">base/hexutil.hpp</text>
</a>
</g>
</g>
<!-- Node8&#45;&gt;Node11 -->
<g id="edge11" class="edge">
<title>Node8&#45;&gt;Node11</title>
<path fill="none" stroke="#63b8ff" d="M263.69,-164.51C272.7,-156.93 285.83,-145.88 296.68,-136.75"/>
<polygon fill="#63b8ff" stroke="#63b8ff" points="298.91,-139.45 304.31,-130.33 294.41,-134.09 298.91,-139.45"/>
</g>
<!-- Node17 -->
<g id="node17" class="node">
<title>Node17</title>
<g id="a_node17"><a xlink:title=" ">
<polygon fill="#e0e0e0" stroke="#999999" points="431,-129 377,-129 377,-110 431,-110 431,-129"/>
<text text-anchor="middle" x="404" y="-117" font-family="Helvetica,sans-Serif" font-size="10.00">iostream</text>
</a>
</g>
</g>
<!-- Node8&#45;&gt;Node17 -->
<g id="edge17" class="edge">
<title>Node8&#45;&gt;Node17</title>
<path fill="none" stroke="#63b8ff" d="M278.62,-164.51C303.09,-155.92 340.24,-142.88 367.75,-133.22"/>
<polygon fill="#63b8ff" stroke="#63b8ff" points="368.81,-136.56 377.08,-129.95 366.49,-129.96 368.81,-136.56"/>
</g>
<!-- Node12 -->
<g id="node12" class="node">
<title>Node12</title>
<g id="a_node12"><a xlink:title=" ">
<polygon fill="#e0e0e0" stroke="#999999" points="242,-74 176,-74 176,-55 242,-55 242,-74"/>
<text text-anchor="middle" x="209" y="-62" font-family="Helvetica,sans-Serif" font-size="10.00">string_view</text>
</a>
</g>
</g>
<!-- Node11&#45;&gt;Node12 -->
<g id="edge12" class="edge">
<title>Node11&#45;&gt;Node12</title>
<path fill="none" stroke="#63b8ff" d="M297.85,-109.51C281.22,-101.27 256.36,-88.96 237.15,-79.45"/>
<polygon fill="#63b8ff" stroke="#63b8ff" points="238.75,-76.33 228.24,-75.03 235.65,-82.6 238.75,-76.33"/>
</g>
<!-- Node13 -->
<g id="node13" class="node">
<title>Node13</title>
<g id="a_node13"><a xlink:title=" ">
<polygon fill="#e0e0e0" stroke="#999999" points="304,-74 260,-74 260,-55 304,-55 304,-74"/>
<text text-anchor="middle" x="282" y="-62" font-family="Helvetica,sans-Serif" font-size="10.00">vector</text>
</a>
</g>
</g>
<!-- Node11&#45;&gt;Node13 -->
<g id="edge13" class="edge">
<title>Node11&#45;&gt;Node13</title>
<path fill="none" stroke="#63b8ff" d="M310.39,-109.75C305.88,-102.73 299.41,-92.64 293.79,-83.87"/>
<polygon fill="#63b8ff" stroke="#63b8ff" points="296.9,-82.24 288.55,-75.72 291.01,-86.02 296.9,-82.24"/>
</g>
<!-- Node14 -->
<g id="node14" class="node">
<title>Node14</title>
<g id="a_node14"><a xlink:title=" ">
<polygon fill="#e0e0e0" stroke="#999999" points="375.5,-74 322.5,-74 322.5,-55 375.5,-55 375.5,-74"/>
<text text-anchor="middle" x="349" y="-62" font-family="Helvetica,sans-Serif" font-size="10.00">gsl/span</text>
</a>
</g>
</g>
<!-- Node11&#45;&gt;Node14 -->
<g id="edge14" class="edge">
<title>Node11&#45;&gt;Node14</title>
<path fill="none" stroke="#63b8ff" d="M321.45,-109.75C325.77,-102.81 331.96,-92.86 337.38,-84.16"/>
<polygon fill="#63b8ff" stroke="#63b8ff" points="340.32,-86.07 342.63,-75.73 334.38,-82.37 340.32,-86.07"/>
</g>
<!-- Node15 -->
<g id="node15" class="node">
<title>Node15</title>
<g id="a_node15"><a xlink:href="outcome_8hpp.html" target="_top" xlink:title=" ">
<polygon fill="white" stroke="#666666" points="506.5,-74 393.5,-74 393.5,-55 506.5,-55 506.5,-74"/>
<text text-anchor="middle" x="450" y="-62" font-family="Helvetica,sans-Serif" font-size="10.00">outcome/outcome.hpp</text>
</a>
</g>
</g>
<!-- Node11&#45;&gt;Node15 -->
<g id="edge15" class="edge">
<title>Node11&#45;&gt;Node15</title>
<path fill="none" stroke="#63b8ff" d="M338.73,-109.51C360.23,-101.01 392.73,-88.15 417.07,-78.53"/>
<polygon fill="#63b8ff" stroke="#63b8ff" points="418.19,-81.85 426.2,-74.91 415.61,-75.34 418.19,-81.85"/>
</g>
<!-- Node16 -->
<g id="node16" class="node">
<title>Node16</title>
<g id="a_node16"><a xlink:title=" ">
<polygon fill="#e0e0e0" stroke="#999999" points="520.5,-19 379.5,-19 379.5,0 520.5,0 520.5,-19"/>
<text text-anchor="middle" x="450" y="-7" font-family="Helvetica,sans-Serif" font-size="10.00">libp2p/outcome/outcome.hpp</text>
</a>
</g>
</g>
<!-- Node15&#45;&gt;Node16 -->
<g id="edge16" class="edge">
<title>Node15&#45;&gt;Node16</title>
<path fill="none" stroke="#63b8ff" d="M450,-54.75C450,-48.27 450,-39.16 450,-30.9"/>
<polygon fill="#63b8ff" stroke="#63b8ff" points="453.5,-30.96 450,-20.96 446.5,-30.96 453.5,-30.96"/>
</g>
</g>
</svg>
