<?xml version="1.0" encoding="UTF-8" standalone="no"?>
<!DOCTYPE svg PUBLIC "-//W3C//DTD SVG 1.1//EN"
 "http://www.w3.org/Graphics/SVG/1.1/DTD/svg11.dtd">
<!-- Generated by graphviz version 7.0.5 (20221223.1930)
 -->
<!-- Title: src/crypto/secp256k1/secp256k1_provider_impl.hpp Pages: 1 -->
<svg width="1004pt" height="390pt"
 viewBox="0.00 0.00 1004.00 390.00" xmlns="http://www.w3.org/2000/svg" xmlns:xlink="http://www.w3.org/1999/xlink">
<g id="graph0" class="graph" transform="scale(1 1) rotate(0) translate(4 386)">
<title>src/crypto/secp256k1/secp256k1_provider_impl.hpp</title>
<!-- Node1 -->
<g id="node1" class="node">
<title>Node1</title>
<g id="a_node1"><a xlink:title=" ">
<polygon fill="#999999" stroke="#666666" points="357,-382 209,-382 209,-352 357,-352 357,-382"/>
<text text-anchor="start" x="217" y="-370" font-family="Helvetica,sans-Serif" font-size="10.00">src/crypto/secp256k1</text>
<text text-anchor="middle" x="283" y="-359" font-family="Helvetica,sans-Serif" font-size="10.00">/secp256k1_provider_impl.hpp</text>
</a>
</g>
</g>
<!-- Node2 -->
<g id="node2" class="node">
<title>Node2</title>
<g id="a_node2"><a xlink:href="secp256k1__provider__impl_8cpp.html" target="_top" xlink:title=" ">
<polygon fill="white" stroke="#666666" points="148,-316 0,-316 0,-286 148,-286 148,-316"/>
<text text-anchor="start" x="8" y="-304" font-family="Helvetica,sans-Serif" font-size="10.00">src/crypto/secp256k1</text>
<text text-anchor="middle" x="74" y="-293" font-family="Helvetica,sans-Serif" font-size="10.00">/secp256k1_provider_impl.cpp</text>
</a>
</g>
</g>
<!-- Node1&#45;&gt;Node2 -->
<g id="edge1" class="edge">
<title>Node1&#45;&gt;Node2</title>
<path fill="none" stroke="#63b8ff" d="M225.04,-348.25C192.25,-338.21 151.78,-325.82 120.99,-316.39"/>
<polygon fill="#63b8ff" stroke="#63b8ff" points="223.8,-351.53 234.39,-351.11 225.85,-344.84 223.8,-351.53"/>
</g>
<!-- Node3 -->
<g id="node3" class="node">
<title>Node3</title>
<g id="a_node3"><a xlink:href="crypto__extension_8cpp.html" target="_top" xlink:title=" ">
<polygon fill="white" stroke="#666666" points="276,-316 166,-316 166,-286 276,-286 276,-316"/>
<text text-anchor="start" x="174" y="-304" font-family="Helvetica,sans-Serif" font-size="10.00">src/extensions/impl</text>
<text text-anchor="middle" x="221" y="-293" font-family="Helvetica,sans-Serif" font-size="10.00">/crypto_extension.cpp</text>
</a>
</g>
</g>
<!-- Node1&#45;&gt;Node3 -->
<g id="edge2" class="edge">
<title>Node1&#45;&gt;Node3</title>
<path fill="none" stroke="#63b8ff" d="M261.5,-343.81C252.62,-334.64 242.58,-324.28 234.72,-316.16"/>
<polygon fill="#63b8ff" stroke="#63b8ff" points="258.72,-345.96 268.19,-350.71 263.74,-341.09 258.72,-345.96"/>
</g>
<!-- Node4 -->
<g id="node4" class="node">
<title>Node4</title>
<g id="a_node4"><a xlink:href="extension__impl_8cpp.html" target="_top" xlink:title=" ">
<polygon fill="white" stroke="#666666" points="396,-316 294,-316 294,-286 396,-286 396,-316"/>
<text text-anchor="start" x="302" y="-304" font-family="Helvetica,sans-Serif" font-size="10.00">src/extensions/impl</text>
<text text-anchor="middle" x="345" y="-293" font-family="Helvetica,sans-Serif" font-size="10.00">/extension_impl.cpp</text>
</a>
</g>
</g>
<!-- Node1&#45;&gt;Node4 -->
<g id="edge3" class="edge">
<title>Node1&#45;&gt;Node4</title>
<path fill="none" stroke="#63b8ff" d="M304.5,-343.81C313.38,-334.64 323.42,-324.28 331.28,-316.16"/>
<polygon fill="#63b8ff" stroke="#63b8ff" points="302.26,-341.09 297.81,-350.71 307.28,-345.96 302.26,-341.09"/>
</g>
<!-- Node5 -->
<g id="node5" class="node">
<title>Node5</title>
<g id="a_node5"><a xlink:href="application__injector_8hpp.html" target="_top" xlink:title=" ">
<polygon fill="white" stroke="#666666" points="528,-316 414,-316 414,-286 528,-286 528,-316"/>
<text text-anchor="start" x="422" y="-304" font-family="Helvetica,sans-Serif" font-size="10.00">src/injector/application</text>
<text text-anchor="middle" x="471" y="-293" font-family="Helvetica,sans-Serif" font-size="10.00">_injector.hpp</text>
</a>
</g>
</g>
<!-- Node1&#45;&gt;Node5 -->
<g id="edge4" class="edge">
<title>Node1&#45;&gt;Node5</title>
<path fill="none" stroke="#63b8ff" d="M336.06,-347.94C365.35,-337.97 401.23,-325.75 428.63,-316.43"/>
<polygon fill="#63b8ff" stroke="#63b8ff" points="334.96,-344.61 326.62,-351.15 337.22,-351.24 334.96,-344.61"/>
</g>
<!-- Node6 -->
<g id="node6" class="node">
<title>Node6</title>
<g id="a_node6"><a xlink:href="application__injector_8cpp.html" target="_top" xlink:title=" ">
<polygon fill="white" stroke="#666666" points="362,-250 248,-250 248,-220 362,-220 362,-250"/>
<text text-anchor="start" x="256" y="-238" font-family="Helvetica,sans-Serif" font-size="10.00">src/injector/application</text>
<text text-anchor="middle" x="305" y="-227" font-family="Helvetica,sans-Serif" font-size="10.00">_injector.cpp</text>
</a>
</g>
</g>
<!-- Node5&#45;&gt;Node6 -->
<g id="edge5" class="edge">
<title>Node5&#45;&gt;Node6</title>
<path fill="none" stroke="#63b8ff" d="M423.12,-281.54C397.45,-271.64 366.29,-259.63 342.42,-250.43"/>
<polygon fill="#63b8ff" stroke="#63b8ff" points="421.74,-284.76 432.33,-285.09 424.26,-278.23 421.74,-284.76"/>
</g>
<!-- Node7 -->
<g id="node7" class="node">
<title>Node7</title>
<g id="a_node7"><a xlink:href="block__producing__node__injector_8hpp.html" target="_top" xlink:title=" ">
<polygon fill="white" stroke="#666666" points="667.5,-184 522.5,-184 522.5,-154 667.5,-154 667.5,-184"/>
<text text-anchor="start" x="530.5" y="-172" font-family="Helvetica,sans-Serif" font-size="10.00">src/injector/block</text>
<text text-anchor="middle" x="595" y="-161" font-family="Helvetica,sans-Serif" font-size="10.00">_producing_node_injector.hpp</text>
</a>
</g>
</g>
<!-- Node5&#45;&gt;Node7 -->
<g id="edge6" class="edge">
<title>Node5&#45;&gt;Node7</title>
<path fill="none" stroke="#63b8ff" d="M492.39,-277.57C517.86,-250.87 559.65,-207.06 581.19,-184.47"/>
<polygon fill="#63b8ff" stroke="#63b8ff" points="490.16,-274.84 485.79,-284.5 495.22,-279.68 490.16,-274.84"/>
</g>
<!-- Node12 -->
<g id="node12" class="node">
<title>Node12</title>
<g id="a_node12"><a xlink:href="syncing__node__injector_8hpp.html" target="_top" xlink:title=" ">
<polygon fill="white" stroke="#666666" points="481.5,-250 380.5,-250 380.5,-220 481.5,-220 481.5,-250"/>
<text text-anchor="start" x="388.5" y="-238" font-family="Helvetica,sans-Serif" font-size="10.00">src/injector/syncing</text>
<text text-anchor="middle" x="431" y="-227" font-family="Helvetica,sans-Serif" font-size="10.00">_node_injector.hpp</text>
</a>
</g>
</g>
<!-- Node5&#45;&gt;Node12 -->
<g id="edge11" class="edge">
<title>Node5&#45;&gt;Node12</title>
<path fill="none" stroke="#63b8ff" d="M456.07,-276.11C450.61,-267.38 444.61,-257.78 439.85,-250.16"/>
<polygon fill="#63b8ff" stroke="#63b8ff" points="453.05,-277.89 461.32,-284.51 458.99,-274.18 453.05,-277.89"/>
</g>
<!-- Node16 -->
<g id="node16" class="node">
<title>Node16</title>
<g id="a_node16"><a xlink:href="validating__node__injector_8hpp.html" target="_top" xlink:title=" ">
<polygon fill="white" stroke="#666666" points="691.5,-250 582.5,-250 582.5,-220 691.5,-220 691.5,-250"/>
<text text-anchor="start" x="590.5" y="-238" font-family="Helvetica,sans-Serif" font-size="10.00">src/injector/validating</text>
<text text-anchor="middle" x="637" y="-227" font-family="Helvetica,sans-Serif" font-size="10.00">_node_injector.hpp</text>
</a>
</g>
</g>
<!-- Node5&#45;&gt;Node16 -->
<g id="edge15" class="edge">
<title>Node5&#45;&gt;Node16</title>
<path fill="none" stroke="#63b8ff" d="M518.88,-281.54C544.55,-271.64 575.71,-259.63 599.58,-250.43"/>
<polygon fill="#63b8ff" stroke="#63b8ff" points="517.74,-278.23 509.67,-285.09 520.26,-284.76 517.74,-278.23"/>
</g>
<!-- Node8 -->
<g id="node8" class="node">
<title>Node8</title>
<g id="a_node8"><a xlink:href="block__producing__node__application_8hpp.html" target="_top" xlink:title=" ">
<polygon fill="white" stroke="#666666" points="798,-118 682,-118 682,-77 798,-77 798,-118"/>
<text text-anchor="start" x="690" y="-106" font-family="Helvetica,sans-Serif" font-size="10.00">src/application/impl</text>
<text text-anchor="start" x="690" y="-95" font-family="Helvetica,sans-Serif" font-size="10.00">/block_producing_node</text>
<text text-anchor="middle" x="740" y="-84" font-family="Helvetica,sans-Serif" font-size="10.00">_application.hpp</text>
</a>
</g>
</g>
<!-- Node7&#45;&gt;Node8 -->
<g id="edge7" class="edge">
<title>Node7&#45;&gt;Node8</title>
<path fill="none" stroke="#63b8ff" d="M635.23,-148.72C654.91,-139.28 678.59,-127.94 698.45,-118.42"/>
<polygon fill="#63b8ff" stroke="#63b8ff" points="633.91,-145.47 626.41,-152.95 636.94,-151.78 633.91,-145.47"/>
</g>
<!-- Node11 -->
<g id="node11" class="node">
<title>Node11</title>
<g id="a_node11"><a xlink:href="block__producing__node__injector_8cpp.html" target="_top" xlink:title=" ">
<polygon fill="white" stroke="#666666" points="663.5,-112.5 518.5,-112.5 518.5,-82.5 663.5,-82.5 663.5,-112.5"/>
<text text-anchor="start" x="526.5" y="-100.5" font-family="Helvetica,sans-Serif" font-size="10.00">src/injector/block</text>
<text text-anchor="middle" x="591" y="-89.5" font-family="Helvetica,sans-Serif" font-size="10.00">_producing_node_injector.cpp</text>
</a>
</g>
</g>
<!-- Node7&#45;&gt;Node11 -->
<g id="edge10" class="edge">
<title>Node7&#45;&gt;Node11</title>
<path fill="none" stroke="#63b8ff" d="M593.52,-142.26C592.95,-132.33 592.32,-121.36 591.83,-112.88"/>
<polygon fill="#63b8ff" stroke="#63b8ff" points="590.02,-142.31 594.08,-152.09 597,-141.9 590.02,-142.31"/>
</g>
<!-- Node9 -->
<g id="node9" class="node">
<title>Node9</title>
<g id="a_node9"><a xlink:href="app__delegate_8cpp.html" target="_top" xlink:title=" ">
<polygon fill="white" stroke="#666666" points="996,-30 880,-30 880,-11 996,-11 996,-30"/>
<text text-anchor="middle" x="938" y="-18" font-family="Helvetica,sans-Serif" font-size="10.00">node/app_delegate.cpp</text>
</a>
</g>
</g>
<!-- Node8&#45;&gt;Node9 -->
<g id="edge8" class="edge">
<title>Node8&#45;&gt;Node9</title>
<path fill="none" stroke="#63b8ff" d="M802.99,-72.64C840.89,-58.28 886.94,-40.84 914.28,-30.48"/>
<polygon fill="#63b8ff" stroke="#63b8ff" points="802.07,-69.25 793.96,-76.06 804.55,-75.79 802.07,-69.25"/>
</g>
<!-- Node10 -->
<g id="node10" class="node">
<title>Node10</title>
<g id="a_node10"><a xlink:href="block__producing__node__application_8cpp.html" target="_top" xlink:title=" ">
<polygon fill="white" stroke="#666666" points="798,-41 682,-41 682,0 798,0 798,-41"/>
<text text-anchor="start" x="690" y="-29" font-family="Helvetica,sans-Serif" font-size="10.00">src/application/impl</text>
<text text-anchor="start" x="690" y="-18" font-family="Helvetica,sans-Serif" font-size="10.00">/block_producing_node</text>
<text text-anchor="middle" x="740" y="-7" font-family="Helvetica,sans-Serif" font-size="10.00">_application.cpp</text>
</a>
</g>
</g>
<!-- Node8&#45;&gt;Node10 -->
<g id="edge9" class="edge">
<title>Node8&#45;&gt;Node10</title>
<path fill="none" stroke="#63b8ff" d="M740,-65.36C740,-57.24 740,-48.7 740,-41.33"/>
<polygon fill="#63b8ff" stroke="#63b8ff" points="736.5,-65.28 740,-75.28 743.5,-65.28 736.5,-65.28"/>
</g>
<!-- Node13 -->
<g id="node13" class="node">
<title>Node13</title>
<g id="a_node13"><a xlink:href="syncing__node__application_8hpp.html" target="_top" xlink:title=" ">
<polygon fill="white" stroke="#666666" points="504.5,-184 355.5,-184 355.5,-154 504.5,-154 504.5,-184"/>
<text text-anchor="start" x="363.5" y="-172" font-family="Helvetica,sans-Serif" font-size="10.00">src/application/impl</text>
<text text-anchor="middle" x="430" y="-161" font-family="Helvetica,sans-Serif" font-size="10.00">/syncing_node_application.hpp</text>
</a>
</g>
</g>
<!-- Node12&#45;&gt;Node13 -->
<g id="edge12" class="edge">
<title>Node12&#45;&gt;Node13</title>
<path fill="none" stroke="#63b8ff" d="M430.6,-208.39C430.47,-200.13 430.33,-191.28 430.22,-184.16"/>
<polygon fill="#63b8ff" stroke="#63b8ff" points="427.1,-208.34 430.75,-218.28 434.1,-208.23 427.1,-208.34"/>
</g>
<!-- Node15 -->
<g id="node15" class="node">
<title>Node15</title>
<g id="a_node15"><a xlink:href="syncing__node__injector_8cpp.html" target="_top" xlink:title=" ">
<polygon fill="white" stroke="#666666" points="337.5,-184 236.5,-184 236.5,-154 337.5,-154 337.5,-184"/>
<text text-anchor="start" x="244.5" y="-172" font-family="Helvetica,sans-Serif" font-size="10.00">src/injector/syncing</text>
<text text-anchor="middle" x="287" y="-161" font-family="Helvetica,sans-Serif" font-size="10.00">_node_injector.cpp</text>
</a>
</g>
</g>
<!-- Node12&#45;&gt;Node15 -->
<g id="edge14" class="edge">
<title>Node12&#45;&gt;Node15</title>
<path fill="none" stroke="#63b8ff" d="M388.23,-214.99C366.11,-205.16 339.57,-193.36 319.21,-184.31"/>
<polygon fill="#63b8ff" stroke="#63b8ff" points="386.74,-218.16 397.3,-219.02 389.58,-211.76 386.74,-218.16"/>
</g>
<!-- Node14 -->
<g id="node14" class="node">
<title>Node14</title>
<g id="a_node14"><a xlink:href="syncing__node__application_8cpp.html" target="_top" xlink:title=" ">
<polygon fill="white" stroke="#666666" points="500.5,-112.5 351.5,-112.5 351.5,-82.5 500.5,-82.5 500.5,-112.5"/>
<text text-anchor="start" x="359.5" y="-100.5" font-family="Helvetica,sans-Serif" font-size="10.00">src/application/impl</text>
<text text-anchor="middle" x="426" y="-89.5" font-family="Helvetica,sans-Serif" font-size="10.00">/syncing_node_application.cpp</text>
</a>
</g>
</g>
<!-- Node13&#45;&gt;Node14 -->
<g id="edge13" class="edge">
<title>Node13&#45;&gt;Node14</title>
<path fill="none" stroke="#63b8ff" d="M428.52,-142.26C427.95,-132.33 427.32,-121.36 426.83,-112.88"/>
<polygon fill="#63b8ff" stroke="#63b8ff" points="425.02,-142.31 429.08,-152.09 432,-141.9 425.02,-142.31"/>
</g>
<!-- Node16&#45;&gt;Node7 -->
<g id="edge19" class="edge">
<title>Node16&#45;&gt;Node7</title>
<path fill="none" stroke="#63b8ff" d="M621.51,-210.39C615.73,-201.59 609.35,-191.86 604.3,-184.16"/>
<polygon fill="#63b8ff" stroke="#63b8ff" points="618.44,-212.09 626.85,-218.53 624.29,-208.25 618.44,-212.09"/>
</g>
<!-- Node17 -->
<g id="node17" class="node">
<title>Node17</title>
<g id="a_node17"><a xlink:href="validating__node__application_8hpp.html" target="_top" xlink:title=" ">
<polygon fill="white" stroke="#666666" points="973.5,-184 816.5,-184 816.5,-154 973.5,-154 973.5,-184"/>
<text text-anchor="start" x="824.5" y="-172" font-family="Helvetica,sans-Serif" font-size="10.00">src/application/impl</text>
<text text-anchor="middle" x="895" y="-161" font-family="Helvetica,sans-Serif" font-size="10.00">/validating_node_application.hpp</text>
</a>
</g>
</g>
<!-- Node16&#45;&gt;Node17 -->
<g id="edge16" class="edge">
<title>Node16&#45;&gt;Node17</title>
<path fill="none" stroke="#63b8ff" d="M702.78,-217.68C744.12,-207.43 796.96,-194.32 836.78,-184.44"/>
<polygon fill="#63b8ff" stroke="#63b8ff" points="702.05,-214.26 693.18,-220.06 703.73,-221.05 702.05,-214.26"/>
</g>
<!-- Node19 -->
<g id="node19" class="node">
<title>Node19</title>
<g id="a_node19"><a xlink:href="validating__node__injector_8cpp.html" target="_top" xlink:title=" ">
<polygon fill="white" stroke="#666666" points="794.5,-184 685.5,-184 685.5,-154 794.5,-154 794.5,-184"/>
<text text-anchor="start" x="693.5" y="-172" font-family="Helvetica,sans-Serif" font-size="10.00">src/injector/validating</text>
<text text-anchor="middle" x="740" y="-161" font-family="Helvetica,sans-Serif" font-size="10.00">_node_injector.cpp</text>
</a>
</g>
</g>
<!-- Node16&#45;&gt;Node19 -->
<g id="edge20" class="edge">
<title>Node16&#45;&gt;Node19</title>
<path fill="none" stroke="#63b8ff" d="M669.77,-213.64C685.13,-204.09 703.06,-192.95 716.96,-184.31"/>
<polygon fill="#63b8ff" stroke="#63b8ff" points="668.05,-210.59 661.4,-218.84 671.74,-216.53 668.05,-210.59"/>
</g>
<!-- Node17&#45;&gt;Node9 -->
<g id="edge17" class="edge">
<title>Node17&#45;&gt;Node9</title>
<path fill="none" stroke="#63b8ff" d="M949.79,-148.43C962.96,-141 975.39,-131.07 983,-118 992.17,-102.25 989.09,-94.18 983,-77 976.2,-57.83 959.65,-40.44 948.62,-30.42"/>
<polygon fill="#63b8ff" stroke="#63b8ff" points="948.3,-145.26 941,-152.94 951.5,-151.49 948.3,-145.26"/>
</g>
<!-- Node18 -->
<g id="node18" class="node">
<title>Node18</title>
<g id="a_node18"><a xlink:href="validating__node__application_8cpp.html" target="_top" xlink:title=" ">
<polygon fill="white" stroke="#666666" points="973.5,-112.5 816.5,-112.5 816.5,-82.5 973.5,-82.5 973.5,-112.5"/>
<text text-anchor="start" x="824.5" y="-100.5" font-family="Helvetica,sans-Serif" font-size="10.00">src/application/impl</text>
<text text-anchor="middle" x="895" y="-89.5" font-family="Helvetica,sans-Serif" font-size="10.00">/validating_node_application.cpp</text>
</a>
</g>
</g>
<!-- Node17&#45;&gt;Node18 -->
<g id="edge18" class="edge">
<title>Node17&#45;&gt;Node18</title>
<path fill="none" stroke="#63b8ff" d="M895,-142.26C895,-132.33 895,-121.36 895,-112.88"/>
<polygon fill="#63b8ff" stroke="#63b8ff" points="891.5,-142.09 895,-152.09 898.5,-142.09 891.5,-142.09"/>
</g>
</g>
</svg>
