<?xml version="1.0" encoding="UTF-8" standalone="no"?>
<!DOCTYPE svg PUBLIC "-//W3C//DTD SVG 1.1//EN"
 "http://www.w3.org/Graphics/SVG/1.1/DTD/svg11.dtd">
<!-- Generated by graphviz version 7.0.5 (20221223.1930)
 -->
<!-- Title: src/crypto/secp256k1/secp256k1_provider_impl.cpp Pages: 1 -->
<svg width="474pt" height="434pt"
 viewBox="0.00 0.00 473.50 434.00" xmlns="http://www.w3.org/2000/svg" xmlns:xlink="http://www.w3.org/1999/xlink">
<g id="graph0" class="graph" transform="scale(1 1) rotate(0) translate(4 430)">
<title>src/crypto/secp256k1/secp256k1_provider_impl.cpp</title>
<!-- Node1 -->
<g id="node1" class="node">
<title>Node1</title>
<g id="a_node1"><a xlink:title=" ">
<polygon fill="#999999" stroke="#666666" points="410,-426 262,-426 262,-396 410,-396 410,-426"/>
<text text-anchor="start" x="270" y="-414" font-family="Helvetica,sans-Serif" font-size="10.00">src/crypto/secp256k1</text>
<text text-anchor="middle" x="336" y="-403" font-family="Helvetica,sans-Serif" font-size="10.00">/secp256k1_provider_impl.cpp</text>
</a>
</g>
</g>
<!-- Node2 -->
<g id="node2" class="node">
<title>Node2</title>
<g id="a_node2"><a xlink:href="secp256k1__provider__impl_8hpp.html" target="_top" xlink:title=" ">
<polygon fill="white" stroke="#666666" points="334.5,-360 191.5,-360 191.5,-330 334.5,-330 334.5,-360"/>
<text text-anchor="start" x="199.5" y="-348" font-family="Helvetica,sans-Serif" font-size="10.00">crypto/secp256k1/secp256k1</text>
<text text-anchor="middle" x="263" y="-337" font-family="Helvetica,sans-Serif" font-size="10.00">_provider_impl.hpp</text>
</a>
</g>
</g>
<!-- Node1&#45;&gt;Node2 -->
<g id="edge1" class="edge">
<title>Node1&#45;&gt;Node2</title>
<path fill="none" stroke="#63b8ff" d="M319.8,-395.8C310.41,-387.57 298.4,-377.04 287.85,-367.78"/>
<polygon fill="#63b8ff" stroke="#63b8ff" points="290.37,-365.34 280.55,-361.38 285.76,-370.61 290.37,-365.34"/>
</g>
<!-- Node16 -->
<g id="node16" class="node">
<title>Node16</title>
<g id="a_node16"><a xlink:title=" ">
<polygon fill="#e0e0e0" stroke="#999999" points="465.5,-354.5 352.5,-354.5 352.5,-335.5 465.5,-335.5 465.5,-354.5"/>
<text text-anchor="middle" x="409" y="-342.5" font-family="Helvetica,sans-Serif" font-size="10.00">secp256k1_recovery.h</text>
</a>
</g>
</g>
<!-- Node1&#45;&gt;Node16 -->
<g id="edge16" class="edge">
<title>Node1&#45;&gt;Node16</title>
<path fill="none" stroke="#63b8ff" d="M352.2,-395.8C363.47,-385.92 378.52,-372.72 390.3,-362.39"/>
<polygon fill="#63b8ff" stroke="#63b8ff" points="392.56,-365.07 397.77,-355.84 387.95,-359.8 392.56,-365.07"/>
</g>
<!-- Node3 -->
<g id="node3" class="node">
<title>Node3</title>
<g id="a_node3"><a xlink:title=" ">
<polygon fill="#e0e0e0" stroke="#999999" points="234.5,-294 163.5,-294 163.5,-275 234.5,-275 234.5,-294"/>
<text text-anchor="middle" x="199" y="-282" font-family="Helvetica,sans-Serif" font-size="10.00">secp256k1.h</text>
</a>
</g>
</g>
<!-- Node2&#45;&gt;Node3 -->
<g id="edge2" class="edge">
<title>Node2&#45;&gt;Node3</title>
<path fill="none" stroke="#63b8ff" d="M247.18,-329.54C237.98,-321.13 226.36,-310.51 216.83,-301.8"/>
<polygon fill="#63b8ff" stroke="#63b8ff" points="219.35,-299.36 209.61,-295.2 214.63,-304.53 219.35,-299.36"/>
</g>
<!-- Node4 -->
<g id="node4" class="node">
<title>Node4</title>
<g id="a_node4"><a xlink:href="secp256k1__provider_8hpp.html" target="_top" xlink:title=" ">
<polygon fill="white" stroke="#666666" points="403.5,-294 252.5,-294 252.5,-275 403.5,-275 403.5,-294"/>
<text text-anchor="middle" x="328" y="-282" font-family="Helvetica,sans-Serif" font-size="10.00">crypto/secp256k1_provider.hpp</text>
</a>
</g>
</g>
<!-- Node2&#45;&gt;Node4 -->
<g id="edge3" class="edge">
<title>Node2&#45;&gt;Node4</title>
<path fill="none" stroke="#63b8ff" d="M279.07,-329.54C288.41,-321.13 300.22,-310.51 309.89,-301.8"/>
<polygon fill="#63b8ff" stroke="#63b8ff" points="312.14,-304.48 317.24,-295.19 307.46,-299.28 312.14,-304.48"/>
</g>
<!-- Node5 -->
<g id="node5" class="node">
<title>Node5</title>
<g id="a_node5"><a xlink:href="secp256k1__types_8hpp.html" target="_top" xlink:title=" ">
<polygon fill="white" stroke="#666666" points="338,-239 198,-239 198,-220 338,-220 338,-239"/>
<text text-anchor="middle" x="268" y="-227" font-family="Helvetica,sans-Serif" font-size="10.00">crypto/secp256k1_types.hpp</text>
</a>
</g>
</g>
<!-- Node4&#45;&gt;Node5 -->
<g id="edge4" class="edge">
<title>Node4&#45;&gt;Node5</title>
<path fill="none" stroke="#63b8ff" d="M317.82,-274.51C309.24,-266.93 296.73,-255.88 286.4,-246.75"/>
<polygon fill="#63b8ff" stroke="#63b8ff" points="288.97,-244.36 279.16,-240.36 284.34,-249.6 288.97,-244.36"/>
</g>
<!-- Node13 -->
<g id="node13" class="node">
<title>Node13</title>
<g id="a_node13"><a xlink:href="outcome_8hpp.html" target="_top" xlink:title=" ">
<polygon fill="white" stroke="#666666" points="444.5,-74 331.5,-74 331.5,-55 444.5,-55 444.5,-74"/>
<text text-anchor="middle" x="388" y="-62" font-family="Helvetica,sans-Serif" font-size="10.00">outcome/outcome.hpp</text>
</a>
</g>
</g>
<!-- Node4&#45;&gt;Node13 -->
<g id="edge15" class="edge">
<title>Node4&#45;&gt;Node13</title>
<path fill="none" stroke="#63b8ff" d="M332.24,-274.81C336.43,-265.96 342.8,-251.77 347,-239 364.93,-184.49 378.39,-117.94 384.46,-85.38"/>
<polygon fill="#63b8ff" stroke="#63b8ff" points="387.85,-86.27 386.2,-75.8 380.96,-85.01 387.85,-86.27"/>
</g>
<!-- Node6 -->
<g id="node6" class="node">
<title>Node6</title>
<g id="a_node6"><a xlink:href="blob_8hpp.html" target="_top" xlink:title=" ">
<polygon fill="white" stroke="#666666" points="283.5,-184 206.5,-184 206.5,-165 283.5,-165 283.5,-184"/>
<text text-anchor="middle" x="245" y="-172" font-family="Helvetica,sans-Serif" font-size="10.00">base/blob.hpp</text>
</a>
</g>
</g>
<!-- Node5&#45;&gt;Node6 -->
<g id="edge5" class="edge">
<title>Node5&#45;&gt;Node6</title>
<path fill="none" stroke="#63b8ff" d="M264.2,-219.75C261.26,-212.96 257.06,-203.3 253.35,-194.73"/>
<polygon fill="#63b8ff" stroke="#63b8ff" points="256.67,-193.61 249.48,-185.83 250.25,-196.4 256.67,-193.61"/>
</g>
<!-- Node7 -->
<g id="node7" class="node">
<title>Node7</title>
<g id="a_node7"><a xlink:title=" ">
<polygon fill="#e0e0e0" stroke="#999999" points="38,-129 0,-129 0,-110 38,-110 38,-129"/>
<text text-anchor="middle" x="19" y="-117" font-family="Helvetica,sans-Serif" font-size="10.00">array</text>
</a>
</g>
</g>
<!-- Node6&#45;&gt;Node7 -->
<g id="edge6" class="edge">
<title>Node6&#45;&gt;Node7</title>
<path fill="none" stroke="#63b8ff" d="M206.1,-165.64C168.29,-157.81 109.04,-145.02 49.04,-129.39"/>
<polygon fill="#63b8ff" stroke="#63b8ff" points="50.25,-126.09 39.69,-126.93 48.47,-132.86 50.25,-126.09"/>
</g>
<!-- Node8 -->
<g id="node8" class="node">
<title>Node8</title>
<g id="a_node8"><a xlink:title=" ">
<polygon fill="#e0e0e0" stroke="#999999" points="184,-129 56,-129 56,-110 184,-110 184,-129"/>
<text text-anchor="middle" x="120" y="-117" font-family="Helvetica,sans-Serif" font-size="10.00">boost/functional/hash.hpp</text>
</a>
</g>
</g>
<!-- Node6&#45;&gt;Node8 -->
<g id="edge7" class="edge">
<title>Node6&#45;&gt;Node8</title>
<path fill="none" stroke="#63b8ff" d="M223.8,-164.51C203.92,-156.08 173.97,-143.38 151.34,-133.79"/>
<polygon fill="#63b8ff" stroke="#63b8ff" points="152.86,-130.63 142.28,-129.95 150.13,-137.07 152.86,-130.63"/>
</g>
<!-- Node9 -->
<g id="node9" class="node">
<title>Node9</title>
<g id="a_node9"><a xlink:href="hexutil_8hpp.html" target="_top" xlink:title=" ">
<polygon fill="white" stroke="#666666" points="288,-129 202,-129 202,-110 288,-110 288,-129"/>
<text text-anchor="middle" x="245" y="-117" font-family="Helvetica,sans-Serif" font-size="10.00">base/hexutil.hpp</text>
</a>
</g>
</g>
<!-- Node6&#45;&gt;Node9 -->
<g id="edge8" class="edge">
<title>Node6&#45;&gt;Node9</title>
<path fill="none" stroke="#63b8ff" d="M245,-164.75C245,-158.27 245,-149.16 245,-140.9"/>
<polygon fill="#63b8ff" stroke="#63b8ff" points="248.5,-140.96 245,-130.96 241.5,-140.96 248.5,-140.96"/>
</g>
<!-- Node15 -->
<g id="node15" class="node">
<title>Node15</title>
<g id="a_node15"><a xlink:title=" ">
<polygon fill="#e0e0e0" stroke="#999999" points="360,-129 306,-129 306,-110 360,-110 360,-129"/>
<text text-anchor="middle" x="333" y="-117" font-family="Helvetica,sans-Serif" font-size="10.00">iostream</text>
</a>
</g>
</g>
<!-- Node6&#45;&gt;Node15 -->
<g id="edge14" class="edge">
<title>Node6&#45;&gt;Node15</title>
<path fill="none" stroke="#63b8ff" d="M259.93,-164.51C273.28,-156.47 293.11,-144.53 308.74,-135.11"/>
<polygon fill="#63b8ff" stroke="#63b8ff" points="310.24,-138.3 317,-130.14 306.62,-132.3 310.24,-138.3"/>
</g>
<!-- Node10 -->
<g id="node10" class="node">
<title>Node10</title>
<g id="a_node10"><a xlink:title=" ">
<polygon fill="#e0e0e0" stroke="#999999" points="180,-74 114,-74 114,-55 180,-55 180,-74"/>
<text text-anchor="middle" x="147" y="-62" font-family="Helvetica,sans-Serif" font-size="10.00">string_view</text>
</a>
</g>
</g>
<!-- Node9&#45;&gt;Node10 -->
<g id="edge9" class="edge">
<title>Node9&#45;&gt;Node10</title>
<path fill="none" stroke="#63b8ff" d="M228.38,-109.51C213.22,-101.31 190.58,-89.07 173.03,-79.58"/>
<polygon fill="#63b8ff" stroke="#63b8ff" points="175.17,-76.76 164.71,-75.08 171.84,-82.91 175.17,-76.76"/>
</g>
<!-- Node11 -->
<g id="node11" class="node">
<title>Node11</title>
<g id="a_node11"><a xlink:title=" ">
<polygon fill="#e0e0e0" stroke="#999999" points="242,-74 198,-74 198,-55 242,-55 242,-74"/>
<text text-anchor="middle" x="220" y="-62" font-family="Helvetica,sans-Serif" font-size="10.00">vector</text>
</a>
</g>
</g>
<!-- Node9&#45;&gt;Node11 -->
<g id="edge10" class="edge">
<title>Node9&#45;&gt;Node11</title>
<path fill="none" stroke="#63b8ff" d="M240.87,-109.75C237.67,-102.96 233.11,-93.3 229.07,-84.73"/>
<polygon fill="#63b8ff" stroke="#63b8ff" points="232.3,-83.36 224.86,-75.81 225.96,-86.35 232.3,-83.36"/>
</g>
<!-- Node12 -->
<g id="node12" class="node">
<title>Node12</title>
<g id="a_node12"><a xlink:title=" ">
<polygon fill="#e0e0e0" stroke="#999999" points="313.5,-74 260.5,-74 260.5,-55 313.5,-55 313.5,-74"/>
<text text-anchor="middle" x="287" y="-62" font-family="Helvetica,sans-Serif" font-size="10.00">gsl/span</text>
</a>
</g>
</g>
<!-- Node9&#45;&gt;Node12 -->
<g id="edge11" class="edge">
<title>Node9&#45;&gt;Node12</title>
<path fill="none" stroke="#63b8ff" d="M251.94,-109.75C257.62,-102.58 265.84,-92.2 272.89,-83.3"/>
<polygon fill="#63b8ff" stroke="#63b8ff" points="275.51,-85.64 278.97,-75.63 270.02,-81.29 275.51,-85.64"/>
</g>
<!-- Node9&#45;&gt;Node13 -->
<g id="edge12" class="edge">
<title>Node9&#45;&gt;Node13</title>
<path fill="none" stroke="#63b8ff" d="M269.26,-109.51C292.41,-100.93 327.51,-87.92 353.56,-78.27"/>
<polygon fill="#63b8ff" stroke="#63b8ff" points="354.52,-81.64 362.68,-74.88 352.09,-75.08 354.52,-81.64"/>
</g>
<!-- Node14 -->
<g id="node14" class="node">
<title>Node14</title>
<g id="a_node14"><a xlink:title=" ">
<polygon fill="#e0e0e0" stroke="#999999" points="458.5,-19 317.5,-19 317.5,0 458.5,0 458.5,-19"/>
<text text-anchor="middle" x="388" y="-7" font-family="Helvetica,sans-Serif" font-size="10.00">libp2p/outcome/outcome.hpp</text>
</a>
</g>
</g>
<!-- Node13&#45;&gt;Node14 -->
<g id="edge13" class="edge">
<title>Node13&#45;&gt;Node14</title>
<path fill="none" stroke="#63b8ff" d="M388,-54.75C388,-48.27 388,-39.16 388,-30.9"/>
<polygon fill="#63b8ff" stroke="#63b8ff" points="391.5,-30.96 388,-20.96 384.5,-30.96 391.5,-30.96"/>
</g>
</g>
</svg>
