<?xml version="1.0" encoding="UTF-8" standalone="no"?>
<!DOCTYPE svg PUBLIC "-//W3C//DTD SVG 1.1//EN"
 "http://www.w3.org/Graphics/SVG/1.1/DTD/svg11.dtd">
<!-- Generated by graphviz version 7.0.5 (20221223.1930)
 -->
<!-- Title: src/crypto/sr25519/sr25519_provider_impl.hpp Pages: 1 -->
<!--zoomable 390 -->
<svg id="main" version="1.1" xmlns="http://www.w3.org/2000/svg" xmlns:xlink="http://www.w3.org/1999/xlink" xml:space="preserve" onload="init(evt)">
<style type="text/css"><![CDATA[
.edge:hover path { stroke: red; }
.edge:hover polygon { stroke: red; fill: red; }
]]></style>
<script type="text/javascript"><![CDATA[
var edges = document.getElementsByTagName('g');
if (edges && edges.length) {
  for (var i=0;i<edges.length;i++) {
    if (edges[i].id.substr(0,4)=='edge') {
      edges[i].setAttribute('class','edge');
    }
  }
}
]]></script>
        <defs>
                <circle id="rim" cx="0" cy="0" r="7"/>
                <circle id="rim2" cx="0" cy="0" r="3.5"/>
                <g id="zoomPlus">
                        <use xlink:href="#rim" fill="#404040">
                                <set attributeName="fill" to="#808080" begin="zoomplus.mouseover" end="zoomplus.mouseout"/>
                        </use>
                        <path d="M-4,0h8M0,-4v8" fill="none" stroke="white" stroke-width="1.5" pointer-events="none"/>
                </g>
                <g id="zoomMin">
                        <use xlink:href="#rim" fill="#404040">
                                <set attributeName="fill" to="#808080" begin="zoomminus.mouseover" end="zoomminus.mouseout"/>
                        </use>
                        <path d="M-4,0h8" fill="none" stroke="white" stroke-width="1.5" pointer-events="none"/>
                </g>
                <g id="dirArrow">
                        <path fill="none" stroke="white" stroke-width="1.5" d="M0,-3.0v7 M-2.5,-0.5L0,-3.0L2.5,-0.5"/>
                </g>
               <g id="resetDef">
                       <use xlink:href="#rim2" fill="#404040">
                               <set attributeName="fill" to="#808080" begin="reset.mouseover" end="reset.mouseout"/>
                       </use>
               </g>
        </defs>

<script type="text/javascript">
var viewWidth = 727;
var viewHeight = 390;
var sectionId = 'dynsection-0';
</script>
<script xlink:href="svgpan.js"/>
<svg id="graph" class="graph">
<g id="viewport">
<title>src/crypto/sr25519/sr25519_provider_impl.hpp</title>
<!-- Node1 -->
<g id="node1" class="node">
<title>Node1</title>
<g id="a_node1"><a xlink:title=" ">
<polygon fill="#999999" stroke="#666666" points="316,-382 181,-382 181,-352 316,-352 316,-382"/>
<text text-anchor="start" x="189" y="-370" font-family="Helvetica,sans-Serif" font-size="10.00">src/crypto/sr25519</text>
<text text-anchor="middle" x="248.5" y="-359" font-family="Helvetica,sans-Serif" font-size="10.00">/sr25519_provider_impl.hpp</text>
</a>
</g>
</g>
<!-- Node2 -->
<g id="node2" class="node">
<title>Node2</title>
<g id="a_node2"><a xlink:href="random__generator_8hpp.html" target="_top" xlink:title=" ">
<polygon fill="white" stroke="#666666" points="240.5,-316 98.5,-316 98.5,-297 240.5,-297 240.5,-316"/>
<text text-anchor="middle" x="169.5" y="-304" font-family="Helvetica,sans-Serif" font-size="10.00">crypto/random_generator.hpp</text>
</a>
</g>
</g>
<!-- Node1&#45;&gt;Node2 -->
<g id="edge1" class="edge">
<title>Node1&#45;&gt;Node2</title>
<path fill="none" stroke="#63b8ff" d="M228.97,-351.54C217.26,-342.87 202.38,-331.85 190.43,-323"/>
<polygon fill="#63b8ff" stroke="#63b8ff" points="192.55,-320.21 182.43,-317.08 188.39,-325.84 192.55,-320.21"/>
</g>
<!-- Node4 -->
<g id="node4" class="node">
<title>Node4</title>
<g id="a_node4"><a xlink:href="sr25519__provider_8hpp.html" target="_top" xlink:title=" ">
<polygon fill="white" stroke="#666666" points="454.5,-316 316.5,-316 316.5,-297 454.5,-297 454.5,-316"/>
<text text-anchor="middle" x="385.5" y="-304" font-family="Helvetica,sans-Serif" font-size="10.00">crypto/sr25519_provider.hpp</text>
</a>
</g>
</g>
<!-- Node1&#45;&gt;Node4 -->
<g id="edge3" class="edge">
<title>Node1&#45;&gt;Node4</title>
<path fill="none" stroke="#63b8ff" d="M282.37,-351.54C304.36,-342.15 332.83,-329.99 354.28,-320.83"/>
<polygon fill="#63b8ff" stroke="#63b8ff" points="355.57,-324.09 363.39,-316.94 352.82,-317.65 355.57,-324.09"/>
</g>
<!-- Node3 -->
<g id="node3" class="node">
<title>Node3</title>
<g id="a_node3"><a xlink:title=" ">
<polygon fill="#e0e0e0" stroke="#999999" points="107,-261 0,-261 0,-231 107,-231 107,-261"/>
<text text-anchor="start" x="8" y="-249" font-family="Helvetica,sans-Serif" font-size="10.00">libp2p/crypto/random</text>
<text text-anchor="middle" x="53.5" y="-238" font-family="Helvetica,sans-Serif" font-size="10.00">_generator.hpp</text>
</a>
</g>
</g>
<!-- Node2&#45;&gt;Node3 -->
<g id="edge2" class="edge">
<title>Node2&#45;&gt;Node3</title>
<path fill="none" stroke="#63b8ff" d="M151.88,-296.62C136.12,-288.67 112.47,-276.74 92.3,-266.57"/>
<polygon fill="#63b8ff" stroke="#63b8ff" points="93.99,-263.5 83.48,-262.12 90.84,-269.75 93.99,-263.5"/>
</g>
<!-- Node5 -->
<g id="node5" class="node">
<title>Node5</title>
<g id="a_node5"><a xlink:title=" ">
<polygon fill="#e0e0e0" stroke="#999999" points="719,-74 666,-74 666,-55 719,-55 719,-74"/>
<text text-anchor="middle" x="692.5" y="-62" font-family="Helvetica,sans-Serif" font-size="10.00">gsl/span</text>
</a>
</g>
</g>
<!-- Node4&#45;&gt;Node5 -->
<g id="edge4" class="edge">
<title>Node4&#45;&gt;Node5</title>
<path fill="none" stroke="#63b8ff" d="M450.44,-296.5C514.82,-284.3 612.17,-256.47 671.5,-195 699.12,-166.38 702.6,-149.65 699.5,-110 698.87,-101.91 697.6,-93.07 696.31,-85.41"/>
<polygon fill="#63b8ff" stroke="#63b8ff" points="699.8,-85.02 694.57,-75.81 692.91,-86.27 699.8,-85.02"/>
</g>
<!-- Node6 -->
<g id="node6" class="node">
<title>Node6</title>
<g id="a_node6"><a xlink:href="outcome_8hpp.html" target="_top" xlink:title=" ">
<polygon fill="white" stroke="#666666" points="252,-74 139,-74 139,-55 252,-55 252,-74"/>
<text text-anchor="middle" x="195.5" y="-62" font-family="Helvetica,sans-Serif" font-size="10.00">outcome/outcome.hpp</text>
</a>
</g>
</g>
<!-- Node4&#45;&gt;Node6 -->
<g id="edge5" class="edge">
<title>Node4&#45;&gt;Node6</title>
<path fill="none" stroke="#63b8ff" d="M360.28,-296.51C310.05,-277.07 198.57,-225.79 154.5,-140 148.41,-128.14 149.65,-122.42 154.5,-110 158.76,-99.08 167.11,-89.22 175.16,-81.57"/>
<polygon fill="#63b8ff" stroke="#63b8ff" points="177.22,-84.42 182.43,-75.2 172.61,-79.16 177.22,-84.42"/>
</g>
<!-- Node8 -->
<g id="node8" class="node">
<title>Node8</title>
<g id="a_node8"><a xlink:href="sr25519__types_8hpp.html" target="_top" xlink:title=" ">
<polygon fill="white" stroke="#666666" points="543,-255.5 416,-255.5 416,-236.5 543,-236.5 543,-255.5"/>
<text text-anchor="middle" x="479.5" y="-243.5" font-family="Helvetica,sans-Serif" font-size="10.00">crypto/sr25519_types.hpp</text>
</a>
</g>
</g>
<!-- Node4&#45;&gt;Node8 -->
<g id="edge7" class="edge">
<title>Node4&#45;&gt;Node8</title>
<path fill="none" stroke="#63b8ff" d="M399.78,-296.62C414.55,-287.42 437.87,-272.91 455.49,-261.94"/>
<polygon fill="#63b8ff" stroke="#63b8ff" points="457.16,-265.02 463.8,-256.77 453.46,-259.08 457.16,-265.02"/>
</g>
<!-- Node7 -->
<g id="node7" class="node">
<title>Node7</title>
<g id="a_node7"><a xlink:title=" ">
<polygon fill="#e0e0e0" stroke="#999999" points="266,-19 125,-19 125,0 266,0 266,-19"/>
<text text-anchor="middle" x="195.5" y="-7" font-family="Helvetica,sans-Serif" font-size="10.00">libp2p/outcome/outcome.hpp</text>
</a>
</g>
</g>
<!-- Node6&#45;&gt;Node7 -->
<g id="edge6" class="edge">
<title>Node6&#45;&gt;Node7</title>
<path fill="none" stroke="#63b8ff" d="M195.5,-54.75C195.5,-48.27 195.5,-39.16 195.5,-30.9"/>
<polygon fill="#63b8ff" stroke="#63b8ff" points="199,-30.96 195.5,-20.96 192,-30.96 199,-30.96"/>
</g>
<!-- Node8&#45;&gt;Node5 -->
<g id="edge10" class="edge">
<title>Node8&#45;&gt;Node5</title>
<path fill="none" stroke="#63b8ff" d="M543.1,-238.97C578.12,-232.79 620.44,-220.29 650.5,-195 682.97,-167.68 690.55,-115 692.19,-85.96"/>
<polygon fill="#63b8ff" stroke="#63b8ff" points="695.68,-86.08 692.53,-75.97 688.69,-85.84 695.68,-86.08"/>
</g>
<!-- Node9 -->
<g id="node9" class="node">
<title>Node9</title>
<g id="a_node9"><a xlink:title=" ">
<polygon fill="#e0e0e0" stroke="#999999" points="387,-195 328,-195 328,-176 387,-176 387,-195"/>
<text text-anchor="middle" x="357.5" y="-183" font-family="Helvetica,sans-Serif" font-size="10.00">sr25519.h</text>
</a>
</g>
</g>
<!-- Node8&#45;&gt;Node9 -->
<g id="edge8" class="edge">
<title>Node8&#45;&gt;Node9</title>
<path fill="none" stroke="#63b8ff" d="M460.97,-236.12C441.18,-226.62 409.53,-211.45 386.45,-200.38"/>
<polygon fill="#63b8ff" stroke="#63b8ff" points="388.1,-197.29 377.57,-196.12 385.07,-203.6 388.1,-197.29"/>
</g>
<!-- Node10 -->
<g id="node10" class="node">
<title>Node10</title>
<g id="a_node10"><a xlink:title=" ">
<polygon fill="#e0e0e0" stroke="#999999" points="645.5,-140 541.5,-140 541.5,-110 645.5,-110 645.5,-140"/>
<text text-anchor="start" x="549.5" y="-128" font-family="Helvetica,sans-Serif" font-size="10.00">boost/multiprecision</text>
<text text-anchor="middle" x="593.5" y="-117" font-family="Helvetica,sans-Serif" font-size="10.00">/cpp_int.hpp</text>
</a>
</g>
</g>
<!-- Node8&#45;&gt;Node10 -->
<g id="edge9" class="edge">
<title>Node8&#45;&gt;Node10</title>
<path fill="none" stroke="#63b8ff" d="M486.26,-236.16C496.72,-222.69 517.66,-196.44 537.5,-176 546.88,-166.33 557.82,-156.32 567.52,-147.82"/>
<polygon fill="#63b8ff" stroke="#63b8ff" points="569.58,-150.66 574.86,-141.48 565.01,-145.37 569.58,-150.66"/>
</g>
<!-- Node11 -->
<g id="node11" class="node">
<title>Node11</title>
<g id="a_node11"><a xlink:href="blob_8hpp.html" target="_top" xlink:title=" ">
<polygon fill="white" stroke="#666666" points="482,-195 405,-195 405,-176 482,-176 482,-195"/>
<text text-anchor="middle" x="443.5" y="-183" font-family="Helvetica,sans-Serif" font-size="10.00">base/blob.hpp</text>
</a>
</g>
</g>
<!-- Node8&#45;&gt;Node11 -->
<g id="edge11" class="edge">
<title>Node8&#45;&gt;Node11</title>
<path fill="none" stroke="#63b8ff" d="M474.19,-236.37C469.08,-228.07 461.21,-215.28 454.71,-204.72"/>
<polygon fill="#63b8ff" stroke="#63b8ff" points="457.85,-203.14 449.63,-196.46 451.89,-206.81 457.85,-203.14"/>
</g>
<!-- Node18 -->
<g id="node18" class="node">
<title>Node18</title>
<g id="a_node18"><a xlink:href="mp__utils_8hpp.html" target="_top" xlink:title=" ">
<polygon fill="white" stroke="#666666" points="641,-195 546,-195 546,-176 641,-176 641,-195"/>
<text text-anchor="middle" x="593.5" y="-183" font-family="Helvetica,sans-Serif" font-size="10.00">base/mp_utils.hpp</text>
</a>
</g>
</g>
<!-- Node8&#45;&gt;Node18 -->
<g id="edge20" class="edge">
<title>Node8&#45;&gt;Node18</title>
<path fill="none" stroke="#63b8ff" d="M496.81,-236.12C515.14,-226.71 544.34,-211.72 565.86,-200.68"/>
<polygon fill="#63b8ff" stroke="#63b8ff" points="567.38,-203.84 574.68,-196.16 564.18,-197.61 567.38,-203.84"/>
</g>
<!-- Node12 -->
<g id="node12" class="node">
<title>Node12</title>
<g id="a_node12"><a xlink:title=" ">
<polygon fill="#e0e0e0" stroke="#999999" points="523.5,-134.5 485.5,-134.5 485.5,-115.5 523.5,-115.5 523.5,-134.5"/>
<text text-anchor="middle" x="504.5" y="-122.5" font-family="Helvetica,sans-Serif" font-size="10.00">array</text>
</a>
</g>
</g>
<!-- Node11&#45;&gt;Node12 -->
<g id="edge12" class="edge">
<title>Node11&#45;&gt;Node12</title>
<path fill="none" stroke="#63b8ff" d="M452.76,-175.62C461.81,-166.94 475.81,-153.52 486.96,-142.82"/>
<polygon fill="#63b8ff" stroke="#63b8ff" points="489.26,-145.46 494.06,-136.02 484.42,-140.41 489.26,-145.46"/>
</g>
<!-- Node13 -->
<g id="node13" class="node">
<title>Node13</title>
<g id="a_node13"><a xlink:title=" ">
<polygon fill="#e0e0e0" stroke="#999999" points="291.5,-134.5 163.5,-134.5 163.5,-115.5 291.5,-115.5 291.5,-134.5"/>
<text text-anchor="middle" x="227.5" y="-122.5" font-family="Helvetica,sans-Serif" font-size="10.00">boost/functional/hash.hpp</text>
</a>
</g>
</g>
<!-- Node11&#45;&gt;Node13 -->
<g id="edge13" class="edge">
<title>Node11&#45;&gt;Node13</title>
<path fill="none" stroke="#63b8ff" d="M410.69,-175.62C373.58,-165.56 312.96,-149.15 271.7,-137.97"/>
<polygon fill="#63b8ff" stroke="#63b8ff" points="272.64,-134.6 262.08,-135.36 270.81,-141.36 272.64,-134.6"/>
</g>
<!-- Node14 -->
<g id="node14" class="node">
<title>Node14</title>
<g id="a_node14"><a xlink:href="hexutil_8hpp.html" target="_top" xlink:title=" ">
<polygon fill="white" stroke="#666666" points="395.5,-134.5 309.5,-134.5 309.5,-115.5 395.5,-115.5 395.5,-134.5"/>
<text text-anchor="middle" x="352.5" y="-122.5" font-family="Helvetica,sans-Serif" font-size="10.00">base/hexutil.hpp</text>
</a>
</g>
</g>
<!-- Node11&#45;&gt;Node14 -->
<g id="edge14" class="edge">
<title>Node11&#45;&gt;Node14</title>
<path fill="none" stroke="#63b8ff" d="M429.68,-175.62C415.38,-166.42 392.8,-151.91 375.75,-140.94"/>
<polygon fill="#63b8ff" stroke="#63b8ff" points="378.03,-138.25 367.72,-135.79 374.24,-144.14 378.03,-138.25"/>
</g>
<!-- Node17 -->
<g id="node17" class="node">
<title>Node17</title>
<g id="a_node17"><a xlink:title=" ">
<polygon fill="#e0e0e0" stroke="#999999" points="467.5,-134.5 413.5,-134.5 413.5,-115.5 467.5,-115.5 467.5,-134.5"/>
<text text-anchor="middle" x="440.5" y="-122.5" font-family="Helvetica,sans-Serif" font-size="10.00">iostream</text>
</a>
</g>
</g>
<!-- Node11&#45;&gt;Node17 -->
<g id="edge19" class="edge">
<title>Node11&#45;&gt;Node17</title>
<path fill="none" stroke="#63b8ff" d="M443.06,-175.87C442.65,-168 442.04,-156.1 441.52,-145.89"/>
<polygon fill="#63b8ff" stroke="#63b8ff" points="445.03,-145.99 441.02,-136.18 438.04,-146.35 445.03,-145.99"/>
</g>
<!-- Node14&#45;&gt;Node5 -->
<g id="edge17" class="edge">
<title>Node14&#45;&gt;Node5</title>
<path fill="none" stroke="#63b8ff" d="M383.71,-115C390.53,-113.2 397.73,-111.43 404.5,-110 493.28,-91.25 599.01,-76.93 654.37,-70.04"/>
<polygon fill="#63b8ff" stroke="#63b8ff" points="654.72,-73.52 664.22,-68.83 653.87,-66.57 654.72,-73.52"/>
</g>
<!-- Node14&#45;&gt;Node6 -->
<g id="edge18" class="edge">
<title>Node14&#45;&gt;Node6</title>
<path fill="none" stroke="#63b8ff" d="M328.66,-115.12C302.49,-105.37 260.24,-89.62 230.36,-78.49"/>
<polygon fill="#63b8ff" stroke="#63b8ff" points="231.58,-75.21 220.99,-75 229.14,-81.77 231.58,-75.21"/>
</g>
<!-- Node15 -->
<g id="node15" class="node">
<title>Node15</title>
<g id="a_node15"><a xlink:title=" ">
<polygon fill="#e0e0e0" stroke="#999999" points="421.5,-74 355.5,-74 355.5,-55 421.5,-55 421.5,-74"/>
<text text-anchor="middle" x="388.5" y="-62" font-family="Helvetica,sans-Serif" font-size="10.00">string_view</text>
</a>
</g>
</g>
<!-- Node14&#45;&gt;Node15 -->
<g id="edge15" class="edge">
<title>Node14&#45;&gt;Node15</title>
<path fill="none" stroke="#63b8ff" d="M357.81,-115.37C362.92,-107.07 370.79,-94.28 377.29,-83.72"/>
<polygon fill="#63b8ff" stroke="#63b8ff" points="380.11,-85.81 382.37,-75.46 374.15,-82.14 380.11,-85.81"/>
</g>
<!-- Node16 -->
<g id="node16" class="node">
<title>Node16</title>
<g id="a_node16"><a xlink:title=" ">
<polygon fill="#e0e0e0" stroke="#999999" points="337.5,-74 293.5,-74 293.5,-55 337.5,-55 337.5,-74"/>
<text text-anchor="middle" x="315.5" y="-62" font-family="Helvetica,sans-Serif" font-size="10.00">vector</text>
</a>
</g>
</g>
<!-- Node14&#45;&gt;Node16 -->
<g id="edge16" class="edge">
<title>Node14&#45;&gt;Node16</title>
<path fill="none" stroke="#63b8ff" d="M347.04,-115.37C341.79,-107.07 333.7,-94.28 327.03,-83.72"/>
<polygon fill="#63b8ff" stroke="#63b8ff" points="330.09,-82.03 321.79,-75.45 324.18,-85.77 330.09,-82.03"/>
</g>
<!-- Node18&#45;&gt;Node5 -->
<g id="edge22" class="edge">
<title>Node18&#45;&gt;Node5</title>
<path fill="none" stroke="#63b8ff" d="M609.65,-175.63C622.99,-167.67 641.74,-154.96 654.5,-140 668.61,-123.45 679.22,-100.76 685.59,-84.78"/>
<polygon fill="#63b8ff" stroke="#63b8ff" points="688.84,-86.09 689.1,-75.5 682.29,-83.62 688.84,-86.09"/>
</g>
<!-- Node18&#45;&gt;Node10 -->
<g id="edge21" class="edge">
<title>Node18&#45;&gt;Node10</title>
<path fill="none" stroke="#63b8ff" d="M593.5,-175.87C593.5,-169.4 593.5,-160.2 593.5,-151.45"/>
<polygon fill="#63b8ff" stroke="#63b8ff" points="597,-151.63 593.5,-141.63 590,-151.63 597,-151.63"/>
</g>
</g>
</svg>
        <g id="navigator" transform="translate(0 0)" fill="#404254">
                <rect fill="#f2f5e9" fill-opacity="0.5" stroke="#606060" stroke-width=".5" x="0" y="0" width="60" height="60"/>
                <use id="zoomplus" xlink:href="#zoomPlus" x="17" y="9" onmousedown="handleZoom(evt,'in')"/>
                <use id="zoomminus" xlink:href="#zoomMin" x="42" y="9" onmousedown="handleZoom(evt,'out')"/>
                <use id="reset" xlink:href="#resetDef" x="30" y="36" onmousedown="handleReset()"/>
                <g id="arrowUp" xlink:href="#dirArrow" transform="translate(30 24)" onmousedown="handlePan(0,-1)">
                  <use xlink:href="#rim" fill="#404040">
                        <set attributeName="fill" to="#808080" begin="arrowUp.mouseover" end="arrowUp.mouseout"/>
                  </use>
                  <path fill="none" stroke="white" stroke-width="1.5" d="M0,-3.0v7 M-2.5,-0.5L0,-3.0L2.5,-0.5"/>
                </g>
                <g id="arrowRight" xlink:href="#dirArrow" transform="rotate(90) translate(36 -43)" onmousedown="handlePan(1,0)">
                  <use xlink:href="#rim" fill="#404040">
                        <set attributeName="fill" to="#808080" begin="arrowRight.mouseover" end="arrowRight.mouseout"/>
                  </use>
                  <path fill="none" stroke="white" stroke-width="1.5" d="M0,-3.0v7 M-2.5,-0.5L0,-3.0L2.5,-0.5"/>
                </g>
                <g id="arrowDown" xlink:href="#dirArrow" transform="rotate(180) translate(-30 -48)" onmousedown="handlePan(0,1)">
                  <use xlink:href="#rim" fill="#404040">
                        <set attributeName="fill" to="#808080" begin="arrowDown.mouseover" end="arrowDown.mouseout"/>
                  </use>
                  <path fill="none" stroke="white" stroke-width="1.5" d="M0,-3.0v7 M-2.5,-0.5L0,-3.0L2.5,-0.5"/>
                </g>
                <g id="arrowLeft" xlink:href="#dirArrow" transform="rotate(270) translate(-36 17)" onmousedown="handlePan(-1,0)">
                  <use xlink:href="#rim" fill="#404040">
                        <set attributeName="fill" to="#808080" begin="arrowLeft.mouseover" end="arrowLeft.mouseout"/>
                  </use>
                  <path fill="none" stroke="white" stroke-width="1.5" d="M0,-3.0v7 M-2.5,-0.5L0,-3.0L2.5,-0.5"/>
                </g>
        </g>
        <svg viewBox="0 0 15 15" width="100%" height="30px" preserveAspectRatio="xMaxYMin meet">
         <g id="arrow_out" transform="scale(0.3 0.3)">
          <a xlink:href="sr25519__provider__impl_8hpp__incl_org.svg" target="_base">
           <rect id="button" ry="5" rx="5" y="6" x="6" height="38" width="38"
                fill="#f2f5e9" fill-opacity="0.5" stroke="#606060" stroke-width="1.0"/>
           <path id="arrow"
             d="M 11.500037,31.436501 C 11.940474,20.09759 22.043105,11.32322 32.158766,21.979434 L 37.068811,17.246167 C 37.068811,17.246167 37.088388,32 37.088388,32 L 22.160133,31.978069 C 22.160133,31.978069 26.997745,27.140456 26.997745,27.140456 C 18.528582,18.264221 13.291696,25.230495 11.500037,31.436501 z"
             style="fill:#404040;"/>
          </a>
         </g>
        </svg>
</svg>
