<?xml version="1.0" encoding="UTF-8" standalone="no"?>
<!DOCTYPE svg PUBLIC "-//W3C//DTD SVG 1.1//EN"
 "http://www.w3.org/Graphics/SVG/1.1/DTD/svg11.dtd">
<!-- Generated by graphviz version 7.0.5 (20221223.1930)
 -->
<!-- Title: src/blockchain/impl/common.hpp Pages: 1 -->
<!--zoomable 533 -->
<svg id="main" version="1.1" xmlns="http://www.w3.org/2000/svg" xmlns:xlink="http://www.w3.org/1999/xlink" xml:space="preserve" onload="init(evt)">
<style type="text/css"><![CDATA[
.edge:hover path { stroke: red; }
.edge:hover polygon { stroke: red; fill: red; }
]]></style>
<script type="text/javascript"><![CDATA[
var edges = document.getElementsByTagName('g');
if (edges && edges.length) {
  for (var i=0;i<edges.length;i++) {
    if (edges[i].id.substr(0,4)=='edge') {
      edges[i].setAttribute('class','edge');
    }
  }
}
]]></script>
        <defs>
                <circle id="rim" cx="0" cy="0" r="7"/>
                <circle id="rim2" cx="0" cy="0" r="3.5"/>
                <g id="zoomPlus">
                        <use xlink:href="#rim" fill="#404040">
                                <set attributeName="fill" to="#808080" begin="zoomplus.mouseover" end="zoomplus.mouseout"/>
                        </use>
                        <path d="M-4,0h8M0,-4v8" fill="none" stroke="white" stroke-width="1.5" pointer-events="none"/>
                </g>
                <g id="zoomMin">
                        <use xlink:href="#rim" fill="#404040">
                                <set attributeName="fill" to="#808080" begin="zoomminus.mouseover" end="zoomminus.mouseout"/>
                        </use>
                        <path d="M-4,0h8" fill="none" stroke="white" stroke-width="1.5" pointer-events="none"/>
                </g>
                <g id="dirArrow">
                        <path fill="none" stroke="white" stroke-width="1.5" d="M0,-3.0v7 M-2.5,-0.5L0,-3.0L2.5,-0.5"/>
                </g>
               <g id="resetDef">
                       <use xlink:href="#rim2" fill="#404040">
                               <set attributeName="fill" to="#808080" begin="reset.mouseover" end="reset.mouseout"/>
                       </use>
               </g>
        </defs>

<script type="text/javascript">
var viewWidth = 1121;
var viewHeight = 533;
var sectionId = 'dynsection-0';
</script>
<script xlink:href="svgpan.js"/>
<svg id="graph" class="graph">
<g id="viewport">
<title>src/blockchain/impl/common.hpp</title>
<!-- Node1 -->
<g id="node1" class="node">
<title>Node1</title>
<g id="a_node1"><a xlink:title=" ">
<polygon fill="#999999" stroke="#666666" points="321.5,-525 220.5,-525 220.5,-495 321.5,-495 321.5,-525"/>
<text text-anchor="start" x="228.5" y="-513" font-family="Helvetica,sans-Serif" font-size="10.00">src/blockchain/impl</text>
<text text-anchor="middle" x="271" y="-502" font-family="Helvetica,sans-Serif" font-size="10.00">/common.hpp</text>
</a>
</g>
</g>
<!-- Node2 -->
<g id="node2" class="node">
<title>Node2</title>
<g id="a_node2"><a xlink:href="outcome_8hpp.html" target="_top" xlink:title=" ">
<polygon fill="white" stroke="#666666" points="638.5,-74 525.5,-74 525.5,-55 638.5,-55 638.5,-74"/>
<text text-anchor="middle" x="582" y="-62" font-family="Helvetica,sans-Serif" font-size="10.00">outcome/outcome.hpp</text>
</a>
</g>
</g>
<!-- Node1&#45;&gt;Node2 -->
<g id="edge1" class="edge">
<title>Node1&#45;&gt;Node2</title>
<path fill="none" stroke="#63b8ff" d="M220.03,-506.82C141.52,-500.44 0,-475.54 0,-379 0,-379 0,-379 0,-190 0,-85.92 360.42,-68.55 514,-65.87"/>
<polygon fill="#63b8ff" stroke="#63b8ff" points="513.68,-69.38 523.62,-65.72 513.57,-62.38 513.68,-69.38"/>
</g>
<!-- Node4 -->
<g id="node4" class="node">
<title>Node4</title>
<g id="a_node4"><a xlink:href="buffer_8hpp.html" target="_top" xlink:title=" ">
<polygon fill="white" stroke="#666666" points="489.5,-200.5 406.5,-200.5 406.5,-181.5 489.5,-181.5 489.5,-200.5"/>
<text text-anchor="middle" x="448" y="-188.5" font-family="Helvetica,sans-Serif" font-size="10.00">base/buffer.hpp</text>
</a>
</g>
</g>
<!-- Node1&#45;&gt;Node4 -->
<g id="edge3" class="edge">
<title>Node1&#45;&gt;Node4</title>
<path fill="none" stroke="#63b8ff" d="M262.04,-494.76C256.5,-485.08 249.91,-471.77 247,-459 244.04,-446 244.51,-442.1 247,-429 259.02,-365.69 265.33,-346.16 307,-297 340.37,-257.64 391.16,-224.47 421.81,-206.48"/>
<polygon fill="#63b8ff" stroke="#63b8ff" points="423.51,-209.54 430.43,-201.52 420.02,-203.47 423.51,-209.54"/>
</g>
<!-- Node10 -->
<g id="node10" class="node">
<title>Node10</title>
<g id="a_node10"><a xlink:href="block__id_8hpp.html" target="_top" xlink:title=" ">
<polygon fill="white" stroke="#666666" points="372,-453.5 256,-453.5 256,-434.5 372,-434.5 372,-453.5"/>
<text text-anchor="middle" x="314" y="-441.5" font-family="Helvetica,sans-Serif" font-size="10.00">primitives/block_id.hpp</text>
</a>
</g>
</g>
<!-- Node1&#45;&gt;Node10 -->
<g id="edge10" class="edge">
<title>Node1&#45;&gt;Node10</title>
<path fill="none" stroke="#63b8ff" d="M280.54,-494.8C286.79,-485.5 295,-473.27 301.73,-463.26"/>
<polygon fill="#63b8ff" stroke="#63b8ff" points="304.54,-465.35 307.21,-455.1 298.73,-461.45 304.54,-465.35"/>
</g>
<!-- Node20 -->
<g id="node20" class="node">
<title>Node20</title>
<g id="a_node20"><a xlink:href="buffer__map__types_8hpp.html" target="_top" xlink:title=" ">
<polygon fill="white" stroke="#666666" points="754,-459 654,-459 654,-429 754,-429 754,-459"/>
<text text-anchor="start" x="662" y="-447" font-family="Helvetica,sans-Serif" font-size="10.00">storage/buffer_map</text>
<text text-anchor="middle" x="704" y="-436" font-family="Helvetica,sans-Serif" font-size="10.00">_types.hpp</text>
</a>
</g>
</g>
<!-- Node1&#45;&gt;Node20 -->
<g id="edge26" class="edge">
<title>Node1&#45;&gt;Node20</title>
<path fill="none" stroke="#63b8ff" d="M321.94,-501.47C401.85,-489.66 556.4,-466.82 642.43,-454.1"/>
<polygon fill="#63b8ff" stroke="#63b8ff" points="642.71,-457.6 652.09,-452.67 641.68,-450.67 642.71,-457.6"/>
</g>
<!-- Node3 -->
<g id="node3" class="node">
<title>Node3</title>
<g id="a_node3"><a xlink:title=" ">
<polygon fill="#e0e0e0" stroke="#999999" points="652.5,-19 511.5,-19 511.5,0 652.5,0 652.5,-19"/>
<text text-anchor="middle" x="582" y="-7" font-family="Helvetica,sans-Serif" font-size="10.00">libp2p/outcome/outcome.hpp</text>
</a>
</g>
</g>
<!-- Node2&#45;&gt;Node3 -->
<g id="edge2" class="edge">
<title>Node2&#45;&gt;Node3</title>
<path fill="none" stroke="#63b8ff" d="M582,-54.75C582,-48.27 582,-39.16 582,-30.9"/>
<polygon fill="#63b8ff" stroke="#63b8ff" points="585.5,-30.96 582,-20.96 578.5,-30.96 585.5,-30.96"/>
</g>
<!-- Node4&#45;&gt;Node2 -->
<g id="edge9" class="edge">
<title>Node4&#45;&gt;Node2</title>
<path fill="none" stroke="#63b8ff" d="M455.29,-181.09C468.03,-165.76 495.52,-133.75 522,-110 533.65,-99.55 547.64,-89.07 559.19,-80.9"/>
<polygon fill="#63b8ff" stroke="#63b8ff" points="561.12,-83.82 567.34,-75.24 557.13,-78.07 561.12,-83.82"/>
</g>
<!-- Node5 -->
<g id="node5" class="node">
<title>Node5</title>
<g id="a_node5"><a xlink:title=" ">
<polygon fill="#e0e0e0" stroke="#999999" points="213,-134.5 147,-134.5 147,-115.5 213,-115.5 213,-134.5"/>
<text text-anchor="middle" x="180" y="-122.5" font-family="Helvetica,sans-Serif" font-size="10.00">string_view</text>
</a>
</g>
</g>
<!-- Node4&#45;&gt;Node5 -->
<g id="edge4" class="edge">
<title>Node4&#45;&gt;Node5</title>
<path fill="none" stroke="#63b8ff" d="M416.52,-181.02C410.09,-179.27 403.34,-177.52 397,-176 319.78,-157.48 298.69,-160.59 222,-140 220.03,-139.47 218.01,-138.9 215.98,-138.3"/>
<polygon fill="#63b8ff" stroke="#63b8ff" points="217.2,-135.02 206.62,-135.38 215.12,-141.7 217.2,-135.02"/>
</g>
<!-- Node6 -->
<g id="node6" class="node">
<title>Node6</title>
<g id="a_node6"><a xlink:title=" ">
<polygon fill="#e0e0e0" stroke="#999999" points="275,-134.5 231,-134.5 231,-115.5 275,-115.5 275,-134.5"/>
<text text-anchor="middle" x="253" y="-122.5" font-family="Helvetica,sans-Serif" font-size="10.00">vector</text>
</a>
</g>
</g>
<!-- Node4&#45;&gt;Node6 -->
<g id="edge5" class="edge">
<title>Node4&#45;&gt;Node6</title>
<path fill="none" stroke="#63b8ff" d="M416.8,-181.01C376.45,-169.29 308.44,-149.2 284,-140 283.38,-139.77 282.75,-139.53 282.12,-139.28"/>
<polygon fill="#63b8ff" stroke="#63b8ff" points="283.83,-136.2 273.25,-135.56 281.12,-142.66 283.83,-136.2"/>
</g>
<!-- Node7 -->
<g id="node7" class="node">
<title>Node7</title>
<g id="a_node7"><a xlink:title=" ">
<polygon fill="#e0e0e0" stroke="#999999" points="403,-140 293,-140 293,-110 403,-110 403,-140"/>
<text text-anchor="start" x="301" y="-128" font-family="Helvetica,sans-Serif" font-size="10.00">boost/container_hash</text>
<text text-anchor="middle" x="348" y="-117" font-family="Helvetica,sans-Serif" font-size="10.00">/hash.hpp</text>
</a>
</g>
</g>
<!-- Node4&#45;&gt;Node7 -->
<g id="edge6" class="edge">
<title>Node4&#45;&gt;Node7</title>
<path fill="none" stroke="#63b8ff" d="M434.1,-181.1C420.24,-172.23 398.46,-158.3 380.28,-146.66"/>
<polygon fill="#63b8ff" stroke="#63b8ff" points="382.21,-143.74 371.9,-141.29 378.43,-149.63 382.21,-143.74"/>
</g>
<!-- Node8 -->
<g id="node8" class="node">
<title>Node8</title>
<g id="a_node8"><a xlink:title=" ">
<polygon fill="#e0e0e0" stroke="#999999" points="633,-134.5 531,-134.5 531,-115.5 633,-115.5 633,-134.5"/>
<text text-anchor="middle" x="582" y="-122.5" font-family="Helvetica,sans-Serif" font-size="10.00">boost/operators.hpp</text>
</a>
</g>
</g>
<!-- Node4&#45;&gt;Node8 -->
<g id="edge7" class="edge">
<title>Node4&#45;&gt;Node8</title>
<path fill="none" stroke="#63b8ff" d="M466.63,-181.1C489.13,-170.35 527.22,-152.16 553.44,-139.64"/>
<polygon fill="#63b8ff" stroke="#63b8ff" points="554.65,-142.94 562.16,-135.48 551.63,-136.63 554.65,-142.94"/>
</g>
<!-- Node9 -->
<g id="node9" class="node">
<title>Node9</title>
<g id="a_node9"><a xlink:title=" ">
<polygon fill="#e0e0e0" stroke="#999999" points="474.5,-134.5 421.5,-134.5 421.5,-115.5 474.5,-115.5 474.5,-134.5"/>
<text text-anchor="middle" x="448" y="-122.5" font-family="Helvetica,sans-Serif" font-size="10.00">gsl/span</text>
</a>
</g>
</g>
<!-- Node4&#45;&gt;Node9 -->
<g id="edge8" class="edge">
<title>Node4&#45;&gt;Node9</title>
<path fill="none" stroke="#63b8ff" d="M448,-181.1C448,-172.12 448,-157.95 448,-146.22"/>
<polygon fill="#63b8ff" stroke="#63b8ff" points="451.5,-146.34 448,-136.34 444.5,-146.34 451.5,-146.34"/>
</g>
<!-- Node11 -->
<g id="node11" class="node">
<title>Node11</title>
<g id="a_node11"><a xlink:title=" ">
<polygon fill="#e0e0e0" stroke="#999999" points="372.5,-387.5 281.5,-387.5 281.5,-368.5 372.5,-368.5 372.5,-387.5"/>
<text text-anchor="middle" x="327" y="-375.5" font-family="Helvetica,sans-Serif" font-size="10.00">boost/variant.hpp</text>
</a>
</g>
</g>
<!-- Node10&#45;&gt;Node11 -->
<g id="edge11" class="edge">
<title>Node10&#45;&gt;Node11</title>
<path fill="none" stroke="#63b8ff" d="M315.81,-434.1C317.65,-425.03 320.57,-410.64 322.97,-398.85"/>
<polygon fill="#63b8ff" stroke="#63b8ff" points="326.35,-399.8 324.91,-389.31 319.49,-398.41 326.35,-399.8"/>
</g>
<!-- Node12 -->
<g id="node12" class="node">
<title>Node12</title>
<g id="a_node12"><a xlink:href="blob_8hpp.html" target="_top" xlink:title=" ">
<polygon fill="white" stroke="#666666" points="258.5,-261 181.5,-261 181.5,-242 258.5,-242 258.5,-261"/>
<text text-anchor="middle" x="220" y="-249" font-family="Helvetica,sans-Serif" font-size="10.00">base/blob.hpp</text>
</a>
</g>
</g>
<!-- Node10&#45;&gt;Node12 -->
<g id="edge12" class="edge">
<title>Node10&#45;&gt;Node12</title>
<path fill="none" stroke="#63b8ff" d="M305.15,-434.1C296.1,-424.59 282.1,-408.75 273,-393 249.82,-352.87 233.28,-300.72 225.33,-272.6"/>
<polygon fill="#63b8ff" stroke="#63b8ff" points="228.71,-271.68 222.69,-262.96 221.95,-273.53 228.71,-271.68"/>
</g>
<!-- Node17 -->
<g id="node17" class="node">
<title>Node17</title>
<g id="a_node17"><a xlink:href="src_2primitives_2common_8hpp.html" target="_top" xlink:title=" ">
<polygon fill="white" stroke="#666666" points="507.5,-387.5 390.5,-387.5 390.5,-368.5 507.5,-368.5 507.5,-387.5"/>
<text text-anchor="middle" x="449" y="-375.5" font-family="Helvetica,sans-Serif" font-size="10.00">primitives/common.hpp</text>
</a>
</g>
</g>
<!-- Node10&#45;&gt;Node17 -->
<g id="edge21" class="edge">
<title>Node10&#45;&gt;Node17</title>
<path fill="none" stroke="#63b8ff" d="M332.77,-434.1C355.44,-423.35 393.81,-405.16 420.22,-392.64"/>
<polygon fill="#63b8ff" stroke="#63b8ff" points="421.48,-395.92 429.02,-388.47 418.49,-389.59 421.48,-395.92"/>
</g>
<!-- Node13 -->
<g id="node13" class="node">
<title>Node13</title>
<g id="a_node13"><a xlink:title=" ">
<polygon fill="#e0e0e0" stroke="#999999" points="138,-200.5 100,-200.5 100,-181.5 138,-181.5 138,-200.5"/>
<text text-anchor="middle" x="119" y="-188.5" font-family="Helvetica,sans-Serif" font-size="10.00">array</text>
</a>
</g>
</g>
<!-- Node12&#45;&gt;Node13 -->
<g id="edge13" class="edge">
<title>Node12&#45;&gt;Node13</title>
<path fill="none" stroke="#63b8ff" d="M204.66,-241.62C188.64,-232.34 163.26,-217.63 144.27,-206.64"/>
<polygon fill="#63b8ff" stroke="#63b8ff" points="146.2,-203.71 135.79,-201.73 142.69,-209.77 146.2,-203.71"/>
</g>
<!-- Node14 -->
<g id="node14" class="node">
<title>Node14</title>
<g id="a_node14"><a xlink:title=" ">
<polygon fill="#e0e0e0" stroke="#999999" points="284,-200.5 156,-200.5 156,-181.5 284,-181.5 284,-200.5"/>
<text text-anchor="middle" x="220" y="-188.5" font-family="Helvetica,sans-Serif" font-size="10.00">boost/functional/hash.hpp</text>
</a>
</g>
</g>
<!-- Node12&#45;&gt;Node14 -->
<g id="edge14" class="edge">
<title>Node12&#45;&gt;Node14</title>
<path fill="none" stroke="#63b8ff" d="M220,-241.87C220,-234 220,-222.1 220,-211.89"/>
<polygon fill="#63b8ff" stroke="#63b8ff" points="223.5,-212.18 220,-202.18 216.5,-212.18 223.5,-212.18"/>
</g>
<!-- Node15 -->
<g id="node15" class="node">
<title>Node15</title>
<g id="a_node15"><a xlink:href="hexutil_8hpp.html" target="_top" xlink:title=" ">
<polygon fill="white" stroke="#666666" points="388,-200.5 302,-200.5 302,-181.5 388,-181.5 388,-200.5"/>
<text text-anchor="middle" x="345" y="-188.5" font-family="Helvetica,sans-Serif" font-size="10.00">base/hexutil.hpp</text>
</a>
</g>
</g>
<!-- Node12&#45;&gt;Node15 -->
<g id="edge15" class="edge">
<title>Node12&#45;&gt;Node15</title>
<path fill="none" stroke="#63b8ff" d="M238.98,-241.62C259.36,-232.08 291.98,-216.81 315.66,-205.73"/>
<polygon fill="#63b8ff" stroke="#63b8ff" points="316.89,-209.02 324.47,-201.61 313.92,-202.68 316.89,-209.02"/>
</g>
<!-- Node16 -->
<g id="node16" class="node">
<title>Node16</title>
<g id="a_node16"><a xlink:title=" ">
<polygon fill="#e0e0e0" stroke="#999999" points="82,-200.5 28,-200.5 28,-181.5 82,-181.5 82,-200.5"/>
<text text-anchor="middle" x="55" y="-188.5" font-family="Helvetica,sans-Serif" font-size="10.00">iostream</text>
</a>
</g>
</g>
<!-- Node12&#45;&gt;Node16 -->
<g id="edge20" class="edge">
<title>Node12&#45;&gt;Node16</title>
<path fill="none" stroke="#63b8ff" d="M193.21,-241.6C167.04,-232.82 126.14,-218.89 91,-206 90.04,-205.65 89.06,-205.29 88.07,-204.92"/>
<polygon fill="#63b8ff" stroke="#63b8ff" points="89.42,-201.69 78.83,-201.41 86.94,-208.23 89.42,-201.69"/>
</g>
<!-- Node15&#45;&gt;Node2 -->
<g id="edge19" class="edge">
<title>Node15&#45;&gt;Node2</title>
<path fill="none" stroke="#63b8ff" d="M312.31,-181.01C305.92,-179.31 299.26,-177.57 293,-176 220.37,-157.8 87.77,-165.52 138,-110 162.71,-82.69 395.71,-71.4 513.92,-67.4"/>
<polygon fill="#63b8ff" stroke="#63b8ff" points="513.94,-70.9 523.82,-67.07 513.71,-63.9 513.94,-70.9"/>
</g>
<!-- Node15&#45;&gt;Node5 -->
<g id="edge16" class="edge">
<title>Node15&#45;&gt;Node5</title>
<path fill="none" stroke="#63b8ff" d="M322.06,-181.1C293.94,-170.19 246.05,-151.62 213.74,-139.09"/>
<polygon fill="#63b8ff" stroke="#63b8ff" points="215.01,-135.83 204.42,-135.47 212.48,-142.35 215.01,-135.83"/>
</g>
<!-- Node15&#45;&gt;Node6 -->
<g id="edge17" class="edge">
<title>Node15&#45;&gt;Node6</title>
<path fill="none" stroke="#63b8ff" d="M332.21,-181.1C317.45,-170.83 292.91,-153.77 275.06,-141.34"/>
<polygon fill="#63b8ff" stroke="#63b8ff" points="277.13,-138.53 266.93,-135.69 273.14,-144.27 277.13,-138.53"/>
</g>
<!-- Node15&#45;&gt;Node9 -->
<g id="edge18" class="edge">
<title>Node15&#45;&gt;Node9</title>
<path fill="none" stroke="#63b8ff" d="M359.32,-181.1C376.08,-170.69 404.08,-153.29 424.14,-140.83"/>
<polygon fill="#63b8ff" stroke="#63b8ff" points="425.87,-143.87 432.51,-135.62 422.17,-137.93 425.87,-143.87"/>
</g>
<!-- Node17&#45;&gt;Node8 -->
<g id="edge23" class="edge">
<title>Node17&#45;&gt;Node8</title>
<path fill="none" stroke="#63b8ff" d="M455.9,-368.07C463.3,-358.28 475.18,-341.97 484,-327 521.88,-262.68 558.14,-181.6 573.84,-145.21"/>
<polygon fill="#63b8ff" stroke="#63b8ff" points="577.04,-146.64 577.76,-136.07 570.61,-143.88 577.04,-146.64"/>
</g>
<!-- Node18 -->
<g id="node18" class="node">
<title>Node18</title>
<g id="a_node18"><a xlink:title=" ">
<polygon fill="#e0e0e0" stroke="#999999" points="475,-321.5 429,-321.5 429,-302.5 475,-302.5 475,-321.5"/>
<text text-anchor="middle" x="452" y="-309.5" font-family="Helvetica,sans-Serif" font-size="10.00">cstdint</text>
</a>
</g>
</g>
<!-- Node17&#45;&gt;Node18 -->
<g id="edge22" class="edge">
<title>Node17&#45;&gt;Node18</title>
<path fill="none" stroke="#63b8ff" d="M449.42,-368.1C449.84,-359.12 450.5,-344.95 451.05,-333.22"/>
<polygon fill="#63b8ff" stroke="#63b8ff" points="454.54,-333.49 451.52,-323.34 447.55,-333.16 454.54,-333.49"/>
</g>
<!-- Node19 -->
<g id="node19" class="node">
<title>Node19</title>
<g id="a_node19"><a xlink:href="session__key_8hpp.html" target="_top" xlink:title=" ">
<polygon fill="white" stroke="#666666" points="410.5,-327 315.5,-327 315.5,-297 410.5,-297 410.5,-327"/>
<text text-anchor="start" x="323.5" y="-315" font-family="Helvetica,sans-Serif" font-size="10.00">primitives/session</text>
<text text-anchor="middle" x="363" y="-304" font-family="Helvetica,sans-Serif" font-size="10.00">_key.hpp</text>
</a>
</g>
</g>
<!-- Node17&#45;&gt;Node19 -->
<g id="edge24" class="edge">
<title>Node17&#45;&gt;Node19</title>
<path fill="none" stroke="#63b8ff" d="M437.04,-368.1C425.35,-359.4 407.09,-345.81 391.63,-334.31"/>
<polygon fill="#63b8ff" stroke="#63b8ff" points="393.78,-331.54 383.67,-328.38 389.6,-337.16 393.78,-331.54"/>
</g>
<!-- Node19&#45;&gt;Node12 -->
<g id="edge25" class="edge">
<title>Node19&#45;&gt;Node12</title>
<path fill="none" stroke="#63b8ff" d="M327.65,-296.54C304.48,-287.06 274.44,-274.77 251.98,-265.58"/>
<polygon fill="#63b8ff" stroke="#63b8ff" points="253.61,-262.47 243.02,-261.92 250.96,-268.95 253.61,-262.47"/>
</g>
<!-- Node20&#45;&gt;Node4 -->
<g id="edge28" class="edge">
<title>Node20&#45;&gt;Node4</title>
<path fill="none" stroke="#63b8ff" d="M661.53,-428.53C640.97,-420.2 616.75,-408.32 598,-393 531.72,-338.83 478.78,-249.32 457.78,-210.7"/>
<polygon fill="#63b8ff" stroke="#63b8ff" points="461.02,-209.34 453.22,-202.16 454.84,-212.63 461.02,-209.34"/>
</g>
<!-- Node20&#45;&gt;Node9 -->
<g id="edge27" class="edge">
<title>Node20&#45;&gt;Node9</title>
<path fill="none" stroke="#63b8ff" d="M684.49,-428.59C657.48,-406.82 612,-362.77 612,-313 612,-313 612,-313 612,-250.5 612,-187.32 533.84,-152.04 485.43,-136.25"/>
<polygon fill="#63b8ff" stroke="#63b8ff" points="486.75,-132.99 476.16,-133.36 484.67,-139.67 486.75,-132.99"/>
</g>
<!-- Node21 -->
<g id="node21" class="node">
<title>Node21</title>
<g id="a_node21"><a xlink:href="batchable_8hpp.html" target="_top" xlink:title=" ">
<polygon fill="white" stroke="#666666" points="1100,-261 966,-261 966,-242 1100,-242 1100,-261"/>
<text text-anchor="middle" x="1033" y="-249" font-family="Helvetica,sans-Serif" font-size="10.00">storage/face/batchable.hpp</text>
</a>
</g>
</g>
<!-- Node20&#45;&gt;Node21 -->
<g id="edge29" class="edge">
<title>Node20&#45;&gt;Node21</title>
<path fill="none" stroke="#63b8ff" d="M738.14,-428.59C759.67,-419.15 787.88,-406.17 812,-393 887.45,-351.79 972.02,-294.8 1011.07,-267.83"/>
<polygon fill="#63b8ff" stroke="#63b8ff" points="1012.94,-270.79 1019.16,-262.21 1008.95,-265.03 1012.94,-270.79"/>
</g>
<!-- Node23 -->
<g id="node23" class="node">
<title>Node23</title>
<g id="a_node23"><a xlink:href="write__batch_8hpp.html" target="_top" xlink:title=" ">
<polygon fill="white" stroke="#666666" points="1088.5,-206 993.5,-206 993.5,-176 1088.5,-176 1088.5,-206"/>
<text text-anchor="start" x="1001.5" y="-194" font-family="Helvetica,sans-Serif" font-size="10.00">storage/face/write</text>
<text text-anchor="middle" x="1041" y="-183" font-family="Helvetica,sans-Serif" font-size="10.00">_batch.hpp</text>
</a>
</g>
</g>
<!-- Node20&#45;&gt;Node23 -->
<g id="edge46" class="edge">
<title>Node20&#45;&gt;Node23</title>
<path fill="none" stroke="#63b8ff" d="M754.19,-438.04C844.49,-426.06 1032.08,-386.54 1109,-261 1120.45,-242.31 1102.61,-224.76 1082.34,-212.04"/>
<polygon fill="#63b8ff" stroke="#63b8ff" points="1084.34,-209.15 1073.94,-207.14 1080.81,-215.2 1084.34,-209.15"/>
</g>
<!-- Node25 -->
<g id="node25" class="node">
<title>Node25</title>
<g id="a_node25"><a xlink:href="generic__storage_8hpp.html" target="_top" xlink:title=" ">
<polygon fill="white" stroke="#666666" points="802.5,-393 697.5,-393 697.5,-363 802.5,-363 802.5,-393"/>
<text text-anchor="start" x="705.5" y="-381" font-family="Helvetica,sans-Serif" font-size="10.00">storage/face/generic</text>
<text text-anchor="middle" x="750" y="-370" font-family="Helvetica,sans-Serif" font-size="10.00">_storage.hpp</text>
</a>
</g>
</g>
<!-- Node20&#45;&gt;Node25 -->
<g id="edge35" class="edge">
<title>Node20&#45;&gt;Node25</title>
<path fill="none" stroke="#63b8ff" d="M714.21,-428.8C719.81,-421.01 726.89,-411.16 733.27,-402.28"/>
<polygon fill="#63b8ff" stroke="#63b8ff" points="735.94,-404.56 738.94,-394.39 730.26,-400.47 735.94,-404.56"/>
</g>
<!-- Node22 -->
<g id="node22" class="node">
<title>Node22</title>
<g id="a_node22"><a xlink:title=" ">
<polygon fill="#e0e0e0" stroke="#999999" points="936.5,-200.5 885.5,-200.5 885.5,-181.5 936.5,-181.5 936.5,-200.5"/>
<text text-anchor="middle" x="911" y="-188.5" font-family="Helvetica,sans-Serif" font-size="10.00">memory</text>
</a>
</g>
</g>
<!-- Node21&#45;&gt;Node22 -->
<g id="edge30" class="edge">
<title>Node21&#45;&gt;Node22</title>
<path fill="none" stroke="#63b8ff" d="M1014.47,-241.62C994.68,-232.12 963.03,-216.95 939.95,-205.88"/>
<polygon fill="#63b8ff" stroke="#63b8ff" points="941.6,-202.79 931.07,-201.62 938.57,-209.1 941.6,-202.79"/>
</g>
<!-- Node21&#45;&gt;Node23 -->
<g id="edge31" class="edge">
<title>Node21&#45;&gt;Node23</title>
<path fill="none" stroke="#63b8ff" d="M1034.18,-241.87C1035.06,-235.4 1036.32,-226.2 1037.52,-217.45"/>
<polygon fill="#63b8ff" stroke="#63b8ff" points="1040.98,-218 1038.86,-207.61 1034.04,-217.05 1040.98,-218"/>
</g>
<!-- Node24 -->
<g id="node24" class="node">
<title>Node24</title>
<g id="a_node24"><a xlink:href="writeable_8hpp.html" target="_top" xlink:title=" ">
<polygon fill="white" stroke="#666666" points="976.5,-134.5 845.5,-134.5 845.5,-115.5 976.5,-115.5 976.5,-134.5"/>
<text text-anchor="middle" x="911" y="-122.5" font-family="Helvetica,sans-Serif" font-size="10.00">storage/face/writeable.hpp</text>
</a>
</g>
</g>
<!-- Node21&#45;&gt;Node24 -->
<g id="edge34" class="edge">
<title>Node21&#45;&gt;Node24</title>
<path fill="none" stroke="#63b8ff" d="M1022.86,-241.51C1013,-232.68 997.69,-218.7 985,-206 963.99,-184.96 940.89,-159.61 926.18,-143.16"/>
<polygon fill="#63b8ff" stroke="#63b8ff" points="928.84,-140.88 919.58,-135.74 923.61,-145.54 928.84,-140.88"/>
</g>
<!-- Node23&#45;&gt;Node24 -->
<g id="edge32" class="edge">
<title>Node23&#45;&gt;Node24</title>
<path fill="none" stroke="#63b8ff" d="M1011.83,-175.64C990.18,-164.98 960.83,-150.53 939.37,-139.97"/>
<polygon fill="#63b8ff" stroke="#63b8ff" points="941.13,-136.93 930.61,-135.65 938.04,-143.21 941.13,-136.93"/>
</g>
<!-- Node24&#45;&gt;Node2 -->
<g id="edge33" class="edge">
<title>Node24&#45;&gt;Node2</title>
<path fill="none" stroke="#63b8ff" d="M860.67,-115.05C802.46,-104.7 706.62,-87.66 643.9,-76.51"/>
<polygon fill="#63b8ff" stroke="#63b8ff" points="644.54,-73.07 634.08,-74.76 643.31,-79.96 644.54,-73.07"/>
</g>
<!-- Node26 -->
<g id="node26" class="node">
<title>Node26</title>
<g id="a_node26"><a xlink:href="generic__maps_8hpp.html" target="_top" xlink:title=" ">
<polygon fill="white" stroke="#666666" points="848.5,-327 743.5,-327 743.5,-297 848.5,-297 848.5,-327"/>
<text text-anchor="start" x="751.5" y="-315" font-family="Helvetica,sans-Serif" font-size="10.00">storage/face/generic</text>
<text text-anchor="middle" x="796" y="-304" font-family="Helvetica,sans-Serif" font-size="10.00">_maps.hpp</text>
</a>
</g>
</g>
<!-- Node25&#45;&gt;Node26 -->
<g id="edge36" class="edge">
<title>Node25&#45;&gt;Node26</title>
<path fill="none" stroke="#63b8ff" d="M760.21,-362.8C765.81,-355.01 772.89,-345.16 779.27,-336.28"/>
<polygon fill="#63b8ff" stroke="#63b8ff" points="781.94,-338.56 784.94,-328.39 776.26,-334.47 781.94,-338.56"/>
</g>
<!-- Node26&#45;&gt;Node21 -->
<g id="edge37" class="edge">
<title>Node26&#45;&gt;Node21</title>
<path fill="none" stroke="#63b8ff" d="M848.89,-297.94C889.96,-287.81 946.37,-273.88 985.89,-264.13"/>
<polygon fill="#63b8ff" stroke="#63b8ff" points="986.48,-267.59 995.34,-261.79 984.8,-260.79 986.48,-267.59"/>
</g>
<!-- Node26&#45;&gt;Node24 -->
<g id="edge45" class="edge">
<title>Node26&#45;&gt;Node24</title>
<path fill="none" stroke="#63b8ff" d="M798.41,-296.62C801.22,-282.2 806.71,-259.66 816,-242 836.67,-202.69 871.99,-164.25 893.25,-142.98"/>
<polygon fill="#63b8ff" stroke="#63b8ff" points="895.65,-145.53 900.33,-136.03 890.74,-140.54 895.65,-145.53"/>
</g>
<!-- Node27 -->
<g id="node27" class="node">
<title>Node27</title>
<g id="a_node27"><a xlink:href="iterable_8hpp.html" target="_top" xlink:title=" ">
<polygon fill="white" stroke="#666666" points="947.5,-261 824.5,-261 824.5,-242 947.5,-242 947.5,-261"/>
<text text-anchor="middle" x="886" y="-249" font-family="Helvetica,sans-Serif" font-size="10.00">storage/face/iterable.hpp</text>
</a>
</g>
</g>
<!-- Node26&#45;&gt;Node27 -->
<g id="edge38" class="edge">
<title>Node26&#45;&gt;Node27</title>
<path fill="none" stroke="#63b8ff" d="M818.25,-296.54C831.9,-287.66 849.35,-276.32 863.12,-267.37"/>
<polygon fill="#63b8ff" stroke="#63b8ff" points="864.64,-270.56 871.12,-262.17 860.83,-264.69 864.64,-270.56"/>
</g>
<!-- Node29 -->
<g id="node29" class="node">
<title>Node29</title>
<g id="a_node29"><a xlink:href="readable_8hpp.html" target="_top" xlink:title=" ">
<polygon fill="white" stroke="#666666" points="768,-261 640,-261 640,-242 768,-242 768,-261"/>
<text text-anchor="middle" x="704" y="-249" font-family="Helvetica,sans-Serif" font-size="10.00">storage/face/readable.hpp</text>
</a>
</g>
</g>
<!-- Node26&#45;&gt;Node29 -->
<g id="edge42" class="edge">
<title>Node26&#45;&gt;Node29</title>
<path fill="none" stroke="#63b8ff" d="M773.26,-296.54C759.3,-287.66 741.46,-276.32 727.39,-267.37"/>
<polygon fill="#63b8ff" stroke="#63b8ff" points="729.51,-264.57 719.19,-262.16 725.75,-270.48 729.51,-264.57"/>
</g>
<!-- Node27&#45;&gt;Node22 -->
<g id="edge39" class="edge">
<title>Node27&#45;&gt;Node22</title>
<path fill="none" stroke="#63b8ff" d="M889.69,-241.87C893.12,-233.83 898.36,-221.57 902.79,-211.22"/>
<polygon fill="#63b8ff" stroke="#63b8ff" points="905.99,-212.63 906.7,-202.06 899.55,-209.88 905.99,-212.63"/>
</g>
<!-- Node28 -->
<g id="node28" class="node">
<title>Node28</title>
<g id="a_node28"><a xlink:href="map__cursor_8hpp.html" target="_top" xlink:title=" ">
<polygon fill="white" stroke="#666666" points="828.5,-200.5 685.5,-200.5 685.5,-181.5 828.5,-181.5 828.5,-200.5"/>
<text text-anchor="middle" x="757" y="-188.5" font-family="Helvetica,sans-Serif" font-size="10.00">storage/face/map_cursor.hpp</text>
</a>
</g>
</g>
<!-- Node27&#45;&gt;Node28 -->
<g id="edge40" class="edge">
<title>Node27&#45;&gt;Node28</title>
<path fill="none" stroke="#63b8ff" d="M866.41,-241.62C845.29,-232.04 811.41,-216.68 786.95,-205.58"/>
<polygon fill="#63b8ff" stroke="#63b8ff" points="788.71,-202.54 778.16,-201.59 785.82,-208.91 788.71,-202.54"/>
</g>
<!-- Node28&#45;&gt;Node2 -->
<g id="edge41" class="edge">
<title>Node28&#45;&gt;Node2</title>
<path fill="none" stroke="#63b8ff" d="M749.64,-181.1C736.14,-165.22 705.98,-131.64 675,-110 656.93,-97.38 634.73,-86.6 616.55,-78.82"/>
<polygon fill="#63b8ff" stroke="#63b8ff" points="618.07,-75.66 607.49,-75.06 615.39,-82.13 618.07,-75.66"/>
</g>
<!-- Node29&#45;&gt;Node2 -->
<g id="edge43" class="edge">
<title>Node29&#45;&gt;Node2</title>
<path fill="none" stroke="#63b8ff" d="M697.88,-241.59C692.01,-232.81 683.18,-218.87 677,-206 657.35,-165.06 669.16,-146.4 642,-110 633.12,-98.1 620.19,-87.95 608.6,-80.36"/>
<polygon fill="#63b8ff" stroke="#63b8ff" points="610.53,-77.44 600.18,-75.16 606.85,-83.39 610.53,-77.44"/>
</g>
<!-- Node29&#45;&gt;Node28 -->
<g id="edge44" class="edge">
<title>Node29&#45;&gt;Node28</title>
<path fill="none" stroke="#63b8ff" d="M711.82,-241.87C719.65,-233.23 731.9,-219.7 741.67,-208.92"/>
<polygon fill="#63b8ff" stroke="#63b8ff" points="744.01,-211.55 748.13,-201.79 738.82,-206.85 744.01,-211.55"/>
</g>
</g>
</svg>
        <g id="navigator" transform="translate(0 0)" fill="#404254">
                <rect fill="#f2f5e9" fill-opacity="0.5" stroke="#606060" stroke-width=".5" x="0" y="0" width="60" height="60"/>
                <use id="zoomplus" xlink:href="#zoomPlus" x="17" y="9" onmousedown="handleZoom(evt,'in')"/>
                <use id="zoomminus" xlink:href="#zoomMin" x="42" y="9" onmousedown="handleZoom(evt,'out')"/>
                <use id="reset" xlink:href="#resetDef" x="30" y="36" onmousedown="handleReset()"/>
                <g id="arrowUp" xlink:href="#dirArrow" transform="translate(30 24)" onmousedown="handlePan(0,-1)">
                  <use xlink:href="#rim" fill="#404040">
                        <set attributeName="fill" to="#808080" begin="arrowUp.mouseover" end="arrowUp.mouseout"/>
                  </use>
                  <path fill="none" stroke="white" stroke-width="1.5" d="M0,-3.0v7 M-2.5,-0.5L0,-3.0L2.5,-0.5"/>
                </g>
                <g id="arrowRight" xlink:href="#dirArrow" transform="rotate(90) translate(36 -43)" onmousedown="handlePan(1,0)">
                  <use xlink:href="#rim" fill="#404040">
                        <set attributeName="fill" to="#808080" begin="arrowRight.mouseover" end="arrowRight.mouseout"/>
                  </use>
                  <path fill="none" stroke="white" stroke-width="1.5" d="M0,-3.0v7 M-2.5,-0.5L0,-3.0L2.5,-0.5"/>
                </g>
                <g id="arrowDown" xlink:href="#dirArrow" transform="rotate(180) translate(-30 -48)" onmousedown="handlePan(0,1)">
                  <use xlink:href="#rim" fill="#404040">
                        <set attributeName="fill" to="#808080" begin="arrowDown.mouseover" end="arrowDown.mouseout"/>
                  </use>
                  <path fill="none" stroke="white" stroke-width="1.5" d="M0,-3.0v7 M-2.5,-0.5L0,-3.0L2.5,-0.5"/>
                </g>
                <g id="arrowLeft" xlink:href="#dirArrow" transform="rotate(270) translate(-36 17)" onmousedown="handlePan(-1,0)">
                  <use xlink:href="#rim" fill="#404040">
                        <set attributeName="fill" to="#808080" begin="arrowLeft.mouseover" end="arrowLeft.mouseout"/>
                  </use>
                  <path fill="none" stroke="white" stroke-width="1.5" d="M0,-3.0v7 M-2.5,-0.5L0,-3.0L2.5,-0.5"/>
                </g>
        </g>
        <svg viewBox="0 0 15 15" width="100%" height="30px" preserveAspectRatio="xMaxYMin meet">
         <g id="arrow_out" transform="scale(0.3 0.3)">
          <a xlink:href="src_2blockchain_2impl_2common_8hpp__incl_org.svg" target="_base">
           <rect id="button" ry="5" rx="5" y="6" x="6" height="38" width="38"
                fill="#f2f5e9" fill-opacity="0.5" stroke="#606060" stroke-width="1.0"/>
           <path id="arrow"
             d="M 11.500037,31.436501 C 11.940474,20.09759 22.043105,11.32322 32.158766,21.979434 L 37.068811,17.246167 C 37.068811,17.246167 37.088388,32 37.088388,32 L 22.160133,31.978069 C 22.160133,31.978069 26.997745,27.140456 26.997745,27.140456 C 18.528582,18.264221 13.291696,25.230495 11.500037,31.436501 z"
             style="fill:#404040;"/>
          </a>
         </g>
        </svg>
</svg>
