<?xml version="1.0" encoding="UTF-8" standalone="no"?>
<!DOCTYPE svg PUBLIC "-//W3C//DTD SVG 1.1//EN"
 "http://www.w3.org/Graphics/SVG/1.1/DTD/svg11.dtd">
<!-- Generated by graphviz version 7.0.5 (20221223.1930)
 -->
<!-- Title: src/runtime/common/storage_wasm_provider.hpp Pages: 1 -->
<svg width="1410pt" height="643pt"
 viewBox="0.00 0.00 1409.93 643.00" xmlns="http://www.w3.org/2000/svg" xmlns:xlink="http://www.w3.org/1999/xlink">
<g id="graph0" class="graph" transform="scale(1 1) rotate(0) translate(4 639)">
<title>src/runtime/common/storage_wasm_provider.hpp</title>
<!-- Node1 -->
<g id="node1" class="node">
<title>Node1</title>
<g id="a_node1"><a xlink:title=" ">
<polygon fill="#999999" stroke="#666666" points="431.5,-635 290.5,-635 290.5,-605 431.5,-605 431.5,-635"/>
<text text-anchor="start" x="298.5" y="-623" font-family="Helvetica,sans-Serif" font-size="10.00">src/runtime/common</text>
<text text-anchor="middle" x="361" y="-612" font-family="Helvetica,sans-Serif" font-size="10.00">/storage_wasm_provider.hpp</text>
</a>
</g>
</g>
<!-- Node2 -->
<g id="node2" class="node">
<title>Node2</title>
<g id="a_node2"><a xlink:href="wasm__provider_8hpp.html" target="_top" xlink:title=" ">
<polygon fill="white" stroke="#666666" points="381,-514 245,-514 245,-495 381,-495 381,-514"/>
<text text-anchor="middle" x="313" y="-502" font-family="Helvetica,sans-Serif" font-size="10.00">runtime/wasm_provider.hpp</text>
</a>
</g>
</g>
<!-- Node1&#45;&gt;Node2 -->
<g id="edge1" class="edge">
<title>Node1&#45;&gt;Node2</title>
<path fill="none" stroke="#63b8ff" d="M351.85,-604.53C345.93,-594.76 338.37,-581.42 333,-569 326.82,-554.69 321.6,-537.83 318.04,-525.08"/>
<polygon fill="#63b8ff" stroke="#63b8ff" points="321.52,-524.55 315.56,-515.79 314.76,-526.36 321.52,-524.55"/>
</g>
<!-- Node11 -->
<g id="node11" class="node">
<title>Node11</title>
<g id="a_node11"><a xlink:href="trie__storage_8hpp.html" target="_top" xlink:title=" ">
<polygon fill="white" stroke="#666666" points="478.5,-569 341.5,-569 341.5,-550 478.5,-550 478.5,-569"/>
<text text-anchor="middle" x="410" y="-557" font-family="Helvetica,sans-Serif" font-size="10.00">storage/trie/trie_storage.hpp</text>
</a>
</g>
</g>
<!-- Node1&#45;&gt;Node11 -->
<g id="edge10" class="edge">
<title>Node1&#45;&gt;Node11</title>
<path fill="none" stroke="#63b8ff" d="M373.11,-604.54C379.87,-596.48 388.32,-586.38 395.44,-577.89"/>
<polygon fill="#63b8ff" stroke="#63b8ff" points="398.02,-580.25 401.76,-570.34 392.66,-575.75 398.02,-580.25"/>
</g>
<!-- Node3 -->
<g id="node3" class="node">
<title>Node3</title>
<g id="a_node3"><a xlink:href="buffer_8hpp.html" target="_top" xlink:title=" ">
<polygon fill="white" stroke="#666666" points="695.5,-250 612.5,-250 612.5,-231 695.5,-231 695.5,-250"/>
<text text-anchor="middle" x="654" y="-238" font-family="Helvetica,sans-Serif" font-size="10.00">base/buffer.hpp</text>
</a>
</g>
</g>
<!-- Node2&#45;&gt;Node3 -->
<g id="edge2" class="edge">
<title>Node2&#45;&gt;Node3</title>
<path fill="none" stroke="#63b8ff" d="M310.37,-494.5C301.31,-461.5 275.05,-345.87 332,-286 372.35,-243.58 535.01,-258.04 593,-250 595.64,-249.63 598.34,-249.26 601.06,-248.88"/>
<polygon fill="#63b8ff" stroke="#63b8ff" points="601.41,-252.37 610.83,-247.52 600.44,-245.43 601.41,-252.37"/>
</g>
<!-- Node4 -->
<g id="node4" class="node">
<title>Node4</title>
<g id="a_node4"><a xlink:title=" ">
<polygon fill="#e0e0e0" stroke="#999999" points="353,-129 287,-129 287,-110 353,-110 353,-129"/>
<text text-anchor="middle" x="320" y="-117" font-family="Helvetica,sans-Serif" font-size="10.00">string_view</text>
</a>
</g>
</g>
<!-- Node3&#45;&gt;Node4 -->
<g id="edge3" class="edge">
<title>Node3&#45;&gt;Node4</title>
<path fill="none" stroke="#63b8ff" d="M612.01,-233.56C605.64,-232.69 599.15,-231.81 593,-231 528.62,-222.52 346,-243.67 303,-195 289.31,-179.5 298.59,-155.26 307.95,-138.67"/>
<polygon fill="#63b8ff" stroke="#63b8ff" points="310.82,-140.68 313.07,-130.33 304.86,-137.01 310.82,-140.68"/>
</g>
<!-- Node5 -->
<g id="node5" class="node">
<title>Node5</title>
<g id="a_node5"><a xlink:title=" ">
<polygon fill="#e0e0e0" stroke="#999999" points="635,-129 591,-129 591,-110 635,-110 635,-129"/>
<text text-anchor="middle" x="613" y="-117" font-family="Helvetica,sans-Serif" font-size="10.00">vector</text>
</a>
</g>
</g>
<!-- Node3&#45;&gt;Node5 -->
<g id="edge4" class="edge">
<title>Node3&#45;&gt;Node5</title>
<path fill="none" stroke="#63b8ff" d="M656.18,-230.85C659.33,-216.56 663.89,-187.36 655,-165 650.68,-154.12 642.3,-144.37 634.15,-136.78"/>
<polygon fill="#63b8ff" stroke="#63b8ff" points="636.63,-134.3 626.76,-130.44 632.07,-139.61 636.63,-134.3"/>
</g>
<!-- Node6 -->
<g id="node6" class="node">
<title>Node6</title>
<g id="a_node6"><a xlink:title=" ">
<polygon fill="#e0e0e0" stroke="#999999" points="526,-195 416,-195 416,-165 526,-165 526,-195"/>
<text text-anchor="start" x="424" y="-183" font-family="Helvetica,sans-Serif" font-size="10.00">boost/container_hash</text>
<text text-anchor="middle" x="471" y="-172" font-family="Helvetica,sans-Serif" font-size="10.00">/hash.hpp</text>
</a>
</g>
</g>
<!-- Node3&#45;&gt;Node6 -->
<g id="edge5" class="edge">
<title>Node3&#45;&gt;Node6</title>
<path fill="none" stroke="#63b8ff" d="M626.21,-230.62C599.98,-222.23 559.88,-209.41 527.01,-198.9"/>
<polygon fill="#63b8ff" stroke="#63b8ff" points="528.2,-195.61 517.61,-195.9 526.07,-202.28 528.2,-195.61"/>
</g>
<!-- Node7 -->
<g id="node7" class="node">
<title>Node7</title>
<g id="a_node7"><a xlink:title=" ">
<polygon fill="#e0e0e0" stroke="#999999" points="646,-189.5 544,-189.5 544,-170.5 646,-170.5 646,-189.5"/>
<text text-anchor="middle" x="595" y="-177.5" font-family="Helvetica,sans-Serif" font-size="10.00">boost/operators.hpp</text>
</a>
</g>
</g>
<!-- Node3&#45;&gt;Node7 -->
<g id="edge6" class="edge">
<title>Node3&#45;&gt;Node7</title>
<path fill="none" stroke="#63b8ff" d="M645.04,-230.62C636.29,-221.94 622.75,-208.52 611.96,-197.82"/>
<polygon fill="#63b8ff" stroke="#63b8ff" points="614.69,-195.59 605.12,-191.03 609.76,-200.56 614.69,-195.59"/>
</g>
<!-- Node8 -->
<g id="node8" class="node">
<title>Node8</title>
<g id="a_node8"><a xlink:title=" ">
<polygon fill="#e0e0e0" stroke="#999999" points="804.5,-129 751.5,-129 751.5,-110 804.5,-110 804.5,-129"/>
<text text-anchor="middle" x="778" y="-117" font-family="Helvetica,sans-Serif" font-size="10.00">gsl/span</text>
</a>
</g>
</g>
<!-- Node3&#45;&gt;Node8 -->
<g id="edge7" class="edge">
<title>Node3&#45;&gt;Node8</title>
<path fill="none" stroke="#63b8ff" d="M672.88,-230.56C688.31,-222.65 710.09,-210.04 726,-195 743.51,-178.45 758.63,-155.12 767.99,-139"/>
<polygon fill="#63b8ff" stroke="#63b8ff" points="770.93,-140.92 772.76,-130.48 764.82,-137.5 770.93,-140.92"/>
</g>
<!-- Node9 -->
<g id="node9" class="node">
<title>Node9</title>
<g id="a_node9"><a xlink:href="outcome_8hpp.html" target="_top" xlink:title=" ">
<polygon fill="white" stroke="#666666" points="958.5,-74 845.5,-74 845.5,-55 958.5,-55 958.5,-74"/>
<text text-anchor="middle" x="902" y="-62" font-family="Helvetica,sans-Serif" font-size="10.00">outcome/outcome.hpp</text>
</a>
</g>
</g>
<!-- Node3&#45;&gt;Node9 -->
<g id="edge8" class="edge">
<title>Node3&#45;&gt;Node9</title>
<path fill="none" stroke="#63b8ff" d="M657.49,-230.69C667.23,-207.24 697.07,-142.85 743,-110 769.57,-91 803.98,-80.1 834,-73.85"/>
<polygon fill="#63b8ff" stroke="#63b8ff" points="834.62,-77.3 843.78,-71.96 833.29,-70.42 834.62,-77.3"/>
</g>
<!-- Node10 -->
<g id="node10" class="node">
<title>Node10</title>
<g id="a_node10"><a xlink:title=" ">
<polygon fill="#e0e0e0" stroke="#999999" points="972.5,-19 831.5,-19 831.5,0 972.5,0 972.5,-19"/>
<text text-anchor="middle" x="902" y="-7" font-family="Helvetica,sans-Serif" font-size="10.00">libp2p/outcome/outcome.hpp</text>
</a>
</g>
</g>
<!-- Node9&#45;&gt;Node10 -->
<g id="edge9" class="edge">
<title>Node9&#45;&gt;Node10</title>
<path fill="none" stroke="#63b8ff" d="M902,-54.75C902,-48.27 902,-39.16 902,-30.9"/>
<polygon fill="#63b8ff" stroke="#63b8ff" points="905.5,-30.96 902,-20.96 898.5,-30.96 905.5,-30.96"/>
</g>
<!-- Node12 -->
<g id="node12" class="node">
<title>Node12</title>
<g id="a_node12"><a xlink:href="blob_8hpp.html" target="_top" xlink:title=" ">
<polygon fill="white" stroke="#666666" points="266.5,-250 189.5,-250 189.5,-231 266.5,-231 266.5,-250"/>
<text text-anchor="middle" x="228" y="-238" font-family="Helvetica,sans-Serif" font-size="10.00">base/blob.hpp</text>
</a>
</g>
</g>
<!-- Node11&#45;&gt;Node12 -->
<g id="edge11" class="edge">
<title>Node11&#45;&gt;Node12</title>
<path fill="none" stroke="#63b8ff" d="M341.24,-556.56C262.13,-550.22 143,-526.28 143,-439.5 143,-439.5 143,-439.5 143,-366 143,-329.35 142.07,-316.09 163,-286 171.72,-273.46 185.21,-263.39 197.65,-256.02"/>
<polygon fill="#63b8ff" stroke="#63b8ff" points="199.32,-259.09 206.39,-251.2 195.94,-252.96 199.32,-259.09"/>
</g>
<!-- Node17 -->
<g id="node17" class="node">
<title>Node17</title>
<g id="a_node17"><a xlink:href="trie__batches_8hpp.html" target="_top" xlink:title=" ">
<polygon fill="white" stroke="#666666" points="886,-514 746,-514 746,-495 886,-495 886,-514"/>
<text text-anchor="middle" x="816" y="-502" font-family="Helvetica,sans-Serif" font-size="10.00">storage/trie/trie_batches.hpp</text>
</a>
</g>
</g>
<!-- Node11&#45;&gt;Node17 -->
<g id="edge20" class="edge">
<title>Node11&#45;&gt;Node17</title>
<path fill="none" stroke="#63b8ff" d="M478.87,-549.51C549.99,-540.23 660.87,-525.75 735.87,-515.96"/>
<polygon fill="#63b8ff" stroke="#63b8ff" points="736.17,-519.45 745.63,-514.69 735.26,-512.51 736.17,-519.45"/>
</g>
<!-- Node13 -->
<g id="node13" class="node">
<title>Node13</title>
<g id="a_node13"><a xlink:title=" ">
<polygon fill="#e0e0e0" stroke="#999999" points="256,-189.5 218,-189.5 218,-170.5 256,-170.5 256,-189.5"/>
<text text-anchor="middle" x="237" y="-177.5" font-family="Helvetica,sans-Serif" font-size="10.00">array</text>
</a>
</g>
</g>
<!-- Node12&#45;&gt;Node13 -->
<g id="edge12" class="edge">
<title>Node12&#45;&gt;Node13</title>
<path fill="none" stroke="#63b8ff" d="M229.33,-230.87C230.54,-223 232.37,-211.1 233.94,-200.89"/>
<polygon fill="#63b8ff" stroke="#63b8ff" points="237.38,-201.58 235.44,-191.16 230.46,-200.51 237.38,-201.58"/>
</g>
<!-- Node14 -->
<g id="node14" class="node">
<title>Node14</title>
<g id="a_node14"><a xlink:title=" ">
<polygon fill="#e0e0e0" stroke="#999999" points="128,-189.5 0,-189.5 0,-170.5 128,-170.5 128,-189.5"/>
<text text-anchor="middle" x="64" y="-177.5" font-family="Helvetica,sans-Serif" font-size="10.00">boost/functional/hash.hpp</text>
</a>
</g>
</g>
<!-- Node12&#45;&gt;Node14 -->
<g id="edge13" class="edge">
<title>Node12&#45;&gt;Node14</title>
<path fill="none" stroke="#63b8ff" d="M203.09,-230.62C175.52,-220.78 130.85,-204.84 99.59,-193.69"/>
<polygon fill="#63b8ff" stroke="#63b8ff" points="101.16,-190.54 90.57,-190.48 98.81,-197.13 101.16,-190.54"/>
</g>
<!-- Node15 -->
<g id="node15" class="node">
<title>Node15</title>
<g id="a_node15"><a xlink:href="hexutil_8hpp.html" target="_top" xlink:title=" ">
<polygon fill="white" stroke="#666666" points="398,-189.5 312,-189.5 312,-170.5 398,-170.5 398,-189.5"/>
<text text-anchor="middle" x="355" y="-177.5" font-family="Helvetica,sans-Serif" font-size="10.00">base/hexutil.hpp</text>
</a>
</g>
</g>
<!-- Node12&#45;&gt;Node15 -->
<g id="edge14" class="edge">
<title>Node12&#45;&gt;Node15</title>
<path fill="none" stroke="#63b8ff" d="M247.29,-230.62C267.99,-221.08 301.13,-205.81 325.19,-194.73"/>
<polygon fill="#63b8ff" stroke="#63b8ff" points="326.54,-197.96 334.16,-190.6 323.61,-191.61 326.54,-197.96"/>
</g>
<!-- Node16 -->
<g id="node16" class="node">
<title>Node16</title>
<g id="a_node16"><a xlink:title=" ">
<polygon fill="#e0e0e0" stroke="#999999" points="200,-189.5 146,-189.5 146,-170.5 200,-170.5 200,-189.5"/>
<text text-anchor="middle" x="173" y="-177.5" font-family="Helvetica,sans-Serif" font-size="10.00">iostream</text>
</a>
</g>
</g>
<!-- Node12&#45;&gt;Node16 -->
<g id="edge19" class="edge">
<title>Node12&#45;&gt;Node16</title>
<path fill="none" stroke="#63b8ff" d="M219.88,-230.87C211.76,-222.23 199.04,-208.7 188.9,-197.92"/>
<polygon fill="#63b8ff" stroke="#63b8ff" points="191.59,-195.66 182.19,-190.77 186.49,-200.45 191.59,-195.66"/>
</g>
<!-- Node15&#45;&gt;Node4 -->
<g id="edge15" class="edge">
<title>Node15&#45;&gt;Node4</title>
<path fill="none" stroke="#63b8ff" d="M349.84,-170.37C344.87,-162.07 337.22,-149.28 330.9,-138.72"/>
<polygon fill="#63b8ff" stroke="#63b8ff" points="334.1,-137.25 325.96,-130.47 328.09,-140.84 334.1,-137.25"/>
</g>
<!-- Node15&#45;&gt;Node5 -->
<g id="edge16" class="edge">
<title>Node15&#45;&gt;Node5</title>
<path fill="none" stroke="#63b8ff" d="M387.39,-170.01C393.87,-168.29 400.64,-166.54 407,-165 467.52,-150.33 538.62,-135.49 579.49,-127.2"/>
<polygon fill="#63b8ff" stroke="#63b8ff" points="580.07,-130.65 589.18,-125.24 578.68,-123.79 580.07,-130.65"/>
</g>
<!-- Node15&#45;&gt;Node8 -->
<g id="edge17" class="edge">
<title>Node15&#45;&gt;Node8</title>
<path fill="none" stroke="#63b8ff" d="M385.35,-170.04C392.41,-168.18 399.93,-166.37 407,-165 527.46,-141.68 672.44,-128.53 739.95,-123.25"/>
<polygon fill="#63b8ff" stroke="#63b8ff" points="740.04,-126.75 749.75,-122.5 739.51,-119.77 740.04,-126.75"/>
</g>
<!-- Node15&#45;&gt;Node9 -->
<g id="edge18" class="edge">
<title>Node15&#45;&gt;Node9</title>
<path fill="none" stroke="#63b8ff" d="M379.85,-170.04C421.25,-155.43 507.18,-126.47 582,-110 667.91,-91.09 768.66,-78.65 833.82,-71.85"/>
<polygon fill="#63b8ff" stroke="#63b8ff" points="834.07,-75.34 843.66,-70.84 833.35,-68.38 834.07,-75.34"/>
</g>
<!-- Node18 -->
<g id="node18" class="node">
<title>Node18</title>
<g id="a_node18"><a xlink:href="buffer__map__types_8hpp.html" target="_top" xlink:title=" ">
<polygon fill="white" stroke="#666666" points="1147,-453.5 1047,-453.5 1047,-423.5 1147,-423.5 1147,-453.5"/>
<text text-anchor="start" x="1055" y="-441.5" font-family="Helvetica,sans-Serif" font-size="10.00">storage/buffer_map</text>
<text text-anchor="middle" x="1097" y="-430.5" font-family="Helvetica,sans-Serif" font-size="10.00">_types.hpp</text>
</a>
</g>
</g>
<!-- Node17&#45;&gt;Node18 -->
<g id="edge21" class="edge">
<title>Node17&#45;&gt;Node18</title>
<path fill="none" stroke="#63b8ff" d="M855.37,-494.53C902.14,-483.88 980.73,-465.98 1035.53,-453.5"/>
<polygon fill="#63b8ff" stroke="#63b8ff" points="1036.05,-456.97 1045.03,-451.34 1034.5,-450.15 1036.05,-456.97"/>
</g>
<!-- Node28 -->
<g id="node28" class="node">
<title>Node28</title>
<g id="a_node28"><a xlink:href="supergenius__trie__cursor_8hpp.html" target="_top" xlink:title=" ">
<polygon fill="white" stroke="#666666" points="876.5,-459 755.5,-459 755.5,-418 876.5,-418 876.5,-459"/>
<text text-anchor="start" x="763.5" y="-447" font-family="Helvetica,sans-Serif" font-size="10.00">storage/trie/supergenius</text>
<text text-anchor="start" x="763.5" y="-436" font-family="Helvetica,sans-Serif" font-size="10.00">_trie/supergenius_trie</text>
<text text-anchor="middle" x="816" y="-425" font-family="Helvetica,sans-Serif" font-size="10.00">_cursor.hpp</text>
</a>
</g>
</g>
<!-- Node17&#45;&gt;Node28 -->
<g id="edge42" class="edge">
<title>Node17&#45;&gt;Node28</title>
<path fill="none" stroke="#63b8ff" d="M816,-494.6C816,-488.3 816,-479.43 816,-470.65"/>
<polygon fill="#63b8ff" stroke="#63b8ff" points="819.5,-470.89 816,-460.89 812.5,-470.89 819.5,-470.89"/>
</g>
<!-- Node18&#45;&gt;Node3 -->
<g id="edge23" class="edge">
<title>Node18&#45;&gt;Node3</title>
<path fill="none" stroke="#63b8ff" d="M1084.28,-423.06C1066.95,-404.22 1034.17,-371.38 1000,-352 904,-297.57 777.56,-265.92 707.16,-251.34"/>
<polygon fill="#63b8ff" stroke="#63b8ff" points="707.92,-247.92 697.42,-249.36 706.52,-254.78 707.92,-247.92"/>
</g>
<!-- Node18&#45;&gt;Node8 -->
<g id="edge22" class="edge">
<title>Node18&#45;&gt;Node8</title>
<path fill="none" stroke="#63b8ff" d="M1088.49,-423.02C1077.45,-405.01 1056.88,-373.96 1034,-352 975.57,-295.92 942.71,-304.72 883,-250 844.57,-214.78 808.25,-165.03 790.08,-138.62"/>
<polygon fill="#63b8ff" stroke="#63b8ff" points="793.21,-136.99 784.7,-130.67 787.41,-140.91 793.21,-136.99"/>
</g>
<!-- Node19 -->
<g id="node19" class="node">
<title>Node19</title>
<g id="a_node19"><a xlink:href="batchable_8hpp.html" target="_top" xlink:title=" ">
<polygon fill="white" stroke="#666666" points="1390,-250 1256,-250 1256,-231 1390,-231 1390,-250"/>
<text text-anchor="middle" x="1323" y="-238" font-family="Helvetica,sans-Serif" font-size="10.00">storage/face/batchable.hpp</text>
</a>
</g>
</g>
<!-- Node18&#45;&gt;Node19 -->
<g id="edge24" class="edge">
<title>Node18&#45;&gt;Node19</title>
<path fill="none" stroke="#63b8ff" d="M1130.85,-423.04C1151.9,-413.16 1178.87,-398.84 1200,-382 1246.74,-344.75 1289.95,-288.28 1310.47,-259.6"/>
<polygon fill="#63b8ff" stroke="#63b8ff" points="1313.2,-261.8 1316.1,-251.61 1307.48,-257.77 1313.2,-261.8"/>
</g>
<!-- Node21 -->
<g id="node21" class="node">
<title>Node21</title>
<g id="a_node21"><a xlink:href="write__batch_8hpp.html" target="_top" xlink:title=" ">
<polygon fill="white" stroke="#666666" points="1389.5,-195 1294.5,-195 1294.5,-165 1389.5,-165 1389.5,-195"/>
<text text-anchor="start" x="1302.5" y="-183" font-family="Helvetica,sans-Serif" font-size="10.00">storage/face/write</text>
<text text-anchor="middle" x="1342" y="-172" font-family="Helvetica,sans-Serif" font-size="10.00">_batch.hpp</text>
</a>
</g>
</g>
<!-- Node18&#45;&gt;Node21 -->
<g id="edge41" class="edge">
<title>Node18&#45;&gt;Node21</title>
<path fill="none" stroke="#63b8ff" d="M1147.26,-424.41C1219.7,-402.41 1350.09,-350.26 1399,-250 1407.74,-232.09 1393.41,-214.81 1376.94,-202.02"/>
<polygon fill="#63b8ff" stroke="#63b8ff" points="1379.1,-199.26 1368.94,-196.28 1375.03,-204.95 1379.1,-199.26"/>
</g>
<!-- Node23 -->
<g id="node23" class="node">
<title>Node23</title>
<g id="a_node23"><a xlink:href="generic__storage_8hpp.html" target="_top" xlink:title=" ">
<polygon fill="white" stroke="#666666" points="1190.5,-382 1085.5,-382 1085.5,-352 1190.5,-352 1190.5,-382"/>
<text text-anchor="start" x="1093.5" y="-370" font-family="Helvetica,sans-Serif" font-size="10.00">storage/face/generic</text>
<text text-anchor="middle" x="1138" y="-359" font-family="Helvetica,sans-Serif" font-size="10.00">_storage.hpp</text>
</a>
</g>
</g>
<!-- Node18&#45;&gt;Node23 -->
<g id="edge30" class="edge">
<title>Node18&#45;&gt;Node23</title>
<path fill="none" stroke="#63b8ff" d="M1105.5,-423.1C1110.77,-414.15 1117.69,-402.43 1123.78,-392.1"/>
<polygon fill="#63b8ff" stroke="#63b8ff" points="1126.68,-394.08 1128.75,-383.69 1120.65,-390.52 1126.68,-394.08"/>
</g>
<!-- Node20 -->
<g id="node20" class="node">
<title>Node20</title>
<g id="a_node20"><a xlink:title=" ">
<polygon fill="#e0e0e0" stroke="#999999" points="1163.5,-189.5 1112.5,-189.5 1112.5,-170.5 1163.5,-170.5 1163.5,-189.5"/>
<text text-anchor="middle" x="1138" y="-177.5" font-family="Helvetica,sans-Serif" font-size="10.00">memory</text>
</a>
</g>
</g>
<!-- Node19&#45;&gt;Node20 -->
<g id="edge25" class="edge">
<title>Node19&#45;&gt;Node20</title>
<path fill="none" stroke="#63b8ff" d="M1294.9,-230.62C1262.8,-220.46 1210.14,-203.81 1174.79,-192.63"/>
<polygon fill="#63b8ff" stroke="#63b8ff" points="1176,-189.35 1165.41,-189.67 1173.89,-196.02 1176,-189.35"/>
</g>
<!-- Node19&#45;&gt;Node21 -->
<g id="edge26" class="edge">
<title>Node19&#45;&gt;Node21</title>
<path fill="none" stroke="#63b8ff" d="M1325.8,-230.87C1327.95,-224.25 1331.03,-214.78 1333.93,-205.86"/>
<polygon fill="#63b8ff" stroke="#63b8ff" points="1337.19,-207.15 1336.95,-196.55 1330.53,-204.98 1337.19,-207.15"/>
</g>
<!-- Node22 -->
<g id="node22" class="node">
<title>Node22</title>
<g id="a_node22"><a xlink:href="writeable_8hpp.html" target="_top" xlink:title=" ">
<polygon fill="white" stroke="#666666" points="1312.5,-129 1181.5,-129 1181.5,-110 1312.5,-110 1312.5,-129"/>
<text text-anchor="middle" x="1247" y="-117" font-family="Helvetica,sans-Serif" font-size="10.00">storage/face/writeable.hpp</text>
</a>
</g>
</g>
<!-- Node19&#45;&gt;Node22 -->
<g id="edge29" class="edge">
<title>Node19&#45;&gt;Node22</title>
<path fill="none" stroke="#63b8ff" d="M1314.76,-230.74C1306.84,-222.06 1294.81,-208.21 1286,-195 1274,-176.99 1262.82,-154.87 1255.54,-139.42"/>
<polygon fill="#63b8ff" stroke="#63b8ff" points="1258.77,-138.09 1251.41,-130.47 1252.42,-141.02 1258.77,-138.09"/>
</g>
<!-- Node21&#45;&gt;Node22 -->
<g id="edge27" class="edge">
<title>Node21&#45;&gt;Node22</title>
<path fill="none" stroke="#63b8ff" d="M1318.52,-164.54C1304.1,-155.66 1285.69,-144.32 1271.15,-135.37"/>
<polygon fill="#63b8ff" stroke="#63b8ff" points="1273,-132.4 1262.65,-130.14 1269.33,-138.36 1273,-132.4"/>
</g>
<!-- Node22&#45;&gt;Node9 -->
<g id="edge28" class="edge">
<title>Node22&#45;&gt;Node9</title>
<path fill="none" stroke="#63b8ff" d="M1188.48,-109.51C1127.99,-100.22 1033.67,-85.73 969.94,-75.94"/>
<polygon fill="#63b8ff" stroke="#63b8ff" points="970.71,-72.52 960.3,-74.46 969.65,-79.43 970.71,-72.52"/>
</g>
<!-- Node24 -->
<g id="node24" class="node">
<title>Node24</title>
<g id="a_node24"><a xlink:href="generic__maps_8hpp.html" target="_top" xlink:title=" ">
<polygon fill="white" stroke="#666666" points="1190.5,-316 1085.5,-316 1085.5,-286 1190.5,-286 1190.5,-316"/>
<text text-anchor="start" x="1093.5" y="-304" font-family="Helvetica,sans-Serif" font-size="10.00">storage/face/generic</text>
<text text-anchor="middle" x="1138" y="-293" font-family="Helvetica,sans-Serif" font-size="10.00">_maps.hpp</text>
</a>
</g>
</g>
<!-- Node23&#45;&gt;Node24 -->
<g id="edge31" class="edge">
<title>Node23&#45;&gt;Node24</title>
<path fill="none" stroke="#63b8ff" d="M1138,-351.8C1138,-344.67 1138,-335.82 1138,-327.56"/>
<polygon fill="#63b8ff" stroke="#63b8ff" points="1141.5,-327.68 1138,-317.68 1134.5,-327.68 1141.5,-327.68"/>
</g>
<!-- Node24&#45;&gt;Node19 -->
<g id="edge32" class="edge">
<title>Node24&#45;&gt;Node19</title>
<path fill="none" stroke="#63b8ff" d="M1183.73,-285.54C1214.57,-275.79 1254.81,-263.06 1284.1,-253.8"/>
<polygon fill="#63b8ff" stroke="#63b8ff" points="1284.83,-257.24 1293.31,-250.89 1282.72,-250.57 1284.83,-257.24"/>
</g>
<!-- Node24&#45;&gt;Node22 -->
<g id="edge40" class="edge">
<title>Node24&#45;&gt;Node22</title>
<path fill="none" stroke="#63b8ff" d="M1167.19,-285.54C1181.67,-277.01 1198.29,-264.96 1209,-250 1233.03,-216.44 1241.98,-167.74 1245.23,-140.63"/>
<polygon fill="#63b8ff" stroke="#63b8ff" points="1248.71,-141.03 1246.25,-130.73 1241.74,-140.31 1248.71,-141.03"/>
</g>
<!-- Node25 -->
<g id="node25" class="node">
<title>Node25</title>
<g id="a_node25"><a xlink:href="iterable_8hpp.html" target="_top" xlink:title=" ">
<polygon fill="white" stroke="#666666" points="1199.5,-250 1076.5,-250 1076.5,-231 1199.5,-231 1199.5,-250"/>
<text text-anchor="middle" x="1138" y="-238" font-family="Helvetica,sans-Serif" font-size="10.00">storage/face/iterable.hpp</text>
</a>
</g>
</g>
<!-- Node24&#45;&gt;Node25 -->
<g id="edge33" class="edge">
<title>Node24&#45;&gt;Node25</title>
<path fill="none" stroke="#63b8ff" d="M1138,-285.54C1138,-278.34 1138,-269.53 1138,-261.68"/>
<polygon fill="#63b8ff" stroke="#63b8ff" points="1141.5,-261.69 1138,-251.69 1134.5,-261.69 1141.5,-261.69"/>
</g>
<!-- Node27 -->
<g id="node27" class="node">
<title>Node27</title>
<g id="a_node27"><a xlink:href="readable_8hpp.html" target="_top" xlink:title=" ">
<polygon fill="white" stroke="#666666" points="1020,-250 892,-250 892,-231 1020,-231 1020,-250"/>
<text text-anchor="middle" x="956" y="-238" font-family="Helvetica,sans-Serif" font-size="10.00">storage/face/readable.hpp</text>
</a>
</g>
</g>
<!-- Node24&#45;&gt;Node27 -->
<g id="edge37" class="edge">
<title>Node24&#45;&gt;Node27</title>
<path fill="none" stroke="#63b8ff" d="M1093.01,-285.54C1062.81,-275.83 1023.43,-263.17 994.65,-253.92"/>
<polygon fill="#63b8ff" stroke="#63b8ff" points="995.82,-250.62 985.23,-250.9 993.68,-257.29 995.82,-250.62"/>
</g>
<!-- Node25&#45;&gt;Node20 -->
<g id="edge34" class="edge">
<title>Node25&#45;&gt;Node20</title>
<path fill="none" stroke="#63b8ff" d="M1138,-230.87C1138,-223 1138,-211.1 1138,-200.89"/>
<polygon fill="#63b8ff" stroke="#63b8ff" points="1141.5,-201.18 1138,-191.18 1134.5,-201.18 1141.5,-201.18"/>
</g>
<!-- Node26 -->
<g id="node26" class="node">
<title>Node26</title>
<g id="a_node26"><a xlink:href="map__cursor_8hpp.html" target="_top" xlink:title=" ">
<polygon fill="white" stroke="#666666" points="1073.5,-189.5 930.5,-189.5 930.5,-170.5 1073.5,-170.5 1073.5,-189.5"/>
<text text-anchor="middle" x="1002" y="-177.5" font-family="Helvetica,sans-Serif" font-size="10.00">storage/face/map_cursor.hpp</text>
</a>
</g>
</g>
<!-- Node25&#45;&gt;Node26 -->
<g id="edge35" class="edge">
<title>Node25&#45;&gt;Node26</title>
<path fill="none" stroke="#63b8ff" d="M1117.34,-230.62C1094.98,-220.99 1059.04,-205.54 1033.23,-194.43"/>
<polygon fill="#63b8ff" stroke="#63b8ff" points="1034.81,-191.3 1024.24,-190.57 1032.04,-197.73 1034.81,-191.3"/>
</g>
<!-- Node26&#45;&gt;Node9 -->
<g id="edge36" class="edge">
<title>Node26&#45;&gt;Node9</title>
<path fill="none" stroke="#63b8ff" d="M994.15,-170.09C977.58,-151.28 938.75,-107.21 917.16,-82.71"/>
<polygon fill="#63b8ff" stroke="#63b8ff" points="920.05,-80.69 910.81,-75.5 914.8,-85.32 920.05,-80.69"/>
</g>
<!-- Node27&#45;&gt;Node9 -->
<g id="edge38" class="edge">
<title>Node27&#45;&gt;Node9</title>
<path fill="none" stroke="#63b8ff" d="M947.21,-230.82C939.27,-222.43 927.95,-208.95 922,-195 906.51,-158.66 902.83,-112.03 902.07,-85.79"/>
<polygon fill="#63b8ff" stroke="#63b8ff" points="905.57,-85.85 901.91,-75.9 898.57,-85.96 905.57,-85.85"/>
</g>
<!-- Node27&#45;&gt;Node26 -->
<g id="edge39" class="edge">
<title>Node27&#45;&gt;Node26</title>
<path fill="none" stroke="#63b8ff" d="M962.79,-230.87C969.45,-222.4 979.79,-209.24 988.19,-198.57"/>
<polygon fill="#63b8ff" stroke="#63b8ff" points="990.82,-200.88 994.25,-190.86 985.32,-196.55 990.82,-200.88"/>
</g>
<!-- Node28&#45;&gt;Node3 -->
<g id="edge44" class="edge">
<title>Node28&#45;&gt;Node3</title>
<path fill="none" stroke="#63b8ff" d="M812.09,-417.51C804.94,-385.84 786.99,-323.86 750,-286 735.97,-271.64 716.41,-261.43 698.61,-254.44"/>
<polygon fill="#63b8ff" stroke="#63b8ff" points="699.84,-251.16 689.24,-251.02 697.44,-257.74 699.84,-251.16"/>
</g>
<!-- Node28&#45;&gt;Node26 -->
<g id="edge43" class="edge">
<title>Node28&#45;&gt;Node26</title>
<path fill="none" stroke="#63b8ff" d="M817.08,-417.75C820.29,-377.54 833,-285.38 883,-231 899.81,-212.71 924.38,-200.89 946.83,-193.36"/>
<polygon fill="#63b8ff" stroke="#63b8ff" points="947.69,-196.76 956.2,-190.44 945.61,-190.07 947.69,-196.76"/>
</g>
<!-- Node29 -->
<g id="node29" class="node">
<title>Node29</title>
<g id="a_node29"><a xlink:href="supergenius__trie_8hpp.html" target="_top" xlink:title=" ">
<polygon fill="white" stroke="#666666" points="991,-382 863,-382 863,-352 991,-352 991,-382"/>
<text text-anchor="start" x="871" y="-370" font-family="Helvetica,sans-Serif" font-size="10.00">storage/trie/supergenius</text>
<text text-anchor="middle" x="927" y="-359" font-family="Helvetica,sans-Serif" font-size="10.00">_trie/supergenius_trie.hpp</text>
</a>
</g>
</g>
<!-- Node28&#45;&gt;Node29 -->
<g id="edge45" class="edge">
<title>Node28&#45;&gt;Node29</title>
<path fill="none" stroke="#63b8ff" d="M847.81,-417.58C862.38,-408.46 879.64,-397.65 894.32,-388.46"/>
<polygon fill="#63b8ff" stroke="#63b8ff" points="896.1,-391.47 902.72,-383.2 892.39,-385.54 896.1,-391.47"/>
</g>
<!-- Node33 -->
<g id="node33" class="node">
<title>Node33</title>
<g id="a_node33"><a xlink:href="supergenius__codec_8hpp.html" target="_top" xlink:title=" ">
<polygon fill="white" stroke="#666666" points="597,-382 475,-382 475,-352 597,-352 597,-382"/>
<text text-anchor="start" x="483" y="-370" font-family="Helvetica,sans-Serif" font-size="10.00">storage/trie/serialization</text>
<text text-anchor="middle" x="536" y="-359" font-family="Helvetica,sans-Serif" font-size="10.00">/supergenius_codec.hpp</text>
</a>
</g>
</g>
<!-- Node28&#45;&gt;Node33 -->
<g id="edge52" class="edge">
<title>Node28&#45;&gt;Node33</title>
<path fill="none" stroke="#63b8ff" d="M755.24,-422.42C711.11,-411.47 651.32,-396.62 605.32,-385.21"/>
<polygon fill="#63b8ff" stroke="#63b8ff" points="606.26,-381.83 595.71,-382.82 604.57,-388.63 606.26,-381.83"/>
</g>
<!-- Node29&#45;&gt;Node24 -->
<g id="edge46" class="edge">
<title>Node29&#45;&gt;Node24</title>
<path fill="none" stroke="#63b8ff" d="M974.62,-351.56C1005.74,-342.12 1046.6,-329.72 1079.67,-319.69"/>
<polygon fill="#63b8ff" stroke="#63b8ff" points="1080.56,-323.08 1089.11,-316.83 1078.52,-316.38 1080.56,-323.08"/>
</g>
<!-- Node30 -->
<g id="node30" class="node">
<title>Node30</title>
<g id="a_node30"><a xlink:href="supergenius__node_8hpp.html" target="_top" xlink:title=" ">
<polygon fill="white" stroke="#666666" points="603.5,-316 468.5,-316 468.5,-286 603.5,-286 603.5,-316"/>
<text text-anchor="start" x="476.5" y="-304" font-family="Helvetica,sans-Serif" font-size="10.00">storage/trie/supergenius</text>
<text text-anchor="middle" x="536" y="-293" font-family="Helvetica,sans-Serif" font-size="10.00">_trie/supergenius_node.hpp</text>
</a>
</g>
</g>
<!-- Node29&#45;&gt;Node30 -->
<g id="edge47" class="edge">
<title>Node29&#45;&gt;Node30</title>
<path fill="none" stroke="#63b8ff" d="M862.59,-356.17C801.55,-346.75 706.99,-331.92 614.82,-316.29"/>
<polygon fill="#63b8ff" stroke="#63b8ff" points="615.53,-312.86 605.08,-314.63 614.35,-319.76 615.53,-312.86"/>
</g>
<!-- Node30&#45;&gt;Node3 -->
<g id="edge50" class="edge">
<title>Node30&#45;&gt;Node3</title>
<path fill="none" stroke="#63b8ff" d="M565.17,-285.54C583.77,-276.32 607.73,-264.44 626.08,-255.34"/>
<polygon fill="#63b8ff" stroke="#63b8ff" points="627.4,-258.6 634.8,-251.02 624.29,-252.32 627.4,-258.6"/>
</g>
<!-- Node30&#45;&gt;Node12 -->
<g id="edge49" class="edge">
<title>Node30&#45;&gt;Node12</title>
<path fill="none" stroke="#63b8ff" d="M468.03,-287.09C410.55,-276.17 329.53,-260.78 277.88,-250.97"/>
<polygon fill="#63b8ff" stroke="#63b8ff" points="278.66,-247.56 268.18,-249.13 277.35,-254.44 278.66,-247.56"/>
</g>
<!-- Node31 -->
<g id="node31" class="node">
<title>Node31</title>
<g id="a_node31"><a xlink:title=" ">
<polygon fill="#e0e0e0" stroke="#999999" points="583.5,-250 488.5,-250 488.5,-231 583.5,-231 583.5,-250"/>
<text text-anchor="middle" x="536" y="-238" font-family="Helvetica,sans-Serif" font-size="10.00">boost/optional.hpp</text>
</a>
</g>
</g>
<!-- Node30&#45;&gt;Node31 -->
<g id="edge48" class="edge">
<title>Node30&#45;&gt;Node31</title>
<path fill="none" stroke="#63b8ff" d="M536,-285.54C536,-278.34 536,-269.53 536,-261.68"/>
<polygon fill="#63b8ff" stroke="#63b8ff" points="539.5,-261.69 536,-251.69 532.5,-261.69 539.5,-261.69"/>
</g>
<!-- Node32 -->
<g id="node32" class="node">
<title>Node32</title>
<g id="a_node32"><a xlink:href="src_2storage_2trie_2node_8hpp.html" target="_top" xlink:title=" ">
<polygon fill="white" stroke="#666666" points="431.5,-250 324.5,-250 324.5,-231 431.5,-231 431.5,-250"/>
<text text-anchor="middle" x="378" y="-238" font-family="Helvetica,sans-Serif" font-size="10.00">storage/trie/node.hpp</text>
</a>
</g>
</g>
<!-- Node30&#45;&gt;Node32 -->
<g id="edge51" class="edge">
<title>Node30&#45;&gt;Node32</title>
<path fill="none" stroke="#63b8ff" d="M496.94,-285.54C471.11,-275.97 437.54,-263.55 412.66,-254.33"/>
<polygon fill="#63b8ff" stroke="#63b8ff" points="413.9,-251.06 403.31,-250.87 411.47,-257.63 413.9,-251.06"/>
</g>
<!-- Node33&#45;&gt;Node20 -->
<g id="edge53" class="edge">
<title>Node33&#45;&gt;Node20</title>
<path fill="none" stroke="#63b8ff" d="M597.22,-358.31C692.49,-344.87 880.69,-312.41 1029,-250 1062.33,-235.98 1096.97,-212.2 1118.01,-196.55"/>
<polygon fill="#63b8ff" stroke="#63b8ff" points="1119.86,-199.54 1125.72,-190.71 1115.63,-193.96 1119.86,-199.54"/>
</g>
<!-- Node33&#45;&gt;Node30 -->
<g id="edge63" class="edge">
<title>Node33&#45;&gt;Node30</title>
<path fill="none" stroke="#63b8ff" d="M536,-351.8C536,-344.67 536,-335.82 536,-327.56"/>
<polygon fill="#63b8ff" stroke="#63b8ff" points="539.5,-327.68 536,-317.68 532.5,-327.68 539.5,-327.68"/>
</g>
<!-- Node34 -->
<g id="node34" class="node">
<title>Node34</title>
<g id="a_node34"><a xlink:title=" ">
<polygon fill="#e0e0e0" stroke="#999999" points="391,-310.5 341,-310.5 341,-291.5 391,-291.5 391,-310.5"/>
<text text-anchor="middle" x="366" y="-298.5" font-family="Helvetica,sans-Serif" font-size="10.00">optional</text>
</a>
</g>
</g>
<!-- Node33&#45;&gt;Node34 -->
<g id="edge54" class="edge">
<title>Node33&#45;&gt;Node34</title>
<path fill="none" stroke="#63b8ff" d="M496.03,-351.5C469.1,-341.66 432.84,-328.26 401,-316 400.22,-315.7 399.43,-315.4 398.64,-315.09"/>
<polygon fill="#63b8ff" stroke="#63b8ff" points="400.18,-311.93 389.59,-311.53 397.62,-318.45 400.18,-311.93"/>
</g>
<!-- Node35 -->
<g id="node35" class="node">
<title>Node35</title>
<g id="a_node35"><a xlink:title=" ">
<polygon fill="#e0e0e0" stroke="#999999" points="450.5,-310.5 409.5,-310.5 409.5,-291.5 450.5,-291.5 450.5,-310.5"/>
<text text-anchor="middle" x="430" y="-298.5" font-family="Helvetica,sans-Serif" font-size="10.00">string</text>
</a>
</g>
</g>
<!-- Node33&#45;&gt;Node35 -->
<g id="edge55" class="edge">
<title>Node33&#45;&gt;Node35</title>
<path fill="none" stroke="#63b8ff" d="M512.21,-351.64C494.96,-341.22 471.72,-327.19 454.34,-316.7"/>
<polygon fill="#63b8ff" stroke="#63b8ff" points="456.55,-313.94 446.18,-311.77 452.93,-319.93 456.55,-313.94"/>
</g>
<!-- Node36 -->
<g id="node36" class="node">
<title>Node36</title>
<g id="a_node36"><a xlink:href="buffer__stream_8hpp.html" target="_top" xlink:title=" ">
<polygon fill="white" stroke="#666666" points="740.5,-316 621.5,-316 621.5,-286 740.5,-286 740.5,-316"/>
<text text-anchor="start" x="629.5" y="-304" font-family="Helvetica,sans-Serif" font-size="10.00">storage/trie/serialization</text>
<text text-anchor="middle" x="681" y="-293" font-family="Helvetica,sans-Serif" font-size="10.00">/buffer_stream.hpp</text>
</a>
</g>
</g>
<!-- Node33&#45;&gt;Node36 -->
<g id="edge56" class="edge">
<title>Node33&#45;&gt;Node36</title>
<path fill="none" stroke="#63b8ff" d="M568.54,-351.64C588.99,-342.61 615.61,-330.86 637.82,-321.06"/>
<polygon fill="#63b8ff" stroke="#63b8ff" points="639.2,-324.28 646.93,-317.04 636.37,-317.87 639.2,-324.28"/>
</g>
<!-- Node37 -->
<g id="node37" class="node">
<title>Node37</title>
<g id="a_node37"><a xlink:href="codec_8hpp.html" target="_top" xlink:title=" ">
<polygon fill="white" stroke="#666666" points="284.5,-310.5 171.5,-310.5 171.5,-291.5 284.5,-291.5 284.5,-310.5"/>
<text text-anchor="middle" x="228" y="-298.5" font-family="Helvetica,sans-Serif" font-size="10.00">storage/trie/codec.hpp</text>
</a>
</g>
</g>
<!-- Node33&#45;&gt;Node37 -->
<g id="edge59" class="edge">
<title>Node33&#45;&gt;Node37</title>
<path fill="none" stroke="#63b8ff" d="M474.78,-353.28C418.6,-341.61 336.16,-324.48 282.29,-313.28"/>
<polygon fill="#63b8ff" stroke="#63b8ff" points="283.23,-309.9 272.73,-311.29 281.8,-316.75 283.23,-309.9"/>
</g>
<!-- Node36&#45;&gt;Node3 -->
<g id="edge58" class="edge">
<title>Node36&#45;&gt;Node3</title>
<path fill="none" stroke="#63b8ff" d="M674.33,-285.54C670.84,-278 666.54,-268.67 662.79,-260.55"/>
<polygon fill="#63b8ff" stroke="#63b8ff" points="666.01,-259.16 658.64,-251.55 659.65,-262.1 666.01,-259.16"/>
</g>
<!-- Node36&#45;&gt;Node8 -->
<g id="edge57" class="edge">
<title>Node36&#45;&gt;Node8</title>
<path fill="none" stroke="#63b8ff" d="M692.38,-285.79C707.58,-266.26 734.63,-229.61 752,-195 761.02,-177.03 768.24,-155.18 772.76,-139.8"/>
<polygon fill="#63b8ff" stroke="#63b8ff" points="776.04,-141.09 775.38,-130.51 769.3,-139.19 776.04,-141.09"/>
</g>
<!-- Node37&#45;&gt;Node3 -->
<g id="edge61" class="edge">
<title>Node37&#45;&gt;Node3</title>
<path fill="none" stroke="#63b8ff" d="M270.71,-291.05C280.01,-289.25 289.82,-287.47 299,-286 429,-265.25 462.47,-267.08 593,-250 595.5,-249.67 598.05,-249.33 600.63,-248.99"/>
<polygon fill="#63b8ff" stroke="#63b8ff" points="601.07,-252.46 610.51,-247.65 600.13,-245.52 601.07,-252.46"/>
</g>
<!-- Node37&#45;&gt;Node12 -->
<g id="edge60" class="edge">
<title>Node37&#45;&gt;Node12</title>
<path fill="none" stroke="#63b8ff" d="M228,-291.37C228,-283.5 228,-271.6 228,-261.39"/>
<polygon fill="#63b8ff" stroke="#63b8ff" points="231.5,-261.68 228,-251.68 224.5,-261.68 231.5,-261.68"/>
</g>
<!-- Node37&#45;&gt;Node32 -->
<g id="edge62" class="edge">
<title>Node37&#45;&gt;Node32</title>
<path fill="none" stroke="#63b8ff" d="M250.78,-291.12C275.67,-281.41 315.79,-265.76 344.32,-254.64"/>
<polygon fill="#63b8ff" stroke="#63b8ff" points="345.55,-257.91 353.59,-251.02 343.01,-251.39 345.55,-257.91"/>
</g>
</g>
</svg>
