<?xml version="1.0" encoding="UTF-8" standalone="no"?>
<!DOCTYPE svg PUBLIC "-//W3C//DTD SVG 1.1//EN"
 "http://www.w3.org/Graphics/SVG/1.1/DTD/svg11.dtd">
<!-- Generated by graphviz version 7.0.5 (20221223.1930)
 -->
<!-- Title: sgns::crdt::CrdtDatastore::DagJob Pages: 1 -->
<svg width="272pt" height="335pt"
 viewBox="0.00 0.00 271.50 335.00" xmlns="http://www.w3.org/2000/svg" xmlns:xlink="http://www.w3.org/1999/xlink">
<g id="graph0" class="graph" transform="scale(1 1) rotate(0) translate(4 331)">
<title>sgns::crdt::CrdtDatastore::DagJob</title>
<!-- Node1 -->
<g id="node1" class="node">
<title>Node1</title>
<g id="a_node1"><a xlink:title=" ">
<polygon fill="#999999" stroke="#666666" points="194,-63 68,-63 68,0 194,0 194,-63"/>
<text text-anchor="start" x="76" y="-51" font-family="Helvetica,sans-Serif" font-size="10.00">{sgns::crdt::CrdtDatastore</text>
<text text-anchor="middle" x="131" y="-40" font-family="Helvetica,sans-Serif" font-size="10.00">::DagJob</text>
<text text-anchor="start" x="76" y="-29" font-family="Helvetica,sans-Serif" font-size="10.00">|+ rootCid_</text>
<text text-anchor="start" x="76" y="-18" font-family="Helvetica,sans-Serif" font-size="10.00">+ rootPriority_</text>
<text text-anchor="middle" x="131" y="-7" font-family="Helvetica,sans-Serif" font-size="10.00">|}</text>
</a>
</g>
</g>
<!-- Node2 -->
<g id="node2" class="node">
<title>Node2</title>
<g id="a_node2"><a xlink:title=" ">
<polygon fill="white" stroke="#666666" points="122,-162 0,-162 0,-110 122,-110 122,-162"/>
<text text-anchor="middle" x="61" y="-150" font-family="Helvetica,sans-Serif" font-size="10.00">{std::shared_ptr&lt; Delta &gt;</text>
<text text-anchor="start" x="8" y="-139" font-family="Helvetica,sans-Serif" font-size="10.00">|+ ptr</text>
<text text-anchor="start" x="8" y="-128" font-family="Helvetica,sans-Serif" font-size="10.00">|+ operator&#45;&gt;()</text>
<text text-anchor="middle" x="61" y="-117" font-family="Helvetica,sans-Serif" font-size="10.00">}</text>
</a>
</g>
</g>
<!-- Node2&#45;&gt;Node1 -->
<g id="edge1" class="edge">
<title>Node2&#45;&gt;Node1</title>
<path fill="none" stroke="#404040" d="M78.3,-109.66C85.62,-98.95 94.33,-86.19 102.55,-74.16"/>
<polygon fill="none" stroke="#404040" points="102.62,-74.05 102.7,-66.84 109.39,-64.14 109.31,-71.35 102.62,-74.05"/>
<text text-anchor="middle" x="113.5" y="-84" font-family="Helvetica,sans-Serif" font-size="10.00"> +delta_</text>
</g>
<!-- Node3 -->
<g id="node3" class="node">
<title>Node3</title>
<g id="a_node3"><a xlink:title=" ">
<polygon fill="white" stroke="#666666" points="184,-250 78,-250 78,-209 184,-209 184,-250"/>
<text text-anchor="middle" x="131" y="-238" font-family="Helvetica,sans-Serif" font-size="10.00">{std::shared_ptr&lt; T &gt;</text>
<text text-anchor="start" x="86" y="-227" font-family="Helvetica,sans-Serif" font-size="10.00">||+ operator&#45;&gt;()</text>
<text text-anchor="middle" x="131" y="-216" font-family="Helvetica,sans-Serif" font-size="10.00">}</text>
</a>
</g>
</g>
<!-- Node3&#45;&gt;Node2 -->
<g id="edge2" class="edge">
<title>Node3&#45;&gt;Node2</title>
<path fill="none" stroke="orange" d="M108.84,-199.54C99.72,-187.61 89.24,-173.92 80.42,-162.39"/>
<polygon fill="orange" stroke="orange" points="106.04,-201.63 114.89,-207.44 111.6,-197.37 106.04,-201.63"/>
<text text-anchor="middle" x="124" y="-183" font-family="Helvetica,sans-Serif" font-size="10.00"> &lt; Delta &gt;</text>
</g>
<!-- Node5 -->
<g id="node5" class="node">
<title>Node5</title>
<g id="a_node5"><a xlink:title=" ">
<polygon fill="white" stroke="#666666" points="263.5,-162 140.5,-162 140.5,-110 263.5,-110 263.5,-162"/>
<text text-anchor="middle" x="202" y="-150" font-family="Helvetica,sans-Serif" font-size="10.00">{std::shared_ptr&lt; Node &gt;</text>
<text text-anchor="start" x="148.5" y="-139" font-family="Helvetica,sans-Serif" font-size="10.00">|+ ptr</text>
<text text-anchor="start" x="148.5" y="-128" font-family="Helvetica,sans-Serif" font-size="10.00">|+ operator&#45;&gt;()</text>
<text text-anchor="middle" x="202" y="-117" font-family="Helvetica,sans-Serif" font-size="10.00">}</text>
</a>
</g>
</g>
<!-- Node3&#45;&gt;Node5 -->
<g id="edge5" class="edge">
<title>Node3&#45;&gt;Node5</title>
<path fill="none" stroke="orange" d="M153.2,-199.89C162.52,-187.88 173.27,-174.03 182.3,-162.39"/>
<polygon fill="orange" stroke="orange" points="150.7,-197.4 147.33,-207.45 156.23,-201.7 150.7,-197.4"/>
<text text-anchor="middle" x="190.5" y="-183" font-family="Helvetica,sans-Serif" font-size="10.00"> &lt; Node &gt;</text>
</g>
<!-- Node4 -->
<g id="node4" class="node">
<title>Node4</title>
<g id="a_node4"><a xlink:title=" ">
<polygon fill="white" stroke="#666666" points="145.5,-327 116.5,-327 116.5,-297 145.5,-297 145.5,-327"/>
<text text-anchor="middle" x="131" y="-315" font-family="Helvetica,sans-Serif" font-size="10.00">{T</text>
<text text-anchor="middle" x="131" y="-304" font-family="Helvetica,sans-Serif" font-size="10.00">||}</text>
</a>
</g>
</g>
<!-- Node4&#45;&gt;Node3 -->
<g id="edge3" class="edge">
<title>Node4&#45;&gt;Node3</title>
<path fill="none" stroke="#404040" d="M131,-296.61C131,-287.31 131,-274.82 131,-263.21"/>
<polygon fill="none" stroke="#404040" points="131,-263.11 127,-257.11 131,-251.11 135,-257.11 131,-263.11"/>
<text text-anchor="middle" x="141" y="-271" font-family="Helvetica,sans-Serif" font-size="10.00"> +ptr</text>
</g>
<!-- Node5&#45;&gt;Node1 -->
<g id="edge4" class="edge">
<title>Node5&#45;&gt;Node1</title>
<path fill="none" stroke="#404040" d="M184.45,-109.66C176.95,-98.84 168.01,-85.93 159.6,-73.79"/>
<polygon fill="none" stroke="#404040" points="159.75,-74 153.04,-71.35 152.91,-64.14 159.62,-66.79 159.75,-74"/>
<text text-anchor="middle" x="188.5" y="-84" font-family="Helvetica,sans-Serif" font-size="10.00"> +node_</text>
</g>
</g>
</svg>
