<?xml version="1.0" encoding="UTF-8" standalone="no"?>
<!DOCTYPE svg PUBLIC "-//W3C//DTD SVG 1.1//EN"
 "http://www.w3.org/Graphics/SVG/1.1/DTD/svg11.dtd">
<!-- Generated by graphviz version 7.0.5 (20221223.1930)
 -->
<!-- Title: sgns::storage::trie::LeafNode Pages: 1 -->
<svg width="584pt" height="843pt"
 viewBox="0.00 0.00 583.50 843.00" xmlns="http://www.w3.org/2000/svg" xmlns:xlink="http://www.w3.org/1999/xlink">
<g id="graph0" class="graph" transform="scale(1 1) rotate(0) translate(4 839)">
<title>sgns::storage::trie::LeafNode</title>
<!-- Node1 -->
<g id="node1" class="node">
<title>Node1</title>
<g id="a_node1"><a xlink:title=" ">
<polygon fill="#999999" stroke="#666666" points="251,-96 156,-96 156,0 251,0 251,-96"/>
<text text-anchor="start" x="164" y="-84" font-family="Helvetica,sans-Serif" font-size="10.00">{sgns::storage::trie</text>
<text text-anchor="middle" x="203.5" y="-73" font-family="Helvetica,sans-Serif" font-size="10.00">::LeafNode</text>
<text text-anchor="start" x="164" y="-62" font-family="Helvetica,sans-Serif" font-size="10.00">||+ LeafNode()</text>
<text text-anchor="start" x="164" y="-51" font-family="Helvetica,sans-Serif" font-size="10.00">+ LeafNode()</text>
<text text-anchor="start" x="164" y="-40" font-family="Helvetica,sans-Serif" font-size="10.00">+ ~LeafNode()</text>
<text text-anchor="start" x="164" y="-29" font-family="Helvetica,sans-Serif" font-size="10.00">+ isDummy()</text>
<text text-anchor="start" x="164" y="-18" font-family="Helvetica,sans-Serif" font-size="10.00">+ getType()</text>
<text text-anchor="middle" x="203.5" y="-7" font-family="Helvetica,sans-Serif" font-size="10.00">}</text>
</a>
</g>
</g>
<!-- Node2 -->
<g id="node2" class="node">
<title>Node2</title>
<g id="a_node2"><a xlink:href="structsgns_1_1storage_1_1trie_1_1_super_genius_node.html" target="_top" xlink:title=" ">
<polygon fill="white" stroke="#666666" points="261.5,-240 145.5,-240 145.5,-133 261.5,-133 261.5,-240"/>
<text text-anchor="start" x="153.5" y="-228" font-family="Helvetica,sans-Serif" font-size="10.00">{sgns::storage::trie</text>
<text text-anchor="middle" x="203.5" y="-217" font-family="Helvetica,sans-Serif" font-size="10.00">::SuperGeniusNode</text>
<text text-anchor="start" x="153.5" y="-206" font-family="Helvetica,sans-Serif" font-size="10.00">|+ value</text>
<text text-anchor="start" x="153.5" y="-195" font-family="Helvetica,sans-Serif" font-size="10.00">|+ SuperGeniusNode()</text>
<text text-anchor="start" x="153.5" y="-184" font-family="Helvetica,sans-Serif" font-size="10.00">+ SuperGeniusNode()</text>
<text text-anchor="start" x="153.5" y="-173" font-family="Helvetica,sans-Serif" font-size="10.00">+ ~SuperGeniusNode()</text>
<text text-anchor="start" x="153.5" y="-162" font-family="Helvetica,sans-Serif" font-size="10.00">+ isDummy()</text>
<text text-anchor="start" x="153.5" y="-151" font-family="Helvetica,sans-Serif" font-size="10.00">+ getTrieType()</text>
<text text-anchor="middle" x="203.5" y="-140" font-family="Helvetica,sans-Serif" font-size="10.00">}</text>
</a>
</g>
</g>
<!-- Node2&#45;&gt;Node1 -->
<g id="edge1" class="edge">
<title>Node2&#45;&gt;Node1</title>
<path fill="none" stroke="#63b8ff" d="M203.5,-121.32C203.5,-112.89 203.5,-104.37 203.5,-96.29"/>
<polygon fill="none" stroke="#63b8ff" points="200,-121.21 203.5,-131.21 207,-121.21 200,-121.21"/>
</g>
<!-- Node3 -->
<g id="node3" class="node">
<title>Node3</title>
<g id="a_node3"><a xlink:href="structsgns_1_1storage_1_1trie_1_1_node.html" target="_top" xlink:title=" ">
<polygon fill="white" stroke="#666666" points="235,-366.5 140,-366.5 140,-303.5 235,-303.5 235,-366.5"/>
<text text-anchor="start" x="148" y="-354.5" font-family="Helvetica,sans-Serif" font-size="10.00">{sgns::storage::trie</text>
<text text-anchor="middle" x="187.5" y="-343.5" font-family="Helvetica,sans-Serif" font-size="10.00">::Node</text>
<text text-anchor="start" x="148" y="-332.5" font-family="Helvetica,sans-Serif" font-size="10.00">||+ ~Node()</text>
<text text-anchor="start" x="148" y="-321.5" font-family="Helvetica,sans-Serif" font-size="10.00">+ getType()</text>
<text text-anchor="middle" x="187.5" y="-310.5" font-family="Helvetica,sans-Serif" font-size="10.00">}</text>
</a>
</g>
</g>
<!-- Node3&#45;&gt;Node2 -->
<g id="edge2" class="edge">
<title>Node3&#45;&gt;Node2</title>
<path fill="none" stroke="#63b8ff" d="M192.08,-292.06C193.84,-275.97 195.87,-257.38 197.72,-240.39"/>
<polygon fill="none" stroke="#63b8ff" points="188.62,-291.46 191.02,-301.78 195.58,-292.22 188.62,-291.46"/>
</g>
<!-- Node4 -->
<g id="node4" class="node">
<title>Node4</title>
<g id="a_node4"><a xlink:href="structsgns_1_1storage_1_1trie_1_1_key_nibbles.html" target="_top" xlink:title=" ">
<polygon fill="white" stroke="#666666" points="348,-383 253,-383 253,-287 348,-287 348,-383"/>
<text text-anchor="start" x="261" y="-371" font-family="Helvetica,sans-Serif" font-size="10.00">{sgns::storage::trie</text>
<text text-anchor="middle" x="300.5" y="-360" font-family="Helvetica,sans-Serif" font-size="10.00">::KeyNibbles</text>
<text text-anchor="start" x="261" y="-349" font-family="Helvetica,sans-Serif" font-size="10.00">||+ KeyNibbles()</text>
<text text-anchor="start" x="261" y="-338" font-family="Helvetica,sans-Serif" font-size="10.00">+ KeyNibbles()</text>
<text text-anchor="start" x="261" y="-327" font-family="Helvetica,sans-Serif" font-size="10.00">+ KeyNibbles()</text>
<text text-anchor="start" x="261" y="-316" font-family="Helvetica,sans-Serif" font-size="10.00">+ operator=()</text>
<text text-anchor="start" x="261" y="-305" font-family="Helvetica,sans-Serif" font-size="10.00">+ subspan()</text>
<text text-anchor="middle" x="300.5" y="-294" font-family="Helvetica,sans-Serif" font-size="10.00">}</text>
</a>
</g>
</g>
<!-- Node4&#45;&gt;Node2 -->
<g id="edge3" class="edge">
<title>Node4&#45;&gt;Node2</title>
<path fill="none" stroke="#404040" d="M269.27,-286.84C261.77,-275.5 253.63,-263.21 245.72,-251.26"/>
<polygon fill="none" stroke="#404040" points="245.66,-251.17 239.01,-248.38 239.04,-241.17 245.68,-243.96 245.66,-251.17"/>
<text text-anchor="middle" x="284.5" y="-261" font-family="Helvetica,sans-Serif" font-size="10.00"> +key_nibbles</text>
</g>
<!-- Node5 -->
<g id="node5" class="node">
<title>Node5</title>
<g id="a_node5"><a xlink:href="classsgns_1_1base_1_1_buffer.html" target="_top" xlink:title="Class represents arbitrary (including empty) byte buffer.">
<polygon fill="white" stroke="#666666" points="348.5,-593 252.5,-593 252.5,-420 348.5,-420 348.5,-593"/>
<text text-anchor="middle" x="300.5" y="-581" font-family="Helvetica,sans-Serif" font-size="10.00">{sgns::base::Buffer</text>
<text text-anchor="start" x="260.5" y="-570" font-family="Helvetica,sans-Serif" font-size="10.00">||+ Buffer()</text>
<text text-anchor="start" x="260.5" y="-559" font-family="Helvetica,sans-Serif" font-size="10.00">+ ~Buffer()</text>
<text text-anchor="start" x="260.5" y="-548" font-family="Helvetica,sans-Serif" font-size="10.00">+ Buffer()</text>
<text text-anchor="start" x="260.5" y="-537" font-family="Helvetica,sans-Serif" font-size="10.00">+ Buffer()</text>
<text text-anchor="start" x="260.5" y="-526" font-family="Helvetica,sans-Serif" font-size="10.00">+ Buffer()</text>
<text text-anchor="start" x="260.5" y="-515" font-family="Helvetica,sans-Serif" font-size="10.00">+ Buffer()</text>
<text text-anchor="start" x="260.5" y="-504" font-family="Helvetica,sans-Serif" font-size="10.00">+ Buffer()</text>
<text text-anchor="start" x="260.5" y="-493" font-family="Helvetica,sans-Serif" font-size="10.00">+ Buffer()</text>
<text text-anchor="start" x="260.5" y="-482" font-family="Helvetica,sans-Serif" font-size="10.00">+ Buffer()</text>
<text text-anchor="start" x="260.5" y="-471" font-family="Helvetica,sans-Serif" font-size="10.00">+ reserve()</text>
<text text-anchor="start" x="260.5" y="-460" font-family="Helvetica,sans-Serif" font-size="10.00">and 32 more...</text>
<text text-anchor="start" x="260.5" y="-449" font-family="Helvetica,sans-Serif" font-size="10.00">+ fromHex()</text>
<text text-anchor="start" x="260.5" y="-438" font-family="Helvetica,sans-Serif" font-size="10.00">&#45; putRange()</text>
<text text-anchor="middle" x="300.5" y="-427" font-family="Helvetica,sans-Serif" font-size="10.00">}</text>
</a>
</g>
</g>
<!-- Node5&#45;&gt;Node4 -->
<g id="edge4" class="edge">
<title>Node5&#45;&gt;Node4</title>
<path fill="none" stroke="#63b8ff" d="M300.5,-408.39C300.5,-399.79 300.5,-391.37 300.5,-383.48"/>
<polygon fill="none" stroke="#63b8ff" points="297,-408.24 300.5,-418.24 304,-408.24 297,-408.24"/>
</g>
<!-- Node6 -->
<g id="node6" class="node">
<title>Node6</title>
<g id="a_node6"><a xlink:title=" ">
<polygon fill="white" stroke="#666666" points="137,-681 0,-681 0,-640 137,-640 137,-681"/>
<text text-anchor="start" x="8" y="-669" font-family="Helvetica,sans-Serif" font-size="10.00">{boost::equality_comparable</text>
<text text-anchor="middle" x="68.5" y="-658" font-family="Helvetica,sans-Serif" font-size="10.00">&lt; Buffer &gt;</text>
<text text-anchor="middle" x="68.5" y="-647" font-family="Helvetica,sans-Serif" font-size="10.00">||}</text>
</a>
</g>
</g>
<!-- Node6&#45;&gt;Node5 -->
<g id="edge5" class="edge">
<title>Node6&#45;&gt;Node5</title>
<path fill="none" stroke="#63b8ff" d="M108.24,-633.46C148.17,-607.3 209.74,-566.96 252.4,-539.01"/>
<polygon fill="none" stroke="#63b8ff" points="106.54,-630.39 100.1,-638.8 110.38,-636.25 106.54,-630.39"/>
</g>
<!-- Node7 -->
<g id="node7" class="node">
<title>Node7</title>
<g id="a_node7"><a xlink:title=" ">
<polygon fill="white" stroke="#666666" points="292,-681 155,-681 155,-640 292,-640 292,-681"/>
<text text-anchor="start" x="163" y="-669" font-family="Helvetica,sans-Serif" font-size="10.00">{boost::equality_comparable</text>
<text text-anchor="middle" x="223.5" y="-658" font-family="Helvetica,sans-Serif" font-size="10.00">&lt; gsl::span&lt; uint8_t &gt; &gt;</text>
<text text-anchor="middle" x="223.5" y="-647" font-family="Helvetica,sans-Serif" font-size="10.00">||}</text>
</a>
</g>
</g>
<!-- Node7&#45;&gt;Node5 -->
<g id="edge6" class="edge">
<title>Node7&#45;&gt;Node5</title>
<path fill="none" stroke="#63b8ff" d="M238.6,-629.69C243.99,-619.05 250.37,-606.45 256.95,-593.47"/>
<polygon fill="none" stroke="#63b8ff" points="235.65,-627.78 234.25,-638.28 241.89,-630.94 235.65,-627.78"/>
</g>
<!-- Node8 -->
<g id="node8" class="node">
<title>Node8</title>
<g id="a_node8"><a xlink:title=" ">
<polygon fill="white" stroke="#666666" points="447,-681 310,-681 310,-640 447,-640 447,-681"/>
<text text-anchor="start" x="318" y="-669" font-family="Helvetica,sans-Serif" font-size="10.00">{boost::equality_comparable</text>
<text text-anchor="middle" x="378.5" y="-658" font-family="Helvetica,sans-Serif" font-size="10.00">&lt; std::vector&lt; uint8_t &gt; &gt;</text>
<text text-anchor="middle" x="378.5" y="-647" font-family="Helvetica,sans-Serif" font-size="10.00">||}</text>
</a>
</g>
</g>
<!-- Node8&#45;&gt;Node5 -->
<g id="edge7" class="edge">
<title>Node8&#45;&gt;Node5</title>
<path fill="none" stroke="#63b8ff" d="M363.2,-629.69C357.74,-619.05 351.28,-606.45 344.61,-593.47"/>
<polygon fill="none" stroke="#63b8ff" points="359.93,-630.98 367.61,-638.28 366.16,-627.79 359.93,-630.98"/>
</g>
<!-- Node9 -->
<g id="node9" class="node">
<title>Node9</title>
<g id="a_node9"><a xlink:title=" ">
<polygon fill="white" stroke="#666666" points="575.5,-681 465.5,-681 465.5,-640 575.5,-640 575.5,-681"/>
<text text-anchor="middle" x="520.5" y="-669" font-family="Helvetica,sans-Serif" font-size="10.00">{std::vector&lt; uint8_t &gt;</text>
<text text-anchor="start" x="473.5" y="-658" font-family="Helvetica,sans-Serif" font-size="10.00">|+ elements</text>
<text text-anchor="middle" x="520.5" y="-647" font-family="Helvetica,sans-Serif" font-size="10.00">|}</text>
</a>
</g>
</g>
<!-- Node9&#45;&gt;Node5 -->
<g id="edge8" class="edge">
<title>Node9&#45;&gt;Node5</title>
<path fill="none" stroke="#404040" d="M491.74,-639.63C458.24,-616.48 402.03,-577.64 359.19,-548.05"/>
<polygon fill="none" stroke="#404040" points="359.22,-548.07 352.01,-547.95 349.35,-541.25 356.56,-541.37 359.22,-548.07"/>
<text text-anchor="middle" x="475.5" y="-614" font-family="Helvetica,sans-Serif" font-size="10.00"> &#45;data_</text>
</g>
<!-- Node10 -->
<g id="node10" class="node">
<title>Node10</title>
<g id="a_node10"><a xlink:title=" ">
<polygon fill="white" stroke="#666666" points="564,-758 477,-758 477,-728 564,-728 564,-758"/>
<text text-anchor="middle" x="520.5" y="-746" font-family="Helvetica,sans-Serif" font-size="10.00">{std::vector&lt; T &gt;</text>
<text text-anchor="middle" x="520.5" y="-735" font-family="Helvetica,sans-Serif" font-size="10.00">||}</text>
</a>
</g>
</g>
<!-- Node10&#45;&gt;Node9 -->
<g id="edge9" class="edge">
<title>Node10&#45;&gt;Node9</title>
<path fill="none" stroke="orange" d="M520.5,-716.2C520.5,-704.86 520.5,-691.75 520.5,-681.21"/>
<polygon fill="orange" stroke="orange" points="517,-716.09 520.5,-726.09 524,-716.09 517,-716.09"/>
<text text-anchor="middle" x="545" y="-702" font-family="Helvetica,sans-Serif" font-size="10.00"> &lt; uint8_t &gt;</text>
</g>
<!-- Node11 -->
<g id="node11" class="node">
<title>Node11</title>
<g id="a_node11"><a xlink:title=" ">
<polygon fill="white" stroke="#666666" points="535,-835 506,-835 506,-805 535,-805 535,-835"/>
<text text-anchor="middle" x="520.5" y="-823" font-family="Helvetica,sans-Serif" font-size="10.00">{T</text>
<text text-anchor="middle" x="520.5" y="-812" font-family="Helvetica,sans-Serif" font-size="10.00">||}</text>
</a>
</g>
</g>
<!-- Node11&#45;&gt;Node10 -->
<g id="edge10" class="edge">
<title>Node11&#45;&gt;Node10</title>
<path fill="none" stroke="#404040" d="M520.5,-804.54C520.5,-795.1 520.5,-782.47 520.5,-771.2"/>
<polygon fill="none" stroke="#404040" points="520.5,-771.32 516.5,-765.32 520.5,-759.32 524.5,-765.32 520.5,-771.32"/>
<text text-anchor="middle" x="545" y="-779" font-family="Helvetica,sans-Serif" font-size="10.00"> +elements</text>
</g>
</g>
</svg>
