<?xml version="1.0" encoding="UTF-8" standalone="no"?>
<!DOCTYPE svg PUBLIC "-//W3C//DTD SVG 1.1//EN"
 "http://www.w3.org/Graphics/SVG/1.1/DTD/svg11.dtd">
<!-- Generated by graphviz version 7.0.5 (20221223.1930)
 -->
<!-- Title: sgns::blockchain::BlockTreeImpl::TreeMeta Pages: 1 -->
<svg width="278pt" height="511pt"
 viewBox="0.00 0.00 277.50 511.00" xmlns="http://www.w3.org/2000/svg" xmlns:xlink="http://www.w3.org/1999/xlink">
<g id="graph0" class="graph" transform="scale(1 1) rotate(0) translate(4 507)">
<title>sgns::blockchain::BlockTreeImpl::TreeMeta</title>
<!-- Node1 -->
<g id="node1" class="node">
<title>Node1</title>
<g id="a_node1"><a xlink:title=" ">
<polygon fill="#999999" stroke="#666666" points="206.5,-85 66.5,-85 66.5,0 206.5,0 206.5,-85"/>
<text text-anchor="start" x="74.5" y="-73" font-family="Helvetica,sans-Serif" font-size="10.00">{sgns::blockchain::BlockTree</text>
<text text-anchor="middle" x="136.5" y="-62" font-family="Helvetica,sans-Serif" font-size="10.00">Impl::TreeMeta</text>
<text text-anchor="start" x="74.5" y="-51" font-family="Helvetica,sans-Serif" font-size="10.00">|+ deepest_leaf</text>
<text text-anchor="start" x="74.5" y="-40" font-family="Helvetica,sans-Serif" font-size="10.00">+ last_finalized</text>
<text text-anchor="start" x="74.5" y="-29" font-family="Helvetica,sans-Serif" font-size="10.00">|+ TreeMeta()</text>
<text text-anchor="start" x="74.5" y="-18" font-family="Helvetica,sans-Serif" font-size="10.00">+ TreeMeta()</text>
<text text-anchor="middle" x="136.5" y="-7" font-family="Helvetica,sans-Serif" font-size="10.00">}</text>
</a>
</g>
</g>
<!-- Node2 -->
<g id="node2" class="node">
<title>Node2</title>
<g id="a_node2"><a xlink:title=" ">
<polygon fill="white" stroke="#666666" points="188.5,-173 84.5,-173 84.5,-132 188.5,-132 188.5,-173"/>
<text text-anchor="start" x="92.5" y="-161" font-family="Helvetica,sans-Serif" font-size="10.00">{std::unordered_set</text>
<text text-anchor="middle" x="136.5" y="-150" font-family="Helvetica,sans-Serif" font-size="10.00">&lt; sgns::base::Blob &gt;</text>
<text text-anchor="middle" x="136.5" y="-139" font-family="Helvetica,sans-Serif" font-size="10.00">||}</text>
</a>
</g>
</g>
<!-- Node2&#45;&gt;Node1 -->
<g id="edge1" class="edge">
<title>Node2&#45;&gt;Node1</title>
<path fill="none" stroke="#404040" d="M136.5,-131.69C136.5,-122.12 136.5,-110.12 136.5,-98.07"/>
<polygon fill="none" stroke="#404040" points="136.5,-98.01 132.5,-92.01 136.5,-86.01 140.5,-92.01 136.5,-98.01"/>
<text text-anchor="middle" x="155" y="-106" font-family="Helvetica,sans-Serif" font-size="10.00"> +leaves</text>
</g>
<!-- Node3 -->
<g id="node3" class="node">
<title>Node3</title>
<g id="a_node3"><a xlink:href="classsgns_1_1base_1_1_blob.html" target="_top" xlink:title=" ">
<polygon fill="white" stroke="#666666" points="129,-349 0,-349 0,-220 129,-220 129,-349"/>
<text text-anchor="middle" x="64.5" y="-337" font-family="Helvetica,sans-Serif" font-size="10.00">{sgns::base::Blob&lt; size_ &gt;</text>
<text text-anchor="start" x="8" y="-326" font-family="Helvetica,sans-Serif" font-size="10.00">||+ Blob()</text>
<text text-anchor="start" x="8" y="-315" font-family="Helvetica,sans-Serif" font-size="10.00">+ Blob()</text>
<text text-anchor="start" x="8" y="-304" font-family="Helvetica,sans-Serif" font-size="10.00">+ toString()</text>
<text text-anchor="start" x="8" y="-293" font-family="Helvetica,sans-Serif" font-size="10.00">+ toHex()</text>
<text text-anchor="start" x="8" y="-282" font-family="Helvetica,sans-Serif" font-size="10.00">+ size()</text>
<text text-anchor="start" x="8" y="-271" font-family="Helvetica,sans-Serif" font-size="10.00">+ fromString()</text>
<text text-anchor="start" x="8" y="-260" font-family="Helvetica,sans-Serif" font-size="10.00">+ fromHex()</text>
<text text-anchor="start" x="8" y="-249" font-family="Helvetica,sans-Serif" font-size="10.00">+ fromHexWithPrefix()</text>
<text text-anchor="start" x="8" y="-238" font-family="Helvetica,sans-Serif" font-size="10.00">+ fromSpan()</text>
<text text-anchor="middle" x="64.5" y="-227" font-family="Helvetica,sans-Serif" font-size="10.00">}</text>
</a>
</g>
</g>
<!-- Node3&#45;&gt;Node2 -->
<g id="edge2" class="edge">
<title>Node3&#45;&gt;Node2</title>
<path fill="none" stroke="#404040" d="M99.87,-219.64C106.64,-207.42 113.44,-195.14 119.31,-184.54"/>
<polygon fill="none" stroke="#404040" points="119.24,-184.66 118.65,-177.48 125.06,-174.16 125.65,-181.35 119.24,-184.66"/>
<text text-anchor="middle" x="130" y="-194" font-family="Helvetica,sans-Serif" font-size="10.00"> +keys</text>
</g>
<!-- Node4 -->
<g id="node4" class="node">
<title>Node4</title>
<g id="a_node4"><a xlink:title=" ">
<polygon fill="white" stroke="#666666" points="105,-426 24,-426 24,-396 105,-396 105,-426"/>
<text text-anchor="middle" x="64.5" y="-414" font-family="Helvetica,sans-Serif" font-size="10.00">{std::array&lt; T &gt;</text>
<text text-anchor="middle" x="64.5" y="-403" font-family="Helvetica,sans-Serif" font-size="10.00">||}</text>
</a>
</g>
</g>
<!-- Node4&#45;&gt;Node3 -->
<g id="edge3" class="edge">
<title>Node4&#45;&gt;Node3</title>
<path fill="none" stroke="#63b8ff" d="M64.5,-384.35C64.5,-374.09 64.5,-361.76 64.5,-349.35"/>
<polygon fill="none" stroke="#63b8ff" points="61,-384.2 64.5,-394.2 68,-384.2 61,-384.2"/>
</g>
<!-- Node5 -->
<g id="node5" class="node">
<title>Node5</title>
<g id="a_node5"><a xlink:title=" ">
<polygon fill="white" stroke="#666666" points="79,-503 50,-503 50,-473 79,-473 79,-503"/>
<text text-anchor="middle" x="64.5" y="-491" font-family="Helvetica,sans-Serif" font-size="10.00">{T</text>
<text text-anchor="middle" x="64.5" y="-480" font-family="Helvetica,sans-Serif" font-size="10.00">||}</text>
</a>
</g>
</g>
<!-- Node5&#45;&gt;Node4 -->
<g id="edge4" class="edge">
<title>Node5&#45;&gt;Node4</title>
<path fill="none" stroke="#404040" d="M64.5,-472.54C64.5,-463.1 64.5,-450.47 64.5,-439.2"/>
<polygon fill="none" stroke="#404040" points="64.5,-439.32 60.5,-433.32 64.5,-427.32 68.5,-433.32 64.5,-439.32"/>
<text text-anchor="middle" x="89" y="-447" font-family="Helvetica,sans-Serif" font-size="10.00"> +elements</text>
</g>
<!-- Node6 -->
<g id="node6" class="node">
<title>Node6</title>
<g id="a_node6"><a xlink:title=" ">
<polygon fill="white" stroke="#666666" points="269.5,-299.5 147.5,-299.5 147.5,-269.5 269.5,-269.5 269.5,-299.5"/>
<text text-anchor="middle" x="208.5" y="-287.5" font-family="Helvetica,sans-Serif" font-size="10.00">{std::unordered_set&lt; K &gt;</text>
<text text-anchor="middle" x="208.5" y="-276.5" font-family="Helvetica,sans-Serif" font-size="10.00">||}</text>
</a>
</g>
</g>
<!-- Node6&#45;&gt;Node2 -->
<g id="edge5" class="edge">
<title>Node6&#45;&gt;Node2</title>
<path fill="none" stroke="orange" d="M194.96,-259.05C181.26,-234.31 160.32,-196.51 147.57,-173.49"/>
<polygon fill="orange" stroke="orange" points="191.88,-260.71 199.79,-267.77 198,-257.32 191.88,-260.71"/>
<text text-anchor="middle" x="207.5" y="-194" font-family="Helvetica,sans-Serif" font-size="10.00"> &lt; sgns::base::Blob &gt;</text>
</g>
<!-- Node7 -->
<g id="node7" class="node">
<title>Node7</title>
<g id="a_node7"><a xlink:title=" ">
<polygon fill="white" stroke="#666666" points="223,-426 194,-426 194,-396 223,-396 223,-426"/>
<text text-anchor="middle" x="208.5" y="-414" font-family="Helvetica,sans-Serif" font-size="10.00">{K</text>
<text text-anchor="middle" x="208.5" y="-403" font-family="Helvetica,sans-Serif" font-size="10.00">||}</text>
</a>
</g>
</g>
<!-- Node7&#45;&gt;Node6 -->
<g id="edge6" class="edge">
<title>Node7&#45;&gt;Node6</title>
<path fill="none" stroke="#404040" d="M208.5,-395.72C208.5,-375.56 208.5,-338.38 208.5,-312.82"/>
<polygon fill="none" stroke="#404040" points="208.5,-312.9 204.5,-306.9 208.5,-300.9 212.5,-306.9 208.5,-312.9"/>
<text text-anchor="middle" x="223" y="-370" font-family="Helvetica,sans-Serif" font-size="10.00"> +keys</text>
</g>
</g>
</svg>
