<?xml version="1.0" encoding="UTF-8" standalone="no"?>
<!DOCTYPE svg PUBLIC "-//W3C//DTD SVG 1.1//EN"
 "http://www.w3.org/Graphics/SVG/1.1/DTD/svg11.dtd">
<!-- Generated by graphviz version 7.0.5 (20221223.1930)
 -->
<!-- Title: sgns::storage::trie::LeafNode Pages: 1 -->
<svg width="124pt" height="357pt"
 viewBox="0.00 0.00 124.00 357.00" xmlns="http://www.w3.org/2000/svg" xmlns:xlink="http://www.w3.org/1999/xlink">
<g id="graph0" class="graph" transform="scale(1 1) rotate(0) translate(4 353)">
<title>sgns::storage::trie::LeafNode</title>
<!-- Node1 -->
<g id="node1" class="node">
<title>Node1</title>
<g id="a_node1"><a xlink:title=" ">
<polygon fill="#999999" stroke="#666666" points="105.5,-96 10.5,-96 10.5,0 105.5,0 105.5,-96"/>
<text text-anchor="start" x="18.5" y="-84" font-family="Helvetica,sans-Serif" font-size="10.00">{sgns::storage::trie</text>
<text text-anchor="middle" x="58" y="-73" font-family="Helvetica,sans-Serif" font-size="10.00">::LeafNode</text>
<text text-anchor="start" x="18.5" y="-62" font-family="Helvetica,sans-Serif" font-size="10.00">||+ LeafNode()</text>
<text text-anchor="start" x="18.5" y="-51" font-family="Helvetica,sans-Serif" font-size="10.00">+ LeafNode()</text>
<text text-anchor="start" x="18.5" y="-40" font-family="Helvetica,sans-Serif" font-size="10.00">+ ~LeafNode()</text>
<text text-anchor="start" x="18.5" y="-29" font-family="Helvetica,sans-Serif" font-size="10.00">+ isDummy()</text>
<text text-anchor="start" x="18.5" y="-18" font-family="Helvetica,sans-Serif" font-size="10.00">+ getType()</text>
<text text-anchor="middle" x="58" y="-7" font-family="Helvetica,sans-Serif" font-size="10.00">}</text>
</a>
</g>
</g>
<!-- Node2 -->
<g id="node2" class="node">
<title>Node2</title>
<g id="a_node2"><a xlink:href="structsgns_1_1storage_1_1trie_1_1_super_genius_node.html" target="_top" xlink:title=" ">
<polygon fill="white" stroke="#666666" points="116,-250 0,-250 0,-132 116,-132 116,-250"/>
<text text-anchor="start" x="8" y="-238" font-family="Helvetica,sans-Serif" font-size="10.00">{sgns::storage::trie</text>
<text text-anchor="middle" x="58" y="-227" font-family="Helvetica,sans-Serif" font-size="10.00">::SuperGeniusNode</text>
<text text-anchor="start" x="8" y="-216" font-family="Helvetica,sans-Serif" font-size="10.00">|+ key_nibbles</text>
<text text-anchor="start" x="8" y="-205" font-family="Helvetica,sans-Serif" font-size="10.00">+ value</text>
<text text-anchor="start" x="8" y="-194" font-family="Helvetica,sans-Serif" font-size="10.00">|+ SuperGeniusNode()</text>
<text text-anchor="start" x="8" y="-183" font-family="Helvetica,sans-Serif" font-size="10.00">+ SuperGeniusNode()</text>
<text text-anchor="start" x="8" y="-172" font-family="Helvetica,sans-Serif" font-size="10.00">+ ~SuperGeniusNode()</text>
<text text-anchor="start" x="8" y="-161" font-family="Helvetica,sans-Serif" font-size="10.00">+ isDummy()</text>
<text text-anchor="start" x="8" y="-150" font-family="Helvetica,sans-Serif" font-size="10.00">+ getTrieType()</text>
<text text-anchor="middle" x="58" y="-139" font-family="Helvetica,sans-Serif" font-size="10.00">}</text>
</a>
</g>
</g>
<!-- Node2&#45;&gt;Node1 -->
<g id="edge1" class="edge">
<title>Node2&#45;&gt;Node1</title>
<path fill="none" stroke="#63b8ff" d="M58,-120.36C58,-112.21 58,-104.04 58,-96.29"/>
<polygon fill="none" stroke="#63b8ff" points="54.5,-120.32 58,-130.32 61.5,-120.32 54.5,-120.32"/>
</g>
<!-- Node3 -->
<g id="node3" class="node">
<title>Node3</title>
<g id="a_node3"><a xlink:href="structsgns_1_1storage_1_1trie_1_1_node.html" target="_top" xlink:title=" ">
<polygon fill="white" stroke="#666666" points="105.5,-349 10.5,-349 10.5,-286 105.5,-286 105.5,-349"/>
<text text-anchor="start" x="18.5" y="-337" font-family="Helvetica,sans-Serif" font-size="10.00">{sgns::storage::trie</text>
<text text-anchor="middle" x="58" y="-326" font-family="Helvetica,sans-Serif" font-size="10.00">::Node</text>
<text text-anchor="start" x="18.5" y="-315" font-family="Helvetica,sans-Serif" font-size="10.00">||+ ~Node()</text>
<text text-anchor="start" x="18.5" y="-304" font-family="Helvetica,sans-Serif" font-size="10.00">+ getType()</text>
<text text-anchor="middle" x="58" y="-293" font-family="Helvetica,sans-Serif" font-size="10.00">}</text>
</a>
</g>
</g>
<!-- Node3&#45;&gt;Node2 -->
<g id="edge2" class="edge">
<title>Node3&#45;&gt;Node2</title>
<path fill="none" stroke="#63b8ff" d="M58,-274.33C58,-266.54 58,-258.27 58,-250.11"/>
<polygon fill="none" stroke="#63b8ff" points="54.5,-274.21 58,-284.21 61.5,-274.21 54.5,-274.21"/>
</g>
</g>
</svg>
