<?xml version="1.0" encoding="UTF-8" standalone="no"?>
<!DOCTYPE svg PUBLIC "-//W3C//DTD SVG 1.1//EN"
 "http://www.w3.org/Graphics/SVG/1.1/DTD/svg11.dtd">
<!-- Generated by graphviz version 7.0.5 (20221223.1930)
 -->
<!-- Title: sgns::verification::finality::VoterSet Pages: 1 -->
<!--zoomable 673 -->
<svg id="main" version="1.1" xmlns="http://www.w3.org/2000/svg" xmlns:xlink="http://www.w3.org/1999/xlink" xml:space="preserve" onload="init(evt)">
<style type="text/css"><![CDATA[
.edge:hover path { stroke: red; }
.edge:hover polygon { stroke: red; fill: red; }
]]></style>
<script type="text/javascript"><![CDATA[
var edges = document.getElementsByTagName('g');
if (edges && edges.length) {
  for (var i=0;i<edges.length;i++) {
    if (edges[i].id.substr(0,4)=='edge') {
      edges[i].setAttribute('class','edge');
    }
  }
}
]]></script>
        <defs>
                <circle id="rim" cx="0" cy="0" r="7"/>
                <circle id="rim2" cx="0" cy="0" r="3.5"/>
                <g id="zoomPlus">
                        <use xlink:href="#rim" fill="#404040">
                                <set attributeName="fill" to="#808080" begin="zoomplus.mouseover" end="zoomplus.mouseout"/>
                        </use>
                        <path d="M-4,0h8M0,-4v8" fill="none" stroke="white" stroke-width="1.5" pointer-events="none"/>
                </g>
                <g id="zoomMin">
                        <use xlink:href="#rim" fill="#404040">
                                <set attributeName="fill" to="#808080" begin="zoomminus.mouseover" end="zoomminus.mouseout"/>
                        </use>
                        <path d="M-4,0h8" fill="none" stroke="white" stroke-width="1.5" pointer-events="none"/>
                </g>
                <g id="dirArrow">
                        <path fill="none" stroke="white" stroke-width="1.5" d="M0,-3.0v7 M-2.5,-0.5L0,-3.0L2.5,-0.5"/>
                </g>
               <g id="resetDef">
                       <use xlink:href="#rim2" fill="#404040">
                               <set attributeName="fill" to="#808080" begin="reset.mouseover" end="reset.mouseout"/>
                       </use>
               </g>
        </defs>

<script type="text/javascript">
var viewWidth = 398;
var viewHeight = 673;
var sectionId = 'dynsection-0';
</script>
<script xlink:href="svgpan.js"/>
<svg id="graph" class="graph">
<g id="viewport">
<title>sgns::verification::finality::VoterSet</title>
<!-- Node1 -->
<g id="node1" class="node">
<title>Node1</title>
<g id="a_node1"><a xlink:title=" ">
<polygon fill="#999999" stroke="#666666" points="247.5,-195 155.5,-195 155.5,0 247.5,0 247.5,-195"/>
<text text-anchor="start" x="163.5" y="-183" font-family="Helvetica,sans-Serif" font-size="10.00">{sgns::verification</text>
<text text-anchor="middle" x="201.5" y="-172" font-family="Helvetica,sans-Serif" font-size="10.00">::finality::VoterSet</text>
<text text-anchor="start" x="163.5" y="-161" font-family="Helvetica,sans-Serif" font-size="10.00">|&#45; id_</text>
<text text-anchor="start" x="163.5" y="-150" font-family="Helvetica,sans-Serif" font-size="10.00">&#45; total_weight_</text>
<text text-anchor="start" x="163.5" y="-139" font-family="Helvetica,sans-Serif" font-size="10.00">|+ VoterSet()</text>
<text text-anchor="start" x="163.5" y="-128" font-family="Helvetica,sans-Serif" font-size="10.00">+ VoterSet()</text>
<text text-anchor="start" x="163.5" y="-117" font-family="Helvetica,sans-Serif" font-size="10.00">+ insert()</text>
<text text-anchor="start" x="163.5" y="-106" font-family="Helvetica,sans-Serif" font-size="10.00">+ voters()</text>
<text text-anchor="start" x="163.5" y="-95" font-family="Helvetica,sans-Serif" font-size="10.00">+ id()</text>
<text text-anchor="start" x="163.5" y="-84" font-family="Helvetica,sans-Serif" font-size="10.00">+ voterIndex()</text>
<text text-anchor="start" x="163.5" y="-73" font-family="Helvetica,sans-Serif" font-size="10.00">+ voterWeight()</text>
<text text-anchor="start" x="163.5" y="-62" font-family="Helvetica,sans-Serif" font-size="10.00">+ voterWeight()</text>
<text text-anchor="start" x="163.5" y="-51" font-family="Helvetica,sans-Serif" font-size="10.00">+ size()</text>
<text text-anchor="start" x="163.5" y="-40" font-family="Helvetica,sans-Serif" font-size="10.00">+ empty()</text>
<text text-anchor="start" x="163.5" y="-29" font-family="Helvetica,sans-Serif" font-size="10.00">+ totalWeight()</text>
<text text-anchor="start" x="163.5" y="-18" font-family="Helvetica,sans-Serif" font-size="10.00">+ weightMap()</text>
<text text-anchor="middle" x="201.5" y="-7" font-family="Helvetica,sans-Serif" font-size="10.00">}</text>
</a>
</g>
</g>
<!-- Node2 -->
<g id="node2" class="node">
<title>Node2</title>
<g id="a_node2"><a xlink:title=" ">
<polygon fill="white" stroke="#666666" points="191.5,-294 93.5,-294 93.5,-253 191.5,-253 191.5,-294"/>
<text text-anchor="start" x="101.5" y="-282" font-family="Helvetica,sans-Serif" font-size="10.00">{std::vector&lt; sgns::</text>
<text text-anchor="middle" x="142.5" y="-271" font-family="Helvetica,sans-Serif" font-size="10.00">base::Blob &gt;</text>
<text text-anchor="middle" x="142.5" y="-260" font-family="Helvetica,sans-Serif" font-size="10.00">||}</text>
</a>
</g>
</g>
<!-- Node2&#45;&gt;Node1 -->
<g id="edge1" class="edge">
<title>Node2&#45;&gt;Node1</title>
<path fill="none" stroke="#404040" d="M149.27,-252.54C153.28,-240.72 158.71,-224.71 164.55,-207.46"/>
<polygon fill="none" stroke="#404040" points="164.51,-207.58 162.65,-200.61 168.37,-196.22 170.23,-203.18 164.51,-207.58"/>
<text text-anchor="middle" x="181.5" y="-216" font-family="Helvetica,sans-Serif" font-size="10.00"> &#45;voters_</text>
</g>
<!-- Node3 -->
<g id="node3" class="node">
<title>Node3</title>
<g id="a_node3"><a xlink:href="classsgns_1_1base_1_1_blob.html" target="_top" xlink:title=" ">
<polygon fill="white" stroke="#666666" points="275,-481 146,-481 146,-352 275,-352 275,-481"/>
<text text-anchor="middle" x="210.5" y="-469" font-family="Helvetica,sans-Serif" font-size="10.00">{sgns::base::Blob&lt; size_ &gt;</text>
<text text-anchor="start" x="154" y="-458" font-family="Helvetica,sans-Serif" font-size="10.00">||+ Blob()</text>
<text text-anchor="start" x="154" y="-447" font-family="Helvetica,sans-Serif" font-size="10.00">+ Blob()</text>
<text text-anchor="start" x="154" y="-436" font-family="Helvetica,sans-Serif" font-size="10.00">+ toString()</text>
<text text-anchor="start" x="154" y="-425" font-family="Helvetica,sans-Serif" font-size="10.00">+ toHex()</text>
<text text-anchor="start" x="154" y="-414" font-family="Helvetica,sans-Serif" font-size="10.00">+ size()</text>
<text text-anchor="start" x="154" y="-403" font-family="Helvetica,sans-Serif" font-size="10.00">+ fromString()</text>
<text text-anchor="start" x="154" y="-392" font-family="Helvetica,sans-Serif" font-size="10.00">+ fromHex()</text>
<text text-anchor="start" x="154" y="-381" font-family="Helvetica,sans-Serif" font-size="10.00">+ fromHexWithPrefix()</text>
<text text-anchor="start" x="154" y="-370" font-family="Helvetica,sans-Serif" font-size="10.00">+ fromSpan()</text>
<text text-anchor="middle" x="210.5" y="-359" font-family="Helvetica,sans-Serif" font-size="10.00">}</text>
</a>
</g>
</g>
<!-- Node3&#45;&gt;Node2 -->
<g id="edge2" class="edge">
<title>Node3&#45;&gt;Node2</title>
<path fill="none" stroke="#404040" d="M179.68,-351.6C172.04,-335.76 164.19,-319.47 157.67,-305.96"/>
<polygon fill="none" stroke="#404040" points="157.72,-306.06 151.51,-302.39 152.51,-295.25 158.72,-298.92 157.72,-306.06"/>
<text text-anchor="middle" x="195" y="-326" font-family="Helvetica,sans-Serif" font-size="10.00"> +elements</text>
</g>
<!-- Node7 -->
<g id="node7" class="node">
<title>Node7</title>
<g id="a_node7"><a xlink:title=" ">
<polygon fill="white" stroke="#666666" points="313.5,-305 209.5,-305 209.5,-242 313.5,-242 313.5,-305"/>
<text text-anchor="start" x="217.5" y="-293" font-family="Helvetica,sans-Serif" font-size="10.00">{std::unordered_map</text>
<text text-anchor="start" x="217.5" y="-282" font-family="Helvetica,sans-Serif" font-size="10.00">&lt; sgns::base::Blob,</text>
<text text-anchor="middle" x="261.5" y="-271" font-family="Helvetica,sans-Serif" font-size="10.00"> size_t &gt;</text>
<text text-anchor="start" x="217.5" y="-260" font-family="Helvetica,sans-Serif" font-size="10.00">|+ elements</text>
<text text-anchor="middle" x="261.5" y="-249" font-family="Helvetica,sans-Serif" font-size="10.00">|}</text>
</a>
</g>
</g>
<!-- Node3&#45;&gt;Node7 -->
<g id="edge8" class="edge">
<title>Node3&#45;&gt;Node7</title>
<path fill="none" stroke="#404040" d="M233.61,-351.6C237.78,-340.08 242.03,-328.32 245.92,-317.57"/>
<polygon fill="none" stroke="#404040" points="245.9,-317.62 244.18,-310.62 249.99,-306.33 251.71,-313.34 245.9,-317.62"/>
<text text-anchor="middle" x="259" y="-326" font-family="Helvetica,sans-Serif" font-size="10.00"> +keys</text>
</g>
<!-- Node4 -->
<g id="node4" class="node">
<title>Node4</title>
<g id="a_node4"><a xlink:title=" ">
<polygon fill="white" stroke="#666666" points="230,-582.5 149,-582.5 149,-552.5 230,-552.5 230,-582.5"/>
<text text-anchor="middle" x="189.5" y="-570.5" font-family="Helvetica,sans-Serif" font-size="10.00">{std::array&lt; T &gt;</text>
<text text-anchor="middle" x="189.5" y="-559.5" font-family="Helvetica,sans-Serif" font-size="10.00">||}</text>
</a>
</g>
</g>
<!-- Node4&#45;&gt;Node3 -->
<g id="edge3" class="edge">
<title>Node4&#45;&gt;Node3</title>
<path fill="none" stroke="#63b8ff" d="M193.12,-540.85C195.44,-524.38 198.56,-502.22 201.52,-481.23"/>
<polygon fill="none" stroke="#63b8ff" points="189.65,-540.32 191.72,-550.71 196.59,-541.3 189.65,-540.32"/>
</g>
<!-- Node5 -->
<g id="node5" class="node">
<title>Node5</title>
<g id="a_node5"><a xlink:title=" ">
<polygon fill="white" stroke="#666666" points="198,-665 169,-665 169,-635 198,-635 198,-665"/>
<text text-anchor="middle" x="183.5" y="-653" font-family="Helvetica,sans-Serif" font-size="10.00">{T</text>
<text text-anchor="middle" x="183.5" y="-642" font-family="Helvetica,sans-Serif" font-size="10.00">||}</text>
</a>
</g>
</g>
<!-- Node5&#45;&gt;Node4 -->
<g id="edge4" class="edge">
<title>Node5&#45;&gt;Node4</title>
<path fill="none" stroke="#404040" d="M183.44,-634.65C183.51,-626.28 183.76,-615.53 184.5,-606 184.76,-602.62 185.12,-599.08 185.53,-595.58"/>
<polygon fill="none" stroke="#404040" points="185.54,-595.5 182.36,-589.02 187.12,-583.6 190.29,-590.07 185.54,-595.5"/>
<text text-anchor="middle" x="209" y="-609" font-family="Helvetica,sans-Serif" font-size="10.00"> +elements</text>
</g>
<!-- Node6 -->
<g id="node6" class="node">
<title>Node6</title>
<g id="a_node6"><a xlink:title=" ">
<polygon fill="white" stroke="#666666" points="87,-529 0,-529 0,-499 87,-499 87,-529"/>
<text text-anchor="middle" x="43.5" y="-517" font-family="Helvetica,sans-Serif" font-size="10.00">{std::vector&lt; T &gt;</text>
<text text-anchor="middle" x="43.5" y="-506" font-family="Helvetica,sans-Serif" font-size="10.00">||}</text>
</a>
</g>
</g>
<!-- Node5&#45;&gt;Node6 -->
<g id="edge6" class="edge">
<title>Node5&#45;&gt;Node6</title>
<path fill="none" stroke="#404040" d="M168.57,-641.42C157.71,-635.54 142.96,-626.76 131.5,-617 104.2,-593.76 78.05,-561.78 61.45,-539.86"/>
<polygon fill="none" stroke="#404040" points="61.38,-539.77 54.59,-537.34 54.22,-530.14 61.01,-532.57 61.38,-539.77"/>
<text text-anchor="middle" x="156" y="-609" font-family="Helvetica,sans-Serif" font-size="10.00"> +elements</text>
</g>
<!-- Node8 -->
<g id="node8" class="node">
<title>Node8</title>
<g id="a_node8"><a xlink:title=" ">
<polygon fill="white" stroke="#666666" points="363.5,-588 259.5,-588 259.5,-547 363.5,-547 363.5,-588"/>
<text text-anchor="start" x="267.5" y="-576" font-family="Helvetica,sans-Serif" font-size="10.00">{std::unordered_map</text>
<text text-anchor="middle" x="311.5" y="-565" font-family="Helvetica,sans-Serif" font-size="10.00">&lt; K, T &gt;</text>
<text text-anchor="middle" x="311.5" y="-554" font-family="Helvetica,sans-Serif" font-size="10.00">||}</text>
</a>
</g>
</g>
<!-- Node5&#45;&gt;Node8 -->
<g id="edge11" class="edge">
<title>Node5&#45;&gt;Node8</title>
<path fill="none" stroke="#404040" d="M198.43,-639.61C215.65,-628.78 244.7,-610.51 269.04,-595.2"/>
<polygon fill="none" stroke="#404040" points="268.91,-595.28 271.86,-588.7 279.07,-588.9 276.12,-595.48 268.91,-595.28"/>
<text text-anchor="middle" x="276" y="-609" font-family="Helvetica,sans-Serif" font-size="10.00"> +elements</text>
</g>
<!-- Node6&#45;&gt;Node2 -->
<g id="edge5" class="edge">
<title>Node6&#45;&gt;Node2</title>
<path fill="none" stroke="orange" d="M37.71,-487.8C31.46,-454.75 25.05,-395.83 46.5,-352 58.65,-327.18 82.93,-307.7 104.03,-294.47"/>
<polygon fill="orange" stroke="orange" points="34.2,-488.15 39.64,-497.24 41.06,-486.74 34.2,-488.15"/>
<text text-anchor="middle" x="91.5" y="-414" font-family="Helvetica,sans-Serif" font-size="10.00"> &lt; sgns::base::Blob &gt;</text>
</g>
<!-- Node7&#45;&gt;Node1 -->
<g id="edge7" class="edge">
<title>Node7&#45;&gt;Node1</title>
<path fill="none" stroke="#404040" d="M250.91,-241.79C247.44,-231.74 243.37,-219.92 239.08,-207.47"/>
<polygon fill="none" stroke="#404040" points="239.11,-207.56 233.37,-203.19 235.2,-196.22 240.93,-200.59 239.11,-207.56"/>
<text text-anchor="middle" x="276.5" y="-216" font-family="Helvetica,sans-Serif" font-size="10.00"> &#45;weight_map_</text>
</g>
<!-- Node8&#45;&gt;Node7 -->
<g id="edge9" class="edge">
<title>Node8&#45;&gt;Node7</title>
<path fill="none" stroke="orange" d="M309.59,-535.14C306.18,-488.3 297.44,-397.57 277.5,-323 275.97,-317.26 274.14,-311.2 272.28,-305.39"/>
<polygon fill="orange" stroke="orange" points="306.09,-535.36 310.27,-545.09 313.08,-534.88 306.09,-535.36"/>
<text text-anchor="start" x="304.5" y="-419.5" font-family="Helvetica,sans-Serif" font-size="10.00"> &lt; sgns::base::Blob,</text>
<text text-anchor="middle" x="347" y="-408.5" font-family="Helvetica,sans-Serif" font-size="10.00"> size_t &gt;</text>
</g>
<!-- Node9 -->
<g id="node9" class="node">
<title>Node9</title>
<g id="a_node9"><a xlink:title=" ">
<polygon fill="white" stroke="#666666" points="342,-665 313,-665 313,-635 342,-635 342,-665"/>
<text text-anchor="middle" x="327.5" y="-653" font-family="Helvetica,sans-Serif" font-size="10.00">{K</text>
<text text-anchor="middle" x="327.5" y="-642" font-family="Helvetica,sans-Serif" font-size="10.00">||}</text>
</a>
</g>
</g>
<!-- Node9&#45;&gt;Node8 -->
<g id="edge10" class="edge">
<title>Node9&#45;&gt;Node8</title>
<path fill="none" stroke="#404040" d="M324.64,-634.61C322.77,-625.21 320.26,-612.55 317.93,-600.83"/>
<polygon fill="none" stroke="#404040" points="317.93,-600.86 312.84,-595.76 315.59,-589.09 320.69,-594.2 317.93,-600.86"/>
<text text-anchor="middle" x="336" y="-609" font-family="Helvetica,sans-Serif" font-size="10.00"> +keys</text>
</g>
</g>
</svg>
        <g id="navigator" transform="translate(0 0)" fill="#404254">
                <rect fill="#f2f5e9" fill-opacity="0.5" stroke="#606060" stroke-width=".5" x="0" y="0" width="60" height="60"/>
                <use id="zoomplus" xlink:href="#zoomPlus" x="17" y="9" onmousedown="handleZoom(evt,'in')"/>
                <use id="zoomminus" xlink:href="#zoomMin" x="42" y="9" onmousedown="handleZoom(evt,'out')"/>
                <use id="reset" xlink:href="#resetDef" x="30" y="36" onmousedown="handleReset()"/>
                <g id="arrowUp" xlink:href="#dirArrow" transform="translate(30 24)" onmousedown="handlePan(0,-1)">
                  <use xlink:href="#rim" fill="#404040">
                        <set attributeName="fill" to="#808080" begin="arrowUp.mouseover" end="arrowUp.mouseout"/>
                  </use>
                  <path fill="none" stroke="white" stroke-width="1.5" d="M0,-3.0v7 M-2.5,-0.5L0,-3.0L2.5,-0.5"/>
                </g>
                <g id="arrowRight" xlink:href="#dirArrow" transform="rotate(90) translate(36 -43)" onmousedown="handlePan(1,0)">
                  <use xlink:href="#rim" fill="#404040">
                        <set attributeName="fill" to="#808080" begin="arrowRight.mouseover" end="arrowRight.mouseout"/>
                  </use>
                  <path fill="none" stroke="white" stroke-width="1.5" d="M0,-3.0v7 M-2.5,-0.5L0,-3.0L2.5,-0.5"/>
                </g>
                <g id="arrowDown" xlink:href="#dirArrow" transform="rotate(180) translate(-30 -48)" onmousedown="handlePan(0,1)">
                  <use xlink:href="#rim" fill="#404040">
                        <set attributeName="fill" to="#808080" begin="arrowDown.mouseover" end="arrowDown.mouseout"/>
                  </use>
                  <path fill="none" stroke="white" stroke-width="1.5" d="M0,-3.0v7 M-2.5,-0.5L0,-3.0L2.5,-0.5"/>
                </g>
                <g id="arrowLeft" xlink:href="#dirArrow" transform="rotate(270) translate(-36 17)" onmousedown="handlePan(-1,0)">
                  <use xlink:href="#rim" fill="#404040">
                        <set attributeName="fill" to="#808080" begin="arrowLeft.mouseover" end="arrowLeft.mouseout"/>
                  </use>
                  <path fill="none" stroke="white" stroke-width="1.5" d="M0,-3.0v7 M-2.5,-0.5L0,-3.0L2.5,-0.5"/>
                </g>
        </g>
        <svg viewBox="0 0 15 15" width="100%" height="30px" preserveAspectRatio="xMaxYMin meet">
         <g id="arrow_out" transform="scale(0.3 0.3)">
          <a xlink:href="structsgns_1_1verification_1_1finality_1_1_voter_set__coll__graph_org.svg" target="_base">
           <rect id="button" ry="5" rx="5" y="6" x="6" height="38" width="38"
                fill="#f2f5e9" fill-opacity="0.5" stroke="#606060" stroke-width="1.0"/>
           <path id="arrow"
             d="M 11.500037,31.436501 C 11.940474,20.09759 22.043105,11.32322 32.158766,21.979434 L 37.068811,17.246167 C 37.068811,17.246167 37.088388,32 37.088388,32 L 22.160133,31.978069 C 22.160133,31.978069 26.997745,27.140456 26.997745,27.140456 C 18.528582,18.264221 13.291696,25.230495 11.500037,31.436501 z"
             style="fill:#404040;"/>
          </a>
         </g>
        </svg>
</svg>
