<?xml version="1.0" encoding="UTF-8" standalone="no"?>
<!DOCTYPE svg PUBLIC "-//W3C//DTD SVG 1.1//EN"
 "http://www.w3.org/Graphics/SVG/1.1/DTD/svg11.dtd">
<!-- Generated by graphviz version 7.0.5 (20221223.1930)
 -->
<!-- Title: sgns::network::PeerList Pages: 1 -->
<svg width="178pt" height="313pt"
 viewBox="0.00 0.00 177.50 313.00" xmlns="http://www.w3.org/2000/svg" xmlns:xlink="http://www.w3.org/1999/xlink">
<g id="graph0" class="graph" transform="scale(1 1) rotate(0) translate(4 309)">
<title>sgns::network::PeerList</title>
<!-- Node1 -->
<g id="node1" class="node">
<title>Node1</title>
<g id="a_node1"><a xlink:title=" ">
<polygon fill="#999999" stroke="#666666" points="121,-52 0,-52 0,0 121,0 121,-52"/>
<text text-anchor="middle" x="60.5" y="-40" font-family="Helvetica,sans-Serif" font-size="10.00">{sgns::network::PeerList</text>
<text text-anchor="start" x="8" y="-29" font-family="Helvetica,sans-Serif" font-size="10.00">||+ operator==()</text>
<text text-anchor="start" x="8" y="-18" font-family="Helvetica,sans-Serif" font-size="10.00">+ operator!=()</text>
<text text-anchor="middle" x="60.5" y="-7" font-family="Helvetica,sans-Serif" font-size="10.00">}</text>
</a>
</g>
</g>
<!-- Node2 -->
<g id="node2" class="node">
<title>Node2</title>
<g id="a_node2"><a xlink:title=" ">
<polygon fill="white" stroke="#666666" points="109.5,-151 11.5,-151 11.5,-99 109.5,-99 109.5,-151"/>
<text text-anchor="start" x="19.5" y="-139" font-family="Helvetica,sans-Serif" font-size="10.00">{std::vector&lt; libp2p</text>
<text text-anchor="middle" x="60.5" y="-128" font-family="Helvetica,sans-Serif" font-size="10.00">::peer::PeerInfo &gt;</text>
<text text-anchor="start" x="19.5" y="-117" font-family="Helvetica,sans-Serif" font-size="10.00">|+ elements</text>
<text text-anchor="middle" x="60.5" y="-106" font-family="Helvetica,sans-Serif" font-size="10.00">|}</text>
</a>
</g>
</g>
<!-- Node2&#45;&gt;Node1 -->
<g id="edge1" class="edge">
<title>Node2&#45;&gt;Node1</title>
<path fill="none" stroke="#404040" d="M60.5,-98.51C60.5,-88.38 60.5,-76.5 60.5,-65.36"/>
<polygon fill="none" stroke="#404040" points="60.5,-65.22 56.5,-59.22 60.5,-53.22 64.5,-59.22 60.5,-65.22"/>
<text text-anchor="middle" x="77" y="-73" font-family="Helvetica,sans-Serif" font-size="10.00"> +peers</text>
</g>
<!-- Node3 -->
<g id="node3" class="node">
<title>Node3</title>
<g id="a_node3"><a xlink:title=" ">
<polygon fill="white" stroke="#666666" points="104,-228 17,-228 17,-198 104,-198 104,-228"/>
<text text-anchor="middle" x="60.5" y="-216" font-family="Helvetica,sans-Serif" font-size="10.00">{std::vector&lt; T &gt;</text>
<text text-anchor="middle" x="60.5" y="-205" font-family="Helvetica,sans-Serif" font-size="10.00">||}</text>
</a>
</g>
</g>
<!-- Node3&#45;&gt;Node2 -->
<g id="edge2" class="edge">
<title>Node3&#45;&gt;Node2</title>
<path fill="none" stroke="orange" d="M60.5,-186.3C60.5,-175.24 60.5,-162.36 60.5,-151.35"/>
<polygon fill="orange" stroke="orange" points="57,-186.29 60.5,-196.29 64,-186.29 57,-186.29"/>
<text text-anchor="middle" x="115" y="-172" font-family="Helvetica,sans-Serif" font-size="10.00"> &lt; libp2p::peer::PeerInfo &gt;</text>
</g>
<!-- Node4 -->
<g id="node4" class="node">
<title>Node4</title>
<g id="a_node4"><a xlink:title=" ">
<polygon fill="white" stroke="#666666" points="75,-305 46,-305 46,-275 75,-275 75,-305"/>
<text text-anchor="middle" x="60.5" y="-293" font-family="Helvetica,sans-Serif" font-size="10.00">{T</text>
<text text-anchor="middle" x="60.5" y="-282" font-family="Helvetica,sans-Serif" font-size="10.00">||}</text>
</a>
</g>
</g>
<!-- Node4&#45;&gt;Node3 -->
<g id="edge3" class="edge">
<title>Node4&#45;&gt;Node3</title>
<path fill="none" stroke="#404040" d="M60.5,-274.54C60.5,-265.1 60.5,-252.47 60.5,-241.2"/>
<polygon fill="none" stroke="#404040" points="60.5,-241.32 56.5,-235.32 60.5,-229.32 64.5,-235.32 60.5,-241.32"/>
<text text-anchor="middle" x="85" y="-249" font-family="Helvetica,sans-Serif" font-size="10.00"> +elements</text>
</g>
</g>
</svg>
