<?xml version="1.0" encoding="UTF-8" standalone="no"?>
<!DOCTYPE svg PUBLIC "-//W3C//DTD SVG 1.1//EN"
 "http://www.w3.org/Graphics/SVG/1.1/DTD/svg11.dtd">
<!-- Generated by graphviz version 7.0.5 (20221223.1930)
 -->
<!-- Title: sgns::storage::trie::KeyNibbles Pages: 1 -->
<svg width="584pt" height="556pt"
 viewBox="0.00 0.00 583.50 556.00" xmlns="http://www.w3.org/2000/svg" xmlns:xlink="http://www.w3.org/1999/xlink">
<g id="graph0" class="graph" transform="scale(1 1) rotate(0) translate(4 552)">
<title>sgns::storage::trie::KeyNibbles</title>
<!-- Node1 -->
<g id="node1" class="node">
<title>Node1</title>
<g id="a_node1"><a xlink:title=" ">
<polygon fill="#999999" stroke="#666666" points="348,-96 253,-96 253,0 348,0 348,-96"/>
<text text-anchor="start" x="261" y="-84" font-family="Helvetica,sans-Serif" font-size="10.00">{sgns::storage::trie</text>
<text text-anchor="middle" x="300.5" y="-73" font-family="Helvetica,sans-Serif" font-size="10.00">::KeyNibbles</text>
<text text-anchor="start" x="261" y="-62" font-family="Helvetica,sans-Serif" font-size="10.00">||+ KeyNibbles()</text>
<text text-anchor="start" x="261" y="-51" font-family="Helvetica,sans-Serif" font-size="10.00">+ KeyNibbles()</text>
<text text-anchor="start" x="261" y="-40" font-family="Helvetica,sans-Serif" font-size="10.00">+ KeyNibbles()</text>
<text text-anchor="start" x="261" y="-29" font-family="Helvetica,sans-Serif" font-size="10.00">+ operator=()</text>
<text text-anchor="start" x="261" y="-18" font-family="Helvetica,sans-Serif" font-size="10.00">+ subspan()</text>
<text text-anchor="middle" x="300.5" y="-7" font-family="Helvetica,sans-Serif" font-size="10.00">}</text>
</a>
</g>
</g>
<!-- Node2 -->
<g id="node2" class="node">
<title>Node2</title>
<g id="a_node2"><a xlink:href="classsgns_1_1base_1_1_buffer.html" target="_top" xlink:title="Class represents arbitrary (including empty) byte buffer.">
<polygon fill="white" stroke="#666666" points="348.5,-306 252.5,-306 252.5,-133 348.5,-133 348.5,-306"/>
<text text-anchor="middle" x="300.5" y="-294" font-family="Helvetica,sans-Serif" font-size="10.00">{sgns::base::Buffer</text>
<text text-anchor="start" x="260.5" y="-283" font-family="Helvetica,sans-Serif" font-size="10.00">||+ Buffer()</text>
<text text-anchor="start" x="260.5" y="-272" font-family="Helvetica,sans-Serif" font-size="10.00">+ ~Buffer()</text>
<text text-anchor="start" x="260.5" y="-261" font-family="Helvetica,sans-Serif" font-size="10.00">+ Buffer()</text>
<text text-anchor="start" x="260.5" y="-250" font-family="Helvetica,sans-Serif" font-size="10.00">+ Buffer()</text>
<text text-anchor="start" x="260.5" y="-239" font-family="Helvetica,sans-Serif" font-size="10.00">+ Buffer()</text>
<text text-anchor="start" x="260.5" y="-228" font-family="Helvetica,sans-Serif" font-size="10.00">+ Buffer()</text>
<text text-anchor="start" x="260.5" y="-217" font-family="Helvetica,sans-Serif" font-size="10.00">+ Buffer()</text>
<text text-anchor="start" x="260.5" y="-206" font-family="Helvetica,sans-Serif" font-size="10.00">+ Buffer()</text>
<text text-anchor="start" x="260.5" y="-195" font-family="Helvetica,sans-Serif" font-size="10.00">+ Buffer()</text>
<text text-anchor="start" x="260.5" y="-184" font-family="Helvetica,sans-Serif" font-size="10.00">+ reserve()</text>
<text text-anchor="start" x="260.5" y="-173" font-family="Helvetica,sans-Serif" font-size="10.00">and 32 more...</text>
<text text-anchor="start" x="260.5" y="-162" font-family="Helvetica,sans-Serif" font-size="10.00">+ fromHex()</text>
<text text-anchor="start" x="260.5" y="-151" font-family="Helvetica,sans-Serif" font-size="10.00">&#45; putRange()</text>
<text text-anchor="middle" x="300.5" y="-140" font-family="Helvetica,sans-Serif" font-size="10.00">}</text>
</a>
</g>
</g>
<!-- Node2&#45;&gt;Node1 -->
<g id="edge1" class="edge">
<title>Node2&#45;&gt;Node1</title>
<path fill="none" stroke="#63b8ff" d="M300.5,-121.39C300.5,-112.79 300.5,-104.37 300.5,-96.48"/>
<polygon fill="none" stroke="#63b8ff" points="297,-121.24 300.5,-131.24 304,-121.24 297,-121.24"/>
</g>
<!-- Node3 -->
<g id="node3" class="node">
<title>Node3</title>
<g id="a_node3"><a xlink:title=" ">
<polygon fill="white" stroke="#666666" points="137,-394 0,-394 0,-353 137,-353 137,-394"/>
<text text-anchor="start" x="8" y="-382" font-family="Helvetica,sans-Serif" font-size="10.00">{boost::equality_comparable</text>
<text text-anchor="middle" x="68.5" y="-371" font-family="Helvetica,sans-Serif" font-size="10.00">&lt; Buffer &gt;</text>
<text text-anchor="middle" x="68.5" y="-360" font-family="Helvetica,sans-Serif" font-size="10.00">||}</text>
</a>
</g>
</g>
<!-- Node3&#45;&gt;Node2 -->
<g id="edge2" class="edge">
<title>Node3&#45;&gt;Node2</title>
<path fill="none" stroke="#63b8ff" d="M108.24,-346.46C148.17,-320.3 209.74,-279.96 252.4,-252.01"/>
<polygon fill="none" stroke="#63b8ff" points="106.54,-343.39 100.1,-351.8 110.38,-349.25 106.54,-343.39"/>
</g>
<!-- Node4 -->
<g id="node4" class="node">
<title>Node4</title>
<g id="a_node4"><a xlink:title=" ">
<polygon fill="white" stroke="#666666" points="292,-394 155,-394 155,-353 292,-353 292,-394"/>
<text text-anchor="start" x="163" y="-382" font-family="Helvetica,sans-Serif" font-size="10.00">{boost::equality_comparable</text>
<text text-anchor="middle" x="223.5" y="-371" font-family="Helvetica,sans-Serif" font-size="10.00">&lt; gsl::span&lt; uint8_t &gt; &gt;</text>
<text text-anchor="middle" x="223.5" y="-360" font-family="Helvetica,sans-Serif" font-size="10.00">||}</text>
</a>
</g>
</g>
<!-- Node4&#45;&gt;Node2 -->
<g id="edge3" class="edge">
<title>Node4&#45;&gt;Node2</title>
<path fill="none" stroke="#63b8ff" d="M238.6,-342.69C243.99,-332.05 250.37,-319.45 256.95,-306.47"/>
<polygon fill="none" stroke="#63b8ff" points="235.65,-340.78 234.25,-351.28 241.89,-343.94 235.65,-340.78"/>
</g>
<!-- Node5 -->
<g id="node5" class="node">
<title>Node5</title>
<g id="a_node5"><a xlink:title=" ">
<polygon fill="white" stroke="#666666" points="447,-394 310,-394 310,-353 447,-353 447,-394"/>
<text text-anchor="start" x="318" y="-382" font-family="Helvetica,sans-Serif" font-size="10.00">{boost::equality_comparable</text>
<text text-anchor="middle" x="378.5" y="-371" font-family="Helvetica,sans-Serif" font-size="10.00">&lt; std::vector&lt; uint8_t &gt; &gt;</text>
<text text-anchor="middle" x="378.5" y="-360" font-family="Helvetica,sans-Serif" font-size="10.00">||}</text>
</a>
</g>
</g>
<!-- Node5&#45;&gt;Node2 -->
<g id="edge4" class="edge">
<title>Node5&#45;&gt;Node2</title>
<path fill="none" stroke="#63b8ff" d="M363.2,-342.69C357.74,-332.05 351.28,-319.45 344.61,-306.47"/>
<polygon fill="none" stroke="#63b8ff" points="359.93,-343.98 367.61,-351.28 366.16,-340.79 359.93,-343.98"/>
</g>
<!-- Node6 -->
<g id="node6" class="node">
<title>Node6</title>
<g id="a_node6"><a xlink:title=" ">
<polygon fill="white" stroke="#666666" points="575.5,-394 465.5,-394 465.5,-353 575.5,-353 575.5,-394"/>
<text text-anchor="middle" x="520.5" y="-382" font-family="Helvetica,sans-Serif" font-size="10.00">{std::vector&lt; uint8_t &gt;</text>
<text text-anchor="start" x="473.5" y="-371" font-family="Helvetica,sans-Serif" font-size="10.00">|+ elements</text>
<text text-anchor="middle" x="520.5" y="-360" font-family="Helvetica,sans-Serif" font-size="10.00">|}</text>
</a>
</g>
</g>
<!-- Node6&#45;&gt;Node2 -->
<g id="edge5" class="edge">
<title>Node6&#45;&gt;Node2</title>
<path fill="none" stroke="#404040" d="M491.74,-352.63C458.24,-329.48 402.03,-290.64 359.19,-261.05"/>
<polygon fill="none" stroke="#404040" points="359.22,-261.07 352.01,-260.95 349.35,-254.25 356.56,-254.37 359.22,-261.07"/>
<text text-anchor="middle" x="475.5" y="-327" font-family="Helvetica,sans-Serif" font-size="10.00"> &#45;data_</text>
</g>
<!-- Node7 -->
<g id="node7" class="node">
<title>Node7</title>
<g id="a_node7"><a xlink:title=" ">
<polygon fill="white" stroke="#666666" points="564,-471 477,-471 477,-441 564,-441 564,-471"/>
<text text-anchor="middle" x="520.5" y="-459" font-family="Helvetica,sans-Serif" font-size="10.00">{std::vector&lt; T &gt;</text>
<text text-anchor="middle" x="520.5" y="-448" font-family="Helvetica,sans-Serif" font-size="10.00">||}</text>
</a>
</g>
</g>
<!-- Node7&#45;&gt;Node6 -->
<g id="edge6" class="edge">
<title>Node7&#45;&gt;Node6</title>
<path fill="none" stroke="orange" d="M520.5,-429.2C520.5,-417.86 520.5,-404.75 520.5,-394.21"/>
<polygon fill="orange" stroke="orange" points="517,-429.09 520.5,-439.09 524,-429.09 517,-429.09"/>
<text text-anchor="middle" x="545" y="-415" font-family="Helvetica,sans-Serif" font-size="10.00"> &lt; uint8_t &gt;</text>
</g>
<!-- Node8 -->
<g id="node8" class="node">
<title>Node8</title>
<g id="a_node8"><a xlink:title=" ">
<polygon fill="white" stroke="#666666" points="535,-548 506,-548 506,-518 535,-518 535,-548"/>
<text text-anchor="middle" x="520.5" y="-536" font-family="Helvetica,sans-Serif" font-size="10.00">{T</text>
<text text-anchor="middle" x="520.5" y="-525" font-family="Helvetica,sans-Serif" font-size="10.00">||}</text>
</a>
</g>
</g>
<!-- Node8&#45;&gt;Node7 -->
<g id="edge7" class="edge">
<title>Node8&#45;&gt;Node7</title>
<path fill="none" stroke="#404040" d="M520.5,-517.54C520.5,-508.1 520.5,-495.47 520.5,-484.2"/>
<polygon fill="none" stroke="#404040" points="520.5,-484.32 516.5,-478.32 520.5,-472.32 524.5,-478.32 520.5,-484.32"/>
<text text-anchor="middle" x="545" y="-492" font-family="Helvetica,sans-Serif" font-size="10.00"> +elements</text>
</g>
</g>
</svg>
