<?xml version="1.0" encoding="UTF-8" standalone="no"?>
<!DOCTYPE svg PUBLIC "-//W3C//DTD SVG 1.1//EN"
 "http://www.w3.org/Graphics/SVG/1.1/DTD/svg11.dtd">
<!-- Generated by graphviz version 7.0.5 (20221223.1930)
 -->
<!-- Title: sgns::primitives::Block Pages: 1 -->
<svg width="932pt" height="838pt"
 viewBox="0.00 0.00 932.00 838.00" xmlns="http://www.w3.org/2000/svg" xmlns:xlink="http://www.w3.org/1999/xlink">
<g id="graph0" class="graph" transform="scale(1 1) rotate(0) translate(4 834)">
<title>sgns::primitives::Block</title>
<!-- Node1 -->
<g id="node1" class="node">
<title>Node1</title>
<g id="a_node1"><a xlink:title="Block class represents supergenius block primitive.">
<polygon fill="#999999" stroke="#666666" points="266.5,-52 150.5,-52 150.5,0 266.5,0 266.5,-52"/>
<text text-anchor="middle" x="208.5" y="-40" font-family="Helvetica,sans-Serif" font-size="10.00">{sgns::primitives::Block</text>
<text text-anchor="start" x="158.5" y="-29" font-family="Helvetica,sans-Serif" font-size="10.00">||+ operator==()</text>
<text text-anchor="start" x="158.5" y="-18" font-family="Helvetica,sans-Serif" font-size="10.00">+ operator!=()</text>
<text text-anchor="middle" x="208.5" y="-7" font-family="Helvetica,sans-Serif" font-size="10.00">}</text>
</a>
</g>
</g>
<!-- Node2 -->
<g id="node2" class="node">
<title>Node2</title>
<g id="a_node2"><a xlink:href="structsgns_1_1primitives_1_1_block_header.html" target="_top" xlink:title=" ">
<polygon fill="white" stroke="#666666" points="257.5,-239 109.5,-239 109.5,-176 257.5,-176 257.5,-239"/>
<text text-anchor="middle" x="183.5" y="-227" font-family="Helvetica,sans-Serif" font-size="10.00">{sgns::primitives::BlockHeader</text>
<text text-anchor="start" x="117.5" y="-216" font-family="Helvetica,sans-Serif" font-size="10.00">|+ number</text>
<text text-anchor="start" x="117.5" y="-205" font-family="Helvetica,sans-Serif" font-size="10.00">|+ operator==()</text>
<text text-anchor="start" x="117.5" y="-194" font-family="Helvetica,sans-Serif" font-size="10.00">+ operator!=()</text>
<text text-anchor="middle" x="183.5" y="-183" font-family="Helvetica,sans-Serif" font-size="10.00">}</text>
</a>
</g>
</g>
<!-- Node2&#45;&gt;Node1 -->
<g id="edge1" class="edge">
<title>Node2&#45;&gt;Node1</title>
<path fill="none" stroke="#404040" d="M187.8,-175.64C192.07,-144.98 198.62,-97.91 203.21,-64.97"/>
<polygon fill="none" stroke="#404040" points="203.2,-65.02 200.07,-58.53 204.86,-53.14 207.99,-59.63 203.2,-65.02"/>
<text text-anchor="middle" x="217.5" y="-111.5" font-family="Helvetica,sans-Serif" font-size="10.00"> +header</text>
</g>
<!-- Node3 -->
<g id="node3" class="node">
<title>Node3</title>
<g id="a_node3"><a xlink:href="classsgns_1_1base_1_1_blob.html" target="_top" xlink:title=" ">
<polygon fill="white" stroke="#666666" points="129,-676 0,-676 0,-547 129,-547 129,-676"/>
<text text-anchor="middle" x="64.5" y="-664" font-family="Helvetica,sans-Serif" font-size="10.00">{sgns::base::Blob&lt; size_ &gt;</text>
<text text-anchor="start" x="8" y="-653" font-family="Helvetica,sans-Serif" font-size="10.00">||+ Blob()</text>
<text text-anchor="start" x="8" y="-642" font-family="Helvetica,sans-Serif" font-size="10.00">+ Blob()</text>
<text text-anchor="start" x="8" y="-631" font-family="Helvetica,sans-Serif" font-size="10.00">+ toString()</text>
<text text-anchor="start" x="8" y="-620" font-family="Helvetica,sans-Serif" font-size="10.00">+ toHex()</text>
<text text-anchor="start" x="8" y="-609" font-family="Helvetica,sans-Serif" font-size="10.00">+ size()</text>
<text text-anchor="start" x="8" y="-598" font-family="Helvetica,sans-Serif" font-size="10.00">+ fromString()</text>
<text text-anchor="start" x="8" y="-587" font-family="Helvetica,sans-Serif" font-size="10.00">+ fromHex()</text>
<text text-anchor="start" x="8" y="-576" font-family="Helvetica,sans-Serif" font-size="10.00">+ fromHexWithPrefix()</text>
<text text-anchor="start" x="8" y="-565" font-family="Helvetica,sans-Serif" font-size="10.00">+ fromSpan()</text>
<text text-anchor="middle" x="64.5" y="-554" font-family="Helvetica,sans-Serif" font-size="10.00">}</text>
</a>
</g>
</g>
<!-- Node3&#45;&gt;Node2 -->
<g id="edge2" class="edge">
<title>Node3&#45;&gt;Node2</title>
<path fill="none" stroke="#404040" d="M34.43,-546.66C7.7,-479.79 -20.75,-373.98 24.5,-297 40.75,-269.35 69.12,-249.72 97.43,-236.08"/>
<polygon fill="none" stroke="#404040" points="97.35,-236.12 101.16,-230 108.28,-231.16 104.47,-237.28 97.35,-236.12"/>
<text text-anchor="middle" x="55.5" y="-381" font-family="Helvetica,sans-Serif" font-size="10.00"> +parent_hash</text>
</g>
<!-- Node6 -->
<g id="node6" class="node">
<title>Node6</title>
<g id="a_node6"><a xlink:href="classsgns_1_1base_1_1_blob.html" target="_top" xlink:title=" ">
<polygon fill="white" stroke="#666666" points="213,-448 96,-448 96,-319 213,-319 213,-448"/>
<text text-anchor="middle" x="154.5" y="-436" font-family="Helvetica,sans-Serif" font-size="10.00">{sgns::base::Blob&lt; 32 &gt;</text>
<text text-anchor="start" x="104" y="-425" font-family="Helvetica,sans-Serif" font-size="10.00">||+ Blob()</text>
<text text-anchor="start" x="104" y="-414" font-family="Helvetica,sans-Serif" font-size="10.00">+ Blob()</text>
<text text-anchor="start" x="104" y="-403" font-family="Helvetica,sans-Serif" font-size="10.00">+ toString()</text>
<text text-anchor="start" x="104" y="-392" font-family="Helvetica,sans-Serif" font-size="10.00">+ toHex()</text>
<text text-anchor="start" x="104" y="-381" font-family="Helvetica,sans-Serif" font-size="10.00">+ size()</text>
<text text-anchor="start" x="104" y="-370" font-family="Helvetica,sans-Serif" font-size="10.00">+ fromString()</text>
<text text-anchor="start" x="104" y="-359" font-family="Helvetica,sans-Serif" font-size="10.00">+ fromHex()</text>
<text text-anchor="start" x="104" y="-348" font-family="Helvetica,sans-Serif" font-size="10.00">+ fromHexWithPrefix()</text>
<text text-anchor="start" x="104" y="-337" font-family="Helvetica,sans-Serif" font-size="10.00">+ fromSpan()</text>
<text text-anchor="middle" x="154.5" y="-326" font-family="Helvetica,sans-Serif" font-size="10.00">}</text>
</a>
</g>
</g>
<!-- Node3&#45;&gt;Node6 -->
<g id="edge7" class="edge">
<title>Node3&#45;&gt;Node6</title>
<path fill="none" stroke="orange" d="M94.18,-535.96C105.49,-507.57 118.26,-475.5 129.13,-448.2"/>
<polygon fill="orange" stroke="orange" points="90.94,-534.65 90.49,-545.24 97.44,-537.24 90.94,-534.65"/>
<text text-anchor="middle" x="127.5" y="-506" font-family="Helvetica,sans-Serif" font-size="10.00"> &lt; 32 &gt;</text>
</g>
<!-- Node4 -->
<g id="node4" class="node">
<title>Node4</title>
<g id="a_node4"><a xlink:title=" ">
<polygon fill="white" stroke="#666666" points="198,-753 117,-753 117,-723 198,-723 198,-753"/>
<text text-anchor="middle" x="157.5" y="-741" font-family="Helvetica,sans-Serif" font-size="10.00">{std::array&lt; T &gt;</text>
<text text-anchor="middle" x="157.5" y="-730" font-family="Helvetica,sans-Serif" font-size="10.00">||}</text>
</a>
</g>
</g>
<!-- Node4&#45;&gt;Node3 -->
<g id="edge3" class="edge">
<title>Node4&#45;&gt;Node3</title>
<path fill="none" stroke="#63b8ff" d="M140.08,-713.68C132.09,-702.98 122.18,-689.72 112.2,-676.35"/>
<polygon fill="none" stroke="#63b8ff" points="137.14,-715.59 145.93,-721.51 142.75,-711.4 137.14,-715.59"/>
</g>
<!-- Node4&#45;&gt;Node6 -->
<g id="edge6" class="edge">
<title>Node4&#45;&gt;Node6</title>
<path fill="none" stroke="#63b8ff" d="M157.28,-711.37C156.82,-656.61 155.71,-526.79 155.04,-448.23"/>
<polygon fill="none" stroke="#63b8ff" points="153.78,-711.26 157.37,-721.23 160.78,-711.2 153.78,-711.26"/>
</g>
<!-- Node5 -->
<g id="node5" class="node">
<title>Node5</title>
<g id="a_node5"><a xlink:title=" ">
<polygon fill="white" stroke="#666666" points="223,-830 194,-830 194,-800 223,-800 223,-830"/>
<text text-anchor="middle" x="208.5" y="-818" font-family="Helvetica,sans-Serif" font-size="10.00">{T</text>
<text text-anchor="middle" x="208.5" y="-807" font-family="Helvetica,sans-Serif" font-size="10.00">||}</text>
</a>
</g>
</g>
<!-- Node5&#45;&gt;Node4 -->
<g id="edge4" class="edge">
<title>Node5&#45;&gt;Node4</title>
<path fill="none" stroke="#404040" d="M194.66,-799.6C189.89,-794.28 184.7,-788.07 180.5,-782 176.78,-776.63 173.22,-770.58 170.05,-764.76"/>
<polygon fill="none" stroke="#404040" points="170.11,-764.88 163.8,-761.38 164.6,-754.22 170.9,-757.71 170.11,-764.88"/>
<text text-anchor="middle" x="205" y="-774" font-family="Helvetica,sans-Serif" font-size="10.00"> +elements</text>
</g>
<!-- Node8 -->
<g id="node8" class="node">
<title>Node8</title>
<g id="a_node8"><a xlink:title=" ">
<polygon fill="white" stroke="#666666" points="335,-753 248,-753 248,-723 335,-723 335,-753"/>
<text text-anchor="middle" x="291.5" y="-741" font-family="Helvetica,sans-Serif" font-size="10.00">{std::vector&lt; T &gt;</text>
<text text-anchor="middle" x="291.5" y="-730" font-family="Helvetica,sans-Serif" font-size="10.00">||}</text>
</a>
</g>
</g>
<!-- Node5&#45;&gt;Node8 -->
<g id="edge10" class="edge">
<title>Node5&#45;&gt;Node8</title>
<path fill="none" stroke="#404040" d="M223.34,-800.59C235.2,-789.88 252.09,-774.61 266.09,-761.96"/>
<polygon fill="none" stroke="#404040" points="266.09,-761.96 267.86,-754.97 274.99,-753.92 273.22,-760.91 266.09,-761.96"/>
<text text-anchor="middle" x="280" y="-774" font-family="Helvetica,sans-Serif" font-size="10.00"> +elements</text>
</g>
<!-- Node6&#45;&gt;Node2 -->
<g id="edge5" class="edge">
<title>Node6&#45;&gt;Node2</title>
<path fill="none" stroke="#404040" d="M155.13,-318.7C156.38,-298.74 158.84,-276.77 163.5,-257 163.93,-255.17 164.42,-253.32 164.96,-251.47"/>
<polygon fill="none" stroke="#404040" points="164.94,-251.54 163.08,-244.57 168.79,-240.18 170.65,-247.14 164.94,-251.54"/>
<text text-anchor="middle" x="199.5" y="-271" font-family="Helvetica,sans-Serif" font-size="10.00"> +extrinsics_root</text>
<text text-anchor="middle" x="199.5" y="-260" font-family="Helvetica,sans-Serif" font-size="10.00">+state_root</text>
</g>
<!-- Node7 -->
<g id="node7" class="node">
<title>Node7</title>
<g id="a_node7"><a xlink:title=" ">
<polygon fill="white" stroke="#666666" points="304.5,-529 176.5,-529 176.5,-488 304.5,-488 304.5,-529"/>
<text text-anchor="middle" x="240.5" y="-517" font-family="Helvetica,sans-Serif" font-size="10.00">{std::vector&lt; DigestItem &gt;</text>
<text text-anchor="start" x="184.5" y="-506" font-family="Helvetica,sans-Serif" font-size="10.00">|+ elements</text>
<text text-anchor="middle" x="240.5" y="-495" font-family="Helvetica,sans-Serif" font-size="10.00">|}</text>
</a>
</g>
</g>
<!-- Node7&#45;&gt;Node2 -->
<g id="edge8" class="edge">
<title>Node7&#45;&gt;Node2</title>
<path fill="none" stroke="#404040" d="M245.12,-487.53C254.24,-443.56 270.8,-336.04 235.5,-257 234.4,-254.53 233.11,-252.14 231.66,-249.81"/>
<polygon fill="none" stroke="#404040" points="231.68,-249.83 224.88,-247.42 224.5,-240.22 231.3,-242.63 231.68,-249.83"/>
<text text-anchor="middle" x="275" y="-381" font-family="Helvetica,sans-Serif" font-size="10.00"> +digest</text>
</g>
<!-- Node8&#45;&gt;Node7 -->
<g id="edge9" class="edge">
<title>Node8&#45;&gt;Node7</title>
<path fill="none" stroke="orange" d="M247.95,-715.59C244.62,-712.47 241.71,-708.95 239.5,-705 207.71,-648.11 224.17,-566.59 234.38,-529.38"/>
<polygon fill="orange" stroke="orange" points="245.66,-718.25 255.7,-721.64 249.96,-712.73 245.66,-718.25"/>
<text text-anchor="middle" x="273" y="-697" font-family="Helvetica,sans-Serif" font-size="10.00"> &lt; DigestItem &gt;</text>
</g>
<!-- Node9 -->
<g id="node9" class="node">
<title>Node9</title>
<g id="a_node9"><a xlink:title=" ">
<polygon fill="white" stroke="#666666" points="379.5,-129 261.5,-129 261.5,-99 379.5,-99 379.5,-129"/>
<text text-anchor="middle" x="320.5" y="-117" font-family="Helvetica,sans-Serif" font-size="10.00">{std::vector&lt; Extrinsic &gt;</text>
<text text-anchor="middle" x="320.5" y="-106" font-family="Helvetica,sans-Serif" font-size="10.00">||}</text>
</a>
</g>
</g>
<!-- Node8&#45;&gt;Node9 -->
<g id="edge19" class="edge">
<title>Node8&#45;&gt;Node9</title>
<path fill="none" stroke="orange" d="M303.89,-712.37C304.87,-709.92 305.76,-707.43 306.5,-705 318.56,-665.21 320.5,-654.08 320.5,-612.5 320.5,-612.5 320.5,-612.5 320.5,-206.5 320.5,-179.18 320.5,-147.26 320.5,-129.26"/>
<polygon fill="orange" stroke="orange" points="300.78,-710.75 299.9,-721.31 307.17,-713.61 300.78,-710.75"/>
<text text-anchor="middle" x="348.5" y="-381" font-family="Helvetica,sans-Serif" font-size="10.00"> &lt; Extrinsic &gt;</text>
</g>
<!-- Node15 -->
<g id="node15" class="node">
<title>Node15</title>
<g id="a_node15"><a xlink:title=" ">
<polygon fill="white" stroke="#666666" points="458.5,-632 348.5,-632 348.5,-591 458.5,-591 458.5,-632"/>
<text text-anchor="middle" x="403.5" y="-620" font-family="Helvetica,sans-Serif" font-size="10.00">{std::vector&lt; uint8_t &gt;</text>
<text text-anchor="start" x="356.5" y="-609" font-family="Helvetica,sans-Serif" font-size="10.00">|+ elements</text>
<text text-anchor="middle" x="403.5" y="-598" font-family="Helvetica,sans-Serif" font-size="10.00">|}</text>
</a>
</g>
</g>
<!-- Node8&#45;&gt;Node15 -->
<g id="edge18" class="edge">
<title>Node8&#45;&gt;Node15</title>
<path fill="none" stroke="orange" d="M322.59,-715.58C326.76,-712.22 330.85,-708.65 334.5,-705 357.18,-682.35 378.46,-651.88 391.24,-632.21"/>
<polygon fill="orange" stroke="orange" points="320.52,-712.76 314.69,-721.61 324.76,-718.32 320.52,-712.76"/>
<text text-anchor="middle" x="368" y="-697" font-family="Helvetica,sans-Serif" font-size="10.00"> &lt; uint8_t &gt;</text>
</g>
<!-- Node9&#45;&gt;Node1 -->
<g id="edge11" class="edge">
<title>Node9&#45;&gt;Node1</title>
<path fill="none" stroke="#404040" d="M301.75,-98.61C288.01,-88.05 268.79,-73.29 251.37,-59.92"/>
<polygon fill="none" stroke="#404040" points="251.6,-60.1 244.41,-59.62 242.09,-52.79 249.28,-53.27 251.6,-60.1"/>
<text text-anchor="middle" x="293" y="-73" font-family="Helvetica,sans-Serif" font-size="10.00"> +body</text>
</g>
<!-- Node10 -->
<g id="node10" class="node">
<title>Node10</title>
<g id="a_node10"><a xlink:href="structsgns_1_1primitives_1_1_extrinsic.html" target="_top" xlink:title="Extrinsic class represents extrinsic.">
<polygon fill="white" stroke="#666666" points="542.5,-228 414.5,-228 414.5,-187 542.5,-187 542.5,-228"/>
<text text-anchor="middle" x="478.5" y="-216" font-family="Helvetica,sans-Serif" font-size="10.00">{sgns::primitives::Extrinsic</text>
<text text-anchor="start" x="422.5" y="-205" font-family="Helvetica,sans-Serif" font-size="10.00">||+ operator==()</text>
<text text-anchor="middle" x="478.5" y="-194" font-family="Helvetica,sans-Serif" font-size="10.00">}</text>
</a>
</g>
</g>
<!-- Node10&#45;&gt;Node9 -->
<g id="edge12" class="edge">
<title>Node10&#45;&gt;Node9</title>
<path fill="none" stroke="#404040" d="M444.22,-186.65C418.28,-171.63 382.77,-151.06 356.44,-135.81"/>
<polygon fill="none" stroke="#404040" points="356.58,-135.89 349.38,-136.35 346.2,-129.88 353.39,-129.43 356.58,-135.89"/>
<text text-anchor="middle" x="415" y="-150" font-family="Helvetica,sans-Serif" font-size="10.00"> +elements</text>
</g>
<!-- Node11 -->
<g id="node11" class="node">
<title>Node11</title>
<g id="a_node11"><a xlink:href="classsgns_1_1base_1_1_buffer.html" target="_top" xlink:title="Class represents arbitrary (including empty) byte buffer.">
<polygon fill="white" stroke="#666666" points="593.5,-470 497.5,-470 497.5,-297 593.5,-297 593.5,-470"/>
<text text-anchor="middle" x="545.5" y="-458" font-family="Helvetica,sans-Serif" font-size="10.00">{sgns::base::Buffer</text>
<text text-anchor="start" x="505.5" y="-447" font-family="Helvetica,sans-Serif" font-size="10.00">||+ Buffer()</text>
<text text-anchor="start" x="505.5" y="-436" font-family="Helvetica,sans-Serif" font-size="10.00">+ ~Buffer()</text>
<text text-anchor="start" x="505.5" y="-425" font-family="Helvetica,sans-Serif" font-size="10.00">+ Buffer()</text>
<text text-anchor="start" x="505.5" y="-414" font-family="Helvetica,sans-Serif" font-size="10.00">+ Buffer()</text>
<text text-anchor="start" x="505.5" y="-403" font-family="Helvetica,sans-Serif" font-size="10.00">+ Buffer()</text>
<text text-anchor="start" x="505.5" y="-392" font-family="Helvetica,sans-Serif" font-size="10.00">+ Buffer()</text>
<text text-anchor="start" x="505.5" y="-381" font-family="Helvetica,sans-Serif" font-size="10.00">+ Buffer()</text>
<text text-anchor="start" x="505.5" y="-370" font-family="Helvetica,sans-Serif" font-size="10.00">+ Buffer()</text>
<text text-anchor="start" x="505.5" y="-359" font-family="Helvetica,sans-Serif" font-size="10.00">+ Buffer()</text>
<text text-anchor="start" x="505.5" y="-348" font-family="Helvetica,sans-Serif" font-size="10.00">+ reserve()</text>
<text text-anchor="start" x="505.5" y="-337" font-family="Helvetica,sans-Serif" font-size="10.00">and 32 more...</text>
<text text-anchor="start" x="505.5" y="-326" font-family="Helvetica,sans-Serif" font-size="10.00">+ fromHex()</text>
<text text-anchor="start" x="505.5" y="-315" font-family="Helvetica,sans-Serif" font-size="10.00">&#45; putRange()</text>
<text text-anchor="middle" x="545.5" y="-304" font-family="Helvetica,sans-Serif" font-size="10.00">}</text>
</a>
</g>
</g>
<!-- Node11&#45;&gt;Node10 -->
<g id="edge13" class="edge">
<title>Node11&#45;&gt;Node10</title>
<path fill="none" stroke="#404040" d="M512.39,-296.52C504.64,-276.39 496.86,-256.18 490.71,-240.22"/>
<polygon fill="none" stroke="#404040" points="490.8,-240.44 484.91,-236.28 486.49,-229.25 492.38,-233.41 490.8,-240.44"/>
<text text-anchor="middle" x="517.5" y="-265.5" font-family="Helvetica,sans-Serif" font-size="10.00"> +data</text>
</g>
<!-- Node12 -->
<g id="node12" class="node">
<title>Node12</title>
<g id="a_node12"><a xlink:title=" ">
<polygon fill="white" stroke="#666666" points="614,-632 477,-632 477,-591 614,-591 614,-632"/>
<text text-anchor="start" x="485" y="-620" font-family="Helvetica,sans-Serif" font-size="10.00">{boost::equality_comparable</text>
<text text-anchor="middle" x="545.5" y="-609" font-family="Helvetica,sans-Serif" font-size="10.00">&lt; Buffer &gt;</text>
<text text-anchor="middle" x="545.5" y="-598" font-family="Helvetica,sans-Serif" font-size="10.00">||}</text>
</a>
</g>
</g>
<!-- Node12&#45;&gt;Node11 -->
<g id="edge14" class="edge">
<title>Node12&#45;&gt;Node11</title>
<path fill="none" stroke="#63b8ff" d="M545.5,-579.4C545.5,-551.33 545.5,-508.71 545.5,-470.47"/>
<polygon fill="none" stroke="#63b8ff" points="542,-579.33 545.5,-589.33 549,-579.33 542,-579.33"/>
</g>
<!-- Node13 -->
<g id="node13" class="node">
<title>Node13</title>
<g id="a_node13"><a xlink:title=" ">
<polygon fill="white" stroke="#666666" points="769,-632 632,-632 632,-591 769,-591 769,-632"/>
<text text-anchor="start" x="640" y="-620" font-family="Helvetica,sans-Serif" font-size="10.00">{boost::equality_comparable</text>
<text text-anchor="middle" x="700.5" y="-609" font-family="Helvetica,sans-Serif" font-size="10.00">&lt; gsl::span&lt; uint8_t &gt; &gt;</text>
<text text-anchor="middle" x="700.5" y="-598" font-family="Helvetica,sans-Serif" font-size="10.00">||}</text>
</a>
</g>
</g>
<!-- Node13&#45;&gt;Node11 -->
<g id="edge15" class="edge">
<title>Node13&#45;&gt;Node11</title>
<path fill="none" stroke="#63b8ff" d="M680.74,-581.69C659,-549.99 623.26,-497.88 593.98,-455.19"/>
<polygon fill="none" stroke="#63b8ff" points="677.62,-583.32 686.16,-589.59 683.39,-579.36 677.62,-583.32"/>
</g>
<!-- Node14 -->
<g id="node14" class="node">
<title>Node14</title>
<g id="a_node14"><a xlink:title=" ">
<polygon fill="white" stroke="#666666" points="924,-632 787,-632 787,-591 924,-591 924,-632"/>
<text text-anchor="start" x="795" y="-620" font-family="Helvetica,sans-Serif" font-size="10.00">{boost::equality_comparable</text>
<text text-anchor="middle" x="855.5" y="-609" font-family="Helvetica,sans-Serif" font-size="10.00">&lt; std::vector&lt; uint8_t &gt; &gt;</text>
<text text-anchor="middle" x="855.5" y="-598" font-family="Helvetica,sans-Serif" font-size="10.00">||}</text>
</a>
</g>
</g>
<!-- Node14&#45;&gt;Node11 -->
<g id="edge16" class="edge">
<title>Node14&#45;&gt;Node11</title>
<path fill="none" stroke="#63b8ff" d="M823.72,-583.32C810.01,-571.85 793.67,-558.52 778.5,-547 716.04,-499.59 641.29,-448.39 593.6,-416.39"/>
<polygon fill="none" stroke="#63b8ff" points="821.24,-585.81 831.15,-589.57 825.75,-580.45 821.24,-585.81"/>
</g>
<!-- Node15&#45;&gt;Node11 -->
<g id="edge17" class="edge">
<title>Node15&#45;&gt;Node11</title>
<path fill="none" stroke="#404040" d="M415.85,-590.84C432.43,-564.46 462.95,-515.88 490.21,-472.49"/>
<polygon fill="none" stroke="#404040" points="490.2,-472.51 490.01,-465.3 496.59,-462.35 496.78,-469.56 490.2,-472.51"/>
<text text-anchor="middle" x="493.5" y="-506" font-family="Helvetica,sans-Serif" font-size="10.00"> &#45;data_</text>
</g>
</g>
</svg>
