<?xml version="1.0" encoding="UTF-8" standalone="no"?>
<!DOCTYPE svg PUBLIC "-//W3C//DTD SVG 1.1//EN"
 "http://www.w3.org/Graphics/SVG/1.1/DTD/svg11.dtd">
<!-- Generated by graphviz version 7.0.5 (20221223.1930)
 -->
<!-- Title: sgns::verification::ProductionMeta Pages: 1 -->
<!--zoomable 783 -->
<svg id="main" version="1.1" xmlns="http://www.w3.org/2000/svg" xmlns:xlink="http://www.w3.org/1999/xlink" xml:space="preserve" onload="init(evt)">
<style type="text/css"><![CDATA[
.edge:hover path { stroke: red; }
.edge:hover polygon { stroke: red; fill: red; }
]]></style>
<script type="text/javascript"><![CDATA[
var edges = document.getElementsByTagName('g');
if (edges && edges.length) {
  for (var i=0;i<edges.length;i++) {
    if (edges[i].id.substr(0,4)=='edge') {
      edges[i].setAttribute('class','edge');
    }
  }
}
]]></script>
        <defs>
                <circle id="rim" cx="0" cy="0" r="7"/>
                <circle id="rim2" cx="0" cy="0" r="3.5"/>
                <g id="zoomPlus">
                        <use xlink:href="#rim" fill="#404040">
                                <set attributeName="fill" to="#808080" begin="zoomplus.mouseover" end="zoomplus.mouseout"/>
                        </use>
                        <path d="M-4,0h8M0,-4v8" fill="none" stroke="white" stroke-width="1.5" pointer-events="none"/>
                </g>
                <g id="zoomMin">
                        <use xlink:href="#rim" fill="#404040">
                                <set attributeName="fill" to="#808080" begin="zoomminus.mouseover" end="zoomminus.mouseout"/>
                        </use>
                        <path d="M-4,0h8" fill="none" stroke="white" stroke-width="1.5" pointer-events="none"/>
                </g>
                <g id="dirArrow">
                        <path fill="none" stroke="white" stroke-width="1.5" d="M0,-3.0v7 M-2.5,-0.5L0,-3.0L2.5,-0.5"/>
                </g>
               <g id="resetDef">
                       <use xlink:href="#rim2" fill="#404040">
                               <set attributeName="fill" to="#808080" begin="reset.mouseover" end="reset.mouseout"/>
                       </use>
               </g>
        </defs>

<script type="text/javascript">
var viewWidth = 440;
var viewHeight = 783;
var sectionId = 'dynsection-2';
</script>
<script xlink:href="svgpan.js"/>
<svg id="graph" class="graph">
<g id="viewport">
<title>sgns::verification::ProductionMeta</title>
<!-- Node1 -->
<g id="node1" class="node">
<title>Node1</title>
<g id="a_node1"><a xlink:title=" ">
<polygon fill="#999999" stroke="#666666" points="342.5,-63 223.5,-63 223.5,0 342.5,0 342.5,-63"/>
<text text-anchor="start" x="231.5" y="-51" font-family="Helvetica,sans-Serif" font-size="10.00">{sgns::verification</text>
<text text-anchor="middle" x="283" y="-40" font-family="Helvetica,sans-Serif" font-size="10.00">::ProductionMeta</text>
<text text-anchor="start" x="231.5" y="-29" font-family="Helvetica,sans-Serif" font-size="10.00">|+ current_slot_</text>
<text text-anchor="start" x="231.5" y="-18" font-family="Helvetica,sans-Serif" font-size="10.00">+ last_slot_finish_time_</text>
<text text-anchor="middle" x="283" y="-7" font-family="Helvetica,sans-Serif" font-size="10.00">|}</text>
</a>
</g>
</g>
<!-- Node2 -->
<g id="node2" class="node">
<title>Node2</title>
<g id="a_node2"><a xlink:href="structsgns_1_1verification_1_1_epoch.html" target="_top" xlink:title=" ">
<polygon fill="white" stroke="#666666" points="263,-206 171,-206 171,-110 263,-110 263,-206"/>
<text text-anchor="start" x="179" y="-194" font-family="Helvetica,sans-Serif" font-size="10.00">{sgns::verification</text>
<text text-anchor="middle" x="217" y="-183" font-family="Helvetica,sans-Serif" font-size="10.00">::Epoch</text>
<text text-anchor="start" x="179" y="-172" font-family="Helvetica,sans-Serif" font-size="10.00">|+ epoch_index</text>
<text text-anchor="start" x="179" y="-161" font-family="Helvetica,sans-Serif" font-size="10.00">+ start_slot</text>
<text text-anchor="start" x="179" y="-150" font-family="Helvetica,sans-Serif" font-size="10.00">+ epoch_duration</text>
<text text-anchor="start" x="179" y="-139" font-family="Helvetica,sans-Serif" font-size="10.00">|+ operator==()</text>
<text text-anchor="start" x="179" y="-128" font-family="Helvetica,sans-Serif" font-size="10.00">+ operator!=()</text>
<text text-anchor="middle" x="217" y="-117" font-family="Helvetica,sans-Serif" font-size="10.00">}</text>
</a>
</g>
</g>
<!-- Node2&#45;&gt;Node1 -->
<g id="edge1" class="edge">
<title>Node2&#45;&gt;Node1</title>
<path fill="none" stroke="#404040" d="M241.91,-109.54C246.89,-100.08 252.1,-90.22 257,-81 258.1,-78.94 259.22,-76.83 260.35,-74.7"/>
<polygon fill="none" stroke="#404040" points="260.38,-74.65 259.68,-67.47 266.03,-64.06 266.74,-71.24 260.38,-74.65"/>
<text text-anchor="middle" x="295" y="-84" font-family="Helvetica,sans-Serif" font-size="10.00"> +current_epoch_</text>
</g>
<!-- Node3 -->
<g id="node3" class="node">
<title>Node3</title>
<g id="a_node3"><a xlink:href="structsgns_1_1primitives_1_1_authority_list.html" target="_top" xlink:title="Special type for vector of authorities.">
<polygon fill="white" stroke="#666666" points="146,-453.5 0,-453.5 0,-423.5 146,-423.5 146,-453.5"/>
<text text-anchor="middle" x="73" y="-441.5" font-family="Helvetica,sans-Serif" font-size="10.00">{sgns::primitives::AuthorityList</text>
<text text-anchor="middle" x="73" y="-430.5" font-family="Helvetica,sans-Serif" font-size="10.00">||}</text>
</a>
</g>
</g>
<!-- Node3&#45;&gt;Node2 -->
<g id="edge2" class="edge">
<title>Node3&#45;&gt;Node2</title>
<path fill="none" stroke="#404040" d="M70.73,-423.41C66.25,-390.95 59.22,-309.34 91,-253 106.65,-225.25 134.22,-203.27 159.59,-187.56"/>
<polygon fill="none" stroke="#404040" points="159.57,-187.57 162.69,-181.07 169.89,-181.45 166.77,-187.95 159.57,-187.57"/>
<text text-anchor="middle" x="118" y="-326" font-family="Helvetica,sans-Serif" font-size="10.00"> +authorities</text>
</g>
<!-- Node4 -->
<g id="node4" class="node">
<title>Node4</title>
<g id="a_node4"><a xlink:title=" ">
<polygon fill="white" stroke="#666666" points="135.5,-698 48.5,-698 48.5,-668 135.5,-668 135.5,-698"/>
<text text-anchor="middle" x="92" y="-686" font-family="Helvetica,sans-Serif" font-size="10.00">{std::vector&lt; T &gt;</text>
<text text-anchor="middle" x="92" y="-675" font-family="Helvetica,sans-Serif" font-size="10.00">||}</text>
</a>
</g>
</g>
<!-- Node4&#45;&gt;Node3 -->
<g id="edge3" class="edge">
<title>Node4&#45;&gt;Node3</title>
<path fill="none" stroke="#63b8ff" d="M89.99,-656.31C86.01,-605.49 77.24,-493.62 74.13,-453.87"/>
<polygon fill="none" stroke="#63b8ff" points="86.48,-656.35 90.75,-666.05 93.46,-655.8 86.48,-656.35"/>
</g>
<!-- Node5 -->
<g id="node5" class="node">
<title>Node5</title>
<g id="a_node5"><a xlink:title=" ">
<polygon fill="white" stroke="#666666" points="215.5,-775 186.5,-775 186.5,-745 215.5,-745 215.5,-775"/>
<text text-anchor="middle" x="201" y="-763" font-family="Helvetica,sans-Serif" font-size="10.00">{T</text>
<text text-anchor="middle" x="201" y="-752" font-family="Helvetica,sans-Serif" font-size="10.00">||}</text>
</a>
</g>
</g>
<!-- Node5&#45;&gt;Node4 -->
<g id="edge4" class="edge">
<title>Node5&#45;&gt;Node4</title>
<path fill="none" stroke="#404040" d="M186.33,-750.73C175.53,-744.51 160.61,-735.61 148,-727 138.64,-720.61 128.74,-713.23 119.91,-706.41"/>
<polygon fill="none" stroke="#404040" points="119.93,-706.43 112.74,-705.87 110.49,-699.02 117.68,-699.58 119.93,-706.43"/>
<text text-anchor="middle" x="172.5" y="-719" font-family="Helvetica,sans-Serif" font-size="10.00"> +elements</text>
</g>
<!-- Node7 -->
<g id="node7" class="node">
<title>Node7</title>
<g id="a_node7"><a xlink:title=" ">
<polygon fill="white" stroke="#666666" points="241.5,-698 160.5,-698 160.5,-668 241.5,-668 241.5,-698"/>
<text text-anchor="middle" x="201" y="-686" font-family="Helvetica,sans-Serif" font-size="10.00">{std::array&lt; T &gt;</text>
<text text-anchor="middle" x="201" y="-675" font-family="Helvetica,sans-Serif" font-size="10.00">||}</text>
</a>
</g>
</g>
<!-- Node5&#45;&gt;Node7 -->
<g id="edge7" class="edge">
<title>Node5&#45;&gt;Node7</title>
<path fill="none" stroke="#404040" d="M201,-744.54C201,-735.1 201,-722.47 201,-711.2"/>
<polygon fill="none" stroke="#404040" points="201,-711.32 197,-705.32 201,-699.32 205,-705.32 201,-711.32"/>
<text text-anchor="middle" x="225.5" y="-719" font-family="Helvetica,sans-Serif" font-size="10.00"> +elements</text>
</g>
<!-- Node9 -->
<g id="node9" class="node">
<title>Node9</title>
<g id="a_node9"><a xlink:title=" ">
<polygon fill="white" stroke="#666666" points="370.5,-650 283.5,-650 283.5,-620 370.5,-620 370.5,-650"/>
<text text-anchor="middle" x="327" y="-638" font-family="Helvetica,sans-Serif" font-size="10.00">{std::vector&lt; T &gt;</text>
<text text-anchor="middle" x="327" y="-627" font-family="Helvetica,sans-Serif" font-size="10.00">||}</text>
</a>
</g>
</g>
<!-- Node5&#45;&gt;Node9 -->
<g id="edge11" class="edge">
<title>Node5&#45;&gt;Node9</title>
<path fill="none" stroke="#404040" d="M215.87,-751.84C227.04,-746.04 242.35,-737.19 254,-727 276.32,-707.47 296.99,-680.5 310.6,-661"/>
<polygon fill="none" stroke="#404040" points="310.67,-660.89 310.74,-653.68 317.42,-650.97 317.35,-658.18 310.67,-660.89"/>
<text text-anchor="middle" x="290.5" y="-719" font-family="Helvetica,sans-Serif" font-size="10.00"> +elements</text>
</g>
<!-- Node6 -->
<g id="node6" class="node">
<title>Node6</title>
<g id="a_node6"><a xlink:href="classsgns_1_1base_1_1_blob.html" target="_top" xlink:title=" ">
<polygon fill="white" stroke="#666666" points="279.5,-404 154.5,-404 154.5,-253 279.5,-253 279.5,-404"/>
<text text-anchor="start" x="162.5" y="-392" font-family="Helvetica,sans-Serif" font-size="10.00">{sgns::base::Blob&lt; crypto</text>
<text text-anchor="start" x="162.5" y="-381" font-family="Helvetica,sans-Serif" font-size="10.00">::constants::sr25519::vrf</text>
<text text-anchor="middle" x="217" y="-370" font-family="Helvetica,sans-Serif" font-size="10.00">::OUTPUT_SIZE &gt;</text>
<text text-anchor="start" x="162.5" y="-359" font-family="Helvetica,sans-Serif" font-size="10.00">||+ Blob()</text>
<text text-anchor="start" x="162.5" y="-348" font-family="Helvetica,sans-Serif" font-size="10.00">+ Blob()</text>
<text text-anchor="start" x="162.5" y="-337" font-family="Helvetica,sans-Serif" font-size="10.00">+ toString()</text>
<text text-anchor="start" x="162.5" y="-326" font-family="Helvetica,sans-Serif" font-size="10.00">+ toHex()</text>
<text text-anchor="start" x="162.5" y="-315" font-family="Helvetica,sans-Serif" font-size="10.00">+ size()</text>
<text text-anchor="start" x="162.5" y="-304" font-family="Helvetica,sans-Serif" font-size="10.00">+ fromString()</text>
<text text-anchor="start" x="162.5" y="-293" font-family="Helvetica,sans-Serif" font-size="10.00">+ fromHex()</text>
<text text-anchor="start" x="162.5" y="-282" font-family="Helvetica,sans-Serif" font-size="10.00">+ fromHexWithPrefix()</text>
<text text-anchor="start" x="162.5" y="-271" font-family="Helvetica,sans-Serif" font-size="10.00">+ fromSpan()</text>
<text text-anchor="middle" x="217" y="-260" font-family="Helvetica,sans-Serif" font-size="10.00">}</text>
</a>
</g>
</g>
<!-- Node6&#45;&gt;Node2 -->
<g id="edge5" class="edge">
<title>Node6&#45;&gt;Node2</title>
<path fill="none" stroke="#404040" d="M217,-252.61C217,-241.36 217,-229.89 217,-219.01"/>
<polygon fill="none" stroke="#404040" points="217,-218.98 213,-212.98 217,-206.98 221,-212.98 217,-218.98"/>
<text text-anchor="middle" x="248" y="-227" font-family="Helvetica,sans-Serif" font-size="10.00"> +randomness</text>
</g>
<!-- Node7&#45;&gt;Node6 -->
<g id="edge6" class="edge">
<title>Node7&#45;&gt;Node6</title>
<path fill="none" stroke="#63b8ff" d="M192.64,-656.92C187.89,-641.32 182.42,-620.73 180,-602 172.66,-545.14 172.79,-529.88 180,-473 182.87,-450.41 188.17,-426.29 193.89,-404.4"/>
<polygon fill="none" stroke="#63b8ff" points="189.27,-657.85 195.62,-666.33 195.94,-655.74 189.27,-657.85"/>
</g>
<!-- Node8 -->
<g id="node8" class="node">
<title>Node8</title>
<g id="a_node8"><a xlink:href="classsgns_1_1base_1_1_blob.html" target="_top" xlink:title=" ">
<polygon fill="white" stroke="#666666" points="318.5,-602 189.5,-602 189.5,-473 318.5,-473 318.5,-602"/>
<text text-anchor="middle" x="254" y="-590" font-family="Helvetica,sans-Serif" font-size="10.00">{sgns::base::Blob&lt; size_ &gt;</text>
<text text-anchor="start" x="197.5" y="-579" font-family="Helvetica,sans-Serif" font-size="10.00">||+ Blob()</text>
<text text-anchor="start" x="197.5" y="-568" font-family="Helvetica,sans-Serif" font-size="10.00">+ Blob()</text>
<text text-anchor="start" x="197.5" y="-557" font-family="Helvetica,sans-Serif" font-size="10.00">+ toString()</text>
<text text-anchor="start" x="197.5" y="-546" font-family="Helvetica,sans-Serif" font-size="10.00">+ toHex()</text>
<text text-anchor="start" x="197.5" y="-535" font-family="Helvetica,sans-Serif" font-size="10.00">+ size()</text>
<text text-anchor="start" x="197.5" y="-524" font-family="Helvetica,sans-Serif" font-size="10.00">+ fromString()</text>
<text text-anchor="start" x="197.5" y="-513" font-family="Helvetica,sans-Serif" font-size="10.00">+ fromHex()</text>
<text text-anchor="start" x="197.5" y="-502" font-family="Helvetica,sans-Serif" font-size="10.00">+ fromHexWithPrefix()</text>
<text text-anchor="start" x="197.5" y="-491" font-family="Helvetica,sans-Serif" font-size="10.00">+ fromSpan()</text>
<text text-anchor="middle" x="254" y="-480" font-family="Helvetica,sans-Serif" font-size="10.00">}</text>
</a>
</g>
</g>
<!-- Node7&#45;&gt;Node8 -->
<g id="edge9" class="edge">
<title>Node7&#45;&gt;Node8</title>
<path fill="none" stroke="#63b8ff" d="M210.17,-657.18C215.77,-642 223.22,-621.83 230.39,-602.44"/>
<polygon fill="none" stroke="#63b8ff" points="206.98,-655.7 206.8,-666.3 213.55,-658.13 206.98,-655.7"/>
</g>
<!-- Node8&#45;&gt;Node6 -->
<g id="edge8" class="edge">
<title>Node8&#45;&gt;Node6</title>
<path fill="none" stroke="orange" d="M233.33,-461.54C232.86,-459.34 232.42,-457.16 232,-455 228.85,-438.74 226.25,-421.15 224.16,-404.43"/>
<polygon fill="orange" stroke="orange" points="229.88,-462.17 235.49,-471.16 236.71,-460.64 229.88,-462.17"/>
<text text-anchor="start" x="232" y="-447" font-family="Helvetica,sans-Serif" font-size="10.00"> &lt; crypto::constants</text>
<text text-anchor="start" x="232" y="-436" font-family="Helvetica,sans-Serif" font-size="10.00">::sr25519::vrf::OUTPUT</text>
<text text-anchor="middle" x="282.5" y="-425" font-family="Helvetica,sans-Serif" font-size="10.00">_SIZE &gt;</text>
</g>
<!-- Node9&#45;&gt;Node1 -->
<g id="edge10" class="edge">
<title>Node9&#45;&gt;Node1</title>
<path fill="none" stroke="#404040" d="M329.45,-619.9C334.79,-587.92 347,-507.39 347,-439.5 347,-439.5 347,-439.5 347,-157 347,-122.65 349.21,-111.28 333,-81 331.58,-78.35 329.96,-75.75 328.2,-73.22"/>
<polygon fill="none" stroke="#404040" points="328.32,-73.37 321.45,-71.17 320.84,-63.99 327.71,-66.19 328.32,-73.37"/>
<text text-anchor="middle" x="389.5" y="-326" font-family="Helvetica,sans-Serif" font-size="10.00"> +slots_leadership_</text>
</g>
</g>
</svg>
        <g id="navigator" transform="translate(0 0)" fill="#404254">
                <rect fill="#f2f5e9" fill-opacity="0.5" stroke="#606060" stroke-width=".5" x="0" y="0" width="60" height="60"/>
                <use id="zoomplus" xlink:href="#zoomPlus" x="17" y="9" onmousedown="handleZoom(evt,'in')"/>
                <use id="zoomminus" xlink:href="#zoomMin" x="42" y="9" onmousedown="handleZoom(evt,'out')"/>
                <use id="reset" xlink:href="#resetDef" x="30" y="36" onmousedown="handleReset()"/>
                <g id="arrowUp" xlink:href="#dirArrow" transform="translate(30 24)" onmousedown="handlePan(0,-1)">
                  <use xlink:href="#rim" fill="#404040">
                        <set attributeName="fill" to="#808080" begin="arrowUp.mouseover" end="arrowUp.mouseout"/>
                  </use>
                  <path fill="none" stroke="white" stroke-width="1.5" d="M0,-3.0v7 M-2.5,-0.5L0,-3.0L2.5,-0.5"/>
                </g>
                <g id="arrowRight" xlink:href="#dirArrow" transform="rotate(90) translate(36 -43)" onmousedown="handlePan(1,0)">
                  <use xlink:href="#rim" fill="#404040">
                        <set attributeName="fill" to="#808080" begin="arrowRight.mouseover" end="arrowRight.mouseout"/>
                  </use>
                  <path fill="none" stroke="white" stroke-width="1.5" d="M0,-3.0v7 M-2.5,-0.5L0,-3.0L2.5,-0.5"/>
                </g>
                <g id="arrowDown" xlink:href="#dirArrow" transform="rotate(180) translate(-30 -48)" onmousedown="handlePan(0,1)">
                  <use xlink:href="#rim" fill="#404040">
                        <set attributeName="fill" to="#808080" begin="arrowDown.mouseover" end="arrowDown.mouseout"/>
                  </use>
                  <path fill="none" stroke="white" stroke-width="1.5" d="M0,-3.0v7 M-2.5,-0.5L0,-3.0L2.5,-0.5"/>
                </g>
                <g id="arrowLeft" xlink:href="#dirArrow" transform="rotate(270) translate(-36 17)" onmousedown="handlePan(-1,0)">
                  <use xlink:href="#rim" fill="#404040">
                        <set attributeName="fill" to="#808080" begin="arrowLeft.mouseover" end="arrowLeft.mouseout"/>
                  </use>
                  <path fill="none" stroke="white" stroke-width="1.5" d="M0,-3.0v7 M-2.5,-0.5L0,-3.0L2.5,-0.5"/>
                </g>
        </g>
        <svg viewBox="0 0 15 15" width="100%" height="30px" preserveAspectRatio="xMaxYMin meet">
         <g id="arrow_out" transform="scale(0.3 0.3)">
          <a xlink:href="structsgns_1_1verification_1_1_production_meta__coll__graph_org.svg" target="_base">
           <rect id="button" ry="5" rx="5" y="6" x="6" height="38" width="38"
                fill="#f2f5e9" fill-opacity="0.5" stroke="#606060" stroke-width="1.0"/>
           <path id="arrow"
             d="M 11.500037,31.436501 C 11.940474,20.09759 22.043105,11.32322 32.158766,21.979434 L 37.068811,17.246167 C 37.068811,17.246167 37.088388,32 37.088388,32 L 22.160133,31.978069 C 22.160133,31.978069 26.997745,27.140456 26.997745,27.140456 C 18.528582,18.264221 13.291696,25.230495 11.500037,31.436501 z"
             style="fill:#404040;"/>
          </a>
         </g>
        </svg>
</svg>
