<?xml version="1.0" encoding="UTF-8" standalone="no"?>
<!DOCTYPE svg PUBLIC "-//W3C//DTD SVG 1.1//EN"
 "http://www.w3.org/Graphics/SVG/1.1/DTD/svg11.dtd">
<!-- Generated by graphviz version 7.0.5 (20221223.1930)
 -->
<!-- Title: sgns::network::SyncProtocolClient Pages: 1 -->
<svg width="324pt" height="203pt"
 viewBox="0.00 0.00 324.00 203.00" xmlns="http://www.w3.org/2000/svg" xmlns:xlink="http://www.w3.org/1999/xlink">
<g id="graph0" class="graph" transform="scale(1 1) rotate(0) translate(4 199)">
<title>sgns::network::SyncProtocolClient</title>
<!-- Node1 -->
<g id="node1" class="node">
<title>Node1</title>
<g id="a_node1"><a xlink:title=" ">
<polygon fill="#999999" stroke="#666666" points="228.5,-195 86.5,-195 86.5,-132 228.5,-132 228.5,-195"/>
<text text-anchor="start" x="94.5" y="-183" font-family="Helvetica,sans-Serif" font-size="10.00">{sgns::network::SyncProtocol</text>
<text text-anchor="middle" x="157.5" y="-172" font-family="Helvetica,sans-Serif" font-size="10.00">Client</text>
<text text-anchor="start" x="94.5" y="-161" font-family="Helvetica,sans-Serif" font-size="10.00">||+ ~SyncProtocolClient()</text>
<text text-anchor="start" x="94.5" y="-150" font-family="Helvetica,sans-Serif" font-size="10.00">+ requestBlocks()</text>
<text text-anchor="middle" x="157.5" y="-139" font-family="Helvetica,sans-Serif" font-size="10.00">}</text>
</a>
</g>
</g>
<!-- Node2 -->
<g id="node2" class="node">
<title>Node2</title>
<g id="a_node2"><a xlink:href="classsgns_1_1network_1_1_dummy_sync_protocol_client.html" target="_top" xlink:title=" ">
<polygon fill="white" stroke="#666666" points="149,-85 0,-85 0,-11 149,-11 149,-85"/>
<text text-anchor="start" x="8" y="-73" font-family="Helvetica,sans-Serif" font-size="10.00">{sgns::network::DummySync</text>
<text text-anchor="middle" x="74.5" y="-62" font-family="Helvetica,sans-Serif" font-size="10.00">ProtocolClient</text>
<text text-anchor="start" x="8" y="-51" font-family="Helvetica,sans-Serif" font-size="10.00">|&#45; log_</text>
<text text-anchor="start" x="8" y="-40" font-family="Helvetica,sans-Serif" font-size="10.00">|+ DummySyncProtocolClient()</text>
<text text-anchor="start" x="8" y="-29" font-family="Helvetica,sans-Serif" font-size="10.00">+ requestBlocks()</text>
<text text-anchor="middle" x="74.5" y="-18" font-family="Helvetica,sans-Serif" font-size="10.00">}</text>
</a>
</g>
</g>
<!-- Node1&#45;&gt;Node2 -->
<g id="edge1" class="edge">
<title>Node1&#45;&gt;Node2</title>
<path fill="none" stroke="#63b8ff" d="M128.44,-122.76C119.55,-110.6 109.82,-97.3 101.11,-85.38"/>
<polygon fill="none" stroke="#63b8ff" points="125.42,-124.56 134.15,-130.56 131.07,-120.43 125.42,-124.56"/>
</g>
<!-- Node3 -->
<g id="node3" class="node">
<title>Node3</title>
<g id="a_node3"><a xlink:href="classsgns_1_1network_1_1_remote_sync_protocol_client.html" target="_top" xlink:title=" ">
<polygon fill="white" stroke="#666666" points="316,-96 167,-96 167,0 316,0 316,-96"/>
<text text-anchor="start" x="175" y="-84" font-family="Helvetica,sans-Serif" font-size="10.00">{sgns::network::RemoteSync</text>
<text text-anchor="middle" x="241.5" y="-73" font-family="Helvetica,sans-Serif" font-size="10.00">ProtocolClient</text>
<text text-anchor="start" x="175" y="-62" font-family="Helvetica,sans-Serif" font-size="10.00">|&#45; host_</text>
<text text-anchor="start" x="175" y="-51" font-family="Helvetica,sans-Serif" font-size="10.00">&#45; peer_info_</text>
<text text-anchor="start" x="175" y="-40" font-family="Helvetica,sans-Serif" font-size="10.00">&#45; log_</text>
<text text-anchor="start" x="175" y="-29" font-family="Helvetica,sans-Serif" font-size="10.00">|+ RemoteSyncProtocolClient()</text>
<text text-anchor="start" x="175" y="-18" font-family="Helvetica,sans-Serif" font-size="10.00">+ requestBlocks()</text>
<text text-anchor="middle" x="241.5" y="-7" font-family="Helvetica,sans-Serif" font-size="10.00">}</text>
</a>
</g>
</g>
<!-- Node1&#45;&gt;Node3 -->
<g id="edge2" class="edge">
<title>Node1&#45;&gt;Node3</title>
<path fill="none" stroke="#63b8ff" d="M186.88,-122.8C193.2,-114.27 199.92,-105.18 206.43,-96.39"/>
<polygon fill="none" stroke="#63b8ff" points="184.27,-120.45 181.13,-130.57 189.89,-124.61 184.27,-120.45"/>
</g>
</g>
</svg>
