<?xml version="1.0" encoding="UTF-8" standalone="no"?>
<!DOCTYPE svg PUBLIC "-//W3C//DTD SVG 1.1//EN"
 "http://www.w3.org/Graphics/SVG/1.1/DTD/svg11.dtd">
<!-- Generated by graphviz version 7.0.5 (20221223.1930)
 -->
<!-- Title: sgns::storage::face::WriteBatch&lt; K, V &gt; Pages: 1 -->
<svg width="572pt" height="524pt"
 viewBox="0.00 0.00 572.00 524.00" xmlns="http://www.w3.org/2000/svg" xmlns:xlink="http://www.w3.org/1999/xlink">
<g id="graph0" class="graph" transform="scale(1 1) rotate(0) translate(4 520)">
<title>sgns::storage::face::WriteBatch&lt; K, V &gt;</title>
<!-- Node1 -->
<g id="node1" class="node">
<title>Node1</title>
<g id="a_node1"><a xlink:title="An abstraction over a storage, which can be used for batch writes.">
<polygon fill="#999999" stroke="#666666" points="416,-394 312,-394 312,-331 416,-331 416,-394"/>
<text text-anchor="start" x="320" y="-382" font-family="Helvetica,sans-Serif" font-size="10.00">{sgns::storage::face</text>
<text text-anchor="middle" x="364" y="-371" font-family="Helvetica,sans-Serif" font-size="10.00">::WriteBatch&lt; K, V &gt;</text>
<text text-anchor="start" x="320" y="-360" font-family="Helvetica,sans-Serif" font-size="10.00">||+ commit()</text>
<text text-anchor="start" x="320" y="-349" font-family="Helvetica,sans-Serif" font-size="10.00">+ clear()</text>
<text text-anchor="middle" x="364" y="-338" font-family="Helvetica,sans-Serif" font-size="10.00">}</text>
</a>
</g>
</g>
<!-- Node3 -->
<g id="node3" class="node">
<title>Node3</title>
<g id="a_node3"><a xlink:href="structsgns_1_1storage_1_1face_1_1_write_batch.html" target="_top" xlink:title=" ">
<polygon fill="white" stroke="#666666" points="279,-267.5 173,-267.5 173,-193.5 279,-193.5 279,-267.5"/>
<text text-anchor="start" x="181" y="-255.5" font-family="Helvetica,sans-Serif" font-size="10.00">{sgns::storage::face</text>
<text text-anchor="start" x="181" y="-244.5" font-family="Helvetica,sans-Serif" font-size="10.00">::WriteBatch&lt; Buffer,</text>
<text text-anchor="middle" x="226" y="-233.5" font-family="Helvetica,sans-Serif" font-size="10.00"> Buffer &gt;</text>
<text text-anchor="start" x="181" y="-222.5" font-family="Helvetica,sans-Serif" font-size="10.00">||+ commit()</text>
<text text-anchor="start" x="181" y="-211.5" font-family="Helvetica,sans-Serif" font-size="10.00">+ clear()</text>
<text text-anchor="middle" x="226" y="-200.5" font-family="Helvetica,sans-Serif" font-size="10.00">}</text>
</a>
</g>
</g>
<!-- Node1&#45;&gt;Node3 -->
<g id="edge2" class="edge">
<title>Node1&#45;&gt;Node3</title>
<path fill="none" stroke="orange" d="M302.75,-328.02C296.13,-323.35 289.73,-318.32 284,-313 269.88,-299.88 257.1,-282.81 247.15,-267.69"/>
<polygon fill="orange" stroke="orange" points="300.36,-330.63 310.61,-333.31 304.26,-324.82 300.36,-330.63"/>
<text text-anchor="middle" x="322" y="-299.5" font-family="Helvetica,sans-Serif" font-size="10.00"> &lt; Buffer, Buffer &gt;</text>
</g>
<!-- Node6 -->
<g id="node6" class="node">
<title>Node6</title>
<g id="a_node6"><a xlink:href="structsgns_1_1storage_1_1face_1_1_write_batch.html" target="_top" xlink:title=" ">
<polygon fill="white" stroke="#666666" points="417.5,-267.5 310.5,-267.5 310.5,-193.5 417.5,-193.5 417.5,-267.5"/>
<text text-anchor="start" x="318.5" y="-255.5" font-family="Helvetica,sans-Serif" font-size="10.00">{sgns::storage::face</text>
<text text-anchor="start" x="318.5" y="-244.5" font-family="Helvetica,sans-Serif" font-size="10.00">::WriteBatch&lt; base::</text>
<text text-anchor="middle" x="364" y="-233.5" font-family="Helvetica,sans-Serif" font-size="10.00">Buffer, base::Buffer &gt;</text>
<text text-anchor="start" x="318.5" y="-222.5" font-family="Helvetica,sans-Serif" font-size="10.00">||+ commit()</text>
<text text-anchor="start" x="318.5" y="-211.5" font-family="Helvetica,sans-Serif" font-size="10.00">+ clear()</text>
<text text-anchor="middle" x="364" y="-200.5" font-family="Helvetica,sans-Serif" font-size="10.00">}</text>
</a>
</g>
</g>
<!-- Node1&#45;&gt;Node6 -->
<g id="edge5" class="edge">
<title>Node1&#45;&gt;Node6</title>
<path fill="none" stroke="orange" d="M364,-319.54C364,-302.81 364,-283.73 364,-267.62"/>
<polygon fill="orange" stroke="orange" points="360.5,-319.18 364,-329.18 367.5,-319.18 360.5,-319.18"/>
<text text-anchor="start" x="364" y="-305" font-family="Helvetica,sans-Serif" font-size="10.00"> &lt; base::Buffer, base</text>
<text text-anchor="middle" x="408" y="-294" font-family="Helvetica,sans-Serif" font-size="10.00">::Buffer &gt;</text>
</g>
<!-- Node8 -->
<g id="node8" class="node">
<title>Node8</title>
<g id="a_node8"><a xlink:href="structsgns_1_1storage_1_1face_1_1_write_batch.html" target="_top" xlink:title=" ">
<polygon fill="white" stroke="#666666" points="554.5,-273 435.5,-273 435.5,-188 554.5,-188 554.5,-273"/>
<text text-anchor="start" x="443.5" y="-261" font-family="Helvetica,sans-Serif" font-size="10.00">{sgns::storage::face</text>
<text text-anchor="start" x="443.5" y="-250" font-family="Helvetica,sans-Serif" font-size="10.00">::WriteBatch&lt; sgns::</text>
<text text-anchor="start" x="443.5" y="-239" font-family="Helvetica,sans-Serif" font-size="10.00">base::Buffer, sgns::base</text>
<text text-anchor="middle" x="495" y="-228" font-family="Helvetica,sans-Serif" font-size="10.00">::Buffer &gt;</text>
<text text-anchor="start" x="443.5" y="-217" font-family="Helvetica,sans-Serif" font-size="10.00">||+ commit()</text>
<text text-anchor="start" x="443.5" y="-206" font-family="Helvetica,sans-Serif" font-size="10.00">+ clear()</text>
<text text-anchor="middle" x="495" y="-195" font-family="Helvetica,sans-Serif" font-size="10.00">}</text>
</a>
</g>
</g>
<!-- Node1&#45;&gt;Node8 -->
<g id="edge7" class="edge">
<title>Node1&#45;&gt;Node8</title>
<path fill="none" stroke="orange" d="M426.14,-335.8C436.96,-329.45 447.47,-321.87 456,-313 466.77,-301.81 475.04,-287.08 481.13,-273.23"/>
<polygon fill="orange" stroke="orange" points="424.55,-332.68 417.48,-340.57 427.93,-338.81 424.55,-332.68"/>
<text text-anchor="start" x="473" y="-305" font-family="Helvetica,sans-Serif" font-size="10.00"> &lt; sgns::base::Buffer,</text>
<text text-anchor="middle" x="518.5" y="-294" font-family="Helvetica,sans-Serif" font-size="10.00"> sgns::base::Buffer &gt;</text>
</g>
<!-- Node2 -->
<g id="node2" class="node">
<title>Node2</title>
<g id="a_node2"><a xlink:href="structsgns_1_1storage_1_1face_1_1_writeable.html" target="_top" xlink:title="An mixin for modifiable map.">
<polygon fill="white" stroke="#666666" points="414.5,-516 313.5,-516 313.5,-431 414.5,-431 414.5,-516"/>
<text text-anchor="start" x="321.5" y="-504" font-family="Helvetica,sans-Serif" font-size="10.00">{sgns::storage::face</text>
<text text-anchor="middle" x="364" y="-493" font-family="Helvetica,sans-Serif" font-size="10.00">::Writeable&lt; K, V &gt;</text>
<text text-anchor="start" x="321.5" y="-482" font-family="Helvetica,sans-Serif" font-size="10.00">||+ ~Writeable()</text>
<text text-anchor="start" x="321.5" y="-471" font-family="Helvetica,sans-Serif" font-size="10.00">+ put()</text>
<text text-anchor="start" x="321.5" y="-460" font-family="Helvetica,sans-Serif" font-size="10.00">+ put()</text>
<text text-anchor="start" x="321.5" y="-449" font-family="Helvetica,sans-Serif" font-size="10.00">+ remove()</text>
<text text-anchor="middle" x="364" y="-438" font-family="Helvetica,sans-Serif" font-size="10.00">}</text>
</a>
</g>
</g>
<!-- Node2&#45;&gt;Node1 -->
<g id="edge1" class="edge">
<title>Node2&#45;&gt;Node1</title>
<path fill="none" stroke="#63b8ff" d="M364,-419.41C364,-410.77 364,-402.08 364,-394.22"/>
<polygon fill="none" stroke="#63b8ff" points="360.5,-419.16 364,-429.16 367.5,-419.16 360.5,-419.16"/>
</g>
<!-- Node4 -->
<g id="node4" class="node">
<title>Node4</title>
<g id="a_node4"><a xlink:href="classsgns_1_1storage_1_1_in_memory_batch.html" target="_top" xlink:title=" ">
<polygon fill="white" stroke="#666666" points="150,-134.5 0,-134.5 0,-16.5 150,-16.5 150,-134.5"/>
<text text-anchor="middle" x="75" y="-122.5" font-family="Helvetica,sans-Serif" font-size="10.00">{sgns::storage::InMemoryBatch</text>
<text text-anchor="start" x="8" y="-111.5" font-family="Helvetica,sans-Serif" font-size="10.00">|&#45; entries</text>
<text text-anchor="start" x="8" y="-100.5" font-family="Helvetica,sans-Serif" font-size="10.00">&#45; db</text>
<text text-anchor="start" x="8" y="-89.5" font-family="Helvetica,sans-Serif" font-size="10.00">|+ InMemoryBatch()</text>
<text text-anchor="start" x="8" y="-78.5" font-family="Helvetica,sans-Serif" font-size="10.00">+ put()</text>
<text text-anchor="start" x="8" y="-67.5" font-family="Helvetica,sans-Serif" font-size="10.00">+ put()</text>
<text text-anchor="start" x="8" y="-56.5" font-family="Helvetica,sans-Serif" font-size="10.00">+ remove()</text>
<text text-anchor="start" x="8" y="-45.5" font-family="Helvetica,sans-Serif" font-size="10.00">+ commit()</text>
<text text-anchor="start" x="8" y="-34.5" font-family="Helvetica,sans-Serif" font-size="10.00">+ clear()</text>
<text text-anchor="middle" x="75" y="-23.5" font-family="Helvetica,sans-Serif" font-size="10.00">}</text>
</a>
</g>
</g>
<!-- Node3&#45;&gt;Node4 -->
<g id="edge3" class="edge">
<title>Node3&#45;&gt;Node4</title>
<path fill="none" stroke="#63b8ff" d="M182.33,-185.25C166.83,-169.55 149.14,-151.63 132.66,-134.92"/>
<polygon fill="none" stroke="#63b8ff" points="179.64,-187.5 189.15,-192.16 184.62,-182.59 179.64,-187.5"/>
</g>
<!-- Node5 -->
<g id="node5" class="node">
<title>Node5</title>
<g id="a_node5"><a xlink:href="classsgns_1_1storage_1_1rocksdb_1_1_batch.html" target="_top" xlink:title="Class that is used to implement efficient bulk (batch) modifications of the Map.">
<polygon fill="white" stroke="#666666" points="284,-140 168,-140 168,-11 284,-11 284,-140"/>
<text text-anchor="start" x="176" y="-128" font-family="Helvetica,sans-Serif" font-size="10.00">{sgns::storage::rocksdb</text>
<text text-anchor="middle" x="226" y="-117" font-family="Helvetica,sans-Serif" font-size="10.00">::Batch</text>
<text text-anchor="start" x="176" y="-106" font-family="Helvetica,sans-Serif" font-size="10.00">|&#45; db_</text>
<text text-anchor="start" x="176" y="-95" font-family="Helvetica,sans-Serif" font-size="10.00">&#45; batch_</text>
<text text-anchor="start" x="176" y="-84" font-family="Helvetica,sans-Serif" font-size="10.00">|+ Batch()</text>
<text text-anchor="start" x="176" y="-73" font-family="Helvetica,sans-Serif" font-size="10.00">+ put()</text>
<text text-anchor="start" x="176" y="-62" font-family="Helvetica,sans-Serif" font-size="10.00">+ put()</text>
<text text-anchor="start" x="176" y="-51" font-family="Helvetica,sans-Serif" font-size="10.00">+ remove()</text>
<text text-anchor="start" x="176" y="-40" font-family="Helvetica,sans-Serif" font-size="10.00">+ commit()</text>
<text text-anchor="start" x="176" y="-29" font-family="Helvetica,sans-Serif" font-size="10.00">+ clear()</text>
<text text-anchor="middle" x="226" y="-18" font-family="Helvetica,sans-Serif" font-size="10.00">}</text>
</a>
</g>
</g>
<!-- Node3&#45;&gt;Node5 -->
<g id="edge4" class="edge">
<title>Node3&#45;&gt;Node5</title>
<path fill="none" stroke="#63b8ff" d="M226,-182.04C226,-168.85 226,-154.31 226,-140.34"/>
<polygon fill="none" stroke="#63b8ff" points="222.5,-181.73 226,-191.73 229.5,-181.73 222.5,-181.73"/>
</g>
<!-- Node7 -->
<g id="node7" class="node">
<title>Node7</title>
<g id="a_node7"><a xlink:href="classsgns_1_1storage_1_1trie_1_1_trie_storage_backend_batch.html" target="_top" xlink:title=" ">
<polygon fill="white" stroke="#666666" points="452,-151 302,-151 302,0 452,0 452,-151"/>
<text text-anchor="start" x="310" y="-139" font-family="Helvetica,sans-Serif" font-size="10.00">{sgns::storage::trie</text>
<text text-anchor="middle" x="377" y="-128" font-family="Helvetica,sans-Serif" font-size="10.00">::TrieStorageBackendBatch</text>
<text text-anchor="start" x="310" y="-117" font-family="Helvetica,sans-Serif" font-size="10.00">|&#45; storage_batch_</text>
<text text-anchor="start" x="310" y="-106" font-family="Helvetica,sans-Serif" font-size="10.00">&#45; node_prefix_</text>
<text text-anchor="start" x="310" y="-95" font-family="Helvetica,sans-Serif" font-size="10.00">|+ TrieStorageBackendBatch()</text>
<text text-anchor="start" x="310" y="-84" font-family="Helvetica,sans-Serif" font-size="10.00">+ ~TrieStorageBackendBatch()</text>
<text text-anchor="start" x="310" y="-73" font-family="Helvetica,sans-Serif" font-size="10.00">+ commit()</text>
<text text-anchor="start" x="310" y="-62" font-family="Helvetica,sans-Serif" font-size="10.00">+ put()</text>
<text text-anchor="start" x="310" y="-51" font-family="Helvetica,sans-Serif" font-size="10.00">+ put()</text>
<text text-anchor="start" x="310" y="-40" font-family="Helvetica,sans-Serif" font-size="10.00">+ remove()</text>
<text text-anchor="start" x="310" y="-29" font-family="Helvetica,sans-Serif" font-size="10.00">+ clear()</text>
<text text-anchor="start" x="310" y="-18" font-family="Helvetica,sans-Serif" font-size="10.00">&#45; prefixKey()</text>
<text text-anchor="middle" x="377" y="-7" font-family="Helvetica,sans-Serif" font-size="10.00">}</text>
</a>
</g>
</g>
<!-- Node6&#45;&gt;Node7 -->
<g id="edge6" class="edge">
<title>Node6&#45;&gt;Node7</title>
<path fill="none" stroke="#63b8ff" d="M368.05,-181.82C368.88,-172.12 369.76,-161.7 370.64,-151.32"/>
<polygon fill="none" stroke="#63b8ff" points="364.57,-181.47 367.21,-191.73 371.54,-182.07 364.57,-181.47"/>
</g>
</g>
</svg>
