<?xml version="1.0" encoding="UTF-8" standalone="no"?>
<!DOCTYPE svg PUBLIC "-//W3C//DTD SVG 1.1//EN"
 "http://www.w3.org/Graphics/SVG/1.1/DTD/svg11.dtd">
<!-- Generated by graphviz version 7.0.5 (20221223.1930)
 -->
<!-- Title: sgns::verification::NextEpochDescriptor Pages: 1 -->
<!--zoomable 611 -->
<svg id="main" version="1.1" xmlns="http://www.w3.org/2000/svg" xmlns:xlink="http://www.w3.org/1999/xlink" xml:space="preserve" onload="init(evt)">
<style type="text/css"><![CDATA[
.edge:hover path { stroke: red; }
.edge:hover polygon { stroke: red; fill: red; }
]]></style>
<script type="text/javascript"><![CDATA[
var edges = document.getElementsByTagName('g');
if (edges && edges.length) {
  for (var i=0;i<edges.length;i++) {
    if (edges[i].id.substr(0,4)=='edge') {
      edges[i].setAttribute('class','edge');
    }
  }
}
]]></script>
        <defs>
                <circle id="rim" cx="0" cy="0" r="7"/>
                <circle id="rim2" cx="0" cy="0" r="3.5"/>
                <g id="zoomPlus">
                        <use xlink:href="#rim" fill="#404040">
                                <set attributeName="fill" to="#808080" begin="zoomplus.mouseover" end="zoomplus.mouseout"/>
                        </use>
                        <path d="M-4,0h8M0,-4v8" fill="none" stroke="white" stroke-width="1.5" pointer-events="none"/>
                </g>
                <g id="zoomMin">
                        <use xlink:href="#rim" fill="#404040">
                                <set attributeName="fill" to="#808080" begin="zoomminus.mouseover" end="zoomminus.mouseout"/>
                        </use>
                        <path d="M-4,0h8" fill="none" stroke="white" stroke-width="1.5" pointer-events="none"/>
                </g>
                <g id="dirArrow">
                        <path fill="none" stroke="white" stroke-width="1.5" d="M0,-3.0v7 M-2.5,-0.5L0,-3.0L2.5,-0.5"/>
                </g>
               <g id="resetDef">
                       <use xlink:href="#rim2" fill="#404040">
                               <set attributeName="fill" to="#808080" begin="reset.mouseover" end="reset.mouseout"/>
                       </use>
               </g>
        </defs>

<script type="text/javascript">
var viewWidth = 351;
var viewHeight = 611;
var sectionId = 'dynsection-0';
</script>
<script xlink:href="svgpan.js"/>
<svg id="graph" class="graph">
<g id="viewport">
<title>sgns::verification::NextEpochDescriptor</title>
<!-- Node1 -->
<g id="node1" class="node">
<title>Node1</title>
<g id="a_node1"><a xlink:title="Information about the epoch after next epoch.">
<polygon fill="#999999" stroke="#666666" points="145.5,-63 32.5,-63 32.5,0 145.5,0 145.5,-63"/>
<text text-anchor="start" x="40.5" y="-51" font-family="Helvetica,sans-Serif" font-size="10.00">{sgns::verification</text>
<text text-anchor="middle" x="89" y="-40" font-family="Helvetica,sans-Serif" font-size="10.00">::NextEpochDescriptor</text>
<text text-anchor="start" x="40.5" y="-29" font-family="Helvetica,sans-Serif" font-size="10.00">||+ operator==()</text>
<text text-anchor="start" x="40.5" y="-18" font-family="Helvetica,sans-Serif" font-size="10.00">+ operator!=()</text>
<text text-anchor="middle" x="89" y="-7" font-family="Helvetica,sans-Serif" font-size="10.00">}</text>
</a>
</g>
</g>
<!-- Node2 -->
<g id="node2" class="node">
<title>Node2</title>
<g id="a_node2"><a xlink:href="structsgns_1_1primitives_1_1_authority_list.html" target="_top" xlink:title="Special type for vector of authorities.">
<polygon fill="white" stroke="#666666" points="146,-310.5 0,-310.5 0,-280.5 146,-280.5 146,-310.5"/>
<text text-anchor="middle" x="73" y="-298.5" font-family="Helvetica,sans-Serif" font-size="10.00">{sgns::primitives::AuthorityList</text>
<text text-anchor="middle" x="73" y="-287.5" font-family="Helvetica,sans-Serif" font-size="10.00">||}</text>
</a>
</g>
</g>
<!-- Node2&#45;&gt;Node1 -->
<g id="edge1" class="edge">
<title>Node2&#45;&gt;Node1</title>
<path fill="none" stroke="#404040" d="M73.5,-280.13C74.62,-249.07 77.6,-173.34 82,-110 82.76,-99.08 83.74,-87.3 84.72,-76.31"/>
<polygon fill="none" stroke="#404040" points="84.73,-76.25 81.3,-69.91 85.83,-64.3 89.26,-70.64 84.73,-76.25"/>
<text text-anchor="middle" x="109" y="-183" font-family="Helvetica,sans-Serif" font-size="10.00"> +authorities</text>
</g>
<!-- Node3 -->
<g id="node3" class="node">
<title>Node3</title>
<g id="a_node3"><a xlink:title=" ">
<polygon fill="white" stroke="#666666" points="116.5,-526 29.5,-526 29.5,-496 116.5,-496 116.5,-526"/>
<text text-anchor="middle" x="73" y="-514" font-family="Helvetica,sans-Serif" font-size="10.00">{std::vector&lt; T &gt;</text>
<text text-anchor="middle" x="73" y="-503" font-family="Helvetica,sans-Serif" font-size="10.00">||}</text>
</a>
</g>
</g>
<!-- Node3&#45;&gt;Node2 -->
<g id="edge2" class="edge">
<title>Node3&#45;&gt;Node2</title>
<path fill="none" stroke="#63b8ff" d="M73,-484.21C73,-438.85 73,-346.26 73,-310.78"/>
<polygon fill="none" stroke="#63b8ff" points="69.5,-484.15 73,-494.15 76.5,-484.15 69.5,-484.15"/>
</g>
<!-- Node4 -->
<g id="node4" class="node">
<title>Node4</title>
<g id="a_node4"><a xlink:title=" ">
<polygon fill="white" stroke="#666666" points="138.5,-603 109.5,-603 109.5,-573 138.5,-573 138.5,-603"/>
<text text-anchor="middle" x="124" y="-591" font-family="Helvetica,sans-Serif" font-size="10.00">{T</text>
<text text-anchor="middle" x="124" y="-580" font-family="Helvetica,sans-Serif" font-size="10.00">||}</text>
</a>
</g>
</g>
<!-- Node4&#45;&gt;Node3 -->
<g id="edge3" class="edge">
<title>Node4&#45;&gt;Node3</title>
<path fill="none" stroke="#404040" d="M110.16,-572.6C105.39,-567.28 100.2,-561.07 96,-555 92.28,-549.63 88.72,-543.58 85.55,-537.76"/>
<polygon fill="none" stroke="#404040" points="85.61,-537.88 79.3,-534.38 80.1,-527.22 86.4,-530.71 85.61,-537.88"/>
<text text-anchor="middle" x="120.5" y="-547" font-family="Helvetica,sans-Serif" font-size="10.00"> +elements</text>
</g>
<!-- Node6 -->
<g id="node6" class="node">
<title>Node6</title>
<g id="a_node6"><a xlink:title=" ">
<polygon fill="white" stroke="#666666" points="215.5,-526 134.5,-526 134.5,-496 215.5,-496 215.5,-526"/>
<text text-anchor="middle" x="175" y="-514" font-family="Helvetica,sans-Serif" font-size="10.00">{std::array&lt; T &gt;</text>
<text text-anchor="middle" x="175" y="-503" font-family="Helvetica,sans-Serif" font-size="10.00">||}</text>
</a>
</g>
</g>
<!-- Node4&#45;&gt;Node6 -->
<g id="edge6" class="edge">
<title>Node4&#45;&gt;Node6</title>
<path fill="none" stroke="#404040" d="M133.83,-572.54C140.68,-562.47 149.98,-548.8 158.01,-536.99"/>
<polygon fill="none" stroke="#404040" points="157.94,-537.08 158.01,-529.87 164.69,-527.16 164.62,-534.37 157.94,-537.08"/>
<text text-anchor="middle" x="177.5" y="-547" font-family="Helvetica,sans-Serif" font-size="10.00"> +elements</text>
</g>
<!-- Node5 -->
<g id="node5" class="node">
<title>Node5</title>
<g id="a_node5"><a xlink:href="classsgns_1_1base_1_1_blob.html" target="_top" xlink:title=" ">
<polygon fill="white" stroke="#666666" points="270.5,-261 145.5,-261 145.5,-110 270.5,-110 270.5,-261"/>
<text text-anchor="start" x="153.5" y="-249" font-family="Helvetica,sans-Serif" font-size="10.00">{sgns::base::Blob&lt; crypto</text>
<text text-anchor="start" x="153.5" y="-238" font-family="Helvetica,sans-Serif" font-size="10.00">::constants::sr25519::vrf</text>
<text text-anchor="middle" x="208" y="-227" font-family="Helvetica,sans-Serif" font-size="10.00">::OUTPUT_SIZE &gt;</text>
<text text-anchor="start" x="153.5" y="-216" font-family="Helvetica,sans-Serif" font-size="10.00">||+ Blob()</text>
<text text-anchor="start" x="153.5" y="-205" font-family="Helvetica,sans-Serif" font-size="10.00">+ Blob()</text>
<text text-anchor="start" x="153.5" y="-194" font-family="Helvetica,sans-Serif" font-size="10.00">+ toString()</text>
<text text-anchor="start" x="153.5" y="-183" font-family="Helvetica,sans-Serif" font-size="10.00">+ toHex()</text>
<text text-anchor="start" x="153.5" y="-172" font-family="Helvetica,sans-Serif" font-size="10.00">+ size()</text>
<text text-anchor="start" x="153.5" y="-161" font-family="Helvetica,sans-Serif" font-size="10.00">+ fromString()</text>
<text text-anchor="start" x="153.5" y="-150" font-family="Helvetica,sans-Serif" font-size="10.00">+ fromHex()</text>
<text text-anchor="start" x="153.5" y="-139" font-family="Helvetica,sans-Serif" font-size="10.00">+ fromHexWithPrefix()</text>
<text text-anchor="start" x="153.5" y="-128" font-family="Helvetica,sans-Serif" font-size="10.00">+ fromSpan()</text>
<text text-anchor="middle" x="208" y="-117" font-family="Helvetica,sans-Serif" font-size="10.00">}</text>
</a>
</g>
</g>
<!-- Node5&#45;&gt;Node1 -->
<g id="edge4" class="edge">
<title>Node5&#45;&gt;Node1</title>
<path fill="none" stroke="#404040" d="M149.55,-109.84C139.65,-97.19 129.71,-84.49 120.83,-73.15"/>
<polygon fill="none" stroke="#404040" points="120.95,-73.31 114.1,-71.05 113.55,-63.86 120.4,-66.12 120.95,-73.31"/>
<text text-anchor="middle" x="166" y="-84" font-family="Helvetica,sans-Serif" font-size="10.00"> +randomness</text>
</g>
<!-- Node6&#45;&gt;Node5 -->
<g id="edge5" class="edge">
<title>Node6&#45;&gt;Node5</title>
<path fill="none" stroke="#63b8ff" d="M176.79,-484.47C179.32,-449.55 184.27,-384.96 190,-330 192.33,-307.65 195.23,-283.39 198.02,-261.28"/>
<polygon fill="none" stroke="#63b8ff" points="173.33,-483.78 176.11,-494.01 180.31,-484.28 173.33,-483.78"/>
</g>
<!-- Node7 -->
<g id="node7" class="node">
<title>Node7</title>
<g id="a_node7"><a xlink:href="classsgns_1_1base_1_1_blob.html" target="_top" xlink:title=" ">
<polygon fill="white" stroke="#666666" points="328.5,-459 199.5,-459 199.5,-330 328.5,-330 328.5,-459"/>
<text text-anchor="middle" x="264" y="-447" font-family="Helvetica,sans-Serif" font-size="10.00">{sgns::base::Blob&lt; size_ &gt;</text>
<text text-anchor="start" x="207.5" y="-436" font-family="Helvetica,sans-Serif" font-size="10.00">||+ Blob()</text>
<text text-anchor="start" x="207.5" y="-425" font-family="Helvetica,sans-Serif" font-size="10.00">+ Blob()</text>
<text text-anchor="start" x="207.5" y="-414" font-family="Helvetica,sans-Serif" font-size="10.00">+ toString()</text>
<text text-anchor="start" x="207.5" y="-403" font-family="Helvetica,sans-Serif" font-size="10.00">+ toHex()</text>
<text text-anchor="start" x="207.5" y="-392" font-family="Helvetica,sans-Serif" font-size="10.00">+ size()</text>
<text text-anchor="start" x="207.5" y="-381" font-family="Helvetica,sans-Serif" font-size="10.00">+ fromString()</text>
<text text-anchor="start" x="207.5" y="-370" font-family="Helvetica,sans-Serif" font-size="10.00">+ fromHex()</text>
<text text-anchor="start" x="207.5" y="-359" font-family="Helvetica,sans-Serif" font-size="10.00">+ fromHexWithPrefix()</text>
<text text-anchor="start" x="207.5" y="-348" font-family="Helvetica,sans-Serif" font-size="10.00">+ fromSpan()</text>
<text text-anchor="middle" x="264" y="-337" font-family="Helvetica,sans-Serif" font-size="10.00">}</text>
</a>
</g>
</g>
<!-- Node6&#45;&gt;Node7 -->
<g id="edge8" class="edge">
<title>Node6&#45;&gt;Node7</title>
<path fill="none" stroke="#63b8ff" d="M192.78,-487.12C199.13,-478.95 206.64,-469.3 214.35,-459.37"/>
<polygon fill="none" stroke="#63b8ff" points="190.22,-484.72 186.84,-494.77 195.74,-489.02 190.22,-484.72"/>
</g>
<!-- Node7&#45;&gt;Node5 -->
<g id="edge7" class="edge">
<title>Node7&#45;&gt;Node5</title>
<path fill="none" stroke="orange" d="M243.74,-318.6C238.69,-299.96 233.29,-279.98 228.25,-261.34"/>
<polygon fill="orange" stroke="orange" points="240.36,-319.5 246.35,-328.24 247.11,-317.68 240.36,-319.5"/>
<text text-anchor="start" x="242" y="-304" font-family="Helvetica,sans-Serif" font-size="10.00"> &lt; crypto::constants</text>
<text text-anchor="start" x="242" y="-293" font-family="Helvetica,sans-Serif" font-size="10.00">::sr25519::vrf::OUTPUT</text>
<text text-anchor="middle" x="292.5" y="-282" font-family="Helvetica,sans-Serif" font-size="10.00">_SIZE &gt;</text>
</g>
</g>
</svg>
        <g id="navigator" transform="translate(0 0)" fill="#404254">
                <rect fill="#f2f5e9" fill-opacity="0.5" stroke="#606060" stroke-width=".5" x="0" y="0" width="60" height="60"/>
                <use id="zoomplus" xlink:href="#zoomPlus" x="17" y="9" onmousedown="handleZoom(evt,'in')"/>
                <use id="zoomminus" xlink:href="#zoomMin" x="42" y="9" onmousedown="handleZoom(evt,'out')"/>
                <use id="reset" xlink:href="#resetDef" x="30" y="36" onmousedown="handleReset()"/>
                <g id="arrowUp" xlink:href="#dirArrow" transform="translate(30 24)" onmousedown="handlePan(0,-1)">
                  <use xlink:href="#rim" fill="#404040">
                        <set attributeName="fill" to="#808080" begin="arrowUp.mouseover" end="arrowUp.mouseout"/>
                  </use>
                  <path fill="none" stroke="white" stroke-width="1.5" d="M0,-3.0v7 M-2.5,-0.5L0,-3.0L2.5,-0.5"/>
                </g>
                <g id="arrowRight" xlink:href="#dirArrow" transform="rotate(90) translate(36 -43)" onmousedown="handlePan(1,0)">
                  <use xlink:href="#rim" fill="#404040">
                        <set attributeName="fill" to="#808080" begin="arrowRight.mouseover" end="arrowRight.mouseout"/>
                  </use>
                  <path fill="none" stroke="white" stroke-width="1.5" d="M0,-3.0v7 M-2.5,-0.5L0,-3.0L2.5,-0.5"/>
                </g>
                <g id="arrowDown" xlink:href="#dirArrow" transform="rotate(180) translate(-30 -48)" onmousedown="handlePan(0,1)">
                  <use xlink:href="#rim" fill="#404040">
                        <set attributeName="fill" to="#808080" begin="arrowDown.mouseover" end="arrowDown.mouseout"/>
                  </use>
                  <path fill="none" stroke="white" stroke-width="1.5" d="M0,-3.0v7 M-2.5,-0.5L0,-3.0L2.5,-0.5"/>
                </g>
                <g id="arrowLeft" xlink:href="#dirArrow" transform="rotate(270) translate(-36 17)" onmousedown="handlePan(-1,0)">
                  <use xlink:href="#rim" fill="#404040">
                        <set attributeName="fill" to="#808080" begin="arrowLeft.mouseover" end="arrowLeft.mouseout"/>
                  </use>
                  <path fill="none" stroke="white" stroke-width="1.5" d="M0,-3.0v7 M-2.5,-0.5L0,-3.0L2.5,-0.5"/>
                </g>
        </g>
        <svg viewBox="0 0 15 15" width="100%" height="30px" preserveAspectRatio="xMaxYMin meet">
         <g id="arrow_out" transform="scale(0.3 0.3)">
          <a xlink:href="structsgns_1_1verification_1_1_next_epoch_descriptor__coll__graph_org.svg" target="_base">
           <rect id="button" ry="5" rx="5" y="6" x="6" height="38" width="38"
                fill="#f2f5e9" fill-opacity="0.5" stroke="#606060" stroke-width="1.0"/>
           <path id="arrow"
             d="M 11.500037,31.436501 C 11.940474,20.09759 22.043105,11.32322 32.158766,21.979434 L 37.068811,17.246167 C 37.068811,17.246167 37.088388,32 37.088388,32 L 22.160133,31.978069 C 22.160133,31.978069 26.997745,27.140456 26.997745,27.140456 C 18.528582,18.264221 13.291696,25.230495 11.500037,31.436501 z"
             style="fill:#404040;"/>
          </a>
         </g>
        </svg>
</svg>
