<?xml version="1.0" encoding="UTF-8" standalone="no"?>
<!DOCTYPE svg PUBLIC "-//W3C//DTD SVG 1.1//EN"
 "http://www.w3.org/Graphics/SVG/1.1/DTD/svg11.dtd">
<!-- Generated by graphviz version 7.0.5 (20221223.1930)
 -->
<!-- Title: sgns::verification::finality::FinalityConfig Pages: 1 -->
<!--zoomable 934 -->
<svg id="main" version="1.1" xmlns="http://www.w3.org/2000/svg" xmlns:xlink="http://www.w3.org/1999/xlink" xml:space="preserve" onload="init(evt)">
<style type="text/css"><![CDATA[
.edge:hover path { stroke: red; }
.edge:hover polygon { stroke: red; fill: red; }
]]></style>
<script type="text/javascript"><![CDATA[
var edges = document.getElementsByTagName('g');
if (edges && edges.length) {
  for (var i=0;i<edges.length;i++) {
    if (edges[i].id.substr(0,4)=='edge') {
      edges[i].setAttribute('class','edge');
    }
  }
}
]]></script>
        <defs>
                <circle id="rim" cx="0" cy="0" r="7"/>
                <circle id="rim2" cx="0" cy="0" r="3.5"/>
                <g id="zoomPlus">
                        <use xlink:href="#rim" fill="#404040">
                                <set attributeName="fill" to="#808080" begin="zoomplus.mouseover" end="zoomplus.mouseout"/>
                        </use>
                        <path d="M-4,0h8M0,-4v8" fill="none" stroke="white" stroke-width="1.5" pointer-events="none"/>
                </g>
                <g id="zoomMin">
                        <use xlink:href="#rim" fill="#404040">
                                <set attributeName="fill" to="#808080" begin="zoomminus.mouseover" end="zoomminus.mouseout"/>
                        </use>
                        <path d="M-4,0h8" fill="none" stroke="white" stroke-width="1.5" pointer-events="none"/>
                </g>
                <g id="dirArrow">
                        <path fill="none" stroke="white" stroke-width="1.5" d="M0,-3.0v7 M-2.5,-0.5L0,-3.0L2.5,-0.5"/>
                </g>
               <g id="resetDef">
                       <use xlink:href="#rim2" fill="#404040">
                               <set attributeName="fill" to="#808080" begin="reset.mouseover" end="reset.mouseout"/>
                       </use>
               </g>
        </defs>

<script type="text/javascript">
var viewWidth = 535;
var viewHeight = 934;
var sectionId = 'dynsection-2';
</script>
<script xlink:href="svgpan.js"/>
<svg id="graph" class="graph">
<g id="viewport">
<title>sgns::verification::finality::FinalityConfig</title>
<!-- Node1 -->
<g id="node1" class="node">
<title>Node1</title>
<g id="a_node1"><a xlink:title=" ">
<polygon fill="#999999" stroke="#666666" points="359,-63 249,-63 249,0 359,0 359,-63"/>
<text text-anchor="start" x="257" y="-51" font-family="Helvetica,sans-Serif" font-size="10.00">{sgns::verification</text>
<text text-anchor="middle" x="304" y="-40" font-family="Helvetica,sans-Serif" font-size="10.00">::finality::FinalityConfig</text>
<text text-anchor="start" x="257" y="-29" font-family="Helvetica,sans-Serif" font-size="10.00">|+ round_number</text>
<text text-anchor="start" x="257" y="-18" font-family="Helvetica,sans-Serif" font-size="10.00">+ duration</text>
<text text-anchor="middle" x="304" y="-7" font-family="Helvetica,sans-Serif" font-size="10.00">|}</text>
</a>
</g>
</g>
<!-- Node2 -->
<g id="node2" class="node">
<title>Node2</title>
<g id="a_node2"><a xlink:title=" ">
<polygon fill="white" stroke="#666666" points="318.5,-173 205.5,-173 205.5,-110 318.5,-110 318.5,-173"/>
<text text-anchor="start" x="213.5" y="-161" font-family="Helvetica,sans-Serif" font-size="10.00">{std::shared_ptr&lt; sgns</text>
<text text-anchor="start" x="213.5" y="-150" font-family="Helvetica,sans-Serif" font-size="10.00">::verification::finality</text>
<text text-anchor="middle" x="262" y="-139" font-family="Helvetica,sans-Serif" font-size="10.00">::VoterSet &gt;</text>
<text text-anchor="start" x="213.5" y="-128" font-family="Helvetica,sans-Serif" font-size="10.00">||+ operator&#45;&gt;()</text>
<text text-anchor="middle" x="262" y="-117" font-family="Helvetica,sans-Serif" font-size="10.00">}</text>
</a>
</g>
</g>
<!-- Node2&#45;&gt;Node1 -->
<g id="edge1" class="edge">
<title>Node2&#45;&gt;Node1</title>
<path fill="none" stroke="#404040" d="M274.04,-109.55C278.17,-98.93 282.86,-86.85 287.3,-75.45"/>
<polygon fill="none" stroke="#404040" points="287.29,-75.48 285.73,-68.44 291.64,-64.29 293.19,-71.33 287.29,-75.48"/>
<text text-anchor="middle" x="302" y="-84" font-family="Helvetica,sans-Serif" font-size="10.00"> +voters</text>
</g>
<!-- Node3 -->
<g id="node3" class="node">
<title>Node3</title>
<g id="a_node3"><a xlink:href="structsgns_1_1verification_1_1finality_1_1_voter_set.html" target="_top" xlink:title=" ">
<polygon fill="white" stroke="#666666" points="308,-415 216,-415 216,-220 308,-220 308,-415"/>
<text text-anchor="start" x="224" y="-403" font-family="Helvetica,sans-Serif" font-size="10.00">{sgns::verification</text>
<text text-anchor="middle" x="262" y="-392" font-family="Helvetica,sans-Serif" font-size="10.00">::finality::VoterSet</text>
<text text-anchor="start" x="224" y="-381" font-family="Helvetica,sans-Serif" font-size="10.00">|&#45; id_</text>
<text text-anchor="start" x="224" y="-370" font-family="Helvetica,sans-Serif" font-size="10.00">&#45; total_weight_</text>
<text text-anchor="start" x="224" y="-359" font-family="Helvetica,sans-Serif" font-size="10.00">|+ VoterSet()</text>
<text text-anchor="start" x="224" y="-348" font-family="Helvetica,sans-Serif" font-size="10.00">+ VoterSet()</text>
<text text-anchor="start" x="224" y="-337" font-family="Helvetica,sans-Serif" font-size="10.00">+ insert()</text>
<text text-anchor="start" x="224" y="-326" font-family="Helvetica,sans-Serif" font-size="10.00">+ voters()</text>
<text text-anchor="start" x="224" y="-315" font-family="Helvetica,sans-Serif" font-size="10.00">+ id()</text>
<text text-anchor="start" x="224" y="-304" font-family="Helvetica,sans-Serif" font-size="10.00">+ voterIndex()</text>
<text text-anchor="start" x="224" y="-293" font-family="Helvetica,sans-Serif" font-size="10.00">+ voterWeight()</text>
<text text-anchor="start" x="224" y="-282" font-family="Helvetica,sans-Serif" font-size="10.00">+ voterWeight()</text>
<text text-anchor="start" x="224" y="-271" font-family="Helvetica,sans-Serif" font-size="10.00">+ size()</text>
<text text-anchor="start" x="224" y="-260" font-family="Helvetica,sans-Serif" font-size="10.00">+ empty()</text>
<text text-anchor="start" x="224" y="-249" font-family="Helvetica,sans-Serif" font-size="10.00">+ totalWeight()</text>
<text text-anchor="start" x="224" y="-238" font-family="Helvetica,sans-Serif" font-size="10.00">+ weightMap()</text>
<text text-anchor="middle" x="262" y="-227" font-family="Helvetica,sans-Serif" font-size="10.00">}</text>
</a>
</g>
</g>
<!-- Node3&#45;&gt;Node2 -->
<g id="edge2" class="edge">
<title>Node3&#45;&gt;Node2</title>
<path fill="none" stroke="#404040" d="M262,-219.58C262,-207.97 262,-196.6 262,-186.3"/>
<polygon fill="none" stroke="#404040" points="262,-186.37 258,-180.37 262,-174.37 266,-180.37 262,-186.37"/>
<text text-anchor="middle" x="272" y="-194" font-family="Helvetica,sans-Serif" font-size="10.00"> +ptr</text>
</g>
<!-- Node4 -->
<g id="node4" class="node">
<title>Node4</title>
<g id="a_node4"><a xlink:title=" ">
<polygon fill="white" stroke="#666666" points="317,-525 219,-525 219,-484 317,-484 317,-525"/>
<text text-anchor="start" x="227" y="-513" font-family="Helvetica,sans-Serif" font-size="10.00">{std::vector&lt; sgns::</text>
<text text-anchor="middle" x="268" y="-502" font-family="Helvetica,sans-Serif" font-size="10.00">base::Blob &gt;</text>
<text text-anchor="middle" x="268" y="-491" font-family="Helvetica,sans-Serif" font-size="10.00">||}</text>
</a>
</g>
</g>
<!-- Node4&#45;&gt;Node3 -->
<g id="edge3" class="edge">
<title>Node4&#45;&gt;Node3</title>
<path fill="none" stroke="#404040" d="M267.36,-483.7C266.9,-469.66 266.25,-449.59 265.56,-428.25"/>
<polygon fill="none" stroke="#404040" points="265.55,-428.1 261.36,-422.24 265.17,-416.11 269.36,-421.98 265.55,-428.1"/>
<text text-anchor="middle" x="285" y="-441.5" font-family="Helvetica,sans-Serif" font-size="10.00"> &#45;voters_</text>
</g>
<!-- Node5 -->
<g id="node5" class="node">
<title>Node5</title>
<g id="a_node5"><a xlink:href="classsgns_1_1base_1_1_blob.html" target="_top" xlink:title=" ">
<polygon fill="white" stroke="#666666" points="408.5,-742 279.5,-742 279.5,-613 408.5,-613 408.5,-742"/>
<text text-anchor="middle" x="344" y="-730" font-family="Helvetica,sans-Serif" font-size="10.00">{sgns::base::Blob&lt; size_ &gt;</text>
<text text-anchor="start" x="287.5" y="-719" font-family="Helvetica,sans-Serif" font-size="10.00">||+ Blob()</text>
<text text-anchor="start" x="287.5" y="-708" font-family="Helvetica,sans-Serif" font-size="10.00">+ Blob()</text>
<text text-anchor="start" x="287.5" y="-697" font-family="Helvetica,sans-Serif" font-size="10.00">+ toString()</text>
<text text-anchor="start" x="287.5" y="-686" font-family="Helvetica,sans-Serif" font-size="10.00">+ toHex()</text>
<text text-anchor="start" x="287.5" y="-675" font-family="Helvetica,sans-Serif" font-size="10.00">+ size()</text>
<text text-anchor="start" x="287.5" y="-664" font-family="Helvetica,sans-Serif" font-size="10.00">+ fromString()</text>
<text text-anchor="start" x="287.5" y="-653" font-family="Helvetica,sans-Serif" font-size="10.00">+ fromHex()</text>
<text text-anchor="start" x="287.5" y="-642" font-family="Helvetica,sans-Serif" font-size="10.00">+ fromHexWithPrefix()</text>
<text text-anchor="start" x="287.5" y="-631" font-family="Helvetica,sans-Serif" font-size="10.00">+ fromSpan()</text>
<text text-anchor="middle" x="344" y="-620" font-family="Helvetica,sans-Serif" font-size="10.00">}</text>
</a>
</g>
</g>
<!-- Node5&#45;&gt;Node1 -->
<g id="edge16" class="edge">
<title>Node5&#45;&gt;Node1</title>
<path fill="none" stroke="#404040" d="M345.65,-612.76C346.35,-580.6 347,-540.98 347,-505.5 347,-505.5 347,-505.5 347,-140.5 347,-117.77 338.68,-94.14 329.36,-74.79"/>
<polygon fill="none" stroke="#404040" points="329.37,-74.83 323.08,-71.32 323.9,-64.15 330.2,-67.67 329.37,-74.83"/>
<text text-anchor="middle" x="367" y="-315" font-family="Helvetica,sans-Serif" font-size="10.00"> +peer_id</text>
</g>
<!-- Node5&#45;&gt;Node4 -->
<g id="edge4" class="edge">
<title>Node5&#45;&gt;Node4</title>
<path fill="none" stroke="#404040" d="M293.03,-612.73C289.64,-606.92 286.57,-600.97 284,-595 276.33,-577.15 272.34,-555.77 270.26,-538.39"/>
<polygon fill="none" stroke="#404040" points="270.25,-538.28 265.67,-532.71 269.06,-526.34 273.63,-531.91 270.25,-538.28"/>
<text text-anchor="middle" x="308.5" y="-572" font-family="Helvetica,sans-Serif" font-size="10.00"> +elements</text>
</g>
<!-- Node9 -->
<g id="node9" class="node">
<title>Node9</title>
<g id="a_node9"><a xlink:title=" ">
<polygon fill="white" stroke="#666666" points="201,-536 97,-536 97,-473 201,-473 201,-536"/>
<text text-anchor="start" x="105" y="-524" font-family="Helvetica,sans-Serif" font-size="10.00">{std::unordered_map</text>
<text text-anchor="start" x="105" y="-513" font-family="Helvetica,sans-Serif" font-size="10.00">&lt; sgns::base::Blob,</text>
<text text-anchor="middle" x="149" y="-502" font-family="Helvetica,sans-Serif" font-size="10.00"> size_t &gt;</text>
<text text-anchor="start" x="105" y="-491" font-family="Helvetica,sans-Serif" font-size="10.00">|+ elements</text>
<text text-anchor="middle" x="149" y="-480" font-family="Helvetica,sans-Serif" font-size="10.00">|}</text>
</a>
</g>
</g>
<!-- Node5&#45;&gt;Node9 -->
<g id="edge10" class="edge">
<title>Node5&#45;&gt;Node9</title>
<path fill="none" stroke="#404040" d="M279.19,-623.8C274.42,-620.11 269.65,-616.47 265,-613 253.74,-604.59 249.8,-603.99 239,-595 220.74,-579.8 201.89,-561.52 186.19,-545.46"/>
<polygon fill="none" stroke="#404040" points="186.3,-545.58 179.26,-544.04 177.97,-536.95 185.01,-538.48 186.3,-545.58"/>
<text text-anchor="middle" x="253.5" y="-572" font-family="Helvetica,sans-Serif" font-size="10.00"> +keys</text>
</g>
<!-- Node6 -->
<g id="node6" class="node">
<title>Node6</title>
<g id="a_node6"><a xlink:title=" ">
<polygon fill="white" stroke="#666666" points="333.5,-843.5 252.5,-843.5 252.5,-813.5 333.5,-813.5 333.5,-843.5"/>
<text text-anchor="middle" x="293" y="-831.5" font-family="Helvetica,sans-Serif" font-size="10.00">{std::array&lt; T &gt;</text>
<text text-anchor="middle" x="293" y="-820.5" font-family="Helvetica,sans-Serif" font-size="10.00">||}</text>
</a>
</g>
</g>
<!-- Node6&#45;&gt;Node5 -->
<g id="edge5" class="edge">
<title>Node6&#45;&gt;Node5</title>
<path fill="none" stroke="#63b8ff" d="M301.62,-802.33C307.27,-785.82 314.93,-763.43 322.19,-742.23"/>
<polygon fill="none" stroke="#63b8ff" points="298.31,-801.19 298.38,-811.78 304.93,-803.45 298.31,-801.19"/>
</g>
<!-- Node7 -->
<g id="node7" class="node">
<title>Node7</title>
<g id="a_node7"><a xlink:title=" ">
<polygon fill="white" stroke="#666666" points="265.5,-926 236.5,-926 236.5,-896 265.5,-896 265.5,-926"/>
<text text-anchor="middle" x="251" y="-914" font-family="Helvetica,sans-Serif" font-size="10.00">{T</text>
<text text-anchor="middle" x="251" y="-903" font-family="Helvetica,sans-Serif" font-size="10.00">||}</text>
</a>
</g>
</g>
<!-- Node7&#45;&gt;Node6 -->
<g id="edge6" class="edge">
<title>Node7&#45;&gt;Node6</title>
<path fill="none" stroke="#404040" d="M258.51,-895.61C264.36,-884.39 272.64,-868.52 279.62,-855.15"/>
<polygon fill="none" stroke="#404040" points="279.59,-855.21 278.82,-848.04 285.14,-844.57 285.91,-851.74 279.59,-855.21"/>
<text text-anchor="middle" x="297.5" y="-870" font-family="Helvetica,sans-Serif" font-size="10.00"> +elements</text>
</g>
<!-- Node8 -->
<g id="node8" class="node">
<title>Node8</title>
<g id="a_node8"><a xlink:title=" ">
<polygon fill="white" stroke="#666666" points="234.5,-790 147.5,-790 147.5,-760 234.5,-760 234.5,-790"/>
<text text-anchor="middle" x="191" y="-778" font-family="Helvetica,sans-Serif" font-size="10.00">{std::vector&lt; T &gt;</text>
<text text-anchor="middle" x="191" y="-767" font-family="Helvetica,sans-Serif" font-size="10.00">||}</text>
</a>
</g>
</g>
<!-- Node7&#45;&gt;Node8 -->
<g id="edge8" class="edge">
<title>Node7&#45;&gt;Node8</title>
<path fill="none" stroke="#404040" d="M236.03,-900.08C228.65,-894.44 220.22,-886.76 215,-878 201.24,-854.93 195.37,-824.54 192.87,-802.95"/>
<polygon fill="none" stroke="#404040" points="192.87,-803.04 188.33,-797.44 191.74,-791.09 196.29,-796.69 192.87,-803.04"/>
<text text-anchor="middle" x="239.5" y="-870" font-family="Helvetica,sans-Serif" font-size="10.00"> +elements</text>
</g>
<!-- Node10 -->
<g id="node10" class="node">
<title>Node10</title>
<g id="a_node10"><a xlink:title=" ">
<polygon fill="white" stroke="#666666" points="104,-849 0,-849 0,-808 104,-808 104,-849"/>
<text text-anchor="start" x="8" y="-837" font-family="Helvetica,sans-Serif" font-size="10.00">{std::unordered_map</text>
<text text-anchor="middle" x="52" y="-826" font-family="Helvetica,sans-Serif" font-size="10.00">&lt; K, T &gt;</text>
<text text-anchor="middle" x="52" y="-815" font-family="Helvetica,sans-Serif" font-size="10.00">||}</text>
</a>
</g>
</g>
<!-- Node7&#45;&gt;Node10 -->
<g id="edge13" class="edge">
<title>Node7&#45;&gt;Node10</title>
<path fill="none" stroke="#404040" d="M236.06,-906.74C214.58,-901.81 173.91,-891.57 141,-878 125.88,-871.76 110,-863.66 95.91,-855.87"/>
<polygon fill="none" stroke="#404040" points="95.78,-855.8 88.59,-856.33 85.34,-849.89 92.53,-849.36 95.78,-855.8"/>
<text text-anchor="middle" x="165.5" y="-870" font-family="Helvetica,sans-Serif" font-size="10.00"> +elements</text>
</g>
<!-- Node12 -->
<g id="node12" class="node">
<title>Node12</title>
<g id="a_node12"><a xlink:title=" ">
<polygon fill="white" stroke="#666666" points="486,-595 380,-595 380,-554 486,-554 486,-595"/>
<text text-anchor="middle" x="433" y="-583" font-family="Helvetica,sans-Serif" font-size="10.00">{std::shared_ptr&lt; T &gt;</text>
<text text-anchor="start" x="388" y="-572" font-family="Helvetica,sans-Serif" font-size="10.00">||+ operator&#45;&gt;()</text>
<text text-anchor="middle" x="433" y="-561" font-family="Helvetica,sans-Serif" font-size="10.00">}</text>
</a>
</g>
</g>
<!-- Node7&#45;&gt;Node12 -->
<g id="edge15" class="edge">
<title>Node7&#45;&gt;Node12</title>
<path fill="none" stroke="#404040" d="M265.86,-906.38C282.03,-901.86 307.98,-892.86 326,-878 382.3,-831.57 393.51,-810.74 418,-742 433.8,-697.67 435.6,-642.69 434.8,-608.35"/>
<polygon fill="none" stroke="#404040" points="434.8,-608.3 430.59,-602.44 434.38,-596.31 438.59,-602.16 434.8,-608.3"/>
<text text-anchor="middle" x="399" y="-826" font-family="Helvetica,sans-Serif" font-size="10.00"> +ptr</text>
</g>
<!-- Node8&#45;&gt;Node4 -->
<g id="edge7" class="edge">
<title>Node8&#45;&gt;Node4</title>
<path fill="none" stroke="orange" d="M182.71,-748.81C169.97,-705.06 151,-613.96 191,-554 196.26,-546.11 213.51,-534.96 230.35,-525.34"/>
<polygon fill="orange" stroke="orange" points="179.29,-749.6 185.56,-758.14 185.98,-747.56 179.29,-749.6"/>
<text text-anchor="middle" x="225" y="-675" font-family="Helvetica,sans-Serif" font-size="10.00"> &lt; sgns::base::Blob &gt;</text>
</g>
<!-- Node9&#45;&gt;Node3 -->
<g id="edge9" class="edge">
<title>Node9&#45;&gt;Node3</title>
<path fill="none" stroke="#404040" d="M167.91,-472.54C179.25,-453.98 194.27,-429.38 208.98,-405.3"/>
<polygon fill="none" stroke="#404040" points="208.98,-405.31 208.69,-398.1 215.23,-395.07 215.52,-402.27 208.98,-405.31"/>
<text text-anchor="middle" x="224" y="-441.5" font-family="Helvetica,sans-Serif" font-size="10.00"> &#45;weight_map_</text>
</g>
<!-- Node10&#45;&gt;Node9 -->
<g id="edge11" class="edge">
<title>Node10&#45;&gt;Node9</title>
<path fill="none" stroke="orange" d="M51.12,-796.25C50.9,-753.52 54.12,-675.09 77,-613 87.41,-584.76 106.65,-556.63 122.62,-536.23"/>
<polygon fill="orange" stroke="orange" points="47.61,-796.09 51.24,-806.05 54.61,-796 47.61,-796.09"/>
<text text-anchor="start" x="77" y="-680.5" font-family="Helvetica,sans-Serif" font-size="10.00"> &lt; sgns::base::Blob,</text>
<text text-anchor="middle" x="119.5" y="-669.5" font-family="Helvetica,sans-Serif" font-size="10.00"> size_t &gt;</text>
</g>
<!-- Node11 -->
<g id="node11" class="node">
<title>Node11</title>
<g id="a_node11"><a xlink:title=" ">
<polygon fill="white" stroke="#666666" points="66.5,-926 37.5,-926 37.5,-896 66.5,-896 66.5,-926"/>
<text text-anchor="middle" x="52" y="-914" font-family="Helvetica,sans-Serif" font-size="10.00">{K</text>
<text text-anchor="middle" x="52" y="-903" font-family="Helvetica,sans-Serif" font-size="10.00">||}</text>
</a>
</g>
</g>
<!-- Node11&#45;&gt;Node10 -->
<g id="edge12" class="edge">
<title>Node11&#45;&gt;Node10</title>
<path fill="none" stroke="#404040" d="M52,-895.61C52,-886.31 52,-873.82 52,-862.21"/>
<polygon fill="none" stroke="#404040" points="52,-862.11 48,-856.11 52,-850.11 56,-856.11 52,-862.11"/>
<text text-anchor="middle" x="66.5" y="-870" font-family="Helvetica,sans-Serif" font-size="10.00"> +keys</text>
</g>
<!-- Node12&#45;&gt;Node2 -->
<g id="edge14" class="edge">
<title>Node12&#45;&gt;Node2</title>
<path fill="none" stroke="orange" d="M437.84,-542.34C446.32,-476.81 457.19,-322.35 391,-220 374.12,-193.89 345.06,-175.31 318.79,-162.9"/>
<polygon fill="orange" stroke="orange" points="434.41,-541.63 436.51,-552.01 441.34,-542.58 434.41,-541.63"/>
<text text-anchor="start" x="444" y="-447" font-family="Helvetica,sans-Serif" font-size="10.00"> &lt; sgns::verification</text>
<text text-anchor="middle" x="485.5" y="-436" font-family="Helvetica,sans-Serif" font-size="10.00">::finality::VoterSet &gt;</text>
</g>
</g>
</svg>
        <g id="navigator" transform="translate(0 0)" fill="#404254">
                <rect fill="#f2f5e9" fill-opacity="0.5" stroke="#606060" stroke-width=".5" x="0" y="0" width="60" height="60"/>
                <use id="zoomplus" xlink:href="#zoomPlus" x="17" y="9" onmousedown="handleZoom(evt,'in')"/>
                <use id="zoomminus" xlink:href="#zoomMin" x="42" y="9" onmousedown="handleZoom(evt,'out')"/>
                <use id="reset" xlink:href="#resetDef" x="30" y="36" onmousedown="handleReset()"/>
                <g id="arrowUp" xlink:href="#dirArrow" transform="translate(30 24)" onmousedown="handlePan(0,-1)">
                  <use xlink:href="#rim" fill="#404040">
                        <set attributeName="fill" to="#808080" begin="arrowUp.mouseover" end="arrowUp.mouseout"/>
                  </use>
                  <path fill="none" stroke="white" stroke-width="1.5" d="M0,-3.0v7 M-2.5,-0.5L0,-3.0L2.5,-0.5"/>
                </g>
                <g id="arrowRight" xlink:href="#dirArrow" transform="rotate(90) translate(36 -43)" onmousedown="handlePan(1,0)">
                  <use xlink:href="#rim" fill="#404040">
                        <set attributeName="fill" to="#808080" begin="arrowRight.mouseover" end="arrowRight.mouseout"/>
                  </use>
                  <path fill="none" stroke="white" stroke-width="1.5" d="M0,-3.0v7 M-2.5,-0.5L0,-3.0L2.5,-0.5"/>
                </g>
                <g id="arrowDown" xlink:href="#dirArrow" transform="rotate(180) translate(-30 -48)" onmousedown="handlePan(0,1)">
                  <use xlink:href="#rim" fill="#404040">
                        <set attributeName="fill" to="#808080" begin="arrowDown.mouseover" end="arrowDown.mouseout"/>
                  </use>
                  <path fill="none" stroke="white" stroke-width="1.5" d="M0,-3.0v7 M-2.5,-0.5L0,-3.0L2.5,-0.5"/>
                </g>
                <g id="arrowLeft" xlink:href="#dirArrow" transform="rotate(270) translate(-36 17)" onmousedown="handlePan(-1,0)">
                  <use xlink:href="#rim" fill="#404040">
                        <set attributeName="fill" to="#808080" begin="arrowLeft.mouseover" end="arrowLeft.mouseout"/>
                  </use>
                  <path fill="none" stroke="white" stroke-width="1.5" d="M0,-3.0v7 M-2.5,-0.5L0,-3.0L2.5,-0.5"/>
                </g>
        </g>
        <svg viewBox="0 0 15 15" width="100%" height="30px" preserveAspectRatio="xMaxYMin meet">
         <g id="arrow_out" transform="scale(0.3 0.3)">
          <a xlink:href="structsgns_1_1verification_1_1finality_1_1_finality_config__coll__graph_org.svg" target="_base">
           <rect id="button" ry="5" rx="5" y="6" x="6" height="38" width="38"
                fill="#f2f5e9" fill-opacity="0.5" stroke="#606060" stroke-width="1.0"/>
           <path id="arrow"
             d="M 11.500037,31.436501 C 11.940474,20.09759 22.043105,11.32322 32.158766,21.979434 L 37.068811,17.246167 C 37.068811,17.246167 37.088388,32 37.088388,32 L 22.160133,31.978069 C 22.160133,31.978069 26.997745,27.140456 26.997745,27.140456 C 18.528582,18.264221 13.291696,25.230495 11.500037,31.436501 z"
             style="fill:#404040;"/>
          </a>
         </g>
        </svg>
</svg>
