<?xml version="1.0" encoding="UTF-8" standalone="no"?>
<!DOCTYPE svg PUBLIC "-//W3C//DTD SVG 1.1//EN"
 "http://www.w3.org/Graphics/SVG/1.1/DTD/svg11.dtd">
<!-- Generated by graphviz version 7.0.5 (20221223.1930)
 -->
<!-- Title: sgns::verification::finality::RoundState Pages: 1 -->
<!--zoomable 666 -->
<svg id="main" version="1.1" xmlns="http://www.w3.org/2000/svg" xmlns:xlink="http://www.w3.org/1999/xlink" xml:space="preserve" onload="init(evt)">
<style type="text/css"><![CDATA[
.edge:hover path { stroke: red; }
.edge:hover polygon { stroke: red; fill: red; }
]]></style>
<script type="text/javascript"><![CDATA[
var edges = document.getElementsByTagName('g');
if (edges && edges.length) {
  for (var i=0;i<edges.length;i++) {
    if (edges[i].id.substr(0,4)=='edge') {
      edges[i].setAttribute('class','edge');
    }
  }
}
]]></script>
        <defs>
                <circle id="rim" cx="0" cy="0" r="7"/>
                <circle id="rim2" cx="0" cy="0" r="3.5"/>
                <g id="zoomPlus">
                        <use xlink:href="#rim" fill="#404040">
                                <set attributeName="fill" to="#808080" begin="zoomplus.mouseover" end="zoomplus.mouseout"/>
                        </use>
                        <path d="M-4,0h8M0,-4v8" fill="none" stroke="white" stroke-width="1.5" pointer-events="none"/>
                </g>
                <g id="zoomMin">
                        <use xlink:href="#rim" fill="#404040">
                                <set attributeName="fill" to="#808080" begin="zoomminus.mouseover" end="zoomminus.mouseout"/>
                        </use>
                        <path d="M-4,0h8" fill="none" stroke="white" stroke-width="1.5" pointer-events="none"/>
                </g>
                <g id="dirArrow">
                        <path fill="none" stroke="white" stroke-width="1.5" d="M0,-3.0v7 M-2.5,-0.5L0,-3.0L2.5,-0.5"/>
                </g>
               <g id="resetDef">
                       <use xlink:href="#rim2" fill="#404040">
                               <set attributeName="fill" to="#808080" begin="reset.mouseover" end="reset.mouseout"/>
                       </use>
               </g>
        </defs>

<script type="text/javascript">
var viewWidth = 404;
var viewHeight = 666;
var sectionId = 'dynsection-0';
</script>
<script xlink:href="svgpan.js"/>
<svg id="graph" class="graph">
<g id="viewport">
<title>sgns::verification::finality::RoundState</title>
<!-- Node1 -->
<g id="node1" class="node">
<title>Node1</title>
<g id="a_node1"><a xlink:title="Stores the current state of the round.">
<polygon fill="#999999" stroke="#666666" points="120.5,-74 16.5,-74 16.5,0 120.5,0 120.5,-74"/>
<text text-anchor="start" x="24.5" y="-62" font-family="Helvetica,sans-Serif" font-size="10.00">{sgns::verification</text>
<text text-anchor="middle" x="68.5" y="-51" font-family="Helvetica,sans-Serif" font-size="10.00">::finality::RoundState</text>
<text text-anchor="start" x="24.5" y="-40" font-family="Helvetica,sans-Serif" font-size="10.00">|+ finalized</text>
<text text-anchor="start" x="24.5" y="-29" font-family="Helvetica,sans-Serif" font-size="10.00">|+ operator==()</text>
<text text-anchor="start" x="24.5" y="-18" font-family="Helvetica,sans-Serif" font-size="10.00">+ operator!=()</text>
<text text-anchor="middle" x="68.5" y="-7" font-family="Helvetica,sans-Serif" font-size="10.00">}</text>
</a>
</g>
</g>
<!-- Node2 -->
<g id="node2" class="node">
<title>Node2</title>
<g id="a_node2"><a xlink:href="structsgns_1_1primitives_1_1detail_1_1_block_info_t.html" target="_top" xlink:title=" ">
<polygon fill="white" stroke="#666666" points="126,-338 11,-338 11,-253 126,-253 126,-338"/>
<text text-anchor="start" x="19" y="-326" font-family="Helvetica,sans-Serif" font-size="10.00">{sgns::primitives::detail</text>
<text text-anchor="middle" x="68.5" y="-315" font-family="Helvetica,sans-Serif" font-size="10.00">::BlockInfoT&lt; Tag &gt;</text>
<text text-anchor="start" x="19" y="-304" font-family="Helvetica,sans-Serif" font-size="10.00">|+ block_number</text>
<text text-anchor="start" x="19" y="-293" font-family="Helvetica,sans-Serif" font-size="10.00">|+ BlockInfoT()</text>
<text text-anchor="start" x="19" y="-282" font-family="Helvetica,sans-Serif" font-size="10.00">+ BlockInfoT()</text>
<text text-anchor="start" x="19" y="-271" font-family="Helvetica,sans-Serif" font-size="10.00">+ operator==()</text>
<text text-anchor="middle" x="68.5" y="-260" font-family="Helvetica,sans-Serif" font-size="10.00">}</text>
</a>
</g>
</g>
<!-- Node2&#45;&gt;Node1 -->
<g id="edge1" class="edge">
<title>Node2&#45;&gt;Node1</title>
<path fill="none" stroke="#404040" d="M64.51,-252.67C63.29,-237.94 62.1,-221.25 61.5,-206 60.01,-168.25 59.91,-158.74 61.5,-121 61.96,-109.99 62.77,-98.19 63.68,-87.03"/>
<polygon fill="none" stroke="#404040" points="63.66,-87.17 60.19,-80.85 64.69,-75.22 68.16,-81.54 63.66,-87.17"/>
<text text-anchor="middle" x="110" y="-166.5" font-family="Helvetica,sans-Serif" font-size="10.00"> +best_final_candidate</text>
<text text-anchor="middle" x="110" y="-155.5" font-family="Helvetica,sans-Serif" font-size="10.00">+last_finalized_block</text>
</g>
<!-- Node7 -->
<g id="node7" class="node">
<title>Node7</title>
<g id="a_node7"><a xlink:href="structsgns_1_1primitives_1_1detail_1_1_block_info_t.html" target="_top" xlink:title=" ">
<polygon fill="white" stroke="#666666" points="329.5,-206 167.5,-206 167.5,-121 329.5,-121 329.5,-206"/>
<text text-anchor="start" x="175.5" y="-194" font-family="Helvetica,sans-Serif" font-size="10.00">{sgns::primitives::detail</text>
<text text-anchor="middle" x="248.5" y="-183" font-family="Helvetica,sans-Serif" font-size="10.00">::BlockInfoT&lt; struct PrevoteTag &gt;</text>
<text text-anchor="start" x="175.5" y="-172" font-family="Helvetica,sans-Serif" font-size="10.00">|+ block_number</text>
<text text-anchor="start" x="175.5" y="-161" font-family="Helvetica,sans-Serif" font-size="10.00">|+ BlockInfoT()</text>
<text text-anchor="start" x="175.5" y="-150" font-family="Helvetica,sans-Serif" font-size="10.00">+ BlockInfoT()</text>
<text text-anchor="start" x="175.5" y="-139" font-family="Helvetica,sans-Serif" font-size="10.00">+ operator==()</text>
<text text-anchor="middle" x="248.5" y="-128" font-family="Helvetica,sans-Serif" font-size="10.00">}</text>
</a>
</g>
</g>
<!-- Node2&#45;&gt;Node7 -->
<g id="edge9" class="edge">
<title>Node2&#45;&gt;Node7</title>
<path fill="none" stroke="orange" d="M114.11,-244.79C121.91,-237.42 130.18,-230.22 138.5,-224 147.45,-217.3 157.26,-210.89 167.2,-204.92"/>
<polygon fill="orange" stroke="orange" points="111.67,-242.27 106.95,-251.75 116.55,-247.29 111.67,-242.27"/>
<text text-anchor="middle" x="187" y="-227" font-family="Helvetica,sans-Serif" font-size="10.00"> &lt; struct PrevoteTag &gt;</text>
</g>
<!-- Node3 -->
<g id="node3" class="node">
<title>Node3</title>
<g id="a_node3"><a xlink:title=" ">
<polygon fill="white" stroke="#666666" points="137,-470 0,-470 0,-429 137,-429 137,-470"/>
<text text-anchor="start" x="8" y="-458" font-family="Helvetica,sans-Serif" font-size="10.00">{boost::equality_comparable</text>
<text text-anchor="middle" x="68.5" y="-447" font-family="Helvetica,sans-Serif" font-size="10.00">&lt; BlockInfoT&lt; Tag &gt; &gt;</text>
<text text-anchor="middle" x="68.5" y="-436" font-family="Helvetica,sans-Serif" font-size="10.00">||}</text>
</a>
</g>
</g>
<!-- Node3&#45;&gt;Node2 -->
<g id="edge2" class="edge">
<title>Node3&#45;&gt;Node2</title>
<path fill="none" stroke="#63b8ff" d="M68.5,-417.25C68.5,-394.49 68.5,-363.41 68.5,-338.48"/>
<polygon fill="none" stroke="#63b8ff" points="65,-417.12 68.5,-427.12 72,-417.12 65,-417.12"/>
</g>
<!-- Node4 -->
<g id="node4" class="node">
<title>Node4</title>
<g id="a_node4"><a xlink:href="classsgns_1_1base_1_1_blob.html" target="_top" xlink:title=" ">
<polygon fill="white" stroke="#666666" points="353,-514 224,-514 224,-385 353,-385 353,-514"/>
<text text-anchor="middle" x="288.5" y="-502" font-family="Helvetica,sans-Serif" font-size="10.00">{sgns::base::Blob&lt; size_ &gt;</text>
<text text-anchor="start" x="232" y="-491" font-family="Helvetica,sans-Serif" font-size="10.00">||+ Blob()</text>
<text text-anchor="start" x="232" y="-480" font-family="Helvetica,sans-Serif" font-size="10.00">+ Blob()</text>
<text text-anchor="start" x="232" y="-469" font-family="Helvetica,sans-Serif" font-size="10.00">+ toString()</text>
<text text-anchor="start" x="232" y="-458" font-family="Helvetica,sans-Serif" font-size="10.00">+ toHex()</text>
<text text-anchor="start" x="232" y="-447" font-family="Helvetica,sans-Serif" font-size="10.00">+ size()</text>
<text text-anchor="start" x="232" y="-436" font-family="Helvetica,sans-Serif" font-size="10.00">+ fromString()</text>
<text text-anchor="start" x="232" y="-425" font-family="Helvetica,sans-Serif" font-size="10.00">+ fromHex()</text>
<text text-anchor="start" x="232" y="-414" font-family="Helvetica,sans-Serif" font-size="10.00">+ fromHexWithPrefix()</text>
<text text-anchor="start" x="232" y="-403" font-family="Helvetica,sans-Serif" font-size="10.00">+ fromSpan()</text>
<text text-anchor="middle" x="288.5" y="-392" font-family="Helvetica,sans-Serif" font-size="10.00">}</text>
</a>
</g>
</g>
<!-- Node4&#45;&gt;Node2 -->
<g id="edge3" class="edge">
<title>Node4&#45;&gt;Node2</title>
<path fill="none" stroke="#404040" d="M223.68,-403.72C196.37,-384.85 164.56,-362.87 136.88,-343.75"/>
<polygon fill="none" stroke="#404040" points="137.11,-343.9 129.9,-343.78 127.23,-337.08 134.44,-337.2 137.11,-343.9"/>
<text text-anchor="middle" x="194.5" y="-359" font-family="Helvetica,sans-Serif" font-size="10.00"> +block_hash</text>
</g>
<!-- Node4&#45;&gt;Node7 -->
<g id="edge8" class="edge">
<title>Node4&#45;&gt;Node7</title>
<path fill="none" stroke="#404040" d="M319.88,-384.92C334.75,-345.93 346.02,-295.51 329.5,-253 324.31,-239.64 316.05,-227.06 306.75,-215.81"/>
<polygon fill="none" stroke="#404040" points="306.89,-215.97 299.92,-214.11 298.96,-206.97 305.93,-208.83 306.89,-215.97"/>
<text text-anchor="middle" x="366.5" y="-293" font-family="Helvetica,sans-Serif" font-size="10.00"> +block_hash</text>
</g>
<!-- Node5 -->
<g id="node5" class="node">
<title>Node5</title>
<g id="a_node5"><a xlink:title=" ">
<polygon fill="white" stroke="#666666" points="329,-581 248,-581 248,-551 329,-551 329,-581"/>
<text text-anchor="middle" x="288.5" y="-569" font-family="Helvetica,sans-Serif" font-size="10.00">{std::array&lt; T &gt;</text>
<text text-anchor="middle" x="288.5" y="-558" font-family="Helvetica,sans-Serif" font-size="10.00">||}</text>
</a>
</g>
</g>
<!-- Node5&#45;&gt;Node4 -->
<g id="edge4" class="edge">
<title>Node5&#45;&gt;Node4</title>
<path fill="none" stroke="#63b8ff" d="M288.5,-539.68C288.5,-532.06 288.5,-523.33 288.5,-514.37"/>
<polygon fill="none" stroke="#63b8ff" points="285,-539.45 288.5,-549.45 292,-539.45 285,-539.45"/>
</g>
<!-- Node6 -->
<g id="node6" class="node">
<title>Node6</title>
<g id="a_node6"><a xlink:title=" ">
<polygon fill="white" stroke="#666666" points="303,-658 274,-658 274,-628 303,-628 303,-658"/>
<text text-anchor="middle" x="288.5" y="-646" font-family="Helvetica,sans-Serif" font-size="10.00">{T</text>
<text text-anchor="middle" x="288.5" y="-635" font-family="Helvetica,sans-Serif" font-size="10.00">||}</text>
</a>
</g>
</g>
<!-- Node6&#45;&gt;Node5 -->
<g id="edge5" class="edge">
<title>Node6&#45;&gt;Node5</title>
<path fill="none" stroke="#404040" d="M288.5,-627.54C288.5,-618.1 288.5,-605.47 288.5,-594.2"/>
<polygon fill="none" stroke="#404040" points="288.5,-594.32 284.5,-588.32 288.5,-582.32 292.5,-588.32 288.5,-594.32"/>
<text text-anchor="middle" x="313" y="-602" font-family="Helvetica,sans-Serif" font-size="10.00"> +elements</text>
</g>
<!-- Node7&#45;&gt;Node1 -->
<g id="edge6" class="edge">
<title>Node7&#45;&gt;Node1</title>
<path fill="none" stroke="#404040" d="M187.81,-120.52C169.64,-107.95 149.68,-94.15 131.37,-81.48"/>
<polygon fill="none" stroke="#404040" points="131.41,-81.52 124.2,-81.39 121.54,-74.69 128.75,-74.81 131.41,-81.52"/>
<text text-anchor="middle" x="214.5" y="-95" font-family="Helvetica,sans-Serif" font-size="10.00"> +best_prevote_candidate</text>
</g>
<!-- Node8 -->
<g id="node8" class="node">
<title>Node8</title>
<g id="a_node8"><a xlink:title=" ">
<polygon fill="white" stroke="#666666" points="320.5,-316 144.5,-316 144.5,-275 320.5,-275 320.5,-316"/>
<text text-anchor="start" x="152.5" y="-304" font-family="Helvetica,sans-Serif" font-size="10.00">{boost::equality_comparable</text>
<text text-anchor="middle" x="232.5" y="-293" font-family="Helvetica,sans-Serif" font-size="10.00">&lt; BlockInfoT&lt; struct PrevoteTag &#160;&gt; &gt;</text>
<text text-anchor="middle" x="232.5" y="-282" font-family="Helvetica,sans-Serif" font-size="10.00">||}</text>
</a>
</g>
</g>
<!-- Node8&#45;&gt;Node7 -->
<g id="edge7" class="edge">
<title>Node8&#45;&gt;Node7</title>
<path fill="none" stroke="#63b8ff" d="M236.29,-263.68C238.41,-246.52 241.06,-224.92 243.36,-206.26"/>
<polygon fill="none" stroke="#63b8ff" points="232.86,-262.9 235.11,-273.25 239.81,-263.76 232.86,-262.9"/>
</g>
</g>
</svg>
        <g id="navigator" transform="translate(0 0)" fill="#404254">
                <rect fill="#f2f5e9" fill-opacity="0.5" stroke="#606060" stroke-width=".5" x="0" y="0" width="60" height="60"/>
                <use id="zoomplus" xlink:href="#zoomPlus" x="17" y="9" onmousedown="handleZoom(evt,'in')"/>
                <use id="zoomminus" xlink:href="#zoomMin" x="42" y="9" onmousedown="handleZoom(evt,'out')"/>
                <use id="reset" xlink:href="#resetDef" x="30" y="36" onmousedown="handleReset()"/>
                <g id="arrowUp" xlink:href="#dirArrow" transform="translate(30 24)" onmousedown="handlePan(0,-1)">
                  <use xlink:href="#rim" fill="#404040">
                        <set attributeName="fill" to="#808080" begin="arrowUp.mouseover" end="arrowUp.mouseout"/>
                  </use>
                  <path fill="none" stroke="white" stroke-width="1.5" d="M0,-3.0v7 M-2.5,-0.5L0,-3.0L2.5,-0.5"/>
                </g>
                <g id="arrowRight" xlink:href="#dirArrow" transform="rotate(90) translate(36 -43)" onmousedown="handlePan(1,0)">
                  <use xlink:href="#rim" fill="#404040">
                        <set attributeName="fill" to="#808080" begin="arrowRight.mouseover" end="arrowRight.mouseout"/>
                  </use>
                  <path fill="none" stroke="white" stroke-width="1.5" d="M0,-3.0v7 M-2.5,-0.5L0,-3.0L2.5,-0.5"/>
                </g>
                <g id="arrowDown" xlink:href="#dirArrow" transform="rotate(180) translate(-30 -48)" onmousedown="handlePan(0,1)">
                  <use xlink:href="#rim" fill="#404040">
                        <set attributeName="fill" to="#808080" begin="arrowDown.mouseover" end="arrowDown.mouseout"/>
                  </use>
                  <path fill="none" stroke="white" stroke-width="1.5" d="M0,-3.0v7 M-2.5,-0.5L0,-3.0L2.5,-0.5"/>
                </g>
                <g id="arrowLeft" xlink:href="#dirArrow" transform="rotate(270) translate(-36 17)" onmousedown="handlePan(-1,0)">
                  <use xlink:href="#rim" fill="#404040">
                        <set attributeName="fill" to="#808080" begin="arrowLeft.mouseover" end="arrowLeft.mouseout"/>
                  </use>
                  <path fill="none" stroke="white" stroke-width="1.5" d="M0,-3.0v7 M-2.5,-0.5L0,-3.0L2.5,-0.5"/>
                </g>
        </g>
        <svg viewBox="0 0 15 15" width="100%" height="30px" preserveAspectRatio="xMaxYMin meet">
         <g id="arrow_out" transform="scale(0.3 0.3)">
          <a xlink:href="structsgns_1_1verification_1_1finality_1_1_round_state__coll__graph_org.svg" target="_base">
           <rect id="button" ry="5" rx="5" y="6" x="6" height="38" width="38"
                fill="#f2f5e9" fill-opacity="0.5" stroke="#606060" stroke-width="1.0"/>
           <path id="arrow"
             d="M 11.500037,31.436501 C 11.940474,20.09759 22.043105,11.32322 32.158766,21.979434 L 37.068811,17.246167 C 37.068811,17.246167 37.088388,32 37.088388,32 L 22.160133,31.978069 C 22.160133,31.978069 26.997745,27.140456 26.997745,27.140456 C 18.528582,18.264221 13.291696,25.230495 11.500037,31.436501 z"
             style="fill:#404040;"/>
          </a>
         </g>
        </svg>
</svg>
