<?xml version="1.0" encoding="UTF-8" standalone="no"?>
<!DOCTYPE svg PUBLIC "-//W3C//DTD SVG 1.1//EN"
 "http://www.w3.org/Graphics/SVG/1.1/DTD/svg11.dtd">
<!-- Generated by graphviz version 7.0.5 (20221223.1930)
 -->
<!-- Title: sgns::network::SyncClientsSet Pages: 1 -->
<svg width="405pt" height="442pt"
 viewBox="0.00 0.00 405.00 442.00" xmlns="http://www.w3.org/2000/svg" xmlns:xlink="http://www.w3.org/1999/xlink">
<g id="graph0" class="graph" transform="scale(1 1) rotate(0) translate(4 438)">
<title>sgns::network::SyncClientsSet</title>
<!-- Node1 -->
<g id="node1" class="node">
<title>Node1</title>
<g id="a_node1"><a xlink:title=" ">
<polygon fill="#999999" stroke="#666666" points="263.5,-30 112.5,-30 112.5,0 263.5,0 263.5,-30"/>
<text text-anchor="middle" x="188" y="-18" font-family="Helvetica,sans-Serif" font-size="10.00">{sgns::network::SyncClientsSet</text>
<text text-anchor="middle" x="188" y="-7" font-family="Helvetica,sans-Serif" font-size="10.00">||}</text>
</a>
</g>
</g>
<!-- Node2 -->
<g id="node2" class="node">
<title>Node2</title>
<g id="a_node2"><a xlink:title=" ">
<polygon fill="white" stroke="#666666" points="270,-129 106,-129 106,-77 270,-77 270,-129"/>
<text text-anchor="start" x="114" y="-117" font-family="Helvetica,sans-Serif" font-size="10.00">{std::vector&lt; std::shared</text>
<text text-anchor="start" x="114" y="-106" font-family="Helvetica,sans-Serif" font-size="10.00">_ptr&lt; sgns::network::SyncProtocol</text>
<text text-anchor="middle" x="188" y="-95" font-family="Helvetica,sans-Serif" font-size="10.00">Client &gt; &gt;</text>
<text text-anchor="middle" x="188" y="-84" font-family="Helvetica,sans-Serif" font-size="10.00">||}</text>
</a>
</g>
</g>
<!-- Node2&#45;&gt;Node1 -->
<g id="edge1" class="edge">
<title>Node2&#45;&gt;Node1</title>
<path fill="none" stroke="#404040" d="M188,-76.66C188,-66.19 188,-54.02 188,-43.35"/>
<polygon fill="none" stroke="#404040" points="188,-43.34 184,-37.34 188,-31.34 192,-37.34 188,-43.34"/>
<text text-anchor="middle" x="206.5" y="-51" font-family="Helvetica,sans-Serif" font-size="10.00"> +clients</text>
</g>
<!-- Node3 -->
<g id="node3" class="node">
<title>Node3</title>
<g id="a_node3"><a xlink:title=" ">
<polygon fill="white" stroke="#666666" points="189.5,-228 38.5,-228 38.5,-176 189.5,-176 189.5,-228"/>
<text text-anchor="start" x="46.5" y="-216" font-family="Helvetica,sans-Serif" font-size="10.00">{std::shared_ptr&lt; sgns</text>
<text text-anchor="middle" x="114" y="-205" font-family="Helvetica,sans-Serif" font-size="10.00">::network::SyncProtocolClient &gt;</text>
<text text-anchor="start" x="46.5" y="-194" font-family="Helvetica,sans-Serif" font-size="10.00">||+ operator&#45;&gt;()</text>
<text text-anchor="middle" x="114" y="-183" font-family="Helvetica,sans-Serif" font-size="10.00">}</text>
</a>
</g>
</g>
<!-- Node3&#45;&gt;Node2 -->
<g id="edge2" class="edge">
<title>Node3&#45;&gt;Node2</title>
<path fill="none" stroke="#404040" d="M133.44,-175.51C141.86,-164.49 151.84,-151.39 160.96,-139.44"/>
<polygon fill="none" stroke="#404040" points="160.86,-139.57 161.32,-132.38 168.14,-130.03 167.68,-137.23 160.86,-139.57"/>
<text text-anchor="middle" x="178.5" y="-150" font-family="Helvetica,sans-Serif" font-size="10.00"> +elements</text>
</g>
<!-- Node4 -->
<g id="node4" class="node">
<title>Node4</title>
<g id="a_node4"><a xlink:href="structsgns_1_1network_1_1_sync_protocol_client.html" target="_top" xlink:title=" ">
<polygon fill="white" stroke="#666666" points="142,-357 0,-357 0,-294 142,-294 142,-357"/>
<text text-anchor="start" x="8" y="-345" font-family="Helvetica,sans-Serif" font-size="10.00">{sgns::network::SyncProtocol</text>
<text text-anchor="middle" x="71" y="-334" font-family="Helvetica,sans-Serif" font-size="10.00">Client</text>
<text text-anchor="start" x="8" y="-323" font-family="Helvetica,sans-Serif" font-size="10.00">||+ ~SyncProtocolClient()</text>
<text text-anchor="start" x="8" y="-312" font-family="Helvetica,sans-Serif" font-size="10.00">+ requestBlocks()</text>
<text text-anchor="middle" x="71" y="-301" font-family="Helvetica,sans-Serif" font-size="10.00">}</text>
</a>
</g>
</g>
<!-- Node4&#45;&gt;Node3 -->
<g id="edge3" class="edge">
<title>Node4&#45;&gt;Node3</title>
<path fill="none" stroke="#404040" d="M66.19,-293.61C65.14,-278.69 65.84,-260.86 72,-246 73.03,-243.51 74.28,-241.09 75.69,-238.75"/>
<polygon fill="none" stroke="#404040" points="75.66,-238.79 75.99,-231.58 82.76,-229.11 82.44,-236.32 75.66,-238.79"/>
<text text-anchor="middle" x="82" y="-258.5" font-family="Helvetica,sans-Serif" font-size="10.00"> +ptr</text>
</g>
<!-- Node5 -->
<g id="node5" class="node">
<title>Node5</title>
<g id="a_node5"><a xlink:title=" ">
<polygon fill="white" stroke="#666666" points="267,-346 161,-346 161,-305 267,-305 267,-346"/>
<text text-anchor="middle" x="214" y="-334" font-family="Helvetica,sans-Serif" font-size="10.00">{std::shared_ptr&lt; T &gt;</text>
<text text-anchor="start" x="169" y="-323" font-family="Helvetica,sans-Serif" font-size="10.00">||+ operator&#45;&gt;()</text>
<text text-anchor="middle" x="214" y="-312" font-family="Helvetica,sans-Serif" font-size="10.00">}</text>
</a>
</g>
</g>
<!-- Node5&#45;&gt;Node3 -->
<g id="edge4" class="edge">
<title>Node5&#45;&gt;Node3</title>
<path fill="none" stroke="orange" d="M163.22,-299.72C159.09,-297.76 154.98,-295.84 151,-294 132.93,-285.66 120.88,-292.66 110,-276 100.91,-262.08 102.17,-243.29 105.57,-228.26"/>
<polygon fill="orange" stroke="orange" points="161.54,-302.79 172.07,-303.94 164.55,-296.47 161.54,-302.79"/>
<text text-anchor="start" x="110" y="-264" font-family="Helvetica,sans-Serif" font-size="10.00"> &lt; sgns::network::SyncProtocol</text>
<text text-anchor="middle" x="176.5" y="-253" font-family="Helvetica,sans-Serif" font-size="10.00">Client &gt;</text>
</g>
<!-- Node6 -->
<g id="node6" class="node">
<title>Node6</title>
<g id="a_node6"><a xlink:title=" ">
<polygon fill="white" stroke="#666666" points="268.5,-434 239.5,-434 239.5,-404 268.5,-404 268.5,-434"/>
<text text-anchor="middle" x="254" y="-422" font-family="Helvetica,sans-Serif" font-size="10.00">{T</text>
<text text-anchor="middle" x="254" y="-411" font-family="Helvetica,sans-Serif" font-size="10.00">||}</text>
</a>
</g>
</g>
<!-- Node6&#45;&gt;Node5 -->
<g id="edge5" class="edge">
<title>Node6&#45;&gt;Node5</title>
<path fill="none" stroke="#404040" d="M247.75,-403.7C242.44,-391.57 234.64,-373.71 227.87,-358.22"/>
<polygon fill="none" stroke="#404040" points="227.9,-358.29 221.83,-354.39 223.09,-347.29 229.16,-351.19 227.9,-358.29"/>
<text text-anchor="middle" x="250" y="-378" font-family="Helvetica,sans-Serif" font-size="10.00"> +ptr</text>
</g>
<!-- Node7 -->
<g id="node7" class="node">
<title>Node7</title>
<g id="a_node7"><a xlink:title=" ">
<polygon fill="white" stroke="#666666" points="339.5,-276 252.5,-276 252.5,-246 339.5,-246 339.5,-276"/>
<text text-anchor="middle" x="296" y="-264" font-family="Helvetica,sans-Serif" font-size="10.00">{std::vector&lt; T &gt;</text>
<text text-anchor="middle" x="296" y="-253" font-family="Helvetica,sans-Serif" font-size="10.00">||}</text>
</a>
</g>
</g>
<!-- Node6&#45;&gt;Node7 -->
<g id="edge7" class="edge">
<title>Node6&#45;&gt;Node7</title>
<path fill="none" stroke="#404040" d="M259.82,-403.64C264.63,-391.39 271.38,-373.24 276,-357 282.42,-334.41 287.77,-308.27 291.32,-289.13"/>
<polygon fill="none" stroke="#404040" points="291.35,-289.01 288.47,-282.4 293.47,-277.2 296.34,-283.81 291.35,-289.01"/>
<text text-anchor="middle" x="294.5" y="-378" font-family="Helvetica,sans-Serif" font-size="10.00"> +elements</text>
</g>
<!-- Node7&#45;&gt;Node2 -->
<g id="edge6" class="edge">
<title>Node7&#45;&gt;Node2</title>
<path fill="none" stroke="orange" d="M279.58,-236.28C259.6,-207.43 226.02,-158.92 205.55,-129.35"/>
<polygon fill="orange" stroke="orange" points="276.6,-238.13 285.17,-244.36 282.36,-234.14 276.6,-238.13"/>
<text text-anchor="start" x="272" y="-210.5" font-family="Helvetica,sans-Serif" font-size="10.00"> &lt; std::shared_ptr&lt;</text>
<text text-anchor="start" x="272" y="-199.5" font-family="Helvetica,sans-Serif" font-size="10.00"> sgns::network::SyncProtocol</text>
<text text-anchor="middle" x="334.5" y="-188.5" font-family="Helvetica,sans-Serif" font-size="10.00">Client &gt; &gt;</text>
</g>
</g>
</svg>
