<?xml version="1.0" encoding="UTF-8" standalone="no"?>
<!DOCTYPE svg PUBLIC "-//W3C//DTD SVG 1.1//EN"
 "http://www.w3.org/Graphics/SVG/1.1/DTD/svg11.dtd">
<!-- Generated by graphviz version 7.0.5 (20221223.1930)
 -->
<!-- Title: sgns::verification::finality::VoteGraph::Entry Pages: 1 -->
<!--zoomable 632 -->
<svg id="main" version="1.1" xmlns="http://www.w3.org/2000/svg" xmlns:xlink="http://www.w3.org/1999/xlink" xml:space="preserve" onload="init(evt)">
<style type="text/css"><![CDATA[
.edge:hover path { stroke: red; }
.edge:hover polygon { stroke: red; fill: red; }
]]></style>
<script type="text/javascript"><![CDATA[
var edges = document.getElementsByTagName('g');
if (edges && edges.length) {
  for (var i=0;i<edges.length;i++) {
    if (edges[i].id.substr(0,4)=='edge') {
      edges[i].setAttribute('class','edge');
    }
  }
}
]]></script>
        <defs>
                <circle id="rim" cx="0" cy="0" r="7"/>
                <circle id="rim2" cx="0" cy="0" r="3.5"/>
                <g id="zoomPlus">
                        <use xlink:href="#rim" fill="#404040">
                                <set attributeName="fill" to="#808080" begin="zoomplus.mouseover" end="zoomplus.mouseout"/>
                        </use>
                        <path d="M-4,0h8M0,-4v8" fill="none" stroke="white" stroke-width="1.5" pointer-events="none"/>
                </g>
                <g id="zoomMin">
                        <use xlink:href="#rim" fill="#404040">
                                <set attributeName="fill" to="#808080" begin="zoomminus.mouseover" end="zoomminus.mouseout"/>
                        </use>
                        <path d="M-4,0h8" fill="none" stroke="white" stroke-width="1.5" pointer-events="none"/>
                </g>
                <g id="dirArrow">
                        <path fill="none" stroke="white" stroke-width="1.5" d="M0,-3.0v7 M-2.5,-0.5L0,-3.0L2.5,-0.5"/>
                </g>
               <g id="resetDef">
                       <use xlink:href="#rim2" fill="#404040">
                               <set attributeName="fill" to="#808080" begin="reset.mouseover" end="reset.mouseout"/>
                       </use>
               </g>
        </defs>

<script type="text/javascript">
var viewWidth = 845;
var viewHeight = 632;
var sectionId = 'dynsection-1';
</script>
<script xlink:href="svgpan.js"/>
<svg id="graph" class="graph">
<g id="viewport">
<title>sgns::verification::finality::VoteGraph::Entry</title>
<!-- Node1 -->
<g id="node1" class="node">
<title>Node1</title>
<g id="a_node1"><a xlink:title=" ">
<polygon fill="#999999" stroke="#666666" points="296,-74 177,-74 177,0 296,0 296,-74"/>
<text text-anchor="start" x="185" y="-62" font-family="Helvetica,sans-Serif" font-size="10.00">{sgns::verification</text>
<text text-anchor="start" x="185" y="-51" font-family="Helvetica,sans-Serif" font-size="10.00">::finality::VoteGraph</text>
<text text-anchor="middle" x="236.5" y="-40" font-family="Helvetica,sans-Serif" font-size="10.00">::Entry</text>
<text text-anchor="start" x="185" y="-29" font-family="Helvetica,sans-Serif" font-size="10.00">||+ operator==()</text>
<text text-anchor="start" x="185" y="-18" font-family="Helvetica,sans-Serif" font-size="10.00">+ getAncestorBlockBy()</text>
<text text-anchor="middle" x="236.5" y="-7" font-family="Helvetica,sans-Serif" font-size="10.00">}</text>
</a>
</g>
</g>
<!-- Node2 -->
<g id="node2" class="node">
<title>Node2</title>
<g id="a_node2"><a xlink:title=" ">
<polygon fill="white" stroke="#666666" points="137,-228 0,-228 0,-187 137,-187 137,-228"/>
<text text-anchor="start" x="8" y="-216" font-family="Helvetica,sans-Serif" font-size="10.00">{boost::equality_comparable</text>
<text text-anchor="middle" x="68.5" y="-205" font-family="Helvetica,sans-Serif" font-size="10.00">&lt; Entry &gt;</text>
<text text-anchor="middle" x="68.5" y="-194" font-family="Helvetica,sans-Serif" font-size="10.00">||}</text>
</a>
</g>
</g>
<!-- Node2&#45;&gt;Node1 -->
<g id="edge1" class="edge">
<title>Node2&#45;&gt;Node1</title>
<path fill="none" stroke="#63b8ff" d="M96.38,-178.54C124.87,-149.96 169.25,-105.45 200.42,-74.19"/>
<polygon fill="none" stroke="#63b8ff" points="94.08,-175.88 89.5,-185.44 99.04,-180.83 94.08,-175.88"/>
</g>
<!-- Node3 -->
<g id="node3" class="node">
<title>Node3</title>
<g id="a_node3"><a xlink:title=" ">
<polygon fill="white" stroke="#666666" points="234,-222.5 155,-222.5 155,-192.5 234,-192.5 234,-222.5"/>
<text text-anchor="middle" x="194.5" y="-210.5" font-family="Helvetica,sans-Serif" font-size="10.00">{BlockNumber</text>
<text text-anchor="middle" x="194.5" y="-199.5" font-family="Helvetica,sans-Serif" font-size="10.00">||}</text>
</a>
</g>
</g>
<!-- Node3&#45;&gt;Node1 -->
<g id="edge2" class="edge">
<title>Node3&#45;&gt;Node1</title>
<path fill="none" stroke="#404040" d="M196.47,-192.22C199.65,-170.39 206.59,-127.48 216.5,-92 217,-90.19 217.54,-88.36 218.1,-86.52"/>
<polygon fill="none" stroke="#404040" points="218.08,-86.59 216.16,-79.64 221.84,-75.19 223.76,-82.14 218.08,-86.59"/>
<text text-anchor="middle" x="237" y="-100.5" font-family="Helvetica,sans-Serif" font-size="10.00"> +number</text>
</g>
<!-- Node4 -->
<g id="node4" class="node">
<title>Node4</title>
<g id="a_node4"><a xlink:title=" ">
<polygon fill="white" stroke="#666666" points="350.5,-228 252.5,-228 252.5,-187 350.5,-187 350.5,-228"/>
<text text-anchor="start" x="260.5" y="-216" font-family="Helvetica,sans-Serif" font-size="10.00">{std::vector&lt; sgns::</text>
<text text-anchor="middle" x="301.5" y="-205" font-family="Helvetica,sans-Serif" font-size="10.00">base::Blob &gt;</text>
<text text-anchor="middle" x="301.5" y="-194" font-family="Helvetica,sans-Serif" font-size="10.00">||}</text>
</a>
</g>
</g>
<!-- Node4&#45;&gt;Node1 -->
<g id="edge3" class="edge">
<title>Node4&#45;&gt;Node1</title>
<path fill="none" stroke="#404040" d="M293.89,-186.63C285.14,-163.79 270.32,-125.17 257.5,-92 256.77,-90.12 256.03,-88.21 255.28,-86.27"/>
<polygon fill="none" stroke="#404040" points="255.31,-86.33 249.41,-82.18 250.97,-75.14 256.87,-79.29 255.31,-86.33"/>
<text text-anchor="middle" x="297.5" y="-106" font-family="Helvetica,sans-Serif" font-size="10.00"> +ancestors</text>
<text text-anchor="middle" x="297.5" y="-95" font-family="Helvetica,sans-Serif" font-size="10.00">+descendents</text>
</g>
<!-- Node5 -->
<g id="node5" class="node">
<title>Node5</title>
<g id="a_node5"><a xlink:href="classsgns_1_1base_1_1_blob.html" target="_top" xlink:title=" ">
<polygon fill="white" stroke="#666666" points="265,-470 136,-470 136,-341 265,-341 265,-470"/>
<text text-anchor="middle" x="200.5" y="-458" font-family="Helvetica,sans-Serif" font-size="10.00">{sgns::base::Blob&lt; size_ &gt;</text>
<text text-anchor="start" x="144" y="-447" font-family="Helvetica,sans-Serif" font-size="10.00">||+ Blob()</text>
<text text-anchor="start" x="144" y="-436" font-family="Helvetica,sans-Serif" font-size="10.00">+ Blob()</text>
<text text-anchor="start" x="144" y="-425" font-family="Helvetica,sans-Serif" font-size="10.00">+ toString()</text>
<text text-anchor="start" x="144" y="-414" font-family="Helvetica,sans-Serif" font-size="10.00">+ toHex()</text>
<text text-anchor="start" x="144" y="-403" font-family="Helvetica,sans-Serif" font-size="10.00">+ size()</text>
<text text-anchor="start" x="144" y="-392" font-family="Helvetica,sans-Serif" font-size="10.00">+ fromString()</text>
<text text-anchor="start" x="144" y="-381" font-family="Helvetica,sans-Serif" font-size="10.00">+ fromHex()</text>
<text text-anchor="start" x="144" y="-370" font-family="Helvetica,sans-Serif" font-size="10.00">+ fromHexWithPrefix()</text>
<text text-anchor="start" x="144" y="-359" font-family="Helvetica,sans-Serif" font-size="10.00">+ fromSpan()</text>
<text text-anchor="middle" x="200.5" y="-348" font-family="Helvetica,sans-Serif" font-size="10.00">}</text>
</a>
</g>
</g>
<!-- Node5&#45;&gt;Node4 -->
<g id="edge4" class="edge">
<title>Node5&#45;&gt;Node4</title>
<path fill="none" stroke="#404040" d="M221.09,-340.77C226.2,-327.37 232.07,-313.51 238.5,-301 249.83,-278.96 265.51,-255.93 278.39,-238.35"/>
<polygon fill="none" stroke="#404040" points="278.27,-238.52 278.65,-231.32 285.44,-228.9 285.06,-236.1 278.27,-238.52"/>
<text text-anchor="middle" x="263" y="-309.5" font-family="Helvetica,sans-Serif" font-size="10.00"> +elements</text>
</g>
<!-- Node6 -->
<g id="node6" class="node">
<title>Node6</title>
<g id="a_node6"><a xlink:title=" ">
<polygon fill="white" stroke="#666666" points="241,-547 160,-547 160,-517 241,-517 241,-547"/>
<text text-anchor="middle" x="200.5" y="-535" font-family="Helvetica,sans-Serif" font-size="10.00">{std::array&lt; T &gt;</text>
<text text-anchor="middle" x="200.5" y="-524" font-family="Helvetica,sans-Serif" font-size="10.00">||}</text>
</a>
</g>
</g>
<!-- Node6&#45;&gt;Node5 -->
<g id="edge5" class="edge">
<title>Node6&#45;&gt;Node5</title>
<path fill="none" stroke="#63b8ff" d="M200.5,-505.35C200.5,-495.09 200.5,-482.76 200.5,-470.35"/>
<polygon fill="none" stroke="#63b8ff" points="197,-505.2 200.5,-515.2 204,-505.2 197,-505.2"/>
</g>
<!-- Node7 -->
<g id="node7" class="node">
<title>Node7</title>
<g id="a_node7"><a xlink:title=" ">
<polygon fill="white" stroke="#666666" points="266,-624 237,-624 237,-594 266,-594 266,-624"/>
<text text-anchor="middle" x="251.5" y="-612" font-family="Helvetica,sans-Serif" font-size="10.00">{T</text>
<text text-anchor="middle" x="251.5" y="-601" font-family="Helvetica,sans-Serif" font-size="10.00">||}</text>
</a>
</g>
</g>
<!-- Node7&#45;&gt;Node6 -->
<g id="edge6" class="edge">
<title>Node7&#45;&gt;Node6</title>
<path fill="none" stroke="#404040" d="M237.66,-593.6C232.89,-588.28 227.7,-582.07 223.5,-576 219.78,-570.63 216.22,-564.58 213.05,-558.76"/>
<polygon fill="none" stroke="#404040" points="213.11,-558.88 206.8,-555.38 207.6,-548.22 213.9,-551.71 213.11,-558.88"/>
<text text-anchor="middle" x="248" y="-568" font-family="Helvetica,sans-Serif" font-size="10.00"> +elements</text>
</g>
<!-- Node8 -->
<g id="node8" class="node">
<title>Node8</title>
<g id="a_node8"><a xlink:title=" ">
<polygon fill="white" stroke="#666666" points="346,-547 259,-547 259,-517 346,-517 346,-547"/>
<text text-anchor="middle" x="302.5" y="-535" font-family="Helvetica,sans-Serif" font-size="10.00">{std::vector&lt; T &gt;</text>
<text text-anchor="middle" x="302.5" y="-524" font-family="Helvetica,sans-Serif" font-size="10.00">||}</text>
</a>
</g>
</g>
<!-- Node7&#45;&gt;Node8 -->
<g id="edge8" class="edge">
<title>Node7&#45;&gt;Node8</title>
<path fill="none" stroke="#404040" d="M261.33,-593.54C268.18,-583.47 277.48,-569.8 285.51,-557.99"/>
<polygon fill="none" stroke="#404040" points="285.44,-558.08 285.51,-550.87 292.19,-548.16 292.12,-555.37 285.44,-558.08"/>
<text text-anchor="middle" x="305" y="-568" font-family="Helvetica,sans-Serif" font-size="10.00"> +elements</text>
</g>
<!-- Node8&#45;&gt;Node4 -->
<g id="edge7" class="edge">
<title>Node8&#45;&gt;Node4</title>
<path fill="none" stroke="orange" d="M302.42,-505.23C302.23,-442.65 301.73,-283.75 301.56,-228.11"/>
<polygon fill="orange" stroke="orange" points="298.92,-505.22 302.45,-515.21 305.92,-505.2 298.92,-505.22"/>
<text text-anchor="middle" x="347.5" y="-403" font-family="Helvetica,sans-Serif" font-size="10.00"> &lt; sgns::base::Blob &gt;</text>
</g>
<!-- Node12 -->
<g id="node12" class="node">
<title>Node12</title>
<g id="a_node12"><a xlink:title=" ">
<polygon fill="white" stroke="#666666" points="517,-426 410,-426 410,-385 517,-385 517,-426"/>
<text text-anchor="middle" x="463.5" y="-414" font-family="Helvetica,sans-Serif" font-size="10.00">{std::vector&lt; size_t &gt;</text>
<text text-anchor="start" x="418" y="-403" font-family="Helvetica,sans-Serif" font-size="10.00">|+ elements</text>
<text text-anchor="middle" x="463.5" y="-392" font-family="Helvetica,sans-Serif" font-size="10.00">|}</text>
</a>
</g>
</g>
<!-- Node8&#45;&gt;Node12 -->
<g id="edge13" class="edge">
<title>Node8&#45;&gt;Node12</title>
<path fill="none" stroke="orange" d="M336.77,-510.49C354.76,-499.24 376.88,-484.63 395.5,-470 412.78,-456.43 430.89,-439.36 444.07,-426.33"/>
<polygon fill="orange" stroke="orange" points="334.93,-507.51 328.26,-515.74 338.61,-513.46 334.93,-507.51"/>
<text text-anchor="middle" x="394" y="-491" font-family="Helvetica,sans-Serif" font-size="10.00"> &lt; size_t &gt;</text>
</g>
<!-- Node9 -->
<g id="node9" class="node">
<title>Node9</title>
<g id="a_node9"><a xlink:href="classsgns_1_1verification_1_1finality_1_1_vote_weight.html" target="_top" xlink:title=" ">
<polygon fill="white" stroke="#666666" points="610,-283 489,-283 489,-132 610,-132 610,-283"/>
<text text-anchor="start" x="497" y="-271" font-family="Helvetica,sans-Serif" font-size="10.00">{sgns::verification</text>
<text text-anchor="middle" x="549.5" y="-260" font-family="Helvetica,sans-Serif" font-size="10.00">::finality::VoteWeight</text>
<text text-anchor="start" x="497" y="-249" font-family="Helvetica,sans-Serif" font-size="10.00">|+ prevotes_sum</text>
<text text-anchor="start" x="497" y="-238" font-family="Helvetica,sans-Serif" font-size="10.00">+ precommits_sum</text>
<text text-anchor="start" x="497" y="-227" font-family="Helvetica,sans-Serif" font-size="10.00">+ prevoteComparator</text>
<text text-anchor="start" x="497" y="-216" font-family="Helvetica,sans-Serif" font-size="10.00">+ precommitComparator</text>
<text text-anchor="start" x="497" y="-205" font-family="Helvetica,sans-Serif" font-size="10.00">|+ VoteWeight()</text>
<text text-anchor="start" x="497" y="-194" font-family="Helvetica,sans-Serif" font-size="10.00">+ totalWeight()</text>
<text text-anchor="start" x="497" y="-183" font-family="Helvetica,sans-Serif" font-size="10.00">+ operator+=()</text>
<text text-anchor="start" x="497" y="-172" font-family="Helvetica,sans-Serif" font-size="10.00">+ operator==()</text>
<text text-anchor="start" x="497" y="-161" font-family="Helvetica,sans-Serif" font-size="10.00">+ setPrevote()</text>
<text text-anchor="start" x="497" y="-150" font-family="Helvetica,sans-Serif" font-size="10.00">+ setPrecommit()</text>
<text text-anchor="middle" x="549.5" y="-139" font-family="Helvetica,sans-Serif" font-size="10.00">}</text>
</a>
</g>
</g>
<!-- Node9&#45;&gt;Node1 -->
<g id="edge9" class="edge">
<title>Node9&#45;&gt;Node1</title>
<path fill="none" stroke="#404040" d="M488.78,-173.81C436.91,-145.89 362.24,-105.69 307.6,-76.27"/>
<polygon fill="none" stroke="#404040" points="307.61,-76.28 300.43,-76.96 297.05,-70.6 304.23,-69.92 307.61,-76.28"/>
<text text-anchor="middle" x="414.5" y="-100.5" font-family="Helvetica,sans-Serif" font-size="10.00"> +cumulative_vote</text>
</g>
<!-- Node10 -->
<g id="node10" class="node">
<title>Node10</title>
<g id="a_node10"><a xlink:title=" ">
<polygon fill="white" stroke="#666666" points="672,-426 535,-426 535,-385 672,-385 672,-426"/>
<text text-anchor="start" x="543" y="-414" font-family="Helvetica,sans-Serif" font-size="10.00">{boost::equality_comparable</text>
<text text-anchor="middle" x="603.5" y="-403" font-family="Helvetica,sans-Serif" font-size="10.00">&lt; VoteWeight &gt;</text>
<text text-anchor="middle" x="603.5" y="-392" font-family="Helvetica,sans-Serif" font-size="10.00">||}</text>
</a>
</g>
</g>
<!-- Node10&#45;&gt;Node9 -->
<g id="edge10" class="edge">
<title>Node10&#45;&gt;Node9</title>
<path fill="none" stroke="#63b8ff" d="M595,-373.64C588.32,-349.41 578.74,-314.63 570.09,-283.23"/>
<polygon fill="none" stroke="#63b8ff" points="591.59,-374.46 597.62,-383.17 598.34,-372.6 591.59,-374.46"/>
</g>
<!-- Node11 -->
<g id="node11" class="node">
<title>Node11</title>
<g id="a_node11"><a xlink:title=" ">
<polygon fill="white" stroke="#666666" points="836.5,-426 690.5,-426 690.5,-385 836.5,-385 836.5,-426"/>
<text text-anchor="start" x="698.5" y="-414" font-family="Helvetica,sans-Serif" font-size="10.00">{boost::less_than_comparable</text>
<text text-anchor="middle" x="763.5" y="-403" font-family="Helvetica,sans-Serif" font-size="10.00">&lt; VoteWeight &gt;</text>
<text text-anchor="middle" x="763.5" y="-392" font-family="Helvetica,sans-Serif" font-size="10.00">||}</text>
</a>
</g>
</g>
<!-- Node11&#45;&gt;Node9 -->
<g id="edge11" class="edge">
<title>Node11&#45;&gt;Node9</title>
<path fill="none" stroke="#63b8ff" d="M733.35,-376.89C701.5,-347.71 650.4,-300.91 610.14,-264.04"/>
<polygon fill="none" stroke="#63b8ff" points="730.95,-379.43 740.69,-383.61 735.68,-374.27 730.95,-379.43"/>
</g>
<!-- Node12&#45;&gt;Node9 -->
<g id="edge12" class="edge">
<title>Node12&#45;&gt;Node9</title>
<path fill="none" stroke="#404040" d="M472.22,-384.63C481.54,-363.39 496.96,-328.25 511.58,-294.92"/>
<polygon fill="none" stroke="#404040" points="511.53,-295.05 510.27,-287.95 516.35,-284.06 517.6,-291.16 511.53,-295.05"/>
<text text-anchor="middle" x="536.5" y="-315" font-family="Helvetica,sans-Serif" font-size="10.00"> +precommits</text>
<text text-anchor="middle" x="536.5" y="-304" font-family="Helvetica,sans-Serif" font-size="10.00">+prevotes</text>
</g>
</g>
</svg>
        <g id="navigator" transform="translate(0 0)" fill="#404254">
                <rect fill="#f2f5e9" fill-opacity="0.5" stroke="#606060" stroke-width=".5" x="0" y="0" width="60" height="60"/>
                <use id="zoomplus" xlink:href="#zoomPlus" x="17" y="9" onmousedown="handleZoom(evt,'in')"/>
                <use id="zoomminus" xlink:href="#zoomMin" x="42" y="9" onmousedown="handleZoom(evt,'out')"/>
                <use id="reset" xlink:href="#resetDef" x="30" y="36" onmousedown="handleReset()"/>
                <g id="arrowUp" xlink:href="#dirArrow" transform="translate(30 24)" onmousedown="handlePan(0,-1)">
                  <use xlink:href="#rim" fill="#404040">
                        <set attributeName="fill" to="#808080" begin="arrowUp.mouseover" end="arrowUp.mouseout"/>
                  </use>
                  <path fill="none" stroke="white" stroke-width="1.5" d="M0,-3.0v7 M-2.5,-0.5L0,-3.0L2.5,-0.5"/>
                </g>
                <g id="arrowRight" xlink:href="#dirArrow" transform="rotate(90) translate(36 -43)" onmousedown="handlePan(1,0)">
                  <use xlink:href="#rim" fill="#404040">
                        <set attributeName="fill" to="#808080" begin="arrowRight.mouseover" end="arrowRight.mouseout"/>
                  </use>
                  <path fill="none" stroke="white" stroke-width="1.5" d="M0,-3.0v7 M-2.5,-0.5L0,-3.0L2.5,-0.5"/>
                </g>
                <g id="arrowDown" xlink:href="#dirArrow" transform="rotate(180) translate(-30 -48)" onmousedown="handlePan(0,1)">
                  <use xlink:href="#rim" fill="#404040">
                        <set attributeName="fill" to="#808080" begin="arrowDown.mouseover" end="arrowDown.mouseout"/>
                  </use>
                  <path fill="none" stroke="white" stroke-width="1.5" d="M0,-3.0v7 M-2.5,-0.5L0,-3.0L2.5,-0.5"/>
                </g>
                <g id="arrowLeft" xlink:href="#dirArrow" transform="rotate(270) translate(-36 17)" onmousedown="handlePan(-1,0)">
                  <use xlink:href="#rim" fill="#404040">
                        <set attributeName="fill" to="#808080" begin="arrowLeft.mouseover" end="arrowLeft.mouseout"/>
                  </use>
                  <path fill="none" stroke="white" stroke-width="1.5" d="M0,-3.0v7 M-2.5,-0.5L0,-3.0L2.5,-0.5"/>
                </g>
        </g>
        <svg viewBox="0 0 15 15" width="100%" height="30px" preserveAspectRatio="xMaxYMin meet">
         <g id="arrow_out" transform="scale(0.3 0.3)">
          <a xlink:href="structsgns_1_1verification_1_1finality_1_1_vote_graph_1_1_entry__coll__graph_org.svg" target="_base">
           <rect id="button" ry="5" rx="5" y="6" x="6" height="38" width="38"
                fill="#f2f5e9" fill-opacity="0.5" stroke="#606060" stroke-width="1.0"/>
           <path id="arrow"
             d="M 11.500037,31.436501 C 11.940474,20.09759 22.043105,11.32322 32.158766,21.979434 L 37.068811,17.246167 C 37.068811,17.246167 37.088388,32 37.088388,32 L 22.160133,31.978069 C 22.160133,31.978069 26.997745,27.140456 26.997745,27.140456 C 18.528582,18.264221 13.291696,25.230495 11.500037,31.436501 z"
             style="fill:#404040;"/>
          </a>
         </g>
        </svg>
</svg>
