<?xml version="1.0" encoding="UTF-8" standalone="no"?>
<!DOCTYPE svg PUBLIC "-//W3C//DTD SVG 1.1//EN"
 "http://www.w3.org/Graphics/SVG/1.1/DTD/svg11.dtd">
<!-- Generated by graphviz version 7.0.5 (20221223.1930)
 -->
<!-- Title: sgns::storage::trie::SuperGeniusNode Pages: 1 -->
<!--zoomable 710 -->
<svg id="main" version="1.1" xmlns="http://www.w3.org/2000/svg" xmlns:xlink="http://www.w3.org/1999/xlink" xml:space="preserve" onload="init(evt)">
<style type="text/css"><![CDATA[
.edge:hover path { stroke: red; }
.edge:hover polygon { stroke: red; fill: red; }
]]></style>
<script type="text/javascript"><![CDATA[
var edges = document.getElementsByTagName('g');
if (edges && edges.length) {
  for (var i=0;i<edges.length;i++) {
    if (edges[i].id.substr(0,4)=='edge') {
      edges[i].setAttribute('class','edge');
    }
  }
}
]]></script>
        <defs>
                <circle id="rim" cx="0" cy="0" r="7"/>
                <circle id="rim2" cx="0" cy="0" r="3.5"/>
                <g id="zoomPlus">
                        <use xlink:href="#rim" fill="#404040">
                                <set attributeName="fill" to="#808080" begin="zoomplus.mouseover" end="zoomplus.mouseout"/>
                        </use>
                        <path d="M-4,0h8M0,-4v8" fill="none" stroke="white" stroke-width="1.5" pointer-events="none"/>
                </g>
                <g id="zoomMin">
                        <use xlink:href="#rim" fill="#404040">
                                <set attributeName="fill" to="#808080" begin="zoomminus.mouseover" end="zoomminus.mouseout"/>
                        </use>
                        <path d="M-4,0h8" fill="none" stroke="white" stroke-width="1.5" pointer-events="none"/>
                </g>
                <g id="dirArrow">
                        <path fill="none" stroke="white" stroke-width="1.5" d="M0,-3.0v7 M-2.5,-0.5L0,-3.0L2.5,-0.5"/>
                </g>
               <g id="resetDef">
                       <use xlink:href="#rim2" fill="#404040">
                               <set attributeName="fill" to="#808080" begin="reset.mouseover" end="reset.mouseout"/>
                       </use>
               </g>
        </defs>

<script type="text/javascript">
var viewWidth = 584;
var viewHeight = 710;
var sectionId = 'dynsection-1';
</script>
<script xlink:href="svgpan.js"/>
<svg id="graph" class="graph">
<g id="viewport">
<title>sgns::storage::trie::SuperGeniusNode</title>
<!-- Node1 -->
<g id="node1" class="node">
<title>Node1</title>
<g id="a_node1"><a xlink:title=" ">
<polygon fill="#999999" stroke="#666666" points="261.5,-107 145.5,-107 145.5,0 261.5,0 261.5,-107"/>
<text text-anchor="start" x="153.5" y="-95" font-family="Helvetica,sans-Serif" font-size="10.00">{sgns::storage::trie</text>
<text text-anchor="middle" x="203.5" y="-84" font-family="Helvetica,sans-Serif" font-size="10.00">::SuperGeniusNode</text>
<text text-anchor="start" x="153.5" y="-73" font-family="Helvetica,sans-Serif" font-size="10.00">|+ value</text>
<text text-anchor="start" x="153.5" y="-62" font-family="Helvetica,sans-Serif" font-size="10.00">|+ SuperGeniusNode()</text>
<text text-anchor="start" x="153.5" y="-51" font-family="Helvetica,sans-Serif" font-size="10.00">+ SuperGeniusNode()</text>
<text text-anchor="start" x="153.5" y="-40" font-family="Helvetica,sans-Serif" font-size="10.00">+ ~SuperGeniusNode()</text>
<text text-anchor="start" x="153.5" y="-29" font-family="Helvetica,sans-Serif" font-size="10.00">+ isDummy()</text>
<text text-anchor="start" x="153.5" y="-18" font-family="Helvetica,sans-Serif" font-size="10.00">+ getTrieType()</text>
<text text-anchor="middle" x="203.5" y="-7" font-family="Helvetica,sans-Serif" font-size="10.00">}</text>
</a>
</g>
</g>
<!-- Node2 -->
<g id="node2" class="node">
<title>Node2</title>
<g id="a_node2"><a xlink:href="structsgns_1_1storage_1_1trie_1_1_node.html" target="_top" xlink:title=" ">
<polygon fill="white" stroke="#666666" points="235,-233.5 140,-233.5 140,-170.5 235,-170.5 235,-233.5"/>
<text text-anchor="start" x="148" y="-221.5" font-family="Helvetica,sans-Serif" font-size="10.00">{sgns::storage::trie</text>
<text text-anchor="middle" x="187.5" y="-210.5" font-family="Helvetica,sans-Serif" font-size="10.00">::Node</text>
<text text-anchor="start" x="148" y="-199.5" font-family="Helvetica,sans-Serif" font-size="10.00">||+ ~Node()</text>
<text text-anchor="start" x="148" y="-188.5" font-family="Helvetica,sans-Serif" font-size="10.00">+ getType()</text>
<text text-anchor="middle" x="187.5" y="-177.5" font-family="Helvetica,sans-Serif" font-size="10.00">}</text>
</a>
</g>
</g>
<!-- Node2&#45;&gt;Node1 -->
<g id="edge1" class="edge">
<title>Node2&#45;&gt;Node1</title>
<path fill="none" stroke="#63b8ff" d="M192.08,-159.06C193.84,-142.97 195.87,-124.38 197.72,-107.39"/>
<polygon fill="none" stroke="#63b8ff" points="188.62,-158.46 191.02,-168.78 195.58,-159.22 188.62,-158.46"/>
</g>
<!-- Node3 -->
<g id="node3" class="node">
<title>Node3</title>
<g id="a_node3"><a xlink:href="structsgns_1_1storage_1_1trie_1_1_key_nibbles.html" target="_top" xlink:title=" ">
<polygon fill="white" stroke="#666666" points="348,-250 253,-250 253,-154 348,-154 348,-250"/>
<text text-anchor="start" x="261" y="-238" font-family="Helvetica,sans-Serif" font-size="10.00">{sgns::storage::trie</text>
<text text-anchor="middle" x="300.5" y="-227" font-family="Helvetica,sans-Serif" font-size="10.00">::KeyNibbles</text>
<text text-anchor="start" x="261" y="-216" font-family="Helvetica,sans-Serif" font-size="10.00">||+ KeyNibbles()</text>
<text text-anchor="start" x="261" y="-205" font-family="Helvetica,sans-Serif" font-size="10.00">+ KeyNibbles()</text>
<text text-anchor="start" x="261" y="-194" font-family="Helvetica,sans-Serif" font-size="10.00">+ KeyNibbles()</text>
<text text-anchor="start" x="261" y="-183" font-family="Helvetica,sans-Serif" font-size="10.00">+ operator=()</text>
<text text-anchor="start" x="261" y="-172" font-family="Helvetica,sans-Serif" font-size="10.00">+ subspan()</text>
<text text-anchor="middle" x="300.5" y="-161" font-family="Helvetica,sans-Serif" font-size="10.00">}</text>
</a>
</g>
</g>
<!-- Node3&#45;&gt;Node1 -->
<g id="edge2" class="edge">
<title>Node3&#45;&gt;Node1</title>
<path fill="none" stroke="#404040" d="M269.27,-153.84C261.77,-142.5 253.63,-130.21 245.72,-118.26"/>
<polygon fill="none" stroke="#404040" points="245.66,-118.17 239.01,-115.38 239.04,-108.17 245.68,-110.96 245.66,-118.17"/>
<text text-anchor="middle" x="284.5" y="-128" font-family="Helvetica,sans-Serif" font-size="10.00"> +key_nibbles</text>
</g>
<!-- Node4 -->
<g id="node4" class="node">
<title>Node4</title>
<g id="a_node4"><a xlink:href="classsgns_1_1base_1_1_buffer.html" target="_top" xlink:title="Class represents arbitrary (including empty) byte buffer.">
<polygon fill="white" stroke="#666666" points="348.5,-460 252.5,-460 252.5,-287 348.5,-287 348.5,-460"/>
<text text-anchor="middle" x="300.5" y="-448" font-family="Helvetica,sans-Serif" font-size="10.00">{sgns::base::Buffer</text>
<text text-anchor="start" x="260.5" y="-437" font-family="Helvetica,sans-Serif" font-size="10.00">||+ Buffer()</text>
<text text-anchor="start" x="260.5" y="-426" font-family="Helvetica,sans-Serif" font-size="10.00">+ ~Buffer()</text>
<text text-anchor="start" x="260.5" y="-415" font-family="Helvetica,sans-Serif" font-size="10.00">+ Buffer()</text>
<text text-anchor="start" x="260.5" y="-404" font-family="Helvetica,sans-Serif" font-size="10.00">+ Buffer()</text>
<text text-anchor="start" x="260.5" y="-393" font-family="Helvetica,sans-Serif" font-size="10.00">+ Buffer()</text>
<text text-anchor="start" x="260.5" y="-382" font-family="Helvetica,sans-Serif" font-size="10.00">+ Buffer()</text>
<text text-anchor="start" x="260.5" y="-371" font-family="Helvetica,sans-Serif" font-size="10.00">+ Buffer()</text>
<text text-anchor="start" x="260.5" y="-360" font-family="Helvetica,sans-Serif" font-size="10.00">+ Buffer()</text>
<text text-anchor="start" x="260.5" y="-349" font-family="Helvetica,sans-Serif" font-size="10.00">+ Buffer()</text>
<text text-anchor="start" x="260.5" y="-338" font-family="Helvetica,sans-Serif" font-size="10.00">+ reserve()</text>
<text text-anchor="start" x="260.5" y="-327" font-family="Helvetica,sans-Serif" font-size="10.00">and 32 more...</text>
<text text-anchor="start" x="260.5" y="-316" font-family="Helvetica,sans-Serif" font-size="10.00">+ fromHex()</text>
<text text-anchor="start" x="260.5" y="-305" font-family="Helvetica,sans-Serif" font-size="10.00">&#45; putRange()</text>
<text text-anchor="middle" x="300.5" y="-294" font-family="Helvetica,sans-Serif" font-size="10.00">}</text>
</a>
</g>
</g>
<!-- Node4&#45;&gt;Node3 -->
<g id="edge3" class="edge">
<title>Node4&#45;&gt;Node3</title>
<path fill="none" stroke="#63b8ff" d="M300.5,-275.39C300.5,-266.79 300.5,-258.37 300.5,-250.48"/>
<polygon fill="none" stroke="#63b8ff" points="297,-275.24 300.5,-285.24 304,-275.24 297,-275.24"/>
</g>
<!-- Node5 -->
<g id="node5" class="node">
<title>Node5</title>
<g id="a_node5"><a xlink:title=" ">
<polygon fill="white" stroke="#666666" points="137,-548 0,-548 0,-507 137,-507 137,-548"/>
<text text-anchor="start" x="8" y="-536" font-family="Helvetica,sans-Serif" font-size="10.00">{boost::equality_comparable</text>
<text text-anchor="middle" x="68.5" y="-525" font-family="Helvetica,sans-Serif" font-size="10.00">&lt; Buffer &gt;</text>
<text text-anchor="middle" x="68.5" y="-514" font-family="Helvetica,sans-Serif" font-size="10.00">||}</text>
</a>
</g>
</g>
<!-- Node5&#45;&gt;Node4 -->
<g id="edge4" class="edge">
<title>Node5&#45;&gt;Node4</title>
<path fill="none" stroke="#63b8ff" d="M108.24,-500.46C148.17,-474.3 209.74,-433.96 252.4,-406.01"/>
<polygon fill="none" stroke="#63b8ff" points="106.54,-497.39 100.1,-505.8 110.38,-503.25 106.54,-497.39"/>
</g>
<!-- Node6 -->
<g id="node6" class="node">
<title>Node6</title>
<g id="a_node6"><a xlink:title=" ">
<polygon fill="white" stroke="#666666" points="292,-548 155,-548 155,-507 292,-507 292,-548"/>
<text text-anchor="start" x="163" y="-536" font-family="Helvetica,sans-Serif" font-size="10.00">{boost::equality_comparable</text>
<text text-anchor="middle" x="223.5" y="-525" font-family="Helvetica,sans-Serif" font-size="10.00">&lt; gsl::span&lt; uint8_t &gt; &gt;</text>
<text text-anchor="middle" x="223.5" y="-514" font-family="Helvetica,sans-Serif" font-size="10.00">||}</text>
</a>
</g>
</g>
<!-- Node6&#45;&gt;Node4 -->
<g id="edge5" class="edge">
<title>Node6&#45;&gt;Node4</title>
<path fill="none" stroke="#63b8ff" d="M238.6,-496.69C243.99,-486.05 250.37,-473.45 256.95,-460.47"/>
<polygon fill="none" stroke="#63b8ff" points="235.65,-494.78 234.25,-505.28 241.89,-497.94 235.65,-494.78"/>
</g>
<!-- Node7 -->
<g id="node7" class="node">
<title>Node7</title>
<g id="a_node7"><a xlink:title=" ">
<polygon fill="white" stroke="#666666" points="447,-548 310,-548 310,-507 447,-507 447,-548"/>
<text text-anchor="start" x="318" y="-536" font-family="Helvetica,sans-Serif" font-size="10.00">{boost::equality_comparable</text>
<text text-anchor="middle" x="378.5" y="-525" font-family="Helvetica,sans-Serif" font-size="10.00">&lt; std::vector&lt; uint8_t &gt; &gt;</text>
<text text-anchor="middle" x="378.5" y="-514" font-family="Helvetica,sans-Serif" font-size="10.00">||}</text>
</a>
</g>
</g>
<!-- Node7&#45;&gt;Node4 -->
<g id="edge6" class="edge">
<title>Node7&#45;&gt;Node4</title>
<path fill="none" stroke="#63b8ff" d="M363.2,-496.69C357.74,-486.05 351.28,-473.45 344.61,-460.47"/>
<polygon fill="none" stroke="#63b8ff" points="359.93,-497.98 367.61,-505.28 366.16,-494.79 359.93,-497.98"/>
</g>
<!-- Node8 -->
<g id="node8" class="node">
<title>Node8</title>
<g id="a_node8"><a xlink:title=" ">
<polygon fill="white" stroke="#666666" points="575.5,-548 465.5,-548 465.5,-507 575.5,-507 575.5,-548"/>
<text text-anchor="middle" x="520.5" y="-536" font-family="Helvetica,sans-Serif" font-size="10.00">{std::vector&lt; uint8_t &gt;</text>
<text text-anchor="start" x="473.5" y="-525" font-family="Helvetica,sans-Serif" font-size="10.00">|+ elements</text>
<text text-anchor="middle" x="520.5" y="-514" font-family="Helvetica,sans-Serif" font-size="10.00">|}</text>
</a>
</g>
</g>
<!-- Node8&#45;&gt;Node4 -->
<g id="edge7" class="edge">
<title>Node8&#45;&gt;Node4</title>
<path fill="none" stroke="#404040" d="M491.74,-506.63C458.24,-483.48 402.03,-444.64 359.19,-415.05"/>
<polygon fill="none" stroke="#404040" points="359.22,-415.07 352.01,-414.95 349.35,-408.25 356.56,-408.37 359.22,-415.07"/>
<text text-anchor="middle" x="475.5" y="-481" font-family="Helvetica,sans-Serif" font-size="10.00"> &#45;data_</text>
</g>
<!-- Node9 -->
<g id="node9" class="node">
<title>Node9</title>
<g id="a_node9"><a xlink:title=" ">
<polygon fill="white" stroke="#666666" points="564,-625 477,-625 477,-595 564,-595 564,-625"/>
<text text-anchor="middle" x="520.5" y="-613" font-family="Helvetica,sans-Serif" font-size="10.00">{std::vector&lt; T &gt;</text>
<text text-anchor="middle" x="520.5" y="-602" font-family="Helvetica,sans-Serif" font-size="10.00">||}</text>
</a>
</g>
</g>
<!-- Node9&#45;&gt;Node8 -->
<g id="edge8" class="edge">
<title>Node9&#45;&gt;Node8</title>
<path fill="none" stroke="orange" d="M520.5,-583.2C520.5,-571.86 520.5,-558.75 520.5,-548.21"/>
<polygon fill="orange" stroke="orange" points="517,-583.09 520.5,-593.09 524,-583.09 517,-583.09"/>
<text text-anchor="middle" x="545" y="-569" font-family="Helvetica,sans-Serif" font-size="10.00"> &lt; uint8_t &gt;</text>
</g>
<!-- Node10 -->
<g id="node10" class="node">
<title>Node10</title>
<g id="a_node10"><a xlink:title=" ">
<polygon fill="white" stroke="#666666" points="535,-702 506,-702 506,-672 535,-672 535,-702"/>
<text text-anchor="middle" x="520.5" y="-690" font-family="Helvetica,sans-Serif" font-size="10.00">{T</text>
<text text-anchor="middle" x="520.5" y="-679" font-family="Helvetica,sans-Serif" font-size="10.00">||}</text>
</a>
</g>
</g>
<!-- Node10&#45;&gt;Node9 -->
<g id="edge9" class="edge">
<title>Node10&#45;&gt;Node9</title>
<path fill="none" stroke="#404040" d="M520.5,-671.54C520.5,-662.1 520.5,-649.47 520.5,-638.2"/>
<polygon fill="none" stroke="#404040" points="520.5,-638.32 516.5,-632.32 520.5,-626.32 524.5,-632.32 520.5,-638.32"/>
<text text-anchor="middle" x="545" y="-646" font-family="Helvetica,sans-Serif" font-size="10.00"> +elements</text>
</g>
</g>
</svg>
        <g id="navigator" transform="translate(0 0)" fill="#404254">
                <rect fill="#f2f5e9" fill-opacity="0.5" stroke="#606060" stroke-width=".5" x="0" y="0" width="60" height="60"/>
                <use id="zoomplus" xlink:href="#zoomPlus" x="17" y="9" onmousedown="handleZoom(evt,'in')"/>
                <use id="zoomminus" xlink:href="#zoomMin" x="42" y="9" onmousedown="handleZoom(evt,'out')"/>
                <use id="reset" xlink:href="#resetDef" x="30" y="36" onmousedown="handleReset()"/>
                <g id="arrowUp" xlink:href="#dirArrow" transform="translate(30 24)" onmousedown="handlePan(0,-1)">
                  <use xlink:href="#rim" fill="#404040">
                        <set attributeName="fill" to="#808080" begin="arrowUp.mouseover" end="arrowUp.mouseout"/>
                  </use>
                  <path fill="none" stroke="white" stroke-width="1.5" d="M0,-3.0v7 M-2.5,-0.5L0,-3.0L2.5,-0.5"/>
                </g>
                <g id="arrowRight" xlink:href="#dirArrow" transform="rotate(90) translate(36 -43)" onmousedown="handlePan(1,0)">
                  <use xlink:href="#rim" fill="#404040">
                        <set attributeName="fill" to="#808080" begin="arrowRight.mouseover" end="arrowRight.mouseout"/>
                  </use>
                  <path fill="none" stroke="white" stroke-width="1.5" d="M0,-3.0v7 M-2.5,-0.5L0,-3.0L2.5,-0.5"/>
                </g>
                <g id="arrowDown" xlink:href="#dirArrow" transform="rotate(180) translate(-30 -48)" onmousedown="handlePan(0,1)">
                  <use xlink:href="#rim" fill="#404040">
                        <set attributeName="fill" to="#808080" begin="arrowDown.mouseover" end="arrowDown.mouseout"/>
                  </use>
                  <path fill="none" stroke="white" stroke-width="1.5" d="M0,-3.0v7 M-2.5,-0.5L0,-3.0L2.5,-0.5"/>
                </g>
                <g id="arrowLeft" xlink:href="#dirArrow" transform="rotate(270) translate(-36 17)" onmousedown="handlePan(-1,0)">
                  <use xlink:href="#rim" fill="#404040">
                        <set attributeName="fill" to="#808080" begin="arrowLeft.mouseover" end="arrowLeft.mouseout"/>
                  </use>
                  <path fill="none" stroke="white" stroke-width="1.5" d="M0,-3.0v7 M-2.5,-0.5L0,-3.0L2.5,-0.5"/>
                </g>
        </g>
        <svg viewBox="0 0 15 15" width="100%" height="30px" preserveAspectRatio="xMaxYMin meet">
         <g id="arrow_out" transform="scale(0.3 0.3)">
          <a xlink:href="structsgns_1_1storage_1_1trie_1_1_super_genius_node__coll__graph_org.svg" target="_base">
           <rect id="button" ry="5" rx="5" y="6" x="6" height="38" width="38"
                fill="#f2f5e9" fill-opacity="0.5" stroke="#606060" stroke-width="1.0"/>
           <path id="arrow"
             d="M 11.500037,31.436501 C 11.940474,20.09759 22.043105,11.32322 32.158766,21.979434 L 37.068811,17.246167 C 37.068811,17.246167 37.088388,32 37.088388,32 L 22.160133,31.978069 C 22.160133,31.978069 26.997745,27.140456 26.997745,27.140456 C 18.528582,18.264221 13.291696,25.230495 11.500037,31.436501 z"
             style="fill:#404040;"/>
          </a>
         </g>
        </svg>
</svg>
