<?xml version="1.0" encoding="UTF-8" standalone="no"?>
<!DOCTYPE svg PUBLIC "-//W3C//DTD SVG 1.1//EN"
 "http://www.w3.org/Graphics/SVG/1.1/DTD/svg11.dtd">
<!-- Generated by graphviz version 7.0.5 (20221223.1930)
 -->
<!-- Title: sgns::storage::changes_trie::ChangesTrie::KeyIndex Pages: 1 -->
<svg width="584pt" height="522pt"
 viewBox="0.00 0.00 583.50 522.00" xmlns="http://www.w3.org/2000/svg" xmlns:xlink="http://www.w3.org/1999/xlink">
<g id="graph0" class="graph" transform="scale(1 1) rotate(0) translate(4 518)">
<title>sgns::storage::changes_trie::ChangesTrie::KeyIndex</title>
<!-- Node1 -->
<g id="node1" class="node">
<title>Node1</title>
<g id="a_node1"><a xlink:title=" ">
<polygon fill="#999999" stroke="#666666" points="370,-52 231,-52 231,0 370,0 370,-52"/>
<text text-anchor="start" x="239" y="-40" font-family="Helvetica,sans-Serif" font-size="10.00">{sgns::storage::changes</text>
<text text-anchor="middle" x="300.5" y="-29" font-family="Helvetica,sans-Serif" font-size="10.00">_trie::ChangesTrie::KeyIndex</text>
<text text-anchor="start" x="239" y="-18" font-family="Helvetica,sans-Serif" font-size="10.00">|+ block</text>
<text text-anchor="middle" x="300.5" y="-7" font-family="Helvetica,sans-Serif" font-size="10.00">|}</text>
</a>
</g>
</g>
<!-- Node2 -->
<g id="node2" class="node">
<title>Node2</title>
<g id="a_node2"><a xlink:href="classsgns_1_1base_1_1_buffer.html" target="_top" xlink:title="Class represents arbitrary (including empty) byte buffer.">
<polygon fill="white" stroke="#666666" points="348.5,-272 252.5,-272 252.5,-99 348.5,-99 348.5,-272"/>
<text text-anchor="middle" x="300.5" y="-260" font-family="Helvetica,sans-Serif" font-size="10.00">{sgns::base::Buffer</text>
<text text-anchor="start" x="260.5" y="-249" font-family="Helvetica,sans-Serif" font-size="10.00">||+ Buffer()</text>
<text text-anchor="start" x="260.5" y="-238" font-family="Helvetica,sans-Serif" font-size="10.00">+ ~Buffer()</text>
<text text-anchor="start" x="260.5" y="-227" font-family="Helvetica,sans-Serif" font-size="10.00">+ Buffer()</text>
<text text-anchor="start" x="260.5" y="-216" font-family="Helvetica,sans-Serif" font-size="10.00">+ Buffer()</text>
<text text-anchor="start" x="260.5" y="-205" font-family="Helvetica,sans-Serif" font-size="10.00">+ Buffer()</text>
<text text-anchor="start" x="260.5" y="-194" font-family="Helvetica,sans-Serif" font-size="10.00">+ Buffer()</text>
<text text-anchor="start" x="260.5" y="-183" font-family="Helvetica,sans-Serif" font-size="10.00">+ Buffer()</text>
<text text-anchor="start" x="260.5" y="-172" font-family="Helvetica,sans-Serif" font-size="10.00">+ Buffer()</text>
<text text-anchor="start" x="260.5" y="-161" font-family="Helvetica,sans-Serif" font-size="10.00">+ Buffer()</text>
<text text-anchor="start" x="260.5" y="-150" font-family="Helvetica,sans-Serif" font-size="10.00">+ reserve()</text>
<text text-anchor="start" x="260.5" y="-139" font-family="Helvetica,sans-Serif" font-size="10.00">and 32 more...</text>
<text text-anchor="start" x="260.5" y="-128" font-family="Helvetica,sans-Serif" font-size="10.00">+ fromHex()</text>
<text text-anchor="start" x="260.5" y="-117" font-family="Helvetica,sans-Serif" font-size="10.00">&#45; putRange()</text>
<text text-anchor="middle" x="300.5" y="-106" font-family="Helvetica,sans-Serif" font-size="10.00">}</text>
</a>
</g>
</g>
<!-- Node2&#45;&gt;Node1 -->
<g id="edge1" class="edge">
<title>Node2&#45;&gt;Node1</title>
<path fill="none" stroke="#404040" d="M300.5,-98.84C300.5,-87 300.5,-75.37 300.5,-65.03"/>
<polygon fill="none" stroke="#404040" points="300.5,-65.18 296.5,-59.18 300.5,-53.18 304.5,-59.18 300.5,-65.18"/>
<text text-anchor="middle" x="312.5" y="-73" font-family="Helvetica,sans-Serif" font-size="10.00"> +key</text>
</g>
<!-- Node3 -->
<g id="node3" class="node">
<title>Node3</title>
<g id="a_node3"><a xlink:title=" ">
<polygon fill="white" stroke="#666666" points="137,-360 0,-360 0,-319 137,-319 137,-360"/>
<text text-anchor="start" x="8" y="-348" font-family="Helvetica,sans-Serif" font-size="10.00">{boost::equality_comparable</text>
<text text-anchor="middle" x="68.5" y="-337" font-family="Helvetica,sans-Serif" font-size="10.00">&lt; Buffer &gt;</text>
<text text-anchor="middle" x="68.5" y="-326" font-family="Helvetica,sans-Serif" font-size="10.00">||}</text>
</a>
</g>
</g>
<!-- Node3&#45;&gt;Node2 -->
<g id="edge2" class="edge">
<title>Node3&#45;&gt;Node2</title>
<path fill="none" stroke="#63b8ff" d="M108.24,-312.46C148.17,-286.3 209.74,-245.96 252.4,-218.01"/>
<polygon fill="none" stroke="#63b8ff" points="106.54,-309.39 100.1,-317.8 110.38,-315.25 106.54,-309.39"/>
</g>
<!-- Node4 -->
<g id="node4" class="node">
<title>Node4</title>
<g id="a_node4"><a xlink:title=" ">
<polygon fill="white" stroke="#666666" points="292,-360 155,-360 155,-319 292,-319 292,-360"/>
<text text-anchor="start" x="163" y="-348" font-family="Helvetica,sans-Serif" font-size="10.00">{boost::equality_comparable</text>
<text text-anchor="middle" x="223.5" y="-337" font-family="Helvetica,sans-Serif" font-size="10.00">&lt; gsl::span&lt; uint8_t &gt; &gt;</text>
<text text-anchor="middle" x="223.5" y="-326" font-family="Helvetica,sans-Serif" font-size="10.00">||}</text>
</a>
</g>
</g>
<!-- Node4&#45;&gt;Node2 -->
<g id="edge3" class="edge">
<title>Node4&#45;&gt;Node2</title>
<path fill="none" stroke="#63b8ff" d="M238.6,-308.69C243.99,-298.05 250.37,-285.45 256.95,-272.47"/>
<polygon fill="none" stroke="#63b8ff" points="235.65,-306.78 234.25,-317.28 241.89,-309.94 235.65,-306.78"/>
</g>
<!-- Node5 -->
<g id="node5" class="node">
<title>Node5</title>
<g id="a_node5"><a xlink:title=" ">
<polygon fill="white" stroke="#666666" points="447,-360 310,-360 310,-319 447,-319 447,-360"/>
<text text-anchor="start" x="318" y="-348" font-family="Helvetica,sans-Serif" font-size="10.00">{boost::equality_comparable</text>
<text text-anchor="middle" x="378.5" y="-337" font-family="Helvetica,sans-Serif" font-size="10.00">&lt; std::vector&lt; uint8_t &gt; &gt;</text>
<text text-anchor="middle" x="378.5" y="-326" font-family="Helvetica,sans-Serif" font-size="10.00">||}</text>
</a>
</g>
</g>
<!-- Node5&#45;&gt;Node2 -->
<g id="edge4" class="edge">
<title>Node5&#45;&gt;Node2</title>
<path fill="none" stroke="#63b8ff" d="M363.2,-308.69C357.74,-298.05 351.28,-285.45 344.61,-272.47"/>
<polygon fill="none" stroke="#63b8ff" points="359.93,-309.98 367.61,-317.28 366.16,-306.79 359.93,-309.98"/>
</g>
<!-- Node6 -->
<g id="node6" class="node">
<title>Node6</title>
<g id="a_node6"><a xlink:title=" ">
<polygon fill="white" stroke="#666666" points="575.5,-360 465.5,-360 465.5,-319 575.5,-319 575.5,-360"/>
<text text-anchor="middle" x="520.5" y="-348" font-family="Helvetica,sans-Serif" font-size="10.00">{std::vector&lt; uint8_t &gt;</text>
<text text-anchor="start" x="473.5" y="-337" font-family="Helvetica,sans-Serif" font-size="10.00">|+ elements</text>
<text text-anchor="middle" x="520.5" y="-326" font-family="Helvetica,sans-Serif" font-size="10.00">|}</text>
</a>
</g>
</g>
<!-- Node6&#45;&gt;Node2 -->
<g id="edge5" class="edge">
<title>Node6&#45;&gt;Node2</title>
<path fill="none" stroke="#404040" d="M491.74,-318.63C458.24,-295.48 402.03,-256.64 359.19,-227.05"/>
<polygon fill="none" stroke="#404040" points="359.22,-227.07 352.01,-226.95 349.35,-220.25 356.56,-220.37 359.22,-227.07"/>
<text text-anchor="middle" x="475.5" y="-293" font-family="Helvetica,sans-Serif" font-size="10.00"> &#45;data_</text>
</g>
<!-- Node7 -->
<g id="node7" class="node">
<title>Node7</title>
<g id="a_node7"><a xlink:title=" ">
<polygon fill="white" stroke="#666666" points="564,-437 477,-437 477,-407 564,-407 564,-437"/>
<text text-anchor="middle" x="520.5" y="-425" font-family="Helvetica,sans-Serif" font-size="10.00">{std::vector&lt; T &gt;</text>
<text text-anchor="middle" x="520.5" y="-414" font-family="Helvetica,sans-Serif" font-size="10.00">||}</text>
</a>
</g>
</g>
<!-- Node7&#45;&gt;Node6 -->
<g id="edge6" class="edge">
<title>Node7&#45;&gt;Node6</title>
<path fill="none" stroke="orange" d="M520.5,-395.2C520.5,-383.86 520.5,-370.75 520.5,-360.21"/>
<polygon fill="orange" stroke="orange" points="517,-395.09 520.5,-405.09 524,-395.09 517,-395.09"/>
<text text-anchor="middle" x="545" y="-381" font-family="Helvetica,sans-Serif" font-size="10.00"> &lt; uint8_t &gt;</text>
</g>
<!-- Node8 -->
<g id="node8" class="node">
<title>Node8</title>
<g id="a_node8"><a xlink:title=" ">
<polygon fill="white" stroke="#666666" points="535,-514 506,-514 506,-484 535,-484 535,-514"/>
<text text-anchor="middle" x="520.5" y="-502" font-family="Helvetica,sans-Serif" font-size="10.00">{T</text>
<text text-anchor="middle" x="520.5" y="-491" font-family="Helvetica,sans-Serif" font-size="10.00">||}</text>
</a>
</g>
</g>
<!-- Node8&#45;&gt;Node7 -->
<g id="edge7" class="edge">
<title>Node8&#45;&gt;Node7</title>
<path fill="none" stroke="#404040" d="M520.5,-483.54C520.5,-474.1 520.5,-461.47 520.5,-450.2"/>
<polygon fill="none" stroke="#404040" points="520.5,-450.32 516.5,-444.32 520.5,-438.32 524.5,-444.32 520.5,-450.32"/>
<text text-anchor="middle" x="545" y="-458" font-family="Helvetica,sans-Serif" font-size="10.00"> +elements</text>
</g>
</g>
</svg>
