<?xml version="1.0" encoding="UTF-8" standalone="no"?>
<!DOCTYPE svg PUBLIC "-//W3C//DTD SVG 1.1//EN"
 "http://www.w3.org/Graphics/SVG/1.1/DTD/svg11.dtd">
<!-- Generated by graphviz version 7.0.5 (20221223.1930)
 -->
<!-- Title: sgns::network::BlockAnnounce Pages: 1 -->
<svg width="328pt" height="695pt"
 viewBox="0.00 0.00 327.50 695.00" xmlns="http://www.w3.org/2000/svg" xmlns:xlink="http://www.w3.org/1999/xlink">
<g id="graph0" class="graph" transform="scale(1 1) rotate(0) translate(4 691)">
<title>sgns::network::BlockAnnounce</title>
<!-- Node1 -->
<g id="node1" class="node">
<title>Node1</title>
<g id="a_node1"><a xlink:title=" ">
<polygon fill="#999999" stroke="#666666" points="233.5,-30 81.5,-30 81.5,0 233.5,0 233.5,-30"/>
<text text-anchor="middle" x="157.5" y="-18" font-family="Helvetica,sans-Serif" font-size="10.00">{sgns::network::BlockAnnounce</text>
<text text-anchor="middle" x="157.5" y="-7" font-family="Helvetica,sans-Serif" font-size="10.00">||}</text>
</a>
</g>
</g>
<!-- Node2 -->
<g id="node2" class="node">
<title>Node2</title>
<g id="a_node2"><a xlink:href="structsgns_1_1primitives_1_1_block_header.html" target="_top" xlink:title=" ">
<polygon fill="white" stroke="#666666" points="231.5,-140 83.5,-140 83.5,-77 231.5,-77 231.5,-140"/>
<text text-anchor="middle" x="157.5" y="-128" font-family="Helvetica,sans-Serif" font-size="10.00">{sgns::primitives::BlockHeader</text>
<text text-anchor="start" x="91.5" y="-117" font-family="Helvetica,sans-Serif" font-size="10.00">|+ number</text>
<text text-anchor="start" x="91.5" y="-106" font-family="Helvetica,sans-Serif" font-size="10.00">|+ operator==()</text>
<text text-anchor="start" x="91.5" y="-95" font-family="Helvetica,sans-Serif" font-size="10.00">+ operator!=()</text>
<text text-anchor="middle" x="157.5" y="-84" font-family="Helvetica,sans-Serif" font-size="10.00">}</text>
</a>
</g>
</g>
<!-- Node2&#45;&gt;Node1 -->
<g id="edge1" class="edge">
<title>Node2&#45;&gt;Node1</title>
<path fill="none" stroke="#404040" d="M157.5,-76.52C157.5,-65.56 157.5,-53.34 157.5,-42.76"/>
<polygon fill="none" stroke="#404040" points="157.5,-42.95 153.5,-36.95 157.5,-30.95 161.5,-36.95 157.5,-42.95"/>
<text text-anchor="middle" x="176.5" y="-51" font-family="Helvetica,sans-Serif" font-size="10.00"> +header</text>
</g>
<!-- Node3 -->
<g id="node3" class="node">
<title>Node3</title>
<g id="a_node3"><a xlink:href="classsgns_1_1base_1_1_blob.html" target="_top" xlink:title=" ">
<polygon fill="white" stroke="#666666" points="129,-533 0,-533 0,-404 129,-404 129,-533"/>
<text text-anchor="middle" x="64.5" y="-521" font-family="Helvetica,sans-Serif" font-size="10.00">{sgns::base::Blob&lt; size_ &gt;</text>
<text text-anchor="start" x="8" y="-510" font-family="Helvetica,sans-Serif" font-size="10.00">||+ Blob()</text>
<text text-anchor="start" x="8" y="-499" font-family="Helvetica,sans-Serif" font-size="10.00">+ Blob()</text>
<text text-anchor="start" x="8" y="-488" font-family="Helvetica,sans-Serif" font-size="10.00">+ toString()</text>
<text text-anchor="start" x="8" y="-477" font-family="Helvetica,sans-Serif" font-size="10.00">+ toHex()</text>
<text text-anchor="start" x="8" y="-466" font-family="Helvetica,sans-Serif" font-size="10.00">+ size()</text>
<text text-anchor="start" x="8" y="-455" font-family="Helvetica,sans-Serif" font-size="10.00">+ fromString()</text>
<text text-anchor="start" x="8" y="-444" font-family="Helvetica,sans-Serif" font-size="10.00">+ fromHex()</text>
<text text-anchor="start" x="8" y="-433" font-family="Helvetica,sans-Serif" font-size="10.00">+ fromHexWithPrefix()</text>
<text text-anchor="start" x="8" y="-422" font-family="Helvetica,sans-Serif" font-size="10.00">+ fromSpan()</text>
<text text-anchor="middle" x="64.5" y="-411" font-family="Helvetica,sans-Serif" font-size="10.00">}</text>
</a>
</g>
</g>
<!-- Node3&#45;&gt;Node2 -->
<g id="edge2" class="edge">
<title>Node3&#45;&gt;Node2</title>
<path fill="none" stroke="#404040" d="M35.26,-403.58C13.72,-346.48 -6.45,-262.19 27.5,-198 38.49,-177.23 56.78,-160.42 76.22,-147.26"/>
<polygon fill="none" stroke="#404040" points="76.23,-147.26 79.13,-140.66 86.34,-140.81 83.44,-147.41 76.23,-147.26"/>
<text text-anchor="middle" x="58.5" y="-260" font-family="Helvetica,sans-Serif" font-size="10.00"> +parent_hash</text>
</g>
<!-- Node6 -->
<g id="node6" class="node">
<title>Node6</title>
<g id="a_node6"><a xlink:href="classsgns_1_1base_1_1_blob.html" target="_top" xlink:title=" ">
<polygon fill="white" stroke="#666666" points="216,-327 99,-327 99,-198 216,-198 216,-327"/>
<text text-anchor="middle" x="157.5" y="-315" font-family="Helvetica,sans-Serif" font-size="10.00">{sgns::base::Blob&lt; 32 &gt;</text>
<text text-anchor="start" x="107" y="-304" font-family="Helvetica,sans-Serif" font-size="10.00">||+ Blob()</text>
<text text-anchor="start" x="107" y="-293" font-family="Helvetica,sans-Serif" font-size="10.00">+ Blob()</text>
<text text-anchor="start" x="107" y="-282" font-family="Helvetica,sans-Serif" font-size="10.00">+ toString()</text>
<text text-anchor="start" x="107" y="-271" font-family="Helvetica,sans-Serif" font-size="10.00">+ toHex()</text>
<text text-anchor="start" x="107" y="-260" font-family="Helvetica,sans-Serif" font-size="10.00">+ size()</text>
<text text-anchor="start" x="107" y="-249" font-family="Helvetica,sans-Serif" font-size="10.00">+ fromString()</text>
<text text-anchor="start" x="107" y="-238" font-family="Helvetica,sans-Serif" font-size="10.00">+ fromHex()</text>
<text text-anchor="start" x="107" y="-227" font-family="Helvetica,sans-Serif" font-size="10.00">+ fromHexWithPrefix()</text>
<text text-anchor="start" x="107" y="-216" font-family="Helvetica,sans-Serif" font-size="10.00">+ fromSpan()</text>
<text text-anchor="middle" x="157.5" y="-205" font-family="Helvetica,sans-Serif" font-size="10.00">}</text>
</a>
</g>
</g>
<!-- Node3&#45;&gt;Node6 -->
<g id="edge7" class="edge">
<title>Node3&#45;&gt;Node6</title>
<path fill="none" stroke="orange" d="M92.63,-393.22C99.14,-377.17 106.29,-360.4 113.5,-345 116.23,-339.17 119.18,-333.18 122.21,-327.21"/>
<polygon fill="orange" stroke="orange" points="89.48,-391.66 89,-402.24 95.98,-394.26 89.48,-391.66"/>
<text text-anchor="middle" x="128.5" y="-363" font-family="Helvetica,sans-Serif" font-size="10.00"> &lt; 32 &gt;</text>
</g>
<!-- Node4 -->
<g id="node4" class="node">
<title>Node4</title>
<g id="a_node4"><a xlink:title=" ">
<polygon fill="white" stroke="#666666" points="191,-610 110,-610 110,-580 191,-580 191,-610"/>
<text text-anchor="middle" x="150.5" y="-598" font-family="Helvetica,sans-Serif" font-size="10.00">{std::array&lt; T &gt;</text>
<text text-anchor="middle" x="150.5" y="-587" font-family="Helvetica,sans-Serif" font-size="10.00">||}</text>
</a>
</g>
</g>
<!-- Node4&#45;&gt;Node3 -->
<g id="edge3" class="edge">
<title>Node4&#45;&gt;Node3</title>
<path fill="none" stroke="#63b8ff" d="M134.17,-570.35C126.81,-559.71 117.74,-546.58 108.61,-533.35"/>
<polygon fill="none" stroke="#63b8ff" points="131.21,-572.23 139.77,-578.47 136.97,-568.26 131.21,-572.23"/>
</g>
<!-- Node4&#45;&gt;Node6 -->
<g id="edge6" class="edge">
<title>Node4&#45;&gt;Node6</title>
<path fill="none" stroke="#63b8ff" d="M151.04,-568.53C152.12,-517.3 154.6,-400.46 156.15,-327.17"/>
<polygon fill="none" stroke="#63b8ff" points="147.55,-568.21 150.83,-578.29 154.54,-568.36 147.55,-568.21"/>
</g>
<!-- Node5 -->
<g id="node5" class="node">
<title>Node5</title>
<g id="a_node5"><a xlink:title=" ">
<polygon fill="white" stroke="#666666" points="216,-687 187,-687 187,-657 216,-657 216,-687"/>
<text text-anchor="middle" x="201.5" y="-675" font-family="Helvetica,sans-Serif" font-size="10.00">{T</text>
<text text-anchor="middle" x="201.5" y="-664" font-family="Helvetica,sans-Serif" font-size="10.00">||}</text>
</a>
</g>
</g>
<!-- Node5&#45;&gt;Node4 -->
<g id="edge4" class="edge">
<title>Node5&#45;&gt;Node4</title>
<path fill="none" stroke="#404040" d="M187.66,-656.6C182.89,-651.28 177.7,-645.07 173.5,-639 169.78,-633.63 166.22,-627.58 163.05,-621.76"/>
<polygon fill="none" stroke="#404040" points="163.11,-621.88 156.8,-618.38 157.6,-611.22 163.9,-614.71 163.11,-621.88"/>
<text text-anchor="middle" x="198" y="-631" font-family="Helvetica,sans-Serif" font-size="10.00"> +elements</text>
</g>
<!-- Node8 -->
<g id="node8" class="node">
<title>Node8</title>
<g id="a_node8"><a xlink:title=" ">
<polygon fill="white" stroke="#666666" points="296,-610 209,-610 209,-580 296,-580 296,-610"/>
<text text-anchor="middle" x="252.5" y="-598" font-family="Helvetica,sans-Serif" font-size="10.00">{std::vector&lt; T &gt;</text>
<text text-anchor="middle" x="252.5" y="-587" font-family="Helvetica,sans-Serif" font-size="10.00">||}</text>
</a>
</g>
</g>
<!-- Node5&#45;&gt;Node8 -->
<g id="edge10" class="edge">
<title>Node5&#45;&gt;Node8</title>
<path fill="none" stroke="#404040" d="M211.33,-656.54C218.18,-646.47 227.48,-632.8 235.51,-620.99"/>
<polygon fill="none" stroke="#404040" points="235.44,-621.08 235.51,-613.87 242.19,-611.16 242.12,-618.37 235.44,-621.08"/>
<text text-anchor="middle" x="255" y="-631" font-family="Helvetica,sans-Serif" font-size="10.00"> +elements</text>
</g>
<!-- Node6&#45;&gt;Node2 -->
<g id="edge5" class="edge">
<title>Node6&#45;&gt;Node2</title>
<path fill="none" stroke="#404040" d="M157.5,-197.92C157.5,-182.75 157.5,-166.91 157.5,-152.89"/>
<polygon fill="none" stroke="#404040" points="157.5,-153 153.5,-147 157.5,-141 161.5,-147 157.5,-153"/>
<text text-anchor="middle" x="193.5" y="-172" font-family="Helvetica,sans-Serif" font-size="10.00"> +extrinsics_root</text>
<text text-anchor="middle" x="193.5" y="-161" font-family="Helvetica,sans-Serif" font-size="10.00">+state_root</text>
</g>
<!-- Node7 -->
<g id="node7" class="node">
<title>Node7</title>
<g id="a_node7"><a xlink:title=" ">
<polygon fill="white" stroke="#666666" points="316.5,-386 188.5,-386 188.5,-345 316.5,-345 316.5,-386"/>
<text text-anchor="middle" x="252.5" y="-374" font-family="Helvetica,sans-Serif" font-size="10.00">{std::vector&lt; DigestItem &gt;</text>
<text text-anchor="start" x="196.5" y="-363" font-family="Helvetica,sans-Serif" font-size="10.00">|+ elements</text>
<text text-anchor="middle" x="252.5" y="-352" font-family="Helvetica,sans-Serif" font-size="10.00">|}</text>
</a>
</g>
</g>
<!-- Node7&#45;&gt;Node2 -->
<g id="edge8" class="edge">
<title>Node7&#45;&gt;Node2</title>
<path fill="none" stroke="#404040" d="M256.09,-344.53C262.02,-305.48 269.84,-217.64 233.5,-158 231.65,-154.97 229.54,-152.1 227.22,-149.38"/>
<polygon fill="none" stroke="#404040" points="227.15,-149.31 220.08,-147.9 218.66,-140.83 225.73,-142.24 227.15,-149.31"/>
<text text-anchor="middle" x="279" y="-260" font-family="Helvetica,sans-Serif" font-size="10.00"> +digest</text>
</g>
<!-- Node8&#45;&gt;Node7 -->
<g id="edge9" class="edge">
<title>Node8&#45;&gt;Node7</title>
<path fill="none" stroke="orange" d="M252.5,-568.51C252.5,-522.78 252.5,-427.7 252.5,-386.39"/>
<polygon fill="orange" stroke="orange" points="249,-568.26 252.5,-578.26 256,-568.26 249,-568.26"/>
<text text-anchor="middle" x="286" y="-554" font-family="Helvetica,sans-Serif" font-size="10.00"> &lt; DigestItem &gt;</text>
</g>
</g>
</svg>
