<?xml version="1.0" encoding="UTF-8" standalone="no"?>
<!DOCTYPE svg PUBLIC "-//W3C//DTD SVG 1.1//EN"
 "http://www.w3.org/Graphics/SVG/1.1/DTD/svg11.dtd">
<!-- Generated by graphviz version 7.0.5 (20221223.1930)
 -->
<!-- Title: sgns::network::BlocksResponse Pages: 1 -->
<svg width="268pt" height="640pt"
 viewBox="0.00 0.00 267.50 640.00" xmlns="http://www.w3.org/2000/svg" xmlns:xlink="http://www.w3.org/1999/xlink">
<g id="graph0" class="graph" transform="scale(1 1) rotate(0) translate(4 636)">
<title>sgns::network::BlocksResponse</title>
<!-- Node1 -->
<g id="node1" class="node">
<title>Node1</title>
<g id="a_node1"><a xlink:title=" ">
<polygon fill="#999999" stroke="#666666" points="196.5,-41 38.5,-41 38.5,0 196.5,0 196.5,-41"/>
<text text-anchor="middle" x="117.5" y="-29" font-family="Helvetica,sans-Serif" font-size="10.00">{sgns::network::BlocksResponse</text>
<text text-anchor="start" x="46.5" y="-18" font-family="Helvetica,sans-Serif" font-size="10.00">|+ id</text>
<text text-anchor="middle" x="117.5" y="-7" font-family="Helvetica,sans-Serif" font-size="10.00">|}</text>
</a>
</g>
</g>
<!-- Node2 -->
<g id="node2" class="node">
<title>Node2</title>
<g id="a_node2"><a xlink:title=" ">
<polygon fill="white" stroke="#666666" points="175.5,-129 59.5,-129 59.5,-88 175.5,-88 175.5,-129"/>
<text text-anchor="start" x="67.5" y="-117" font-family="Helvetica,sans-Serif" font-size="10.00">{std::vector&lt; sgns::</text>
<text text-anchor="middle" x="117.5" y="-106" font-family="Helvetica,sans-Serif" font-size="10.00">primitives::BlockData &gt;</text>
<text text-anchor="middle" x="117.5" y="-95" font-family="Helvetica,sans-Serif" font-size="10.00">||}</text>
</a>
</g>
</g>
<!-- Node2&#45;&gt;Node1 -->
<g id="edge1" class="edge">
<title>Node2&#45;&gt;Node1</title>
<path fill="none" stroke="#404040" d="M117.5,-87.55C117.5,-77.68 117.5,-65.49 117.5,-54.29"/>
<polygon fill="none" stroke="#404040" points="117.5,-54.24 113.5,-48.24 117.5,-42.24 121.5,-48.24 117.5,-54.24"/>
<text text-anchor="middle" x="136" y="-62" font-family="Helvetica,sans-Serif" font-size="10.00"> +blocks</text>
</g>
<!-- Node3 -->
<g id="node3" class="node">
<title>Node3</title>
<g id="a_node3"><a xlink:href="structsgns_1_1primitives_1_1_block_data.html" target="_top" xlink:title=" ">
<polygon fill="white" stroke="#666666" points="137,-272 0,-272 0,-176 137,-176 137,-272"/>
<text text-anchor="middle" x="68.5" y="-260" font-family="Helvetica,sans-Serif" font-size="10.00">{sgns::primitives::BlockData</text>
<text text-anchor="start" x="8" y="-249" font-family="Helvetica,sans-Serif" font-size="10.00">|+ header</text>
<text text-anchor="start" x="8" y="-238" font-family="Helvetica,sans-Serif" font-size="10.00">+ body</text>
<text text-anchor="start" x="8" y="-227" font-family="Helvetica,sans-Serif" font-size="10.00">+ receipt</text>
<text text-anchor="start" x="8" y="-216" font-family="Helvetica,sans-Serif" font-size="10.00">+ message_queue</text>
<text text-anchor="start" x="8" y="-205" font-family="Helvetica,sans-Serif" font-size="10.00">+ justification</text>
<text text-anchor="start" x="8" y="-194" font-family="Helvetica,sans-Serif" font-size="10.00">|+ toBlock()</text>
<text text-anchor="middle" x="68.5" y="-183" font-family="Helvetica,sans-Serif" font-size="10.00">}</text>
</a>
</g>
</g>
<!-- Node3&#45;&gt;Node2 -->
<g id="edge2" class="edge">
<title>Node3&#45;&gt;Node2</title>
<path fill="none" stroke="#404040" d="M89,-175.52C94.01,-163.91 99.25,-151.76 103.86,-141.1"/>
<polygon fill="none" stroke="#404040" points="103.8,-141.23 102.51,-134.14 108.56,-130.22 109.85,-137.31 103.8,-141.23"/>
<text text-anchor="middle" x="125" y="-150" font-family="Helvetica,sans-Serif" font-size="10.00"> +elements</text>
</g>
<!-- Node4 -->
<g id="node4" class="node">
<title>Node4</title>
<g id="a_node4"><a xlink:href="classsgns_1_1base_1_1_blob.html" target="_top" xlink:title=" ">
<polygon fill="white" stroke="#666666" points="136,-459 7,-459 7,-330 136,-330 136,-459"/>
<text text-anchor="middle" x="71.5" y="-447" font-family="Helvetica,sans-Serif" font-size="10.00">{sgns::base::Blob&lt; size_ &gt;</text>
<text text-anchor="start" x="15" y="-436" font-family="Helvetica,sans-Serif" font-size="10.00">||+ Blob()</text>
<text text-anchor="start" x="15" y="-425" font-family="Helvetica,sans-Serif" font-size="10.00">+ Blob()</text>
<text text-anchor="start" x="15" y="-414" font-family="Helvetica,sans-Serif" font-size="10.00">+ toString()</text>
<text text-anchor="start" x="15" y="-403" font-family="Helvetica,sans-Serif" font-size="10.00">+ toHex()</text>
<text text-anchor="start" x="15" y="-392" font-family="Helvetica,sans-Serif" font-size="10.00">+ size()</text>
<text text-anchor="start" x="15" y="-381" font-family="Helvetica,sans-Serif" font-size="10.00">+ fromString()</text>
<text text-anchor="start" x="15" y="-370" font-family="Helvetica,sans-Serif" font-size="10.00">+ fromHex()</text>
<text text-anchor="start" x="15" y="-359" font-family="Helvetica,sans-Serif" font-size="10.00">+ fromHexWithPrefix()</text>
<text text-anchor="start" x="15" y="-348" font-family="Helvetica,sans-Serif" font-size="10.00">+ fromSpan()</text>
<text text-anchor="middle" x="71.5" y="-337" font-family="Helvetica,sans-Serif" font-size="10.00">}</text>
</a>
</g>
</g>
<!-- Node4&#45;&gt;Node3 -->
<g id="edge3" class="edge">
<title>Node4&#45;&gt;Node3</title>
<path fill="none" stroke="#404040" d="M70.37,-329.8C70.11,-315.17 69.83,-299.66 69.57,-285.19"/>
<polygon fill="none" stroke="#404040" points="69.57,-285.14 65.46,-279.21 69.36,-273.14 73.46,-279.07 69.57,-285.14"/>
<text text-anchor="middle" x="85.5" y="-298.5" font-family="Helvetica,sans-Serif" font-size="10.00"> +hash</text>
</g>
<!-- Node5 -->
<g id="node5" class="node">
<title>Node5</title>
<g id="a_node5"><a xlink:title=" ">
<polygon fill="white" stroke="#666666" points="127,-555 46,-555 46,-525 127,-525 127,-555"/>
<text text-anchor="middle" x="86.5" y="-543" font-family="Helvetica,sans-Serif" font-size="10.00">{std::array&lt; T &gt;</text>
<text text-anchor="middle" x="86.5" y="-532" font-family="Helvetica,sans-Serif" font-size="10.00">||}</text>
</a>
</g>
</g>
<!-- Node5&#45;&gt;Node4 -->
<g id="edge4" class="edge">
<title>Node5&#45;&gt;Node4</title>
<path fill="none" stroke="#63b8ff" d="M83.81,-513.28C82.24,-498.21 80.17,-478.45 78.18,-459.44"/>
<polygon fill="none" stroke="#63b8ff" points="80.33,-513.63 84.85,-523.21 87.29,-512.9 80.33,-513.63"/>
</g>
<!-- Node6 -->
<g id="node6" class="node">
<title>Node6</title>
<g id="a_node6"><a xlink:title=" ">
<polygon fill="white" stroke="#666666" points="140,-632 111,-632 111,-602 140,-602 140,-632"/>
<text text-anchor="middle" x="125.5" y="-620" font-family="Helvetica,sans-Serif" font-size="10.00">{T</text>
<text text-anchor="middle" x="125.5" y="-609" font-family="Helvetica,sans-Serif" font-size="10.00">||}</text>
</a>
</g>
</g>
<!-- Node6&#45;&gt;Node5 -->
<g id="edge5" class="edge">
<title>Node6&#45;&gt;Node5</title>
<path fill="none" stroke="#404040" d="M110.61,-605.86C103.61,-600.27 95.87,-592.69 91.5,-584 89.06,-579.15 87.6,-573.62 86.76,-568.17"/>
<polygon fill="none" stroke="#404040" points="86.76,-568.12 82.3,-562.45 85.82,-556.15 90.28,-561.82 86.76,-568.12"/>
<text text-anchor="middle" x="116" y="-576" font-family="Helvetica,sans-Serif" font-size="10.00"> +elements</text>
</g>
<!-- Node7 -->
<g id="node7" class="node">
<title>Node7</title>
<g id="a_node7"><a xlink:title=" ">
<polygon fill="white" stroke="#666666" points="207,-507 120,-507 120,-477 207,-477 207,-507"/>
<text text-anchor="middle" x="163.5" y="-495" font-family="Helvetica,sans-Serif" font-size="10.00">{std::vector&lt; T &gt;</text>
<text text-anchor="middle" x="163.5" y="-484" font-family="Helvetica,sans-Serif" font-size="10.00">||}</text>
</a>
</g>
</g>
<!-- Node6&#45;&gt;Node7 -->
<g id="edge7" class="edge">
<title>Node6&#45;&gt;Node7</title>
<path fill="none" stroke="#404040" d="M132.97,-601.59C135.59,-596.17 138.4,-589.89 140.5,-584 148.01,-562.97 154.07,-538.37 158.08,-520.05"/>
<polygon fill="none" stroke="#404040" points="158.08,-520.06 155.4,-513.37 160.55,-508.32 163.23,-515.01 158.08,-520.06"/>
<text text-anchor="middle" x="169" y="-576" font-family="Helvetica,sans-Serif" font-size="10.00"> +elements</text>
</g>
<!-- Node7&#45;&gt;Node2 -->
<g id="edge6" class="edge">
<title>Node7&#45;&gt;Node2</title>
<path fill="none" stroke="orange" d="M168.37,-465.36C178.36,-406.48 196.62,-258.14 151.5,-147 148.92,-140.65 144.76,-134.69 140.21,-129.47"/>
<polygon fill="orange" stroke="orange" points="164.96,-464.57 166.66,-475.03 171.85,-465.79 164.96,-464.57"/>
<text text-anchor="start" x="180.5" y="-304" font-family="Helvetica,sans-Serif" font-size="10.00"> &lt; sgns::primitives</text>
<text text-anchor="middle" x="220" y="-293" font-family="Helvetica,sans-Serif" font-size="10.00">::BlockData &gt;</text>
</g>
</g>
</svg>
