<?xml version="1.0" encoding="UTF-8" standalone="no"?>
<!DOCTYPE svg PUBLIC "-//W3C//DTD SVG 1.1//EN"
 "http://www.w3.org/Graphics/SVG/1.1/DTD/svg11.dtd">
<!-- Generated by graphviz version 7.0.5 (20221223.1930)
 -->
<!-- Title: sgns::storage::face::GenericStorage&lt; K, V &gt; Pages: 1 -->
<svg width="476pt" height="753pt"
 viewBox="0.00 0.00 475.50 753.00" xmlns="http://www.w3.org/2000/svg" xmlns:xlink="http://www.w3.org/1999/xlink">
<g id="graph0" class="graph" transform="scale(1 1) rotate(0) translate(4 749)">
<title>sgns::storage::face::GenericStorage&lt; K, V &gt;</title>
<!-- Node1 -->
<g id="node1" class="node">
<title>Node1</title>
<g id="a_node1"><a xlink:title="An abstraction over readable, writeable, iterable key&#45;value storage that supports write batches.">
<polygon fill="#999999" stroke="#666666" points="296,-547 172,-547 172,-506 296,-506 296,-547"/>
<text text-anchor="start" x="180" y="-535" font-family="Helvetica,sans-Serif" font-size="10.00">{sgns::storage::face</text>
<text text-anchor="middle" x="234" y="-524" font-family="Helvetica,sans-Serif" font-size="10.00">::GenericStorage&lt; K, V &gt;</text>
<text text-anchor="middle" x="234" y="-513" font-family="Helvetica,sans-Serif" font-size="10.00">||}</text>
</a>
</g>
</g>
<!-- Node8 -->
<g id="node8" class="node">
<title>Node8</title>
<g id="a_node8"><a xlink:href="classsgns_1_1storage_1_1_in_memory_storage.html" target="_top" xlink:title=" ">
<polygon fill="white" stroke="#666666" points="158,-420.5 0,-420.5 0,-269.5 158,-269.5 158,-420.5"/>
<text text-anchor="start" x="8" y="-408.5" font-family="Helvetica,sans-Serif" font-size="10.00">{sgns::storage::InMemoryStorage</text>
<text text-anchor="middle" x="79" y="-397.5" font-family="Helvetica,sans-Serif" font-size="10.00">&lt; Buffer, Buffer &gt;</text>
<text text-anchor="start" x="8" y="-386.5" font-family="Helvetica,sans-Serif" font-size="10.00">|&#45; storage</text>
<text text-anchor="start" x="8" y="-375.5" font-family="Helvetica,sans-Serif" font-size="10.00">|+ ~InMemoryStorage()</text>
<text text-anchor="start" x="8" y="-364.5" font-family="Helvetica,sans-Serif" font-size="10.00">+ get()</text>
<text text-anchor="start" x="8" y="-353.5" font-family="Helvetica,sans-Serif" font-size="10.00">+ put()</text>
<text text-anchor="start" x="8" y="-342.5" font-family="Helvetica,sans-Serif" font-size="10.00">+ put()</text>
<text text-anchor="start" x="8" y="-331.5" font-family="Helvetica,sans-Serif" font-size="10.00">+ contains()</text>
<text text-anchor="start" x="8" y="-320.5" font-family="Helvetica,sans-Serif" font-size="10.00">+ empty()</text>
<text text-anchor="start" x="8" y="-309.5" font-family="Helvetica,sans-Serif" font-size="10.00">+ remove()</text>
<text text-anchor="start" x="8" y="-298.5" font-family="Helvetica,sans-Serif" font-size="10.00">+ batch()</text>
<text text-anchor="start" x="8" y="-287.5" font-family="Helvetica,sans-Serif" font-size="10.00">+ cursor()</text>
<text text-anchor="middle" x="79" y="-276.5" font-family="Helvetica,sans-Serif" font-size="10.00">}</text>
</a>
</g>
</g>
<!-- Node1&#45;&gt;Node8 -->
<g id="edge7" class="edge">
<title>Node1&#45;&gt;Node8</title>
<path fill="none" stroke="#63b8ff" d="M197.86,-498.46C187.39,-489.89 176.3,-480.02 167,-470 153.08,-455 139.53,-437.72 127.39,-420.92"/>
<polygon fill="none" stroke="#63b8ff" points="195.65,-501.18 205.64,-504.69 200.02,-495.71 195.65,-501.18"/>
</g>
<!-- Node9 -->
<g id="node9" class="node">
<title>Node9</title>
<g id="a_node9"><a xlink:href="classsgns_1_1storage_1_1rocksdb.html" target="_top" xlink:title="An implementation of PersistentBufferMap interface, which uses rocksdb as underlying storage.">
<polygon fill="white" stroke="#666666" points="292,-470 176,-470 176,-220 292,-220 292,-470"/>
<text text-anchor="start" x="184" y="-458" font-family="Helvetica,sans-Serif" font-size="10.00">{sgns::storage::rocksdb</text>
<text text-anchor="middle" x="234" y="-447" font-family="Helvetica,sans-Serif" font-size="10.00">&lt; Buffer, Buffer &gt;</text>
<text text-anchor="start" x="184" y="-436" font-family="Helvetica,sans-Serif" font-size="10.00">|&#45; db_</text>
<text text-anchor="start" x="184" y="-425" font-family="Helvetica,sans-Serif" font-size="10.00">&#45; ro_</text>
<text text-anchor="start" x="184" y="-414" font-family="Helvetica,sans-Serif" font-size="10.00">&#45; wo_</text>
<text text-anchor="start" x="184" y="-403" font-family="Helvetica,sans-Serif" font-size="10.00">&#45; logger_</text>
<text text-anchor="start" x="184" y="-392" font-family="Helvetica,sans-Serif" font-size="10.00">|+ ~rocksdb()</text>
<text text-anchor="start" x="184" y="-381" font-family="Helvetica,sans-Serif" font-size="10.00">+ setReadOptions()</text>
<text text-anchor="start" x="184" y="-370" font-family="Helvetica,sans-Serif" font-size="10.00">+ setWriteOptions()</text>
<text text-anchor="start" x="184" y="-359" font-family="Helvetica,sans-Serif" font-size="10.00">+ cursor()</text>
<text text-anchor="start" x="184" y="-348" font-family="Helvetica,sans-Serif" font-size="10.00">+ batch()</text>
<text text-anchor="start" x="184" y="-337" font-family="Helvetica,sans-Serif" font-size="10.00">+ get()</text>
<text text-anchor="start" x="184" y="-326" font-family="Helvetica,sans-Serif" font-size="10.00">+ query()</text>
<text text-anchor="start" x="184" y="-315" font-family="Helvetica,sans-Serif" font-size="10.00">+ contains()</text>
<text text-anchor="start" x="184" y="-304" font-family="Helvetica,sans-Serif" font-size="10.00">+ empty()</text>
<text text-anchor="start" x="184" y="-293" font-family="Helvetica,sans-Serif" font-size="10.00">+ put()</text>
<text text-anchor="start" x="184" y="-282" font-family="Helvetica,sans-Serif" font-size="10.00">+ put()</text>
<text text-anchor="start" x="184" y="-271" font-family="Helvetica,sans-Serif" font-size="10.00">+ remove()</text>
<text text-anchor="start" x="184" y="-260" font-family="Helvetica,sans-Serif" font-size="10.00">+ getDB()</text>
<text text-anchor="start" x="184" y="-249" font-family="Helvetica,sans-Serif" font-size="10.00">+ create()</text>
<text text-anchor="start" x="184" y="-238" font-family="Helvetica,sans-Serif" font-size="10.00">+ create()</text>
<text text-anchor="middle" x="234" y="-227" font-family="Helvetica,sans-Serif" font-size="10.00">}</text>
</a>
</g>
</g>
<!-- Node1&#45;&gt;Node9 -->
<g id="edge8" class="edge">
<title>Node1&#45;&gt;Node9</title>
<path fill="none" stroke="#63b8ff" d="M234,-494.12C234,-486.97 234,-478.95 234,-470.44"/>
<polygon fill="none" stroke="#63b8ff" points="230.5,-494.09 234,-504.09 237.5,-494.09 230.5,-494.09"/>
</g>
<!-- Node10 -->
<g id="node10" class="node">
<title>Node10</title>
<g id="a_node10"><a xlink:href="classsgns_1_1storage_1_1trie_1_1_trie_storage_backend.html" target="_top" xlink:title=" ">
<polygon fill="white" stroke="#666666" points="439.5,-376.5 310.5,-376.5 310.5,-313.5 439.5,-313.5 439.5,-376.5"/>
<text text-anchor="start" x="318.5" y="-364.5" font-family="Helvetica,sans-Serif" font-size="10.00">{sgns::storage::trie</text>
<text text-anchor="start" x="318.5" y="-353.5" font-family="Helvetica,sans-Serif" font-size="10.00">::TrieStorageBackend</text>
<text text-anchor="middle" x="375" y="-342.5" font-family="Helvetica,sans-Serif" font-size="10.00">&lt; Buffer, Buffer &gt;</text>
<text text-anchor="start" x="318.5" y="-331.5" font-family="Helvetica,sans-Serif" font-size="10.00">||+ ~TrieStorageBackend()</text>
<text text-anchor="middle" x="375" y="-320.5" font-family="Helvetica,sans-Serif" font-size="10.00">}</text>
</a>
</g>
</g>
<!-- Node1&#45;&gt;Node10 -->
<g id="edge9" class="edge">
<title>Node1&#45;&gt;Node10</title>
<path fill="none" stroke="#63b8ff" d="M271.19,-498.48C281.5,-490.01 292.26,-480.2 301,-470 325.63,-441.26 346.95,-403.28 360.3,-376.96"/>
<polygon fill="none" stroke="#63b8ff" points="269.14,-495.64 263.48,-504.6 273.49,-501.12 269.14,-495.64"/>
</g>
<!-- Node2 -->
<g id="node2" class="node">
<title>Node2</title>
<g id="a_node2"><a xlink:href="structsgns_1_1storage_1_1face_1_1_read_only_map.html" target="_top" xlink:title="An abstraction over a readable and iterable key&#45;value map.">
<polygon fill="white" stroke="#666666" points="223.5,-624 106.5,-624 106.5,-583 223.5,-583 223.5,-624"/>
<text text-anchor="start" x="114.5" y="-612" font-family="Helvetica,sans-Serif" font-size="10.00">{sgns::storage::face</text>
<text text-anchor="middle" x="165" y="-601" font-family="Helvetica,sans-Serif" font-size="10.00">::ReadOnlyMap&lt; K, V &gt;</text>
<text text-anchor="middle" x="165" y="-590" font-family="Helvetica,sans-Serif" font-size="10.00">||}</text>
</a>
</g>
</g>
<!-- Node2&#45;&gt;Node1 -->
<g id="edge1" class="edge">
<title>Node2&#45;&gt;Node1</title>
<path fill="none" stroke="#63b8ff" d="M190.8,-574.46C199.1,-565.44 208.11,-555.64 215.75,-547.33"/>
<polygon fill="none" stroke="#63b8ff" points="188.35,-571.95 184.15,-581.68 193.5,-576.69 188.35,-571.95"/>
</g>
<!-- Node3 -->
<g id="node3" class="node">
<title>Node3</title>
<g id="a_node3"><a xlink:href="structsgns_1_1storage_1_1face_1_1_iterable.html" target="_top" xlink:title="A mixin for an iterable map.">
<polygon fill="white" stroke="#666666" points="101.5,-734 0.5,-734 0.5,-671 101.5,-671 101.5,-734"/>
<text text-anchor="start" x="8.5" y="-722" font-family="Helvetica,sans-Serif" font-size="10.00">{sgns::storage::face</text>
<text text-anchor="middle" x="51" y="-711" font-family="Helvetica,sans-Serif" font-size="10.00">::Iterable&lt; K, V &gt;</text>
<text text-anchor="start" x="8.5" y="-700" font-family="Helvetica,sans-Serif" font-size="10.00">||+ ~Iterable()</text>
<text text-anchor="start" x="8.5" y="-689" font-family="Helvetica,sans-Serif" font-size="10.00">+ cursor()</text>
<text text-anchor="middle" x="51" y="-678" font-family="Helvetica,sans-Serif" font-size="10.00">}</text>
</a>
</g>
</g>
<!-- Node3&#45;&gt;Node2 -->
<g id="edge2" class="edge">
<title>Node3&#45;&gt;Node2</title>
<path fill="none" stroke="#63b8ff" d="M95.89,-663.31C111.48,-650.04 128.34,-635.69 141.51,-624.49"/>
<polygon fill="none" stroke="#63b8ff" points="93.88,-660.42 88.54,-669.56 98.42,-665.75 93.88,-660.42"/>
</g>
<!-- Node4 -->
<g id="node4" class="node">
<title>Node4</title>
<g id="a_node4"><a xlink:href="structsgns_1_1storage_1_1face_1_1_readable.html" target="_top" xlink:title="A mixin for read&#45;only map.">
<polygon fill="white" stroke="#666666" points="220.5,-745 119.5,-745 119.5,-660 220.5,-660 220.5,-745"/>
<text text-anchor="start" x="127.5" y="-733" font-family="Helvetica,sans-Serif" font-size="10.00">{sgns::storage::face</text>
<text text-anchor="middle" x="170" y="-722" font-family="Helvetica,sans-Serif" font-size="10.00">::Readable&lt; K, V &gt;</text>
<text text-anchor="start" x="127.5" y="-711" font-family="Helvetica,sans-Serif" font-size="10.00">||+ ~Readable()</text>
<text text-anchor="start" x="127.5" y="-700" font-family="Helvetica,sans-Serif" font-size="10.00">+ get()</text>
<text text-anchor="start" x="127.5" y="-689" font-family="Helvetica,sans-Serif" font-size="10.00">+ contains()</text>
<text text-anchor="start" x="127.5" y="-678" font-family="Helvetica,sans-Serif" font-size="10.00">+ empty()</text>
<text text-anchor="middle" x="170" y="-667" font-family="Helvetica,sans-Serif" font-size="10.00">}</text>
</a>
</g>
</g>
<!-- Node4&#45;&gt;Node2 -->
<g id="edge3" class="edge">
<title>Node4&#45;&gt;Node2</title>
<path fill="none" stroke="#63b8ff" d="M167.24,-648.03C166.81,-639.62 166.39,-631.41 166.03,-624.44"/>
<polygon fill="none" stroke="#63b8ff" points="163.75,-648.2 167.76,-658.01 170.74,-647.84 163.75,-648.2"/>
</g>
<!-- Node5 -->
<g id="node5" class="node">
<title>Node5</title>
<g id="a_node5"><a xlink:href="structsgns_1_1storage_1_1face_1_1_batch_write_map.html" target="_top" xlink:title="An abstraction over a writeable key&#45;value map with batching support.">
<polygon fill="white" stroke="#666666" points="364.5,-624 241.5,-624 241.5,-583 364.5,-583 364.5,-624"/>
<text text-anchor="start" x="249.5" y="-612" font-family="Helvetica,sans-Serif" font-size="10.00">{sgns::storage::face</text>
<text text-anchor="middle" x="303" y="-601" font-family="Helvetica,sans-Serif" font-size="10.00">::BatchWriteMap&lt; K, V &gt;</text>
<text text-anchor="middle" x="303" y="-590" font-family="Helvetica,sans-Serif" font-size="10.00">||}</text>
</a>
</g>
</g>
<!-- Node5&#45;&gt;Node1 -->
<g id="edge4" class="edge">
<title>Node5&#45;&gt;Node1</title>
<path fill="none" stroke="#63b8ff" d="M277.2,-574.46C268.9,-565.44 259.89,-555.64 252.25,-547.33"/>
<polygon fill="none" stroke="#63b8ff" points="274.5,-576.69 283.85,-581.68 279.65,-571.95 274.5,-576.69"/>
</g>
<!-- Node6 -->
<g id="node6" class="node">
<title>Node6</title>
<g id="a_node6"><a xlink:href="structsgns_1_1storage_1_1face_1_1_writeable.html" target="_top" xlink:title="An mixin for modifiable map.">
<polygon fill="white" stroke="#666666" points="348.5,-745 247.5,-745 247.5,-660 348.5,-660 348.5,-745"/>
<text text-anchor="start" x="255.5" y="-733" font-family="Helvetica,sans-Serif" font-size="10.00">{sgns::storage::face</text>
<text text-anchor="middle" x="298" y="-722" font-family="Helvetica,sans-Serif" font-size="10.00">::Writeable&lt; K, V &gt;</text>
<text text-anchor="start" x="255.5" y="-711" font-family="Helvetica,sans-Serif" font-size="10.00">||+ ~Writeable()</text>
<text text-anchor="start" x="255.5" y="-700" font-family="Helvetica,sans-Serif" font-size="10.00">+ put()</text>
<text text-anchor="start" x="255.5" y="-689" font-family="Helvetica,sans-Serif" font-size="10.00">+ put()</text>
<text text-anchor="start" x="255.5" y="-678" font-family="Helvetica,sans-Serif" font-size="10.00">+ remove()</text>
<text text-anchor="middle" x="298" y="-667" font-family="Helvetica,sans-Serif" font-size="10.00">}</text>
</a>
</g>
</g>
<!-- Node6&#45;&gt;Node5 -->
<g id="edge5" class="edge">
<title>Node6&#45;&gt;Node5</title>
<path fill="none" stroke="#63b8ff" d="M300.76,-648.03C301.19,-639.62 301.61,-631.41 301.97,-624.44"/>
<polygon fill="none" stroke="#63b8ff" points="297.26,-647.84 300.24,-658.01 304.25,-648.2 297.26,-647.84"/>
</g>
<!-- Node7 -->
<g id="node7" class="node">
<title>Node7</title>
<g id="a_node7"><a xlink:href="structsgns_1_1storage_1_1face_1_1_batchable.html" target="_top" xlink:title="A mixin for a map that supports batching for efficiency of modifications.">
<polygon fill="white" stroke="#666666" points="467.5,-734 366.5,-734 366.5,-671 467.5,-671 467.5,-734"/>
<text text-anchor="start" x="374.5" y="-722" font-family="Helvetica,sans-Serif" font-size="10.00">{sgns::storage::face</text>
<text text-anchor="middle" x="417" y="-711" font-family="Helvetica,sans-Serif" font-size="10.00">::Batchable&lt; K, V &gt;</text>
<text text-anchor="start" x="374.5" y="-700" font-family="Helvetica,sans-Serif" font-size="10.00">||+ ~Batchable()</text>
<text text-anchor="start" x="374.5" y="-689" font-family="Helvetica,sans-Serif" font-size="10.00">+ batch()</text>
<text text-anchor="middle" x="417" y="-678" font-family="Helvetica,sans-Serif" font-size="10.00">}</text>
</a>
</g>
</g>
<!-- Node7&#45;&gt;Node5 -->
<g id="edge6" class="edge">
<title>Node7&#45;&gt;Node5</title>
<path fill="none" stroke="#63b8ff" d="M372.11,-663.31C356.52,-650.04 339.66,-635.69 326.49,-624.49"/>
<polygon fill="none" stroke="#63b8ff" points="369.58,-665.75 379.46,-669.56 374.12,-660.42 369.58,-665.75"/>
</g>
<!-- Node11 -->
<g id="node11" class="node">
<title>Node11</title>
<g id="a_node11"><a xlink:href="classsgns_1_1storage_1_1trie_1_1_trie_storage_backend_impl.html" target="_top" xlink:title=" ">
<polygon fill="white" stroke="#666666" points="446.5,-184 303.5,-184 303.5,0 446.5,0 446.5,-184"/>
<text text-anchor="start" x="311.5" y="-172" font-family="Helvetica,sans-Serif" font-size="10.00">{sgns::storage::trie</text>
<text text-anchor="middle" x="375" y="-161" font-family="Helvetica,sans-Serif" font-size="10.00">::TrieStorageBackendImpl</text>
<text text-anchor="start" x="311.5" y="-150" font-family="Helvetica,sans-Serif" font-size="10.00">|&#45; storage_</text>
<text text-anchor="start" x="311.5" y="-139" font-family="Helvetica,sans-Serif" font-size="10.00">&#45; node_prefix_</text>
<text text-anchor="start" x="311.5" y="-128" font-family="Helvetica,sans-Serif" font-size="10.00">|+ TrieStorageBackendImpl()</text>
<text text-anchor="start" x="311.5" y="-117" font-family="Helvetica,sans-Serif" font-size="10.00">+ ~TrieStorageBackendImpl()</text>
<text text-anchor="start" x="311.5" y="-106" font-family="Helvetica,sans-Serif" font-size="10.00">+ cursor()</text>
<text text-anchor="start" x="311.5" y="-95" font-family="Helvetica,sans-Serif" font-size="10.00">+ batch()</text>
<text text-anchor="start" x="311.5" y="-84" font-family="Helvetica,sans-Serif" font-size="10.00">+ get()</text>
<text text-anchor="start" x="311.5" y="-73" font-family="Helvetica,sans-Serif" font-size="10.00">+ contains()</text>
<text text-anchor="start" x="311.5" y="-62" font-family="Helvetica,sans-Serif" font-size="10.00">+ empty()</text>
<text text-anchor="start" x="311.5" y="-51" font-family="Helvetica,sans-Serif" font-size="10.00">+ put()</text>
<text text-anchor="start" x="311.5" y="-40" font-family="Helvetica,sans-Serif" font-size="10.00">+ put()</text>
<text text-anchor="start" x="311.5" y="-29" font-family="Helvetica,sans-Serif" font-size="10.00">+ remove()</text>
<text text-anchor="start" x="311.5" y="-18" font-family="Helvetica,sans-Serif" font-size="10.00">&#45; prefixKey()</text>
<text text-anchor="middle" x="375" y="-7" font-family="Helvetica,sans-Serif" font-size="10.00">}</text>
</a>
</g>
</g>
<!-- Node10&#45;&gt;Node11 -->
<g id="edge10" class="edge">
<title>Node10&#45;&gt;Node11</title>
<path fill="none" stroke="#63b8ff" d="M375,-302.05C375,-269.99 375,-224.61 375,-184.32"/>
<polygon fill="none" stroke="#63b8ff" points="371.5,-301.71 375,-311.71 378.5,-301.71 371.5,-301.71"/>
</g>
</g>
</svg>
