<?xml version="1.0" encoding="UTF-8" standalone="no"?>
<!DOCTYPE svg PUBLIC "-//W3C//DTD SVG 1.1//EN"
 "http://www.w3.org/Graphics/SVG/1.1/DTD/svg11.dtd">
<!-- Generated by graphviz version 7.0.5 (20221223.1930)
 -->
<!-- Title: sgns::primitives::detail::BlockInfoT&lt; Tag &gt; Pages: 1 -->
<svg width="292pt" height="413pt"
 viewBox="0.00 0.00 292.00 413.00" xmlns="http://www.w3.org/2000/svg" xmlns:xlink="http://www.w3.org/1999/xlink">
<g id="graph0" class="graph" transform="scale(1 1) rotate(0) translate(4 409)">
<title>sgns::primitives::detail::BlockInfoT&lt; Tag &gt;</title>
<!-- Node1 -->
<g id="node1" class="node">
<title>Node1</title>
<g id="a_node1"><a xlink:title=" ">
<polygon fill="#999999" stroke="#666666" points="172,-85 57,-85 57,0 172,0 172,-85"/>
<text text-anchor="start" x="65" y="-73" font-family="Helvetica,sans-Serif" font-size="10.00">{sgns::primitives::detail</text>
<text text-anchor="middle" x="114.5" y="-62" font-family="Helvetica,sans-Serif" font-size="10.00">::BlockInfoT&lt; Tag &gt;</text>
<text text-anchor="start" x="65" y="-51" font-family="Helvetica,sans-Serif" font-size="10.00">|+ block_number</text>
<text text-anchor="start" x="65" y="-40" font-family="Helvetica,sans-Serif" font-size="10.00">|+ BlockInfoT()</text>
<text text-anchor="start" x="65" y="-29" font-family="Helvetica,sans-Serif" font-size="10.00">+ BlockInfoT()</text>
<text text-anchor="start" x="65" y="-18" font-family="Helvetica,sans-Serif" font-size="10.00">+ operator==()</text>
<text text-anchor="middle" x="114.5" y="-7" font-family="Helvetica,sans-Serif" font-size="10.00">}</text>
</a>
</g>
</g>
<!-- Node2 -->
<g id="node2" class="node">
<title>Node2</title>
<g id="a_node2"><a xlink:title=" ">
<polygon fill="white" stroke="#666666" points="137,-217 0,-217 0,-176 137,-176 137,-217"/>
<text text-anchor="start" x="8" y="-205" font-family="Helvetica,sans-Serif" font-size="10.00">{boost::equality_comparable</text>
<text text-anchor="middle" x="68.5" y="-194" font-family="Helvetica,sans-Serif" font-size="10.00">&lt; BlockInfoT&lt; Tag &gt; &gt;</text>
<text text-anchor="middle" x="68.5" y="-183" font-family="Helvetica,sans-Serif" font-size="10.00">||}</text>
</a>
</g>
</g>
<!-- Node2&#45;&gt;Node1 -->
<g id="edge1" class="edge">
<title>Node2&#45;&gt;Node1</title>
<path fill="none" stroke="#63b8ff" d="M77.77,-164.87C84.67,-142.06 94.18,-110.64 101.79,-85.48"/>
<polygon fill="none" stroke="#63b8ff" points="74.5,-163.59 74.95,-174.18 81.2,-165.62 74.5,-163.59"/>
</g>
<!-- Node3 -->
<g id="node3" class="node">
<title>Node3</title>
<g id="a_node3"><a xlink:href="classsgns_1_1base_1_1_blob.html" target="_top" xlink:title=" ">
<polygon fill="white" stroke="#666666" points="284,-261 155,-261 155,-132 284,-132 284,-261"/>
<text text-anchor="middle" x="219.5" y="-249" font-family="Helvetica,sans-Serif" font-size="10.00">{sgns::base::Blob&lt; size_ &gt;</text>
<text text-anchor="start" x="163" y="-238" font-family="Helvetica,sans-Serif" font-size="10.00">||+ Blob()</text>
<text text-anchor="start" x="163" y="-227" font-family="Helvetica,sans-Serif" font-size="10.00">+ Blob()</text>
<text text-anchor="start" x="163" y="-216" font-family="Helvetica,sans-Serif" font-size="10.00">+ toString()</text>
<text text-anchor="start" x="163" y="-205" font-family="Helvetica,sans-Serif" font-size="10.00">+ toHex()</text>
<text text-anchor="start" x="163" y="-194" font-family="Helvetica,sans-Serif" font-size="10.00">+ size()</text>
<text text-anchor="start" x="163" y="-183" font-family="Helvetica,sans-Serif" font-size="10.00">+ fromString()</text>
<text text-anchor="start" x="163" y="-172" font-family="Helvetica,sans-Serif" font-size="10.00">+ fromHex()</text>
<text text-anchor="start" x="163" y="-161" font-family="Helvetica,sans-Serif" font-size="10.00">+ fromHexWithPrefix()</text>
<text text-anchor="start" x="163" y="-150" font-family="Helvetica,sans-Serif" font-size="10.00">+ fromSpan()</text>
<text text-anchor="middle" x="219.5" y="-139" font-family="Helvetica,sans-Serif" font-size="10.00">}</text>
</a>
</g>
</g>
<!-- Node3&#45;&gt;Node1 -->
<g id="edge2" class="edge">
<title>Node3&#45;&gt;Node1</title>
<path fill="none" stroke="#404040" d="M175.58,-131.92C167.23,-119.84 158.59,-107.32 150.52,-95.64"/>
<polygon fill="none" stroke="#404040" points="150.63,-95.81 143.93,-93.14 143.81,-85.93 150.51,-88.6 150.63,-95.81"/>
<text text-anchor="middle" x="189.5" y="-106" font-family="Helvetica,sans-Serif" font-size="10.00"> +block_hash</text>
</g>
<!-- Node4 -->
<g id="node4" class="node">
<title>Node4</title>
<g id="a_node4"><a xlink:title=" ">
<polygon fill="white" stroke="#666666" points="260,-328 179,-328 179,-298 260,-298 260,-328"/>
<text text-anchor="middle" x="219.5" y="-316" font-family="Helvetica,sans-Serif" font-size="10.00">{std::array&lt; T &gt;</text>
<text text-anchor="middle" x="219.5" y="-305" font-family="Helvetica,sans-Serif" font-size="10.00">||}</text>
</a>
</g>
</g>
<!-- Node4&#45;&gt;Node3 -->
<g id="edge3" class="edge">
<title>Node4&#45;&gt;Node3</title>
<path fill="none" stroke="#63b8ff" d="M219.5,-286.68C219.5,-279.06 219.5,-270.33 219.5,-261.37"/>
<polygon fill="none" stroke="#63b8ff" points="216,-286.45 219.5,-296.45 223,-286.45 216,-286.45"/>
</g>
<!-- Node5 -->
<g id="node5" class="node">
<title>Node5</title>
<g id="a_node5"><a xlink:title=" ">
<polygon fill="white" stroke="#666666" points="234,-405 205,-405 205,-375 234,-375 234,-405"/>
<text text-anchor="middle" x="219.5" y="-393" font-family="Helvetica,sans-Serif" font-size="10.00">{T</text>
<text text-anchor="middle" x="219.5" y="-382" font-family="Helvetica,sans-Serif" font-size="10.00">||}</text>
</a>
</g>
</g>
<!-- Node5&#45;&gt;Node4 -->
<g id="edge4" class="edge">
<title>Node5&#45;&gt;Node4</title>
<path fill="none" stroke="#404040" d="M219.5,-374.54C219.5,-365.1 219.5,-352.47 219.5,-341.2"/>
<polygon fill="none" stroke="#404040" points="219.5,-341.32 215.5,-335.32 219.5,-329.32 223.5,-335.32 219.5,-341.32"/>
<text text-anchor="middle" x="244" y="-349" font-family="Helvetica,sans-Serif" font-size="10.00"> +elements</text>
</g>
</g>
</svg>
