<?xml version="1.0" encoding="UTF-8" standalone="no"?>
<!DOCTYPE svg PUBLIC "-//W3C//DTD SVG 1.1//EN"
 "http://www.w3.org/Graphics/SVG/1.1/DTD/svg11.dtd">
<!-- Generated by graphviz version 7.0.5 (20221223.1930)
 -->
<!-- Title: sgns::storage::face::Iterable&lt; K, V &gt; Pages: 1 -->
<!--zoomable 1228 -->
<svg id="main" version="1.1" xmlns="http://www.w3.org/2000/svg" xmlns:xlink="http://www.w3.org/1999/xlink" xml:space="preserve" onload="init(evt)">
<style type="text/css"><![CDATA[
.edge:hover path { stroke: red; }
.edge:hover polygon { stroke: red; fill: red; }
]]></style>
<script type="text/javascript"><![CDATA[
var edges = document.getElementsByTagName('g');
if (edges && edges.length) {
  for (var i=0;i<edges.length;i++) {
    if (edges[i].id.substr(0,4)=='edge') {
      edges[i].setAttribute('class','edge');
    }
  }
}
]]></script>
        <defs>
                <circle id="rim" cx="0" cy="0" r="7"/>
                <circle id="rim2" cx="0" cy="0" r="3.5"/>
                <g id="zoomPlus">
                        <use xlink:href="#rim" fill="#404040">
                                <set attributeName="fill" to="#808080" begin="zoomplus.mouseover" end="zoomplus.mouseout"/>
                        </use>
                        <path d="M-4,0h8M0,-4v8" fill="none" stroke="white" stroke-width="1.5" pointer-events="none"/>
                </g>
                <g id="zoomMin">
                        <use xlink:href="#rim" fill="#404040">
                                <set attributeName="fill" to="#808080" begin="zoomminus.mouseover" end="zoomminus.mouseout"/>
                        </use>
                        <path d="M-4,0h8" fill="none" stroke="white" stroke-width="1.5" pointer-events="none"/>
                </g>
                <g id="dirArrow">
                        <path fill="none" stroke="white" stroke-width="1.5" d="M0,-3.0v7 M-2.5,-0.5L0,-3.0L2.5,-0.5"/>
                </g>
               <g id="resetDef">
                       <use xlink:href="#rim2" fill="#404040">
                               <set attributeName="fill" to="#808080" begin="reset.mouseover" end="reset.mouseout"/>
                       </use>
               </g>
        </defs>

<script type="text/javascript">
var viewWidth = 1152;
var viewHeight = 1228;
var sectionId = 'dynsection-0';
</script>
<script xlink:href="svgpan.js"/>
<svg id="graph" class="graph">
<g id="viewport">
<title>sgns::storage::face::Iterable&lt; K, V &gt;</title>
<!-- Node1 -->
<g id="node1" class="node">
<title>Node1</title>
<g id="a_node1"><a xlink:title="A mixin for an iterable map.">
<polygon fill="#999999" stroke="#666666" points="353,-1220 252,-1220 252,-1157 353,-1157 353,-1220"/>
<text text-anchor="start" x="260" y="-1208" font-family="Helvetica,sans-Serif" font-size="10.00">{sgns::storage::face</text>
<text text-anchor="middle" x="302.5" y="-1197" font-family="Helvetica,sans-Serif" font-size="10.00">::Iterable&lt; K, V &gt;</text>
<text text-anchor="start" x="260" y="-1186" font-family="Helvetica,sans-Serif" font-size="10.00">||+ ~Iterable()</text>
<text text-anchor="start" x="260" y="-1175" font-family="Helvetica,sans-Serif" font-size="10.00">+ cursor()</text>
<text text-anchor="middle" x="302.5" y="-1164" font-family="Helvetica,sans-Serif" font-size="10.00">}</text>
</a>
</g>
</g>
<!-- Node2 -->
<g id="node2" class="node">
<title>Node2</title>
<g id="a_node2"><a xlink:href="structsgns_1_1storage_1_1face_1_1_read_only_map.html" target="_top" xlink:title=" ">
<polygon fill="white" stroke="#666666" points="111,-961.5 0,-961.5 0,-909.5 111,-909.5 111,-961.5"/>
<text text-anchor="start" x="8" y="-949.5" font-family="Helvetica,sans-Serif" font-size="10.00">{sgns::storage::face</text>
<text text-anchor="start" x="8" y="-938.5" font-family="Helvetica,sans-Serif" font-size="10.00">::ReadOnlyMap&lt; base</text>
<text text-anchor="middle" x="55.5" y="-927.5" font-family="Helvetica,sans-Serif" font-size="10.00">::Buffer, base::Buffer &gt;</text>
<text text-anchor="middle" x="55.5" y="-916.5" font-family="Helvetica,sans-Serif" font-size="10.00">||}</text>
</a>
</g>
</g>
<!-- Node1&#45;&gt;Node2 -->
<g id="edge1" class="edge">
<title>Node1&#45;&gt;Node2</title>
<path fill="none" stroke="#63b8ff" d="M241.43,-1162.7C207.64,-1147.28 166.02,-1125.37 133.5,-1099 92.31,-1065.59 76.15,-1056.65 57.5,-1007 52.12,-992.67 51.51,-975.53 52.31,-961.73"/>
<polygon fill="none" stroke="#63b8ff" points="239.71,-1165.77 250.27,-1166.66 242.57,-1159.38 239.71,-1165.77"/>
</g>
<!-- Node3 -->
<g id="node3" class="node">
<title>Node3</title>
<g id="a_node3"><a xlink:href="structsgns_1_1storage_1_1face_1_1_read_only_map.html" target="_top" xlink:title="An abstraction over a readable and iterable key&#45;value map.">
<polygon fill="white" stroke="#666666" points="260,-1082.5 143,-1082.5 143,-1041.5 260,-1041.5 260,-1082.5"/>
<text text-anchor="start" x="151" y="-1070.5" font-family="Helvetica,sans-Serif" font-size="10.00">{sgns::storage::face</text>
<text text-anchor="middle" x="201.5" y="-1059.5" font-family="Helvetica,sans-Serif" font-size="10.00">::ReadOnlyMap&lt; K, V &gt;</text>
<text text-anchor="middle" x="201.5" y="-1048.5" font-family="Helvetica,sans-Serif" font-size="10.00">||}</text>
</a>
</g>
</g>
<!-- Node1&#45;&gt;Node3 -->
<g id="edge2" class="edge">
<title>Node1&#45;&gt;Node3</title>
<path fill="none" stroke="#63b8ff" d="M270.49,-1148.04C252.91,-1126.37 231.86,-1100.42 217.67,-1082.93"/>
<polygon fill="none" stroke="#63b8ff" points="267.56,-1149.99 276.58,-1155.55 273,-1145.58 267.56,-1149.99"/>
</g>
<!-- Node13 -->
<g id="node13" class="node">
<title>Node13</title>
<g id="a_node13"><a xlink:href="structsgns_1_1storage_1_1face_1_1_iterable.html" target="_top" xlink:title=" ">
<polygon fill="white" stroke="#666666" points="394.5,-1099 278.5,-1099 278.5,-1025 394.5,-1025 394.5,-1099"/>
<text text-anchor="start" x="286.5" y="-1087" font-family="Helvetica,sans-Serif" font-size="10.00">{sgns::storage::face</text>
<text text-anchor="start" x="286.5" y="-1076" font-family="Helvetica,sans-Serif" font-size="10.00">::Iterable&lt; base::Buffer,</text>
<text text-anchor="middle" x="336.5" y="-1065" font-family="Helvetica,sans-Serif" font-size="10.00"> base::Buffer &gt;</text>
<text text-anchor="start" x="286.5" y="-1054" font-family="Helvetica,sans-Serif" font-size="10.00">||+ ~Iterable()</text>
<text text-anchor="start" x="286.5" y="-1043" font-family="Helvetica,sans-Serif" font-size="10.00">+ cursor()</text>
<text text-anchor="middle" x="336.5" y="-1032" font-family="Helvetica,sans-Serif" font-size="10.00">}</text>
</a>
</g>
</g>
<!-- Node1&#45;&gt;Node13 -->
<g id="edge14" class="edge">
<title>Node1&#45;&gt;Node13</title>
<path fill="none" stroke="orange" d="M313.94,-1145.62C318.05,-1130.56 322.65,-1113.7 326.62,-1099.16"/>
<polygon fill="orange" stroke="orange" points="310.56,-1144.7 311.3,-1155.26 317.31,-1146.54 310.56,-1144.7"/>
<text text-anchor="start" x="322.5" y="-1131" font-family="Helvetica,sans-Serif" font-size="10.00"> &lt; base::Buffer, base</text>
<text text-anchor="middle" x="366.5" y="-1120" font-family="Helvetica,sans-Serif" font-size="10.00">::Buffer &gt;</text>
</g>
<!-- Node14 -->
<g id="node14" class="node">
<title>Node14</title>
<g id="a_node14"><a xlink:href="structsgns_1_1storage_1_1face_1_1_iterable.html" target="_top" xlink:title=" ">
<polygon fill="white" stroke="#666666" points="530,-1099 429,-1099 429,-1025 530,-1025 530,-1099"/>
<text text-anchor="start" x="437" y="-1087" font-family="Helvetica,sans-Serif" font-size="10.00">{sgns::storage::face</text>
<text text-anchor="start" x="437" y="-1076" font-family="Helvetica,sans-Serif" font-size="10.00">::Iterable&lt; Buffer,</text>
<text text-anchor="middle" x="479.5" y="-1065" font-family="Helvetica,sans-Serif" font-size="10.00"> Buffer &gt;</text>
<text text-anchor="start" x="437" y="-1054" font-family="Helvetica,sans-Serif" font-size="10.00">||+ ~Iterable()</text>
<text text-anchor="start" x="437" y="-1043" font-family="Helvetica,sans-Serif" font-size="10.00">+ cursor()</text>
<text text-anchor="middle" x="479.5" y="-1032" font-family="Helvetica,sans-Serif" font-size="10.00">}</text>
</a>
</g>
</g>
<!-- Node1&#45;&gt;Node14 -->
<g id="edge15" class="edge">
<title>Node1&#45;&gt;Node14</title>
<path fill="none" stroke="orange" d="M363.92,-1166.82C381.16,-1159.48 399.32,-1150.2 414.5,-1139 429.31,-1128.07 442.99,-1113.16 453.95,-1099.44"/>
<polygon fill="orange" stroke="orange" points="362.68,-1163.54 354.74,-1170.56 365.32,-1170.02 362.68,-1163.54"/>
<text text-anchor="middle" x="475.5" y="-1125.5" font-family="Helvetica,sans-Serif" font-size="10.00"> &lt; Buffer, Buffer &gt;</text>
</g>
<!-- Node3&#45;&gt;Node2 -->
<g id="edge13" class="edge">
<title>Node3&#45;&gt;Node2</title>
<path fill="none" stroke="orange" d="M132.06,-1045.27C110.24,-1037.16 87.86,-1025.03 72.5,-1007 61.89,-994.54 57.67,-976.55 56.09,-961.87"/>
<polygon fill="orange" stroke="orange" points="130.67,-1048.49 141.26,-1048.44 132.95,-1041.87 130.67,-1048.49"/>
<text text-anchor="start" x="72.5" y="-999" font-family="Helvetica,sans-Serif" font-size="10.00"> &lt; base::Buffer, base</text>
<text text-anchor="middle" x="116.5" y="-988" font-family="Helvetica,sans-Serif" font-size="10.00">::Buffer &gt;</text>
</g>
<!-- Node4 -->
<g id="node4" class="node">
<title>Node4</title>
<g id="a_node4"><a xlink:href="structsgns_1_1storage_1_1face_1_1_generic_map.html" target="_top" xlink:title=" ">
<polygon fill="white" stroke="#666666" points="224,-747 117,-747 117,-695 224,-695 224,-747"/>
<text text-anchor="start" x="125" y="-735" font-family="Helvetica,sans-Serif" font-size="10.00">{sgns::storage::face</text>
<text text-anchor="start" x="125" y="-724" font-family="Helvetica,sans-Serif" font-size="10.00">::GenericMap&lt; base::</text>
<text text-anchor="middle" x="170.5" y="-713" font-family="Helvetica,sans-Serif" font-size="10.00">Buffer, base::Buffer &gt;</text>
<text text-anchor="middle" x="170.5" y="-702" font-family="Helvetica,sans-Serif" font-size="10.00">||}</text>
</a>
</g>
</g>
<!-- Node3&#45;&gt;Node4 -->
<g id="edge3" class="edge">
<title>Node3&#45;&gt;Node4</title>
<path fill="none" stroke="#63b8ff" d="M198.66,-1029.95C192.57,-963.38 178.37,-808.02 172.8,-747.12"/>
<polygon fill="none" stroke="#63b8ff" points="195.17,-1030.16 199.56,-1039.8 202.14,-1029.52 195.17,-1030.16"/>
</g>
<!-- Node7 -->
<g id="node7" class="node">
<title>Node7</title>
<g id="a_node7"><a xlink:href="structsgns_1_1storage_1_1face_1_1_generic_map.html" target="_top" xlink:title="An abstraction over a readable, writeable, iterable key&#45;value map.">
<polygon fill="white" stroke="#666666" points="312,-956 203,-956 203,-915 312,-915 312,-956"/>
<text text-anchor="start" x="211" y="-944" font-family="Helvetica,sans-Serif" font-size="10.00">{sgns::storage::face</text>
<text text-anchor="middle" x="257.5" y="-933" font-family="Helvetica,sans-Serif" font-size="10.00">::GenericMap&lt; K, V &gt;</text>
<text text-anchor="middle" x="257.5" y="-922" font-family="Helvetica,sans-Serif" font-size="10.00">||}</text>
</a>
</g>
</g>
<!-- Node3&#45;&gt;Node7 -->
<g id="edge6" class="edge">
<title>Node3&#45;&gt;Node7</title>
<path fill="none" stroke="#63b8ff" d="M215.02,-1030.93C225.47,-1007.7 239.63,-976.23 248.67,-956.14"/>
<polygon fill="none" stroke="#63b8ff" points="211.9,-1029.34 210.99,-1039.89 218.29,-1032.21 211.9,-1029.34"/>
</g>
<!-- Node8 -->
<g id="node8" class="node">
<title>Node8</title>
<g id="a_node8"><a xlink:href="structsgns_1_1storage_1_1face_1_1_generic_storage.html" target="_top" xlink:title="An abstraction over readable, writeable, iterable key&#45;value storage that supports write batches.">
<polygon fill="white" stroke="#666666" points="506.5,-956 382.5,-956 382.5,-915 506.5,-915 506.5,-956"/>
<text text-anchor="start" x="390.5" y="-944" font-family="Helvetica,sans-Serif" font-size="10.00">{sgns::storage::face</text>
<text text-anchor="middle" x="444.5" y="-933" font-family="Helvetica,sans-Serif" font-size="10.00">::GenericStorage&lt; K, V &gt;</text>
<text text-anchor="middle" x="444.5" y="-922" font-family="Helvetica,sans-Serif" font-size="10.00">||}</text>
</a>
</g>
</g>
<!-- Node3&#45;&gt;Node8 -->
<g id="edge8" class="edge">
<title>Node3&#45;&gt;Node8</title>
<path fill="none" stroke="#63b8ff" d="M248.84,-1035.79C255.76,-1032.15 262.8,-1028.46 269.5,-1025 315.61,-1001.14 368.89,-974.3 404.43,-956.5"/>
<polygon fill="none" stroke="#63b8ff" points="247.39,-1032.6 240.18,-1040.36 250.66,-1038.79 247.39,-1032.6"/>
</g>
<!-- Node5 -->
<g id="node5" class="node">
<title>Node5</title>
<g id="a_node5"><a xlink:href="classsgns_1_1storage_1_1trie_1_1_super_genius_trie.html" target="_top" xlink:title=" ">
<polygon fill="white" stroke="#666666" points="218,-493 123,-493 123,-397 218,-397 218,-493"/>
<text text-anchor="start" x="131" y="-481" font-family="Helvetica,sans-Serif" font-size="10.00">{sgns::storage::trie</text>
<text text-anchor="middle" x="170.5" y="-470" font-family="Helvetica,sans-Serif" font-size="10.00">::SuperGeniusTrie</text>
<text text-anchor="start" x="131" y="-459" font-family="Helvetica,sans-Serif" font-size="10.00">||+ clearPrefix()</text>
<text text-anchor="start" x="131" y="-448" font-family="Helvetica,sans-Serif" font-size="10.00">+ getRoot()</text>
<text text-anchor="start" x="131" y="-437" font-family="Helvetica,sans-Serif" font-size="10.00">+ retrieveChild()</text>
<text text-anchor="start" x="131" y="-426" font-family="Helvetica,sans-Serif" font-size="10.00">+ getNode()</text>
<text text-anchor="start" x="131" y="-415" font-family="Helvetica,sans-Serif" font-size="10.00">+ getPath()</text>
<text text-anchor="middle" x="170.5" y="-404" font-family="Helvetica,sans-Serif" font-size="10.00">}</text>
</a>
</g>
</g>
<!-- Node4&#45;&gt;Node5 -->
<g id="edge4" class="edge">
<title>Node4&#45;&gt;Node5</title>
<path fill="none" stroke="#63b8ff" d="M170.5,-683.4C170.5,-634.35 170.5,-547.24 170.5,-493.28"/>
<polygon fill="none" stroke="#63b8ff" points="167,-683.2 170.5,-693.2 174,-683.2 167,-683.2"/>
</g>
<!-- Node6 -->
<g id="node6" class="node">
<title>Node6</title>
<g id="a_node6"><a xlink:href="classsgns_1_1storage_1_1trie_1_1_super_genius_trie_impl.html" target="_top" xlink:title=" ">
<polygon fill="white" stroke="#666666" points="244.5,-294 96.5,-294 96.5,0 244.5,0 244.5,-294"/>
<text text-anchor="start" x="104.5" y="-282" font-family="Helvetica,sans-Serif" font-size="10.00">{sgns::storage::trie</text>
<text text-anchor="middle" x="170.5" y="-271" font-family="Helvetica,sans-Serif" font-size="10.00">::SuperGeniusTrieImpl</text>
<text text-anchor="start" x="104.5" y="-260" font-family="Helvetica,sans-Serif" font-size="10.00">|&#45; retrieve_child_</text>
<text text-anchor="start" x="104.5" y="-249" font-family="Helvetica,sans-Serif" font-size="10.00">&#45; root_</text>
<text text-anchor="start" x="104.5" y="-238" font-family="Helvetica,sans-Serif" font-size="10.00">|+ SuperGeniusTrieImpl()</text>
<text text-anchor="start" x="104.5" y="-227" font-family="Helvetica,sans-Serif" font-size="10.00">+ SuperGeniusTrieImpl()</text>
<text text-anchor="start" x="104.5" y="-216" font-family="Helvetica,sans-Serif" font-size="10.00">+ getRoot()</text>
<text text-anchor="start" x="104.5" y="-205" font-family="Helvetica,sans-Serif" font-size="10.00">+ getNode()</text>
<text text-anchor="start" x="104.5" y="-194" font-family="Helvetica,sans-Serif" font-size="10.00">+ getPath()</text>
<text text-anchor="start" x="104.5" y="-183" font-family="Helvetica,sans-Serif" font-size="10.00">+ clearPrefix()</text>
<text text-anchor="start" x="104.5" y="-172" font-family="Helvetica,sans-Serif" font-size="10.00">+ put()</text>
<text text-anchor="start" x="104.5" y="-161" font-family="Helvetica,sans-Serif" font-size="10.00">+ put()</text>
<text text-anchor="start" x="104.5" y="-150" font-family="Helvetica,sans-Serif" font-size="10.00">+ remove()</text>
<text text-anchor="start" x="104.5" y="-139" font-family="Helvetica,sans-Serif" font-size="10.00">+ get()</text>
<text text-anchor="start" x="104.5" y="-128" font-family="Helvetica,sans-Serif" font-size="10.00">+ cursor()</text>
<text text-anchor="start" x="104.5" y="-117" font-family="Helvetica,sans-Serif" font-size="10.00">+ contains()</text>
<text text-anchor="start" x="104.5" y="-106" font-family="Helvetica,sans-Serif" font-size="10.00">+ empty()</text>
<text text-anchor="start" x="104.5" y="-95" font-family="Helvetica,sans-Serif" font-size="10.00">&#45; insert()</text>
<text text-anchor="start" x="104.5" y="-84" font-family="Helvetica,sans-Serif" font-size="10.00">&#45; updateBranch()</text>
<text text-anchor="start" x="104.5" y="-73" font-family="Helvetica,sans-Serif" font-size="10.00">&#45; deleteNode()</text>
<text text-anchor="start" x="104.5" y="-62" font-family="Helvetica,sans-Serif" font-size="10.00">&#45; handleDeletion()</text>
<text text-anchor="start" x="104.5" y="-51" font-family="Helvetica,sans-Serif" font-size="10.00">&#45; detachNode()</text>
<text text-anchor="start" x="104.5" y="-40" font-family="Helvetica,sans-Serif" font-size="10.00">&#45; getCommonPrefixLength()</text>
<text text-anchor="start" x="104.5" y="-29" font-family="Helvetica,sans-Serif" font-size="10.00">&#45; retrieveChild()</text>
<text text-anchor="start" x="104.5" y="-18" font-family="Helvetica,sans-Serif" font-size="10.00">&#45; defaultChildRetrieveFunctor()</text>
<text text-anchor="middle" x="170.5" y="-7" font-family="Helvetica,sans-Serif" font-size="10.00">}</text>
</a>
</g>
</g>
<!-- Node5&#45;&gt;Node6 -->
<g id="edge5" class="edge">
<title>Node5&#45;&gt;Node6</title>
<path fill="none" stroke="#63b8ff" d="M170.5,-385.47C170.5,-359.09 170.5,-326.62 170.5,-294.27"/>
<polygon fill="none" stroke="#63b8ff" points="167,-385.26 170.5,-395.26 174,-385.26 167,-385.26"/>
</g>
<!-- Node7&#45;&gt;Node4 -->
<g id="edge7" class="edge">
<title>Node7&#45;&gt;Node4</title>
<path fill="none" stroke="orange" d="M232.42,-906.1C227.66,-899.78 223.07,-892.89 219.5,-886 195.67,-839.95 181.56,-780.48 174.99,-747.28"/>
<polygon fill="orange" stroke="orange" points="229.51,-908.06 238.47,-913.72 234.99,-903.71 229.51,-908.06"/>
<text text-anchor="start" x="219.5" y="-878" font-family="Helvetica,sans-Serif" font-size="10.00"> &lt; base::Buffer, base</text>
<text text-anchor="middle" x="263.5" y="-867" font-family="Helvetica,sans-Serif" font-size="10.00">::Buffer &gt;</text>
</g>
<!-- Node9 -->
<g id="node9" class="node">
<title>Node9</title>
<g id="a_node9"><a xlink:href="classsgns_1_1storage_1_1_in_memory_storage.html" target="_top" xlink:title=" ">
<polygon fill="white" stroke="#666666" points="400.5,-796.5 242.5,-796.5 242.5,-645.5 400.5,-645.5 400.5,-796.5"/>
<text text-anchor="start" x="250.5" y="-784.5" font-family="Helvetica,sans-Serif" font-size="10.00">{sgns::storage::InMemoryStorage</text>
<text text-anchor="middle" x="321.5" y="-773.5" font-family="Helvetica,sans-Serif" font-size="10.00">&lt; Buffer, Buffer &gt;</text>
<text text-anchor="start" x="250.5" y="-762.5" font-family="Helvetica,sans-Serif" font-size="10.00">|&#45; storage</text>
<text text-anchor="start" x="250.5" y="-751.5" font-family="Helvetica,sans-Serif" font-size="10.00">|+ ~InMemoryStorage()</text>
<text text-anchor="start" x="250.5" y="-740.5" font-family="Helvetica,sans-Serif" font-size="10.00">+ get()</text>
<text text-anchor="start" x="250.5" y="-729.5" font-family="Helvetica,sans-Serif" font-size="10.00">+ put()</text>
<text text-anchor="start" x="250.5" y="-718.5" font-family="Helvetica,sans-Serif" font-size="10.00">+ put()</text>
<text text-anchor="start" x="250.5" y="-707.5" font-family="Helvetica,sans-Serif" font-size="10.00">+ contains()</text>
<text text-anchor="start" x="250.5" y="-696.5" font-family="Helvetica,sans-Serif" font-size="10.00">+ empty()</text>
<text text-anchor="start" x="250.5" y="-685.5" font-family="Helvetica,sans-Serif" font-size="10.00">+ remove()</text>
<text text-anchor="start" x="250.5" y="-674.5" font-family="Helvetica,sans-Serif" font-size="10.00">+ batch()</text>
<text text-anchor="start" x="250.5" y="-663.5" font-family="Helvetica,sans-Serif" font-size="10.00">+ cursor()</text>
<text text-anchor="middle" x="321.5" y="-652.5" font-family="Helvetica,sans-Serif" font-size="10.00">}</text>
</a>
</g>
</g>
<!-- Node8&#45;&gt;Node9 -->
<g id="edge9" class="edge">
<title>Node8&#45;&gt;Node9</title>
<path fill="none" stroke="#63b8ff" d="M427.19,-904.6C411.07,-876.75 386.36,-834.06 364.89,-796.96"/>
<polygon fill="none" stroke="#63b8ff" points="424.13,-906.3 432.17,-913.2 430.19,-902.79 424.13,-906.3"/>
</g>
<!-- Node10 -->
<g id="node10" class="node">
<title>Node10</title>
<g id="a_node10"><a xlink:href="classsgns_1_1storage_1_1rocksdb.html" target="_top" xlink:title="An implementation of PersistentBufferMap interface, which uses rocksdb as underlying storage.">
<polygon fill="white" stroke="#666666" points="534.5,-846 418.5,-846 418.5,-596 534.5,-596 534.5,-846"/>
<text text-anchor="start" x="426.5" y="-834" font-family="Helvetica,sans-Serif" font-size="10.00">{sgns::storage::rocksdb</text>
<text text-anchor="middle" x="476.5" y="-823" font-family="Helvetica,sans-Serif" font-size="10.00">&lt; Buffer, Buffer &gt;</text>
<text text-anchor="start" x="426.5" y="-812" font-family="Helvetica,sans-Serif" font-size="10.00">|&#45; db_</text>
<text text-anchor="start" x="426.5" y="-801" font-family="Helvetica,sans-Serif" font-size="10.00">&#45; ro_</text>
<text text-anchor="start" x="426.5" y="-790" font-family="Helvetica,sans-Serif" font-size="10.00">&#45; wo_</text>
<text text-anchor="start" x="426.5" y="-779" font-family="Helvetica,sans-Serif" font-size="10.00">&#45; logger_</text>
<text text-anchor="start" x="426.5" y="-768" font-family="Helvetica,sans-Serif" font-size="10.00">|+ ~rocksdb()</text>
<text text-anchor="start" x="426.5" y="-757" font-family="Helvetica,sans-Serif" font-size="10.00">+ setReadOptions()</text>
<text text-anchor="start" x="426.5" y="-746" font-family="Helvetica,sans-Serif" font-size="10.00">+ setWriteOptions()</text>
<text text-anchor="start" x="426.5" y="-735" font-family="Helvetica,sans-Serif" font-size="10.00">+ cursor()</text>
<text text-anchor="start" x="426.5" y="-724" font-family="Helvetica,sans-Serif" font-size="10.00">+ batch()</text>
<text text-anchor="start" x="426.5" y="-713" font-family="Helvetica,sans-Serif" font-size="10.00">+ get()</text>
<text text-anchor="start" x="426.5" y="-702" font-family="Helvetica,sans-Serif" font-size="10.00">+ query()</text>
<text text-anchor="start" x="426.5" y="-691" font-family="Helvetica,sans-Serif" font-size="10.00">+ contains()</text>
<text text-anchor="start" x="426.5" y="-680" font-family="Helvetica,sans-Serif" font-size="10.00">+ empty()</text>
<text text-anchor="start" x="426.5" y="-669" font-family="Helvetica,sans-Serif" font-size="10.00">+ put()</text>
<text text-anchor="start" x="426.5" y="-658" font-family="Helvetica,sans-Serif" font-size="10.00">+ put()</text>
<text text-anchor="start" x="426.5" y="-647" font-family="Helvetica,sans-Serif" font-size="10.00">+ remove()</text>
<text text-anchor="start" x="426.5" y="-636" font-family="Helvetica,sans-Serif" font-size="10.00">+ getDB()</text>
<text text-anchor="start" x="426.5" y="-625" font-family="Helvetica,sans-Serif" font-size="10.00">+ create()</text>
<text text-anchor="start" x="426.5" y="-614" font-family="Helvetica,sans-Serif" font-size="10.00">+ create()</text>
<text text-anchor="middle" x="476.5" y="-603" font-family="Helvetica,sans-Serif" font-size="10.00">}</text>
</a>
</g>
</g>
<!-- Node8&#45;&gt;Node10 -->
<g id="edge10" class="edge">
<title>Node8&#45;&gt;Node10</title>
<path fill="none" stroke="#63b8ff" d="M449.18,-903.44C451.54,-887.76 454.58,-867.58 457.76,-846.42"/>
<polygon fill="none" stroke="#63b8ff" points="445.76,-902.6 447.74,-913.01 452.69,-903.64 445.76,-902.6"/>
</g>
<!-- Node11 -->
<g id="node11" class="node">
<title>Node11</title>
<g id="a_node11"><a xlink:href="classsgns_1_1storage_1_1trie_1_1_trie_storage_backend.html" target="_top" xlink:title=" ">
<polygon fill="white" stroke="#666666" points="682,-752.5 553,-752.5 553,-689.5 682,-689.5 682,-752.5"/>
<text text-anchor="start" x="561" y="-740.5" font-family="Helvetica,sans-Serif" font-size="10.00">{sgns::storage::trie</text>
<text text-anchor="start" x="561" y="-729.5" font-family="Helvetica,sans-Serif" font-size="10.00">::TrieStorageBackend</text>
<text text-anchor="middle" x="617.5" y="-718.5" font-family="Helvetica,sans-Serif" font-size="10.00">&lt; Buffer, Buffer &gt;</text>
<text text-anchor="start" x="561" y="-707.5" font-family="Helvetica,sans-Serif" font-size="10.00">||+ ~TrieStorageBackend()</text>
<text text-anchor="middle" x="617.5" y="-696.5" font-family="Helvetica,sans-Serif" font-size="10.00">}</text>
</a>
</g>
</g>
<!-- Node8&#45;&gt;Node11 -->
<g id="edge11" class="edge">
<title>Node8&#45;&gt;Node11</title>
<path fill="none" stroke="#63b8ff" d="M479.76,-907.46C499.84,-891.01 524.67,-868.83 543.5,-846 567.51,-816.89 588.86,-779.15 602.39,-752.99"/>
<polygon fill="none" stroke="#63b8ff" points="477.67,-904.64 472.08,-913.64 482.06,-910.09 477.67,-904.64"/>
</g>
<!-- Node12 -->
<g id="node12" class="node">
<title>Node12</title>
<g id="a_node12"><a xlink:href="classsgns_1_1storage_1_1trie_1_1_trie_storage_backend_impl.html" target="_top" xlink:title=" ">
<polygon fill="white" stroke="#666666" points="681,-537 538,-537 538,-353 681,-353 681,-537"/>
<text text-anchor="start" x="546" y="-525" font-family="Helvetica,sans-Serif" font-size="10.00">{sgns::storage::trie</text>
<text text-anchor="middle" x="609.5" y="-514" font-family="Helvetica,sans-Serif" font-size="10.00">::TrieStorageBackendImpl</text>
<text text-anchor="start" x="546" y="-503" font-family="Helvetica,sans-Serif" font-size="10.00">|&#45; storage_</text>
<text text-anchor="start" x="546" y="-492" font-family="Helvetica,sans-Serif" font-size="10.00">&#45; node_prefix_</text>
<text text-anchor="start" x="546" y="-481" font-family="Helvetica,sans-Serif" font-size="10.00">|+ TrieStorageBackendImpl()</text>
<text text-anchor="start" x="546" y="-470" font-family="Helvetica,sans-Serif" font-size="10.00">+ ~TrieStorageBackendImpl()</text>
<text text-anchor="start" x="546" y="-459" font-family="Helvetica,sans-Serif" font-size="10.00">+ cursor()</text>
<text text-anchor="start" x="546" y="-448" font-family="Helvetica,sans-Serif" font-size="10.00">+ batch()</text>
<text text-anchor="start" x="546" y="-437" font-family="Helvetica,sans-Serif" font-size="10.00">+ get()</text>
<text text-anchor="start" x="546" y="-426" font-family="Helvetica,sans-Serif" font-size="10.00">+ contains()</text>
<text text-anchor="start" x="546" y="-415" font-family="Helvetica,sans-Serif" font-size="10.00">+ empty()</text>
<text text-anchor="start" x="546" y="-404" font-family="Helvetica,sans-Serif" font-size="10.00">+ put()</text>
<text text-anchor="start" x="546" y="-393" font-family="Helvetica,sans-Serif" font-size="10.00">+ put()</text>
<text text-anchor="start" x="546" y="-382" font-family="Helvetica,sans-Serif" font-size="10.00">+ remove()</text>
<text text-anchor="start" x="546" y="-371" font-family="Helvetica,sans-Serif" font-size="10.00">&#45; prefixKey()</text>
<text text-anchor="middle" x="609.5" y="-360" font-family="Helvetica,sans-Serif" font-size="10.00">}</text>
</a>
</g>
</g>
<!-- Node11&#45;&gt;Node12 -->
<g id="edge12" class="edge">
<title>Node11&#45;&gt;Node12</title>
<path fill="none" stroke="#63b8ff" d="M616.26,-677.67C615.17,-640.37 613.55,-584.74 612.17,-537.35"/>
<polygon fill="none" stroke="#63b8ff" points="612.76,-677.69 616.55,-687.59 619.76,-677.49 612.76,-677.69"/>
</g>
<!-- Node15 -->
<g id="node15" class="node">
<title>Node15</title>
<g id="a_node15"><a xlink:href="classsgns_1_1storage_1_1trie_1_1_trie_batch.html" target="_top" xlink:title=" ">
<polygon fill="white" stroke="#666666" points="901,-967 806,-967 806,-904 901,-904 901,-967"/>
<text text-anchor="start" x="814" y="-955" font-family="Helvetica,sans-Serif" font-size="10.00">{sgns::storage::trie</text>
<text text-anchor="middle" x="853.5" y="-944" font-family="Helvetica,sans-Serif" font-size="10.00">::TrieBatch</text>
<text text-anchor="start" x="814" y="-933" font-family="Helvetica,sans-Serif" font-size="10.00">||+ ~TrieBatch()</text>
<text text-anchor="start" x="814" y="-922" font-family="Helvetica,sans-Serif" font-size="10.00">+ clearPrefix()</text>
<text text-anchor="middle" x="853.5" y="-911" font-family="Helvetica,sans-Serif" font-size="10.00">}</text>
</a>
</g>
</g>
<!-- Node14&#45;&gt;Node15 -->
<g id="edge16" class="edge">
<title>Node14&#45;&gt;Node15</title>
<path fill="none" stroke="#63b8ff" d="M540.9,-1040.56C615.08,-1015.87 738.29,-974.85 805.74,-952.4"/>
<polygon fill="none" stroke="#63b8ff" points="540.15,-1037.12 531.76,-1043.6 542.36,-1043.76 540.15,-1037.12"/>
</g>
<!-- Node16 -->
<g id="node16" class="node">
<title>Node16</title>
<g id="a_node16"><a xlink:href="classsgns_1_1storage_1_1trie_1_1_ephemeral_trie_batch.html" target="_top" xlink:title=" ">
<polygon fill="white" stroke="#666666" points="838,-741.5 729,-741.5 729,-700.5 838,-700.5 838,-741.5"/>
<text text-anchor="start" x="737" y="-729.5" font-family="Helvetica,sans-Serif" font-size="10.00">{sgns::storage::trie</text>
<text text-anchor="middle" x="783.5" y="-718.5" font-family="Helvetica,sans-Serif" font-size="10.00">::EphemeralTrieBatch</text>
<text text-anchor="middle" x="783.5" y="-707.5" font-family="Helvetica,sans-Serif" font-size="10.00">||}</text>
</a>
</g>
</g>
<!-- Node15&#45;&gt;Node16 -->
<g id="edge17" class="edge">
<title>Node15&#45;&gt;Node16</title>
<path fill="none" stroke="#63b8ff" d="M839.79,-892.88C824.77,-847.29 801.32,-776.1 790.02,-741.8"/>
<polygon fill="none" stroke="#63b8ff" points="836.39,-893.76 842.85,-902.16 843.04,-891.57 836.39,-893.76"/>
</g>
<!-- Node18 -->
<g id="node18" class="node">
<title>Node18</title>
<g id="a_node18"><a xlink:href="classsgns_1_1storage_1_1trie_1_1_persistent_trie_batch.html" target="_top" xlink:title=" ">
<polygon fill="white" stroke="#666666" points="977,-752.5 870,-752.5 870,-689.5 977,-689.5 977,-752.5"/>
<text text-anchor="start" x="878" y="-740.5" font-family="Helvetica,sans-Serif" font-size="10.00">{sgns::storage::trie</text>
<text text-anchor="middle" x="923.5" y="-729.5" font-family="Helvetica,sans-Serif" font-size="10.00">::PersistentTrieBatch</text>
<text text-anchor="start" x="878" y="-718.5" font-family="Helvetica,sans-Serif" font-size="10.00">||+ commit()</text>
<text text-anchor="start" x="878" y="-707.5" font-family="Helvetica,sans-Serif" font-size="10.00">+ batchOnTop()</text>
<text text-anchor="middle" x="923.5" y="-696.5" font-family="Helvetica,sans-Serif" font-size="10.00">}</text>
</a>
</g>
</g>
<!-- Node15&#45;&gt;Node18 -->
<g id="edge19" class="edge">
<title>Node15&#45;&gt;Node18</title>
<path fill="none" stroke="#63b8ff" d="M867.22,-892.85C880.76,-851.75 901.15,-789.86 913.31,-752.94"/>
<polygon fill="none" stroke="#63b8ff" points="863.96,-891.57 864.15,-902.16 870.61,-893.76 863.96,-891.57"/>
</g>
<!-- Node20 -->
<g id="node20" class="node">
<title>Node20</title>
<g id="a_node20"><a xlink:href="classsgns_1_1storage_1_1trie_1_1_topper_trie_batch.html" target="_top" xlink:title=" ">
<polygon fill="white" stroke="#666666" points="1110,-747 1015,-747 1015,-695 1110,-695 1110,-747"/>
<text text-anchor="start" x="1023" y="-735" font-family="Helvetica,sans-Serif" font-size="10.00">{sgns::storage::trie</text>
<text text-anchor="middle" x="1062.5" y="-724" font-family="Helvetica,sans-Serif" font-size="10.00">::TopperTrieBatch</text>
<text text-anchor="start" x="1023" y="-713" font-family="Helvetica,sans-Serif" font-size="10.00">||+ writeBack()</text>
<text text-anchor="middle" x="1062.5" y="-702" font-family="Helvetica,sans-Serif" font-size="10.00">}</text>
</a>
</g>
</g>
<!-- Node15&#45;&gt;Node20 -->
<g id="edge21" class="edge">
<title>Node15&#45;&gt;Node20</title>
<path fill="none" stroke="#63b8ff" d="M911.07,-903.32C935.81,-888.14 963.93,-868.34 985.5,-846 1014.19,-816.29 1037.56,-774.14 1050.76,-747.44"/>
<polygon fill="none" stroke="#63b8ff" points="909.48,-900.19 902.71,-908.34 913.09,-906.19 909.48,-900.19"/>
</g>
<!-- Node17 -->
<g id="node17" class="node">
<title>Node17</title>
<g id="a_node17"><a xlink:href="classsgns_1_1storage_1_1trie_1_1_ephemeral_trie_batch_impl.html" target="_top" xlink:title=" ">
<polygon fill="white" stroke="#666666" points="842,-531.5 699,-531.5 699,-358.5 842,-358.5 842,-531.5"/>
<text text-anchor="start" x="707" y="-519.5" font-family="Helvetica,sans-Serif" font-size="10.00">{sgns::storage::trie</text>
<text text-anchor="middle" x="770.5" y="-508.5" font-family="Helvetica,sans-Serif" font-size="10.00">::EphemeralTrieBatchImpl</text>
<text text-anchor="start" x="707" y="-497.5" font-family="Helvetica,sans-Serif" font-size="10.00">|&#45; codec_</text>
<text text-anchor="start" x="707" y="-486.5" font-family="Helvetica,sans-Serif" font-size="10.00">&#45; trie_</text>
<text text-anchor="start" x="707" y="-475.5" font-family="Helvetica,sans-Serif" font-size="10.00">|+ EphemeralTrieBatchImpl()</text>
<text text-anchor="start" x="707" y="-464.5" font-family="Helvetica,sans-Serif" font-size="10.00">+ ~EphemeralTrieBatchImpl()</text>
<text text-anchor="start" x="707" y="-453.5" font-family="Helvetica,sans-Serif" font-size="10.00">+ get()</text>
<text text-anchor="start" x="707" y="-442.5" font-family="Helvetica,sans-Serif" font-size="10.00">+ cursor()</text>
<text text-anchor="start" x="707" y="-431.5" font-family="Helvetica,sans-Serif" font-size="10.00">+ contains()</text>
<text text-anchor="start" x="707" y="-420.5" font-family="Helvetica,sans-Serif" font-size="10.00">+ empty()</text>
<text text-anchor="start" x="707" y="-409.5" font-family="Helvetica,sans-Serif" font-size="10.00">+ clearPrefix()</text>
<text text-anchor="start" x="707" y="-398.5" font-family="Helvetica,sans-Serif" font-size="10.00">+ put()</text>
<text text-anchor="start" x="707" y="-387.5" font-family="Helvetica,sans-Serif" font-size="10.00">+ put()</text>
<text text-anchor="start" x="707" y="-376.5" font-family="Helvetica,sans-Serif" font-size="10.00">+ remove()</text>
<text text-anchor="middle" x="770.5" y="-365.5" font-family="Helvetica,sans-Serif" font-size="10.00">}</text>
</a>
</g>
</g>
<!-- Node16&#45;&gt;Node17 -->
<g id="edge18" class="edge">
<title>Node16&#45;&gt;Node17</title>
<path fill="none" stroke="#63b8ff" d="M782.03,-689.03C780.23,-651.15 777.12,-585.48 774.58,-531.95"/>
<polygon fill="none" stroke="#63b8ff" points="778.52,-688.96 782.49,-698.78 785.52,-688.63 778.52,-688.96"/>
</g>
<!-- Node19 -->
<g id="node19" class="node">
<title>Node19</title>
<g id="a_node19"><a xlink:href="classsgns_1_1storage_1_1trie_1_1_persistent_trie_batch_impl.html" target="_top" xlink:title=" ">
<polygon fill="white" stroke="#666666" points="1001,-559 860,-559 860,-331 1001,-331 1001,-559"/>
<text text-anchor="start" x="868" y="-547" font-family="Helvetica,sans-Serif" font-size="10.00">{sgns::storage::trie</text>
<text text-anchor="middle" x="930.5" y="-536" font-family="Helvetica,sans-Serif" font-size="10.00">::PersistentTrieBatchImpl</text>
<text text-anchor="start" x="868" y="-525" font-family="Helvetica,sans-Serif" font-size="10.00">|&#45; codec_</text>
<text text-anchor="start" x="868" y="-514" font-family="Helvetica,sans-Serif" font-size="10.00">&#45; serializer_</text>
<text text-anchor="start" x="868" y="-503" font-family="Helvetica,sans-Serif" font-size="10.00">&#45; changes_</text>
<text text-anchor="start" x="868" y="-492" font-family="Helvetica,sans-Serif" font-size="10.00">&#45; trie_</text>
<text text-anchor="start" x="868" y="-481" font-family="Helvetica,sans-Serif" font-size="10.00">&#45; root_changed_handler_</text>
<text text-anchor="start" x="868" y="-470" font-family="Helvetica,sans-Serif" font-size="10.00">|+ PersistentTrieBatchImpl()</text>
<text text-anchor="start" x="868" y="-459" font-family="Helvetica,sans-Serif" font-size="10.00">+ ~PersistentTrieBatchImpl()</text>
<text text-anchor="start" x="868" y="-448" font-family="Helvetica,sans-Serif" font-size="10.00">+ commit()</text>
<text text-anchor="start" x="868" y="-437" font-family="Helvetica,sans-Serif" font-size="10.00">+ batchOnTop()</text>
<text text-anchor="start" x="868" y="-426" font-family="Helvetica,sans-Serif" font-size="10.00">+ get()</text>
<text text-anchor="start" x="868" y="-415" font-family="Helvetica,sans-Serif" font-size="10.00">+ cursor()</text>
<text text-anchor="start" x="868" y="-404" font-family="Helvetica,sans-Serif" font-size="10.00">+ contains()</text>
<text text-anchor="start" x="868" y="-393" font-family="Helvetica,sans-Serif" font-size="10.00">+ empty()</text>
<text text-anchor="start" x="868" y="-382" font-family="Helvetica,sans-Serif" font-size="10.00">+ clearPrefix()</text>
<text text-anchor="start" x="868" y="-371" font-family="Helvetica,sans-Serif" font-size="10.00">+ put()</text>
<text text-anchor="start" x="868" y="-360" font-family="Helvetica,sans-Serif" font-size="10.00">+ put()</text>
<text text-anchor="start" x="868" y="-349" font-family="Helvetica,sans-Serif" font-size="10.00">+ remove()</text>
<text text-anchor="middle" x="930.5" y="-338" font-family="Helvetica,sans-Serif" font-size="10.00">}</text>
</a>
</g>
</g>
<!-- Node18&#45;&gt;Node19 -->
<g id="edge20" class="edge">
<title>Node18&#45;&gt;Node19</title>
<path fill="none" stroke="#63b8ff" d="M924.58,-677.64C925.39,-645.95 926.54,-601.05 927.61,-559.21"/>
<polygon fill="none" stroke="#63b8ff" points="921.08,-677.5 924.33,-687.59 928.08,-677.68 921.08,-677.5"/>
</g>
<!-- Node21 -->
<g id="node21" class="node">
<title>Node21</title>
<g id="a_node21"><a xlink:href="classsgns_1_1storage_1_1trie_1_1_topper_trie_batch_impl.html" target="_top" xlink:title=" ">
<polygon fill="white" stroke="#666666" points="1143.5,-542.5 1019.5,-542.5 1019.5,-347.5 1143.5,-347.5 1143.5,-542.5"/>
<text text-anchor="start" x="1027.5" y="-530.5" font-family="Helvetica,sans-Serif" font-size="10.00">{sgns::storage::trie</text>
<text text-anchor="middle" x="1081.5" y="-519.5" font-family="Helvetica,sans-Serif" font-size="10.00">::TopperTrieBatchImpl</text>
<text text-anchor="start" x="1027.5" y="-508.5" font-family="Helvetica,sans-Serif" font-size="10.00">|&#45; cache_</text>
<text text-anchor="start" x="1027.5" y="-497.5" font-family="Helvetica,sans-Serif" font-size="10.00">&#45; cleared_prefixes_</text>
<text text-anchor="start" x="1027.5" y="-486.5" font-family="Helvetica,sans-Serif" font-size="10.00">&#45; parent_</text>
<text text-anchor="start" x="1027.5" y="-475.5" font-family="Helvetica,sans-Serif" font-size="10.00">|+ TopperTrieBatchImpl()</text>
<text text-anchor="start" x="1027.5" y="-464.5" font-family="Helvetica,sans-Serif" font-size="10.00">+ get()</text>
<text text-anchor="start" x="1027.5" y="-453.5" font-family="Helvetica,sans-Serif" font-size="10.00">+ cursor()</text>
<text text-anchor="start" x="1027.5" y="-442.5" font-family="Helvetica,sans-Serif" font-size="10.00">+ contains()</text>
<text text-anchor="start" x="1027.5" y="-431.5" font-family="Helvetica,sans-Serif" font-size="10.00">+ empty()</text>
<text text-anchor="start" x="1027.5" y="-420.5" font-family="Helvetica,sans-Serif" font-size="10.00">+ put()</text>
<text text-anchor="start" x="1027.5" y="-409.5" font-family="Helvetica,sans-Serif" font-size="10.00">+ put()</text>
<text text-anchor="start" x="1027.5" y="-398.5" font-family="Helvetica,sans-Serif" font-size="10.00">+ remove()</text>
<text text-anchor="start" x="1027.5" y="-387.5" font-family="Helvetica,sans-Serif" font-size="10.00">+ clearPrefix()</text>
<text text-anchor="start" x="1027.5" y="-376.5" font-family="Helvetica,sans-Serif" font-size="10.00">+ writeBack()</text>
<text text-anchor="start" x="1027.5" y="-365.5" font-family="Helvetica,sans-Serif" font-size="10.00">&#45; wasClearedByPrefix()</text>
<text text-anchor="middle" x="1081.5" y="-354.5" font-family="Helvetica,sans-Serif" font-size="10.00">}</text>
</a>
</g>
</g>
<!-- Node20&#45;&gt;Node21 -->
<g id="edge22" class="edge">
<title>Node20&#45;&gt;Node21</title>
<path fill="none" stroke="#63b8ff" d="M1065.04,-683.38C1067.52,-647.55 1071.42,-591.41 1074.79,-542.72"/>
<polygon fill="none" stroke="#63b8ff" points="1061.56,-682.99 1064.36,-693.2 1068.54,-683.47 1061.56,-682.99"/>
</g>
</g>
</svg>
        <g id="navigator" transform="translate(0 0)" fill="#404254">
                <rect fill="#f2f5e9" fill-opacity="0.5" stroke="#606060" stroke-width=".5" x="0" y="0" width="60" height="60"/>
                <use id="zoomplus" xlink:href="#zoomPlus" x="17" y="9" onmousedown="handleZoom(evt,'in')"/>
                <use id="zoomminus" xlink:href="#zoomMin" x="42" y="9" onmousedown="handleZoom(evt,'out')"/>
                <use id="reset" xlink:href="#resetDef" x="30" y="36" onmousedown="handleReset()"/>
                <g id="arrowUp" xlink:href="#dirArrow" transform="translate(30 24)" onmousedown="handlePan(0,-1)">
                  <use xlink:href="#rim" fill="#404040">
                        <set attributeName="fill" to="#808080" begin="arrowUp.mouseover" end="arrowUp.mouseout"/>
                  </use>
                  <path fill="none" stroke="white" stroke-width="1.5" d="M0,-3.0v7 M-2.5,-0.5L0,-3.0L2.5,-0.5"/>
                </g>
                <g id="arrowRight" xlink:href="#dirArrow" transform="rotate(90) translate(36 -43)" onmousedown="handlePan(1,0)">
                  <use xlink:href="#rim" fill="#404040">
                        <set attributeName="fill" to="#808080" begin="arrowRight.mouseover" end="arrowRight.mouseout"/>
                  </use>
                  <path fill="none" stroke="white" stroke-width="1.5" d="M0,-3.0v7 M-2.5,-0.5L0,-3.0L2.5,-0.5"/>
                </g>
                <g id="arrowDown" xlink:href="#dirArrow" transform="rotate(180) translate(-30 -48)" onmousedown="handlePan(0,1)">
                  <use xlink:href="#rim" fill="#404040">
                        <set attributeName="fill" to="#808080" begin="arrowDown.mouseover" end="arrowDown.mouseout"/>
                  </use>
                  <path fill="none" stroke="white" stroke-width="1.5" d="M0,-3.0v7 M-2.5,-0.5L0,-3.0L2.5,-0.5"/>
                </g>
                <g id="arrowLeft" xlink:href="#dirArrow" transform="rotate(270) translate(-36 17)" onmousedown="handlePan(-1,0)">
                  <use xlink:href="#rim" fill="#404040">
                        <set attributeName="fill" to="#808080" begin="arrowLeft.mouseover" end="arrowLeft.mouseout"/>
                  </use>
                  <path fill="none" stroke="white" stroke-width="1.5" d="M0,-3.0v7 M-2.5,-0.5L0,-3.0L2.5,-0.5"/>
                </g>
        </g>
        <svg viewBox="0 0 15 15" width="100%" height="30px" preserveAspectRatio="xMaxYMin meet">
         <g id="arrow_out" transform="scale(0.3 0.3)">
          <a xlink:href="structsgns_1_1storage_1_1face_1_1_iterable__inherit__graph_org.svg" target="_base">
           <rect id="button" ry="5" rx="5" y="6" x="6" height="38" width="38"
                fill="#f2f5e9" fill-opacity="0.5" stroke="#606060" stroke-width="1.0"/>
           <path id="arrow"
             d="M 11.500037,31.436501 C 11.940474,20.09759 22.043105,11.32322 32.158766,21.979434 L 37.068811,17.246167 C 37.068811,17.246167 37.088388,32 37.088388,32 L 22.160133,31.978069 C 22.160133,31.978069 26.997745,27.140456 26.997745,27.140456 C 18.528582,18.264221 13.291696,25.230495 11.500037,31.436501 z"
             style="fill:#404040;"/>
          </a>
         </g>
        </svg>
</svg>
