<?xml version="1.0" encoding="UTF-8" standalone="no"?>
<!DOCTYPE svg PUBLIC "-//W3C//DTD SVG 1.1//EN"
 "http://www.w3.org/Graphics/SVG/1.1/DTD/svg11.dtd">
<!-- Generated by graphviz version 7.0.5 (20221223.1930)
 -->
<!-- Title: sgns::primitives::BlockHeader Pages: 1 -->
<svg width="328pt" height="618pt"
 viewBox="0.00 0.00 327.50 618.00" xmlns="http://www.w3.org/2000/svg" xmlns:xlink="http://www.w3.org/1999/xlink">
<g id="graph0" class="graph" transform="scale(1 1) rotate(0) translate(4 614)">
<title>sgns::primitives::BlockHeader</title>
<!-- Node1 -->
<g id="node1" class="node">
<title>Node1</title>
<g id="a_node1"><a xlink:title=" ">
<polygon fill="#999999" stroke="#666666" points="231.5,-63 83.5,-63 83.5,0 231.5,0 231.5,-63"/>
<text text-anchor="middle" x="157.5" y="-51" font-family="Helvetica,sans-Serif" font-size="10.00">{sgns::primitives::BlockHeader</text>
<text text-anchor="start" x="91.5" y="-40" font-family="Helvetica,sans-Serif" font-size="10.00">|+ number</text>
<text text-anchor="start" x="91.5" y="-29" font-family="Helvetica,sans-Serif" font-size="10.00">|+ operator==()</text>
<text text-anchor="start" x="91.5" y="-18" font-family="Helvetica,sans-Serif" font-size="10.00">+ operator!=()</text>
<text text-anchor="middle" x="157.5" y="-7" font-family="Helvetica,sans-Serif" font-size="10.00">}</text>
</a>
</g>
</g>
<!-- Node2 -->
<g id="node2" class="node">
<title>Node2</title>
<g id="a_node2"><a xlink:href="classsgns_1_1base_1_1_blob.html" target="_top" xlink:title=" ">
<polygon fill="white" stroke="#666666" points="129,-456 0,-456 0,-327 129,-327 129,-456"/>
<text text-anchor="middle" x="64.5" y="-444" font-family="Helvetica,sans-Serif" font-size="10.00">{sgns::base::Blob&lt; size_ &gt;</text>
<text text-anchor="start" x="8" y="-433" font-family="Helvetica,sans-Serif" font-size="10.00">||+ Blob()</text>
<text text-anchor="start" x="8" y="-422" font-family="Helvetica,sans-Serif" font-size="10.00">+ Blob()</text>
<text text-anchor="start" x="8" y="-411" font-family="Helvetica,sans-Serif" font-size="10.00">+ toString()</text>
<text text-anchor="start" x="8" y="-400" font-family="Helvetica,sans-Serif" font-size="10.00">+ toHex()</text>
<text text-anchor="start" x="8" y="-389" font-family="Helvetica,sans-Serif" font-size="10.00">+ size()</text>
<text text-anchor="start" x="8" y="-378" font-family="Helvetica,sans-Serif" font-size="10.00">+ fromString()</text>
<text text-anchor="start" x="8" y="-367" font-family="Helvetica,sans-Serif" font-size="10.00">+ fromHex()</text>
<text text-anchor="start" x="8" y="-356" font-family="Helvetica,sans-Serif" font-size="10.00">+ fromHexWithPrefix()</text>
<text text-anchor="start" x="8" y="-345" font-family="Helvetica,sans-Serif" font-size="10.00">+ fromSpan()</text>
<text text-anchor="middle" x="64.5" y="-334" font-family="Helvetica,sans-Serif" font-size="10.00">}</text>
</a>
</g>
</g>
<!-- Node2&#45;&gt;Node1 -->
<g id="edge1" class="edge">
<title>Node2&#45;&gt;Node1</title>
<path fill="none" stroke="#404040" d="M35.26,-326.58C13.72,-269.48 -6.45,-185.19 27.5,-121 38.49,-100.23 56.78,-83.42 76.22,-70.26"/>
<polygon fill="none" stroke="#404040" points="76.23,-70.26 79.13,-63.66 86.34,-63.81 83.44,-70.41 76.23,-70.26"/>
<text text-anchor="middle" x="58.5" y="-183" font-family="Helvetica,sans-Serif" font-size="10.00"> +parent_hash</text>
</g>
<!-- Node5 -->
<g id="node5" class="node">
<title>Node5</title>
<g id="a_node5"><a xlink:href="classsgns_1_1base_1_1_blob.html" target="_top" xlink:title=" ">
<polygon fill="white" stroke="#666666" points="216,-250 99,-250 99,-121 216,-121 216,-250"/>
<text text-anchor="middle" x="157.5" y="-238" font-family="Helvetica,sans-Serif" font-size="10.00">{sgns::base::Blob&lt; 32 &gt;</text>
<text text-anchor="start" x="107" y="-227" font-family="Helvetica,sans-Serif" font-size="10.00">||+ Blob()</text>
<text text-anchor="start" x="107" y="-216" font-family="Helvetica,sans-Serif" font-size="10.00">+ Blob()</text>
<text text-anchor="start" x="107" y="-205" font-family="Helvetica,sans-Serif" font-size="10.00">+ toString()</text>
<text text-anchor="start" x="107" y="-194" font-family="Helvetica,sans-Serif" font-size="10.00">+ toHex()</text>
<text text-anchor="start" x="107" y="-183" font-family="Helvetica,sans-Serif" font-size="10.00">+ size()</text>
<text text-anchor="start" x="107" y="-172" font-family="Helvetica,sans-Serif" font-size="10.00">+ fromString()</text>
<text text-anchor="start" x="107" y="-161" font-family="Helvetica,sans-Serif" font-size="10.00">+ fromHex()</text>
<text text-anchor="start" x="107" y="-150" font-family="Helvetica,sans-Serif" font-size="10.00">+ fromHexWithPrefix()</text>
<text text-anchor="start" x="107" y="-139" font-family="Helvetica,sans-Serif" font-size="10.00">+ fromSpan()</text>
<text text-anchor="middle" x="157.5" y="-128" font-family="Helvetica,sans-Serif" font-size="10.00">}</text>
</a>
</g>
</g>
<!-- Node2&#45;&gt;Node5 -->
<g id="edge6" class="edge">
<title>Node2&#45;&gt;Node5</title>
<path fill="none" stroke="orange" d="M92.63,-316.22C99.14,-300.17 106.29,-283.4 113.5,-268 116.23,-262.17 119.18,-256.18 122.21,-250.21"/>
<polygon fill="orange" stroke="orange" points="89.48,-314.66 89,-325.24 95.98,-317.26 89.48,-314.66"/>
<text text-anchor="middle" x="128.5" y="-286" font-family="Helvetica,sans-Serif" font-size="10.00"> &lt; 32 &gt;</text>
</g>
<!-- Node3 -->
<g id="node3" class="node">
<title>Node3</title>
<g id="a_node3"><a xlink:title=" ">
<polygon fill="white" stroke="#666666" points="191,-533 110,-533 110,-503 191,-503 191,-533"/>
<text text-anchor="middle" x="150.5" y="-521" font-family="Helvetica,sans-Serif" font-size="10.00">{std::array&lt; T &gt;</text>
<text text-anchor="middle" x="150.5" y="-510" font-family="Helvetica,sans-Serif" font-size="10.00">||}</text>
</a>
</g>
</g>
<!-- Node3&#45;&gt;Node2 -->
<g id="edge2" class="edge">
<title>Node3&#45;&gt;Node2</title>
<path fill="none" stroke="#63b8ff" d="M134.17,-493.35C126.81,-482.71 117.74,-469.58 108.61,-456.35"/>
<polygon fill="none" stroke="#63b8ff" points="131.21,-495.23 139.77,-501.47 136.97,-491.26 131.21,-495.23"/>
</g>
<!-- Node3&#45;&gt;Node5 -->
<g id="edge5" class="edge">
<title>Node3&#45;&gt;Node5</title>
<path fill="none" stroke="#63b8ff" d="M151.04,-491.53C152.12,-440.3 154.6,-323.46 156.15,-250.17"/>
<polygon fill="none" stroke="#63b8ff" points="147.55,-491.21 150.83,-501.29 154.54,-491.36 147.55,-491.21"/>
</g>
<!-- Node4 -->
<g id="node4" class="node">
<title>Node4</title>
<g id="a_node4"><a xlink:title=" ">
<polygon fill="white" stroke="#666666" points="216,-610 187,-610 187,-580 216,-580 216,-610"/>
<text text-anchor="middle" x="201.5" y="-598" font-family="Helvetica,sans-Serif" font-size="10.00">{T</text>
<text text-anchor="middle" x="201.5" y="-587" font-family="Helvetica,sans-Serif" font-size="10.00">||}</text>
</a>
</g>
</g>
<!-- Node4&#45;&gt;Node3 -->
<g id="edge3" class="edge">
<title>Node4&#45;&gt;Node3</title>
<path fill="none" stroke="#404040" d="M187.66,-579.6C182.89,-574.28 177.7,-568.07 173.5,-562 169.78,-556.63 166.22,-550.58 163.05,-544.76"/>
<polygon fill="none" stroke="#404040" points="163.11,-544.88 156.8,-541.38 157.6,-534.22 163.9,-537.71 163.11,-544.88"/>
<text text-anchor="middle" x="198" y="-554" font-family="Helvetica,sans-Serif" font-size="10.00"> +elements</text>
</g>
<!-- Node7 -->
<g id="node7" class="node">
<title>Node7</title>
<g id="a_node7"><a xlink:title=" ">
<polygon fill="white" stroke="#666666" points="296,-533 209,-533 209,-503 296,-503 296,-533"/>
<text text-anchor="middle" x="252.5" y="-521" font-family="Helvetica,sans-Serif" font-size="10.00">{std::vector&lt; T &gt;</text>
<text text-anchor="middle" x="252.5" y="-510" font-family="Helvetica,sans-Serif" font-size="10.00">||}</text>
</a>
</g>
</g>
<!-- Node4&#45;&gt;Node7 -->
<g id="edge9" class="edge">
<title>Node4&#45;&gt;Node7</title>
<path fill="none" stroke="#404040" d="M211.33,-579.54C218.18,-569.47 227.48,-555.8 235.51,-543.99"/>
<polygon fill="none" stroke="#404040" points="235.44,-544.08 235.51,-536.87 242.19,-534.16 242.12,-541.37 235.44,-544.08"/>
<text text-anchor="middle" x="255" y="-554" font-family="Helvetica,sans-Serif" font-size="10.00"> +elements</text>
</g>
<!-- Node5&#45;&gt;Node1 -->
<g id="edge4" class="edge">
<title>Node5&#45;&gt;Node1</title>
<path fill="none" stroke="#404040" d="M157.5,-120.92C157.5,-105.75 157.5,-89.91 157.5,-75.89"/>
<polygon fill="none" stroke="#404040" points="157.5,-76 153.5,-70 157.5,-64 161.5,-70 157.5,-76"/>
<text text-anchor="middle" x="193.5" y="-95" font-family="Helvetica,sans-Serif" font-size="10.00"> +extrinsics_root</text>
<text text-anchor="middle" x="193.5" y="-84" font-family="Helvetica,sans-Serif" font-size="10.00">+state_root</text>
</g>
<!-- Node6 -->
<g id="node6" class="node">
<title>Node6</title>
<g id="a_node6"><a xlink:title=" ">
<polygon fill="white" stroke="#666666" points="316.5,-309 188.5,-309 188.5,-268 316.5,-268 316.5,-309"/>
<text text-anchor="middle" x="252.5" y="-297" font-family="Helvetica,sans-Serif" font-size="10.00">{std::vector&lt; DigestItem &gt;</text>
<text text-anchor="start" x="196.5" y="-286" font-family="Helvetica,sans-Serif" font-size="10.00">|+ elements</text>
<text text-anchor="middle" x="252.5" y="-275" font-family="Helvetica,sans-Serif" font-size="10.00">|}</text>
</a>
</g>
</g>
<!-- Node6&#45;&gt;Node1 -->
<g id="edge7" class="edge">
<title>Node6&#45;&gt;Node1</title>
<path fill="none" stroke="#404040" d="M256.09,-267.53C262.02,-228.48 269.84,-140.64 233.5,-81 231.65,-77.97 229.54,-75.1 227.22,-72.38"/>
<polygon fill="none" stroke="#404040" points="227.15,-72.31 220.08,-70.9 218.66,-63.83 225.73,-65.24 227.15,-72.31"/>
<text text-anchor="middle" x="279" y="-183" font-family="Helvetica,sans-Serif" font-size="10.00"> +digest</text>
</g>
<!-- Node7&#45;&gt;Node6 -->
<g id="edge8" class="edge">
<title>Node7&#45;&gt;Node6</title>
<path fill="none" stroke="orange" d="M252.5,-491.51C252.5,-445.78 252.5,-350.7 252.5,-309.39"/>
<polygon fill="orange" stroke="orange" points="249,-491.26 252.5,-501.26 256,-491.26 249,-491.26"/>
<text text-anchor="middle" x="286" y="-477" font-family="Helvetica,sans-Serif" font-size="10.00"> &lt; DigestItem &gt;</text>
</g>
</g>
</svg>
