<?xml version="1.0" encoding="UTF-8" standalone="no"?>
<!DOCTYPE svg PUBLIC "-//W3C//DTD SVG 1.1//EN"
 "http://www.w3.org/Graphics/SVG/1.1/DTD/svg11.dtd">
<!-- Generated by graphviz version 7.0.5 (20221223.1930)
 -->
<!-- Title: sgns::storage::changes_trie::ChangesTrie::BlocksChangesKey Pages: 1 -->
<svg width="584pt" height="600pt"
 viewBox="0.00 0.00 583.50 600.00" xmlns="http://www.w3.org/2000/svg" xmlns:xlink="http://www.w3.org/1999/xlink">
<g id="graph0" class="graph" transform="scale(1 1) rotate(0) translate(4 596)">
<title>sgns::storage::changes_trie::ChangesTrie::BlocksChangesKey</title>
<!-- Node1 -->
<g id="node1" class="node">
<title>Node1</title>
<g id="a_node1"><a xlink:title=" ">
<polygon fill="#999999" stroke="#666666" points="392.5,-41 208.5,-41 208.5,0 392.5,0 392.5,-41"/>
<text text-anchor="start" x="216.5" y="-29" font-family="Helvetica,sans-Serif" font-size="10.00">{sgns::storage::changes</text>
<text text-anchor="middle" x="300.5" y="-18" font-family="Helvetica,sans-Serif" font-size="10.00">_trie::ChangesTrie::BlocksChangesKey</text>
<text text-anchor="middle" x="300.5" y="-7" font-family="Helvetica,sans-Serif" font-size="10.00">||}</text>
</a>
</g>
</g>
<!-- Node2 -->
<g id="node2" class="node">
<title>Node2</title>
<g id="a_node2"><a xlink:href="structsgns_1_1storage_1_1changes__trie_1_1_changes_trie_1_1_key_index.html" target="_top" xlink:title=" ">
<polygon fill="white" stroke="#666666" points="370,-130 231,-130 231,-78 370,-78 370,-130"/>
<text text-anchor="start" x="239" y="-118" font-family="Helvetica,sans-Serif" font-size="10.00">{sgns::storage::changes</text>
<text text-anchor="middle" x="300.5" y="-107" font-family="Helvetica,sans-Serif" font-size="10.00">_trie::ChangesTrie::KeyIndex</text>
<text text-anchor="start" x="239" y="-96" font-family="Helvetica,sans-Serif" font-size="10.00">|+ block</text>
<text text-anchor="middle" x="300.5" y="-85" font-family="Helvetica,sans-Serif" font-size="10.00">|}</text>
</a>
</g>
</g>
<!-- Node2&#45;&gt;Node1 -->
<g id="edge1" class="edge">
<title>Node2&#45;&gt;Node1</title>
<path fill="none" stroke="#63b8ff" d="M300.5,-66.27C300.5,-57.71 300.5,-48.9 300.5,-41.39"/>
<polygon fill="none" stroke="#63b8ff" points="297,-66.15 300.5,-76.15 304,-66.15 297,-66.15"/>
</g>
<!-- Node3 -->
<g id="node3" class="node">
<title>Node3</title>
<g id="a_node3"><a xlink:href="classsgns_1_1base_1_1_buffer.html" target="_top" xlink:title="Class represents arbitrary (including empty) byte buffer.">
<polygon fill="white" stroke="#666666" points="348.5,-350 252.5,-350 252.5,-177 348.5,-177 348.5,-350"/>
<text text-anchor="middle" x="300.5" y="-338" font-family="Helvetica,sans-Serif" font-size="10.00">{sgns::base::Buffer</text>
<text text-anchor="start" x="260.5" y="-327" font-family="Helvetica,sans-Serif" font-size="10.00">||+ Buffer()</text>
<text text-anchor="start" x="260.5" y="-316" font-family="Helvetica,sans-Serif" font-size="10.00">+ ~Buffer()</text>
<text text-anchor="start" x="260.5" y="-305" font-family="Helvetica,sans-Serif" font-size="10.00">+ Buffer()</text>
<text text-anchor="start" x="260.5" y="-294" font-family="Helvetica,sans-Serif" font-size="10.00">+ Buffer()</text>
<text text-anchor="start" x="260.5" y="-283" font-family="Helvetica,sans-Serif" font-size="10.00">+ Buffer()</text>
<text text-anchor="start" x="260.5" y="-272" font-family="Helvetica,sans-Serif" font-size="10.00">+ Buffer()</text>
<text text-anchor="start" x="260.5" y="-261" font-family="Helvetica,sans-Serif" font-size="10.00">+ Buffer()</text>
<text text-anchor="start" x="260.5" y="-250" font-family="Helvetica,sans-Serif" font-size="10.00">+ Buffer()</text>
<text text-anchor="start" x="260.5" y="-239" font-family="Helvetica,sans-Serif" font-size="10.00">+ Buffer()</text>
<text text-anchor="start" x="260.5" y="-228" font-family="Helvetica,sans-Serif" font-size="10.00">+ reserve()</text>
<text text-anchor="start" x="260.5" y="-217" font-family="Helvetica,sans-Serif" font-size="10.00">and 32 more...</text>
<text text-anchor="start" x="260.5" y="-206" font-family="Helvetica,sans-Serif" font-size="10.00">+ fromHex()</text>
<text text-anchor="start" x="260.5" y="-195" font-family="Helvetica,sans-Serif" font-size="10.00">&#45; putRange()</text>
<text text-anchor="middle" x="300.5" y="-184" font-family="Helvetica,sans-Serif" font-size="10.00">}</text>
</a>
</g>
</g>
<!-- Node3&#45;&gt;Node2 -->
<g id="edge2" class="edge">
<title>Node3&#45;&gt;Node2</title>
<path fill="none" stroke="#404040" d="M300.5,-176.84C300.5,-165 300.5,-153.37 300.5,-143.03"/>
<polygon fill="none" stroke="#404040" points="300.5,-143.18 296.5,-137.18 300.5,-131.18 304.5,-137.18 300.5,-143.18"/>
<text text-anchor="middle" x="312.5" y="-151" font-family="Helvetica,sans-Serif" font-size="10.00"> +key</text>
</g>
<!-- Node4 -->
<g id="node4" class="node">
<title>Node4</title>
<g id="a_node4"><a xlink:title=" ">
<polygon fill="white" stroke="#666666" points="137,-438 0,-438 0,-397 137,-397 137,-438"/>
<text text-anchor="start" x="8" y="-426" font-family="Helvetica,sans-Serif" font-size="10.00">{boost::equality_comparable</text>
<text text-anchor="middle" x="68.5" y="-415" font-family="Helvetica,sans-Serif" font-size="10.00">&lt; Buffer &gt;</text>
<text text-anchor="middle" x="68.5" y="-404" font-family="Helvetica,sans-Serif" font-size="10.00">||}</text>
</a>
</g>
</g>
<!-- Node4&#45;&gt;Node3 -->
<g id="edge3" class="edge">
<title>Node4&#45;&gt;Node3</title>
<path fill="none" stroke="#63b8ff" d="M108.24,-390.46C148.17,-364.3 209.74,-323.96 252.4,-296.01"/>
<polygon fill="none" stroke="#63b8ff" points="106.54,-387.39 100.1,-395.8 110.38,-393.25 106.54,-387.39"/>
</g>
<!-- Node5 -->
<g id="node5" class="node">
<title>Node5</title>
<g id="a_node5"><a xlink:title=" ">
<polygon fill="white" stroke="#666666" points="292,-438 155,-438 155,-397 292,-397 292,-438"/>
<text text-anchor="start" x="163" y="-426" font-family="Helvetica,sans-Serif" font-size="10.00">{boost::equality_comparable</text>
<text text-anchor="middle" x="223.5" y="-415" font-family="Helvetica,sans-Serif" font-size="10.00">&lt; gsl::span&lt; uint8_t &gt; &gt;</text>
<text text-anchor="middle" x="223.5" y="-404" font-family="Helvetica,sans-Serif" font-size="10.00">||}</text>
</a>
</g>
</g>
<!-- Node5&#45;&gt;Node3 -->
<g id="edge4" class="edge">
<title>Node5&#45;&gt;Node3</title>
<path fill="none" stroke="#63b8ff" d="M238.6,-386.69C243.99,-376.05 250.37,-363.45 256.95,-350.47"/>
<polygon fill="none" stroke="#63b8ff" points="235.65,-384.78 234.25,-395.28 241.89,-387.94 235.65,-384.78"/>
</g>
<!-- Node6 -->
<g id="node6" class="node">
<title>Node6</title>
<g id="a_node6"><a xlink:title=" ">
<polygon fill="white" stroke="#666666" points="447,-438 310,-438 310,-397 447,-397 447,-438"/>
<text text-anchor="start" x="318" y="-426" font-family="Helvetica,sans-Serif" font-size="10.00">{boost::equality_comparable</text>
<text text-anchor="middle" x="378.5" y="-415" font-family="Helvetica,sans-Serif" font-size="10.00">&lt; std::vector&lt; uint8_t &gt; &gt;</text>
<text text-anchor="middle" x="378.5" y="-404" font-family="Helvetica,sans-Serif" font-size="10.00">||}</text>
</a>
</g>
</g>
<!-- Node6&#45;&gt;Node3 -->
<g id="edge5" class="edge">
<title>Node6&#45;&gt;Node3</title>
<path fill="none" stroke="#63b8ff" d="M363.2,-386.69C357.74,-376.05 351.28,-363.45 344.61,-350.47"/>
<polygon fill="none" stroke="#63b8ff" points="359.93,-387.98 367.61,-395.28 366.16,-384.79 359.93,-387.98"/>
</g>
<!-- Node7 -->
<g id="node7" class="node">
<title>Node7</title>
<g id="a_node7"><a xlink:title=" ">
<polygon fill="white" stroke="#666666" points="575.5,-438 465.5,-438 465.5,-397 575.5,-397 575.5,-438"/>
<text text-anchor="middle" x="520.5" y="-426" font-family="Helvetica,sans-Serif" font-size="10.00">{std::vector&lt; uint8_t &gt;</text>
<text text-anchor="start" x="473.5" y="-415" font-family="Helvetica,sans-Serif" font-size="10.00">|+ elements</text>
<text text-anchor="middle" x="520.5" y="-404" font-family="Helvetica,sans-Serif" font-size="10.00">|}</text>
</a>
</g>
</g>
<!-- Node7&#45;&gt;Node3 -->
<g id="edge6" class="edge">
<title>Node7&#45;&gt;Node3</title>
<path fill="none" stroke="#404040" d="M491.74,-396.63C458.24,-373.48 402.03,-334.64 359.19,-305.05"/>
<polygon fill="none" stroke="#404040" points="359.22,-305.07 352.01,-304.95 349.35,-298.25 356.56,-298.37 359.22,-305.07"/>
<text text-anchor="middle" x="475.5" y="-371" font-family="Helvetica,sans-Serif" font-size="10.00"> &#45;data_</text>
</g>
<!-- Node8 -->
<g id="node8" class="node">
<title>Node8</title>
<g id="a_node8"><a xlink:title=" ">
<polygon fill="white" stroke="#666666" points="564,-515 477,-515 477,-485 564,-485 564,-515"/>
<text text-anchor="middle" x="520.5" y="-503" font-family="Helvetica,sans-Serif" font-size="10.00">{std::vector&lt; T &gt;</text>
<text text-anchor="middle" x="520.5" y="-492" font-family="Helvetica,sans-Serif" font-size="10.00">||}</text>
</a>
</g>
</g>
<!-- Node8&#45;&gt;Node7 -->
<g id="edge7" class="edge">
<title>Node8&#45;&gt;Node7</title>
<path fill="none" stroke="orange" d="M520.5,-473.2C520.5,-461.86 520.5,-448.75 520.5,-438.21"/>
<polygon fill="orange" stroke="orange" points="517,-473.09 520.5,-483.09 524,-473.09 517,-473.09"/>
<text text-anchor="middle" x="545" y="-459" font-family="Helvetica,sans-Serif" font-size="10.00"> &lt; uint8_t &gt;</text>
</g>
<!-- Node9 -->
<g id="node9" class="node">
<title>Node9</title>
<g id="a_node9"><a xlink:title=" ">
<polygon fill="white" stroke="#666666" points="535,-592 506,-592 506,-562 535,-562 535,-592"/>
<text text-anchor="middle" x="520.5" y="-580" font-family="Helvetica,sans-Serif" font-size="10.00">{T</text>
<text text-anchor="middle" x="520.5" y="-569" font-family="Helvetica,sans-Serif" font-size="10.00">||}</text>
</a>
</g>
</g>
<!-- Node9&#45;&gt;Node8 -->
<g id="edge8" class="edge">
<title>Node9&#45;&gt;Node8</title>
<path fill="none" stroke="#404040" d="M520.5,-561.54C520.5,-552.1 520.5,-539.47 520.5,-528.2"/>
<polygon fill="none" stroke="#404040" points="520.5,-528.32 516.5,-522.32 520.5,-516.32 524.5,-522.32 520.5,-528.32"/>
<text text-anchor="middle" x="545" y="-536" font-family="Helvetica,sans-Serif" font-size="10.00"> +elements</text>
</g>
</g>
</svg>
