<?xml version="1.0" encoding="UTF-8" standalone="no"?>
<!DOCTYPE svg PUBLIC "-//W3C//DTD SVG 1.1//EN"
 "http://www.w3.org/Graphics/SVG/1.1/DTD/svg11.dtd">
<!-- Generated by graphviz version 7.0.5 (20221223.1930)
 -->
<!-- Title: sgns::primitives::Justification Pages: 1 -->
<!--zoomable 500 -->
<svg id="main" version="1.1" xmlns="http://www.w3.org/2000/svg" xmlns:xlink="http://www.w3.org/1999/xlink" xml:space="preserve" onload="init(evt)">
<style type="text/css"><![CDATA[
.edge:hover path { stroke: red; }
.edge:hover polygon { stroke: red; fill: red; }
]]></style>
<script type="text/javascript"><![CDATA[
var edges = document.getElementsByTagName('g');
if (edges && edges.length) {
  for (var i=0;i<edges.length;i++) {
    if (edges[i].id.substr(0,4)=='edge') {
      edges[i].setAttribute('class','edge');
    }
  }
}
]]></script>
        <defs>
                <circle id="rim" cx="0" cy="0" r="7"/>
                <circle id="rim2" cx="0" cy="0" r="3.5"/>
                <g id="zoomPlus">
                        <use xlink:href="#rim" fill="#404040">
                                <set attributeName="fill" to="#808080" begin="zoomplus.mouseover" end="zoomplus.mouseout"/>
                        </use>
                        <path d="M-4,0h8M0,-4v8" fill="none" stroke="white" stroke-width="1.5" pointer-events="none"/>
                </g>
                <g id="zoomMin">
                        <use xlink:href="#rim" fill="#404040">
                                <set attributeName="fill" to="#808080" begin="zoomminus.mouseover" end="zoomminus.mouseout"/>
                        </use>
                        <path d="M-4,0h8" fill="none" stroke="white" stroke-width="1.5" pointer-events="none"/>
                </g>
                <g id="dirArrow">
                        <path fill="none" stroke="white" stroke-width="1.5" d="M0,-3.0v7 M-2.5,-0.5L0,-3.0L2.5,-0.5"/>
                </g>
               <g id="resetDef">
                       <use xlink:href="#rim2" fill="#404040">
                               <set attributeName="fill" to="#808080" begin="reset.mouseover" end="reset.mouseout"/>
                       </use>
               </g>
        </defs>

<script type="text/javascript">
var viewWidth = 584;
var viewHeight = 500;
var sectionId = 'dynsection-0';
</script>
<script xlink:href="svgpan.js"/>
<svg id="graph" class="graph">
<g id="viewport">
<title>sgns::primitives::Justification</title>
<!-- Node1 -->
<g id="node1" class="node">
<title>Node1</title>
<g id="a_node1"><a xlink:title=" ">
<polygon fill="#999999" stroke="#666666" points="372,-30 229,-30 229,0 372,0 372,-30"/>
<text text-anchor="middle" x="300.5" y="-18" font-family="Helvetica,sans-Serif" font-size="10.00">{sgns::primitives::Justification</text>
<text text-anchor="middle" x="300.5" y="-7" font-family="Helvetica,sans-Serif" font-size="10.00">||}</text>
</a>
</g>
</g>
<!-- Node2 -->
<g id="node2" class="node">
<title>Node2</title>
<g id="a_node2"><a xlink:href="classsgns_1_1base_1_1_buffer.html" target="_top" xlink:title="Class represents arbitrary (including empty) byte buffer.">
<polygon fill="white" stroke="#666666" points="348.5,-250 252.5,-250 252.5,-77 348.5,-77 348.5,-250"/>
<text text-anchor="middle" x="300.5" y="-238" font-family="Helvetica,sans-Serif" font-size="10.00">{sgns::base::Buffer</text>
<text text-anchor="start" x="260.5" y="-227" font-family="Helvetica,sans-Serif" font-size="10.00">||+ Buffer()</text>
<text text-anchor="start" x="260.5" y="-216" font-family="Helvetica,sans-Serif" font-size="10.00">+ ~Buffer()</text>
<text text-anchor="start" x="260.5" y="-205" font-family="Helvetica,sans-Serif" font-size="10.00">+ Buffer()</text>
<text text-anchor="start" x="260.5" y="-194" font-family="Helvetica,sans-Serif" font-size="10.00">+ Buffer()</text>
<text text-anchor="start" x="260.5" y="-183" font-family="Helvetica,sans-Serif" font-size="10.00">+ Buffer()</text>
<text text-anchor="start" x="260.5" y="-172" font-family="Helvetica,sans-Serif" font-size="10.00">+ Buffer()</text>
<text text-anchor="start" x="260.5" y="-161" font-family="Helvetica,sans-Serif" font-size="10.00">+ Buffer()</text>
<text text-anchor="start" x="260.5" y="-150" font-family="Helvetica,sans-Serif" font-size="10.00">+ Buffer()</text>
<text text-anchor="start" x="260.5" y="-139" font-family="Helvetica,sans-Serif" font-size="10.00">+ Buffer()</text>
<text text-anchor="start" x="260.5" y="-128" font-family="Helvetica,sans-Serif" font-size="10.00">+ reserve()</text>
<text text-anchor="start" x="260.5" y="-117" font-family="Helvetica,sans-Serif" font-size="10.00">and 32 more...</text>
<text text-anchor="start" x="260.5" y="-106" font-family="Helvetica,sans-Serif" font-size="10.00">+ fromHex()</text>
<text text-anchor="start" x="260.5" y="-95" font-family="Helvetica,sans-Serif" font-size="10.00">&#45; putRange()</text>
<text text-anchor="middle" x="300.5" y="-84" font-family="Helvetica,sans-Serif" font-size="10.00">}</text>
</a>
</g>
</g>
<!-- Node2&#45;&gt;Node1 -->
<g id="edge1" class="edge">
<title>Node2&#45;&gt;Node1</title>
<path fill="none" stroke="#404040" d="M300.5,-76.86C300.5,-64.74 300.5,-53.09 300.5,-43.28"/>
<polygon fill="none" stroke="#404040" points="300.5,-43.3 296.5,-37.3 300.5,-31.3 304.5,-37.3 300.5,-43.3"/>
<text text-anchor="middle" x="314.5" y="-51" font-family="Helvetica,sans-Serif" font-size="10.00"> +data</text>
</g>
<!-- Node3 -->
<g id="node3" class="node">
<title>Node3</title>
<g id="a_node3"><a xlink:title=" ">
<polygon fill="white" stroke="#666666" points="137,-338 0,-338 0,-297 137,-297 137,-338"/>
<text text-anchor="start" x="8" y="-326" font-family="Helvetica,sans-Serif" font-size="10.00">{boost::equality_comparable</text>
<text text-anchor="middle" x="68.5" y="-315" font-family="Helvetica,sans-Serif" font-size="10.00">&lt; Buffer &gt;</text>
<text text-anchor="middle" x="68.5" y="-304" font-family="Helvetica,sans-Serif" font-size="10.00">||}</text>
</a>
</g>
</g>
<!-- Node3&#45;&gt;Node2 -->
<g id="edge2" class="edge">
<title>Node3&#45;&gt;Node2</title>
<path fill="none" stroke="#63b8ff" d="M108.24,-290.46C148.17,-264.3 209.74,-223.96 252.4,-196.01"/>
<polygon fill="none" stroke="#63b8ff" points="106.54,-287.39 100.1,-295.8 110.38,-293.25 106.54,-287.39"/>
</g>
<!-- Node4 -->
<g id="node4" class="node">
<title>Node4</title>
<g id="a_node4"><a xlink:title=" ">
<polygon fill="white" stroke="#666666" points="292,-338 155,-338 155,-297 292,-297 292,-338"/>
<text text-anchor="start" x="163" y="-326" font-family="Helvetica,sans-Serif" font-size="10.00">{boost::equality_comparable</text>
<text text-anchor="middle" x="223.5" y="-315" font-family="Helvetica,sans-Serif" font-size="10.00">&lt; gsl::span&lt; uint8_t &gt; &gt;</text>
<text text-anchor="middle" x="223.5" y="-304" font-family="Helvetica,sans-Serif" font-size="10.00">||}</text>
</a>
</g>
</g>
<!-- Node4&#45;&gt;Node2 -->
<g id="edge3" class="edge">
<title>Node4&#45;&gt;Node2</title>
<path fill="none" stroke="#63b8ff" d="M238.6,-286.69C243.99,-276.05 250.37,-263.45 256.95,-250.47"/>
<polygon fill="none" stroke="#63b8ff" points="235.65,-284.78 234.25,-295.28 241.89,-287.94 235.65,-284.78"/>
</g>
<!-- Node5 -->
<g id="node5" class="node">
<title>Node5</title>
<g id="a_node5"><a xlink:title=" ">
<polygon fill="white" stroke="#666666" points="447,-338 310,-338 310,-297 447,-297 447,-338"/>
<text text-anchor="start" x="318" y="-326" font-family="Helvetica,sans-Serif" font-size="10.00">{boost::equality_comparable</text>
<text text-anchor="middle" x="378.5" y="-315" font-family="Helvetica,sans-Serif" font-size="10.00">&lt; std::vector&lt; uint8_t &gt; &gt;</text>
<text text-anchor="middle" x="378.5" y="-304" font-family="Helvetica,sans-Serif" font-size="10.00">||}</text>
</a>
</g>
</g>
<!-- Node5&#45;&gt;Node2 -->
<g id="edge4" class="edge">
<title>Node5&#45;&gt;Node2</title>
<path fill="none" stroke="#63b8ff" d="M363.2,-286.69C357.74,-276.05 351.28,-263.45 344.61,-250.47"/>
<polygon fill="none" stroke="#63b8ff" points="359.93,-287.98 367.61,-295.28 366.16,-284.79 359.93,-287.98"/>
</g>
<!-- Node6 -->
<g id="node6" class="node">
<title>Node6</title>
<g id="a_node6"><a xlink:title=" ">
<polygon fill="white" stroke="#666666" points="575.5,-338 465.5,-338 465.5,-297 575.5,-297 575.5,-338"/>
<text text-anchor="middle" x="520.5" y="-326" font-family="Helvetica,sans-Serif" font-size="10.00">{std::vector&lt; uint8_t &gt;</text>
<text text-anchor="start" x="473.5" y="-315" font-family="Helvetica,sans-Serif" font-size="10.00">|+ elements</text>
<text text-anchor="middle" x="520.5" y="-304" font-family="Helvetica,sans-Serif" font-size="10.00">|}</text>
</a>
</g>
</g>
<!-- Node6&#45;&gt;Node2 -->
<g id="edge5" class="edge">
<title>Node6&#45;&gt;Node2</title>
<path fill="none" stroke="#404040" d="M491.74,-296.63C458.24,-273.48 402.03,-234.64 359.19,-205.05"/>
<polygon fill="none" stroke="#404040" points="359.22,-205.07 352.01,-204.95 349.35,-198.25 356.56,-198.37 359.22,-205.07"/>
<text text-anchor="middle" x="475.5" y="-271" font-family="Helvetica,sans-Serif" font-size="10.00"> &#45;data_</text>
</g>
<!-- Node7 -->
<g id="node7" class="node">
<title>Node7</title>
<g id="a_node7"><a xlink:title=" ">
<polygon fill="white" stroke="#666666" points="564,-415 477,-415 477,-385 564,-385 564,-415"/>
<text text-anchor="middle" x="520.5" y="-403" font-family="Helvetica,sans-Serif" font-size="10.00">{std::vector&lt; T &gt;</text>
<text text-anchor="middle" x="520.5" y="-392" font-family="Helvetica,sans-Serif" font-size="10.00">||}</text>
</a>
</g>
</g>
<!-- Node7&#45;&gt;Node6 -->
<g id="edge6" class="edge">
<title>Node7&#45;&gt;Node6</title>
<path fill="none" stroke="orange" d="M520.5,-373.2C520.5,-361.86 520.5,-348.75 520.5,-338.21"/>
<polygon fill="orange" stroke="orange" points="517,-373.09 520.5,-383.09 524,-373.09 517,-373.09"/>
<text text-anchor="middle" x="545" y="-359" font-family="Helvetica,sans-Serif" font-size="10.00"> &lt; uint8_t &gt;</text>
</g>
<!-- Node8 -->
<g id="node8" class="node">
<title>Node8</title>
<g id="a_node8"><a xlink:title=" ">
<polygon fill="white" stroke="#666666" points="535,-492 506,-492 506,-462 535,-462 535,-492"/>
<text text-anchor="middle" x="520.5" y="-480" font-family="Helvetica,sans-Serif" font-size="10.00">{T</text>
<text text-anchor="middle" x="520.5" y="-469" font-family="Helvetica,sans-Serif" font-size="10.00">||}</text>
</a>
</g>
</g>
<!-- Node8&#45;&gt;Node7 -->
<g id="edge7" class="edge">
<title>Node8&#45;&gt;Node7</title>
<path fill="none" stroke="#404040" d="M520.5,-461.54C520.5,-452.1 520.5,-439.47 520.5,-428.2"/>
<polygon fill="none" stroke="#404040" points="520.5,-428.32 516.5,-422.32 520.5,-416.32 524.5,-422.32 520.5,-428.32"/>
<text text-anchor="middle" x="545" y="-436" font-family="Helvetica,sans-Serif" font-size="10.00"> +elements</text>
</g>
</g>
</svg>
        <g id="navigator" transform="translate(0 0)" fill="#404254">
                <rect fill="#f2f5e9" fill-opacity="0.5" stroke="#606060" stroke-width=".5" x="0" y="0" width="60" height="60"/>
                <use id="zoomplus" xlink:href="#zoomPlus" x="17" y="9" onmousedown="handleZoom(evt,'in')"/>
                <use id="zoomminus" xlink:href="#zoomMin" x="42" y="9" onmousedown="handleZoom(evt,'out')"/>
                <use id="reset" xlink:href="#resetDef" x="30" y="36" onmousedown="handleReset()"/>
                <g id="arrowUp" xlink:href="#dirArrow" transform="translate(30 24)" onmousedown="handlePan(0,-1)">
                  <use xlink:href="#rim" fill="#404040">
                        <set attributeName="fill" to="#808080" begin="arrowUp.mouseover" end="arrowUp.mouseout"/>
                  </use>
                  <path fill="none" stroke="white" stroke-width="1.5" d="M0,-3.0v7 M-2.5,-0.5L0,-3.0L2.5,-0.5"/>
                </g>
                <g id="arrowRight" xlink:href="#dirArrow" transform="rotate(90) translate(36 -43)" onmousedown="handlePan(1,0)">
                  <use xlink:href="#rim" fill="#404040">
                        <set attributeName="fill" to="#808080" begin="arrowRight.mouseover" end="arrowRight.mouseout"/>
                  </use>
                  <path fill="none" stroke="white" stroke-width="1.5" d="M0,-3.0v7 M-2.5,-0.5L0,-3.0L2.5,-0.5"/>
                </g>
                <g id="arrowDown" xlink:href="#dirArrow" transform="rotate(180) translate(-30 -48)" onmousedown="handlePan(0,1)">
                  <use xlink:href="#rim" fill="#404040">
                        <set attributeName="fill" to="#808080" begin="arrowDown.mouseover" end="arrowDown.mouseout"/>
                  </use>
                  <path fill="none" stroke="white" stroke-width="1.5" d="M0,-3.0v7 M-2.5,-0.5L0,-3.0L2.5,-0.5"/>
                </g>
                <g id="arrowLeft" xlink:href="#dirArrow" transform="rotate(270) translate(-36 17)" onmousedown="handlePan(-1,0)">
                  <use xlink:href="#rim" fill="#404040">
                        <set attributeName="fill" to="#808080" begin="arrowLeft.mouseover" end="arrowLeft.mouseout"/>
                  </use>
                  <path fill="none" stroke="white" stroke-width="1.5" d="M0,-3.0v7 M-2.5,-0.5L0,-3.0L2.5,-0.5"/>
                </g>
        </g>
        <svg viewBox="0 0 15 15" width="100%" height="30px" preserveAspectRatio="xMaxYMin meet">
         <g id="arrow_out" transform="scale(0.3 0.3)">
          <a xlink:href="structsgns_1_1primitives_1_1_justification__coll__graph_org.svg" target="_base">
           <rect id="button" ry="5" rx="5" y="6" x="6" height="38" width="38"
                fill="#f2f5e9" fill-opacity="0.5" stroke="#606060" stroke-width="1.0"/>
           <path id="arrow"
             d="M 11.500037,31.436501 C 11.940474,20.09759 22.043105,11.32322 32.158766,21.979434 L 37.068811,17.246167 C 37.068811,17.246167 37.088388,32 37.088388,32 L 22.160133,31.978069 C 22.160133,31.978069 26.997745,27.140456 26.997745,27.140456 C 18.528582,18.264221 13.291696,25.230495 11.500037,31.436501 z"
             style="fill:#404040;"/>
          </a>
         </g>
        </svg>
</svg>
