<?xml version="1.0" encoding="UTF-8" standalone="no"?>
<!DOCTYPE svg PUBLIC "-//W3C//DTD SVG 1.1//EN"
 "http://www.w3.org/Graphics/SVG/1.1/DTD/svg11.dtd">
<!-- Generated by graphviz version 7.0.5 (20221223.1930)
 -->
<!-- Title: src/subscription/subscription_engine.hpp Pages: 1 -->
<svg width="1245pt" height="698pt"
 viewBox="0.00 0.00 1244.50 698.00" xmlns="http://www.w3.org/2000/svg" xmlns:xlink="http://www.w3.org/1999/xlink">
<g id="graph0" class="graph" transform="scale(1 1) rotate(0) translate(4 694)">
<title>src/subscription/subscription_engine.hpp</title>
<!-- Node1 -->
<g id="node1" class="node">
<title>Node1</title>
<g id="a_node1"><a xlink:title=" ">
<polygon fill="#999999" stroke="#666666" points="1082.5,-690 941.5,-690 941.5,-660 1082.5,-660 1082.5,-690"/>
<text text-anchor="start" x="949.5" y="-678" font-family="Helvetica,sans-Serif" font-size="10.00">src/subscription/subscription</text>
<text text-anchor="middle" x="1012" y="-667" font-family="Helvetica,sans-Serif" font-size="10.00">_engine.hpp</text>
</a>
</g>
</g>
<!-- Node2 -->
<g id="node2" class="node">
<title>Node2</title>
<g id="a_node2"><a xlink:href="trie__storage__impl_8hpp.html" target="_top" xlink:title=" ">
<polygon fill="white" stroke="#666666" points="1143,-624 1031,-624 1031,-594 1143,-594 1143,-624"/>
<text text-anchor="start" x="1039" y="-612" font-family="Helvetica,sans-Serif" font-size="10.00">src/storage/trie/impl</text>
<text text-anchor="middle" x="1087" y="-601" font-family="Helvetica,sans-Serif" font-size="10.00">/trie_storage_impl.hpp</text>
</a>
</g>
</g>
<!-- Node1&#45;&gt;Node2 -->
<g id="edge1" class="edge">
<title>Node1&#45;&gt;Node2</title>
<path fill="none" stroke="#63b8ff" d="M1037.29,-652.42C1048.11,-643.18 1060.46,-632.65 1070.14,-624.39"/>
<polygon fill="#63b8ff" stroke="#63b8ff" points="1035.13,-649.66 1029.8,-658.81 1039.68,-654.99 1035.13,-649.66"/>
</g>
<!-- Node19 -->
<g id="node19" class="node">
<title>Node19</title>
<g id="a_node19"><a xlink:href="subscriber_8hpp.html" target="_top" xlink:title=" ">
<polygon fill="white" stroke="#666666" points="1013,-618.5 861,-618.5 861,-599.5 1013,-599.5 1013,-618.5"/>
<text text-anchor="middle" x="937" y="-606.5" font-family="Helvetica,sans-Serif" font-size="10.00">src/subscription/subscriber.hpp</text>
</a>
</g>
</g>
<!-- Node1&#45;&gt;Node19 -->
<g id="edge20" class="edge">
<title>Node1&#45;&gt;Node19</title>
<path fill="none" stroke="#63b8ff" d="M986.93,-652.6C973.44,-641.1 957.54,-627.52 947.36,-618.84"/>
<polygon fill="#63b8ff" stroke="#63b8ff" points="984.32,-654.99 994.2,-658.81 988.87,-649.66 984.32,-654.99"/>
</g>
<!-- Node3 -->
<g id="node3" class="node">
<title>Node3</title>
<g id="a_node3"><a xlink:href="application__injector_8hpp.html" target="_top" xlink:title=" ">
<polygon fill="white" stroke="#666666" points="1013,-321.5 899,-321.5 899,-291.5 1013,-291.5 1013,-321.5"/>
<text text-anchor="start" x="907" y="-309.5" font-family="Helvetica,sans-Serif" font-size="10.00">src/injector/application</text>
<text text-anchor="middle" x="956" y="-298.5" font-family="Helvetica,sans-Serif" font-size="10.00">_injector.hpp</text>
</a>
</g>
</g>
<!-- Node2&#45;&gt;Node3 -->
<g id="edge2" class="edge">
<title>Node2&#45;&gt;Node3</title>
<path fill="none" stroke="#63b8ff" d="M1119.89,-586.7C1129.12,-578.89 1138,-569.18 1143,-558 1164.65,-509.64 1154.28,-484.81 1126,-440 1090.85,-384.31 1023.68,-342.56 985.13,-321.91"/>
<polygon fill="#63b8ff" stroke="#63b8ff" points="1117.97,-583.75 1112.24,-592.66 1122.28,-589.28 1117.97,-583.75"/>
</g>
<!-- Node18 -->
<g id="node18" class="node">
<title>Node18</title>
<g id="a_node18"><a xlink:href="trie__storage__impl_8cpp.html" target="_top" xlink:title=" ">
<polygon fill="white" stroke="#666666" points="1134,-552.5 1022,-552.5 1022,-522.5 1134,-522.5 1134,-552.5"/>
<text text-anchor="start" x="1030" y="-540.5" font-family="Helvetica,sans-Serif" font-size="10.00">src/storage/trie/impl</text>
<text text-anchor="middle" x="1078" y="-529.5" font-family="Helvetica,sans-Serif" font-size="10.00">/trie_storage_impl.cpp</text>
</a>
</g>
</g>
<!-- Node2&#45;&gt;Node18 -->
<g id="edge19" class="edge">
<title>Node2&#45;&gt;Node18</title>
<path fill="none" stroke="#63b8ff" d="M1083.67,-582.26C1082.38,-572.33 1080.96,-561.36 1079.86,-552.88"/>
<polygon fill="#63b8ff" stroke="#63b8ff" points="1080.19,-582.63 1084.94,-592.1 1087.13,-581.73 1080.19,-582.63"/>
</g>
<!-- Node4 -->
<g id="node4" class="node">
<title>Node4</title>
<g id="a_node4"><a xlink:href="application__injector_8cpp.html" target="_top" xlink:title=" ">
<polygon fill="white" stroke="#666666" points="928,-250 814,-250 814,-220 928,-220 928,-250"/>
<text text-anchor="start" x="822" y="-238" font-family="Helvetica,sans-Serif" font-size="10.00">src/injector/application</text>
<text text-anchor="middle" x="871" y="-227" font-family="Helvetica,sans-Serif" font-size="10.00">_injector.cpp</text>
</a>
</g>
</g>
<!-- Node3&#45;&gt;Node4 -->
<g id="edge3" class="edge">
<title>Node3&#45;&gt;Node4</title>
<path fill="none" stroke="#63b8ff" d="M929.62,-283.93C916.28,-273.02 900.44,-260.07 888.59,-250.38"/>
<polygon fill="#63b8ff" stroke="#63b8ff" points="927.26,-286.52 937.22,-290.14 931.69,-281.1 927.26,-286.52"/>
</g>
<!-- Node5 -->
<g id="node5" class="node">
<title>Node5</title>
<g id="a_node5"><a xlink:href="block__producing__node__injector_8hpp.html" target="_top" xlink:title=" ">
<polygon fill="white" stroke="#666666" points="950.5,-184 805.5,-184 805.5,-154 950.5,-154 950.5,-184"/>
<text text-anchor="start" x="813.5" y="-172" font-family="Helvetica,sans-Serif" font-size="10.00">src/injector/block</text>
<text text-anchor="middle" x="878" y="-161" font-family="Helvetica,sans-Serif" font-size="10.00">_producing_node_injector.hpp</text>
</a>
</g>
</g>
<!-- Node3&#45;&gt;Node5 -->
<g id="edge4" class="edge">
<title>Node3&#45;&gt;Node5</title>
<path fill="none" stroke="#63b8ff" d="M954.6,-279.87C952.64,-262 947.98,-238.19 937,-220 928.26,-205.52 913.83,-193.18 901.43,-184.38"/>
<polygon fill="#63b8ff" stroke="#63b8ff" points="951.1,-279.99 955.44,-289.65 958.07,-279.38 951.1,-279.99"/>
</g>
<!-- Node10 -->
<g id="node10" class="node">
<title>Node10</title>
<g id="a_node10"><a xlink:href="syncing__node__injector_8hpp.html" target="_top" xlink:title=" ">
<polygon fill="white" stroke="#666666" points="1093.5,-250 992.5,-250 992.5,-220 1093.5,-220 1093.5,-250"/>
<text text-anchor="start" x="1000.5" y="-238" font-family="Helvetica,sans-Serif" font-size="10.00">src/injector/syncing</text>
<text text-anchor="middle" x="1043" y="-227" font-family="Helvetica,sans-Serif" font-size="10.00">_node_injector.hpp</text>
</a>
</g>
</g>
<!-- Node3&#45;&gt;Node10 -->
<g id="edge9" class="edge">
<title>Node3&#45;&gt;Node10</title>
<path fill="none" stroke="#63b8ff" d="M983,-283.93C996.66,-273.02 1012.87,-260.07 1025,-250.38"/>
<polygon fill="#63b8ff" stroke="#63b8ff" points="980.84,-281.18 975.21,-290.15 985.21,-286.65 980.84,-281.18"/>
</g>
<!-- Node14 -->
<g id="node14" class="node">
<title>Node14</title>
<g id="a_node14"><a xlink:href="validating__node__injector_8hpp.html" target="_top" xlink:title=" ">
<polygon fill="white" stroke="#666666" points="791.5,-250 682.5,-250 682.5,-220 791.5,-220 791.5,-250"/>
<text text-anchor="start" x="690.5" y="-238" font-family="Helvetica,sans-Serif" font-size="10.00">src/injector/validating</text>
<text text-anchor="middle" x="737" y="-227" font-family="Helvetica,sans-Serif" font-size="10.00">_node_injector.hpp</text>
</a>
</g>
</g>
<!-- Node3&#45;&gt;Node14 -->
<g id="edge13" class="edge">
<title>Node3&#45;&gt;Node14</title>
<path fill="none" stroke="#63b8ff" d="M899.44,-287.55C863.11,-276.02 816.54,-261.24 782.58,-250.47"/>
<polygon fill="#63b8ff" stroke="#63b8ff" points="898.32,-290.87 908.91,-290.56 900.44,-284.2 898.32,-290.87"/>
</g>
<!-- Node6 -->
<g id="node6" class="node">
<title>Node6</title>
<g id="a_node6"><a xlink:href="block__producing__node__application_8hpp.html" target="_top" xlink:title=" ">
<polygon fill="white" stroke="#666666" points="787,-118 671,-118 671,-77 787,-77 787,-118"/>
<text text-anchor="start" x="679" y="-106" font-family="Helvetica,sans-Serif" font-size="10.00">src/application/impl</text>
<text text-anchor="start" x="679" y="-95" font-family="Helvetica,sans-Serif" font-size="10.00">/block_producing_node</text>
<text text-anchor="middle" x="729" y="-84" font-family="Helvetica,sans-Serif" font-size="10.00">_application.hpp</text>
</a>
</g>
</g>
<!-- Node5&#45;&gt;Node6 -->
<g id="edge5" class="edge">
<title>Node5&#45;&gt;Node6</title>
<path fill="none" stroke="#63b8ff" d="M836.94,-148.85C816.66,-139.39 792.2,-127.98 771.7,-118.42"/>
<polygon fill="#63b8ff" stroke="#63b8ff" points="835.21,-151.9 845.76,-152.96 838.17,-145.56 835.21,-151.9"/>
</g>
<!-- Node9 -->
<g id="node9" class="node">
<title>Node9</title>
<g id="a_node9"><a xlink:href="block__producing__node__injector_8cpp.html" target="_top" xlink:title=" ">
<polygon fill="white" stroke="#666666" points="950.5,-112.5 805.5,-112.5 805.5,-82.5 950.5,-82.5 950.5,-112.5"/>
<text text-anchor="start" x="813.5" y="-100.5" font-family="Helvetica,sans-Serif" font-size="10.00">src/injector/block</text>
<text text-anchor="middle" x="878" y="-89.5" font-family="Helvetica,sans-Serif" font-size="10.00">_producing_node_injector.cpp</text>
</a>
</g>
</g>
<!-- Node5&#45;&gt;Node9 -->
<g id="edge8" class="edge">
<title>Node5&#45;&gt;Node9</title>
<path fill="none" stroke="#63b8ff" d="M878,-142.26C878,-132.33 878,-121.36 878,-112.88"/>
<polygon fill="#63b8ff" stroke="#63b8ff" points="874.5,-142.09 878,-152.09 881.5,-142.09 874.5,-142.09"/>
</g>
<!-- Node7 -->
<g id="node7" class="node">
<title>Node7</title>
<g id="a_node7"><a xlink:href="app__delegate_8cpp.html" target="_top" xlink:title=" ">
<polygon fill="white" stroke="#666666" points="589,-30 473,-30 473,-11 589,-11 589,-30"/>
<text text-anchor="middle" x="531" y="-18" font-family="Helvetica,sans-Serif" font-size="10.00">node/app_delegate.cpp</text>
</a>
</g>
</g>
<!-- Node6&#45;&gt;Node7 -->
<g id="edge6" class="edge">
<title>Node6&#45;&gt;Node7</title>
<path fill="none" stroke="#63b8ff" d="M666.01,-72.64C628.11,-58.28 582.06,-40.84 554.72,-30.48"/>
<polygon fill="#63b8ff" stroke="#63b8ff" points="664.45,-75.79 675.04,-76.06 666.93,-69.25 664.45,-75.79"/>
</g>
<!-- Node8 -->
<g id="node8" class="node">
<title>Node8</title>
<g id="a_node8"><a xlink:href="block__producing__node__application_8cpp.html" target="_top" xlink:title=" ">
<polygon fill="white" stroke="#666666" points="787,-41 671,-41 671,0 787,0 787,-41"/>
<text text-anchor="start" x="679" y="-29" font-family="Helvetica,sans-Serif" font-size="10.00">src/application/impl</text>
<text text-anchor="start" x="679" y="-18" font-family="Helvetica,sans-Serif" font-size="10.00">/block_producing_node</text>
<text text-anchor="middle" x="729" y="-7" font-family="Helvetica,sans-Serif" font-size="10.00">_application.cpp</text>
</a>
</g>
</g>
<!-- Node6&#45;&gt;Node8 -->
<g id="edge7" class="edge">
<title>Node6&#45;&gt;Node8</title>
<path fill="none" stroke="#63b8ff" d="M729,-65.36C729,-57.24 729,-48.7 729,-41.33"/>
<polygon fill="#63b8ff" stroke="#63b8ff" points="725.5,-65.28 729,-75.28 732.5,-65.28 725.5,-65.28"/>
</g>
<!-- Node11 -->
<g id="node11" class="node">
<title>Node11</title>
<g id="a_node11"><a xlink:href="syncing__node__application_8hpp.html" target="_top" xlink:title=" ">
<polygon fill="white" stroke="#666666" points="1117.5,-184 968.5,-184 968.5,-154 1117.5,-154 1117.5,-184"/>
<text text-anchor="start" x="976.5" y="-172" font-family="Helvetica,sans-Serif" font-size="10.00">src/application/impl</text>
<text text-anchor="middle" x="1043" y="-161" font-family="Helvetica,sans-Serif" font-size="10.00">/syncing_node_application.hpp</text>
</a>
</g>
</g>
<!-- Node10&#45;&gt;Node11 -->
<g id="edge10" class="edge">
<title>Node10&#45;&gt;Node11</title>
<path fill="none" stroke="#63b8ff" d="M1043,-208.39C1043,-200.13 1043,-191.28 1043,-184.16"/>
<polygon fill="#63b8ff" stroke="#63b8ff" points="1039.5,-208.28 1043,-218.28 1046.5,-208.28 1039.5,-208.28"/>
</g>
<!-- Node13 -->
<g id="node13" class="node">
<title>Node13</title>
<g id="a_node13"><a xlink:href="syncing__node__injector_8cpp.html" target="_top" xlink:title=" ">
<polygon fill="white" stroke="#666666" points="1236.5,-184 1135.5,-184 1135.5,-154 1236.5,-154 1236.5,-184"/>
<text text-anchor="start" x="1143.5" y="-172" font-family="Helvetica,sans-Serif" font-size="10.00">src/injector/syncing</text>
<text text-anchor="middle" x="1186" y="-161" font-family="Helvetica,sans-Serif" font-size="10.00">_node_injector.cpp</text>
</a>
</g>
</g>
<!-- Node10&#45;&gt;Node13 -->
<g id="edge12" class="edge">
<title>Node10&#45;&gt;Node13</title>
<path fill="none" stroke="#63b8ff" d="M1085.47,-214.99C1107.44,-205.16 1133.8,-193.36 1154.02,-184.31"/>
<polygon fill="#63b8ff" stroke="#63b8ff" points="1084.17,-211.74 1076.47,-219.02 1087.03,-218.13 1084.17,-211.74"/>
</g>
<!-- Node12 -->
<g id="node12" class="node">
<title>Node12</title>
<g id="a_node12"><a xlink:href="syncing__node__application_8cpp.html" target="_top" xlink:title=" ">
<polygon fill="white" stroke="#666666" points="1117.5,-112.5 968.5,-112.5 968.5,-82.5 1117.5,-82.5 1117.5,-112.5"/>
<text text-anchor="start" x="976.5" y="-100.5" font-family="Helvetica,sans-Serif" font-size="10.00">src/application/impl</text>
<text text-anchor="middle" x="1043" y="-89.5" font-family="Helvetica,sans-Serif" font-size="10.00">/syncing_node_application.cpp</text>
</a>
</g>
</g>
<!-- Node11&#45;&gt;Node12 -->
<g id="edge11" class="edge">
<title>Node11&#45;&gt;Node12</title>
<path fill="none" stroke="#63b8ff" d="M1043,-142.26C1043,-132.33 1043,-121.36 1043,-112.88"/>
<polygon fill="#63b8ff" stroke="#63b8ff" points="1039.5,-142.09 1043,-152.09 1046.5,-142.09 1039.5,-142.09"/>
</g>
<!-- Node14&#45;&gt;Node5 -->
<g id="edge17" class="edge">
<title>Node14&#45;&gt;Node5</title>
<path fill="none" stroke="#63b8ff" d="M778.88,-214.99C800.53,-205.16 826.53,-193.36 846.46,-184.31"/>
<polygon fill="#63b8ff" stroke="#63b8ff" points="777.68,-211.69 770.02,-219.01 780.57,-218.07 777.68,-211.69"/>
</g>
<!-- Node15 -->
<g id="node15" class="node">
<title>Node15</title>
<g id="a_node15"><a xlink:href="validating__node__application_8hpp.html" target="_top" xlink:title=" ">
<polygon fill="white" stroke="#666666" points="598.5,-184 441.5,-184 441.5,-154 598.5,-154 598.5,-184"/>
<text text-anchor="start" x="449.5" y="-172" font-family="Helvetica,sans-Serif" font-size="10.00">src/application/impl</text>
<text text-anchor="middle" x="520" y="-161" font-family="Helvetica,sans-Serif" font-size="10.00">/validating_node_application.hpp</text>
</a>
</g>
</g>
<!-- Node14&#45;&gt;Node15 -->
<g id="edge14" class="edge">
<title>Node14&#45;&gt;Node15</title>
<path fill="none" stroke="#63b8ff" d="M677.26,-216.38C643.14,-206.32 600.9,-193.86 568.79,-184.39"/>
<polygon fill="#63b8ff" stroke="#63b8ff" points="676,-219.66 686.58,-219.13 677.98,-212.94 676,-219.66"/>
</g>
<!-- Node17 -->
<g id="node17" class="node">
<title>Node17</title>
<g id="a_node17"><a xlink:href="validating__node__injector_8cpp.html" target="_top" xlink:title=" ">
<polygon fill="white" stroke="#666666" points="787.5,-184 678.5,-184 678.5,-154 787.5,-154 787.5,-184"/>
<text text-anchor="start" x="686.5" y="-172" font-family="Helvetica,sans-Serif" font-size="10.00">src/injector/validating</text>
<text text-anchor="middle" x="733" y="-161" font-family="Helvetica,sans-Serif" font-size="10.00">_node_injector.cpp</text>
</a>
</g>
</g>
<!-- Node14&#45;&gt;Node17 -->
<g id="edge18" class="edge">
<title>Node14&#45;&gt;Node17</title>
<path fill="none" stroke="#63b8ff" d="M735.4,-208.39C734.88,-200.13 734.33,-191.28 733.89,-184.16"/>
<polygon fill="#63b8ff" stroke="#63b8ff" points="731.9,-208.52 736.02,-218.29 738.89,-208.09 731.9,-208.52"/>
</g>
<!-- Node15&#45;&gt;Node7 -->
<g id="edge15" class="edge">
<title>Node15&#45;&gt;Node7</title>
<path fill="none" stroke="#63b8ff" d="M500.1,-144.92C494.4,-136.93 488.94,-127.56 486,-118 480.64,-100.58 479.91,-94.18 486,-77 492.8,-57.83 509.35,-40.44 520.38,-30.42"/>
<polygon fill="#63b8ff" stroke="#63b8ff" points="497.22,-146.92 506.09,-152.72 502.77,-142.66 497.22,-146.92"/>
</g>
<!-- Node16 -->
<g id="node16" class="node">
<title>Node16</title>
<g id="a_node16"><a xlink:href="validating__node__application_8cpp.html" target="_top" xlink:title=" ">
<polygon fill="white" stroke="#666666" points="652.5,-112.5 495.5,-112.5 495.5,-82.5 652.5,-82.5 652.5,-112.5"/>
<text text-anchor="start" x="503.5" y="-100.5" font-family="Helvetica,sans-Serif" font-size="10.00">src/application/impl</text>
<text text-anchor="middle" x="574" y="-89.5" font-family="Helvetica,sans-Serif" font-size="10.00">/validating_node_application.cpp</text>
</a>
</g>
</g>
<!-- Node15&#45;&gt;Node16 -->
<g id="edge16" class="edge">
<title>Node15&#45;&gt;Node16</title>
<path fill="none" stroke="#63b8ff" d="M538.24,-144.53C546.39,-134.04 555.73,-122.01 562.83,-112.88"/>
<polygon fill="#63b8ff" stroke="#63b8ff" points="535.49,-142.36 532.12,-152.4 541.02,-146.66 535.49,-142.36"/>
</g>
<!-- Node19&#45;&gt;Node18 -->
<g id="edge47" class="edge">
<title>Node19&#45;&gt;Node18</title>
<path fill="none" stroke="#63b8ff" d="M965.45,-593.98C989.63,-582.06 1024.2,-565.02 1048.64,-552.97"/>
<polygon fill="#63b8ff" stroke="#63b8ff" points="963.92,-590.83 956.5,-598.39 967.02,-597.11 963.92,-590.83"/>
</g>
<!-- Node20 -->
<g id="node20" class="node">
<title>Node20</title>
<g id="a_node20"><a xlink:href="api__service_8hpp.html" target="_top" xlink:title=" ">
<polygon fill="white" stroke="#666666" points="783,-552.5 687,-552.5 687,-522.5 783,-522.5 783,-552.5"/>
<text text-anchor="start" x="695" y="-540.5" font-family="Helvetica,sans-Serif" font-size="10.00">src/api/service/api</text>
<text text-anchor="middle" x="735" y="-529.5" font-family="Helvetica,sans-Serif" font-size="10.00">_service.hpp</text>
</a>
</g>
</g>
<!-- Node19&#45;&gt;Node20 -->
<g id="edge21" class="edge">
<title>Node19&#45;&gt;Node20</title>
<path fill="none" stroke="#63b8ff" d="M900.38,-595.4C865.65,-583.45 813.49,-565.51 777.06,-552.97"/>
<polygon fill="#63b8ff" stroke="#63b8ff" points="898.98,-598.62 909.57,-598.56 901.26,-592 898.98,-598.62"/>
</g>
<!-- Node35 -->
<g id="node35" class="node">
<title>Node35</title>
<g id="a_node35"><a xlink:href="storage__changes__tracker__impl_8hpp.html" target="_top" xlink:title=" ">
<polygon fill="white" stroke="#666666" points="1004,-558 870,-558 870,-517 1004,-517 1004,-558"/>
<text text-anchor="start" x="878" y="-546" font-family="Helvetica,sans-Serif" font-size="10.00">src/storage/changes</text>
<text text-anchor="start" x="878" y="-535" font-family="Helvetica,sans-Serif" font-size="10.00">_trie/impl/storage_changes</text>
<text text-anchor="middle" x="937" y="-524" font-family="Helvetica,sans-Serif" font-size="10.00">_tracker_impl.hpp</text>
</a>
</g>
</g>
<!-- Node19&#45;&gt;Node35 -->
<g id="edge44" class="edge">
<title>Node19&#45;&gt;Node35</title>
<path fill="none" stroke="#63b8ff" d="M937,-587.89C937,-578.59 937,-567.56 937,-558.29"/>
<polygon fill="#63b8ff" stroke="#63b8ff" points="933.5,-587.68 937,-597.68 940.5,-587.68 933.5,-587.68"/>
</g>
<!-- Node20&#45;&gt;Node3 -->
<g id="edge43" class="edge">
<title>Node20&#45;&gt;Node3</title>
<path fill="none" stroke="#63b8ff" d="M766.62,-515.8C801.63,-491.81 858.35,-449.7 898,-404 920.68,-377.87 939.72,-341.74 949.32,-321.93"/>
<polygon fill="#63b8ff" stroke="#63b8ff" points="764.93,-512.72 758.61,-521.22 768.85,-518.51 764.93,-512.72"/>
</g>
<!-- Node20&#45;&gt;Node15 -->
<g id="edge42" class="edge">
<title>Node20&#45;&gt;Node15</title>
<path fill="none" stroke="#63b8ff" d="M675.48,-536.81C500.51,-536.12 0,-522.14 0,-384.5 0,-384.5 0,-384.5 0,-305.5 0,-215.47 295.55,-184.17 441.02,-174.22"/>
<polygon fill="#63b8ff" stroke="#63b8ff" points="675.25,-540.31 685.26,-536.83 675.27,-533.31 675.25,-540.31"/>
</g>
<!-- Node21 -->
<g id="node21" class="node">
<title>Node21</title>
<g id="a_node21"><a xlink:href="api__service_8cpp.html" target="_top" xlink:title=" ">
<polygon fill="white" stroke="#666666" points="783,-475.5 687,-475.5 687,-445.5 783,-445.5 783,-475.5"/>
<text text-anchor="start" x="695" y="-463.5" font-family="Helvetica,sans-Serif" font-size="10.00">src/api/service/api</text>
<text text-anchor="middle" x="735" y="-452.5" font-family="Helvetica,sans-Serif" font-size="10.00">_service.cpp</text>
</a>
</g>
</g>
<!-- Node20&#45;&gt;Node21 -->
<g id="edge22" class="edge">
<title>Node20&#45;&gt;Node21</title>
<path fill="none" stroke="#63b8ff" d="M735,-510.73C735,-499.08 735,-485.76 735,-475.92"/>
<polygon fill="#63b8ff" stroke="#63b8ff" points="731.5,-510.53 735,-520.53 738.5,-510.53 731.5,-510.53"/>
</g>
<!-- Node22 -->
<g id="node22" class="node">
<title>Node22</title>
<g id="a_node22"><a xlink:href="state__api_8hpp.html" target="_top" xlink:title=" ">
<polygon fill="white" stroke="#666666" points="598.5,-475.5 493.5,-475.5 493.5,-445.5 598.5,-445.5 598.5,-475.5"/>
<text text-anchor="start" x="501.5" y="-463.5" font-family="Helvetica,sans-Serif" font-size="10.00">src/api/service/state</text>
<text text-anchor="middle" x="546" y="-452.5" font-family="Helvetica,sans-Serif" font-size="10.00">/state_api.hpp</text>
</a>
</g>
</g>
<!-- Node20&#45;&gt;Node22 -->
<g id="edge23" class="edge">
<title>Node20&#45;&gt;Node22</title>
<path fill="none" stroke="#63b8ff" d="M687.9,-517.81C655.24,-504.85 612.37,-487.84 582.33,-475.92"/>
<polygon fill="#63b8ff" stroke="#63b8ff" points="686.57,-521.05 697.15,-521.48 689.15,-514.54 686.57,-521.05"/>
</g>
<!-- Node23 -->
<g id="node23" class="node">
<title>Node23</title>
<g id="a_node23"><a xlink:href="state__api__impl_8hpp.html" target="_top" xlink:title=" ">
<polygon fill="white" stroke="#666666" points="889,-398.5 767,-398.5 767,-368.5 889,-368.5 889,-398.5"/>
<text text-anchor="start" x="775" y="-386.5" font-family="Helvetica,sans-Serif" font-size="10.00">src/api/service/state</text>
<text text-anchor="middle" x="828" y="-375.5" font-family="Helvetica,sans-Serif" font-size="10.00">/impl/state_api_impl.hpp</text>
</a>
</g>
</g>
<!-- Node22&#45;&gt;Node23 -->
<g id="edge24" class="edge">
<title>Node22&#45;&gt;Node23</title>
<path fill="none" stroke="#63b8ff" d="M609.71,-443.1C651.84,-432.18 708.27,-417.44 758,-404 763.97,-402.39 770.22,-400.68 776.42,-398.97"/>
<polygon fill="#63b8ff" stroke="#63b8ff" points="609.04,-439.66 600.24,-445.55 610.79,-446.43 609.04,-439.66"/>
</g>
<!-- Node25 -->
<g id="node25" class="node">
<title>Node25</title>
<g id="a_node25"><a xlink:href="get__runtime__version_8hpp.html" target="_top" xlink:title=" ">
<polygon fill="white" stroke="#666666" points="147.5,-404 36.5,-404 36.5,-363 147.5,-363 147.5,-404"/>
<text text-anchor="start" x="44.5" y="-392" font-family="Helvetica,sans-Serif" font-size="10.00">src/api/service/state</text>
<text text-anchor="start" x="44.5" y="-381" font-family="Helvetica,sans-Serif" font-size="10.00">/requests/get_runtime</text>
<text text-anchor="middle" x="92" y="-370" font-family="Helvetica,sans-Serif" font-size="10.00">_version.hpp</text>
</a>
</g>
</g>
<!-- Node22&#45;&gt;Node25 -->
<g id="edge27" class="edge">
<title>Node22&#45;&gt;Node25</title>
<path fill="none" stroke="#63b8ff" d="M482.14,-453.47C404.45,-445.44 269.59,-429.23 156,-404 153.28,-403.4 150.5,-402.73 147.71,-402.03"/>
<polygon fill="#63b8ff" stroke="#63b8ff" points="481.37,-456.91 491.67,-454.44 482.08,-449.95 481.37,-456.91"/>
</g>
<!-- Node28 -->
<g id="node28" class="node">
<title>Node28</title>
<g id="a_node28"><a xlink:href="get__storage_8hpp.html" target="_top" xlink:title=" ">
<polygon fill="white" stroke="#666666" points="294.5,-398.5 165.5,-398.5 165.5,-368.5 294.5,-368.5 294.5,-398.5"/>
<text text-anchor="start" x="173.5" y="-386.5" font-family="Helvetica,sans-Serif" font-size="10.00">src/api/service/state</text>
<text text-anchor="middle" x="230" y="-375.5" font-family="Helvetica,sans-Serif" font-size="10.00">/requests/get_storage.hpp</text>
</a>
</g>
</g>
<!-- Node22&#45;&gt;Node28 -->
<g id="edge30" class="edge">
<title>Node22&#45;&gt;Node28</title>
<path fill="none" stroke="#63b8ff" d="M481.97,-445.41C433.11,-434.51 364.18,-418.83 304,-404 297.55,-402.41 290.8,-400.7 284.1,-398.97"/>
<polygon fill="#63b8ff" stroke="#63b8ff" points="481.01,-448.78 491.53,-447.53 482.53,-441.95 481.01,-448.78"/>
</g>
<!-- Node30 -->
<g id="node30" class="node">
<title>Node30</title>
<g id="a_node30"><a xlink:href="subscribe__storage_8hpp.html" target="_top" xlink:title=" ">
<polygon fill="white" stroke="#666666" points="471,-398.5 313,-398.5 313,-368.5 471,-368.5 471,-398.5"/>
<text text-anchor="start" x="321" y="-386.5" font-family="Helvetica,sans-Serif" font-size="10.00">src/api/service/state</text>
<text text-anchor="middle" x="392" y="-375.5" font-family="Helvetica,sans-Serif" font-size="10.00">/requests/subscribe_storage.hpp</text>
</a>
</g>
</g>
<!-- Node22&#45;&gt;Node30 -->
<g id="edge33" class="edge">
<title>Node22&#45;&gt;Node30</title>
<path fill="none" stroke="#63b8ff" d="M506.23,-440.13C479.79,-427.26 445.65,-410.63 421.6,-398.92"/>
<polygon fill="#63b8ff" stroke="#63b8ff" points="504.42,-443.14 514.95,-444.38 507.49,-436.85 504.42,-443.14"/>
</g>
<!-- Node32 -->
<g id="node32" class="node">
<title>Node32</title>
<g id="a_node32"><a xlink:href="unsubscribe__storage_8hpp.html" target="_top" xlink:title=" ">
<polygon fill="white" stroke="#666666" points="602.5,-404 489.5,-404 489.5,-363 602.5,-363 602.5,-404"/>
<text text-anchor="start" x="497.5" y="-392" font-family="Helvetica,sans-Serif" font-size="10.00">src/api/service/state</text>
<text text-anchor="start" x="497.5" y="-381" font-family="Helvetica,sans-Serif" font-size="10.00">/requests/unsubscribe</text>
<text text-anchor="middle" x="546" y="-370" font-family="Helvetica,sans-Serif" font-size="10.00">_storage.hpp</text>
</a>
</g>
</g>
<!-- Node22&#45;&gt;Node32 -->
<g id="edge36" class="edge">
<title>Node22&#45;&gt;Node32</title>
<path fill="none" stroke="#63b8ff" d="M546,-433.68C546,-424.06 546,-413.3 546,-404.3"/>
<polygon fill="#63b8ff" stroke="#63b8ff" points="542.5,-433.53 546,-443.53 549.5,-433.53 542.5,-433.53"/>
</g>
<!-- Node34 -->
<g id="node34" class="node">
<title>Node34</title>
<g id="a_node34"><a xlink:href="state__jrpc__processor_8hpp.html" target="_top" xlink:title=" ">
<polygon fill="white" stroke="#666666" points="749,-398.5 621,-398.5 621,-368.5 749,-368.5 749,-398.5"/>
<text text-anchor="start" x="629" y="-386.5" font-family="Helvetica,sans-Serif" font-size="10.00">src/api/service/state</text>
<text text-anchor="middle" x="685" y="-375.5" font-family="Helvetica,sans-Serif" font-size="10.00">/state_jrpc_processor.hpp</text>
</a>
</g>
</g>
<!-- Node22&#45;&gt;Node34 -->
<g id="edge39" class="edge">
<title>Node22&#45;&gt;Node34</title>
<path fill="none" stroke="#63b8ff" d="M582.85,-439.62C606.57,-426.82 636.86,-410.47 658.28,-398.92"/>
<polygon fill="#63b8ff" stroke="#63b8ff" points="581.27,-436.49 574.13,-444.32 584.6,-442.65 581.27,-436.49"/>
</g>
<!-- Node23&#45;&gt;Node3 -->
<g id="edge26" class="edge">
<title>Node23&#45;&gt;Node3</title>
<path fill="none" stroke="#63b8ff" d="M862.52,-362.27C884.28,-349.52 911.85,-333.37 931.4,-321.92"/>
<polygon fill="#63b8ff" stroke="#63b8ff" points="860.84,-359.2 853.99,-367.27 864.38,-365.24 860.84,-359.2"/>
</g>
<!-- Node24 -->
<g id="node24" class="node">
<title>Node24</title>
<g id="a_node24"><a xlink:href="state__api__impl_8cpp.html" target="_top" xlink:title=" ">
<polygon fill="white" stroke="#666666" points="881,-321.5 759,-321.5 759,-291.5 881,-291.5 881,-321.5"/>
<text text-anchor="start" x="767" y="-309.5" font-family="Helvetica,sans-Serif" font-size="10.00">src/api/service/state</text>
<text text-anchor="middle" x="820" y="-298.5" font-family="Helvetica,sans-Serif" font-size="10.00">/impl/state_api_impl.cpp</text>
</a>
</g>
</g>
<!-- Node23&#45;&gt;Node24 -->
<g id="edge25" class="edge">
<title>Node23&#45;&gt;Node24</title>
<path fill="none" stroke="#63b8ff" d="M825.25,-356.73C824.01,-345.08 822.59,-331.76 821.54,-321.92"/>
<polygon fill="#63b8ff" stroke="#63b8ff" points="821.76,-356.96 826.3,-366.53 828.72,-356.22 821.76,-356.96"/>
</g>
<!-- Node26 -->
<g id="node26" class="node">
<title>Node26</title>
<g id="a_node26"><a xlink:href="get__runtime__version_8cpp.html" target="_top" xlink:title=" ">
<polygon fill="white" stroke="#666666" points="139.5,-327 28.5,-327 28.5,-286 139.5,-286 139.5,-327"/>
<text text-anchor="start" x="36.5" y="-315" font-family="Helvetica,sans-Serif" font-size="10.00">src/api/service/state</text>
<text text-anchor="start" x="36.5" y="-304" font-family="Helvetica,sans-Serif" font-size="10.00">/requests/get_runtime</text>
<text text-anchor="middle" x="84" y="-293" font-family="Helvetica,sans-Serif" font-size="10.00">_version.cpp</text>
</a>
</g>
</g>
<!-- Node25&#45;&gt;Node26 -->
<g id="edge28" class="edge">
<title>Node25&#45;&gt;Node26</title>
<path fill="none" stroke="#63b8ff" d="M88.68,-351.36C87.81,-343.24 86.9,-334.7 86.12,-327.33"/>
<polygon fill="#63b8ff" stroke="#63b8ff" points="85.2,-351.72 89.74,-361.29 92.16,-350.97 85.2,-351.72"/>
</g>
<!-- Node27 -->
<g id="node27" class="node">
<title>Node27</title>
<g id="a_node27"><a xlink:href="state__jrpc__processor_8cpp.html" target="_top" xlink:title=" ">
<polygon fill="white" stroke="#666666" points="609,-321.5 481,-321.5 481,-291.5 609,-291.5 609,-321.5"/>
<text text-anchor="start" x="489" y="-309.5" font-family="Helvetica,sans-Serif" font-size="10.00">src/api/service/state</text>
<text text-anchor="middle" x="545" y="-298.5" font-family="Helvetica,sans-Serif" font-size="10.00">/state_jrpc_processor.cpp</text>
</a>
</g>
</g>
<!-- Node25&#45;&gt;Node27 -->
<g id="edge29" class="edge">
<title>Node25&#45;&gt;Node27</title>
<path fill="none" stroke="#63b8ff" d="M158.66,-362.64C296.44,-335.22 336.64,-352.64 472,-327 479.48,-325.58 487.31,-323.81 494.96,-321.91"/>
<polygon fill="#63b8ff" stroke="#63b8ff" points="158.28,-359.15 149.18,-364.58 159.67,-366.01 158.28,-359.15"/>
</g>
<!-- Node28&#45;&gt;Node27 -->
<g id="edge32" class="edge">
<title>Node28&#45;&gt;Node27</title>
<path fill="none" stroke="#63b8ff" d="M294.57,-365.3C297.75,-364.51 300.91,-363.74 304,-363 378.27,-345.27 397.76,-344.86 472,-327 478.5,-325.44 485.31,-323.72 492.05,-321.98"/>
<polygon fill="#63b8ff" stroke="#63b8ff" points="293.99,-361.83 285.15,-367.67 295.7,-368.62 293.99,-361.83"/>
</g>
<!-- Node29 -->
<g id="node29" class="node">
<title>Node29</title>
<g id="a_node29"><a xlink:href="get__storage_8cpp.html" target="_top" xlink:title=" ">
<polygon fill="white" stroke="#666666" points="286.5,-321.5 157.5,-321.5 157.5,-291.5 286.5,-291.5 286.5,-321.5"/>
<text text-anchor="start" x="165.5" y="-309.5" font-family="Helvetica,sans-Serif" font-size="10.00">src/api/service/state</text>
<text text-anchor="middle" x="222" y="-298.5" font-family="Helvetica,sans-Serif" font-size="10.00">/requests/get_storage.cpp</text>
</a>
</g>
</g>
<!-- Node28&#45;&gt;Node29 -->
<g id="edge31" class="edge">
<title>Node28&#45;&gt;Node29</title>
<path fill="none" stroke="#63b8ff" d="M227.25,-356.73C226.01,-345.08 224.59,-331.76 223.54,-321.92"/>
<polygon fill="#63b8ff" stroke="#63b8ff" points="223.76,-356.96 228.3,-366.53 230.72,-356.22 223.76,-356.96"/>
</g>
<!-- Node30&#45;&gt;Node27 -->
<g id="edge35" class="edge">
<title>Node30&#45;&gt;Node27</title>
<path fill="none" stroke="#63b8ff" d="M431.51,-363.13C457.78,-350.26 491.7,-333.63 515.59,-321.92"/>
<polygon fill="#63b8ff" stroke="#63b8ff" points="430.3,-359.83 422.86,-367.37 433.38,-366.11 430.3,-359.83"/>
</g>
<!-- Node31 -->
<g id="node31" class="node">
<title>Node31</title>
<g id="a_node31"><a xlink:href="subscribe__storage_8cpp.html" target="_top" xlink:title=" ">
<polygon fill="white" stroke="#666666" points="463,-321.5 305,-321.5 305,-291.5 463,-291.5 463,-321.5"/>
<text text-anchor="start" x="313" y="-309.5" font-family="Helvetica,sans-Serif" font-size="10.00">src/api/service/state</text>
<text text-anchor="middle" x="384" y="-298.5" font-family="Helvetica,sans-Serif" font-size="10.00">/requests/subscribe_storage.cpp</text>
</a>
</g>
</g>
<!-- Node30&#45;&gt;Node31 -->
<g id="edge34" class="edge">
<title>Node30&#45;&gt;Node31</title>
<path fill="none" stroke="#63b8ff" d="M389.25,-356.73C388.01,-345.08 386.59,-331.76 385.54,-321.92"/>
<polygon fill="#63b8ff" stroke="#63b8ff" points="385.76,-356.96 390.3,-366.53 392.72,-356.22 385.76,-356.96"/>
</g>
<!-- Node32&#45;&gt;Node27 -->
<g id="edge38" class="edge">
<title>Node32&#45;&gt;Node27</title>
<path fill="none" stroke="#63b8ff" d="M545.58,-351.28C545.45,-341.07 545.3,-330.21 545.19,-321.86"/>
<polygon fill="#63b8ff" stroke="#63b8ff" points="542.08,-351.33 545.72,-361.28 549.08,-351.24 542.08,-351.33"/>
</g>
<!-- Node33 -->
<g id="node33" class="node">
<title>Node33</title>
<g id="a_node33"><a xlink:href="unsubscribe__storage_8cpp.html" target="_top" xlink:title=" ">
<polygon fill="white" stroke="#666666" points="740.5,-327 627.5,-327 627.5,-286 740.5,-286 740.5,-327"/>
<text text-anchor="start" x="635.5" y="-315" font-family="Helvetica,sans-Serif" font-size="10.00">src/api/service/state</text>
<text text-anchor="start" x="635.5" y="-304" font-family="Helvetica,sans-Serif" font-size="10.00">/requests/unsubscribe</text>
<text text-anchor="middle" x="684" y="-293" font-family="Helvetica,sans-Serif" font-size="10.00">_storage.cpp</text>
</a>
</g>
</g>
<!-- Node32&#45;&gt;Node33 -->
<g id="edge37" class="edge">
<title>Node32&#45;&gt;Node33</title>
<path fill="none" stroke="#63b8ff" d="M592.28,-357.35C610.17,-347.63 630.34,-336.66 647.21,-327.49"/>
<polygon fill="#63b8ff" stroke="#63b8ff" points="591.06,-354.03 583.95,-361.88 594.41,-360.18 591.06,-354.03"/>
</g>
<!-- Node34&#45;&gt;Node3 -->
<g id="edge41" class="edge">
<title>Node34&#45;&gt;Node3</title>
<path fill="none" stroke="#63b8ff" d="M749.84,-365.12C799.49,-351.78 863.78,-334.42 890,-327 895.75,-325.37 901.77,-323.64 907.74,-321.9"/>
<polygon fill="#63b8ff" stroke="#63b8ff" points="749.06,-361.71 740.31,-367.68 750.87,-368.47 749.06,-361.71"/>
</g>
<!-- Node34&#45;&gt;Node27 -->
<g id="edge40" class="edge">
<title>Node34&#45;&gt;Node27</title>
<path fill="none" stroke="#63b8ff" d="M647.88,-362.62C623.99,-349.82 593.48,-333.47 571.91,-321.92"/>
<polygon fill="#63b8ff" stroke="#63b8ff" points="646.2,-365.69 656.67,-367.32 649.51,-359.52 646.2,-365.69"/>
</g>
<!-- Node35&#45;&gt;Node3 -->
<g id="edge45" class="edge">
<title>Node35&#45;&gt;Node3</title>
<path fill="none" stroke="#63b8ff" d="M939.6,-505.14C943.78,-454.83 951.81,-358.06 954.82,-321.74"/>
<polygon fill="#63b8ff" stroke="#63b8ff" points="936.12,-504.81 938.78,-515.07 943.09,-505.39 936.12,-504.81"/>
</g>
<!-- Node36 -->
<g id="node36" class="node">
<title>Node36</title>
<g id="a_node36"><a xlink:href="storage__changes__tracker__impl_8cpp.html" target="_top" xlink:title=" ">
<polygon fill="white" stroke="#666666" points="1117,-481 983,-481 983,-440 1117,-440 1117,-481"/>
<text text-anchor="start" x="991" y="-469" font-family="Helvetica,sans-Serif" font-size="10.00">src/storage/changes</text>
<text text-anchor="start" x="991" y="-458" font-family="Helvetica,sans-Serif" font-size="10.00">_trie/impl/storage_changes</text>
<text text-anchor="middle" x="1050" y="-447" font-family="Helvetica,sans-Serif" font-size="10.00">_tracker_impl.cpp</text>
</a>
</g>
</g>
<!-- Node35&#45;&gt;Node36 -->
<g id="edge46" class="edge">
<title>Node35&#45;&gt;Node36</title>
<path fill="none" stroke="#63b8ff" d="M976.53,-510.26C990.76,-500.82 1006.58,-490.32 1019.87,-481.49"/>
<polygon fill="#63b8ff" stroke="#63b8ff" points="974.64,-507.32 968.25,-515.76 978.51,-513.15 974.64,-507.32"/>
</g>
</g>
</svg>
