<?xml version="1.0" encoding="UTF-8" standalone="no"?>
<!DOCTYPE svg PUBLIC "-//W3C//DTD SVG 1.1//EN"
 "http://www.w3.org/Graphics/SVG/1.1/DTD/svg11.dtd">
<!-- Generated by graphviz version 7.0.5 (20221223.1930)
 -->
<!-- Title: src/storage/trie/supergenius_trie/supergenius_trie_factory.hpp Pages: 1 -->
<!--zoomable 478 -->
<svg id="main" version="1.1" xmlns="http://www.w3.org/2000/svg" xmlns:xlink="http://www.w3.org/1999/xlink" xml:space="preserve" onload="init(evt)">
<style type="text/css"><![CDATA[
.edge:hover path { stroke: red; }
.edge:hover polygon { stroke: red; fill: red; }
]]></style>
<script type="text/javascript"><![CDATA[
var edges = document.getElementsByTagName('g');
if (edges && edges.length) {
  for (var i=0;i<edges.length;i++) {
    if (edges[i].id.substr(0,4)=='edge') {
      edges[i].setAttribute('class','edge');
    }
  }
}
]]></script>
        <defs>
                <circle id="rim" cx="0" cy="0" r="7"/>
                <circle id="rim2" cx="0" cy="0" r="3.5"/>
                <g id="zoomPlus">
                        <use xlink:href="#rim" fill="#404040">
                                <set attributeName="fill" to="#808080" begin="zoomplus.mouseover" end="zoomplus.mouseout"/>
                        </use>
                        <path d="M-4,0h8M0,-4v8" fill="none" stroke="white" stroke-width="1.5" pointer-events="none"/>
                </g>
                <g id="zoomMin">
                        <use xlink:href="#rim" fill="#404040">
                                <set attributeName="fill" to="#808080" begin="zoomminus.mouseover" end="zoomminus.mouseout"/>
                        </use>
                        <path d="M-4,0h8" fill="none" stroke="white" stroke-width="1.5" pointer-events="none"/>
                </g>
                <g id="dirArrow">
                        <path fill="none" stroke="white" stroke-width="1.5" d="M0,-3.0v7 M-2.5,-0.5L0,-3.0L2.5,-0.5"/>
                </g>
               <g id="resetDef">
                       <use xlink:href="#rim2" fill="#404040">
                               <set attributeName="fill" to="#808080" begin="reset.mouseover" end="reset.mouseout"/>
                       </use>
               </g>
        </defs>

<script type="text/javascript">
var viewWidth = 1144;
var viewHeight = 478;
var sectionId = 'dynsection-0';
</script>
<script xlink:href="svgpan.js"/>
<svg id="graph" class="graph">
<g id="viewport">
<title>src/storage/trie/supergenius_trie/supergenius_trie_factory.hpp</title>
<!-- Node1 -->
<g id="node1" class="node">
<title>Node1</title>
<g id="a_node1"><a xlink:title=" ">
<polygon fill="#999999" stroke="#666666" points="373,-470 211,-470 211,-440 373,-440 373,-470"/>
<text text-anchor="start" x="219" y="-458" font-family="Helvetica,sans-Serif" font-size="10.00">src/storage/trie/supergenius</text>
<text text-anchor="middle" x="292" y="-447" font-family="Helvetica,sans-Serif" font-size="10.00">_trie/supergenius_trie_factory.hpp</text>
</a>
</g>
</g>
<!-- Node2 -->
<g id="node2" class="node">
<title>Node2</title>
<g id="a_node2"><a xlink:href="supergenius__trie_8hpp.html" target="_top" xlink:title=" ">
<polygon fill="white" stroke="#666666" points="356,-404 228,-404 228,-374 356,-374 356,-404"/>
<text text-anchor="start" x="236" y="-392" font-family="Helvetica,sans-Serif" font-size="10.00">storage/trie/supergenius</text>
<text text-anchor="middle" x="292" y="-381" font-family="Helvetica,sans-Serif" font-size="10.00">_trie/supergenius_trie.hpp</text>
</a>
</g>
</g>
<!-- Node1&#45;&gt;Node2 -->
<g id="edge1" class="edge">
<title>Node1&#45;&gt;Node2</title>
<path fill="none" stroke="#63b8ff" d="M292,-439.8C292,-432.67 292,-423.82 292,-415.56"/>
<polygon fill="#63b8ff" stroke="#63b8ff" points="295.5,-415.68 292,-405.68 288.5,-415.68 295.5,-415.68"/>
</g>
<!-- Node3 -->
<g id="node3" class="node">
<title>Node3</title>
<g id="a_node3"><a xlink:href="generic__maps_8hpp.html" target="_top" xlink:title=" ">
<polygon fill="white" stroke="#666666" points="304.5,-338 199.5,-338 199.5,-308 304.5,-308 304.5,-338"/>
<text text-anchor="start" x="207.5" y="-326" font-family="Helvetica,sans-Serif" font-size="10.00">storage/face/generic</text>
<text text-anchor="middle" x="252" y="-315" font-family="Helvetica,sans-Serif" font-size="10.00">_maps.hpp</text>
</a>
</g>
</g>
<!-- Node2&#45;&gt;Node3 -->
<g id="edge2" class="edge">
<title>Node2&#45;&gt;Node3</title>
<path fill="none" stroke="#63b8ff" d="M283.12,-373.8C278.36,-366.17 272.36,-356.57 266.9,-347.84"/>
<polygon fill="#63b8ff" stroke="#63b8ff" points="269.92,-346.07 261.65,-339.45 263.99,-349.78 269.92,-346.07"/>
</g>
<!-- Node13 -->
<g id="node13" class="node">
<title>Node13</title>
<g id="a_node13"><a xlink:href="supergenius__node_8hpp.html" target="_top" xlink:title=" ">
<polygon fill="white" stroke="#666666" points="698.5,-272 563.5,-272 563.5,-242 698.5,-242 698.5,-272"/>
<text text-anchor="start" x="571.5" y="-260" font-family="Helvetica,sans-Serif" font-size="10.00">storage/trie/supergenius</text>
<text text-anchor="middle" x="631" y="-249" font-family="Helvetica,sans-Serif" font-size="10.00">_trie/supergenius_node.hpp</text>
</a>
</g>
</g>
<!-- Node2&#45;&gt;Node13 -->
<g id="edge18" class="edge">
<title>Node2&#45;&gt;Node13</title>
<path fill="none" stroke="#63b8ff" d="M329.57,-373.59C391.43,-349.87 514.62,-302.63 582.8,-276.48"/>
<polygon fill="#63b8ff" stroke="#63b8ff" points="583.76,-279.86 591.84,-273.02 581.25,-273.33 583.76,-279.86"/>
</g>
<!-- Node4 -->
<g id="node4" class="node">
<title>Node4</title>
<g id="a_node4"><a xlink:href="batchable_8hpp.html" target="_top" xlink:title=" ">
<polygon fill="white" stroke="#666666" points="134,-266.5 0,-266.5 0,-247.5 134,-247.5 134,-266.5"/>
<text text-anchor="middle" x="67" y="-254.5" font-family="Helvetica,sans-Serif" font-size="10.00">storage/face/batchable.hpp</text>
</a>
</g>
</g>
<!-- Node3&#45;&gt;Node4 -->
<g id="edge3" class="edge">
<title>Node3&#45;&gt;Node4</title>
<path fill="none" stroke="#63b8ff" d="M210.48,-307.64C178.41,-296.54 134.45,-281.34 103.67,-270.69"/>
<polygon fill="#63b8ff" stroke="#63b8ff" points="105,-267.44 94.41,-267.48 102.71,-274.06 105,-267.44"/>
</g>
<!-- Node7 -->
<g id="node7" class="node">
<title>Node7</title>
<g id="a_node7"><a xlink:href="writeable_8hpp.html" target="_top" xlink:title=" ">
<polygon fill="white" stroke="#666666" points="189.5,-140 58.5,-140 58.5,-121 189.5,-121 189.5,-140"/>
<text text-anchor="middle" x="124" y="-128" font-family="Helvetica,sans-Serif" font-size="10.00">storage/face/writeable.hpp</text>
</a>
</g>
</g>
<!-- Node3&#45;&gt;Node7 -->
<g id="edge17" class="edge">
<title>Node3&#45;&gt;Node7</title>
<path fill="none" stroke="#63b8ff" d="M224.11,-307.5C209.65,-298.83 192.63,-286.64 181,-272 180.75,-271.68 147.39,-189.3 131.83,-150.85"/>
<polygon fill="#63b8ff" stroke="#63b8ff" points="135.11,-149.62 128.11,-141.67 128.62,-152.25 135.11,-149.62"/>
</g>
<!-- Node10 -->
<g id="node10" class="node">
<title>Node10</title>
<g id="a_node10"><a xlink:href="iterable_8hpp.html" target="_top" xlink:title=" ">
<polygon fill="white" stroke="#666666" points="313.5,-266.5 190.5,-266.5 190.5,-247.5 313.5,-247.5 313.5,-266.5"/>
<text text-anchor="middle" x="252" y="-254.5" font-family="Helvetica,sans-Serif" font-size="10.00">storage/face/iterable.hpp</text>
</a>
</g>
</g>
<!-- Node3&#45;&gt;Node10 -->
<g id="edge10" class="edge">
<title>Node3&#45;&gt;Node10</title>
<path fill="none" stroke="#63b8ff" d="M252,-307.8C252,-299.09 252,-287.81 252,-278.18"/>
<polygon fill="#63b8ff" stroke="#63b8ff" points="255.5,-278.36 252,-268.36 248.5,-278.36 255.5,-278.36"/>
</g>
<!-- Node12 -->
<g id="node12" class="node">
<title>Node12</title>
<g id="a_node12"><a xlink:href="readable_8hpp.html" target="_top" xlink:title=" ">
<polygon fill="white" stroke="#666666" points="460,-266.5 332,-266.5 332,-247.5 460,-247.5 460,-266.5"/>
<text text-anchor="middle" x="396" y="-254.5" font-family="Helvetica,sans-Serif" font-size="10.00">storage/face/readable.hpp</text>
</a>
</g>
</g>
<!-- Node3&#45;&gt;Node12 -->
<g id="edge14" class="edge">
<title>Node3&#45;&gt;Node12</title>
<path fill="none" stroke="#63b8ff" d="M284.32,-307.64C308.62,-296.83 341.7,-282.13 365.54,-271.54"/>
<polygon fill="#63b8ff" stroke="#63b8ff" points="366.68,-274.86 374.4,-267.6 363.84,-268.46 366.68,-274.86"/>
</g>
<!-- Node5 -->
<g id="node5" class="node">
<title>Node5</title>
<g id="a_node5"><a xlink:title=" ">
<polygon fill="#e0e0e0" stroke="#999999" points="241.5,-200.5 190.5,-200.5 190.5,-181.5 241.5,-181.5 241.5,-200.5"/>
<text text-anchor="middle" x="216" y="-188.5" font-family="Helvetica,sans-Serif" font-size="10.00">memory</text>
</a>
</g>
</g>
<!-- Node4&#45;&gt;Node5 -->
<g id="edge4" class="edge">
<title>Node4&#45;&gt;Node5</title>
<path fill="none" stroke="#63b8ff" d="M87.72,-247.1C112.96,-236.26 155.84,-217.84 185.01,-205.31"/>
<polygon fill="#63b8ff" stroke="#63b8ff" points="186.26,-208.58 194.07,-201.42 183.5,-202.15 186.26,-208.58"/>
</g>
<!-- Node6 -->
<g id="node6" class="node">
<title>Node6</title>
<g id="a_node6"><a xlink:href="write__batch_8hpp.html" target="_top" xlink:title=" ">
<polygon fill="white" stroke="#666666" points="133.5,-206 38.5,-206 38.5,-176 133.5,-176 133.5,-206"/>
<text text-anchor="start" x="46.5" y="-194" font-family="Helvetica,sans-Serif" font-size="10.00">storage/face/write</text>
<text text-anchor="middle" x="86" y="-183" font-family="Helvetica,sans-Serif" font-size="10.00">_batch.hpp</text>
</a>
</g>
</g>
<!-- Node4&#45;&gt;Node6 -->
<g id="edge5" class="edge">
<title>Node4&#45;&gt;Node6</title>
<path fill="none" stroke="#63b8ff" d="M69.64,-247.1C71.95,-239.33 75.41,-227.67 78.55,-217.08"/>
<polygon fill="#63b8ff" stroke="#63b8ff" points="81.85,-218.27 81.34,-207.68 75.14,-216.27 81.85,-218.27"/>
</g>
<!-- Node4&#45;&gt;Node7 -->
<g id="edge9" class="edge">
<title>Node4&#45;&gt;Node7</title>
<path fill="none" stroke="#63b8ff" d="M57.1,-247.23C41.25,-232.1 13.49,-200.39 29,-176 38.54,-161 54.62,-150.97 70.86,-144.3"/>
<polygon fill="#63b8ff" stroke="#63b8ff" points="71.9,-147.64 80.07,-140.9 69.48,-141.08 71.9,-147.64"/>
</g>
<!-- Node6&#45;&gt;Node7 -->
<g id="edge6" class="edge">
<title>Node6&#45;&gt;Node7</title>
<path fill="none" stroke="#63b8ff" d="M95.39,-175.54C100.46,-167.74 106.77,-158.03 112.17,-149.71"/>
<polygon fill="#63b8ff" stroke="#63b8ff" points="115.03,-151.74 117.54,-141.44 109.16,-147.92 115.03,-151.74"/>
</g>
<!-- Node8 -->
<g id="node8" class="node">
<title>Node8</title>
<g id="a_node8"><a xlink:href="outcome_8hpp.html" target="_top" xlink:title=" ">
<polygon fill="white" stroke="#666666" points="487.5,-79.5 374.5,-79.5 374.5,-60.5 487.5,-60.5 487.5,-79.5"/>
<text text-anchor="middle" x="431" y="-67.5" font-family="Helvetica,sans-Serif" font-size="10.00">outcome/outcome.hpp</text>
</a>
</g>
</g>
<!-- Node7&#45;&gt;Node8 -->
<g id="edge7" class="edge">
<title>Node7&#45;&gt;Node8</title>
<path fill="none" stroke="#63b8ff" d="M170.96,-120.55C225.05,-110.24 313.97,-93.3 372.51,-82.15"/>
<polygon fill="#63b8ff" stroke="#63b8ff" points="373.14,-85.59 382.31,-80.28 371.83,-78.71 373.14,-85.59"/>
</g>
<!-- Node9 -->
<g id="node9" class="node">
<title>Node9</title>
<g id="a_node9"><a xlink:title=" ">
<polygon fill="#e0e0e0" stroke="#999999" points="501.5,-19 360.5,-19 360.5,0 501.5,0 501.5,-19"/>
<text text-anchor="middle" x="431" y="-7" font-family="Helvetica,sans-Serif" font-size="10.00">libp2p/outcome/outcome.hpp</text>
</a>
</g>
</g>
<!-- Node8&#45;&gt;Node9 -->
<g id="edge8" class="edge">
<title>Node8&#45;&gt;Node9</title>
<path fill="none" stroke="#63b8ff" d="M431,-60.37C431,-52.5 431,-40.6 431,-30.39"/>
<polygon fill="#63b8ff" stroke="#63b8ff" points="434.5,-30.68 431,-20.68 427.5,-30.68 434.5,-30.68"/>
</g>
<!-- Node10&#45;&gt;Node5 -->
<g id="edge11" class="edge">
<title>Node10&#45;&gt;Node5</title>
<path fill="none" stroke="#63b8ff" d="M246.99,-247.1C241.73,-237.74 233.29,-222.73 226.54,-210.74"/>
<polygon fill="#63b8ff" stroke="#63b8ff" points="229.66,-209.14 221.71,-202.14 223.56,-212.57 229.66,-209.14"/>
</g>
<!-- Node11 -->
<g id="node11" class="node">
<title>Node11</title>
<g id="a_node11"><a xlink:href="map__cursor_8hpp.html" target="_top" xlink:title=" ">
<polygon fill="white" stroke="#666666" points="402.5,-200.5 259.5,-200.5 259.5,-181.5 402.5,-181.5 402.5,-200.5"/>
<text text-anchor="middle" x="331" y="-188.5" font-family="Helvetica,sans-Serif" font-size="10.00">storage/face/map_cursor.hpp</text>
</a>
</g>
</g>
<!-- Node10&#45;&gt;Node11 -->
<g id="edge12" class="edge">
<title>Node10&#45;&gt;Node11</title>
<path fill="none" stroke="#63b8ff" d="M262.98,-247.1C275.48,-236.98 296.14,-220.24 311.41,-207.87"/>
<polygon fill="#63b8ff" stroke="#63b8ff" points="313.37,-210.79 318.93,-201.78 308.96,-205.35 313.37,-210.79"/>
</g>
<!-- Node11&#45;&gt;Node8 -->
<g id="edge13" class="edge">
<title>Node11&#45;&gt;Node8</title>
<path fill="none" stroke="#63b8ff" d="M338.52,-181.06C355.03,-161.4 394.72,-114.17 416.35,-88.43"/>
<polygon fill="#63b8ff" stroke="#63b8ff" points="418.94,-90.79 422.69,-80.88 413.58,-86.29 418.94,-90.79"/>
</g>
<!-- Node12&#45;&gt;Node8 -->
<g id="edge15" class="edge">
<title>Node12&#45;&gt;Node8</title>
<path fill="none" stroke="#63b8ff" d="M399.04,-247.25C402.39,-237.35 407.73,-220.68 411,-206 419.99,-165.66 426.02,-117.61 428.94,-91.09"/>
<polygon fill="#63b8ff" stroke="#63b8ff" points="432.39,-91.75 429.97,-81.43 425.43,-91.01 432.39,-91.75"/>
</g>
<!-- Node12&#45;&gt;Node11 -->
<g id="edge16" class="edge">
<title>Node12&#45;&gt;Node11</title>
<path fill="none" stroke="#63b8ff" d="M386.96,-247.1C376.87,-237.17 360.32,-220.87 347.83,-208.57"/>
<polygon fill="#63b8ff" stroke="#63b8ff" points="350.62,-206.41 341.04,-201.89 345.71,-211.4 350.62,-206.41"/>
</g>
<!-- Node14 -->
<g id="node14" class="node">
<title>Node14</title>
<g id="a_node14"><a xlink:title=" ">
<polygon fill="#e0e0e0" stroke="#999999" points="574.5,-200.5 479.5,-200.5 479.5,-181.5 574.5,-181.5 574.5,-200.5"/>
<text text-anchor="middle" x="527" y="-188.5" font-family="Helvetica,sans-Serif" font-size="10.00">boost/optional.hpp</text>
</a>
</g>
</g>
<!-- Node13&#45;&gt;Node14 -->
<g id="edge19" class="edge">
<title>Node13&#45;&gt;Node14</title>
<path fill="none" stroke="#63b8ff" d="M607.66,-241.64C590.9,-231.32 568.36,-217.45 551.36,-206.99"/>
<polygon fill="#63b8ff" stroke="#63b8ff" points="553.24,-204.04 542.89,-201.78 549.57,-210 553.24,-204.04"/>
</g>
<!-- Node15 -->
<g id="node15" class="node">
<title>Node15</title>
<g id="a_node15"><a xlink:href="blob_8hpp.html" target="_top" xlink:title=" ">
<polygon fill="white" stroke="#666666" points="669.5,-200.5 592.5,-200.5 592.5,-181.5 669.5,-181.5 669.5,-200.5"/>
<text text-anchor="middle" x="631" y="-188.5" font-family="Helvetica,sans-Serif" font-size="10.00">base/blob.hpp</text>
</a>
</g>
</g>
<!-- Node13&#45;&gt;Node15 -->
<g id="edge20" class="edge">
<title>Node13&#45;&gt;Node15</title>
<path fill="none" stroke="#63b8ff" d="M631,-241.8C631,-233.09 631,-221.81 631,-212.18"/>
<polygon fill="#63b8ff" stroke="#63b8ff" points="634.5,-212.36 631,-202.36 627.5,-212.36 634.5,-212.36"/>
</g>
<!-- Node23 -->
<g id="node23" class="node">
<title>Node23</title>
<g id="a_node23"><a xlink:href="buffer_8hpp.html" target="_top" xlink:title=" ">
<polygon fill="white" stroke="#666666" points="920.5,-140 837.5,-140 837.5,-121 920.5,-121 920.5,-140"/>
<text text-anchor="middle" x="879" y="-128" font-family="Helvetica,sans-Serif" font-size="10.00">base/buffer.hpp</text>
</a>
</g>
</g>
<!-- Node13&#45;&gt;Node23 -->
<g id="edge29" class="edge">
<title>Node13&#45;&gt;Node23</title>
<path fill="none" stroke="#63b8ff" d="M644.85,-241.74C665,-221.27 701.76,-185.01 718,-176 736.73,-165.6 787.48,-152.38 827.04,-143.06"/>
<polygon fill="#63b8ff" stroke="#63b8ff" points="827.71,-146.5 836.65,-140.83 826.12,-139.68 827.71,-146.5"/>
</g>
<!-- Node26 -->
<g id="node26" class="node">
<title>Node26</title>
<g id="a_node26"><a xlink:href="src_2storage_2trie_2node_8hpp.html" target="_top" xlink:title=" ">
<polygon fill="white" stroke="#666666" points="833.5,-200.5 726.5,-200.5 726.5,-181.5 833.5,-181.5 833.5,-200.5"/>
<text text-anchor="middle" x="780" y="-188.5" font-family="Helvetica,sans-Serif" font-size="10.00">storage/trie/node.hpp</text>
</a>
</g>
</g>
<!-- Node13&#45;&gt;Node26 -->
<g id="edge36" class="edge">
<title>Node13&#45;&gt;Node26</title>
<path fill="none" stroke="#63b8ff" d="M664.44,-241.64C689.7,-230.79 724.12,-216 748.82,-205.39"/>
<polygon fill="#63b8ff" stroke="#63b8ff" points="749.88,-208.75 757.69,-201.58 747.12,-202.31 749.88,-208.75"/>
</g>
<!-- Node16 -->
<g id="node16" class="node">
<title>Node16</title>
<g id="a_node16"><a xlink:title=" ">
<polygon fill="#e0e0e0" stroke="#999999" points="569,-140 531,-140 531,-121 569,-121 569,-140"/>
<text text-anchor="middle" x="550" y="-128" font-family="Helvetica,sans-Serif" font-size="10.00">array</text>
</a>
</g>
</g>
<!-- Node15&#45;&gt;Node16 -->
<g id="edge21" class="edge">
<title>Node15&#45;&gt;Node16</title>
<path fill="none" stroke="#63b8ff" d="M618.7,-181.12C606.21,-172.1 586.62,-157.95 571.55,-147.06"/>
<polygon fill="#63b8ff" stroke="#63b8ff" points="573.8,-144.37 563.64,-141.35 569.7,-150.05 573.8,-144.37"/>
</g>
<!-- Node17 -->
<g id="node17" class="node">
<title>Node17</title>
<g id="a_node17"><a xlink:title=" ">
<polygon fill="#e0e0e0" stroke="#999999" points="715,-140 587,-140 587,-121 715,-121 715,-140"/>
<text text-anchor="middle" x="651" y="-128" font-family="Helvetica,sans-Serif" font-size="10.00">boost/functional/hash.hpp</text>
</a>
</g>
</g>
<!-- Node15&#45;&gt;Node17 -->
<g id="edge22" class="edge">
<title>Node15&#45;&gt;Node17</title>
<path fill="none" stroke="#63b8ff" d="M633.95,-181.37C636.67,-173.42 640.8,-161.33 644.32,-151.05"/>
<polygon fill="#63b8ff" stroke="#63b8ff" points="647.62,-152.19 647.55,-141.6 641,-149.93 647.62,-152.19"/>
</g>
<!-- Node18 -->
<g id="node18" class="node">
<title>Node18</title>
<g id="a_node18"><a xlink:href="hexutil_8hpp.html" target="_top" xlink:title=" ">
<polygon fill="white" stroke="#666666" points="819,-140 733,-140 733,-121 819,-121 819,-140"/>
<text text-anchor="middle" x="776" y="-128" font-family="Helvetica,sans-Serif" font-size="10.00">base/hexutil.hpp</text>
</a>
</g>
</g>
<!-- Node15&#45;&gt;Node18 -->
<g id="edge23" class="edge">
<title>Node15&#45;&gt;Node18</title>
<path fill="none" stroke="#63b8ff" d="M653.02,-181.12C677.08,-171.41 715.87,-155.76 743.44,-144.64"/>
<polygon fill="#63b8ff" stroke="#63b8ff" points="744.4,-148.02 752.37,-141.03 741.78,-141.53 744.4,-148.02"/>
</g>
<!-- Node22 -->
<g id="node22" class="node">
<title>Node22</title>
<g id="a_node22"><a xlink:title=" ">
<polygon fill="#e0e0e0" stroke="#999999" points="513,-140 459,-140 459,-121 513,-121 513,-140"/>
<text text-anchor="middle" x="486" y="-128" font-family="Helvetica,sans-Serif" font-size="10.00">iostream</text>
</a>
</g>
</g>
<!-- Node15&#45;&gt;Node22 -->
<g id="edge28" class="edge">
<title>Node15&#45;&gt;Node22</title>
<path fill="none" stroke="#63b8ff" d="M608.98,-181.12C584.92,-171.41 546.13,-155.76 518.56,-144.64"/>
<polygon fill="#63b8ff" stroke="#63b8ff" points="520.22,-141.53 509.63,-141.03 517.6,-148.02 520.22,-141.53"/>
</g>
<!-- Node18&#45;&gt;Node8 -->
<g id="edge27" class="edge">
<title>Node18&#45;&gt;Node8</title>
<path fill="none" stroke="#63b8ff" d="M732.65,-122.15C672.82,-112.01 564.49,-93.64 495.24,-81.89"/>
<polygon fill="#63b8ff" stroke="#63b8ff" points="495.99,-78.47 485.54,-80.25 494.82,-85.37 495.99,-78.47"/>
</g>
<!-- Node19 -->
<g id="node19" class="node">
<title>Node19</title>
<g id="a_node19"><a xlink:title=" ">
<polygon fill="#e0e0e0" stroke="#999999" points="754,-79.5 688,-79.5 688,-60.5 754,-60.5 754,-79.5"/>
<text text-anchor="middle" x="721" y="-67.5" font-family="Helvetica,sans-Serif" font-size="10.00">string_view</text>
</a>
</g>
</g>
<!-- Node18&#45;&gt;Node19 -->
<g id="edge24" class="edge">
<title>Node18&#45;&gt;Node19</title>
<path fill="none" stroke="#63b8ff" d="M767.88,-120.87C759.76,-112.23 747.04,-98.7 736.9,-87.92"/>
<polygon fill="#63b8ff" stroke="#63b8ff" points="739.59,-85.66 730.19,-80.77 734.49,-90.45 739.59,-85.66"/>
</g>
<!-- Node20 -->
<g id="node20" class="node">
<title>Node20</title>
<g id="a_node20"><a xlink:title=" ">
<polygon fill="#e0e0e0" stroke="#999999" points="816,-79.5 772,-79.5 772,-60.5 816,-60.5 816,-79.5"/>
<text text-anchor="middle" x="794" y="-67.5" font-family="Helvetica,sans-Serif" font-size="10.00">vector</text>
</a>
</g>
</g>
<!-- Node18&#45;&gt;Node20 -->
<g id="edge25" class="edge">
<title>Node18&#45;&gt;Node20</title>
<path fill="none" stroke="#63b8ff" d="M778.66,-120.87C781.1,-112.92 784.82,-100.83 787.98,-90.55"/>
<polygon fill="#63b8ff" stroke="#63b8ff" points="791.29,-91.7 790.89,-81.11 784.6,-89.64 791.29,-91.7"/>
</g>
<!-- Node21 -->
<g id="node21" class="node">
<title>Node21</title>
<g id="a_node21"><a xlink:title=" ">
<polygon fill="#e0e0e0" stroke="#999999" points="887.5,-79.5 834.5,-79.5 834.5,-60.5 887.5,-60.5 887.5,-79.5"/>
<text text-anchor="middle" x="861" y="-67.5" font-family="Helvetica,sans-Serif" font-size="10.00">gsl/span</text>
</a>
</g>
</g>
<!-- Node18&#45;&gt;Node21 -->
<g id="edge26" class="edge">
<title>Node18&#45;&gt;Node21</title>
<path fill="none" stroke="#63b8ff" d="M788.91,-120.62C802.14,-111.51 822.97,-97.18 838.84,-86.25"/>
<polygon fill="#63b8ff" stroke="#63b8ff" points="840.47,-89.38 846.72,-80.83 836.5,-83.61 840.47,-89.38"/>
</g>
<!-- Node23&#45;&gt;Node8 -->
<g id="edge35" class="edge">
<title>Node23&#45;&gt;Node8</title>
<path fill="none" stroke="#63b8ff" d="M837.27,-122.41C834.14,-121.92 831.02,-121.44 828,-121 712.86,-104.16 578.42,-87.95 499.24,-78.76"/>
<polygon fill="#63b8ff" stroke="#63b8ff" points="499.8,-75.3 489.47,-77.63 499,-82.25 499.8,-75.3"/>
</g>
<!-- Node23&#45;&gt;Node19 -->
<g id="edge30" class="edge">
<title>Node23&#45;&gt;Node19</title>
<path fill="none" stroke="#63b8ff" d="M855,-120.62C828.55,-110.82 785.78,-94.98 755.68,-83.84"/>
<polygon fill="#63b8ff" stroke="#63b8ff" points="757.24,-80.68 746.64,-80.49 754.8,-87.25 757.24,-80.68"/>
</g>
<!-- Node23&#45;&gt;Node20 -->
<g id="edge31" class="edge">
<title>Node23&#45;&gt;Node20</title>
<path fill="none" stroke="#63b8ff" d="M866.09,-120.62C852.86,-111.51 832.03,-97.18 816.16,-86.25"/>
<polygon fill="#63b8ff" stroke="#63b8ff" points="818.5,-83.61 808.28,-80.83 814.53,-89.38 818.5,-83.61"/>
</g>
<!-- Node23&#45;&gt;Node21 -->
<g id="edge34" class="edge">
<title>Node23&#45;&gt;Node21</title>
<path fill="none" stroke="#63b8ff" d="M876.34,-120.87C873.9,-112.92 870.18,-100.83 867.02,-90.55"/>
<polygon fill="#63b8ff" stroke="#63b8ff" points="870.4,-89.64 864.11,-81.11 863.71,-91.7 870.4,-89.64"/>
</g>
<!-- Node24 -->
<g id="node24" class="node">
<title>Node24</title>
<g id="a_node24"><a xlink:title=" ">
<polygon fill="#e0e0e0" stroke="#999999" points="1136,-85 1026,-85 1026,-55 1136,-55 1136,-85"/>
<text text-anchor="start" x="1034" y="-73" font-family="Helvetica,sans-Serif" font-size="10.00">boost/container_hash</text>
<text text-anchor="middle" x="1081" y="-62" font-family="Helvetica,sans-Serif" font-size="10.00">/hash.hpp</text>
</a>
</g>
</g>
<!-- Node23&#45;&gt;Node24 -->
<g id="edge32" class="edge">
<title>Node23&#45;&gt;Node24</title>
<path fill="none" stroke="#63b8ff" d="M909.68,-120.62C938.89,-112.16 983.67,-99.19 1020.12,-88.63"/>
<polygon fill="#63b8ff" stroke="#63b8ff" points="1021.05,-92 1029.69,-85.86 1019.11,-85.28 1021.05,-92"/>
</g>
<!-- Node25 -->
<g id="node25" class="node">
<title>Node25</title>
<g id="a_node25"><a xlink:title=" ">
<polygon fill="#e0e0e0" stroke="#999999" points="1008,-79.5 906,-79.5 906,-60.5 1008,-60.5 1008,-79.5"/>
<text text-anchor="middle" x="957" y="-67.5" font-family="Helvetica,sans-Serif" font-size="10.00">boost/operators.hpp</text>
</a>
</g>
</g>
<!-- Node23&#45;&gt;Node25 -->
<g id="edge33" class="edge">
<title>Node23&#45;&gt;Node25</title>
<path fill="none" stroke="#63b8ff" d="M890.85,-120.62C902.76,-111.68 921.38,-97.72 935.83,-86.87"/>
<polygon fill="#63b8ff" stroke="#63b8ff" points="937.93,-89.68 943.83,-80.88 933.73,-84.08 937.93,-89.68"/>
</g>
</g>
</svg>
        <g id="navigator" transform="translate(0 0)" fill="#404254">
                <rect fill="#f2f5e9" fill-opacity="0.5" stroke="#606060" stroke-width=".5" x="0" y="0" width="60" height="60"/>
                <use id="zoomplus" xlink:href="#zoomPlus" x="17" y="9" onmousedown="handleZoom(evt,'in')"/>
                <use id="zoomminus" xlink:href="#zoomMin" x="42" y="9" onmousedown="handleZoom(evt,'out')"/>
                <use id="reset" xlink:href="#resetDef" x="30" y="36" onmousedown="handleReset()"/>
                <g id="arrowUp" xlink:href="#dirArrow" transform="translate(30 24)" onmousedown="handlePan(0,-1)">
                  <use xlink:href="#rim" fill="#404040">
                        <set attributeName="fill" to="#808080" begin="arrowUp.mouseover" end="arrowUp.mouseout"/>
                  </use>
                  <path fill="none" stroke="white" stroke-width="1.5" d="M0,-3.0v7 M-2.5,-0.5L0,-3.0L2.5,-0.5"/>
                </g>
                <g id="arrowRight" xlink:href="#dirArrow" transform="rotate(90) translate(36 -43)" onmousedown="handlePan(1,0)">
                  <use xlink:href="#rim" fill="#404040">
                        <set attributeName="fill" to="#808080" begin="arrowRight.mouseover" end="arrowRight.mouseout"/>
                  </use>
                  <path fill="none" stroke="white" stroke-width="1.5" d="M0,-3.0v7 M-2.5,-0.5L0,-3.0L2.5,-0.5"/>
                </g>
                <g id="arrowDown" xlink:href="#dirArrow" transform="rotate(180) translate(-30 -48)" onmousedown="handlePan(0,1)">
                  <use xlink:href="#rim" fill="#404040">
                        <set attributeName="fill" to="#808080" begin="arrowDown.mouseover" end="arrowDown.mouseout"/>
                  </use>
                  <path fill="none" stroke="white" stroke-width="1.5" d="M0,-3.0v7 M-2.5,-0.5L0,-3.0L2.5,-0.5"/>
                </g>
                <g id="arrowLeft" xlink:href="#dirArrow" transform="rotate(270) translate(-36 17)" onmousedown="handlePan(-1,0)">
                  <use xlink:href="#rim" fill="#404040">
                        <set attributeName="fill" to="#808080" begin="arrowLeft.mouseover" end="arrowLeft.mouseout"/>
                  </use>
                  <path fill="none" stroke="white" stroke-width="1.5" d="M0,-3.0v7 M-2.5,-0.5L0,-3.0L2.5,-0.5"/>
                </g>
        </g>
        <svg viewBox="0 0 15 15" width="100%" height="30px" preserveAspectRatio="xMaxYMin meet">
         <g id="arrow_out" transform="scale(0.3 0.3)">
          <a xlink:href="supergenius__trie__factory_8hpp__incl_org.svg" target="_base">
           <rect id="button" ry="5" rx="5" y="6" x="6" height="38" width="38"
                fill="#f2f5e9" fill-opacity="0.5" stroke="#606060" stroke-width="1.0"/>
           <path id="arrow"
             d="M 11.500037,31.436501 C 11.940474,20.09759 22.043105,11.32322 32.158766,21.979434 L 37.068811,17.246167 C 37.068811,17.246167 37.088388,32 37.088388,32 L 22.160133,31.978069 C 22.160133,31.978069 26.997745,27.140456 26.997745,27.140456 C 18.528582,18.264221 13.291696,25.230495 11.500037,31.436501 z"
             style="fill:#404040;"/>
          </a>
         </g>
        </svg>
</svg>
