<?xml version="1.0" encoding="UTF-8" standalone="no"?>
<!DOCTYPE svg PUBLIC "-//W3C//DTD SVG 1.1//EN"
 "http://www.w3.org/Graphics/SVG/1.1/DTD/svg11.dtd">
<!-- Generated by graphviz version 7.0.5 (20221223.1930)
 -->
<!-- Title: src/verification/finality/impl/syncing_round_observer.hpp Pages: 1 -->
<svg width="1524pt" height="808pt"
 viewBox="0.00 0.00 1524.30 808.00" xmlns="http://www.w3.org/2000/svg" xmlns:xlink="http://www.w3.org/1999/xlink">
<g id="graph0" class="graph" transform="scale(1 1) rotate(0) translate(4 804)">
<title>src/verification/finality/impl/syncing_round_observer.hpp</title>
<!-- Node1 -->
<g id="node1" class="node">
<title>Node1</title>
<g id="a_node1"><a xlink:title=" ">
<polygon fill="#999999" stroke="#666666" points="725.95,-800 561.95,-800 561.95,-770 725.95,-770 725.95,-800"/>
<text text-anchor="start" x="569.95" y="-788" font-family="Helvetica,sans-Serif" font-size="10.00">src/verification/finality</text>
<text text-anchor="middle" x="643.95" y="-777" font-family="Helvetica,sans-Serif" font-size="10.00">/impl/syncing_round_observer.hpp</text>
</a>
</g>
</g>
<!-- Node2 -->
<g id="node2" class="node">
<title>Node2</title>
<g id="a_node2"><a xlink:href="round__observer_8hpp.html" target="_top" xlink:title=" ">
<polygon fill="white" stroke="#666666" points="640.95,-602 536.95,-602 536.95,-572 640.95,-572 640.95,-602"/>
<text text-anchor="start" x="544.95" y="-590" font-family="Helvetica,sans-Serif" font-size="10.00">verification/finality</text>
<text text-anchor="middle" x="588.95" y="-579" font-family="Helvetica,sans-Serif" font-size="10.00">/round_observer.hpp</text>
</a>
</g>
</g>
<!-- Node1&#45;&gt;Node2 -->
<g id="edge1" class="edge">
<title>Node1&#45;&gt;Node2</title>
<path fill="none" stroke="#63b8ff" d="M623.58,-769.58C598,-750.03 555.57,-712.4 539.95,-668 535.52,-655.42 534.91,-650.34 539.95,-638 544.28,-627.39 552.06,-617.82 560.17,-609.96"/>
<polygon fill="#63b8ff" stroke="#63b8ff" points="562.36,-612.69 567.48,-603.42 557.69,-607.48 562.36,-612.69"/>
</g>
<!-- Node55 -->
<g id="node44" class="node">
<title>Node55</title>
<g id="a_node44"><a xlink:href="logger_8hpp.html" target="_top" xlink:title=" ">
<polygon fill="white" stroke="#666666" points="686.45,-728.5 601.45,-728.5 601.45,-709.5 686.45,-709.5 686.45,-728.5"/>
<text text-anchor="middle" x="643.95" y="-716.5" font-family="Helvetica,sans-Serif" font-size="10.00">base/logger.hpp</text>
</a>
</g>
</g>
<!-- Node1&#45;&gt;Node55 -->
<g id="edge67" class="edge">
<title>Node1&#45;&gt;Node55</title>
<path fill="none" stroke="#63b8ff" d="M643.95,-769.8C643.95,-761.09 643.95,-749.81 643.95,-740.18"/>
<polygon fill="#63b8ff" stroke="#63b8ff" points="647.45,-740.36 643.95,-730.36 640.45,-740.36 647.45,-740.36"/>
</g>
<!-- Node58 -->
<g id="node47" class="node">
<title>Node58</title>
<g id="a_node47"><a xlink:href="environment_8hpp.html" target="_top" xlink:title=" ">
<polygon fill="white" stroke="#666666" points="853.45,-734 760.45,-734 760.45,-704 853.45,-704 853.45,-734"/>
<text text-anchor="start" x="768.45" y="-722" font-family="Helvetica,sans-Serif" font-size="10.00">verification/finality</text>
<text text-anchor="middle" x="806.95" y="-711" font-family="Helvetica,sans-Serif" font-size="10.00">/environment.hpp</text>
</a>
</g>
</g>
<!-- Node1&#45;&gt;Node58 -->
<g id="edge70" class="edge">
<title>Node1&#45;&gt;Node58</title>
<path fill="none" stroke="#63b8ff" d="M680.53,-769.64C703.94,-760.45 734.53,-748.43 759.76,-738.53"/>
<polygon fill="#63b8ff" stroke="#63b8ff" points="760.77,-741.89 768.8,-734.98 758.21,-735.38 760.77,-741.89"/>
</g>
<!-- Node3 -->
<g id="node3" class="node">
<title>Node3</title>
<g id="a_node3"><a xlink:href="structs_8hpp.html" target="_top" xlink:title=" ">
<polygon fill="white" stroke="#666666" points="670.45,-536 577.45,-536 577.45,-506 670.45,-506 670.45,-536"/>
<text text-anchor="start" x="585.45" y="-524" font-family="Helvetica,sans-Serif" font-size="10.00">verification/finality</text>
<text text-anchor="middle" x="623.95" y="-513" font-family="Helvetica,sans-Serif" font-size="10.00">/structs.hpp</text>
</a>
</g>
</g>
<!-- Node2&#45;&gt;Node3 -->
<g id="edge2" class="edge">
<title>Node2&#45;&gt;Node3</title>
<path fill="none" stroke="#63b8ff" d="M596.72,-571.8C600.84,-564.26 606.02,-554.78 610.75,-546.13"/>
<polygon fill="#63b8ff" stroke="#63b8ff" points="613.75,-547.94 615.48,-537.49 607.61,-544.59 613.75,-547.94"/>
</g>
<!-- Node4 -->
<g id="node4" class="node">
<title>Node4</title>
<g id="a_node4"><a xlink:title=" ">
<polygon fill="#e0e0e0" stroke="#999999" points="521.95,-464.5 383.95,-464.5 383.95,-445.5 521.95,-445.5 521.95,-464.5"/>
<text text-anchor="middle" x="452.95" y="-452.5" font-family="Helvetica,sans-Serif" font-size="10.00">boost/asio/steady_timer.hpp</text>
</a>
</g>
</g>
<!-- Node3&#45;&gt;Node4 -->
<g id="edge3" class="edge">
<title>Node3&#45;&gt;Node4</title>
<path fill="none" stroke="#63b8ff" d="M585.57,-505.64C556.19,-494.64 516.01,-479.6 487.6,-468.97"/>
<polygon fill="#63b8ff" stroke="#63b8ff" points="488.97,-465.74 478.38,-465.52 486.51,-472.3 488.97,-465.74"/>
</g>
<!-- Node5 -->
<g id="node5" class="node">
<title>Node5</title>
<g id="a_node5"><a xlink:title=" ">
<polygon fill="#e0e0e0" stroke="#999999" points="669.45,-464.5 578.45,-464.5 578.45,-445.5 669.45,-445.5 669.45,-464.5"/>
<text text-anchor="middle" x="623.95" y="-452.5" font-family="Helvetica,sans-Serif" font-size="10.00">boost/variant.hpp</text>
</a>
</g>
</g>
<!-- Node3&#45;&gt;Node5 -->
<g id="edge4" class="edge">
<title>Node3&#45;&gt;Node5</title>
<path fill="none" stroke="#63b8ff" d="M623.95,-505.8C623.95,-497.09 623.95,-485.81 623.95,-476.18"/>
<polygon fill="#63b8ff" stroke="#63b8ff" points="627.45,-476.36 623.95,-466.36 620.45,-476.36 627.45,-476.36"/>
</g>
<!-- Node6 -->
<g id="node6" class="node">
<title>Node6</title>
<g id="a_node6"><a xlink:href="buffer_8hpp.html" target="_top" xlink:title=" ">
<polygon fill="white" stroke="#666666" points="541.45,-156.5 458.45,-156.5 458.45,-137.5 541.45,-137.5 541.45,-156.5"/>
<text text-anchor="middle" x="499.95" y="-144.5" font-family="Helvetica,sans-Serif" font-size="10.00">base/buffer.hpp</text>
</a>
</g>
</g>
<!-- Node3&#45;&gt;Node6 -->
<g id="edge5" class="edge">
<title>Node3&#45;&gt;Node6</title>
<path fill="none" stroke="#63b8ff" d="M602.35,-505.53C590.72,-496.62 577.12,-484.21 568.95,-470 553.61,-443.34 515.32,-234.05 503.49,-167.94"/>
<polygon fill="#63b8ff" stroke="#63b8ff" points="506.95,-167.44 501.75,-158.21 500.06,-168.67 506.95,-167.44"/>
</g>
<!-- Node14 -->
<g id="node14" class="node">
<title>Node14</title>
<g id="a_node14"><a xlink:href="scale_8hpp.html" target="_top" xlink:title=" ">
<polygon fill="white" stroke="#666666" points="1142.95,-217 1058.95,-217 1058.95,-198 1142.95,-198 1142.95,-217"/>
<text text-anchor="middle" x="1100.95" y="-205" font-family="Helvetica,sans-Serif" font-size="10.00">scale/scale.hpp</text>
</a>
</g>
</g>
<!-- Node3&#45;&gt;Node14 -->
<g id="edge13" class="edge">
<title>Node3&#45;&gt;Node14</title>
<path fill="none" stroke="#63b8ff" d="M670.91,-515.51C780.5,-503.73 1043.95,-467.38 1043.95,-390 1043.95,-390 1043.95,-390 1043.95,-327.5 1043.95,-288.37 1069.33,-248.47 1086.22,-226.25"/>
<polygon fill="#63b8ff" stroke="#63b8ff" points="1088.86,-228.56 1092.32,-218.54 1083.37,-224.21 1088.86,-228.56"/>
</g>
<!-- Node39 -->
<g id="node23" class="node">
<title>Node39</title>
<g id="a_node23"><a xlink:href="blob_8hpp.html" target="_top" xlink:title=" ">
<polygon fill="white" stroke="#666666" points="772.45,-217 695.45,-217 695.45,-198 772.45,-198 772.45,-217"/>
<text text-anchor="middle" x="733.95" y="-205" font-family="Helvetica,sans-Serif" font-size="10.00">base/blob.hpp</text>
</a>
</g>
</g>
<!-- Node3&#45;&gt;Node39 -->
<g id="edge30" class="edge">
<title>Node3&#45;&gt;Node39</title>
<path fill="none" stroke="#63b8ff" d="M647.57,-505.5C659.37,-496.82 672.48,-484.63 678.95,-470 684.34,-457.81 679.87,-453.3 678.95,-440 676.92,-410.65 668.86,-402.97 673.95,-374 683.66,-318.73 710.31,-257.6 724.6,-227.45"/>
<polygon fill="#63b8ff" stroke="#63b8ff" points="727.71,-229.06 728.91,-218.53 721.41,-226.01 727.71,-229.06"/>
</g>
<!-- Node32 -->
<g id="node27" class="node">
<title>Node32</title>
<g id="a_node27"><a xlink:href="visitor_8hpp.html" target="_top" xlink:title=" ">
<polygon fill="white" stroke="#666666" points="149.45,-464.5 64.45,-464.5 64.45,-445.5 149.45,-445.5 149.45,-464.5"/>
<text text-anchor="middle" x="106.95" y="-452.5" font-family="Helvetica,sans-Serif" font-size="10.00">base/visitor.hpp</text>
</a>
</g>
</g>
<!-- Node3&#45;&gt;Node32 -->
<g id="edge39" class="edge">
<title>Node3&#45;&gt;Node32</title>
<path fill="none" stroke="#63b8ff" d="M577.16,-514.21C481.18,-502.33 262.54,-475.26 160.84,-462.67"/>
<polygon fill="#63b8ff" stroke="#63b8ff" points="161.47,-459.22 151.12,-461.47 160.61,-466.17 161.47,-459.22"/>
</g>
<!-- Node43 -->
<g id="node31" class="node">
<title>Node43</title>
<g id="a_node31"><a xlink:href="wrapper_8hpp.html" target="_top" xlink:title=" ">
<polygon fill="white" stroke="#666666" points="280.45,-398.5 187.45,-398.5 187.45,-379.5 280.45,-379.5 280.45,-398.5"/>
<text text-anchor="middle" x="233.95" y="-386.5" font-family="Helvetica,sans-Serif" font-size="10.00">base/wrapper.hpp</text>
</a>
</g>
</g>
<!-- Node3&#45;&gt;Node43 -->
<g id="edge43" class="edge">
<title>Node3&#45;&gt;Node43</title>
<path fill="none" stroke="#63b8ff" d="M577.12,-519.36C517.39,-516.93 412.12,-507.16 330.95,-470 298.03,-454.93 267.05,-425.81 249.31,-407.17"/>
<polygon fill="#63b8ff" stroke="#63b8ff" points="252.11,-405.03 242.75,-400.07 246.98,-409.79 252.11,-405.03"/>
</g>
<!-- Node45 -->
<g id="node33" class="node">
<title>Node45</title>
<g id="a_node33"><a xlink:href="src_2verification_2finality_2common_8hpp.html" target="_top" xlink:title=" ">
<polygon fill="white" stroke="#666666" points="819.45,-470 726.45,-470 726.45,-440 819.45,-440 819.45,-470"/>
<text text-anchor="start" x="734.45" y="-458" font-family="Helvetica,sans-Serif" font-size="10.00">verification/finality</text>
<text text-anchor="middle" x="772.95" y="-447" font-family="Helvetica,sans-Serif" font-size="10.00">/common.hpp</text>
</a>
</g>
</g>
<!-- Node3&#45;&gt;Node45 -->
<g id="edge47" class="edge">
<title>Node3&#45;&gt;Node45</title>
<path fill="none" stroke="#63b8ff" d="M657.39,-505.64C678.5,-496.57 706,-484.75 728.89,-474.93"/>
<polygon fill="#63b8ff" stroke="#63b8ff" points="730.17,-478.19 737.97,-471.02 727.4,-471.75 730.17,-478.19"/>
</g>
<!-- Node49 -->
<g id="node37" class="node">
<title>Node49</title>
<g id="a_node37"><a xlink:href="ed25519__types_8hpp.html" target="_top" xlink:title=" ">
<polygon fill="white" stroke="#666666" points="1015.45,-398.5 886.45,-398.5 886.45,-379.5 1015.45,-379.5 1015.45,-398.5"/>
<text text-anchor="middle" x="950.95" y="-386.5" font-family="Helvetica,sans-Serif" font-size="10.00">crypto/ed25519_types.hpp</text>
</a>
</g>
</g>
<!-- Node3&#45;&gt;Node49 -->
<g id="edge64" class="edge">
<title>Node3&#45;&gt;Node49</title>
<path fill="none" stroke="#63b8ff" d="M670.59,-513.29C713.12,-506.09 777.04,-492.55 828.95,-470 867.98,-453.05 908.32,-423.89 931.45,-405.85"/>
<polygon fill="#63b8ff" stroke="#63b8ff" points="933.41,-408.76 939.06,-399.81 929.05,-403.28 933.41,-408.76"/>
</g>
<!-- Node51 -->
<g id="node39" class="node">
<title>Node51</title>
<g id="a_node39"><a xlink:href="authority_8hpp.html" target="_top" xlink:title=" ">
<polygon fill="white" stroke="#666666" points="414.95,-398.5 298.95,-398.5 298.95,-379.5 414.95,-379.5 414.95,-398.5"/>
<text text-anchor="middle" x="356.95" y="-386.5" font-family="Helvetica,sans-Serif" font-size="10.00">primitives/authority.hpp</text>
</a>
</g>
</g>
<!-- Node3&#45;&gt;Node51 -->
<g id="edge65" class="edge">
<title>Node3&#45;&gt;Node51</title>
<path fill="none" stroke="#63b8ff" d="M577.14,-518.7C504.88,-515.61 371.42,-505.15 341.95,-470 327.66,-452.95 336.62,-426.62 345.63,-408.87"/>
<polygon fill="#63b8ff" stroke="#63b8ff" points="348.66,-410.62 350.45,-400.18 342.54,-407.22 348.66,-410.62"/>
</g>
<!-- Node53 -->
<g id="node42" class="node">
<title>Node53</title>
<g id="a_node42"><a xlink:href="src_2primitives_2common_8hpp.html" target="_top" xlink:title=" ">
<polygon fill="white" stroke="#666666" points="521.45,-338 404.45,-338 404.45,-319 521.45,-319 521.45,-338"/>
<text text-anchor="middle" x="462.95" y="-326" font-family="Helvetica,sans-Serif" font-size="10.00">primitives/common.hpp</text>
</a>
</g>
</g>
<!-- Node3&#45;&gt;Node53 -->
<g id="edge66" class="edge">
<title>Node3&#45;&gt;Node53</title>
<path fill="none" stroke="#63b8ff" d="M576.98,-517.46C512.04,-512.84 399.99,-500.57 374.95,-470 366.5,-459.69 368.93,-451.9 374.95,-440 387.15,-415.89 406.34,-424.5 423.95,-404 438.2,-387.41 449.13,-364.72 455.74,-348.76"/>
<polygon fill="#63b8ff" stroke="#63b8ff" points="458.99,-350.07 459.39,-339.48 452.47,-347.51 458.99,-350.07"/>
</g>
<!-- Node7 -->
<g id="node7" class="node">
<title>Node7</title>
<g id="a_node7"><a xlink:title=" ">
<polygon fill="#e0e0e0" stroke="#999999" points="794.95,-90.5 728.95,-90.5 728.95,-71.5 794.95,-71.5 794.95,-90.5"/>
<text text-anchor="middle" x="761.95" y="-78.5" font-family="Helvetica,sans-Serif" font-size="10.00">string_view</text>
</a>
</g>
</g>
<!-- Node6&#45;&gt;Node7 -->
<g id="edge6" class="edge">
<title>Node6&#45;&gt;Node7</title>
<path fill="none" stroke="#63b8ff" d="M536.66,-137.03C584.18,-125.42 666.94,-105.21 717.83,-92.78"/>
<polygon fill="#63b8ff" stroke="#63b8ff" points="718.45,-96.23 727.33,-90.46 716.79,-89.43 718.45,-96.23"/>
</g>
<!-- Node8 -->
<g id="node8" class="node">
<title>Node8</title>
<g id="a_node8"><a xlink:title=" ">
<polygon fill="#e0e0e0" stroke="#999999" points="657.95,-90.5 613.95,-90.5 613.95,-71.5 657.95,-71.5 657.95,-90.5"/>
<text text-anchor="middle" x="635.95" y="-78.5" font-family="Helvetica,sans-Serif" font-size="10.00">vector</text>
</a>
</g>
</g>
<!-- Node6&#45;&gt;Node8 -->
<g id="edge7" class="edge">
<title>Node6&#45;&gt;Node8</title>
<path fill="none" stroke="#63b8ff" d="M518.86,-137.1C541.7,-126.35 580.35,-108.16 606.96,-95.64"/>
<polygon fill="#63b8ff" stroke="#63b8ff" points="608.27,-98.89 615.83,-91.47 605.29,-92.56 608.27,-98.89"/>
</g>
<!-- Node9 -->
<g id="node9" class="node">
<title>Node9</title>
<g id="a_node9"><a xlink:title=" ">
<polygon fill="#e0e0e0" stroke="#999999" points="568.95,-96 458.95,-96 458.95,-66 568.95,-66 568.95,-96"/>
<text text-anchor="start" x="466.95" y="-84" font-family="Helvetica,sans-Serif" font-size="10.00">boost/container_hash</text>
<text text-anchor="middle" x="513.95" y="-73" font-family="Helvetica,sans-Serif" font-size="10.00">/hash.hpp</text>
</a>
</g>
</g>
<!-- Node6&#45;&gt;Node9 -->
<g id="edge8" class="edge">
<title>Node6&#45;&gt;Node9</title>
<path fill="none" stroke="#63b8ff" d="M501.9,-137.1C503.58,-129.41 506.09,-117.92 508.39,-107.42"/>
<polygon fill="#63b8ff" stroke="#63b8ff" points="511.79,-108.23 510.51,-97.71 504.96,-106.73 511.79,-108.23"/>
</g>
<!-- Node10 -->
<g id="node10" class="node">
<title>Node10</title>
<g id="a_node10"><a xlink:title=" ">
<polygon fill="#e0e0e0" stroke="#999999" points="440.95,-90.5 338.95,-90.5 338.95,-71.5 440.95,-71.5 440.95,-90.5"/>
<text text-anchor="middle" x="389.95" y="-78.5" font-family="Helvetica,sans-Serif" font-size="10.00">boost/operators.hpp</text>
</a>
</g>
</g>
<!-- Node6&#45;&gt;Node10 -->
<g id="edge9" class="edge">
<title>Node6&#45;&gt;Node10</title>
<path fill="none" stroke="#63b8ff" d="M484.65,-137.1C466.59,-126.59 436.3,-108.97 414.85,-96.49"/>
<polygon fill="#63b8ff" stroke="#63b8ff" points="416.83,-93.59 406.42,-91.58 413.31,-99.64 416.83,-93.59"/>
</g>
<!-- Node11 -->
<g id="node11" class="node">
<title>Node11</title>
<g id="a_node11"><a xlink:title=" ">
<polygon fill="#e0e0e0" stroke="#999999" points="1063.45,-90.5 1010.45,-90.5 1010.45,-71.5 1063.45,-71.5 1063.45,-90.5"/>
<text text-anchor="middle" x="1036.95" y="-78.5" font-family="Helvetica,sans-Serif" font-size="10.00">gsl/span</text>
</a>
</g>
</g>
<!-- Node6&#45;&gt;Node11 -->
<g id="edge10" class="edge">
<title>Node6&#45;&gt;Node11</title>
<path fill="none" stroke="#63b8ff" d="M541.53,-138.93C556.46,-136.53 573.43,-133.97 588.95,-132 754.62,-111.02 797.63,-119.55 962.95,-96 974.7,-94.33 987.41,-92.08 998.94,-89.88"/>
<polygon fill="#63b8ff" stroke="#63b8ff" points="999.36,-93.36 1008.5,-88 998.01,-86.49 999.36,-93.36"/>
</g>
<!-- Node12 -->
<g id="node12" class="node">
<title>Node12</title>
<g id="a_node12"><a xlink:href="outcome_8hpp.html" target="_top" xlink:title=" ">
<polygon fill="white" stroke="#666666" points="953.45,-90.5 840.45,-90.5 840.45,-71.5 953.45,-71.5 953.45,-90.5"/>
<text text-anchor="middle" x="896.95" y="-78.5" font-family="Helvetica,sans-Serif" font-size="10.00">outcome/outcome.hpp</text>
</a>
</g>
</g>
<!-- Node6&#45;&gt;Node12 -->
<g id="edge11" class="edge">
<title>Node6&#45;&gt;Node12</title>
<path fill="none" stroke="#63b8ff" d="M541.68,-139.27C610.32,-128.21 747.62,-106.07 829.98,-92.8"/>
<polygon fill="#63b8ff" stroke="#63b8ff" points="830.42,-96.27 839.73,-91.22 829.3,-89.36 830.42,-96.27"/>
</g>
<!-- Node13 -->
<g id="node13" class="node">
<title>Node13</title>
<g id="a_node13"><a xlink:title=" ">
<polygon fill="#e0e0e0" stroke="#999999" points="967.45,-24.5 826.45,-24.5 826.45,-5.5 967.45,-5.5 967.45,-24.5"/>
<text text-anchor="middle" x="896.95" y="-12.5" font-family="Helvetica,sans-Serif" font-size="10.00">libp2p/outcome/outcome.hpp</text>
</a>
</g>
</g>
<!-- Node12&#45;&gt;Node13 -->
<g id="edge12" class="edge">
<title>Node12&#45;&gt;Node13</title>
<path fill="none" stroke="#63b8ff" d="M896.95,-71.1C896.95,-62.12 896.95,-47.95 896.95,-36.22"/>
<polygon fill="#63b8ff" stroke="#63b8ff" points="900.45,-36.34 896.95,-26.34 893.45,-36.34 900.45,-36.34"/>
</g>
<!-- Node14&#45;&gt;Node8 -->
<g id="edge14" class="edge">
<title>Node14&#45;&gt;Node8</title>
<path fill="none" stroke="#63b8ff" d="M1058.77,-205.47C1006.47,-202.81 915.58,-193.56 844.95,-162 825.3,-153.22 826.07,-141.87 806.95,-132 762.13,-108.87 705.03,-94.92 669.47,-87.84"/>
<polygon fill="#63b8ff" stroke="#63b8ff" points="670.26,-84.43 659.78,-85.98 668.94,-91.3 670.26,-84.43"/>
</g>
<!-- Node14&#45;&gt;Node11 -->
<g id="edge17" class="edge">
<title>Node14&#45;&gt;Node11</title>
<path fill="none" stroke="#63b8ff" d="M1102.47,-197.66C1104.53,-183.1 1106.81,-153.53 1095.95,-132 1088.65,-117.53 1075.11,-105.59 1062.84,-97.01"/>
<polygon fill="#63b8ff" stroke="#63b8ff" points="1064.98,-94.22 1054.69,-91.69 1061.15,-100.08 1064.98,-94.22"/>
</g>
<!-- Node14&#45;&gt;Node12 -->
<g id="edge18" class="edge">
<title>Node14&#45;&gt;Node12</title>
<path fill="none" stroke="#63b8ff" d="M1093.26,-197.59C1079.75,-182.39 1050.29,-151.23 1019.95,-132 994.45,-115.84 962.86,-103.13 938.08,-94.57"/>
<polygon fill="#63b8ff" stroke="#63b8ff" points="939.24,-91.27 928.65,-91.41 937.02,-97.91 939.24,-91.27"/>
</g>
<!-- Node15 -->
<g id="node15" class="node">
<title>Node15</title>
<g id="a_node15"><a xlink:title=" ">
<polygon fill="#e0e0e0" stroke="#999999" points="1327.95,-30 1217.95,-30 1217.95,0 1327.95,0 1327.95,-30"/>
<text text-anchor="start" x="1225.95" y="-18" font-family="Helvetica,sans-Serif" font-size="10.00">boost/system/system</text>
<text text-anchor="middle" x="1272.95" y="-7" font-family="Helvetica,sans-Serif" font-size="10.00">_error.hpp</text>
</a>
</g>
</g>
<!-- Node14&#45;&gt;Node15 -->
<g id="edge15" class="edge">
<title>Node14&#45;&gt;Node15</title>
<path fill="none" stroke="#63b8ff" d="M1143.21,-204.42C1199.98,-200.63 1303.38,-190.17 1386.95,-162 1445.37,-142.31 1477.39,-148.96 1508.95,-96 1547.87,-30.69 1422.15,-17.35 1339.48,-15.4"/>
<polygon fill="#63b8ff" stroke="#63b8ff" points="1339.7,-11.9 1329.64,-15.23 1339.57,-18.9 1339.7,-11.9"/>
</g>
<!-- Node16 -->
<g id="node16" class="node">
<title>Node16</title>
<g id="a_node16"><a xlink:title=" ">
<polygon fill="#e0e0e0" stroke="#999999" points="1194.95,-24.5 1062.95,-24.5 1062.95,-5.5 1194.95,-5.5 1194.95,-24.5"/>
<text text-anchor="middle" x="1128.95" y="-12.5" font-family="Helvetica,sans-Serif" font-size="10.00">boost/throw_exception.hpp</text>
</a>
</g>
</g>
<!-- Node14&#45;&gt;Node16 -->
<g id="edge16" class="edge">
<title>Node14&#45;&gt;Node16</title>
<path fill="none" stroke="#63b8ff" d="M1096.68,-197.97C1089.07,-183.34 1072.09,-153.01 1051.95,-132 1033,-112.23 1014.43,-120.37 1001.95,-96 995.87,-84.13 994.44,-77.02 1001.95,-66 1014.67,-47.32 1035.54,-35.62 1056.73,-28.29"/>
<polygon fill="#63b8ff" stroke="#63b8ff" points="1057.51,-31.71 1066.01,-25.39 1055.42,-25.03 1057.51,-31.71"/>
</g>
<!-- Node17 -->
<g id="node17" class="node">
<title>Node17</title>
<g id="a_node17"><a xlink:href="scale__decoder__stream_8hpp.html" target="_top" xlink:title=" ">
<polygon fill="#fff0f0" stroke="red" points="1377.95,-162 1271.95,-162 1271.95,-132 1377.95,-132 1377.95,-162"/>
<text text-anchor="start" x="1279.95" y="-150" font-family="Helvetica,sans-Serif" font-size="10.00">scale/scale_decoder</text>
<text text-anchor="middle" x="1324.95" y="-139" font-family="Helvetica,sans-Serif" font-size="10.00">_stream.hpp</text>
</a>
</g>
</g>
<!-- Node14&#45;&gt;Node17 -->
<g id="edge19" class="edge">
<title>Node14&#45;&gt;Node17</title>
<path fill="none" stroke="#63b8ff" d="M1134.97,-197.62C1168.27,-188.92 1219.82,-175.46 1260.82,-164.75"/>
<polygon fill="#63b8ff" stroke="#63b8ff" points="1261.56,-168.17 1270.35,-162.26 1259.79,-161.4 1261.56,-168.17"/>
</g>
<!-- Node37 -->
<g id="node22" class="node">
<title>Node37</title>
<g id="a_node22"><a xlink:href="scale__encoder__stream_8hpp.html" target="_top" xlink:title=" ">
<polygon fill="#fff0f0" stroke="red" points="1253.95,-162 1147.95,-162 1147.95,-132 1253.95,-132 1253.95,-162"/>
<text text-anchor="start" x="1155.95" y="-150" font-family="Helvetica,sans-Serif" font-size="10.00">scale/scale_encoder</text>
<text text-anchor="middle" x="1200.95" y="-139" font-family="Helvetica,sans-Serif" font-size="10.00">_stream.hpp</text>
</a>
</g>
</g>
<!-- Node14&#45;&gt;Node37 -->
<g id="edge27" class="edge">
<title>Node14&#45;&gt;Node37</title>
<path fill="none" stroke="#63b8ff" d="M1116.14,-197.62C1129.47,-189.81 1149.37,-178.17 1166.54,-168.13"/>
<polygon fill="#63b8ff" stroke="#63b8ff" points="1168.1,-171.27 1174.96,-163.2 1164.56,-165.23 1168.1,-171.27"/>
</g>
<!-- Node17&#45;&gt;Node11 -->
<g id="edge23" class="edge">
<title>Node17&#45;&gt;Node11</title>
<path fill="none" stroke="#63b8ff" d="M1271.54,-133.82C1268.64,-133.19 1265.76,-132.58 1262.95,-132 1178.8,-114.53 1155.57,-119.68 1072.95,-96 1071.57,-95.61 1070.17,-95.18 1068.77,-94.73"/>
<polygon fill="#63b8ff" stroke="#63b8ff" points="1070.07,-91.48 1059.48,-91.45 1067.74,-98.08 1070.07,-91.48"/>
</g>
<!-- Node18 -->
<g id="node18" class="node">
<title>Node18</title>
<g id="a_node18"><a xlink:title=" ">
<polygon fill="#e0e0e0" stroke="#999999" points="1119.95,-90.5 1081.95,-90.5 1081.95,-71.5 1119.95,-71.5 1119.95,-90.5"/>
<text text-anchor="middle" x="1100.95" y="-78.5" font-family="Helvetica,sans-Serif" font-size="10.00">array</text>
</a>
</g>
</g>
<!-- Node17&#45;&gt;Node18 -->
<g id="edge20" class="edge">
<title>Node17&#45;&gt;Node18</title>
<path fill="none" stroke="#63b8ff" d="M1271.58,-133.58C1223.22,-122.09 1155.72,-105.42 1129.95,-96 1129.45,-95.82 1128.95,-95.63 1128.44,-95.44"/>
<polygon fill="#63b8ff" stroke="#63b8ff" points="1129.84,-92.23 1119.27,-91.47 1127.06,-98.65 1129.84,-92.23"/>
</g>
<!-- Node19 -->
<g id="node19" class="node">
<title>Node19</title>
<g id="a_node19"><a xlink:title=" ">
<polygon fill="#e0e0e0" stroke="#999999" points="1385.95,-96 1281.95,-96 1281.95,-66 1385.95,-66 1385.95,-96"/>
<text text-anchor="start" x="1289.95" y="-84" font-family="Helvetica,sans-Serif" font-size="10.00">boost/multiprecision</text>
<text text-anchor="middle" x="1333.95" y="-73" font-family="Helvetica,sans-Serif" font-size="10.00">/cpp_int.hpp</text>
</a>
</g>
</g>
<!-- Node17&#45;&gt;Node19 -->
<g id="edge21" class="edge">
<title>Node17&#45;&gt;Node19</title>
<path fill="none" stroke="#63b8ff" d="M1326.95,-131.8C1327.95,-124.67 1329.19,-115.82 1330.35,-107.56"/>
<polygon fill="#63b8ff" stroke="#63b8ff" points="1333.82,-108.05 1331.75,-97.66 1326.89,-107.08 1333.82,-108.05"/>
</g>
<!-- Node20 -->
<g id="node20" class="node">
<title>Node20</title>
<g id="a_node20"><a xlink:title=" ">
<polygon fill="#e0e0e0" stroke="#999999" points="1499.45,-90.5 1404.45,-90.5 1404.45,-71.5 1499.45,-71.5 1499.45,-90.5"/>
<text text-anchor="middle" x="1451.95" y="-78.5" font-family="Helvetica,sans-Serif" font-size="10.00">boost/optional.hpp</text>
</a>
</g>
</g>
<!-- Node17&#45;&gt;Node20 -->
<g id="edge22" class="edge">
<title>Node17&#45;&gt;Node20</title>
<path fill="none" stroke="#63b8ff" d="M1353.45,-131.64C1374.5,-121.03 1403.01,-106.66 1423.94,-96.11"/>
<polygon fill="#63b8ff" stroke="#63b8ff" points="1425.41,-99.29 1432.77,-91.67 1422.26,-93.04 1425.41,-99.29"/>
</g>
<!-- Node21 -->
<g id="node21" class="node">
<title>Node21</title>
<g id="a_node21"><a xlink:href="outcome__throw_8hpp.html" target="_top" xlink:title=" ">
<polygon fill="white" stroke="#666666" points="1263.45,-90.5 1138.45,-90.5 1138.45,-71.5 1263.45,-71.5 1263.45,-90.5"/>
<text text-anchor="middle" x="1200.95" y="-78.5" font-family="Helvetica,sans-Serif" font-size="10.00">base/outcome_throw.hpp</text>
</a>
</g>
</g>
<!-- Node17&#45;&gt;Node21 -->
<g id="edge24" class="edge">
<title>Node17&#45;&gt;Node21</title>
<path fill="none" stroke="#63b8ff" d="M1297.12,-131.64C1276.66,-121.08 1248.99,-106.79 1228.58,-96.26"/>
<polygon fill="#63b8ff" stroke="#63b8ff" points="1230.2,-93.16 1219.7,-91.68 1226.99,-99.38 1230.2,-93.16"/>
</g>
<!-- Node21&#45;&gt;Node15 -->
<g id="edge25" class="edge">
<title>Node21&#45;&gt;Node15</title>
<path fill="none" stroke="#63b8ff" d="M1210.96,-71.1C1220.57,-62.56 1235.46,-49.32 1248.24,-37.96"/>
<polygon fill="#63b8ff" stroke="#63b8ff" points="1250.38,-40.74 1255.53,-31.48 1245.73,-35.51 1250.38,-40.74"/>
</g>
<!-- Node21&#45;&gt;Node16 -->
<g id="edge26" class="edge">
<title>Node21&#45;&gt;Node16</title>
<path fill="none" stroke="#63b8ff" d="M1190.94,-71.1C1179.65,-61.07 1161.08,-44.56 1147.19,-32.22"/>
<polygon fill="#63b8ff" stroke="#63b8ff" points="1149.81,-29.86 1140.01,-25.83 1145.16,-35.09 1149.81,-29.86"/>
</g>
<!-- Node37&#45;&gt;Node11 -->
<g id="edge29" class="edge">
<title>Node37&#45;&gt;Node11</title>
<path fill="none" stroke="#63b8ff" d="M1164.14,-131.64C1136.09,-120.69 1097.77,-105.73 1070.54,-95.11"/>
<polygon fill="#63b8ff" stroke="#63b8ff" points="1071.97,-91.91 1061.39,-91.54 1069.43,-98.43 1071.97,-91.91"/>
</g>
<!-- Node37&#45;&gt;Node20 -->
<g id="edge28" class="edge">
<title>Node37&#45;&gt;Node20</title>
<path fill="none" stroke="#63b8ff" d="M1254.18,-132.43C1299.23,-120.94 1363.11,-104.65 1405.97,-93.72"/>
<polygon fill="#63b8ff" stroke="#63b8ff" points="1406.63,-97.17 1415.46,-91.3 1404.9,-90.38 1406.63,-97.17"/>
</g>
<!-- Node39&#45;&gt;Node18 -->
<g id="edge31" class="edge">
<title>Node39&#45;&gt;Node18</title>
<path fill="none" stroke="#63b8ff" d="M772.9,-201.79C816.67,-195.73 889.39,-183.36 948.95,-162 996.95,-144.79 1048.64,-114.88 1077.68,-96.91"/>
<polygon fill="#63b8ff" stroke="#63b8ff" points="1079.41,-99.96 1086.02,-91.68 1075.69,-94.03 1079.41,-99.96"/>
</g>
<!-- Node40 -->
<g id="node24" class="node">
<title>Node40</title>
<g id="a_node24"><a xlink:title=" ">
<polygon fill="#e0e0e0" stroke="#999999" points="797.95,-156.5 669.95,-156.5 669.95,-137.5 797.95,-137.5 797.95,-156.5"/>
<text text-anchor="middle" x="733.95" y="-144.5" font-family="Helvetica,sans-Serif" font-size="10.00">boost/functional/hash.hpp</text>
</a>
</g>
</g>
<!-- Node39&#45;&gt;Node40 -->
<g id="edge32" class="edge">
<title>Node39&#45;&gt;Node40</title>
<path fill="none" stroke="#63b8ff" d="M733.95,-197.87C733.95,-190 733.95,-178.1 733.95,-167.89"/>
<polygon fill="#63b8ff" stroke="#63b8ff" points="737.45,-168.18 733.95,-158.18 730.45,-168.18 737.45,-168.18"/>
</g>
<!-- Node41 -->
<g id="node25" class="node">
<title>Node41</title>
<g id="a_node25"><a xlink:href="hexutil_8hpp.html" target="_top" xlink:title=" ">
<polygon fill="white" stroke="#666666" points="939.95,-156.5 853.95,-156.5 853.95,-137.5 939.95,-137.5 939.95,-156.5"/>
<text text-anchor="middle" x="896.95" y="-144.5" font-family="Helvetica,sans-Serif" font-size="10.00">base/hexutil.hpp</text>
</a>
</g>
</g>
<!-- Node39&#45;&gt;Node41 -->
<g id="edge33" class="edge">
<title>Node39&#45;&gt;Node41</title>
<path fill="none" stroke="#63b8ff" d="M758.71,-197.62C785.99,-187.82 830.12,-171.98 861.17,-160.84"/>
<polygon fill="#63b8ff" stroke="#63b8ff" points="862.31,-164.15 870.54,-157.48 859.94,-157.56 862.31,-164.15"/>
</g>
<!-- Node42 -->
<g id="node26" class="node">
<title>Node42</title>
<g id="a_node26"><a xlink:title=" ">
<polygon fill="#e0e0e0" stroke="#999999" points="651.95,-156.5 597.95,-156.5 597.95,-137.5 651.95,-137.5 651.95,-156.5"/>
<text text-anchor="middle" x="624.95" y="-144.5" font-family="Helvetica,sans-Serif" font-size="10.00">iostream</text>
</a>
</g>
</g>
<!-- Node39&#45;&gt;Node42 -->
<g id="edge38" class="edge">
<title>Node39&#45;&gt;Node42</title>
<path fill="none" stroke="#63b8ff" d="M717.39,-197.62C699.95,-188.25 672.2,-173.36 651.66,-162.33"/>
<polygon fill="#63b8ff" stroke="#63b8ff" points="653.46,-159.33 642.99,-157.68 650.15,-165.5 653.46,-159.33"/>
</g>
<!-- Node41&#45;&gt;Node7 -->
<g id="edge34" class="edge">
<title>Node41&#45;&gt;Node7</title>
<path fill="none" stroke="#63b8ff" d="M878.18,-137.1C855.51,-126.35 817.14,-108.16 790.73,-95.64"/>
<polygon fill="#63b8ff" stroke="#63b8ff" points="792.46,-92.59 781.93,-91.47 789.47,-98.92 792.46,-92.59"/>
</g>
<!-- Node41&#45;&gt;Node8 -->
<g id="edge35" class="edge">
<title>Node41&#45;&gt;Node8</title>
<path fill="none" stroke="#63b8ff" d="M860.46,-137.04C853.64,-135.36 846.58,-133.63 839.95,-132 779.84,-117.25 709.75,-100.08 669.35,-90.18"/>
<polygon fill="#63b8ff" stroke="#63b8ff" points="670.3,-86.81 659.76,-87.83 668.64,-93.61 670.3,-86.81"/>
</g>
<!-- Node41&#45;&gt;Node11 -->
<g id="edge36" class="edge">
<title>Node41&#45;&gt;Node11</title>
<path fill="none" stroke="#63b8ff" d="M916.42,-137.1C940.03,-126.31 980.07,-108 1007.47,-95.48"/>
<polygon fill="#63b8ff" stroke="#63b8ff" points="1008.63,-98.79 1016.27,-91.45 1005.72,-92.43 1008.63,-98.79"/>
</g>
<!-- Node41&#45;&gt;Node12 -->
<g id="edge37" class="edge">
<title>Node41&#45;&gt;Node12</title>
<path fill="none" stroke="#63b8ff" d="M896.95,-137.1C896.95,-128.12 896.95,-113.95 896.95,-102.22"/>
<polygon fill="#63b8ff" stroke="#63b8ff" points="900.45,-102.34 896.95,-92.34 893.45,-102.34 900.45,-102.34"/>
</g>
<!-- Node33 -->
<g id="node28" class="node">
<title>Node33</title>
<g id="a_node28"><a xlink:title=" ">
<polygon fill="#e0e0e0" stroke="#999999" points="89.95,-338 27.95,-338 27.95,-319 89.95,-319 89.95,-338"/>
<text text-anchor="middle" x="58.95" y="-326" font-family="Helvetica,sans-Serif" font-size="10.00">type_traits</text>
</a>
</g>
</g>
<!-- Node32&#45;&gt;Node33 -->
<g id="edge40" class="edge">
<title>Node32&#45;&gt;Node33</title>
<path fill="none" stroke="#63b8ff" d="M65.97,-445.07C43.81,-437.92 18.31,-425.42 4.95,-404 -2.11,-392.69 -0.74,-386.06 4.95,-374 10.7,-361.8 21.62,-351.82 32.14,-344.42"/>
<polygon fill="#63b8ff" stroke="#63b8ff" points="33.76,-347.54 40.26,-339.18 29.96,-341.66 33.76,-347.54"/>
</g>
<!-- Node34 -->
<g id="node29" class="node">
<title>Node34</title>
<g id="a_node29"><a xlink:title=" ">
<polygon fill="#e0e0e0" stroke="#999999" points="169.45,-398.5 130.45,-398.5 130.45,-379.5 169.45,-379.5 169.45,-398.5"/>
<text text-anchor="middle" x="149.95" y="-386.5" font-family="Helvetica,sans-Serif" font-size="10.00">utility</text>
</a>
</g>
</g>
<!-- Node32&#45;&gt;Node34 -->
<g id="edge41" class="edge">
<title>Node32&#45;&gt;Node34</title>
<path fill="none" stroke="#63b8ff" d="M112.93,-445.1C119.28,-435.64 129.51,-420.42 137.61,-408.37"/>
<polygon fill="#63b8ff" stroke="#63b8ff" points="140.51,-410.33 143.18,-400.08 134.69,-406.43 140.51,-410.33"/>
</g>
<!-- Node35 -->
<g id="node30" class="node">
<title>Node35</title>
<g id="a_node30"><a xlink:title=" ">
<polygon fill="#e0e0e0" stroke="#999999" points="111.95,-404 13.95,-404 13.95,-374 111.95,-374 111.95,-404"/>
<text text-anchor="start" x="21.95" y="-392" font-family="Helvetica,sans-Serif" font-size="10.00">boost/variant/apply</text>
<text text-anchor="middle" x="62.95" y="-381" font-family="Helvetica,sans-Serif" font-size="10.00">_visitor.hpp</text>
</a>
</g>
</g>
<!-- Node32&#45;&gt;Node35 -->
<g id="edge42" class="edge">
<title>Node32&#45;&gt;Node35</title>
<path fill="none" stroke="#63b8ff" d="M100.83,-445.1C95.21,-436.92 86.61,-424.42 79.04,-413.4"/>
<polygon fill="#63b8ff" stroke="#63b8ff" points="82.14,-411.74 73.59,-405.48 76.37,-415.7 82.14,-411.74"/>
</g>
<!-- Node43&#45;&gt;Node10 -->
<g id="edge46" class="edge">
<title>Node43&#45;&gt;Node10</title>
<path fill="none" stroke="#63b8ff" d="M228.33,-379.14C216.67,-359.9 190.95,-312.49 190.95,-269 190.95,-269 190.95,-269 190.95,-206.5 190.95,-140.94 269.54,-108.61 327.95,-93.64"/>
<polygon fill="#63b8ff" stroke="#63b8ff" points="328.6,-97.08 337.49,-91.31 326.95,-90.28 328.6,-97.08"/>
</g>
<!-- Node43&#45;&gt;Node33 -->
<g id="edge45" class="edge">
<title>Node43&#45;&gt;Node33</title>
<path fill="none" stroke="#63b8ff" d="M207.37,-379.12C177.82,-369.24 129.86,-353.21 96.49,-342.05"/>
<polygon fill="#63b8ff" stroke="#63b8ff" points="97.81,-338.8 87.21,-338.95 95.59,-345.44 97.81,-338.8"/>
</g>
<!-- Node44 -->
<g id="node32" class="node">
<title>Node44</title>
<g id="a_node32"><a xlink:title=" ">
<polygon fill="#e0e0e0" stroke="#999999" points="270.45,-338 219.45,-338 219.45,-319 270.45,-319 270.45,-338"/>
<text text-anchor="middle" x="244.95" y="-326" font-family="Helvetica,sans-Serif" font-size="10.00">memory</text>
</a>
</g>
</g>
<!-- Node43&#45;&gt;Node44 -->
<g id="edge44" class="edge">
<title>Node43&#45;&gt;Node44</title>
<path fill="none" stroke="#63b8ff" d="M235.57,-379.37C237.05,-371.5 239.29,-359.6 241.21,-349.39"/>
<polygon fill="#63b8ff" stroke="#63b8ff" points="244.63,-350.13 243.04,-339.65 237.75,-348.84 244.63,-350.13"/>
</g>
<!-- Node45&#45;&gt;Node43 -->
<g id="edge51" class="edge">
<title>Node45&#45;&gt;Node43</title>
<path fill="none" stroke="#63b8ff" d="M726.16,-446.51C711.11,-444.24 694.35,-441.86 678.95,-440 506.57,-419.2 461.11,-433.14 289.95,-404 285.86,-403.3 281.62,-402.46 277.4,-401.55"/>
<polygon fill="#63b8ff" stroke="#63b8ff" points="278.35,-398.18 267.82,-399.33 276.77,-405 278.35,-398.18"/>
</g>
<!-- Node46 -->
<g id="node34" class="node">
<title>Node46</title>
<g id="a_node34"><a xlink:title=" ">
<polygon fill="#e0e0e0" stroke="#999999" points="765.45,-398.5 682.45,-398.5 682.45,-379.5 765.45,-379.5 765.45,-398.5"/>
<text text-anchor="middle" x="723.95" y="-386.5" font-family="Helvetica,sans-Serif" font-size="10.00">unordered_map</text>
</a>
</g>
</g>
<!-- Node45&#45;&gt;Node46 -->
<g id="edge48" class="edge">
<title>Node45&#45;&gt;Node46</title>
<path fill="none" stroke="#63b8ff" d="M762.07,-439.8C754.88,-430.41 745.4,-418.02 737.69,-407.95"/>
<polygon fill="#63b8ff" stroke="#63b8ff" points="740.5,-405.86 731.64,-400.05 734.94,-410.11 740.5,-405.86"/>
</g>
<!-- Node47 -->
<g id="node35" class="node">
<title>Node47</title>
<g id="a_node35"><a xlink:href="clock_8hpp.html" target="_top" xlink:title=" ">
<polygon fill="white" stroke="#666666" points="867.95,-398.5 783.95,-398.5 783.95,-379.5 867.95,-379.5 867.95,-398.5"/>
<text text-anchor="middle" x="825.95" y="-386.5" font-family="Helvetica,sans-Serif" font-size="10.00">clock/clock.hpp</text>
</a>
</g>
</g>
<!-- Node45&#45;&gt;Node47 -->
<g id="edge49" class="edge">
<title>Node45&#45;&gt;Node47</title>
<path fill="none" stroke="#63b8ff" d="M784.71,-439.8C792.57,-430.31 802.96,-417.76 811.35,-407.63"/>
<polygon fill="#63b8ff" stroke="#63b8ff" points="813.98,-409.94 817.66,-400.01 808.59,-405.48 813.98,-409.94"/>
</g>
<!-- Node45&#45;&gt;Node49 -->
<g id="edge52" class="edge">
<title>Node45&#45;&gt;Node49</title>
<path fill="none" stroke="#63b8ff" d="M812.9,-439.64C843.62,-428.59 885.68,-413.47 915.27,-402.83"/>
<polygon fill="#63b8ff" stroke="#63b8ff" points="916.31,-406.18 924.53,-399.5 913.94,-399.59 916.31,-406.18"/>
</g>
<!-- Node45&#45;&gt;Node51 -->
<g id="edge55" class="edge">
<title>Node45&#45;&gt;Node51</title>
<path fill="none" stroke="#63b8ff" d="M726.04,-446.78C653,-435.55 511.7,-413.81 426.7,-400.73"/>
<polygon fill="#63b8ff" stroke="#63b8ff" points="427.26,-397.28 416.84,-399.21 426.19,-404.19 427.26,-397.28"/>
</g>
<!-- Node45&#45;&gt;Node53 -->
<g id="edge63" class="edge">
<title>Node45&#45;&gt;Node53</title>
<path fill="none" stroke="#63b8ff" d="M737.09,-439.6C676.3,-415.18 553.94,-366.04 495.49,-342.57"/>
<polygon fill="#63b8ff" stroke="#63b8ff" points="497,-339.4 486.42,-338.93 494.39,-345.9 497,-339.4"/>
</g>
<!-- Node48 -->
<g id="node36" class="node">
<title>Node48</title>
<g id="a_node36"><a xlink:title=" ">
<polygon fill="#e0e0e0" stroke="#999999" points="810.95,-338 764.95,-338 764.95,-319 810.95,-319 810.95,-338"/>
<text text-anchor="middle" x="787.95" y="-326" font-family="Helvetica,sans-Serif" font-size="10.00">chrono</text>
</a>
</g>
</g>
<!-- Node47&#45;&gt;Node48 -->
<g id="edge50" class="edge">
<title>Node47&#45;&gt;Node48</title>
<path fill="none" stroke="#63b8ff" d="M820.34,-379.37C814.95,-371.07 806.64,-358.28 799.79,-347.72"/>
<polygon fill="#63b8ff" stroke="#63b8ff" points="802.79,-345.92 794.4,-339.44 796.92,-349.73 802.79,-345.92"/>
</g>
<!-- Node49&#45;&gt;Node39 -->
<g id="edge54" class="edge">
<title>Node49&#45;&gt;Node39</title>
<path fill="none" stroke="#63b8ff" d="M951.9,-379.01C952.91,-364.88 952.89,-337.19 939.95,-319 901.87,-265.46 829.57,-235.45 781.56,-220.61"/>
<polygon fill="#63b8ff" stroke="#63b8ff" points="782.84,-217.34 772.26,-217.85 780.85,-224.05 782.84,-217.34"/>
</g>
<!-- Node50 -->
<g id="node38" class="node">
<title>Node50</title>
<g id="a_node38"><a xlink:title=" ">
<polygon fill="#e0e0e0" stroke="#999999" points="930.45,-338 829.45,-338 829.45,-319 930.45,-319 930.45,-338"/>
<text text-anchor="middle" x="879.95" y="-326" font-family="Helvetica,sans-Serif" font-size="10.00">ed25519/ed25519.h</text>
</a>
</g>
</g>
<!-- Node49&#45;&gt;Node50 -->
<g id="edge53" class="edge">
<title>Node49&#45;&gt;Node50</title>
<path fill="none" stroke="#63b8ff" d="M940.17,-379.12C929.43,-370.27 912.7,-356.48 899.6,-345.69"/>
<polygon fill="#63b8ff" stroke="#63b8ff" points="901.95,-343.09 892,-339.43 897.49,-348.49 901.95,-343.09"/>
</g>
<!-- Node24 -->
<g id="node40" class="node">
<title>Node24</title>
<g id="a_node40"><a xlink:title=" ">
<polygon fill="#e0e0e0" stroke="#999999" points="340.95,-277.5 294.95,-277.5 294.95,-258.5 340.95,-258.5 340.95,-277.5"/>
<text text-anchor="middle" x="317.95" y="-265.5" font-family="Helvetica,sans-Serif" font-size="10.00">cstdint</text>
</a>
</g>
</g>
<!-- Node51&#45;&gt;Node24 -->
<g id="edge56" class="edge">
<title>Node51&#45;&gt;Node24</title>
<path fill="none" stroke="#63b8ff" d="M347.03,-379.21C337.48,-370.02 323.68,-354.66 317.95,-338 312.52,-322.22 313,-303.17 314.57,-289.09"/>
<polygon fill="#63b8ff" stroke="#63b8ff" points="318.02,-289.69 315.96,-279.29 311.09,-288.7 318.02,-289.69"/>
</g>
<!-- Node52 -->
<g id="node41" class="node">
<title>Node52</title>
<g id="a_node41"><a xlink:title=" ">
<polygon fill="#e0e0e0" stroke="#999999" points="386.45,-338 327.45,-338 327.45,-319 386.45,-319 386.45,-338"/>
<text text-anchor="middle" x="356.95" y="-326" font-family="Helvetica,sans-Serif" font-size="10.00">functional</text>
</a>
</g>
</g>
<!-- Node51&#45;&gt;Node52 -->
<g id="edge57" class="edge">
<title>Node51&#45;&gt;Node52</title>
<path fill="none" stroke="#63b8ff" d="M356.95,-379.37C356.95,-371.5 356.95,-359.6 356.95,-349.39"/>
<polygon fill="#63b8ff" stroke="#63b8ff" points="360.45,-349.68 356.95,-339.68 353.45,-349.68 360.45,-349.68"/>
</g>
<!-- Node51&#45;&gt;Node53 -->
<g id="edge58" class="edge">
<title>Node51&#45;&gt;Node53</title>
<path fill="none" stroke="#63b8ff" d="M373.05,-379.12C389.94,-369.79 416.75,-355 436.7,-343.99"/>
<polygon fill="#63b8ff" stroke="#63b8ff" points="438.31,-347.1 445.37,-339.2 434.93,-340.97 438.31,-347.1"/>
</g>
<!-- Node53&#45;&gt;Node10 -->
<g id="edge60" class="edge">
<title>Node53&#45;&gt;Node10</title>
<path fill="none" stroke="#63b8ff" d="M460.35,-318.76C449.91,-283.64 410.84,-152.25 395.85,-101.85"/>
<polygon fill="#63b8ff" stroke="#63b8ff" points="399.23,-100.93 393.02,-92.34 392.52,-102.92 399.23,-100.93"/>
</g>
<!-- Node53&#45;&gt;Node24 -->
<g id="edge59" class="edge">
<title>Node53&#45;&gt;Node24</title>
<path fill="none" stroke="#63b8ff" d="M440.93,-318.62C416.87,-308.91 378.08,-293.26 350.51,-282.14"/>
<polygon fill="#63b8ff" stroke="#63b8ff" points="352.17,-279.03 341.58,-278.53 349.55,-285.52 352.17,-279.03"/>
</g>
<!-- Node54 -->
<g id="node43" class="node">
<title>Node54</title>
<g id="a_node43"><a xlink:href="session__key_8hpp.html" target="_top" xlink:title=" ">
<polygon fill="white" stroke="#666666" points="645.45,-283 550.45,-283 550.45,-253 645.45,-253 645.45,-283"/>
<text text-anchor="start" x="558.45" y="-271" font-family="Helvetica,sans-Serif" font-size="10.00">primitives/session</text>
<text text-anchor="middle" x="597.95" y="-260" font-family="Helvetica,sans-Serif" font-size="10.00">_key.hpp</text>
</a>
</g>
</g>
<!-- Node53&#45;&gt;Node54 -->
<g id="edge61" class="edge">
<title>Node53&#45;&gt;Node54</title>
<path fill="none" stroke="#63b8ff" d="M483.45,-318.62C502.13,-310.52 530.34,-298.3 554.08,-288.01"/>
<polygon fill="#63b8ff" stroke="#63b8ff" points="555.45,-291.23 563.24,-284.04 552.67,-284.81 555.45,-291.23"/>
</g>
<!-- Node54&#45;&gt;Node39 -->
<g id="edge62" class="edge">
<title>Node54&#45;&gt;Node39</title>
<path fill="none" stroke="#63b8ff" d="M631.57,-252.54C653.4,-243.15 681.66,-230.99 702.95,-221.83"/>
<polygon fill="#63b8ff" stroke="#63b8ff" points="704.19,-225.11 711.99,-217.94 701.42,-218.68 704.19,-225.11"/>
</g>
<!-- Node56 -->
<g id="node45" class="node">
<title>Node56</title>
<g id="a_node45"><a xlink:title=" ">
<polygon fill="#e0e0e0" stroke="#999999" points="740.45,-662.5 651.45,-662.5 651.45,-643.5 740.45,-643.5 740.45,-662.5"/>
<text text-anchor="middle" x="695.95" y="-650.5" font-family="Helvetica,sans-Serif" font-size="10.00">spdlog/fmt/ostr.h</text>
</a>
</g>
</g>
<!-- Node55&#45;&gt;Node56 -->
<g id="edge68" class="edge">
<title>Node55&#45;&gt;Node56</title>
<path fill="none" stroke="#63b8ff" d="M651.18,-709.1C659.02,-699.45 671.73,-683.81 681.61,-671.65"/>
<polygon fill="#63b8ff" stroke="#63b8ff" points="684.24,-673.97 687.83,-664 678.8,-669.55 684.24,-673.97"/>
</g>
<!-- Node57 -->
<g id="node46" class="node">
<title>Node57</title>
<g id="a_node46"><a xlink:title=" ">
<polygon fill="#e0e0e0" stroke="#999999" points="632.95,-662.5 548.95,-662.5 548.95,-643.5 632.95,-643.5 632.95,-662.5"/>
<text text-anchor="middle" x="590.95" y="-650.5" font-family="Helvetica,sans-Serif" font-size="10.00">spdlog/spdlog.h</text>
</a>
</g>
</g>
<!-- Node55&#45;&gt;Node57 -->
<g id="edge69" class="edge">
<title>Node55&#45;&gt;Node57</title>
<path fill="none" stroke="#63b8ff" d="M636.58,-709.1C628.59,-699.45 615.63,-683.81 605.56,-671.65"/>
<polygon fill="#63b8ff" stroke="#63b8ff" points="608.3,-669.46 599.22,-663.99 602.9,-673.92 608.3,-669.46"/>
</g>
<!-- Node58&#45;&gt;Node3 -->
<g id="edge82" class="edge">
<title>Node58&#45;&gt;Node3</title>
<path fill="none" stroke="#63b8ff" d="M798.09,-703.76C787.53,-687.22 768.9,-659.48 749.95,-638 718.45,-602.3 677.06,-565.88 650.48,-543.6"/>
<polygon fill="#63b8ff" stroke="#63b8ff" points="652.83,-541 642.9,-537.3 648.35,-546.39 652.83,-541"/>
</g>
<!-- Node58&#45;&gt;Node45 -->
<g id="edge77" class="edge">
<title>Node58&#45;&gt;Node45</title>
<path fill="none" stroke="#63b8ff" d="M805.07,-703.54C799.56,-661.04 783.35,-536.12 776.29,-481.76"/>
<polygon fill="#63b8ff" stroke="#63b8ff" points="779.77,-481.38 775.01,-471.92 772.83,-482.28 779.77,-481.38"/>
</g>
<!-- Node59 -->
<g id="node48" class="node">
<title>Node59</title>
<g id="a_node48"><a xlink:href="verification_2finality_2chain_8hpp.html" target="_top" xlink:title=" ">
<polygon fill="white" stroke="#666666" points="1147.45,-602 1054.45,-602 1054.45,-572 1147.45,-572 1147.45,-602"/>
<text text-anchor="start" x="1062.45" y="-590" font-family="Helvetica,sans-Serif" font-size="10.00">verification/finality</text>
<text text-anchor="middle" x="1100.95" y="-579" font-family="Helvetica,sans-Serif" font-size="10.00">/chain.hpp</text>
</a>
</g>
</g>
<!-- Node58&#45;&gt;Node59 -->
<g id="edge71" class="edge">
<title>Node58&#45;&gt;Node59</title>
<path fill="none" stroke="#63b8ff" d="M853.74,-704.68C883.51,-695.62 922.6,-682.65 955.95,-668 995.98,-650.41 1039.62,-625.49 1068.45,-608.15"/>
<polygon fill="#63b8ff" stroke="#63b8ff" points="1069.97,-611.33 1076.71,-603.15 1066.34,-605.34 1069.97,-611.33"/>
</g>
<!-- Node60 -->
<g id="node49" class="node">
<title>Node60</title>
<g id="a_node49"><a xlink:href="completed__round_8hpp.html" target="_top" xlink:title=" ">
<polygon fill="white" stroke="#666666" points="946.95,-668 834.95,-668 834.95,-638 946.95,-638 946.95,-668"/>
<text text-anchor="start" x="842.95" y="-656" font-family="Helvetica,sans-Serif" font-size="10.00">verification/finality</text>
<text text-anchor="middle" x="890.95" y="-645" font-family="Helvetica,sans-Serif" font-size="10.00">/completed_round.hpp</text>
</a>
</g>
</g>
<!-- Node58&#45;&gt;Node60 -->
<g id="edge78" class="edge">
<title>Node58&#45;&gt;Node60</title>
<path fill="none" stroke="#63b8ff" d="M825.59,-703.8C836.61,-695.4 850.77,-684.62 863.09,-675.23"/>
<polygon fill="#63b8ff" stroke="#63b8ff" points="865.03,-678.15 870.86,-669.3 860.79,-672.58 865.03,-678.15"/>
</g>
<!-- Node59&#45;&gt;Node3 -->
<g id="edge76" class="edge">
<title>Node59&#45;&gt;Node3</title>
<path fill="none" stroke="#63b8ff" d="M1054.34,-579.75C966.71,-567.99 777.63,-542.62 681.94,-529.78"/>
<polygon fill="#63b8ff" stroke="#63b8ff" points="682.62,-526.34 672.24,-528.48 681.69,-533.28 682.62,-526.34"/>
</g>
<!-- Node59&#45;&gt;Node8 -->
<g id="edge72" class="edge">
<title>Node59&#45;&gt;Node8</title>
<path fill="none" stroke="#63b8ff" d="M1099.03,-571.59C1093.53,-534.97 1074.75,-436.81 1024.95,-374 891.09,-205.16 697.82,-347.94 588.95,-162 575.94,-139.78 597.5,-114.12 615.53,-97.98"/>
<polygon fill="#63b8ff" stroke="#63b8ff" points="617.4,-100.98 622.78,-91.85 612.88,-95.63 617.4,-100.98"/>
</g>
<!-- Node59&#45;&gt;Node12 -->
<g id="edge74" class="edge">
<title>Node59&#45;&gt;Node12</title>
<path fill="none" stroke="#63b8ff" d="M1113.56,-571.85C1121.09,-562.42 1129.94,-549.35 1133.95,-536 1161.79,-443.28 1163.83,-402.57 1114.95,-319 1058.91,-223.2 958.67,-133.45 916.5,-97.98"/>
<polygon fill="#63b8ff" stroke="#63b8ff" points="918.84,-95.38 908.91,-91.67 914.36,-100.76 918.84,-95.38"/>
</g>
<!-- Node59&#45;&gt;Node20 -->
<g id="edge73" class="edge">
<title>Node59&#45;&gt;Node20</title>
<path fill="none" stroke="#63b8ff" d="M1147.67,-580.09C1249.41,-565.92 1481.95,-525.89 1481.95,-456 1481.95,-456 1481.95,-456 1481.95,-206.5 1481.95,-168.46 1468.55,-125.66 1459.66,-101.45"/>
<polygon fill="#63b8ff" stroke="#63b8ff" points="1463,-100.39 1456.17,-92.3 1456.46,-102.89 1463,-100.39"/>
</g>
<!-- Node59&#45;&gt;Node45 -->
<g id="edge75" class="edge">
<title>Node59&#45;&gt;Node45</title>
<path fill="none" stroke="#63b8ff" d="M1064.59,-571.59C1004.87,-547.92 886.04,-500.82 819.99,-474.64"/>
<polygon fill="#63b8ff" stroke="#63b8ff" points="821.46,-471.46 810.87,-471.03 818.88,-477.97 821.46,-471.46"/>
</g>
<!-- Node61 -->
<g id="node50" class="node">
<title>Node61</title>
<g id="a_node50"><a xlink:href="round__state_8hpp.html" target="_top" xlink:title=" ">
<polygon fill="white" stroke="#666666" points="937.45,-602 844.45,-602 844.45,-572 937.45,-572 937.45,-602"/>
<text text-anchor="start" x="852.45" y="-590" font-family="Helvetica,sans-Serif" font-size="10.00">verification/finality</text>
<text text-anchor="middle" x="890.95" y="-579" font-family="Helvetica,sans-Serif" font-size="10.00">/round_state.hpp</text>
</a>
</g>
</g>
<!-- Node60&#45;&gt;Node61 -->
<g id="edge79" class="edge">
<title>Node60&#45;&gt;Node61</title>
<path fill="none" stroke="#63b8ff" d="M890.95,-637.8C890.95,-630.67 890.95,-621.82 890.95,-613.56"/>
<polygon fill="#63b8ff" stroke="#63b8ff" points="894.45,-613.68 890.95,-603.68 887.45,-613.68 894.45,-613.68"/>
</g>
<!-- Node61&#45;&gt;Node3 -->
<g id="edge81" class="edge">
<title>Node61&#45;&gt;Node3</title>
<path fill="none" stroke="#63b8ff" d="M844.14,-574.78C798.9,-563.94 730.28,-547.49 681.68,-535.84"/>
<polygon fill="#63b8ff" stroke="#63b8ff" points="682.72,-532.49 672.18,-533.56 681.09,-539.3 682.72,-532.49"/>
</g>
<!-- Node61&#45;&gt;Node20 -->
<g id="edge80" class="edge">
<title>Node61&#45;&gt;Node20</title>
<path fill="none" stroke="#63b8ff" d="M910.03,-571.73C978.27,-520.27 1215.31,-337.99 1386.95,-162 1406.4,-142.05 1426.23,-116.78 1438.79,-100.04"/>
<polygon fill="#63b8ff" stroke="#63b8ff" points="1441.56,-102.17 1444.7,-92.05 1435.94,-98.01 1441.56,-102.17"/>
</g>
</g>
</svg>
