<?xml version="1.0" encoding="UTF-8" standalone="no"?>
<!DOCTYPE svg PUBLIC "-//W3C//DTD SVG 1.1//EN"
 "http://www.w3.org/Graphics/SVG/1.1/DTD/svg11.dtd">
<!-- Generated by graphviz version 7.0.5 (20221223.1930)
 -->
<!-- Title: src/injector/syncing_node_injector.hpp Pages: 1 -->
<svg width="276pt" height="170pt"
 viewBox="0.00 0.00 276.00 170.00" xmlns="http://www.w3.org/2000/svg" xmlns:xlink="http://www.w3.org/1999/xlink">
<g id="graph0" class="graph" transform="scale(1 1) rotate(0) translate(4 166)">
<title>src/injector/syncing_node_injector.hpp</title>
<!-- Node1 -->
<g id="node1" class="node">
<title>Node1</title>
<g id="a_node1"><a xlink:title=" ">
<polygon fill="#999999" stroke="#666666" points="196,-162 95,-162 95,-132 196,-132 196,-162"/>
<text text-anchor="start" x="103" y="-150" font-family="Helvetica,sans-Serif" font-size="10.00">src/injector/syncing</text>
<text text-anchor="middle" x="145.5" y="-139" font-family="Helvetica,sans-Serif" font-size="10.00">_node_injector.hpp</text>
</a>
</g>
</g>
<!-- Node2 -->
<g id="node2" class="node">
<title>Node2</title>
<g id="a_node2"><a xlink:href="syncing__node__application_8hpp.html" target="_top" xlink:title=" ">
<polygon fill="white" stroke="#666666" points="149,-96 0,-96 0,-66 149,-66 149,-96"/>
<text text-anchor="start" x="8" y="-84" font-family="Helvetica,sans-Serif" font-size="10.00">src/application/impl</text>
<text text-anchor="middle" x="74.5" y="-73" font-family="Helvetica,sans-Serif" font-size="10.00">/syncing_node_application.hpp</text>
</a>
</g>
</g>
<!-- Node1&#45;&gt;Node2 -->
<g id="edge1" class="edge">
<title>Node1&#45;&gt;Node2</title>
<path fill="none" stroke="#63b8ff" d="M121.19,-124.09C110.94,-114.85 99.31,-104.36 90.21,-96.16"/>
<polygon fill="#63b8ff" stroke="#63b8ff" points="118.85,-126.69 128.62,-130.78 123.53,-121.49 118.85,-126.69"/>
</g>
<!-- Node4 -->
<g id="node4" class="node">
<title>Node4</title>
<g id="a_node4"><a xlink:href="syncing__node__injector_8cpp.html" target="_top" xlink:title=" ">
<polygon fill="white" stroke="#666666" points="268,-96 167,-96 167,-66 268,-66 268,-96"/>
<text text-anchor="start" x="175" y="-84" font-family="Helvetica,sans-Serif" font-size="10.00">src/injector/syncing</text>
<text text-anchor="middle" x="217.5" y="-73" font-family="Helvetica,sans-Serif" font-size="10.00">_node_injector.cpp</text>
</a>
</g>
</g>
<!-- Node1&#45;&gt;Node4 -->
<g id="edge3" class="edge">
<title>Node1&#45;&gt;Node4</title>
<path fill="none" stroke="#63b8ff" d="M169.78,-124.42C180.17,-115.18 192.02,-104.65 201.32,-96.39"/>
<polygon fill="#63b8ff" stroke="#63b8ff" points="167.76,-121.53 162.61,-130.79 172.41,-126.76 167.76,-121.53"/>
</g>
<!-- Node3 -->
<g id="node3" class="node">
<title>Node3</title>
<g id="a_node3"><a xlink:href="syncing__node__application_8cpp.html" target="_top" xlink:title=" ">
<polygon fill="white" stroke="#666666" points="149,-30 0,-30 0,0 149,0 149,-30"/>
<text text-anchor="start" x="8" y="-18" font-family="Helvetica,sans-Serif" font-size="10.00">src/application/impl</text>
<text text-anchor="middle" x="74.5" y="-7" font-family="Helvetica,sans-Serif" font-size="10.00">/syncing_node_application.cpp</text>
</a>
</g>
</g>
<!-- Node2&#45;&gt;Node3 -->
<g id="edge2" class="edge">
<title>Node2&#45;&gt;Node3</title>
<path fill="none" stroke="#63b8ff" d="M74.5,-54.39C74.5,-46.13 74.5,-37.28 74.5,-30.16"/>
<polygon fill="#63b8ff" stroke="#63b8ff" points="71,-54.28 74.5,-64.28 78,-54.28 71,-54.28"/>
</g>
</g>
</svg>
