<?xml version="1.0" encoding="UTF-8" standalone="no"?>
<!DOCTYPE svg PUBLIC "-//W3C//DTD SVG 1.1//EN"
 "http://www.w3.org/Graphics/SVG/1.1/DTD/svg11.dtd">
<!-- Generated by graphviz version 7.0.5 (20221223.1930)
 -->
<!-- Title: src/api/service/system/system_jrpc_processor.hpp Pages: 1 -->
<svg width="1345pt" height="830pt"
 viewBox="0.00 0.00 1345.00 830.00" xmlns="http://www.w3.org/2000/svg" xmlns:xlink="http://www.w3.org/1999/xlink">
<g id="graph0" class="graph" transform="scale(1 1) rotate(0) translate(4 826)">
<title>src/api/service/system/system_jrpc_processor.hpp</title>
<!-- Node1 -->
<g id="node1" class="node">
<title>Node1</title>
<g id="a_node1"><a xlink:title=" ">
<polygon fill="#999999" stroke="#666666" points="360.5,-822 222.5,-822 222.5,-792 360.5,-792 360.5,-822"/>
<text text-anchor="start" x="230.5" y="-810" font-family="Helvetica,sans-Serif" font-size="10.00">src/api/service/system</text>
<text text-anchor="middle" x="291.5" y="-799" font-family="Helvetica,sans-Serif" font-size="10.00">/system_jrpc_processor.hpp</text>
</a>
</g>
</g>
<!-- Node2 -->
<g id="node2" class="node">
<title>Node2</title>
<g id="a_node2"><a xlink:href="jrpc__processor_8hpp.html" target="_top" xlink:title=" ">
<polygon fill="white" stroke="#666666" points="193,-750.5 60,-750.5 60,-731.5 193,-731.5 193,-750.5"/>
<text text-anchor="middle" x="126.5" y="-738.5" font-family="Helvetica,sans-Serif" font-size="10.00">api/jrpc/jrpc_processor.hpp</text>
</a>
</g>
</g>
<!-- Node1&#45;&gt;Node2 -->
<g id="edge1" class="edge">
<title>Node1&#45;&gt;Node2</title>
<path fill="none" stroke="#63b8ff" d="M254.47,-791.64C226.24,-780.69 187.69,-765.73 160.3,-755.11"/>
<polygon fill="#63b8ff" stroke="#63b8ff" points="161.67,-751.89 151.08,-751.53 159.14,-758.41 161.67,-751.89"/>
</g>
<!-- Node4 -->
<g id="node4" class="node">
<title>Node4</title>
<g id="a_node4"><a xlink:href="jrpc__server__impl_8hpp.html" target="_top" xlink:title=" ">
<polygon fill="white" stroke="#666666" points="341,-756 242,-756 242,-726 341,-726 341,-756"/>
<text text-anchor="start" x="250" y="-744" font-family="Helvetica,sans-Serif" font-size="10.00">api/jrpc/jrpc_server</text>
<text text-anchor="middle" x="291.5" y="-733" font-family="Helvetica,sans-Serif" font-size="10.00">_impl.hpp</text>
</a>
</g>
</g>
<!-- Node1&#45;&gt;Node4 -->
<g id="edge3" class="edge">
<title>Node1&#45;&gt;Node4</title>
<path fill="none" stroke="#63b8ff" d="M291.5,-791.8C291.5,-784.67 291.5,-775.82 291.5,-767.56"/>
<polygon fill="#63b8ff" stroke="#63b8ff" points="295,-767.68 291.5,-757.68 288,-767.68 295,-767.68"/>
</g>
<!-- Node11 -->
<g id="node11" class="node">
<title>Node11</title>
<g id="a_node11"><a xlink:href="system__api_8hpp.html" target="_top" xlink:title=" ">
<polygon fill="white" stroke="#666666" points="743.5,-756 645.5,-756 645.5,-726 743.5,-726 743.5,-756"/>
<text text-anchor="start" x="653.5" y="-744" font-family="Helvetica,sans-Serif" font-size="10.00">api/service/system</text>
<text text-anchor="middle" x="694.5" y="-733" font-family="Helvetica,sans-Serif" font-size="10.00">/system_api.hpp</text>
</a>
</g>
</g>
<!-- Node1&#45;&gt;Node11 -->
<g id="edge10" class="edge">
<title>Node1&#45;&gt;Node11</title>
<path fill="none" stroke="#63b8ff" d="M360.78,-795C437.68,-782.79 560.59,-763.27 633.83,-751.63"/>
<polygon fill="#63b8ff" stroke="#63b8ff" points="634.33,-755.1 643.65,-750.08 633.23,-748.19 634.33,-755.1"/>
</g>
<!-- Node3 -->
<g id="node3" class="node">
<title>Node3</title>
<g id="a_node3"><a xlink:title=" ">
<polygon fill="#e0e0e0" stroke="#999999" points="121.5,-684.5 5.5,-684.5 5.5,-665.5 121.5,-665.5 121.5,-684.5"/>
<text text-anchor="middle" x="63.5" y="-672.5" font-family="Helvetica,sans-Serif" font-size="10.00">boost/noncopyable.hpp</text>
</a>
</g>
</g>
<!-- Node2&#45;&gt;Node3 -->
<g id="edge2" class="edge">
<title>Node2&#45;&gt;Node3</title>
<path fill="none" stroke="#63b8ff" d="M117.74,-731.1C108.05,-721.26 92.23,-705.18 80.16,-692.93"/>
<polygon fill="#63b8ff" stroke="#63b8ff" points="82.76,-690.57 73.25,-685.9 77.77,-695.48 82.76,-690.57"/>
</g>
<!-- Node5 -->
<g id="node5" class="node">
<title>Node5</title>
<g id="a_node5"><a xlink:title=" ">
<polygon fill="#e0e0e0" stroke="#999999" points="247,-684.5 140,-684.5 140,-665.5 247,-665.5 247,-684.5"/>
<text text-anchor="middle" x="193.5" y="-672.5" font-family="Helvetica,sans-Serif" font-size="10.00">jsonrpc&#45;lean/server.h</text>
</a>
</g>
</g>
<!-- Node4&#45;&gt;Node5 -->
<g id="edge4" class="edge">
<title>Node4&#45;&gt;Node5</title>
<path fill="none" stroke="#63b8ff" d="M269.75,-725.8C253.87,-715.43 232.4,-701.4 216.29,-690.88"/>
<polygon fill="#63b8ff" stroke="#63b8ff" points="218.6,-688.21 208.31,-685.67 214.77,-694.07 218.6,-688.21"/>
</g>
<!-- Node6 -->
<g id="node6" class="node">
<title>Node6</title>
<g id="a_node6"><a xlink:href="jrpc__server_8hpp.html" target="_top" xlink:title=" ">
<polygon fill="white" stroke="#666666" points="382,-684.5 265,-684.5 265,-665.5 382,-665.5 382,-684.5"/>
<text text-anchor="middle" x="323.5" y="-672.5" font-family="Helvetica,sans-Serif" font-size="10.00">api/jrpc/jrpc_server.hpp</text>
</a>
</g>
</g>
<!-- Node4&#45;&gt;Node6 -->
<g id="edge5" class="edge">
<title>Node4&#45;&gt;Node6</title>
<path fill="none" stroke="#63b8ff" d="M298.6,-725.8C303.15,-716.7 309.11,-704.79 314.05,-694.9"/>
<polygon fill="#63b8ff" stroke="#63b8ff" points="317.06,-696.71 318.4,-686.2 310.8,-693.58 317.06,-696.71"/>
</g>
<!-- Node7 -->
<g id="node7" class="node">
<title>Node7</title>
<g id="a_node7"><a xlink:title=" ">
<polygon fill="#e0e0e0" stroke="#999999" points="246,-618.5 121,-618.5 121,-599.5 246,-599.5 246,-618.5"/>
<text text-anchor="middle" x="183.5" y="-606.5" font-family="Helvetica,sans-Serif" font-size="10.00">jsonrpc&#45;lean/dispatcher.h</text>
</a>
</g>
</g>
<!-- Node6&#45;&gt;Node7 -->
<g id="edge6" class="edge">
<title>Node6&#45;&gt;Node7</title>
<path fill="none" stroke="#63b8ff" d="M304.03,-665.1C280.42,-654.31 240.38,-636 212.98,-623.48"/>
<polygon fill="#63b8ff" stroke="#63b8ff" points="214.73,-620.43 204.18,-619.45 211.82,-626.79 214.73,-620.43"/>
</g>
<!-- Node8 -->
<g id="node8" class="node">
<title>Node8</title>
<g id="a_node8"><a xlink:title=" ">
<polygon fill="#e0e0e0" stroke="#999999" points="383,-618.5 264,-618.5 264,-599.5 383,-599.5 383,-618.5"/>
<text text-anchor="middle" x="323.5" y="-606.5" font-family="Helvetica,sans-Serif" font-size="10.00">jsonrpc&#45;lean/response.h</text>
</a>
</g>
</g>
<!-- Node6&#45;&gt;Node8 -->
<g id="edge7" class="edge">
<title>Node6&#45;&gt;Node8</title>
<path fill="none" stroke="#63b8ff" d="M323.5,-665.1C323.5,-656.12 323.5,-641.95 323.5,-630.22"/>
<polygon fill="#63b8ff" stroke="#63b8ff" points="327,-630.34 323.5,-620.34 320,-630.34 327,-630.34"/>
</g>
<!-- Node9 -->
<g id="node9" class="node">
<title>Node9</title>
<g id="a_node9"><a xlink:title=" ">
<polygon fill="#e0e0e0" stroke="#999999" points="103,-618.5 0,-618.5 0,-599.5 103,-599.5 103,-618.5"/>
<text text-anchor="middle" x="51.5" y="-606.5" font-family="Helvetica,sans-Serif" font-size="10.00">jsonrpc&#45;lean/value.h</text>
</a>
</g>
</g>
<!-- Node6&#45;&gt;Node9 -->
<g id="edge8" class="edge">
<title>Node6&#45;&gt;Node9</title>
<path fill="none" stroke="#63b8ff" d="M285.39,-665.03C237.04,-653.66 153.56,-634.01 100.51,-621.53"/>
<polygon fill="#63b8ff" stroke="#63b8ff" points="101.36,-618.14 90.82,-619.25 99.75,-624.95 101.36,-618.14"/>
</g>
<!-- Node10 -->
<g id="node10" class="node">
<title>Node10</title>
<g id="a_node10"><a xlink:title=" ">
<polygon fill="#e0e0e0" stroke="#999999" points="700,-316 641,-316 641,-297 700,-297 700,-316"/>
<text text-anchor="middle" x="670.5" y="-304" font-family="Helvetica,sans-Serif" font-size="10.00">functional</text>
</a>
</g>
</g>
<!-- Node6&#45;&gt;Node10 -->
<g id="edge9" class="edge">
<title>Node6&#45;&gt;Node10</title>
<path fill="none" stroke="#63b8ff" d="M341.78,-665.02C357.25,-656.52 378.85,-642.33 391.5,-624 428.2,-570.85 399.74,-540.8 430.5,-484 467.69,-415.32 481.92,-395.92 546.5,-352 571.68,-334.88 604.2,-323.53 629.62,-316.58"/>
<polygon fill="#63b8ff" stroke="#63b8ff" points="630.48,-319.97 639.28,-314.07 628.72,-313.2 630.48,-319.97"/>
</g>
<!-- Node12 -->
<g id="node12" class="node">
<title>Node12</title>
<g id="a_node12"><a xlink:href="configuration__storage_8hpp.html" target="_top" xlink:title=" ">
<polygon fill="white" stroke="#666666" points="1107,-690 986,-690 986,-660 1107,-660 1107,-690"/>
<text text-anchor="start" x="994" y="-678" font-family="Helvetica,sans-Serif" font-size="10.00">application/configuration</text>
<text text-anchor="middle" x="1046.5" y="-667" font-family="Helvetica,sans-Serif" font-size="10.00">_storage.hpp</text>
</a>
</g>
</g>
<!-- Node11&#45;&gt;Node12 -->
<g id="edge11" class="edge">
<title>Node11&#45;&gt;Node12</title>
<path fill="none" stroke="#63b8ff" d="M743.81,-731.03C803.86,-720.12 905.75,-701.59 974.54,-689.08"/>
<polygon fill="#63b8ff" stroke="#63b8ff" points="975.01,-692.56 984.23,-687.32 973.76,-685.67 975.01,-692.56"/>
</g>
<!-- Node13 -->
<g id="node13" class="node">
<title>Node13</title>
<g id="a_node13"><a xlink:title=" ">
<polygon fill="#e0e0e0" stroke="#999999" points="1251,-558 1126,-558 1126,-539 1251,-539 1251,-558"/>
<text text-anchor="middle" x="1188.5" y="-546" font-family="Helvetica,sans-Serif" font-size="10.00">libp2p/peer/peer_info.hpp</text>
</a>
</g>
</g>
<!-- Node12&#45;&gt;Node13 -->
<g id="edge12" class="edge">
<title>Node12&#45;&gt;Node13</title>
<path fill="none" stroke="#63b8ff" d="M1107.4,-662.32C1130.52,-654.97 1155.17,-643.1 1171.5,-624 1184.41,-608.89 1188.04,-585.95 1188.82,-569.52"/>
<polygon fill="#63b8ff" stroke="#63b8ff" points="1192.31,-570.02 1188.95,-559.98 1185.31,-569.93 1192.31,-570.02"/>
</g>
<!-- Node14 -->
<g id="node14" class="node">
<title>Node14</title>
<g id="a_node14"><a xlink:href="genesis__raw__config_8hpp.html" target="_top" xlink:title=" ">
<polygon fill="white" stroke="#666666" points="423.5,-382 323.5,-382 323.5,-352 423.5,-352 423.5,-382"/>
<text text-anchor="start" x="331.5" y="-370" font-family="Helvetica,sans-Serif" font-size="10.00">application/genesis</text>
<text text-anchor="middle" x="373.5" y="-359" font-family="Helvetica,sans-Serif" font-size="10.00">_raw_config.hpp</text>
</a>
</g>
</g>
<!-- Node12&#45;&gt;Node14 -->
<g id="edge13" class="edge">
<title>Node12&#45;&gt;Node14</title>
<path fill="none" stroke="#63b8ff" d="M985.66,-674.66C864.03,-672.63 588.95,-650.83 430.5,-503 398.95,-473.56 384.18,-423.86 377.81,-393.68"/>
<polygon fill="#63b8ff" stroke="#63b8ff" points="381.26,-393.06 375.92,-383.9 374.38,-394.39 381.26,-393.06"/>
</g>
<!-- Node23 -->
<g id="node23" class="node">
<title>Node23</title>
<g id="a_node23"><a xlink:href="ed25519__types_8hpp.html" target="_top" xlink:title=" ">
<polygon fill="white" stroke="#666666" points="1045,-618.5 916,-618.5 916,-599.5 1045,-599.5 1045,-618.5"/>
<text text-anchor="middle" x="980.5" y="-606.5" font-family="Helvetica,sans-Serif" font-size="10.00">crypto/ed25519_types.hpp</text>
</a>
</g>
</g>
<!-- Node12&#45;&gt;Node23 -->
<g id="edge22" class="edge">
<title>Node12&#45;&gt;Node23</title>
<path fill="none" stroke="#63b8ff" d="M1031.85,-659.8C1021.76,-650.01 1008.32,-636.98 997.72,-626.7"/>
<polygon fill="#63b8ff" stroke="#63b8ff" points="1000.32,-624.35 990.71,-619.9 995.45,-629.37 1000.32,-624.35"/>
</g>
<!-- Node30 -->
<g id="node30" class="node">
<title>Node30</title>
<g id="a_node30"><a xlink:href="sr25519__types_8hpp.html" target="_top" xlink:title=" ">
<polygon fill="white" stroke="#666666" points="1275,-255.5 1148,-255.5 1148,-236.5 1275,-236.5 1275,-255.5"/>
<text text-anchor="middle" x="1211.5" y="-243.5" font-family="Helvetica,sans-Serif" font-size="10.00">crypto/sr25519_types.hpp</text>
</a>
</g>
</g>
<!-- Node12&#45;&gt;Node30 -->
<g id="edge33" class="edge">
<title>Node12&#45;&gt;Node30</title>
<path fill="none" stroke="#63b8ff" d="M1107.39,-666.43C1161.78,-658.48 1236.08,-644.29 1257.5,-624 1282.57,-600.26 1279.5,-584.02 1279.5,-549.5 1279.5,-549.5 1279.5,-549.5 1279.5,-366 1279.5,-325.19 1248.98,-285.65 1228.84,-264"/>
<polygon fill="#63b8ff" stroke="#63b8ff" points="1231.48,-261.7 1222.01,-256.95 1226.45,-266.57 1231.48,-261.7"/>
</g>
<!-- Node34 -->
<g id="node34" class="node">
<title>Node34</title>
<g id="a_node34"><a xlink:href="peer__list_8hpp.html" target="_top" xlink:title=" ">
<polygon fill="white" stroke="#666666" points="1162,-624 1063,-624 1063,-594 1162,-594 1162,-624"/>
<text text-anchor="start" x="1071" y="-612" font-family="Helvetica,sans-Serif" font-size="10.00">network/types/peer</text>
<text text-anchor="middle" x="1112.5" y="-601" font-family="Helvetica,sans-Serif" font-size="10.00">_list.hpp</text>
</a>
</g>
</g>
<!-- Node12&#45;&gt;Node34 -->
<g id="edge41" class="edge">
<title>Node12&#45;&gt;Node34</title>
<path fill="none" stroke="#63b8ff" d="M1061.15,-659.8C1069.52,-651.68 1080.21,-641.31 1089.66,-632.15"/>
<polygon fill="#63b8ff" stroke="#63b8ff" points="1092.06,-634.69 1096.81,-625.22 1087.19,-629.67 1092.06,-634.69"/>
</g>
<!-- Node35 -->
<g id="node35" class="node">
<title>Node35</title>
<g id="a_node35"><a xlink:href="block_8hpp.html" target="_top" xlink:title=" ">
<polygon fill="white" stroke="#666666" points="896,-618.5 793,-618.5 793,-599.5 896,-599.5 896,-618.5"/>
<text text-anchor="middle" x="844.5" y="-606.5" font-family="Helvetica,sans-Serif" font-size="10.00">primitives/block.hpp</text>
</a>
</g>
</g>
<!-- Node12&#45;&gt;Node35 -->
<g id="edge43" class="edge">
<title>Node12&#45;&gt;Node35</title>
<path fill="none" stroke="#63b8ff" d="M1000.92,-659.56C965.58,-648.36 917.14,-633.01 883.56,-622.38"/>
<polygon fill="#63b8ff" stroke="#63b8ff" points="884.82,-619.1 874.23,-619.42 882.71,-625.78 884.82,-619.1"/>
</g>
<!-- Node49 -->
<g id="node49" class="node">
<title>Node49</title>
<g id="a_node49"><a xlink:title=" ">
<polygon fill="#e0e0e0" stroke="#999999" points="1248.5,-618.5 1218.5,-618.5 1218.5,-599.5 1248.5,-599.5 1248.5,-618.5"/>
<text text-anchor="middle" x="1233.5" y="-606.5" font-family="Helvetica,sans-Serif" font-size="10.00">set</text>
</a>
</g>
</g>
<!-- Node12&#45;&gt;Node49 -->
<g id="edge71" class="edge">
<title>Node12&#45;&gt;Node49</title>
<path fill="none" stroke="#63b8ff" d="M1098.75,-659.52C1129.85,-650.39 1169.87,-637.76 1204.5,-624 1205.62,-623.56 1206.75,-623.09 1207.89,-622.6"/>
<polygon fill="#63b8ff" stroke="#63b8ff" points="1209.01,-625.94 1216.65,-618.6 1206.1,-619.57 1209.01,-625.94"/>
</g>
<!-- Node15 -->
<g id="node15" class="node">
<title>Node15</title>
<g id="a_node15"><a xlink:href="buffer_8hpp.html" target="_top" xlink:title=" ">
<polygon fill="white" stroke="#666666" points="531,-316 448,-316 448,-297 531,-297 531,-316"/>
<text text-anchor="middle" x="489.5" y="-304" font-family="Helvetica,sans-Serif" font-size="10.00">base/buffer.hpp</text>
</a>
</g>
</g>
<!-- Node14&#45;&gt;Node15 -->
<g id="edge14" class="edge">
<title>Node14&#45;&gt;Node15</title>
<path fill="none" stroke="#63b8ff" d="M402.17,-351.54C420.37,-342.36 443.8,-330.55 461.8,-321.47"/>
<polygon fill="#63b8ff" stroke="#63b8ff" points="463.25,-324.66 470.61,-317.03 460.1,-318.41 463.25,-324.66"/>
</g>
<!-- Node16 -->
<g id="node16" class="node">
<title>Node16</title>
<g id="a_node16"><a xlink:title=" ">
<polygon fill="#e0e0e0" stroke="#999999" points="476.5,-74 410.5,-74 410.5,-55 476.5,-55 476.5,-74"/>
<text text-anchor="middle" x="443.5" y="-62" font-family="Helvetica,sans-Serif" font-size="10.00">string_view</text>
</a>
</g>
</g>
<!-- Node15&#45;&gt;Node16 -->
<g id="edge15" class="edge">
<title>Node15&#45;&gt;Node16</title>
<path fill="none" stroke="#63b8ff" d="M460.35,-296.62C443.43,-289.79 423.54,-278.51 413.5,-261 380.38,-203.23 414.66,-120.79 433.23,-84.21"/>
<polygon fill="#63b8ff" stroke="#63b8ff" points="436.12,-86.23 437.69,-75.75 429.93,-82.97 436.12,-86.23"/>
</g>
<!-- Node17 -->
<g id="node17" class="node">
<title>Node17</title>
<g id="a_node17"><a xlink:title=" ">
<polygon fill="#e0e0e0" stroke="#999999" points="382.5,-74 338.5,-74 338.5,-55 382.5,-55 382.5,-74"/>
<text text-anchor="middle" x="360.5" y="-62" font-family="Helvetica,sans-Serif" font-size="10.00">vector</text>
</a>
</g>
</g>
<!-- Node15&#45;&gt;Node17 -->
<g id="edge16" class="edge">
<title>Node15&#45;&gt;Node17</title>
<path fill="none" stroke="#63b8ff" d="M464.11,-296.53C447.4,-289.38 426.32,-277.76 413.5,-261 372.41,-207.28 363.15,-123.93 361.08,-85.8"/>
<polygon fill="#63b8ff" stroke="#63b8ff" points="364.58,-85.68 360.67,-75.83 357.58,-85.96 364.58,-85.68"/>
</g>
<!-- Node18 -->
<g id="node18" class="node">
<title>Node18</title>
<g id="a_node18"><a xlink:title=" ">
<polygon fill="#e0e0e0" stroke="#999999" points="532.5,-261 422.5,-261 422.5,-231 532.5,-231 532.5,-261"/>
<text text-anchor="start" x="430.5" y="-249" font-family="Helvetica,sans-Serif" font-size="10.00">boost/container_hash</text>
<text text-anchor="middle" x="477.5" y="-238" font-family="Helvetica,sans-Serif" font-size="10.00">/hash.hpp</text>
</a>
</g>
</g>
<!-- Node15&#45;&gt;Node18 -->
<g id="edge17" class="edge">
<title>Node15&#45;&gt;Node18</title>
<path fill="none" stroke="#63b8ff" d="M487.73,-296.87C486.39,-290.33 484.47,-280.99 482.66,-272.15"/>
<polygon fill="#63b8ff" stroke="#63b8ff" points="486.14,-271.69 480.7,-262.6 479.28,-273.1 486.14,-271.69"/>
</g>
<!-- Node19 -->
<g id="node19" class="node">
<title>Node19</title>
<g id="a_node19"><a xlink:title=" ">
<polygon fill="#e0e0e0" stroke="#999999" points="777.5,-255.5 675.5,-255.5 675.5,-236.5 777.5,-236.5 777.5,-255.5"/>
<text text-anchor="middle" x="726.5" y="-243.5" font-family="Helvetica,sans-Serif" font-size="10.00">boost/operators.hpp</text>
</a>
</g>
</g>
<!-- Node15&#45;&gt;Node19 -->
<g id="edge18" class="edge">
<title>Node15&#45;&gt;Node19</title>
<path fill="none" stroke="#63b8ff" d="M525.75,-296.55C566.87,-286.4 634.07,-269.81 679.26,-258.66"/>
<polygon fill="#63b8ff" stroke="#63b8ff" points="679.91,-262.1 688.78,-256.31 678.23,-255.31 679.91,-262.1"/>
</g>
<!-- Node20 -->
<g id="node20" class="node">
<title>Node20</title>
<g id="a_node20"><a xlink:title=" ">
<polygon fill="#e0e0e0" stroke="#999999" points="963,-74 910,-74 910,-55 963,-55 963,-74"/>
<text text-anchor="middle" x="936.5" y="-62" font-family="Helvetica,sans-Serif" font-size="10.00">gsl/span</text>
</a>
</g>
</g>
<!-- Node15&#45;&gt;Node20 -->
<g id="edge19" class="edge">
<title>Node15&#45;&gt;Node20</title>
<path fill="none" stroke="#63b8ff" d="M509.57,-296.53C545.99,-279.72 624.46,-240.98 681.5,-195 721.18,-163.01 714.78,-136.2 758.5,-110 802.2,-83.81 860.79,-72.98 898.59,-68.53"/>
<polygon fill="#63b8ff" stroke="#63b8ff" points="898.54,-72.06 908.11,-67.51 897.79,-65.1 898.54,-72.06"/>
</g>
<!-- Node21 -->
<g id="node21" class="node">
<title>Node21</title>
<g id="a_node21"><a xlink:href="outcome_8hpp.html" target="_top" xlink:title=" ">
<polygon fill="white" stroke="#666666" points="617,-74 504,-74 504,-55 617,-55 617,-74"/>
<text text-anchor="middle" x="560.5" y="-62" font-family="Helvetica,sans-Serif" font-size="10.00">outcome/outcome.hpp</text>
</a>
</g>
</g>
<!-- Node15&#45;&gt;Node21 -->
<g id="edge20" class="edge">
<title>Node15&#45;&gt;Node21</title>
<path fill="none" stroke="#63b8ff" d="M505.12,-296.75C517.27,-289.03 533.38,-276.6 541.5,-261 571.64,-203.1 567.33,-122.47 563.24,-85.49"/>
<polygon fill="#63b8ff" stroke="#63b8ff" points="566.74,-85.33 562.04,-75.83 559.8,-86.19 566.74,-85.33"/>
</g>
<!-- Node22 -->
<g id="node22" class="node">
<title>Node22</title>
<g id="a_node22"><a xlink:title=" ">
<polygon fill="#e0e0e0" stroke="#999999" points="631,-19 490,-19 490,0 631,0 631,-19"/>
<text text-anchor="middle" x="560.5" y="-7" font-family="Helvetica,sans-Serif" font-size="10.00">libp2p/outcome/outcome.hpp</text>
</a>
</g>
</g>
<!-- Node21&#45;&gt;Node22 -->
<g id="edge21" class="edge">
<title>Node21&#45;&gt;Node22</title>
<path fill="none" stroke="#63b8ff" d="M560.5,-54.75C560.5,-48.27 560.5,-39.16 560.5,-30.9"/>
<polygon fill="#63b8ff" stroke="#63b8ff" points="564,-30.96 560.5,-20.96 557,-30.96 564,-30.96"/>
</g>
<!-- Node24 -->
<g id="node24" class="node">
<title>Node24</title>
<g id="a_node24"><a xlink:title=" ">
<polygon fill="#e0e0e0" stroke="#999999" points="1032,-558 931,-558 931,-539 1032,-539 1032,-558"/>
<text text-anchor="middle" x="981.5" y="-546" font-family="Helvetica,sans-Serif" font-size="10.00">ed25519/ed25519.h</text>
</a>
</g>
</g>
<!-- Node23&#45;&gt;Node24 -->
<g id="edge23" class="edge">
<title>Node23&#45;&gt;Node24</title>
<path fill="none" stroke="#63b8ff" d="M980.65,-599.37C980.78,-591.5 980.99,-579.6 981.16,-569.39"/>
<polygon fill="#63b8ff" stroke="#63b8ff" points="984.65,-569.74 981.33,-559.68 977.66,-569.62 984.65,-569.74"/>
</g>
<!-- Node25 -->
<g id="node25" class="node">
<title>Node25</title>
<g id="a_node25"><a xlink:href="blob_8hpp.html" target="_top" xlink:title=" ">
<polygon fill="white" stroke="#666666" points="984,-195 907,-195 907,-176 984,-176 984,-195"/>
<text text-anchor="middle" x="945.5" y="-183" font-family="Helvetica,sans-Serif" font-size="10.00">base/blob.hpp</text>
</a>
</g>
</g>
<!-- Node23&#45;&gt;Node25 -->
<g id="edge24" class="edge">
<title>Node23&#45;&gt;Node25</title>
<path fill="none" stroke="#63b8ff" d="M1001.69,-599.12C1035.4,-583.4 1097.5,-547.28 1097.5,-494.5 1097.5,-494.5 1097.5,-494.5 1097.5,-432 1097.5,-332.48 1006.08,-239.66 965.04,-203.01"/>
<polygon fill="#63b8ff" stroke="#63b8ff" points="967.4,-200.43 957.57,-196.49 962.8,-205.7 967.4,-200.43"/>
</g>
<!-- Node26 -->
<g id="node26" class="node">
<title>Node26</title>
<g id="a_node26"><a xlink:title=" ">
<polygon fill="#e0e0e0" stroke="#999999" points="805.5,-134.5 767.5,-134.5 767.5,-115.5 805.5,-115.5 805.5,-134.5"/>
<text text-anchor="middle" x="786.5" y="-122.5" font-family="Helvetica,sans-Serif" font-size="10.00">array</text>
</a>
</g>
</g>
<!-- Node25&#45;&gt;Node26 -->
<g id="edge25" class="edge">
<title>Node25&#45;&gt;Node26</title>
<path fill="none" stroke="#63b8ff" d="M915.41,-175.56C888.58,-167.29 848.41,-154.16 814.5,-140 814.27,-139.91 814.05,-139.81 813.82,-139.71"/>
<polygon fill="#63b8ff" stroke="#63b8ff" points="815.43,-136.6 804.88,-135.6 812.5,-142.96 815.43,-136.6"/>
</g>
<!-- Node27 -->
<g id="node27" class="node">
<title>Node27</title>
<g id="a_node27"><a xlink:title=" ">
<polygon fill="#e0e0e0" stroke="#999999" points="951.5,-134.5 823.5,-134.5 823.5,-115.5 951.5,-115.5 951.5,-134.5"/>
<text text-anchor="middle" x="887.5" y="-122.5" font-family="Helvetica,sans-Serif" font-size="10.00">boost/functional/hash.hpp</text>
</a>
</g>
</g>
<!-- Node25&#45;&gt;Node27 -->
<g id="edge26" class="edge">
<title>Node25&#45;&gt;Node27</title>
<path fill="none" stroke="#63b8ff" d="M936.94,-175.87C928.29,-167.14 914.7,-153.43 903.95,-142.59"/>
<polygon fill="#63b8ff" stroke="#63b8ff" points="906.69,-140.38 897.16,-135.74 901.71,-145.31 906.69,-140.38"/>
</g>
<!-- Node28 -->
<g id="node28" class="node">
<title>Node28</title>
<g id="a_node28"><a xlink:href="hexutil_8hpp.html" target="_top" xlink:title=" ">
<polygon fill="white" stroke="#666666" points="532.5,-134.5 446.5,-134.5 446.5,-115.5 532.5,-115.5 532.5,-134.5"/>
<text text-anchor="middle" x="489.5" y="-122.5" font-family="Helvetica,sans-Serif" font-size="10.00">base/hexutil.hpp</text>
</a>
</g>
</g>
<!-- Node25&#45;&gt;Node28 -->
<g id="edge27" class="edge">
<title>Node25&#45;&gt;Node28</title>
<path fill="none" stroke="#63b8ff" d="M906.62,-179.51C825.37,-169.09 637.38,-144.97 544.07,-133"/>
<polygon fill="#63b8ff" stroke="#63b8ff" points="544.77,-129.56 534.41,-131.76 543.88,-136.51 544.77,-129.56"/>
</g>
<!-- Node29 -->
<g id="node29" class="node">
<title>Node29</title>
<g id="a_node29"><a xlink:title=" ">
<polygon fill="#e0e0e0" stroke="#999999" points="1023.5,-134.5 969.5,-134.5 969.5,-115.5 1023.5,-115.5 1023.5,-134.5"/>
<text text-anchor="middle" x="996.5" y="-122.5" font-family="Helvetica,sans-Serif" font-size="10.00">iostream</text>
</a>
</g>
</g>
<!-- Node25&#45;&gt;Node29 -->
<g id="edge32" class="edge">
<title>Node25&#45;&gt;Node29</title>
<path fill="none" stroke="#63b8ff" d="M953.03,-175.87C960.48,-167.31 972.11,-153.97 981.47,-143.24"/>
<polygon fill="#63b8ff" stroke="#63b8ff" points="984.02,-145.65 987.95,-135.81 978.74,-141.05 984.02,-145.65"/>
</g>
<!-- Node28&#45;&gt;Node16 -->
<g id="edge28" class="edge">
<title>Node28&#45;&gt;Node16</title>
<path fill="none" stroke="#63b8ff" d="M482.71,-115.37C476.05,-106.9 465.71,-93.74 457.31,-83.07"/>
<polygon fill="#63b8ff" stroke="#63b8ff" points="460.18,-81.05 451.25,-75.36 454.68,-85.38 460.18,-81.05"/>
</g>
<!-- Node28&#45;&gt;Node17 -->
<g id="edge29" class="edge">
<title>Node28&#45;&gt;Node17</title>
<path fill="none" stroke="#63b8ff" d="M469.91,-115.12C448.79,-105.54 414.91,-90.18 390.45,-79.08"/>
<polygon fill="#63b8ff" stroke="#63b8ff" points="392.21,-76.04 381.66,-75.09 389.32,-82.41 392.21,-76.04"/>
</g>
<!-- Node28&#45;&gt;Node20 -->
<g id="edge30" class="edge">
<title>Node28&#45;&gt;Node20</title>
<path fill="none" stroke="#63b8ff" d="M532.77,-118.34C619.95,-106.93 815.49,-81.34 898.29,-70.5"/>
<polygon fill="#63b8ff" stroke="#63b8ff" points="898.7,-73.98 908.16,-69.21 897.79,-67.04 898.7,-73.98"/>
</g>
<!-- Node28&#45;&gt;Node21 -->
<g id="edge31" class="edge">
<title>Node28&#45;&gt;Node21</title>
<path fill="none" stroke="#63b8ff" d="M500.28,-115.12C511.02,-106.27 527.75,-92.48 540.85,-81.69"/>
<polygon fill="#63b8ff" stroke="#63b8ff" points="542.95,-84.49 548.45,-75.43 538.5,-79.09 542.95,-84.49"/>
</g>
<!-- Node30&#45;&gt;Node20 -->
<g id="edge36" class="edge">
<title>Node30&#45;&gt;Node20</title>
<path fill="none" stroke="#63b8ff" d="M1217.27,-236.37C1225.35,-223.17 1238.2,-197.26 1230.5,-176 1217.5,-140.1 1208.44,-129.31 1175.5,-110 1112.09,-72.84 1024.35,-65.64 974.73,-64.84"/>
<polygon fill="#63b8ff" stroke="#63b8ff" points="974.81,-61.34 964.78,-64.77 974.76,-68.34 974.81,-61.34"/>
</g>
<!-- Node30&#45;&gt;Node25 -->
<g id="edge37" class="edge">
<title>Node30&#45;&gt;Node25</title>
<path fill="none" stroke="#63b8ff" d="M1170.81,-236.05C1123.73,-225.7 1046.18,-208.64 995.47,-197.49"/>
<polygon fill="#63b8ff" stroke="#63b8ff" points="996.45,-194.12 985.93,-195.39 994.95,-200.96 996.45,-194.12"/>
</g>
<!-- Node31 -->
<g id="node31" class="node">
<title>Node31</title>
<g id="a_node31"><a xlink:title=" ">
<polygon fill="#e0e0e0" stroke="#999999" points="1337,-195 1278,-195 1278,-176 1337,-176 1337,-195"/>
<text text-anchor="middle" x="1307.5" y="-183" font-family="Helvetica,sans-Serif" font-size="10.00">sr25519.h</text>
</a>
</g>
</g>
<!-- Node30&#45;&gt;Node31 -->
<g id="edge34" class="edge">
<title>Node30&#45;&gt;Node31</title>
<path fill="none" stroke="#63b8ff" d="M1226.08,-236.12C1241.16,-226.92 1264.99,-212.41 1282.98,-201.44"/>
<polygon fill="#63b8ff" stroke="#63b8ff" points="1284.77,-204.45 1291.49,-196.26 1281.13,-198.47 1284.77,-204.45"/>
</g>
<!-- Node32 -->
<g id="node32" class="node">
<title>Node32</title>
<g id="a_node32"><a xlink:title=" ">
<polygon fill="#e0e0e0" stroke="#999999" points="1145.5,-140 1041.5,-140 1041.5,-110 1145.5,-110 1145.5,-140"/>
<text text-anchor="start" x="1049.5" y="-128" font-family="Helvetica,sans-Serif" font-size="10.00">boost/multiprecision</text>
<text text-anchor="middle" x="1093.5" y="-117" font-family="Helvetica,sans-Serif" font-size="10.00">/cpp_int.hpp</text>
</a>
</g>
</g>
<!-- Node30&#45;&gt;Node32 -->
<g id="edge35" class="edge">
<title>Node30&#45;&gt;Node32</title>
<path fill="none" stroke="#63b8ff" d="M1182.78,-236.11C1162.01,-228.32 1134.7,-215.07 1117.5,-195 1106.99,-182.73 1101,-165.6 1097.63,-151.47"/>
<polygon fill="#63b8ff" stroke="#63b8ff" points="1101.12,-151.06 1095.68,-141.97 1094.26,-152.47 1101.12,-151.06"/>
</g>
<!-- Node33 -->
<g id="node33" class="node">
<title>Node33</title>
<g id="a_node33"><a xlink:href="mp__utils_8hpp.html" target="_top" xlink:title=" ">
<polygon fill="white" stroke="#666666" points="1221,-195 1126,-195 1126,-176 1221,-176 1221,-195"/>
<text text-anchor="middle" x="1173.5" y="-183" font-family="Helvetica,sans-Serif" font-size="10.00">base/mp_utils.hpp</text>
</a>
</g>
</g>
<!-- Node30&#45;&gt;Node33 -->
<g id="edge38" class="edge">
<title>Node30&#45;&gt;Node33</title>
<path fill="none" stroke="#63b8ff" d="M1205.89,-236.37C1200.5,-228.07 1192.19,-215.28 1185.34,-204.72"/>
<polygon fill="#63b8ff" stroke="#63b8ff" points="1188.34,-202.92 1179.95,-196.44 1182.47,-206.73 1188.34,-202.92"/>
</g>
<!-- Node33&#45;&gt;Node20 -->
<g id="edge40" class="edge">
<title>Node33&#45;&gt;Node20</title>
<path fill="none" stroke="#63b8ff" d="M1174.02,-175.69C1174.43,-160.06 1172.86,-127.49 1154.5,-110 1129.11,-85.81 1030.06,-73.55 974.62,-68.46"/>
<polygon fill="#63b8ff" stroke="#63b8ff" points="975.27,-65.01 965,-67.62 974.65,-71.98 975.27,-65.01"/>
</g>
<!-- Node33&#45;&gt;Node32 -->
<g id="edge39" class="edge">
<title>Node33&#45;&gt;Node32</title>
<path fill="none" stroke="#63b8ff" d="M1161.35,-175.62C1150.98,-168.03 1135.65,-156.82 1122.19,-146.98"/>
<polygon fill="#63b8ff" stroke="#63b8ff" points="1124.61,-144.41 1114.47,-141.33 1120.47,-150.06 1124.61,-144.41"/>
</g>
<!-- Node34&#45;&gt;Node13 -->
<g id="edge42" class="edge">
<title>Node34&#45;&gt;Node13</title>
<path fill="none" stroke="#63b8ff" d="M1131.29,-593.54C1142.55,-584.87 1156.87,-573.85 1168.37,-565"/>
<polygon fill="#63b8ff" stroke="#63b8ff" points="1170.24,-567.97 1176.03,-559.1 1165.97,-562.42 1170.24,-567.97"/>
</g>
<!-- Node36 -->
<g id="node36" class="node">
<title>Node36</title>
<g id="a_node36"><a xlink:href="block__header_8hpp.html" target="_top" xlink:title=" ">
<polygon fill="white" stroke="#666666" points="913,-558 776,-558 776,-539 913,-539 913,-558"/>
<text text-anchor="middle" x="844.5" y="-546" font-family="Helvetica,sans-Serif" font-size="10.00">primitives/block_header.hpp</text>
</a>
</g>
</g>
<!-- Node35&#45;&gt;Node36 -->
<g id="edge44" class="edge">
<title>Node35&#45;&gt;Node36</title>
<path fill="none" stroke="#63b8ff" d="M844.5,-599.37C844.5,-591.5 844.5,-579.6 844.5,-569.39"/>
<polygon fill="#63b8ff" stroke="#63b8ff" points="848,-569.68 844.5,-559.68 841,-569.68 848,-569.68"/>
</g>
<!-- Node48 -->
<g id="node48" class="node">
<title>Node48</title>
<g id="a_node48"><a xlink:href="extrinsic_8hpp.html" target="_top" xlink:title=" ">
<polygon fill="white" stroke="#666666" points="555.5,-503 439.5,-503 439.5,-484 555.5,-484 555.5,-503"/>
<text text-anchor="middle" x="497.5" y="-491" font-family="Helvetica,sans-Serif" font-size="10.00">primitives/extrinsic.hpp</text>
</a>
</g>
</g>
<!-- Node35&#45;&gt;Node48 -->
<g id="edge69" class="edge">
<title>Node35&#45;&gt;Node48</title>
<path fill="none" stroke="#63b8ff" d="M817.27,-599.09C755.7,-578.95 605.65,-529.87 535.2,-506.83"/>
<polygon fill="#63b8ff" stroke="#63b8ff" points="536.63,-503.62 526.04,-503.84 534.46,-510.27 536.63,-503.62"/>
</g>
<!-- Node36&#45;&gt;Node17 -->
<g id="edge46" class="edge">
<title>Node36&#45;&gt;Node17</title>
<path fill="none" stroke="#63b8ff" d="M781.81,-538.53C735.57,-531.13 671.43,-519.21 616.5,-503 607.83,-500.44 320.46,-388.8 314.5,-382 291.98,-356.3 295.5,-341.67 295.5,-307.5 295.5,-307.5 295.5,-307.5 295.5,-184.5 295.5,-144.13 324.67,-104.44 343.93,-82.64"/>
<polygon fill="#63b8ff" stroke="#63b8ff" points="346.25,-85.29 350.44,-75.56 341.09,-80.55 346.25,-85.29"/>
</g>
<!-- Node36&#45;&gt;Node25 -->
<g id="edge48" class="edge">
<title>Node36&#45;&gt;Node25</title>
<path fill="none" stroke="#63b8ff" d="M866.57,-538.65C882.92,-531.18 904.82,-519.11 919.5,-503 964.22,-453.92 983.5,-434.4 983.5,-368 983.5,-368 983.5,-368 983.5,-305.5 983.5,-268.77 966.86,-228.55 955.61,-205.53"/>
<polygon fill="#63b8ff" stroke="#63b8ff" points="958.81,-204.12 951.15,-196.79 952.57,-207.29 958.81,-204.12"/>
</g>
<!-- Node36&#45;&gt;Node32 -->
<g id="edge47" class="edge">
<title>Node36&#45;&gt;Node32</title>
<path fill="none" stroke="#63b8ff" d="M913.28,-539.44C962.18,-532.35 1022.27,-520.42 1040.5,-503 1063.5,-481.03 1059.5,-465.81 1059.5,-434 1059.5,-434 1059.5,-434 1059.5,-245 1059.5,-211.39 1072.19,-174.43 1082.07,-150.76"/>
<polygon fill="#63b8ff" stroke="#63b8ff" points="1085.24,-152.23 1086.02,-141.67 1078.82,-149.44 1085.24,-152.23"/>
</g>
<!-- Node37 -->
<g id="node37" class="node">
<title>Node37</title>
<g id="a_node37"><a xlink:title=" ">
<polygon fill="#e0e0e0" stroke="#999999" points="1031.5,-503 969.5,-503 969.5,-484 1031.5,-484 1031.5,-503"/>
<text text-anchor="middle" x="1000.5" y="-491" font-family="Helvetica,sans-Serif" font-size="10.00">type_traits</text>
</a>
</g>
</g>
<!-- Node36&#45;&gt;Node37 -->
<g id="edge45" class="edge">
<title>Node36&#45;&gt;Node37</title>
<path fill="none" stroke="#63b8ff" d="M870.96,-538.51C896.36,-529.88 934.97,-516.76 963.42,-507.1"/>
<polygon fill="#63b8ff" stroke="#63b8ff" points="964.39,-510.46 972.73,-503.93 962.14,-503.84 964.39,-510.46"/>
</g>
<!-- Node38 -->
<g id="node38" class="node">
<title>Node38</title>
<g id="a_node38"><a xlink:href="src_2primitives_2common_8hpp.html" target="_top" xlink:title=" ">
<polygon fill="white" stroke="#666666" points="877,-316 760,-316 760,-297 877,-297 877,-316"/>
<text text-anchor="middle" x="818.5" y="-304" font-family="Helvetica,sans-Serif" font-size="10.00">primitives/common.hpp</text>
</a>
</g>
</g>
<!-- Node36&#45;&gt;Node38 -->
<g id="edge49" class="edge">
<title>Node36&#45;&gt;Node38</title>
<path fill="none" stroke="#63b8ff" d="M857.44,-538.7C885.24,-518.6 946.59,-467.29 926.5,-418 909.44,-376.15 868.06,-341.52 841.76,-322.74"/>
<polygon fill="#63b8ff" stroke="#63b8ff" points="843.96,-320.01 833.74,-317.2 839.98,-325.76 843.96,-320.01"/>
</g>
<!-- Node41 -->
<g id="node41" class="node">
<title>Node41</title>
<g id="a_node41"><a xlink:href="compact__integer_8hpp.html" target="_top" xlink:title=" ">
<polygon fill="white" stroke="#666666" points="655,-382 556,-382 556,-352 655,-352 655,-382"/>
<text text-anchor="start" x="564" y="-370" font-family="Helvetica,sans-Serif" font-size="10.00">primitives/compact</text>
<text text-anchor="middle" x="605.5" y="-359" font-family="Helvetica,sans-Serif" font-size="10.00">_integer.hpp</text>
</a>
</g>
</g>
<!-- Node36&#45;&gt;Node41 -->
<g id="edge54" class="edge">
<title>Node36&#45;&gt;Node41</title>
<path fill="none" stroke="#63b8ff" d="M775.57,-543.03C713.18,-534.82 625.04,-511.86 584.5,-448 573.73,-431.03 581.01,-408.71 589.83,-391.95"/>
<polygon fill="#63b8ff" stroke="#63b8ff" points="592.65,-394.06 594.61,-383.65 586.59,-390.57 592.65,-394.06"/>
</g>
<!-- Node43 -->
<g id="node43" class="node">
<title>Node43</title>
<g id="a_node43"><a xlink:href="digest_8hpp.html" target="_top" xlink:title=" ">
<polygon fill="white" stroke="#666666" points="816.5,-503 710.5,-503 710.5,-484 816.5,-484 816.5,-503"/>
<text text-anchor="middle" x="763.5" y="-491" font-family="Helvetica,sans-Serif" font-size="10.00">primitives/digest.hpp</text>
</a>
</g>
</g>
<!-- Node36&#45;&gt;Node43 -->
<g id="edge59" class="edge">
<title>Node36&#45;&gt;Node43</title>
<path fill="none" stroke="#63b8ff" d="M830.76,-538.51C818.7,-530.62 800.91,-518.98 786.66,-509.65"/>
<polygon fill="#63b8ff" stroke="#63b8ff" points="788.59,-506.73 778.3,-504.19 784.76,-512.59 788.59,-506.73"/>
</g>
<!-- Node38&#45;&gt;Node19 -->
<g id="edge51" class="edge">
<title>Node38&#45;&gt;Node19</title>
<path fill="none" stroke="#63b8ff" d="M804.53,-296.62C790.07,-287.42 767.24,-272.91 750,-261.94"/>
<polygon fill="#63b8ff" stroke="#63b8ff" points="752.2,-259.19 741.88,-256.78 748.44,-265.1 752.2,-259.19"/>
</g>
<!-- Node39 -->
<g id="node39" class="node">
<title>Node39</title>
<g id="a_node39"><a xlink:title=" ">
<polygon fill="#e0e0e0" stroke="#999999" points="841.5,-255.5 795.5,-255.5 795.5,-236.5 841.5,-236.5 841.5,-255.5"/>
<text text-anchor="middle" x="818.5" y="-243.5" font-family="Helvetica,sans-Serif" font-size="10.00">cstdint</text>
</a>
</g>
</g>
<!-- Node38&#45;&gt;Node39 -->
<g id="edge50" class="edge">
<title>Node38&#45;&gt;Node39</title>
<path fill="none" stroke="#63b8ff" d="M818.5,-296.87C818.5,-289 818.5,-277.1 818.5,-266.89"/>
<polygon fill="#63b8ff" stroke="#63b8ff" points="822,-267.18 818.5,-257.18 815,-267.18 822,-267.18"/>
</g>
<!-- Node40 -->
<g id="node40" class="node">
<title>Node40</title>
<g id="a_node40"><a xlink:href="session__key_8hpp.html" target="_top" xlink:title=" ">
<polygon fill="white" stroke="#666666" points="955,-261 860,-261 860,-231 955,-231 955,-261"/>
<text text-anchor="start" x="868" y="-249" font-family="Helvetica,sans-Serif" font-size="10.00">primitives/session</text>
<text text-anchor="middle" x="907.5" y="-238" font-family="Helvetica,sans-Serif" font-size="10.00">_key.hpp</text>
</a>
</g>
</g>
<!-- Node38&#45;&gt;Node40 -->
<g id="edge52" class="edge">
<title>Node38&#45;&gt;Node40</title>
<path fill="none" stroke="#63b8ff" d="M832.02,-296.62C843.67,-288.96 860.94,-277.61 876.02,-267.69"/>
<polygon fill="#63b8ff" stroke="#63b8ff" points="877.83,-270.69 884.27,-262.27 873.99,-264.84 877.83,-270.69"/>
</g>
<!-- Node40&#45;&gt;Node25 -->
<g id="edge53" class="edge">
<title>Node40&#45;&gt;Node25</title>
<path fill="none" stroke="#63b8ff" d="M916.89,-230.54C921.96,-222.74 928.27,-213.03 933.67,-204.71"/>
<polygon fill="#63b8ff" stroke="#63b8ff" points="936.53,-206.74 939.04,-196.44 930.66,-202.92 936.53,-206.74"/>
</g>
<!-- Node42 -->
<g id="node42" class="node">
<title>Node42</title>
<g id="a_node42"><a xlink:href="scale_2types_8hpp.html" target="_top" xlink:title=" ">
<polygon fill="white" stroke="#666666" points="672.5,-195 588.5,-195 588.5,-176 672.5,-176 672.5,-195"/>
<text text-anchor="middle" x="630.5" y="-183" font-family="Helvetica,sans-Serif" font-size="10.00">scale/types.hpp</text>
</a>
</g>
</g>
<!-- Node41&#45;&gt;Node42 -->
<g id="edge55" class="edge">
<title>Node41&#45;&gt;Node42</title>
<path fill="none" stroke="#63b8ff" d="M607.5,-351.61C611.94,-319.76 622.6,-243.22 627.7,-206.64"/>
<polygon fill="#63b8ff" stroke="#63b8ff" points="631.12,-207.39 629.04,-197 624.19,-206.42 631.12,-207.39"/>
</g>
<!-- Node42&#45;&gt;Node17 -->
<g id="edge56" class="edge">
<title>Node42&#45;&gt;Node17</title>
<path fill="none" stroke="#63b8ff" d="M588.29,-181.33C547.57,-176.81 485.24,-165.94 437.5,-140 411.54,-125.89 388.15,-100.61 374.14,-83.46"/>
<polygon fill="#63b8ff" stroke="#63b8ff" points="376.9,-81.31 367.96,-75.63 371.41,-85.64 376.9,-81.31"/>
</g>
<!-- Node42&#45;&gt;Node21 -->
<g id="edge58" class="edge">
<title>Node42&#45;&gt;Node21</title>
<path fill="none" stroke="#63b8ff" d="M625.24,-175.56C613.83,-156.16 586.63,-109.91 571.36,-83.97"/>
<polygon fill="#63b8ff" stroke="#63b8ff" points="574.49,-82.37 566.4,-75.53 568.45,-85.92 574.49,-82.37"/>
</g>
<!-- Node42&#45;&gt;Node32 -->
<g id="edge57" class="edge">
<title>Node42&#45;&gt;Node32</title>
<path fill="none" stroke="#63b8ff" d="M672.97,-181.42C744.61,-175.87 894.19,-162.78 1030,-140.3"/>
<polygon fill="#63b8ff" stroke="#63b8ff" points="1030.23,-143.81 1039.51,-138.7 1029.07,-136.91 1030.23,-143.81"/>
</g>
<!-- Node43&#45;&gt;Node15 -->
<g id="edge61" class="edge">
<title>Node43&#45;&gt;Node15</title>
<path fill="none" stroke="#63b8ff" d="M710.4,-489.33C672.41,-484.81 621.64,-473.96 584.5,-448 539.97,-416.88 510.28,-357.63 497.17,-326.97"/>
<polygon fill="#63b8ff" stroke="#63b8ff" points="500.44,-325.72 493.4,-317.8 493.97,-328.38 500.44,-325.72"/>
</g>
<!-- Node44 -->
<g id="node44" class="node">
<title>Node44</title>
<g id="a_node44"><a xlink:title=" ">
<polygon fill="#e0e0e0" stroke="#999999" points="809,-442.5 718,-442.5 718,-423.5 809,-423.5 809,-442.5"/>
<text text-anchor="middle" x="763.5" y="-430.5" font-family="Helvetica,sans-Serif" font-size="10.00">boost/variant.hpp</text>
</a>
</g>
</g>
<!-- Node43&#45;&gt;Node44 -->
<g id="edge60" class="edge">
<title>Node43&#45;&gt;Node44</title>
<path fill="none" stroke="#63b8ff" d="M763.5,-483.87C763.5,-476 763.5,-464.1 763.5,-453.89"/>
<polygon fill="#63b8ff" stroke="#63b8ff" points="767,-454.18 763.5,-444.18 760,-454.18 767,-454.18"/>
</g>
<!-- Node45 -->
<g id="node45" class="node">
<title>Node45</title>
<g id="a_node45"><a xlink:href="unused_8hpp.html" target="_top" xlink:title=" ">
<polygon fill="white" stroke="#666666" points="917.5,-442.5 827.5,-442.5 827.5,-423.5 917.5,-423.5 917.5,-442.5"/>
<text text-anchor="middle" x="872.5" y="-430.5" font-family="Helvetica,sans-Serif" font-size="10.00">base/unused.hpp</text>
</a>
</g>
</g>
<!-- Node43&#45;&gt;Node45 -->
<g id="edge62" class="edge">
<title>Node43&#45;&gt;Node45</title>
<path fill="none" stroke="#63b8ff" d="M780.05,-483.62C797.5,-474.25 825.25,-459.36 845.79,-448.33"/>
<polygon fill="#63b8ff" stroke="#63b8ff" points="847.3,-451.5 854.46,-443.68 843.99,-445.33 847.3,-451.5"/>
</g>
<!-- Node46 -->
<g id="node46" class="node">
<title>Node46</title>
<g id="a_node46"><a xlink:href="scheduled__change_8hpp.html" target="_top" xlink:title=" ">
<polygon fill="white" stroke="#666666" points="699.5,-448 593.5,-448 593.5,-418 699.5,-418 699.5,-448"/>
<text text-anchor="start" x="601.5" y="-436" font-family="Helvetica,sans-Serif" font-size="10.00">primitives/scheduled</text>
<text text-anchor="middle" x="646.5" y="-425" font-family="Helvetica,sans-Serif" font-size="10.00">_change.hpp</text>
</a>
</g>
</g>
<!-- Node43&#45;&gt;Node46 -->
<g id="edge63" class="edge">
<title>Node43&#45;&gt;Node46</title>
<path fill="none" stroke="#63b8ff" d="M745.73,-483.62C729.83,-475.67 705.97,-463.74 685.63,-453.57"/>
<polygon fill="#63b8ff" stroke="#63b8ff" points="687.24,-450.46 676.73,-449.12 684.11,-456.72 687.24,-450.46"/>
</g>
<!-- Node46&#45;&gt;Node38 -->
<g id="edge68" class="edge">
<title>Node46&#45;&gt;Node38</title>
<path fill="none" stroke="#63b8ff" d="M699.64,-420.2C737.73,-410.73 784.66,-396.63 798.5,-382 812.43,-367.27 816.88,-343.9 818.19,-327.27"/>
<polygon fill="#63b8ff" stroke="#63b8ff" points="821.67,-327.77 818.62,-317.63 814.68,-327.46 821.67,-327.77"/>
</g>
<!-- Node47 -->
<g id="node47" class="node">
<title>Node47</title>
<g id="a_node47"><a xlink:href="authority_8hpp.html" target="_top" xlink:title=" ">
<polygon fill="white" stroke="#666666" points="789.5,-376.5 673.5,-376.5 673.5,-357.5 789.5,-357.5 789.5,-376.5"/>
<text text-anchor="middle" x="731.5" y="-364.5" font-family="Helvetica,sans-Serif" font-size="10.00">primitives/authority.hpp</text>
</a>
</g>
</g>
<!-- Node46&#45;&gt;Node47 -->
<g id="edge64" class="edge">
<title>Node46&#45;&gt;Node47</title>
<path fill="none" stroke="#63b8ff" d="M665.36,-417.8C678.88,-407.62 697.06,-393.93 710.94,-383.48"/>
<polygon fill="#63b8ff" stroke="#63b8ff" points="712.66,-386.57 718.54,-377.75 708.45,-380.97 712.66,-386.57"/>
</g>
<!-- Node47&#45;&gt;Node10 -->
<g id="edge66" class="edge">
<title>Node47&#45;&gt;Node10</title>
<path fill="none" stroke="#63b8ff" d="M722.24,-357.12C713.19,-348.44 699.19,-335.02 688.04,-324.32"/>
<polygon fill="#63b8ff" stroke="#63b8ff" points="690.58,-321.91 680.94,-317.52 685.74,-326.96 690.58,-321.91"/>
</g>
<!-- Node47&#45;&gt;Node38 -->
<g id="edge67" class="edge">
<title>Node47&#45;&gt;Node38</title>
<path fill="none" stroke="#63b8ff" d="M744.71,-357.12C758.25,-348.01 779.57,-333.68 795.82,-322.75"/>
<polygon fill="#63b8ff" stroke="#63b8ff" points="797.56,-325.8 803.91,-317.31 793.65,-319.99 797.56,-325.8"/>
</g>
<!-- Node47&#45;&gt;Node39 -->
<g id="edge65" class="edge">
<title>Node47&#45;&gt;Node39</title>
<path fill="none" stroke="#63b8ff" d="M732.09,-357.17C733.39,-343.24 737.54,-315.83 750.5,-297 760.66,-282.24 776.63,-270.17 790.55,-261.59"/>
<polygon fill="#63b8ff" stroke="#63b8ff" points="792.01,-264.78 798.89,-256.73 788.49,-258.73 792.01,-264.78"/>
</g>
<!-- Node48&#45;&gt;Node15 -->
<g id="edge70" class="edge">
<title>Node48&#45;&gt;Node15</title>
<path fill="none" stroke="#63b8ff" d="M497.11,-483.58C495.89,-455.37 492.1,-367.65 490.37,-327.7"/>
<polygon fill="#63b8ff" stroke="#63b8ff" points="493.88,-327.68 489.95,-317.85 486.88,-327.99 493.88,-327.68"/>
</g>
</g>
</svg>
