<?xml version="1.0" encoding="UTF-8" standalone="no"?>
<!DOCTYPE svg PUBLIC "-//W3C//DTD SVG 1.1//EN"
 "http://www.w3.org/Graphics/SVG/1.1/DTD/svg11.dtd">
<!-- Generated by graphviz version 7.0.5 (20221223.1930)
 -->
<!-- Title: src/api/service/system/system_jrpc_processor.cpp Pages: 1 -->
<svg width="1707pt" height="610pt"
 viewBox="0.00 0.00 1707.00 610.00" xmlns="http://www.w3.org/2000/svg" xmlns:xlink="http://www.w3.org/1999/xlink">
<g id="graph0" class="graph" transform="scale(1 1) rotate(0) translate(4 606)">
<title>src/api/service/system/system_jrpc_processor.cpp</title>
<!-- Node1 -->
<g id="node1" class="node">
<title>Node1</title>
<g id="a_node1"><a xlink:title=" ">
<polygon fill="#999999" stroke="#666666" points="1389,-602 1251,-602 1251,-572 1389,-572 1389,-602"/>
<text text-anchor="start" x="1259" y="-590" font-family="Helvetica,sans-Serif" font-size="10.00">src/api/service/system</text>
<text text-anchor="middle" x="1320" y="-579" font-family="Helvetica,sans-Serif" font-size="10.00">/system_jrpc_processor.cpp</text>
</a>
</g>
</g>
<!-- Node2 -->
<g id="node2" class="node">
<title>Node2</title>
<g id="a_node2"><a xlink:href="system__jrpc__processor_8hpp.html" target="_top" xlink:title=" ">
<polygon fill="white" stroke="#666666" points="482,-536 344,-536 344,-506 482,-506 482,-536"/>
<text text-anchor="start" x="352" y="-524" font-family="Helvetica,sans-Serif" font-size="10.00">api/service/system</text>
<text text-anchor="middle" x="413" y="-513" font-family="Helvetica,sans-Serif" font-size="10.00">/system_jrpc_processor.hpp</text>
</a>
</g>
</g>
<!-- Node1&#45;&gt;Node2 -->
<g id="edge1" class="edge">
<title>Node1&#45;&gt;Node2</title>
<path fill="none" stroke="#63b8ff" d="M1250.53,-582.62C1114.16,-575.74 801.92,-558.82 540,-536 524.97,-534.69 508.97,-533.09 493.57,-531.44"/>
<polygon fill="#63b8ff" stroke="#63b8ff" points="494.31,-528 483.99,-530.4 493.55,-534.96 494.31,-528"/>
</g>
<!-- Node51 -->
<g id="node38" class="node">
<title>Node51</title>
<g id="a_node38"><a xlink:href="jrpc__method_8hpp.html" target="_top" xlink:title=" ">
<polygon fill="white" stroke="#666666" points="671,-530.5 549,-530.5 549,-511.5 671,-511.5 671,-530.5"/>
<text text-anchor="middle" x="610" y="-518.5" font-family="Helvetica,sans-Serif" font-size="10.00">api/jrpc/jrpc_method.hpp</text>
</a>
</g>
</g>
<!-- Node1&#45;&gt;Node51 -->
<g id="edge49" class="edge">
<title>Node1&#45;&gt;Node51</title>
<path fill="none" stroke="#63b8ff" d="M1250.63,-579.75C1115.89,-567.6 820,-540.93 682.67,-528.55"/>
<polygon fill="#63b8ff" stroke="#63b8ff" points="683.26,-525.09 672.98,-527.68 682.63,-532.06 683.26,-525.09"/>
</g>
<!-- Node60 -->
<g id="node47" class="node">
<title>Node60</title>
<g id="a_node47"><a xlink:href="api_2service_2system_2requests_2chain_8hpp.html" target="_top" xlink:title=" ">
<polygon fill="white" stroke="#666666" points="1310.5,-536 1209.5,-536 1209.5,-506 1310.5,-506 1310.5,-536"/>
<text text-anchor="start" x="1217.5" y="-524" font-family="Helvetica,sans-Serif" font-size="10.00">api/service/system</text>
<text text-anchor="middle" x="1260" y="-513" font-family="Helvetica,sans-Serif" font-size="10.00">/requests/chain.hpp</text>
</a>
</g>
</g>
<!-- Node1&#45;&gt;Node60 -->
<g id="edge67" class="edge">
<title>Node1&#45;&gt;Node60</title>
<path fill="none" stroke="#63b8ff" d="M1306.68,-571.8C1299.15,-563.76 1289.56,-553.53 1281.03,-544.43"/>
<polygon fill="#63b8ff" stroke="#63b8ff" points="1283.71,-542.17 1274.31,-537.27 1278.6,-546.96 1283.71,-542.17"/>
</g>
<!-- Node61 -->
<g id="node48" class="node">
<title>Node61</title>
<g id="a_node48"><a xlink:href="name_8hpp.html" target="_top" xlink:title=" ">
<polygon fill="white" stroke="#666666" points="1431,-536 1329,-536 1329,-506 1431,-506 1431,-536"/>
<text text-anchor="start" x="1337" y="-524" font-family="Helvetica,sans-Serif" font-size="10.00">api/service/system</text>
<text text-anchor="middle" x="1380" y="-513" font-family="Helvetica,sans-Serif" font-size="10.00">/requests/name.hpp</text>
</a>
</g>
</g>
<!-- Node1&#45;&gt;Node61 -->
<g id="edge71" class="edge">
<title>Node1&#45;&gt;Node61</title>
<path fill="none" stroke="#63b8ff" d="M1333.32,-571.8C1340.85,-563.76 1350.44,-553.53 1358.97,-544.43"/>
<polygon fill="#63b8ff" stroke="#63b8ff" points="1361.4,-546.96 1365.69,-537.27 1356.29,-542.17 1361.4,-546.96"/>
</g>
<!-- Node62 -->
<g id="node49" class="node">
<title>Node62</title>
<g id="a_node49"><a xlink:href="properties_8hpp.html" target="_top" xlink:title=" ">
<polygon fill="white" stroke="#666666" points="1570.5,-536 1449.5,-536 1449.5,-506 1570.5,-506 1570.5,-536"/>
<text text-anchor="start" x="1457.5" y="-524" font-family="Helvetica,sans-Serif" font-size="10.00">api/service/system</text>
<text text-anchor="middle" x="1510" y="-513" font-family="Helvetica,sans-Serif" font-size="10.00">/requests/properties.hpp</text>
</a>
</g>
</g>
<!-- Node1&#45;&gt;Node62 -->
<g id="edge75" class="edge">
<title>Node1&#45;&gt;Node62</title>
<path fill="none" stroke="#63b8ff" d="M1362.64,-571.64C1390.41,-562.28 1426.86,-550 1456.57,-540"/>
<polygon fill="#63b8ff" stroke="#63b8ff" points="1457.38,-543.42 1465.74,-536.91 1455.15,-536.78 1457.38,-543.42"/>
</g>
<!-- Node63 -->
<g id="node50" class="node">
<title>Node63</title>
<g id="a_node50"><a xlink:href="api_2service_2system_2requests_2version_8hpp.html" target="_top" xlink:title=" ">
<polygon fill="white" stroke="#666666" points="1699,-536 1589,-536 1589,-506 1699,-506 1699,-536"/>
<text text-anchor="start" x="1597" y="-524" font-family="Helvetica,sans-Serif" font-size="10.00">api/service/system</text>
<text text-anchor="middle" x="1644" y="-513" font-family="Helvetica,sans-Serif" font-size="10.00">/requests/version.hpp</text>
</a>
</g>
</g>
<!-- Node1&#45;&gt;Node63 -->
<g id="edge79" class="edge">
<title>Node1&#45;&gt;Node63</title>
<path fill="none" stroke="#63b8ff" d="M1389.34,-573.03C1438.89,-563.67 1507.45,-550.52 1577.45,-536.29"/>
<polygon fill="#63b8ff" stroke="#63b8ff" points="1578.12,-539.73 1587.22,-534.3 1576.72,-532.87 1578.12,-539.73"/>
</g>
<!-- Node3 -->
<g id="node3" class="node">
<title>Node3</title>
<g id="a_node3"><a xlink:href="jrpc__processor_8hpp.html" target="_top" xlink:title=" ">
<polygon fill="white" stroke="#666666" points="187.5,-464.5 54.5,-464.5 54.5,-445.5 187.5,-445.5 187.5,-464.5"/>
<text text-anchor="middle" x="121" y="-452.5" font-family="Helvetica,sans-Serif" font-size="10.00">api/jrpc/jrpc_processor.hpp</text>
</a>
</g>
</g>
<!-- Node2&#45;&gt;Node3 -->
<g id="edge2" class="edge">
<title>Node2&#45;&gt;Node3</title>
<path fill="none" stroke="#63b8ff" d="M347.11,-505.56C294.47,-494.02 221.72,-478.08 173.1,-467.42"/>
<polygon fill="#63b8ff" stroke="#63b8ff" points="173.89,-464.01 163.37,-465.29 172.39,-470.85 173.89,-464.01"/>
</g>
<!-- Node5 -->
<g id="node5" class="node">
<title>Node5</title>
<g id="a_node5"><a xlink:href="jrpc__server__impl_8hpp.html" target="_top" xlink:title=" ">
<polygon fill="white" stroke="#666666" points="367.5,-470 268.5,-470 268.5,-440 367.5,-440 367.5,-470"/>
<text text-anchor="start" x="276.5" y="-458" font-family="Helvetica,sans-Serif" font-size="10.00">api/jrpc/jrpc_server</text>
<text text-anchor="middle" x="318" y="-447" font-family="Helvetica,sans-Serif" font-size="10.00">_impl.hpp</text>
</a>
</g>
</g>
<!-- Node2&#45;&gt;Node5 -->
<g id="edge4" class="edge">
<title>Node2&#45;&gt;Node5</title>
<path fill="none" stroke="#63b8ff" d="M391.92,-505.8C379.21,-497.24 362.82,-486.19 348.69,-476.68"/>
<polygon fill="#63b8ff" stroke="#63b8ff" points="350.86,-473.92 340.61,-471.23 346.95,-479.72 350.86,-473.92"/>
</g>
<!-- Node12 -->
<g id="node12" class="node">
<title>Node12</title>
<g id="a_node12"><a xlink:href="system__api_8hpp.html" target="_top" xlink:title=" ">
<polygon fill="white" stroke="#666666" points="1420,-470 1322,-470 1322,-440 1420,-440 1420,-470"/>
<text text-anchor="start" x="1330" y="-458" font-family="Helvetica,sans-Serif" font-size="10.00">api/service/system</text>
<text text-anchor="middle" x="1371" y="-447" font-family="Helvetica,sans-Serif" font-size="10.00">/system_api.hpp</text>
</a>
</g>
</g>
<!-- Node2&#45;&gt;Node12 -->
<g id="edge11" class="edge">
<title>Node2&#45;&gt;Node12</title>
<path fill="none" stroke="#63b8ff" d="M482.48,-511.71C501.14,-509.66 521.32,-507.59 540,-506 827.91,-481.48 1172.95,-464.77 1310.29,-458.62"/>
<polygon fill="#63b8ff" stroke="#63b8ff" points="1310.42,-462.12 1320.25,-458.17 1310.11,-455.12 1310.42,-462.12"/>
</g>
<!-- Node4 -->
<g id="node4" class="node">
<title>Node4</title>
<g id="a_node4"><a xlink:title=" ">
<polygon fill="#e0e0e0" stroke="#999999" points="116,-398.5 0,-398.5 0,-379.5 116,-379.5 116,-398.5"/>
<text text-anchor="middle" x="58" y="-386.5" font-family="Helvetica,sans-Serif" font-size="10.00">boost/noncopyable.hpp</text>
</a>
</g>
</g>
<!-- Node3&#45;&gt;Node4 -->
<g id="edge3" class="edge">
<title>Node3&#45;&gt;Node4</title>
<path fill="none" stroke="#63b8ff" d="M112.24,-445.1C102.55,-435.26 86.73,-419.18 74.66,-406.93"/>
<polygon fill="#63b8ff" stroke="#63b8ff" points="77.26,-404.57 67.75,-399.9 72.27,-409.48 77.26,-404.57"/>
</g>
<!-- Node6 -->
<g id="node6" class="node">
<title>Node6</title>
<g id="a_node6"><a xlink:title=" ">
<polygon fill="#e0e0e0" stroke="#999999" points="241.5,-398.5 134.5,-398.5 134.5,-379.5 241.5,-379.5 241.5,-398.5"/>
<text text-anchor="middle" x="188" y="-386.5" font-family="Helvetica,sans-Serif" font-size="10.00">jsonrpc&#45;lean/server.h</text>
</a>
</g>
</g>
<!-- Node5&#45;&gt;Node6 -->
<g id="edge5" class="edge">
<title>Node5&#45;&gt;Node6</title>
<path fill="none" stroke="#63b8ff" d="M288.83,-439.64C267.18,-428.98 237.83,-414.53 216.37,-403.97"/>
<polygon fill="#63b8ff" stroke="#63b8ff" points="218.13,-400.93 207.61,-399.65 215.04,-407.21 218.13,-400.93"/>
</g>
<!-- Node7 -->
<g id="node7" class="node">
<title>Node7</title>
<g id="a_node7"><a xlink:href="jrpc__server_8hpp.html" target="_top" xlink:title=" ">
<polygon fill="white" stroke="#666666" points="376.5,-398.5 259.5,-398.5 259.5,-379.5 376.5,-379.5 376.5,-398.5"/>
<text text-anchor="middle" x="318" y="-386.5" font-family="Helvetica,sans-Serif" font-size="10.00">api/jrpc/jrpc_server.hpp</text>
</a>
</g>
</g>
<!-- Node5&#45;&gt;Node7 -->
<g id="edge6" class="edge">
<title>Node5&#45;&gt;Node7</title>
<path fill="none" stroke="#63b8ff" d="M318,-439.8C318,-431.09 318,-419.81 318,-410.18"/>
<polygon fill="#63b8ff" stroke="#63b8ff" points="321.5,-410.36 318,-400.36 314.5,-410.36 321.5,-410.36"/>
</g>
<!-- Node8 -->
<g id="node8" class="node">
<title>Node8</title>
<g id="a_node8"><a xlink:title=" ">
<polygon fill="#e0e0e0" stroke="#999999" points="450.5,-332.5 325.5,-332.5 325.5,-313.5 450.5,-313.5 450.5,-332.5"/>
<text text-anchor="middle" x="388" y="-320.5" font-family="Helvetica,sans-Serif" font-size="10.00">jsonrpc&#45;lean/dispatcher.h</text>
</a>
</g>
</g>
<!-- Node7&#45;&gt;Node8 -->
<g id="edge7" class="edge">
<title>Node7&#45;&gt;Node8</title>
<path fill="none" stroke="#63b8ff" d="M327.73,-379.1C338.6,-369.17 356.42,-352.87 369.87,-340.57"/>
<polygon fill="#63b8ff" stroke="#63b8ff" points="372.21,-343.18 377.23,-333.84 367.49,-338.01 372.21,-343.18"/>
</g>
<!-- Node9 -->
<g id="node9" class="node">
<title>Node9</title>
<g id="a_node9"><a xlink:title=" ">
<polygon fill="#e0e0e0" stroke="#999999" points="307.5,-332.5 188.5,-332.5 188.5,-313.5 307.5,-313.5 307.5,-332.5"/>
<text text-anchor="middle" x="248" y="-320.5" font-family="Helvetica,sans-Serif" font-size="10.00">jsonrpc&#45;lean/response.h</text>
</a>
</g>
</g>
<!-- Node7&#45;&gt;Node9 -->
<g id="edge8" class="edge">
<title>Node7&#45;&gt;Node9</title>
<path fill="none" stroke="#63b8ff" d="M308.27,-379.1C297.4,-369.17 279.58,-352.87 266.13,-340.57"/>
<polygon fill="#63b8ff" stroke="#63b8ff" points="268.51,-338.01 258.77,-333.84 263.79,-343.18 268.51,-338.01"/>
</g>
<!-- Node10 -->
<g id="node10" class="node">
<title>Node10</title>
<g id="a_node10"><a xlink:title=" ">
<polygon fill="#e0e0e0" stroke="#999999" points="244.5,-266.5 141.5,-266.5 141.5,-247.5 244.5,-247.5 244.5,-266.5"/>
<text text-anchor="middle" x="193" y="-254.5" font-family="Helvetica,sans-Serif" font-size="10.00">jsonrpc&#45;lean/value.h</text>
</a>
</g>
</g>
<!-- Node7&#45;&gt;Node10 -->
<g id="edge9" class="edge">
<title>Node7&#45;&gt;Node10</title>
<path fill="none" stroke="#63b8ff" d="M276.25,-379.02C214.24,-365.58 104.74,-341.45 102,-338 80.62,-311.11 123.56,-285.97 157.45,-271.29"/>
<polygon fill="#63b8ff" stroke="#63b8ff" points="158.75,-274.54 166.65,-267.48 156.07,-268.07 158.75,-274.54"/>
</g>
<!-- Node11 -->
<g id="node11" class="node">
<title>Node11</title>
<g id="a_node11"><a xlink:title=" ">
<polygon fill="#e0e0e0" stroke="#999999" points="170.5,-332.5 111.5,-332.5 111.5,-313.5 170.5,-313.5 170.5,-332.5"/>
<text text-anchor="middle" x="141" y="-320.5" font-family="Helvetica,sans-Serif" font-size="10.00">functional</text>
</a>
</g>
</g>
<!-- Node7&#45;&gt;Node11 -->
<g id="edge10" class="edge">
<title>Node7&#45;&gt;Node11</title>
<path fill="none" stroke="#63b8ff" d="M292.87,-379.03C265.01,-369.06 218.76,-352.48 179,-338 177.88,-337.59 176.74,-337.17 175.58,-336.75"/>
<polygon fill="#63b8ff" stroke="#63b8ff" points="177.13,-333.59 166.53,-333.44 174.72,-340.16 177.13,-333.59"/>
</g>
<!-- Node13 -->
<g id="node13" class="node">
<title>Node13</title>
<g id="a_node13"><a xlink:href="configuration__storage_8hpp.html" target="_top" xlink:title=" ">
<polygon fill="white" stroke="#666666" points="1194.5,-404 1073.5,-404 1073.5,-374 1194.5,-374 1194.5,-404"/>
<text text-anchor="start" x="1081.5" y="-392" font-family="Helvetica,sans-Serif" font-size="10.00">application/configuration</text>
<text text-anchor="middle" x="1134" y="-381" font-family="Helvetica,sans-Serif" font-size="10.00">_storage.hpp</text>
</a>
</g>
</g>
<!-- Node12&#45;&gt;Node13 -->
<g id="edge12" class="edge">
<title>Node12&#45;&gt;Node13</title>
<path fill="none" stroke="#63b8ff" d="M1321.61,-440.66C1285.77,-430.98 1236.97,-417.81 1198.13,-407.32"/>
<polygon fill="#63b8ff" stroke="#63b8ff" points="1199.48,-404.06 1188.91,-404.83 1197.66,-410.82 1199.48,-404.06"/>
</g>
<!-- Node14 -->
<g id="node14" class="node">
<title>Node14</title>
<g id="a_node14"><a xlink:title=" ">
<polygon fill="#e0e0e0" stroke="#999999" points="1208.5,-266.5 1083.5,-266.5 1083.5,-247.5 1208.5,-247.5 1208.5,-266.5"/>
<text text-anchor="middle" x="1146" y="-254.5" font-family="Helvetica,sans-Serif" font-size="10.00">libp2p/peer/peer_info.hpp</text>
</a>
</g>
</g>
<!-- Node13&#45;&gt;Node14 -->
<g id="edge13" class="edge">
<title>Node13&#45;&gt;Node14</title>
<path fill="none" stroke="#63b8ff" d="M1125.85,-373.75C1117.72,-357.68 1107.33,-330.81 1114,-308 1117.41,-296.36 1124.45,-284.85 1131.06,-275.82"/>
<polygon fill="#63b8ff" stroke="#63b8ff" points="1133.78,-278.02 1137.19,-267.98 1128.27,-273.7 1133.78,-278.02"/>
</g>
<!-- Node15 -->
<g id="node15" class="node">
<title>Node15</title>
<g id="a_node15"><a xlink:href="genesis__raw__config_8hpp.html" target="_top" xlink:title=" ">
<polygon fill="white" stroke="#666666" points="1027,-272 927,-272 927,-242 1027,-242 1027,-272"/>
<text text-anchor="start" x="935" y="-260" font-family="Helvetica,sans-Serif" font-size="10.00">application/genesis</text>
<text text-anchor="middle" x="977" y="-249" font-family="Helvetica,sans-Serif" font-size="10.00">_raw_config.hpp</text>
</a>
</g>
</g>
<!-- Node13&#45;&gt;Node15 -->
<g id="edge14" class="edge">
<title>Node13&#45;&gt;Node15</title>
<path fill="none" stroke="#63b8ff" d="M1089.72,-373.6C1069.34,-365.43 1045.79,-353.67 1028,-338 1010.5,-322.58 996.75,-299.74 987.96,-282.41"/>
<polygon fill="#63b8ff" stroke="#63b8ff" points="991.31,-281.29 983.8,-273.81 985.01,-284.33 991.31,-281.29"/>
</g>
<!-- Node24 -->
<g id="node21" class="node">
<title>Node24</title>
<g id="a_node21"><a xlink:href="ed25519__types_8hpp.html" target="_top" xlink:title=" ">
<polygon fill="white" stroke="#666666" points="1369.5,-332.5 1240.5,-332.5 1240.5,-313.5 1369.5,-313.5 1369.5,-332.5"/>
<text text-anchor="middle" x="1305" y="-320.5" font-family="Helvetica,sans-Serif" font-size="10.00">crypto/ed25519_types.hpp</text>
</a>
</g>
</g>
<!-- Node13&#45;&gt;Node24 -->
<g id="edge20" class="edge">
<title>Node13&#45;&gt;Node24</title>
<path fill="none" stroke="#63b8ff" d="M1172.38,-373.64C1201.76,-362.64 1241.94,-347.6 1270.35,-336.97"/>
<polygon fill="#63b8ff" stroke="#63b8ff" points="1271.43,-340.3 1279.57,-333.52 1268.98,-333.74 1271.43,-340.3"/>
</g>
<!-- Node31 -->
<g id="node28" class="node">
<title>Node31</title>
<g id="a_node28"><a xlink:href="sr25519__types_8hpp.html" target="_top" xlink:title=" ">
<polygon fill="white" stroke="#666666" points="1511.5,-266.5 1384.5,-266.5 1384.5,-247.5 1511.5,-247.5 1511.5,-266.5"/>
<text text-anchor="middle" x="1448" y="-254.5" font-family="Helvetica,sans-Serif" font-size="10.00">crypto/sr25519_types.hpp</text>
</a>
</g>
</g>
<!-- Node13&#45;&gt;Node31 -->
<g id="edge30" class="edge">
<title>Node13&#45;&gt;Node31</title>
<path fill="none" stroke="#63b8ff" d="M1194.99,-386.24C1246.82,-382.34 1321.57,-370.84 1378,-338 1403.73,-323.02 1424.83,-295.15 1436.92,-276.58"/>
<polygon fill="#63b8ff" stroke="#63b8ff" points="1439.84,-278.52 1442.16,-268.18 1433.9,-274.81 1439.84,-278.52"/>
</g>
<!-- Node35 -->
<g id="node32" class="node">
<title>Node35</title>
<g id="a_node32"><a xlink:href="peer__list_8hpp.html" target="_top" xlink:title=" ">
<polygon fill="white" stroke="#666666" points="1222.5,-338 1123.5,-338 1123.5,-308 1222.5,-308 1222.5,-338"/>
<text text-anchor="start" x="1131.5" y="-326" font-family="Helvetica,sans-Serif" font-size="10.00">network/types/peer</text>
<text text-anchor="middle" x="1173" y="-315" font-family="Helvetica,sans-Serif" font-size="10.00">_list.hpp</text>
</a>
</g>
</g>
<!-- Node13&#45;&gt;Node35 -->
<g id="edge38" class="edge">
<title>Node13&#45;&gt;Node35</title>
<path fill="none" stroke="#63b8ff" d="M1142.66,-373.8C1147.3,-366.17 1153.15,-356.57 1158.47,-347.84"/>
<polygon fill="#63b8ff" stroke="#63b8ff" points="1161.37,-349.82 1163.58,-339.46 1155.39,-346.17 1161.37,-349.82"/>
</g>
<!-- Node36 -->
<g id="node33" class="node">
<title>Node36</title>
<g id="a_node33"><a xlink:href="block_8hpp.html" target="_top" xlink:title=" ">
<polygon fill="white" stroke="#666666" points="891.5,-332.5 788.5,-332.5 788.5,-313.5 891.5,-313.5 891.5,-332.5"/>
<text text-anchor="middle" x="840" y="-320.5" font-family="Helvetica,sans-Serif" font-size="10.00">primitives/block.hpp</text>
</a>
</g>
</g>
<!-- Node13&#45;&gt;Node36 -->
<g id="edge40" class="edge">
<title>Node13&#45;&gt;Node36</title>
<path fill="none" stroke="#63b8ff" d="M1073.08,-374.74C1019.61,-363.1 942.66,-346.35 892.02,-335.32"/>
<polygon fill="#63b8ff" stroke="#63b8ff" points="892.99,-331.95 882.48,-333.25 891.51,-338.79 892.99,-331.95"/>
</g>
<!-- Node50 -->
<g id="node37" class="node">
<title>Node50</title>
<g id="a_node37"><a xlink:title=" ">
<polygon fill="#e0e0e0" stroke="#999999" points="1067,-332.5 1037,-332.5 1037,-313.5 1067,-313.5 1067,-332.5"/>
<text text-anchor="middle" x="1052" y="-320.5" font-family="Helvetica,sans-Serif" font-size="10.00">set</text>
</a>
</g>
</g>
<!-- Node13&#45;&gt;Node50 -->
<g id="edge48" class="edge">
<title>Node13&#45;&gt;Node50</title>
<path fill="none" stroke="#63b8ff" d="M1115.8,-373.8C1102.89,-363.72 1085.56,-350.19 1072.22,-339.78"/>
<polygon fill="#63b8ff" stroke="#63b8ff" points="1074.56,-337.17 1064.52,-333.78 1070.25,-342.69 1074.56,-337.17"/>
</g>
<!-- Node16 -->
<g id="node16" class="node">
<title>Node16</title>
<g id="a_node16"><a xlink:href="buffer_8hpp.html" target="_top" xlink:title=" ">
<polygon fill="#fff0f0" stroke="red" points="972.5,-134.5 889.5,-134.5 889.5,-115.5 972.5,-115.5 972.5,-134.5"/>
<text text-anchor="middle" x="931" y="-122.5" font-family="Helvetica,sans-Serif" font-size="10.00">base/buffer.hpp</text>
</a>
</g>
</g>
<!-- Node15&#45;&gt;Node16 -->
<g id="edge15" class="edge">
<title>Node15&#45;&gt;Node16</title>
<path fill="none" stroke="#63b8ff" d="M971.9,-241.59C963.62,-218.19 947.24,-171.9 937.92,-145.56"/>
<polygon fill="#63b8ff" stroke="#63b8ff" points="941.22,-144.39 934.59,-136.13 934.62,-146.73 941.22,-144.39"/>
</g>
<!-- Node18 -->
<g id="node17" class="node">
<title>Node18</title>
<g id="a_node17"><a xlink:title=" ">
<polygon fill="#e0e0e0" stroke="#999999" points="827,-74 783,-74 783,-55 827,-55 827,-74"/>
<text text-anchor="middle" x="805" y="-62" font-family="Helvetica,sans-Serif" font-size="10.00">vector</text>
</a>
</g>
</g>
<!-- Node16&#45;&gt;Node18 -->
<g id="edge16" class="edge">
<title>Node16&#45;&gt;Node18</title>
<path fill="none" stroke="#63b8ff" d="M911.86,-115.12C891.33,-105.58 858.44,-90.31 834.57,-79.23"/>
<polygon fill="#63b8ff" stroke="#63b8ff" points="836.23,-76.14 825.69,-75.11 833.29,-82.49 836.23,-76.14"/>
</g>
<!-- Node21 -->
<g id="node18" class="node">
<title>Node21</title>
<g id="a_node18"><a xlink:title=" ">
<polygon fill="#e0e0e0" stroke="#999999" points="1204.5,-74 1151.5,-74 1151.5,-55 1204.5,-55 1204.5,-74"/>
<text text-anchor="middle" x="1178" y="-62" font-family="Helvetica,sans-Serif" font-size="10.00">gsl/span</text>
</a>
</g>
</g>
<!-- Node16&#45;&gt;Node21 -->
<g id="edge17" class="edge">
<title>Node16&#45;&gt;Node21</title>
<path fill="none" stroke="#63b8ff" d="M962.77,-115.04C969.13,-113.32 975.77,-111.56 982,-110 1036.72,-96.29 1100.49,-82.15 1140.06,-73.59"/>
<polygon fill="#63b8ff" stroke="#63b8ff" points="1140.76,-77.02 1149.8,-71.49 1139.29,-70.17 1140.76,-77.02"/>
</g>
<!-- Node22 -->
<g id="node19" class="node">
<title>Node22</title>
<g id="a_node19"><a xlink:href="outcome_8hpp.html" target="_top" xlink:title=" ">
<polygon fill="white" stroke="#666666" points="1615.5,-74 1502.5,-74 1502.5,-55 1615.5,-55 1615.5,-74"/>
<text text-anchor="middle" x="1559" y="-62" font-family="Helvetica,sans-Serif" font-size="10.00">outcome/outcome.hpp</text>
</a>
</g>
</g>
<!-- Node16&#45;&gt;Node22 -->
<g id="edge18" class="edge">
<title>Node16&#45;&gt;Node22</title>
<path fill="none" stroke="#63b8ff" d="M959.91,-115.03C967.07,-113.1 974.76,-111.26 982,-110 1163.93,-78.31 1382.06,-69.19 1490.62,-66.56"/>
<polygon fill="#63b8ff" stroke="#63b8ff" points="1490.61,-70.06 1500.53,-66.33 1490.45,-63.06 1490.61,-70.06"/>
</g>
<!-- Node23 -->
<g id="node20" class="node">
<title>Node23</title>
<g id="a_node20"><a xlink:title=" ">
<polygon fill="#e0e0e0" stroke="#999999" points="1629.5,-19 1488.5,-19 1488.5,0 1629.5,0 1629.5,-19"/>
<text text-anchor="middle" x="1559" y="-7" font-family="Helvetica,sans-Serif" font-size="10.00">libp2p/outcome/outcome.hpp</text>
</a>
</g>
</g>
<!-- Node22&#45;&gt;Node23 -->
<g id="edge19" class="edge">
<title>Node22&#45;&gt;Node23</title>
<path fill="none" stroke="#63b8ff" d="M1559,-54.75C1559,-48.27 1559,-39.16 1559,-30.9"/>
<polygon fill="#63b8ff" stroke="#63b8ff" points="1562.5,-30.96 1559,-20.96 1555.5,-30.96 1562.5,-30.96"/>
</g>
<!-- Node25 -->
<g id="node22" class="node">
<title>Node25</title>
<g id="a_node22"><a xlink:title=" ">
<polygon fill="#e0e0e0" stroke="#999999" points="1366.5,-266.5 1265.5,-266.5 1265.5,-247.5 1366.5,-247.5 1366.5,-266.5"/>
<text text-anchor="middle" x="1316" y="-254.5" font-family="Helvetica,sans-Serif" font-size="10.00">ed25519/ed25519.h</text>
</a>
</g>
</g>
<!-- Node24&#45;&gt;Node25 -->
<g id="edge21" class="edge">
<title>Node24&#45;&gt;Node25</title>
<path fill="none" stroke="#63b8ff" d="M1306.53,-313.1C1308.09,-304.03 1310.56,-289.64 1312.59,-277.85"/>
<polygon fill="#63b8ff" stroke="#63b8ff" points="1315.98,-278.76 1314.23,-268.32 1309.08,-277.58 1315.98,-278.76"/>
</g>
<!-- Node26 -->
<g id="node23" class="node">
<title>Node26</title>
<g id="a_node23"><a xlink:href="blob_8hpp.html" target="_top" xlink:title=" ">
<polygon fill="white" stroke="#666666" points="1141.5,-200.5 1064.5,-200.5 1064.5,-181.5 1141.5,-181.5 1141.5,-200.5"/>
<text text-anchor="middle" x="1103" y="-188.5" font-family="Helvetica,sans-Serif" font-size="10.00">base/blob.hpp</text>
</a>
</g>
</g>
<!-- Node24&#45;&gt;Node26 -->
<g id="edge22" class="edge">
<title>Node24&#45;&gt;Node26</title>
<path fill="none" stroke="#63b8ff" d="M1297.03,-313.05C1282.44,-297.08 1249.91,-263.35 1217,-242 1193.01,-226.43 1163.35,-213.6 1140.31,-204.83"/>
<polygon fill="#63b8ff" stroke="#63b8ff" points="1141.59,-201.57 1130.99,-201.39 1139.16,-208.14 1141.59,-201.57"/>
</g>
<!-- Node27 -->
<g id="node24" class="node">
<title>Node27</title>
<g id="a_node24"><a xlink:title=" ">
<polygon fill="#e0e0e0" stroke="#999999" points="871,-134.5 833,-134.5 833,-115.5 871,-115.5 871,-134.5"/>
<text text-anchor="middle" x="852" y="-122.5" font-family="Helvetica,sans-Serif" font-size="10.00">array</text>
</a>
</g>
</g>
<!-- Node26&#45;&gt;Node27 -->
<g id="edge23" class="edge">
<title>Node26&#45;&gt;Node27</title>
<path fill="none" stroke="#63b8ff" d="M1064.32,-184.26C1019.21,-176.91 942.79,-162.36 880,-140 879.51,-139.83 879.02,-139.65 878.53,-139.46"/>
<polygon fill="#63b8ff" stroke="#63b8ff" points="880.24,-136.39 869.68,-135.58 877.43,-142.8 880.24,-136.39"/>
</g>
<!-- Node28 -->
<g id="node25" class="node">
<title>Node28</title>
<g id="a_node25"><a xlink:title=" ">
<polygon fill="#e0e0e0" stroke="#999999" points="1223,-134.5 1095,-134.5 1095,-115.5 1223,-115.5 1223,-134.5"/>
<text text-anchor="middle" x="1159" y="-122.5" font-family="Helvetica,sans-Serif" font-size="10.00">boost/functional/hash.hpp</text>
</a>
</g>
</g>
<!-- Node26&#45;&gt;Node28 -->
<g id="edge24" class="edge">
<title>Node26&#45;&gt;Node28</title>
<path fill="none" stroke="#63b8ff" d="M1110.79,-181.1C1119.31,-171.36 1133.19,-155.5 1143.87,-143.29"/>
<polygon fill="#63b8ff" stroke="#63b8ff" points="1146.33,-145.79 1150.28,-135.96 1141.06,-141.18 1146.33,-145.79"/>
</g>
<!-- Node29 -->
<g id="node26" class="node">
<title>Node29</title>
<g id="a_node26"><a xlink:href="hexutil_8hpp.html" target="_top" xlink:title=" ">
<polygon fill="#fff0f0" stroke="red" points="1077,-134.5 991,-134.5 991,-115.5 1077,-115.5 1077,-134.5"/>
<text text-anchor="middle" x="1034" y="-122.5" font-family="Helvetica,sans-Serif" font-size="10.00">base/hexutil.hpp</text>
</a>
</g>
</g>
<!-- Node26&#45;&gt;Node29 -->
<g id="edge25" class="edge">
<title>Node26&#45;&gt;Node29</title>
<path fill="none" stroke="#63b8ff" d="M1093.41,-181.1C1082.69,-171.17 1065.13,-154.87 1051.87,-142.57"/>
<polygon fill="#63b8ff" stroke="#63b8ff" points="1054.33,-140.09 1044.62,-135.85 1049.57,-145.22 1054.33,-140.09"/>
</g>
<!-- Node30 -->
<g id="node27" class="node">
<title>Node30</title>
<g id="a_node27"><a xlink:title=" ">
<polygon fill="#e0e0e0" stroke="#999999" points="1295,-134.5 1241,-134.5 1241,-115.5 1295,-115.5 1295,-134.5"/>
<text text-anchor="middle" x="1268" y="-122.5" font-family="Helvetica,sans-Serif" font-size="10.00">iostream</text>
</a>
</g>
</g>
<!-- Node26&#45;&gt;Node30 -->
<g id="edge29" class="edge">
<title>Node26&#45;&gt;Node30</title>
<path fill="none" stroke="#63b8ff" d="M1125.84,-181.16C1151.62,-171.17 1194.83,-154.43 1232,-140 1232.8,-139.69 1233.6,-139.38 1234.42,-139.06"/>
<polygon fill="#63b8ff" stroke="#63b8ff" points="1235.68,-142.32 1243.74,-135.44 1233.15,-135.8 1235.68,-142.32"/>
</g>
<!-- Node29&#45;&gt;Node18 -->
<g id="edge26" class="edge">
<title>Node29&#45;&gt;Node18</title>
<path fill="none" stroke="#63b8ff" d="M1000.37,-115.06C993.94,-113.37 987.27,-111.62 981,-110 931.38,-97.17 873.78,-82.69 838.36,-73.82"/>
<polygon fill="#63b8ff" stroke="#63b8ff" points="839.26,-70.44 828.71,-71.41 837.57,-77.23 839.26,-70.44"/>
</g>
<!-- Node29&#45;&gt;Node21 -->
<g id="edge27" class="edge">
<title>Node29&#45;&gt;Node21</title>
<path fill="none" stroke="#63b8ff" d="M1055.87,-115.12C1079.66,-105.45 1117.94,-89.9 1145.3,-78.78"/>
<polygon fill="#63b8ff" stroke="#63b8ff" points="1146.57,-82.04 1154.52,-75.04 1143.94,-75.56 1146.57,-82.04"/>
</g>
<!-- Node29&#45;&gt;Node22 -->
<g id="edge28" class="edge">
<title>Node29&#45;&gt;Node22</title>
<path fill="none" stroke="#63b8ff" d="M1063.78,-115.06C1071,-113.15 1078.73,-111.31 1086,-110 1228.65,-84.28 1398.34,-72.9 1490.73,-68.29"/>
<polygon fill="#63b8ff" stroke="#63b8ff" points="1490.82,-71.79 1500.64,-67.81 1490.48,-64.8 1490.82,-71.79"/>
</g>
<!-- Node31&#45;&gt;Node21 -->
<g id="edge33" class="edge">
<title>Node31&#45;&gt;Node21</title>
<path fill="none" stroke="#63b8ff" d="M1452.93,-247.14C1466.06,-222.17 1498.67,-150.48 1464,-110 1432.56,-73.29 1286.87,-66.62 1216.4,-65.58"/>
<polygon fill="#63b8ff" stroke="#63b8ff" points="1216.51,-62.08 1206.47,-65.46 1216.43,-69.08 1216.51,-62.08"/>
</g>
<!-- Node31&#45;&gt;Node26 -->
<g id="edge34" class="edge">
<title>Node31&#45;&gt;Node26</title>
<path fill="none" stroke="#63b8ff" d="M1401.67,-247.06C1392.82,-245.37 1383.62,-243.62 1375,-242 1297.46,-227.44 1207.41,-210.97 1152.84,-201.04"/>
<polygon fill="#63b8ff" stroke="#63b8ff" points="1153.71,-197.64 1143.24,-199.3 1152.46,-204.53 1153.71,-197.64"/>
</g>
<!-- Node32 -->
<g id="node29" class="node">
<title>Node32</title>
<g id="a_node29"><a xlink:title=" ">
<polygon fill="#e0e0e0" stroke="#999999" points="1427.5,-200.5 1368.5,-200.5 1368.5,-181.5 1427.5,-181.5 1427.5,-200.5"/>
<text text-anchor="middle" x="1398" y="-188.5" font-family="Helvetica,sans-Serif" font-size="10.00">sr25519.h</text>
</a>
</g>
</g>
<!-- Node31&#45;&gt;Node32 -->
<g id="edge31" class="edge">
<title>Node31&#45;&gt;Node32</title>
<path fill="none" stroke="#63b8ff" d="M1441.05,-247.1C1433.51,-237.45 1421.29,-221.81 1411.79,-209.65"/>
<polygon fill="#63b8ff" stroke="#63b8ff" points="1414.74,-207.74 1405.83,-202.02 1409.22,-212.05 1414.74,-207.74"/>
</g>
<!-- Node33 -->
<g id="node30" class="node">
<title>Node33</title>
<g id="a_node30"><a xlink:title=" ">
<polygon fill="#e0e0e0" stroke="#999999" points="1455,-140 1351,-140 1351,-110 1455,-110 1455,-140"/>
<text text-anchor="start" x="1359" y="-128" font-family="Helvetica,sans-Serif" font-size="10.00">boost/multiprecision</text>
<text text-anchor="middle" x="1403" y="-117" font-family="Helvetica,sans-Serif" font-size="10.00">/cpp_int.hpp</text>
</a>
</g>
</g>
<!-- Node31&#45;&gt;Node33 -->
<g id="edge32" class="edge">
<title>Node31&#45;&gt;Node33</title>
<path fill="none" stroke="#63b8ff" d="M1447.91,-247.28C1447.49,-232.24 1445.45,-200.65 1436,-176 1432.49,-166.85 1427.1,-157.66 1421.68,-149.7"/>
<polygon fill="#63b8ff" stroke="#63b8ff" points="1424.52,-147.66 1415.83,-141.6 1418.84,-151.76 1424.52,-147.66"/>
</g>
<!-- Node34 -->
<g id="node31" class="node">
<title>Node34</title>
<g id="a_node31"><a xlink:href="mp__utils_8hpp.html" target="_top" xlink:title=" ">
<polygon fill="white" stroke="#666666" points="1311.5,-200.5 1216.5,-200.5 1216.5,-181.5 1311.5,-181.5 1311.5,-200.5"/>
<text text-anchor="middle" x="1264" y="-188.5" font-family="Helvetica,sans-Serif" font-size="10.00">base/mp_utils.hpp</text>
</a>
</g>
</g>
<!-- Node31&#45;&gt;Node34 -->
<g id="edge35" class="edge">
<title>Node31&#45;&gt;Node34</title>
<path fill="none" stroke="#63b8ff" d="M1422.42,-247.1C1390.65,-236.05 1336.25,-217.13 1300.21,-204.6"/>
<polygon fill="#63b8ff" stroke="#63b8ff" points="1301.69,-201.4 1291.09,-201.42 1299.39,-208.01 1301.69,-201.4"/>
</g>
<!-- Node34&#45;&gt;Node21 -->
<g id="edge37" class="edge">
<title>Node34&#45;&gt;Node21</title>
<path fill="none" stroke="#63b8ff" d="M1274.54,-181.11C1291.38,-165.81 1320.86,-133.83 1304,-110 1284.25,-82.08 1245.46,-71.56 1216.11,-67.66"/>
<polygon fill="#63b8ff" stroke="#63b8ff" points="1216.81,-64.21 1206.49,-66.59 1216.05,-71.17 1216.81,-64.21"/>
</g>
<!-- Node34&#45;&gt;Node33 -->
<g id="edge36" class="edge">
<title>Node34&#45;&gt;Node33</title>
<path fill="none" stroke="#63b8ff" d="M1283.33,-181.1C1303.39,-171.86 1335.4,-157.13 1361.26,-145.22"/>
<polygon fill="#63b8ff" stroke="#63b8ff" points="1362.56,-148.47 1370.18,-141.11 1359.63,-142.11 1362.56,-148.47"/>
</g>
<!-- Node35&#45;&gt;Node14 -->
<g id="edge39" class="edge">
<title>Node35&#45;&gt;Node14</title>
<path fill="none" stroke="#63b8ff" d="M1167.01,-307.8C1163.21,-298.8 1158.25,-287.04 1154.11,-277.22"/>
<polygon fill="#63b8ff" stroke="#63b8ff" points="1157.43,-276.09 1150.32,-268.24 1150.98,-278.81 1157.43,-276.09"/>
</g>
<!-- Node37 -->
<g id="node34" class="node">
<title>Node37</title>
<g id="a_node34"><a xlink:href="block__header_8hpp.html" target="_top" xlink:title=" ">
<polygon fill="#fff0f0" stroke="red" points="908.5,-266.5 771.5,-266.5 771.5,-247.5 908.5,-247.5 908.5,-266.5"/>
<text text-anchor="middle" x="840" y="-254.5" font-family="Helvetica,sans-Serif" font-size="10.00">primitives/block_header.hpp</text>
</a>
</g>
</g>
<!-- Node36&#45;&gt;Node37 -->
<g id="edge41" class="edge">
<title>Node36&#45;&gt;Node37</title>
<path fill="none" stroke="#63b8ff" d="M840,-313.1C840,-304.12 840,-289.95 840,-278.22"/>
<polygon fill="#63b8ff" stroke="#63b8ff" points="843.5,-278.34 840,-268.34 836.5,-278.34 843.5,-278.34"/>
</g>
<!-- Node49 -->
<g id="node36" class="node">
<title>Node49</title>
<g id="a_node36"><a xlink:href="extrinsic_8hpp.html" target="_top" xlink:title=" ">
<polygon fill="white" stroke="#666666" points="753,-266.5 637,-266.5 637,-247.5 753,-247.5 753,-266.5"/>
<text text-anchor="middle" x="695" y="-254.5" font-family="Helvetica,sans-Serif" font-size="10.00">primitives/extrinsic.hpp</text>
</a>
</g>
</g>
<!-- Node36&#45;&gt;Node49 -->
<g id="edge46" class="edge">
<title>Node36&#45;&gt;Node49</title>
<path fill="none" stroke="#63b8ff" d="M819.84,-313.1C795.27,-302.26 753.54,-283.84 725.15,-271.31"/>
<polygon fill="#63b8ff" stroke="#63b8ff" points="726.94,-268.27 716.38,-267.43 724.11,-274.67 726.94,-268.27"/>
</g>
<!-- Node37&#45;&gt;Node18 -->
<g id="edge43" class="edge">
<title>Node37&#45;&gt;Node18</title>
<path fill="none" stroke="#63b8ff" d="M838.36,-247.07C833.03,-218.06 816.13,-126.06 808.63,-85.28"/>
<polygon fill="#63b8ff" stroke="#63b8ff" points="812.12,-84.89 806.87,-75.68 805.24,-86.15 812.12,-84.89"/>
</g>
<!-- Node37&#45;&gt;Node26 -->
<g id="edge45" class="edge">
<title>Node37&#45;&gt;Node26</title>
<path fill="none" stroke="#63b8ff" d="M876.85,-247.03C923.5,-235.68 1003.98,-216.1 1055.29,-203.61"/>
<polygon fill="#63b8ff" stroke="#63b8ff" points="1056.04,-207.03 1064.93,-201.26 1054.39,-200.23 1056.04,-207.03"/>
</g>
<!-- Node37&#45;&gt;Node33 -->
<g id="edge44" class="edge">
<title>Node37&#45;&gt;Node33</title>
<path fill="none" stroke="#63b8ff" d="M886.09,-247.03C896.55,-245.19 907.64,-243.39 918,-242 1006.89,-230.07 1238.41,-243.24 1320,-206 1334.5,-199.38 1363.08,-170.04 1382.61,-148.81"/>
<polygon fill="#63b8ff" stroke="#63b8ff" points="1385.2,-151.16 1389.34,-141.41 1380.02,-146.45 1385.2,-151.16"/>
</g>
<!-- Node38 -->
<g id="node35" class="node">
<title>Node38</title>
<g id="a_node35"><a xlink:title=" ">
<polygon fill="#e0e0e0" stroke="#999999" points="777,-200.5 715,-200.5 715,-181.5 777,-181.5 777,-200.5"/>
<text text-anchor="middle" x="746" y="-188.5" font-family="Helvetica,sans-Serif" font-size="10.00">type_traits</text>
</a>
</g>
</g>
<!-- Node37&#45;&gt;Node38 -->
<g id="edge42" class="edge">
<title>Node37&#45;&gt;Node38</title>
<path fill="none" stroke="#63b8ff" d="M826.93,-247.1C811.78,-236.78 786.55,-219.61 768.28,-207.17"/>
<polygon fill="#63b8ff" stroke="#63b8ff" points="770.45,-204.41 760.21,-201.68 766.51,-210.2 770.45,-204.41"/>
</g>
<!-- Node49&#45;&gt;Node16 -->
<g id="edge47" class="edge">
<title>Node49&#45;&gt;Node16</title>
<path fill="none" stroke="#63b8ff" d="M711.11,-247.16C729.31,-237.17 759.79,-220.43 786,-206 827.72,-183.03 876.16,-156.29 905.16,-140.28"/>
<polygon fill="#63b8ff" stroke="#63b8ff" points="906.53,-143.52 913.59,-135.62 903.14,-137.39 906.53,-143.52"/>
</g>
<!-- Node51&#45;&gt;Node8 -->
<g id="edge50" class="edge">
<title>Node51&#45;&gt;Node8</title>
<path fill="none" stroke="#63b8ff" d="M593.75,-511.02C577.46,-501.69 551.99,-486.21 532,-470 480.56,-428.31 427.86,-370.14 402.88,-341.44"/>
<polygon fill="#63b8ff" stroke="#63b8ff" points="405.69,-339.33 396.5,-334.04 400.39,-343.9 405.69,-339.33"/>
</g>
<!-- Node51&#45;&gt;Node38 -->
<g id="edge53" class="edge">
<title>Node51&#45;&gt;Node38</title>
<path fill="none" stroke="#63b8ff" d="M611,-511.16C612.1,-501.17 613.87,-484.44 615,-470 616.99,-444.7 613.39,-262.75 628,-242 633.11,-234.75 677.64,-217.13 710.5,-204.87"/>
<polygon fill="#63b8ff" stroke="#63b8ff" points="711.54,-208.22 719.7,-201.47 709.11,-201.65 711.54,-208.22"/>
</g>
<!-- Node52 -->
<g id="node39" class="node">
<title>Node52</title>
<g id="a_node39"><a xlink:title=" ">
<polygon fill="#e0e0e0" stroke="#999999" points="1550,-464.5 1438,-464.5 1438,-445.5 1550,-445.5 1550,-464.5"/>
<text text-anchor="middle" x="1494" y="-452.5" font-family="Helvetica,sans-Serif" font-size="10.00">jsonrpc&#45;lean/request.h</text>
</a>
</g>
</g>
<!-- Node51&#45;&gt;Node52 -->
<g id="edge51" class="edge">
<title>Node51&#45;&gt;Node52</title>
<path fill="none" stroke="#63b8ff" d="M671.44,-519.41C808.19,-517.42 1147.81,-508.64 1429,-470 1434.58,-469.23 1440.38,-468.25 1446.14,-467.16"/>
<polygon fill="#63b8ff" stroke="#63b8ff" points="1446.45,-470.67 1455.56,-465.27 1445.07,-463.81 1446.45,-470.67"/>
</g>
<!-- Node53 -->
<g id="node40" class="node">
<title>Node53</title>
<g id="a_node40"><a xlink:title=" ">
<polygon fill="#e0e0e0" stroke="#999999" points="606.5,-464.5 555.5,-464.5 555.5,-445.5 606.5,-445.5 606.5,-464.5"/>
<text text-anchor="middle" x="581" y="-452.5" font-family="Helvetica,sans-Serif" font-size="10.00">memory</text>
</a>
</g>
</g>
<!-- Node51&#45;&gt;Node53 -->
<g id="edge52" class="edge">
<title>Node51&#45;&gt;Node53</title>
<path fill="none" stroke="#63b8ff" d="M605.97,-511.1C601.77,-501.84 595.06,-487.04 589.66,-475.11"/>
<polygon fill="#63b8ff" stroke="#63b8ff" points="592.94,-473.87 585.62,-466.2 586.56,-476.76 592.94,-473.87"/>
</g>
<!-- Node54 -->
<g id="node41" class="node">
<title>Node54</title>
<g id="a_node41"><a xlink:href="value__converter_8hpp.html" target="_top" xlink:title=" ">
<polygon fill="white" stroke="#666666" points="607,-332.5 469,-332.5 469,-313.5 607,-313.5 607,-332.5"/>
<text text-anchor="middle" x="538" y="-320.5" font-family="Helvetica,sans-Serif" font-size="10.00">api/jrpc/value_converter.hpp</text>
</a>
</g>
</g>
<!-- Node51&#45;&gt;Node54 -->
<g id="edge54" class="edge">
<title>Node51&#45;&gt;Node54</title>
<path fill="none" stroke="#63b8ff" d="M591.2,-511.03C576.08,-502.69 555.79,-488.75 546,-470 524.82,-429.42 529.5,-373.57 534.13,-344.1"/>
<polygon fill="#63b8ff" stroke="#63b8ff" points="537.56,-344.82 535.83,-334.37 530.66,-343.62 537.56,-344.82"/>
</g>
<!-- Node54&#45;&gt;Node10 -->
<g id="edge56" class="edge">
<title>Node54&#45;&gt;Node10</title>
<path fill="none" stroke="#63b8ff" d="M489.67,-313.03C427.52,-301.51 319.64,-281.49 252.51,-269.04"/>
<polygon fill="#63b8ff" stroke="#63b8ff" points="253.24,-265.62 242.77,-267.23 251.97,-272.5 253.24,-265.62"/>
</g>
<!-- Node54&#45;&gt;Node18 -->
<g id="edge55" class="edge">
<title>Node54&#45;&gt;Node18</title>
<path fill="none" stroke="#63b8ff" d="M516.93,-313.01C472.65,-292.67 376.11,-239.89 402,-176 417.35,-138.13 429.49,-128.35 466,-110 519.13,-83.3 696.73,-71.14 771.43,-67.11"/>
<polygon fill="#63b8ff" stroke="#63b8ff" points="771.6,-70.61 781.4,-66.59 771.24,-63.62 771.6,-70.61"/>
</g>
<!-- Node54&#45;&gt;Node26 -->
<g id="edge57" class="edge">
<title>Node54&#45;&gt;Node26</title>
<path fill="none" stroke="#63b8ff" d="M607.4,-317.94C735.4,-310.02 998.99,-291.59 1036,-272 1061.97,-258.26 1081.92,-229.82 1093.06,-210.82"/>
<polygon fill="#63b8ff" stroke="#63b8ff" points="1096.04,-212.67 1097.84,-202.23 1089.92,-209.27 1096.04,-212.67"/>
</g>
<!-- Node54&#45;&gt;Node49 -->
<g id="edge62" class="edge">
<title>Node54&#45;&gt;Node49</title>
<path fill="none" stroke="#63b8ff" d="M559.83,-313.1C586.47,-302.24 631.75,-283.78 662.5,-271.25"/>
<polygon fill="#63b8ff" stroke="#63b8ff" points="663.76,-274.51 671.7,-267.5 661.12,-268.03 663.76,-274.51"/>
</g>
<!-- Node55 -->
<g id="node42" class="node">
<title>Node55</title>
<g id="a_node42"><a xlink:href="visitor_8hpp.html" target="_top" xlink:title=" ">
<polygon fill="white" stroke="#666666" points="580.5,-266.5 495.5,-266.5 495.5,-247.5 580.5,-247.5 580.5,-266.5"/>
<text text-anchor="middle" x="538" y="-254.5" font-family="Helvetica,sans-Serif" font-size="10.00">base/visitor.hpp</text>
</a>
</g>
</g>
<!-- Node54&#45;&gt;Node55 -->
<g id="edge58" class="edge">
<title>Node54&#45;&gt;Node55</title>
<path fill="none" stroke="#63b8ff" d="M538,-313.1C538,-304.12 538,-289.95 538,-278.22"/>
<polygon fill="#63b8ff" stroke="#63b8ff" points="541.5,-278.34 538,-268.34 534.5,-278.34 541.5,-278.34"/>
</g>
<!-- Node58 -->
<g id="node45" class="node">
<title>Node58</title>
<g id="a_node45"><a xlink:href="primitives_2version_8hpp.html" target="_top" xlink:title=" ">
<polygon fill="white" stroke="#666666" points="522.5,-200.5 411.5,-200.5 411.5,-181.5 522.5,-181.5 522.5,-200.5"/>
<text text-anchor="middle" x="467" y="-188.5" font-family="Helvetica,sans-Serif" font-size="10.00">primitives/version.hpp</text>
</a>
</g>
</g>
<!-- Node54&#45;&gt;Node58 -->
<g id="edge63" class="edge">
<title>Node54&#45;&gt;Node58</title>
<path fill="none" stroke="#63b8ff" d="M525.29,-313.18C513.32,-304.2 495.82,-289.18 486,-272 475.28,-253.23 470.59,-228.68 468.55,-211.75"/>
<polygon fill="#63b8ff" stroke="#63b8ff" points="472.06,-211.63 467.6,-202.02 465.09,-212.31 472.06,-211.63"/>
</g>
<!-- Node55&#45;&gt;Node38 -->
<g id="edge59" class="edge">
<title>Node55&#45;&gt;Node38</title>
<path fill="none" stroke="#63b8ff" d="M569.2,-247.05C602.83,-237.3 657.88,-221.09 705,-206 706.57,-205.5 708.17,-204.98 709.78,-204.45"/>
<polygon fill="#63b8ff" stroke="#63b8ff" points="710.65,-207.85 719.03,-201.37 708.43,-201.21 710.65,-207.85"/>
</g>
<!-- Node56 -->
<g id="node43" class="node">
<title>Node56</title>
<g id="a_node43"><a xlink:title=" ">
<polygon fill="#e0e0e0" stroke="#999999" points="696.5,-200.5 657.5,-200.5 657.5,-181.5 696.5,-181.5 696.5,-200.5"/>
<text text-anchor="middle" x="677" y="-188.5" font-family="Helvetica,sans-Serif" font-size="10.00">utility</text>
</a>
</g>
</g>
<!-- Node55&#45;&gt;Node56 -->
<g id="edge60" class="edge">
<title>Node55&#45;&gt;Node56</title>
<path fill="none" stroke="#63b8ff" d="M557.94,-247.11C580.02,-237.21 616.66,-220.69 648,-206 648.11,-205.95 648.22,-205.9 648.32,-205.85"/>
<polygon fill="#63b8ff" stroke="#63b8ff" points="649.73,-209.06 657.25,-201.6 646.72,-202.74 649.73,-209.06"/>
</g>
<!-- Node57 -->
<g id="node44" class="node">
<title>Node57</title>
<g id="a_node44"><a xlink:title=" ">
<polygon fill="#e0e0e0" stroke="#999999" points="639,-206 541,-206 541,-176 639,-176 639,-206"/>
<text text-anchor="start" x="549" y="-194" font-family="Helvetica,sans-Serif" font-size="10.00">boost/variant/apply</text>
<text text-anchor="middle" x="590" y="-183" font-family="Helvetica,sans-Serif" font-size="10.00">_visitor.hpp</text>
</a>
</g>
</g>
<!-- Node55&#45;&gt;Node57 -->
<g id="edge61" class="edge">
<title>Node55&#45;&gt;Node57</title>
<path fill="none" stroke="#63b8ff" d="M545.23,-247.1C551.95,-238.84 562.24,-226.17 571.26,-215.06"/>
<polygon fill="#63b8ff" stroke="#63b8ff" points="573.89,-217.38 577.48,-207.41 568.46,-212.96 573.89,-217.38"/>
</g>
<!-- Node58&#45;&gt;Node18 -->
<g id="edge66" class="edge">
<title>Node58&#45;&gt;Node18</title>
<path fill="none" stroke="#63b8ff" d="M466.18,-181.22C465.17,-164.59 465.62,-128.54 486,-110 527.34,-72.4 698.58,-66.39 771.68,-65.56"/>
<polygon fill="#63b8ff" stroke="#63b8ff" points="771.46,-69.06 781.43,-65.47 771.4,-62.06 771.46,-69.06"/>
</g>
<!-- Node58&#45;&gt;Node27 -->
<g id="edge64" class="edge">
<title>Node58&#45;&gt;Node27</title>
<path fill="none" stroke="#63b8ff" d="M506.8,-181.05C515.11,-179.29 523.83,-177.52 532,-176 637.84,-156.35 764.35,-138.13 821.41,-130.19"/>
<polygon fill="#63b8ff" stroke="#63b8ff" points="821.89,-133.65 831.32,-128.81 820.93,-126.72 821.89,-133.65"/>
</g>
<!-- Node59 -->
<g id="node46" class="node">
<title>Node59</title>
<g id="a_node46"><a xlink:title=" ">
<polygon fill="#e0e0e0" stroke="#999999" points="536.5,-134.5 495.5,-134.5 495.5,-115.5 536.5,-115.5 536.5,-134.5"/>
<text text-anchor="middle" x="516" y="-122.5" font-family="Helvetica,sans-Serif" font-size="10.00">string</text>
</a>
</g>
</g>
<!-- Node58&#45;&gt;Node59 -->
<g id="edge65" class="edge">
<title>Node58&#45;&gt;Node59</title>
<path fill="none" stroke="#63b8ff" d="M473.81,-181.1C481.2,-171.45 493.18,-155.81 502.49,-143.65"/>
<polygon fill="#63b8ff" stroke="#63b8ff" points="505.02,-146.09 508.32,-136.03 499.47,-141.84 505.02,-146.09"/>
</g>
<!-- Node60&#45;&gt;Node12 -->
<g id="edge69" class="edge">
<title>Node60&#45;&gt;Node12</title>
<path fill="none" stroke="#63b8ff" d="M1284.91,-505.64C1300.05,-496.91 1319.6,-485.63 1336.25,-476.04"/>
<polygon fill="#63b8ff" stroke="#63b8ff" points="1337.95,-479.1 1344.86,-471.07 1334.45,-473.03 1337.95,-479.1"/>
</g>
<!-- Node60&#45;&gt;Node22 -->
<g id="edge70" class="edge">
<title>Node60&#45;&gt;Node22</title>
<path fill="none" stroke="#63b8ff" d="M1267.65,-505.78C1277.04,-489.03 1294.08,-460.85 1313,-440 1392.64,-352.27 1459.3,-373.76 1520,-272 1556.19,-211.33 1559.95,-124.29 1559.63,-85.49"/>
<polygon fill="#63b8ff" stroke="#63b8ff" points="1563.13,-85.53 1559.43,-75.61 1556.13,-85.67 1563.13,-85.53"/>
</g>
<!-- Node60&#45;&gt;Node52 -->
<g id="edge68" class="edge">
<title>Node60&#45;&gt;Node52</title>
<path fill="none" stroke="#63b8ff" d="M1310.77,-506.11C1352.46,-494.71 1410.87,-478.74 1450.45,-467.91"/>
<polygon fill="#63b8ff" stroke="#63b8ff" points="1451.15,-471.35 1459.87,-465.33 1449.3,-464.6 1451.15,-471.35"/>
</g>
<!-- Node61&#45;&gt;Node12 -->
<g id="edge73" class="edge">
<title>Node61&#45;&gt;Node12</title>
<path fill="none" stroke="#63b8ff" d="M1378,-505.8C1377,-498.67 1375.76,-489.82 1374.59,-481.56"/>
<polygon fill="#63b8ff" stroke="#63b8ff" points="1378.06,-481.08 1373.2,-471.66 1371.13,-482.05 1378.06,-481.08"/>
</g>
<!-- Node61&#45;&gt;Node22 -->
<g id="edge74" class="edge">
<title>Node61&#45;&gt;Node22</title>
<path fill="none" stroke="#63b8ff" d="M1431.43,-507C1482.68,-493.83 1554.43,-474.75 1559,-470 1584.33,-443.66 1578,-426.54 1578,-390 1578,-390 1578,-390 1578,-190 1578,-152.76 1569.59,-109.97 1563.96,-85.49"/>
<polygon fill="#63b8ff" stroke="#63b8ff" points="1567.41,-84.87 1561.68,-75.96 1560.6,-86.5 1567.41,-84.87"/>
</g>
<!-- Node61&#45;&gt;Node52 -->
<g id="edge72" class="edge">
<title>Node61&#45;&gt;Node52</title>
<path fill="none" stroke="#63b8ff" d="M1405.58,-505.64C1424.22,-495.18 1449.37,-481.06 1468.08,-470.55"/>
<polygon fill="#63b8ff" stroke="#63b8ff" points="1469.67,-473.67 1476.67,-465.73 1466.24,-467.57 1469.67,-473.67"/>
</g>
<!-- Node62&#45;&gt;Node12 -->
<g id="edge77" class="edge">
<title>Node62&#45;&gt;Node12</title>
<path fill="none" stroke="#63b8ff" d="M1478.81,-505.64C1459.22,-496.62 1433.74,-484.89 1412.46,-475.09"/>
<polygon fill="#63b8ff" stroke="#63b8ff" points="1414.01,-471.95 1403.47,-470.95 1411.08,-478.31 1414.01,-471.95"/>
</g>
<!-- Node62&#45;&gt;Node22 -->
<g id="edge78" class="edge">
<title>Node62&#45;&gt;Node22</title>
<path fill="none" stroke="#63b8ff" d="M1545.31,-505.65C1561.62,-497.42 1579.98,-485.58 1592,-470 1614.68,-440.61 1616,-427.12 1616,-390 1616,-390 1616,-390 1616,-190 1616,-152.88 1608.64,-143.18 1592,-110 1587.27,-100.57 1580.54,-91.05 1574.38,-83.25"/>
<polygon fill="#63b8ff" stroke="#63b8ff" points="1577.12,-81.07 1568.06,-75.59 1571.73,-85.53 1577.12,-81.07"/>
</g>
<!-- Node62&#45;&gt;Node52 -->
<g id="edge76" class="edge">
<title>Node62&#45;&gt;Node52</title>
<path fill="none" stroke="#63b8ff" d="M1506.45,-505.8C1504.25,-496.99 1501.39,-485.55 1498.97,-475.86"/>
<polygon fill="#63b8ff" stroke="#63b8ff" points="1502.4,-475.17 1496.58,-466.31 1495.61,-476.86 1502.4,-475.17"/>
</g>
<!-- Node63&#45;&gt;Node12 -->
<g id="edge81" class="edge">
<title>Node63&#45;&gt;Node12</title>
<path fill="none" stroke="#63b8ff" d="M1588.73,-507.28C1547.84,-497.84 1490.46,-484.53 1431.4,-470.56"/>
<polygon fill="#63b8ff" stroke="#63b8ff" points="1432.36,-467.19 1421.83,-468.29 1430.75,-474 1432.36,-467.19"/>
</g>
<!-- Node63&#45;&gt;Node22 -->
<g id="edge82" class="edge">
<title>Node63&#45;&gt;Node22</title>
<path fill="none" stroke="#63b8ff" d="M1645.83,-505.6C1648.72,-481.65 1654,-432.1 1654,-390 1654,-390 1654,-390 1654,-190 1654,-142.57 1609.89,-101.98 1581.79,-80.92"/>
<polygon fill="#63b8ff" stroke="#63b8ff" points="1584,-78.2 1573.84,-75.19 1579.91,-83.88 1584,-78.2"/>
</g>
<!-- Node63&#45;&gt;Node52 -->
<g id="edge80" class="edge">
<title>Node63&#45;&gt;Node52</title>
<path fill="none" stroke="#63b8ff" d="M1610.34,-505.64C1584.91,-494.79 1550.25,-480 1525.39,-469.39"/>
<polygon fill="#63b8ff" stroke="#63b8ff" points="1527.02,-466.29 1516.45,-465.58 1524.28,-472.72 1527.02,-466.29"/>
</g>
</g>
</svg>
