<?xml version="1.0" encoding="UTF-8" standalone="no"?>
<!DOCTYPE svg PUBLIC "-//W3C//DTD SVG 1.1//EN"
 "http://www.w3.org/Graphics/SVG/1.1/DTD/svg11.dtd">
<!-- Generated by graphviz version 7.0.5 (20221223.1930)
 -->
<!-- Title: src/verification/production/impl/threshold_util.hpp Pages: 1 -->
<svg width="740pt" height="456pt"
 viewBox="0.00 0.00 740.00 456.00" xmlns="http://www.w3.org/2000/svg" xmlns:xlink="http://www.w3.org/1999/xlink">
<g id="graph0" class="graph" transform="scale(1 1) rotate(0) translate(4 452)">
<title>src/verification/production/impl/threshold_util.hpp</title>
<!-- Node1 -->
<g id="node1" class="node">
<title>Node1</title>
<g id="a_node1"><a xlink:title=" ">
<polygon fill="#999999" stroke="#666666" points="271,-448 143,-448 143,-418 271,-418 271,-448"/>
<text text-anchor="start" x="151" y="-436" font-family="Helvetica,sans-Serif" font-size="10.00">src/verification/production</text>
<text text-anchor="middle" x="207" y="-425" font-family="Helvetica,sans-Serif" font-size="10.00">/impl/threshold_util.hpp</text>
</a>
</g>
</g>
<!-- Node2 -->
<g id="node2" class="node">
<title>Node2</title>
<g id="a_node2"><a xlink:href="src_2verification_2production_2common_8hpp.html" target="_top" xlink:title=" ">
<polygon fill="white" stroke="#666666" points="181.5,-327 70.5,-327 70.5,-297 181.5,-297 181.5,-327"/>
<text text-anchor="start" x="78.5" y="-315" font-family="Helvetica,sans-Serif" font-size="10.00">verification/production</text>
<text text-anchor="middle" x="126" y="-304" font-family="Helvetica,sans-Serif" font-size="10.00">/common.hpp</text>
</a>
</g>
</g>
<!-- Node1&#45;&gt;Node2 -->
<g id="edge1" class="edge">
<title>Node1&#45;&gt;Node2</title>
<path fill="none" stroke="#63b8ff" d="M197.39,-417.88C183.76,-397.86 158.65,-360.96 142.13,-336.7"/>
<polygon fill="#63b8ff" stroke="#63b8ff" points="145.22,-335.02 136.7,-328.72 139.44,-338.96 145.22,-335.02"/>
</g>
<!-- Node20 -->
<g id="node20" class="node">
<title>Node20</title>
<g id="a_node20"><a xlink:href="authority_8hpp.html" target="_top" xlink:title=" ">
<polygon fill="white" stroke="#666666" points="316,-382 200,-382 200,-363 316,-363 316,-382"/>
<text text-anchor="middle" x="258" y="-370" font-family="Helvetica,sans-Serif" font-size="10.00">primitives/authority.hpp</text>
</a>
</g>
</g>
<!-- Node1&#45;&gt;Node20 -->
<g id="edge22" class="edge">
<title>Node1&#45;&gt;Node20</title>
<path fill="none" stroke="#63b8ff" d="M219.61,-417.54C226.71,-409.39 235.63,-399.16 243.08,-390.61"/>
<polygon fill="#63b8ff" stroke="#63b8ff" points="245.51,-393.15 249.44,-383.32 240.23,-388.55 245.51,-393.15"/>
</g>
<!-- Node3 -->
<g id="node3" class="node">
<title>Node3</title>
<g id="a_node3"><a xlink:title=" ">
<polygon fill="#e0e0e0" stroke="#999999" points="308,-255.5 262,-255.5 262,-236.5 308,-236.5 308,-255.5"/>
<text text-anchor="middle" x="285" y="-243.5" font-family="Helvetica,sans-Serif" font-size="10.00">cstdint</text>
</a>
</g>
</g>
<!-- Node2&#45;&gt;Node3 -->
<g id="edge2" class="edge">
<title>Node2&#45;&gt;Node3</title>
<path fill="none" stroke="#63b8ff" d="M161.68,-296.64C188.76,-285.74 225.7,-270.87 252.08,-260.25"/>
<polygon fill="#63b8ff" stroke="#63b8ff" points="253.3,-263.53 261.27,-256.55 250.69,-257.04 253.3,-263.53"/>
</g>
<!-- Node4 -->
<g id="node4" class="node">
<title>Node4</title>
<g id="a_node4"><a xlink:href="clock_8hpp.html" target="_top" xlink:title=" ">
<polygon fill="white" stroke="#666666" points="84,-255.5 0,-255.5 0,-236.5 84,-236.5 84,-255.5"/>
<text text-anchor="middle" x="42" y="-243.5" font-family="Helvetica,sans-Serif" font-size="10.00">clock/clock.hpp</text>
</a>
</g>
</g>
<!-- Node2&#45;&gt;Node4 -->
<g id="edge3" class="edge">
<title>Node2&#45;&gt;Node4</title>
<path fill="none" stroke="#63b8ff" d="M107.36,-296.8C94.13,-286.72 76.38,-273.19 62.71,-262.78"/>
<polygon fill="#63b8ff" stroke="#63b8ff" points="64.89,-260.04 54.81,-256.76 60.65,-265.61 64.89,-260.04"/>
</g>
<!-- Node6 -->
<g id="node6" class="node">
<title>Node6</title>
<g id="a_node6"><a xlink:href="sr25519__types_8hpp.html" target="_top" xlink:title=" ">
<polygon fill="white" stroke="#666666" points="230.5,-255.5 103.5,-255.5 103.5,-236.5 230.5,-236.5 230.5,-255.5"/>
<text text-anchor="middle" x="167" y="-243.5" font-family="Helvetica,sans-Serif" font-size="10.00">crypto/sr25519_types.hpp</text>
</a>
</g>
</g>
<!-- Node2&#45;&gt;Node6 -->
<g id="edge5" class="edge">
<title>Node2&#45;&gt;Node6</title>
<path fill="none" stroke="#63b8ff" d="M135.1,-296.8C141.05,-287.5 148.89,-275.27 155.3,-265.26"/>
<polygon fill="#63b8ff" stroke="#63b8ff" points="158.07,-267.43 160.52,-257.12 152.18,-263.65 158.07,-267.43"/>
</g>
<!-- Node5 -->
<g id="node5" class="node">
<title>Node5</title>
<g id="a_node5"><a xlink:title=" ">
<polygon fill="#e0e0e0" stroke="#999999" points="50,-195 4,-195 4,-176 50,-176 50,-195"/>
<text text-anchor="middle" x="27" y="-183" font-family="Helvetica,sans-Serif" font-size="10.00">chrono</text>
</a>
</g>
</g>
<!-- Node4&#45;&gt;Node5 -->
<g id="edge4" class="edge">
<title>Node4&#45;&gt;Node5</title>
<path fill="none" stroke="#63b8ff" d="M39.79,-236.37C37.75,-228.42 34.65,-216.33 32.01,-206.05"/>
<polygon fill="#63b8ff" stroke="#63b8ff" points="35.47,-205.45 29.6,-196.63 28.69,-207.19 35.47,-205.45"/>
</g>
<!-- Node7 -->
<g id="node7" class="node">
<title>Node7</title>
<g id="a_node7"><a xlink:title=" ">
<polygon fill="#e0e0e0" stroke="#999999" points="278.5,-195 219.5,-195 219.5,-176 278.5,-176 278.5,-195"/>
<text text-anchor="middle" x="249" y="-183" font-family="Helvetica,sans-Serif" font-size="10.00">sr25519.h</text>
</a>
</g>
</g>
<!-- Node6&#45;&gt;Node7 -->
<g id="edge6" class="edge">
<title>Node6&#45;&gt;Node7</title>
<path fill="none" stroke="#63b8ff" d="M179.45,-236.12C192.1,-227.1 211.93,-212.95 227.19,-202.06"/>
<polygon fill="#63b8ff" stroke="#63b8ff" points="229.09,-205 235.2,-196.35 225.02,-199.31 229.09,-205"/>
</g>
<!-- Node8 -->
<g id="node8" class="node">
<title>Node8</title>
<g id="a_node8"><a xlink:title=" ">
<polygon fill="#e0e0e0" stroke="#999999" points="256,-140 152,-140 152,-110 256,-110 256,-140"/>
<text text-anchor="start" x="160" y="-128" font-family="Helvetica,sans-Serif" font-size="10.00">boost/multiprecision</text>
<text text-anchor="middle" x="204" y="-117" font-family="Helvetica,sans-Serif" font-size="10.00">/cpp_int.hpp</text>
</a>
</g>
</g>
<!-- Node6&#45;&gt;Node8 -->
<g id="edge7" class="edge">
<title>Node6&#45;&gt;Node8</title>
<path fill="none" stroke="#63b8ff" d="M223.15,-236.07C247.35,-229.13 273.41,-216.82 288,-195 301.51,-174.8 280.18,-157.47 255.64,-145.22"/>
<polygon fill="#63b8ff" stroke="#63b8ff" points="257.31,-142.14 246.77,-141.1 254.36,-148.49 257.31,-142.14"/>
</g>
<!-- Node9 -->
<g id="node9" class="node">
<title>Node9</title>
<g id="a_node9"><a xlink:title=" ">
<polygon fill="#e0e0e0" stroke="#999999" points="150.5,-74 97.5,-74 97.5,-55 150.5,-55 150.5,-74"/>
<text text-anchor="middle" x="124" y="-62" font-family="Helvetica,sans-Serif" font-size="10.00">gsl/span</text>
</a>
</g>
</g>
<!-- Node6&#45;&gt;Node9 -->
<g id="edge8" class="edge">
<title>Node6&#45;&gt;Node9</title>
<path fill="none" stroke="#63b8ff" d="M145.2,-236.14C128.64,-228.11 107.05,-214.52 97,-195 78.24,-158.55 98.77,-109.97 112.92,-83.9"/>
<polygon fill="#63b8ff" stroke="#63b8ff" points="115.78,-85.94 117.71,-75.52 109.71,-82.46 115.78,-85.94"/>
</g>
<!-- Node10 -->
<g id="node10" class="node">
<title>Node10</title>
<g id="a_node10"><a xlink:href="blob_8hpp.html" target="_top" xlink:title=" ">
<polygon fill="white" stroke="#666666" points="412.5,-195 335.5,-195 335.5,-176 412.5,-176 412.5,-195"/>
<text text-anchor="middle" x="374" y="-183" font-family="Helvetica,sans-Serif" font-size="10.00">base/blob.hpp</text>
</a>
</g>
</g>
<!-- Node6&#45;&gt;Node10 -->
<g id="edge9" class="edge">
<title>Node6&#45;&gt;Node10</title>
<path fill="none" stroke="#63b8ff" d="M198.44,-236.12C233.93,-226.09 291.85,-209.72 331.39,-198.54"/>
<polygon fill="#63b8ff" stroke="#63b8ff" points="332.14,-201.97 340.81,-195.88 330.23,-195.23 332.14,-201.97"/>
</g>
<!-- Node19 -->
<g id="node19" class="node">
<title>Node19</title>
<g id="a_node19"><a xlink:href="mp__utils_8hpp.html" target="_top" xlink:title=" ">
<polygon fill="white" stroke="#666666" points="201.5,-195 106.5,-195 106.5,-176 201.5,-176 201.5,-195"/>
<text text-anchor="middle" x="154" y="-183" font-family="Helvetica,sans-Serif" font-size="10.00">base/mp_utils.hpp</text>
</a>
</g>
</g>
<!-- Node6&#45;&gt;Node19 -->
<g id="edge19" class="edge">
<title>Node6&#45;&gt;Node19</title>
<path fill="none" stroke="#63b8ff" d="M165.08,-236.37C163.33,-228.5 160.69,-216.6 158.42,-206.39"/>
<polygon fill="#63b8ff" stroke="#63b8ff" points="161.84,-205.65 156.25,-196.64 155.01,-207.17 161.84,-205.65"/>
</g>
<!-- Node11 -->
<g id="node11" class="node">
<title>Node11</title>
<g id="a_node11"><a xlink:title=" ">
<polygon fill="#e0e0e0" stroke="#999999" points="384,-134.5 346,-134.5 346,-115.5 384,-115.5 384,-134.5"/>
<text text-anchor="middle" x="365" y="-122.5" font-family="Helvetica,sans-Serif" font-size="10.00">array</text>
</a>
</g>
</g>
<!-- Node10&#45;&gt;Node11 -->
<g id="edge10" class="edge">
<title>Node10&#45;&gt;Node11</title>
<path fill="none" stroke="#63b8ff" d="M372.67,-175.87C371.46,-168 369.63,-156.1 368.06,-145.89"/>
<polygon fill="#63b8ff" stroke="#63b8ff" points="371.54,-145.51 366.56,-136.16 364.62,-146.58 371.54,-145.51"/>
</g>
<!-- Node12 -->
<g id="node12" class="node">
<title>Node12</title>
<g id="a_node12"><a xlink:title=" ">
<polygon fill="#e0e0e0" stroke="#999999" points="530,-134.5 402,-134.5 402,-115.5 530,-115.5 530,-134.5"/>
<text text-anchor="middle" x="466" y="-122.5" font-family="Helvetica,sans-Serif" font-size="10.00">boost/functional/hash.hpp</text>
</a>
</g>
</g>
<!-- Node10&#45;&gt;Node12 -->
<g id="edge11" class="edge">
<title>Node10&#45;&gt;Node12</title>
<path fill="none" stroke="#63b8ff" d="M387.97,-175.62C402.43,-166.42 425.26,-151.91 442.5,-140.94"/>
<polygon fill="#63b8ff" stroke="#63b8ff" points="444.06,-144.1 450.62,-135.78 440.3,-138.19 444.06,-144.1"/>
</g>
<!-- Node13 -->
<g id="node13" class="node">
<title>Node13</title>
<g id="a_node13"><a xlink:href="hexutil_8hpp.html" target="_top" xlink:title=" ">
<polygon fill="white" stroke="#666666" points="634,-134.5 548,-134.5 548,-115.5 634,-115.5 634,-134.5"/>
<text text-anchor="middle" x="591" y="-122.5" font-family="Helvetica,sans-Serif" font-size="10.00">base/hexutil.hpp</text>
</a>
</g>
</g>
<!-- Node10&#45;&gt;Node13 -->
<g id="edge12" class="edge">
<title>Node10&#45;&gt;Node13</title>
<path fill="none" stroke="#63b8ff" d="M406.96,-175.62C444.32,-165.54 505.4,-149.08 546.86,-137.9"/>
<polygon fill="#63b8ff" stroke="#63b8ff" points="547.53,-141.34 556.27,-135.36 545.7,-134.59 547.53,-141.34"/>
</g>
<!-- Node18 -->
<g id="node18" class="node">
<title>Node18</title>
<g id="a_node18"><a xlink:title=" ">
<polygon fill="#e0e0e0" stroke="#999999" points="328,-134.5 274,-134.5 274,-115.5 328,-115.5 328,-134.5"/>
<text text-anchor="middle" x="301" y="-122.5" font-family="Helvetica,sans-Serif" font-size="10.00">iostream</text>
</a>
</g>
</g>
<!-- Node10&#45;&gt;Node18 -->
<g id="edge18" class="edge">
<title>Node10&#45;&gt;Node18</title>
<path fill="none" stroke="#63b8ff" d="M362.91,-175.62C351.76,-166.68 334.34,-152.72 320.81,-141.87"/>
<polygon fill="#63b8ff" stroke="#63b8ff" points="323.36,-139.44 313.37,-135.91 318.99,-144.9 323.36,-139.44"/>
</g>
<!-- Node13&#45;&gt;Node9 -->
<g id="edge15" class="edge">
<title>Node13&#45;&gt;Node9</title>
<path fill="none" stroke="#63b8ff" d="M560.94,-115.05C553.8,-113.16 546.17,-111.34 539,-110 401.7,-84.32 235.86,-72.08 162.32,-67.6"/>
<polygon fill="#63b8ff" stroke="#63b8ff" points="162.62,-64.11 152.43,-67.02 162.2,-71.1 162.62,-64.11"/>
</g>
<!-- Node14 -->
<g id="node14" class="node">
<title>Node14</title>
<g id="a_node14"><a xlink:title=" ">
<polygon fill="#e0e0e0" stroke="#999999" points="732,-74 666,-74 666,-55 732,-55 732,-74"/>
<text text-anchor="middle" x="699" y="-62" font-family="Helvetica,sans-Serif" font-size="10.00">string_view</text>
</a>
</g>
</g>
<!-- Node13&#45;&gt;Node14 -->
<g id="edge13" class="edge">
<title>Node13&#45;&gt;Node14</title>
<path fill="none" stroke="#63b8ff" d="M607.4,-115.12C624.69,-105.75 652.18,-90.86 672.54,-79.83"/>
<polygon fill="#63b8ff" stroke="#63b8ff" points="673.99,-83.03 681.11,-75.19 670.65,-76.87 673.99,-83.03"/>
</g>
<!-- Node15 -->
<g id="node15" class="node">
<title>Node15</title>
<g id="a_node15"><a xlink:title=" ">
<polygon fill="#e0e0e0" stroke="#999999" points="516,-74 472,-74 472,-55 516,-55 516,-74"/>
<text text-anchor="middle" x="494" y="-62" font-family="Helvetica,sans-Serif" font-size="10.00">vector</text>
</a>
</g>
</g>
<!-- Node13&#45;&gt;Node15 -->
<g id="edge14" class="edge">
<title>Node13&#45;&gt;Node15</title>
<path fill="none" stroke="#63b8ff" d="M576.27,-115.12C560.96,-105.88 536.73,-91.27 518.53,-80.29"/>
<polygon fill="#63b8ff" stroke="#63b8ff" points="520.54,-77.42 510.17,-75.25 516.92,-83.41 520.54,-77.42"/>
</g>
<!-- Node16 -->
<g id="node16" class="node">
<title>Node16</title>
<g id="a_node16"><a xlink:href="outcome_8hpp.html" target="_top" xlink:title=" ">
<polygon fill="white" stroke="#666666" points="647.5,-74 534.5,-74 534.5,-55 647.5,-55 647.5,-74"/>
<text text-anchor="middle" x="591" y="-62" font-family="Helvetica,sans-Serif" font-size="10.00">outcome/outcome.hpp</text>
</a>
</g>
</g>
<!-- Node13&#45;&gt;Node16 -->
<g id="edge16" class="edge">
<title>Node13&#45;&gt;Node16</title>
<path fill="none" stroke="#63b8ff" d="M591,-115.37C591,-107.5 591,-95.6 591,-85.39"/>
<polygon fill="#63b8ff" stroke="#63b8ff" points="594.5,-85.68 591,-75.68 587.5,-85.68 594.5,-85.68"/>
</g>
<!-- Node17 -->
<g id="node17" class="node">
<title>Node17</title>
<g id="a_node17"><a xlink:title=" ">
<polygon fill="#e0e0e0" stroke="#999999" points="661.5,-19 520.5,-19 520.5,0 661.5,0 661.5,-19"/>
<text text-anchor="middle" x="591" y="-7" font-family="Helvetica,sans-Serif" font-size="10.00">libp2p/outcome/outcome.hpp</text>
</a>
</g>
</g>
<!-- Node16&#45;&gt;Node17 -->
<g id="edge17" class="edge">
<title>Node16&#45;&gt;Node17</title>
<path fill="none" stroke="#63b8ff" d="M591,-54.75C591,-48.27 591,-39.16 591,-30.9"/>
<polygon fill="#63b8ff" stroke="#63b8ff" points="594.5,-30.96 591,-20.96 587.5,-30.96 594.5,-30.96"/>
</g>
<!-- Node19&#45;&gt;Node8 -->
<g id="edge20" class="edge">
<title>Node19&#45;&gt;Node8</title>
<path fill="none" stroke="#63b8ff" d="M161.38,-175.87C167.47,-168.74 176.41,-158.28 184.52,-148.79"/>
<polygon fill="#63b8ff" stroke="#63b8ff" points="187.12,-151.14 190.95,-141.27 181.8,-146.59 187.12,-151.14"/>
</g>
<!-- Node19&#45;&gt;Node9 -->
<g id="edge21" class="edge">
<title>Node19&#45;&gt;Node9</title>
<path fill="none" stroke="#63b8ff" d="M151.75,-175.56C146.94,-156.51 135.61,-111.56 129.01,-85.37"/>
<polygon fill="#63b8ff" stroke="#63b8ff" points="132.41,-84.53 126.57,-75.69 125.62,-86.24 132.41,-84.53"/>
</g>
<!-- Node20&#45;&gt;Node3 -->
<g id="edge23" class="edge">
<title>Node20&#45;&gt;Node3</title>
<path fill="none" stroke="#63b8ff" d="M260.02,-362.64C262.06,-353.67 265.29,-339.38 268,-327 272.45,-306.64 277.39,-283.33 280.79,-267.15"/>
<polygon fill="#63b8ff" stroke="#63b8ff" points="284.21,-267.87 282.84,-257.37 277.36,-266.44 284.21,-267.87"/>
</g>
<!-- Node21 -->
<g id="node21" class="node">
<title>Node21</title>
<g id="a_node21"><a xlink:title=" ">
<polygon fill="#e0e0e0" stroke="#999999" points="258.5,-321.5 199.5,-321.5 199.5,-302.5 258.5,-302.5 258.5,-321.5"/>
<text text-anchor="middle" x="229" y="-309.5" font-family="Helvetica,sans-Serif" font-size="10.00">functional</text>
</a>
</g>
</g>
<!-- Node20&#45;&gt;Node21 -->
<g id="edge24" class="edge">
<title>Node20&#45;&gt;Node21</title>
<path fill="none" stroke="#63b8ff" d="M253.72,-362.87C249.69,-354.75 243.53,-342.31 238.36,-331.89"/>
<polygon fill="#63b8ff" stroke="#63b8ff" points="241.55,-330.43 233.97,-323.02 235.27,-333.54 241.55,-330.43"/>
</g>
<!-- Node22 -->
<g id="node22" class="node">
<title>Node22</title>
<g id="a_node22"><a xlink:href="src_2primitives_2common_8hpp.html" target="_top" xlink:title=" ">
<polygon fill="white" stroke="#666666" points="432.5,-321.5 315.5,-321.5 315.5,-302.5 432.5,-302.5 432.5,-321.5"/>
<text text-anchor="middle" x="374" y="-309.5" font-family="Helvetica,sans-Serif" font-size="10.00">primitives/common.hpp</text>
</a>
</g>
</g>
<!-- Node20&#45;&gt;Node22 -->
<g id="edge25" class="edge">
<title>Node20&#45;&gt;Node22</title>
<path fill="none" stroke="#63b8ff" d="M275.62,-362.62C294.35,-353.17 324.25,-338.09 346.18,-327.03"/>
<polygon fill="#63b8ff" stroke="#63b8ff" points="347.51,-330.28 354.86,-322.65 344.36,-324.03 347.51,-330.28"/>
</g>
<!-- Node22&#45;&gt;Node3 -->
<g id="edge26" class="edge">
<title>Node22&#45;&gt;Node3</title>
<path fill="none" stroke="#63b8ff" d="M361.62,-302.1C347.41,-291.88 323.83,-274.93 306.58,-262.52"/>
<polygon fill="#63b8ff" stroke="#63b8ff" points="308.66,-259.7 298.5,-256.71 304.57,-265.39 308.66,-259.7"/>
</g>
<!-- Node23 -->
<g id="node23" class="node">
<title>Node23</title>
<g id="a_node23"><a xlink:title=" ">
<polygon fill="#e0e0e0" stroke="#999999" points="542,-255.5 440,-255.5 440,-236.5 542,-236.5 542,-255.5"/>
<text text-anchor="middle" x="491" y="-243.5" font-family="Helvetica,sans-Serif" font-size="10.00">boost/operators.hpp</text>
</a>
</g>
</g>
<!-- Node22&#45;&gt;Node23 -->
<g id="edge27" class="edge">
<title>Node22&#45;&gt;Node23</title>
<path fill="none" stroke="#63b8ff" d="M390.27,-302.1C409.57,-291.55 441.99,-273.81 464.83,-261.32"/>
<polygon fill="#63b8ff" stroke="#63b8ff" points="466.45,-264.42 473.54,-256.55 463.09,-258.28 466.45,-264.42"/>
</g>
<!-- Node24 -->
<g id="node24" class="node">
<title>Node24</title>
<g id="a_node24"><a xlink:href="session__key_8hpp.html" target="_top" xlink:title=" ">
<polygon fill="white" stroke="#666666" points="421.5,-261 326.5,-261 326.5,-231 421.5,-231 421.5,-261"/>
<text text-anchor="start" x="334.5" y="-249" font-family="Helvetica,sans-Serif" font-size="10.00">primitives/session</text>
<text text-anchor="middle" x="374" y="-238" font-family="Helvetica,sans-Serif" font-size="10.00">_key.hpp</text>
</a>
</g>
</g>
<!-- Node22&#45;&gt;Node24 -->
<g id="edge28" class="edge">
<title>Node22&#45;&gt;Node24</title>
<path fill="none" stroke="#63b8ff" d="M374,-302.1C374,-294.41 374,-282.92 374,-272.42"/>
<polygon fill="#63b8ff" stroke="#63b8ff" points="377.5,-272.75 374,-262.75 370.5,-272.75 377.5,-272.75"/>
</g>
<!-- Node24&#45;&gt;Node10 -->
<g id="edge29" class="edge">
<title>Node24&#45;&gt;Node10</title>
<path fill="none" stroke="#63b8ff" d="M374,-230.54C374,-223.34 374,-214.53 374,-206.68"/>
<polygon fill="#63b8ff" stroke="#63b8ff" points="377.5,-206.69 374,-196.69 370.5,-206.69 377.5,-206.69"/>
</g>
</g>
</svg>
