<?xml version="1.0" encoding="UTF-8" standalone="no"?>
<!DOCTYPE svg PUBLIC "-//W3C//DTD SVG 1.1//EN"
 "http://www.w3.org/Graphics/SVG/1.1/DTD/svg11.dtd">
<!-- Generated by graphviz version 7.0.5 (20221223.1930)
 -->
<!-- Title: src/storage/trie/impl/topper_trie_batch_impl.cpp Pages: 1 -->
<svg width="1494pt" height="654pt"
 viewBox="0.00 0.00 1494.47 654.00" xmlns="http://www.w3.org/2000/svg" xmlns:xlink="http://www.w3.org/1999/xlink">
<g id="graph0" class="graph" transform="scale(1 1) rotate(0) translate(4 650)">
<title>src/storage/trie/impl/topper_trie_batch_impl.cpp</title>
<!-- Node1 -->
<g id="node1" class="node">
<title>Node1</title>
<g id="a_node1"><a xlink:title=" ">
<polygon fill="#999999" stroke="#666666" points="319,-646 183,-646 183,-616 319,-616 319,-646"/>
<text text-anchor="start" x="191" y="-634" font-family="Helvetica,sans-Serif" font-size="10.00">src/storage/trie/impl</text>
<text text-anchor="middle" x="251" y="-623" font-family="Helvetica,sans-Serif" font-size="10.00">/topper_trie_batch_impl.cpp</text>
</a>
</g>
</g>
<!-- Node2 -->
<g id="node2" class="node">
<title>Node2</title>
<g id="a_node2"><a xlink:href="topper__trie__batch__impl_8hpp.html" target="_top" xlink:title=" ">
<polygon fill="white" stroke="#666666" points="397,-580 281,-580 281,-550 397,-550 397,-580"/>
<text text-anchor="start" x="289" y="-568" font-family="Helvetica,sans-Serif" font-size="10.00">storage/trie/impl/topper</text>
<text text-anchor="middle" x="339" y="-557" font-family="Helvetica,sans-Serif" font-size="10.00">_trie_batch_impl.hpp</text>
</a>
</g>
</g>
<!-- Node1&#45;&gt;Node2 -->
<g id="edge1" class="edge">
<title>Node1&#45;&gt;Node2</title>
<path fill="none" stroke="#63b8ff" d="M270.53,-615.8C282.18,-607.32 297.19,-596.4 310.19,-586.95"/>
<polygon fill="#63b8ff" stroke="#63b8ff" points="311.97,-589.99 318,-581.28 307.85,-584.33 311.97,-589.99"/>
</g>
<!-- Node40 -->
<g id="node40" class="node">
<title>Node40</title>
<g id="a_node40"><a xlink:href="trie__error_8hpp.html" target="_top" xlink:title=" ">
<polygon fill="white" stroke="#666666" points="243.5,-580 122.5,-580 122.5,-550 243.5,-550 243.5,-580"/>
<text text-anchor="start" x="130.5" y="-568" font-family="Helvetica,sans-Serif" font-size="10.00">storage/trie/supergenius</text>
<text text-anchor="middle" x="183" y="-557" font-family="Helvetica,sans-Serif" font-size="10.00">_trie/trie_error.hpp</text>
</a>
</g>
</g>
<!-- Node1&#45;&gt;Node40 -->
<g id="edge65" class="edge">
<title>Node1&#45;&gt;Node40</title>
<path fill="none" stroke="#63b8ff" d="M235.91,-615.8C227.19,-607.59 216.05,-597.1 206.23,-587.87"/>
<polygon fill="#63b8ff" stroke="#63b8ff" points="208.83,-585.51 199.15,-581.2 204.03,-590.6 208.83,-585.51"/>
</g>
<!-- Node3 -->
<g id="node3" class="node">
<title>Node3</title>
<g id="a_node3"><a xlink:href="trie__batches_8hpp.html" target="_top" xlink:title=" ">
<polygon fill="white" stroke="#666666" points="553,-514 413,-514 413,-495 553,-495 553,-514"/>
<text text-anchor="middle" x="483" y="-502" font-family="Helvetica,sans-Serif" font-size="10.00">storage/trie/trie_batches.hpp</text>
</a>
</g>
</g>
<!-- Node2&#45;&gt;Node3 -->
<g id="edge2" class="edge">
<title>Node2&#45;&gt;Node3</title>
<path fill="none" stroke="#63b8ff" d="M374.6,-549.54C397.93,-540.06 428.18,-527.77 450.8,-518.58"/>
<polygon fill="#63b8ff" stroke="#63b8ff" points="451.88,-521.92 459.82,-514.92 449.24,-515.44 451.88,-521.92"/>
</g>
<!-- Node37 -->
<g id="node37" class="node">
<title>Node37</title>
<g id="a_node37"><a xlink:href="supergenius__trie__factory_8hpp.html" target="_top" xlink:title=" ">
<polygon fill="white" stroke="#666666" points="541.5,-459 420.5,-459 420.5,-418 541.5,-418 541.5,-459"/>
<text text-anchor="start" x="428.5" y="-447" font-family="Helvetica,sans-Serif" font-size="10.00">storage/trie/supergenius</text>
<text text-anchor="start" x="428.5" y="-436" font-family="Helvetica,sans-Serif" font-size="10.00">_trie/supergenius_trie</text>
<text text-anchor="middle" x="481" y="-425" font-family="Helvetica,sans-Serif" font-size="10.00">_factory.hpp</text>
</a>
</g>
</g>
<!-- Node2&#45;&gt;Node37 -->
<g id="edge61" class="edge">
<title>Node2&#45;&gt;Node37</title>
<path fill="none" stroke="#63b8ff" d="M350.98,-549.76C363.51,-535.26 384.08,-512.47 404,-495 415.65,-484.78 429.13,-474.59 441.52,-465.77"/>
<polygon fill="#63b8ff" stroke="#63b8ff" points="443.32,-468.79 449.5,-460.19 439.3,-463.05 443.32,-468.79"/>
</g>
<!-- Node38 -->
<g id="node38" class="node">
<title>Node38</title>
<g id="a_node38"><a xlink:title=" ">
<polygon fill="#e0e0e0" stroke="#999999" points="356.5,-514 321.5,-514 321.5,-495 356.5,-495 356.5,-514"/>
<text text-anchor="middle" x="339" y="-502" font-family="Helvetica,sans-Serif" font-size="10.00">map</text>
</a>
</g>
</g>
<!-- Node2&#45;&gt;Node38 -->
<g id="edge63" class="edge">
<title>Node2&#45;&gt;Node38</title>
<path fill="none" stroke="#63b8ff" d="M339,-549.54C339,-542.34 339,-533.53 339,-525.68"/>
<polygon fill="#63b8ff" stroke="#63b8ff" points="342.5,-525.69 339,-515.69 335.5,-525.69 342.5,-525.69"/>
</g>
<!-- Node39 -->
<g id="node39" class="node">
<title>Node39</title>
<g id="a_node39"><a xlink:title=" ">
<polygon fill="#e0e0e0" stroke="#999999" points="303.5,-514 274.5,-514 274.5,-495 303.5,-495 303.5,-514"/>
<text text-anchor="middle" x="289" y="-502" font-family="Helvetica,sans-Serif" font-size="10.00">list</text>
</a>
</g>
</g>
<!-- Node2&#45;&gt;Node39 -->
<g id="edge64" class="edge">
<title>Node2&#45;&gt;Node39</title>
<path fill="none" stroke="#63b8ff" d="M326.64,-549.54C319.75,-541.48 311.12,-531.38 303.86,-522.89"/>
<polygon fill="#63b8ff" stroke="#63b8ff" points="306.56,-520.65 297.4,-515.33 301.23,-525.2 306.56,-520.65"/>
</g>
<!-- Node4 -->
<g id="node4" class="node">
<title>Node4</title>
<g id="a_node4"><a xlink:href="buffer__map__types_8hpp.html" target="_top" xlink:title=" ">
<polygon fill="white" stroke="#666666" points="399,-453.5 299,-453.5 299,-423.5 399,-423.5 399,-453.5"/>
<text text-anchor="start" x="307" y="-441.5" font-family="Helvetica,sans-Serif" font-size="10.00">storage/buffer_map</text>
<text text-anchor="middle" x="349" y="-430.5" font-family="Helvetica,sans-Serif" font-size="10.00">_types.hpp</text>
</a>
</g>
</g>
<!-- Node3&#45;&gt;Node4 -->
<g id="edge3" class="edge">
<title>Node3&#45;&gt;Node4</title>
<path fill="none" stroke="#63b8ff" d="M464.37,-494.6C445.11,-485.4 414.45,-470.76 389.57,-458.88"/>
<polygon fill="#63b8ff" stroke="#63b8ff" points="391.21,-455.78 380.68,-454.63 388.19,-462.1 391.21,-455.78"/>
</g>
<!-- Node22 -->
<g id="node22" class="node">
<title>Node22</title>
<g id="a_node22"><a xlink:href="supergenius__trie__cursor_8hpp.html" target="_top" xlink:title=" ">
<polygon fill="white" stroke="#666666" points="690.5,-459 569.5,-459 569.5,-418 690.5,-418 690.5,-459"/>
<text text-anchor="start" x="577.5" y="-447" font-family="Helvetica,sans-Serif" font-size="10.00">storage/trie/supergenius</text>
<text text-anchor="start" x="577.5" y="-436" font-family="Helvetica,sans-Serif" font-size="10.00">_trie/supergenius_trie</text>
<text text-anchor="middle" x="630" y="-425" font-family="Helvetica,sans-Serif" font-size="10.00">_cursor.hpp</text>
</a>
</g>
</g>
<!-- Node3&#45;&gt;Node22 -->
<g id="edge31" class="edge">
<title>Node3&#45;&gt;Node22</title>
<path fill="none" stroke="#63b8ff" d="M503.44,-494.6C521.66,-486.67 549.21,-474.68 573.95,-463.9"/>
<polygon fill="#63b8ff" stroke="#63b8ff" points="575.19,-467.18 582.96,-459.98 572.39,-460.76 575.19,-467.18"/>
</g>
<!-- Node5 -->
<g id="node5" class="node">
<title>Node5</title>
<g id="a_node5"><a xlink:title=" ">
<polygon fill="#e0e0e0" stroke="#999999" points="899.5,-129 846.5,-129 846.5,-110 899.5,-110 899.5,-129"/>
<text text-anchor="middle" x="873" y="-117" font-family="Helvetica,sans-Serif" font-size="10.00">gsl/span</text>
</a>
</g>
</g>
<!-- Node4&#45;&gt;Node5 -->
<g id="edge4" class="edge">
<title>Node4&#45;&gt;Node5</title>
<path fill="none" stroke="#63b8ff" d="M364.62,-423.14C413.92,-378.54 572.06,-240.85 726,-165 761.31,-147.6 804.79,-135.47 835.26,-128.32"/>
<polygon fill="#63b8ff" stroke="#63b8ff" points="835.81,-131.78 844.79,-126.15 834.26,-124.96 835.81,-131.78"/>
</g>
<!-- Node6 -->
<g id="node6" class="node">
<title>Node6</title>
<g id="a_node6"><a xlink:href="buffer_8hpp.html" target="_top" xlink:title=" ">
<polygon fill="white" stroke="#666666" points="1259.5,-250 1176.5,-250 1176.5,-231 1259.5,-231 1259.5,-250"/>
<text text-anchor="middle" x="1218" y="-238" font-family="Helvetica,sans-Serif" font-size="10.00">base/buffer.hpp</text>
</a>
</g>
</g>
<!-- Node4&#45;&gt;Node6 -->
<g id="edge5" class="edge">
<title>Node4&#45;&gt;Node6</title>
<path fill="none" stroke="#63b8ff" d="M390.34,-423.01C397.18,-421.05 404.24,-419.27 411,-418 643.01,-374.28 707.9,-419.52 941,-382 1057.43,-363.26 1114.16,-398.93 1198,-316 1212.42,-301.74 1216.78,-278.29 1217.93,-261.51"/>
<polygon fill="#63b8ff" stroke="#63b8ff" points="1221.42,-261.86 1218.25,-251.75 1214.43,-261.63 1221.42,-261.86"/>
</g>
<!-- Node13 -->
<g id="node13" class="node">
<title>Node13</title>
<g id="a_node13"><a xlink:href="batchable_8hpp.html" target="_top" xlink:title=" ">
<polygon fill="white" stroke="#666666" points="200,-250 66,-250 66,-231 200,-231 200,-250"/>
<text text-anchor="middle" x="133" y="-238" font-family="Helvetica,sans-Serif" font-size="10.00">storage/face/batchable.hpp</text>
</a>
</g>
</g>
<!-- Node4&#45;&gt;Node13 -->
<g id="edge13" class="edge">
<title>Node4&#45;&gt;Node13</title>
<path fill="none" stroke="#63b8ff" d="M331.11,-423.2C317.46,-412.17 298.3,-396.41 282,-382 232.94,-338.63 177.35,-284.94 150.02,-258.23"/>
<polygon fill="#63b8ff" stroke="#63b8ff" points="152.56,-255.82 142.96,-251.32 147.66,-260.82 152.56,-255.82"/>
</g>
<!-- Node15 -->
<g id="node15" class="node">
<title>Node15</title>
<g id="a_node15"><a xlink:href="write__batch_8hpp.html" target="_top" xlink:title=" ">
<polygon fill="white" stroke="#666666" points="161.5,-195 66.5,-195 66.5,-165 161.5,-165 161.5,-195"/>
<text text-anchor="start" x="74.5" y="-183" font-family="Helvetica,sans-Serif" font-size="10.00">storage/face/write</text>
<text text-anchor="middle" x="114" y="-172" font-family="Helvetica,sans-Serif" font-size="10.00">_batch.hpp</text>
</a>
</g>
</g>
<!-- Node4&#45;&gt;Node15 -->
<g id="edge30" class="edge">
<title>Node4&#45;&gt;Node15</title>
<path fill="none" stroke="#63b8ff" d="M300.04,-423.06C230.78,-399.64 107.06,-346.03 57,-250 47.73,-232.21 62.3,-214.82 79.03,-201.94"/>
<polygon fill="#63b8ff" stroke="#63b8ff" points="81.05,-204.8 87.17,-196.16 76.99,-199.1 81.05,-204.8"/>
</g>
<!-- Node17 -->
<g id="node17" class="node">
<title>Node17</title>
<g id="a_node17"><a xlink:href="generic__storage_8hpp.html" target="_top" xlink:title=" ">
<polygon fill="white" stroke="#666666" points="396.5,-382 291.5,-382 291.5,-352 396.5,-352 396.5,-382"/>
<text text-anchor="start" x="299.5" y="-370" font-family="Helvetica,sans-Serif" font-size="10.00">storage/face/generic</text>
<text text-anchor="middle" x="344" y="-359" font-family="Helvetica,sans-Serif" font-size="10.00">_storage.hpp</text>
</a>
</g>
</g>
<!-- Node4&#45;&gt;Node17 -->
<g id="edge19" class="edge">
<title>Node4&#45;&gt;Node17</title>
<path fill="none" stroke="#63b8ff" d="M347.96,-423.1C347.35,-414.62 346.56,-403.64 345.85,-393.72"/>
<polygon fill="#63b8ff" stroke="#63b8ff" points="349.35,-393.61 345.14,-383.89 342.37,-394.12 349.35,-393.61"/>
</g>
<!-- Node6&#45;&gt;Node5 -->
<g id="edge10" class="edge">
<title>Node6&#45;&gt;Node5</title>
<path fill="none" stroke="#63b8ff" d="M1176.12,-233.49C1140.63,-227.25 1089.1,-215.47 1048,-195 1028.74,-185.41 1028.97,-175.15 1010,-165 978.41,-148.1 939.27,-136.18 910.93,-128.96"/>
<polygon fill="#63b8ff" stroke="#63b8ff" points="911.89,-125.59 901.34,-126.6 910.22,-132.39 911.89,-125.59"/>
</g>
<!-- Node7 -->
<g id="node7" class="node">
<title>Node7</title>
<g id="a_node7"><a xlink:title=" ">
<polygon fill="#e0e0e0" stroke="#999999" points="1282,-129 1216,-129 1216,-110 1282,-110 1282,-129"/>
<text text-anchor="middle" x="1249" y="-117" font-family="Helvetica,sans-Serif" font-size="10.00">string_view</text>
</a>
</g>
</g>
<!-- Node6&#45;&gt;Node7 -->
<g id="edge6" class="edge">
<title>Node6&#45;&gt;Node7</title>
<path fill="none" stroke="#63b8ff" d="M1259.74,-238.57C1325.58,-236.12 1448.84,-227.24 1476,-195 1527.45,-133.92 1373.11,-122.58 1293.43,-120.7"/>
<polygon fill="#63b8ff" stroke="#63b8ff" points="1293.82,-117.21 1283.76,-120.52 1293.69,-124.21 1293.82,-117.21"/>
</g>
<!-- Node8 -->
<g id="node8" class="node">
<title>Node8</title>
<g id="a_node8"><a xlink:title=" ">
<polygon fill="#e0e0e0" stroke="#999999" points="1179,-129 1135,-129 1135,-110 1179,-110 1179,-129"/>
<text text-anchor="middle" x="1157" y="-117" font-family="Helvetica,sans-Serif" font-size="10.00">vector</text>
</a>
</g>
</g>
<!-- Node6&#45;&gt;Node8 -->
<g id="edge7" class="edge">
<title>Node6&#45;&gt;Node8</title>
<path fill="none" stroke="#63b8ff" d="M1211.81,-230.53C1205.86,-221.7 1196.78,-207.73 1190,-195 1180.25,-176.69 1170.84,-154.92 1164.59,-139.65"/>
<polygon fill="#63b8ff" stroke="#63b8ff" points="1168.01,-138.78 1161.03,-130.82 1161.52,-141.4 1168.01,-138.78"/>
</g>
<!-- Node9 -->
<g id="node9" class="node">
<title>Node9</title>
<g id="a_node9"><a xlink:title=" ">
<polygon fill="#e0e0e0" stroke="#999999" points="1467,-195 1357,-195 1357,-165 1467,-165 1467,-195"/>
<text text-anchor="start" x="1365" y="-183" font-family="Helvetica,sans-Serif" font-size="10.00">boost/container_hash</text>
<text text-anchor="middle" x="1412" y="-172" font-family="Helvetica,sans-Serif" font-size="10.00">/hash.hpp</text>
</a>
</g>
</g>
<!-- Node6&#45;&gt;Node9 -->
<g id="edge8" class="edge">
<title>Node6&#45;&gt;Node9</title>
<path fill="none" stroke="#63b8ff" d="M1247.46,-230.62C1275.51,-222.16 1318.52,-209.19 1353.53,-198.63"/>
<polygon fill="#63b8ff" stroke="#63b8ff" points="1354.1,-202.11 1362.67,-195.88 1352.08,-195.41 1354.1,-202.11"/>
</g>
<!-- Node10 -->
<g id="node10" class="node">
<title>Node10</title>
<g id="a_node10"><a xlink:title=" ">
<polygon fill="#e0e0e0" stroke="#999999" points="1301,-189.5 1199,-189.5 1199,-170.5 1301,-170.5 1301,-189.5"/>
<text text-anchor="middle" x="1250" y="-177.5" font-family="Helvetica,sans-Serif" font-size="10.00">boost/operators.hpp</text>
</a>
</g>
</g>
<!-- Node6&#45;&gt;Node10 -->
<g id="edge9" class="edge">
<title>Node6&#45;&gt;Node10</title>
<path fill="none" stroke="#63b8ff" d="M1222.72,-230.87C1227.21,-222.66 1234.11,-210.04 1239.85,-199.55"/>
<polygon fill="#63b8ff" stroke="#63b8ff" points="1242.8,-201.45 1244.53,-191 1236.66,-198.09 1242.8,-201.45"/>
</g>
<!-- Node11 -->
<g id="node11" class="node">
<title>Node11</title>
<g id="a_node11"><a xlink:href="outcome_8hpp.html" target="_top" xlink:title=" ">
<polygon fill="white" stroke="#666666" points="460.5,-74 347.5,-74 347.5,-55 460.5,-55 460.5,-74"/>
<text text-anchor="middle" x="404" y="-62" font-family="Helvetica,sans-Serif" font-size="10.00">outcome/outcome.hpp</text>
</a>
</g>
</g>
<!-- Node6&#45;&gt;Node11 -->
<g id="edge11" class="edge">
<title>Node6&#45;&gt;Node11</title>
<path fill="none" stroke="#63b8ff" d="M1258.25,-230.6C1277.42,-224.12 1298.59,-213.19 1310,-195 1330.57,-162.21 1321.95,-133.25 1291,-110 1258.4,-85.52 674.13,-71.11 472.08,-66.85"/>
<polygon fill="#63b8ff" stroke="#63b8ff" points="472.33,-63.35 462.26,-66.64 472.19,-70.35 472.33,-63.35"/>
</g>
<!-- Node12 -->
<g id="node12" class="node">
<title>Node12</title>
<g id="a_node12"><a xlink:title=" ">
<polygon fill="#e0e0e0" stroke="#999999" points="474.5,-19 333.5,-19 333.5,0 474.5,0 474.5,-19"/>
<text text-anchor="middle" x="404" y="-7" font-family="Helvetica,sans-Serif" font-size="10.00">libp2p/outcome/outcome.hpp</text>
</a>
</g>
</g>
<!-- Node11&#45;&gt;Node12 -->
<g id="edge12" class="edge">
<title>Node11&#45;&gt;Node12</title>
<path fill="none" stroke="#63b8ff" d="M404,-54.75C404,-48.27 404,-39.16 404,-30.9"/>
<polygon fill="#63b8ff" stroke="#63b8ff" points="407.5,-30.96 404,-20.96 400.5,-30.96 407.5,-30.96"/>
</g>
<!-- Node14 -->
<g id="node14" class="node">
<title>Node14</title>
<g id="a_node14"><a xlink:title=" ">
<polygon fill="#e0e0e0" stroke="#999999" points="399.5,-189.5 348.5,-189.5 348.5,-170.5 399.5,-170.5 399.5,-189.5"/>
<text text-anchor="middle" x="374" y="-177.5" font-family="Helvetica,sans-Serif" font-size="10.00">memory</text>
</a>
</g>
</g>
<!-- Node13&#45;&gt;Node14 -->
<g id="edge14" class="edge">
<title>Node13&#45;&gt;Node14</title>
<path fill="none" stroke="#63b8ff" d="M169.87,-230.55C215.23,-219.54 291.8,-200.95 337.16,-189.94"/>
<polygon fill="#63b8ff" stroke="#63b8ff" points="337.89,-193.37 346.78,-187.61 336.24,-186.56 337.89,-193.37"/>
</g>
<!-- Node13&#45;&gt;Node15 -->
<g id="edge15" class="edge">
<title>Node13&#45;&gt;Node15</title>
<path fill="none" stroke="#63b8ff" d="M130.2,-230.87C128.05,-224.25 124.97,-214.78 122.07,-205.86"/>
<polygon fill="#63b8ff" stroke="#63b8ff" points="125.47,-204.98 119.05,-196.55 118.81,-207.15 125.47,-204.98"/>
</g>
<!-- Node16 -->
<g id="node16" class="node">
<title>Node16</title>
<g id="a_node16"><a xlink:href="writeable_8hpp.html" target="_top" xlink:title=" ">
<polygon fill="white" stroke="#666666" points="273.5,-129 142.5,-129 142.5,-110 273.5,-110 273.5,-129"/>
<text text-anchor="middle" x="208" y="-117" font-family="Helvetica,sans-Serif" font-size="10.00">storage/face/writeable.hpp</text>
</a>
</g>
</g>
<!-- Node13&#45;&gt;Node16 -->
<g id="edge18" class="edge">
<title>Node13&#45;&gt;Node16</title>
<path fill="none" stroke="#63b8ff" d="M141.27,-230.76C149.22,-222.1 161.27,-208.26 170,-195 181.84,-177.03 192.71,-154.9 199.76,-139.44"/>
<polygon fill="#63b8ff" stroke="#63b8ff" points="202.88,-141.05 203.75,-130.49 196.48,-138.2 202.88,-141.05"/>
</g>
<!-- Node15&#45;&gt;Node16 -->
<g id="edge16" class="edge">
<title>Node15&#45;&gt;Node16</title>
<path fill="none" stroke="#63b8ff" d="M137.24,-164.54C151.5,-155.66 169.72,-144.32 184.1,-135.37"/>
<polygon fill="#63b8ff" stroke="#63b8ff" points="185.86,-138.4 192.5,-130.15 182.16,-132.46 185.86,-138.4"/>
</g>
<!-- Node16&#45;&gt;Node11 -->
<g id="edge17" class="edge">
<title>Node16&#45;&gt;Node11</title>
<path fill="none" stroke="#63b8ff" d="M241.25,-109.51C274.01,-100.65 324.25,-87.07 360.24,-77.33"/>
<polygon fill="#63b8ff" stroke="#63b8ff" points="360.72,-80.83 369.45,-74.84 358.89,-74.07 360.72,-80.83"/>
</g>
<!-- Node18 -->
<g id="node18" class="node">
<title>Node18</title>
<g id="a_node18"><a xlink:href="generic__maps_8hpp.html" target="_top" xlink:title=" ">
<polygon fill="white" stroke="#666666" points="393.5,-316 288.5,-316 288.5,-286 393.5,-286 393.5,-316"/>
<text text-anchor="start" x="296.5" y="-304" font-family="Helvetica,sans-Serif" font-size="10.00">storage/face/generic</text>
<text text-anchor="middle" x="341" y="-293" font-family="Helvetica,sans-Serif" font-size="10.00">_maps.hpp</text>
</a>
</g>
</g>
<!-- Node17&#45;&gt;Node18 -->
<g id="edge20" class="edge">
<title>Node17&#45;&gt;Node18</title>
<path fill="none" stroke="#63b8ff" d="M343.33,-351.8C343,-344.67 342.59,-335.82 342.2,-327.56"/>
<polygon fill="#63b8ff" stroke="#63b8ff" points="345.7,-327.5 341.73,-317.68 338.71,-327.83 345.7,-327.5"/>
</g>
<!-- Node18&#45;&gt;Node13 -->
<g id="edge21" class="edge">
<title>Node18&#45;&gt;Node13</title>
<path fill="none" stroke="#63b8ff" d="M289.58,-285.54C254.46,-275.66 208.47,-262.73 175.43,-253.43"/>
<polygon fill="#63b8ff" stroke="#63b8ff" points="176.79,-250.18 166.22,-250.84 174.89,-256.92 176.79,-250.18"/>
</g>
<!-- Node18&#45;&gt;Node16 -->
<g id="edge29" class="edge">
<title>Node18&#45;&gt;Node16</title>
<path fill="none" stroke="#63b8ff" d="M297.7,-285.53C279.77,-277.57 260.13,-266 247,-250 220.64,-217.88 212.09,-168.28 209.32,-140.72"/>
<polygon fill="#63b8ff" stroke="#63b8ff" points="212.82,-140.63 208.52,-130.95 205.85,-141.2 212.82,-140.63"/>
</g>
<!-- Node19 -->
<g id="node19" class="node">
<title>Node19</title>
<g id="a_node19"><a xlink:href="iterable_8hpp.html" target="_top" xlink:title=" ">
<polygon fill="white" stroke="#666666" points="525.5,-250 402.5,-250 402.5,-231 525.5,-231 525.5,-250"/>
<text text-anchor="middle" x="464" y="-238" font-family="Helvetica,sans-Serif" font-size="10.00">storage/face/iterable.hpp</text>
</a>
</g>
</g>
<!-- Node18&#45;&gt;Node19 -->
<g id="edge22" class="edge">
<title>Node18&#45;&gt;Node19</title>
<path fill="none" stroke="#63b8ff" d="M371.4,-285.54C390.88,-276.28 416.01,-264.33 435.17,-255.21"/>
<polygon fill="#63b8ff" stroke="#63b8ff" points="436.51,-258.45 444.03,-251 433.5,-252.13 436.51,-258.45"/>
</g>
<!-- Node21 -->
<g id="node21" class="node">
<title>Node21</title>
<g id="a_node21"><a xlink:href="readable_8hpp.html" target="_top" xlink:title=" ">
<polygon fill="white" stroke="#666666" points="384,-250 256,-250 256,-231 384,-231 384,-250"/>
<text text-anchor="middle" x="320" y="-238" font-family="Helvetica,sans-Serif" font-size="10.00">storage/face/readable.hpp</text>
</a>
</g>
</g>
<!-- Node18&#45;&gt;Node21 -->
<g id="edge26" class="edge">
<title>Node18&#45;&gt;Node21</title>
<path fill="none" stroke="#63b8ff" d="M335.81,-285.54C333.13,-278.08 329.83,-268.89 326.94,-260.83"/>
<polygon fill="#63b8ff" stroke="#63b8ff" points="330.3,-259.83 323.63,-251.6 323.71,-262.19 330.3,-259.83"/>
</g>
<!-- Node19&#45;&gt;Node14 -->
<g id="edge23" class="edge">
<title>Node19&#45;&gt;Node14</title>
<path fill="none" stroke="#63b8ff" d="M450.33,-230.62C436.19,-221.42 413.86,-206.91 396.99,-195.94"/>
<polygon fill="#63b8ff" stroke="#63b8ff" points="399.36,-193.31 389.07,-190.79 395.54,-199.18 399.36,-193.31"/>
</g>
<!-- Node20 -->
<g id="node20" class="node">
<title>Node20</title>
<g id="a_node20"><a xlink:href="map__cursor_8hpp.html" target="_top" xlink:title=" ">
<polygon fill="white" stroke="#666666" points="560.5,-189.5 417.5,-189.5 417.5,-170.5 560.5,-170.5 560.5,-189.5"/>
<text text-anchor="middle" x="489" y="-177.5" font-family="Helvetica,sans-Serif" font-size="10.00">storage/face/map_cursor.hpp</text>
</a>
</g>
</g>
<!-- Node19&#45;&gt;Node20 -->
<g id="edge24" class="edge">
<title>Node19&#45;&gt;Node20</title>
<path fill="none" stroke="#63b8ff" d="M467.69,-230.87C471.12,-222.83 476.36,-210.57 480.79,-200.22"/>
<polygon fill="#63b8ff" stroke="#63b8ff" points="483.99,-201.63 484.7,-191.06 477.55,-198.88 483.99,-201.63"/>
</g>
<!-- Node20&#45;&gt;Node11 -->
<g id="edge25" class="edge">
<title>Node20&#45;&gt;Node11</title>
<path fill="none" stroke="#63b8ff" d="M482.33,-170.09C468.36,-151.45 435.82,-107.99 417.37,-83.36"/>
<polygon fill="#63b8ff" stroke="#63b8ff" points="420.34,-81.48 411.55,-75.58 414.74,-85.68 420.34,-81.48"/>
</g>
<!-- Node21&#45;&gt;Node11 -->
<g id="edge27" class="edge">
<title>Node21&#45;&gt;Node11</title>
<path fill="none" stroke="#63b8ff" d="M321.24,-230.93C323.51,-216.76 329.01,-187.73 339,-165 352.51,-134.26 375.12,-102.39 389.79,-83.25"/>
<polygon fill="#63b8ff" stroke="#63b8ff" points="392.5,-85.47 395.9,-75.44 386.98,-81.16 392.5,-85.47"/>
</g>
<!-- Node21&#45;&gt;Node20 -->
<g id="edge28" class="edge">
<title>Node21&#45;&gt;Node20</title>
<path fill="none" stroke="#63b8ff" d="M345.67,-230.62C374.08,-220.78 420.12,-204.84 452.33,-193.69"/>
<polygon fill="#63b8ff" stroke="#63b8ff" points="453.36,-197.04 461.66,-190.46 451.07,-190.43 453.36,-197.04"/>
</g>
<!-- Node22&#45;&gt;Node6 -->
<g id="edge33" class="edge">
<title>Node22&#45;&gt;Node6</title>
<path fill="none" stroke="#63b8ff" d="M690.76,-436.44C836.4,-433.27 1196,-421.48 1232,-382 1262.47,-348.6 1241.77,-290.4 1227.81,-260.47"/>
<polygon fill="#63b8ff" stroke="#63b8ff" points="1231.13,-259.29 1223.58,-251.85 1224.85,-262.37 1231.13,-259.29"/>
</g>
<!-- Node22&#45;&gt;Node20 -->
<g id="edge32" class="edge">
<title>Node22&#45;&gt;Node20</title>
<path fill="none" stroke="#63b8ff" d="M627.57,-417.55C624.95,-399.84 619.9,-373.49 611,-352 584.93,-289.07 531.96,-226.94 505.22,-197.94"/>
<polygon fill="#63b8ff" stroke="#63b8ff" points="507.95,-195.74 498.56,-190.84 502.84,-200.53 507.95,-195.74"/>
</g>
<!-- Node23 -->
<g id="node23" class="node">
<title>Node23</title>
<g id="a_node23"><a xlink:href="supergenius__trie_8hpp.html" target="_top" xlink:title=" ">
<polygon fill="white" stroke="#666666" points="602,-382 474,-382 474,-352 602,-352 602,-382"/>
<text text-anchor="start" x="482" y="-370" font-family="Helvetica,sans-Serif" font-size="10.00">storage/trie/supergenius</text>
<text text-anchor="middle" x="538" y="-359" font-family="Helvetica,sans-Serif" font-size="10.00">_trie/supergenius_trie.hpp</text>
</a>
</g>
</g>
<!-- Node22&#45;&gt;Node23 -->
<g id="edge34" class="edge">
<title>Node22&#45;&gt;Node23</title>
<path fill="none" stroke="#63b8ff" d="M603.88,-417.77C592.15,-408.9 578.27,-398.42 566.29,-389.37"/>
<polygon fill="#63b8ff" stroke="#63b8ff" points="568.46,-386.62 558.37,-383.39 564.24,-392.21 568.46,-386.62"/>
</g>
<!-- Node32 -->
<g id="node32" class="node">
<title>Node32</title>
<g id="a_node32"><a xlink:href="supergenius__codec_8hpp.html" target="_top" xlink:title=" ">
<polygon fill="white" stroke="#666666" points="932,-382 810,-382 810,-352 932,-352 932,-382"/>
<text text-anchor="start" x="818" y="-370" font-family="Helvetica,sans-Serif" font-size="10.00">storage/trie/serialization</text>
<text text-anchor="middle" x="871" y="-359" font-family="Helvetica,sans-Serif" font-size="10.00">/supergenius_codec.hpp</text>
</a>
</g>
</g>
<!-- Node22&#45;&gt;Node32 -->
<g id="edge49" class="edge">
<title>Node22&#45;&gt;Node32</title>
<path fill="none" stroke="#63b8ff" d="M690.81,-419.96C727.21,-409.47 773.32,-396.17 809.79,-385.65"/>
<polygon fill="#63b8ff" stroke="#63b8ff" points="810.68,-389.04 819.32,-382.9 808.74,-382.31 810.68,-389.04"/>
</g>
<!-- Node23&#45;&gt;Node18 -->
<g id="edge35" class="edge">
<title>Node23&#45;&gt;Node18</title>
<path fill="none" stroke="#63b8ff" d="M493.79,-351.64C464.87,-342.24 426.87,-329.9 396,-319.87"/>
<polygon fill="#63b8ff" stroke="#63b8ff" points="397.44,-316.65 386.84,-316.89 395.27,-323.31 397.44,-316.65"/>
</g>
<!-- Node24 -->
<g id="node24" class="node">
<title>Node24</title>
<g id="a_node24"><a xlink:href="supergenius__node_8hpp.html" target="_top" xlink:title=" ">
<polygon fill="white" stroke="#666666" points="793.5,-316 658.5,-316 658.5,-286 793.5,-286 793.5,-316"/>
<text text-anchor="start" x="666.5" y="-304" font-family="Helvetica,sans-Serif" font-size="10.00">storage/trie/supergenius</text>
<text text-anchor="middle" x="726" y="-293" font-family="Helvetica,sans-Serif" font-size="10.00">_trie/supergenius_node.hpp</text>
</a>
</g>
</g>
<!-- Node23&#45;&gt;Node24 -->
<g id="edge36" class="edge">
<title>Node23&#45;&gt;Node24</title>
<path fill="none" stroke="#63b8ff" d="M580.19,-351.64C607.55,-342.32 643.42,-330.11 672.74,-320.13"/>
<polygon fill="#63b8ff" stroke="#63b8ff" points="673.85,-323.45 682.19,-316.91 671.6,-316.82 673.85,-323.45"/>
</g>
<!-- Node24&#45;&gt;Node6 -->
<g id="edge47" class="edge">
<title>Node24&#45;&gt;Node6</title>
<path fill="none" stroke="#63b8ff" d="M793.91,-287.23C796.64,-286.8 799.34,-286.39 802,-286 932,-267.1 1085.94,-252.7 1165.11,-245.87"/>
<polygon fill="#63b8ff" stroke="#63b8ff" points="1165.07,-249.38 1174.73,-245.04 1164.47,-242.41 1165.07,-249.38"/>
</g>
<!-- Node25 -->
<g id="node25" class="node">
<title>Node25</title>
<g id="a_node25"><a xlink:title=" ">
<polygon fill="#e0e0e0" stroke="#999999" points="753.5,-250 658.5,-250 658.5,-231 753.5,-231 753.5,-250"/>
<text text-anchor="middle" x="706" y="-238" font-family="Helvetica,sans-Serif" font-size="10.00">boost/optional.hpp</text>
</a>
</g>
</g>
<!-- Node24&#45;&gt;Node25 -->
<g id="edge37" class="edge">
<title>Node24&#45;&gt;Node25</title>
<path fill="none" stroke="#63b8ff" d="M721.06,-285.54C718.51,-278.08 715.36,-268.89 712.61,-260.83"/>
<polygon fill="#63b8ff" stroke="#63b8ff" points="716,-259.94 709.46,-251.61 709.38,-262.2 716,-259.94"/>
</g>
<!-- Node26 -->
<g id="node26" class="node">
<title>Node26</title>
<g id="a_node26"><a xlink:href="blob_8hpp.html" target="_top" xlink:title=" ">
<polygon fill="white" stroke="#666666" points="1012.5,-250 935.5,-250 935.5,-231 1012.5,-231 1012.5,-250"/>
<text text-anchor="middle" x="974" y="-238" font-family="Helvetica,sans-Serif" font-size="10.00">base/blob.hpp</text>
</a>
</g>
</g>
<!-- Node24&#45;&gt;Node26 -->
<g id="edge38" class="edge">
<title>Node24&#45;&gt;Node26</title>
<path fill="none" stroke="#63b8ff" d="M787.3,-285.54C829.73,-275.53 885.45,-262.39 924.94,-253.07"/>
<polygon fill="#63b8ff" stroke="#63b8ff" points="925.73,-256.48 934.66,-250.78 924.12,-249.67 925.73,-256.48"/>
</g>
<!-- Node31 -->
<g id="node31" class="node">
<title>Node31</title>
<g id="a_node31"><a xlink:href="src_2storage_2trie_2node_8hpp.html" target="_top" xlink:title=" ">
<polygon fill="white" stroke="#666666" points="878.5,-250 771.5,-250 771.5,-231 878.5,-231 878.5,-250"/>
<text text-anchor="middle" x="825" y="-238" font-family="Helvetica,sans-Serif" font-size="10.00">storage/trie/node.hpp</text>
</a>
</g>
</g>
<!-- Node24&#45;&gt;Node31 -->
<g id="edge48" class="edge">
<title>Node24&#45;&gt;Node31</title>
<path fill="none" stroke="#63b8ff" d="M750.47,-285.54C765.64,-276.58 785.06,-265.1 800.27,-256.11"/>
<polygon fill="#63b8ff" stroke="#63b8ff" points="801.9,-259.22 808.73,-251.12 798.34,-253.19 801.9,-259.22"/>
</g>
<!-- Node27 -->
<g id="node27" class="node">
<title>Node27</title>
<g id="a_node27"><a xlink:title=" ">
<polygon fill="#e0e0e0" stroke="#999999" points="783,-189.5 745,-189.5 745,-170.5 783,-170.5 783,-189.5"/>
<text text-anchor="middle" x="764" y="-177.5" font-family="Helvetica,sans-Serif" font-size="10.00">array</text>
</a>
</g>
</g>
<!-- Node26&#45;&gt;Node27 -->
<g id="edge39" class="edge">
<title>Node26&#45;&gt;Node27</title>
<path fill="none" stroke="#63b8ff" d="M935.26,-232.64C897.9,-225.43 840.1,-212.65 792,-195 791.52,-194.82 791.03,-194.64 790.54,-194.45"/>
<polygon fill="#63b8ff" stroke="#63b8ff" points="792.26,-191.38 781.69,-190.53 789.42,-197.78 792.26,-191.38"/>
</g>
<!-- Node28 -->
<g id="node28" class="node">
<title>Node28</title>
<g id="a_node28"><a xlink:title=" ">
<polygon fill="#e0e0e0" stroke="#999999" points="929,-189.5 801,-189.5 801,-170.5 929,-170.5 929,-189.5"/>
<text text-anchor="middle" x="865" y="-177.5" font-family="Helvetica,sans-Serif" font-size="10.00">boost/functional/hash.hpp</text>
</a>
</g>
</g>
<!-- Node26&#45;&gt;Node28 -->
<g id="edge40" class="edge">
<title>Node26&#45;&gt;Node28</title>
<path fill="none" stroke="#63b8ff" d="M957.45,-230.62C940,-221.25 912.25,-206.36 891.71,-195.33"/>
<polygon fill="#63b8ff" stroke="#63b8ff" points="893.51,-192.33 883.04,-190.68 890.2,-198.5 893.51,-192.33"/>
</g>
<!-- Node29 -->
<g id="node29" class="node">
<title>Node29</title>
<g id="a_node29"><a xlink:href="hexutil_8hpp.html" target="_top" xlink:title=" ">
<polygon fill="white" stroke="#666666" points="1143,-189.5 1057,-189.5 1057,-170.5 1143,-170.5 1143,-189.5"/>
<text text-anchor="middle" x="1100" y="-177.5" font-family="Helvetica,sans-Serif" font-size="10.00">base/hexutil.hpp</text>
</a>
</g>
</g>
<!-- Node26&#45;&gt;Node29 -->
<g id="edge41" class="edge">
<title>Node26&#45;&gt;Node29</title>
<path fill="none" stroke="#63b8ff" d="M993.14,-230.62C1013.67,-221.08 1046.56,-205.81 1070.43,-194.73"/>
<polygon fill="#63b8ff" stroke="#63b8ff" points="1071.71,-197.99 1079.31,-190.61 1068.77,-191.64 1071.71,-197.99"/>
</g>
<!-- Node30 -->
<g id="node30" class="node">
<title>Node30</title>
<g id="a_node30"><a xlink:title=" ">
<polygon fill="#e0e0e0" stroke="#999999" points="1001,-189.5 947,-189.5 947,-170.5 1001,-170.5 1001,-189.5"/>
<text text-anchor="middle" x="974" y="-177.5" font-family="Helvetica,sans-Serif" font-size="10.00">iostream</text>
</a>
</g>
</g>
<!-- Node26&#45;&gt;Node30 -->
<g id="edge46" class="edge">
<title>Node26&#45;&gt;Node30</title>
<path fill="none" stroke="#63b8ff" d="M974,-230.87C974,-223 974,-211.1 974,-200.89"/>
<polygon fill="#63b8ff" stroke="#63b8ff" points="977.5,-201.18 974,-191.18 970.5,-201.18 977.5,-201.18"/>
</g>
<!-- Node29&#45;&gt;Node5 -->
<g id="edge44" class="edge">
<title>Node29&#45;&gt;Node5</title>
<path fill="none" stroke="#63b8ff" d="M1065.52,-170.12C1023.85,-159.38 953.97,-141.37 910.84,-130.25"/>
<polygon fill="#63b8ff" stroke="#63b8ff" points="911.99,-126.93 901.43,-127.83 910.24,-133.71 911.99,-126.93"/>
</g>
<!-- Node29&#45;&gt;Node7 -->
<g id="edge42" class="edge">
<title>Node29&#45;&gt;Node7</title>
<path fill="none" stroke="#63b8ff" d="M1122.63,-170.12C1147.35,-160.41 1187.21,-144.76 1215.54,-133.64"/>
<polygon fill="#63b8ff" stroke="#63b8ff" points="1216.72,-136.93 1224.75,-130.02 1214.16,-130.42 1216.72,-136.93"/>
</g>
<!-- Node29&#45;&gt;Node8 -->
<g id="edge43" class="edge">
<title>Node29&#45;&gt;Node8</title>
<path fill="none" stroke="#63b8ff" d="M1108.41,-170.37C1116.91,-161.64 1130.27,-147.93 1140.83,-137.09"/>
<polygon fill="#63b8ff" stroke="#63b8ff" points="1143.03,-139.86 1147.5,-130.25 1138.01,-134.97 1143.03,-139.86"/>
</g>
<!-- Node29&#45;&gt;Node11 -->
<g id="edge45" class="edge">
<title>Node29&#45;&gt;Node11</title>
<path fill="none" stroke="#63b8ff" d="M1080.32,-170.01C1046.1,-154.81 973.04,-124.31 908,-110 754.67,-76.27 569.76,-67.95 472.12,-66"/>
<polygon fill="#63b8ff" stroke="#63b8ff" points="472.22,-62.5 462.16,-65.82 472.1,-69.5 472.22,-62.5"/>
</g>
<!-- Node32&#45;&gt;Node14 -->
<g id="edge50" class="edge">
<title>Node32&#45;&gt;Node14</title>
<path fill="none" stroke="#63b8ff" d="M809.93,-359.18C764.07,-352.44 700.55,-339.58 649,-316 591.2,-289.56 591.02,-259.07 534,-231 481.75,-205.28 463.01,-214.12 408,-195 407.05,-194.67 406.09,-194.33 405.12,-193.98"/>
<polygon fill="#63b8ff" stroke="#63b8ff" points="406.72,-190.84 396.13,-190.51 404.2,-197.37 406.72,-190.84"/>
</g>
<!-- Node32&#45;&gt;Node24 -->
<g id="edge60" class="edge">
<title>Node32&#45;&gt;Node24</title>
<path fill="none" stroke="#63b8ff" d="M838.46,-351.64C818.01,-342.61 791.39,-330.86 769.18,-321.06"/>
<polygon fill="#63b8ff" stroke="#63b8ff" points="770.63,-317.87 760.07,-317.04 767.8,-324.28 770.63,-317.87"/>
</g>
<!-- Node33 -->
<g id="node33" class="node">
<title>Node33</title>
<g id="a_node33"><a xlink:title=" ">
<polygon fill="#e0e0e0" stroke="#999999" points="1058,-310.5 1008,-310.5 1008,-291.5 1058,-291.5 1058,-310.5"/>
<text text-anchor="middle" x="1033" y="-298.5" font-family="Helvetica,sans-Serif" font-size="10.00">optional</text>
</a>
</g>
</g>
<!-- Node32&#45;&gt;Node33 -->
<g id="edge51" class="edge">
<title>Node32&#45;&gt;Node33</title>
<path fill="none" stroke="#63b8ff" d="M907.98,-351.5C933.33,-341.55 967.72,-328.02 998,-316 998.78,-315.69 999.56,-315.38 1000.35,-315.07"/>
<polygon fill="#63b8ff" stroke="#63b8ff" points="1001.39,-318.42 1009.38,-311.47 998.8,-311.92 1001.39,-318.42"/>
</g>
<!-- Node34 -->
<g id="node34" class="node">
<title>Node34</title>
<g id="a_node34"><a xlink:title=" ">
<polygon fill="#e0e0e0" stroke="#999999" points="989.5,-310.5 948.5,-310.5 948.5,-291.5 989.5,-291.5 989.5,-310.5"/>
<text text-anchor="middle" x="969" y="-298.5" font-family="Helvetica,sans-Serif" font-size="10.00">string</text>
</a>
</g>
</g>
<!-- Node32&#45;&gt;Node34 -->
<g id="edge52" class="edge">
<title>Node32&#45;&gt;Node34</title>
<path fill="none" stroke="#63b8ff" d="M892.75,-351.8C908.63,-341.43 930.1,-327.4 946.21,-316.88"/>
<polygon fill="#63b8ff" stroke="#63b8ff" points="947.73,-320.07 954.19,-311.67 943.9,-314.21 947.73,-320.07"/>
</g>
<!-- Node35 -->
<g id="node35" class="node">
<title>Node35</title>
<g id="a_node35"><a xlink:href="buffer__stream_8hpp.html" target="_top" xlink:title=" ">
<polygon fill="white" stroke="#666666" points="930.5,-316 811.5,-316 811.5,-286 930.5,-286 930.5,-316"/>
<text text-anchor="start" x="819.5" y="-304" font-family="Helvetica,sans-Serif" font-size="10.00">storage/trie/serialization</text>
<text text-anchor="middle" x="871" y="-293" font-family="Helvetica,sans-Serif" font-size="10.00">/buffer_stream.hpp</text>
</a>
</g>
</g>
<!-- Node32&#45;&gt;Node35 -->
<g id="edge53" class="edge">
<title>Node32&#45;&gt;Node35</title>
<path fill="none" stroke="#63b8ff" d="M871,-351.8C871,-344.67 871,-335.82 871,-327.56"/>
<polygon fill="#63b8ff" stroke="#63b8ff" points="874.5,-327.68 871,-317.68 867.5,-327.68 874.5,-327.68"/>
</g>
<!-- Node36 -->
<g id="node36" class="node">
<title>Node36</title>
<g id="a_node36"><a xlink:href="codec_8hpp.html" target="_top" xlink:title=" ">
<polygon fill="white" stroke="#666666" points="1189.5,-310.5 1076.5,-310.5 1076.5,-291.5 1189.5,-291.5 1189.5,-310.5"/>
<text text-anchor="middle" x="1133" y="-298.5" font-family="Helvetica,sans-Serif" font-size="10.00">storage/trie/codec.hpp</text>
</a>
</g>
</g>
<!-- Node32&#45;&gt;Node36 -->
<g id="edge56" class="edge">
<title>Node32&#45;&gt;Node36</title>
<path fill="none" stroke="#63b8ff" d="M930.12,-351.56C976.95,-340.12 1041.53,-324.34 1085.15,-313.69"/>
<polygon fill="#63b8ff" stroke="#63b8ff" points="1085.95,-317.1 1094.84,-311.32 1084.29,-310.3 1085.95,-317.1"/>
</g>
<!-- Node35&#45;&gt;Node5 -->
<g id="edge54" class="edge">
<title>Node35&#45;&gt;Node5</title>
<path fill="none" stroke="#63b8ff" d="M880.72,-285.53C889.54,-270.4 899.42,-246.73 887,-231 844.24,-176.85 778.76,-249.15 736,-195 727.74,-184.54 728.16,-175.79 736,-165 758.39,-134.19 802.63,-124.29 834.79,-121.32"/>
<polygon fill="#63b8ff" stroke="#63b8ff" points="834.8,-124.83 844.52,-120.63 834.3,-117.85 834.8,-124.83"/>
</g>
<!-- Node35&#45;&gt;Node6 -->
<g id="edge55" class="edge">
<title>Node35&#45;&gt;Node6</title>
<path fill="none" stroke="#63b8ff" d="M930.67,-287.56C933.49,-287.02 936.27,-286.5 939,-286 1017.55,-271.66 1109.01,-257.56 1165.21,-249.2"/>
<polygon fill="#63b8ff" stroke="#63b8ff" points="1165.43,-252.7 1174.81,-247.78 1164.4,-245.78 1165.43,-252.7"/>
</g>
<!-- Node36&#45;&gt;Node6 -->
<g id="edge58" class="edge">
<title>Node36&#45;&gt;Node6</title>
<path fill="none" stroke="#63b8ff" d="M1145.91,-291.12C1159.14,-282.01 1179.97,-267.68 1195.84,-256.75"/>
<polygon fill="#63b8ff" stroke="#63b8ff" points="1197.47,-259.88 1203.72,-251.33 1193.5,-254.11 1197.47,-259.88"/>
</g>
<!-- Node36&#45;&gt;Node26 -->
<g id="edge57" class="edge">
<title>Node36&#45;&gt;Node26</title>
<path fill="none" stroke="#63b8ff" d="M1108.85,-291.12C1082.24,-281.32 1039.19,-265.48 1008.9,-254.34"/>
<polygon fill="#63b8ff" stroke="#63b8ff" points="1010.39,-251.16 999.8,-250.99 1007.97,-257.73 1010.39,-251.16"/>
</g>
<!-- Node36&#45;&gt;Node31 -->
<g id="edge59" class="edge">
<title>Node36&#45;&gt;Node31</title>
<path fill="none" stroke="#63b8ff" d="M1091.49,-291.02C1083.38,-289.31 1074.93,-287.57 1067,-286 1005.96,-273.92 936.04,-261.18 887.1,-252.44"/>
<polygon fill="#63b8ff" stroke="#63b8ff" points="888.01,-249.05 877.56,-250.74 886.79,-255.94 888.01,-249.05"/>
</g>
<!-- Node37&#45;&gt;Node23 -->
<g id="edge62" class="edge">
<title>Node37&#45;&gt;Node23</title>
<path fill="none" stroke="#63b8ff" d="M497.18,-417.77C503.95,-409.52 511.86,-399.87 518.91,-391.27"/>
<polygon fill="#63b8ff" stroke="#63b8ff" points="521.53,-393.6 525.17,-383.64 516.12,-389.16 521.53,-393.6"/>
</g>
<!-- Node40&#45;&gt;Node11 -->
<g id="edge66" class="edge">
<title>Node40&#45;&gt;Node11</title>
<path fill="none" stroke="#63b8ff" d="M122.06,-549.61C68.83,-532.99 0,-499.83 0,-439.5 0,-439.5 0,-439.5 0,-179 0,-109.99 221.23,-80.96 336.27,-70.53"/>
<polygon fill="#63b8ff" stroke="#63b8ff" points="336.24,-74.05 345.89,-69.69 335.62,-67.08 336.24,-74.05"/>
</g>
</g>
</svg>
