<?xml version="1.0" encoding="UTF-8" standalone="no"?>
<!DOCTYPE svg PUBLIC "-//W3C//DTD SVG 1.1//EN"
 "http://www.w3.org/Graphics/SVG/1.1/DTD/svg11.dtd">
<!-- Generated by graphviz version 7.0.5 (20221223.1930)
 -->
<!-- Title: src/transaction_pool/impl/transaction_pool_impl.hpp Pages: 1 -->
<!--zoomable 720 -->
<svg id="main" version="1.1" xmlns="http://www.w3.org/2000/svg" xmlns:xlink="http://www.w3.org/1999/xlink" xml:space="preserve" onload="init(evt)">
<style type="text/css"><![CDATA[
.edge:hover path { stroke: red; }
.edge:hover polygon { stroke: red; fill: red; }
]]></style>
<script type="text/javascript"><![CDATA[
var edges = document.getElementsByTagName('g');
if (edges && edges.length) {
  for (var i=0;i<edges.length;i++) {
    if (edges[i].id.substr(0,4)=='edge') {
      edges[i].setAttribute('class','edge');
    }
  }
}
]]></script>
        <defs>
                <circle id="rim" cx="0" cy="0" r="7"/>
                <circle id="rim2" cx="0" cy="0" r="3.5"/>
                <g id="zoomPlus">
                        <use xlink:href="#rim" fill="#404040">
                                <set attributeName="fill" to="#808080" begin="zoomplus.mouseover" end="zoomplus.mouseout"/>
                        </use>
                        <path d="M-4,0h8M0,-4v8" fill="none" stroke="white" stroke-width="1.5" pointer-events="none"/>
                </g>
                <g id="zoomMin">
                        <use xlink:href="#rim" fill="#404040">
                                <set attributeName="fill" to="#808080" begin="zoomminus.mouseover" end="zoomminus.mouseout"/>
                        </use>
                        <path d="M-4,0h8" fill="none" stroke="white" stroke-width="1.5" pointer-events="none"/>
                </g>
                <g id="dirArrow">
                        <path fill="none" stroke="white" stroke-width="1.5" d="M0,-3.0v7 M-2.5,-0.5L0,-3.0L2.5,-0.5"/>
                </g>
               <g id="resetDef">
                       <use xlink:href="#rim2" fill="#404040">
                               <set attributeName="fill" to="#808080" begin="reset.mouseover" end="reset.mouseout"/>
                       </use>
               </g>
        </defs>

<script type="text/javascript">
var viewWidth = 1101;
var viewHeight = 720;
var sectionId = 'dynsection-0';
</script>
<script xlink:href="svgpan.js"/>
<svg id="graph" class="graph">
<g id="viewport">
<title>src/transaction_pool/impl/transaction_pool_impl.hpp</title>
<!-- Node1 -->
<g id="node1" class="node">
<title>Node1</title>
<g id="a_node1"><a xlink:title=" ">
<polygon fill="#999999" stroke="#666666" points="850,-712 738,-712 738,-671 850,-671 850,-712"/>
<text text-anchor="start" x="746" y="-700" font-family="Helvetica,sans-Serif" font-size="10.00">src/transaction_pool</text>
<text text-anchor="start" x="746" y="-689" font-family="Helvetica,sans-Serif" font-size="10.00">/impl/transaction_pool</text>
<text text-anchor="middle" x="794" y="-678" font-family="Helvetica,sans-Serif" font-size="10.00">_impl.hpp</text>
</a>
</g>
</g>
<!-- Node2 -->
<g id="node2" class="node">
<title>Node2</title>
<g id="a_node2"><a xlink:href="outcome_8hpp.html" target="_top" xlink:title=" ">
<polygon fill="white" stroke="#666666" points="395.5,-79.5 282.5,-79.5 282.5,-60.5 395.5,-60.5 395.5,-79.5"/>
<text text-anchor="middle" x="339" y="-67.5" font-family="Helvetica,sans-Serif" font-size="10.00">outcome/outcome.hpp</text>
</a>
</g>
</g>
<!-- Node1&#45;&gt;Node2 -->
<g id="edge1" class="edge">
<title>Node1&#45;&gt;Node2</title>
<path fill="none" stroke="#63b8ff" d="M737.53,-687.22C556.14,-675.96 0,-635.32 0,-560.5 0,-560.5 0,-560.5 0,-184.5 0,-127.88 172.22,-94.31 271.16,-79.7"/>
<polygon fill="#63b8ff" stroke="#63b8ff" points="271.37,-83.2 280.76,-78.31 270.36,-76.28 271.37,-83.2"/>
</g>
<!-- Node4 -->
<g id="node4" class="node">
<title>Node4</title>
<g id="a_node4"><a xlink:href="block__header__repository_8hpp.html" target="_top" xlink:title=" ">
<polygon fill="white" stroke="#666666" points="578,-635 454,-635 454,-605 578,-605 578,-635"/>
<text text-anchor="start" x="462" y="-623" font-family="Helvetica,sans-Serif" font-size="10.00">blockchain/block_header</text>
<text text-anchor="middle" x="516" y="-612" font-family="Helvetica,sans-Serif" font-size="10.00">_repository.hpp</text>
</a>
</g>
</g>
<!-- Node1&#45;&gt;Node4 -->
<g id="edge3" class="edge">
<title>Node1&#45;&gt;Node4</title>
<path fill="none" stroke="#63b8ff" d="M737.74,-676.44C693.53,-665.38 631.76,-649.94 584.64,-638.16"/>
<polygon fill="#63b8ff" stroke="#63b8ff" points="585.63,-634.8 575.08,-635.77 583.93,-641.59 585.63,-634.8"/>
</g>
<!-- Node32 -->
<g id="node32" class="node">
<title>Node32</title>
<g id="a_node32"><a xlink:href="logger_8hpp.html" target="_top" xlink:title=" ">
<polygon fill="white" stroke="#666666" points="947.5,-629.5 862.5,-629.5 862.5,-610.5 947.5,-610.5 947.5,-629.5"/>
<text text-anchor="middle" x="905" y="-617.5" font-family="Helvetica,sans-Serif" font-size="10.00">base/logger.hpp</text>
</a>
</g>
</g>
<!-- Node1&#45;&gt;Node32 -->
<g id="edge50" class="edge">
<title>Node1&#45;&gt;Node32</title>
<path fill="none" stroke="#63b8ff" d="M825.81,-670.58C843.36,-659.59 864.8,-646.17 880.95,-636.06"/>
<polygon fill="#63b8ff" stroke="#63b8ff" points="882.8,-639.03 889.42,-630.76 879.08,-633.1 882.8,-639.03"/>
</g>
<!-- Node35 -->
<g id="node35" class="node">
<title>Node35</title>
<g id="a_node35"><a xlink:href="pool__moderator_8hpp.html" target="_top" xlink:title=" ">
<polygon fill="white" stroke="#666666" points="886.5,-448 777.5,-448 777.5,-418 886.5,-418 886.5,-448"/>
<text text-anchor="start" x="785.5" y="-436" font-family="Helvetica,sans-Serif" font-size="10.00">transaction_pool/pool</text>
<text text-anchor="middle" x="832" y="-425" font-family="Helvetica,sans-Serif" font-size="10.00">_moderator.hpp</text>
</a>
</g>
</g>
<!-- Node1&#45;&gt;Node35 -->
<g id="edge53" class="edge">
<title>Node1&#45;&gt;Node35</title>
<path fill="none" stroke="#63b8ff" d="M795.26,-670.69C797.84,-633.72 804.65,-551.81 818,-484 819.61,-475.8 821.9,-466.98 824.15,-459.07"/>
<polygon fill="#63b8ff" stroke="#63b8ff" points="827.42,-460.33 826.92,-449.75 820.71,-458.34 827.42,-460.33"/>
</g>
<!-- Node38 -->
<g id="node38" class="node">
<title>Node38</title>
<g id="a_node38"><a xlink:href="transaction__pool_8hpp.html" target="_top" xlink:title=" ">
<polygon fill="white" stroke="#666666" points="1043.5,-448 904.5,-448 904.5,-418 1043.5,-418 1043.5,-448"/>
<text text-anchor="start" x="912.5" y="-436" font-family="Helvetica,sans-Serif" font-size="10.00">transaction_pool/transaction</text>
<text text-anchor="middle" x="974" y="-425" font-family="Helvetica,sans-Serif" font-size="10.00">_pool.hpp</text>
</a>
</g>
</g>
<!-- Node1&#45;&gt;Node38 -->
<g id="edge59" class="edge">
<title>Node1&#45;&gt;Node38</title>
<path fill="none" stroke="#63b8ff" d="M801.57,-670.5C815.37,-634.25 843.87,-560.43 851,-550 877.09,-511.86 917.61,-476.76 944.95,-455.38"/>
<polygon fill="#63b8ff" stroke="#63b8ff" points="947.02,-458.2 952.82,-449.34 942.76,-452.65 947.02,-458.2"/>
</g>
<!-- Node3 -->
<g id="node3" class="node">
<title>Node3</title>
<g id="a_node3"><a xlink:title=" ">
<polygon fill="#e0e0e0" stroke="#999999" points="409.5,-19 268.5,-19 268.5,0 409.5,0 409.5,-19"/>
<text text-anchor="middle" x="339" y="-7" font-family="Helvetica,sans-Serif" font-size="10.00">libp2p/outcome/outcome.hpp</text>
</a>
</g>
</g>
<!-- Node2&#45;&gt;Node3 -->
<g id="edge2" class="edge">
<title>Node2&#45;&gt;Node3</title>
<path fill="none" stroke="#63b8ff" d="M339,-60.37C339,-52.5 339,-40.6 339,-30.39"/>
<polygon fill="#63b8ff" stroke="#63b8ff" points="342.5,-30.68 339,-20.68 335.5,-30.68 342.5,-30.68"/>
</g>
<!-- Node4&#45;&gt;Node2 -->
<g id="edge5" class="edge">
<title>Node4&#45;&gt;Node2</title>
<path fill="none" stroke="#63b8ff" d="M453.88,-618.96C336.77,-615.26 95,-588.88 95,-434 95,-434 95,-434 95,-184.5 95,-106.56 198.62,-82 270.81,-74.35"/>
<polygon fill="#63b8ff" stroke="#63b8ff" points="270.98,-77.85 280.59,-73.41 270.3,-70.88 270.98,-77.85"/>
</g>
<!-- Node5 -->
<g id="node5" class="node">
<title>Node5</title>
<g id="a_node5"><a xlink:title=" ">
<polygon fill="#e0e0e0" stroke="#999999" points="123.5,-569 28.5,-569 28.5,-550 123.5,-550 123.5,-569"/>
<text text-anchor="middle" x="76" y="-557" font-family="Helvetica,sans-Serif" font-size="10.00">boost/optional.hpp</text>
</a>
</g>
</g>
<!-- Node4&#45;&gt;Node5 -->
<g id="edge4" class="edge">
<title>Node4&#45;&gt;Node5</title>
<path fill="none" stroke="#63b8ff" d="M453.78,-610.86C378.86,-601.04 249.2,-583.98 138,-569 136.99,-568.86 135.97,-568.73 134.94,-568.59"/>
<polygon fill="#63b8ff" stroke="#63b8ff" points="135.6,-565.15 125.22,-567.27 134.66,-572.08 135.6,-565.15"/>
</g>
<!-- Node6 -->
<g id="node6" class="node">
<title>Node6</title>
<g id="a_node6"><a xlink:href="blob_8hpp.html" target="_top" xlink:title=" ">
<polygon fill="white" stroke="#666666" points="736.5,-195 659.5,-195 659.5,-176 736.5,-176 736.5,-195"/>
<text text-anchor="middle" x="698" y="-183" font-family="Helvetica,sans-Serif" font-size="10.00">base/blob.hpp</text>
</a>
</g>
</g>
<!-- Node4&#45;&gt;Node6 -->
<g id="edge6" class="edge">
<title>Node4&#45;&gt;Node6</title>
<path fill="none" stroke="#63b8ff" d="M578.24,-607.99C635.3,-593.88 711,-563.26 711,-500 711,-500 711,-500 711,-432 711,-348.25 703.36,-248.64 699.79,-206.7"/>
<polygon fill="#63b8ff" stroke="#63b8ff" points="703.3,-206.58 698.94,-196.92 696.32,-207.18 703.3,-206.58"/>
</g>
<!-- Node14 -->
<g id="node14" class="node">
<title>Node14</title>
<g id="a_node14"><a xlink:href="block__header_8hpp.html" target="_top" xlink:title=" ">
<polygon fill="white" stroke="#666666" points="424.5,-569 287.5,-569 287.5,-550 424.5,-550 424.5,-569"/>
<text text-anchor="middle" x="356" y="-557" font-family="Helvetica,sans-Serif" font-size="10.00">primitives/block_header.hpp</text>
</a>
</g>
</g>
<!-- Node4&#45;&gt;Node14 -->
<g id="edge15" class="edge">
<title>Node4&#45;&gt;Node14</title>
<path fill="none" stroke="#63b8ff" d="M476.45,-604.54C450.17,-594.93 415.99,-582.43 390.75,-573.21"/>
<polygon fill="#63b8ff" stroke="#63b8ff" points="392.21,-570.01 381.62,-569.87 389.81,-576.59 392.21,-570.01"/>
</g>
<!-- Node31 -->
<g id="node31" class="node">
<title>Node31</title>
<g id="a_node31"><a xlink:href="block__id_8hpp.html" target="_top" xlink:title=" ">
<polygon fill="white" stroke="#666666" points="855,-376.5 739,-376.5 739,-357.5 855,-357.5 855,-376.5"/>
<text text-anchor="middle" x="797" y="-364.5" font-family="Helvetica,sans-Serif" font-size="10.00">primitives/block_id.hpp</text>
</a>
</g>
</g>
<!-- Node4&#45;&gt;Node31 -->
<g id="edge46" class="edge">
<title>Node4&#45;&gt;Node31</title>
<path fill="none" stroke="#63b8ff" d="M578.44,-611.1C632.14,-603.07 704.16,-588.97 725,-569 775.38,-520.72 740.73,-482.23 768,-418 772.62,-407.11 779.14,-395.65 784.82,-386.45"/>
<polygon fill="#63b8ff" stroke="#63b8ff" points="787.7,-388.45 790.13,-378.14 781.8,-384.68 787.7,-388.45"/>
</g>
<!-- Node7 -->
<g id="node7" class="node">
<title>Node7</title>
<g id="a_node7"><a xlink:title=" ">
<polygon fill="#e0e0e0" stroke="#999999" points="742,-140 704,-140 704,-121 742,-121 742,-140"/>
<text text-anchor="middle" x="723" y="-128" font-family="Helvetica,sans-Serif" font-size="10.00">array</text>
</a>
</g>
</g>
<!-- Node6&#45;&gt;Node7 -->
<g id="edge7" class="edge">
<title>Node6&#45;&gt;Node7</title>
<path fill="none" stroke="#63b8ff" d="M702.13,-175.75C705.33,-168.96 709.89,-159.3 713.93,-150.73"/>
<polygon fill="#63b8ff" stroke="#63b8ff" points="717.04,-152.35 718.14,-141.81 710.7,-149.36 717.04,-152.35"/>
</g>
<!-- Node8 -->
<g id="node8" class="node">
<title>Node8</title>
<g id="a_node8"><a xlink:title=" ">
<polygon fill="#e0e0e0" stroke="#999999" points="614,-140 486,-140 486,-121 614,-121 614,-140"/>
<text text-anchor="middle" x="550" y="-128" font-family="Helvetica,sans-Serif" font-size="10.00">boost/functional/hash.hpp</text>
</a>
</g>
</g>
<!-- Node6&#45;&gt;Node8 -->
<g id="edge8" class="edge">
<title>Node6&#45;&gt;Node8</title>
<path fill="none" stroke="#63b8ff" d="M672.89,-175.51C648.83,-166.89 612.28,-153.8 585.29,-144.14"/>
<polygon fill="#63b8ff" stroke="#63b8ff" points="586.75,-140.94 576.16,-140.87 584.39,-147.53 586.75,-140.94"/>
</g>
<!-- Node9 -->
<g id="node9" class="node">
<title>Node9</title>
<g id="a_node9"><a xlink:href="hexutil_8hpp.html" target="_top" xlink:title=" ">
<polygon fill="white" stroke="#666666" points="884,-140 798,-140 798,-121 884,-121 884,-140"/>
<text text-anchor="middle" x="841" y="-128" font-family="Helvetica,sans-Serif" font-size="10.00">base/hexutil.hpp</text>
</a>
</g>
</g>
<!-- Node6&#45;&gt;Node9 -->
<g id="edge9" class="edge">
<title>Node6&#45;&gt;Node9</title>
<path fill="none" stroke="#63b8ff" d="M722.26,-175.51C745.41,-166.93 780.51,-153.92 806.56,-144.27"/>
<polygon fill="#63b8ff" stroke="#63b8ff" points="807.52,-147.64 815.68,-140.88 805.09,-141.08 807.52,-147.64"/>
</g>
<!-- Node13 -->
<g id="node13" class="node">
<title>Node13</title>
<g id="a_node13"><a xlink:title=" ">
<polygon fill="#e0e0e0" stroke="#999999" points="686,-140 632,-140 632,-121 686,-121 686,-140"/>
<text text-anchor="middle" x="659" y="-128" font-family="Helvetica,sans-Serif" font-size="10.00">iostream</text>
</a>
</g>
</g>
<!-- Node6&#45;&gt;Node13 -->
<g id="edge14" class="edge">
<title>Node6&#45;&gt;Node13</title>
<path fill="none" stroke="#63b8ff" d="M691.56,-175.75C686.34,-168.66 678.81,-158.42 672.31,-149.59"/>
<polygon fill="#63b8ff" stroke="#63b8ff" points="675.22,-147.64 666.48,-141.66 669.58,-151.79 675.22,-147.64"/>
</g>
<!-- Node9&#45;&gt;Node2 -->
<g id="edge13" class="edge">
<title>Node9&#45;&gt;Node2</title>
<path fill="none" stroke="#63b8ff" d="M797.76,-122.87C793.12,-122.21 788.47,-121.58 784,-121 637.68,-102.12 600.56,-101.92 454,-85 438.73,-83.24 422.32,-81.28 406.82,-79.4"/>
<polygon fill="#63b8ff" stroke="#63b8ff" points="407.57,-75.96 397.22,-78.23 406.73,-82.91 407.57,-75.96"/>
</g>
<!-- Node10 -->
<g id="node10" class="node">
<title>Node10</title>
<g id="a_node10"><a xlink:title=" ">
<polygon fill="#e0e0e0" stroke="#999999" points="952,-79.5 886,-79.5 886,-60.5 952,-60.5 952,-79.5"/>
<text text-anchor="middle" x="919" y="-67.5" font-family="Helvetica,sans-Serif" font-size="10.00">string_view</text>
</a>
</g>
</g>
<!-- Node9&#45;&gt;Node10 -->
<g id="edge10" class="edge">
<title>Node9&#45;&gt;Node10</title>
<path fill="none" stroke="#63b8ff" d="M852.85,-120.62C864.76,-111.68 883.38,-97.72 897.83,-86.87"/>
<polygon fill="#63b8ff" stroke="#63b8ff" points="899.93,-89.68 905.83,-80.88 895.73,-84.08 899.93,-89.68"/>
</g>
<!-- Node11 -->
<g id="node11" class="node">
<title>Node11</title>
<g id="a_node11"><a xlink:title=" ">
<polygon fill="#e0e0e0" stroke="#999999" points="507,-79.5 463,-79.5 463,-60.5 507,-60.5 507,-79.5"/>
<text text-anchor="middle" x="485" y="-67.5" font-family="Helvetica,sans-Serif" font-size="10.00">vector</text>
</a>
</g>
</g>
<!-- Node9&#45;&gt;Node11 -->
<g id="edge11" class="edge">
<title>Node9&#45;&gt;Node11</title>
<path fill="none" stroke="#63b8ff" d="M797.74,-123.04C793.1,-122.35 788.45,-121.66 784,-121 676.01,-104.95 648.09,-106.27 541,-85 533.56,-83.52 525.62,-81.69 518.13,-79.85"/>
<polygon fill="#63b8ff" stroke="#63b8ff" points="519.25,-76.53 508.7,-77.46 517.53,-83.31 519.25,-76.53"/>
</g>
<!-- Node12 -->
<g id="node12" class="node">
<title>Node12</title>
<g id="a_node12"><a xlink:title=" ">
<polygon fill="#e0e0e0" stroke="#999999" points="867.5,-79.5 814.5,-79.5 814.5,-60.5 867.5,-60.5 867.5,-79.5"/>
<text text-anchor="middle" x="841" y="-67.5" font-family="Helvetica,sans-Serif" font-size="10.00">gsl/span</text>
</a>
</g>
</g>
<!-- Node9&#45;&gt;Node12 -->
<g id="edge12" class="edge">
<title>Node9&#45;&gt;Node12</title>
<path fill="none" stroke="#63b8ff" d="M841,-120.87C841,-113 841,-101.1 841,-90.89"/>
<polygon fill="#63b8ff" stroke="#63b8ff" points="844.5,-91.18 841,-81.18 837.5,-91.18 844.5,-91.18"/>
</g>
<!-- Node14&#45;&gt;Node6 -->
<g id="edge19" class="edge">
<title>Node14&#45;&gt;Node6</title>
<path fill="none" stroke="#63b8ff" d="M424.84,-552.42C463.81,-546.69 512.33,-535.56 551,-514 586.96,-493.95 594.81,-483.3 616,-448 668.03,-361.35 653.72,-327.43 684,-231 686.55,-222.89 689.36,-213.94 691.79,-206.21"/>
<polygon fill="#63b8ff" stroke="#63b8ff" points="695.09,-207.4 694.75,-196.81 688.41,-205.3 695.09,-207.4"/>
</g>
<!-- Node14&#45;&gt;Node11 -->
<g id="edge17" class="edge">
<title>Node14&#45;&gt;Node11</title>
<path fill="none" stroke="#63b8ff" d="M287.23,-552.64C234.82,-546.58 168.88,-534.96 152,-514 143.64,-503.62 151.47,-497.32 152,-484 156.23,-378.41 171,-352.67 171,-247 171,-247 171,-247 171,-184.5 171,-138.76 210.58,-140.41 252,-121 269.96,-112.59 391.7,-88.73 451.7,-77.28"/>
<polygon fill="#63b8ff" stroke="#63b8ff" points="452.17,-80.76 461.34,-75.45 450.87,-73.88 452.17,-80.76"/>
</g>
<!-- Node15 -->
<g id="node15" class="node">
<title>Node15</title>
<g id="a_node15"><a xlink:title=" ">
<polygon fill="#e0e0e0" stroke="#999999" points="417,-508.5 355,-508.5 355,-489.5 417,-489.5 417,-508.5"/>
<text text-anchor="middle" x="386" y="-496.5" font-family="Helvetica,sans-Serif" font-size="10.00">type_traits</text>
</a>
</g>
</g>
<!-- Node14&#45;&gt;Node15 -->
<g id="edge16" class="edge">
<title>Node14&#45;&gt;Node15</title>
<path fill="none" stroke="#63b8ff" d="M360.43,-549.87C364.59,-541.75 370.97,-529.31 376.32,-518.89"/>
<polygon fill="#63b8ff" stroke="#63b8ff" points="379.42,-520.51 380.86,-510.01 373.19,-517.32 379.42,-520.51"/>
</g>
<!-- Node16 -->
<g id="node16" class="node">
<title>Node16</title>
<g id="a_node16"><a xlink:title=" ">
<polygon fill="#e0e0e0" stroke="#999999" points="341,-382 237,-382 237,-352 341,-352 341,-382"/>
<text text-anchor="start" x="245" y="-370" font-family="Helvetica,sans-Serif" font-size="10.00">boost/multiprecision</text>
<text text-anchor="middle" x="289" y="-359" font-family="Helvetica,sans-Serif" font-size="10.00">/cpp_int.hpp</text>
</a>
</g>
</g>
<!-- Node14&#45;&gt;Node16 -->
<g id="edge18" class="edge">
<title>Node14&#45;&gt;Node16</title>
<path fill="none" stroke="#63b8ff" d="M344.11,-549.66C334.12,-541.54 320.33,-528.59 313,-514 293.44,-475.06 289.26,-423.63 288.67,-393.35"/>
<polygon fill="#63b8ff" stroke="#63b8ff" points="292.17,-393.62 288.61,-383.64 285.17,-393.66 292.17,-393.62"/>
</g>
<!-- Node17 -->
<g id="node17" class="node">
<title>Node17</title>
<g id="a_node17"><a xlink:href="src_2primitives_2common_8hpp.html" target="_top" xlink:title=" ">
<polygon fill="white" stroke="#666666" points="590.5,-316 473.5,-316 473.5,-297 590.5,-297 590.5,-316"/>
<text text-anchor="middle" x="532" y="-304" font-family="Helvetica,sans-Serif" font-size="10.00">primitives/common.hpp</text>
</a>
</g>
</g>
<!-- Node14&#45;&gt;Node17 -->
<g id="edge20" class="edge">
<title>Node14&#45;&gt;Node17</title>
<path fill="none" stroke="#63b8ff" d="M351.8,-549.78C340.94,-525.85 314.9,-458.25 346,-418 384.75,-367.84 432.66,-419.18 484,-382 503.24,-368.07 516.73,-343.85 524.41,-326.81"/>
<polygon fill="#63b8ff" stroke="#63b8ff" points="527.56,-328.35 528.21,-317.78 521.1,-325.64 527.56,-328.35"/>
</g>
<!-- Node21 -->
<g id="node21" class="node">
<title>Node21</title>
<g id="a_node21"><a xlink:href="compact__integer_8hpp.html" target="_top" xlink:title=" ">
<polygon fill="white" stroke="#666666" points="260.5,-514 161.5,-514 161.5,-484 260.5,-484 260.5,-514"/>
<text text-anchor="start" x="169.5" y="-502" font-family="Helvetica,sans-Serif" font-size="10.00">primitives/compact</text>
<text text-anchor="middle" x="211" y="-491" font-family="Helvetica,sans-Serif" font-size="10.00">_integer.hpp</text>
</a>
</g>
</g>
<!-- Node14&#45;&gt;Node21 -->
<g id="edge25" class="edge">
<title>Node14&#45;&gt;Node21</title>
<path fill="none" stroke="#63b8ff" d="M333.98,-549.62C313.74,-541.45 283.07,-529.08 257.43,-518.73"/>
<polygon fill="#63b8ff" stroke="#63b8ff" points="258.78,-515.5 248.19,-515.01 256.16,-521.99 258.78,-515.5"/>
</g>
<!-- Node23 -->
<g id="node23" class="node">
<title>Node23</title>
<g id="a_node23"><a xlink:href="digest_8hpp.html" target="_top" xlink:title=" ">
<polygon fill="white" stroke="#666666" points="542,-508.5 436,-508.5 436,-489.5 542,-489.5 542,-508.5"/>
<text text-anchor="middle" x="489" y="-496.5" font-family="Helvetica,sans-Serif" font-size="10.00">primitives/digest.hpp</text>
</a>
</g>
</g>
<!-- Node14&#45;&gt;Node23 -->
<g id="edge30" class="edge">
<title>Node14&#45;&gt;Node23</title>
<path fill="none" stroke="#63b8ff" d="M376.2,-549.62C397.98,-540.04 432.9,-524.68 458.12,-513.58"/>
<polygon fill="#63b8ff" stroke="#63b8ff" points="459.48,-516.81 467.22,-509.58 456.66,-510.4 459.48,-516.81"/>
</g>
<!-- Node18 -->
<g id="node18" class="node">
<title>Node18</title>
<g id="a_node18"><a xlink:title=" ">
<polygon fill="#e0e0e0" stroke="#999999" points="408,-255.5 362,-255.5 362,-236.5 408,-236.5 408,-255.5"/>
<text text-anchor="middle" x="385" y="-243.5" font-family="Helvetica,sans-Serif" font-size="10.00">cstdint</text>
</a>
</g>
</g>
<!-- Node17&#45;&gt;Node18 -->
<g id="edge21" class="edge">
<title>Node17&#45;&gt;Node18</title>
<path fill="none" stroke="#63b8ff" d="M509.67,-296.62C485.28,-286.91 445.96,-271.26 418.01,-260.14"/>
<polygon fill="#63b8ff" stroke="#63b8ff" points="419.53,-256.97 408.94,-256.53 416.94,-263.48 419.53,-256.97"/>
</g>
<!-- Node19 -->
<g id="node19" class="node">
<title>Node19</title>
<g id="a_node19"><a xlink:title=" ">
<polygon fill="#e0e0e0" stroke="#999999" points="652,-79.5 550,-79.5 550,-60.5 652,-60.5 652,-79.5"/>
<text text-anchor="middle" x="601" y="-67.5" font-family="Helvetica,sans-Serif" font-size="10.00">boost/operators.hpp</text>
</a>
</g>
</g>
<!-- Node17&#45;&gt;Node19 -->
<g id="edge22" class="edge">
<title>Node17&#45;&gt;Node19</title>
<path fill="none" stroke="#63b8ff" d="M524.49,-296.63C501.69,-268.55 437.17,-180.01 477,-121 491.01,-100.24 515.25,-88.1 538.59,-81"/>
<polygon fill="#63b8ff" stroke="#63b8ff" points="539.39,-84.4 548.11,-78.39 537.54,-77.65 539.39,-84.4"/>
</g>
<!-- Node20 -->
<g id="node20" class="node">
<title>Node20</title>
<g id="a_node20"><a xlink:href="session__key_8hpp.html" target="_top" xlink:title=" ">
<polygon fill="white" stroke="#666666" points="607.5,-261 512.5,-261 512.5,-231 607.5,-231 607.5,-261"/>
<text text-anchor="start" x="520.5" y="-249" font-family="Helvetica,sans-Serif" font-size="10.00">primitives/session</text>
<text text-anchor="middle" x="560" y="-238" font-family="Helvetica,sans-Serif" font-size="10.00">_key.hpp</text>
</a>
</g>
</g>
<!-- Node17&#45;&gt;Node20 -->
<g id="edge23" class="edge">
<title>Node17&#45;&gt;Node20</title>
<path fill="none" stroke="#63b8ff" d="M536.13,-296.87C539.37,-290.11 544.04,-280.35 548.39,-271.26"/>
<polygon fill="#63b8ff" stroke="#63b8ff" points="551.43,-273.01 552.59,-262.48 545.12,-269.99 551.43,-273.01"/>
</g>
<!-- Node20&#45;&gt;Node6 -->
<g id="edge24" class="edge">
<title>Node20&#45;&gt;Node6</title>
<path fill="none" stroke="#63b8ff" d="M594.11,-230.54C616.27,-221.15 644.94,-208.99 666.55,-199.83"/>
<polygon fill="#63b8ff" stroke="#63b8ff" points="667.9,-203.06 675.74,-195.94 665.17,-196.62 667.9,-203.06"/>
</g>
<!-- Node22 -->
<g id="node22" class="node">
<title>Node22</title>
<g id="a_node22"><a xlink:href="scale_2types_8hpp.html" target="_top" xlink:title=" ">
<polygon fill="white" stroke="#666666" points="252,-442.5 168,-442.5 168,-423.5 252,-423.5 252,-442.5"/>
<text text-anchor="middle" x="210" y="-430.5" font-family="Helvetica,sans-Serif" font-size="10.00">scale/types.hpp</text>
</a>
</g>
</g>
<!-- Node21&#45;&gt;Node22 -->
<g id="edge26" class="edge">
<title>Node21&#45;&gt;Node22</title>
<path fill="none" stroke="#63b8ff" d="M210.78,-483.8C210.64,-475.09 210.47,-463.81 210.32,-454.18"/>
<polygon fill="#63b8ff" stroke="#63b8ff" points="213.82,-454.3 210.16,-444.36 206.82,-454.41 213.82,-454.3"/>
</g>
<!-- Node22&#45;&gt;Node2 -->
<g id="edge29" class="edge">
<title>Node22&#45;&gt;Node2</title>
<path fill="none" stroke="#63b8ff" d="M203.44,-423.3C184.81,-397.74 133,-320.06 133,-247 133,-247 133,-247 133,-184.5 133,-154.33 134.69,-141.32 157,-121 187.85,-92.9 233.03,-80.39 270.66,-74.9"/>
<polygon fill="#63b8ff" stroke="#63b8ff" points="271.11,-78.38 280.57,-73.61 270.2,-71.43 271.11,-78.38"/>
</g>
<!-- Node22&#45;&gt;Node11 -->
<g id="edge27" class="edge">
<title>Node22&#45;&gt;Node11</title>
<path fill="none" stroke="#63b8ff" d="M209.88,-423.25C209.62,-402.92 209,-350.95 209,-307.5 209,-307.5 209,-307.5 209,-184.5 209,-132.49 378.74,-92.25 451.99,-77.31"/>
<polygon fill="#63b8ff" stroke="#63b8ff" points="452.28,-80.82 461.4,-75.43 450.9,-73.96 452.28,-80.82"/>
</g>
<!-- Node22&#45;&gt;Node16 -->
<g id="edge28" class="edge">
<title>Node22&#45;&gt;Node16</title>
<path fill="none" stroke="#63b8ff" d="M220.98,-423.1C231.63,-414.48 248.18,-401.07 262.29,-389.63"/>
<polygon fill="#63b8ff" stroke="#63b8ff" points="264.39,-392.44 269.95,-383.43 259.98,-387.01 264.39,-392.44"/>
</g>
<!-- Node24 -->
<g id="node24" class="node">
<title>Node24</title>
<g id="a_node24"><a xlink:title=" ">
<polygon fill="#e0e0e0" stroke="#999999" points="855.5,-316 764.5,-316 764.5,-297 855.5,-297 855.5,-316"/>
<text text-anchor="middle" x="810" y="-304" font-family="Helvetica,sans-Serif" font-size="10.00">boost/variant.hpp</text>
</a>
</g>
</g>
<!-- Node23&#45;&gt;Node24 -->
<g id="edge31" class="edge">
<title>Node23&#45;&gt;Node24</title>
<path fill="none" stroke="#63b8ff" d="M488.55,-489.09C488.23,-472.88 489.89,-438.38 508,-418 571.29,-346.8 684.37,-321.42 752.76,-312.41"/>
<polygon fill="#63b8ff" stroke="#63b8ff" points="753.16,-315.89 762.66,-311.2 752.3,-308.94 753.16,-315.89"/>
</g>
<!-- Node25 -->
<g id="node25" class="node">
<title>Node25</title>
<g id="a_node25"><a xlink:href="buffer_8hpp.html" target="_top" xlink:title=" ">
<polygon fill="white" stroke="#666666" points="985.5,-140 902.5,-140 902.5,-121 985.5,-121 985.5,-140"/>
<text text-anchor="middle" x="944" y="-128" font-family="Helvetica,sans-Serif" font-size="10.00">base/buffer.hpp</text>
</a>
</g>
</g>
<!-- Node23&#45;&gt;Node25 -->
<g id="edge32" class="edge">
<title>Node23&#45;&gt;Node25</title>
<path fill="none" stroke="#63b8ff" d="M523.39,-489.07C550.17,-481.07 587.46,-467.56 616,-448 691.24,-396.43 689.7,-360.69 755,-297 814.07,-239.38 889.07,-176.52 924.18,-147.65"/>
<polygon fill="#63b8ff" stroke="#63b8ff" points="926.29,-150.44 931.81,-141.4 921.86,-145.03 926.29,-150.44"/>
</g>
<!-- Node27 -->
<g id="node27" class="node">
<title>Node27</title>
<g id="a_node27"><a xlink:href="unused_8hpp.html" target="_top" xlink:title=" ">
<polygon fill="white" stroke="#666666" points="607,-442.5 517,-442.5 517,-423.5 607,-423.5 607,-442.5"/>
<text text-anchor="middle" x="562" y="-430.5" font-family="Helvetica,sans-Serif" font-size="10.00">base/unused.hpp</text>
</a>
</g>
</g>
<!-- Node23&#45;&gt;Node27 -->
<g id="edge39" class="edge">
<title>Node23&#45;&gt;Node27</title>
<path fill="none" stroke="#63b8ff" d="M499.15,-489.1C510.59,-479.07 529.43,-462.56 543.5,-450.22"/>
<polygon fill="#63b8ff" stroke="#63b8ff" points="545.59,-453.05 550.8,-443.82 540.97,-447.78 545.59,-453.05"/>
</g>
<!-- Node28 -->
<g id="node28" class="node">
<title>Node28</title>
<g id="a_node28"><a xlink:href="scheduled__change_8hpp.html" target="_top" xlink:title=" ">
<polygon fill="white" stroke="#666666" points="461,-448 355,-448 355,-418 461,-418 461,-448"/>
<text text-anchor="start" x="363" y="-436" font-family="Helvetica,sans-Serif" font-size="10.00">primitives/scheduled</text>
<text text-anchor="middle" x="408" y="-425" font-family="Helvetica,sans-Serif" font-size="10.00">_change.hpp</text>
</a>
</g>
</g>
<!-- Node23&#45;&gt;Node28 -->
<g id="edge40" class="edge">
<title>Node23&#45;&gt;Node28</title>
<path fill="none" stroke="#63b8ff" d="M477.74,-489.1C466.72,-480.4 449.53,-466.81 434.97,-455.31"/>
<polygon fill="#63b8ff" stroke="#63b8ff" points="437.53,-452.87 427.51,-449.42 433.19,-458.36 437.53,-452.87"/>
</g>
<!-- Node25&#45;&gt;Node2 -->
<g id="edge38" class="edge">
<title>Node25&#45;&gt;Node2</title>
<path fill="none" stroke="#63b8ff" d="M902.02,-122.22C898.97,-121.78 895.94,-121.36 893,-121 698.72,-96.89 648.76,-104.83 454,-85 438.78,-83.45 422.46,-81.59 407.03,-79.73"/>
<polygon fill="#63b8ff" stroke="#63b8ff" points="407.83,-76.3 397.48,-78.57 406.99,-83.25 407.83,-76.3"/>
</g>
<!-- Node25&#45;&gt;Node10 -->
<g id="edge33" class="edge">
<title>Node25&#45;&gt;Node10</title>
<path fill="none" stroke="#63b8ff" d="M940.31,-120.87C936.88,-112.83 931.64,-100.57 927.21,-90.22"/>
<polygon fill="#63b8ff" stroke="#63b8ff" points="930.45,-88.88 923.3,-81.06 924.01,-91.63 930.45,-88.88"/>
</g>
<!-- Node25&#45;&gt;Node11 -->
<g id="edge34" class="edge">
<title>Node25&#45;&gt;Node11</title>
<path fill="none" stroke="#63b8ff" d="M902.01,-122.29C898.96,-121.83 895.94,-121.39 893,-121 737.14,-100.06 695.9,-112.14 541,-85 533.68,-83.72 525.9,-82 518.55,-80.21"/>
<polygon fill="#63b8ff" stroke="#63b8ff" points="519.48,-76.84 508.92,-77.77 517.75,-83.63 519.48,-76.84"/>
</g>
<!-- Node25&#45;&gt;Node12 -->
<g id="edge37" class="edge">
<title>Node25&#45;&gt;Node12</title>
<path fill="none" stroke="#63b8ff" d="M928.36,-120.62C912.02,-111.34 886.13,-96.63 866.77,-85.64"/>
<polygon fill="#63b8ff" stroke="#63b8ff" points="868.53,-82.61 858.11,-80.72 865.07,-88.7 868.53,-82.61"/>
</g>
<!-- Node25&#45;&gt;Node19 -->
<g id="edge36" class="edge">
<title>Node25&#45;&gt;Node19</title>
<path fill="none" stroke="#63b8ff" d="M902.28,-122.39C842.75,-112.23 732.98,-93.51 663.65,-81.69"/>
<polygon fill="#63b8ff" stroke="#63b8ff" points="664.4,-78.26 653.96,-80.03 663.23,-85.16 664.4,-78.26"/>
</g>
<!-- Node26 -->
<g id="node26" class="node">
<title>Node26</title>
<g id="a_node26"><a xlink:title=" ">
<polygon fill="#e0e0e0" stroke="#999999" points="1080,-85 970,-85 970,-55 1080,-55 1080,-85"/>
<text text-anchor="start" x="978" y="-73" font-family="Helvetica,sans-Serif" font-size="10.00">boost/container_hash</text>
<text text-anchor="middle" x="1025" y="-62" font-family="Helvetica,sans-Serif" font-size="10.00">/hash.hpp</text>
</a>
</g>
</g>
<!-- Node25&#45;&gt;Node26 -->
<g id="edge35" class="edge">
<title>Node25&#45;&gt;Node26</title>
<path fill="none" stroke="#63b8ff" d="M956.3,-120.62C966.8,-113.03 982.32,-101.82 995.95,-91.98"/>
<polygon fill="#63b8ff" stroke="#63b8ff" points="997.72,-95.02 1003.78,-86.33 993.62,-89.34 997.72,-95.02"/>
</g>
<!-- Node28&#45;&gt;Node17 -->
<g id="edge45" class="edge">
<title>Node28&#45;&gt;Node17</title>
<path fill="none" stroke="#63b8ff" d="M461.46,-418.76C481.66,-411.17 503.11,-399.55 517,-382 529.15,-366.66 532.26,-344.08 532.72,-327.8"/>
<polygon fill="#63b8ff" stroke="#63b8ff" points="536.22,-327.85 532.66,-317.87 529.22,-327.9 536.22,-327.85"/>
</g>
<!-- Node29 -->
<g id="node29" class="node">
<title>Node29</title>
<g id="a_node29"><a xlink:href="authority_8hpp.html" target="_top" xlink:title=" ">
<polygon fill="white" stroke="#666666" points="475,-376.5 359,-376.5 359,-357.5 475,-357.5 475,-376.5"/>
<text text-anchor="middle" x="417" y="-364.5" font-family="Helvetica,sans-Serif" font-size="10.00">primitives/authority.hpp</text>
</a>
</g>
</g>
<!-- Node28&#45;&gt;Node29 -->
<g id="edge41" class="edge">
<title>Node28&#45;&gt;Node29</title>
<path fill="none" stroke="#63b8ff" d="M410,-417.8C411.22,-409.09 412.81,-397.81 414.16,-388.18"/>
<polygon fill="#63b8ff" stroke="#63b8ff" points="417.62,-388.73 415.55,-378.34 410.69,-387.76 417.62,-388.73"/>
</g>
<!-- Node29&#45;&gt;Node17 -->
<g id="edge44" class="edge">
<title>Node29&#45;&gt;Node17</title>
<path fill="none" stroke="#63b8ff" d="M434.47,-357.12C452.96,-347.71 482.41,-332.72 504.12,-321.68"/>
<polygon fill="#63b8ff" stroke="#63b8ff" points="505.69,-324.81 513.02,-317.15 502.52,-318.57 505.69,-324.81"/>
</g>
<!-- Node29&#45;&gt;Node18 -->
<g id="edge42" class="edge">
<title>Node29&#45;&gt;Node18</title>
<path fill="none" stroke="#63b8ff" d="M409.7,-357.09C402.4,-347.58 391.61,-331.74 387,-316 382.31,-299.97 382.13,-280.95 382.95,-266.94"/>
<polygon fill="#63b8ff" stroke="#63b8ff" points="386.41,-267.48 383.74,-257.22 379.44,-266.9 386.41,-267.48"/>
</g>
<!-- Node30 -->
<g id="node30" class="node">
<title>Node30</title>
<g id="a_node30"><a xlink:title=" ">
<polygon fill="#e0e0e0" stroke="#999999" points="455.5,-316 396.5,-316 396.5,-297 455.5,-297 455.5,-316"/>
<text text-anchor="middle" x="426" y="-304" font-family="Helvetica,sans-Serif" font-size="10.00">functional</text>
</a>
</g>
</g>
<!-- Node29&#45;&gt;Node30 -->
<g id="edge43" class="edge">
<title>Node29&#45;&gt;Node30</title>
<path fill="none" stroke="#63b8ff" d="M418.33,-357.37C419.54,-349.5 421.37,-337.6 422.94,-327.39"/>
<polygon fill="#63b8ff" stroke="#63b8ff" points="426.38,-328.08 424.44,-317.66 419.46,-327.01 426.38,-328.08"/>
</g>
<!-- Node31&#45;&gt;Node6 -->
<g id="edge48" class="edge">
<title>Node31&#45;&gt;Node6</title>
<path fill="none" stroke="#63b8ff" d="M817.44,-357.18C841.84,-345.28 877.72,-322.61 864,-297 837.1,-246.79 776.21,-215.47 736.13,-199.51"/>
<polygon fill="#63b8ff" stroke="#63b8ff" points="737.43,-196.26 726.84,-195.95 734.93,-202.79 737.43,-196.26"/>
</g>
<!-- Node31&#45;&gt;Node17 -->
<g id="edge49" class="edge">
<title>Node31&#45;&gt;Node17</title>
<path fill="none" stroke="#63b8ff" d="M756.46,-357.05C710.09,-346.82 634.07,-330.03 583.54,-318.88"/>
<polygon fill="#63b8ff" stroke="#63b8ff" points="584.53,-315.51 574.01,-316.77 583.02,-322.35 584.53,-315.51"/>
</g>
<!-- Node31&#45;&gt;Node24 -->
<g id="edge47" class="edge">
<title>Node31&#45;&gt;Node24</title>
<path fill="none" stroke="#63b8ff" d="M798.92,-357.37C800.67,-349.5 803.31,-337.6 805.58,-327.39"/>
<polygon fill="#63b8ff" stroke="#63b8ff" points="808.99,-328.17 807.75,-317.64 802.16,-326.65 808.99,-328.17"/>
</g>
<!-- Node33 -->
<g id="node33" class="node">
<title>Node33</title>
<g id="a_node33"><a xlink:title=" ">
<polygon fill="#e0e0e0" stroke="#999999" points="949.5,-569 860.5,-569 860.5,-550 949.5,-550 949.5,-569"/>
<text text-anchor="middle" x="905" y="-557" font-family="Helvetica,sans-Serif" font-size="10.00">spdlog/fmt/ostr.h</text>
</a>
</g>
</g>
<!-- Node32&#45;&gt;Node33 -->
<g id="edge51" class="edge">
<title>Node32&#45;&gt;Node33</title>
<path fill="none" stroke="#63b8ff" d="M905,-610.37C905,-602.5 905,-590.6 905,-580.39"/>
<polygon fill="#63b8ff" stroke="#63b8ff" points="908.5,-580.68 905,-570.68 901.5,-580.68 908.5,-580.68"/>
</g>
<!-- Node34 -->
<g id="node34" class="node">
<title>Node34</title>
<g id="a_node34"><a xlink:title=" ">
<polygon fill="#e0e0e0" stroke="#999999" points="1052,-569 968,-569 968,-550 1052,-550 1052,-569"/>
<text text-anchor="middle" x="1010" y="-557" font-family="Helvetica,sans-Serif" font-size="10.00">spdlog/spdlog.h</text>
</a>
</g>
</g>
<!-- Node32&#45;&gt;Node34 -->
<g id="edge52" class="edge">
<title>Node32&#45;&gt;Node34</title>
<path fill="none" stroke="#63b8ff" d="M920.95,-610.12C937.68,-600.79 964.23,-586 984,-574.99"/>
<polygon fill="#63b8ff" stroke="#63b8ff" points="985.55,-578.13 992.58,-570.21 982.14,-572.01 985.55,-578.13"/>
</g>
<!-- Node35&#45;&gt;Node31 -->
<g id="edge54" class="edge">
<title>Node35&#45;&gt;Node31</title>
<path fill="none" stroke="#63b8ff" d="M824.23,-417.8C819.26,-408.7 812.74,-396.79 807.33,-386.9"/>
<polygon fill="#63b8ff" stroke="#63b8ff" points="810.43,-385.27 802.56,-378.17 804.29,-388.63 810.43,-385.27"/>
</g>
<!-- Node36 -->
<g id="node36" class="node">
<title>Node36</title>
<g id="a_node36"><a xlink:href="transaction_8hpp.html" target="_top" xlink:title=" ">
<polygon fill="white" stroke="#666666" points="1001,-376.5 873,-376.5 873,-357.5 1001,-357.5 1001,-376.5"/>
<text text-anchor="middle" x="937" y="-364.5" font-family="Helvetica,sans-Serif" font-size="10.00">primitives/transaction.hpp</text>
</a>
</g>
</g>
<!-- Node35&#45;&gt;Node36 -->
<g id="edge55" class="edge">
<title>Node35&#45;&gt;Node36</title>
<path fill="none" stroke="#63b8ff" d="M855.56,-417.64C872.65,-407.22 895.68,-393.19 912.89,-382.7"/>
<polygon fill="#63b8ff" stroke="#63b8ff" points="914.25,-385.97 920.97,-377.77 910.6,-379.99 914.25,-385.97"/>
</g>
<!-- Node36&#45;&gt;Node6 -->
<g id="edge56" class="edge">
<title>Node36&#45;&gt;Node6</title>
<path fill="none" stroke="#63b8ff" d="M932.7,-357.29C920.49,-333.46 883.21,-266.58 833,-231 807.8,-213.15 774.99,-202.12 748.02,-195.5"/>
<polygon fill="#63b8ff" stroke="#63b8ff" points="748.86,-192.11 738.33,-193.27 747.29,-198.93 748.86,-192.11"/>
</g>
<!-- Node37 -->
<g id="node37" class="node">
<title>Node37</title>
<g id="a_node37"><a xlink:href="extrinsic_8hpp.html" target="_top" xlink:title=" ">
<polygon fill="white" stroke="#666666" points="1029,-195 913,-195 913,-176 1029,-176 1029,-195"/>
<text text-anchor="middle" x="971" y="-183" font-family="Helvetica,sans-Serif" font-size="10.00">primitives/extrinsic.hpp</text>
</a>
</g>
</g>
<!-- Node36&#45;&gt;Node37 -->
<g id="edge57" class="edge">
<title>Node36&#45;&gt;Node37</title>
<path fill="none" stroke="#63b8ff" d="M938.64,-357.34C943.8,-330.1 959.8,-245.65 967.19,-206.63"/>
<polygon fill="#63b8ff" stroke="#63b8ff" points="970.59,-207.46 969.01,-196.98 963.71,-206.15 970.59,-207.46"/>
</g>
<!-- Node37&#45;&gt;Node25 -->
<g id="edge58" class="edge">
<title>Node37&#45;&gt;Node25</title>
<path fill="none" stroke="#63b8ff" d="M966.54,-175.75C963.05,-168.88 958.05,-159.08 953.65,-150.45"/>
<polygon fill="#63b8ff" stroke="#63b8ff" points="956.9,-149.11 949.24,-141.79 950.66,-152.29 956.9,-149.11"/>
</g>
<!-- Node38&#45;&gt;Node2 -->
<g id="edge60" class="edge">
<title>Node38&#45;&gt;Node2</title>
<path fill="none" stroke="#63b8ff" d="M988.31,-417.55C1002.35,-401.54 1020.28,-374.93 1010,-352 978.47,-281.62 821.28,-152.76 751,-121 629.83,-66.24 586,-101.03 454,-85 438.74,-83.15 422.33,-81.15 406.83,-79.26"/>
<polygon fill="#63b8ff" stroke="#63b8ff" points="407.59,-75.83 397.24,-78.1 406.74,-82.78 407.59,-75.83"/>
</g>
<!-- Node38&#45;&gt;Node31 -->
<g id="edge61" class="edge">
<title>Node38&#45;&gt;Node31</title>
<path fill="none" stroke="#63b8ff" d="M934.28,-417.64C903.73,-406.59 861.91,-391.47 832.47,-380.83"/>
<polygon fill="#63b8ff" stroke="#63b8ff" points="833.87,-377.61 823.27,-377.5 831.49,-384.19 833.87,-377.61"/>
</g>
<!-- Node38&#45;&gt;Node36 -->
<g id="edge62" class="edge">
<title>Node38&#45;&gt;Node36</title>
<path fill="none" stroke="#63b8ff" d="M965.79,-417.8C960.47,-408.6 953.49,-396.53 947.74,-386.58"/>
<polygon fill="#63b8ff" stroke="#63b8ff" points="950.91,-385.06 942.87,-378.15 944.85,-388.56 950.91,-385.06"/>
</g>
<!-- Node39 -->
<g id="node39" class="node">
<title>Node39</title>
<g id="a_node39"><a xlink:title=" ">
<polygon fill="#e0e0e0" stroke="#999999" points="1092.5,-376.5 1057.5,-376.5 1057.5,-357.5 1092.5,-357.5 1092.5,-376.5"/>
<text text-anchor="middle" x="1075" y="-364.5" font-family="Helvetica,sans-Serif" font-size="10.00">map</text>
</a>
</g>
</g>
<!-- Node38&#45;&gt;Node39 -->
<g id="edge63" class="edge">
<title>Node38&#45;&gt;Node39</title>
<path fill="none" stroke="#63b8ff" d="M996.67,-417.64C1012.95,-407.32 1034.84,-393.45 1051.34,-382.99"/>
<polygon fill="#63b8ff" stroke="#63b8ff" points="1052.97,-386.1 1059.54,-377.8 1049.22,-380.19 1052.97,-386.1"/>
</g>
</g>
</svg>
        <g id="navigator" transform="translate(0 0)" fill="#404254">
                <rect fill="#f2f5e9" fill-opacity="0.5" stroke="#606060" stroke-width=".5" x="0" y="0" width="60" height="60"/>
                <use id="zoomplus" xlink:href="#zoomPlus" x="17" y="9" onmousedown="handleZoom(evt,'in')"/>
                <use id="zoomminus" xlink:href="#zoomMin" x="42" y="9" onmousedown="handleZoom(evt,'out')"/>
                <use id="reset" xlink:href="#resetDef" x="30" y="36" onmousedown="handleReset()"/>
                <g id="arrowUp" xlink:href="#dirArrow" transform="translate(30 24)" onmousedown="handlePan(0,-1)">
                  <use xlink:href="#rim" fill="#404040">
                        <set attributeName="fill" to="#808080" begin="arrowUp.mouseover" end="arrowUp.mouseout"/>
                  </use>
                  <path fill="none" stroke="white" stroke-width="1.5" d="M0,-3.0v7 M-2.5,-0.5L0,-3.0L2.5,-0.5"/>
                </g>
                <g id="arrowRight" xlink:href="#dirArrow" transform="rotate(90) translate(36 -43)" onmousedown="handlePan(1,0)">
                  <use xlink:href="#rim" fill="#404040">
                        <set attributeName="fill" to="#808080" begin="arrowRight.mouseover" end="arrowRight.mouseout"/>
                  </use>
                  <path fill="none" stroke="white" stroke-width="1.5" d="M0,-3.0v7 M-2.5,-0.5L0,-3.0L2.5,-0.5"/>
                </g>
                <g id="arrowDown" xlink:href="#dirArrow" transform="rotate(180) translate(-30 -48)" onmousedown="handlePan(0,1)">
                  <use xlink:href="#rim" fill="#404040">
                        <set attributeName="fill" to="#808080" begin="arrowDown.mouseover" end="arrowDown.mouseout"/>
                  </use>
                  <path fill="none" stroke="white" stroke-width="1.5" d="M0,-3.0v7 M-2.5,-0.5L0,-3.0L2.5,-0.5"/>
                </g>
                <g id="arrowLeft" xlink:href="#dirArrow" transform="rotate(270) translate(-36 17)" onmousedown="handlePan(-1,0)">
                  <use xlink:href="#rim" fill="#404040">
                        <set attributeName="fill" to="#808080" begin="arrowLeft.mouseover" end="arrowLeft.mouseout"/>
                  </use>
                  <path fill="none" stroke="white" stroke-width="1.5" d="M0,-3.0v7 M-2.5,-0.5L0,-3.0L2.5,-0.5"/>
                </g>
        </g>
        <svg viewBox="0 0 15 15" width="100%" height="30px" preserveAspectRatio="xMaxYMin meet">
         <g id="arrow_out" transform="scale(0.3 0.3)">
          <a xlink:href="transaction__pool__impl_8hpp__incl_org.svg" target="_base">
           <rect id="button" ry="5" rx="5" y="6" x="6" height="38" width="38"
                fill="#f2f5e9" fill-opacity="0.5" stroke="#606060" stroke-width="1.0"/>
           <path id="arrow"
             d="M 11.500037,31.436501 C 11.940474,20.09759 22.043105,11.32322 32.158766,21.979434 L 37.068811,17.246167 C 37.068811,17.246167 37.088388,32 37.088388,32 L 22.160133,31.978069 C 22.160133,31.978069 26.997745,27.140456 26.997745,27.140456 C 18.528582,18.264221 13.291696,25.230495 11.500037,31.436501 z"
             style="fill:#404040;"/>
          </a>
         </g>
        </svg>
</svg>
