<?xml version="1.0" encoding="UTF-8" standalone="no"?>
<!DOCTYPE svg PUBLIC "-//W3C//DTD SVG 1.1//EN"
 "http://www.w3.org/Graphics/SVG/1.1/DTD/svg11.dtd">
<!-- Generated by graphviz version 7.0.5 (20221223.1930)
 -->
<!-- Title: src/transaction_pool/transaction_pool.hpp Pages: 1 -->
<svg width="949pt" height="489pt"
 viewBox="0.00 0.00 948.50 489.00" xmlns="http://www.w3.org/2000/svg" xmlns:xlink="http://www.w3.org/1999/xlink">
<g id="graph0" class="graph" transform="scale(1 1) rotate(0) translate(4 485)">
<title>src/transaction_pool/transaction_pool.hpp</title>
<!-- Node1 -->
<g id="node1" class="node">
<title>Node1</title>
<g id="a_node1"><a xlink:title=" ">
<polygon fill="#999999" stroke="#666666" points="370,-481 261,-481 261,-451 370,-451 370,-481"/>
<text text-anchor="start" x="269" y="-469" font-family="Helvetica,sans-Serif" font-size="10.00">src/transaction_pool</text>
<text text-anchor="middle" x="315.5" y="-458" font-family="Helvetica,sans-Serif" font-size="10.00">/transaction_pool.hpp</text>
</a>
</g>
</g>
<!-- Node2 -->
<g id="node2" class="node">
<title>Node2</title>
<g id="a_node2"><a xlink:href="author__api__impl_8cpp.html" target="_top" xlink:title=" ">
<polygon fill="white" stroke="#666666" points="127,-409.5 0,-409.5 0,-379.5 127,-379.5 127,-409.5"/>
<text text-anchor="start" x="8" y="-397.5" font-family="Helvetica,sans-Serif" font-size="10.00">src/api/service/author</text>
<text text-anchor="middle" x="63.5" y="-386.5" font-family="Helvetica,sans-Serif" font-size="10.00">/impl/author_api_impl.cpp</text>
</a>
</g>
</g>
<!-- Node1&#45;&gt;Node2 -->
<g id="edge1" class="edge">
<title>Node1&#45;&gt;Node2</title>
<path fill="none" stroke="#63b8ff" d="M252.03,-447.49C210,-435.9 155.53,-420.88 115.95,-409.97"/>
<polygon fill="#63b8ff" stroke="#63b8ff" points="250.95,-450.83 261.52,-450.11 252.81,-444.08 250.95,-450.83"/>
</g>
<!-- Node3 -->
<g id="node3" class="node">
<title>Node3</title>
<g id="a_node3"><a xlink:href="proposer__impl_8hpp.html" target="_top" xlink:title=" ">
<polygon fill="white" stroke="#666666" points="244,-409.5 145,-409.5 145,-379.5 244,-379.5 244,-409.5"/>
<text text-anchor="start" x="153" y="-397.5" font-family="Helvetica,sans-Serif" font-size="10.00">src/authorship/impl</text>
<text text-anchor="middle" x="194.5" y="-386.5" font-family="Helvetica,sans-Serif" font-size="10.00">/proposer_impl.hpp</text>
</a>
</g>
</g>
<!-- Node1&#45;&gt;Node3 -->
<g id="edge2" class="edge">
<title>Node1&#45;&gt;Node3</title>
<path fill="none" stroke="#63b8ff" d="M280.67,-444.99C261.13,-433.77 237.22,-420.04 219.54,-409.88"/>
<polygon fill="#63b8ff" stroke="#63b8ff" points="278.7,-447.9 289.12,-449.85 282.19,-441.83 278.7,-447.9"/>
</g>
<!-- Node20 -->
<g id="node20" class="node">
<title>Node20</title>
<g id="a_node20"><a xlink:href="block__tree__impl_8hpp.html" target="_top" xlink:title=" ">
<polygon fill="white" stroke="#666666" points="368.5,-409.5 262.5,-409.5 262.5,-379.5 368.5,-379.5 368.5,-409.5"/>
<text text-anchor="start" x="270.5" y="-397.5" font-family="Helvetica,sans-Serif" font-size="10.00">src/blockchain/impl</text>
<text text-anchor="middle" x="315.5" y="-386.5" font-family="Helvetica,sans-Serif" font-size="10.00">/block_tree_impl.hpp</text>
</a>
</g>
</g>
<!-- Node1&#45;&gt;Node20 -->
<g id="edge21" class="edge">
<title>Node1&#45;&gt;Node20</title>
<path fill="none" stroke="#63b8ff" d="M315.5,-439.26C315.5,-429.33 315.5,-418.36 315.5,-409.88"/>
<polygon fill="#63b8ff" stroke="#63b8ff" points="312,-439.09 315.5,-449.09 319,-439.09 312,-439.09"/>
</g>
<!-- Node22 -->
<g id="node22" class="node">
<title>Node22</title>
<g id="a_node22"><a xlink:href="transaction__pool__impl_8hpp.html" target="_top" xlink:title=" ">
<polygon fill="white" stroke="#666666" points="498.5,-415 386.5,-415 386.5,-374 498.5,-374 498.5,-415"/>
<text text-anchor="start" x="394.5" y="-403" font-family="Helvetica,sans-Serif" font-size="10.00">src/transaction_pool</text>
<text text-anchor="start" x="394.5" y="-392" font-family="Helvetica,sans-Serif" font-size="10.00">/impl/transaction_pool</text>
<text text-anchor="middle" x="442.5" y="-381" font-family="Helvetica,sans-Serif" font-size="10.00">_impl.hpp</text>
</a>
</g>
</g>
<!-- Node1&#45;&gt;Node22 -->
<g id="edge24" class="edge">
<title>Node1&#45;&gt;Node22</title>
<path fill="none" stroke="#63b8ff" d="M351.45,-445.33C368.55,-435.97 388.95,-424.8 406.11,-415.42"/>
<polygon fill="#63b8ff" stroke="#63b8ff" points="350.23,-442 343.14,-449.87 353.59,-448.14 350.23,-442"/>
</g>
<!-- Node24 -->
<g id="node24" class="node">
<title>Node24</title>
<g id="a_node24"><a xlink:href="block__executor_8hpp.html" target="_top" xlink:title=" ">
<polygon fill="white" stroke="#666666" points="721.5,-409.5 593.5,-409.5 593.5,-379.5 721.5,-379.5 721.5,-409.5"/>
<text text-anchor="start" x="601.5" y="-397.5" font-family="Helvetica,sans-Serif" font-size="10.00">src/verification/production</text>
<text text-anchor="middle" x="657.5" y="-386.5" font-family="Helvetica,sans-Serif" font-size="10.00">/impl/block_executor.hpp</text>
</a>
</g>
</g>
<!-- Node1&#45;&gt;Node24 -->
<g id="edge27" class="edge">
<title>Node1&#45;&gt;Node24</title>
<path fill="none" stroke="#63b8ff" d="M381.49,-451.59C442.48,-439.2 532.57,-420.89 593.07,-408.59"/>
<polygon fill="#63b8ff" stroke="#63b8ff" points="381.03,-448.11 371.93,-453.53 382.43,-454.97 381.03,-448.11"/>
</g>
<!-- Node4 -->
<g id="node4" class="node">
<title>Node4</title>
<g id="a_node4"><a xlink:href="proposer__impl_8cpp.html" target="_top" xlink:title=" ">
<polygon fill="white" stroke="#666666" points="116,-332.5 17,-332.5 17,-302.5 116,-302.5 116,-332.5"/>
<text text-anchor="start" x="25" y="-320.5" font-family="Helvetica,sans-Serif" font-size="10.00">src/authorship/impl</text>
<text text-anchor="middle" x="66.5" y="-309.5" font-family="Helvetica,sans-Serif" font-size="10.00">/proposer_impl.cpp</text>
</a>
</g>
</g>
<!-- Node3&#45;&gt;Node4 -->
<g id="edge3" class="edge">
<title>Node3&#45;&gt;Node4</title>
<path fill="none" stroke="#63b8ff" d="M159.98,-373.27C138.22,-360.52 110.65,-344.37 91.1,-332.92"/>
<polygon fill="#63b8ff" stroke="#63b8ff" points="158.12,-376.24 168.51,-378.27 161.66,-370.2 158.12,-376.24"/>
</g>
<!-- Node5 -->
<g id="node5" class="node">
<title>Node5</title>
<g id="a_node5"><a xlink:href="application__injector_8hpp.html" target="_top" xlink:title=" ">
<polygon fill="white" stroke="#666666" points="372.5,-332.5 258.5,-332.5 258.5,-302.5 372.5,-302.5 372.5,-332.5"/>
<text text-anchor="start" x="266.5" y="-320.5" font-family="Helvetica,sans-Serif" font-size="10.00">src/injector/application</text>
<text text-anchor="middle" x="315.5" y="-309.5" font-family="Helvetica,sans-Serif" font-size="10.00">_injector.hpp</text>
</a>
</g>
</g>
<!-- Node3&#45;&gt;Node5 -->
<g id="edge4" class="edge">
<title>Node3&#45;&gt;Node5</title>
<path fill="none" stroke="#63b8ff" d="M227.42,-373.1C247.94,-360.38 273.85,-344.32 292.24,-332.92"/>
<polygon fill="#63b8ff" stroke="#63b8ff" points="225.77,-370 219.12,-378.24 229.46,-375.95 225.77,-370"/>
</g>
<!-- Node6 -->
<g id="node6" class="node">
<title>Node6</title>
<g id="a_node6"><a xlink:href="application__injector_8cpp.html" target="_top" xlink:title=" ">
<polygon fill="white" stroke="#666666" points="225.5,-255.5 111.5,-255.5 111.5,-225.5 225.5,-225.5 225.5,-255.5"/>
<text text-anchor="start" x="119.5" y="-243.5" font-family="Helvetica,sans-Serif" font-size="10.00">src/injector/application</text>
<text text-anchor="middle" x="168.5" y="-232.5" font-family="Helvetica,sans-Serif" font-size="10.00">_injector.cpp</text>
</a>
</g>
</g>
<!-- Node5&#45;&gt;Node6 -->
<g id="edge5" class="edge">
<title>Node5&#45;&gt;Node6</title>
<path fill="none" stroke="#63b8ff" d="M277.2,-296.96C252.02,-284.11 219.61,-267.58 196.76,-255.92"/>
<polygon fill="#63b8ff" stroke="#63b8ff" points="275.31,-299.92 285.81,-301.35 278.49,-293.69 275.31,-299.92"/>
</g>
<!-- Node7 -->
<g id="node7" class="node">
<title>Node7</title>
<g id="a_node7"><a xlink:href="block__producing__node__injector_8hpp.html" target="_top" xlink:title=" ">
<polygon fill="white" stroke="#666666" points="772,-184 627,-184 627,-154 772,-154 772,-184"/>
<text text-anchor="start" x="635" y="-172" font-family="Helvetica,sans-Serif" font-size="10.00">src/injector/block</text>
<text text-anchor="middle" x="699.5" y="-161" font-family="Helvetica,sans-Serif" font-size="10.00">_producing_node_injector.hpp</text>
</a>
</g>
</g>
<!-- Node5&#45;&gt;Node7 -->
<g id="edge6" class="edge">
<title>Node5&#45;&gt;Node7</title>
<path fill="none" stroke="#63b8ff" d="M373.38,-298.7C417.4,-284.9 472,-267.13 481.5,-261 502.38,-247.53 498.28,-232.93 519.5,-220 538.75,-208.27 590.16,-194.54 633.14,-184.44"/>
<polygon fill="#63b8ff" stroke="#63b8ff" points="372.39,-295.34 363.89,-301.66 374.48,-302.02 372.39,-295.34"/>
</g>
<!-- Node12 -->
<g id="node12" class="node">
<title>Node12</title>
<g id="a_node12"><a xlink:href="syncing__node__injector_8hpp.html" target="_top" xlink:title=" ">
<polygon fill="white" stroke="#666666" points="345,-255.5 244,-255.5 244,-225.5 345,-225.5 345,-255.5"/>
<text text-anchor="start" x="252" y="-243.5" font-family="Helvetica,sans-Serif" font-size="10.00">src/injector/syncing</text>
<text text-anchor="middle" x="294.5" y="-232.5" font-family="Helvetica,sans-Serif" font-size="10.00">_node_injector.hpp</text>
</a>
</g>
</g>
<!-- Node5&#45;&gt;Node12 -->
<g id="edge11" class="edge">
<title>Node5&#45;&gt;Node12</title>
<path fill="none" stroke="#63b8ff" d="M308.39,-291.1C305.1,-279.37 301.32,-265.87 298.54,-255.92"/>
<polygon fill="#63b8ff" stroke="#63b8ff" points="304.98,-291.9 311.04,-300.58 311.72,-290.01 304.98,-291.9"/>
</g>
<!-- Node16 -->
<g id="node16" class="node">
<title>Node16</title>
<g id="a_node16"><a xlink:href="validating__node__injector_8hpp.html" target="_top" xlink:title=" ">
<polygon fill="white" stroke="#666666" points="472,-255.5 363,-255.5 363,-225.5 472,-225.5 472,-255.5"/>
<text text-anchor="start" x="371" y="-243.5" font-family="Helvetica,sans-Serif" font-size="10.00">src/injector/validating</text>
<text text-anchor="middle" x="417.5" y="-232.5" font-family="Helvetica,sans-Serif" font-size="10.00">_node_injector.hpp</text>
</a>
</g>
</g>
<!-- Node5&#45;&gt;Node16 -->
<g id="edge15" class="edge">
<title>Node5&#45;&gt;Node16</title>
<path fill="none" stroke="#63b8ff" d="M344.19,-295.4C361.34,-282.8 382.67,-267.11 397.89,-255.92"/>
<polygon fill="#63b8ff" stroke="#63b8ff" points="342.37,-292.4 336.39,-301.14 346.52,-298.04 342.37,-292.4"/>
</g>
<!-- Node8 -->
<g id="node8" class="node">
<title>Node8</title>
<g id="a_node8"><a xlink:href="block__producing__node__application_8hpp.html" target="_top" xlink:title=" ">
<polygon fill="white" stroke="#666666" points="818.5,-118 702.5,-118 702.5,-77 818.5,-77 818.5,-118"/>
<text text-anchor="start" x="710.5" y="-106" font-family="Helvetica,sans-Serif" font-size="10.00">src/application/impl</text>
<text text-anchor="start" x="710.5" y="-95" font-family="Helvetica,sans-Serif" font-size="10.00">/block_producing_node</text>
<text text-anchor="middle" x="760.5" y="-84" font-family="Helvetica,sans-Serif" font-size="10.00">_application.hpp</text>
</a>
</g>
</g>
<!-- Node7&#45;&gt;Node8 -->
<g id="edge7" class="edge">
<title>Node7&#45;&gt;Node8</title>
<path fill="none" stroke="#63b8ff" d="M719.59,-145.12C727.16,-136.49 735.7,-126.75 743.02,-118.42"/>
<polygon fill="#63b8ff" stroke="#63b8ff" points="717.1,-142.64 713.14,-152.46 722.36,-147.26 717.1,-142.64"/>
</g>
<!-- Node11 -->
<g id="node11" class="node">
<title>Node11</title>
<g id="a_node11"><a xlink:href="block__producing__node__injector_8cpp.html" target="_top" xlink:title=" ">
<polygon fill="white" stroke="#666666" points="684,-112.5 539,-112.5 539,-82.5 684,-82.5 684,-112.5"/>
<text text-anchor="start" x="547" y="-100.5" font-family="Helvetica,sans-Serif" font-size="10.00">src/injector/block</text>
<text text-anchor="middle" x="611.5" y="-89.5" font-family="Helvetica,sans-Serif" font-size="10.00">_producing_node_injector.cpp</text>
</a>
</g>
</g>
<!-- Node7&#45;&gt;Node11 -->
<g id="edge10" class="edge">
<title>Node7&#45;&gt;Node11</title>
<path fill="none" stroke="#63b8ff" d="M672.59,-146.75C658.69,-135.77 642.09,-122.66 629.71,-112.88"/>
<polygon fill="#63b8ff" stroke="#63b8ff" points="670.06,-149.21 680.08,-152.66 674.4,-143.72 670.06,-149.21"/>
</g>
<!-- Node9 -->
<g id="node9" class="node">
<title>Node9</title>
<g id="a_node9"><a xlink:href="app__delegate_8cpp.html" target="_top" xlink:title=" ">
<polygon fill="white" stroke="#666666" points="626.5,-30 510.5,-30 510.5,-11 626.5,-11 626.5,-30"/>
<text text-anchor="middle" x="568.5" y="-18" font-family="Helvetica,sans-Serif" font-size="10.00">node/app_delegate.cpp</text>
</a>
</g>
</g>
<!-- Node8&#45;&gt;Node9 -->
<g id="edge8" class="edge">
<title>Node8&#45;&gt;Node9</title>
<path fill="none" stroke="#63b8ff" d="M698.95,-72.46C662.29,-58.13 617.9,-40.8 591.5,-30.48"/>
<polygon fill="#63b8ff" stroke="#63b8ff" points="697.55,-75.67 708.14,-76.05 700.1,-69.15 697.55,-75.67"/>
</g>
<!-- Node10 -->
<g id="node10" class="node">
<title>Node10</title>
<g id="a_node10"><a xlink:href="block__producing__node__application_8cpp.html" target="_top" xlink:title=" ">
<polygon fill="white" stroke="#666666" points="818.5,-41 702.5,-41 702.5,0 818.5,0 818.5,-41"/>
<text text-anchor="start" x="710.5" y="-29" font-family="Helvetica,sans-Serif" font-size="10.00">src/application/impl</text>
<text text-anchor="start" x="710.5" y="-18" font-family="Helvetica,sans-Serif" font-size="10.00">/block_producing_node</text>
<text text-anchor="middle" x="760.5" y="-7" font-family="Helvetica,sans-Serif" font-size="10.00">_application.cpp</text>
</a>
</g>
</g>
<!-- Node8&#45;&gt;Node10 -->
<g id="edge9" class="edge">
<title>Node8&#45;&gt;Node10</title>
<path fill="none" stroke="#63b8ff" d="M760.5,-65.36C760.5,-57.24 760.5,-48.7 760.5,-41.33"/>
<polygon fill="#63b8ff" stroke="#63b8ff" points="757,-65.28 760.5,-75.28 764,-65.28 757,-65.28"/>
</g>
<!-- Node13 -->
<g id="node13" class="node">
<title>Node13</title>
<g id="a_node13"><a xlink:href="syncing__node__application_8hpp.html" target="_top" xlink:title=" ">
<polygon fill="white" stroke="#666666" points="307,-184 158,-184 158,-154 307,-154 307,-184"/>
<text text-anchor="start" x="166" y="-172" font-family="Helvetica,sans-Serif" font-size="10.00">src/application/impl</text>
<text text-anchor="middle" x="232.5" y="-161" font-family="Helvetica,sans-Serif" font-size="10.00">/syncing_node_application.hpp</text>
</a>
</g>
</g>
<!-- Node12&#45;&gt;Node13 -->
<g id="edge12" class="edge">
<title>Node12&#45;&gt;Node13</title>
<path fill="none" stroke="#63b8ff" d="M274.13,-216.67C264.64,-206.03 253.64,-193.7 245.33,-184.38"/>
<polygon fill="#63b8ff" stroke="#63b8ff" points="271.38,-218.84 280.65,-223.97 276.6,-214.18 271.38,-218.84"/>
</g>
<!-- Node15 -->
<g id="node15" class="node">
<title>Node15</title>
<g id="a_node15"><a xlink:href="syncing__node__injector_8cpp.html" target="_top" xlink:title=" ">
<polygon fill="white" stroke="#666666" points="140,-184 39,-184 39,-154 140,-154 140,-184"/>
<text text-anchor="start" x="47" y="-172" font-family="Helvetica,sans-Serif" font-size="10.00">src/injector/syncing</text>
<text text-anchor="middle" x="89.5" y="-161" font-family="Helvetica,sans-Serif" font-size="10.00">_node_injector.cpp</text>
</a>
</g>
</g>
<!-- Node12&#45;&gt;Node15 -->
<g id="edge14" class="edge">
<title>Node12&#45;&gt;Node15</title>
<path fill="none" stroke="#63b8ff" d="M241.33,-221.47C207.26,-209.92 163.66,-195.14 131.92,-184.38"/>
<polygon fill="#63b8ff" stroke="#63b8ff" points="240,-224.72 250.59,-224.61 242.24,-218.09 240,-224.72"/>
</g>
<!-- Node14 -->
<g id="node14" class="node">
<title>Node14</title>
<g id="a_node14"><a xlink:href="syncing__node__application_8cpp.html" target="_top" xlink:title=" ">
<polygon fill="white" stroke="#666666" points="307,-112.5 158,-112.5 158,-82.5 307,-82.5 307,-112.5"/>
<text text-anchor="start" x="166" y="-100.5" font-family="Helvetica,sans-Serif" font-size="10.00">src/application/impl</text>
<text text-anchor="middle" x="232.5" y="-89.5" font-family="Helvetica,sans-Serif" font-size="10.00">/syncing_node_application.cpp</text>
</a>
</g>
</g>
<!-- Node13&#45;&gt;Node14 -->
<g id="edge13" class="edge">
<title>Node13&#45;&gt;Node14</title>
<path fill="none" stroke="#63b8ff" d="M232.5,-142.26C232.5,-132.33 232.5,-121.36 232.5,-112.88"/>
<polygon fill="#63b8ff" stroke="#63b8ff" points="229,-142.09 232.5,-152.09 236,-142.09 229,-142.09"/>
</g>
<!-- Node16&#45;&gt;Node7 -->
<g id="edge19" class="edge">
<title>Node16&#45;&gt;Node7</title>
<path fill="none" stroke="#63b8ff" d="M478.59,-222.08C481.26,-221.37 483.91,-220.67 486.5,-220 535.96,-207.21 592.25,-194.06 634.53,-184.46"/>
<polygon fill="#63b8ff" stroke="#63b8ff" points="477.75,-218.68 469.01,-224.67 479.58,-225.44 477.75,-218.68"/>
</g>
<!-- Node17 -->
<g id="node17" class="node">
<title>Node17</title>
<g id="a_node17"><a xlink:href="validating__node__application_8hpp.html" target="_top" xlink:title=" ">
<polygon fill="white" stroke="#666666" points="482,-184 325,-184 325,-154 482,-154 482,-184"/>
<text text-anchor="start" x="333" y="-172" font-family="Helvetica,sans-Serif" font-size="10.00">src/application/impl</text>
<text text-anchor="middle" x="403.5" y="-161" font-family="Helvetica,sans-Serif" font-size="10.00">/validating_node_application.hpp</text>
</a>
</g>
</g>
<!-- Node16&#45;&gt;Node17 -->
<g id="edge16" class="edge">
<title>Node16&#45;&gt;Node17</title>
<path fill="none" stroke="#63b8ff" d="M412.38,-214.08C410.36,-204.08 408.12,-192.95 406.4,-184.38"/>
<polygon fill="#63b8ff" stroke="#63b8ff" points="408.89,-214.5 414.3,-223.62 415.76,-213.12 408.89,-214.5"/>
</g>
<!-- Node19 -->
<g id="node19" class="node">
<title>Node19</title>
<g id="a_node19"><a xlink:href="validating__node__injector_8cpp.html" target="_top" xlink:title=" ">
<polygon fill="white" stroke="#666666" points="609,-184 500,-184 500,-154 609,-154 609,-184"/>
<text text-anchor="start" x="508" y="-172" font-family="Helvetica,sans-Serif" font-size="10.00">src/injector/validating</text>
<text text-anchor="middle" x="554.5" y="-161" font-family="Helvetica,sans-Serif" font-size="10.00">_node_injector.cpp</text>
</a>
</g>
</g>
<!-- Node16&#45;&gt;Node19 -->
<g id="edge20" class="edge">
<title>Node16&#45;&gt;Node19</title>
<path fill="none" stroke="#63b8ff" d="M456.03,-219.96C478.31,-208.65 505.86,-194.67 526.15,-184.38"/>
<polygon fill="#63b8ff" stroke="#63b8ff" points="454.57,-216.77 447.24,-224.41 457.74,-223.01 454.57,-216.77"/>
</g>
<!-- Node17&#45;&gt;Node9 -->
<g id="edge17" class="edge">
<title>Node17&#45;&gt;Node9</title>
<path fill="none" stroke="#63b8ff" d="M445.32,-148.45C460.69,-140.22 477.69,-129.8 491.5,-118 523.44,-90.71 551.61,-48.64 563.06,-30.42"/>
<polygon fill="#63b8ff" stroke="#63b8ff" points="444.12,-145.13 436.85,-152.84 447.34,-151.35 444.12,-145.13"/>
</g>
<!-- Node18 -->
<g id="node18" class="node">
<title>Node18</title>
<g id="a_node18"><a xlink:href="validating__node__application_8cpp.html" target="_top" xlink:title=" ">
<polygon fill="white" stroke="#666666" points="482,-112.5 325,-112.5 325,-82.5 482,-82.5 482,-112.5"/>
<text text-anchor="start" x="333" y="-100.5" font-family="Helvetica,sans-Serif" font-size="10.00">src/application/impl</text>
<text text-anchor="middle" x="403.5" y="-89.5" font-family="Helvetica,sans-Serif" font-size="10.00">/validating_node_application.cpp</text>
</a>
</g>
</g>
<!-- Node17&#45;&gt;Node18 -->
<g id="edge18" class="edge">
<title>Node17&#45;&gt;Node18</title>
<path fill="none" stroke="#63b8ff" d="M403.5,-142.26C403.5,-132.33 403.5,-121.36 403.5,-112.88"/>
<polygon fill="#63b8ff" stroke="#63b8ff" points="400,-142.09 403.5,-152.09 407,-142.09 400,-142.09"/>
</g>
<!-- Node20&#45;&gt;Node5 -->
<g id="edge23" class="edge">
<title>Node20&#45;&gt;Node5</title>
<path fill="none" stroke="#63b8ff" d="M315.5,-367.73C315.5,-356.08 315.5,-342.76 315.5,-332.92"/>
<polygon fill="#63b8ff" stroke="#63b8ff" points="312,-367.53 315.5,-377.53 319,-367.53 312,-367.53"/>
</g>
<!-- Node21 -->
<g id="node21" class="node">
<title>Node21</title>
<g id="a_node21"><a xlink:href="block__tree__impl_8cpp.html" target="_top" xlink:title=" ">
<polygon fill="white" stroke="#666666" points="240.5,-332.5 134.5,-332.5 134.5,-302.5 240.5,-302.5 240.5,-332.5"/>
<text text-anchor="start" x="142.5" y="-320.5" font-family="Helvetica,sans-Serif" font-size="10.00">src/blockchain/impl</text>
<text text-anchor="middle" x="187.5" y="-309.5" font-family="Helvetica,sans-Serif" font-size="10.00">/block_tree_impl.cpp</text>
</a>
</g>
</g>
<!-- Node20&#45;&gt;Node21 -->
<g id="edge22" class="edge">
<title>Node20&#45;&gt;Node21</title>
<path fill="none" stroke="#63b8ff" d="M280.98,-373.27C259.22,-360.52 231.65,-344.37 212.1,-332.92"/>
<polygon fill="#63b8ff" stroke="#63b8ff" points="279.12,-376.24 289.51,-378.27 282.66,-370.2 279.12,-376.24"/>
</g>
<!-- Node22&#45;&gt;Node5 -->
<g id="edge25" class="edge">
<title>Node22&#45;&gt;Node5</title>
<path fill="none" stroke="#63b8ff" d="M399.03,-367.83C379.19,-356.11 356.43,-342.67 339.69,-332.79"/>
<polygon fill="#63b8ff" stroke="#63b8ff" points="397.11,-370.76 407.5,-372.83 400.67,-364.73 397.11,-370.76"/>
</g>
<!-- Node23 -->
<g id="node23" class="node">
<title>Node23</title>
<g id="a_node23"><a xlink:href="transaction__pool__impl_8cpp.html" target="_top" xlink:title=" ">
<polygon fill="white" stroke="#666666" points="502.5,-338 390.5,-338 390.5,-297 502.5,-297 502.5,-338"/>
<text text-anchor="start" x="398.5" y="-326" font-family="Helvetica,sans-Serif" font-size="10.00">src/transaction_pool</text>
<text text-anchor="start" x="398.5" y="-315" font-family="Helvetica,sans-Serif" font-size="10.00">/impl/transaction_pool</text>
<text text-anchor="middle" x="446.5" y="-304" font-family="Helvetica,sans-Serif" font-size="10.00">_impl.cpp</text>
</a>
</g>
</g>
<!-- Node22&#45;&gt;Node23 -->
<g id="edge26" class="edge">
<title>Node22&#45;&gt;Node23</title>
<path fill="none" stroke="#63b8ff" d="M444.16,-362.36C444.59,-354.24 445.05,-345.7 445.44,-338.33"/>
<polygon fill="#63b8ff" stroke="#63b8ff" points="440.67,-362.11 443.63,-372.28 447.66,-362.48 440.67,-362.11"/>
</g>
<!-- Node25 -->
<g id="node25" class="node">
<title>Node25</title>
<g id="a_node25"><a xlink:href="block__executor_8cpp.html" target="_top" xlink:title=" ">
<polygon fill="white" stroke="#666666" points="940.5,-332.5 812.5,-332.5 812.5,-302.5 940.5,-302.5 940.5,-332.5"/>
<text text-anchor="start" x="820.5" y="-320.5" font-family="Helvetica,sans-Serif" font-size="10.00">src/verification/production</text>
<text text-anchor="middle" x="876.5" y="-309.5" font-family="Helvetica,sans-Serif" font-size="10.00">/impl/block_executor.cpp</text>
</a>
</g>
</g>
<!-- Node24&#45;&gt;Node25 -->
<g id="edge28" class="edge">
<title>Node24&#45;&gt;Node25</title>
<path fill="none" stroke="#63b8ff" d="M710.6,-375.32C748.63,-362.29 799.15,-344.99 834.4,-332.92"/>
<polygon fill="#63b8ff" stroke="#63b8ff" points="709.48,-372 701.16,-378.55 711.75,-378.62 709.48,-372"/>
</g>
<!-- Node26 -->
<g id="node26" class="node">
<title>Node26</title>
<g id="a_node26"><a xlink:href="production__impl_8hpp.html" target="_top" xlink:title=" ">
<polygon fill="white" stroke="#666666" points="794.5,-332.5 666.5,-332.5 666.5,-302.5 794.5,-302.5 794.5,-332.5"/>
<text text-anchor="start" x="674.5" y="-320.5" font-family="Helvetica,sans-Serif" font-size="10.00">src/verification/production</text>
<text text-anchor="middle" x="730.5" y="-309.5" font-family="Helvetica,sans-Serif" font-size="10.00">/impl/production_impl.hpp</text>
</a>
</g>
</g>
<!-- Node24&#45;&gt;Node26 -->
<g id="edge29" class="edge">
<title>Node24&#45;&gt;Node26</title>
<path fill="none" stroke="#63b8ff" d="M679.41,-370.99C691.43,-358.64 705.98,-343.7 716.47,-332.92"/>
<polygon fill="#63b8ff" stroke="#63b8ff" points="677.1,-368.35 672.63,-377.95 682.11,-373.23 677.1,-368.35"/>
</g>
<!-- Node28 -->
<g id="node28" class="node">
<title>Node28</title>
<g id="a_node28"><a xlink:href="syncing__production__observer_8hpp.html" target="_top" xlink:title=" ">
<polygon fill="white" stroke="#666666" points="648.5,-338 520.5,-338 520.5,-297 648.5,-297 648.5,-338"/>
<text text-anchor="start" x="528.5" y="-326" font-family="Helvetica,sans-Serif" font-size="10.00">src/verification/production</text>
<text text-anchor="start" x="528.5" y="-315" font-family="Helvetica,sans-Serif" font-size="10.00">/impl/syncing_production</text>
<text text-anchor="middle" x="584.5" y="-304" font-family="Helvetica,sans-Serif" font-size="10.00">_observer.hpp</text>
</a>
</g>
</g>
<!-- Node24&#45;&gt;Node28 -->
<g id="edge33" class="edge">
<title>Node24&#45;&gt;Node28</title>
<path fill="none" stroke="#63b8ff" d="M635.45,-370.84C625.35,-360.47 613.51,-348.3 603.78,-338.3"/>
<polygon fill="#63b8ff" stroke="#63b8ff" points="632.89,-373.23 642.37,-377.95 637.9,-368.35 632.89,-373.23"/>
</g>
<!-- Node26&#45;&gt;Node7 -->
<g id="edge30" class="edge">
<title>Node26&#45;&gt;Node7</title>
<path fill="none" stroke="#63b8ff" d="M725.11,-291.03C718.55,-260.04 707.72,-208.83 702.5,-184.16"/>
<polygon fill="#63b8ff" stroke="#63b8ff" points="721.66,-291.65 727.16,-300.71 728.51,-290.2 721.66,-291.65"/>
</g>
<!-- Node26&#45;&gt;Node16 -->
<g id="edge31" class="edge">
<title>Node26&#45;&gt;Node16</title>
<path fill="none" stroke="#63b8ff" d="M665.99,-299.14C663.13,-298.41 660.28,-297.69 657.5,-297 594.22,-281.24 521.16,-264.56 472.43,-253.65"/>
<polygon fill="#63b8ff" stroke="#63b8ff" points="665.11,-302.53 675.66,-301.64 666.86,-295.75 665.11,-302.53"/>
</g>
<!-- Node27 -->
<g id="node27" class="node">
<title>Node27</title>
<g id="a_node27"><a xlink:href="production__impl_8cpp.html" target="_top" xlink:title=" ">
<polygon fill="white" stroke="#666666" points="878.5,-255.5 750.5,-255.5 750.5,-225.5 878.5,-225.5 878.5,-255.5"/>
<text text-anchor="start" x="758.5" y="-243.5" font-family="Helvetica,sans-Serif" font-size="10.00">src/verification/production</text>
<text text-anchor="middle" x="814.5" y="-232.5" font-family="Helvetica,sans-Serif" font-size="10.00">/impl/production_impl.cpp</text>
</a>
</g>
</g>
<!-- Node26&#45;&gt;Node27 -->
<g id="edge32" class="edge">
<title>Node26&#45;&gt;Node27</title>
<path fill="none" stroke="#63b8ff" d="M754.92,-294.7C768.9,-282.22 786.05,-266.9 798.35,-255.92"/>
<polygon fill="#63b8ff" stroke="#63b8ff" points="752.95,-291.76 747.83,-301.03 757.62,-296.98 752.95,-291.76"/>
</g>
<!-- Node28&#45;&gt;Node7 -->
<g id="edge34" class="edge">
<title>Node28&#45;&gt;Node7</title>
<path fill="none" stroke="#63b8ff" d="M632.93,-290.4C644.8,-282.23 656.63,-272.34 665.5,-261 683.79,-237.62 693,-203.38 696.97,-184.26"/>
<polygon fill="#63b8ff" stroke="#63b8ff" points="631.19,-287.36 624.72,-295.76 635.01,-293.23 631.19,-287.36"/>
</g>
<!-- Node28&#45;&gt;Node12 -->
<g id="edge35" class="edge">
<title>Node28&#45;&gt;Node12</title>
<path fill="none" stroke="#63b8ff" d="M509.03,-296.45C440.09,-279.74 420.13,-279.15 354.5,-261 348.9,-259.45 343.05,-257.71 337.3,-255.92"/>
<polygon fill="#63b8ff" stroke="#63b8ff" points="508.03,-299.8 518.58,-298.79 509.7,-293.01 508.03,-299.8"/>
</g>
<!-- Node29 -->
<g id="node29" class="node">
<title>Node29</title>
<g id="a_node29"><a xlink:href="syncing__production__observer_8cpp.html" target="_top" xlink:title=" ">
<polygon fill="white" stroke="#666666" points="656.5,-261 528.5,-261 528.5,-220 656.5,-220 656.5,-261"/>
<text text-anchor="start" x="536.5" y="-249" font-family="Helvetica,sans-Serif" font-size="10.00">src/verification/production</text>
<text text-anchor="start" x="536.5" y="-238" font-family="Helvetica,sans-Serif" font-size="10.00">/impl/syncing_production</text>
<text text-anchor="middle" x="592.5" y="-227" font-family="Helvetica,sans-Serif" font-size="10.00">_observer.cpp</text>
</a>
</g>
</g>
<!-- Node28&#45;&gt;Node29 -->
<g id="edge36" class="edge">
<title>Node28&#45;&gt;Node29</title>
<path fill="none" stroke="#63b8ff" d="M587.82,-285.36C588.69,-277.24 589.6,-268.7 590.38,-261.33"/>
<polygon fill="#63b8ff" stroke="#63b8ff" points="584.34,-284.97 586.76,-295.29 591.3,-285.72 584.34,-284.97"/>
</g>
</g>
</svg>
