<?xml version="1.0" encoding="UTF-8" standalone="no"?>
<!DOCTYPE svg PUBLIC "-//W3C//DTD SVG 1.1//EN"
 "http://www.w3.org/Graphics/SVG/1.1/DTD/svg11.dtd">
<!-- Generated by graphviz version 7.0.5 (20221223.1930)
 -->
<!-- Title: src/storage/trie/supergenius_trie/trie_error.cpp Pages: 1 -->
<svg width="149pt" height="214pt"
 viewBox="0.00 0.00 149.00 214.00" xmlns="http://www.w3.org/2000/svg" xmlns:xlink="http://www.w3.org/1999/xlink">
<g id="graph0" class="graph" transform="scale(1 1) rotate(0) translate(4 210)">
<title>src/storage/trie/supergenius_trie/trie_error.cpp</title>
<!-- Node1 -->
<g id="node1" class="node">
<title>Node1</title>
<g id="a_node1"><a xlink:title=" ">
<polygon fill="#999999" stroke="#666666" points="139,-206 2,-206 2,-176 139,-176 139,-206"/>
<text text-anchor="start" x="10" y="-194" font-family="Helvetica,sans-Serif" font-size="10.00">src/storage/trie/supergenius</text>
<text text-anchor="middle" x="70.5" y="-183" font-family="Helvetica,sans-Serif" font-size="10.00">_trie/trie_error.cpp</text>
</a>
</g>
</g>
<!-- Node2 -->
<g id="node2" class="node">
<title>Node2</title>
<g id="a_node2"><a xlink:href="trie__error_8hpp.html" target="_top" xlink:title=" ">
<polygon fill="white" stroke="#666666" points="131,-140 10,-140 10,-110 131,-110 131,-140"/>
<text text-anchor="start" x="18" y="-128" font-family="Helvetica,sans-Serif" font-size="10.00">storage/trie/supergenius</text>
<text text-anchor="middle" x="70.5" y="-117" font-family="Helvetica,sans-Serif" font-size="10.00">_trie/trie_error.hpp</text>
</a>
</g>
</g>
<!-- Node1&#45;&gt;Node2 -->
<g id="edge1" class="edge">
<title>Node1&#45;&gt;Node2</title>
<path fill="none" stroke="#63b8ff" d="M70.5,-175.8C70.5,-168.67 70.5,-159.82 70.5,-151.56"/>
<polygon fill="#63b8ff" stroke="#63b8ff" points="74,-151.68 70.5,-141.68 67,-151.68 74,-151.68"/>
</g>
<!-- Node3 -->
<g id="node3" class="node">
<title>Node3</title>
<g id="a_node3"><a xlink:href="outcome_8hpp.html" target="_top" xlink:title=" ">
<polygon fill="white" stroke="#666666" points="127,-74 14,-74 14,-55 127,-55 127,-74"/>
<text text-anchor="middle" x="70.5" y="-62" font-family="Helvetica,sans-Serif" font-size="10.00">outcome/outcome.hpp</text>
</a>
</g>
</g>
<!-- Node2&#45;&gt;Node3 -->
<g id="edge2" class="edge">
<title>Node2&#45;&gt;Node3</title>
<path fill="none" stroke="#63b8ff" d="M70.5,-109.54C70.5,-102.34 70.5,-93.53 70.5,-85.68"/>
<polygon fill="#63b8ff" stroke="#63b8ff" points="74,-85.69 70.5,-75.69 67,-85.69 74,-85.69"/>
</g>
<!-- Node4 -->
<g id="node4" class="node">
<title>Node4</title>
<g id="a_node4"><a xlink:title=" ">
<polygon fill="#e0e0e0" stroke="#999999" points="141,-19 0,-19 0,0 141,0 141,-19"/>
<text text-anchor="middle" x="70.5" y="-7" font-family="Helvetica,sans-Serif" font-size="10.00">libp2p/outcome/outcome.hpp</text>
</a>
</g>
</g>
<!-- Node3&#45;&gt;Node4 -->
<g id="edge3" class="edge">
<title>Node3&#45;&gt;Node4</title>
<path fill="none" stroke="#63b8ff" d="M70.5,-54.75C70.5,-48.27 70.5,-39.16 70.5,-30.9"/>
<polygon fill="#63b8ff" stroke="#63b8ff" points="74,-30.96 70.5,-20.96 67,-30.96 74,-30.96"/>
</g>
</g>
</svg>
