<?xml version="1.0" encoding="UTF-8" standalone="no"?>
<!DOCTYPE svg PUBLIC "-//W3C//DTD SVG 1.1//EN"
 "http://www.w3.org/Graphics/SVG/1.1/DTD/svg11.dtd">
<!-- Generated by graphviz version 7.0.5 (20221223.1930)
 -->
<!-- Title: src/storage/trie/trie_storage.hpp Pages: 1 -->
<!--zoomable 588 -->
<svg id="main" version="1.1" xmlns="http://www.w3.org/2000/svg" xmlns:xlink="http://www.w3.org/1999/xlink" xml:space="preserve" onload="init(evt)">
<style type="text/css"><![CDATA[
.edge:hover path { stroke: red; }
.edge:hover polygon { stroke: red; fill: red; }
]]></style>
<script type="text/javascript"><![CDATA[
var edges = document.getElementsByTagName('g');
if (edges && edges.length) {
  for (var i=0;i<edges.length;i++) {
    if (edges[i].id.substr(0,4)=='edge') {
      edges[i].setAttribute('class','edge');
    }
  }
}
]]></script>
        <defs>
                <circle id="rim" cx="0" cy="0" r="7"/>
                <circle id="rim2" cx="0" cy="0" r="3.5"/>
                <g id="zoomPlus">
                        <use xlink:href="#rim" fill="#404040">
                                <set attributeName="fill" to="#808080" begin="zoomplus.mouseover" end="zoomplus.mouseout"/>
                        </use>
                        <path d="M-4,0h8M0,-4v8" fill="none" stroke="white" stroke-width="1.5" pointer-events="none"/>
                </g>
                <g id="zoomMin">
                        <use xlink:href="#rim" fill="#404040">
                                <set attributeName="fill" to="#808080" begin="zoomminus.mouseover" end="zoomminus.mouseout"/>
                        </use>
                        <path d="M-4,0h8" fill="none" stroke="white" stroke-width="1.5" pointer-events="none"/>
                </g>
                <g id="dirArrow">
                        <path fill="none" stroke="white" stroke-width="1.5" d="M0,-3.0v7 M-2.5,-0.5L0,-3.0L2.5,-0.5"/>
                </g>
               <g id="resetDef">
                       <use xlink:href="#rim2" fill="#404040">
                               <set attributeName="fill" to="#808080" begin="reset.mouseover" end="reset.mouseout"/>
                       </use>
               </g>
        </defs>

<script type="text/javascript">
var viewWidth = 1381;
var viewHeight = 588;
var sectionId = 'dynsection-0';
</script>
<script xlink:href="svgpan.js"/>
<svg id="graph" class="graph">
<g id="viewport">
<title>src/storage/trie/trie_storage.hpp</title>
<!-- Node1 -->
<g id="node1" class="node">
<title>Node1</title>
<g id="a_node1"><a xlink:title=" ">
<polygon fill="#999999" stroke="#666666" points="395,-580 297,-580 297,-550 395,-550 395,-580"/>
<text text-anchor="start" x="305" y="-568" font-family="Helvetica,sans-Serif" font-size="10.00">src/storage/trie/trie</text>
<text text-anchor="middle" x="346" y="-557" font-family="Helvetica,sans-Serif" font-size="10.00">_storage.hpp</text>
</a>
</g>
</g>
<!-- Node2 -->
<g id="node2" class="node">
<title>Node2</title>
<g id="a_node2"><a xlink:href="blob_8hpp.html" target="_top" xlink:title=" ">
<polygon fill="white" stroke="#666666" points="230.5,-250 153.5,-250 153.5,-231 230.5,-231 230.5,-250"/>
<text text-anchor="middle" x="192" y="-238" font-family="Helvetica,sans-Serif" font-size="10.00">base/blob.hpp</text>
</a>
</g>
</g>
<!-- Node1&#45;&gt;Node2 -->
<g id="edge1" class="edge">
<title>Node1&#45;&gt;Node2</title>
<path fill="none" stroke="#63b8ff" d="M296.67,-557.46C233.2,-545.96 131,-515.63 131,-439.5 131,-439.5 131,-439.5 131,-366 131,-329.46 132.65,-318.16 150,-286 155.71,-275.43 164.57,-265.51 172.68,-257.73"/>
<polygon fill="#63b8ff" stroke="#63b8ff" points="174.82,-260.52 179.89,-251.22 170.12,-255.33 174.82,-260.52"/>
</g>
<!-- Node12 -->
<g id="node12" class="node">
<title>Node12</title>
<g id="a_node12"><a xlink:href="trie__batches_8hpp.html" target="_top" xlink:title=" ">
<polygon fill="white" stroke="#666666" points="586,-514 446,-514 446,-495 586,-495 586,-514"/>
<text text-anchor="middle" x="516" y="-502" font-family="Helvetica,sans-Serif" font-size="10.00">storage/trie/trie_batches.hpp</text>
</a>
</g>
</g>
<!-- Node1&#45;&gt;Node12 -->
<g id="edge11" class="edge">
<title>Node1&#45;&gt;Node12</title>
<path fill="none" stroke="#63b8ff" d="M388.02,-549.54C415.98,-539.92 452.36,-527.4 479.19,-518.17"/>
<polygon fill="#63b8ff" stroke="#63b8ff" points="480.3,-521.49 488.61,-514.92 478.02,-514.87 480.3,-521.49"/>
</g>
<!-- Node3 -->
<g id="node3" class="node">
<title>Node3</title>
<g id="a_node3"><a xlink:title=" ">
<polygon fill="#e0e0e0" stroke="#999999" points="110,-189.5 72,-189.5 72,-170.5 110,-170.5 110,-189.5"/>
<text text-anchor="middle" x="91" y="-177.5" font-family="Helvetica,sans-Serif" font-size="10.00">array</text>
</a>
</g>
</g>
<!-- Node2&#45;&gt;Node3 -->
<g id="edge2" class="edge">
<title>Node2&#45;&gt;Node3</title>
<path fill="none" stroke="#63b8ff" d="M176.66,-230.62C160.64,-221.34 135.26,-206.63 116.27,-195.64"/>
<polygon fill="#63b8ff" stroke="#63b8ff" points="118.2,-192.71 107.79,-190.73 114.69,-198.77 118.2,-192.71"/>
</g>
<!-- Node4 -->
<g id="node4" class="node">
<title>Node4</title>
<g id="a_node4"><a xlink:title=" ">
<polygon fill="#e0e0e0" stroke="#999999" points="256,-189.5 128,-189.5 128,-170.5 256,-170.5 256,-189.5"/>
<text text-anchor="middle" x="192" y="-177.5" font-family="Helvetica,sans-Serif" font-size="10.00">boost/functional/hash.hpp</text>
</a>
</g>
</g>
<!-- Node2&#45;&gt;Node4 -->
<g id="edge3" class="edge">
<title>Node2&#45;&gt;Node4</title>
<path fill="none" stroke="#63b8ff" d="M192,-230.87C192,-223 192,-211.1 192,-200.89"/>
<polygon fill="#63b8ff" stroke="#63b8ff" points="195.5,-201.18 192,-191.18 188.5,-201.18 195.5,-201.18"/>
</g>
<!-- Node5 -->
<g id="node5" class="node">
<title>Node5</title>
<g id="a_node5"><a xlink:href="hexutil_8hpp.html" target="_top" xlink:title=" ">
<polygon fill="white" stroke="#666666" points="398,-189.5 312,-189.5 312,-170.5 398,-170.5 398,-189.5"/>
<text text-anchor="middle" x="355" y="-177.5" font-family="Helvetica,sans-Serif" font-size="10.00">base/hexutil.hpp</text>
</a>
</g>
</g>
<!-- Node2&#45;&gt;Node5 -->
<g id="edge4" class="edge">
<title>Node2&#45;&gt;Node5</title>
<path fill="none" stroke="#63b8ff" d="M216.76,-230.62C244.04,-220.82 288.17,-204.98 319.22,-193.84"/>
<polygon fill="#63b8ff" stroke="#63b8ff" points="320.36,-197.15 328.59,-190.48 317.99,-190.56 320.36,-197.15"/>
</g>
<!-- Node11 -->
<g id="node11" class="node">
<title>Node11</title>
<g id="a_node11"><a xlink:title=" ">
<polygon fill="#e0e0e0" stroke="#999999" points="54,-189.5 0,-189.5 0,-170.5 54,-170.5 54,-189.5"/>
<text text-anchor="middle" x="27" y="-177.5" font-family="Helvetica,sans-Serif" font-size="10.00">iostream</text>
</a>
</g>
</g>
<!-- Node2&#45;&gt;Node11 -->
<g id="edge10" class="edge">
<title>Node2&#45;&gt;Node11</title>
<path fill="none" stroke="#63b8ff" d="M165.21,-230.6C139.04,-221.82 98.14,-207.89 63,-195 62.04,-194.65 61.06,-194.29 60.07,-193.92"/>
<polygon fill="#63b8ff" stroke="#63b8ff" points="61.42,-190.69 50.83,-190.41 58.94,-197.23 61.42,-190.69"/>
</g>
<!-- Node6 -->
<g id="node6" class="node">
<title>Node6</title>
<g id="a_node6"><a xlink:title=" ">
<polygon fill="#e0e0e0" stroke="#999999" points="353,-129 287,-129 287,-110 353,-110 353,-129"/>
<text text-anchor="middle" x="320" y="-117" font-family="Helvetica,sans-Serif" font-size="10.00">string_view</text>
</a>
</g>
</g>
<!-- Node5&#45;&gt;Node6 -->
<g id="edge5" class="edge">
<title>Node5&#45;&gt;Node6</title>
<path fill="none" stroke="#63b8ff" d="M349.84,-170.37C344.87,-162.07 337.22,-149.28 330.9,-138.72"/>
<polygon fill="#63b8ff" stroke="#63b8ff" points="334.1,-137.25 325.96,-130.47 328.09,-140.84 334.1,-137.25"/>
</g>
<!-- Node7 -->
<g id="node7" class="node">
<title>Node7</title>
<g id="a_node7"><a xlink:title=" ">
<polygon fill="#e0e0e0" stroke="#999999" points="528,-129 484,-129 484,-110 528,-110 528,-129"/>
<text text-anchor="middle" x="506" y="-117" font-family="Helvetica,sans-Serif" font-size="10.00">vector</text>
</a>
</g>
</g>
<!-- Node5&#45;&gt;Node7 -->
<g id="edge6" class="edge">
<title>Node5&#45;&gt;Node7</title>
<path fill="none" stroke="#63b8ff" d="M377.93,-170.12C403.39,-160.25 444.68,-144.26 473.47,-133.1"/>
<polygon fill="#63b8ff" stroke="#63b8ff" points="474.36,-136.51 482.42,-129.63 471.84,-129.98 474.36,-136.51"/>
</g>
<!-- Node8 -->
<g id="node8" class="node">
<title>Node8</title>
<g id="a_node8"><a xlink:title=" ">
<polygon fill="#e0e0e0" stroke="#999999" points="803.5,-129 750.5,-129 750.5,-110 803.5,-110 803.5,-129"/>
<text text-anchor="middle" x="777" y="-117" font-family="Helvetica,sans-Serif" font-size="10.00">gsl/span</text>
</a>
</g>
</g>
<!-- Node5&#45;&gt;Node8 -->
<g id="edge7" class="edge">
<title>Node5&#45;&gt;Node8</title>
<path fill="none" stroke="#63b8ff" d="M385.35,-170.05C392.41,-168.18 399.93,-166.37 407,-165 527.14,-141.73 671.73,-128.55 739.06,-123.26"/>
<polygon fill="#63b8ff" stroke="#63b8ff" points="739.12,-126.76 748.82,-122.51 738.58,-119.78 739.12,-126.76"/>
</g>
<!-- Node9 -->
<g id="node9" class="node">
<title>Node9</title>
<g id="a_node9"><a xlink:href="outcome_8hpp.html" target="_top" xlink:title=" ">
<polygon fill="white" stroke="#666666" points="928.5,-74 815.5,-74 815.5,-55 928.5,-55 928.5,-74"/>
<text text-anchor="middle" x="872" y="-62" font-family="Helvetica,sans-Serif" font-size="10.00">outcome/outcome.hpp</text>
</a>
</g>
</g>
<!-- Node5&#45;&gt;Node9 -->
<g id="edge8" class="edge">
<title>Node5&#45;&gt;Node9</title>
<path fill="none" stroke="#63b8ff" d="M366.49,-170.2C387,-155.01 431.84,-124.15 475,-110 586.18,-73.56 723.24,-65.82 803.78,-64.78"/>
<polygon fill="#63b8ff" stroke="#63b8ff" points="803.76,-68.28 813.73,-64.69 803.7,-61.28 803.76,-68.28"/>
</g>
<!-- Node10 -->
<g id="node10" class="node">
<title>Node10</title>
<g id="a_node10"><a xlink:title=" ">
<polygon fill="#e0e0e0" stroke="#999999" points="942.5,-19 801.5,-19 801.5,0 942.5,0 942.5,-19"/>
<text text-anchor="middle" x="872" y="-7" font-family="Helvetica,sans-Serif" font-size="10.00">libp2p/outcome/outcome.hpp</text>
</a>
</g>
</g>
<!-- Node9&#45;&gt;Node10 -->
<g id="edge9" class="edge">
<title>Node9&#45;&gt;Node10</title>
<path fill="none" stroke="#63b8ff" d="M872,-54.75C872,-48.27 872,-39.16 872,-30.9"/>
<polygon fill="#63b8ff" stroke="#63b8ff" points="875.5,-30.96 872,-20.96 868.5,-30.96 875.5,-30.96"/>
</g>
<!-- Node13 -->
<g id="node13" class="node">
<title>Node13</title>
<g id="a_node13"><a xlink:href="buffer__map__types_8hpp.html" target="_top" xlink:title=" ">
<polygon fill="white" stroke="#666666" points="973,-453.5 873,-453.5 873,-423.5 973,-423.5 973,-453.5"/>
<text text-anchor="start" x="881" y="-441.5" font-family="Helvetica,sans-Serif" font-size="10.00">storage/buffer_map</text>
<text text-anchor="middle" x="923" y="-430.5" font-family="Helvetica,sans-Serif" font-size="10.00">_types.hpp</text>
</a>
</g>
</g>
<!-- Node12&#45;&gt;Node13 -->
<g id="edge12" class="edge">
<title>Node12&#45;&gt;Node13</title>
<path fill="none" stroke="#63b8ff" d="M573.02,-494.53C649.13,-482.57 783.39,-461.45 861.64,-449.15"/>
<polygon fill="#63b8ff" stroke="#63b8ff" points="861.93,-452.65 871.27,-447.63 860.85,-445.73 861.93,-452.65"/>
</g>
<!-- Node26 -->
<g id="node26" class="node">
<title>Node26</title>
<g id="a_node26"><a xlink:href="supergenius__trie__cursor_8hpp.html" target="_top" xlink:title=" ">
<polygon fill="white" stroke="#666666" points="576.5,-459 455.5,-459 455.5,-418 576.5,-418 576.5,-459"/>
<text text-anchor="start" x="463.5" y="-447" font-family="Helvetica,sans-Serif" font-size="10.00">storage/trie/supergenius</text>
<text text-anchor="start" x="463.5" y="-436" font-family="Helvetica,sans-Serif" font-size="10.00">_trie/supergenius_trie</text>
<text text-anchor="middle" x="516" y="-425" font-family="Helvetica,sans-Serif" font-size="10.00">_cursor.hpp</text>
</a>
</g>
</g>
<!-- Node12&#45;&gt;Node26 -->
<g id="edge39" class="edge">
<title>Node12&#45;&gt;Node26</title>
<path fill="none" stroke="#63b8ff" d="M516,-494.6C516,-488.3 516,-479.43 516,-470.65"/>
<polygon fill="#63b8ff" stroke="#63b8ff" points="519.5,-470.89 516,-460.89 512.5,-470.89 519.5,-470.89"/>
</g>
<!-- Node13&#45;&gt;Node8 -->
<g id="edge13" class="edge">
<title>Node13&#45;&gt;Node8</title>
<path fill="none" stroke="#63b8ff" d="M905.42,-423.29C879.48,-400.61 834,-353.51 834,-302 834,-302 834,-302 834,-239.5 834,-200.37 808.62,-160.47 791.73,-138.25"/>
<polygon fill="#63b8ff" stroke="#63b8ff" points="794.58,-136.21 785.63,-130.54 789.09,-140.56 794.58,-136.21"/>
</g>
<!-- Node14 -->
<g id="node14" class="node">
<title>Node14</title>
<g id="a_node14"><a xlink:href="buffer_8hpp.html" target="_top" xlink:title=" ">
<polygon fill="white" stroke="#666666" points="638.5,-250 555.5,-250 555.5,-231 638.5,-231 638.5,-250"/>
<text text-anchor="middle" x="597" y="-238" font-family="Helvetica,sans-Serif" font-size="10.00">base/buffer.hpp</text>
</a>
</g>
</g>
<!-- Node13&#45;&gt;Node14 -->
<g id="edge14" class="edge">
<title>Node13&#45;&gt;Node14</title>
<path fill="none" stroke="#63b8ff" d="M872.73,-426.3C811.66,-410.54 708.35,-376.73 640,-316 622.93,-300.83 610.91,-277.21 604,-260.64"/>
<polygon fill="#63b8ff" stroke="#63b8ff" points="607.31,-259.5 600.42,-251.45 600.79,-262.04 607.31,-259.5"/>
</g>
<!-- Node17 -->
<g id="node17" class="node">
<title>Node17</title>
<g id="a_node17"><a xlink:href="batchable_8hpp.html" target="_top" xlink:title=" ">
<polygon fill="white" stroke="#666666" points="1360,-250 1226,-250 1226,-231 1360,-231 1360,-250"/>
<text text-anchor="middle" x="1293" y="-238" font-family="Helvetica,sans-Serif" font-size="10.00">storage/face/batchable.hpp</text>
</a>
</g>
</g>
<!-- Node13&#45;&gt;Node17 -->
<g id="edge21" class="edge">
<title>Node13&#45;&gt;Node17</title>
<path fill="none" stroke="#63b8ff" d="M950.76,-423.22C972.39,-412.06 1003.15,-396.13 1030,-382 1116.69,-336.36 1218.95,-281.41 1266.37,-255.86"/>
<polygon fill="#63b8ff" stroke="#63b8ff" points="1267.95,-258.99 1275.09,-251.16 1264.63,-252.83 1267.95,-258.99"/>
</g>
<!-- Node19 -->
<g id="node19" class="node">
<title>Node19</title>
<g id="a_node19"><a xlink:href="write__batch_8hpp.html" target="_top" xlink:title=" ">
<polygon fill="white" stroke="#666666" points="1359.5,-195 1264.5,-195 1264.5,-165 1359.5,-165 1359.5,-195"/>
<text text-anchor="start" x="1272.5" y="-183" font-family="Helvetica,sans-Serif" font-size="10.00">storage/face/write</text>
<text text-anchor="middle" x="1312" y="-172" font-family="Helvetica,sans-Serif" font-size="10.00">_batch.hpp</text>
</a>
</g>
</g>
<!-- Node13&#45;&gt;Node19 -->
<g id="edge38" class="edge">
<title>Node13&#45;&gt;Node19</title>
<path fill="none" stroke="#63b8ff" d="M973.18,-433.88C1069.86,-423.86 1280.21,-386.63 1369,-250 1380.18,-232.8 1364.67,-215 1347.03,-201.78"/>
<polygon fill="#63b8ff" stroke="#63b8ff" points="1349.19,-199.02 1338.99,-196.18 1345.2,-204.77 1349.19,-199.02"/>
</g>
<!-- Node21 -->
<g id="node21" class="node">
<title>Node21</title>
<g id="a_node21"><a xlink:href="generic__storage_8hpp.html" target="_top" xlink:title=" ">
<polygon fill="white" stroke="#666666" points="1020.5,-382 915.5,-382 915.5,-352 1020.5,-352 1020.5,-382"/>
<text text-anchor="start" x="923.5" y="-370" font-family="Helvetica,sans-Serif" font-size="10.00">storage/face/generic</text>
<text text-anchor="middle" x="968" y="-359" font-family="Helvetica,sans-Serif" font-size="10.00">_storage.hpp</text>
</a>
</g>
</g>
<!-- Node13&#45;&gt;Node21 -->
<g id="edge27" class="edge">
<title>Node13&#45;&gt;Node21</title>
<path fill="none" stroke="#63b8ff" d="M932.32,-423.1C938.18,-414.06 945.87,-402.18 952.61,-391.77"/>
<polygon fill="#63b8ff" stroke="#63b8ff" points="955.37,-393.95 957.87,-383.65 949.49,-390.14 955.37,-393.95"/>
</g>
<!-- Node14&#45;&gt;Node6 -->
<g id="edge15" class="edge">
<title>Node14&#45;&gt;Node6</title>
<path fill="none" stroke="#63b8ff" d="M555.27,-232.34C552.47,-231.88 549.7,-231.43 547,-231 492.87,-222.41 338.82,-236.49 303,-195 289.63,-179.51 298.54,-155.65 307.74,-139.12"/>
<polygon fill="#63b8ff" stroke="#63b8ff" points="310.6,-141.14 312.8,-130.77 304.62,-137.51 310.6,-141.14"/>
</g>
<!-- Node14&#45;&gt;Node7 -->
<g id="edge16" class="edge">
<title>Node14&#45;&gt;Node7</title>
<path fill="none" stroke="#63b8ff" d="M590.16,-230.56C575.2,-210.99 539.33,-164.09 519.59,-138.28"/>
<polygon fill="#63b8ff" stroke="#63b8ff" points="522.45,-136.24 513.59,-130.43 516.89,-140.5 522.45,-136.24"/>
</g>
<!-- Node14&#45;&gt;Node8 -->
<g id="edge19" class="edge">
<title>Node14&#45;&gt;Node8</title>
<path fill="none" stroke="#63b8ff" d="M638.87,-232.14C665.83,-225.79 700.47,-214.46 726,-195 745.24,-180.33 759.82,-156.26 768.37,-139.46"/>
<polygon fill="#63b8ff" stroke="#63b8ff" points="771.47,-141.1 772.65,-130.57 765.16,-138.06 771.47,-141.1"/>
</g>
<!-- Node14&#45;&gt;Node9 -->
<g id="edge20" class="edge">
<title>Node14&#45;&gt;Node9</title>
<path fill="none" stroke="#63b8ff" d="M627.91,-230.6C648.24,-223.54 674.43,-211.99 693,-195 725.17,-165.57 708.34,-137.72 742,-110 760.99,-94.36 785.78,-84.1 808.61,-77.43"/>
<polygon fill="#63b8ff" stroke="#63b8ff" points="809.43,-80.83 818.16,-74.82 807.6,-74.07 809.43,-80.83"/>
</g>
<!-- Node15 -->
<g id="node15" class="node">
<title>Node15</title>
<g id="a_node15"><a xlink:title=" ">
<polygon fill="#e0e0e0" stroke="#999999" points="684,-195 574,-195 574,-165 684,-165 684,-195"/>
<text text-anchor="start" x="582" y="-183" font-family="Helvetica,sans-Serif" font-size="10.00">boost/container_hash</text>
<text text-anchor="middle" x="629" y="-172" font-family="Helvetica,sans-Serif" font-size="10.00">/hash.hpp</text>
</a>
</g>
</g>
<!-- Node14&#45;&gt;Node15 -->
<g id="edge17" class="edge">
<title>Node14&#45;&gt;Node15</title>
<path fill="none" stroke="#63b8ff" d="M601.72,-230.87C605.46,-224.03 610.87,-214.14 615.89,-204.97"/>
<polygon fill="#63b8ff" stroke="#63b8ff" points="618.82,-206.9 620.55,-196.44 612.68,-203.54 618.82,-206.9"/>
</g>
<!-- Node16 -->
<g id="node16" class="node">
<title>Node16</title>
<g id="a_node16"><a xlink:title=" ">
<polygon fill="#e0e0e0" stroke="#999999" points="518,-189.5 416,-189.5 416,-170.5 518,-170.5 518,-189.5"/>
<text text-anchor="middle" x="467" y="-177.5" font-family="Helvetica,sans-Serif" font-size="10.00">boost/operators.hpp</text>
</a>
</g>
</g>
<!-- Node14&#45;&gt;Node16 -->
<g id="edge18" class="edge">
<title>Node14&#45;&gt;Node16</title>
<path fill="none" stroke="#63b8ff" d="M577.26,-230.62C555.97,-221.04 521.83,-205.68 497.18,-194.58"/>
<polygon fill="#63b8ff" stroke="#63b8ff" points="498.87,-191.5 488.31,-190.59 495.99,-197.89 498.87,-191.5"/>
</g>
<!-- Node18 -->
<g id="node18" class="node">
<title>Node18</title>
<g id="a_node18"><a xlink:title=" ">
<polygon fill="#e0e0e0" stroke="#999999" points="1133.5,-189.5 1082.5,-189.5 1082.5,-170.5 1133.5,-170.5 1133.5,-189.5"/>
<text text-anchor="middle" x="1108" y="-177.5" font-family="Helvetica,sans-Serif" font-size="10.00">memory</text>
</a>
</g>
</g>
<!-- Node17&#45;&gt;Node18 -->
<g id="edge22" class="edge">
<title>Node17&#45;&gt;Node18</title>
<path fill="none" stroke="#63b8ff" d="M1264.9,-230.62C1232.8,-220.46 1180.14,-203.81 1144.79,-192.63"/>
<polygon fill="#63b8ff" stroke="#63b8ff" points="1146,-189.35 1135.41,-189.67 1143.89,-196.02 1146,-189.35"/>
</g>
<!-- Node17&#45;&gt;Node19 -->
<g id="edge23" class="edge">
<title>Node17&#45;&gt;Node19</title>
<path fill="none" stroke="#63b8ff" d="M1295.8,-230.87C1297.95,-224.25 1301.03,-214.78 1303.93,-205.86"/>
<polygon fill="#63b8ff" stroke="#63b8ff" points="1307.19,-207.15 1306.95,-196.55 1300.53,-204.98 1307.19,-207.15"/>
</g>
<!-- Node20 -->
<g id="node20" class="node">
<title>Node20</title>
<g id="a_node20"><a xlink:href="writeable_8hpp.html" target="_top" xlink:title=" ">
<polygon fill="white" stroke="#666666" points="1282.5,-129 1151.5,-129 1151.5,-110 1282.5,-110 1282.5,-129"/>
<text text-anchor="middle" x="1217" y="-117" font-family="Helvetica,sans-Serif" font-size="10.00">storage/face/writeable.hpp</text>
</a>
</g>
</g>
<!-- Node17&#45;&gt;Node20 -->
<g id="edge26" class="edge">
<title>Node17&#45;&gt;Node20</title>
<path fill="none" stroke="#63b8ff" d="M1284.76,-230.74C1276.84,-222.06 1264.81,-208.21 1256,-195 1244,-176.99 1232.82,-154.87 1225.54,-139.42"/>
<polygon fill="#63b8ff" stroke="#63b8ff" points="1228.77,-138.09 1221.41,-130.47 1222.42,-141.02 1228.77,-138.09"/>
</g>
<!-- Node19&#45;&gt;Node20 -->
<g id="edge24" class="edge">
<title>Node19&#45;&gt;Node20</title>
<path fill="none" stroke="#63b8ff" d="M1288.52,-164.54C1274.1,-155.66 1255.69,-144.32 1241.15,-135.37"/>
<polygon fill="#63b8ff" stroke="#63b8ff" points="1243,-132.4 1232.65,-130.14 1239.33,-138.36 1243,-132.4"/>
</g>
<!-- Node20&#45;&gt;Node9 -->
<g id="edge25" class="edge">
<title>Node20&#45;&gt;Node9</title>
<path fill="none" stroke="#63b8ff" d="M1158.48,-109.51C1097.99,-100.22 1003.67,-85.73 939.94,-75.94"/>
<polygon fill="#63b8ff" stroke="#63b8ff" points="940.71,-72.52 930.3,-74.46 939.65,-79.43 940.71,-72.52"/>
</g>
<!-- Node22 -->
<g id="node22" class="node">
<title>Node22</title>
<g id="a_node22"><a xlink:href="generic__maps_8hpp.html" target="_top" xlink:title=" ">
<polygon fill="white" stroke="#666666" points="1116.5,-316 1011.5,-316 1011.5,-286 1116.5,-286 1116.5,-316"/>
<text text-anchor="start" x="1019.5" y="-304" font-family="Helvetica,sans-Serif" font-size="10.00">storage/face/generic</text>
<text text-anchor="middle" x="1064" y="-293" font-family="Helvetica,sans-Serif" font-size="10.00">_maps.hpp</text>
</a>
</g>
</g>
<!-- Node21&#45;&gt;Node22 -->
<g id="edge28" class="edge">
<title>Node21&#45;&gt;Node22</title>
<path fill="none" stroke="#63b8ff" d="M989.31,-351.8C1002.14,-343.24 1018.71,-332.19 1032.98,-322.68"/>
<polygon fill="#63b8ff" stroke="#63b8ff" points="1034.78,-325.68 1041.16,-317.22 1030.9,-319.86 1034.78,-325.68"/>
</g>
<!-- Node22&#45;&gt;Node17 -->
<g id="edge29" class="edge">
<title>Node22&#45;&gt;Node17</title>
<path fill="none" stroke="#63b8ff" d="M1116.82,-286.51C1156.09,-276.48 1209.14,-262.92 1246.74,-253.32"/>
<polygon fill="#63b8ff" stroke="#63b8ff" points="1247.59,-256.71 1256.41,-250.85 1245.86,-249.93 1247.59,-256.71"/>
</g>
<!-- Node22&#45;&gt;Node20 -->
<g id="edge37" class="edge">
<title>Node22&#45;&gt;Node20</title>
<path fill="none" stroke="#63b8ff" d="M1116.91,-287.69C1138.84,-280.14 1162.87,-268.28 1179,-250 1206.57,-218.76 1214.17,-168.43 1216.25,-140.61"/>
<polygon fill="#63b8ff" stroke="#63b8ff" points="1219.73,-140.94 1216.79,-130.76 1212.74,-140.55 1219.73,-140.94"/>
</g>
<!-- Node23 -->
<g id="node23" class="node">
<title>Node23</title>
<g id="a_node23"><a xlink:href="iterable_8hpp.html" target="_top" xlink:title=" ">
<polygon fill="white" stroke="#666666" points="1169.5,-250 1046.5,-250 1046.5,-231 1169.5,-231 1169.5,-250"/>
<text text-anchor="middle" x="1108" y="-238" font-family="Helvetica,sans-Serif" font-size="10.00">storage/face/iterable.hpp</text>
</a>
</g>
</g>
<!-- Node22&#45;&gt;Node23 -->
<g id="edge30" class="edge">
<title>Node22&#45;&gt;Node23</title>
<path fill="none" stroke="#63b8ff" d="M1074.88,-285.54C1080.88,-277.56 1088.37,-267.59 1094.72,-259.16"/>
<polygon fill="#63b8ff" stroke="#63b8ff" points="1097.35,-261.48 1100.57,-251.38 1091.76,-257.27 1097.35,-261.48"/>
</g>
<!-- Node25 -->
<g id="node25" class="node">
<title>Node25</title>
<g id="a_node25"><a xlink:href="readable_8hpp.html" target="_top" xlink:title=" ">
<polygon fill="white" stroke="#666666" points="1028,-250 900,-250 900,-231 1028,-231 1028,-250"/>
<text text-anchor="middle" x="964" y="-238" font-family="Helvetica,sans-Serif" font-size="10.00">storage/face/readable.hpp</text>
</a>
</g>
</g>
<!-- Node22&#45;&gt;Node25 -->
<g id="edge34" class="edge">
<title>Node22&#45;&gt;Node25</title>
<path fill="none" stroke="#63b8ff" d="M1039.28,-285.54C1023.96,-276.58 1004.34,-265.1 988.98,-256.11"/>
<polygon fill="#63b8ff" stroke="#63b8ff" points="990.83,-253.14 980.43,-251.11 987.29,-259.18 990.83,-253.14"/>
</g>
<!-- Node23&#45;&gt;Node18 -->
<g id="edge31" class="edge">
<title>Node23&#45;&gt;Node18</title>
<path fill="none" stroke="#63b8ff" d="M1108,-230.87C1108,-223 1108,-211.1 1108,-200.89"/>
<polygon fill="#63b8ff" stroke="#63b8ff" points="1111.5,-201.18 1108,-191.18 1104.5,-201.18 1111.5,-201.18"/>
</g>
<!-- Node24 -->
<g id="node24" class="node">
<title>Node24</title>
<g id="a_node24"><a xlink:href="map__cursor_8hpp.html" target="_top" xlink:title=" ">
<polygon fill="white" stroke="#666666" points="1043.5,-189.5 900.5,-189.5 900.5,-170.5 1043.5,-170.5 1043.5,-189.5"/>
<text text-anchor="middle" x="972" y="-177.5" font-family="Helvetica,sans-Serif" font-size="10.00">storage/face/map_cursor.hpp</text>
</a>
</g>
</g>
<!-- Node23&#45;&gt;Node24 -->
<g id="edge32" class="edge">
<title>Node23&#45;&gt;Node24</title>
<path fill="none" stroke="#63b8ff" d="M1087.34,-230.62C1064.98,-220.99 1029.04,-205.54 1003.23,-194.43"/>
<polygon fill="#63b8ff" stroke="#63b8ff" points="1004.81,-191.3 994.24,-190.57 1002.04,-197.73 1004.81,-191.3"/>
</g>
<!-- Node24&#45;&gt;Node9 -->
<g id="edge33" class="edge">
<title>Node24&#45;&gt;Node9</title>
<path fill="none" stroke="#63b8ff" d="M964.15,-170.09C947.58,-151.28 908.75,-107.21 887.16,-82.71"/>
<polygon fill="#63b8ff" stroke="#63b8ff" points="890.05,-80.69 880.81,-75.5 884.8,-85.32 890.05,-80.69"/>
</g>
<!-- Node25&#45;&gt;Node9 -->
<g id="edge35" class="edge">
<title>Node25&#45;&gt;Node9</title>
<path fill="none" stroke="#63b8ff" d="M939.35,-230.63C923.25,-223.51 903.2,-211.9 892,-195 869.86,-161.59 868.72,-112.84 870.16,-85.68"/>
<polygon fill="#63b8ff" stroke="#63b8ff" points="873.65,-85.98 870.89,-75.75 866.67,-85.47 873.65,-85.98"/>
</g>
<!-- Node25&#45;&gt;Node24 -->
<g id="edge36" class="edge">
<title>Node25&#45;&gt;Node24</title>
<path fill="none" stroke="#63b8ff" d="M965.18,-230.87C966.26,-223 967.88,-211.1 969.28,-200.89"/>
<polygon fill="#63b8ff" stroke="#63b8ff" points="972.72,-201.55 970.61,-191.17 965.79,-200.6 972.72,-201.55"/>
</g>
<!-- Node26&#45;&gt;Node14 -->
<g id="edge41" class="edge">
<title>Node26&#45;&gt;Node14</title>
<path fill="none" stroke="#63b8ff" d="M455.19,-418.9C380.98,-393.16 271.06,-343.32 320,-286 351.22,-249.43 480.17,-257.15 544.12,-250.13"/>
<polygon fill="#63b8ff" stroke="#63b8ff" points="544.32,-253.63 553.76,-248.83 543.39,-246.69 544.32,-253.63"/>
</g>
<!-- Node26&#45;&gt;Node24 -->
<g id="edge40" class="edge">
<title>Node26&#45;&gt;Node24</title>
<path fill="none" stroke="#63b8ff" d="M573.22,-417.63C599.97,-407.79 632.01,-395.2 660,-382 714,-356.53 726.97,-348.58 777,-316 829.96,-281.52 838.73,-266.52 891,-231 909.39,-218.5 930.82,-205.33 947.02,-195.65"/>
<polygon fill="#63b8ff" stroke="#63b8ff" points="948.71,-198.72 955.52,-190.6 945.13,-192.7 948.71,-198.72"/>
</g>
<!-- Node27 -->
<g id="node27" class="node">
<title>Node27</title>
<g id="a_node27"><a xlink:href="supergenius__trie_8hpp.html" target="_top" xlink:title=" ">
<polygon fill="white" stroke="#666666" points="651,-382 523,-382 523,-352 651,-352 651,-382"/>
<text text-anchor="start" x="531" y="-370" font-family="Helvetica,sans-Serif" font-size="10.00">storage/trie/supergenius</text>
<text text-anchor="middle" x="587" y="-359" font-family="Helvetica,sans-Serif" font-size="10.00">_trie/supergenius_trie.hpp</text>
</a>
</g>
</g>
<!-- Node26&#45;&gt;Node27 -->
<g id="edge42" class="edge">
<title>Node26&#45;&gt;Node27</title>
<path fill="none" stroke="#63b8ff" d="M536.16,-417.77C544.85,-409.25 555.08,-399.25 564.06,-390.45"/>
<polygon fill="#63b8ff" stroke="#63b8ff" points="566.43,-393.03 571.13,-383.53 561.54,-388.03 566.43,-393.03"/>
</g>
<!-- Node31 -->
<g id="node31" class="node">
<title>Node31</title>
<g id="a_node31"><a xlink:href="supergenius__codec_8hpp.html" target="_top" xlink:title=" ">
<polygon fill="white" stroke="#666666" points="505,-382 383,-382 383,-352 505,-352 505,-382"/>
<text text-anchor="start" x="391" y="-370" font-family="Helvetica,sans-Serif" font-size="10.00">storage/trie/serialization</text>
<text text-anchor="middle" x="444" y="-359" font-family="Helvetica,sans-Serif" font-size="10.00">/supergenius_codec.hpp</text>
</a>
</g>
</g>
<!-- Node26&#45;&gt;Node31 -->
<g id="edge49" class="edge">
<title>Node26&#45;&gt;Node31</title>
<path fill="none" stroke="#63b8ff" d="M495.56,-417.77C486.74,-409.25 476.37,-399.25 467.26,-390.45"/>
<polygon fill="#63b8ff" stroke="#63b8ff" points="469.71,-387.95 460.08,-383.53 464.85,-392.99 469.71,-387.95"/>
</g>
<!-- Node27&#45;&gt;Node22 -->
<g id="edge43" class="edge">
<title>Node27&#45;&gt;Node22</title>
<path fill="none" stroke="#63b8ff" d="M651.33,-357.37C742.66,-345.11 908.91,-322.81 1000.04,-310.58"/>
<polygon fill="#63b8ff" stroke="#63b8ff" points="1000.36,-314.07 1009.8,-309.27 999.43,-307.13 1000.36,-314.07"/>
</g>
<!-- Node28 -->
<g id="node28" class="node">
<title>Node28</title>
<g id="a_node28"><a xlink:href="supergenius__node_8hpp.html" target="_top" xlink:title=" ">
<polygon fill="white" stroke="#666666" points="591.5,-316 456.5,-316 456.5,-286 591.5,-286 591.5,-316"/>
<text text-anchor="start" x="464.5" y="-304" font-family="Helvetica,sans-Serif" font-size="10.00">storage/trie/supergenius</text>
<text text-anchor="middle" x="524" y="-293" font-family="Helvetica,sans-Serif" font-size="10.00">_trie/supergenius_node.hpp</text>
</a>
</g>
</g>
<!-- Node27&#45;&gt;Node28 -->
<g id="edge44" class="edge">
<title>Node27&#45;&gt;Node28</title>
<path fill="none" stroke="#63b8ff" d="M573.02,-351.8C565.02,-343.68 554.83,-333.31 545.8,-324.15"/>
<polygon fill="#63b8ff" stroke="#63b8ff" points="548.51,-321.91 539,-317.24 543.53,-326.82 548.51,-321.91"/>
</g>
<!-- Node28&#45;&gt;Node2 -->
<g id="edge46" class="edge">
<title>Node28&#45;&gt;Node2</title>
<path fill="none" stroke="#63b8ff" d="M456.4,-287.68C453.22,-287.11 450.08,-286.55 447,-286 375.84,-273.32 293.44,-259.01 242.02,-250.12"/>
<polygon fill="#63b8ff" stroke="#63b8ff" points="242.84,-246.71 232.39,-248.46 241.65,-253.61 242.84,-246.71"/>
</g>
<!-- Node28&#45;&gt;Node14 -->
<g id="edge47" class="edge">
<title>Node28&#45;&gt;Node14</title>
<path fill="none" stroke="#63b8ff" d="M542.04,-285.54C552.76,-276.96 566.34,-266.07 577.33,-257.26"/>
<polygon fill="#63b8ff" stroke="#63b8ff" points="579.38,-260.11 584.99,-251.12 575,-254.64 579.38,-260.11"/>
</g>
<!-- Node29 -->
<g id="node29" class="node">
<title>Node29</title>
<g id="a_node29"><a xlink:title=" ">
<polygon fill="#e0e0e0" stroke="#999999" points="537.5,-250 442.5,-250 442.5,-231 537.5,-231 537.5,-250"/>
<text text-anchor="middle" x="490" y="-238" font-family="Helvetica,sans-Serif" font-size="10.00">boost/optional.hpp</text>
</a>
</g>
</g>
<!-- Node28&#45;&gt;Node29 -->
<g id="edge45" class="edge">
<title>Node28&#45;&gt;Node29</title>
<path fill="none" stroke="#63b8ff" d="M515.6,-285.54C511.11,-277.82 505.54,-268.24 500.75,-259.99"/>
<polygon fill="#63b8ff" stroke="#63b8ff" points="503.85,-258.37 495.8,-251.48 497.8,-261.89 503.85,-258.37"/>
</g>
<!-- Node30 -->
<g id="node30" class="node">
<title>Node30</title>
<g id="a_node30"><a xlink:href="src_2storage_2trie_2node_8hpp.html" target="_top" xlink:title=" ">
<polygon fill="white" stroke="#666666" points="378.5,-250 271.5,-250 271.5,-231 378.5,-231 378.5,-250"/>
<text text-anchor="middle" x="325" y="-238" font-family="Helvetica,sans-Serif" font-size="10.00">storage/trie/node.hpp</text>
</a>
</g>
</g>
<!-- Node28&#45;&gt;Node30 -->
<g id="edge48" class="edge">
<title>Node28&#45;&gt;Node30</title>
<path fill="none" stroke="#63b8ff" d="M474.81,-285.54C441.49,-275.75 397.97,-262.95 366.42,-253.68"/>
<polygon fill="#63b8ff" stroke="#63b8ff" points="367.42,-250.32 356.84,-250.86 365.44,-257.04 367.42,-250.32"/>
</g>
<!-- Node31&#45;&gt;Node18 -->
<g id="edge50" class="edge">
<title>Node31&#45;&gt;Node18</title>
<path fill="none" stroke="#63b8ff" d="M505.42,-353.49C508.32,-352.97 511.19,-352.47 514,-352 630.34,-332.42 667.81,-360.68 777,-316 835.49,-292.07 833.54,-257.33 891,-231 958.05,-200.27 981.25,-212.1 1053,-195 1058.93,-193.59 1065.21,-192.04 1071.32,-190.5"/>
<polygon fill="#63b8ff" stroke="#63b8ff" points="1071.72,-194.01 1080.55,-188.16 1070,-187.23 1071.72,-194.01"/>
</g>
<!-- Node31&#45;&gt;Node28 -->
<g id="edge60" class="edge">
<title>Node31&#45;&gt;Node28</title>
<path fill="none" stroke="#63b8ff" d="M461.75,-351.8C472.14,-343.49 485.47,-332.83 497.12,-323.5"/>
<polygon fill="#63b8ff" stroke="#63b8ff" points="499.21,-326.31 504.84,-317.33 494.84,-320.84 499.21,-326.31"/>
</g>
<!-- Node32 -->
<g id="node32" class="node">
<title>Node32</title>
<g id="a_node32"><a xlink:title=" ">
<polygon fill="#e0e0e0" stroke="#999999" points="379,-310.5 329,-310.5 329,-291.5 379,-291.5 379,-310.5"/>
<text text-anchor="middle" x="354" y="-298.5" font-family="Helvetica,sans-Serif" font-size="10.00">optional</text>
</a>
</g>
</g>
<!-- Node31&#45;&gt;Node32 -->
<g id="edge51" class="edge">
<title>Node31&#45;&gt;Node32</title>
<path fill="none" stroke="#63b8ff" d="M424.03,-351.8C409.72,-341.62 390.47,-327.93 375.77,-317.48"/>
<polygon fill="#63b8ff" stroke="#63b8ff" points="377.85,-314.66 367.67,-311.72 373.79,-320.37 377.85,-314.66"/>
</g>
<!-- Node33 -->
<g id="node33" class="node">
<title>Node33</title>
<g id="a_node33"><a xlink:title=" ">
<polygon fill="#e0e0e0" stroke="#999999" points="438.5,-310.5 397.5,-310.5 397.5,-291.5 438.5,-291.5 438.5,-310.5"/>
<text text-anchor="middle" x="418" y="-298.5" font-family="Helvetica,sans-Serif" font-size="10.00">string</text>
</a>
</g>
</g>
<!-- Node31&#45;&gt;Node33 -->
<g id="edge52" class="edge">
<title>Node31&#45;&gt;Node33</title>
<path fill="none" stroke="#63b8ff" d="M438.23,-351.8C434.57,-342.8 429.8,-331.04 425.81,-321.22"/>
<polygon fill="#63b8ff" stroke="#63b8ff" points="429.17,-320.19 422.16,-312.25 422.68,-322.83 429.17,-320.19"/>
</g>
<!-- Node34 -->
<g id="node34" class="node">
<title>Node34</title>
<g id="a_node34"><a xlink:href="buffer__stream_8hpp.html" target="_top" xlink:title=" ">
<polygon fill="white" stroke="#666666" points="767.5,-316 648.5,-316 648.5,-286 767.5,-286 767.5,-316"/>
<text text-anchor="start" x="656.5" y="-304" font-family="Helvetica,sans-Serif" font-size="10.00">storage/trie/serialization</text>
<text text-anchor="middle" x="708" y="-293" font-family="Helvetica,sans-Serif" font-size="10.00">/buffer_stream.hpp</text>
</a>
</g>
</g>
<!-- Node31&#45;&gt;Node34 -->
<g id="edge53" class="edge">
<title>Node31&#45;&gt;Node34</title>
<path fill="none" stroke="#63b8ff" d="M503.58,-351.56C543.36,-341.91 595.86,-329.18 637.7,-319.04"/>
<polygon fill="#63b8ff" stroke="#63b8ff" points="638.28,-322.5 647.17,-316.75 636.63,-315.7 638.28,-322.5"/>
</g>
<!-- Node35 -->
<g id="node35" class="node">
<title>Node35</title>
<g id="a_node35"><a xlink:href="codec_8hpp.html" target="_top" xlink:title=" ">
<polygon fill="white" stroke="#666666" points="272.5,-310.5 159.5,-310.5 159.5,-291.5 272.5,-291.5 272.5,-310.5"/>
<text text-anchor="middle" x="216" y="-298.5" font-family="Helvetica,sans-Serif" font-size="10.00">storage/trie/codec.hpp</text>
</a>
</g>
</g>
<!-- Node31&#45;&gt;Node35 -->
<g id="edge56" class="edge">
<title>Node31&#45;&gt;Node35</title>
<path fill="none" stroke="#63b8ff" d="M392.55,-351.56C352.14,-340.22 296.56,-324.61 258.62,-313.96"/>
<polygon fill="#63b8ff" stroke="#63b8ff" points="259.96,-310.7 249.39,-311.37 258.07,-317.44 259.96,-310.7"/>
</g>
<!-- Node34&#45;&gt;Node8 -->
<g id="edge54" class="edge">
<title>Node34&#45;&gt;Node8</title>
<path fill="none" stroke="#63b8ff" d="M714.69,-285.57C723.89,-265.48 740.69,-227.88 753,-195 759.92,-176.52 766.71,-155.04 771.29,-139.91"/>
<polygon fill="#63b8ff" stroke="#63b8ff" points="774.52,-141.34 774.02,-130.76 767.81,-139.34 774.52,-141.34"/>
</g>
<!-- Node34&#45;&gt;Node14 -->
<g id="edge55" class="edge">
<title>Node34&#45;&gt;Node14</title>
<path fill="none" stroke="#63b8ff" d="M680.56,-285.54C663.23,-276.4 640.94,-264.66 623.75,-255.6"/>
<polygon fill="#63b8ff" stroke="#63b8ff" points="625.6,-252.62 615.12,-251.05 622.34,-258.81 625.6,-252.62"/>
</g>
<!-- Node35&#45;&gt;Node2 -->
<g id="edge57" class="edge">
<title>Node35&#45;&gt;Node2</title>
<path fill="none" stroke="#63b8ff" d="M212.46,-291.37C209.16,-283.33 204.13,-271.07 199.88,-260.72"/>
<polygon fill="#63b8ff" stroke="#63b8ff" points="203.16,-259.49 196.13,-251.57 196.69,-262.15 203.16,-259.49"/>
</g>
<!-- Node35&#45;&gt;Node14 -->
<g id="edge58" class="edge">
<title>Node35&#45;&gt;Node14</title>
<path fill="none" stroke="#63b8ff" d="M259.48,-291.02C268.56,-289.26 278.08,-287.5 287,-286 398.46,-267.31 429.77,-267.73 543.71,-250.46"/>
<polygon fill="#63b8ff" stroke="#63b8ff" points="544.15,-253.94 553.51,-248.96 543.09,-247.02 544.15,-253.94"/>
</g>
<!-- Node35&#45;&gt;Node30 -->
<g id="edge59" class="edge">
<title>Node35&#45;&gt;Node30</title>
<path fill="none" stroke="#63b8ff" d="M232.55,-291.12C250,-281.75 277.75,-266.86 298.29,-255.83"/>
<polygon fill="#63b8ff" stroke="#63b8ff" points="299.8,-259 306.96,-251.18 296.49,-252.83 299.8,-259"/>
</g>
</g>
</svg>
        <g id="navigator" transform="translate(0 0)" fill="#404254">
                <rect fill="#f2f5e9" fill-opacity="0.5" stroke="#606060" stroke-width=".5" x="0" y="0" width="60" height="60"/>
                <use id="zoomplus" xlink:href="#zoomPlus" x="17" y="9" onmousedown="handleZoom(evt,'in')"/>
                <use id="zoomminus" xlink:href="#zoomMin" x="42" y="9" onmousedown="handleZoom(evt,'out')"/>
                <use id="reset" xlink:href="#resetDef" x="30" y="36" onmousedown="handleReset()"/>
                <g id="arrowUp" xlink:href="#dirArrow" transform="translate(30 24)" onmousedown="handlePan(0,-1)">
                  <use xlink:href="#rim" fill="#404040">
                        <set attributeName="fill" to="#808080" begin="arrowUp.mouseover" end="arrowUp.mouseout"/>
                  </use>
                  <path fill="none" stroke="white" stroke-width="1.5" d="M0,-3.0v7 M-2.5,-0.5L0,-3.0L2.5,-0.5"/>
                </g>
                <g id="arrowRight" xlink:href="#dirArrow" transform="rotate(90) translate(36 -43)" onmousedown="handlePan(1,0)">
                  <use xlink:href="#rim" fill="#404040">
                        <set attributeName="fill" to="#808080" begin="arrowRight.mouseover" end="arrowRight.mouseout"/>
                  </use>
                  <path fill="none" stroke="white" stroke-width="1.5" d="M0,-3.0v7 M-2.5,-0.5L0,-3.0L2.5,-0.5"/>
                </g>
                <g id="arrowDown" xlink:href="#dirArrow" transform="rotate(180) translate(-30 -48)" onmousedown="handlePan(0,1)">
                  <use xlink:href="#rim" fill="#404040">
                        <set attributeName="fill" to="#808080" begin="arrowDown.mouseover" end="arrowDown.mouseout"/>
                  </use>
                  <path fill="none" stroke="white" stroke-width="1.5" d="M0,-3.0v7 M-2.5,-0.5L0,-3.0L2.5,-0.5"/>
                </g>
                <g id="arrowLeft" xlink:href="#dirArrow" transform="rotate(270) translate(-36 17)" onmousedown="handlePan(-1,0)">
                  <use xlink:href="#rim" fill="#404040">
                        <set attributeName="fill" to="#808080" begin="arrowLeft.mouseover" end="arrowLeft.mouseout"/>
                  </use>
                  <path fill="none" stroke="white" stroke-width="1.5" d="M0,-3.0v7 M-2.5,-0.5L0,-3.0L2.5,-0.5"/>
                </g>
        </g>
        <svg viewBox="0 0 15 15" width="100%" height="30px" preserveAspectRatio="xMaxYMin meet">
         <g id="arrow_out" transform="scale(0.3 0.3)">
          <a xlink:href="trie__storage_8hpp__incl_org.svg" target="_base">
           <rect id="button" ry="5" rx="5" y="6" x="6" height="38" width="38"
                fill="#f2f5e9" fill-opacity="0.5" stroke="#606060" stroke-width="1.0"/>
           <path id="arrow"
             d="M 11.500037,31.436501 C 11.940474,20.09759 22.043105,11.32322 32.158766,21.979434 L 37.068811,17.246167 C 37.068811,17.246167 37.088388,32 37.088388,32 L 22.160133,31.978069 C 22.160133,31.978069 26.997745,27.140456 26.997745,27.140456 C 18.528582,18.264221 13.291696,25.230495 11.500037,31.436501 z"
             style="fill:#404040;"/>
          </a>
         </g>
        </svg>
</svg>
