<?xml version="1.0" encoding="UTF-8" standalone="no"?>
<!DOCTYPE svg PUBLIC "-//W3C//DTD SVG 1.1//EN"
 "http://www.w3.org/Graphics/SVG/1.1/DTD/svg11.dtd">
<!-- Generated by graphviz version 7.0.5 (20221223.1930)
 -->
<!-- Title: src/storage/trie/serialization/trie_serializer.hpp Pages: 1 -->
<svg width="827pt" height="478pt"
 viewBox="0.00 0.00 827.00 478.00" xmlns="http://www.w3.org/2000/svg" xmlns:xlink="http://www.w3.org/1999/xlink">
<g id="graph0" class="graph" transform="scale(1 1) rotate(0) translate(4 474)">
<title>src/storage/trie/serialization/trie_serializer.hpp</title>
<!-- Node1 -->
<g id="node1" class="node">
<title>Node1</title>
<g id="a_node1"><a xlink:title=" ">
<polygon fill="#999999" stroke="#666666" points="382,-470 246,-470 246,-440 382,-440 382,-470"/>
<text text-anchor="start" x="254" y="-458" font-family="Helvetica,sans-Serif" font-size="10.00">src/storage/trie/serialization</text>
<text text-anchor="middle" x="314" y="-447" font-family="Helvetica,sans-Serif" font-size="10.00">/trie_serializer.hpp</text>
</a>
</g>
</g>
<!-- Node2 -->
<g id="node2" class="node">
<title>Node2</title>
<g id="a_node2"><a xlink:href="persistent__trie__batch__impl_8hpp.html" target="_top" xlink:title=" ">
<polygon fill="white" stroke="#666666" points="239,-404 129,-404 129,-363 239,-363 239,-404"/>
<text text-anchor="start" x="137" y="-392" font-family="Helvetica,sans-Serif" font-size="10.00">src/storage/trie/impl</text>
<text text-anchor="start" x="137" y="-381" font-family="Helvetica,sans-Serif" font-size="10.00">/persistent_trie_batch</text>
<text text-anchor="middle" x="184" y="-370" font-family="Helvetica,sans-Serif" font-size="10.00">_impl.hpp</text>
</a>
</g>
</g>
<!-- Node1&#45;&gt;Node2 -->
<g id="edge1" class="edge">
<title>Node1&#45;&gt;Node2</title>
<path fill="none" stroke="#63b8ff" d="M277.2,-434.33C259.7,-424.97 238.81,-413.8 221.25,-404.42"/>
<polygon fill="#63b8ff" stroke="#63b8ff" points="275.26,-437.26 285.73,-438.89 278.56,-431.08 275.26,-437.26"/>
</g>
<!-- Node5 -->
<g id="node5" class="node">
<title>Node5</title>
<g id="a_node5"><a xlink:href="trie__storage__impl_8hpp.html" target="_top" xlink:title=" ">
<polygon fill="white" stroke="#666666" points="370,-398.5 258,-398.5 258,-368.5 370,-368.5 370,-398.5"/>
<text text-anchor="start" x="266" y="-386.5" font-family="Helvetica,sans-Serif" font-size="10.00">src/storage/trie/impl</text>
<text text-anchor="middle" x="314" y="-375.5" font-family="Helvetica,sans-Serif" font-size="10.00">/trie_storage_impl.hpp</text>
</a>
</g>
</g>
<!-- Node1&#45;&gt;Node5 -->
<g id="edge4" class="edge">
<title>Node1&#45;&gt;Node5</title>
<path fill="none" stroke="#63b8ff" d="M314,-428.26C314,-418.33 314,-407.36 314,-398.88"/>
<polygon fill="#63b8ff" stroke="#63b8ff" points="310.5,-428.09 314,-438.09 317.5,-428.09 310.5,-428.09"/>
</g>
<!-- Node21 -->
<g id="node21" class="node">
<title>Node21</title>
<g id="a_node21"><a xlink:href="trie__serializer__impl_8hpp.html" target="_top" xlink:title=" ">
<polygon fill="white" stroke="#666666" points="525,-398.5 389,-398.5 389,-368.5 525,-368.5 525,-398.5"/>
<text text-anchor="start" x="397" y="-386.5" font-family="Helvetica,sans-Serif" font-size="10.00">src/storage/trie/serialization</text>
<text text-anchor="middle" x="457" y="-375.5" font-family="Helvetica,sans-Serif" font-size="10.00">/trie_serializer_impl.hpp</text>
</a>
</g>
</g>
<!-- Node1&#45;&gt;Node21 -->
<g id="edge23" class="edge">
<title>Node1&#45;&gt;Node21</title>
<path fill="none" stroke="#63b8ff" d="M353.9,-434.61C377.21,-423.28 406.13,-409.22 427.41,-398.88"/>
<polygon fill="#63b8ff" stroke="#63b8ff" points="352.46,-431.42 344.99,-438.94 355.51,-437.71 352.46,-431.42"/>
</g>
<!-- Node3 -->
<g id="node3" class="node">
<title>Node3</title>
<g id="a_node3"><a xlink:href="persistent__trie__batch__impl_8cpp.html" target="_top" xlink:title=" ">
<polygon fill="white" stroke="#666666" points="110,-327 0,-327 0,-286 110,-286 110,-327"/>
<text text-anchor="start" x="8" y="-315" font-family="Helvetica,sans-Serif" font-size="10.00">src/storage/trie/impl</text>
<text text-anchor="start" x="8" y="-304" font-family="Helvetica,sans-Serif" font-size="10.00">/persistent_trie_batch</text>
<text text-anchor="middle" x="55" y="-293" font-family="Helvetica,sans-Serif" font-size="10.00">_impl.cpp</text>
</a>
</g>
</g>
<!-- Node2&#45;&gt;Node3 -->
<g id="edge2" class="edge">
<title>Node2&#45;&gt;Node3</title>
<path fill="none" stroke="#63b8ff" d="M140.27,-357.08C123.67,-347.42 105.01,-336.58 89.39,-327.49"/>
<polygon fill="#63b8ff" stroke="#63b8ff" points="138.06,-359.84 148.46,-361.84 141.57,-353.79 138.06,-359.84"/>
</g>
<!-- Node4 -->
<g id="node4" class="node">
<title>Node4</title>
<g id="a_node4"><a xlink:href="trie__storage__impl_8cpp.html" target="_top" xlink:title=" ">
<polygon fill="white" stroke="#666666" points="240,-321.5 128,-321.5 128,-291.5 240,-291.5 240,-321.5"/>
<text text-anchor="start" x="136" y="-309.5" font-family="Helvetica,sans-Serif" font-size="10.00">src/storage/trie/impl</text>
<text text-anchor="middle" x="184" y="-298.5" font-family="Helvetica,sans-Serif" font-size="10.00">/trie_storage_impl.cpp</text>
</a>
</g>
</g>
<!-- Node2&#45;&gt;Node4 -->
<g id="edge3" class="edge">
<title>Node2&#45;&gt;Node4</title>
<path fill="none" stroke="#63b8ff" d="M184,-351.28C184,-341.07 184,-330.21 184,-321.86"/>
<polygon fill="#63b8ff" stroke="#63b8ff" points="180.5,-351.28 184,-361.28 187.5,-351.28 180.5,-351.28"/>
</g>
<!-- Node5&#45;&gt;Node4 -->
<g id="edge22" class="edge">
<title>Node5&#45;&gt;Node4</title>
<path fill="none" stroke="#63b8ff" d="M279.24,-362.44C257.09,-349.67 228.93,-333.42 208.99,-321.92"/>
<polygon fill="#63b8ff" stroke="#63b8ff" points="277.21,-365.32 287.62,-367.28 280.71,-359.25 277.21,-365.32"/>
</g>
<!-- Node6 -->
<g id="node6" class="node">
<title>Node6</title>
<g id="a_node6"><a xlink:href="application__injector_8hpp.html" target="_top" xlink:title=" ">
<polygon fill="white" stroke="#666666" points="372,-321.5 258,-321.5 258,-291.5 372,-291.5 372,-321.5"/>
<text text-anchor="start" x="266" y="-309.5" font-family="Helvetica,sans-Serif" font-size="10.00">src/injector/application</text>
<text text-anchor="middle" x="315" y="-298.5" font-family="Helvetica,sans-Serif" font-size="10.00">_injector.hpp</text>
</a>
</g>
</g>
<!-- Node5&#45;&gt;Node6 -->
<g id="edge5" class="edge">
<title>Node5&#45;&gt;Node6</title>
<path fill="none" stroke="#63b8ff" d="M314.34,-356.73C314.5,-345.08 314.68,-331.76 314.81,-321.92"/>
<polygon fill="#63b8ff" stroke="#63b8ff" points="310.85,-356.48 314.21,-366.53 317.85,-356.57 310.85,-356.48"/>
</g>
<!-- Node7 -->
<g id="node7" class="node">
<title>Node7</title>
<g id="a_node7"><a xlink:href="application__injector_8cpp.html" target="_top" xlink:title=" ">
<polygon fill="white" stroke="#666666" points="206,-250 92,-250 92,-220 206,-220 206,-250"/>
<text text-anchor="start" x="100" y="-238" font-family="Helvetica,sans-Serif" font-size="10.00">src/injector/application</text>
<text text-anchor="middle" x="149" y="-227" font-family="Helvetica,sans-Serif" font-size="10.00">_injector.cpp</text>
</a>
</g>
</g>
<!-- Node6&#45;&gt;Node7 -->
<g id="edge6" class="edge">
<title>Node6&#45;&gt;Node7</title>
<path fill="none" stroke="#63b8ff" d="M270.14,-286.72C242.84,-275.29 208.49,-260.91 183.35,-250.38"/>
<polygon fill="#63b8ff" stroke="#63b8ff" points="268.63,-289.88 279.21,-290.52 271.34,-283.42 268.63,-289.88"/>
</g>
<!-- Node8 -->
<g id="node8" class="node">
<title>Node8</title>
<g id="a_node8"><a xlink:href="block__producing__node__injector_8hpp.html" target="_top" xlink:title=" ">
<polygon fill="white" stroke="#666666" points="490.5,-184 345.5,-184 345.5,-154 490.5,-154 490.5,-184"/>
<text text-anchor="start" x="353.5" y="-172" font-family="Helvetica,sans-Serif" font-size="10.00">src/injector/block</text>
<text text-anchor="middle" x="418" y="-161" font-family="Helvetica,sans-Serif" font-size="10.00">_producing_node_injector.hpp</text>
</a>
</g>
</g>
<!-- Node6&#45;&gt;Node8 -->
<g id="edge7" class="edge">
<title>Node6&#45;&gt;Node8</title>
<path fill="none" stroke="#63b8ff" d="M332.75,-282.15C354.09,-254.07 389.25,-207.82 407.01,-184.46"/>
<polygon fill="#63b8ff" stroke="#63b8ff" points="330.01,-279.97 326.74,-290.05 335.58,-284.21 330.01,-279.97"/>
</g>
<!-- Node13 -->
<g id="node13" class="node">
<title>Node13</title>
<g id="a_node13"><a xlink:href="syncing__node__injector_8hpp.html" target="_top" xlink:title=" ">
<polygon fill="white" stroke="#666666" points="325.5,-250 224.5,-250 224.5,-220 325.5,-220 325.5,-250"/>
<text text-anchor="start" x="232.5" y="-238" font-family="Helvetica,sans-Serif" font-size="10.00">src/injector/syncing</text>
<text text-anchor="middle" x="275" y="-227" font-family="Helvetica,sans-Serif" font-size="10.00">_node_injector.hpp</text>
</a>
</g>
</g>
<!-- Node6&#45;&gt;Node13 -->
<g id="edge12" class="edge">
<title>Node6&#45;&gt;Node13</title>
<path fill="none" stroke="#63b8ff" d="M301.12,-281.38C295.17,-271.05 288.42,-259.32 283.28,-250.38"/>
<polygon fill="#63b8ff" stroke="#63b8ff" points="297.94,-282.87 305.96,-289.79 304,-279.37 297.94,-282.87"/>
</g>
<!-- Node17 -->
<g id="node17" class="node">
<title>Node17</title>
<g id="a_node17"><a xlink:href="validating__node__injector_8hpp.html" target="_top" xlink:title=" ">
<polygon fill="white" stroke="#666666" points="514.5,-250 405.5,-250 405.5,-220 514.5,-220 514.5,-250"/>
<text text-anchor="start" x="413.5" y="-238" font-family="Helvetica,sans-Serif" font-size="10.00">src/injector/validating</text>
<text text-anchor="middle" x="460" y="-227" font-family="Helvetica,sans-Serif" font-size="10.00">_node_injector.hpp</text>
</a>
</g>
</g>
<!-- Node6&#45;&gt;Node17 -->
<g id="edge16" class="edge">
<title>Node6&#45;&gt;Node17</title>
<path fill="none" stroke="#63b8ff" d="M355.14,-286.26C378.83,-274.91 408.33,-260.77 429.99,-250.38"/>
<polygon fill="#63b8ff" stroke="#63b8ff" points="353.91,-282.97 346.41,-290.45 356.94,-289.28 353.91,-282.97"/>
</g>
<!-- Node9 -->
<g id="node9" class="node">
<title>Node9</title>
<g id="a_node9"><a xlink:href="block__producing__node__application_8hpp.html" target="_top" xlink:title=" ">
<polygon fill="white" stroke="#666666" points="621,-118 505,-118 505,-77 621,-77 621,-118"/>
<text text-anchor="start" x="513" y="-106" font-family="Helvetica,sans-Serif" font-size="10.00">src/application/impl</text>
<text text-anchor="start" x="513" y="-95" font-family="Helvetica,sans-Serif" font-size="10.00">/block_producing_node</text>
<text text-anchor="middle" x="563" y="-84" font-family="Helvetica,sans-Serif" font-size="10.00">_application.hpp</text>
</a>
</g>
</g>
<!-- Node8&#45;&gt;Node9 -->
<g id="edge8" class="edge">
<title>Node8&#45;&gt;Node9</title>
<path fill="none" stroke="#63b8ff" d="M458.23,-148.72C477.91,-139.28 501.59,-127.94 521.45,-118.42"/>
<polygon fill="#63b8ff" stroke="#63b8ff" points="456.91,-145.47 449.41,-152.95 459.94,-151.78 456.91,-145.47"/>
</g>
<!-- Node12 -->
<g id="node12" class="node">
<title>Node12</title>
<g id="a_node12"><a xlink:href="block__producing__node__injector_8cpp.html" target="_top" xlink:title=" ">
<polygon fill="white" stroke="#666666" points="486.5,-112.5 341.5,-112.5 341.5,-82.5 486.5,-82.5 486.5,-112.5"/>
<text text-anchor="start" x="349.5" y="-100.5" font-family="Helvetica,sans-Serif" font-size="10.00">src/injector/block</text>
<text text-anchor="middle" x="414" y="-89.5" font-family="Helvetica,sans-Serif" font-size="10.00">_producing_node_injector.cpp</text>
</a>
</g>
</g>
<!-- Node8&#45;&gt;Node12 -->
<g id="edge11" class="edge">
<title>Node8&#45;&gt;Node12</title>
<path fill="none" stroke="#63b8ff" d="M416.52,-142.26C415.95,-132.33 415.32,-121.36 414.83,-112.88"/>
<polygon fill="#63b8ff" stroke="#63b8ff" points="413.02,-142.31 417.08,-152.09 420,-141.9 413.02,-142.31"/>
</g>
<!-- Node10 -->
<g id="node10" class="node">
<title>Node10</title>
<g id="a_node10"><a xlink:href="app__delegate_8cpp.html" target="_top" xlink:title=" ">
<polygon fill="white" stroke="#666666" points="819,-30 703,-30 703,-11 819,-11 819,-30"/>
<text text-anchor="middle" x="761" y="-18" font-family="Helvetica,sans-Serif" font-size="10.00">node/app_delegate.cpp</text>
</a>
</g>
</g>
<!-- Node9&#45;&gt;Node10 -->
<g id="edge9" class="edge">
<title>Node9&#45;&gt;Node10</title>
<path fill="none" stroke="#63b8ff" d="M625.99,-72.64C663.89,-58.28 709.94,-40.84 737.28,-30.48"/>
<polygon fill="#63b8ff" stroke="#63b8ff" points="625.07,-69.25 616.96,-76.06 627.55,-75.79 625.07,-69.25"/>
</g>
<!-- Node11 -->
<g id="node11" class="node">
<title>Node11</title>
<g id="a_node11"><a xlink:href="block__producing__node__application_8cpp.html" target="_top" xlink:title=" ">
<polygon fill="white" stroke="#666666" points="621,-41 505,-41 505,0 621,0 621,-41"/>
<text text-anchor="start" x="513" y="-29" font-family="Helvetica,sans-Serif" font-size="10.00">src/application/impl</text>
<text text-anchor="start" x="513" y="-18" font-family="Helvetica,sans-Serif" font-size="10.00">/block_producing_node</text>
<text text-anchor="middle" x="563" y="-7" font-family="Helvetica,sans-Serif" font-size="10.00">_application.cpp</text>
</a>
</g>
</g>
<!-- Node9&#45;&gt;Node11 -->
<g id="edge10" class="edge">
<title>Node9&#45;&gt;Node11</title>
<path fill="none" stroke="#63b8ff" d="M563,-65.36C563,-57.24 563,-48.7 563,-41.33"/>
<polygon fill="#63b8ff" stroke="#63b8ff" points="559.5,-65.28 563,-75.28 566.5,-65.28 559.5,-65.28"/>
</g>
<!-- Node14 -->
<g id="node14" class="node">
<title>Node14</title>
<g id="a_node14"><a xlink:href="syncing__node__application_8hpp.html" target="_top" xlink:title=" ">
<polygon fill="white" stroke="#666666" points="327.5,-184 178.5,-184 178.5,-154 327.5,-154 327.5,-184"/>
<text text-anchor="start" x="186.5" y="-172" font-family="Helvetica,sans-Serif" font-size="10.00">src/application/impl</text>
<text text-anchor="middle" x="253" y="-161" font-family="Helvetica,sans-Serif" font-size="10.00">/syncing_node_application.hpp</text>
</a>
</g>
</g>
<!-- Node13&#45;&gt;Node14 -->
<g id="edge13" class="edge">
<title>Node13&#45;&gt;Node14</title>
<path fill="none" stroke="#63b8ff" d="M266.39,-208.97C263.5,-200.55 260.37,-191.45 257.87,-184.16"/>
<polygon fill="#63b8ff" stroke="#63b8ff" points="263.06,-210.05 269.63,-218.36 269.68,-207.77 263.06,-210.05"/>
</g>
<!-- Node16 -->
<g id="node16" class="node">
<title>Node16</title>
<g id="a_node16"><a xlink:href="syncing__node__injector_8cpp.html" target="_top" xlink:title=" ">
<polygon fill="white" stroke="#666666" points="160.5,-184 59.5,-184 59.5,-154 160.5,-154 160.5,-184"/>
<text text-anchor="start" x="67.5" y="-172" font-family="Helvetica,sans-Serif" font-size="10.00">src/injector/syncing</text>
<text text-anchor="middle" x="110" y="-161" font-family="Helvetica,sans-Serif" font-size="10.00">_node_injector.cpp</text>
</a>
</g>
</g>
<!-- Node13&#45;&gt;Node16 -->
<g id="edge15" class="edge">
<title>Node13&#45;&gt;Node16</title>
<path fill="none" stroke="#63b8ff" d="M227.41,-215.54C201.89,-205.64 170.92,-193.63 147.19,-184.43"/>
<polygon fill="#63b8ff" stroke="#63b8ff" points="225.97,-218.74 236.56,-219.09 228.5,-212.21 225.97,-218.74"/>
</g>
<!-- Node15 -->
<g id="node15" class="node">
<title>Node15</title>
<g id="a_node15"><a xlink:href="syncing__node__application_8cpp.html" target="_top" xlink:title=" ">
<polygon fill="white" stroke="#666666" points="323.5,-112.5 174.5,-112.5 174.5,-82.5 323.5,-82.5 323.5,-112.5"/>
<text text-anchor="start" x="182.5" y="-100.5" font-family="Helvetica,sans-Serif" font-size="10.00">src/application/impl</text>
<text text-anchor="middle" x="249" y="-89.5" font-family="Helvetica,sans-Serif" font-size="10.00">/syncing_node_application.cpp</text>
</a>
</g>
</g>
<!-- Node14&#45;&gt;Node15 -->
<g id="edge14" class="edge">
<title>Node14&#45;&gt;Node15</title>
<path fill="none" stroke="#63b8ff" d="M251.52,-142.26C250.95,-132.33 250.32,-121.36 249.83,-112.88"/>
<polygon fill="#63b8ff" stroke="#63b8ff" points="248.02,-142.31 252.08,-152.09 255,-141.9 248.02,-142.31"/>
</g>
<!-- Node17&#45;&gt;Node8 -->
<g id="edge20" class="edge">
<title>Node17&#45;&gt;Node8</title>
<path fill="none" stroke="#63b8ff" d="M444.51,-210.39C438.73,-201.59 432.35,-191.86 427.3,-184.16"/>
<polygon fill="#63b8ff" stroke="#63b8ff" points="441.44,-212.09 449.85,-218.53 447.29,-208.25 441.44,-212.09"/>
</g>
<!-- Node18 -->
<g id="node18" class="node">
<title>Node18</title>
<g id="a_node18"><a xlink:href="validating__node__application_8hpp.html" target="_top" xlink:title=" ">
<polygon fill="white" stroke="#666666" points="796.5,-184 639.5,-184 639.5,-154 796.5,-154 796.5,-184"/>
<text text-anchor="start" x="647.5" y="-172" font-family="Helvetica,sans-Serif" font-size="10.00">src/application/impl</text>
<text text-anchor="middle" x="718" y="-161" font-family="Helvetica,sans-Serif" font-size="10.00">/validating_node_application.hpp</text>
</a>
</g>
</g>
<!-- Node17&#45;&gt;Node18 -->
<g id="edge17" class="edge">
<title>Node17&#45;&gt;Node18</title>
<path fill="none" stroke="#63b8ff" d="M525.78,-217.68C567.12,-207.43 619.96,-194.32 659.78,-184.44"/>
<polygon fill="#63b8ff" stroke="#63b8ff" points="525.05,-214.26 516.18,-220.06 526.73,-221.05 525.05,-214.26"/>
</g>
<!-- Node20 -->
<g id="node20" class="node">
<title>Node20</title>
<g id="a_node20"><a xlink:href="validating__node__injector_8cpp.html" target="_top" xlink:title=" ">
<polygon fill="white" stroke="#666666" points="617.5,-184 508.5,-184 508.5,-154 617.5,-154 617.5,-184"/>
<text text-anchor="start" x="516.5" y="-172" font-family="Helvetica,sans-Serif" font-size="10.00">src/injector/validating</text>
<text text-anchor="middle" x="563" y="-161" font-family="Helvetica,sans-Serif" font-size="10.00">_node_injector.cpp</text>
</a>
</g>
</g>
<!-- Node17&#45;&gt;Node20 -->
<g id="edge21" class="edge">
<title>Node17&#45;&gt;Node20</title>
<path fill="none" stroke="#63b8ff" d="M492.77,-213.64C508.13,-204.09 526.06,-192.95 539.96,-184.31"/>
<polygon fill="#63b8ff" stroke="#63b8ff" points="491.05,-210.59 484.4,-218.84 494.74,-216.53 491.05,-210.59"/>
</g>
<!-- Node18&#45;&gt;Node10 -->
<g id="edge18" class="edge">
<title>Node18&#45;&gt;Node10</title>
<path fill="none" stroke="#63b8ff" d="M772.79,-148.43C785.96,-141 798.39,-131.07 806,-118 815.17,-102.25 812.09,-94.18 806,-77 799.2,-57.83 782.65,-40.44 771.62,-30.42"/>
<polygon fill="#63b8ff" stroke="#63b8ff" points="771.3,-145.26 764,-152.94 774.5,-151.49 771.3,-145.26"/>
</g>
<!-- Node19 -->
<g id="node19" class="node">
<title>Node19</title>
<g id="a_node19"><a xlink:href="validating__node__application_8cpp.html" target="_top" xlink:title=" ">
<polygon fill="white" stroke="#666666" points="796.5,-112.5 639.5,-112.5 639.5,-82.5 796.5,-82.5 796.5,-112.5"/>
<text text-anchor="start" x="647.5" y="-100.5" font-family="Helvetica,sans-Serif" font-size="10.00">src/application/impl</text>
<text text-anchor="middle" x="718" y="-89.5" font-family="Helvetica,sans-Serif" font-size="10.00">/validating_node_application.cpp</text>
</a>
</g>
</g>
<!-- Node18&#45;&gt;Node19 -->
<g id="edge19" class="edge">
<title>Node18&#45;&gt;Node19</title>
<path fill="none" stroke="#63b8ff" d="M718,-142.26C718,-132.33 718,-121.36 718,-112.88"/>
<polygon fill="#63b8ff" stroke="#63b8ff" points="714.5,-142.09 718,-152.09 721.5,-142.09 714.5,-142.09"/>
</g>
<!-- Node21&#45;&gt;Node6 -->
<g id="edge25" class="edge">
<title>Node21&#45;&gt;Node6</title>
<path fill="none" stroke="#63b8ff" d="M419.68,-362.79C395.4,-349.96 364.27,-333.52 342.29,-321.92"/>
<polygon fill="#63b8ff" stroke="#63b8ff" points="417.81,-365.76 428.28,-367.33 421.07,-359.57 417.81,-365.76"/>
</g>
<!-- Node22 -->
<g id="node22" class="node">
<title>Node22</title>
<g id="a_node22"><a xlink:href="types_8cpp.html" target="_top" xlink:title=" ">
<polygon fill="white" stroke="#666666" points="645.5,-321.5 544.5,-321.5 544.5,-291.5 645.5,-291.5 645.5,-321.5"/>
<text text-anchor="start" x="552.5" y="-309.5" font-family="Helvetica,sans-Serif" font-size="10.00">src/blockchain/impl</text>
<text text-anchor="middle" x="595" y="-298.5" font-family="Helvetica,sans-Serif" font-size="10.00">/types.cpp</text>
</a>
</g>
</g>
<!-- Node21&#45;&gt;Node22 -->
<g id="edge24" class="edge">
<title>Node21&#45;&gt;Node22</title>
<path fill="none" stroke="#63b8ff" d="M493.59,-362.62C517.14,-349.82 547.21,-333.47 568.47,-321.92"/>
<polygon fill="#63b8ff" stroke="#63b8ff" points="492.05,-359.47 484.94,-367.32 495.4,-365.62 492.05,-359.47"/>
</g>
<!-- Node23 -->
<g id="node23" class="node">
<title>Node23</title>
<g id="a_node23"><a xlink:href="trie__serializer__impl_8cpp.html" target="_top" xlink:title=" ">
<polygon fill="white" stroke="#666666" points="526,-321.5 390,-321.5 390,-291.5 526,-291.5 526,-321.5"/>
<text text-anchor="start" x="398" y="-309.5" font-family="Helvetica,sans-Serif" font-size="10.00">src/storage/trie/serialization</text>
<text text-anchor="middle" x="458" y="-298.5" font-family="Helvetica,sans-Serif" font-size="10.00">/trie_serializer_impl.cpp</text>
</a>
</g>
</g>
<!-- Node21&#45;&gt;Node23 -->
<g id="edge26" class="edge">
<title>Node21&#45;&gt;Node23</title>
<path fill="none" stroke="#63b8ff" d="M457.34,-356.73C457.5,-345.08 457.68,-331.76 457.81,-321.92"/>
<polygon fill="#63b8ff" stroke="#63b8ff" points="453.85,-356.48 457.21,-366.53 460.85,-356.57 453.85,-356.48"/>
</g>
</g>
</svg>
