<?xml version="1.0" encoding="UTF-8" standalone="no"?>
<!DOCTYPE svg PUBLIC "-//W3C//DTD SVG 1.1//EN"
 "http://www.w3.org/Graphics/SVG/1.1/DTD/svg11.dtd">
<!-- Generated by graphviz version 7.0.5 (20221223.1930)
 -->
<!-- Title: src/storage/trie/trie_batches.hpp Pages: 1 -->
<svg width="1372pt" height="533pt"
 viewBox="0.00 0.00 1372.22 533.00" xmlns="http://www.w3.org/2000/svg" xmlns:xlink="http://www.w3.org/1999/xlink">
<g id="graph0" class="graph" transform="scale(1 1) rotate(0) translate(4 529)">
<title>src/storage/trie/trie_batches.hpp</title>
<!-- Node1 -->
<g id="node1" class="node">
<title>Node1</title>
<g id="a_node1"><a xlink:title=" ">
<polygon fill="#999999" stroke="#666666" points="489.22,-525 391.22,-525 391.22,-495 489.22,-495 489.22,-525"/>
<text text-anchor="start" x="399.22" y="-513" font-family="Helvetica,sans-Serif" font-size="10.00">src/storage/trie/trie</text>
<text text-anchor="middle" x="440.22" y="-502" font-family="Helvetica,sans-Serif" font-size="10.00">_batches.hpp</text>
</a>
</g>
</g>
<!-- Node2 -->
<g id="node2" class="node">
<title>Node2</title>
<g id="a_node2"><a xlink:href="buffer__map__types_8hpp.html" target="_top" xlink:title=" ">
<polygon fill="white" stroke="#666666" points="379.22,-453.5 279.22,-453.5 279.22,-423.5 379.22,-423.5 379.22,-453.5"/>
<text text-anchor="start" x="287.22" y="-441.5" font-family="Helvetica,sans-Serif" font-size="10.00">storage/buffer_map</text>
<text text-anchor="middle" x="329.22" y="-430.5" font-family="Helvetica,sans-Serif" font-size="10.00">_types.hpp</text>
</a>
</g>
</g>
<!-- Node1&#45;&gt;Node2 -->
<g id="edge1" class="edge">
<title>Node1&#45;&gt;Node2</title>
<path fill="none" stroke="#63b8ff" d="M417.22,-494.6C401.15,-484.54 379.46,-470.96 361.63,-459.8"/>
<polygon fill="#63b8ff" stroke="#63b8ff" points="363.8,-457.03 353.47,-454.69 360.09,-462.96 363.8,-457.03"/>
</g>
<!-- Node20 -->
<g id="node20" class="node">
<title>Node20</title>
<g id="a_node20"><a xlink:href="supergenius__trie__cursor_8hpp.html" target="_top" xlink:title=" ">
<polygon fill="white" stroke="#666666" points="674.72,-459 553.72,-459 553.72,-418 674.72,-418 674.72,-459"/>
<text text-anchor="start" x="561.72" y="-447" font-family="Helvetica,sans-Serif" font-size="10.00">storage/trie/supergenius</text>
<text text-anchor="start" x="561.72" y="-436" font-family="Helvetica,sans-Serif" font-size="10.00">_trie/supergenius_trie</text>
<text text-anchor="middle" x="614.22" y="-425" font-family="Helvetica,sans-Serif" font-size="10.00">_cursor.hpp</text>
</a>
</g>
</g>
<!-- Node1&#45;&gt;Node20 -->
<g id="edge29" class="edge">
<title>Node1&#45;&gt;Node20</title>
<path fill="none" stroke="#63b8ff" d="M476.27,-494.6C498.67,-485.65 528.02,-473.93 553.89,-463.6"/>
<polygon fill="#63b8ff" stroke="#63b8ff" points="554.96,-466.94 562.95,-459.98 552.37,-460.44 554.96,-466.94"/>
</g>
<!-- Node3 -->
<g id="node3" class="node">
<title>Node3</title>
<g id="a_node3"><a xlink:title=" ">
<polygon fill="#e0e0e0" stroke="#999999" points="612.72,-129 559.72,-129 559.72,-110 612.72,-110 612.72,-129"/>
<text text-anchor="middle" x="586.22" y="-117" font-family="Helvetica,sans-Serif" font-size="10.00">gsl/span</text>
</a>
</g>
</g>
<!-- Node2&#45;&gt;Node3 -->
<g id="edge2" class="edge">
<title>Node2&#45;&gt;Node3</title>
<path fill="none" stroke="#63b8ff" d="M340.93,-423.06C382.89,-371.29 525.69,-195.17 571.76,-138.33"/>
<polygon fill="#63b8ff" stroke="#63b8ff" points="574.44,-140.59 578.02,-130.62 569,-136.18 574.44,-140.59"/>
</g>
<!-- Node4 -->
<g id="node4" class="node">
<title>Node4</title>
<g id="a_node4"><a xlink:href="buffer_8hpp.html" target="_top" xlink:title=" ">
<polygon fill="white" stroke="#666666" points="781.72,-250 698.72,-250 698.72,-231 781.72,-231 781.72,-250"/>
<text text-anchor="middle" x="740.22" y="-238" font-family="Helvetica,sans-Serif" font-size="10.00">base/buffer.hpp</text>
</a>
</g>
</g>
<!-- Node2&#45;&gt;Node4 -->
<g id="edge3" class="edge">
<title>Node2&#45;&gt;Node4</title>
<path fill="none" stroke="#63b8ff" d="M349.25,-423C382,-399.34 443.89,-354.76 449.22,-352 492.28,-329.71 506.78,-332.94 552.22,-316 607.46,-295.41 671.12,-269.78 708.39,-254.58"/>
<polygon fill="#63b8ff" stroke="#63b8ff" points="709.28,-257.99 717.22,-250.97 706.64,-251.51 709.28,-257.99"/>
</g>
<!-- Node11 -->
<g id="node11" class="node">
<title>Node11</title>
<g id="a_node11"><a xlink:href="batchable_8hpp.html" target="_top" xlink:title=" ">
<polygon fill="white" stroke="#666666" points="146.22,-250 12.22,-250 12.22,-231 146.22,-231 146.22,-250"/>
<text text-anchor="middle" x="79.22" y="-238" font-family="Helvetica,sans-Serif" font-size="10.00">storage/face/batchable.hpp</text>
</a>
</g>
</g>
<!-- Node2&#45;&gt;Node11 -->
<g id="edge11" class="edge">
<title>Node2&#45;&gt;Node11</title>
<path fill="none" stroke="#63b8ff" d="M302.62,-423.18C283.79,-412.63 258.25,-397.49 237.22,-382 182.28,-341.54 123.82,-285.76 95.92,-258.24"/>
<polygon fill="#63b8ff" stroke="#63b8ff" points="98.61,-255.98 89.05,-251.42 93.68,-260.95 98.61,-255.98"/>
</g>
<!-- Node13 -->
<g id="node13" class="node">
<title>Node13</title>
<g id="a_node13"><a xlink:href="write__batch_8hpp.html" target="_top" xlink:title=" ">
<polygon fill="white" stroke="#666666" points="107.72,-195 12.72,-195 12.72,-165 107.72,-165 107.72,-195"/>
<text text-anchor="start" x="20.72" y="-183" font-family="Helvetica,sans-Serif" font-size="10.00">storage/face/write</text>
<text text-anchor="middle" x="60.22" y="-172" font-family="Helvetica,sans-Serif" font-size="10.00">_batch.hpp</text>
</a>
</g>
</g>
<!-- Node2&#45;&gt;Node13 -->
<g id="edge28" class="edge">
<title>Node2&#45;&gt;Node13</title>
<path fill="none" stroke="#63b8ff" d="M278.79,-426.29C202.14,-406.14 59.3,-355.69 3.22,-250 -6.27,-232.12 8.66,-214.56 25.62,-201.64"/>
<polygon fill="#63b8ff" stroke="#63b8ff" points="27.17,-204.83 33.31,-196.2 23.13,-199.11 27.17,-204.83"/>
</g>
<!-- Node15 -->
<g id="node15" class="node">
<title>Node15</title>
<g id="a_node15"><a xlink:href="generic__storage_8hpp.html" target="_top" xlink:title=" ">
<polygon fill="white" stroke="#666666" points="351.72,-382 246.72,-382 246.72,-352 351.72,-352 351.72,-382"/>
<text text-anchor="start" x="254.72" y="-370" font-family="Helvetica,sans-Serif" font-size="10.00">storage/face/generic</text>
<text text-anchor="middle" x="299.22" y="-359" font-family="Helvetica,sans-Serif" font-size="10.00">_storage.hpp</text>
</a>
</g>
</g>
<!-- Node2&#45;&gt;Node15 -->
<g id="edge17" class="edge">
<title>Node2&#45;&gt;Node15</title>
<path fill="none" stroke="#63b8ff" d="M323,-423.1C319.22,-414.34 314.29,-402.92 309.9,-392.74"/>
<polygon fill="#63b8ff" stroke="#63b8ff" points="313.2,-391.57 306.03,-383.77 306.78,-394.34 313.2,-391.57"/>
</g>
<!-- Node4&#45;&gt;Node3 -->
<g id="edge8" class="edge">
<title>Node4&#45;&gt;Node3</title>
<path fill="none" stroke="#63b8ff" d="M708.33,-230.62C686.87,-223.51 658.84,-211.9 638.22,-195 619.58,-179.73 604.67,-156.16 595.68,-139.63"/>
<polygon fill="#63b8ff" stroke="#63b8ff" points="598.83,-138.11 591.12,-130.84 592.62,-141.33 598.83,-138.11"/>
</g>
<!-- Node5 -->
<g id="node5" class="node">
<title>Node5</title>
<g id="a_node5"><a xlink:title=" ">
<polygon fill="#e0e0e0" stroke="#999999" points="973.22,-129 907.22,-129 907.22,-110 973.22,-110 973.22,-129"/>
<text text-anchor="middle" x="940.22" y="-117" font-family="Helvetica,sans-Serif" font-size="10.00">string_view</text>
</a>
</g>
</g>
<!-- Node4&#45;&gt;Node5 -->
<g id="edge4" class="edge">
<title>Node4&#45;&gt;Node5</title>
<path fill="none" stroke="#63b8ff" d="M781.87,-234.04C828.43,-227.12 899.85,-213.78 919.22,-195 933.83,-180.84 938.5,-157.37 939.88,-140.55"/>
<polygon fill="#63b8ff" stroke="#63b8ff" points="943.37,-140.92 940.34,-130.77 936.38,-140.6 943.37,-140.92"/>
</g>
<!-- Node6 -->
<g id="node6" class="node">
<title>Node6</title>
<g id="a_node6"><a xlink:title=" ">
<polygon fill="#e0e0e0" stroke="#999999" points="1091.22,-129 1047.22,-129 1047.22,-110 1091.22,-110 1091.22,-129"/>
<text text-anchor="middle" x="1069.22" y="-117" font-family="Helvetica,sans-Serif" font-size="10.00">vector</text>
</a>
</g>
</g>
<!-- Node4&#45;&gt;Node6 -->
<g id="edge5" class="edge">
<title>Node4&#45;&gt;Node6</title>
<path fill="none" stroke="#63b8ff" d="M782.1,-239.82C860.17,-239.48 1023.42,-233.98 1061.22,-195 1074.93,-180.86 1075.22,-157.39 1073.17,-140.57"/>
<polygon fill="#63b8ff" stroke="#63b8ff" points="1076.63,-140.06 1071.57,-130.76 1069.73,-141.19 1076.63,-140.06"/>
</g>
<!-- Node7 -->
<g id="node7" class="node">
<title>Node7</title>
<g id="a_node7"><a xlink:title=" ">
<polygon fill="#e0e0e0" stroke="#999999" points="790.22,-195 680.22,-195 680.22,-165 790.22,-165 790.22,-195"/>
<text text-anchor="start" x="688.22" y="-183" font-family="Helvetica,sans-Serif" font-size="10.00">boost/container_hash</text>
<text text-anchor="middle" x="735.22" y="-172" font-family="Helvetica,sans-Serif" font-size="10.00">/hash.hpp</text>
</a>
</g>
</g>
<!-- Node4&#45;&gt;Node7 -->
<g id="edge6" class="edge">
<title>Node4&#45;&gt;Node7</title>
<path fill="none" stroke="#63b8ff" d="M739.48,-230.87C738.93,-224.4 738.14,-215.2 737.39,-206.45"/>
<polygon fill="#63b8ff" stroke="#63b8ff" points="740.89,-206.29 736.55,-196.62 733.92,-206.88 740.89,-206.29"/>
</g>
<!-- Node8 -->
<g id="node8" class="node">
<title>Node8</title>
<g id="a_node8"><a xlink:title=" ">
<polygon fill="#e0e0e0" stroke="#999999" points="910.22,-189.5 808.22,-189.5 808.22,-170.5 910.22,-170.5 910.22,-189.5"/>
<text text-anchor="middle" x="859.22" y="-177.5" font-family="Helvetica,sans-Serif" font-size="10.00">boost/operators.hpp</text>
</a>
</g>
</g>
<!-- Node4&#45;&gt;Node8 -->
<g id="edge7" class="edge">
<title>Node4&#45;&gt;Node8</title>
<path fill="none" stroke="#63b8ff" d="M758.29,-230.62C777.51,-221.17 808.18,-206.09 830.68,-195.03"/>
<polygon fill="#63b8ff" stroke="#63b8ff" points="832.19,-198.19 839.62,-190.64 829.1,-191.91 832.19,-198.19"/>
</g>
<!-- Node9 -->
<g id="node9" class="node">
<title>Node9</title>
<g id="a_node9"><a xlink:href="outcome_8hpp.html" target="_top" xlink:title=" ">
<polygon fill="white" stroke="#666666" points="493.72,-74 380.72,-74 380.72,-55 493.72,-55 493.72,-74"/>
<text text-anchor="middle" x="437.22" y="-62" font-family="Helvetica,sans-Serif" font-size="10.00">outcome/outcome.hpp</text>
</a>
</g>
</g>
<!-- Node4&#45;&gt;Node9 -->
<g id="edge9" class="edge">
<title>Node4&#45;&gt;Node9</title>
<path fill="none" stroke="#63b8ff" d="M721.5,-230.58C706.55,-222.77 685.76,-210.28 671.22,-195 641.16,-163.41 657.14,-136.11 622.22,-110 588.65,-84.9 542.91,-73.75 505.32,-68.89"/>
<polygon fill="#63b8ff" stroke="#63b8ff" points="505.77,-65.42 495.44,-67.75 504.97,-72.37 505.77,-65.42"/>
</g>
<!-- Node10 -->
<g id="node10" class="node">
<title>Node10</title>
<g id="a_node10"><a xlink:title=" ">
<polygon fill="#e0e0e0" stroke="#999999" points="507.72,-19 366.72,-19 366.72,0 507.72,0 507.72,-19"/>
<text text-anchor="middle" x="437.22" y="-7" font-family="Helvetica,sans-Serif" font-size="10.00">libp2p/outcome/outcome.hpp</text>
</a>
</g>
</g>
<!-- Node9&#45;&gt;Node10 -->
<g id="edge10" class="edge">
<title>Node9&#45;&gt;Node10</title>
<path fill="none" stroke="#63b8ff" d="M437.22,-54.75C437.22,-48.27 437.22,-39.16 437.22,-30.9"/>
<polygon fill="#63b8ff" stroke="#63b8ff" points="440.72,-30.96 437.22,-20.96 433.72,-30.96 440.72,-30.96"/>
</g>
<!-- Node12 -->
<g id="node12" class="node">
<title>Node12</title>
<g id="a_node12"><a xlink:title=" ">
<polygon fill="#e0e0e0" stroke="#999999" points="347.72,-189.5 296.72,-189.5 296.72,-170.5 347.72,-170.5 347.72,-189.5"/>
<text text-anchor="middle" x="322.22" y="-177.5" font-family="Helvetica,sans-Serif" font-size="10.00">memory</text>
</a>
</g>
</g>
<!-- Node11&#45;&gt;Node12 -->
<g id="edge12" class="edge">
<title>Node11&#45;&gt;Node12</title>
<path fill="none" stroke="#63b8ff" d="M116.39,-230.55C162.13,-219.54 239.34,-200.95 285.07,-189.94"/>
<polygon fill="#63b8ff" stroke="#63b8ff" points="285.88,-193.35 294.79,-187.6 284.24,-186.54 285.88,-193.35"/>
</g>
<!-- Node11&#45;&gt;Node13 -->
<g id="edge13" class="edge">
<title>Node11&#45;&gt;Node13</title>
<path fill="none" stroke="#63b8ff" d="M76.41,-230.87C74.27,-224.25 71.19,-214.78 68.29,-205.86"/>
<polygon fill="#63b8ff" stroke="#63b8ff" points="71.69,-204.98 65.27,-196.55 65.03,-207.15 71.69,-204.98"/>
</g>
<!-- Node14 -->
<g id="node14" class="node">
<title>Node14</title>
<g id="a_node14"><a xlink:href="writeable_8hpp.html" target="_top" xlink:title=" ">
<polygon fill="white" stroke="#666666" points="220.72,-129 89.72,-129 89.72,-110 220.72,-110 220.72,-129"/>
<text text-anchor="middle" x="155.22" y="-117" font-family="Helvetica,sans-Serif" font-size="10.00">storage/face/writeable.hpp</text>
</a>
</g>
</g>
<!-- Node11&#45;&gt;Node14 -->
<g id="edge16" class="edge">
<title>Node11&#45;&gt;Node14</title>
<path fill="none" stroke="#63b8ff" d="M87.46,-230.74C95.38,-222.06 107.41,-208.21 116.22,-195 128.22,-176.99 139.4,-154.87 146.68,-139.42"/>
<polygon fill="#63b8ff" stroke="#63b8ff" points="149.8,-141.02 150.81,-130.47 143.44,-138.09 149.8,-141.02"/>
</g>
<!-- Node13&#45;&gt;Node14 -->
<g id="edge14" class="edge">
<title>Node13&#45;&gt;Node14</title>
<path fill="none" stroke="#63b8ff" d="M83.7,-164.54C98.12,-155.66 116.53,-144.32 131.07,-135.37"/>
<polygon fill="#63b8ff" stroke="#63b8ff" points="132.88,-138.36 139.56,-130.14 129.21,-132.4 132.88,-138.36"/>
</g>
<!-- Node14&#45;&gt;Node9 -->
<g id="edge15" class="edge">
<title>Node14&#45;&gt;Node9</title>
<path fill="none" stroke="#63b8ff" d="M203.06,-109.51C251.51,-100.4 326.54,-86.3 378.56,-76.52"/>
<polygon fill="#63b8ff" stroke="#63b8ff" points="378.95,-80.01 388.13,-74.73 377.66,-73.13 378.95,-80.01"/>
</g>
<!-- Node16 -->
<g id="node16" class="node">
<title>Node16</title>
<g id="a_node16"><a xlink:href="generic__maps_8hpp.html" target="_top" xlink:title=" ">
<polygon fill="white" stroke="#666666" points="340.72,-316 235.72,-316 235.72,-286 340.72,-286 340.72,-316"/>
<text text-anchor="start" x="243.72" y="-304" font-family="Helvetica,sans-Serif" font-size="10.00">storage/face/generic</text>
<text text-anchor="middle" x="288.22" y="-293" font-family="Helvetica,sans-Serif" font-size="10.00">_maps.hpp</text>
</a>
</g>
</g>
<!-- Node15&#45;&gt;Node16 -->
<g id="edge18" class="edge">
<title>Node15&#45;&gt;Node16</title>
<path fill="none" stroke="#63b8ff" d="M296.78,-351.8C295.54,-344.59 294,-335.61 292.56,-327.27"/>
<polygon fill="#63b8ff" stroke="#63b8ff" points="296.05,-326.92 290.91,-317.66 289.15,-328.1 296.05,-326.92"/>
</g>
<!-- Node16&#45;&gt;Node11 -->
<g id="edge19" class="edge">
<title>Node16&#45;&gt;Node11</title>
<path fill="none" stroke="#63b8ff" d="M236.56,-285.54C201.26,-275.66 155.05,-262.73 121.85,-253.43"/>
<polygon fill="#63b8ff" stroke="#63b8ff" points="123.16,-250.17 112.59,-250.84 121.27,-256.91 123.16,-250.17"/>
</g>
<!-- Node16&#45;&gt;Node14 -->
<g id="edge27" class="edge">
<title>Node16&#45;&gt;Node14</title>
<path fill="none" stroke="#63b8ff" d="M244.41,-285.67C226.28,-277.74 206.44,-266.15 193.22,-250 166.96,-217.91 158.84,-168.3 156.34,-140.73"/>
<polygon fill="#63b8ff" stroke="#63b8ff" points="159.84,-140.68 155.63,-130.95 152.86,-141.18 159.84,-140.68"/>
</g>
<!-- Node17 -->
<g id="node17" class="node">
<title>Node17</title>
<g id="a_node17"><a xlink:href="iterable_8hpp.html" target="_top" xlink:title=" ">
<polygon fill="white" stroke="#666666" points="471.72,-250 348.72,-250 348.72,-231 471.72,-231 471.72,-250"/>
<text text-anchor="middle" x="410.22" y="-238" font-family="Helvetica,sans-Serif" font-size="10.00">storage/face/iterable.hpp</text>
</a>
</g>
</g>
<!-- Node16&#45;&gt;Node17 -->
<g id="edge20" class="edge">
<title>Node16&#45;&gt;Node17</title>
<path fill="none" stroke="#63b8ff" d="M318.38,-285.54C337.69,-276.28 362.61,-264.33 381.62,-255.21"/>
<polygon fill="#63b8ff" stroke="#63b8ff" points="382.9,-258.48 390.41,-251 379.87,-252.17 382.9,-258.48"/>
</g>
<!-- Node19 -->
<g id="node19" class="node">
<title>Node19</title>
<g id="a_node19"><a xlink:href="readable_8hpp.html" target="_top" xlink:title=" ">
<polygon fill="white" stroke="#666666" points="330.22,-250 202.22,-250 202.22,-231 330.22,-231 330.22,-250"/>
<text text-anchor="middle" x="266.22" y="-238" font-family="Helvetica,sans-Serif" font-size="10.00">storage/face/readable.hpp</text>
</a>
</g>
</g>
<!-- Node16&#45;&gt;Node19 -->
<g id="edge24" class="edge">
<title>Node16&#45;&gt;Node19</title>
<path fill="none" stroke="#63b8ff" d="M282.78,-285.54C279.98,-278.08 276.52,-268.89 273.49,-260.83"/>
<polygon fill="#63b8ff" stroke="#63b8ff" points="276.81,-259.72 270.01,-251.59 270.26,-262.18 276.81,-259.72"/>
</g>
<!-- Node17&#45;&gt;Node12 -->
<g id="edge21" class="edge">
<title>Node17&#45;&gt;Node12</title>
<path fill="none" stroke="#63b8ff" d="M396.85,-230.62C383.16,-221.51 361.6,-207.18 345.16,-196.25"/>
<polygon fill="#63b8ff" stroke="#63b8ff" points="347.24,-193.43 336.97,-190.81 343.36,-199.26 347.24,-193.43"/>
</g>
<!-- Node18 -->
<g id="node18" class="node">
<title>Node18</title>
<g id="a_node18"><a xlink:href="map__cursor_8hpp.html" target="_top" xlink:title=" ">
<polygon fill="white" stroke="#666666" points="508.72,-189.5 365.72,-189.5 365.72,-170.5 508.72,-170.5 508.72,-189.5"/>
<text text-anchor="middle" x="437.22" y="-177.5" font-family="Helvetica,sans-Serif" font-size="10.00">storage/face/map_cursor.hpp</text>
</a>
</g>
</g>
<!-- Node17&#45;&gt;Node18 -->
<g id="edge22" class="edge">
<title>Node17&#45;&gt;Node18</title>
<path fill="none" stroke="#63b8ff" d="M414.2,-230.87C417.95,-222.75 423.69,-210.31 428.5,-199.89"/>
<polygon fill="#63b8ff" stroke="#63b8ff" points="431.57,-201.59 432.58,-191.04 425.22,-198.65 431.57,-201.59"/>
</g>
<!-- Node18&#45;&gt;Node9 -->
<g id="edge23" class="edge">
<title>Node18&#45;&gt;Node9</title>
<path fill="none" stroke="#63b8ff" d="M437.22,-170.09C437.22,-152.03 437.22,-110.67 437.22,-85.71"/>
<polygon fill="#63b8ff" stroke="#63b8ff" points="440.72,-85.88 437.22,-75.88 433.72,-85.88 440.72,-85.88"/>
</g>
<!-- Node19&#45;&gt;Node9 -->
<g id="edge25" class="edge">
<title>Node19&#45;&gt;Node9</title>
<path fill="none" stroke="#63b8ff" d="M266.73,-230.84C267.99,-216.02 272.34,-185.41 287.22,-165 317.2,-123.87 369.75,-94.8 404.01,-79.09"/>
<polygon fill="#63b8ff" stroke="#63b8ff" points="405.34,-82.33 413.06,-75.08 402.5,-75.94 405.34,-82.33"/>
</g>
<!-- Node19&#45;&gt;Node18 -->
<g id="edge26" class="edge">
<title>Node19&#45;&gt;Node18</title>
<path fill="none" stroke="#63b8ff" d="M292.19,-230.62C320.94,-220.78 367.52,-204.84 400.11,-193.69"/>
<polygon fill="#63b8ff" stroke="#63b8ff" points="401.24,-197.01 409.57,-190.46 398.98,-190.38 401.24,-197.01"/>
</g>
<!-- Node20&#45;&gt;Node4 -->
<g id="edge31" class="edge">
<title>Node20&#45;&gt;Node4</title>
<path fill="none" stroke="#63b8ff" d="M620.1,-417.77C631.11,-381.74 655.25,-307.05 672.22,-286 682.35,-273.43 697.01,-263.21 710.12,-255.75"/>
<polygon fill="#63b8ff" stroke="#63b8ff" points="711.69,-258.88 718.86,-251.07 708.39,-252.7 711.69,-258.88"/>
</g>
<!-- Node20&#45;&gt;Node18 -->
<g id="edge30" class="edge">
<title>Node20&#45;&gt;Node18</title>
<path fill="none" stroke="#63b8ff" d="M612.78,-417.83C610.81,-399.82 606.15,-372.88 595.22,-352 560.09,-284.9 491.73,-224.41 457.62,-196.81"/>
<polygon fill="#63b8ff" stroke="#63b8ff" points="460.14,-194.35 450.14,-190.86 455.78,-199.82 460.14,-194.35"/>
</g>
<!-- Node21 -->
<g id="node21" class="node">
<title>Node21</title>
<g id="a_node21"><a xlink:href="supergenius__trie_8hpp.html" target="_top" xlink:title=" ">
<polygon fill="white" stroke="#666666" points="586.22,-382 458.22,-382 458.22,-352 586.22,-352 586.22,-382"/>
<text text-anchor="start" x="466.22" y="-370" font-family="Helvetica,sans-Serif" font-size="10.00">storage/trie/supergenius</text>
<text text-anchor="middle" x="522.22" y="-359" font-family="Helvetica,sans-Serif" font-size="10.00">_trie/supergenius_trie.hpp</text>
</a>
</g>
</g>
<!-- Node20&#45;&gt;Node21 -->
<g id="edge32" class="edge">
<title>Node20&#45;&gt;Node21</title>
<path fill="none" stroke="#63b8ff" d="M588.1,-417.77C576.36,-408.9 562.49,-398.42 550.51,-389.37"/>
<polygon fill="#63b8ff" stroke="#63b8ff" points="552.67,-386.62 542.59,-383.39 548.46,-392.21 552.67,-386.62"/>
</g>
<!-- Node30 -->
<g id="node30" class="node">
<title>Node30</title>
<g id="a_node30"><a xlink:href="supergenius__codec_8hpp.html" target="_top" xlink:title=" ">
<polygon fill="white" stroke="#666666" points="904.22,-382 782.22,-382 782.22,-352 904.22,-352 904.22,-382"/>
<text text-anchor="start" x="790.22" y="-370" font-family="Helvetica,sans-Serif" font-size="10.00">storage/trie/serialization</text>
<text text-anchor="middle" x="843.22" y="-359" font-family="Helvetica,sans-Serif" font-size="10.00">/supergenius_codec.hpp</text>
</a>
</g>
</g>
<!-- Node20&#45;&gt;Node30 -->
<g id="edge47" class="edge">
<title>Node20&#45;&gt;Node30</title>
<path fill="none" stroke="#63b8ff" d="M674.98,-419.06C709.06,-408.72 751.35,-395.88 785,-385.67"/>
<polygon fill="#63b8ff" stroke="#63b8ff" points="785.6,-389.14 794.15,-382.89 783.57,-382.45 785.6,-389.14"/>
</g>
<!-- Node21&#45;&gt;Node16 -->
<g id="edge33" class="edge">
<title>Node21&#45;&gt;Node16</title>
<path fill="none" stroke="#63b8ff" d="M469.41,-351.56C434.45,-341.99 388.4,-329.4 351.48,-319.3"/>
<polygon fill="#63b8ff" stroke="#63b8ff" points="352.86,-316.05 342.29,-316.79 351.01,-322.8 352.86,-316.05"/>
</g>
<!-- Node22 -->
<g id="node22" class="node">
<title>Node22</title>
<g id="a_node22"><a xlink:href="supergenius__node_8hpp.html" target="_top" xlink:title=" ">
<polygon fill="white" stroke="#666666" points="1211.72,-316 1076.72,-316 1076.72,-286 1211.72,-286 1211.72,-316"/>
<text text-anchor="start" x="1084.72" y="-304" font-family="Helvetica,sans-Serif" font-size="10.00">storage/trie/supergenius</text>
<text text-anchor="middle" x="1144.22" y="-293" font-family="Helvetica,sans-Serif" font-size="10.00">_trie/supergenius_node.hpp</text>
</a>
</g>
</g>
<!-- Node21&#45;&gt;Node22 -->
<g id="edge34" class="edge">
<title>Node21&#45;&gt;Node22</title>
<path fill="none" stroke="#63b8ff" d="M586.32,-362.03C686.46,-355.4 886.29,-340.5 1065.11,-316.35"/>
<polygon fill="#63b8ff" stroke="#63b8ff" points="1065.38,-319.85 1074.82,-315.03 1064.43,-312.91 1065.38,-319.85"/>
</g>
<!-- Node22&#45;&gt;Node4 -->
<g id="edge45" class="edge">
<title>Node22&#45;&gt;Node4</title>
<path fill="none" stroke="#63b8ff" d="M1076.29,-287.32C1073.57,-286.87 1070.87,-286.42 1068.22,-286 971.46,-270.53 858.08,-255.93 793.15,-247.9"/>
<polygon fill="#63b8ff" stroke="#63b8ff" points="793.85,-244.46 783.49,-246.71 792.99,-251.41 793.85,-244.46"/>
</g>
<!-- Node23 -->
<g id="node23" class="node">
<title>Node23</title>
<g id="a_node23"><a xlink:title=" ">
<polygon fill="#e0e0e0" stroke="#999999" points="1310.72,-250 1215.72,-250 1215.72,-231 1310.72,-231 1310.72,-250"/>
<text text-anchor="middle" x="1263.22" y="-238" font-family="Helvetica,sans-Serif" font-size="10.00">boost/optional.hpp</text>
</a>
</g>
</g>
<!-- Node22&#45;&gt;Node23 -->
<g id="edge35" class="edge">
<title>Node22&#45;&gt;Node23</title>
<path fill="none" stroke="#63b8ff" d="M1173.63,-285.54C1192.39,-276.32 1216.56,-264.44 1235.07,-255.34"/>
<polygon fill="#63b8ff" stroke="#63b8ff" points="1236.44,-258.57 1243.87,-251.01 1233.35,-252.28 1236.44,-258.57"/>
</g>
<!-- Node24 -->
<g id="node24" class="node">
<title>Node24</title>
<g id="a_node24"><a xlink:href="blob_8hpp.html" target="_top" xlink:title=" ">
<polygon fill="white" stroke="#666666" points="1072.72,-250 995.72,-250 995.72,-231 1072.72,-231 1072.72,-250"/>
<text text-anchor="middle" x="1034.22" y="-238" font-family="Helvetica,sans-Serif" font-size="10.00">base/blob.hpp</text>
</a>
</g>
</g>
<!-- Node22&#45;&gt;Node24 -->
<g id="edge36" class="edge">
<title>Node22&#45;&gt;Node24</title>
<path fill="none" stroke="#63b8ff" d="M1117.03,-285.54C1099.85,-276.4 1077.77,-264.66 1060.72,-255.6"/>
<polygon fill="#63b8ff" stroke="#63b8ff" points="1062.66,-252.66 1052.19,-251.06 1059.37,-258.84 1062.66,-252.66"/>
</g>
<!-- Node29 -->
<g id="node29" class="node">
<title>Node29</title>
<g id="a_node29"><a xlink:href="src_2storage_2trie_2node_8hpp.html" target="_top" xlink:title=" ">
<polygon fill="white" stroke="#666666" points="1197.72,-250 1090.72,-250 1090.72,-231 1197.72,-231 1197.72,-250"/>
<text text-anchor="middle" x="1144.22" y="-238" font-family="Helvetica,sans-Serif" font-size="10.00">storage/trie/node.hpp</text>
</a>
</g>
</g>
<!-- Node22&#45;&gt;Node29 -->
<g id="edge46" class="edge">
<title>Node22&#45;&gt;Node29</title>
<path fill="none" stroke="#63b8ff" d="M1144.22,-285.54C1144.22,-278.34 1144.22,-269.53 1144.22,-261.68"/>
<polygon fill="#63b8ff" stroke="#63b8ff" points="1147.72,-261.69 1144.22,-251.69 1140.72,-261.69 1147.72,-261.69"/>
</g>
<!-- Node25 -->
<g id="node25" class="node">
<title>Node25</title>
<g id="a_node25"><a xlink:title=" ">
<polygon fill="#e0e0e0" stroke="#999999" points="1364.22,-189.5 1326.22,-189.5 1326.22,-170.5 1364.22,-170.5 1364.22,-189.5"/>
<text text-anchor="middle" x="1345.22" y="-177.5" font-family="Helvetica,sans-Serif" font-size="10.00">array</text>
</a>
</g>
</g>
<!-- Node24&#45;&gt;Node25 -->
<g id="edge37" class="edge">
<title>Node24&#45;&gt;Node25</title>
<path fill="none" stroke="#63b8ff" d="M1072.98,-232.56C1076.1,-232.02 1079.21,-231.5 1082.22,-231 1186.47,-213.79 1216.52,-227.01 1317.22,-195 1317.87,-194.79 1318.52,-194.58 1319.17,-194.34"/>
<polygon fill="#63b8ff" stroke="#63b8ff" points="1320.38,-197.63 1328.2,-190.48 1317.63,-191.2 1320.38,-197.63"/>
</g>
<!-- Node26 -->
<g id="node26" class="node">
<title>Node26</title>
<g id="a_node26"><a xlink:title=" ">
<polygon fill="#e0e0e0" stroke="#999999" points="1236.22,-189.5 1108.22,-189.5 1108.22,-170.5 1236.22,-170.5 1236.22,-189.5"/>
<text text-anchor="middle" x="1172.22" y="-177.5" font-family="Helvetica,sans-Serif" font-size="10.00">boost/functional/hash.hpp</text>
</a>
</g>
</g>
<!-- Node24&#45;&gt;Node26 -->
<g id="edge38" class="edge">
<title>Node24&#45;&gt;Node26</title>
<path fill="none" stroke="#63b8ff" d="M1055.18,-230.62C1077.87,-220.99 1114.33,-205.54 1140.53,-194.43"/>
<polygon fill="#63b8ff" stroke="#63b8ff" points="1141.83,-197.68 1149.67,-190.56 1139.1,-191.24 1141.83,-197.68"/>
</g>
<!-- Node27 -->
<g id="node27" class="node">
<title>Node27</title>
<g id="a_node27"><a xlink:href="hexutil_8hpp.html" target="_top" xlink:title=" ">
<polygon fill="white" stroke="#666666" points="1052.22,-189.5 966.22,-189.5 966.22,-170.5 1052.22,-170.5 1052.22,-189.5"/>
<text text-anchor="middle" x="1009.22" y="-177.5" font-family="Helvetica,sans-Serif" font-size="10.00">base/hexutil.hpp</text>
</a>
</g>
</g>
<!-- Node24&#45;&gt;Node27 -->
<g id="edge39" class="edge">
<title>Node24&#45;&gt;Node27</title>
<path fill="none" stroke="#63b8ff" d="M1030.53,-230.87C1027.1,-222.83 1021.86,-210.57 1017.43,-200.22"/>
<polygon fill="#63b8ff" stroke="#63b8ff" points="1020.67,-198.88 1013.52,-191.06 1014.23,-201.63 1020.67,-198.88"/>
</g>
<!-- Node28 -->
<g id="node28" class="node">
<title>Node28</title>
<g id="a_node28"><a xlink:title=" ">
<polygon fill="#e0e0e0" stroke="#999999" points="1308.22,-189.5 1254.22,-189.5 1254.22,-170.5 1308.22,-170.5 1308.22,-189.5"/>
<text text-anchor="middle" x="1281.22" y="-177.5" font-family="Helvetica,sans-Serif" font-size="10.00">iostream</text>
</a>
</g>
</g>
<!-- Node24&#45;&gt;Node28 -->
<g id="edge44" class="edge">
<title>Node24&#45;&gt;Node28</title>
<path fill="none" stroke="#63b8ff" d="M1073.03,-232.1C1124.75,-222.11 1213.46,-204.45 1245.22,-195 1246.59,-194.59 1247.99,-194.15 1249.39,-193.69"/>
<polygon fill="#63b8ff" stroke="#63b8ff" points="1250.43,-197.04 1258.67,-190.38 1248.08,-190.45 1250.43,-197.04"/>
</g>
<!-- Node27&#45;&gt;Node3 -->
<g id="edge42" class="edge">
<title>Node27&#45;&gt;Node3</title>
<path fill="none" stroke="#63b8ff" d="M965.76,-172.05C951,-169.74 934.4,-167.19 919.22,-165 812.38,-149.55 685.98,-133.18 624.14,-125.3"/>
<polygon fill="#63b8ff" stroke="#63b8ff" points="624.87,-121.86 614.51,-124.07 623.99,-128.81 624.87,-121.86"/>
</g>
<!-- Node27&#45;&gt;Node5 -->
<g id="edge40" class="edge">
<title>Node27&#45;&gt;Node5</title>
<path fill="none" stroke="#63b8ff" d="M998.74,-170.12C988.3,-161.27 972.05,-147.48 959.31,-136.69"/>
<polygon fill="#63b8ff" stroke="#63b8ff" points="961.84,-134.24 951.95,-130.45 957.32,-139.58 961.84,-134.24"/>
</g>
<!-- Node27&#45;&gt;Node6 -->
<g id="edge41" class="edge">
<title>Node27&#45;&gt;Node6</title>
<path fill="none" stroke="#63b8ff" d="M1018.33,-170.12C1027.23,-161.44 1041,-148.02 1051.97,-137.32"/>
<polygon fill="#63b8ff" stroke="#63b8ff" points="1054.22,-140.01 1058.94,-130.53 1049.33,-135 1054.22,-140.01"/>
</g>
<!-- Node27&#45;&gt;Node9 -->
<g id="edge43" class="edge">
<title>Node27&#45;&gt;Node9</title>
<path fill="none" stroke="#63b8ff" d="M1008.62,-170.04C1007.09,-154.88 1001.62,-124.44 982.22,-110 944.76,-82.13 643.05,-70.82 505.33,-67.07"/>
<polygon fill="#63b8ff" stroke="#63b8ff" points="505.72,-63.58 495.63,-66.81 505.53,-70.58 505.72,-63.58"/>
</g>
<!-- Node30&#45;&gt;Node12 -->
<g id="edge48" class="edge">
<title>Node30&#45;&gt;Node12</title>
<path fill="none" stroke="#63b8ff" d="M786.78,-351.52C753.15,-342.39 709.84,-329.76 672.22,-316 584.57,-283.95 567.89,-262.97 480.22,-231 426.3,-211.34 410.38,-213.95 356.22,-195 355.27,-194.67 354.31,-194.32 353.34,-193.97"/>
<polygon fill="#63b8ff" stroke="#63b8ff" points="354.94,-190.84 344.35,-190.49 352.42,-197.37 354.94,-190.84"/>
</g>
<!-- Node30&#45;&gt;Node22 -->
<g id="edge58" class="edge">
<title>Node30&#45;&gt;Node22</title>
<path fill="none" stroke="#63b8ff" d="M904.49,-352.97C950.92,-343.1 1015.07,-329.46 1065.32,-318.77"/>
<polygon fill="#63b8ff" stroke="#63b8ff" points="1065.94,-322.22 1075,-316.72 1064.49,-315.37 1065.94,-322.22"/>
</g>
<!-- Node31 -->
<g id="node31" class="node">
<title>Node31</title>
<g id="a_node31"><a xlink:title=" ">
<polygon fill="#e0e0e0" stroke="#999999" points="868.22,-310.5 818.22,-310.5 818.22,-291.5 868.22,-291.5 868.22,-310.5"/>
<text text-anchor="middle" x="843.22" y="-298.5" font-family="Helvetica,sans-Serif" font-size="10.00">optional</text>
</a>
</g>
</g>
<!-- Node30&#45;&gt;Node31 -->
<g id="edge49" class="edge">
<title>Node30&#45;&gt;Node31</title>
<path fill="none" stroke="#63b8ff" d="M843.22,-351.8C843.22,-343.09 843.22,-331.81 843.22,-322.18"/>
<polygon fill="#63b8ff" stroke="#63b8ff" points="846.72,-322.36 843.22,-312.36 839.72,-322.36 846.72,-322.36"/>
</g>
<!-- Node32 -->
<g id="node32" class="node">
<title>Node32</title>
<g id="a_node32"><a xlink:title=" ">
<polygon fill="#e0e0e0" stroke="#999999" points="927.72,-310.5 886.72,-310.5 886.72,-291.5 927.72,-291.5 927.72,-310.5"/>
<text text-anchor="middle" x="907.22" y="-298.5" font-family="Helvetica,sans-Serif" font-size="10.00">string</text>
</a>
</g>
</g>
<!-- Node30&#45;&gt;Node32 -->
<g id="edge50" class="edge">
<title>Node30&#45;&gt;Node32</title>
<path fill="none" stroke="#63b8ff" d="M857.42,-351.8C867.2,-342.01 880.24,-328.98 890.52,-318.7"/>
<polygon fill="#63b8ff" stroke="#63b8ff" points="892.71,-321.46 897.3,-311.91 887.76,-316.51 892.71,-321.46"/>
</g>
<!-- Node33 -->
<g id="node33" class="node">
<title>Node33</title>
<g id="a_node33"><a xlink:href="buffer__stream_8hpp.html" target="_top" xlink:title=" ">
<polygon fill="white" stroke="#666666" points="799.72,-316 680.72,-316 680.72,-286 799.72,-286 799.72,-316"/>
<text text-anchor="start" x="688.72" y="-304" font-family="Helvetica,sans-Serif" font-size="10.00">storage/trie/serialization</text>
<text text-anchor="middle" x="740.22" y="-293" font-family="Helvetica,sans-Serif" font-size="10.00">/buffer_stream.hpp</text>
</a>
</g>
</g>
<!-- Node30&#45;&gt;Node33 -->
<g id="edge51" class="edge">
<title>Node30&#45;&gt;Node33</title>
<path fill="none" stroke="#63b8ff" d="M820.1,-351.64C806.19,-342.99 788.25,-331.85 772.9,-322.31"/>
<polygon fill="#63b8ff" stroke="#63b8ff" points="774.88,-319.42 764.54,-317.11 771.19,-325.36 774.88,-319.42"/>
</g>
<!-- Node34 -->
<g id="node34" class="node">
<title>Node34</title>
<g id="a_node34"><a xlink:href="codec_8hpp.html" target="_top" xlink:title=" ">
<polygon fill="white" stroke="#666666" points="1058.72,-310.5 945.72,-310.5 945.72,-291.5 1058.72,-291.5 1058.72,-310.5"/>
<text text-anchor="middle" x="1002.22" y="-298.5" font-family="Helvetica,sans-Serif" font-size="10.00">storage/trie/codec.hpp</text>
</a>
</g>
</g>
<!-- Node30&#45;&gt;Node34 -->
<g id="edge54" class="edge">
<title>Node30&#45;&gt;Node34</title>
<path fill="none" stroke="#63b8ff" d="M878.9,-351.64C905.98,-340.74 942.92,-325.87 969.3,-315.25"/>
<polygon fill="#63b8ff" stroke="#63b8ff" points="970.52,-318.53 978.49,-311.55 967.91,-312.04 970.52,-318.53"/>
</g>
<!-- Node33&#45;&gt;Node3 -->
<g id="edge52" class="edge">
<title>Node33&#45;&gt;Node3</title>
<path fill="none" stroke="#63b8ff" d="M713.06,-285.57C682.78,-268.09 634.5,-235.86 607.22,-195 596.15,-178.42 590.86,-156.04 588.36,-140.15"/>
<polygon fill="#63b8ff" stroke="#63b8ff" points="591.87,-139.99 587.1,-130.53 584.93,-140.9 591.87,-139.99"/>
</g>
<!-- Node33&#45;&gt;Node4 -->
<g id="edge53" class="edge">
<title>Node33&#45;&gt;Node4</title>
<path fill="none" stroke="#63b8ff" d="M740.22,-285.54C740.22,-278.34 740.22,-269.53 740.22,-261.68"/>
<polygon fill="#63b8ff" stroke="#63b8ff" points="743.72,-261.69 740.22,-251.69 736.72,-261.69 743.72,-261.69"/>
</g>
<!-- Node34&#45;&gt;Node4 -->
<g id="edge56" class="edge">
<title>Node34&#45;&gt;Node4</title>
<path fill="none" stroke="#63b8ff" d="M962.14,-291.05C916.39,-280.84 841.45,-264.1 791.49,-252.95"/>
<polygon fill="#63b8ff" stroke="#63b8ff" points="792.29,-249.54 781.77,-250.78 790.77,-256.37 792.29,-249.54"/>
</g>
<!-- Node34&#45;&gt;Node24 -->
<g id="edge55" class="edge">
<title>Node34&#45;&gt;Node24</title>
<path fill="none" stroke="#63b8ff" d="M1006.94,-291.37C1011.43,-283.16 1018.33,-270.54 1024.07,-260.05"/>
<polygon fill="#63b8ff" stroke="#63b8ff" points="1027.02,-261.95 1028.75,-251.5 1020.88,-258.59 1027.02,-261.95"/>
</g>
<!-- Node34&#45;&gt;Node29 -->
<g id="edge57" class="edge">
<title>Node34&#45;&gt;Node29</title>
<path fill="none" stroke="#63b8ff" d="M1023.78,-291.12C1047.24,-281.45 1084.99,-265.9 1111.97,-254.78"/>
<polygon fill="#63b8ff" stroke="#63b8ff" points="1113.14,-258.09 1121.05,-251.05 1110.47,-251.62 1113.14,-258.09"/>
</g>
</g>
</svg>
