<?xml version="1.0" encoding="UTF-8" standalone="no"?>
<!DOCTYPE svg PUBLIC "-//W3C//DTD SVG 1.1//EN"
 "http://www.w3.org/Graphics/SVG/1.1/DTD/svg11.dtd">
<!-- Generated by graphviz version 7.0.5 (20221223.1930)
 -->
<!-- Title: src/storage/trie/impl/trie_storage_backend_impl.cpp Pages: 1 -->
<!--zoomable 665 -->
<svg id="main" version="1.1" xmlns="http://www.w3.org/2000/svg" xmlns:xlink="http://www.w3.org/1999/xlink" xml:space="preserve" onload="init(evt)">
<style type="text/css"><![CDATA[
.edge:hover path { stroke: red; }
.edge:hover polygon { stroke: red; fill: red; }
]]></style>
<script type="text/javascript"><![CDATA[
var edges = document.getElementsByTagName('g');
if (edges && edges.length) {
  for (var i=0;i<edges.length;i++) {
    if (edges[i].id.substr(0,4)=='edge') {
      edges[i].setAttribute('class','edge');
    }
  }
}
]]></script>
        <defs>
                <circle id="rim" cx="0" cy="0" r="7"/>
                <circle id="rim2" cx="0" cy="0" r="3.5"/>
                <g id="zoomPlus">
                        <use xlink:href="#rim" fill="#404040">
                                <set attributeName="fill" to="#808080" begin="zoomplus.mouseover" end="zoomplus.mouseout"/>
                        </use>
                        <path d="M-4,0h8M0,-4v8" fill="none" stroke="white" stroke-width="1.5" pointer-events="none"/>
                </g>
                <g id="zoomMin">
                        <use xlink:href="#rim" fill="#404040">
                                <set attributeName="fill" to="#808080" begin="zoomminus.mouseover" end="zoomminus.mouseout"/>
                        </use>
                        <path d="M-4,0h8" fill="none" stroke="white" stroke-width="1.5" pointer-events="none"/>
                </g>
                <g id="dirArrow">
                        <path fill="none" stroke="white" stroke-width="1.5" d="M0,-3.0v7 M-2.5,-0.5L0,-3.0L2.5,-0.5"/>
                </g>
               <g id="resetDef">
                       <use xlink:href="#rim2" fill="#404040">
                               <set attributeName="fill" to="#808080" begin="reset.mouseover" end="reset.mouseout"/>
                       </use>
               </g>
        </defs>

<script type="text/javascript">
var viewWidth = 1168;
var viewHeight = 665;
var sectionId = 'dynsection-0';
</script>
<script xlink:href="svgpan.js"/>
<svg id="graph" class="graph">
<g id="viewport">
<title>src/storage/trie/impl/trie_storage_backend_impl.cpp</title>
<!-- Node1 -->
<g id="node1" class="node">
<title>Node1</title>
<g id="a_node1"><a xlink:title=" ">
<polygon fill="#999999" stroke="#666666" points="435.5,-657 322.5,-657 322.5,-616 435.5,-616 435.5,-657"/>
<text text-anchor="start" x="330.5" y="-645" font-family="Helvetica,sans-Serif" font-size="10.00">src/storage/trie/impl</text>
<text text-anchor="start" x="330.5" y="-634" font-family="Helvetica,sans-Serif" font-size="10.00">/trie_storage_backend</text>
<text text-anchor="middle" x="379" y="-623" font-family="Helvetica,sans-Serif" font-size="10.00">_impl.cpp</text>
</a>
</g>
</g>
<!-- Node2 -->
<g id="node2" class="node">
<title>Node2</title>
<g id="a_node2"><a xlink:href="trie__storage__backend__impl_8hpp.html" target="_top" xlink:title=" ">
<polygon fill="white" stroke="#666666" points="447.5,-580 310.5,-580 310.5,-550 447.5,-550 447.5,-580"/>
<text text-anchor="start" x="318.5" y="-568" font-family="Helvetica,sans-Serif" font-size="10.00">storage/trie/impl/trie</text>
<text text-anchor="middle" x="379" y="-557" font-family="Helvetica,sans-Serif" font-size="10.00">_storage_backend_impl.hpp</text>
</a>
</g>
</g>
<!-- Node1&#45;&gt;Node2 -->
<g id="edge1" class="edge">
<title>Node1&#45;&gt;Node2</title>
<path fill="none" stroke="#63b8ff" d="M379,-615.77C379,-608.31 379,-599.7 379,-591.77"/>
<polygon fill="#63b8ff" stroke="#63b8ff" points="382.5,-591.99 379,-581.99 375.5,-591.99 382.5,-591.99"/>
</g>
<!-- Node30 -->
<g id="node30" class="node">
<title>Node30</title>
<g id="a_node30"><a xlink:title=" ">
<polygon fill="#e0e0e0" stroke="#999999" points="504.5,-574.5 465.5,-574.5 465.5,-555.5 504.5,-555.5 504.5,-574.5"/>
<text text-anchor="middle" x="485" y="-562.5" font-family="Helvetica,sans-Serif" font-size="10.00">utility</text>
</a>
</g>
</g>
<!-- Node1&#45;&gt;Node30 -->
<g id="edge48" class="edge">
<title>Node1&#45;&gt;Node30</title>
<path fill="none" stroke="#63b8ff" d="M409.38,-615.58C426.14,-604.59 446.62,-591.17 462.03,-581.06"/>
<polygon fill="#63b8ff" stroke="#63b8ff" points="463.63,-584.19 470.08,-575.78 459.8,-578.34 463.63,-584.19"/>
</g>
<!-- Node31 -->
<g id="node31" class="node">
<title>Node31</title>
<g id="a_node31"><a xlink:href="trie__storage__backend__batch_8hpp.html" target="_top" xlink:title=" ">
<polygon fill="white" stroke="#666666" points="258.5,-448 115.5,-448 115.5,-418 258.5,-418 258.5,-448"/>
<text text-anchor="start" x="123.5" y="-436" font-family="Helvetica,sans-Serif" font-size="10.00">storage/trie/impl/trie</text>
<text text-anchor="middle" x="187" y="-425" font-family="Helvetica,sans-Serif" font-size="10.00">_storage_backend_batch.hpp</text>
</a>
</g>
</g>
<!-- Node1&#45;&gt;Node31 -->
<g id="edge49" class="edge">
<title>Node1&#45;&gt;Node31</title>
<path fill="none" stroke="#63b8ff" d="M346.65,-615.56C331.96,-605.75 314.81,-593.21 301,-580 260.7,-541.46 222.69,-488.14 202.36,-457.75"/>
<polygon fill="#63b8ff" stroke="#63b8ff" points="205.43,-456.05 197,-449.64 199.59,-459.91 205.43,-456.05"/>
</g>
<!-- Node3 -->
<g id="node3" class="node">
<title>Node3</title>
<g id="a_node3"><a xlink:href="buffer_8hpp.html" target="_top" xlink:title=" ">
<polygon fill="white" stroke="#666666" points="478.5,-376.5 395.5,-376.5 395.5,-357.5 478.5,-357.5 478.5,-376.5"/>
<text text-anchor="middle" x="437" y="-364.5" font-family="Helvetica,sans-Serif" font-size="10.00">base/buffer.hpp</text>
</a>
</g>
</g>
<!-- Node2&#45;&gt;Node3 -->
<g id="edge2" class="edge">
<title>Node2&#45;&gt;Node3</title>
<path fill="none" stroke="#63b8ff" d="M396.14,-549.61C405.77,-540.47 417.03,-527.79 423,-514 441.16,-472.05 440.74,-417.15 438.86,-388.08"/>
<polygon fill="#63b8ff" stroke="#63b8ff" points="442.36,-387.88 438.08,-378.19 435.38,-388.44 442.36,-387.88"/>
</g>
<!-- Node9 -->
<g id="node9" class="node">
<title>Node9</title>
<g id="a_node9"><a xlink:href="outcome_8hpp.html" target="_top" xlink:title=" ">
<polygon fill="white" stroke="#666666" points="632.5,-74 519.5,-74 519.5,-55 632.5,-55 632.5,-74"/>
<text text-anchor="middle" x="576" y="-62" font-family="Helvetica,sans-Serif" font-size="10.00">outcome/outcome.hpp</text>
</a>
</g>
</g>
<!-- Node2&#45;&gt;Node9 -->
<g id="edge10" class="edge">
<title>Node2&#45;&gt;Node9</title>
<path fill="none" stroke="#63b8ff" d="M447.84,-551.43C450.59,-550.94 453.32,-550.46 456,-550 612.23,-522.93 1160,-592.55 1160,-434 1160,-434 1160,-434 1160,-179 1160,-74.9 797.9,-64.37 643.95,-64.59"/>
<polygon fill="#63b8ff" stroke="#63b8ff" points="644.3,-61.09 634.31,-64.62 644.32,-68.09 644.3,-61.09"/>
</g>
<!-- Node11 -->
<g id="node11" class="node">
<title>Node11</title>
<g id="a_node11"><a xlink:href="trie__storage__backend_8hpp.html" target="_top" xlink:title=" ">
<polygon fill="white" stroke="#666666" points="414.5,-514 295.5,-514 295.5,-484 414.5,-484 414.5,-514"/>
<text text-anchor="start" x="303.5" y="-502" font-family="Helvetica,sans-Serif" font-size="10.00">storage/trie/trie_storage</text>
<text text-anchor="middle" x="355" y="-491" font-family="Helvetica,sans-Serif" font-size="10.00">_backend.hpp</text>
</a>
</g>
</g>
<!-- Node2&#45;&gt;Node11 -->
<g id="edge11" class="edge">
<title>Node2&#45;&gt;Node11</title>
<path fill="none" stroke="#63b8ff" d="M373.67,-549.8C370.91,-542.42 367.45,-533.2 364.26,-524.7"/>
<polygon fill="#63b8ff" stroke="#63b8ff" points="367.63,-523.72 360.84,-515.58 361.08,-526.17 367.63,-523.72"/>
</g>
<!-- Node4 -->
<g id="node4" class="node">
<title>Node4</title>
<g id="a_node4"><a xlink:title=" ">
<polygon fill="#e0e0e0" stroke="#999999" points="720,-250 654,-250 654,-231 720,-231 720,-250"/>
<text text-anchor="middle" x="687" y="-238" font-family="Helvetica,sans-Serif" font-size="10.00">string_view</text>
</a>
</g>
</g>
<!-- Node3&#45;&gt;Node4 -->
<g id="edge3" class="edge">
<title>Node3&#45;&gt;Node4</title>
<path fill="none" stroke="#63b8ff" d="M433.97,-357.03C429.09,-340.74 421.67,-306.1 439,-286 467.44,-253 583.47,-257.8 642.54,-250.08"/>
<polygon fill="#63b8ff" stroke="#63b8ff" points="642.71,-253.6 652.05,-248.59 641.63,-246.68 642.71,-253.6"/>
</g>
<!-- Node5 -->
<g id="node5" class="node">
<title>Node5</title>
<g id="a_node5"><a xlink:title=" ">
<polygon fill="#e0e0e0" stroke="#999999" points="820,-250 776,-250 776,-231 820,-231 820,-250"/>
<text text-anchor="middle" x="798" y="-238" font-family="Helvetica,sans-Serif" font-size="10.00">vector</text>
</a>
</g>
</g>
<!-- Node3&#45;&gt;Node5 -->
<g id="edge4" class="edge">
<title>Node3&#45;&gt;Node5</title>
<path fill="none" stroke="#63b8ff" d="M466.16,-357.01C472.95,-355.15 480.19,-353.35 487,-352 553.73,-338.79 743.48,-364.68 791,-316 804.74,-301.92 804.68,-278.44 802.33,-261.6"/>
<polygon fill="#63b8ff" stroke="#63b8ff" points="805.78,-260.99 800.55,-251.77 798.89,-262.23 805.78,-260.99"/>
</g>
<!-- Node6 -->
<g id="node6" class="node">
<title>Node6</title>
<g id="a_node6"><a xlink:title=" ">
<polygon fill="#e0e0e0" stroke="#999999" points="558,-316 448,-316 448,-286 558,-286 558,-316"/>
<text text-anchor="start" x="456" y="-304" font-family="Helvetica,sans-Serif" font-size="10.00">boost/container_hash</text>
<text text-anchor="middle" x="503" y="-293" font-family="Helvetica,sans-Serif" font-size="10.00">/hash.hpp</text>
</a>
</g>
</g>
<!-- Node3&#45;&gt;Node6 -->
<g id="edge5" class="edge">
<title>Node3&#45;&gt;Node6</title>
<path fill="none" stroke="#63b8ff" d="M446.18,-357.1C454.96,-348.59 468.55,-335.41 480.24,-324.07"/>
<polygon fill="#63b8ff" stroke="#63b8ff" points="482.49,-326.76 487.24,-317.29 477.62,-321.74 482.49,-326.76"/>
</g>
<!-- Node7 -->
<g id="node7" class="node">
<title>Node7</title>
<g id="a_node7"><a xlink:title=" ">
<polygon fill="#e0e0e0" stroke="#999999" points="678,-310.5 576,-310.5 576,-291.5 678,-291.5 678,-310.5"/>
<text text-anchor="middle" x="627" y="-298.5" font-family="Helvetica,sans-Serif" font-size="10.00">boost/operators.hpp</text>
</a>
</g>
</g>
<!-- Node3&#45;&gt;Node7 -->
<g id="edge6" class="edge">
<title>Node3&#45;&gt;Node7</title>
<path fill="none" stroke="#63b8ff" d="M463.42,-357.1C496.22,-346.05 552.39,-327.13 589.61,-314.6"/>
<polygon fill="#63b8ff" stroke="#63b8ff" points="590.71,-317.92 599.07,-311.41 588.47,-311.28 590.71,-317.92"/>
</g>
<!-- Node8 -->
<g id="node8" class="node">
<title>Node8</title>
<g id="a_node8"><a xlink:title=" ">
<polygon fill="#e0e0e0" stroke="#999999" points="635.5,-250 582.5,-250 582.5,-231 635.5,-231 635.5,-250"/>
<text text-anchor="middle" x="609" y="-238" font-family="Helvetica,sans-Serif" font-size="10.00">gsl/span</text>
</a>
</g>
</g>
<!-- Node3&#45;&gt;Node8 -->
<g id="edge7" class="edge">
<title>Node3&#45;&gt;Node8</title>
<path fill="none" stroke="#63b8ff" d="M428.34,-357.18C413.91,-341.42 388.22,-308.02 406,-286 451.55,-229.58 494.87,-263.35 571.27,-250.07"/>
<polygon fill="#63b8ff" stroke="#63b8ff" points="571.67,-253.56 580.79,-248.17 570.3,-246.7 571.67,-253.56"/>
</g>
<!-- Node3&#45;&gt;Node9 -->
<g id="edge8" class="edge">
<title>Node3&#45;&gt;Node9</title>
<path fill="none" stroke="#63b8ff" d="M465.89,-357.05C472.76,-355.16 480.1,-353.34 487,-352 558.11,-338.19 751.63,-357.51 811,-316 841.3,-294.81 848,-278.47 848,-241.5 848,-241.5 848,-241.5 848,-179 848,-90.67 724.31,-69.85 643.75,-65.67"/>
<polygon fill="#63b8ff" stroke="#63b8ff" points="644.35,-62.19 634.2,-65.25 644.04,-69.18 644.35,-62.19"/>
</g>
<!-- Node10 -->
<g id="node10" class="node">
<title>Node10</title>
<g id="a_node10"><a xlink:title=" ">
<polygon fill="#e0e0e0" stroke="#999999" points="646.5,-19 505.5,-19 505.5,0 646.5,0 646.5,-19"/>
<text text-anchor="middle" x="576" y="-7" font-family="Helvetica,sans-Serif" font-size="10.00">libp2p/outcome/outcome.hpp</text>
</a>
</g>
</g>
<!-- Node9&#45;&gt;Node10 -->
<g id="edge9" class="edge">
<title>Node9&#45;&gt;Node10</title>
<path fill="none" stroke="#63b8ff" d="M576,-54.75C576,-48.27 576,-39.16 576,-30.9"/>
<polygon fill="#63b8ff" stroke="#63b8ff" points="579.5,-30.96 576,-20.96 572.5,-30.96 579.5,-30.96"/>
</g>
<!-- Node11&#45;&gt;Node3 -->
<g id="edge13" class="edge">
<title>Node11&#45;&gt;Node3</title>
<path fill="none" stroke="#63b8ff" d="M364.09,-483.59C379.11,-459.77 409.11,-412.22 425.55,-386.15"/>
<polygon fill="#63b8ff" stroke="#63b8ff" points="428.33,-388.31 430.7,-377.99 422.4,-384.58 428.33,-388.31"/>
</g>
<!-- Node11&#45;&gt;Node9 -->
<g id="edge12" class="edge">
<title>Node11&#45;&gt;Node9</title>
<path fill="none" stroke="#63b8ff" d="M295.12,-493.52C243.2,-487.91 167.03,-475.43 106,-448 52.16,-423.81 0,-427.02 0,-368 0,-368 0,-368 0,-179 0,-76.56 355.13,-65.02 507.69,-64.78"/>
<polygon fill="#63b8ff" stroke="#63b8ff" points="507.68,-68.28 517.68,-64.78 507.68,-61.28 507.68,-68.28"/>
</g>
<!-- Node12 -->
<g id="node12" class="node">
<title>Node12</title>
<g id="a_node12"><a xlink:href="buffer__map__types_8hpp.html" target="_top" xlink:title=" ">
<polygon fill="white" stroke="#666666" points="377,-448 277,-448 277,-418 377,-418 377,-448"/>
<text text-anchor="start" x="285" y="-436" font-family="Helvetica,sans-Serif" font-size="10.00">storage/buffer_map</text>
<text text-anchor="middle" x="327" y="-425" font-family="Helvetica,sans-Serif" font-size="10.00">_types.hpp</text>
</a>
</g>
</g>
<!-- Node11&#45;&gt;Node12 -->
<g id="edge14" class="edge">
<title>Node11&#45;&gt;Node12</title>
<path fill="none" stroke="#63b8ff" d="M348.79,-483.8C345.56,-476.42 341.52,-467.2 337.81,-458.7"/>
<polygon fill="#63b8ff" stroke="#63b8ff" points="341.02,-457.31 333.8,-449.55 334.61,-460.12 341.02,-457.31"/>
</g>
<!-- Node22 -->
<g id="node22" class="node">
<title>Node22</title>
<g id="a_node22"><a xlink:href="supergenius__node_8hpp.html" target="_top" xlink:title=" ">
<polygon fill="white" stroke="#666666" points="611.5,-448 476.5,-448 476.5,-418 611.5,-418 611.5,-448"/>
<text text-anchor="start" x="484.5" y="-436" font-family="Helvetica,sans-Serif" font-size="10.00">storage/trie/supergenius</text>
<text text-anchor="middle" x="544" y="-425" font-family="Helvetica,sans-Serif" font-size="10.00">_trie/supergenius_node.hpp</text>
</a>
</g>
</g>
<!-- Node11&#45;&gt;Node22 -->
<g id="edge35" class="edge">
<title>Node11&#45;&gt;Node22</title>
<path fill="none" stroke="#63b8ff" d="M397.42,-483.64C425.04,-474.28 461.3,-462 490.85,-452"/>
<polygon fill="#63b8ff" stroke="#63b8ff" points="491.62,-455.43 499.97,-448.91 489.37,-448.8 491.62,-455.43"/>
</g>
<!-- Node12&#45;&gt;Node3 -->
<g id="edge16" class="edge">
<title>Node12&#45;&gt;Node3</title>
<path fill="none" stroke="#63b8ff" d="M351.69,-417.64C369.58,-407.22 393.71,-393.19 411.74,-382.7"/>
<polygon fill="#63b8ff" stroke="#63b8ff" points="413.36,-385.8 420.25,-377.75 409.84,-379.75 413.36,-385.8"/>
</g>
<!-- Node12&#45;&gt;Node8 -->
<g id="edge15" class="edge">
<title>Node12&#45;&gt;Node8</title>
<path fill="none" stroke="#63b8ff" d="M329.38,-417.74C335.11,-388.17 352.54,-320.08 396,-286 456.46,-238.59 491.5,-264.73 571.26,-250.13"/>
<polygon fill="#63b8ff" stroke="#63b8ff" points="571.69,-253.61 580.8,-248.2 570.31,-246.75 571.69,-253.61"/>
</g>
<!-- Node13 -->
<g id="node13" class="node">
<title>Node13</title>
<g id="a_node13"><a xlink:href="batchable_8hpp.html" target="_top" xlink:title=" ">
<polygon fill="white" stroke="#666666" points="238,-250 104,-250 104,-231 238,-231 238,-250"/>
<text text-anchor="middle" x="171" y="-238" font-family="Helvetica,sans-Serif" font-size="10.00">storage/face/batchable.hpp</text>
</a>
</g>
</g>
<!-- Node12&#45;&gt;Node13 -->
<g id="edge17" class="edge">
<title>Node12&#45;&gt;Node13</title>
<path fill="none" stroke="#63b8ff" d="M277.04,-417.51C246.5,-407.67 211.37,-394.27 201,-382 171.83,-347.48 168.92,-291.45 169.71,-261.64"/>
<polygon fill="#63b8ff" stroke="#63b8ff" points="173.2,-261.95 170.17,-251.8 166.21,-261.63 173.2,-261.95"/>
</g>
<!-- Node15 -->
<g id="node15" class="node">
<title>Node15</title>
<g id="a_node15"><a xlink:href="write__batch_8hpp.html" target="_top" xlink:title=" ">
<polygon fill="white" stroke="#666666" points="161.5,-195 66.5,-195 66.5,-165 161.5,-165 161.5,-195"/>
<text text-anchor="start" x="74.5" y="-183" font-family="Helvetica,sans-Serif" font-size="10.00">storage/face/write</text>
<text text-anchor="middle" x="114" y="-172" font-family="Helvetica,sans-Serif" font-size="10.00">_batch.hpp</text>
</a>
</g>
</g>
<!-- Node12&#45;&gt;Node15 -->
<g id="edge34" class="edge">
<title>Node12&#45;&gt;Node15</title>
<path fill="none" stroke="#63b8ff" d="M276.73,-418.58C240.82,-408.29 196.27,-393.89 181,-382 125.76,-338.98 114.94,-317.12 95,-250 90.63,-235.3 94.89,-218.73 100.48,-205.52"/>
<polygon fill="#63b8ff" stroke="#63b8ff" points="103.54,-207.22 104.67,-196.69 97.22,-204.22 103.54,-207.22"/>
</g>
<!-- Node17 -->
<g id="node17" class="node">
<title>Node17</title>
<g id="a_node17"><a xlink:href="generic__storage_8hpp.html" target="_top" xlink:title=" ">
<polygon fill="white" stroke="#666666" points="315.5,-382 210.5,-382 210.5,-352 315.5,-352 315.5,-382"/>
<text text-anchor="start" x="218.5" y="-370" font-family="Helvetica,sans-Serif" font-size="10.00">storage/face/generic</text>
<text text-anchor="middle" x="263" y="-359" font-family="Helvetica,sans-Serif" font-size="10.00">_storage.hpp</text>
</a>
</g>
</g>
<!-- Node12&#45;&gt;Node17 -->
<g id="edge23" class="edge">
<title>Node12&#45;&gt;Node17</title>
<path fill="none" stroke="#63b8ff" d="M312.8,-417.8C304.68,-409.68 294.31,-399.31 285.15,-390.15"/>
<polygon fill="#63b8ff" stroke="#63b8ff" points="287.78,-387.83 278.23,-383.23 282.83,-392.78 287.78,-387.83"/>
</g>
<!-- Node14 -->
<g id="node14" class="node">
<title>Node14</title>
<g id="a_node14"><a xlink:title=" ">
<polygon fill="#e0e0e0" stroke="#999999" points="363.5,-189.5 312.5,-189.5 312.5,-170.5 363.5,-170.5 363.5,-189.5"/>
<text text-anchor="middle" x="338" y="-177.5" font-family="Helvetica,sans-Serif" font-size="10.00">memory</text>
</a>
</g>
</g>
<!-- Node13&#45;&gt;Node14 -->
<g id="edge18" class="edge">
<title>Node13&#45;&gt;Node14</title>
<path fill="none" stroke="#63b8ff" d="M196.36,-230.62C224.44,-220.78 269.93,-204.84 301.76,-193.69"/>
<polygon fill="#63b8ff" stroke="#63b8ff" points="302.69,-197.08 310.97,-190.47 300.37,-190.47 302.69,-197.08"/>
</g>
<!-- Node13&#45;&gt;Node15 -->
<g id="edge19" class="edge">
<title>Node13&#45;&gt;Node15</title>
<path fill="none" stroke="#63b8ff" d="M162.59,-230.87C155.5,-223.59 145.04,-212.85 135.63,-203.2"/>
<polygon fill="#63b8ff" stroke="#63b8ff" points="138.29,-200.92 128.81,-196.2 133.28,-205.8 138.29,-200.92"/>
</g>
<!-- Node16 -->
<g id="node16" class="node">
<title>Node16</title>
<g id="a_node16"><a xlink:href="writeable_8hpp.html" target="_top" xlink:title=" ">
<polygon fill="white" stroke="#666666" points="297.5,-129 166.5,-129 166.5,-110 297.5,-110 297.5,-129"/>
<text text-anchor="middle" x="232" y="-117" font-family="Helvetica,sans-Serif" font-size="10.00">storage/face/writeable.hpp</text>
</a>
</g>
</g>
<!-- Node13&#45;&gt;Node16 -->
<g id="edge22" class="edge">
<title>Node13&#45;&gt;Node16</title>
<path fill="none" stroke="#63b8ff" d="M175.58,-230.56C185.48,-211.25 209.02,-165.33 222.36,-139.31"/>
<polygon fill="#63b8ff" stroke="#63b8ff" points="225.39,-141.07 226.84,-130.57 219.16,-137.87 225.39,-141.07"/>
</g>
<!-- Node15&#45;&gt;Node16 -->
<g id="edge20" class="edge">
<title>Node15&#45;&gt;Node16</title>
<path fill="none" stroke="#63b8ff" d="M143.17,-164.54C161.77,-155.32 185.73,-143.44 204.08,-134.34"/>
<polygon fill="#63b8ff" stroke="#63b8ff" points="205.4,-137.6 212.8,-130.02 202.29,-131.32 205.4,-137.6"/>
</g>
<!-- Node16&#45;&gt;Node9 -->
<g id="edge21" class="edge">
<title>Node16&#45;&gt;Node9</title>
<path fill="none" stroke="#63b8ff" d="M290.35,-109.51C350.57,-100.23 444.43,-85.77 507.97,-75.98"/>
<polygon fill="#63b8ff" stroke="#63b8ff" points="508.23,-79.48 517.58,-74.5 507.17,-72.56 508.23,-79.48"/>
</g>
<!-- Node18 -->
<g id="node18" class="node">
<title>Node18</title>
<g id="a_node18"><a xlink:href="generic__maps_8hpp.html" target="_top" xlink:title=" ">
<polygon fill="white" stroke="#666666" points="315.5,-316 210.5,-316 210.5,-286 315.5,-286 315.5,-316"/>
<text text-anchor="start" x="218.5" y="-304" font-family="Helvetica,sans-Serif" font-size="10.00">storage/face/generic</text>
<text text-anchor="middle" x="263" y="-293" font-family="Helvetica,sans-Serif" font-size="10.00">_maps.hpp</text>
</a>
</g>
</g>
<!-- Node17&#45;&gt;Node18 -->
<g id="edge24" class="edge">
<title>Node17&#45;&gt;Node18</title>
<path fill="none" stroke="#63b8ff" d="M263,-351.8C263,-344.67 263,-335.82 263,-327.56"/>
<polygon fill="#63b8ff" stroke="#63b8ff" points="266.5,-327.68 263,-317.68 259.5,-327.68 266.5,-327.68"/>
</g>
<!-- Node18&#45;&gt;Node13 -->
<g id="edge25" class="edge">
<title>Node18&#45;&gt;Node13</title>
<path fill="none" stroke="#63b8ff" d="M240.26,-285.54C226.3,-276.66 208.46,-265.32 194.39,-256.37"/>
<polygon fill="#63b8ff" stroke="#63b8ff" points="196.51,-253.57 186.19,-251.16 192.75,-259.48 196.51,-253.57"/>
</g>
<!-- Node18&#45;&gt;Node16 -->
<g id="edge33" class="edge">
<title>Node18&#45;&gt;Node16</title>
<path fill="none" stroke="#63b8ff" d="M260.52,-285.61C255.01,-253.76 241.8,-177.22 235.48,-140.64"/>
<polygon fill="#63b8ff" stroke="#63b8ff" points="238.96,-140.25 233.81,-130.99 232.06,-141.44 238.96,-140.25"/>
</g>
<!-- Node19 -->
<g id="node19" class="node">
<title>Node19</title>
<g id="a_node19"><a xlink:href="iterable_8hpp.html" target="_top" xlink:title=" ">
<polygon fill="white" stroke="#666666" points="417.5,-250 294.5,-250 294.5,-231 417.5,-231 417.5,-250"/>
<text text-anchor="middle" x="356" y="-238" font-family="Helvetica,sans-Serif" font-size="10.00">storage/face/iterable.hpp</text>
</a>
</g>
</g>
<!-- Node18&#45;&gt;Node19 -->
<g id="edge26" class="edge">
<title>Node18&#45;&gt;Node19</title>
<path fill="none" stroke="#63b8ff" d="M285.99,-285.54C300.1,-276.66 318.13,-265.32 332.36,-256.37"/>
<polygon fill="#63b8ff" stroke="#63b8ff" points="334.05,-259.44 340.66,-251.15 330.33,-253.51 334.05,-259.44"/>
</g>
<!-- Node21 -->
<g id="node21" class="node">
<title>Node21</title>
<g id="a_node21"><a xlink:href="readable_8hpp.html" target="_top" xlink:title=" ">
<polygon fill="white" stroke="#666666" points="564,-250 436,-250 436,-231 564,-231 564,-250"/>
<text text-anchor="middle" x="500" y="-238" font-family="Helvetica,sans-Serif" font-size="10.00">storage/face/readable.hpp</text>
</a>
</g>
</g>
<!-- Node18&#45;&gt;Node21 -->
<g id="edge30" class="edge">
<title>Node18&#45;&gt;Node21</title>
<path fill="none" stroke="#63b8ff" d="M315.89,-286.94C356.96,-276.81 413.37,-262.88 452.89,-253.13"/>
<polygon fill="#63b8ff" stroke="#63b8ff" points="453.48,-256.59 462.34,-250.79 451.8,-249.79 453.48,-256.59"/>
</g>
<!-- Node19&#45;&gt;Node14 -->
<g id="edge27" class="edge">
<title>Node19&#45;&gt;Node14</title>
<path fill="none" stroke="#63b8ff" d="M353.34,-230.87C350.9,-222.92 347.18,-210.83 344.02,-200.55"/>
<polygon fill="#63b8ff" stroke="#63b8ff" points="347.4,-199.64 341.11,-191.11 340.71,-201.7 347.4,-199.64"/>
</g>
<!-- Node20 -->
<g id="node20" class="node">
<title>Node20</title>
<g id="a_node20"><a xlink:href="map__cursor_8hpp.html" target="_top" xlink:title=" ">
<polygon fill="white" stroke="#666666" points="547.5,-189.5 404.5,-189.5 404.5,-170.5 547.5,-170.5 547.5,-189.5"/>
<text text-anchor="middle" x="476" y="-177.5" font-family="Helvetica,sans-Serif" font-size="10.00">storage/face/map_cursor.hpp</text>
</a>
</g>
</g>
<!-- Node19&#45;&gt;Node20 -->
<g id="edge28" class="edge">
<title>Node19&#45;&gt;Node20</title>
<path fill="none" stroke="#63b8ff" d="M374.23,-230.62C393.7,-221.12 424.82,-205.95 447.53,-194.88"/>
<polygon fill="#63b8ff" stroke="#63b8ff" points="448.79,-198.16 456.24,-190.63 445.72,-191.87 448.79,-198.16"/>
</g>
<!-- Node20&#45;&gt;Node9 -->
<g id="edge29" class="edge">
<title>Node20&#45;&gt;Node9</title>
<path fill="none" stroke="#63b8ff" d="M483.85,-170.09C500.42,-151.28 539.25,-107.21 560.84,-82.71"/>
<polygon fill="#63b8ff" stroke="#63b8ff" points="563.2,-85.32 567.19,-75.5 557.95,-80.69 563.2,-85.32"/>
</g>
<!-- Node21&#45;&gt;Node9 -->
<g id="edge31" class="edge">
<title>Node21&#45;&gt;Node9</title>
<path fill="none" stroke="#63b8ff" d="M517.69,-230.53C530.78,-222.92 547.85,-210.74 557,-195 577.03,-160.56 578.54,-112.56 577.5,-85.72"/>
<polygon fill="#63b8ff" stroke="#63b8ff" points="581,-85.69 576.94,-75.91 574.01,-86.09 581,-85.69"/>
</g>
<!-- Node21&#45;&gt;Node20 -->
<g id="edge32" class="edge">
<title>Node21&#45;&gt;Node20</title>
<path fill="none" stroke="#63b8ff" d="M496.46,-230.87C493.16,-222.83 488.13,-210.57 483.88,-200.22"/>
<polygon fill="#63b8ff" stroke="#63b8ff" points="487.16,-198.99 480.13,-191.07 480.69,-201.65 487.16,-198.99"/>
</g>
<!-- Node22&#45;&gt;Node3 -->
<g id="edge46" class="edge">
<title>Node22&#45;&gt;Node3</title>
<path fill="none" stroke="#63b8ff" d="M519.99,-417.64C502.58,-407.22 479.11,-393.19 461.57,-382.7"/>
<polygon fill="#63b8ff" stroke="#63b8ff" points="463.7,-379.89 453.32,-377.76 460.11,-385.9 463.7,-379.89"/>
</g>
<!-- Node23 -->
<g id="node23" class="node">
<title>Node23</title>
<g id="a_node23"><a xlink:title=" ">
<polygon fill="#e0e0e0" stroke="#999999" points="591.5,-376.5 496.5,-376.5 496.5,-357.5 591.5,-357.5 591.5,-376.5"/>
<text text-anchor="middle" x="544" y="-364.5" font-family="Helvetica,sans-Serif" font-size="10.00">boost/optional.hpp</text>
</a>
</g>
</g>
<!-- Node22&#45;&gt;Node23 -->
<g id="edge36" class="edge">
<title>Node22&#45;&gt;Node23</title>
<path fill="none" stroke="#63b8ff" d="M544,-417.8C544,-409.09 544,-397.81 544,-388.18"/>
<polygon fill="#63b8ff" stroke="#63b8ff" points="547.5,-388.36 544,-378.36 540.5,-388.36 547.5,-388.36"/>
</g>
<!-- Node24 -->
<g id="node24" class="node">
<title>Node24</title>
<g id="a_node24"><a xlink:href="blob_8hpp.html" target="_top" xlink:title=" ">
<polygon fill="white" stroke="#666666" points="941.5,-376.5 864.5,-376.5 864.5,-357.5 941.5,-357.5 941.5,-376.5"/>
<text text-anchor="middle" x="903" y="-364.5" font-family="Helvetica,sans-Serif" font-size="10.00">base/blob.hpp</text>
</a>
</g>
</g>
<!-- Node22&#45;&gt;Node24 -->
<g id="edge37" class="edge">
<title>Node22&#45;&gt;Node24</title>
<path fill="none" stroke="#63b8ff" d="M611.95,-419.89C682.18,-407.37 790.16,-388.12 852.96,-376.92"/>
<polygon fill="#63b8ff" stroke="#63b8ff" points="853.42,-380.39 862.65,-375.19 852.19,-373.5 853.42,-380.39"/>
</g>
<!-- Node29 -->
<g id="node29" class="node">
<title>Node29</title>
<g id="a_node29"><a xlink:href="src_2storage_2trie_2node_8hpp.html" target="_top" xlink:title=" ">
<polygon fill="white" stroke="#666666" points="716.5,-376.5 609.5,-376.5 609.5,-357.5 716.5,-357.5 716.5,-376.5"/>
<text text-anchor="middle" x="663" y="-364.5" font-family="Helvetica,sans-Serif" font-size="10.00">storage/trie/node.hpp</text>
</a>
</g>
</g>
<!-- Node22&#45;&gt;Node29 -->
<g id="edge47" class="edge">
<title>Node22&#45;&gt;Node29</title>
<path fill="none" stroke="#63b8ff" d="M570.71,-417.64C590.25,-407.13 616.66,-392.92 636.22,-382.4"/>
<polygon fill="#63b8ff" stroke="#63b8ff" points="637.81,-385.52 644.96,-377.7 634.49,-379.36 637.81,-385.52"/>
</g>
<!-- Node25 -->
<g id="node25" class="node">
<title>Node25</title>
<g id="a_node25"><a xlink:title=" ">
<polygon fill="#e0e0e0" stroke="#999999" points="986,-310.5 948,-310.5 948,-291.5 986,-291.5 986,-310.5"/>
<text text-anchor="middle" x="967" y="-298.5" font-family="Helvetica,sans-Serif" font-size="10.00">array</text>
</a>
</g>
</g>
<!-- Node24&#45;&gt;Node25 -->
<g id="edge38" class="edge">
<title>Node24&#45;&gt;Node25</title>
<path fill="none" stroke="#63b8ff" d="M911.9,-357.1C921.74,-347.26 937.82,-331.18 950.07,-318.93"/>
<polygon fill="#63b8ff" stroke="#63b8ff" points="952.51,-321.44 957.11,-311.89 947.56,-316.49 952.51,-321.44"/>
</g>
<!-- Node26 -->
<g id="node26" class="node">
<title>Node26</title>
<g id="a_node26"><a xlink:title=" ">
<polygon fill="#e0e0e0" stroke="#999999" points="1132,-310.5 1004,-310.5 1004,-291.5 1132,-291.5 1132,-310.5"/>
<text text-anchor="middle" x="1068" y="-298.5" font-family="Helvetica,sans-Serif" font-size="10.00">boost/functional/hash.hpp</text>
</a>
</g>
</g>
<!-- Node24&#45;&gt;Node26 -->
<g id="edge39" class="edge">
<title>Node24&#45;&gt;Node26</title>
<path fill="none" stroke="#63b8ff" d="M925.94,-357.1C954.06,-346.19 1001.95,-327.62 1034.26,-315.09"/>
<polygon fill="#63b8ff" stroke="#63b8ff" points="1035.52,-318.35 1043.58,-311.47 1032.99,-311.83 1035.52,-318.35"/>
</g>
<!-- Node27 -->
<g id="node27" class="node">
<title>Node27</title>
<g id="a_node27"><a xlink:href="hexutil_8hpp.html" target="_top" xlink:title=" ">
<polygon fill="white" stroke="#666666" points="782,-310.5 696,-310.5 696,-291.5 782,-291.5 782,-310.5"/>
<text text-anchor="middle" x="739" y="-298.5" font-family="Helvetica,sans-Serif" font-size="10.00">base/hexutil.hpp</text>
</a>
</g>
</g>
<!-- Node24&#45;&gt;Node27 -->
<g id="edge40" class="edge">
<title>Node24&#45;&gt;Node27</title>
<path fill="none" stroke="#63b8ff" d="M880.2,-357.1C852.25,-346.19 804.65,-327.62 772.53,-315.09"/>
<polygon fill="#63b8ff" stroke="#63b8ff" points="773.87,-311.85 763.28,-311.48 771.33,-318.37 773.87,-311.85"/>
</g>
<!-- Node28 -->
<g id="node28" class="node">
<title>Node28</title>
<g id="a_node28"><a xlink:title=" ">
<polygon fill="#e0e0e0" stroke="#999999" points="930,-310.5 876,-310.5 876,-291.5 930,-291.5 930,-310.5"/>
<text text-anchor="middle" x="903" y="-298.5" font-family="Helvetica,sans-Serif" font-size="10.00">iostream</text>
</a>
</g>
</g>
<!-- Node24&#45;&gt;Node28 -->
<g id="edge45" class="edge">
<title>Node24&#45;&gt;Node28</title>
<path fill="none" stroke="#63b8ff" d="M903,-357.1C903,-348.12 903,-333.95 903,-322.22"/>
<polygon fill="#63b8ff" stroke="#63b8ff" points="906.5,-322.34 903,-312.34 899.5,-322.34 906.5,-322.34"/>
</g>
<!-- Node27&#45;&gt;Node4 -->
<g id="edge41" class="edge">
<title>Node27&#45;&gt;Node4</title>
<path fill="none" stroke="#63b8ff" d="M731.33,-291.37C723.72,-282.81 711.86,-269.47 702.32,-258.74"/>
<polygon fill="#63b8ff" stroke="#63b8ff" points="704.97,-256.45 695.71,-251.3 699.74,-261.1 704.97,-256.45"/>
</g>
<!-- Node27&#45;&gt;Node5 -->
<g id="edge42" class="edge">
<title>Node27&#45;&gt;Node5</title>
<path fill="none" stroke="#63b8ff" d="M747.96,-291.12C756.71,-282.44 770.25,-269.02 781.04,-258.32"/>
<polygon fill="#63b8ff" stroke="#63b8ff" points="783.24,-261.06 787.88,-251.53 778.31,-256.09 783.24,-261.06"/>
</g>
<!-- Node27&#45;&gt;Node8 -->
<g id="edge43" class="edge">
<title>Node27&#45;&gt;Node8</title>
<path fill="none" stroke="#63b8ff" d="M719.26,-291.12C697.97,-281.54 663.83,-266.18 639.18,-255.08"/>
<polygon fill="#63b8ff" stroke="#63b8ff" points="640.87,-252 630.31,-251.09 637.99,-258.39 640.87,-252"/>
</g>
<!-- Node27&#45;&gt;Node9 -->
<g id="edge44" class="edge">
<title>Node27&#45;&gt;Node9</title>
<path fill="none" stroke="#63b8ff" d="M739.35,-291.02C739.54,-277.37 738.48,-250.88 729,-231 697.72,-165.42 631.33,-107.91 597.22,-81.26"/>
<polygon fill="#63b8ff" stroke="#63b8ff" points="599.39,-78.52 589.32,-75.21 595.13,-84.07 599.39,-78.52"/>
</g>
<!-- Node31&#45;&gt;Node3 -->
<g id="edge50" class="edge">
<title>Node31&#45;&gt;Node3</title>
<path fill="none" stroke="#63b8ff" d="M243.42,-417.56C288.01,-406.14 349.46,-390.41 391.07,-379.76"/>
<polygon fill="#63b8ff" stroke="#63b8ff" points="391.7,-383.21 400.52,-377.34 389.97,-376.43 391.7,-383.21"/>
</g>
<!-- Node31&#45;&gt;Node15 -->
<g id="edge51" class="edge">
<title>Node31&#45;&gt;Node15</title>
<path fill="none" stroke="#63b8ff" d="M115.31,-419.25C94.66,-411.89 74.38,-400.29 62,-382 24.38,-326.43 35.71,-292.75 62,-231 66.64,-220.11 74.94,-210.45 83.56,-202.59"/>
<polygon fill="#63b8ff" stroke="#63b8ff" points="85.61,-205.44 91.01,-196.33 81.11,-200.08 85.61,-205.44"/>
</g>
</g>
</svg>
        <g id="navigator" transform="translate(0 0)" fill="#404254">
                <rect fill="#f2f5e9" fill-opacity="0.5" stroke="#606060" stroke-width=".5" x="0" y="0" width="60" height="60"/>
                <use id="zoomplus" xlink:href="#zoomPlus" x="17" y="9" onmousedown="handleZoom(evt,'in')"/>
                <use id="zoomminus" xlink:href="#zoomMin" x="42" y="9" onmousedown="handleZoom(evt,'out')"/>
                <use id="reset" xlink:href="#resetDef" x="30" y="36" onmousedown="handleReset()"/>
                <g id="arrowUp" xlink:href="#dirArrow" transform="translate(30 24)" onmousedown="handlePan(0,-1)">
                  <use xlink:href="#rim" fill="#404040">
                        <set attributeName="fill" to="#808080" begin="arrowUp.mouseover" end="arrowUp.mouseout"/>
                  </use>
                  <path fill="none" stroke="white" stroke-width="1.5" d="M0,-3.0v7 M-2.5,-0.5L0,-3.0L2.5,-0.5"/>
                </g>
                <g id="arrowRight" xlink:href="#dirArrow" transform="rotate(90) translate(36 -43)" onmousedown="handlePan(1,0)">
                  <use xlink:href="#rim" fill="#404040">
                        <set attributeName="fill" to="#808080" begin="arrowRight.mouseover" end="arrowRight.mouseout"/>
                  </use>
                  <path fill="none" stroke="white" stroke-width="1.5" d="M0,-3.0v7 M-2.5,-0.5L0,-3.0L2.5,-0.5"/>
                </g>
                <g id="arrowDown" xlink:href="#dirArrow" transform="rotate(180) translate(-30 -48)" onmousedown="handlePan(0,1)">
                  <use xlink:href="#rim" fill="#404040">
                        <set attributeName="fill" to="#808080" begin="arrowDown.mouseover" end="arrowDown.mouseout"/>
                  </use>
                  <path fill="none" stroke="white" stroke-width="1.5" d="M0,-3.0v7 M-2.5,-0.5L0,-3.0L2.5,-0.5"/>
                </g>
                <g id="arrowLeft" xlink:href="#dirArrow" transform="rotate(270) translate(-36 17)" onmousedown="handlePan(-1,0)">
                  <use xlink:href="#rim" fill="#404040">
                        <set attributeName="fill" to="#808080" begin="arrowLeft.mouseover" end="arrowLeft.mouseout"/>
                  </use>
                  <path fill="none" stroke="white" stroke-width="1.5" d="M0,-3.0v7 M-2.5,-0.5L0,-3.0L2.5,-0.5"/>
                </g>
        </g>
        <svg viewBox="0 0 15 15" width="100%" height="30px" preserveAspectRatio="xMaxYMin meet">
         <g id="arrow_out" transform="scale(0.3 0.3)">
          <a xlink:href="trie__storage__backend__impl_8cpp__incl_org.svg" target="_base">
           <rect id="button" ry="5" rx="5" y="6" x="6" height="38" width="38"
                fill="#f2f5e9" fill-opacity="0.5" stroke="#606060" stroke-width="1.0"/>
           <path id="arrow"
             d="M 11.500037,31.436501 C 11.940474,20.09759 22.043105,11.32322 32.158766,21.979434 L 37.068811,17.246167 C 37.068811,17.246167 37.088388,32 37.088388,32 L 22.160133,31.978069 C 22.160133,31.978069 26.997745,27.140456 26.997745,27.140456 C 18.528582,18.264221 13.291696,25.230495 11.500037,31.436501 z"
             style="fill:#404040;"/>
          </a>
         </g>
        </svg>
</svg>
