<?xml version="1.0" encoding="UTF-8" standalone="no"?>
<!DOCTYPE svg PUBLIC "-//W3C//DTD SVG 1.1//EN"
 "http://www.w3.org/Graphics/SVG/1.1/DTD/svg11.dtd">
<!-- Generated by graphviz version 7.0.5 (20221223.1930)
 -->
<!-- Title: src/storage/trie/impl/trie_storage_backend_batch.hpp Pages: 1 -->
<svg width="252pt" height="126pt"
 viewBox="0.00 0.00 252.00 126.00" xmlns="http://www.w3.org/2000/svg" xmlns:xlink="http://www.w3.org/1999/xlink">
<g id="graph0" class="graph" transform="scale(1 1) rotate(0) translate(4 122)">
<title>src/storage/trie/impl/trie_storage_backend_batch.hpp</title>
<!-- Node1 -->
<g id="node1" class="node">
<title>Node1</title>
<g id="a_node1"><a xlink:title=" ">
<polygon fill="#999999" stroke="#666666" points="178,-118 65,-118 65,-77 178,-77 178,-118"/>
<text text-anchor="start" x="73" y="-106" font-family="Helvetica,sans-Serif" font-size="10.00">src/storage/trie/impl</text>
<text text-anchor="start" x="73" y="-95" font-family="Helvetica,sans-Serif" font-size="10.00">/trie_storage_backend</text>
<text text-anchor="middle" x="121.5" y="-84" font-family="Helvetica,sans-Serif" font-size="10.00">_batch.hpp</text>
</a>
</g>
</g>
<!-- Node2 -->
<g id="node2" class="node">
<title>Node2</title>
<g id="a_node2"><a xlink:href="trie__storage__backend__batch_8cpp.html" target="_top" xlink:title=" ">
<polygon fill="white" stroke="#666666" points="113,-41 0,-41 0,0 113,0 113,-41"/>
<text text-anchor="start" x="8" y="-29" font-family="Helvetica,sans-Serif" font-size="10.00">src/storage/trie/impl</text>
<text text-anchor="start" x="8" y="-18" font-family="Helvetica,sans-Serif" font-size="10.00">/trie_storage_backend</text>
<text text-anchor="middle" x="56.5" y="-7" font-family="Helvetica,sans-Serif" font-size="10.00">_batch.cpp</text>
</a>
</g>
</g>
<!-- Node1&#45;&gt;Node2 -->
<g id="edge1" class="edge">
<title>Node1&#45;&gt;Node2</title>
<path fill="none" stroke="#63b8ff" d="M96.96,-68.18C89.21,-59.24 80.81,-49.55 73.69,-41.33"/>
<polygon fill="#63b8ff" stroke="#63b8ff" points="94.24,-70.39 103.43,-75.65 99.53,-65.8 94.24,-70.39"/>
</g>
<!-- Node3 -->
<g id="node3" class="node">
<title>Node3</title>
<g id="a_node3"><a xlink:href="trie__storage__backend__impl_8cpp.html" target="_top" xlink:title=" ">
<polygon fill="white" stroke="#666666" points="244,-41 131,-41 131,0 244,0 244,-41"/>
<text text-anchor="start" x="139" y="-29" font-family="Helvetica,sans-Serif" font-size="10.00">src/storage/trie/impl</text>
<text text-anchor="start" x="139" y="-18" font-family="Helvetica,sans-Serif" font-size="10.00">/trie_storage_backend</text>
<text text-anchor="middle" x="187.5" y="-7" font-family="Helvetica,sans-Serif" font-size="10.00">_impl.cpp</text>
</a>
</g>
</g>
<!-- Node1&#45;&gt;Node3 -->
<g id="edge2" class="edge">
<title>Node1&#45;&gt;Node3</title>
<path fill="none" stroke="#63b8ff" d="M146.42,-68.18C154.29,-59.24 162.81,-49.55 170.05,-41.33"/>
<polygon fill="#63b8ff" stroke="#63b8ff" points="143.82,-65.84 139.84,-75.66 149.07,-70.46 143.82,-65.84"/>
</g>
</g>
</svg>
