<?xml version="1.0" encoding="UTF-8" standalone="no"?>
<!DOCTYPE svg PUBLIC "-//W3C//DTD SVG 1.1//EN"
 "http://www.w3.org/Graphics/SVG/1.1/DTD/svg11.dtd">
<!-- Generated by graphviz version 7.0.5 (20221223.1930)
 -->
<!-- Title: src/storage/trie/impl/trie_storage_backend_impl.hpp Pages: 1 -->
<!--zoomable 599 -->
<svg id="main" version="1.1" xmlns="http://www.w3.org/2000/svg" xmlns:xlink="http://www.w3.org/1999/xlink" xml:space="preserve" onload="init(evt)">
<style type="text/css"><![CDATA[
.edge:hover path { stroke: red; }
.edge:hover polygon { stroke: red; fill: red; }
]]></style>
<script type="text/javascript"><![CDATA[
var edges = document.getElementsByTagName('g');
if (edges && edges.length) {
  for (var i=0;i<edges.length;i++) {
    if (edges[i].id.substr(0,4)=='edge') {
      edges[i].setAttribute('class','edge');
    }
  }
}
]]></script>
        <defs>
                <circle id="rim" cx="0" cy="0" r="7"/>
                <circle id="rim2" cx="0" cy="0" r="3.5"/>
                <g id="zoomPlus">
                        <use xlink:href="#rim" fill="#404040">
                                <set attributeName="fill" to="#808080" begin="zoomplus.mouseover" end="zoomplus.mouseout"/>
                        </use>
                        <path d="M-4,0h8M0,-4v8" fill="none" stroke="white" stroke-width="1.5" pointer-events="none"/>
                </g>
                <g id="zoomMin">
                        <use xlink:href="#rim" fill="#404040">
                                <set attributeName="fill" to="#808080" begin="zoomminus.mouseover" end="zoomminus.mouseout"/>
                        </use>
                        <path d="M-4,0h8" fill="none" stroke="white" stroke-width="1.5" pointer-events="none"/>
                </g>
                <g id="dirArrow">
                        <path fill="none" stroke="white" stroke-width="1.5" d="M0,-3.0v7 M-2.5,-0.5L0,-3.0L2.5,-0.5"/>
                </g>
               <g id="resetDef">
                       <use xlink:href="#rim2" fill="#404040">
                               <set attributeName="fill" to="#808080" begin="reset.mouseover" end="reset.mouseout"/>
                       </use>
               </g>
        </defs>

<script type="text/javascript">
var viewWidth = 1396;
var viewHeight = 599;
var sectionId = 'dynsection-0';
</script>
<script xlink:href="svgpan.js"/>
<svg id="graph" class="graph">
<g id="viewport">
<title>src/storage/trie/impl/trie_storage_backend_impl.hpp</title>
<!-- Node1 -->
<g id="node1" class="node">
<title>Node1</title>
<g id="a_node1"><a xlink:title=" ">
<polygon fill="#999999" stroke="#666666" points="945.5,-591 832.5,-591 832.5,-550 945.5,-550 945.5,-591"/>
<text text-anchor="start" x="840.5" y="-579" font-family="Helvetica,sans-Serif" font-size="10.00">src/storage/trie/impl</text>
<text text-anchor="start" x="840.5" y="-568" font-family="Helvetica,sans-Serif" font-size="10.00">/trie_storage_backend</text>
<text text-anchor="middle" x="889" y="-557" font-family="Helvetica,sans-Serif" font-size="10.00">_impl.hpp</text>
</a>
</g>
</g>
<!-- Node2 -->
<g id="node2" class="node">
<title>Node2</title>
<g id="a_node2"><a xlink:href="buffer_8hpp.html" target="_top" xlink:title=" ">
<polygon fill="white" stroke="#666666" points="778.5,-376.5 695.5,-376.5 695.5,-357.5 778.5,-357.5 778.5,-376.5"/>
<text text-anchor="middle" x="737" y="-364.5" font-family="Helvetica,sans-Serif" font-size="10.00">base/buffer.hpp</text>
</a>
</g>
</g>
<!-- Node1&#45;&gt;Node2 -->
<g id="edge1" class="edge">
<title>Node1&#45;&gt;Node2</title>
<path fill="none" stroke="#63b8ff" d="M860.16,-549.69C847.22,-539.91 832.35,-527.36 821,-514 786.56,-473.45 758.64,-416.8 745.38,-387.41"/>
<polygon fill="#63b8ff" stroke="#63b8ff" points="748.6,-386.05 741.36,-378.31 742.2,-388.87 748.6,-386.05"/>
</g>
<!-- Node8 -->
<g id="node8" class="node">
<title>Node8</title>
<g id="a_node8"><a xlink:href="outcome_8hpp.html" target="_top" xlink:title=" ">
<polygon fill="white" stroke="#666666" points="591.5,-74 478.5,-74 478.5,-55 591.5,-55 591.5,-74"/>
<text text-anchor="middle" x="535" y="-62" font-family="Helvetica,sans-Serif" font-size="10.00">outcome/outcome.hpp</text>
</a>
</g>
</g>
<!-- Node1&#45;&gt;Node8 -->
<g id="edge9" class="edge">
<title>Node1&#45;&gt;Node8</title>
<path fill="none" stroke="#63b8ff" d="M945.65,-564.88C1069.02,-553.27 1351,-517.59 1351,-434 1351,-434 1351,-434 1351,-179 1351,-149.84 1504.98,-179.88 1176,-110 1068.17,-87.09 744.76,-73.03 602.92,-67.81"/>
<polygon fill="#63b8ff" stroke="#63b8ff" points="603.44,-64.33 593.32,-67.46 603.18,-71.32 603.44,-64.33"/>
</g>
<!-- Node10 -->
<g id="node10" class="node">
<title>Node10</title>
<g id="a_node10"><a xlink:href="trie__storage__backend_8hpp.html" target="_top" xlink:title=" ">
<polygon fill="white" stroke="#666666" points="948.5,-514 829.5,-514 829.5,-484 948.5,-484 948.5,-514"/>
<text text-anchor="start" x="837.5" y="-502" font-family="Helvetica,sans-Serif" font-size="10.00">storage/trie/trie_storage</text>
<text text-anchor="middle" x="889" y="-491" font-family="Helvetica,sans-Serif" font-size="10.00">_backend.hpp</text>
</a>
</g>
</g>
<!-- Node1&#45;&gt;Node10 -->
<g id="edge10" class="edge">
<title>Node1&#45;&gt;Node10</title>
<path fill="none" stroke="#63b8ff" d="M889,-549.77C889,-542.31 889,-533.7 889,-525.77"/>
<polygon fill="#63b8ff" stroke="#63b8ff" points="892.5,-525.99 889,-515.99 885.5,-525.99 892.5,-525.99"/>
</g>
<!-- Node3 -->
<g id="node3" class="node">
<title>Node3</title>
<g id="a_node3"><a xlink:title=" ">
<polygon fill="#e0e0e0" stroke="#999999" points="829,-250 763,-250 763,-231 829,-231 829,-250"/>
<text text-anchor="middle" x="796" y="-238" font-family="Helvetica,sans-Serif" font-size="10.00">string_view</text>
</a>
</g>
</g>
<!-- Node2&#45;&gt;Node3 -->
<g id="edge2" class="edge">
<title>Node2&#45;&gt;Node3</title>
<path fill="none" stroke="#63b8ff" d="M736.67,-357.03C736.48,-341.6 737.75,-309.45 750,-286 755.73,-275.04 765.17,-265.19 774.02,-257.57"/>
<polygon fill="#63b8ff" stroke="#63b8ff" points="776.06,-260.42 781.66,-251.42 771.68,-254.96 776.06,-260.42"/>
</g>
<!-- Node4 -->
<g id="node4" class="node">
<title>Node4</title>
<g id="a_node4"><a xlink:title=" ">
<polygon fill="#e0e0e0" stroke="#999999" points="1001,-250 957,-250 957,-231 1001,-231 1001,-250"/>
<text text-anchor="middle" x="979" y="-238" font-family="Helvetica,sans-Serif" font-size="10.00">vector</text>
</a>
</g>
</g>
<!-- Node2&#45;&gt;Node4 -->
<g id="edge3" class="edge">
<title>Node2&#45;&gt;Node4</title>
<path fill="none" stroke="#63b8ff" d="M778.76,-363.66C841.85,-359.16 956.81,-346.85 982,-316 994.39,-300.83 991.09,-277.57 986.31,-261.08"/>
<polygon fill="#63b8ff" stroke="#63b8ff" points="989.74,-260.3 983.26,-251.92 983.1,-262.52 989.74,-260.3"/>
</g>
<!-- Node5 -->
<g id="node5" class="node">
<title>Node5</title>
<g id="a_node5"><a xlink:title=" ">
<polygon fill="#e0e0e0" stroke="#999999" points="869,-316 759,-316 759,-286 869,-286 869,-316"/>
<text text-anchor="start" x="767" y="-304" font-family="Helvetica,sans-Serif" font-size="10.00">boost/container_hash</text>
<text text-anchor="middle" x="814" y="-293" font-family="Helvetica,sans-Serif" font-size="10.00">/hash.hpp</text>
</a>
</g>
</g>
<!-- Node2&#45;&gt;Node5 -->
<g id="edge4" class="edge">
<title>Node2&#45;&gt;Node5</title>
<path fill="none" stroke="#63b8ff" d="M747.71,-357.1C758.08,-348.48 774.22,-335.07 787.97,-323.63"/>
<polygon fill="#63b8ff" stroke="#63b8ff" points="789.96,-326.53 795.42,-317.45 785.49,-321.15 789.96,-326.53"/>
</g>
<!-- Node6 -->
<g id="node6" class="node">
<title>Node6</title>
<g id="a_node6"><a xlink:title=" ">
<polygon fill="#e0e0e0" stroke="#999999" points="665,-310.5 563,-310.5 563,-291.5 665,-291.5 665,-310.5"/>
<text text-anchor="middle" x="614" y="-298.5" font-family="Helvetica,sans-Serif" font-size="10.00">boost/operators.hpp</text>
</a>
</g>
</g>
<!-- Node2&#45;&gt;Node6 -->
<g id="edge5" class="edge">
<title>Node2&#45;&gt;Node6</title>
<path fill="none" stroke="#63b8ff" d="M719.9,-357.1C699.43,-346.45 664.91,-328.49 640.86,-315.98"/>
<polygon fill="#63b8ff" stroke="#63b8ff" points="642.79,-313.03 632.3,-311.52 639.56,-319.24 642.79,-313.03"/>
</g>
<!-- Node7 -->
<g id="node7" class="node">
<title>Node7</title>
<g id="a_node7"><a xlink:title=" ">
<polygon fill="#e0e0e0" stroke="#999999" points="719.5,-250 666.5,-250 666.5,-231 719.5,-231 719.5,-250"/>
<text text-anchor="middle" x="693" y="-238" font-family="Helvetica,sans-Serif" font-size="10.00">gsl/span</text>
</a>
</g>
</g>
<!-- Node2&#45;&gt;Node7 -->
<g id="edge6" class="edge">
<title>Node2&#45;&gt;Node7</title>
<path fill="none" stroke="#63b8ff" d="M733.27,-357.22C729.11,-347.29 722.26,-330.6 717,-316 710.31,-297.44 703.49,-275.97 698.84,-260.86"/>
<polygon fill="#63b8ff" stroke="#63b8ff" points="702.32,-260.28 696.06,-251.73 695.62,-262.32 702.32,-260.28"/>
</g>
<!-- Node2&#45;&gt;Node8 -->
<g id="edge7" class="edge">
<title>Node2&#45;&gt;Node8</title>
<path fill="none" stroke="#63b8ff" d="M695.07,-366.05C653.58,-363.78 591.06,-353.69 554,-316 530.04,-291.63 535,-275.67 535,-241.5 535,-241.5 535,-241.5 535,-179 535,-146.39 535,-108.5 535,-85.79"/>
<polygon fill="#63b8ff" stroke="#63b8ff" points="538.5,-85.84 535,-75.84 531.5,-85.84 538.5,-85.84"/>
</g>
<!-- Node9 -->
<g id="node9" class="node">
<title>Node9</title>
<g id="a_node9"><a xlink:title=" ">
<polygon fill="#e0e0e0" stroke="#999999" points="605.5,-19 464.5,-19 464.5,0 605.5,0 605.5,-19"/>
<text text-anchor="middle" x="535" y="-7" font-family="Helvetica,sans-Serif" font-size="10.00">libp2p/outcome/outcome.hpp</text>
</a>
</g>
</g>
<!-- Node8&#45;&gt;Node9 -->
<g id="edge8" class="edge">
<title>Node8&#45;&gt;Node9</title>
<path fill="none" stroke="#63b8ff" d="M535,-54.75C535,-48.27 535,-39.16 535,-30.9"/>
<polygon fill="#63b8ff" stroke="#63b8ff" points="538.5,-30.96 535,-20.96 531.5,-30.96 538.5,-30.96"/>
</g>
<!-- Node10&#45;&gt;Node2 -->
<g id="edge12" class="edge">
<title>Node10&#45;&gt;Node2</title>
<path fill="none" stroke="#63b8ff" d="M872.15,-483.59C843.56,-459.13 785.72,-409.67 755.83,-384.11"/>
<polygon fill="#63b8ff" stroke="#63b8ff" points="758.21,-381.53 748.33,-377.69 753.66,-386.85 758.21,-381.53"/>
</g>
<!-- Node10&#45;&gt;Node8 -->
<g id="edge11" class="edge">
<title>Node10&#45;&gt;Node8</title>
<path fill="none" stroke="#63b8ff" d="M948.85,-492.26C1065.73,-479.39 1313,-443.26 1313,-368 1313,-368 1313,-368 1313,-179 1313,-107.6 793.24,-77.09 603.38,-68.33"/>
<polygon fill="#63b8ff" stroke="#63b8ff" points="603.55,-64.83 593.4,-67.88 603.24,-71.83 603.55,-64.83"/>
</g>
<!-- Node11 -->
<g id="node11" class="node">
<title>Node11</title>
<g id="a_node11"><a xlink:href="buffer__map__types_8hpp.html" target="_top" xlink:title=" ">
<polygon fill="white" stroke="#666666" points="528,-448 428,-448 428,-418 528,-418 528,-448"/>
<text text-anchor="start" x="436" y="-436" font-family="Helvetica,sans-Serif" font-size="10.00">storage/buffer_map</text>
<text text-anchor="middle" x="478" y="-425" font-family="Helvetica,sans-Serif" font-size="10.00">_types.hpp</text>
</a>
</g>
</g>
<!-- Node10&#45;&gt;Node11 -->
<g id="edge13" class="edge">
<title>Node10&#45;&gt;Node11</title>
<path fill="none" stroke="#63b8ff" d="M829.24,-488.69C751.89,-476.65 617.79,-455.77 539.57,-443.59"/>
<polygon fill="#63b8ff" stroke="#63b8ff" points="540.37,-440.17 529.95,-442.09 539.29,-447.09 540.37,-440.17"/>
</g>
<!-- Node21 -->
<g id="node21" class="node">
<title>Node21</title>
<g id="a_node21"><a xlink:href="supergenius__node_8hpp.html" target="_top" xlink:title=" ">
<polygon fill="white" stroke="#666666" points="1015.5,-448 880.5,-448 880.5,-418 1015.5,-418 1015.5,-448"/>
<text text-anchor="start" x="888.5" y="-436" font-family="Helvetica,sans-Serif" font-size="10.00">storage/trie/supergenius</text>
<text text-anchor="middle" x="948" y="-425" font-family="Helvetica,sans-Serif" font-size="10.00">_trie/supergenius_node.hpp</text>
</a>
</g>
</g>
<!-- Node10&#45;&gt;Node21 -->
<g id="edge34" class="edge">
<title>Node10&#45;&gt;Node21</title>
<path fill="none" stroke="#63b8ff" d="M902.09,-483.8C909.5,-475.76 918.94,-465.53 927.32,-456.43"/>
<polygon fill="#63b8ff" stroke="#63b8ff" points="929.71,-459 933.92,-449.28 924.57,-454.26 929.71,-459"/>
</g>
<!-- Node11&#45;&gt;Node2 -->
<g id="edge15" class="edge">
<title>Node11&#45;&gt;Node2</title>
<path fill="none" stroke="#63b8ff" d="M528.24,-419.58C574.9,-408.06 643.84,-391.02 689.57,-379.72"/>
<polygon fill="#63b8ff" stroke="#63b8ff" points="690.33,-383.14 699.2,-377.34 688.65,-376.34 690.33,-383.14"/>
</g>
<!-- Node11&#45;&gt;Node7 -->
<g id="edge14" class="edge">
<title>Node11&#45;&gt;Node7</title>
<path fill="none" stroke="#63b8ff" d="M481.51,-417.65C489.38,-388.5 511.17,-322.1 554,-286 582.69,-261.82 624.7,-250.72 655.02,-245.66"/>
<polygon fill="#63b8ff" stroke="#63b8ff" points="655.15,-249.18 664.52,-244.23 654.11,-242.26 655.15,-249.18"/>
</g>
<!-- Node12 -->
<g id="node12" class="node">
<title>Node12</title>
<g id="a_node12"><a xlink:href="batchable_8hpp.html" target="_top" xlink:title=" ">
<polygon fill="white" stroke="#666666" points="460,-250 326,-250 326,-231 460,-231 460,-250"/>
<text text-anchor="middle" x="393" y="-238" font-family="Helvetica,sans-Serif" font-size="10.00">storage/face/batchable.hpp</text>
</a>
</g>
</g>
<!-- Node11&#45;&gt;Node12 -->
<g id="edge16" class="edge">
<title>Node11&#45;&gt;Node12</title>
<path fill="none" stroke="#63b8ff" d="M467.26,-417.66C460.31,-407.94 451.39,-394.62 445,-382 424.1,-340.75 407.15,-289.04 398.75,-261.29"/>
<polygon fill="#63b8ff" stroke="#63b8ff" points="402.13,-260.39 395.93,-251.79 395.42,-262.38 402.13,-260.39"/>
</g>
<!-- Node14 -->
<g id="node14" class="node">
<title>Node14</title>
<g id="a_node14"><a xlink:href="write__batch_8hpp.html" target="_top" xlink:title=" ">
<polygon fill="white" stroke="#666666" points="506.5,-195 411.5,-195 411.5,-165 506.5,-165 506.5,-195"/>
<text text-anchor="start" x="419.5" y="-183" font-family="Helvetica,sans-Serif" font-size="10.00">storage/face/write</text>
<text text-anchor="middle" x="459" y="-172" font-family="Helvetica,sans-Serif" font-size="10.00">_batch.hpp</text>
</a>
</g>
</g>
<!-- Node11&#45;&gt;Node14 -->
<g id="edge33" class="edge">
<title>Node11&#45;&gt;Node14</title>
<path fill="none" stroke="#63b8ff" d="M478.11,-417.8C478.19,-384.86 477.48,-300.7 469,-231 468.02,-222.95 466.46,-214.25 464.86,-206.41"/>
<polygon fill="#63b8ff" stroke="#63b8ff" points="468.32,-205.86 462.79,-196.83 461.48,-207.34 468.32,-205.86"/>
</g>
<!-- Node16 -->
<g id="node16" class="node">
<title>Node16</title>
<g id="a_node16"><a xlink:href="generic__storage_8hpp.html" target="_top" xlink:title=" ">
<polygon fill="white" stroke="#666666" points="345.5,-382 240.5,-382 240.5,-352 345.5,-352 345.5,-382"/>
<text text-anchor="start" x="248.5" y="-370" font-family="Helvetica,sans-Serif" font-size="10.00">storage/face/generic</text>
<text text-anchor="middle" x="293" y="-359" font-family="Helvetica,sans-Serif" font-size="10.00">_storage.hpp</text>
</a>
</g>
</g>
<!-- Node11&#45;&gt;Node16 -->
<g id="edge22" class="edge">
<title>Node11&#45;&gt;Node16</title>
<path fill="none" stroke="#63b8ff" d="M436.48,-417.64C409.56,-408.32 374.26,-396.11 345.41,-386.13"/>
<polygon fill="#63b8ff" stroke="#63b8ff" points="346.72,-382.88 336.13,-382.92 344.44,-389.5 346.72,-382.88"/>
</g>
<!-- Node13 -->
<g id="node13" class="node">
<title>Node13</title>
<g id="a_node13"><a xlink:title=" ">
<polygon fill="#e0e0e0" stroke="#999999" points="324.5,-189.5 273.5,-189.5 273.5,-170.5 324.5,-170.5 324.5,-189.5"/>
<text text-anchor="middle" x="299" y="-177.5" font-family="Helvetica,sans-Serif" font-size="10.00">memory</text>
</a>
</g>
</g>
<!-- Node12&#45;&gt;Node13 -->
<g id="edge17" class="edge">
<title>Node12&#45;&gt;Node13</title>
<path fill="none" stroke="#63b8ff" d="M378.72,-230.62C363.95,-221.42 340.63,-206.91 323.01,-195.94"/>
<polygon fill="#63b8ff" stroke="#63b8ff" points="325.04,-193.08 314.7,-190.77 321.34,-199.02 325.04,-193.08"/>
</g>
<!-- Node12&#45;&gt;Node14 -->
<g id="edge18" class="edge">
<title>Node12&#45;&gt;Node14</title>
<path fill="none" stroke="#63b8ff" d="M403.02,-230.62C411.33,-223.25 423.5,-212.47 434.37,-202.83"/>
<polygon fill="#63b8ff" stroke="#63b8ff" points="436.41,-205.7 441.58,-196.44 431.77,-200.46 436.41,-205.7"/>
</g>
<!-- Node15 -->
<g id="node15" class="node">
<title>Node15</title>
<g id="a_node15"><a xlink:href="writeable_8hpp.html" target="_top" xlink:title=" ">
<polygon fill="white" stroke="#666666" points="477.5,-129 346.5,-129 346.5,-110 477.5,-110 477.5,-129"/>
<text text-anchor="middle" x="412" y="-117" font-family="Helvetica,sans-Serif" font-size="10.00">storage/face/writeable.hpp</text>
</a>
</g>
</g>
<!-- Node12&#45;&gt;Node15 -->
<g id="edge21" class="edge">
<title>Node12&#45;&gt;Node15</title>
<path fill="none" stroke="#63b8ff" d="M393.77,-230.74C395.06,-216.78 397.93,-188.62 402,-165 403.4,-156.9 405.3,-148.06 407.08,-140.41"/>
<polygon fill="#63b8ff" stroke="#63b8ff" points="410.46,-141.33 409.39,-130.78 403.65,-139.69 410.46,-141.33"/>
</g>
<!-- Node14&#45;&gt;Node15 -->
<g id="edge19" class="edge">
<title>Node14&#45;&gt;Node15</title>
<path fill="none" stroke="#63b8ff" d="M447.38,-164.54C440.9,-156.48 432.79,-146.38 425.97,-137.89"/>
<polygon fill="#63b8ff" stroke="#63b8ff" points="428.91,-135.96 419.92,-130.36 423.45,-140.34 428.91,-135.96"/>
</g>
<!-- Node15&#45;&gt;Node8 -->
<g id="edge20" class="edge">
<title>Node15&#45;&gt;Node8</title>
<path fill="none" stroke="#63b8ff" d="M432.87,-109.51C452.42,-101.08 481.9,-88.38 504.17,-78.79"/>
<polygon fill="#63b8ff" stroke="#63b8ff" points="505.25,-82.13 513.05,-74.96 502.48,-75.7 505.25,-82.13"/>
</g>
<!-- Node17 -->
<g id="node17" class="node">
<title>Node17</title>
<g id="a_node17"><a xlink:href="generic__maps_8hpp.html" target="_top" xlink:title=" ">
<polygon fill="white" stroke="#666666" points="298.5,-316 193.5,-316 193.5,-286 298.5,-286 298.5,-316"/>
<text text-anchor="start" x="201.5" y="-304" font-family="Helvetica,sans-Serif" font-size="10.00">storage/face/generic</text>
<text text-anchor="middle" x="246" y="-293" font-family="Helvetica,sans-Serif" font-size="10.00">_maps.hpp</text>
</a>
</g>
</g>
<!-- Node16&#45;&gt;Node17 -->
<g id="edge23" class="edge">
<title>Node16&#45;&gt;Node17</title>
<path fill="none" stroke="#63b8ff" d="M282.57,-351.8C276.85,-344.01 269.61,-334.16 263.09,-325.28"/>
<polygon fill="#63b8ff" stroke="#63b8ff" points="266.04,-323.37 257.3,-317.38 260.4,-327.52 266.04,-323.37"/>
</g>
<!-- Node17&#45;&gt;Node12 -->
<g id="edge24" class="edge">
<title>Node17&#45;&gt;Node12</title>
<path fill="none" stroke="#63b8ff" d="M282.34,-285.54C306.16,-276.06 337.04,-263.77 360.13,-254.58"/>
<polygon fill="#63b8ff" stroke="#63b8ff" points="361.37,-257.86 369.36,-250.91 358.78,-251.35 361.37,-257.86"/>
</g>
<!-- Node17&#45;&gt;Node15 -->
<g id="edge32" class="edge">
<title>Node17&#45;&gt;Node15</title>
<path fill="none" stroke="#63b8ff" d="M212.65,-285.65C189.08,-273.23 163.56,-253.72 175,-231 204.81,-171.79 277.71,-144.18 334.86,-131.38"/>
<polygon fill="#63b8ff" stroke="#63b8ff" points="335.52,-134.81 344.58,-129.32 334.07,-127.97 335.52,-134.81"/>
</g>
<!-- Node18 -->
<g id="node18" class="node">
<title>Node18</title>
<g id="a_node18"><a xlink:href="iterable_8hpp.html" target="_top" xlink:title=" ">
<polygon fill="white" stroke="#666666" points="307.5,-250 184.5,-250 184.5,-231 307.5,-231 307.5,-250"/>
<text text-anchor="middle" x="246" y="-238" font-family="Helvetica,sans-Serif" font-size="10.00">storage/face/iterable.hpp</text>
</a>
</g>
</g>
<!-- Node17&#45;&gt;Node18 -->
<g id="edge25" class="edge">
<title>Node17&#45;&gt;Node18</title>
<path fill="none" stroke="#63b8ff" d="M246,-285.54C246,-278.34 246,-269.53 246,-261.68"/>
<polygon fill="#63b8ff" stroke="#63b8ff" points="249.5,-261.69 246,-251.69 242.5,-261.69 249.5,-261.69"/>
</g>
<!-- Node20 -->
<g id="node20" class="node">
<title>Node20</title>
<g id="a_node20"><a xlink:href="readable_8hpp.html" target="_top" xlink:title=" ">
<polygon fill="white" stroke="#666666" points="128,-250 0,-250 0,-231 128,-231 128,-250"/>
<text text-anchor="middle" x="64" y="-238" font-family="Helvetica,sans-Serif" font-size="10.00">storage/face/readable.hpp</text>
</a>
</g>
</g>
<!-- Node17&#45;&gt;Node20 -->
<g id="edge29" class="edge">
<title>Node17&#45;&gt;Node20</title>
<path fill="none" stroke="#63b8ff" d="M201.01,-285.54C170.81,-275.83 131.43,-263.17 102.65,-253.92"/>
<polygon fill="#63b8ff" stroke="#63b8ff" points="103.82,-250.62 93.23,-250.9 101.68,-257.29 103.82,-250.62"/>
</g>
<!-- Node18&#45;&gt;Node13 -->
<g id="edge26" class="edge">
<title>Node18&#45;&gt;Node13</title>
<path fill="none" stroke="#63b8ff" d="M253.82,-230.87C261.65,-222.23 273.9,-208.7 283.67,-197.92"/>
<polygon fill="#63b8ff" stroke="#63b8ff" points="286.01,-200.55 290.13,-190.79 280.82,-195.85 286.01,-200.55"/>
</g>
<!-- Node19 -->
<g id="node19" class="node">
<title>Node19</title>
<g id="a_node19"><a xlink:href="map__cursor_8hpp.html" target="_top" xlink:title=" ">
<polygon fill="white" stroke="#666666" points="185.5,-189.5 42.5,-189.5 42.5,-170.5 185.5,-170.5 185.5,-189.5"/>
<text text-anchor="middle" x="114" y="-177.5" font-family="Helvetica,sans-Serif" font-size="10.00">storage/face/map_cursor.hpp</text>
</a>
</g>
</g>
<!-- Node18&#45;&gt;Node19 -->
<g id="edge27" class="edge">
<title>Node18&#45;&gt;Node19</title>
<path fill="none" stroke="#63b8ff" d="M225.95,-230.62C204.34,-221.04 169.68,-205.68 144.64,-194.58"/>
<polygon fill="#63b8ff" stroke="#63b8ff" points="146.18,-191.43 135.62,-190.58 143.34,-197.83 146.18,-191.43"/>
</g>
<!-- Node19&#45;&gt;Node8 -->
<g id="edge28" class="edge">
<title>Node19&#45;&gt;Node8</title>
<path fill="none" stroke="#63b8ff" d="M140.58,-170.03C182.18,-156.16 265.34,-129.11 337,-110 384.66,-97.29 439.42,-85.17 479.25,-76.8"/>
<polygon fill="#63b8ff" stroke="#63b8ff" points="479.77,-80.27 488.84,-74.8 478.34,-73.41 479.77,-80.27"/>
</g>
<!-- Node20&#45;&gt;Node8 -->
<g id="edge30" class="edge">
<title>Node20&#45;&gt;Node8</title>
<path fill="none" stroke="#63b8ff" d="M55.13,-230.88C41,-216.13 16.6,-185.61 33,-165 86.19,-98.18 342.6,-75.61 467.01,-68.51"/>
<polygon fill="#63b8ff" stroke="#63b8ff" points="466.96,-72.01 476.75,-67.97 466.57,-65.03 466.96,-72.01"/>
</g>
<!-- Node20&#45;&gt;Node19 -->
<g id="edge31" class="edge">
<title>Node20&#45;&gt;Node19</title>
<path fill="none" stroke="#63b8ff" d="M71.38,-230.87C78.69,-222.31 90.09,-208.97 99.26,-198.24"/>
<polygon fill="#63b8ff" stroke="#63b8ff" points="101.77,-200.69 105.61,-190.82 96.45,-196.15 101.77,-200.69"/>
</g>
<!-- Node21&#45;&gt;Node2 -->
<g id="edge45" class="edge">
<title>Node21&#45;&gt;Node2</title>
<path fill="none" stroke="#63b8ff" d="M900.38,-417.56C863.31,-406.31 812.43,-390.88 777.35,-380.24"/>
<polygon fill="#63b8ff" stroke="#63b8ff" points="778.58,-376.96 768,-377.4 776.55,-383.65 778.58,-376.96"/>
</g>
<!-- Node22 -->
<g id="node22" class="node">
<title>Node22</title>
<g id="a_node22"><a xlink:title=" ">
<polygon fill="#e0e0e0" stroke="#999999" points="1232.5,-376.5 1137.5,-376.5 1137.5,-357.5 1232.5,-357.5 1232.5,-376.5"/>
<text text-anchor="middle" x="1185" y="-364.5" font-family="Helvetica,sans-Serif" font-size="10.00">boost/optional.hpp</text>
</a>
</g>
</g>
<!-- Node21&#45;&gt;Node22 -->
<g id="edge35" class="edge">
<title>Node21&#45;&gt;Node22</title>
<path fill="none" stroke="#63b8ff" d="M1001.48,-417.56C1043.48,-406.22 1101.26,-390.61 1140.7,-379.96"/>
<polygon fill="#63b8ff" stroke="#63b8ff" points="1141.61,-383.34 1150.35,-377.36 1139.78,-376.59 1141.61,-383.34"/>
</g>
<!-- Node23 -->
<g id="node23" class="node">
<title>Node23</title>
<g id="a_node23"><a xlink:href="blob_8hpp.html" target="_top" xlink:title=" ">
<polygon fill="white" stroke="#666666" points="1119.5,-376.5 1042.5,-376.5 1042.5,-357.5 1119.5,-357.5 1119.5,-376.5"/>
<text text-anchor="middle" x="1081" y="-364.5" font-family="Helvetica,sans-Serif" font-size="10.00">base/blob.hpp</text>
</a>
</g>
</g>
<!-- Node21&#45;&gt;Node23 -->
<g id="edge36" class="edge">
<title>Node21&#45;&gt;Node23</title>
<path fill="none" stroke="#63b8ff" d="M977.85,-417.64C999.99,-406.98 1030.02,-392.53 1051.97,-381.97"/>
<polygon fill="#63b8ff" stroke="#63b8ff" points="1053.47,-385.13 1060.96,-377.64 1050.43,-378.82 1053.47,-385.13"/>
</g>
<!-- Node28 -->
<g id="node28" class="node">
<title>Node28</title>
<g id="a_node28"><a xlink:href="src_2storage_2trie_2node_8hpp.html" target="_top" xlink:title=" ">
<polygon fill="white" stroke="#666666" points="1001.5,-376.5 894.5,-376.5 894.5,-357.5 1001.5,-357.5 1001.5,-376.5"/>
<text text-anchor="middle" x="948" y="-364.5" font-family="Helvetica,sans-Serif" font-size="10.00">storage/trie/node.hpp</text>
</a>
</g>
</g>
<!-- Node21&#45;&gt;Node28 -->
<g id="edge46" class="edge">
<title>Node21&#45;&gt;Node28</title>
<path fill="none" stroke="#63b8ff" d="M948,-417.8C948,-409.09 948,-397.81 948,-388.18"/>
<polygon fill="#63b8ff" stroke="#63b8ff" points="951.5,-388.36 948,-378.36 944.5,-388.36 951.5,-388.36"/>
</g>
<!-- Node24 -->
<g id="node24" class="node">
<title>Node24</title>
<g id="a_node24"><a xlink:title=" ">
<polygon fill="#e0e0e0" stroke="#999999" points="1285,-310.5 1247,-310.5 1247,-291.5 1285,-291.5 1285,-310.5"/>
<text text-anchor="middle" x="1266" y="-298.5" font-family="Helvetica,sans-Serif" font-size="10.00">array</text>
</a>
</g>
</g>
<!-- Node23&#45;&gt;Node24 -->
<g id="edge37" class="edge">
<title>Node23&#45;&gt;Node24</title>
<path fill="none" stroke="#63b8ff" d="M1110.91,-357.08C1149.59,-345.44 1214.75,-325.45 1238,-316 1238.35,-315.86 1238.7,-315.71 1239.05,-315.57"/>
<polygon fill="#63b8ff" stroke="#63b8ff" points="1240.3,-318.84 1247.94,-311.5 1237.39,-312.48 1240.3,-318.84"/>
</g>
<!-- Node25 -->
<g id="node25" class="node">
<title>Node25</title>
<g id="a_node25"><a xlink:title=" ">
<polygon fill="#e0e0e0" stroke="#999999" points="1157,-310.5 1029,-310.5 1029,-291.5 1157,-291.5 1157,-310.5"/>
<text text-anchor="middle" x="1093" y="-298.5" font-family="Helvetica,sans-Serif" font-size="10.00">boost/functional/hash.hpp</text>
</a>
</g>
</g>
<!-- Node23&#45;&gt;Node25 -->
<g id="edge38" class="edge">
<title>Node23&#45;&gt;Node25</title>
<path fill="none" stroke="#63b8ff" d="M1082.67,-357.1C1084.37,-348.03 1087.07,-333.64 1089.28,-321.85"/>
<polygon fill="#63b8ff" stroke="#63b8ff" points="1092.66,-322.78 1091.07,-312.31 1085.78,-321.49 1092.66,-322.78"/>
</g>
<!-- Node26 -->
<g id="node26" class="node">
<title>Node26</title>
<g id="a_node26"><a xlink:href="hexutil_8hpp.html" target="_top" xlink:title=" ">
<polygon fill="white" stroke="#666666" points="973,-310.5 887,-310.5 887,-291.5 973,-291.5 973,-310.5"/>
<text text-anchor="middle" x="930" y="-298.5" font-family="Helvetica,sans-Serif" font-size="10.00">base/hexutil.hpp</text>
</a>
</g>
</g>
<!-- Node23&#45;&gt;Node26 -->
<g id="edge39" class="edge">
<title>Node23&#45;&gt;Node26</title>
<path fill="none" stroke="#63b8ff" d="M1060,-357.1C1034.42,-346.26 990.97,-327.84 961.4,-315.31"/>
<polygon fill="#63b8ff" stroke="#63b8ff" points="962.78,-312.09 952.21,-311.41 960.05,-318.54 962.78,-312.09"/>
</g>
<!-- Node27 -->
<g id="node27" class="node">
<title>Node27</title>
<g id="a_node27"><a xlink:title=" ">
<polygon fill="#e0e0e0" stroke="#999999" points="1229,-310.5 1175,-310.5 1175,-291.5 1229,-291.5 1229,-310.5"/>
<text text-anchor="middle" x="1202" y="-298.5" font-family="Helvetica,sans-Serif" font-size="10.00">iostream</text>
</a>
</g>
</g>
<!-- Node23&#45;&gt;Node27 -->
<g id="edge44" class="edge">
<title>Node23&#45;&gt;Node27</title>
<path fill="none" stroke="#63b8ff" d="M1097.82,-357.1C1117.87,-346.5 1151.62,-328.65 1175.26,-316.15"/>
<polygon fill="#63b8ff" stroke="#63b8ff" points="1176.78,-319.3 1183.98,-311.53 1173.5,-313.11 1176.78,-319.3"/>
</g>
<!-- Node26&#45;&gt;Node3 -->
<g id="edge40" class="edge">
<title>Node26&#45;&gt;Node3</title>
<path fill="none" stroke="#63b8ff" d="M909.65,-291.12C887.61,-281.49 852.21,-266.04 826.77,-254.93"/>
<polygon fill="#63b8ff" stroke="#63b8ff" points="828.5,-251.87 817.93,-251.07 825.69,-258.28 828.5,-251.87"/>
</g>
<!-- Node26&#45;&gt;Node4 -->
<g id="edge41" class="edge">
<title>Node26&#45;&gt;Node4</title>
<path fill="none" stroke="#63b8ff" d="M937.23,-291.37C944.4,-282.81 955.57,-269.47 964.56,-258.74"/>
<polygon fill="#63b8ff" stroke="#63b8ff" points="967.03,-261.24 970.77,-251.33 961.66,-256.75 967.03,-261.24"/>
</g>
<!-- Node26&#45;&gt;Node7 -->
<g id="edge42" class="edge">
<title>Node26&#45;&gt;Node7</title>
<path fill="none" stroke="#63b8ff" d="M897.3,-291.05C890.91,-289.34 884.25,-287.59 878,-286 827.09,-273.03 768.03,-259 730.6,-250.23"/>
<polygon fill="#63b8ff" stroke="#63b8ff" points="731.72,-246.9 721.18,-248.03 730.12,-253.71 731.72,-246.9"/>
</g>
<!-- Node26&#45;&gt;Node8 -->
<g id="edge43" class="edge">
<title>Node26&#45;&gt;Node8</title>
<path fill="none" stroke="#63b8ff" d="M919.32,-291.19C902.54,-277.53 868.73,-250.77 838,-231 740.89,-168.52 618.34,-106.35 563.64,-79.41"/>
<polygon fill="#63b8ff" stroke="#63b8ff" points="565.51,-76.43 554.99,-75.17 562.42,-82.71 565.51,-76.43"/>
</g>
</g>
</svg>
        <g id="navigator" transform="translate(0 0)" fill="#404254">
                <rect fill="#f2f5e9" fill-opacity="0.5" stroke="#606060" stroke-width=".5" x="0" y="0" width="60" height="60"/>
                <use id="zoomplus" xlink:href="#zoomPlus" x="17" y="9" onmousedown="handleZoom(evt,'in')"/>
                <use id="zoomminus" xlink:href="#zoomMin" x="42" y="9" onmousedown="handleZoom(evt,'out')"/>
                <use id="reset" xlink:href="#resetDef" x="30" y="36" onmousedown="handleReset()"/>
                <g id="arrowUp" xlink:href="#dirArrow" transform="translate(30 24)" onmousedown="handlePan(0,-1)">
                  <use xlink:href="#rim" fill="#404040">
                        <set attributeName="fill" to="#808080" begin="arrowUp.mouseover" end="arrowUp.mouseout"/>
                  </use>
                  <path fill="none" stroke="white" stroke-width="1.5" d="M0,-3.0v7 M-2.5,-0.5L0,-3.0L2.5,-0.5"/>
                </g>
                <g id="arrowRight" xlink:href="#dirArrow" transform="rotate(90) translate(36 -43)" onmousedown="handlePan(1,0)">
                  <use xlink:href="#rim" fill="#404040">
                        <set attributeName="fill" to="#808080" begin="arrowRight.mouseover" end="arrowRight.mouseout"/>
                  </use>
                  <path fill="none" stroke="white" stroke-width="1.5" d="M0,-3.0v7 M-2.5,-0.5L0,-3.0L2.5,-0.5"/>
                </g>
                <g id="arrowDown" xlink:href="#dirArrow" transform="rotate(180) translate(-30 -48)" onmousedown="handlePan(0,1)">
                  <use xlink:href="#rim" fill="#404040">
                        <set attributeName="fill" to="#808080" begin="arrowDown.mouseover" end="arrowDown.mouseout"/>
                  </use>
                  <path fill="none" stroke="white" stroke-width="1.5" d="M0,-3.0v7 M-2.5,-0.5L0,-3.0L2.5,-0.5"/>
                </g>
                <g id="arrowLeft" xlink:href="#dirArrow" transform="rotate(270) translate(-36 17)" onmousedown="handlePan(-1,0)">
                  <use xlink:href="#rim" fill="#404040">
                        <set attributeName="fill" to="#808080" begin="arrowLeft.mouseover" end="arrowLeft.mouseout"/>
                  </use>
                  <path fill="none" stroke="white" stroke-width="1.5" d="M0,-3.0v7 M-2.5,-0.5L0,-3.0L2.5,-0.5"/>
                </g>
        </g>
        <svg viewBox="0 0 15 15" width="100%" height="30px" preserveAspectRatio="xMaxYMin meet">
         <g id="arrow_out" transform="scale(0.3 0.3)">
          <a xlink:href="trie__storage__backend__impl_8hpp__incl_org.svg" target="_base">
           <rect id="button" ry="5" rx="5" y="6" x="6" height="38" width="38"
                fill="#f2f5e9" fill-opacity="0.5" stroke="#606060" stroke-width="1.0"/>
           <path id="arrow"
             d="M 11.500037,31.436501 C 11.940474,20.09759 22.043105,11.32322 32.158766,21.979434 L 37.068811,17.246167 C 37.068811,17.246167 37.088388,32 37.088388,32 L 22.160133,31.978069 C 22.160133,31.978069 26.997745,27.140456 26.997745,27.140456 C 18.528582,18.264221 13.291696,25.230495 11.500037,31.436501 z"
             style="fill:#404040;"/>
          </a>
         </g>
        </svg>
</svg>
