<?xml version="1.0" encoding="UTF-8" standalone="no"?>
<!DOCTYPE svg PUBLIC "-//W3C//DTD SVG 1.1//EN"
 "http://www.w3.org/Graphics/SVG/1.1/DTD/svg11.dtd">
<!-- Generated by graphviz version 7.0.5 (20221223.1930)
 -->
<!-- Title: src/api/service/state/requests/unsubscribe_storage.hpp Pages: 1 -->
<svg width="268pt" height="126pt"
 viewBox="0.00 0.00 267.50 126.00" xmlns="http://www.w3.org/2000/svg" xmlns:xlink="http://www.w3.org/1999/xlink">
<g id="graph0" class="graph" transform="scale(1 1) rotate(0) translate(4 122)">
<title>src/api/service/state/requests/unsubscribe_storage.hpp</title>
<!-- Node1 -->
<g id="node1" class="node">
<title>Node1</title>
<g id="a_node1"><a xlink:title=" ">
<polygon fill="#999999" stroke="#666666" points="182,-118 69,-118 69,-77 182,-77 182,-118"/>
<text text-anchor="start" x="77" y="-106" font-family="Helvetica,sans-Serif" font-size="10.00">src/api/service/state</text>
<text text-anchor="start" x="77" y="-95" font-family="Helvetica,sans-Serif" font-size="10.00">/requests/unsubscribe</text>
<text text-anchor="middle" x="125.5" y="-84" font-family="Helvetica,sans-Serif" font-size="10.00">_storage.hpp</text>
</a>
</g>
</g>
<!-- Node2 -->
<g id="node2" class="node">
<title>Node2</title>
<g id="a_node2"><a xlink:href="unsubscribe__storage_8cpp.html" target="_top" xlink:title=" ">
<polygon fill="white" stroke="#666666" points="113,-41 0,-41 0,0 113,0 113,-41"/>
<text text-anchor="start" x="8" y="-29" font-family="Helvetica,sans-Serif" font-size="10.00">src/api/service/state</text>
<text text-anchor="start" x="8" y="-18" font-family="Helvetica,sans-Serif" font-size="10.00">/requests/unsubscribe</text>
<text text-anchor="middle" x="56.5" y="-7" font-family="Helvetica,sans-Serif" font-size="10.00">_storage.cpp</text>
</a>
</g>
</g>
<!-- Node1&#45;&gt;Node2 -->
<g id="edge1" class="edge">
<title>Node1&#45;&gt;Node2</title>
<path fill="none" stroke="#63b8ff" d="M99.7,-68.46C91.4,-59.44 82.39,-49.64 74.75,-41.33"/>
<polygon fill="#63b8ff" stroke="#63b8ff" points="97,-70.69 106.35,-75.68 102.15,-65.95 97,-70.69"/>
</g>
<!-- Node3 -->
<g id="node3" class="node">
<title>Node3</title>
<g id="a_node3"><a xlink:href="state__jrpc__processor_8cpp.html" target="_top" xlink:title=" ">
<polygon fill="white" stroke="#666666" points="259.5,-35.5 131.5,-35.5 131.5,-5.5 259.5,-5.5 259.5,-35.5"/>
<text text-anchor="start" x="139.5" y="-23.5" font-family="Helvetica,sans-Serif" font-size="10.00">src/api/service/state</text>
<text text-anchor="middle" x="195.5" y="-12.5" font-family="Helvetica,sans-Serif" font-size="10.00">/state_jrpc_processor.cpp</text>
</a>
</g>
</g>
<!-- Node1&#45;&gt;Node3 -->
<g id="edge2" class="edge">
<title>Node1&#45;&gt;Node3</title>
<path fill="none" stroke="#63b8ff" d="M151.55,-68.59C161.94,-57.46 173.46,-45.12 182.1,-35.86"/>
<polygon fill="#63b8ff" stroke="#63b8ff" points="149.19,-65.99 144.92,-75.69 154.31,-70.77 149.19,-65.99"/>
</g>
</g>
</svg>
