<?xml version="1.0" encoding="UTF-8" standalone="no"?>
<!DOCTYPE svg PUBLIC "-//W3C//DTD SVG 1.1//EN"
 "http://www.w3.org/Graphics/SVG/1.1/DTD/svg11.dtd">
<!-- Generated by graphviz version 7.0.5 (20221223.1930)
 -->
<!-- Title: src/api/service/state/requests/unsubscribe_storage.cpp Pages: 1 -->
<svg width="2498pt" height="599pt"
 viewBox="0.00 0.00 2498.00 599.00" xmlns="http://www.w3.org/2000/svg" xmlns:xlink="http://www.w3.org/1999/xlink">
<g id="graph0" class="graph" transform="scale(1 1) rotate(0) translate(4 595)">
<title>src/api/service/state/requests/unsubscribe_storage.cpp</title>
<!-- Node1 -->
<g id="node1" class="node">
<title>Node1</title>
<g id="a_node1"><a xlink:title=" ">
<polygon fill="#999999" stroke="#666666" points="1882,-591 1769,-591 1769,-550 1882,-550 1882,-591"/>
<text text-anchor="start" x="1777" y="-579" font-family="Helvetica,sans-Serif" font-size="10.00">src/api/service/state</text>
<text text-anchor="start" x="1777" y="-568" font-family="Helvetica,sans-Serif" font-size="10.00">/requests/unsubscribe</text>
<text text-anchor="middle" x="1825.5" y="-557" font-family="Helvetica,sans-Serif" font-size="10.00">_storage.cpp</text>
</a>
</g>
</g>
<!-- Node2 -->
<g id="node2" class="node">
<title>Node2</title>
<g id="a_node2"><a xlink:href="unsubscribe__storage_8hpp.html" target="_top" xlink:title=" ">
<polygon fill="white" stroke="#666666" points="1890,-514 1761,-514 1761,-484 1890,-484 1890,-514"/>
<text text-anchor="start" x="1769" y="-502" font-family="Helvetica,sans-Serif" font-size="10.00">api/service/state/requests</text>
<text text-anchor="middle" x="1825.5" y="-491" font-family="Helvetica,sans-Serif" font-size="10.00">/unsubscribe_storage.hpp</text>
</a>
</g>
</g>
<!-- Node1&#45;&gt;Node2 -->
<g id="edge1" class="edge">
<title>Node1&#45;&gt;Node2</title>
<path fill="none" stroke="#63b8ff" d="M1825.5,-549.77C1825.5,-542.31 1825.5,-533.7 1825.5,-525.77"/>
<polygon fill="#63b8ff" stroke="#63b8ff" points="1829,-525.99 1825.5,-515.99 1822,-525.99 1829,-525.99"/>
</g>
<!-- Node3 -->
<g id="node3" class="node">
<title>Node3</title>
<g id="a_node3"><a xlink:title=" ">
<polygon fill="#e0e0e0" stroke="#999999" points="1655.5,-442.5 1543.5,-442.5 1543.5,-423.5 1655.5,-423.5 1655.5,-442.5"/>
<text text-anchor="middle" x="1599.5" y="-430.5" font-family="Helvetica,sans-Serif" font-size="10.00">jsonrpc&#45;lean/request.h</text>
</a>
</g>
</g>
<!-- Node2&#45;&gt;Node3 -->
<g id="edge2" class="edge">
<title>Node2&#45;&gt;Node3</title>
<path fill="none" stroke="#63b8ff" d="M1774.5,-483.56C1734.45,-472.22 1679.35,-456.61 1641.74,-445.96"/>
<polygon fill="#63b8ff" stroke="#63b8ff" points="1643.18,-442.73 1632.61,-443.38 1641.27,-449.47 1643.18,-442.73"/>
</g>
<!-- Node4 -->
<g id="node4" class="node">
<title>Node4</title>
<g id="a_node4"><a xlink:title=" ">
<polygon fill="#e0e0e0" stroke="#999999" points="95,-382 0,-382 0,-363 95,-363 95,-382"/>
<text text-anchor="middle" x="47.5" y="-370" font-family="Helvetica,sans-Serif" font-size="10.00">boost/optional.hpp</text>
</a>
</g>
</g>
<!-- Node2&#45;&gt;Node4 -->
<g id="edge3" class="edge">
<title>Node2&#45;&gt;Node4</title>
<path fill="none" stroke="#63b8ff" d="M1782.41,-483.55C1758.44,-474.73 1728.5,-462.39 1703.5,-448 1684.55,-437.09 1685.12,-425.28 1664.5,-418 1501.54,-360.46 281.78,-395.76 109.5,-382 108.48,-381.92 107.45,-381.83 106.42,-381.74"/>
<polygon fill="#63b8ff" stroke="#63b8ff" points="106.98,-378.28 96.67,-380.74 106.27,-385.24 106.98,-378.28"/>
</g>
<!-- Node5 -->
<g id="node5" class="node">
<title>Node5</title>
<g id="a_node5"><a xlink:href="state__api_8hpp.html" target="_top" xlink:title=" ">
<polygon fill="white" stroke="#666666" points="1825,-448 1712,-448 1712,-418 1825,-418 1825,-448"/>
<text text-anchor="start" x="1720" y="-436" font-family="Helvetica,sans-Serif" font-size="10.00">api/service/state/state</text>
<text text-anchor="middle" x="1768.5" y="-425" font-family="Helvetica,sans-Serif" font-size="10.00">_api.hpp</text>
</a>
</g>
</g>
<!-- Node2&#45;&gt;Node5 -->
<g id="edge4" class="edge">
<title>Node2&#45;&gt;Node5</title>
<path fill="none" stroke="#63b8ff" d="M1812.85,-483.8C1805.77,-475.84 1796.77,-465.74 1788.73,-456.71"/>
<polygon fill="#63b8ff" stroke="#63b8ff" points="1791.39,-454.43 1782.12,-449.29 1786.16,-459.09 1791.39,-454.43"/>
</g>
<!-- Node27 -->
<g id="node20" class="node">
<title>Node27</title>
<g id="a_node20"><a xlink:href="outcome_8hpp.html" target="_top" xlink:title=" ">
<polygon fill="white" stroke="#666666" points="1849,-74 1736,-74 1736,-55 1849,-55 1849,-74"/>
<text text-anchor="middle" x="1792.5" y="-62" font-family="Helvetica,sans-Serif" font-size="10.00">outcome/outcome.hpp</text>
</a>
</g>
</g>
<!-- Node2&#45;&gt;Node27 -->
<g id="edge73" class="edge">
<title>Node2&#45;&gt;Node27</title>
<path fill="none" stroke="#63b8ff" d="M1890.48,-495.61C2027.29,-488.8 2332.5,-463.51 2332.5,-373.5 2332.5,-373.5 2332.5,-373.5 2332.5,-311 2332.5,-274.46 2340.62,-255.5 2313.5,-231 2268.25,-190.13 2100.85,-208.98 2041.5,-195 1953.67,-174.31 1924.72,-178.84 1849.5,-129 1831.22,-116.88 1815.01,-97.54 1804.6,-83.38"/>
<polygon fill="#63b8ff" stroke="#63b8ff" points="1807.6,-81.56 1798.97,-75.41 1801.88,-85.59 1807.6,-81.56"/>
</g>
<!-- Node38 -->
<g id="node31" class="node">
<title>Node38</title>
<g id="a_node31"><a xlink:href="buffer_8hpp.html" target="_top" xlink:title=" ">
<polygon fill="white" stroke="#666666" points="1910,-321.5 1827,-321.5 1827,-302.5 1910,-302.5 1910,-321.5"/>
<text text-anchor="middle" x="1868.5" y="-309.5" font-family="Helvetica,sans-Serif" font-size="10.00">base/buffer.hpp</text>
</a>
</g>
</g>
<!-- Node2&#45;&gt;Node38 -->
<g id="edge72" class="edge">
<title>Node2&#45;&gt;Node38</title>
<path fill="none" stroke="#63b8ff" d="M1828.8,-483.79C1836.4,-451.1 1855.13,-370.51 1863.87,-332.91"/>
<polygon fill="#63b8ff" stroke="#63b8ff" points="1867.22,-333.95 1866.08,-323.41 1860.41,-332.36 1867.22,-333.95"/>
</g>
<!-- Node58 -->
<g id="node49" class="node">
<title>Node58</title>
<g id="a_node49"><a xlink:href="block__id_8hpp.html" target="_top" xlink:title=" ">
<polygon fill="white" stroke="#666666" points="2476.5,-382 2360.5,-382 2360.5,-363 2476.5,-363 2476.5,-382"/>
<text text-anchor="middle" x="2418.5" y="-370" font-family="Helvetica,sans-Serif" font-size="10.00">primitives/block_id.hpp</text>
</a>
</g>
</g>
<!-- Node2&#45;&gt;Node58 -->
<g id="edge74" class="edge">
<title>Node2&#45;&gt;Node58</title>
<path fill="none" stroke="#63b8ff" d="M1890.28,-497.32C2011.5,-495.15 2267.51,-486.07 2346.5,-448 2372.51,-435.47 2394.2,-409.37 2406.77,-391.64"/>
<polygon fill="#63b8ff" stroke="#63b8ff" points="2409.52,-393.82 2412.23,-383.58 2403.73,-389.9 2409.52,-393.82"/>
</g>
<!-- Node5&#45;&gt;Node4 -->
<g id="edge5" class="edge">
<title>Node5&#45;&gt;Node4</title>
<path fill="none" stroke="#63b8ff" d="M1711.67,-419.9C1706.89,-419.16 1702.12,-418.5 1697.5,-418 995.71,-341.43 813.23,-438.03 109.5,-382 108.48,-381.92 107.45,-381.83 106.42,-381.74"/>
<polygon fill="#63b8ff" stroke="#63b8ff" points="106.98,-378.28 96.67,-380.74 106.27,-385.24 106.98,-378.28"/>
</g>
<!-- Node6 -->
<g id="node6" class="node">
<title>Node6</title>
<g id="a_node6"><a xlink:href="api__service_8hpp.html" target="_top" xlink:title=" ">
<polygon fill="white" stroke="#666666" points="1049.5,-382 915.5,-382 915.5,-363 1049.5,-363 1049.5,-382"/>
<text text-anchor="middle" x="982.5" y="-370" font-family="Helvetica,sans-Serif" font-size="10.00">api/service/api_service.hpp</text>
</a>
</g>
</g>
<!-- Node5&#45;&gt;Node6 -->
<g id="edge6" class="edge">
<title>Node5&#45;&gt;Node6</title>
<path fill="none" stroke="#63b8ff" d="M1711.64,-420.1C1706.87,-419.31 1702.11,-418.6 1697.5,-418 1467.38,-388.28 1192.93,-378.25 1060.98,-374.99"/>
<polygon fill="#63b8ff" stroke="#63b8ff" points="1061.41,-371.5 1051.33,-374.76 1061.24,-378.49 1061.41,-371.5"/>
</g>
<!-- Node5&#45;&gt;Node27 -->
<g id="edge66" class="edge">
<title>Node5&#45;&gt;Node27</title>
<path fill="none" stroke="#63b8ff" d="M1765.73,-417.78C1761.65,-395.52 1754.5,-351.07 1754.5,-313 1754.5,-313 1754.5,-313 1754.5,-179 1754.5,-144.14 1770.82,-106.23 1782.07,-84.23"/>
<polygon fill="#63b8ff" stroke="#63b8ff" points="1785.04,-86.09 1786.66,-75.62 1778.87,-82.8 1785.04,-86.09"/>
</g>
<!-- Node5&#45;&gt;Node38 -->
<g id="edge65" class="edge">
<title>Node5&#45;&gt;Node38</title>
<path fill="none" stroke="#63b8ff" d="M1777.29,-417.66C1786.38,-403.27 1801.34,-380.76 1816.5,-363 1826.81,-350.92 1839.67,-338.53 1850.02,-329.11"/>
<polygon fill="#63b8ff" stroke="#63b8ff" points="1852.09,-331.96 1857.22,-322.69 1847.43,-326.74 1852.09,-331.96"/>
</g>
<!-- Node44 -->
<g id="node37" class="node">
<title>Node44</title>
<g id="a_node37"><a xlink:href="src_2primitives_2common_8hpp.html" target="_top" xlink:title=" ">
<polygon fill="white" stroke="#666666" points="2193,-321.5 2076,-321.5 2076,-302.5 2193,-302.5 2193,-321.5"/>
<text text-anchor="middle" x="2134.5" y="-309.5" font-family="Helvetica,sans-Serif" font-size="10.00">primitives/common.hpp</text>
</a>
</g>
</g>
<!-- Node5&#45;&gt;Node44 -->
<g id="edge67" class="edge">
<title>Node5&#45;&gt;Node44</title>
<path fill="none" stroke="#63b8ff" d="M1813.01,-417.53C1885.56,-393.94 2028.03,-347.62 2096.28,-325.43"/>
<polygon fill="#63b8ff" stroke="#63b8ff" points="2097.1,-328.84 2105.52,-322.42 2094.93,-322.18 2097.1,-328.84"/>
</g>
<!-- Node56 -->
<g id="node47" class="node">
<title>Node56</title>
<g id="a_node47"><a xlink:href="primitives_2version_8hpp.html" target="_top" xlink:title=" ">
<polygon fill="white" stroke="#666666" points="269,-189.5 158,-189.5 158,-170.5 269,-170.5 269,-189.5"/>
<text text-anchor="middle" x="213.5" y="-177.5" font-family="Helvetica,sans-Serif" font-size="10.00">primitives/version.hpp</text>
</a>
</g>
</g>
<!-- Node5&#45;&gt;Node56 -->
<g id="edge68" class="edge">
<title>Node5&#45;&gt;Node56</title>
<path fill="none" stroke="#63b8ff" d="M1711.65,-420.02C1706.88,-419.25 1702.12,-418.56 1697.5,-418 1366.4,-378.05 497.14,-477.46 199.5,-327 155.22,-304.61 119.65,-275.04 142.5,-231 150.74,-215.13 166.59,-203.23 181.22,-195.03"/>
<polygon fill="#63b8ff" stroke="#63b8ff" points="182.44,-198.34 189.71,-190.64 179.22,-192.12 182.44,-198.34"/>
</g>
<!-- Node7 -->
<g id="node7" class="node">
<title>Node7</title>
<g id="a_node7"><a xlink:title=" ">
<polygon fill="#e0e0e0" stroke="#999999" points="516,-189.5 457,-189.5 457,-170.5 516,-170.5 516,-189.5"/>
<text text-anchor="middle" x="486.5" y="-177.5" font-family="Helvetica,sans-Serif" font-size="10.00">functional</text>
</a>
</g>
</g>
<!-- Node6&#45;&gt;Node7 -->
<g id="edge7" class="edge">
<title>Node6&#45;&gt;Node7</title>
<path fill="none" stroke="#63b8ff" d="M915.45,-366.32C794.82,-355.45 548.95,-325.74 497.5,-261 484.09,-244.13 482.82,-218.68 483.94,-201.03"/>
<polygon fill="#63b8ff" stroke="#63b8ff" points="487.4,-201.6 484.9,-191.31 480.44,-200.92 487.4,-201.6"/>
</g>
<!-- Node8 -->
<g id="node8" class="node">
<title>Node8</title>
<g id="a_node8"><a xlink:title=" ">
<polygon fill="#e0e0e0" stroke="#999999" points="195,-255.5 152,-255.5 152,-236.5 195,-236.5 195,-255.5"/>
<text text-anchor="middle" x="173.5" y="-243.5" font-family="Helvetica,sans-Serif" font-size="10.00">mutex</text>
</a>
</g>
</g>
<!-- Node6&#45;&gt;Node8 -->
<g id="edge8" class="edge">
<title>Node6&#45;&gt;Node8</title>
<path fill="none" stroke="#63b8ff" d="M915.23,-370.65C742.86,-368.02 294.71,-358.24 235.5,-327 210.29,-313.7 192.13,-285.12 182.21,-265.98"/>
<polygon fill="#63b8ff" stroke="#63b8ff" points="185.41,-264.56 177.88,-257.1 179.12,-267.62 185.41,-264.56"/>
</g>
<!-- Node9 -->
<g id="node9" class="node">
<title>Node9</title>
<g id="a_node9"><a xlink:title=" ">
<polygon fill="#e0e0e0" stroke="#999999" points="439,-189.5 356,-189.5 356,-170.5 439,-170.5 439,-189.5"/>
<text text-anchor="middle" x="397.5" y="-177.5" font-family="Helvetica,sans-Serif" font-size="10.00">unordered_map</text>
</a>
</g>
</g>
<!-- Node6&#45;&gt;Node9 -->
<g id="edge9" class="edge">
<title>Node6&#45;&gt;Node9</title>
<path fill="none" stroke="#63b8ff" d="M915.1,-369.93C809.85,-366.6 611.94,-356.51 548.5,-327 485.55,-297.72 432.71,-231.23 409.76,-199.08"/>
<polygon fill="#63b8ff" stroke="#63b8ff" points="412.85,-197.38 404.26,-191.18 407.1,-201.39 412.85,-197.38"/>
</g>
<!-- Node10 -->
<g id="node10" class="node">
<title>Node10</title>
<g id="a_node10"><a xlink:href="jrpc__server__impl_8hpp.html" target="_top" xlink:title=" ">
<polygon fill="white" stroke="#666666" points="778,-327 679,-327 679,-297 778,-297 778,-327"/>
<text text-anchor="start" x="687" y="-315" font-family="Helvetica,sans-Serif" font-size="10.00">api/jrpc/jrpc_server</text>
<text text-anchor="middle" x="728.5" y="-304" font-family="Helvetica,sans-Serif" font-size="10.00">_impl.hpp</text>
</a>
</g>
</g>
<!-- Node6&#45;&gt;Node10 -->
<g id="edge10" class="edge">
<title>Node6&#45;&gt;Node10</title>
<path fill="none" stroke="#63b8ff" d="M943.65,-362.55C902.6,-353.1 837.33,-338.07 789.43,-327.03"/>
<polygon fill="#63b8ff" stroke="#63b8ff" points="790.27,-323.64 779.74,-324.8 788.7,-330.46 790.27,-323.64"/>
</g>
<!-- Node16 -->
<g id="node15" class="node">
<title>Node16</title>
<g id="a_node15"><a xlink:href="listener_8hpp.html" target="_top" xlink:title=" ">
<polygon fill="white" stroke="#666666" points="1013,-321.5 890,-321.5 890,-302.5 1013,-302.5 1013,-321.5"/>
<text text-anchor="middle" x="951.5" y="-309.5" font-family="Helvetica,sans-Serif" font-size="10.00">api/transport/listener.hpp</text>
</a>
</g>
</g>
<!-- Node6&#45;&gt;Node16 -->
<g id="edge16" class="edge">
<title>Node6&#45;&gt;Node16</title>
<path fill="none" stroke="#63b8ff" d="M977.93,-362.87C973.58,-354.66 966.89,-342.04 961.33,-331.55"/>
<polygon fill="#63b8ff" stroke="#63b8ff" points="964.58,-330.2 956.8,-323 958.39,-333.48 964.58,-330.2"/>
</g>
<!-- Node29 -->
<g id="node22" class="node">
<title>Node29</title>
<g id="a_node22"><a xlink:href="rpc__thread__pool_8hpp.html" target="_top" xlink:title=" ">
<polygon fill="white" stroke="#666666" points="1331,-327 1212,-327 1212,-297 1331,-297 1331,-327"/>
<text text-anchor="start" x="1220" y="-315" font-family="Helvetica,sans-Serif" font-size="10.00">api/transport/rpc_thread</text>
<text text-anchor="middle" x="1271.5" y="-304" font-family="Helvetica,sans-Serif" font-size="10.00">_pool.hpp</text>
</a>
</g>
</g>
<!-- Node6&#45;&gt;Node29 -->
<g id="edge25" class="edge">
<title>Node6&#45;&gt;Node29</title>
<path fill="none" stroke="#63b8ff" d="M1026.71,-362.55C1073.01,-353.18 1146.42,-338.32 1200.79,-327.31"/>
<polygon fill="#63b8ff" stroke="#63b8ff" points="1201.15,-330.81 1210.25,-325.4 1199.76,-323.95 1201.15,-330.81"/>
</g>
<!-- Node34 -->
<g id="node27" class="node">
<title>Node34</title>
<g id="a_node27"><a xlink:href="app__state__manager_8hpp.html" target="_top" xlink:title=" ">
<polygon fill="white" stroke="#666666" points="1173,-261 1064,-261 1064,-231 1173,-231 1173,-261"/>
<text text-anchor="start" x="1072" y="-249" font-family="Helvetica,sans-Serif" font-size="10.00">application/app_state</text>
<text text-anchor="middle" x="1118.5" y="-238" font-family="Helvetica,sans-Serif" font-size="10.00">_manager.hpp</text>
</a>
</g>
</g>
<!-- Node6&#45;&gt;Node34 -->
<g id="edge36" class="edge">
<title>Node6&#45;&gt;Node34</title>
<path fill="none" stroke="#63b8ff" d="M992.28,-362.55C1013.46,-343.16 1064.08,-296.82 1094.39,-269.07"/>
<polygon fill="#63b8ff" stroke="#63b8ff" points="1096.59,-271.8 1101.6,-262.47 1091.86,-266.64 1096.59,-271.8"/>
</g>
<!-- Node35 -->
<g id="node28" class="node">
<title>Node35</title>
<g id="a_node28"><a xlink:href="logger_8hpp.html" target="_top" xlink:title=" ">
<polygon fill="white" stroke="#666666" points="1648,-189.5 1563,-189.5 1563,-170.5 1648,-170.5 1648,-189.5"/>
<text text-anchor="middle" x="1605.5" y="-177.5" font-family="Helvetica,sans-Serif" font-size="10.00">base/logger.hpp</text>
</a>
</g>
</g>
<!-- Node6&#45;&gt;Node35 -->
<g id="edge44" class="edge">
<title>Node6&#45;&gt;Node35</title>
<path fill="none" stroke="#63b8ff" d="M1049.98,-370.93C1202.42,-368.03 1565.79,-351.57 1638.5,-261 1653.58,-242.22 1636.83,-215.59 1622.2,-198.3"/>
<polygon fill="#63b8ff" stroke="#63b8ff" points="1624.82,-195.98 1615.53,-190.9 1619.62,-200.67 1624.82,-195.98"/>
</g>
<!-- Node6&#45;&gt;Node38 -->
<g id="edge37" class="edge">
<title>Node6&#45;&gt;Node38</title>
<path fill="none" stroke="#63b8ff" d="M1049.58,-367.67C1175.59,-360.4 1456.27,-343.8 1692.5,-327 1733.7,-324.07 1780.3,-320.35 1815.19,-317.47"/>
<polygon fill="#63b8ff" stroke="#63b8ff" points="1815.37,-320.97 1825.04,-316.66 1814.79,-314 1815.37,-320.97"/>
</g>
<!-- Node6&#45;&gt;Node44 -->
<g id="edge45" class="edge">
<title>Node6&#45;&gt;Node44</title>
<path fill="none" stroke="#63b8ff" d="M1049.84,-368.71C1203.87,-362.23 1593.69,-345.34 1919.5,-327 1967.91,-324.27 2022.41,-320.72 2064.43,-317.87"/>
<polygon fill="#63b8ff" stroke="#63b8ff" points="2064.41,-321.38 2074.15,-317.21 2063.93,-314.4 2064.41,-321.38"/>
</g>
<!-- Node52 -->
<g id="node45" class="node">
<title>Node52</title>
<g id="a_node45"><a xlink:href="subscriber_8hpp.html" target="_top" xlink:title=" ">
<polygon fill="white" stroke="#666666" points="380,-321.5 245,-321.5 245,-302.5 380,-302.5 380,-321.5"/>
<text text-anchor="middle" x="312.5" y="-309.5" font-family="Helvetica,sans-Serif" font-size="10.00">subscription/subscriber.hpp</text>
</a>
</g>
</g>
<!-- Node6&#45;&gt;Node52 -->
<g id="edge58" class="edge">
<title>Node6&#45;&gt;Node52</title>
<path fill="none" stroke="#63b8ff" d="M915.11,-367.07C810.28,-359.96 601.87,-344.96 425.5,-327 414.51,-325.88 402.94,-324.58 391.55,-323.24"/>
<polygon fill="#63b8ff" stroke="#63b8ff" points="392.11,-319.78 381.77,-322.06 391.28,-326.73 392.11,-319.78"/>
</g>
<!-- Node11 -->
<g id="node11" class="node">
<title>Node11</title>
<g id="a_node11"><a xlink:title=" ">
<polygon fill="#e0e0e0" stroke="#999999" points="613,-255.5 506,-255.5 506,-236.5 613,-236.5 613,-255.5"/>
<text text-anchor="middle" x="559.5" y="-243.5" font-family="Helvetica,sans-Serif" font-size="10.00">jsonrpc&#45;lean/server.h</text>
</a>
</g>
</g>
<!-- Node10&#45;&gt;Node11 -->
<g id="edge11" class="edge">
<title>Node10&#45;&gt;Node11</title>
<path fill="none" stroke="#63b8ff" d="M690.57,-296.64C661.53,-285.64 621.82,-270.6 593.74,-259.97"/>
<polygon fill="#63b8ff" stroke="#63b8ff" points="595.24,-256.79 584.64,-256.52 592.76,-263.34 595.24,-256.79"/>
</g>
<!-- Node12 -->
<g id="node12" class="node">
<title>Node12</title>
<g id="a_node12"><a xlink:href="jrpc__server_8hpp.html" target="_top" xlink:title=" ">
<polygon fill="#fff0f0" stroke="red" points="787,-255.5 670,-255.5 670,-236.5 787,-236.5 787,-255.5"/>
<text text-anchor="middle" x="728.5" y="-243.5" font-family="Helvetica,sans-Serif" font-size="10.00">api/jrpc/jrpc_server.hpp</text>
</a>
</g>
</g>
<!-- Node10&#45;&gt;Node12 -->
<g id="edge12" class="edge">
<title>Node10&#45;&gt;Node12</title>
<path fill="none" stroke="#63b8ff" d="M728.5,-296.8C728.5,-288.09 728.5,-276.81 728.5,-267.18"/>
<polygon fill="#63b8ff" stroke="#63b8ff" points="732,-267.36 728.5,-257.36 725,-267.36 732,-267.36"/>
</g>
<!-- Node12&#45;&gt;Node7 -->
<g id="edge15" class="edge">
<title>Node12&#45;&gt;Node7</title>
<path fill="none" stroke="#63b8ff" d="M688.19,-236.04C647.41,-226.72 582.69,-211.26 527.5,-195 525.8,-194.5 524.06,-193.97 522.3,-193.42"/>
<polygon fill="#63b8ff" stroke="#63b8ff" points="523.58,-190.16 512.98,-190.4 521.41,-196.81 523.58,-190.16"/>
</g>
<!-- Node13 -->
<g id="node13" class="node">
<title>Node13</title>
<g id="a_node13"><a xlink:title=" ">
<polygon fill="#e0e0e0" stroke="#999999" points="798,-189.5 673,-189.5 673,-170.5 798,-170.5 798,-189.5"/>
<text text-anchor="middle" x="735.5" y="-177.5" font-family="Helvetica,sans-Serif" font-size="10.00">jsonrpc&#45;lean/dispatcher.h</text>
</a>
</g>
</g>
<!-- Node12&#45;&gt;Node13 -->
<g id="edge13" class="edge">
<title>Node12&#45;&gt;Node13</title>
<path fill="none" stroke="#63b8ff" d="M729.47,-236.1C730.46,-227.12 732.01,-212.95 733.29,-201.22"/>
<polygon fill="#63b8ff" stroke="#63b8ff" points="736.76,-201.65 734.37,-191.33 729.8,-200.89 736.76,-201.65"/>
</g>
<!-- Node14 -->
<g id="node14" class="node">
<title>Node14</title>
<g id="a_node14"><a xlink:title=" ">
<polygon fill="#e0e0e0" stroke="#999999" points="655,-189.5 536,-189.5 536,-170.5 655,-170.5 655,-189.5"/>
<text text-anchor="middle" x="595.5" y="-177.5" font-family="Helvetica,sans-Serif" font-size="10.00">jsonrpc&#45;lean/response.h</text>
</a>
</g>
</g>
<!-- Node12&#45;&gt;Node14 -->
<g id="edge14" class="edge">
<title>Node12&#45;&gt;Node14</title>
<path fill="none" stroke="#63b8ff" d="M710.01,-236.1C687.77,-225.4 650.21,-207.33 624.2,-194.81"/>
<polygon fill="#63b8ff" stroke="#63b8ff" points="625.73,-191.66 615.2,-190.48 622.69,-197.97 625.73,-191.66"/>
</g>
<!-- Node17 -->
<g id="node16" class="node">
<title>Node17</title>
<g id="a_node16"><a xlink:title=" ">
<polygon fill="#e0e0e0" stroke="#999999" points="927,-189.5 820,-189.5 820,-170.5 927,-170.5 927,-189.5"/>
<text text-anchor="middle" x="873.5" y="-177.5" font-family="Helvetica,sans-Serif" font-size="10.00">boost/asio/ip/tcp.hpp</text>
</a>
</g>
</g>
<!-- Node16&#45;&gt;Node17 -->
<g id="edge17" class="edge">
<title>Node16&#45;&gt;Node17</title>
<path fill="none" stroke="#63b8ff" d="M899.42,-302.01C875.7,-295.03 849.78,-282.71 835.5,-261 821.97,-240.44 840.22,-214.3 855.8,-197.61"/>
<polygon fill="#63b8ff" stroke="#63b8ff" points="857.9,-200.47 862.45,-190.9 852.93,-195.54 857.9,-200.47"/>
</g>
<!-- Node18 -->
<g id="node17" class="node">
<title>Node18</title>
<g id="a_node17"><a xlink:title=" ">
<polygon fill="#e0e0e0" stroke="#999999" points="338,-189.5 287,-189.5 287,-170.5 338,-170.5 338,-189.5"/>
<text text-anchor="middle" x="312.5" y="-177.5" font-family="Helvetica,sans-Serif" font-size="10.00">memory</text>
</a>
</g>
</g>
<!-- Node16&#45;&gt;Node18 -->
<g id="edge18" class="edge">
<title>Node16&#45;&gt;Node18</title>
<path fill="none" stroke="#63b8ff" d="M889.62,-308.92C829.16,-304.94 735.66,-293.52 661.5,-261 641.47,-252.22 642.7,-239.37 622.5,-231 508.21,-183.66 466.04,-226.82 346.5,-195 345.11,-194.63 343.71,-194.22 342.29,-193.77"/>
<polygon fill="#63b8ff" stroke="#63b8ff" points="343.63,-190.54 333.04,-190.41 341.24,-197.11 343.63,-190.54"/>
</g>
<!-- Node19 -->
<g id="node18" class="node">
<title>Node19</title>
<g id="a_node18"><a xlink:href="rpc__io__context_8hpp.html" target="_top" xlink:title=" ">
<polygon fill="#fff0f0" stroke="red" points="1047.5,-195 947.5,-195 947.5,-165 1047.5,-165 1047.5,-195"/>
<text text-anchor="start" x="955.5" y="-183" font-family="Helvetica,sans-Serif" font-size="10.00">api/transport/rpc_io</text>
<text text-anchor="middle" x="997.5" y="-172" font-family="Helvetica,sans-Serif" font-size="10.00">_context.hpp</text>
</a>
</g>
</g>
<!-- Node16&#45;&gt;Node19 -->
<g id="edge19" class="edge">
<title>Node16&#45;&gt;Node19</title>
<path fill="none" stroke="#63b8ff" d="M957.22,-302.13C963.28,-292.39 972.74,-276.12 978.5,-261 985.27,-243.25 990.13,-222.33 993.24,-206.34"/>
<polygon fill="#63b8ff" stroke="#63b8ff" points="996.65,-207.16 995.01,-196.7 989.77,-205.9 996.65,-207.16"/>
</g>
<!-- Node21 -->
<g id="node19" class="node">
<title>Node21</title>
<g id="a_node19"><a xlink:href="session_8hpp.html" target="_top" xlink:title=" ">
<polygon fill="#fff0f0" stroke="red" points="969,-255.5 844,-255.5 844,-236.5 969,-236.5 969,-255.5"/>
<text text-anchor="middle" x="906.5" y="-243.5" font-family="Helvetica,sans-Serif" font-size="10.00">api/transport/session.hpp</text>
</a>
</g>
</g>
<!-- Node16&#45;&gt;Node21 -->
<g id="edge20" class="edge">
<title>Node16&#45;&gt;Node21</title>
<path fill="none" stroke="#63b8ff" d="M945.24,-302.1C938.53,-292.55 927.67,-277.11 919.16,-265.01"/>
<polygon fill="#63b8ff" stroke="#63b8ff" points="922.19,-263.23 913.57,-257.06 916.46,-267.25 922.19,-263.23"/>
</g>
<!-- Node16&#45;&gt;Node27 -->
<g id="edge23" class="edge">
<title>Node16&#45;&gt;Node27</title>
<path fill="none" stroke="#63b8ff" d="M959.31,-302.19C975.33,-284.83 1013.89,-246.55 1055.5,-231 1181.03,-184.08 1535.6,-250.69 1657.5,-195 1705.53,-173.06 1701.96,-146.09 1740.5,-110 1750.88,-100.28 1762.93,-89.91 1772.81,-81.64"/>
<polygon fill="#63b8ff" stroke="#63b8ff" points="1774.87,-84.48 1780.33,-75.4 1770.4,-79.09 1774.87,-84.48"/>
</g>
<!-- Node21&#45;&gt;Node17 -->
<g id="edge21" class="edge">
<title>Node21&#45;&gt;Node17</title>
<path fill="none" stroke="#63b8ff" d="M901.91,-236.1C897.08,-226.74 889.35,-211.73 883.16,-199.74"/>
<polygon fill="#63b8ff" stroke="#63b8ff" points="886.44,-198.45 878.74,-191.17 880.22,-201.66 886.44,-198.45"/>
</g>
<!-- Node21&#45;&gt;Node19 -->
<g id="edge22" class="edge">
<title>Node21&#45;&gt;Node19</title>
<path fill="none" stroke="#63b8ff" d="M919.15,-236.1C931.65,-227.32 951.21,-213.55 967.66,-201.98"/>
<polygon fill="#63b8ff" stroke="#63b8ff" points="969.51,-204.96 975.68,-196.35 965.48,-199.24 969.51,-204.96"/>
</g>
<!-- Node28 -->
<g id="node21" class="node">
<title>Node28</title>
<g id="a_node21"><a xlink:title=" ">
<polygon fill="#e0e0e0" stroke="#999999" points="1863,-19 1722,-19 1722,0 1863,0 1863,-19"/>
<text text-anchor="middle" x="1792.5" y="-7" font-family="Helvetica,sans-Serif" font-size="10.00">libp2p/outcome/outcome.hpp</text>
</a>
</g>
</g>
<!-- Node27&#45;&gt;Node28 -->
<g id="edge24" class="edge">
<title>Node27&#45;&gt;Node28</title>
<path fill="none" stroke="#63b8ff" d="M1792.5,-54.75C1792.5,-48.27 1792.5,-39.16 1792.5,-30.9"/>
<polygon fill="#63b8ff" stroke="#63b8ff" points="1796,-30.96 1792.5,-20.96 1789,-30.96 1796,-30.96"/>
</g>
<!-- Node29&#45;&gt;Node19 -->
<g id="edge30" class="edge">
<title>Node29&#45;&gt;Node19</title>
<path fill="none" stroke="#63b8ff" d="M1257.31,-296.74C1236.67,-276.25 1199.02,-239.98 1182.5,-231 1144.09,-210.11 1096.37,-197.5 1059.02,-190.16"/>
<polygon fill="#63b8ff" stroke="#63b8ff" points="1059.74,-186.73 1049.26,-188.33 1058.45,-193.61 1059.74,-186.73"/>
</g>
<!-- Node30 -->
<g id="node23" class="node">
<title>Node30</title>
<g id="a_node23"><a xlink:title=" ">
<polygon fill="#e0e0e0" stroke="#999999" points="1467,-255.5 1340,-255.5 1340,-236.5 1467,-236.5 1467,-255.5"/>
<text text-anchor="middle" x="1403.5" y="-243.5" font-family="Helvetica,sans-Serif" font-size="10.00">boost/asio/io_service.hpp</text>
</a>
</g>
</g>
<!-- Node29&#45;&gt;Node30 -->
<g id="edge26" class="edge">
<title>Node29&#45;&gt;Node30</title>
<path fill="none" stroke="#63b8ff" d="M1301.12,-296.64C1323.1,-285.98 1352.91,-271.53 1374.69,-260.97"/>
<polygon fill="#63b8ff" stroke="#63b8ff" points="1376.13,-264.16 1383.6,-256.65 1373.08,-257.86 1376.13,-264.16"/>
</g>
<!-- Node31 -->
<g id="node24" class="node">
<title>Node31</title>
<g id="a_node24"><a xlink:title=" ">
<polygon fill="#e0e0e0" stroke="#999999" points="1612,-255.5 1485,-255.5 1485,-236.5 1612,-236.5 1612,-255.5"/>
<text text-anchor="middle" x="1548.5" y="-243.5" font-family="Helvetica,sans-Serif" font-size="10.00">boost/asio/signal_set.hpp</text>
</a>
</g>
</g>
<!-- Node29&#45;&gt;Node31 -->
<g id="edge27" class="edge">
<title>Node29&#45;&gt;Node31</title>
<path fill="none" stroke="#63b8ff" d="M1331.26,-297.19C1381.22,-285.65 1451.64,-269.38 1498.61,-258.53"/>
<polygon fill="#63b8ff" stroke="#63b8ff" points="1499.3,-261.96 1508.26,-256.3 1497.73,-255.14 1499.3,-261.96"/>
</g>
<!-- Node32 -->
<g id="node25" class="node">
<title>Node32</title>
<g id="a_node25"><a xlink:title=" ">
<polygon fill="#e0e0e0" stroke="#999999" points="1259.5,-255.5 1229.5,-255.5 1229.5,-236.5 1259.5,-236.5 1259.5,-255.5"/>
<text text-anchor="middle" x="1244.5" y="-243.5" font-family="Helvetica,sans-Serif" font-size="10.00">set</text>
</a>
</g>
</g>
<!-- Node29&#45;&gt;Node32 -->
<g id="edge28" class="edge">
<title>Node29&#45;&gt;Node32</title>
<path fill="none" stroke="#63b8ff" d="M1265.51,-296.8C1261.71,-287.8 1256.75,-276.04 1252.61,-266.22"/>
<polygon fill="#63b8ff" stroke="#63b8ff" points="1255.93,-265.09 1248.82,-257.24 1249.48,-267.81 1255.93,-265.09"/>
</g>
<!-- Node33 -->
<g id="node26" class="node">
<title>Node33</title>
<g id="a_node26"><a xlink:title=" ">
<polygon fill="#e0e0e0" stroke="#999999" points="1321.5,-255.5 1277.5,-255.5 1277.5,-236.5 1321.5,-236.5 1321.5,-255.5"/>
<text text-anchor="middle" x="1299.5" y="-243.5" font-family="Helvetica,sans-Serif" font-size="10.00">thread</text>
</a>
</g>
</g>
<!-- Node29&#45;&gt;Node33 -->
<g id="edge29" class="edge">
<title>Node29&#45;&gt;Node33</title>
<path fill="none" stroke="#63b8ff" d="M1277.71,-296.8C1281.65,-287.8 1286.79,-276.04 1291.09,-266.22"/>
<polygon fill="#63b8ff" stroke="#63b8ff" points="1294.22,-267.8 1295.02,-257.23 1287.81,-264.99 1294.22,-267.8"/>
</g>
<!-- Node29&#45;&gt;Node34 -->
<g id="edge31" class="edge">
<title>Node29&#45;&gt;Node34</title>
<path fill="none" stroke="#63b8ff" d="M1237.16,-296.64C1215.39,-287.53 1186.99,-275.65 1163.43,-265.79"/>
<polygon fill="#63b8ff" stroke="#63b8ff" points="1164.96,-262.64 1154.38,-262.01 1162.26,-269.1 1164.96,-262.64"/>
</g>
<!-- Node29&#45;&gt;Node35 -->
<g id="edge35" class="edge">
<title>Node29&#45;&gt;Node35</title>
<path fill="none" stroke="#63b8ff" d="M1331.3,-311.47C1421.22,-310.77 1584.65,-303.49 1621.5,-261 1636.18,-244.08 1626.61,-217.52 1617.15,-199.7"/>
<polygon fill="#63b8ff" stroke="#63b8ff" points="1620.28,-198.12 1612.26,-191.21 1614.22,-201.62 1620.28,-198.12"/>
</g>
<!-- Node34&#45;&gt;Node35 -->
<g id="edge32" class="edge">
<title>Node34&#45;&gt;Node35</title>
<path fill="none" stroke="#63b8ff" d="M1173.28,-237.41C1188.56,-235.31 1205.17,-233.05 1220.5,-231 1338.45,-215.25 1476.83,-197.44 1551.36,-187.91"/>
<polygon fill="#63b8ff" stroke="#63b8ff" points="1551.78,-191.38 1561.26,-186.64 1550.89,-184.44 1551.78,-191.38"/>
</g>
<!-- Node36 -->
<g id="node29" class="node">
<title>Node36</title>
<g id="a_node29"><a xlink:title=" ">
<polygon fill="#e0e0e0" stroke="#999999" points="1650,-129 1561,-129 1561,-110 1650,-110 1650,-129"/>
<text text-anchor="middle" x="1605.5" y="-117" font-family="Helvetica,sans-Serif" font-size="10.00">spdlog/fmt/ostr.h</text>
</a>
</g>
</g>
<!-- Node35&#45;&gt;Node36 -->
<g id="edge33" class="edge">
<title>Node35&#45;&gt;Node36</title>
<path fill="none" stroke="#63b8ff" d="M1605.5,-170.37C1605.5,-162.5 1605.5,-150.6 1605.5,-140.39"/>
<polygon fill="#63b8ff" stroke="#63b8ff" points="1609,-140.68 1605.5,-130.68 1602,-140.68 1609,-140.68"/>
</g>
<!-- Node37 -->
<g id="node30" class="node">
<title>Node37</title>
<g id="a_node30"><a xlink:title=" ">
<polygon fill="#e0e0e0" stroke="#999999" points="1542.5,-129 1458.5,-129 1458.5,-110 1542.5,-110 1542.5,-129"/>
<text text-anchor="middle" x="1500.5" y="-117" font-family="Helvetica,sans-Serif" font-size="10.00">spdlog/spdlog.h</text>
</a>
</g>
</g>
<!-- Node35&#45;&gt;Node37 -->
<g id="edge34" class="edge">
<title>Node35&#45;&gt;Node37</title>
<path fill="none" stroke="#63b8ff" d="M1589.55,-170.12C1572.82,-160.79 1546.27,-146 1526.5,-134.99"/>
<polygon fill="#63b8ff" stroke="#63b8ff" points="1528.36,-132.01 1517.92,-130.21 1524.95,-138.13 1528.36,-132.01"/>
</g>
<!-- Node38&#45;&gt;Node27 -->
<g id="edge43" class="edge">
<title>Node38&#45;&gt;Node27</title>
<path fill="none" stroke="#63b8ff" d="M1876.62,-302.25C1884.73,-292.87 1896.65,-277.14 1901.5,-261 1905.33,-248.23 1906.04,-243.54 1901.5,-231 1881.41,-175.51 1846.23,-179.97 1816.5,-129 1808.4,-115.11 1802.12,-98 1798.02,-85.04"/>
<polygon fill="#63b8ff" stroke="#63b8ff" points="1801.41,-84.16 1795.2,-75.57 1794.7,-86.16 1801.41,-84.16"/>
</g>
<!-- Node39 -->
<g id="node32" class="node">
<title>Node39</title>
<g id="a_node32"><a xlink:title=" ">
<polygon fill="#e0e0e0" stroke="#999999" points="2171.5,-74 2105.5,-74 2105.5,-55 2171.5,-55 2171.5,-74"/>
<text text-anchor="middle" x="2138.5" y="-62" font-family="Helvetica,sans-Serif" font-size="10.00">string_view</text>
</a>
</g>
</g>
<!-- Node38&#45;&gt;Node39 -->
<g id="edge38" class="edge">
<title>Node38&#45;&gt;Node39</title>
<path fill="none" stroke="#63b8ff" d="M1883.63,-302.24C1915.53,-283.86 1988.94,-242.04 2015.5,-231 2105.46,-193.62 2169.97,-218.03 2209.5,-129 2219.06,-107.47 2196,-90.24 2173.66,-79.19"/>
<polygon fill="#63b8ff" stroke="#63b8ff" points="2175.16,-76.03 2164.61,-75.04 2172.24,-82.39 2175.16,-76.03"/>
</g>
<!-- Node40 -->
<g id="node33" class="node">
<title>Node40</title>
<g id="a_node33"><a xlink:title=" ">
<polygon fill="#e0e0e0" stroke="#999999" points="1700.5,-74 1656.5,-74 1656.5,-55 1700.5,-55 1700.5,-74"/>
<text text-anchor="middle" x="1678.5" y="-62" font-family="Helvetica,sans-Serif" font-size="10.00">vector</text>
</a>
</g>
</g>
<!-- Node38&#45;&gt;Node40 -->
<g id="edge39" class="edge">
<title>Node38&#45;&gt;Node40</title>
<path fill="none" stroke="#63b8ff" d="M1841.44,-302.07C1820.67,-294.06 1792.43,-280.55 1773.5,-261 1722.57,-208.41 1694.27,-123.25 1683.56,-85.09"/>
<polygon fill="#63b8ff" stroke="#63b8ff" points="1687.06,-84.66 1681.08,-75.91 1680.31,-86.48 1687.06,-84.66"/>
</g>
<!-- Node41 -->
<g id="node34" class="node">
<title>Node41</title>
<g id="a_node34"><a xlink:title=" ">
<polygon fill="#e0e0e0" stroke="#999999" points="1892.5,-261 1782.5,-261 1782.5,-231 1892.5,-231 1892.5,-261"/>
<text text-anchor="start" x="1790.5" y="-249" font-family="Helvetica,sans-Serif" font-size="10.00">boost/container_hash</text>
<text text-anchor="middle" x="1837.5" y="-238" font-family="Helvetica,sans-Serif" font-size="10.00">/hash.hpp</text>
</a>
</g>
</g>
<!-- Node38&#45;&gt;Node41 -->
<g id="edge40" class="edge">
<title>Node38&#45;&gt;Node41</title>
<path fill="none" stroke="#63b8ff" d="M1864.19,-302.1C1860.35,-294.17 1854.54,-282.18 1849.32,-271.4"/>
<polygon fill="#63b8ff" stroke="#63b8ff" points="1852.56,-270.07 1845.05,-262.6 1846.26,-273.12 1852.56,-270.07"/>
</g>
<!-- Node42 -->
<g id="node35" class="node">
<title>Node42</title>
<g id="a_node35"><a xlink:title=" ">
<polygon fill="#e0e0e0" stroke="#999999" points="2126.5,-255.5 2024.5,-255.5 2024.5,-236.5 2126.5,-236.5 2126.5,-255.5"/>
<text text-anchor="middle" x="2075.5" y="-243.5" font-family="Helvetica,sans-Serif" font-size="10.00">boost/operators.hpp</text>
</a>
</g>
</g>
<!-- Node38&#45;&gt;Node42 -->
<g id="edge41" class="edge">
<title>Node38&#45;&gt;Node42</title>
<path fill="none" stroke="#63b8ff" d="M1897.28,-302.1C1933.33,-290.96 1995.27,-271.81 2035.8,-259.27"/>
<polygon fill="#63b8ff" stroke="#63b8ff" points="2036.66,-262.67 2045.18,-256.37 2034.6,-255.98 2036.66,-262.67"/>
</g>
<!-- Node43 -->
<g id="node36" class="node">
<title>Node43</title>
<g id="a_node36"><a xlink:title=" ">
<polygon fill="#e0e0e0" stroke="#999999" points="1963,-74 1910,-74 1910,-55 1963,-55 1963,-74"/>
<text text-anchor="middle" x="1936.5" y="-62" font-family="Helvetica,sans-Serif" font-size="10.00">gsl/span</text>
</a>
</g>
</g>
<!-- Node38&#45;&gt;Node43 -->
<g id="edge42" class="edge">
<title>Node38&#45;&gt;Node43</title>
<path fill="none" stroke="#63b8ff" d="M1887.14,-302.1C1902.49,-293.73 1923.48,-279.7 1934.5,-261 1968.85,-202.73 1965.77,-176.52 1953.5,-110 1951.93,-101.47 1948.79,-92.45 1945.63,-84.79"/>
<polygon fill="#63b8ff" stroke="#63b8ff" points="1948.9,-83.52 1941.64,-75.8 1942.5,-86.36 1948.9,-83.52"/>
</g>
<!-- Node44&#45;&gt;Node42 -->
<g id="edge47" class="edge">
<title>Node44&#45;&gt;Node42</title>
<path fill="none" stroke="#63b8ff" d="M2126.3,-302.1C2117.31,-292.36 2102.69,-276.5 2091.44,-264.29"/>
<polygon fill="#63b8ff" stroke="#63b8ff" points="2094.01,-261.92 2084.66,-256.94 2088.86,-266.66 2094.01,-261.92"/>
</g>
<!-- Node45 -->
<g id="node38" class="node">
<title>Node45</title>
<g id="a_node38"><a xlink:title=" ">
<polygon fill="#e0e0e0" stroke="#999999" points="2304.5,-255.5 2258.5,-255.5 2258.5,-236.5 2304.5,-236.5 2304.5,-255.5"/>
<text text-anchor="middle" x="2281.5" y="-243.5" font-family="Helvetica,sans-Serif" font-size="10.00">cstdint</text>
</a>
</g>
</g>
<!-- Node44&#45;&gt;Node45 -->
<g id="edge46" class="edge">
<title>Node44&#45;&gt;Node45</title>
<path fill="none" stroke="#63b8ff" d="M2154.86,-302.16C2177.85,-292.18 2216.37,-275.45 2249.5,-261 2249.97,-260.79 2250.45,-260.59 2250.93,-260.38"/>
<polygon fill="#63b8ff" stroke="#63b8ff" points="2252.04,-263.71 2259.8,-256.5 2249.24,-257.3 2252.04,-263.71"/>
</g>
<!-- Node46 -->
<g id="node39" class="node">
<title>Node46</title>
<g id="a_node39"><a xlink:href="session__key_8hpp.html" target="_top" xlink:title=" ">
<polygon fill="white" stroke="#666666" points="2240,-261 2145,-261 2145,-231 2240,-231 2240,-261"/>
<text text-anchor="start" x="2153" y="-249" font-family="Helvetica,sans-Serif" font-size="10.00">primitives/session</text>
<text text-anchor="middle" x="2192.5" y="-238" font-family="Helvetica,sans-Serif" font-size="10.00">_key.hpp</text>
</a>
</g>
</g>
<!-- Node44&#45;&gt;Node46 -->
<g id="edge48" class="edge">
<title>Node44&#45;&gt;Node46</title>
<path fill="none" stroke="#63b8ff" d="M2142.56,-302.1C2150.13,-293.75 2161.76,-280.92 2171.9,-269.73"/>
<polygon fill="#63b8ff" stroke="#63b8ff" points="2174.46,-272.12 2178.58,-262.35 2169.28,-267.41 2174.46,-272.12"/>
</g>
<!-- Node47 -->
<g id="node40" class="node">
<title>Node47</title>
<g id="a_node40"><a xlink:href="blob_8hpp.html" target="_top" xlink:title=" ">
<polygon fill="white" stroke="#666666" points="2127,-189.5 2050,-189.5 2050,-170.5 2127,-170.5 2127,-189.5"/>
<text text-anchor="middle" x="2088.5" y="-177.5" font-family="Helvetica,sans-Serif" font-size="10.00">base/blob.hpp</text>
</a>
</g>
</g>
<!-- Node46&#45;&gt;Node47 -->
<g id="edge49" class="edge">
<title>Node46&#45;&gt;Node47</title>
<path fill="none" stroke="#63b8ff" d="M2169.16,-230.64C2152.4,-220.32 2129.86,-206.45 2112.86,-195.99"/>
<polygon fill="#63b8ff" stroke="#63b8ff" points="2114.74,-193.04 2104.39,-190.78 2111.07,-199 2114.74,-193.04"/>
</g>
<!-- Node48 -->
<g id="node41" class="node">
<title>Node48</title>
<g id="a_node41"><a xlink:title=" ">
<polygon fill="#e0e0e0" stroke="#999999" points="1162.5,-129 1124.5,-129 1124.5,-110 1162.5,-110 1162.5,-129"/>
<text text-anchor="middle" x="1143.5" y="-117" font-family="Helvetica,sans-Serif" font-size="10.00">array</text>
</a>
</g>
</g>
<!-- Node47&#45;&gt;Node48 -->
<g id="edge50" class="edge">
<title>Node47&#45;&gt;Node48</title>
<path fill="none" stroke="#63b8ff" d="M2049.69,-176.6C1893.77,-166.95 1314.54,-131.09 1174.25,-122.4"/>
<polygon fill="#63b8ff" stroke="#63b8ff" points="1174.48,-118.91 1164.28,-121.79 1174.04,-125.9 1174.48,-118.91"/>
</g>
<!-- Node49 -->
<g id="node42" class="node">
<title>Node49</title>
<g id="a_node42"><a xlink:title=" ">
<polygon fill="#e0e0e0" stroke="#999999" points="2128.5,-129 2000.5,-129 2000.5,-110 2128.5,-110 2128.5,-129"/>
<text text-anchor="middle" x="2064.5" y="-117" font-family="Helvetica,sans-Serif" font-size="10.00">boost/functional/hash.hpp</text>
</a>
</g>
</g>
<!-- Node47&#45;&gt;Node49 -->
<g id="edge51" class="edge">
<title>Node47&#45;&gt;Node49</title>
<path fill="none" stroke="#63b8ff" d="M2084.96,-170.37C2081.66,-162.33 2076.63,-150.07 2072.38,-139.72"/>
<polygon fill="#63b8ff" stroke="#63b8ff" points="2075.66,-138.49 2068.63,-130.57 2069.19,-141.15 2075.66,-138.49"/>
</g>
<!-- Node50 -->
<g id="node43" class="node">
<title>Node50</title>
<g id="a_node43"><a xlink:href="hexutil_8hpp.html" target="_top" xlink:title=" ">
<polygon fill="white" stroke="#666666" points="1944.5,-129 1858.5,-129 1858.5,-110 1944.5,-110 1944.5,-129"/>
<text text-anchor="middle" x="1901.5" y="-117" font-family="Helvetica,sans-Serif" font-size="10.00">base/hexutil.hpp</text>
</a>
</g>
</g>
<!-- Node47&#45;&gt;Node50 -->
<g id="edge52" class="edge">
<title>Node47&#45;&gt;Node50</title>
<path fill="none" stroke="#63b8ff" d="M2060.1,-170.12C2028.38,-160.19 1976.83,-144.07 1941.15,-132.9"/>
<polygon fill="#63b8ff" stroke="#63b8ff" points="1942.2,-129.57 1931.61,-129.92 1940.11,-136.25 1942.2,-129.57"/>
</g>
<!-- Node51 -->
<g id="node44" class="node">
<title>Node51</title>
<g id="a_node44"><a xlink:title=" ">
<polygon fill="#e0e0e0" stroke="#999999" points="2200.5,-129 2146.5,-129 2146.5,-110 2200.5,-110 2200.5,-129"/>
<text text-anchor="middle" x="2173.5" y="-117" font-family="Helvetica,sans-Serif" font-size="10.00">iostream</text>
</a>
</g>
</g>
<!-- Node47&#45;&gt;Node51 -->
<g id="edge57" class="edge">
<title>Node47&#45;&gt;Node51</title>
<path fill="none" stroke="#63b8ff" d="M2101.41,-170.12C2114.64,-161.01 2135.47,-146.68 2151.34,-135.75"/>
<polygon fill="#63b8ff" stroke="#63b8ff" points="2152.97,-138.88 2159.22,-130.33 2149,-133.11 2152.97,-138.88"/>
</g>
<!-- Node50&#45;&gt;Node27 -->
<g id="edge56" class="edge">
<title>Node50&#45;&gt;Node27</title>
<path fill="none" stroke="#63b8ff" d="M1883.01,-109.51C1866,-101.24 1840.51,-88.84 1820.91,-79.31"/>
<polygon fill="#63b8ff" stroke="#63b8ff" points="1822.6,-76.25 1812.08,-75.02 1819.54,-82.54 1822.6,-76.25"/>
</g>
<!-- Node50&#45;&gt;Node39 -->
<g id="edge53" class="edge">
<title>Node50&#45;&gt;Node39</title>
<path fill="none" stroke="#63b8ff" d="M1941.7,-109.51C1983.89,-100.07 2050.05,-85.28 2093.84,-75.49"/>
<polygon fill="#63b8ff" stroke="#63b8ff" points="2094.54,-78.92 2103.53,-73.32 2093.01,-72.09 2094.54,-78.92"/>
</g>
<!-- Node50&#45;&gt;Node40 -->
<g id="edge54" class="edge">
<title>Node50&#45;&gt;Node40</title>
<path fill="none" stroke="#63b8ff" d="M1863.67,-109.51C1821.15,-99.4 1752.74,-83.15 1712.05,-73.47"/>
<polygon fill="#63b8ff" stroke="#63b8ff" points="1712.88,-70.07 1702.34,-71.17 1711.26,-76.88 1712.88,-70.07"/>
</g>
<!-- Node50&#45;&gt;Node43 -->
<g id="edge55" class="edge">
<title>Node50&#45;&gt;Node43</title>
<path fill="none" stroke="#63b8ff" d="M1907.28,-109.75C1911.91,-102.73 1918.57,-92.64 1924.37,-83.87"/>
<polygon fill="#63b8ff" stroke="#63b8ff" points="1927.17,-85.98 1929.76,-75.71 1921.33,-82.12 1927.17,-85.98"/>
</g>
<!-- Node52&#45;&gt;Node7 -->
<g id="edge59" class="edge">
<title>Node52&#45;&gt;Node7</title>
<path fill="none" stroke="#63b8ff" d="M325.03,-302.06C338.91,-292.12 361.91,-275.56 381.5,-261 411.04,-239.05 444.83,-213.16 465.92,-196.91"/>
<polygon fill="#63b8ff" stroke="#63b8ff" points="467.94,-199.77 473.72,-190.9 463.66,-194.23 467.94,-199.77"/>
</g>
<!-- Node52&#45;&gt;Node8 -->
<g id="edge61" class="edge">
<title>Node52&#45;&gt;Node8</title>
<path fill="none" stroke="#63b8ff" d="M293.17,-302.1C269.73,-291.31 229.97,-273 202.77,-260.48"/>
<polygon fill="#63b8ff" stroke="#63b8ff" points="204.59,-257.46 194.04,-256.46 201.66,-263.82 204.59,-257.46"/>
</g>
<!-- Node52&#45;&gt;Node18 -->
<g id="edge60" class="edge">
<title>Node52&#45;&gt;Node18</title>
<path fill="none" stroke="#63b8ff" d="M290.7,-302.14C274.14,-294.11 252.55,-280.52 242.5,-261 236.4,-249.14 236.4,-242.86 242.5,-231 250.58,-215.29 266.14,-203.42 280.54,-195.2"/>
<polygon fill="#63b8ff" stroke="#63b8ff" points="282.14,-198.32 289.36,-190.56 278.88,-192.12 282.14,-198.32"/>
</g>
<!-- Node53 -->
<g id="node46" class="node">
<title>Node53</title>
<g id="a_node46"><a xlink:href="subscription__engine_8hpp.html" target="_top" xlink:title=" ">
<polygon fill="#fff0f0" stroke="red" points="373,-255.5 252,-255.5 252,-236.5 373,-236.5 373,-255.5"/>
<text text-anchor="middle" x="312.5" y="-243.5" font-family="Helvetica,sans-Serif" font-size="10.00">subscription_engine.hpp</text>
</a>
</g>
</g>
<!-- Node52&#45;&gt;Node53 -->
<g id="edge62" class="edge">
<title>Node52&#45;&gt;Node53</title>
<path fill="none" stroke="#63b8ff" d="M312.5,-302.1C312.5,-293.12 312.5,-278.95 312.5,-267.22"/>
<polygon fill="#63b8ff" stroke="#63b8ff" points="316,-267.34 312.5,-257.34 309,-267.34 316,-267.34"/>
</g>
<!-- Node53&#45;&gt;Node9 -->
<g id="edge64" class="edge">
<title>Node53&#45;&gt;Node9</title>
<path fill="none" stroke="#63b8ff" d="M324.32,-236.1C337.89,-225.88 360.41,-208.93 376.89,-196.52"/>
<polygon fill="#63b8ff" stroke="#63b8ff" points="378.69,-199.54 384.57,-190.73 374.48,-193.95 378.69,-199.54"/>
</g>
<!-- Node53&#45;&gt;Node18 -->
<g id="edge63" class="edge">
<title>Node53&#45;&gt;Node18</title>
<path fill="none" stroke="#63b8ff" d="M312.5,-236.1C312.5,-227.12 312.5,-212.95 312.5,-201.22"/>
<polygon fill="#63b8ff" stroke="#63b8ff" points="316,-201.34 312.5,-191.34 309,-201.34 316,-201.34"/>
</g>
<!-- Node56&#45;&gt;Node40 -->
<g id="edge71" class="edge">
<title>Node56&#45;&gt;Node40</title>
<path fill="none" stroke="#63b8ff" d="M250.22,-170.01C259.11,-168.11 268.61,-166.28 277.5,-165 819.68,-86.86 1489.15,-69.24 1645,-66.1"/>
<polygon fill="#63b8ff" stroke="#63b8ff" points="1644.68,-69.6 1654.61,-65.91 1644.55,-62.6 1644.68,-69.6"/>
</g>
<!-- Node56&#45;&gt;Node48 -->
<g id="edge69" class="edge">
<title>Node56&#45;&gt;Node48</title>
<path fill="none" stroke="#63b8ff" d="M249.53,-170.03C258.61,-168.08 268.37,-166.22 277.5,-165 444.08,-142.65 978.85,-125.44 1112.84,-121.4"/>
<polygon fill="#63b8ff" stroke="#63b8ff" points="1112.79,-124.9 1122.68,-121.11 1112.58,-117.91 1112.79,-124.9"/>
</g>
<!-- Node57 -->
<g id="node48" class="node">
<title>Node57</title>
<g id="a_node48"><a xlink:title=" ">
<polygon fill="#e0e0e0" stroke="#999999" points="234,-129 193,-129 193,-110 234,-110 234,-129"/>
<text text-anchor="middle" x="213.5" y="-117" font-family="Helvetica,sans-Serif" font-size="10.00">string</text>
</a>
</g>
</g>
<!-- Node56&#45;&gt;Node57 -->
<g id="edge70" class="edge">
<title>Node56&#45;&gt;Node57</title>
<path fill="none" stroke="#63b8ff" d="M213.5,-170.37C213.5,-162.5 213.5,-150.6 213.5,-140.39"/>
<polygon fill="#63b8ff" stroke="#63b8ff" points="217,-140.68 213.5,-130.68 210,-140.68 217,-140.68"/>
</g>
<!-- Node58&#45;&gt;Node44 -->
<g id="edge77" class="edge">
<title>Node58&#45;&gt;Node44</title>
<path fill="none" stroke="#63b8ff" d="M2375.06,-362.55C2325.15,-352.27 2243.21,-335.39 2189.05,-324.24"/>
<polygon fill="#63b8ff" stroke="#63b8ff" points="2189.92,-320.84 2179.42,-322.25 2188.51,-327.7 2189.92,-320.84"/>
</g>
<!-- Node58&#45;&gt;Node47 -->
<g id="edge76" class="edge">
<title>Node58&#45;&gt;Node47</title>
<path fill="none" stroke="#63b8ff" d="M2412.35,-362.51C2406.42,-353.66 2397.36,-339.69 2390.5,-327 2368.18,-285.71 2383.4,-260.01 2346.5,-231 2314.86,-206.13 2204.32,-191.79 2138.63,-185.28"/>
<polygon fill="#63b8ff" stroke="#63b8ff" points="2139.11,-181.81 2128.82,-184.34 2138.44,-188.78 2139.11,-181.81"/>
</g>
<!-- Node59 -->
<g id="node50" class="node">
<title>Node59</title>
<g id="a_node50"><a xlink:title=" ">
<polygon fill="#e0e0e0" stroke="#999999" points="2490,-321.5 2399,-321.5 2399,-302.5 2490,-302.5 2490,-321.5"/>
<text text-anchor="middle" x="2444.5" y="-309.5" font-family="Helvetica,sans-Serif" font-size="10.00">boost/variant.hpp</text>
</a>
</g>
</g>
<!-- Node58&#45;&gt;Node59 -->
<g id="edge75" class="edge">
<title>Node58&#45;&gt;Node59</title>
<path fill="none" stroke="#63b8ff" d="M2422.34,-362.87C2425.95,-354.75 2431.47,-342.31 2436.11,-331.89"/>
<polygon fill="#63b8ff" stroke="#63b8ff" points="2439.17,-333.61 2440.03,-323.05 2432.77,-330.77 2439.17,-333.61"/>
</g>
</g>
</svg>
