<?xml version="1.0" encoding="UTF-8" standalone="no"?>
<!DOCTYPE svg PUBLIC "-//W3C//DTD SVG 1.1//EN"
 "http://www.w3.org/Graphics/SVG/1.1/DTD/svg11.dtd">
<!-- Generated by graphviz version 7.0.5 (20221223.1930)
 -->
<!-- Title: src/api/jrpc/value_converter.hpp Pages: 1 -->
<svg width="592pt" height="170pt"
 viewBox="0.00 0.00 592.00 170.00" xmlns="http://www.w3.org/2000/svg" xmlns:xlink="http://www.w3.org/1999/xlink">
<g id="graph0" class="graph" transform="scale(1 1) rotate(0) translate(4 166)">
<title>src/api/jrpc/value_converter.hpp</title>
<!-- Node1 -->
<g id="node1" class="node">
<title>Node1</title>
<g id="a_node1"><a xlink:title=" ">
<polygon fill="#999999" stroke="#666666" points="262.5,-162 171.5,-162 171.5,-132 262.5,-132 262.5,-162"/>
<text text-anchor="start" x="179.5" y="-150" font-family="Helvetica,sans-Serif" font-size="10.00">src/api/jrpc/value</text>
<text text-anchor="middle" x="217" y="-139" font-family="Helvetica,sans-Serif" font-size="10.00">_converter.hpp</text>
</a>
</g>
</g>
<!-- Node2 -->
<g id="node2" class="node">
<title>Node2</title>
<g id="a_node2"><a xlink:href="jrpc__method_8hpp.html" target="_top" xlink:title=" ">
<polygon fill="white" stroke="#666666" points="335.5,-90.5 196.5,-90.5 196.5,-71.5 335.5,-71.5 335.5,-90.5"/>
<text text-anchor="middle" x="266" y="-78.5" font-family="Helvetica,sans-Serif" font-size="10.00">src/api/jrpc/jrpc_method.hpp</text>
</a>
</g>
</g>
<!-- Node1&#45;&gt;Node2 -->
<g id="edge1" class="edge">
<title>Node1&#45;&gt;Node2</title>
<path fill="none" stroke="#63b8ff" d="M234.65,-122.95C243.17,-111.81 252.9,-99.11 259.23,-90.84"/>
<polygon fill="#63b8ff" stroke="#63b8ff" points="232.09,-120.53 228.79,-130.59 237.65,-124.78 232.09,-120.53"/>
</g>
<!-- Node3 -->
<g id="node3" class="node">
<title>Node3</title>
<g id="a_node3"><a xlink:href="author__jrpc__processor_8cpp.html" target="_top" xlink:title=" ">
<polygon fill="white" stroke="#666666" points="134,-30 0,-30 0,0 134,0 134,-30"/>
<text text-anchor="start" x="8" y="-18" font-family="Helvetica,sans-Serif" font-size="10.00">src/api/service/author</text>
<text text-anchor="middle" x="67" y="-7" font-family="Helvetica,sans-Serif" font-size="10.00">/author_jrpc_processor.cpp</text>
</a>
</g>
</g>
<!-- Node1&#45;&gt;Node3 -->
<g id="edge7" class="edge">
<title>Node1&#45;&gt;Node3</title>
<path fill="none" stroke="#63b8ff" d="M191.92,-124.26C161.19,-97.63 109.99,-53.26 83.7,-30.47"/>
<polygon fill="#63b8ff" stroke="#63b8ff" points="189.38,-126.7 199.23,-130.6 193.97,-121.41 189.38,-126.7"/>
</g>
<!-- Node4 -->
<g id="node4" class="node">
<title>Node4</title>
<g id="a_node4"><a xlink:href="chain__jrpc__processor_8cpp.html" target="_top" xlink:title=" ">
<polygon fill="white" stroke="#666666" points="282,-30 152,-30 152,0 282,0 282,-30"/>
<text text-anchor="start" x="160" y="-18" font-family="Helvetica,sans-Serif" font-size="10.00">src/api/service/chain</text>
<text text-anchor="middle" x="217" y="-7" font-family="Helvetica,sans-Serif" font-size="10.00">/chain_jrpc_processor.cpp</text>
</a>
</g>
</g>
<!-- Node1&#45;&gt;Node4 -->
<g id="edge8" class="edge">
<title>Node1&#45;&gt;Node4</title>
<path fill="none" stroke="#63b8ff" d="M199.68,-122.01C194.93,-114.11 190.43,-105.03 188,-96 184.54,-83.12 184.54,-78.88 188,-66 191.49,-53.01 199.28,-39.92 205.9,-30.4"/>
<polygon fill="#63b8ff" stroke="#63b8ff" points="196.7,-123.85 205.08,-130.33 202.57,-120.04 196.7,-123.85"/>
</g>
<!-- Node7 -->
<g id="node7" class="node">
<title>Node7</title>
<g id="a_node7"><a xlink:href="api__service_8cpp.html" target="_top" xlink:title=" ">
<polygon fill="white" stroke="#666666" points="450,-96 354,-96 354,-66 450,-66 450,-96"/>
<text text-anchor="start" x="362" y="-84" font-family="Helvetica,sans-Serif" font-size="10.00">src/api/service/api</text>
<text text-anchor="middle" x="402" y="-73" font-family="Helvetica,sans-Serif" font-size="10.00">_service.cpp</text>
</a>
</g>
</g>
<!-- Node1&#45;&gt;Node7 -->
<g id="edge6" class="edge">
<title>Node1&#45;&gt;Node7</title>
<path fill="none" stroke="#63b8ff" d="M269.22,-127.94C298.04,-117.97 333.34,-105.75 360.3,-96.43"/>
<polygon fill="#63b8ff" stroke="#63b8ff" points="268.25,-124.57 259.95,-131.14 270.54,-131.18 268.25,-124.57"/>
</g>
<!-- Node2&#45;&gt;Node3 -->
<g id="edge2" class="edge">
<title>Node2&#45;&gt;Node3</title>
<path fill="none" stroke="#63b8ff" d="M227.73,-67.69C194.68,-57.06 146.89,-41.69 112.02,-30.48"/>
<polygon fill="#63b8ff" stroke="#63b8ff" points="226.3,-70.91 236.89,-70.64 228.44,-64.24 226.3,-70.91"/>
</g>
<!-- Node2&#45;&gt;Node4 -->
<g id="edge3" class="edge">
<title>Node2&#45;&gt;Node4</title>
<path fill="none" stroke="#63b8ff" d="M252.23,-62.01C244.53,-51.96 235.07,-39.61 227.9,-30.23"/>
<polygon fill="#63b8ff" stroke="#63b8ff" points="249.41,-64.09 258.27,-69.9 254.97,-59.83 249.41,-64.09"/>
</g>
<!-- Node5 -->
<g id="node5" class="node">
<title>Node5</title>
<g id="a_node5"><a xlink:href="state__jrpc__processor_8cpp.html" target="_top" xlink:title=" ">
<polygon fill="white" stroke="#666666" points="428,-30 300,-30 300,0 428,0 428,-30"/>
<text text-anchor="start" x="308" y="-18" font-family="Helvetica,sans-Serif" font-size="10.00">src/api/service/state</text>
<text text-anchor="middle" x="364" y="-7" font-family="Helvetica,sans-Serif" font-size="10.00">/state_jrpc_processor.cpp</text>
</a>
</g>
</g>
<!-- Node2&#45;&gt;Node5 -->
<g id="edge4" class="edge">
<title>Node2&#45;&gt;Node5</title>
<path fill="none" stroke="#63b8ff" d="M289.25,-64.82C305.17,-54.42 326.15,-40.72 341.83,-30.48"/>
<polygon fill="#63b8ff" stroke="#63b8ff" points="287.35,-61.88 280.89,-70.27 291.18,-67.74 287.35,-61.88"/>
</g>
<!-- Node6 -->
<g id="node6" class="node">
<title>Node6</title>
<g id="a_node6"><a xlink:href="system__jrpc__processor_8cpp.html" target="_top" xlink:title=" ">
<polygon fill="white" stroke="#666666" points="584,-30 446,-30 446,0 584,0 584,-30"/>
<text text-anchor="start" x="454" y="-18" font-family="Helvetica,sans-Serif" font-size="10.00">src/api/service/system</text>
<text text-anchor="middle" x="515" y="-7" font-family="Helvetica,sans-Serif" font-size="10.00">/system_jrpc_processor.cpp</text>
</a>
</g>
</g>
<!-- Node2&#45;&gt;Node6 -->
<g id="edge5" class="edge">
<title>Node2&#45;&gt;Node6</title>
<path fill="none" stroke="#63b8ff" d="M312.02,-68.17C353.46,-57.52 414.49,-41.83 458.8,-30.45"/>
<polygon fill="#63b8ff" stroke="#63b8ff" points="311.16,-64.78 302.35,-70.66 312.91,-71.56 311.16,-64.78"/>
</g>
</g>
</svg>
