<?xml version="1.0" encoding="UTF-8" standalone="no"?>
<!DOCTYPE svg PUBLIC "-//W3C//DTD SVG 1.1//EN"
 "http://www.w3.org/Graphics/SVG/1.1/DTD/svg11.dtd">
<!-- Generated by graphviz version 7.0.5 (20221223.1930)
 -->
<!-- Title: src/scale/detail/variant.hpp Pages: 1 -->
<svg width="912pt" height="269pt"
 viewBox="0.00 0.00 911.50 269.00" xmlns="http://www.w3.org/2000/svg" xmlns:xlink="http://www.w3.org/1999/xlink">
<g id="graph0" class="graph" transform="scale(1 1) rotate(0) translate(4 265)">
<title>src/scale/detail/variant.hpp</title>
<!-- Node1 -->
<g id="node1" class="node">
<title>Node1</title>
<g id="a_node1"><a xlink:title=" ">
<polygon fill="#999999" stroke="#666666" points="338,-261 205,-261 205,-242 338,-242 338,-261"/>
<text text-anchor="middle" x="271.5" y="-249" font-family="Helvetica,sans-Serif" font-size="10.00">src/scale/detail/variant.hpp</text>
</a>
</g>
</g>
<!-- Node2 -->
<g id="node2" class="node">
<title>Node2</title>
<g id="a_node2"><a xlink:title=" ">
<polygon fill="#e0e0e0" stroke="#999999" points="91,-206 0,-206 0,-187 91,-187 91,-206"/>
<text text-anchor="middle" x="45.5" y="-194" font-family="Helvetica,sans-Serif" font-size="10.00">boost/variant.hpp</text>
</a>
</g>
</g>
<!-- Node1&#45;&gt;Node2 -->
<g id="edge1" class="edge">
<title>Node1&#45;&gt;Node2</title>
<path fill="none" stroke="#63b8ff" d="M233.16,-241.51C194.98,-232.55 136.21,-218.77 94.62,-209.02"/>
<polygon fill="#63b8ff" stroke="#63b8ff" points="95.66,-205.67 85.12,-206.79 94.06,-212.48 95.66,-205.67"/>
</g>
<!-- Node3 -->
<g id="node3" class="node">
<title>Node3</title>
<g id="a_node3"><a xlink:href="outcome_8hpp.html" target="_top" xlink:title=" ">
<polygon fill="white" stroke="#666666" points="719,-79.5 606,-79.5 606,-60.5 719,-60.5 719,-79.5"/>
<text text-anchor="middle" x="662.5" y="-67.5" font-family="Helvetica,sans-Serif" font-size="10.00">outcome/outcome.hpp</text>
</a>
</g>
</g>
<!-- Node1&#45;&gt;Node3 -->
<g id="edge2" class="edge">
<title>Node1&#45;&gt;Node3</title>
<path fill="none" stroke="#63b8ff" d="M249.33,-241.62C201.24,-221.17 95.03,-168.81 138.5,-121 168.59,-87.9 459.17,-76.18 594.18,-72.5"/>
<polygon fill="#63b8ff" stroke="#63b8ff" points="594.16,-76.01 604.06,-72.24 593.97,-69.01 594.16,-76.01"/>
</g>
<!-- Node5 -->
<g id="node5" class="node">
<title>Node5</title>
<g id="a_node5"><a xlink:href="outcome__throw_8hpp.html" target="_top" xlink:title=" ">
<polygon fill="white" stroke="#666666" points="334,-206 209,-206 209,-187 334,-187 334,-206"/>
<text text-anchor="middle" x="271.5" y="-194" font-family="Helvetica,sans-Serif" font-size="10.00">base/outcome_throw.hpp</text>
</a>
</g>
</g>
<!-- Node1&#45;&gt;Node5 -->
<g id="edge4" class="edge">
<title>Node1&#45;&gt;Node5</title>
<path fill="none" stroke="#63b8ff" d="M271.5,-241.75C271.5,-235.27 271.5,-226.16 271.5,-217.9"/>
<polygon fill="#63b8ff" stroke="#63b8ff" points="275,-217.96 271.5,-207.96 268,-217.96 275,-217.96"/>
</g>
<!-- Node8 -->
<g id="node8" class="node">
<title>Node8</title>
<g id="a_node8"><a xlink:href="visitor_8hpp.html" target="_top" xlink:title=" ">
<polygon fill="white" stroke="#666666" points="533,-206 448,-206 448,-187 533,-187 533,-206"/>
<text text-anchor="middle" x="490.5" y="-194" font-family="Helvetica,sans-Serif" font-size="10.00">base/visitor.hpp</text>
</a>
</g>
</g>
<!-- Node1&#45;&gt;Node8 -->
<g id="edge7" class="edge">
<title>Node1&#45;&gt;Node8</title>
<path fill="none" stroke="#63b8ff" d="M308.65,-241.51C345.49,-232.59 402.12,-218.89 442.38,-209.15"/>
<polygon fill="#63b8ff" stroke="#63b8ff" points="443.17,-212.56 452.06,-206.8 441.52,-205.75 443.17,-212.56"/>
</g>
<!-- Node12 -->
<g id="node12" class="node">
<title>Node12</title>
<g id="a_node12"><a xlink:href="scale__error_8hpp.html" target="_top" xlink:title=" ">
<polygon fill="white" stroke="#666666" points="744,-206 635,-206 635,-187 744,-187 744,-206"/>
<text text-anchor="middle" x="689.5" y="-194" font-family="Helvetica,sans-Serif" font-size="10.00">scale/scale_error.hpp</text>
</a>
</g>
</g>
<!-- Node1&#45;&gt;Node12 -->
<g id="edge11" class="edge">
<title>Node1&#45;&gt;Node12</title>
<path fill="none" stroke="#63b8ff" d="M338.2,-242.04C416.51,-232.11 545.61,-215.74 623.59,-205.86"/>
<polygon fill="#63b8ff" stroke="#63b8ff" points="623.73,-209.37 633.21,-204.64 622.85,-202.42 623.73,-209.37"/>
</g>
<!-- Node4 -->
<g id="node4" class="node">
<title>Node4</title>
<g id="a_node4"><a xlink:title=" ">
<polygon fill="#e0e0e0" stroke="#999999" points="733,-19 592,-19 592,0 733,0 733,-19"/>
<text text-anchor="middle" x="662.5" y="-7" font-family="Helvetica,sans-Serif" font-size="10.00">libp2p/outcome/outcome.hpp</text>
</a>
</g>
</g>
<!-- Node3&#45;&gt;Node4 -->
<g id="edge3" class="edge">
<title>Node3&#45;&gt;Node4</title>
<path fill="none" stroke="#63b8ff" d="M662.5,-60.37C662.5,-52.5 662.5,-40.6 662.5,-30.39"/>
<polygon fill="#63b8ff" stroke="#63b8ff" points="666,-30.68 662.5,-20.68 659,-30.68 666,-30.68"/>
</g>
<!-- Node6 -->
<g id="node6" class="node">
<title>Node6</title>
<g id="a_node6"><a xlink:title=" ">
<polygon fill="#e0e0e0" stroke="#999999" points="257.5,-151 147.5,-151 147.5,-121 257.5,-121 257.5,-151"/>
<text text-anchor="start" x="155.5" y="-139" font-family="Helvetica,sans-Serif" font-size="10.00">boost/system/system</text>
<text text-anchor="middle" x="202.5" y="-128" font-family="Helvetica,sans-Serif" font-size="10.00">_error.hpp</text>
</a>
</g>
</g>
<!-- Node5&#45;&gt;Node6 -->
<g id="edge5" class="edge">
<title>Node5&#45;&gt;Node6</title>
<path fill="none" stroke="#63b8ff" d="M261.02,-186.62C252.33,-179.25 239.61,-168.47 228.25,-158.83"/>
<polygon fill="#63b8ff" stroke="#63b8ff" points="230.58,-156.22 220.69,-152.42 226.05,-161.55 230.58,-156.22"/>
</g>
<!-- Node7 -->
<g id="node7" class="node">
<title>Node7</title>
<g id="a_node7"><a xlink:title=" ">
<polygon fill="#e0e0e0" stroke="#999999" points="407.5,-145.5 275.5,-145.5 275.5,-126.5 407.5,-126.5 407.5,-145.5"/>
<text text-anchor="middle" x="341.5" y="-133.5" font-family="Helvetica,sans-Serif" font-size="10.00">boost/throw_exception.hpp</text>
</a>
</g>
</g>
<!-- Node5&#45;&gt;Node7 -->
<g id="edge6" class="edge">
<title>Node5&#45;&gt;Node7</title>
<path fill="none" stroke="#63b8ff" d="M282.13,-186.62C292.72,-177.77 309.21,-163.98 322.13,-153.19"/>
<polygon fill="#63b8ff" stroke="#63b8ff" points="324.18,-156.04 329.61,-146.94 319.69,-150.67 324.18,-156.04"/>
</g>
<!-- Node9 -->
<g id="node9" class="node">
<title>Node9</title>
<g id="a_node9"><a xlink:title=" ">
<polygon fill="#e0e0e0" stroke="#999999" points="487.5,-145.5 425.5,-145.5 425.5,-126.5 487.5,-126.5 487.5,-145.5"/>
<text text-anchor="middle" x="456.5" y="-133.5" font-family="Helvetica,sans-Serif" font-size="10.00">type_traits</text>
</a>
</g>
</g>
<!-- Node8&#45;&gt;Node9 -->
<g id="edge8" class="edge">
<title>Node8&#45;&gt;Node9</title>
<path fill="none" stroke="#63b8ff" d="M485.48,-186.87C480.71,-178.66 473.38,-166.04 467.28,-155.55"/>
<polygon fill="#63b8ff" stroke="#63b8ff" points="470.35,-153.86 462.3,-146.98 464.3,-157.38 470.35,-153.86"/>
</g>
<!-- Node10 -->
<g id="node10" class="node">
<title>Node10</title>
<g id="a_node10"><a xlink:title=" ">
<polygon fill="#e0e0e0" stroke="#999999" points="545,-145.5 506,-145.5 506,-126.5 545,-126.5 545,-145.5"/>
<text text-anchor="middle" x="525.5" y="-133.5" font-family="Helvetica,sans-Serif" font-size="10.00">utility</text>
</a>
</g>
</g>
<!-- Node8&#45;&gt;Node10 -->
<g id="edge9" class="edge">
<title>Node8&#45;&gt;Node10</title>
<path fill="none" stroke="#63b8ff" d="M495.66,-186.87C500.63,-178.57 508.28,-165.78 514.6,-155.22"/>
<polygon fill="#63b8ff" stroke="#63b8ff" points="517.41,-157.34 519.54,-146.97 511.4,-153.75 517.41,-157.34"/>
</g>
<!-- Node11 -->
<g id="node11" class="node">
<title>Node11</title>
<g id="a_node11"><a xlink:title=" ">
<polygon fill="#e0e0e0" stroke="#999999" points="661.5,-151 563.5,-151 563.5,-121 661.5,-121 661.5,-151"/>
<text text-anchor="start" x="571.5" y="-139" font-family="Helvetica,sans-Serif" font-size="10.00">boost/variant/apply</text>
<text text-anchor="middle" x="612.5" y="-128" font-family="Helvetica,sans-Serif" font-size="10.00">_visitor.hpp</text>
</a>
</g>
</g>
<!-- Node8&#45;&gt;Node11 -->
<g id="edge10" class="edge">
<title>Node8&#45;&gt;Node11</title>
<path fill="none" stroke="#63b8ff" d="M509.03,-186.62C525.76,-178.59 550.94,-166.52 572.28,-156.29"/>
<polygon fill="#63b8ff" stroke="#63b8ff" points="573.52,-159.57 581.02,-152.09 570.49,-153.26 573.52,-159.57"/>
</g>
<!-- Node12&#45;&gt;Node3 -->
<g id="edge12" class="edge">
<title>Node12&#45;&gt;Node3</title>
<path fill="none" stroke="#63b8ff" d="M687.56,-186.55C683.24,-166.63 672.75,-118.24 666.8,-90.82"/>
<polygon fill="#63b8ff" stroke="#63b8ff" points="670.28,-90.38 664.74,-81.35 663.44,-91.87 670.28,-90.38"/>
</g>
<!-- Node13 -->
<g id="node13" class="node">
<title>Node13</title>
<g id="a_node13"><a xlink:href="scale_2types_8hpp.html" target="_top" xlink:title=" ">
<polygon fill="white" stroke="#666666" points="801.5,-145.5 717.5,-145.5 717.5,-126.5 801.5,-126.5 801.5,-145.5"/>
<text text-anchor="middle" x="759.5" y="-133.5" font-family="Helvetica,sans-Serif" font-size="10.00">scale/types.hpp</text>
</a>
</g>
</g>
<!-- Node12&#45;&gt;Node13 -->
<g id="edge13" class="edge">
<title>Node12&#45;&gt;Node13</title>
<path fill="none" stroke="#63b8ff" d="M700.13,-186.62C710.72,-177.77 727.21,-163.98 740.13,-153.19"/>
<polygon fill="#63b8ff" stroke="#63b8ff" points="742.18,-156.04 747.61,-146.94 737.69,-150.67 742.18,-156.04"/>
</g>
<!-- Node13&#45;&gt;Node3 -->
<g id="edge16" class="edge">
<title>Node13&#45;&gt;Node3</title>
<path fill="none" stroke="#63b8ff" d="M746.01,-126.1C730.3,-115.74 704.1,-98.45 685.23,-86"/>
<polygon fill="#63b8ff" stroke="#63b8ff" points="687.41,-83.24 677.14,-80.66 683.56,-89.09 687.41,-83.24"/>
</g>
<!-- Node14 -->
<g id="node14" class="node">
<title>Node14</title>
<g id="a_node14"><a xlink:title=" ">
<polygon fill="#e0e0e0" stroke="#999999" points="781.5,-79.5 737.5,-79.5 737.5,-60.5 781.5,-60.5 781.5,-79.5"/>
<text text-anchor="middle" x="759.5" y="-67.5" font-family="Helvetica,sans-Serif" font-size="10.00">vector</text>
</a>
</g>
</g>
<!-- Node13&#45;&gt;Node14 -->
<g id="edge14" class="edge">
<title>Node13&#45;&gt;Node14</title>
<path fill="none" stroke="#63b8ff" d="M759.5,-126.1C759.5,-117.12 759.5,-102.95 759.5,-91.22"/>
<polygon fill="#63b8ff" stroke="#63b8ff" points="763,-91.34 759.5,-81.34 756,-91.34 763,-91.34"/>
</g>
<!-- Node15 -->
<g id="node15" class="node">
<title>Node15</title>
<g id="a_node15"><a xlink:title=" ">
<polygon fill="#e0e0e0" stroke="#999999" points="903.5,-85 799.5,-85 799.5,-55 903.5,-55 903.5,-85"/>
<text text-anchor="start" x="807.5" y="-73" font-family="Helvetica,sans-Serif" font-size="10.00">boost/multiprecision</text>
<text text-anchor="middle" x="851.5" y="-62" font-family="Helvetica,sans-Serif" font-size="10.00">/cpp_int.hpp</text>
</a>
</g>
</g>
<!-- Node13&#45;&gt;Node15 -->
<g id="edge15" class="edge">
<title>Node13&#45;&gt;Node15</title>
<path fill="none" stroke="#63b8ff" d="M772.29,-126.1C784.92,-117.32 804.7,-103.55 821.34,-91.98"/>
<polygon fill="#63b8ff" stroke="#63b8ff" points="823.24,-94.93 829.45,-86.34 819.24,-89.18 823.24,-94.93"/>
</g>
</g>
</svg>
