<?xml version="1.0" encoding="UTF-8" standalone="no"?>
<!DOCTYPE svg PUBLIC "-//W3C//DTD SVG 1.1//EN"
 "http://www.w3.org/Graphics/SVG/1.1/DTD/svg11.dtd">
<!-- Generated by graphviz version 7.0.5 (20221223.1930)
 -->
<!-- Title: src/verification/finality/impl/vote_tracker_impl.hpp Pages: 1 -->
<svg width="2110pt" height="654pt"
 viewBox="0.00 0.00 2110.00 654.00" xmlns="http://www.w3.org/2000/svg" xmlns:xlink="http://www.w3.org/1999/xlink">
<g id="graph0" class="graph" transform="scale(1 1) rotate(0) translate(4 650)">
<title>src/verification/finality/impl/vote_tracker_impl.hpp</title>
<!-- Node1 -->
<g id="node1" class="node">
<title>Node1</title>
<g id="a_node1"><a xlink:title=" ">
<polygon fill="#999999" stroke="#666666" points="1541,-646 1405,-646 1405,-616 1541,-616 1541,-646"/>
<text text-anchor="start" x="1413" y="-634" font-family="Helvetica,sans-Serif" font-size="10.00">src/verification/finality</text>
<text text-anchor="middle" x="1473" y="-623" font-family="Helvetica,sans-Serif" font-size="10.00">/impl/vote_tracker_impl.hpp</text>
</a>
</g>
</g>
<!-- Node2 -->
<g id="node2" class="node">
<title>Node2</title>
<g id="a_node2"><a xlink:href="vote__tracker_8hpp.html" target="_top" xlink:title=" ">
<polygon fill="white" stroke="#666666" points="1519.5,-580 1426.5,-580 1426.5,-550 1519.5,-550 1519.5,-580"/>
<text text-anchor="start" x="1434.5" y="-568" font-family="Helvetica,sans-Serif" font-size="10.00">verification/finality</text>
<text text-anchor="middle" x="1473" y="-557" font-family="Helvetica,sans-Serif" font-size="10.00">/vote_tracker.hpp</text>
</a>
</g>
</g>
<!-- Node1&#45;&gt;Node2 -->
<g id="edge1" class="edge">
<title>Node1&#45;&gt;Node2</title>
<path fill="none" stroke="#63b8ff" d="M1473,-615.8C1473,-608.67 1473,-599.82 1473,-591.56"/>
<polygon fill="#63b8ff" stroke="#63b8ff" points="1476.5,-591.68 1473,-581.68 1469.5,-591.68 1476.5,-591.68"/>
</g>
<!-- Node3 -->
<g id="node3" class="node">
<title>Node3</title>
<g id="a_node3"><a xlink:href="structs_8hpp.html" target="_top" xlink:title=" ">
<polygon fill="white" stroke="#666666" points="1519.5,-514 1426.5,-514 1426.5,-484 1519.5,-484 1519.5,-514"/>
<text text-anchor="start" x="1434.5" y="-502" font-family="Helvetica,sans-Serif" font-size="10.00">verification/finality</text>
<text text-anchor="middle" x="1473" y="-491" font-family="Helvetica,sans-Serif" font-size="10.00">/structs.hpp</text>
</a>
</g>
</g>
<!-- Node2&#45;&gt;Node3 -->
<g id="edge2" class="edge">
<title>Node2&#45;&gt;Node3</title>
<path fill="none" stroke="#63b8ff" d="M1473,-549.8C1473,-542.67 1473,-533.82 1473,-525.56"/>
<polygon fill="#63b8ff" stroke="#63b8ff" points="1476.5,-525.68 1473,-515.68 1469.5,-525.68 1476.5,-525.68"/>
</g>
<!-- Node4 -->
<g id="node4" class="node">
<title>Node4</title>
<g id="a_node4"><a xlink:title=" ">
<polygon fill="#e0e0e0" stroke="#999999" points="138,-442.5 0,-442.5 0,-423.5 138,-423.5 138,-442.5"/>
<text text-anchor="middle" x="69" y="-430.5" font-family="Helvetica,sans-Serif" font-size="10.00">boost/asio/steady_timer.hpp</text>
</a>
</g>
</g>
<!-- Node3&#45;&gt;Node4 -->
<g id="edge3" class="edge">
<title>Node3&#45;&gt;Node4</title>
<path fill="none" stroke="#63b8ff" d="M1426.05,-498.41C1254.9,-499.45 648.55,-499.06 152,-448 143.9,-447.17 135.4,-446.03 127.06,-444.77"/>
<polygon fill="#63b8ff" stroke="#63b8ff" points="127.74,-441.34 117.32,-443.22 126.64,-448.25 127.74,-441.34"/>
</g>
<!-- Node5 -->
<g id="node5" class="node">
<title>Node5</title>
<g id="a_node5"><a xlink:title=" ">
<polygon fill="#e0e0e0" stroke="#999999" points="437.5,-140 346.5,-140 346.5,-121 437.5,-121 437.5,-140"/>
<text text-anchor="middle" x="392" y="-128" font-family="Helvetica,sans-Serif" font-size="10.00">boost/variant.hpp</text>
</a>
</g>
</g>
<!-- Node3&#45;&gt;Node5 -->
<g id="edge4" class="edge">
<title>Node3&#45;&gt;Node5</title>
<path fill="none" stroke="#63b8ff" d="M1426.33,-498.41C1197.39,-499.85 204,-498.85 204,-373.5 204,-373.5 204,-373.5 204,-316.5 204,-229.96 306.45,-170.37 360.09,-145.11"/>
<polygon fill="#63b8ff" stroke="#63b8ff" points="361.42,-148.35 369.06,-141 358.51,-141.98 361.42,-148.35"/>
</g>
<!-- Node6 -->
<g id="node6" class="node">
<title>Node6</title>
<g id="a_node6"><a xlink:href="buffer_8hpp.html" target="_top" xlink:title=" ">
<polygon fill="white" stroke="#666666" points="1775.5,-140 1692.5,-140 1692.5,-121 1775.5,-121 1775.5,-140"/>
<text text-anchor="middle" x="1734" y="-128" font-family="Helvetica,sans-Serif" font-size="10.00">base/buffer.hpp</text>
</a>
</g>
</g>
<!-- Node3&#45;&gt;Node6 -->
<g id="edge5" class="edge">
<title>Node3&#45;&gt;Node6</title>
<path fill="none" stroke="#63b8ff" d="M1483.04,-483.67C1505.27,-451.94 1560.39,-373.42 1607,-308 1648.5,-249.74 1698.15,-181.02 1721.14,-149.25"/>
<polygon fill="#63b8ff" stroke="#63b8ff" points="1723.71,-151.67 1726.74,-141.52 1718.04,-147.57 1723.71,-151.67"/>
</g>
<!-- Node14 -->
<g id="node14" class="node">
<title>Node14</title>
<g id="a_node14"><a xlink:href="scale_8hpp.html" target="_top" xlink:title=" ">
<polygon fill="white" stroke="#666666" points="985,-327 901,-327 901,-308 985,-308 985,-327"/>
<text text-anchor="middle" x="943" y="-315" font-family="Helvetica,sans-Serif" font-size="10.00">scale/scale.hpp</text>
</a>
</g>
</g>
<!-- Node3&#45;&gt;Node14 -->
<g id="edge13" class="edge">
<title>Node3&#45;&gt;Node14</title>
<path fill="none" stroke="#63b8ff" d="M1430.52,-483.61C1329.5,-449.4 1076.19,-363.61 980.45,-331.18"/>
<polygon fill="#63b8ff" stroke="#63b8ff" points="981.6,-327.88 971.01,-327.98 979.35,-334.51 981.6,-327.88"/>
</g>
<!-- Node32 -->
<g id="node28" class="node">
<title>Node32</title>
<g id="a_node28"><a xlink:href="visitor_8hpp.html" target="_top" xlink:title=" ">
<polygon fill="white" stroke="#666666" points="208.5,-140 123.5,-140 123.5,-121 208.5,-121 208.5,-140"/>
<text text-anchor="middle" x="166" y="-128" font-family="Helvetica,sans-Serif" font-size="10.00">base/visitor.hpp</text>
</a>
</g>
</g>
<!-- Node3&#45;&gt;Node32 -->
<g id="edge61" class="edge">
<title>Node3&#45;&gt;Node32</title>
<path fill="none" stroke="#63b8ff" d="M1426.06,-497.66C1217.31,-495.94 378.63,-486.66 268,-448 215,-429.48 166,-429.64 166,-373.5 166,-373.5 166,-373.5 166,-256 166,-219.17 166,-176.22 166,-151.61"/>
<polygon fill="#63b8ff" stroke="#63b8ff" points="169.5,-151.77 166,-141.77 162.5,-151.77 169.5,-151.77"/>
</g>
<!-- Node39 -->
<g id="node35" class="node">
<title>Node39</title>
<g id="a_node35"><a xlink:href="blob_8hpp.html" target="_top" xlink:title=" ">
<polygon fill="white" stroke="#666666" points="1456.5,-200.5 1379.5,-200.5 1379.5,-181.5 1456.5,-181.5 1456.5,-200.5"/>
<text text-anchor="middle" x="1418" y="-188.5" font-family="Helvetica,sans-Serif" font-size="10.00">base/blob.hpp</text>
</a>
</g>
</g>
<!-- Node3&#45;&gt;Node39 -->
<g id="edge52" class="edge">
<title>Node3&#45;&gt;Node39</title>
<path fill="none" stroke="#63b8ff" d="M1452.36,-483.74C1424.96,-462.95 1380,-421.52 1380,-373.5 1380,-373.5 1380,-373.5 1380,-316.5 1380,-277.66 1397.13,-234.85 1408.39,-210.91"/>
<polygon fill="#63b8ff" stroke="#63b8ff" points="1411.43,-212.66 1412.68,-202.14 1405.14,-209.59 1411.43,-212.66"/>
</g>
<!-- Node43 -->
<g id="node39" class="node">
<title>Node43</title>
<g id="a_node39"><a xlink:href="wrapper_8hpp.html" target="_top" xlink:title=" ">
<polygon fill="white" stroke="#666666" points="1687.5,-382 1594.5,-382 1594.5,-363 1687.5,-363 1687.5,-382"/>
<text text-anchor="middle" x="1641" y="-370" font-family="Helvetica,sans-Serif" font-size="10.00">base/wrapper.hpp</text>
</a>
</g>
</g>
<!-- Node3&#45;&gt;Node43 -->
<g id="edge62" class="edge">
<title>Node3&#45;&gt;Node43</title>
<path fill="none" stroke="#63b8ff" d="M1514.8,-483.55C1535.64,-475.13 1560.49,-463.17 1580,-448 1600.35,-432.18 1618.32,-408.38 1629.39,-391.96"/>
<polygon fill="#63b8ff" stroke="#63b8ff" points="1632.27,-393.95 1634.8,-383.66 1626.41,-390.13 1632.27,-393.95"/>
</g>
<!-- Node45 -->
<g id="node41" class="node">
<title>Node45</title>
<g id="a_node41"><a xlink:href="src_2verification_2finality_2common_8hpp.html" target="_top" xlink:title=" ">
<polygon fill="white" stroke="#666666" points="1837.5,-448 1744.5,-448 1744.5,-418 1837.5,-418 1837.5,-448"/>
<text text-anchor="start" x="1752.5" y="-436" font-family="Helvetica,sans-Serif" font-size="10.00">verification/finality</text>
<text text-anchor="middle" x="1791" y="-425" font-family="Helvetica,sans-Serif" font-size="10.00">/common.hpp</text>
</a>
</g>
</g>
<!-- Node3&#45;&gt;Node45 -->
<g id="edge66" class="edge">
<title>Node3&#45;&gt;Node45</title>
<path fill="none" stroke="#63b8ff" d="M1519.99,-489.35C1571.59,-479.73 1656.85,-463.5 1730,-448 1731,-447.79 1732.01,-447.57 1733.02,-447.35"/>
<polygon fill="#63b8ff" stroke="#63b8ff" points="1733.58,-450.82 1742.6,-445.26 1732.08,-443.98 1733.58,-450.82"/>
</g>
<!-- Node49 -->
<g id="node45" class="node">
<title>Node49</title>
<g id="a_node45"><a xlink:href="ed25519__types_8hpp.html" target="_top" xlink:title=" ">
<polygon fill="white" stroke="#666666" points="1537.5,-382 1408.5,-382 1408.5,-363 1537.5,-363 1537.5,-382"/>
<text text-anchor="middle" x="1473" y="-370" font-family="Helvetica,sans-Serif" font-size="10.00">crypto/ed25519_types.hpp</text>
</a>
</g>
</g>
<!-- Node3&#45;&gt;Node49 -->
<g id="edge83" class="edge">
<title>Node3&#45;&gt;Node49</title>
<path fill="none" stroke="#63b8ff" d="M1473,-483.72C1473,-461.64 1473,-419.12 1473,-393.83"/>
<polygon fill="#63b8ff" stroke="#63b8ff" points="1476.5,-393.9 1473,-383.9 1469.5,-393.9 1476.5,-393.9"/>
</g>
<!-- Node51 -->
<g id="node47" class="node">
<title>Node51</title>
<g id="a_node47"><a xlink:href="authority_8hpp.html" target="_top" xlink:title=" ">
<polygon fill="white" stroke="#666666" points="2102,-382 1986,-382 1986,-363 2102,-363 2102,-382"/>
<text text-anchor="middle" x="2044" y="-370" font-family="Helvetica,sans-Serif" font-size="10.00">primitives/authority.hpp</text>
</a>
</g>
</g>
<!-- Node3&#45;&gt;Node51 -->
<g id="edge84" class="edge">
<title>Node3&#45;&gt;Node51</title>
<path fill="none" stroke="#63b8ff" d="M1519.71,-495.2C1591.14,-490.14 1731.4,-477.18 1847,-448 1908.31,-432.53 1976.68,-403.96 2014.6,-387.05"/>
<polygon fill="#63b8ff" stroke="#63b8ff" points="2015.84,-390.33 2023.52,-383.03 2012.97,-383.95 2015.84,-390.33"/>
</g>
<!-- Node53 -->
<g id="node49" class="node">
<title>Node53</title>
<g id="a_node49"><a xlink:href="src_2primitives_2common_8hpp.html" target="_top" xlink:title=" ">
<polygon fill="white" stroke="#666666" points="1904.5,-327 1787.5,-327 1787.5,-308 1904.5,-308 1904.5,-327"/>
<text text-anchor="middle" x="1846" y="-315" font-family="Helvetica,sans-Serif" font-size="10.00">primitives/common.hpp</text>
</a>
</g>
</g>
<!-- Node3&#45;&gt;Node53 -->
<g id="edge85" class="edge">
<title>Node3&#45;&gt;Node53</title>
<path fill="none" stroke="#63b8ff" d="M1519.74,-483.67C1546.26,-474.81 1579.71,-462.39 1608,-448 1668.87,-417.04 1675.6,-394.86 1736,-363 1759.43,-350.64 1787.08,-339.47 1808.79,-331.41"/>
<polygon fill="#63b8ff" stroke="#63b8ff" points="1809.93,-334.72 1818.13,-328.01 1807.54,-328.15 1809.93,-334.72"/>
</g>
<!-- Node7 -->
<g id="node7" class="node">
<title>Node7</title>
<g id="a_node7"><a xlink:title=" ">
<polygon fill="#e0e0e0" stroke="#999999" points="1606,-79.5 1540,-79.5 1540,-60.5 1606,-60.5 1606,-79.5"/>
<text text-anchor="middle" x="1573" y="-67.5" font-family="Helvetica,sans-Serif" font-size="10.00">string_view</text>
</a>
</g>
</g>
<!-- Node6&#45;&gt;Node7 -->
<g id="edge6" class="edge">
<title>Node6&#45;&gt;Node7</title>
<path fill="none" stroke="#63b8ff" d="M1709.55,-120.62C1682.6,-110.82 1639.01,-94.98 1608.34,-83.84"/>
<polygon fill="#63b8ff" stroke="#63b8ff" points="1609.7,-80.61 1599.11,-80.49 1607.31,-87.19 1609.7,-80.61"/>
</g>
<!-- Node8 -->
<g id="node8" class="node">
<title>Node8</title>
<g id="a_node8"><a xlink:title=" ">
<polygon fill="#e0e0e0" stroke="#999999" points="1042,-79.5 998,-79.5 998,-60.5 1042,-60.5 1042,-79.5"/>
<text text-anchor="middle" x="1020" y="-67.5" font-family="Helvetica,sans-Serif" font-size="10.00">vector</text>
</a>
</g>
</g>
<!-- Node6&#45;&gt;Node8 -->
<g id="edge7" class="edge">
<title>Node6&#45;&gt;Node8</title>
<path fill="none" stroke="#63b8ff" d="M1692.02,-122.2C1688.97,-121.76 1685.94,-121.36 1683,-121 1559.04,-106.03 1171.09,-80.65 1053.88,-73.15"/>
<polygon fill="#63b8ff" stroke="#63b8ff" points="1054.19,-69.66 1043.98,-72.52 1053.74,-76.65 1054.19,-69.66"/>
</g>
<!-- Node9 -->
<g id="node9" class="node">
<title>Node9</title>
<g id="a_node9"><a xlink:title=" ">
<polygon fill="#e0e0e0" stroke="#999999" points="1762,-85 1652,-85 1652,-55 1762,-55 1762,-85"/>
<text text-anchor="start" x="1660" y="-73" font-family="Helvetica,sans-Serif" font-size="10.00">boost/container_hash</text>
<text text-anchor="middle" x="1707" y="-62" font-family="Helvetica,sans-Serif" font-size="10.00">/hash.hpp</text>
</a>
</g>
</g>
<!-- Node6&#45;&gt;Node9 -->
<g id="edge8" class="edge">
<title>Node6&#45;&gt;Node9</title>
<path fill="none" stroke="#63b8ff" d="M1730.02,-120.87C1726.93,-114.18 1722.49,-104.57 1718.34,-95.56"/>
<polygon fill="#63b8ff" stroke="#63b8ff" points="1721.52,-94.1 1714.15,-86.49 1715.16,-97.04 1721.52,-94.1"/>
</g>
<!-- Node10 -->
<g id="node10" class="node">
<title>Node10</title>
<g id="a_node10"><a xlink:title=" ">
<polygon fill="#e0e0e0" stroke="#999999" points="1882,-79.5 1780,-79.5 1780,-60.5 1882,-60.5 1882,-79.5"/>
<text text-anchor="middle" x="1831" y="-67.5" font-family="Helvetica,sans-Serif" font-size="10.00">boost/operators.hpp</text>
</a>
</g>
</g>
<!-- Node6&#45;&gt;Node10 -->
<g id="edge9" class="edge">
<title>Node6&#45;&gt;Node10</title>
<path fill="none" stroke="#63b8ff" d="M1748.73,-120.62C1764.04,-111.38 1788.27,-96.77 1806.47,-85.79"/>
<polygon fill="#63b8ff" stroke="#63b8ff" points="1808.08,-88.91 1814.83,-80.75 1804.46,-82.92 1808.08,-88.91"/>
</g>
<!-- Node11 -->
<g id="node11" class="node">
<title>Node11</title>
<g id="a_node11"><a xlink:title=" ">
<polygon fill="#e0e0e0" stroke="#999999" points="1330.5,-79.5 1277.5,-79.5 1277.5,-60.5 1330.5,-60.5 1330.5,-79.5"/>
<text text-anchor="middle" x="1304" y="-67.5" font-family="Helvetica,sans-Serif" font-size="10.00">gsl/span</text>
</a>
</g>
</g>
<!-- Node6&#45;&gt;Node11 -->
<g id="edge10" class="edge">
<title>Node6&#45;&gt;Node11</title>
<path fill="none" stroke="#63b8ff" d="M1692.01,-122.3C1688.96,-121.84 1685.94,-121.4 1683,-121 1532.43,-100.5 1491.12,-118.91 1343,-85 1340.98,-84.54 1338.93,-84 1336.87,-83.42"/>
<polygon fill="#63b8ff" stroke="#63b8ff" points="1338.03,-80.12 1327.44,-80.39 1335.89,-86.78 1338.03,-80.12"/>
</g>
<!-- Node12 -->
<g id="node12" class="node">
<title>Node12</title>
<g id="a_node12"><a xlink:href="outcome_8hpp.html" target="_top" xlink:title=" ">
<polygon fill="white" stroke="#666666" points="1465.5,-79.5 1352.5,-79.5 1352.5,-60.5 1465.5,-60.5 1465.5,-79.5"/>
<text text-anchor="middle" x="1409" y="-67.5" font-family="Helvetica,sans-Serif" font-size="10.00">outcome/outcome.hpp</text>
</a>
</g>
</g>
<!-- Node6&#45;&gt;Node12 -->
<g id="edge11" class="edge">
<title>Node6&#45;&gt;Node12</title>
<path fill="none" stroke="#63b8ff" d="M1692.18,-121.97C1635.81,-111.83 1535.08,-93.69 1470.19,-82.01"/>
<polygon fill="#63b8ff" stroke="#63b8ff" points="1470.86,-78.58 1460.4,-80.25 1469.62,-85.47 1470.86,-78.58"/>
</g>
<!-- Node13 -->
<g id="node13" class="node">
<title>Node13</title>
<g id="a_node13"><a xlink:title=" ">
<polygon fill="#e0e0e0" stroke="#999999" points="1479.5,-19 1338.5,-19 1338.5,0 1479.5,0 1479.5,-19"/>
<text text-anchor="middle" x="1409" y="-7" font-family="Helvetica,sans-Serif" font-size="10.00">libp2p/outcome/outcome.hpp</text>
</a>
</g>
</g>
<!-- Node12&#45;&gt;Node13 -->
<g id="edge12" class="edge">
<title>Node12&#45;&gt;Node13</title>
<path fill="none" stroke="#63b8ff" d="M1409,-60.37C1409,-52.5 1409,-40.6 1409,-30.39"/>
<polygon fill="#63b8ff" stroke="#63b8ff" points="1412.5,-30.68 1409,-20.68 1405.5,-30.68 1412.5,-30.68"/>
</g>
<!-- Node14&#45;&gt;Node8 -->
<g id="edge14" class="edge">
<title>Node14&#45;&gt;Node8</title>
<path fill="none" stroke="#63b8ff" d="M900.83,-313.79C790.67,-305.74 498.8,-277.9 441,-206 432.65,-195.61 436.59,-188.58 441,-176 451.36,-146.46 457.45,-135.86 485,-121 572.17,-73.98 882.82,-70.56 986.23,-70.76"/>
<polygon fill="#63b8ff" stroke="#63b8ff" points="985.99,-74.26 996,-70.8 986.02,-67.26 985.99,-74.26"/>
</g>
<!-- Node14&#45;&gt;Node11 -->
<g id="edge17" class="edge">
<title>Node14&#45;&gt;Node11</title>
<path fill="none" stroke="#63b8ff" d="M985.23,-314.44C1054.75,-308.73 1193.19,-287.19 1270,-206 1299.95,-174.34 1304.58,-120.3 1304.7,-91.12"/>
<polygon fill="#63b8ff" stroke="#63b8ff" points="1308.2,-91.41 1304.54,-81.46 1301.2,-91.52 1308.2,-91.41"/>
</g>
<!-- Node14&#45;&gt;Node12 -->
<g id="edge18" class="edge">
<title>Node14&#45;&gt;Node12</title>
<path fill="none" stroke="#63b8ff" d="M985.35,-316.29C1040.41,-314.53 1138.46,-306.3 1214,-272 1299.28,-233.27 1299.51,-191.65 1361,-121 1370.92,-109.6 1382.66,-97.36 1392.04,-87.84"/>
<polygon fill="#63b8ff" stroke="#63b8ff" points="1394.24,-90.59 1398.81,-81.04 1389.28,-85.66 1394.24,-90.59"/>
</g>
<!-- Node15 -->
<g id="node15" class="node">
<title>Node15</title>
<g id="a_node15"><a xlink:title=" ">
<polygon fill="#e0e0e0" stroke="#999999" points="437,-85 327,-85 327,-55 437,-55 437,-85"/>
<text text-anchor="start" x="335" y="-73" font-family="Helvetica,sans-Serif" font-size="10.00">boost/system/system</text>
<text text-anchor="middle" x="382" y="-62" font-family="Helvetica,sans-Serif" font-size="10.00">_error.hpp</text>
</a>
</g>
</g>
<!-- Node14&#45;&gt;Node15 -->
<g id="edge15" class="edge">
<title>Node14&#45;&gt;Node15</title>
<path fill="none" stroke="#63b8ff" d="M900.79,-316.35C792.98,-315.4 510.02,-309.34 425,-272 358.82,-242.94 342.06,-211.27 330,-140 328.59,-131.67 326.69,-128.77 330,-121 334.64,-110.11 342.94,-100.45 351.56,-92.59"/>
<polygon fill="#63b8ff" stroke="#63b8ff" points="353.61,-95.44 359.01,-86.33 349.11,-90.08 353.61,-95.44"/>
</g>
<!-- Node16 -->
<g id="node16" class="node">
<title>Node16</title>
<g id="a_node16"><a xlink:title=" ">
<polygon fill="#e0e0e0" stroke="#999999" points="599,-79.5 467,-79.5 467,-60.5 599,-60.5 599,-79.5"/>
<text text-anchor="middle" x="533" y="-67.5" font-family="Helvetica,sans-Serif" font-size="10.00">boost/throw_exception.hpp</text>
</a>
</g>
</g>
<!-- Node14&#45;&gt;Node16 -->
<g id="edge16" class="edge">
<title>Node14&#45;&gt;Node16</title>
<path fill="none" stroke="#63b8ff" d="M900.5,-315.48C803.14,-312.62 566.72,-302.66 494,-272 410,-236.59 375.49,-222.64 337,-140 333.43,-132.34 331.82,-127.67 337,-121 345.62,-109.91 420.01,-93.15 474.6,-82.15"/>
<polygon fill="#63b8ff" stroke="#63b8ff" points="474.97,-85.64 484.09,-80.25 473.6,-78.78 474.97,-85.64"/>
</g>
<!-- Node17 -->
<g id="node17" class="node">
<title>Node17</title>
<g id="a_node17"><a xlink:href="scale__decoder__stream_8hpp.html" target="_top" xlink:title=" ">
<polygon fill="white" stroke="#666666" points="895,-272 789,-272 789,-242 895,-242 895,-272"/>
<text text-anchor="start" x="797" y="-260" font-family="Helvetica,sans-Serif" font-size="10.00">scale/scale_decoder</text>
<text text-anchor="middle" x="842" y="-249" font-family="Helvetica,sans-Serif" font-size="10.00">_stream.hpp</text>
</a>
</g>
</g>
<!-- Node14&#45;&gt;Node17 -->
<g id="edge19" class="edge">
<title>Node14&#45;&gt;Node17</title>
<path fill="none" stroke="#63b8ff" d="M927.66,-307.62C914.19,-299.81 894.09,-288.17 876.75,-278.13"/>
<polygon fill="#63b8ff" stroke="#63b8ff" points="878.65,-275.18 868.24,-273.2 875.14,-281.24 878.65,-275.18"/>
</g>
<!-- Node37 -->
<g id="node33" class="node">
<title>Node37</title>
<g id="a_node33"><a xlink:href="scale__encoder__stream_8hpp.html" target="_top" xlink:title=" ">
<polygon fill="white" stroke="#666666" points="1080,-272 974,-272 974,-242 1080,-242 1080,-272"/>
<text text-anchor="start" x="982" y="-260" font-family="Helvetica,sans-Serif" font-size="10.00">scale/scale_encoder</text>
<text text-anchor="middle" x="1027" y="-249" font-family="Helvetica,sans-Serif" font-size="10.00">_stream.hpp</text>
</a>
</g>
</g>
<!-- Node14&#45;&gt;Node37 -->
<g id="edge44" class="edge">
<title>Node14&#45;&gt;Node37</title>
<path fill="none" stroke="#63b8ff" d="M955.76,-307.62C966.65,-300.03 982.74,-288.82 996.88,-278.98"/>
<polygon fill="#63b8ff" stroke="#63b8ff" points="998.82,-281.89 1005.02,-273.3 994.82,-276.15 998.82,-281.89"/>
</g>
<!-- Node17&#45;&gt;Node11 -->
<g id="edge23" class="edge">
<title>Node17&#45;&gt;Node11</title>
<path fill="none" stroke="#63b8ff" d="M790.1,-241.51C772.67,-233.9 755.11,-222.58 745,-206 718.62,-162.73 773.66,-139.08 821,-121 902.26,-89.97 1166.36,-76.48 1265.73,-72.41"/>
<polygon fill="#63b8ff" stroke="#63b8ff" points="1265.64,-75.92 1275.49,-72.02 1265.36,-68.92 1265.64,-75.92"/>
</g>
<!-- Node18 -->
<g id="node18" class="node">
<title>Node18</title>
<g id="a_node18"><a xlink:title=" ">
<polygon fill="#e0e0e0" stroke="#999999" points="1096,-140 1058,-140 1058,-121 1096,-121 1096,-140"/>
<text text-anchor="middle" x="1077" y="-128" font-family="Helvetica,sans-Serif" font-size="10.00">array</text>
</a>
</g>
</g>
<!-- Node17&#45;&gt;Node18 -->
<g id="edge20" class="edge">
<title>Node17&#45;&gt;Node18</title>
<path fill="none" stroke="#63b8ff" d="M848.23,-241.74C856.91,-223.59 874.4,-192.6 899,-176 952.94,-139.6 980.02,-156.05 1046.71,-140.32"/>
<polygon fill="#63b8ff" stroke="#63b8ff" points="1047.47,-143.74 1056.3,-137.88 1045.74,-136.95 1047.47,-143.74"/>
</g>
<!-- Node19 -->
<g id="node19" class="node">
<title>Node19</title>
<g id="a_node19"><a xlink:title=" ">
<polygon fill="#e0e0e0" stroke="#999999" points="564,-206 460,-206 460,-176 564,-176 564,-206"/>
<text text-anchor="start" x="468" y="-194" font-family="Helvetica,sans-Serif" font-size="10.00">boost/multiprecision</text>
<text text-anchor="middle" x="512" y="-183" font-family="Helvetica,sans-Serif" font-size="10.00">/cpp_int.hpp</text>
</a>
</g>
</g>
<!-- Node17&#45;&gt;Node19 -->
<g id="edge21" class="edge">
<title>Node17&#45;&gt;Node19</title>
<path fill="none" stroke="#63b8ff" d="M788.54,-246.74C736.6,-237.6 655.25,-222.87 575.46,-206.46"/>
<polygon fill="#63b8ff" stroke="#63b8ff" points="576.2,-203.04 565.69,-204.44 574.78,-209.89 576.2,-203.04"/>
</g>
<!-- Node20 -->
<g id="node20" class="node">
<title>Node20</title>
<g id="a_node20"><a xlink:title=" ">
<polygon fill="#e0e0e0" stroke="#999999" points="1176.5,-200.5 1081.5,-200.5 1081.5,-181.5 1176.5,-181.5 1176.5,-200.5"/>
<text text-anchor="middle" x="1129" y="-188.5" font-family="Helvetica,sans-Serif" font-size="10.00">boost/optional.hpp</text>
</a>
</g>
</g>
<!-- Node17&#45;&gt;Node20 -->
<g id="edge22" class="edge">
<title>Node17&#45;&gt;Node20</title>
<path fill="none" stroke="#63b8ff" d="M895.07,-244.88C941.75,-235.01 1011.49,-220.01 1072,-206 1075.32,-205.23 1078.74,-204.43 1082.19,-203.6"/>
<polygon fill="#63b8ff" stroke="#63b8ff" points="1082.78,-207.06 1091.68,-201.31 1081.14,-200.26 1082.78,-207.06"/>
</g>
<!-- Node21 -->
<g id="node21" class="node">
<title>Node21</title>
<g id="a_node21"><a xlink:href="outcome__throw_8hpp.html" target="_top" xlink:title=" ">
<polygon fill="white" stroke="#666666" points="619.5,-140 494.5,-140 494.5,-121 619.5,-121 619.5,-140"/>
<text text-anchor="middle" x="557" y="-128" font-family="Helvetica,sans-Serif" font-size="10.00">base/outcome_throw.hpp</text>
</a>
</g>
</g>
<!-- Node17&#45;&gt;Node21 -->
<g id="edge24" class="edge">
<title>Node17&#45;&gt;Node21</title>
<path fill="none" stroke="#63b8ff" d="M788.56,-253.03C686.72,-246.82 472.96,-230.95 451,-206 442.19,-195.99 443.62,-187.1 451,-176 461.11,-160.79 477.54,-150.77 494.47,-144.17"/>
<polygon fill="#63b8ff" stroke="#63b8ff" points="495.31,-147.58 503.6,-140.98 493.01,-140.97 495.31,-147.58"/>
</g>
<!-- Node22 -->
<g id="node22" class="node">
<title>Node22</title>
<g id="a_node22"><a xlink:href="fixed__witdh__integer_8hpp.html" target="_top" xlink:title=" ">
<polygon fill="#fff0f0" stroke="red" points="852,-206 754,-206 754,-176 852,-176 852,-206"/>
<text text-anchor="start" x="762" y="-194" font-family="Helvetica,sans-Serif" font-size="10.00">scale/detail/fixed</text>
<text text-anchor="middle" x="803" y="-183" font-family="Helvetica,sans-Serif" font-size="10.00">_witdh_integer.hpp</text>
</a>
</g>
</g>
<!-- Node17&#45;&gt;Node22 -->
<g id="edge27" class="edge">
<title>Node17&#45;&gt;Node22</title>
<path fill="none" stroke="#63b8ff" d="M833.34,-241.8C828.7,-234.17 822.85,-224.57 817.53,-215.84"/>
<polygon fill="#63b8ff" stroke="#63b8ff" points="820.61,-214.17 812.42,-207.46 814.63,-217.82 820.61,-214.17"/>
</g>
<!-- Node29 -->
<g id="node26" class="node">
<title>Node29</title>
<g id="a_node26"><a xlink:href="tuple_8hpp.html" target="_top" xlink:title=" ">
<polygon fill="#fff0f0" stroke="red" points="1016,-200.5 908,-200.5 908,-181.5 1016,-181.5 1016,-200.5"/>
<text text-anchor="middle" x="962" y="-188.5" font-family="Helvetica,sans-Serif" font-size="10.00">scale/detail/tuple.hpp</text>
</a>
</g>
</g>
<!-- Node17&#45;&gt;Node29 -->
<g id="edge34" class="edge">
<title>Node17&#45;&gt;Node29</title>
<path fill="none" stroke="#63b8ff" d="M868.93,-241.64C888.73,-231.08 915.51,-216.79 935.26,-206.26"/>
<polygon fill="#63b8ff" stroke="#63b8ff" points="936.64,-209.49 943.82,-201.7 933.35,-203.32 936.64,-209.49"/>
</g>
<!-- Node31 -->
<g id="node27" class="node">
<title>Node31</title>
<g id="a_node27"><a xlink:href="variant_8hpp.html" target="_top" xlink:title=" ">
<polygon fill="#fff0f0" stroke="red" points="698,-200.5 582,-200.5 582,-181.5 698,-181.5 698,-200.5"/>
<text text-anchor="middle" x="640" y="-188.5" font-family="Helvetica,sans-Serif" font-size="10.00">scale/detail/variant.hpp</text>
</a>
</g>
</g>
<!-- Node17&#45;&gt;Node31 -->
<g id="edge35" class="edge">
<title>Node17&#45;&gt;Node31</title>
<path fill="none" stroke="#63b8ff" d="M796.42,-241.56C761.08,-230.36 712.64,-215.01 679.06,-204.38"/>
<polygon fill="#63b8ff" stroke="#63b8ff" points="680.32,-201.1 669.73,-201.42 678.21,-207.78 680.32,-201.1"/>
</g>
<!-- Node36 -->
<g id="node32" class="node">
<title>Node36</title>
<g id="a_node32"><a xlink:title=" ">
<polygon fill="#e0e0e0" stroke="#999999" points="1063.5,-200.5 1034.5,-200.5 1034.5,-181.5 1063.5,-181.5 1063.5,-200.5"/>
<text text-anchor="middle" x="1049" y="-188.5" font-family="Helvetica,sans-Serif" font-size="10.00">list</text>
</a>
</g>
</g>
<!-- Node17&#45;&gt;Node36 -->
<g id="edge43" class="edge">
<title>Node17&#45;&gt;Node36</title>
<path fill="none" stroke="#63b8ff" d="M895.28,-245.32C929.99,-237.49 976.16,-225.45 1024.71,-205.34"/>
<polygon fill="#63b8ff" stroke="#63b8ff" points="1025.88,-208.65 1033.71,-201.52 1023.14,-202.21 1025.88,-208.65"/>
</g>
<!-- Node21&#45;&gt;Node15 -->
<g id="edge25" class="edge">
<title>Node21&#45;&gt;Node15</title>
<path fill="none" stroke="#63b8ff" d="M530.42,-120.62C505.45,-112.27 467.32,-99.52 435.97,-89.04"/>
<polygon fill="#63b8ff" stroke="#63b8ff" points="437.22,-85.77 426.63,-85.92 435.01,-92.41 437.22,-85.77"/>
</g>
<!-- Node21&#45;&gt;Node16 -->
<g id="edge26" class="edge">
<title>Node21&#45;&gt;Node16</title>
<path fill="none" stroke="#63b8ff" d="M553.46,-120.87C550.16,-112.83 545.13,-100.57 540.88,-90.22"/>
<polygon fill="#63b8ff" stroke="#63b8ff" points="544.16,-88.99 537.13,-81.07 537.69,-91.65 544.16,-88.99"/>
</g>
<!-- Node22&#45;&gt;Node8 -->
<g id="edge31" class="edge">
<title>Node22&#45;&gt;Node8</title>
<path fill="none" stroke="#63b8ff" d="M802.7,-175.78C803.17,-160.18 806.4,-135.47 821,-121 844.19,-98.02 936.2,-82.31 986.58,-75.25"/>
<polygon fill="#63b8ff" stroke="#63b8ff" points="986.91,-78.73 996.34,-73.92 985.96,-71.8 986.91,-78.73"/>
</g>
<!-- Node22&#45;&gt;Node18 -->
<g id="edge29" class="edge">
<title>Node22&#45;&gt;Node18</title>
<path fill="none" stroke="#63b8ff" d="M852.5,-178.88C857.06,-177.89 861.61,-176.92 866,-176 943.65,-159.74 966.62,-160.01 1046.66,-140.38"/>
<polygon fill="#63b8ff" stroke="#63b8ff" points="1047.46,-143.78 1056.32,-137.97 1045.77,-136.99 1047.46,-143.78"/>
</g>
<!-- Node22&#45;&gt;Node21 -->
<g id="edge33" class="edge">
<title>Node22&#45;&gt;Node21</title>
<path fill="none" stroke="#63b8ff" d="M753.51,-178.23C710.5,-168 648.53,-153.27 605.73,-143.09"/>
<polygon fill="#63b8ff" stroke="#63b8ff" points="606.76,-139.74 596.22,-140.83 605.14,-146.55 606.76,-139.74"/>
</g>
<!-- Node23 -->
<g id="node23" class="node">
<title>Node23</title>
<g id="a_node23"><a xlink:title=" ">
<polygon fill="#e0e0e0" stroke="#999999" points="1040,-140 984,-140 984,-121 1040,-121 1040,-140"/>
<text text-anchor="middle" x="1012" y="-128" font-family="Helvetica,sans-Serif" font-size="10.00">algorithm</text>
</a>
</g>
</g>
<!-- Node22&#45;&gt;Node23 -->
<g id="edge28" class="edge">
<title>Node22&#45;&gt;Node23</title>
<path fill="none" stroke="#63b8ff" d="M852.27,-176.21C889.02,-165.92 938.57,-152.05 972.69,-142.5"/>
<polygon fill="#63b8ff" stroke="#63b8ff" points="973.48,-145.92 982.17,-139.85 971.6,-139.18 973.48,-145.92"/>
</g>
<!-- Node24 -->
<g id="node24" class="node">
<title>Node24</title>
<g id="a_node24"><a xlink:title=" ">
<polygon fill="#e0e0e0" stroke="#999999" points="1981,-140 1935,-140 1935,-121 1981,-121 1981,-140"/>
<text text-anchor="middle" x="1958" y="-128" font-family="Helvetica,sans-Serif" font-size="10.00">cstdint</text>
</a>
</g>
</g>
<!-- Node22&#45;&gt;Node24 -->
<g id="edge30" class="edge">
<title>Node22&#45;&gt;Node24</title>
<path fill="none" stroke="#63b8ff" d="M852.21,-181.82C867.2,-179.6 883.74,-177.42 899,-176 1291.41,-139.51 1391.29,-157.67 1785,-140 1832.97,-137.85 1888.4,-135.07 1923.33,-133.29"/>
<polygon fill="#63b8ff" stroke="#63b8ff" points="1923.46,-136.79 1933.27,-132.78 1923.1,-129.8 1923.46,-136.79"/>
</g>
<!-- Node25 -->
<g id="node25" class="node">
<title>Node25</title>
<g id="a_node25"><a xlink:title=" ">
<polygon fill="#e0e0e0" stroke="#999999" points="966,-140 830,-140 830,-121 966,-121 966,-140"/>
<text text-anchor="middle" x="898" y="-128" font-family="Helvetica,sans-Serif" font-size="10.00">boost/endian/arithmetic.hpp</text>
</a>
</g>
</g>
<!-- Node22&#45;&gt;Node25 -->
<g id="edge32" class="edge">
<title>Node22&#45;&gt;Node25</title>
<path fill="none" stroke="#63b8ff" d="M826.48,-175.54C840.9,-166.66 859.31,-155.32 873.85,-146.37"/>
<polygon fill="#63b8ff" stroke="#63b8ff" points="875.67,-149.36 882.35,-141.14 872,-143.4 875.67,-149.36"/>
</g>
<!-- Node31&#45;&gt;Node5 -->
<g id="edge36" class="edge">
<title>Node31&#45;&gt;Node5</title>
<path fill="none" stroke="#63b8ff" d="M602.06,-181.05C558.94,-170.88 488.42,-154.24 441.13,-143.09"/>
<polygon fill="#63b8ff" stroke="#63b8ff" points="441.94,-139.68 431.4,-140.8 440.33,-146.5 441.94,-139.68"/>
</g>
<!-- Node31&#45;&gt;Node12 -->
<g id="edge37" class="edge">
<title>Node31&#45;&gt;Node12</title>
<path fill="none" stroke="#63b8ff" d="M657.95,-181.1C689.85,-165.77 758.93,-134.67 821,-121 1046.38,-71.36 1110.27,-115.69 1339,-85 1345.06,-84.19 1351.39,-83.17 1357.66,-82.05"/>
<polygon fill="#63b8ff" stroke="#63b8ff" points="1358.13,-85.52 1367.31,-80.24 1356.84,-78.64 1358.13,-85.52"/>
</g>
<!-- Node31&#45;&gt;Node21 -->
<g id="edge38" class="edge">
<title>Node31&#45;&gt;Node21</title>
<path fill="none" stroke="#63b8ff" d="M627.39,-181.12C614.6,-172.1 594.52,-157.95 579.08,-147.06"/>
<polygon fill="#63b8ff" stroke="#63b8ff" points="581.15,-144.24 570.96,-141.34 577.12,-149.96 581.15,-144.24"/>
</g>
<!-- Node31&#45;&gt;Node32 -->
<g id="edge39" class="edge">
<title>Node31&#45;&gt;Node32</title>
<path fill="none" stroke="#63b8ff" d="M600.44,-181.07C591.45,-179.23 581.92,-177.42 573,-176 447.21,-156.03 298.11,-142.21 219.96,-135.72"/>
<polygon fill="#63b8ff" stroke="#63b8ff" points="220.72,-132.27 210.47,-134.94 220.15,-139.25 220.72,-132.27"/>
</g>
<!-- Node33 -->
<g id="node29" class="node">
<title>Node33</title>
<g id="a_node29"><a xlink:title=" ">
<polygon fill="#e0e0e0" stroke="#999999" points="284,-79.5 222,-79.5 222,-60.5 284,-60.5 284,-79.5"/>
<text text-anchor="middle" x="253" y="-67.5" font-family="Helvetica,sans-Serif" font-size="10.00">type_traits</text>
</a>
</g>
</g>
<!-- Node32&#45;&gt;Node33 -->
<g id="edge40" class="edge">
<title>Node32&#45;&gt;Node33</title>
<path fill="none" stroke="#63b8ff" d="M179.21,-120.62C192.75,-111.51 214.07,-97.18 230.32,-86.25"/>
<polygon fill="#63b8ff" stroke="#63b8ff" points="232.06,-89.3 238.41,-80.81 228.15,-83.49 232.06,-89.3"/>
</g>
<!-- Node34 -->
<g id="node30" class="node">
<title>Node34</title>
<g id="a_node30"><a xlink:title=" ">
<polygon fill="#e0e0e0" stroke="#999999" points="87.5,-79.5 48.5,-79.5 48.5,-60.5 87.5,-60.5 87.5,-79.5"/>
<text text-anchor="middle" x="68" y="-67.5" font-family="Helvetica,sans-Serif" font-size="10.00">utility</text>
</a>
</g>
</g>
<!-- Node32&#45;&gt;Node34 -->
<g id="edge41" class="edge">
<title>Node32&#45;&gt;Node34</title>
<path fill="none" stroke="#63b8ff" d="M151.12,-120.62C135.65,-111.38 111.17,-96.77 92.78,-85.79"/>
<polygon fill="#63b8ff" stroke="#63b8ff" points="94.7,-82.86 84.32,-80.74 91.12,-88.88 94.7,-82.86"/>
</g>
<!-- Node35 -->
<g id="node31" class="node">
<title>Node35</title>
<g id="a_node31"><a xlink:title=" ">
<polygon fill="#e0e0e0" stroke="#999999" points="204,-85 106,-85 106,-55 204,-55 204,-85"/>
<text text-anchor="start" x="114" y="-73" font-family="Helvetica,sans-Serif" font-size="10.00">boost/variant/apply</text>
<text text-anchor="middle" x="155" y="-62" font-family="Helvetica,sans-Serif" font-size="10.00">_visitor.hpp</text>
</a>
</g>
</g>
<!-- Node32&#45;&gt;Node35 -->
<g id="edge42" class="edge">
<title>Node32&#45;&gt;Node35</title>
<path fill="none" stroke="#63b8ff" d="M164.38,-120.87C163.15,-114.33 161.39,-104.99 159.73,-96.15"/>
<polygon fill="#63b8ff" stroke="#63b8ff" points="163.22,-95.78 157.93,-86.6 156.34,-97.08 163.22,-95.78"/>
</g>
<!-- Node37&#45;&gt;Node11 -->
<g id="edge47" class="edge">
<title>Node37&#45;&gt;Node11</title>
<path fill="none" stroke="#63b8ff" d="M1080.46,-249.42C1136.94,-241.5 1221.21,-226.66 1246,-206 1264.59,-190.51 1287.48,-123.85 1298.08,-90.36"/>
<polygon fill="#63b8ff" stroke="#63b8ff" points="1301.33,-91.71 1300.96,-81.12 1294.65,-89.63 1301.33,-91.71"/>
</g>
<!-- Node37&#45;&gt;Node20 -->
<g id="edge46" class="edge">
<title>Node37&#45;&gt;Node20</title>
<path fill="none" stroke="#63b8ff" d="M1049.89,-241.64C1066.33,-231.32 1088.44,-217.45 1105.11,-206.99"/>
<polygon fill="#63b8ff" stroke="#63b8ff" points="1106.79,-210.07 1113.4,-201.79 1103.07,-204.14 1106.79,-210.07"/>
</g>
<!-- Node37&#45;&gt;Node22 -->
<g id="edge48" class="edge">
<title>Node37&#45;&gt;Node22</title>
<path fill="none" stroke="#63b8ff" d="M976.45,-241.56C942.77,-231.93 898.36,-219.24 862.9,-209.12"/>
<polygon fill="#63b8ff" stroke="#63b8ff" points="864.24,-205.86 853.67,-206.48 862.32,-212.59 864.24,-205.86"/>
</g>
<!-- Node37&#45;&gt;Node29 -->
<g id="edge49" class="edge">
<title>Node37&#45;&gt;Node29</title>
<path fill="none" stroke="#63b8ff" d="M1012.57,-241.8C1002.64,-232.01 989.4,-218.98 978.96,-208.7"/>
<polygon fill="#63b8ff" stroke="#63b8ff" points="981.64,-206.43 972.06,-201.91 976.73,-211.42 981.64,-206.43"/>
</g>
<!-- Node37&#45;&gt;Node31 -->
<g id="edge50" class="edge">
<title>Node37&#45;&gt;Node31</title>
<path fill="none" stroke="#63b8ff" d="M973.6,-247.17C903.68,-235.61 781.17,-215.35 705.66,-202.86"/>
<polygon fill="#63b8ff" stroke="#63b8ff" points="706.34,-199.42 695.91,-201.25 705.2,-206.33 706.34,-199.42"/>
</g>
<!-- Node37&#45;&gt;Node36 -->
<g id="edge51" class="edge">
<title>Node37&#45;&gt;Node36</title>
<path fill="none" stroke="#63b8ff" d="M1031.88,-241.8C1034.94,-232.89 1038.93,-221.3 1042.28,-211.54"/>
<polygon fill="#63b8ff" stroke="#63b8ff" points="1045.53,-212.87 1045.47,-202.28 1038.91,-210.59 1045.53,-212.87"/>
</g>
<!-- Node38 -->
<g id="node34" class="node">
<title>Node38</title>
<g id="a_node34"><a xlink:title=" ">
<polygon fill="#e0e0e0" stroke="#999999" points="1237.5,-200.5 1194.5,-200.5 1194.5,-181.5 1237.5,-181.5 1237.5,-200.5"/>
<text text-anchor="middle" x="1216" y="-188.5" font-family="Helvetica,sans-Serif" font-size="10.00">deque</text>
</a>
</g>
</g>
<!-- Node37&#45;&gt;Node38 -->
<g id="edge45" class="edge">
<title>Node37&#45;&gt;Node38</title>
<path fill="none" stroke="#63b8ff" d="M1078.04,-241.51C1109.25,-232.24 1149.8,-219.47 1185,-206 1185.62,-205.76 1186.25,-205.52 1186.88,-205.27"/>
<polygon fill="#63b8ff" stroke="#63b8ff" points="1187.88,-208.64 1195.74,-201.53 1185.16,-202.19 1187.88,-208.64"/>
</g>
<!-- Node39&#45;&gt;Node18 -->
<g id="edge53" class="edge">
<title>Node39&#45;&gt;Node18</title>
<path fill="none" stroke="#63b8ff" d="M1379.21,-183.35C1310.67,-171.59 1169.49,-147.37 1107.42,-136.72"/>
<polygon fill="#63b8ff" stroke="#63b8ff" points="1108.38,-133.33 1097.93,-135.09 1107.2,-140.23 1108.38,-133.33"/>
</g>
<!-- Node40 -->
<g id="node36" class="node">
<title>Node40</title>
<g id="a_node36"><a xlink:title=" ">
<polygon fill="#e0e0e0" stroke="#999999" points="1602,-140 1474,-140 1474,-121 1602,-121 1602,-140"/>
<text text-anchor="middle" x="1538" y="-128" font-family="Helvetica,sans-Serif" font-size="10.00">boost/functional/hash.hpp</text>
</a>
</g>
</g>
<!-- Node39&#45;&gt;Node40 -->
<g id="edge54" class="edge">
<title>Node39&#45;&gt;Node40</title>
<path fill="none" stroke="#63b8ff" d="M1436.23,-181.12C1455.7,-171.62 1486.82,-156.45 1509.53,-145.38"/>
<polygon fill="#63b8ff" stroke="#63b8ff" points="1510.79,-148.66 1518.24,-141.13 1507.72,-142.37 1510.79,-148.66"/>
</g>
<!-- Node41 -->
<g id="node37" class="node">
<title>Node41</title>
<g id="a_node37"><a xlink:href="hexutil_8hpp.html" target="_top" xlink:title=" ">
<polygon fill="white" stroke="#666666" points="1456,-140 1370,-140 1370,-121 1456,-121 1456,-140"/>
<text text-anchor="middle" x="1413" y="-128" font-family="Helvetica,sans-Serif" font-size="10.00">base/hexutil.hpp</text>
</a>
</g>
</g>
<!-- Node39&#45;&gt;Node41 -->
<g id="edge55" class="edge">
<title>Node39&#45;&gt;Node41</title>
<path fill="none" stroke="#63b8ff" d="M1417.26,-181.37C1416.59,-173.5 1415.57,-161.6 1414.7,-151.39"/>
<polygon fill="#63b8ff" stroke="#63b8ff" points="1418.21,-151.34 1413.87,-141.68 1411.23,-151.94 1418.21,-151.34"/>
</g>
<!-- Node42 -->
<g id="node38" class="node">
<title>Node42</title>
<g id="a_node38"><a xlink:title=" ">
<polygon fill="#e0e0e0" stroke="#999999" points="1674,-140 1620,-140 1620,-121 1674,-121 1674,-140"/>
<text text-anchor="middle" x="1647" y="-128" font-family="Helvetica,sans-Serif" font-size="10.00">iostream</text>
</a>
</g>
</g>
<!-- Node39&#45;&gt;Node42 -->
<g id="edge60" class="edge">
<title>Node39&#45;&gt;Node42</title>
<path fill="none" stroke="#63b8ff" d="M1452.78,-181.12C1494.82,-170.38 1565.32,-152.37 1608.82,-141.25"/>
<polygon fill="#63b8ff" stroke="#63b8ff" points="1609.51,-144.69 1618.33,-138.82 1607.78,-137.91 1609.51,-144.69"/>
</g>
<!-- Node41&#45;&gt;Node7 -->
<g id="edge56" class="edge">
<title>Node41&#45;&gt;Node7</title>
<path fill="none" stroke="#63b8ff" d="M1437.3,-120.62C1464.08,-110.82 1507.4,-94.98 1537.88,-83.84"/>
<polygon fill="#63b8ff" stroke="#63b8ff" points="1538.86,-87.21 1547.05,-80.49 1536.46,-80.64 1538.86,-87.21"/>
</g>
<!-- Node41&#45;&gt;Node8 -->
<g id="edge57" class="edge">
<title>Node41&#45;&gt;Node8</title>
<path fill="none" stroke="#63b8ff" d="M1369.82,-123.07C1290.84,-111.32 1124.7,-86.59 1053.53,-75.99"/>
<polygon fill="#63b8ff" stroke="#63b8ff" points="1054.07,-72.53 1043.66,-74.52 1053.04,-79.46 1054.07,-72.53"/>
</g>
<!-- Node41&#45;&gt;Node11 -->
<g id="edge58" class="edge">
<title>Node41&#45;&gt;Node11</title>
<path fill="none" stroke="#63b8ff" d="M1396.45,-120.62C1379,-111.25 1351.25,-96.36 1330.71,-85.33"/>
<polygon fill="#63b8ff" stroke="#63b8ff" points="1332.51,-82.33 1322.04,-80.68 1329.2,-88.5 1332.51,-82.33"/>
</g>
<!-- Node41&#45;&gt;Node12 -->
<g id="edge59" class="edge">
<title>Node41&#45;&gt;Node12</title>
<path fill="none" stroke="#63b8ff" d="M1412.41,-120.87C1411.87,-113 1411.06,-101.1 1410.36,-90.89"/>
<polygon fill="#63b8ff" stroke="#63b8ff" points="1413.87,-90.92 1409.7,-81.18 1406.89,-91.39 1413.87,-90.92"/>
</g>
<!-- Node43&#45;&gt;Node10 -->
<g id="edge65" class="edge">
<title>Node43&#45;&gt;Node10</title>
<path fill="none" stroke="#63b8ff" d="M1648.57,-362.54C1655.9,-353.73 1667.16,-339.77 1676,-327 1735.45,-241.12 1797.11,-132.25 1820.85,-89.46"/>
<polygon fill="#63b8ff" stroke="#63b8ff" points="1823.78,-91.4 1825.55,-80.96 1817.65,-88.02 1823.78,-91.4"/>
</g>
<!-- Node43&#45;&gt;Node33 -->
<g id="edge64" class="edge">
<title>Node43&#45;&gt;Node33</title>
<path fill="none" stroke="#63b8ff" d="M1594.16,-366.99C1578.82,-365.6 1561.69,-364.13 1546,-363 1255.65,-342.03 1182.17,-350.35 892,-327 660.79,-308.4 603.66,-296.55 373,-272 314.78,-265.8 242,-316.55 242,-258 242,-258 242,-258 242,-190 242,-155.16 246.73,-114.83 249.99,-91.2"/>
<polygon fill="#63b8ff" stroke="#63b8ff" points="253.43,-91.82 251.39,-81.43 246.51,-90.83 253.43,-91.82"/>
</g>
<!-- Node44 -->
<g id="node40" class="node">
<title>Node44</title>
<g id="a_node40"><a xlink:title=" ">
<polygon fill="#e0e0e0" stroke="#999999" points="1666.5,-327 1615.5,-327 1615.5,-308 1666.5,-308 1666.5,-327"/>
<text text-anchor="middle" x="1641" y="-315" font-family="Helvetica,sans-Serif" font-size="10.00">memory</text>
</a>
</g>
</g>
<!-- Node43&#45;&gt;Node44 -->
<g id="edge63" class="edge">
<title>Node43&#45;&gt;Node44</title>
<path fill="none" stroke="#63b8ff" d="M1641,-362.75C1641,-356.27 1641,-347.16 1641,-338.9"/>
<polygon fill="#63b8ff" stroke="#63b8ff" points="1644.5,-338.96 1641,-328.96 1637.5,-338.96 1644.5,-338.96"/>
</g>
<!-- Node45&#45;&gt;Node43 -->
<g id="edge70" class="edge">
<title>Node45&#45;&gt;Node43</title>
<path fill="none" stroke="#63b8ff" d="M1753.92,-417.54C1729.51,-408.02 1697.81,-395.66 1674.22,-386.46"/>
<polygon fill="#63b8ff" stroke="#63b8ff" points="1675.68,-383.27 1665.09,-382.9 1673.14,-389.79 1675.68,-383.27"/>
</g>
<!-- Node46 -->
<g id="node42" class="node">
<title>Node46</title>
<g id="a_node42"><a xlink:title=" ">
<polygon fill="#e0e0e0" stroke="#999999" points="1827.5,-382 1744.5,-382 1744.5,-363 1827.5,-363 1827.5,-382"/>
<text text-anchor="middle" x="1786" y="-370" font-family="Helvetica,sans-Serif" font-size="10.00">unordered_map</text>
</a>
</g>
</g>
<!-- Node45&#45;&gt;Node46 -->
<g id="edge67" class="edge">
<title>Node45&#45;&gt;Node46</title>
<path fill="none" stroke="#63b8ff" d="M1789.76,-417.54C1789.14,-410.26 1788.38,-401.31 1787.7,-393.39"/>
<polygon fill="#63b8ff" stroke="#63b8ff" points="1791.21,-393.35 1786.87,-383.68 1784.23,-393.94 1791.21,-393.35"/>
</g>
<!-- Node47 -->
<g id="node43" class="node">
<title>Node47</title>
<g id="a_node43"><a xlink:href="clock_8hpp.html" target="_top" xlink:title=" ">
<polygon fill="white" stroke="#666666" points="1968,-382 1884,-382 1884,-363 1968,-363 1968,-382"/>
<text text-anchor="middle" x="1926" y="-370" font-family="Helvetica,sans-Serif" font-size="10.00">clock/clock.hpp</text>
</a>
</g>
</g>
<!-- Node45&#45;&gt;Node47 -->
<g id="edge68" class="edge">
<title>Node45&#45;&gt;Node47</title>
<path fill="none" stroke="#63b8ff" d="M1824.37,-417.54C1846.05,-408.15 1874.09,-395.99 1895.23,-386.83"/>
<polygon fill="#63b8ff" stroke="#63b8ff" points="1896.41,-390.14 1904.2,-382.95 1893.63,-383.71 1896.41,-390.14"/>
</g>
<!-- Node45&#45;&gt;Node49 -->
<g id="edge71" class="edge">
<title>Node45&#45;&gt;Node49</title>
<path fill="none" stroke="#63b8ff" d="M1744.08,-423.37C1687.97,-413.05 1593.96,-395.75 1532.72,-384.49"/>
<polygon fill="#63b8ff" stroke="#63b8ff" points="1533.64,-381.1 1523.17,-382.73 1532.37,-387.98 1533.64,-381.1"/>
</g>
<!-- Node45&#45;&gt;Node51 -->
<g id="edge74" class="edge">
<title>Node45&#45;&gt;Node51</title>
<path fill="none" stroke="#63b8ff" d="M1837.99,-421.13C1882.39,-410.87 1948.76,-395.52 1994.09,-385.04"/>
<polygon fill="#63b8ff" stroke="#63b8ff" points="1994.7,-388.49 2003.66,-382.83 1993.12,-381.67 1994.7,-388.49"/>
</g>
<!-- Node45&#45;&gt;Node53 -->
<g id="edge82" class="edge">
<title>Node45&#45;&gt;Node53</title>
<path fill="none" stroke="#63b8ff" d="M1808.69,-417.66C1818.68,-408.54 1830.44,-395.86 1837,-382 1843.43,-368.41 1845.58,-351.5 1846.18,-338.54"/>
<polygon fill="#63b8ff" stroke="#63b8ff" points="1849.68,-338.74 1846.34,-328.69 1842.68,-338.63 1849.68,-338.74"/>
</g>
<!-- Node48 -->
<g id="node44" class="node">
<title>Node48</title>
<g id="a_node44"><a xlink:title=" ">
<polygon fill="#e0e0e0" stroke="#999999" points="1969,-327 1923,-327 1923,-308 1969,-308 1969,-327"/>
<text text-anchor="middle" x="1946" y="-315" font-family="Helvetica,sans-Serif" font-size="10.00">chrono</text>
</a>
</g>
</g>
<!-- Node47&#45;&gt;Node48 -->
<g id="edge69" class="edge">
<title>Node47&#45;&gt;Node48</title>
<path fill="none" stroke="#63b8ff" d="M1929.3,-362.75C1931.83,-356.04 1935.43,-346.52 1938.63,-338.02"/>
<polygon fill="#63b8ff" stroke="#63b8ff" points="1941.84,-339.45 1942.09,-328.86 1935.29,-336.98 1941.84,-339.45"/>
</g>
<!-- Node49&#45;&gt;Node39 -->
<g id="edge73" class="edge">
<title>Node49&#45;&gt;Node39</title>
<path fill="none" stroke="#63b8ff" d="M1463.31,-362.62C1454.89,-354.29 1443.1,-341.03 1437,-327 1420.46,-288.95 1417.66,-239.7 1417.54,-212.44"/>
<polygon fill="#63b8ff" stroke="#63b8ff" points="1421.04,-212.51 1417.64,-202.48 1414.04,-212.45 1421.04,-212.51"/>
</g>
<!-- Node50 -->
<g id="node46" class="node">
<title>Node50</title>
<g id="a_node46"><a xlink:title=" ">
<polygon fill="#e0e0e0" stroke="#999999" points="1547.5,-327 1446.5,-327 1446.5,-308 1547.5,-308 1547.5,-327"/>
<text text-anchor="middle" x="1497" y="-315" font-family="Helvetica,sans-Serif" font-size="10.00">ed25519/ed25519.h</text>
</a>
</g>
</g>
<!-- Node49&#45;&gt;Node50 -->
<g id="edge72" class="edge">
<title>Node49&#45;&gt;Node50</title>
<path fill="none" stroke="#63b8ff" d="M1476.96,-362.75C1480.04,-355.96 1484.41,-346.3 1488.29,-337.73"/>
<polygon fill="#63b8ff" stroke="#63b8ff" points="1491.39,-339.37 1492.33,-328.82 1485.01,-336.49 1491.39,-339.37"/>
</g>
<!-- Node51&#45;&gt;Node24 -->
<g id="edge75" class="edge">
<title>Node51&#45;&gt;Node24</title>
<path fill="none" stroke="#63b8ff" d="M2037.71,-362.66C2031.73,-353.94 2022.81,-340.04 2017,-327 1989.5,-265.3 1970.25,-187.15 1962.21,-151.21"/>
<polygon fill="#63b8ff" stroke="#63b8ff" points="1965.71,-150.86 1960.16,-141.83 1958.87,-152.35 1965.71,-150.86"/>
</g>
<!-- Node52 -->
<g id="node48" class="node">
<title>Node52</title>
<g id="a_node48"><a xlink:title=" ">
<polygon fill="#e0e0e0" stroke="#999999" points="2084.5,-327 2025.5,-327 2025.5,-308 2084.5,-308 2084.5,-327"/>
<text text-anchor="middle" x="2055" y="-315" font-family="Helvetica,sans-Serif" font-size="10.00">functional</text>
</a>
</g>
</g>
<!-- Node51&#45;&gt;Node52 -->
<g id="edge76" class="edge">
<title>Node51&#45;&gt;Node52</title>
<path fill="none" stroke="#63b8ff" d="M2045.82,-362.75C2047.18,-356.19 2049.1,-346.95 2050.83,-338.6"/>
<polygon fill="#63b8ff" stroke="#63b8ff" points="2054.23,-339.43 2052.84,-328.92 2047.38,-338 2054.23,-339.43"/>
</g>
<!-- Node51&#45;&gt;Node53 -->
<g id="edge77" class="edge">
<title>Node51&#45;&gt;Node53</title>
<path fill="none" stroke="#63b8ff" d="M2010.41,-362.51C1977.32,-353.65 1926.57,-340.07 1890.21,-330.33"/>
<polygon fill="#63b8ff" stroke="#63b8ff" points="1891.45,-327.04 1880.88,-327.84 1889.64,-333.8 1891.45,-327.04"/>
</g>
<!-- Node53&#45;&gt;Node10 -->
<g id="edge79" class="edge">
<title>Node53&#45;&gt;Node10</title>
<path fill="none" stroke="#63b8ff" d="M1858.61,-307.55C1868.71,-299.54 1882.12,-286.81 1888,-272 1892.92,-259.61 1890.14,-255.16 1888,-242 1878.71,-184.75 1853,-120.78 1839.51,-89.81"/>
<polygon fill="#63b8ff" stroke="#63b8ff" points="1842.87,-88.75 1835.61,-81.03 1836.47,-91.59 1842.87,-88.75"/>
</g>
<!-- Node53&#45;&gt;Node24 -->
<g id="edge78" class="edge">
<title>Node53&#45;&gt;Node24</title>
<path fill="none" stroke="#63b8ff" d="M1870.73,-307.64C1887.3,-300.47 1908.32,-288.8 1921,-272 1948.4,-235.69 1955.55,-180.83 1957.39,-151.56"/>
<polygon fill="#63b8ff" stroke="#63b8ff" points="1960.87,-152.05 1957.84,-141.9 1953.88,-151.73 1960.87,-152.05"/>
</g>
<!-- Node54 -->
<g id="node50" class="node">
<title>Node54</title>
<g id="a_node50"><a xlink:href="session__key_8hpp.html" target="_top" xlink:title=" ">
<polygon fill="white" stroke="#666666" points="1878.5,-272 1783.5,-272 1783.5,-242 1878.5,-242 1878.5,-272"/>
<text text-anchor="start" x="1791.5" y="-260" font-family="Helvetica,sans-Serif" font-size="10.00">primitives/session</text>
<text text-anchor="middle" x="1831" y="-249" font-family="Helvetica,sans-Serif" font-size="10.00">_key.hpp</text>
</a>
</g>
</g>
<!-- Node53&#45;&gt;Node54 -->
<g id="edge80" class="edge">
<title>Node53&#45;&gt;Node54</title>
<path fill="none" stroke="#63b8ff" d="M1843.79,-307.87C1842.11,-301.33 1839.71,-291.99 1837.45,-283.15"/>
<polygon fill="#63b8ff" stroke="#63b8ff" points="1840.87,-282.4 1835,-273.58 1834.09,-284.14 1840.87,-282.4"/>
</g>
<!-- Node54&#45;&gt;Node39 -->
<g id="edge81" class="edge">
<title>Node54&#45;&gt;Node39</title>
<path fill="none" stroke="#63b8ff" d="M1783.22,-248.6C1704.49,-236.4 1548.27,-212.19 1468.07,-199.76"/>
<polygon fill="#63b8ff" stroke="#63b8ff" points="1468.72,-196.32 1458.3,-198.25 1467.65,-203.24 1468.72,-196.32"/>
</g>
</g>
</svg>
