<?xml version="1.0" encoding="UTF-8" standalone="no"?>
<!DOCTYPE svg PUBLIC "-//W3C//DTD SVG 1.1//EN"
 "http://www.w3.org/Graphics/SVG/1.1/DTD/svg11.dtd">
<!-- Generated by graphviz version 7.0.5 (20221223.1930)
 -->
<!-- Title: src/verification/finality/vote_weight.hpp Pages: 1 -->
<svg width="961pt" height="544pt"
 viewBox="0.00 0.00 961.00 544.00" xmlns="http://www.w3.org/2000/svg" xmlns:xlink="http://www.w3.org/1999/xlink">
<g id="graph0" class="graph" transform="scale(1 1) rotate(0) translate(4 540)">
<title>src/verification/finality/vote_weight.hpp</title>
<!-- Node1 -->
<g id="node1" class="node">
<title>Node1</title>
<g id="a_node1"><a xlink:title=" ">
<polygon fill="#999999" stroke="#666666" points="730.5,-536 620.5,-536 620.5,-506 730.5,-506 730.5,-536"/>
<text text-anchor="start" x="628.5" y="-524" font-family="Helvetica,sans-Serif" font-size="10.00">src/verification/finality</text>
<text text-anchor="middle" x="675.5" y="-513" font-family="Helvetica,sans-Serif" font-size="10.00">/vote_weight.hpp</text>
</a>
</g>
</g>
<!-- Node2 -->
<g id="node2" class="node">
<title>Node2</title>
<g id="a_node2"><a xlink:href="vote__graph_8hpp.html" target="_top" xlink:title=" ">
<polygon fill="white" stroke="#666666" points="666.5,-470 556.5,-470 556.5,-440 666.5,-440 666.5,-470"/>
<text text-anchor="start" x="564.5" y="-458" font-family="Helvetica,sans-Serif" font-size="10.00">src/verification/finality</text>
<text text-anchor="middle" x="611.5" y="-447" font-family="Helvetica,sans-Serif" font-size="10.00">/vote_graph.hpp</text>
</a>
</g>
</g>
<!-- Node1&#45;&gt;Node2 -->
<g id="edge1" class="edge">
<title>Node1&#45;&gt;Node2</title>
<path fill="none" stroke="#63b8ff" d="M653.31,-497.81C644.14,-488.64 633.78,-478.28 625.66,-470.16"/>
<polygon fill="#63b8ff" stroke="#63b8ff" points="650.68,-500.13 660.23,-504.73 655.63,-495.18 650.68,-500.13"/>
</g>
<!-- Node24 -->
<g id="node24" class="node">
<title>Node24</title>
<g id="a_node24"><a xlink:href="vote__weight_8cpp.html" target="_top" xlink:title=" ">
<polygon fill="white" stroke="#666666" points="794.5,-470 684.5,-470 684.5,-440 794.5,-440 794.5,-470"/>
<text text-anchor="start" x="692.5" y="-458" font-family="Helvetica,sans-Serif" font-size="10.00">src/verification/finality</text>
<text text-anchor="middle" x="739.5" y="-447" font-family="Helvetica,sans-Serif" font-size="10.00">/vote_weight.cpp</text>
</a>
</g>
</g>
<!-- Node1&#45;&gt;Node24 -->
<g id="edge28" class="edge">
<title>Node1&#45;&gt;Node24</title>
<path fill="none" stroke="#63b8ff" d="M697.69,-497.81C706.86,-488.64 717.22,-478.28 725.34,-470.16"/>
<polygon fill="#63b8ff" stroke="#63b8ff" points="695.37,-495.18 690.77,-504.73 700.32,-500.13 695.37,-495.18"/>
</g>
<!-- Node3 -->
<g id="node3" class="node">
<title>Node3</title>
<g id="a_node3"><a xlink:href="application__injector_8hpp.html" target="_top" xlink:title=" ">
<polygon fill="white" stroke="#666666" points="455.5,-321.5 341.5,-321.5 341.5,-291.5 455.5,-291.5 455.5,-321.5"/>
<text text-anchor="start" x="349.5" y="-309.5" font-family="Helvetica,sans-Serif" font-size="10.00">src/injector/application</text>
<text text-anchor="middle" x="398.5" y="-298.5" font-family="Helvetica,sans-Serif" font-size="10.00">_injector.hpp</text>
</a>
</g>
</g>
<!-- Node2&#45;&gt;Node3 -->
<g id="edge2" class="edge">
<title>Node2&#45;&gt;Node3</title>
<path fill="none" stroke="#63b8ff" d="M579.18,-433.43C565.33,-424.51 549.04,-413.87 534.5,-404 492.59,-375.54 444.42,-340.89 418.14,-321.82"/>
<polygon fill="#63b8ff" stroke="#63b8ff" points="577.18,-436.31 587.49,-438.77 580.97,-430.42 577.18,-436.31"/>
</g>
<!-- Node18 -->
<g id="node18" class="node">
<title>Node18</title>
<g id="a_node18"><a xlink:href="voting__round__impl_8hpp.html" target="_top" xlink:title=" ">
<polygon fill="white" stroke="#666666" points="680,-398.5 543,-398.5 543,-368.5 680,-368.5 680,-398.5"/>
<text text-anchor="start" x="551" y="-386.5" font-family="Helvetica,sans-Serif" font-size="10.00">src/verification/finality</text>
<text text-anchor="middle" x="611.5" y="-375.5" font-family="Helvetica,sans-Serif" font-size="10.00">/impl/voting_round_impl.hpp</text>
</a>
</g>
</g>
<!-- Node2&#45;&gt;Node18 -->
<g id="edge19" class="edge">
<title>Node2&#45;&gt;Node18</title>
<path fill="none" stroke="#63b8ff" d="M611.5,-428.26C611.5,-418.33 611.5,-407.36 611.5,-398.88"/>
<polygon fill="#63b8ff" stroke="#63b8ff" points="608,-428.09 611.5,-438.09 615,-428.09 608,-428.09"/>
</g>
<!-- Node22 -->
<g id="node22" class="node">
<title>Node22</title>
<g id="a_node22"><a xlink:href="vote__graph__impl_8hpp.html" target="_top" xlink:title=" ">
<polygon fill="white" stroke="#666666" points="865,-404 746,-404 746,-363 865,-363 865,-404"/>
<text text-anchor="start" x="754" y="-392" font-family="Helvetica,sans-Serif" font-size="10.00">src/verification/finality</text>
<text text-anchor="start" x="754" y="-381" font-family="Helvetica,sans-Serif" font-size="10.00">/vote_graph/vote_graph</text>
<text text-anchor="middle" x="805.5" y="-370" font-family="Helvetica,sans-Serif" font-size="10.00">_impl.hpp</text>
</a>
</g>
</g>
<!-- Node2&#45;&gt;Node22 -->
<g id="edge25" class="edge">
<title>Node2&#45;&gt;Node22</title>
<path fill="none" stroke="#63b8ff" d="M662.43,-435.75C689.32,-426.12 722.36,-414.29 749.91,-404.42"/>
<polygon fill="#63b8ff" stroke="#63b8ff" points="661.36,-432.42 653.12,-439.09 663.72,-439.01 661.36,-432.42"/>
</g>
<!-- Node4 -->
<g id="node4" class="node">
<title>Node4</title>
<g id="a_node4"><a xlink:href="application__injector_8cpp.html" target="_top" xlink:title=" ">
<polygon fill="white" stroke="#666666" points="382.5,-250 268.5,-250 268.5,-220 382.5,-220 382.5,-250"/>
<text text-anchor="start" x="276.5" y="-238" font-family="Helvetica,sans-Serif" font-size="10.00">src/injector/application</text>
<text text-anchor="middle" x="325.5" y="-227" font-family="Helvetica,sans-Serif" font-size="10.00">_injector.cpp</text>
</a>
</g>
</g>
<!-- Node3&#45;&gt;Node4 -->
<g id="edge3" class="edge">
<title>Node3&#45;&gt;Node4</title>
<path fill="none" stroke="#63b8ff" d="M375.18,-283.3C363.86,-272.52 350.59,-259.88 340.61,-250.38"/>
<polygon fill="#63b8ff" stroke="#63b8ff" points="372.62,-285.7 382.28,-290.06 377.45,-280.63 372.62,-285.7"/>
</g>
<!-- Node5 -->
<g id="node5" class="node">
<title>Node5</title>
<g id="a_node5"><a xlink:href="block__producing__node__injector_8hpp.html" target="_top" xlink:title=" ">
<polygon fill="white" stroke="#666666" points="466,-184 321,-184 321,-154 466,-154 466,-184"/>
<text text-anchor="start" x="329" y="-172" font-family="Helvetica,sans-Serif" font-size="10.00">src/injector/block</text>
<text text-anchor="middle" x="393.5" y="-161" font-family="Helvetica,sans-Serif" font-size="10.00">_producing_node_injector.hpp</text>
</a>
</g>
</g>
<!-- Node3&#45;&gt;Node5 -->
<g id="edge4" class="edge">
<title>Node3&#45;&gt;Node5</title>
<path fill="none" stroke="#63b8ff" d="M397.56,-279.91C396.51,-251.67 394.87,-207.21 394.03,-184.46"/>
<polygon fill="#63b8ff" stroke="#63b8ff" points="394.05,-279.88 397.92,-289.74 401.05,-279.62 394.05,-279.88"/>
</g>
<!-- Node10 -->
<g id="node10" class="node">
<title>Node10</title>
<g id="a_node10"><a xlink:href="syncing__node__injector_8hpp.html" target="_top" xlink:title=" ">
<polygon fill="white" stroke="#666666" points="250,-250 149,-250 149,-220 250,-220 250,-250"/>
<text text-anchor="start" x="157" y="-238" font-family="Helvetica,sans-Serif" font-size="10.00">src/injector/syncing</text>
<text text-anchor="middle" x="199.5" y="-227" font-family="Helvetica,sans-Serif" font-size="10.00">_node_injector.hpp</text>
</a>
</g>
</g>
<!-- Node3&#45;&gt;Node10 -->
<g id="edge9" class="edge">
<title>Node3&#45;&gt;Node10</title>
<path fill="none" stroke="#63b8ff" d="M346.45,-287.32C313.45,-275.8 271.35,-261.09 240.68,-250.38"/>
<polygon fill="#63b8ff" stroke="#63b8ff" points="345.24,-290.61 355.84,-290.6 347.55,-284 345.24,-290.61"/>
</g>
<!-- Node14 -->
<g id="node14" class="node">
<title>Node14</title>
<g id="a_node14"><a xlink:href="validating__node__injector_8hpp.html" target="_top" xlink:title=" ">
<polygon fill="white" stroke="#666666" points="571,-250 462,-250 462,-220 571,-220 571,-250"/>
<text text-anchor="start" x="470" y="-238" font-family="Helvetica,sans-Serif" font-size="10.00">src/injector/validating</text>
<text text-anchor="middle" x="516.5" y="-227" font-family="Helvetica,sans-Serif" font-size="10.00">_node_injector.hpp</text>
</a>
</g>
</g>
<!-- Node3&#45;&gt;Node14 -->
<g id="edge13" class="edge">
<title>Node3&#45;&gt;Node14</title>
<path fill="none" stroke="#63b8ff" d="M432.73,-285.34C451.73,-274.15 474.92,-260.49 492.08,-250.38"/>
<polygon fill="#63b8ff" stroke="#63b8ff" points="431.09,-282.24 424.25,-290.33 434.65,-288.27 431.09,-282.24"/>
</g>
<!-- Node6 -->
<g id="node6" class="node">
<title>Node6</title>
<g id="a_node6"><a xlink:href="block__producing__node__application_8hpp.html" target="_top" xlink:title=" ">
<polygon fill="white" stroke="#666666" points="538.5,-118 422.5,-118 422.5,-77 538.5,-77 538.5,-118"/>
<text text-anchor="start" x="430.5" y="-106" font-family="Helvetica,sans-Serif" font-size="10.00">src/application/impl</text>
<text text-anchor="start" x="430.5" y="-95" font-family="Helvetica,sans-Serif" font-size="10.00">/block_producing_node</text>
<text text-anchor="middle" x="480.5" y="-84" font-family="Helvetica,sans-Serif" font-size="10.00">_application.hpp</text>
</a>
</g>
</g>
<!-- Node5&#45;&gt;Node6 -->
<g id="edge5" class="edge">
<title>Node5&#45;&gt;Node6</title>
<path fill="none" stroke="#63b8ff" d="M420.45,-146.47C431.66,-137.52 444.59,-127.19 455.57,-118.42"/>
<polygon fill="#63b8ff" stroke="#63b8ff" points="418.34,-143.68 412.71,-152.65 422.71,-149.15 418.34,-143.68"/>
</g>
<!-- Node9 -->
<g id="node9" class="node">
<title>Node9</title>
<g id="a_node9"><a xlink:href="block__producing__node__injector_8cpp.html" target="_top" xlink:title=" ">
<polygon fill="white" stroke="#666666" points="404,-112.5 259,-112.5 259,-82.5 404,-82.5 404,-112.5"/>
<text text-anchor="start" x="267" y="-100.5" font-family="Helvetica,sans-Serif" font-size="10.00">src/injector/block</text>
<text text-anchor="middle" x="331.5" y="-89.5" font-family="Helvetica,sans-Serif" font-size="10.00">_producing_node_injector.cpp</text>
</a>
</g>
</g>
<!-- Node5&#45;&gt;Node9 -->
<g id="edge8" class="edge">
<title>Node5&#45;&gt;Node9</title>
<path fill="none" stroke="#63b8ff" d="M373.13,-145.17C363.64,-134.53 352.64,-122.2 344.33,-112.88"/>
<polygon fill="#63b8ff" stroke="#63b8ff" points="370.38,-147.34 379.65,-152.47 375.6,-142.68 370.38,-147.34"/>
</g>
<!-- Node7 -->
<g id="node7" class="node">
<title>Node7</title>
<g id="a_node7"><a xlink:href="app__delegate_8cpp.html" target="_top" xlink:title=" ">
<polygon fill="white" stroke="#666666" points="736.5,-30 620.5,-30 620.5,-11 736.5,-11 736.5,-30"/>
<text text-anchor="middle" x="678.5" y="-18" font-family="Helvetica,sans-Serif" font-size="10.00">node/app_delegate.cpp</text>
</a>
</g>
</g>
<!-- Node6&#45;&gt;Node7 -->
<g id="edge6" class="edge">
<title>Node6&#45;&gt;Node7</title>
<path fill="none" stroke="#63b8ff" d="M543.49,-72.64C581.39,-58.28 627.44,-40.84 654.78,-30.48"/>
<polygon fill="#63b8ff" stroke="#63b8ff" points="542.57,-69.25 534.46,-76.06 545.05,-75.79 542.57,-69.25"/>
</g>
<!-- Node8 -->
<g id="node8" class="node">
<title>Node8</title>
<g id="a_node8"><a xlink:href="block__producing__node__application_8cpp.html" target="_top" xlink:title=" ">
<polygon fill="white" stroke="#666666" points="538.5,-41 422.5,-41 422.5,0 538.5,0 538.5,-41"/>
<text text-anchor="start" x="430.5" y="-29" font-family="Helvetica,sans-Serif" font-size="10.00">src/application/impl</text>
<text text-anchor="start" x="430.5" y="-18" font-family="Helvetica,sans-Serif" font-size="10.00">/block_producing_node</text>
<text text-anchor="middle" x="480.5" y="-7" font-family="Helvetica,sans-Serif" font-size="10.00">_application.cpp</text>
</a>
</g>
</g>
<!-- Node6&#45;&gt;Node8 -->
<g id="edge7" class="edge">
<title>Node6&#45;&gt;Node8</title>
<path fill="none" stroke="#63b8ff" d="M480.5,-65.36C480.5,-57.24 480.5,-48.7 480.5,-41.33"/>
<polygon fill="#63b8ff" stroke="#63b8ff" points="477,-65.28 480.5,-75.28 484,-65.28 477,-65.28"/>
</g>
<!-- Node11 -->
<g id="node11" class="node">
<title>Node11</title>
<g id="a_node11"><a xlink:href="syncing__node__application_8hpp.html" target="_top" xlink:title=" ">
<polygon fill="white" stroke="#666666" points="149,-184 0,-184 0,-154 149,-154 149,-184"/>
<text text-anchor="start" x="8" y="-172" font-family="Helvetica,sans-Serif" font-size="10.00">src/application/impl</text>
<text text-anchor="middle" x="74.5" y="-161" font-family="Helvetica,sans-Serif" font-size="10.00">/syncing_node_application.hpp</text>
</a>
</g>
</g>
<!-- Node10&#45;&gt;Node11 -->
<g id="edge10" class="edge">
<title>Node10&#45;&gt;Node11</title>
<path fill="none" stroke="#63b8ff" d="M161.32,-214.45C142.34,-204.73 119.81,-193.2 102.46,-184.31"/>
<polygon fill="#63b8ff" stroke="#63b8ff" points="159.6,-217.51 170.1,-218.95 162.79,-211.27 159.6,-217.51"/>
</g>
<!-- Node13 -->
<g id="node13" class="node">
<title>Node13</title>
<g id="a_node13"><a xlink:href="syncing__node__injector_8cpp.html" target="_top" xlink:title=" ">
<polygon fill="white" stroke="#666666" points="268,-184 167,-184 167,-154 268,-154 268,-184"/>
<text text-anchor="start" x="175" y="-172" font-family="Helvetica,sans-Serif" font-size="10.00">src/injector/syncing</text>
<text text-anchor="middle" x="217.5" y="-161" font-family="Helvetica,sans-Serif" font-size="10.00">_node_injector.cpp</text>
</a>
</g>
</g>
<!-- Node10&#45;&gt;Node13 -->
<g id="edge12" class="edge">
<title>Node10&#45;&gt;Node13</title>
<path fill="none" stroke="#63b8ff" d="M206.54,-208.97C208.91,-200.55 211.47,-191.45 213.52,-184.16"/>
<polygon fill="#63b8ff" stroke="#63b8ff" points="203.24,-207.77 203.9,-218.34 209.98,-209.66 203.24,-207.77"/>
</g>
<!-- Node12 -->
<g id="node12" class="node">
<title>Node12</title>
<g id="a_node12"><a xlink:href="syncing__node__application_8cpp.html" target="_top" xlink:title=" ">
<polygon fill="white" stroke="#666666" points="149,-112.5 0,-112.5 0,-82.5 149,-82.5 149,-112.5"/>
<text text-anchor="start" x="8" y="-100.5" font-family="Helvetica,sans-Serif" font-size="10.00">src/application/impl</text>
<text text-anchor="middle" x="74.5" y="-89.5" font-family="Helvetica,sans-Serif" font-size="10.00">/syncing_node_application.cpp</text>
</a>
</g>
</g>
<!-- Node11&#45;&gt;Node12 -->
<g id="edge11" class="edge">
<title>Node11&#45;&gt;Node12</title>
<path fill="none" stroke="#63b8ff" d="M74.5,-142.26C74.5,-132.33 74.5,-121.36 74.5,-112.88"/>
<polygon fill="#63b8ff" stroke="#63b8ff" points="71,-142.09 74.5,-152.09 78,-142.09 71,-142.09"/>
</g>
<!-- Node14&#45;&gt;Node5 -->
<g id="edge17" class="edge">
<title>Node14&#45;&gt;Node5</title>
<path fill="none" stroke="#63b8ff" d="M478.93,-214.45C460.25,-204.73 438.09,-193.2 421.01,-184.31"/>
<polygon fill="#63b8ff" stroke="#63b8ff" points="477.07,-217.43 487.55,-218.94 480.3,-211.22 477.07,-217.43"/>
</g>
<!-- Node15 -->
<g id="node15" class="node">
<title>Node15</title>
<g id="a_node15"><a xlink:href="validating__node__application_8hpp.html" target="_top" xlink:title=" ">
<polygon fill="white" stroke="#666666" points="768,-184 611,-184 611,-154 768,-154 768,-184"/>
<text text-anchor="start" x="619" y="-172" font-family="Helvetica,sans-Serif" font-size="10.00">src/application/impl</text>
<text text-anchor="middle" x="689.5" y="-161" font-family="Helvetica,sans-Serif" font-size="10.00">/validating_node_application.hpp</text>
</a>
</g>
</g>
<!-- Node14&#45;&gt;Node15 -->
<g id="edge14" class="edge">
<title>Node14&#45;&gt;Node15</title>
<path fill="none" stroke="#63b8ff" d="M566.04,-215.67C592.86,-205.75 625.52,-193.67 650.51,-184.43"/>
<polygon fill="#63b8ff" stroke="#63b8ff" points="564.91,-212.36 556.74,-219.11 567.34,-218.92 564.91,-212.36"/>
</g>
<!-- Node17 -->
<g id="node17" class="node">
<title>Node17</title>
<g id="a_node17"><a xlink:href="validating__node__injector_8cpp.html" target="_top" xlink:title=" ">
<polygon fill="white" stroke="#666666" points="593,-184 484,-184 484,-154 593,-154 593,-184"/>
<text text-anchor="start" x="492" y="-172" font-family="Helvetica,sans-Serif" font-size="10.00">src/injector/validating</text>
<text text-anchor="middle" x="538.5" y="-161" font-family="Helvetica,sans-Serif" font-size="10.00">_node_injector.cpp</text>
</a>
</g>
</g>
<!-- Node14&#45;&gt;Node17 -->
<g id="edge18" class="edge">
<title>Node14&#45;&gt;Node17</title>
<path fill="none" stroke="#63b8ff" d="M525.11,-208.97C528,-200.55 531.13,-191.45 533.63,-184.16"/>
<polygon fill="#63b8ff" stroke="#63b8ff" points="521.82,-207.77 521.87,-218.36 528.44,-210.05 521.82,-207.77"/>
</g>
<!-- Node15&#45;&gt;Node7 -->
<g id="edge15" class="edge">
<title>Node15&#45;&gt;Node7</title>
<path fill="none" stroke="#63b8ff" d="M709.4,-144.92C715.1,-136.93 720.56,-127.56 723.5,-118 728.86,-100.58 729.59,-94.18 723.5,-77 716.7,-57.83 700.15,-40.44 689.12,-30.42"/>
<polygon fill="#63b8ff" stroke="#63b8ff" points="706.73,-142.66 703.41,-152.72 712.28,-146.92 706.73,-142.66"/>
</g>
<!-- Node16 -->
<g id="node16" class="node">
<title>Node16</title>
<g id="a_node16"><a xlink:href="validating__node__application_8cpp.html" target="_top" xlink:title=" ">
<polygon fill="white" stroke="#666666" points="714,-112.5 557,-112.5 557,-82.5 714,-82.5 714,-112.5"/>
<text text-anchor="start" x="565" y="-100.5" font-family="Helvetica,sans-Serif" font-size="10.00">src/application/impl</text>
<text text-anchor="middle" x="635.5" y="-89.5" font-family="Helvetica,sans-Serif" font-size="10.00">/validating_node_application.cpp</text>
</a>
</g>
</g>
<!-- Node15&#45;&gt;Node16 -->
<g id="edge16" class="edge">
<title>Node15&#45;&gt;Node16</title>
<path fill="none" stroke="#63b8ff" d="M671.26,-144.53C663.11,-134.04 653.77,-122.01 646.67,-112.88"/>
<polygon fill="#63b8ff" stroke="#63b8ff" points="668.48,-146.66 677.38,-152.4 674.01,-142.36 668.48,-146.66"/>
</g>
<!-- Node19 -->
<g id="node19" class="node">
<title>Node19</title>
<g id="a_node19"><a xlink:href="finality__impl_8cpp.html" target="_top" xlink:title=" ">
<polygon fill="white" stroke="#666666" points="699.5,-250 589.5,-250 589.5,-220 699.5,-220 699.5,-250"/>
<text text-anchor="start" x="597.5" y="-238" font-family="Helvetica,sans-Serif" font-size="10.00">src/verification/finality</text>
<text text-anchor="middle" x="644.5" y="-227" font-family="Helvetica,sans-Serif" font-size="10.00">/impl/finality_impl.cpp</text>
</a>
</g>
</g>
<!-- Node18&#45;&gt;Node19 -->
<g id="edge20" class="edge">
<title>Node18&#45;&gt;Node19</title>
<path fill="none" stroke="#63b8ff" d="M616.47,-356.79C620.32,-337.3 625.92,-309.89 631.5,-286 634.31,-273.95 637.87,-260.36 640.55,-250.39"/>
<polygon fill="#63b8ff" stroke="#63b8ff" points="613.04,-356.09 614.55,-366.58 619.9,-357.44 613.04,-356.09"/>
</g>
<!-- Node20 -->
<g id="node20" class="node">
<title>Node20</title>
<g id="a_node20"><a xlink:href="finality__impl_8hpp.html" target="_top" xlink:title=" ">
<polygon fill="white" stroke="#666666" points="583.5,-321.5 473.5,-321.5 473.5,-291.5 583.5,-291.5 583.5,-321.5"/>
<text text-anchor="start" x="481.5" y="-309.5" font-family="Helvetica,sans-Serif" font-size="10.00">src/verification/finality</text>
<text text-anchor="middle" x="528.5" y="-298.5" font-family="Helvetica,sans-Serif" font-size="10.00">/impl/finality_impl.hpp</text>
</a>
</g>
</g>
<!-- Node18&#45;&gt;Node20 -->
<g id="edge21" class="edge">
<title>Node18&#45;&gt;Node20</title>
<path fill="none" stroke="#63b8ff" d="M586.98,-360.34C573.24,-347.93 556.5,-332.8 544.45,-321.92"/>
<polygon fill="#63b8ff" stroke="#63b8ff" points="584.61,-362.92 594.37,-367.02 589.3,-357.72 584.61,-362.92"/>
</g>
<!-- Node21 -->
<g id="node21" class="node">
<title>Node21</title>
<g id="a_node21"><a xlink:href="voting__round__impl_8cpp.html" target="_top" xlink:title=" ">
<polygon fill="white" stroke="#666666" points="777,-321.5 640,-321.5 640,-291.5 777,-291.5 777,-321.5"/>
<text text-anchor="start" x="648" y="-309.5" font-family="Helvetica,sans-Serif" font-size="10.00">src/verification/finality</text>
<text text-anchor="middle" x="708.5" y="-298.5" font-family="Helvetica,sans-Serif" font-size="10.00">/impl/voting_round_impl.cpp</text>
</a>
</g>
</g>
<!-- Node18&#45;&gt;Node21 -->
<g id="edge24" class="edge">
<title>Node18&#45;&gt;Node21</title>
<path fill="none" stroke="#63b8ff" d="M639.24,-361.05C655.47,-348.51 675.51,-333.01 689.85,-321.92"/>
<polygon fill="#63b8ff" stroke="#63b8ff" points="637.17,-358.23 631.4,-367.11 641.45,-363.77 637.17,-358.23"/>
</g>
<!-- Node20&#45;&gt;Node14 -->
<g id="edge22" class="edge">
<title>Node20&#45;&gt;Node14</title>
<path fill="none" stroke="#63b8ff" d="M524.06,-279.76C522.34,-269.83 520.45,-258.86 518.98,-250.38"/>
<polygon fill="#63b8ff" stroke="#63b8ff" points="520.61,-280.35 525.76,-289.61 527.5,-279.16 520.61,-280.35"/>
</g>
<!-- Node20&#45;&gt;Node19 -->
<g id="edge23" class="edge">
<title>Node20&#45;&gt;Node19</title>
<path fill="none" stroke="#63b8ff" d="M562.41,-285.18C581.04,-274.02 603.7,-260.44 620.5,-250.38"/>
<polygon fill="#63b8ff" stroke="#63b8ff" points="560.61,-282.18 553.83,-290.32 564.21,-288.18 560.61,-282.18"/>
</g>
<!-- Node22&#45;&gt;Node19 -->
<g id="edge26" class="edge">
<title>Node22&#45;&gt;Node19</title>
<path fill="none" stroke="#63b8ff" d="M806.94,-351.22C806.23,-330.44 801.91,-303.81 786.5,-286 764.78,-260.9 729.66,-248.4 699.79,-242.17"/>
<polygon fill="#63b8ff" stroke="#63b8ff" points="803.44,-351.17 806.99,-361.15 810.44,-351.13 803.44,-351.17"/>
</g>
<!-- Node23 -->
<g id="node23" class="node">
<title>Node23</title>
<g id="a_node23"><a xlink:href="vote__graph__impl_8cpp.html" target="_top" xlink:title=" ">
<polygon fill="white" stroke="#666666" points="953,-327 834,-327 834,-286 953,-286 953,-327"/>
<text text-anchor="start" x="842" y="-315" font-family="Helvetica,sans-Serif" font-size="10.00">src/verification/finality</text>
<text text-anchor="start" x="842" y="-304" font-family="Helvetica,sans-Serif" font-size="10.00">/vote_graph/vote_graph</text>
<text text-anchor="middle" x="893.5" y="-293" font-family="Helvetica,sans-Serif" font-size="10.00">_impl.cpp</text>
</a>
</g>
</g>
<!-- Node22&#45;&gt;Node23 -->
<g id="edge27" class="edge">
<title>Node22&#45;&gt;Node23</title>
<path fill="none" stroke="#63b8ff" d="M837.1,-355.57C848.03,-346.25 860.08,-335.98 870.23,-327.33"/>
<polygon fill="#63b8ff" stroke="#63b8ff" points="835.11,-352.66 829.77,-361.81 839.65,-357.99 835.11,-352.66"/>
</g>
</g>
</svg>
