<?xml version="1.0" encoding="UTF-8" standalone="no"?>
<!DOCTYPE svg PUBLIC "-//W3C//DTD SVG 1.1//EN"
 "http://www.w3.org/Graphics/SVG/1.1/DTD/svg11.dtd">
<!-- Generated by graphviz version 7.0.5 (20221223.1930)
 -->
<!-- Title: src/verification/finality/vote_crypto_provider.hpp Pages: 1 -->
<!--zoomable 478 -->
<svg id="main" version="1.1" xmlns="http://www.w3.org/2000/svg" xmlns:xlink="http://www.w3.org/1999/xlink" xml:space="preserve" onload="init(evt)">
<style type="text/css"><![CDATA[
.edge:hover path { stroke: red; }
.edge:hover polygon { stroke: red; fill: red; }
]]></style>
<script type="text/javascript"><![CDATA[
var edges = document.getElementsByTagName('g');
if (edges && edges.length) {
  for (var i=0;i<edges.length;i++) {
    if (edges[i].id.substr(0,4)=='edge') {
      edges[i].setAttribute('class','edge');
    }
  }
}
]]></script>
        <defs>
                <circle id="rim" cx="0" cy="0" r="7"/>
                <circle id="rim2" cx="0" cy="0" r="3.5"/>
                <g id="zoomPlus">
                        <use xlink:href="#rim" fill="#404040">
                                <set attributeName="fill" to="#808080" begin="zoomplus.mouseover" end="zoomplus.mouseout"/>
                        </use>
                        <path d="M-4,0h8M0,-4v8" fill="none" stroke="white" stroke-width="1.5" pointer-events="none"/>
                </g>
                <g id="zoomMin">
                        <use xlink:href="#rim" fill="#404040">
                                <set attributeName="fill" to="#808080" begin="zoomminus.mouseover" end="zoomminus.mouseout"/>
                        </use>
                        <path d="M-4,0h8" fill="none" stroke="white" stroke-width="1.5" pointer-events="none"/>
                </g>
                <g id="dirArrow">
                        <path fill="none" stroke="white" stroke-width="1.5" d="M0,-3.0v7 M-2.5,-0.5L0,-3.0L2.5,-0.5"/>
                </g>
               <g id="resetDef">
                       <use xlink:href="#rim2" fill="#404040">
                               <set attributeName="fill" to="#808080" begin="reset.mouseover" end="reset.mouseout"/>
                       </use>
               </g>
        </defs>

<script type="text/javascript">
var viewWidth = 809;
var viewHeight = 478;
var sectionId = 'dynsection-1';
</script>
<script xlink:href="svgpan.js"/>
<svg id="graph" class="graph">
<g id="viewport">
<title>src/verification/finality/vote_crypto_provider.hpp</title>
<!-- Node1 -->
<g id="node1" class="node">
<title>Node1</title>
<g id="a_node1"><a xlink:title=" ">
<polygon fill="#999999" stroke="#666666" points="569.5,-470 441.5,-470 441.5,-440 569.5,-440 569.5,-470"/>
<text text-anchor="start" x="449.5" y="-458" font-family="Helvetica,sans-Serif" font-size="10.00">src/verification/finality</text>
<text text-anchor="middle" x="505.5" y="-447" font-family="Helvetica,sans-Serif" font-size="10.00">/vote_crypto_provider.hpp</text>
</a>
</g>
</g>
<!-- Node2 -->
<g id="node2" class="node">
<title>Node2</title>
<g id="a_node2"><a xlink:href="vote__crypto__provider__impl_8hpp.html" target="_top" xlink:title=" ">
<polygon fill="white" stroke="#666666" points="495,-404 364,-404 364,-363 495,-363 495,-404"/>
<text text-anchor="start" x="372" y="-392" font-family="Helvetica,sans-Serif" font-size="10.00">src/verification/finality</text>
<text text-anchor="start" x="372" y="-381" font-family="Helvetica,sans-Serif" font-size="10.00">/impl/vote_crypto_provider</text>
<text text-anchor="middle" x="429.5" y="-370" font-family="Helvetica,sans-Serif" font-size="10.00">_impl.hpp</text>
</a>
</g>
</g>
<!-- Node1&#45;&gt;Node2 -->
<g id="edge1" class="edge">
<title>Node1&#45;&gt;Node2</title>
<path fill="none" stroke="#63b8ff" d="M481.37,-431.93C471.71,-423.1 460.68,-413.01 451.28,-404.42"/>
<polygon fill="#63b8ff" stroke="#63b8ff" points="478.89,-434.41 488.64,-438.58 483.62,-429.25 478.89,-434.41"/>
</g>
<!-- Node20 -->
<g id="node20" class="node">
<title>Node20</title>
<g id="a_node20"><a xlink:href="voting__round__impl_8hpp.html" target="_top" xlink:title=" ">
<polygon fill="white" stroke="#666666" points="658,-398.5 521,-398.5 521,-368.5 658,-368.5 658,-398.5"/>
<text text-anchor="start" x="529" y="-386.5" font-family="Helvetica,sans-Serif" font-size="10.00">src/verification/finality</text>
<text text-anchor="middle" x="589.5" y="-375.5" font-family="Helvetica,sans-Serif" font-size="10.00">/impl/voting_round_impl.hpp</text>
</a>
</g>
</g>
<!-- Node1&#45;&gt;Node20 -->
<g id="edge21" class="edge">
<title>Node1&#45;&gt;Node20</title>
<path fill="none" stroke="#63b8ff" d="M531.56,-432.43C544.76,-421.52 560.41,-408.57 572.12,-398.88"/>
<polygon fill="#63b8ff" stroke="#63b8ff" points="529.54,-429.56 524.07,-438.63 534.01,-434.96 529.54,-429.56"/>
</g>
<!-- Node3 -->
<g id="node3" class="node">
<title>Node3</title>
<g id="a_node3"><a xlink:href="application__injector_8hpp.html" target="_top" xlink:title=" ">
<polygon fill="white" stroke="#666666" points="436.5,-321.5 322.5,-321.5 322.5,-291.5 436.5,-291.5 436.5,-321.5"/>
<text text-anchor="start" x="330.5" y="-309.5" font-family="Helvetica,sans-Serif" font-size="10.00">src/injector/application</text>
<text text-anchor="middle" x="379.5" y="-298.5" font-family="Helvetica,sans-Serif" font-size="10.00">_injector.hpp</text>
</a>
</g>
</g>
<!-- Node2&#45;&gt;Node3 -->
<g id="edge2" class="edge">
<title>Node2&#45;&gt;Node3</title>
<path fill="none" stroke="#63b8ff" d="M410.02,-353.27C402.83,-342.49 395,-330.75 389.07,-321.86"/>
<polygon fill="#63b8ff" stroke="#63b8ff" points="407.06,-355.16 415.52,-361.54 412.89,-351.27 407.06,-355.16"/>
</g>
<!-- Node18 -->
<g id="node18" class="node">
<title>Node18</title>
<g id="a_node18"><a xlink:href="finality__impl_8cpp.html" target="_top" xlink:title=" ">
<polygon fill="white" stroke="#666666" points="691.5,-250 581.5,-250 581.5,-220 691.5,-220 691.5,-250"/>
<text text-anchor="start" x="589.5" y="-238" font-family="Helvetica,sans-Serif" font-size="10.00">src/verification/finality</text>
<text text-anchor="middle" x="636.5" y="-227" font-family="Helvetica,sans-Serif" font-size="10.00">/impl/finality_impl.cpp</text>
</a>
</g>
</g>
<!-- Node2&#45;&gt;Node18 -->
<g id="edge19" class="edge">
<title>Node2&#45;&gt;Node18</title>
<path fill="none" stroke="#63b8ff" d="M441.35,-352.2C451.08,-330.94 466.81,-303.32 488.5,-286 503.23,-274.24 545.6,-260.51 581.24,-250.41"/>
<polygon fill="#63b8ff" stroke="#63b8ff" points="438.19,-350.69 437.41,-361.26 444.61,-353.49 438.19,-350.69"/>
</g>
<!-- Node19 -->
<g id="node19" class="node">
<title>Node19</title>
<g id="a_node19"><a xlink:href="vote__crypto__provider__impl_8cpp.html" target="_top" xlink:title=" ">
<polygon fill="white" stroke="#666666" points="304,-327 173,-327 173,-286 304,-286 304,-327"/>
<text text-anchor="start" x="181" y="-315" font-family="Helvetica,sans-Serif" font-size="10.00">src/verification/finality</text>
<text text-anchor="start" x="181" y="-304" font-family="Helvetica,sans-Serif" font-size="10.00">/impl/vote_crypto_provider</text>
<text text-anchor="middle" x="238.5" y="-293" font-family="Helvetica,sans-Serif" font-size="10.00">_impl.cpp</text>
</a>
</g>
</g>
<!-- Node2&#45;&gt;Node19 -->
<g id="edge20" class="edge">
<title>Node2&#45;&gt;Node19</title>
<path fill="none" stroke="#63b8ff" d="M368.18,-358.42C342.76,-348.44 313.63,-337 289.42,-327.49"/>
<polygon fill="#63b8ff" stroke="#63b8ff" points="366.82,-361.65 377.41,-362.05 369.38,-355.13 366.82,-361.65"/>
</g>
<!-- Node4 -->
<g id="node4" class="node">
<title>Node4</title>
<g id="a_node4"><a xlink:href="application__injector_8cpp.html" target="_top" xlink:title=" ">
<polygon fill="white" stroke="#666666" points="435.5,-250 321.5,-250 321.5,-220 435.5,-220 435.5,-250"/>
<text text-anchor="start" x="329.5" y="-238" font-family="Helvetica,sans-Serif" font-size="10.00">src/injector/application</text>
<text text-anchor="middle" x="378.5" y="-227" font-family="Helvetica,sans-Serif" font-size="10.00">_injector.cpp</text>
</a>
</g>
</g>
<!-- Node3&#45;&gt;Node4 -->
<g id="edge3" class="edge">
<title>Node3&#45;&gt;Node4</title>
<path fill="none" stroke="#63b8ff" d="M379.13,-279.76C378.99,-269.83 378.83,-258.86 378.71,-250.38"/>
<polygon fill="#63b8ff" stroke="#63b8ff" points="375.63,-279.64 379.27,-289.59 382.63,-279.54 375.63,-279.64"/>
</g>
<!-- Node5 -->
<g id="node5" class="node">
<title>Node5</title>
<g id="a_node5"><a xlink:href="block__producing__node__injector_8hpp.html" target="_top" xlink:title=" ">
<polygon fill="white" stroke="#666666" points="432,-184 287,-184 287,-154 432,-154 432,-184"/>
<text text-anchor="start" x="295" y="-172" font-family="Helvetica,sans-Serif" font-size="10.00">src/injector/block</text>
<text text-anchor="middle" x="359.5" y="-161" font-family="Helvetica,sans-Serif" font-size="10.00">_producing_node_injector.hpp</text>
</a>
</g>
</g>
<!-- Node3&#45;&gt;Node5 -->
<g id="edge4" class="edge">
<title>Node3&#45;&gt;Node5</title>
<path fill="none" stroke="#63b8ff" d="M343.33,-284.76C331.21,-275.77 319.11,-264.05 312.5,-250 306.83,-237.93 307.59,-232.4 312.5,-220 318.12,-205.82 329.87,-193.32 340.21,-184.37"/>
<polygon fill="#63b8ff" stroke="#63b8ff" points="341.05,-287.43 351.27,-290.23 345.03,-281.67 341.05,-287.43"/>
</g>
<!-- Node10 -->
<g id="node10" class="node">
<title>Node10</title>
<g id="a_node10"><a xlink:href="syncing__node__injector_8hpp.html" target="_top" xlink:title=" ">
<polygon fill="white" stroke="#666666" points="244,-250 143,-250 143,-220 244,-220 244,-250"/>
<text text-anchor="start" x="151" y="-238" font-family="Helvetica,sans-Serif" font-size="10.00">src/injector/syncing</text>
<text text-anchor="middle" x="193.5" y="-227" font-family="Helvetica,sans-Serif" font-size="10.00">_node_injector.hpp</text>
</a>
</g>
</g>
<!-- Node3&#45;&gt;Node10 -->
<g id="edge9" class="edge">
<title>Node3&#45;&gt;Node10</title>
<path fill="none" stroke="#63b8ff" d="M330.45,-287.17C299.66,-275.67 260.53,-261.05 231.99,-250.38"/>
<polygon fill="#63b8ff" stroke="#63b8ff" points="328.95,-290.35 339.54,-290.57 331.4,-283.79 328.95,-290.35"/>
</g>
<!-- Node14 -->
<g id="node14" class="node">
<title>Node14</title>
<g id="a_node14"><a xlink:href="validating__node__injector_8hpp.html" target="_top" xlink:title=" ">
<polygon fill="white" stroke="#666666" points="563,-250 454,-250 454,-220 563,-220 563,-250"/>
<text text-anchor="start" x="462" y="-238" font-family="Helvetica,sans-Serif" font-size="10.00">src/injector/validating</text>
<text text-anchor="middle" x="508.5" y="-227" font-family="Helvetica,sans-Serif" font-size="10.00">_node_injector.hpp</text>
</a>
</g>
</g>
<!-- Node3&#45;&gt;Node14 -->
<g id="edge13" class="edge">
<title>Node3&#45;&gt;Node14</title>
<path fill="none" stroke="#63b8ff" d="M416.35,-285.65C437.23,-274.4 462.87,-260.58 481.81,-250.38"/>
<polygon fill="#63b8ff" stroke="#63b8ff" points="414.7,-282.56 407.56,-290.38 418.03,-288.72 414.7,-282.56"/>
</g>
<!-- Node6 -->
<g id="node6" class="node">
<title>Node6</title>
<g id="a_node6"><a xlink:href="block__producing__node__application_8hpp.html" target="_top" xlink:title=" ">
<polygon fill="white" stroke="#666666" points="401.5,-118 285.5,-118 285.5,-77 401.5,-77 401.5,-118"/>
<text text-anchor="start" x="293.5" y="-106" font-family="Helvetica,sans-Serif" font-size="10.00">src/application/impl</text>
<text text-anchor="start" x="293.5" y="-95" font-family="Helvetica,sans-Serif" font-size="10.00">/block_producing_node</text>
<text text-anchor="middle" x="343.5" y="-84" font-family="Helvetica,sans-Serif" font-size="10.00">_application.hpp</text>
</a>
</g>
</g>
<!-- Node5&#45;&gt;Node6 -->
<g id="edge5" class="edge">
<title>Node5&#45;&gt;Node6</title>
<path fill="none" stroke="#63b8ff" d="M353.66,-142.64C351.82,-134.66 349.82,-125.96 348.08,-118.42"/>
<polygon fill="#63b8ff" stroke="#63b8ff" points="350.19,-143.16 355.85,-152.12 357.01,-141.59 350.19,-143.16"/>
</g>
<!-- Node9 -->
<g id="node9" class="node">
<title>Node9</title>
<g id="a_node9"><a xlink:href="block__producing__node__injector_8cpp.html" target="_top" xlink:title=" ">
<polygon fill="white" stroke="#666666" points="565,-112.5 420,-112.5 420,-82.5 565,-82.5 565,-112.5"/>
<text text-anchor="start" x="428" y="-100.5" font-family="Helvetica,sans-Serif" font-size="10.00">src/injector/block</text>
<text text-anchor="middle" x="492.5" y="-89.5" font-family="Helvetica,sans-Serif" font-size="10.00">_producing_node_injector.cpp</text>
</a>
</g>
</g>
<!-- Node5&#45;&gt;Node9 -->
<g id="edge8" class="edge">
<title>Node5&#45;&gt;Node9</title>
<path fill="none" stroke="#63b8ff" d="M397.2,-148.3C418.77,-137.03 445.37,-123.13 464.98,-112.88"/>
<polygon fill="#63b8ff" stroke="#63b8ff" points="395.64,-145.17 388.4,-152.9 398.88,-151.37 395.64,-145.17"/>
</g>
<!-- Node7 -->
<g id="node7" class="node">
<title>Node7</title>
<g id="a_node7"><a xlink:href="app__delegate_8cpp.html" target="_top" xlink:title=" ">
<polygon fill="white" stroke="#666666" points="680.5,-30 564.5,-30 564.5,-11 680.5,-11 680.5,-30"/>
<text text-anchor="middle" x="622.5" y="-18" font-family="Helvetica,sans-Serif" font-size="10.00">node/app_delegate.cpp</text>
</a>
</g>
</g>
<!-- Node6&#45;&gt;Node7 -->
<g id="edge6" class="edge">
<title>Node6&#45;&gt;Node7</title>
<path fill="none" stroke="#63b8ff" d="M412.61,-76.72C480.48,-58.15 547.54,-40.73 587.34,-30.49"/>
<polygon fill="#63b8ff" stroke="#63b8ff" points="411.89,-73.29 403.17,-79.31 413.74,-80.04 411.89,-73.29"/>
</g>
<!-- Node8 -->
<g id="node8" class="node">
<title>Node8</title>
<g id="a_node8"><a xlink:href="block__producing__node__application_8cpp.html" target="_top" xlink:title=" ">
<polygon fill="white" stroke="#666666" points="401.5,-41 285.5,-41 285.5,0 401.5,0 401.5,-41"/>
<text text-anchor="start" x="293.5" y="-29" font-family="Helvetica,sans-Serif" font-size="10.00">src/application/impl</text>
<text text-anchor="start" x="293.5" y="-18" font-family="Helvetica,sans-Serif" font-size="10.00">/block_producing_node</text>
<text text-anchor="middle" x="343.5" y="-7" font-family="Helvetica,sans-Serif" font-size="10.00">_application.cpp</text>
</a>
</g>
</g>
<!-- Node6&#45;&gt;Node8 -->
<g id="edge7" class="edge">
<title>Node6&#45;&gt;Node8</title>
<path fill="none" stroke="#63b8ff" d="M343.5,-65.36C343.5,-57.24 343.5,-48.7 343.5,-41.33"/>
<polygon fill="#63b8ff" stroke="#63b8ff" points="340,-65.28 343.5,-75.28 347,-65.28 340,-65.28"/>
</g>
<!-- Node11 -->
<g id="node11" class="node">
<title>Node11</title>
<g id="a_node11"><a xlink:href="syncing__node__application_8hpp.html" target="_top" xlink:title=" ">
<polygon fill="white" stroke="#666666" points="268,-184 119,-184 119,-154 268,-154 268,-184"/>
<text text-anchor="start" x="127" y="-172" font-family="Helvetica,sans-Serif" font-size="10.00">src/application/impl</text>
<text text-anchor="middle" x="193.5" y="-161" font-family="Helvetica,sans-Serif" font-size="10.00">/syncing_node_application.hpp</text>
</a>
</g>
</g>
<!-- Node10&#45;&gt;Node11 -->
<g id="edge10" class="edge">
<title>Node10&#45;&gt;Node11</title>
<path fill="none" stroke="#63b8ff" d="M193.5,-208.39C193.5,-200.13 193.5,-191.28 193.5,-184.16"/>
<polygon fill="#63b8ff" stroke="#63b8ff" points="190,-208.28 193.5,-218.28 197,-208.28 190,-208.28"/>
</g>
<!-- Node13 -->
<g id="node13" class="node">
<title>Node13</title>
<g id="a_node13"><a xlink:href="syncing__node__injector_8cpp.html" target="_top" xlink:title=" ">
<polygon fill="white" stroke="#666666" points="101,-184 0,-184 0,-154 101,-154 101,-184"/>
<text text-anchor="start" x="8" y="-172" font-family="Helvetica,sans-Serif" font-size="10.00">src/injector/syncing</text>
<text text-anchor="middle" x="50.5" y="-161" font-family="Helvetica,sans-Serif" font-size="10.00">_node_injector.cpp</text>
</a>
</g>
</g>
<!-- Node10&#45;&gt;Node13 -->
<g id="edge12" class="edge">
<title>Node10&#45;&gt;Node13</title>
<path fill="none" stroke="#63b8ff" d="M151.03,-214.99C129.06,-205.16 102.7,-193.36 82.48,-184.31"/>
<polygon fill="#63b8ff" stroke="#63b8ff" points="149.47,-218.13 160.03,-219.02 152.33,-211.74 149.47,-218.13"/>
</g>
<!-- Node12 -->
<g id="node12" class="node">
<title>Node12</title>
<g id="a_node12"><a xlink:href="syncing__node__application_8cpp.html" target="_top" xlink:title=" ">
<polygon fill="white" stroke="#666666" points="267,-112.5 118,-112.5 118,-82.5 267,-82.5 267,-112.5"/>
<text text-anchor="start" x="126" y="-100.5" font-family="Helvetica,sans-Serif" font-size="10.00">src/application/impl</text>
<text text-anchor="middle" x="192.5" y="-89.5" font-family="Helvetica,sans-Serif" font-size="10.00">/syncing_node_application.cpp</text>
</a>
</g>
</g>
<!-- Node11&#45;&gt;Node12 -->
<g id="edge11" class="edge">
<title>Node11&#45;&gt;Node12</title>
<path fill="none" stroke="#63b8ff" d="M193.13,-142.26C192.99,-132.33 192.83,-121.36 192.71,-112.88"/>
<polygon fill="#63b8ff" stroke="#63b8ff" points="189.63,-142.14 193.27,-152.09 196.63,-142.04 189.63,-142.14"/>
</g>
<!-- Node14&#45;&gt;Node5 -->
<g id="edge17" class="edge">
<title>Node14&#45;&gt;Node5</title>
<path fill="none" stroke="#63b8ff" d="M464.59,-215.14C441.73,-205.32 414.22,-193.51 393.08,-184.43"/>
<polygon fill="#63b8ff" stroke="#63b8ff" points="463.1,-218.31 473.67,-219.04 465.86,-211.88 463.1,-218.31"/>
</g>
<!-- Node15 -->
<g id="node15" class="node">
<title>Node15</title>
<g id="a_node15"><a xlink:href="validating__node__application_8hpp.html" target="_top" xlink:title=" ">
<polygon fill="white" stroke="#666666" points="740,-184 583,-184 583,-154 740,-154 740,-184"/>
<text text-anchor="start" x="591" y="-172" font-family="Helvetica,sans-Serif" font-size="10.00">src/application/impl</text>
<text text-anchor="middle" x="661.5" y="-161" font-family="Helvetica,sans-Serif" font-size="10.00">/validating_node_application.hpp</text>
</a>
</g>
</g>
<!-- Node14&#45;&gt;Node15 -->
<g id="edge14" class="edge">
<title>Node14&#45;&gt;Node15</title>
<path fill="none" stroke="#63b8ff" d="M553.27,-215.27C576.8,-205.43 605.21,-193.55 627.01,-184.43"/>
<polygon fill="#63b8ff" stroke="#63b8ff" points="552.11,-211.97 544.23,-219.05 554.81,-218.42 552.11,-211.97"/>
</g>
<!-- Node17 -->
<g id="node17" class="node">
<title>Node17</title>
<g id="a_node17"><a xlink:href="validating__node__injector_8cpp.html" target="_top" xlink:title=" ">
<polygon fill="white" stroke="#666666" points="563,-184 454,-184 454,-154 563,-154 563,-184"/>
<text text-anchor="start" x="462" y="-172" font-family="Helvetica,sans-Serif" font-size="10.00">src/injector/validating</text>
<text text-anchor="middle" x="508.5" y="-161" font-family="Helvetica,sans-Serif" font-size="10.00">_node_injector.cpp</text>
</a>
</g>
</g>
<!-- Node14&#45;&gt;Node17 -->
<g id="edge18" class="edge">
<title>Node14&#45;&gt;Node17</title>
<path fill="none" stroke="#63b8ff" d="M508.5,-208.39C508.5,-200.13 508.5,-191.28 508.5,-184.16"/>
<polygon fill="#63b8ff" stroke="#63b8ff" points="505,-208.28 508.5,-218.28 512,-208.28 505,-208.28"/>
</g>
<!-- Node15&#45;&gt;Node7 -->
<g id="edge15" class="edge">
<title>Node15&#45;&gt;Node7</title>
<path fill="none" stroke="#63b8ff" d="M716.29,-148.43C729.46,-141 741.89,-131.07 749.5,-118 758.67,-102.25 759.48,-92.25 749.5,-77 733.03,-51.83 702.37,-38.01 675.3,-30.45"/>
<polygon fill="#63b8ff" stroke="#63b8ff" points="714.8,-145.26 707.5,-152.94 718,-151.49 714.8,-145.26"/>
</g>
<!-- Node16 -->
<g id="node16" class="node">
<title>Node16</title>
<g id="a_node16"><a xlink:href="validating__node__application_8cpp.html" target="_top" xlink:title=" ">
<polygon fill="white" stroke="#666666" points="740,-112.5 583,-112.5 583,-82.5 740,-82.5 740,-112.5"/>
<text text-anchor="start" x="591" y="-100.5" font-family="Helvetica,sans-Serif" font-size="10.00">src/application/impl</text>
<text text-anchor="middle" x="661.5" y="-89.5" font-family="Helvetica,sans-Serif" font-size="10.00">/validating_node_application.cpp</text>
</a>
</g>
</g>
<!-- Node15&#45;&gt;Node16 -->
<g id="edge16" class="edge">
<title>Node15&#45;&gt;Node16</title>
<path fill="none" stroke="#63b8ff" d="M661.5,-142.26C661.5,-132.33 661.5,-121.36 661.5,-112.88"/>
<polygon fill="#63b8ff" stroke="#63b8ff" points="658,-142.09 661.5,-152.09 665,-142.09 658,-142.09"/>
</g>
<!-- Node20&#45;&gt;Node18 -->
<g id="edge22" class="edge">
<title>Node20&#45;&gt;Node18</title>
<path fill="none" stroke="#63b8ff" d="M602.8,-358.34C607.64,-348.79 612.82,-337.59 616.5,-327 625.64,-300.72 631.52,-268.68 634.4,-250.47"/>
<polygon fill="#63b8ff" stroke="#63b8ff" points="599.82,-356.47 598.28,-366.95 606.02,-359.73 599.82,-356.47"/>
</g>
<!-- Node21 -->
<g id="node21" class="node">
<title>Node21</title>
<g id="a_node21"><a xlink:href="finality__impl_8hpp.html" target="_top" xlink:title=" ">
<polygon fill="white" stroke="#666666" points="607.5,-321.5 497.5,-321.5 497.5,-291.5 607.5,-291.5 607.5,-321.5"/>
<text text-anchor="start" x="505.5" y="-309.5" font-family="Helvetica,sans-Serif" font-size="10.00">src/verification/finality</text>
<text text-anchor="middle" x="552.5" y="-298.5" font-family="Helvetica,sans-Serif" font-size="10.00">/impl/finality_impl.hpp</text>
</a>
</g>
</g>
<!-- Node20&#45;&gt;Node21 -->
<g id="edge23" class="edge">
<title>Node20&#45;&gt;Node21</title>
<path fill="none" stroke="#63b8ff" d="M577.33,-357.83C571.46,-345.93 564.62,-332.07 559.61,-321.92"/>
<polygon fill="#63b8ff" stroke="#63b8ff" points="574.13,-359.26 581.7,-366.68 580.41,-356.17 574.13,-359.26"/>
</g>
<!-- Node22 -->
<g id="node22" class="node">
<title>Node22</title>
<g id="a_node22"><a xlink:href="voting__round__impl_8cpp.html" target="_top" xlink:title=" ">
<polygon fill="white" stroke="#666666" points="801,-321.5 664,-321.5 664,-291.5 801,-291.5 801,-321.5"/>
<text text-anchor="start" x="672" y="-309.5" font-family="Helvetica,sans-Serif" font-size="10.00">src/verification/finality</text>
<text text-anchor="middle" x="732.5" y="-298.5" font-family="Helvetica,sans-Serif" font-size="10.00">/impl/voting_round_impl.cpp</text>
</a>
</g>
</g>
<!-- Node20&#45;&gt;Node22 -->
<g id="edge26" class="edge">
<title>Node20&#45;&gt;Node22</title>
<path fill="none" stroke="#63b8ff" d="M627.08,-362.79C651.54,-349.96 682.88,-333.52 705.01,-321.92"/>
<polygon fill="#63b8ff" stroke="#63b8ff" points="625.64,-359.59 618.41,-367.34 628.89,-365.79 625.64,-359.59"/>
</g>
<!-- Node21&#45;&gt;Node14 -->
<g id="edge24" class="edge">
<title>Node21&#45;&gt;Node14</title>
<path fill="none" stroke="#63b8ff" d="M537.23,-281.38C530.69,-271.05 523.27,-259.32 517.61,-250.38"/>
<polygon fill="#63b8ff" stroke="#63b8ff" points="534.27,-283.24 542.57,-289.82 540.18,-279.5 534.27,-283.24"/>
</g>
<!-- Node21&#45;&gt;Node18 -->
<g id="edge25" class="edge">
<title>Node21&#45;&gt;Node18</title>
<path fill="none" stroke="#63b8ff" d="M578.56,-283.93C591.76,-273.02 607.41,-260.07 619.12,-250.38"/>
<polygon fill="#63b8ff" stroke="#63b8ff" points="576.54,-281.06 571.07,-290.13 581.01,-286.46 576.54,-281.06"/>
</g>
</g>
</svg>
        <g id="navigator" transform="translate(0 0)" fill="#404254">
                <rect fill="#f2f5e9" fill-opacity="0.5" stroke="#606060" stroke-width=".5" x="0" y="0" width="60" height="60"/>
                <use id="zoomplus" xlink:href="#zoomPlus" x="17" y="9" onmousedown="handleZoom(evt,'in')"/>
                <use id="zoomminus" xlink:href="#zoomMin" x="42" y="9" onmousedown="handleZoom(evt,'out')"/>
                <use id="reset" xlink:href="#resetDef" x="30" y="36" onmousedown="handleReset()"/>
                <g id="arrowUp" xlink:href="#dirArrow" transform="translate(30 24)" onmousedown="handlePan(0,-1)">
                  <use xlink:href="#rim" fill="#404040">
                        <set attributeName="fill" to="#808080" begin="arrowUp.mouseover" end="arrowUp.mouseout"/>
                  </use>
                  <path fill="none" stroke="white" stroke-width="1.5" d="M0,-3.0v7 M-2.5,-0.5L0,-3.0L2.5,-0.5"/>
                </g>
                <g id="arrowRight" xlink:href="#dirArrow" transform="rotate(90) translate(36 -43)" onmousedown="handlePan(1,0)">
                  <use xlink:href="#rim" fill="#404040">
                        <set attributeName="fill" to="#808080" begin="arrowRight.mouseover" end="arrowRight.mouseout"/>
                  </use>
                  <path fill="none" stroke="white" stroke-width="1.5" d="M0,-3.0v7 M-2.5,-0.5L0,-3.0L2.5,-0.5"/>
                </g>
                <g id="arrowDown" xlink:href="#dirArrow" transform="rotate(180) translate(-30 -48)" onmousedown="handlePan(0,1)">
                  <use xlink:href="#rim" fill="#404040">
                        <set attributeName="fill" to="#808080" begin="arrowDown.mouseover" end="arrowDown.mouseout"/>
                  </use>
                  <path fill="none" stroke="white" stroke-width="1.5" d="M0,-3.0v7 M-2.5,-0.5L0,-3.0L2.5,-0.5"/>
                </g>
                <g id="arrowLeft" xlink:href="#dirArrow" transform="rotate(270) translate(-36 17)" onmousedown="handlePan(-1,0)">
                  <use xlink:href="#rim" fill="#404040">
                        <set attributeName="fill" to="#808080" begin="arrowLeft.mouseover" end="arrowLeft.mouseout"/>
                  </use>
                  <path fill="none" stroke="white" stroke-width="1.5" d="M0,-3.0v7 M-2.5,-0.5L0,-3.0L2.5,-0.5"/>
                </g>
        </g>
        <svg viewBox="0 0 15 15" width="100%" height="30px" preserveAspectRatio="xMaxYMin meet">
         <g id="arrow_out" transform="scale(0.3 0.3)">
          <a xlink:href="vote__crypto__provider_8hpp__dep__incl_org.svg" target="_base">
           <rect id="button" ry="5" rx="5" y="6" x="6" height="38" width="38"
                fill="#f2f5e9" fill-opacity="0.5" stroke="#606060" stroke-width="1.0"/>
           <path id="arrow"
             d="M 11.500037,31.436501 C 11.940474,20.09759 22.043105,11.32322 32.158766,21.979434 L 37.068811,17.246167 C 37.068811,17.246167 37.088388,32 37.088388,32 L 22.160133,31.978069 C 22.160133,31.978069 26.997745,27.140456 26.997745,27.140456 C 18.528582,18.264221 13.291696,25.230495 11.500037,31.436501 z"
             style="fill:#404040;"/>
          </a>
         </g>
        </svg>
</svg>
