<?xml version="1.0" encoding="UTF-8" standalone="no"?>
<!DOCTYPE svg PUBLIC "-//W3C//DTD SVG 1.1//EN"
 "http://www.w3.org/Graphics/SVG/1.1/DTD/svg11.dtd">
<!-- Generated by graphviz version 7.0.5 (20221223.1930)
 -->
<!-- Title: src/verification/finality/vote_graph/vote_graph_impl.cpp Pages: 1 -->
<svg width="1474pt" height="830pt"
 viewBox="0.00 0.00 1473.50 830.00" xmlns="http://www.w3.org/2000/svg" xmlns:xlink="http://www.w3.org/1999/xlink">
<g id="graph0" class="graph" transform="scale(1 1) rotate(0) translate(4 826)">
<title>src/verification/finality/vote_graph/vote_graph_impl.cpp</title>
<!-- Node1 -->
<g id="node1" class="node">
<title>Node1</title>
<g id="a_node1"><a xlink:title=" ">
<polygon fill="#999999" stroke="#666666" points="948,-822 829,-822 829,-781 948,-781 948,-822"/>
<text text-anchor="start" x="837" y="-810" font-family="Helvetica,sans-Serif" font-size="10.00">src/verification/finality</text>
<text text-anchor="start" x="837" y="-799" font-family="Helvetica,sans-Serif" font-size="10.00">/vote_graph/vote_graph</text>
<text text-anchor="middle" x="888.5" y="-788" font-family="Helvetica,sans-Serif" font-size="10.00">_impl.cpp</text>
</a>
</g>
</g>
<!-- Node2 -->
<g id="node2" class="node">
<title>Node2</title>
<g id="a_node2"><a xlink:href="vote__graph__impl_8hpp.html" target="_top" xlink:title=" ">
<polygon fill="white" stroke="#666666" points="948,-745 829,-745 829,-704 948,-704 948,-745"/>
<text text-anchor="start" x="837" y="-733" font-family="Helvetica,sans-Serif" font-size="10.00">verification/finality</text>
<text text-anchor="start" x="837" y="-722" font-family="Helvetica,sans-Serif" font-size="10.00">/vote_graph/vote_graph</text>
<text text-anchor="middle" x="888.5" y="-711" font-family="Helvetica,sans-Serif" font-size="10.00">_impl.hpp</text>
</a>
</g>
</g>
<!-- Node1&#45;&gt;Node2 -->
<g id="edge1" class="edge">
<title>Node1&#45;&gt;Node2</title>
<path fill="none" stroke="#63b8ff" d="M888.5,-780.79C888.5,-773.45 888.5,-764.91 888.5,-756.78"/>
<polygon fill="#63b8ff" stroke="#63b8ff" points="892,-756.85 888.5,-746.85 885,-756.85 892,-756.85"/>
</g>
<!-- Node3 -->
<g id="node3" class="node">
<title>Node3</title>
<g id="a_node3"><a xlink:href="vote__graph_8hpp.html" target="_top" xlink:title=" ">
<polygon fill="white" stroke="#666666" points="704,-668 611,-668 611,-638 704,-638 704,-668"/>
<text text-anchor="start" x="619" y="-656" font-family="Helvetica,sans-Serif" font-size="10.00">verification/finality</text>
<text text-anchor="middle" x="657.5" y="-645" font-family="Helvetica,sans-Serif" font-size="10.00">/vote_graph.hpp</text>
</a>
</g>
</g>
<!-- Node2&#45;&gt;Node3 -->
<g id="edge2" class="edge">
<title>Node2&#45;&gt;Node3</title>
<path fill="none" stroke="#63b8ff" d="M828.71,-705.51C793.73,-694.99 749.78,-681.76 715.17,-671.35"/>
<polygon fill="#63b8ff" stroke="#63b8ff" points="716.32,-668.04 705.74,-668.51 714.3,-674.75 716.32,-668.04"/>
</g>
<!-- Node11 -->
<g id="node11" class="node">
<title>Node11</title>
<g id="a_node11"><a xlink:title=" ">
<polygon fill="#e0e0e0" stroke="#999999" points="1255,-398.5 1172,-398.5 1172,-379.5 1255,-379.5 1255,-398.5"/>
<text text-anchor="middle" x="1213.5" y="-386.5" font-family="Helvetica,sans-Serif" font-size="10.00">unordered_map</text>
</a>
</g>
</g>
<!-- Node2&#45;&gt;Node11 -->
<g id="edge83" class="edge">
<title>Node2&#45;&gt;Node11</title>
<path fill="none" stroke="#63b8ff" d="M948.15,-718.93C1074.89,-707.58 1359.5,-672.66 1359.5,-588 1359.5,-588 1359.5,-588 1359.5,-520 1359.5,-460.87 1291.87,-422.01 1248.67,-403.22"/>
<polygon fill="#63b8ff" stroke="#63b8ff" points="1250.24,-400.08 1239.66,-399.46 1247.54,-406.54 1250.24,-400.08"/>
</g>
<!-- Node58 -->
<g id="node47" class="node">
<title>Node58</title>
<g id="a_node47"><a xlink:title=" ">
<polygon fill="#e0e0e0" stroke="#999999" points="51,-530.5 0,-530.5 0,-511.5 51,-511.5 51,-530.5"/>
<text text-anchor="middle" x="25.5" y="-518.5" font-family="Helvetica,sans-Serif" font-size="10.00">numeric</text>
</a>
</g>
</g>
<!-- Node2&#45;&gt;Node58 -->
<g id="edge82" class="edge">
<title>Node2&#45;&gt;Node58</title>
<path fill="none" stroke="#63b8ff" d="M828.62,-718.54C706.65,-707.25 421.64,-674.77 193.5,-602 140.41,-585.07 82.59,-554.63 50.52,-536.58"/>
<polygon fill="#63b8ff" stroke="#63b8ff" points="52.41,-533.63 41.99,-531.72 48.94,-539.71 52.41,-533.63"/>
</g>
<!-- Node61 -->
<g id="node50" class="node">
<title>Node61</title>
<g id="a_node50"><a xlink:title=" ">
<polygon fill="#e0e0e0" stroke="#999999" points="1465.5,-662.5 1387.5,-662.5 1387.5,-643.5 1465.5,-643.5 1465.5,-662.5"/>
<text text-anchor="middle" x="1426.5" y="-650.5" font-family="Helvetica,sans-Serif" font-size="10.00">unordered_set</text>
</a>
</g>
</g>
<!-- Node2&#45;&gt;Node61 -->
<g id="edge84" class="edge">
<title>Node2&#45;&gt;Node61</title>
<path fill="none" stroke="#63b8ff" d="M948.27,-719.45C1040.23,-712.59 1221.71,-696.58 1373.5,-668 1377.1,-667.32 1380.82,-666.53 1384.53,-665.68"/>
<polygon fill="#63b8ff" stroke="#63b8ff" points="1385.21,-669.11 1394.09,-663.33 1383.55,-662.32 1385.21,-669.11"/>
</g>
<!-- Node4 -->
<g id="node4" class="node">
<title>Node4</title>
<g id="a_node4"><a xlink:title=" ">
<polygon fill="#e0e0e0" stroke="#999999" points="604.5,-277.5 502.5,-277.5 502.5,-258.5 604.5,-258.5 604.5,-277.5"/>
<text text-anchor="middle" x="553.5" y="-265.5" font-family="Helvetica,sans-Serif" font-size="10.00">boost/operators.hpp</text>
</a>
</g>
</g>
<!-- Node3&#45;&gt;Node4 -->
<g id="edge3" class="edge">
<title>Node3&#45;&gt;Node4</title>
<path fill="none" stroke="#63b8ff" d="M653.68,-637.91C637.81,-579.47 577.12,-355.98 558.78,-288.44"/>
<polygon fill="#63b8ff" stroke="#63b8ff" points="562.26,-287.92 556.27,-279.18 555.51,-289.75 562.26,-287.92"/>
</g>
<!-- Node5 -->
<g id="node5" class="node">
<title>Node5</title>
<g id="a_node5"><a xlink:href="verification_2finality_2chain_8hpp.html" target="_top" xlink:title=" ">
<polygon fill="white" stroke="#666666" points="833,-602 740,-602 740,-572 833,-572 833,-602"/>
<text text-anchor="start" x="748" y="-590" font-family="Helvetica,sans-Serif" font-size="10.00">verification/finality</text>
<text text-anchor="middle" x="786.5" y="-579" font-family="Helvetica,sans-Serif" font-size="10.00">/chain.hpp</text>
</a>
</g>
</g>
<!-- Node3&#45;&gt;Node5 -->
<g id="edge4" class="edge">
<title>Node3&#45;&gt;Node5</title>
<path fill="none" stroke="#63b8ff" d="M686.45,-637.64C704.46,-628.7 727.84,-617.1 747.48,-607.36"/>
<polygon fill="#63b8ff" stroke="#63b8ff" points="748.89,-610.57 756.29,-602.99 745.78,-604.3 748.89,-610.57"/>
</g>
<!-- Node57 -->
<g id="node46" class="node">
<title>Node57</title>
<g id="a_node46"><a xlink:href="vote__weight_8hpp.html" target="_top" xlink:title=" ">
<polygon fill="white" stroke="#666666" points="296,-602 203,-602 203,-572 296,-572 296,-602"/>
<text text-anchor="start" x="211" y="-590" font-family="Helvetica,sans-Serif" font-size="10.00">verification/finality</text>
<text text-anchor="middle" x="249.5" y="-579" font-family="Helvetica,sans-Serif" font-size="10.00">/vote_weight.hpp</text>
</a>
</g>
</g>
<!-- Node3&#45;&gt;Node57 -->
<g id="edge74" class="edge">
<title>Node3&#45;&gt;Node57</title>
<path fill="none" stroke="#63b8ff" d="M610.7,-644.66C535.73,-632.9 388.9,-609.87 307.43,-597.09"/>
<polygon fill="#63b8ff" stroke="#63b8ff" points="308.3,-593.68 297.88,-595.59 307.22,-600.6 308.3,-593.68"/>
</g>
<!-- Node6 -->
<g id="node6" class="node">
<title>Node6</title>
<g id="a_node6"><a xlink:title=" ">
<polygon fill="#e0e0e0" stroke="#999999" points="1293.5,-90.5 1249.5,-90.5 1249.5,-71.5 1293.5,-71.5 1293.5,-90.5"/>
<text text-anchor="middle" x="1271.5" y="-78.5" font-family="Helvetica,sans-Serif" font-size="10.00">vector</text>
</a>
</g>
</g>
<!-- Node5&#45;&gt;Node6 -->
<g id="edge5" class="edge">
<title>Node5&#45;&gt;Node6</title>
<path fill="none" stroke="#63b8ff" d="M833.16,-583.94C930.72,-579.09 1153.02,-565.12 1222.5,-536 1274.67,-514.13 1321.5,-512.57 1321.5,-456 1321.5,-456 1321.5,-456 1321.5,-206.5 1321.5,-166.3 1298.78,-123.73 1283.97,-100.24"/>
<polygon fill="#63b8ff" stroke="#63b8ff" points="1287.07,-98.59 1278.66,-92.14 1281.21,-102.42 1287.07,-98.59"/>
</g>
<!-- Node7 -->
<g id="node7" class="node">
<title>Node7</title>
<g id="a_node7"><a xlink:title=" ">
<polygon fill="#e0e0e0" stroke="#999999" points="320,-90.5 225,-90.5 225,-71.5 320,-71.5 320,-90.5"/>
<text text-anchor="middle" x="272.5" y="-78.5" font-family="Helvetica,sans-Serif" font-size="10.00">boost/optional.hpp</text>
</a>
</g>
</g>
<!-- Node5&#45;&gt;Node7 -->
<g id="edge6" class="edge">
<title>Node5&#45;&gt;Node7</title>
<path fill="none" stroke="#63b8ff" d="M739.72,-577.31C597.07,-550.77 177.1,-472.48 174.5,-470 148.07,-444.76 155.5,-426.54 155.5,-390 155.5,-390 155.5,-390 155.5,-327.5 155.5,-233.48 226.29,-137.19 257.74,-99.05"/>
<polygon fill="#63b8ff" stroke="#63b8ff" points="260.08,-101.7 263.85,-91.8 254.73,-97.19 260.08,-101.7"/>
</g>
<!-- Node8 -->
<g id="node8" class="node">
<title>Node8</title>
<g id="a_node8"><a xlink:href="outcome_8hpp.html" target="_top" xlink:title=" ">
<polygon fill="white" stroke="#666666" points="1079,-90.5 966,-90.5 966,-71.5 1079,-71.5 1079,-90.5"/>
<text text-anchor="middle" x="1022.5" y="-78.5" font-family="Helvetica,sans-Serif" font-size="10.00">outcome/outcome.hpp</text>
</a>
</g>
</g>
<!-- Node5&#45;&gt;Node8 -->
<g id="edge7" class="edge">
<title>Node5&#45;&gt;Node8</title>
<path fill="none" stroke="#63b8ff" d="M833.26,-583.73C956.98,-576.47 1283.5,-548.53 1283.5,-456 1283.5,-456 1283.5,-456 1283.5,-267 1283.5,-165.49 1150.48,-114.63 1074.36,-93.84"/>
<polygon fill="#63b8ff" stroke="#63b8ff" points="1075.59,-90.54 1065.03,-91.37 1073.81,-97.31 1075.59,-90.54"/>
</g>
<!-- Node10 -->
<g id="node10" class="node">
<title>Node10</title>
<g id="a_node10"><a xlink:href="src_2verification_2finality_2common_8hpp.html" target="_top" xlink:title=" ">
<polygon fill="white" stroke="#666666" points="943,-470 850,-470 850,-440 943,-440 943,-470"/>
<text text-anchor="start" x="858" y="-458" font-family="Helvetica,sans-Serif" font-size="10.00">verification/finality</text>
<text text-anchor="middle" x="896.5" y="-447" font-family="Helvetica,sans-Serif" font-size="10.00">/common.hpp</text>
</a>
</g>
</g>
<!-- Node5&#45;&gt;Node10 -->
<g id="edge9" class="edge">
<title>Node5&#45;&gt;Node10</title>
<path fill="none" stroke="#63b8ff" d="M798.69,-571.59C817.61,-549.24 854.2,-505.99 876.87,-479.2"/>
<polygon fill="#63b8ff" stroke="#63b8ff" points="879.49,-481.52 883.28,-471.63 874.14,-477 879.49,-481.52"/>
</g>
<!-- Node31 -->
<g id="node31" class="node">
<title>Node31</title>
<g id="a_node31"><a xlink:href="structs_8hpp.html" target="_top" xlink:title=" ">
<polygon fill="white" stroke="#666666" points="771,-536 678,-536 678,-506 771,-506 771,-536"/>
<text text-anchor="start" x="686" y="-524" font-family="Helvetica,sans-Serif" font-size="10.00">verification/finality</text>
<text text-anchor="middle" x="724.5" y="-513" font-family="Helvetica,sans-Serif" font-size="10.00">/structs.hpp</text>
</a>
</g>
</g>
<!-- Node5&#45;&gt;Node31 -->
<g id="edge37" class="edge">
<title>Node5&#45;&gt;Node31</title>
<path fill="none" stroke="#63b8ff" d="M772.74,-571.8C764.95,-563.76 755.04,-553.53 746.23,-544.43"/>
<polygon fill="#63b8ff" stroke="#63b8ff" points="748.75,-542 739.27,-537.25 743.72,-546.87 748.75,-542"/>
</g>
<!-- Node9 -->
<g id="node9" class="node">
<title>Node9</title>
<g id="a_node9"><a xlink:title=" ">
<polygon fill="#e0e0e0" stroke="#999999" points="1093,-24.5 952,-24.5 952,-5.5 1093,-5.5 1093,-24.5"/>
<text text-anchor="middle" x="1022.5" y="-12.5" font-family="Helvetica,sans-Serif" font-size="10.00">libp2p/outcome/outcome.hpp</text>
</a>
</g>
</g>
<!-- Node8&#45;&gt;Node9 -->
<g id="edge8" class="edge">
<title>Node8&#45;&gt;Node9</title>
<path fill="none" stroke="#63b8ff" d="M1022.5,-71.1C1022.5,-62.12 1022.5,-47.95 1022.5,-36.22"/>
<polygon fill="#63b8ff" stroke="#63b8ff" points="1026,-36.34 1022.5,-26.34 1019,-36.34 1026,-36.34"/>
</g>
<!-- Node10&#45;&gt;Node11 -->
<g id="edge10" class="edge">
<title>Node10&#45;&gt;Node11</title>
<path fill="none" stroke="#63b8ff" d="M943.35,-446.39C996.68,-437.45 1086.27,-421.6 1162.5,-404 1165.42,-403.33 1168.42,-402.6 1171.44,-401.84"/>
<polygon fill="#63b8ff" stroke="#63b8ff" points="1172.06,-405.29 1180.85,-399.38 1170.29,-398.52 1172.06,-405.29"/>
</g>
<!-- Node12 -->
<g id="node12" class="node">
<title>Node12</title>
<g id="a_node12"><a xlink:href="clock_8hpp.html" target="_top" xlink:title=" ">
<polygon fill="white" stroke="#666666" points="905.5,-398.5 821.5,-398.5 821.5,-379.5 905.5,-379.5 905.5,-398.5"/>
<text text-anchor="middle" x="863.5" y="-386.5" font-family="Helvetica,sans-Serif" font-size="10.00">clock/clock.hpp</text>
</a>
</g>
</g>
<!-- Node10&#45;&gt;Node12 -->
<g id="edge11" class="edge">
<title>Node10&#45;&gt;Node12</title>
<path fill="none" stroke="#63b8ff" d="M889.18,-439.8C884.49,-430.7 878.34,-418.79 873.24,-408.9"/>
<polygon fill="#63b8ff" stroke="#63b8ff" points="876.45,-407.47 868.75,-400.19 870.23,-410.68 876.45,-407.47"/>
</g>
<!-- Node14 -->
<g id="node14" class="node">
<title>Node14</title>
<g id="a_node14"><a xlink:href="wrapper_8hpp.html" target="_top" xlink:title=" ">
<polygon fill="white" stroke="#666666" points="565,-398.5 472,-398.5 472,-379.5 565,-379.5 565,-398.5"/>
<text text-anchor="middle" x="518.5" y="-386.5" font-family="Helvetica,sans-Serif" font-size="10.00">base/wrapper.hpp</text>
</a>
</g>
</g>
<!-- Node10&#45;&gt;Node14 -->
<g id="edge13" class="edge">
<title>Node10&#45;&gt;Node14</title>
<path fill="none" stroke="#63b8ff" d="M849.77,-446.09C780.72,-434.4 651.55,-412.53 576.53,-399.82"/>
<polygon fill="#63b8ff" stroke="#63b8ff" points="577.36,-396.42 566.91,-398.2 576.19,-403.32 577.36,-396.42"/>
</g>
<!-- Node17 -->
<g id="node17" class="node">
<title>Node17</title>
<g id="a_node17"><a xlink:href="ed25519__types_8hpp.html" target="_top" xlink:title=" ">
<polygon fill="white" stroke="#666666" points="803,-398.5 674,-398.5 674,-379.5 803,-379.5 803,-398.5"/>
<text text-anchor="middle" x="738.5" y="-386.5" font-family="Helvetica,sans-Serif" font-size="10.00">crypto/ed25519_types.hpp</text>
</a>
</g>
</g>
<!-- Node10&#45;&gt;Node17 -->
<g id="edge17" class="edge">
<title>Node10&#45;&gt;Node17</title>
<path fill="none" stroke="#63b8ff" d="M861.04,-439.64C834.13,-428.74 797.42,-413.87 771.21,-403.25"/>
<polygon fill="#63b8ff" stroke="#63b8ff" points="772.67,-400.06 762.09,-399.55 770.04,-406.55 772.67,-400.06"/>
</g>
<!-- Node26 -->
<g id="node26" class="node">
<title>Node26</title>
<g id="a_node26"><a xlink:href="authority_8hpp.html" target="_top" xlink:title=" ">
<polygon fill="white" stroke="#666666" points="1153.5,-398.5 1037.5,-398.5 1037.5,-379.5 1153.5,-379.5 1153.5,-398.5"/>
<text text-anchor="middle" x="1095.5" y="-386.5" font-family="Helvetica,sans-Serif" font-size="10.00">primitives/authority.hpp</text>
</a>
</g>
</g>
<!-- Node10&#45;&gt;Node26 -->
<g id="edge28" class="edge">
<title>Node10&#45;&gt;Node26</title>
<path fill="none" stroke="#63b8ff" d="M941.16,-439.64C975.96,-428.45 1023.77,-413.07 1056.92,-402.41"/>
<polygon fill="#63b8ff" stroke="#63b8ff" points="1057.67,-405.84 1066.12,-399.45 1055.53,-399.18 1057.67,-405.84"/>
</g>
<!-- Node29 -->
<g id="node29" class="node">
<title>Node29</title>
<g id="a_node29"><a xlink:href="src_2primitives_2common_8hpp.html" target="_top" xlink:title=" ">
<polygon fill="white" stroke="#666666" points="999,-338 882,-338 882,-319 999,-319 999,-338"/>
<text text-anchor="middle" x="940.5" y="-326" font-family="Helvetica,sans-Serif" font-size="10.00">primitives/common.hpp</text>
</a>
</g>
</g>
<!-- Node10&#45;&gt;Node29 -->
<g id="edge36" class="edge">
<title>Node10&#45;&gt;Node29</title>
<path fill="none" stroke="#63b8ff" d="M901.74,-439.57C905.35,-429.59 910.25,-416 914.5,-404 921.15,-385.25 928.62,-363.81 933.84,-348.75"/>
<polygon fill="#63b8ff" stroke="#63b8ff" points="937.02,-350.25 936.99,-339.66 930.41,-347.96 937.02,-350.25"/>
</g>
<!-- Node13 -->
<g id="node13" class="node">
<title>Node13</title>
<g id="a_node13"><a xlink:title=" ">
<polygon fill="#e0e0e0" stroke="#999999" points="863.5,-338 817.5,-338 817.5,-319 863.5,-319 863.5,-338"/>
<text text-anchor="middle" x="840.5" y="-326" font-family="Helvetica,sans-Serif" font-size="10.00">chrono</text>
</a>
</g>
</g>
<!-- Node12&#45;&gt;Node13 -->
<g id="edge12" class="edge">
<title>Node12&#45;&gt;Node13</title>
<path fill="none" stroke="#63b8ff" d="M860.11,-379.37C856.95,-371.33 852.13,-359.07 848.06,-348.72"/>
<polygon fill="#63b8ff" stroke="#63b8ff" points="851.38,-347.6 844.46,-339.58 844.86,-350.16 851.38,-347.6"/>
</g>
<!-- Node14&#45;&gt;Node4 -->
<g id="edge16" class="edge">
<title>Node14&#45;&gt;Node4</title>
<path fill="none" stroke="#63b8ff" d="M521.7,-379.21C525.28,-369.27 531.13,-352.58 535.5,-338 540.4,-321.66 545.24,-302.91 548.67,-289.09"/>
<polygon fill="#63b8ff" stroke="#63b8ff" points="552.05,-290 551.02,-279.46 545.25,-288.35 552.05,-290"/>
</g>
<!-- Node15 -->
<g id="node15" class="node">
<title>Node15</title>
<g id="a_node15"><a xlink:title=" ">
<polygon fill="#e0e0e0" stroke="#999999" points="527,-338 476,-338 476,-319 527,-319 527,-338"/>
<text text-anchor="middle" x="501.5" y="-326" font-family="Helvetica,sans-Serif" font-size="10.00">memory</text>
</a>
</g>
</g>
<!-- Node14&#45;&gt;Node15 -->
<g id="edge14" class="edge">
<title>Node14&#45;&gt;Node15</title>
<path fill="none" stroke="#63b8ff" d="M515.99,-379.37C513.68,-371.42 510.17,-359.33 507.18,-349.05"/>
<polygon fill="#63b8ff" stroke="#63b8ff" points="510.59,-348.25 504.44,-339.62 503.87,-350.2 510.59,-348.25"/>
</g>
<!-- Node16 -->
<g id="node16" class="node">
<title>Node16</title>
<g id="a_node16"><a xlink:title=" ">
<polygon fill="#e0e0e0" stroke="#999999" points="457.5,-338 395.5,-338 395.5,-319 457.5,-319 457.5,-338"/>
<text text-anchor="middle" x="426.5" y="-326" font-family="Helvetica,sans-Serif" font-size="10.00">type_traits</text>
</a>
</g>
</g>
<!-- Node14&#45;&gt;Node16 -->
<g id="edge15" class="edge">
<title>Node14&#45;&gt;Node16</title>
<path fill="none" stroke="#63b8ff" d="M504.53,-379.12C490.07,-369.92 467.24,-355.41 450,-344.44"/>
<polygon fill="#63b8ff" stroke="#63b8ff" points="452.2,-341.69 441.88,-339.28 448.44,-347.6 452.2,-341.69"/>
</g>
<!-- Node18 -->
<g id="node18" class="node">
<title>Node18</title>
<g id="a_node18"><a xlink:title=" ">
<polygon fill="#e0e0e0" stroke="#999999" points="761,-338 660,-338 660,-319 761,-319 761,-338"/>
<text text-anchor="middle" x="710.5" y="-326" font-family="Helvetica,sans-Serif" font-size="10.00">ed25519/ed25519.h</text>
</a>
</g>
</g>
<!-- Node17&#45;&gt;Node18 -->
<g id="edge18" class="edge">
<title>Node17&#45;&gt;Node18</title>
<path fill="none" stroke="#63b8ff" d="M734.37,-379.37C730.48,-371.25 724.53,-358.81 719.54,-348.39"/>
<polygon fill="#63b8ff" stroke="#63b8ff" points="722.78,-347.04 715.3,-339.53 716.46,-350.06 722.78,-347.04"/>
</g>
<!-- Node19 -->
<g id="node19" class="node">
<title>Node19</title>
<g id="a_node19"><a xlink:href="blob_8hpp.html" target="_top" xlink:title=" ">
<polygon fill="white" stroke="#666666" points="826,-217 749,-217 749,-198 826,-198 826,-217"/>
<text text-anchor="middle" x="787.5" y="-205" font-family="Helvetica,sans-Serif" font-size="10.00">base/blob.hpp</text>
</a>
</g>
</g>
<!-- Node17&#45;&gt;Node19 -->
<g id="edge19" class="edge">
<title>Node17&#45;&gt;Node19</title>
<path fill="none" stroke="#63b8ff" d="M745.7,-379.02C752.96,-369.45 763.88,-353.56 769.5,-338 782.89,-300.92 786.4,-254.56 787.27,-228.57"/>
<polygon fill="#63b8ff" stroke="#63b8ff" points="790.76,-228.87 787.48,-218.79 783.76,-228.71 790.76,-228.87"/>
</g>
<!-- Node20 -->
<g id="node20" class="node">
<title>Node20</title>
<g id="a_node20"><a xlink:title=" ">
<polygon fill="#e0e0e0" stroke="#999999" points="641.5,-90.5 603.5,-90.5 603.5,-71.5 641.5,-71.5 641.5,-90.5"/>
<text text-anchor="middle" x="622.5" y="-78.5" font-family="Helvetica,sans-Serif" font-size="10.00">array</text>
</a>
</g>
</g>
<!-- Node19&#45;&gt;Node20 -->
<g id="edge20" class="edge">
<title>Node19&#45;&gt;Node20</title>
<path fill="none" stroke="#63b8ff" d="M766.2,-197.54C748.35,-189.53 722.63,-176.8 702.5,-162 677.13,-143.35 652.16,-116.69 637.04,-99.36"/>
<polygon fill="#63b8ff" stroke="#63b8ff" points="639.86,-97.27 630.7,-91.95 634.54,-101.82 639.86,-97.27"/>
</g>
<!-- Node21 -->
<g id="node21" class="node">
<title>Node21</title>
<g id="a_node21"><a xlink:title=" ">
<polygon fill="#e0e0e0" stroke="#999999" points="839.5,-156.5 711.5,-156.5 711.5,-137.5 839.5,-137.5 839.5,-156.5"/>
<text text-anchor="middle" x="775.5" y="-144.5" font-family="Helvetica,sans-Serif" font-size="10.00">boost/functional/hash.hpp</text>
</a>
</g>
</g>
<!-- Node19&#45;&gt;Node21 -->
<g id="edge21" class="edge">
<title>Node19&#45;&gt;Node21</title>
<path fill="none" stroke="#63b8ff" d="M785.73,-197.87C784.12,-190 781.67,-178.1 779.58,-167.89"/>
<polygon fill="#63b8ff" stroke="#63b8ff" points="783.02,-167.24 777.58,-158.15 776.16,-168.65 783.02,-167.24"/>
</g>
<!-- Node22 -->
<g id="node22" class="node">
<title>Node22</title>
<g id="a_node22"><a xlink:href="hexutil_8hpp.html" target="_top" xlink:title=" ">
<polygon fill="white" stroke="#666666" points="1053.5,-156.5 967.5,-156.5 967.5,-137.5 1053.5,-137.5 1053.5,-156.5"/>
<text text-anchor="middle" x="1010.5" y="-144.5" font-family="Helvetica,sans-Serif" font-size="10.00">base/hexutil.hpp</text>
</a>
</g>
</g>
<!-- Node19&#45;&gt;Node22 -->
<g id="edge22" class="edge">
<title>Node19&#45;&gt;Node22</title>
<path fill="none" stroke="#63b8ff" d="M821.37,-197.62C859.84,-187.52 922.8,-171.01 965.41,-159.83"/>
<polygon fill="#63b8ff" stroke="#63b8ff" points="966.06,-163.28 974.85,-157.35 964.29,-156.5 966.06,-163.28"/>
</g>
<!-- Node25 -->
<g id="node25" class="node">
<title>Node25</title>
<g id="a_node25"><a xlink:title=" ">
<polygon fill="#e0e0e0" stroke="#999999" points="911.5,-156.5 857.5,-156.5 857.5,-137.5 911.5,-137.5 911.5,-156.5"/>
<text text-anchor="middle" x="884.5" y="-144.5" font-family="Helvetica,sans-Serif" font-size="10.00">iostream</text>
</a>
</g>
</g>
<!-- Node19&#45;&gt;Node25 -->
<g id="edge27" class="edge">
<title>Node19&#45;&gt;Node25</title>
<path fill="none" stroke="#63b8ff" d="M802.23,-197.62C817.54,-188.38 841.77,-173.77 859.97,-162.79"/>
<polygon fill="#63b8ff" stroke="#63b8ff" points="861.58,-165.91 868.33,-157.75 857.96,-159.92 861.58,-165.91"/>
</g>
<!-- Node22&#45;&gt;Node6 -->
<g id="edge24" class="edge">
<title>Node22&#45;&gt;Node6</title>
<path fill="none" stroke="#63b8ff" d="M1046.98,-137.02C1053.8,-135.34 1060.87,-133.62 1067.5,-132 1133.69,-115.87 1150.38,-112.4 1216.5,-96 1223.45,-94.28 1230.88,-92.4 1237.96,-90.61"/>
<polygon fill="#63b8ff" stroke="#63b8ff" points="1238.74,-94.02 1247.57,-88.16 1237.02,-87.24 1238.74,-94.02"/>
</g>
<!-- Node22&#45;&gt;Node8 -->
<g id="edge26" class="edge">
<title>Node22&#45;&gt;Node8</title>
<path fill="none" stroke="#63b8ff" d="M1012.17,-137.1C1013.87,-128.03 1016.57,-113.64 1018.78,-101.85"/>
<polygon fill="#63b8ff" stroke="#63b8ff" points="1022.16,-102.78 1020.57,-92.31 1015.28,-101.49 1022.16,-102.78"/>
</g>
<!-- Node23 -->
<g id="node23" class="node">
<title>Node23</title>
<g id="a_node23"><a xlink:title=" ">
<polygon fill="#e0e0e0" stroke="#999999" points="1207.5,-90.5 1141.5,-90.5 1141.5,-71.5 1207.5,-71.5 1207.5,-90.5"/>
<text text-anchor="middle" x="1174.5" y="-78.5" font-family="Helvetica,sans-Serif" font-size="10.00">string_view</text>
</a>
</g>
</g>
<!-- Node22&#45;&gt;Node23 -->
<g id="edge23" class="edge">
<title>Node22&#45;&gt;Node23</title>
<path fill="none" stroke="#63b8ff" d="M1033.3,-137.1C1061.25,-126.19 1108.85,-107.62 1140.97,-95.09"/>
<polygon fill="#63b8ff" stroke="#63b8ff" points="1142.17,-98.37 1150.22,-91.48 1139.63,-91.85 1142.17,-98.37"/>
</g>
<!-- Node24 -->
<g id="node24" class="node">
<title>Node24</title>
<g id="a_node24"><a xlink:title=" ">
<polygon fill="#e0e0e0" stroke="#999999" points="713,-90.5 660,-90.5 660,-71.5 713,-71.5 713,-90.5"/>
<text text-anchor="middle" x="686.5" y="-78.5" font-family="Helvetica,sans-Serif" font-size="10.00">gsl/span</text>
</a>
</g>
</g>
<!-- Node22&#45;&gt;Node24 -->
<g id="edge25" class="edge">
<title>Node22&#45;&gt;Node24</title>
<path fill="none" stroke="#63b8ff" d="M975.3,-137.03C968.1,-135.29 960.57,-133.53 953.5,-132 872.25,-114.43 776.3,-97.35 724.42,-88.42"/>
<polygon fill="#63b8ff" stroke="#63b8ff" points="725.07,-84.98 714.62,-86.74 723.88,-91.87 725.07,-84.98"/>
</g>
<!-- Node27 -->
<g id="node27" class="node">
<title>Node27</title>
<g id="a_node27"><a xlink:title=" ">
<polygon fill="#e0e0e0" stroke="#999999" points="1179.5,-277.5 1133.5,-277.5 1133.5,-258.5 1179.5,-258.5 1179.5,-277.5"/>
<text text-anchor="middle" x="1156.5" y="-265.5" font-family="Helvetica,sans-Serif" font-size="10.00">cstdint</text>
</a>
</g>
</g>
<!-- Node26&#45;&gt;Node27 -->
<g id="edge29" class="edge">
<title>Node26&#45;&gt;Node27</title>
<path fill="none" stroke="#63b8ff" d="M1128.97,-379.09C1149.48,-371.7 1174.11,-358.95 1186.5,-338 1196.43,-321.22 1184.57,-300.54 1172.97,-286.22"/>
<polygon fill="#63b8ff" stroke="#63b8ff" points="1175.83,-284.18 1166.6,-278.97 1170.57,-288.8 1175.83,-284.18"/>
</g>
<!-- Node28 -->
<g id="node28" class="node">
<title>Node28</title>
<g id="a_node28"><a xlink:title=" ">
<polygon fill="#e0e0e0" stroke="#999999" points="1177,-338 1118,-338 1118,-319 1177,-319 1177,-338"/>
<text text-anchor="middle" x="1147.5" y="-326" font-family="Helvetica,sans-Serif" font-size="10.00">functional</text>
</a>
</g>
</g>
<!-- Node26&#45;&gt;Node28 -->
<g id="edge30" class="edge">
<title>Node26&#45;&gt;Node28</title>
<path fill="none" stroke="#63b8ff" d="M1103.17,-379.37C1110.78,-370.81 1122.64,-357.47 1132.18,-346.74"/>
<polygon fill="#63b8ff" stroke="#63b8ff" points="1134.76,-349.1 1138.79,-339.3 1129.53,-344.45 1134.76,-349.1"/>
</g>
<!-- Node26&#45;&gt;Node29 -->
<g id="edge31" class="edge">
<title>Node26&#45;&gt;Node29</title>
<path fill="none" stroke="#63b8ff" d="M1071.96,-379.12C1046.13,-369.37 1004.41,-353.62 974.91,-342.49"/>
<polygon fill="#63b8ff" stroke="#63b8ff" points="976.27,-339.26 965.68,-339 973.8,-345.81 976.27,-339.26"/>
</g>
<!-- Node29&#45;&gt;Node4 -->
<g id="edge33" class="edge">
<title>Node29&#45;&gt;Node4</title>
<path fill="none" stroke="#63b8ff" d="M881.72,-318.62C810.07,-307.78 689.48,-289.56 616.13,-278.47"/>
<polygon fill="#63b8ff" stroke="#63b8ff" points="616.68,-275.01 606.27,-276.98 615.64,-281.93 616.68,-275.01"/>
</g>
<!-- Node29&#45;&gt;Node27 -->
<g id="edge32" class="edge">
<title>Node29&#45;&gt;Node27</title>
<path fill="none" stroke="#63b8ff" d="M973.31,-318.62C1013.46,-307.74 1081.14,-289.41 1122.03,-278.34"/>
<polygon fill="#63b8ff" stroke="#63b8ff" points="1122.86,-281.74 1131.6,-275.74 1121.03,-274.98 1122.86,-281.74"/>
</g>
<!-- Node30 -->
<g id="node30" class="node">
<title>Node30</title>
<g id="a_node30"><a xlink:href="session__key_8hpp.html" target="_top" xlink:title=" ">
<polygon fill="white" stroke="#666666" points="911,-283 816,-283 816,-253 911,-253 911,-283"/>
<text text-anchor="start" x="824" y="-271" font-family="Helvetica,sans-Serif" font-size="10.00">primitives/session</text>
<text text-anchor="middle" x="863.5" y="-260" font-family="Helvetica,sans-Serif" font-size="10.00">_key.hpp</text>
</a>
</g>
</g>
<!-- Node29&#45;&gt;Node30 -->
<g id="edge34" class="edge">
<title>Node29&#45;&gt;Node30</title>
<path fill="none" stroke="#63b8ff" d="M928.81,-318.62C918.92,-311.1 904.35,-300.04 891.49,-290.26"/>
<polygon fill="#63b8ff" stroke="#63b8ff" points="893.79,-287.62 883.71,-284.36 889.56,-293.19 893.79,-287.62"/>
</g>
<!-- Node30&#45;&gt;Node19 -->
<g id="edge35" class="edge">
<title>Node30&#45;&gt;Node19</title>
<path fill="none" stroke="#63b8ff" d="M844.71,-252.54C833.45,-243.87 819.13,-232.85 807.63,-224"/>
<polygon fill="#63b8ff" stroke="#63b8ff" points="810.03,-221.42 799.97,-218.1 805.76,-226.97 810.03,-221.42"/>
</g>
<!-- Node31&#45;&gt;Node10 -->
<g id="edge70" class="edge">
<title>Node31&#45;&gt;Node10</title>
<path fill="none" stroke="#63b8ff" d="M763.1,-505.64C787.91,-496.41 820.37,-484.33 847.06,-474.39"/>
<polygon fill="#63b8ff" stroke="#63b8ff" points="848.16,-477.72 856.31,-470.95 845.72,-471.16 848.16,-477.72"/>
</g>
<!-- Node31&#45;&gt;Node14 -->
<g id="edge69" class="edge">
<title>Node31&#45;&gt;Node14</title>
<path fill="none" stroke="#63b8ff" d="M685.66,-505.6C663.72,-496.71 636.22,-484.29 613.5,-470 583.7,-451.25 553.27,-423.87 535.13,-406.5"/>
<polygon fill="#63b8ff" stroke="#63b8ff" points="537.97,-404.38 528.36,-399.92 533.09,-409.4 537.97,-404.38"/>
</g>
<!-- Node31&#45;&gt;Node17 -->
<g id="edge71" class="edge">
<title>Node31&#45;&gt;Node17</title>
<path fill="none" stroke="#63b8ff" d="M762.16,-505.55C777.56,-497.56 793.78,-485.95 802.5,-470 808.9,-458.3 808.35,-451.98 802.5,-440 795.11,-424.85 780.67,-412.95 767.37,-404.56"/>
<polygon fill="#63b8ff" stroke="#63b8ff" points="769.27,-401.62 758.87,-399.6 765.74,-407.67 769.27,-401.62"/>
</g>
<!-- Node31&#45;&gt;Node19 -->
<g id="edge64" class="edge">
<title>Node31&#45;&gt;Node19</title>
<path fill="none" stroke="#63b8ff" d="M686.84,-505.55C671.44,-497.56 655.22,-485.95 646.5,-470 632.57,-444.53 600.08,-420.13 650.5,-319 673.32,-273.23 724.87,-240.07 757.82,-222.6"/>
<polygon fill="#63b8ff" stroke="#63b8ff" points="759.16,-225.85 766.46,-218.17 755.96,-219.62 759.16,-225.85"/>
</g>
<!-- Node31&#45;&gt;Node26 -->
<g id="edge72" class="edge">
<title>Node31&#45;&gt;Node26</title>
<path fill="none" stroke="#63b8ff" d="M771.48,-515.94C844.42,-509.02 980.93,-493.36 1023.5,-470 1050.05,-455.43 1071.85,-427.24 1084.26,-408.52"/>
<polygon fill="#63b8ff" stroke="#63b8ff" points="1087.09,-410.59 1089.5,-400.28 1081.18,-406.84 1087.09,-410.59"/>
</g>
<!-- Node31&#45;&gt;Node29 -->
<g id="edge73" class="edge">
<title>Node31&#45;&gt;Node29</title>
<path fill="none" stroke="#63b8ff" d="M771.34,-516.5C831.33,-510.92 930.21,-497.71 952.5,-470 980.68,-434.97 962.26,-377.91 949.59,-348.44"/>
<polygon fill="#63b8ff" stroke="#63b8ff" points="952.92,-347.31 945.6,-339.66 946.55,-350.21 952.92,-347.31"/>
</g>
<!-- Node32 -->
<g id="node32" class="node">
<title>Node32</title>
<g id="a_node32"><a xlink:title=" ">
<polygon fill="#e0e0e0" stroke="#999999" points="793.5,-464.5 655.5,-464.5 655.5,-445.5 793.5,-445.5 793.5,-464.5"/>
<text text-anchor="middle" x="724.5" y="-452.5" font-family="Helvetica,sans-Serif" font-size="10.00">boost/asio/steady_timer.hpp</text>
</a>
</g>
</g>
<!-- Node31&#45;&gt;Node32 -->
<g id="edge38" class="edge">
<title>Node31&#45;&gt;Node32</title>
<path fill="none" stroke="#63b8ff" d="M724.5,-505.8C724.5,-497.09 724.5,-485.81 724.5,-476.18"/>
<polygon fill="#63b8ff" stroke="#63b8ff" points="728,-476.36 724.5,-466.36 721,-476.36 728,-476.36"/>
</g>
<!-- Node33 -->
<g id="node33" class="node">
<title>Node33</title>
<g id="a_node33"><a xlink:title=" ">
<polygon fill="#e0e0e0" stroke="#999999" points="275,-464.5 184,-464.5 184,-445.5 275,-445.5 275,-464.5"/>
<text text-anchor="middle" x="229.5" y="-452.5" font-family="Helvetica,sans-Serif" font-size="10.00">boost/variant.hpp</text>
</a>
</g>
</g>
<!-- Node31&#45;&gt;Node33 -->
<g id="edge39" class="edge">
<title>Node31&#45;&gt;Node33</title>
<path fill="none" stroke="#63b8ff" d="M677.58,-516.38C597.56,-509.82 429.75,-494.34 289.5,-470 285.12,-469.24 280.58,-468.36 276.05,-467.41"/>
<polygon fill="#63b8ff" stroke="#63b8ff" points="276.89,-464.01 266.37,-465.29 275.39,-470.85 276.89,-464.01"/>
</g>
<!-- Node34 -->
<g id="node34" class="node">
<title>Node34</title>
<g id="a_node34"><a xlink:href="buffer_8hpp.html" target="_top" xlink:title=" ">
<polygon fill="white" stroke="#666666" points="1100,-338 1017,-338 1017,-319 1100,-319 1100,-338"/>
<text text-anchor="middle" x="1058.5" y="-326" font-family="Helvetica,sans-Serif" font-size="10.00">base/buffer.hpp</text>
</a>
</g>
</g>
<!-- Node31&#45;&gt;Node34 -->
<g id="edge40" class="edge">
<title>Node31&#45;&gt;Node34</title>
<path fill="none" stroke="#63b8ff" d="M771.48,-515.14C834.13,-507.9 940.84,-492.64 972.5,-470 1012.68,-441.27 1002.24,-415.83 1028.5,-374 1034.01,-365.22 1040.4,-355.67 1045.86,-347.67"/>
<polygon fill="#63b8ff" stroke="#63b8ff" points="1048.7,-349.72 1051.49,-339.5 1042.94,-345.75 1048.7,-349.72"/>
</g>
<!-- Node36 -->
<g id="node36" class="node">
<title>Node36</title>
<g id="a_node36"><a xlink:href="scale_8hpp.html" target="_top" xlink:title=" ">
<polygon fill="white" stroke="#666666" points="506.5,-217 422.5,-217 422.5,-198 506.5,-198 506.5,-217"/>
<text text-anchor="middle" x="464.5" y="-205" font-family="Helvetica,sans-Serif" font-size="10.00">scale/scale.hpp</text>
</a>
</g>
</g>
<!-- Node31&#45;&gt;Node36 -->
<g id="edge47" class="edge">
<title>Node31&#45;&gt;Node36</title>
<path fill="none" stroke="#63b8ff" d="M677.58,-518.97C608.09,-516.22 474.5,-506.22 367.5,-470 339.22,-460.43 265.55,-429.78 250.5,-404 200.53,-318.44 354.01,-248.85 427.55,-221.27"/>
<polygon fill="#63b8ff" stroke="#63b8ff" points="428.6,-224.61 436.79,-217.88 426.19,-218.04 428.6,-224.61"/>
</g>
<!-- Node51 -->
<g id="node43" class="node">
<title>Node51</title>
<g id="a_node43"><a xlink:href="visitor_8hpp.html" target="_top" xlink:title=" ">
<polygon fill="white" stroke="#666666" points="462,-464.5 377,-464.5 377,-445.5 462,-445.5 462,-464.5"/>
<text text-anchor="middle" x="419.5" y="-452.5" font-family="Helvetica,sans-Serif" font-size="10.00">base/visitor.hpp</text>
</a>
</g>
</g>
<!-- Node31&#45;&gt;Node51 -->
<g id="edge65" class="edge">
<title>Node31&#45;&gt;Node51</title>
<path fill="none" stroke="#63b8ff" d="M677.51,-510.14C622.37,-498.57 531.13,-479.42 473.22,-467.27"/>
<polygon fill="#63b8ff" stroke="#63b8ff" points="474.1,-463.88 463.59,-465.25 472.66,-470.73 474.1,-463.88"/>
</g>
<!-- Node34&#45;&gt;Node4 -->
<g id="edge44" class="edge">
<title>Node34&#45;&gt;Node4</title>
<path fill="none" stroke="#63b8ff" d="M1016.52,-320.18C1013.81,-319.76 1011.12,-319.37 1008.5,-319 868.78,-299.46 704.03,-282.98 616.16,-274.71"/>
<polygon fill="#63b8ff" stroke="#63b8ff" points="616.59,-271.23 606.31,-273.78 615.94,-278.2 616.59,-271.23"/>
</g>
<!-- Node34&#45;&gt;Node6 -->
<g id="edge42" class="edge">
<title>Node34&#45;&gt;Node6</title>
<path fill="none" stroke="#63b8ff" d="M1100.45,-319.75C1139.53,-311.74 1194.04,-298.27 1209.5,-283 1260.27,-232.87 1269.66,-142.17 1271.26,-102.04"/>
<polygon fill="#63b8ff" stroke="#63b8ff" points="1274.75,-102.3 1271.51,-92.21 1267.75,-102.12 1274.75,-102.3"/>
</g>
<!-- Node34&#45;&gt;Node8 -->
<g id="edge46" class="edge">
<title>Node34&#45;&gt;Node8</title>
<path fill="none" stroke="#63b8ff" d="M1066.17,-318.7C1073.02,-310.21 1082.55,-296.68 1086.5,-283 1090.2,-270.19 1087.8,-266.27 1086.5,-253 1081.14,-198.44 1085.62,-181.71 1062.5,-132 1056.8,-119.75 1047.51,-107.87 1039.31,-98.76"/>
<polygon fill="#63b8ff" stroke="#63b8ff" points="1042.1,-96.62 1032.69,-91.77 1037.02,-101.44 1042.1,-96.62"/>
</g>
<!-- Node34&#45;&gt;Node23 -->
<g id="edge41" class="edge">
<title>Node34&#45;&gt;Node23</title>
<path fill="none" stroke="#63b8ff" d="M1100.21,-318.74C1134.11,-310.67 1177.96,-297.75 1188.5,-283 1228.23,-227.41 1199.18,-139.63 1183.18,-101.15"/>
<polygon fill="#63b8ff" stroke="#63b8ff" points="1186.43,-99.85 1179.24,-92.07 1180.01,-102.64 1186.43,-99.85"/>
</g>
<!-- Node34&#45;&gt;Node24 -->
<g id="edge45" class="edge">
<title>Node34&#45;&gt;Node24</title>
<path fill="none" stroke="#63b8ff" d="M1018,-318.51C997.41,-311.95 973.61,-300.96 958.5,-283 913.95,-230.04 970.31,-180.04 920.5,-132 892.95,-105.42 783.78,-91.2 724.8,-85.31"/>
<polygon fill="#63b8ff" stroke="#63b8ff" points="725.16,-81.83 714.87,-84.36 724.49,-88.8 725.16,-81.83"/>
</g>
<!-- Node35 -->
<g id="node35" class="node">
<title>Node35</title>
<g id="a_node35"><a xlink:title=" ">
<polygon fill="#e0e0e0" stroke="#999999" points="1077.5,-283 967.5,-283 967.5,-253 1077.5,-253 1077.5,-283"/>
<text text-anchor="start" x="975.5" y="-271" font-family="Helvetica,sans-Serif" font-size="10.00">boost/container_hash</text>
<text text-anchor="middle" x="1022.5" y="-260" font-family="Helvetica,sans-Serif" font-size="10.00">/hash.hpp</text>
</a>
</g>
</g>
<!-- Node34&#45;&gt;Node35 -->
<g id="edge43" class="edge">
<title>Node34&#45;&gt;Node35</title>
<path fill="none" stroke="#63b8ff" d="M1053.19,-318.87C1048.94,-311.96 1042.76,-301.93 1037.07,-292.67"/>
<polygon fill="#63b8ff" stroke="#63b8ff" points="1040.2,-291.09 1031.98,-284.4 1034.24,-294.75 1040.2,-291.09"/>
</g>
<!-- Node36&#45;&gt;Node6 -->
<g id="edge48" class="edge">
<title>Node36&#45;&gt;Node6</title>
<path fill="none" stroke="#63b8ff" d="M506.83,-204.95C624.94,-200.37 956.33,-185.73 1062.5,-162 1129.74,-146.97 1204.11,-114.38 1243.47,-95.76"/>
<polygon fill="#63b8ff" stroke="#63b8ff" points="1244.73,-99.04 1252.24,-91.56 1241.71,-92.73 1244.73,-99.04"/>
</g>
<!-- Node36&#45;&gt;Node8 -->
<g id="edge52" class="edge">
<title>Node36&#45;&gt;Node8</title>
<path fill="none" stroke="#63b8ff" d="M500.38,-197.57C533,-189.21 582.34,-175.93 624.5,-162 659.77,-150.34 666.62,-141.59 702.5,-132 787.83,-109.2 888.91,-95.56 954.3,-88.42"/>
<polygon fill="#63b8ff" stroke="#63b8ff" points="954.6,-91.9 964.17,-87.36 953.86,-84.94 954.6,-91.9"/>
</g>
<!-- Node36&#45;&gt;Node24 -->
<g id="edge51" class="edge">
<title>Node36&#45;&gt;Node24</title>
<path fill="none" stroke="#63b8ff" d="M499.01,-197.55C524.67,-190.1 560.03,-178.1 588.5,-162 619.88,-144.26 651.31,-116.38 669.82,-98.66"/>
<polygon fill="#63b8ff" stroke="#63b8ff" points="672.02,-101.4 676.73,-91.92 667.13,-96.39 672.02,-101.4"/>
</g>
<!-- Node37 -->
<g id="node37" class="node">
<title>Node37</title>
<g id="a_node37"><a xlink:title=" ">
<polygon fill="#e0e0e0" stroke="#999999" points="238.5,-30 128.5,-30 128.5,0 238.5,0 238.5,-30"/>
<text text-anchor="start" x="136.5" y="-18" font-family="Helvetica,sans-Serif" font-size="10.00">boost/system/system</text>
<text text-anchor="middle" x="183.5" y="-7" font-family="Helvetica,sans-Serif" font-size="10.00">_error.hpp</text>
</a>
</g>
</g>
<!-- Node36&#45;&gt;Node37 -->
<g id="edge49" class="edge">
<title>Node36&#45;&gt;Node37</title>
<path fill="none" stroke="#63b8ff" d="M422.29,-202.08C366.85,-195.59 273.28,-182.02 245.5,-162 206.1,-133.61 191.56,-75.05 186.33,-41.36"/>
<polygon fill="#63b8ff" stroke="#63b8ff" points="189.83,-41.11 185,-31.68 182.89,-42.06 189.83,-41.11"/>
</g>
<!-- Node38 -->
<g id="node38" class="node">
<title>Node38</title>
<g id="a_node38"><a xlink:title=" ">
<polygon fill="#e0e0e0" stroke="#999999" points="415.5,-24.5 283.5,-24.5 283.5,-5.5 415.5,-5.5 415.5,-24.5"/>
<text text-anchor="middle" x="349.5" y="-12.5" font-family="Helvetica,sans-Serif" font-size="10.00">boost/throw_exception.hpp</text>
</a>
</g>
</g>
<!-- Node36&#45;&gt;Node38 -->
<g id="edge50" class="edge">
<title>Node36&#45;&gt;Node38</title>
<path fill="none" stroke="#63b8ff" d="M422.33,-202.2C363.53,-193.64 259.21,-168.5 215.5,-96 194.37,-60.95 244.82,-39.41 289.75,-27.64"/>
<polygon fill="#63b8ff" stroke="#63b8ff" points="290.37,-31.09 299.23,-25.29 288.68,-24.3 290.37,-31.09"/>
</g>
<!-- Node39 -->
<g id="node39" class="node">
<title>Node39</title>
<g id="a_node39"><a xlink:href="scale__decoder__stream_8hpp.html" target="_top" xlink:title=" ">
<polygon fill="#fff0f0" stroke="red" points="455.5,-162 349.5,-162 349.5,-132 455.5,-132 455.5,-162"/>
<text text-anchor="start" x="357.5" y="-150" font-family="Helvetica,sans-Serif" font-size="10.00">scale/scale_decoder</text>
<text text-anchor="middle" x="402.5" y="-139" font-family="Helvetica,sans-Serif" font-size="10.00">_stream.hpp</text>
</a>
</g>
</g>
<!-- Node36&#45;&gt;Node39 -->
<g id="edge53" class="edge">
<title>Node36&#45;&gt;Node39</title>
<path fill="none" stroke="#63b8ff" d="M455.08,-197.62C447.36,-190.32 436.08,-179.68 425.94,-170.12"/>
<polygon fill="#63b8ff" stroke="#63b8ff" points="428.58,-167.8 418.9,-163.48 423.78,-172.89 428.58,-167.8"/>
</g>
<!-- Node55 -->
<g id="node42" class="node">
<title>Node55</title>
<g id="a_node42"><a xlink:href="scale__encoder__stream_8hpp.html" target="_top" xlink:title=" ">
<polygon fill="#fff0f0" stroke="red" points="579.5,-162 473.5,-162 473.5,-132 579.5,-132 579.5,-162"/>
<text text-anchor="start" x="481.5" y="-150" font-family="Helvetica,sans-Serif" font-size="10.00">scale/scale_encoder</text>
<text text-anchor="middle" x="526.5" y="-139" font-family="Helvetica,sans-Serif" font-size="10.00">_stream.hpp</text>
</a>
</g>
</g>
<!-- Node36&#45;&gt;Node55 -->
<g id="edge61" class="edge">
<title>Node36&#45;&gt;Node55</title>
<path fill="none" stroke="#63b8ff" d="M473.92,-197.62C481.64,-190.32 492.92,-179.68 503.06,-170.12"/>
<polygon fill="#63b8ff" stroke="#63b8ff" points="505.22,-172.89 510.1,-163.48 500.42,-167.8 505.22,-172.89"/>
</g>
<!-- Node39&#45;&gt;Node7 -->
<g id="edge56" class="edge">
<title>Node39&#45;&gt;Node7</title>
<path fill="none" stroke="#63b8ff" d="M373.33,-131.64C351.68,-120.98 322.33,-106.53 300.87,-95.97"/>
<polygon fill="#63b8ff" stroke="#63b8ff" points="302.63,-92.93 292.11,-91.65 299.54,-99.21 302.63,-92.93"/>
</g>
<!-- Node39&#45;&gt;Node20 -->
<g id="edge54" class="edge">
<title>Node39&#45;&gt;Node20</title>
<path fill="none" stroke="#63b8ff" d="M455.99,-133.4C503.55,-121.95 569.35,-105.44 594.5,-96 594.98,-95.82 595.47,-95.63 595.96,-95.44"/>
<polygon fill="#63b8ff" stroke="#63b8ff" points="597.09,-98.77 604.79,-91.49 594.23,-92.38 597.09,-98.77"/>
</g>
<!-- Node39&#45;&gt;Node24 -->
<g id="edge57" class="edge">
<title>Node39&#45;&gt;Node24</title>
<path fill="none" stroke="#63b8ff" d="M455.91,-133.83C458.81,-133.2 461.69,-132.59 464.5,-132 546.91,-114.72 569.6,-119.35 650.5,-96 651.88,-95.6 653.28,-95.17 654.68,-94.72"/>
<polygon fill="#63b8ff" stroke="#63b8ff" points="655.71,-98.07 663.97,-91.44 653.38,-91.47 655.71,-98.07"/>
</g>
<!-- Node40 -->
<g id="node40" class="node">
<title>Node40</title>
<g id="a_node40"><a xlink:title=" ">
<polygon fill="#e0e0e0" stroke="#999999" points="585.5,-96 481.5,-96 481.5,-66 585.5,-66 585.5,-96"/>
<text text-anchor="start" x="489.5" y="-84" font-family="Helvetica,sans-Serif" font-size="10.00">boost/multiprecision</text>
<text text-anchor="middle" x="533.5" y="-73" font-family="Helvetica,sans-Serif" font-size="10.00">/cpp_int.hpp</text>
</a>
</g>
</g>
<!-- Node39&#45;&gt;Node40 -->
<g id="edge55" class="edge">
<title>Node39&#45;&gt;Node40</title>
<path fill="none" stroke="#63b8ff" d="M431.9,-131.64C450.19,-122.7 473.94,-111.1 493.87,-101.36"/>
<polygon fill="#63b8ff" stroke="#63b8ff" points="495.39,-104.51 502.84,-96.98 492.32,-98.22 495.39,-104.51"/>
</g>
<!-- Node41 -->
<g id="node41" class="node">
<title>Node41</title>
<g id="a_node41"><a xlink:href="outcome__throw_8hpp.html" target="_top" xlink:title=" ">
<polygon fill="white" stroke="#666666" points="463,-90.5 338,-90.5 338,-71.5 463,-71.5 463,-90.5"/>
<text text-anchor="middle" x="400.5" y="-78.5" font-family="Helvetica,sans-Serif" font-size="10.00">base/outcome_throw.hpp</text>
</a>
</g>
</g>
<!-- Node39&#45;&gt;Node41 -->
<g id="edge58" class="edge">
<title>Node39&#45;&gt;Node41</title>
<path fill="none" stroke="#63b8ff" d="M402.06,-131.8C401.78,-123.09 401.43,-111.81 401.13,-102.18"/>
<polygon fill="#63b8ff" stroke="#63b8ff" points="404.63,-102.24 400.82,-92.36 397.64,-102.46 404.63,-102.24"/>
</g>
<!-- Node41&#45;&gt;Node37 -->
<g id="edge59" class="edge">
<title>Node41&#45;&gt;Node37</title>
<path fill="none" stroke="#63b8ff" d="M370.33,-71.1C337.68,-61.47 284.79,-45.87 243.6,-33.72"/>
<polygon fill="#63b8ff" stroke="#63b8ff" points="244.62,-30.38 234.04,-30.91 242.64,-37.09 244.62,-30.38"/>
</g>
<!-- Node41&#45;&gt;Node38 -->
<g id="edge60" class="edge">
<title>Node41&#45;&gt;Node38</title>
<path fill="none" stroke="#63b8ff" d="M393.41,-71.1C385.72,-61.45 373.25,-45.81 363.56,-33.65"/>
<polygon fill="#63b8ff" stroke="#63b8ff" points="366.44,-31.65 357.47,-26.01 360.97,-36.01 366.44,-31.65"/>
</g>
<!-- Node55&#45;&gt;Node7 -->
<g id="edge62" class="edge">
<title>Node55&#45;&gt;Node7</title>
<path fill="none" stroke="#63b8ff" d="M473.25,-132.58C427.72,-121.11 362.82,-104.76 319.26,-93.78"/>
<polygon fill="#63b8ff" stroke="#63b8ff" points="320.14,-90.39 309.59,-91.35 318.43,-97.18 320.14,-90.39"/>
</g>
<!-- Node55&#45;&gt;Node24 -->
<g id="edge63" class="edge">
<title>Node55&#45;&gt;Node24</title>
<path fill="none" stroke="#63b8ff" d="M562.41,-131.64C589.66,-120.74 626.83,-105.87 653.37,-95.25"/>
<polygon fill="#63b8ff" stroke="#63b8ff" points="654.65,-98.51 662.63,-91.55 652.05,-92.01 654.65,-98.51"/>
</g>
<!-- Node51&#45;&gt;Node16 -->
<g id="edge66" class="edge">
<title>Node51&#45;&gt;Node16</title>
<path fill="none" stroke="#63b8ff" d="M420.31,-445.16C421.21,-435.17 422.63,-418.43 423.5,-404 424.61,-385.61 425.41,-364.64 425.9,-349.65"/>
<polygon fill="#63b8ff" stroke="#63b8ff" points="429.4,-349.84 426.21,-339.74 422.4,-349.62 429.4,-349.84"/>
</g>
<!-- Node52 -->
<g id="node44" class="node">
<title>Node52</title>
<g id="a_node44"><a xlink:title=" ">
<polygon fill="#e0e0e0" stroke="#999999" points="415,-398.5 376,-398.5 376,-379.5 415,-379.5 415,-398.5"/>
<text text-anchor="middle" x="395.5" y="-386.5" font-family="Helvetica,sans-Serif" font-size="10.00">utility</text>
</a>
</g>
</g>
<!-- Node51&#45;&gt;Node52 -->
<g id="edge67" class="edge">
<title>Node51&#45;&gt;Node52</title>
<path fill="none" stroke="#63b8ff" d="M416.16,-445.1C412.72,-435.93 407.25,-421.34 402.8,-409.48"/>
<polygon fill="#63b8ff" stroke="#63b8ff" points="406.13,-408.37 399.34,-400.24 399.57,-410.83 406.13,-408.37"/>
</g>
<!-- Node53 -->
<g id="node45" class="node">
<title>Node53</title>
<g id="a_node45"><a xlink:title=" ">
<polygon fill="#e0e0e0" stroke="#999999" points="357.5,-404 259.5,-404 259.5,-374 357.5,-374 357.5,-404"/>
<text text-anchor="start" x="267.5" y="-392" font-family="Helvetica,sans-Serif" font-size="10.00">boost/variant/apply</text>
<text text-anchor="middle" x="308.5" y="-381" font-family="Helvetica,sans-Serif" font-size="10.00">_visitor.hpp</text>
</a>
</g>
</g>
<!-- Node51&#45;&gt;Node53 -->
<g id="edge68" class="edge">
<title>Node51&#45;&gt;Node53</title>
<path fill="none" stroke="#63b8ff" d="M404.07,-445.1C388.47,-436.11 363.84,-421.91 343.49,-410.18"/>
<polygon fill="#63b8ff" stroke="#63b8ff" points="345.33,-407.2 334.92,-405.23 341.84,-413.26 345.33,-407.2"/>
</g>
<!-- Node57&#45;&gt;Node4 -->
<g id="edge77" class="edge">
<title>Node57&#45;&gt;Node4</title>
<path fill="none" stroke="#63b8ff" d="M202.62,-576.72C163.06,-567.83 110.95,-553.24 98.5,-536 90.69,-525.19 92.97,-518.13 98.5,-506 168.39,-352.75 383.31,-296.59 490.85,-277.7"/>
<polygon fill="#63b8ff" stroke="#63b8ff" points="491.4,-281.15 500.68,-276.03 490.23,-274.25 491.4,-281.15"/>
</g>
<!-- Node57&#45;&gt;Node31 -->
<g id="edge78" class="edge">
<title>Node57&#45;&gt;Node31</title>
<path fill="none" stroke="#63b8ff" d="M296.34,-579.69C383.72,-567.92 571.31,-542.64 666.52,-529.81"/>
<polygon fill="#63b8ff" stroke="#63b8ff" points="666.71,-533.32 676.16,-528.51 665.78,-526.38 666.71,-533.32"/>
</g>
<!-- Node57&#45;&gt;Node58 -->
<g id="edge75" class="edge">
<title>Node57&#45;&gt;Node58</title>
<path fill="none" stroke="#63b8ff" d="M202.73,-574.27C165.38,-564.67 111.82,-550.38 65.5,-536 63.92,-535.51 62.31,-535 60.68,-534.47"/>
<polygon fill="#63b8ff" stroke="#63b8ff" points="61.98,-531.21 51.38,-531.35 59.75,-537.85 61.98,-531.21"/>
</g>
<!-- Node59 -->
<g id="node48" class="node">
<title>Node59</title>
<g id="a_node48"><a xlink:title=" ">
<polygon fill="#e0e0e0" stroke="#999999" points="235,-530.5 108,-530.5 108,-511.5 235,-511.5 235,-530.5"/>
<text text-anchor="middle" x="171.5" y="-518.5" font-family="Helvetica,sans-Serif" font-size="10.00">boost/dynamic_bitset.hpp</text>
</a>
</g>
</g>
<!-- Node57&#45;&gt;Node59 -->
<g id="edge76" class="edge">
<title>Node57&#45;&gt;Node59</title>
<path fill="none" stroke="#63b8ff" d="M232.19,-571.8C220.03,-561.82 203.74,-548.46 191.1,-538.09"/>
<polygon fill="#63b8ff" stroke="#63b8ff" points="193.4,-535.44 183.45,-531.8 188.96,-540.85 193.4,-535.44"/>
</g>
<!-- Node60 -->
<g id="node49" class="node">
<title>Node60</title>
<g id="a_node49"><a xlink:href="voter__set_8hpp.html" target="_top" xlink:title=" ">
<polygon fill="white" stroke="#666666" points="346,-536 253,-536 253,-506 346,-506 346,-536"/>
<text text-anchor="start" x="261" y="-524" font-family="Helvetica,sans-Serif" font-size="10.00">verification/finality</text>
<text text-anchor="middle" x="299.5" y="-513" font-family="Helvetica,sans-Serif" font-size="10.00">/voter_set.hpp</text>
</a>
</g>
</g>
<!-- Node57&#45;&gt;Node60 -->
<g id="edge79" class="edge">
<title>Node57&#45;&gt;Node60</title>
<path fill="none" stroke="#63b8ff" d="M260.6,-571.8C266.75,-563.92 274.54,-553.95 281.54,-544.99"/>
<polygon fill="#63b8ff" stroke="#63b8ff" points="284.1,-547.39 287.5,-537.36 278.59,-543.08 284.1,-547.39"/>
</g>
<!-- Node60&#45;&gt;Node7 -->
<g id="edge80" class="edge">
<title>Node60&#45;&gt;Node7</title>
<path fill="none" stroke="#63b8ff" d="M252.51,-507.53C208.9,-495.57 149.55,-478.17 141.5,-470 115.45,-443.55 117.5,-427.12 117.5,-390 117.5,-390 117.5,-390 117.5,-206.5 117.5,-147.7 186.13,-112.03 232.05,-94.74"/>
<polygon fill="#63b8ff" stroke="#63b8ff" points="232.97,-98.13 241.19,-91.45 230.6,-91.55 232.97,-98.13"/>
</g>
<!-- Node60&#45;&gt;Node10 -->
<g id="edge81" class="edge">
<title>Node60&#45;&gt;Node10</title>
<path fill="none" stroke="#63b8ff" d="M346.39,-516.11C435.44,-508.55 635.07,-490.78 802.5,-470 814.16,-468.55 826.61,-466.83 838.51,-465.09"/>
<polygon fill="#63b8ff" stroke="#63b8ff" points="838.83,-468.58 848.21,-463.65 837.8,-461.66 838.83,-468.58"/>
</g>
</g>
</svg>
