<?xml version="1.0" encoding="UTF-8" standalone="no"?>
<!DOCTYPE svg PUBLIC "-//W3C//DTD SVG 1.1//EN"
 "http://www.w3.org/Graphics/SVG/1.1/DTD/svg11.dtd">
<!-- Generated by graphviz version 7.0.5 (20221223.1930)
 -->
<!-- Title: src/crypto/vrf_provider.hpp Pages: 1 -->
<!--zoomable 324 -->
<svg id="main" version="1.1" xmlns="http://www.w3.org/2000/svg" xmlns:xlink="http://www.w3.org/1999/xlink" xml:space="preserve" onload="init(evt)">
<style type="text/css"><![CDATA[
.edge:hover path { stroke: red; }
.edge:hover polygon { stroke: red; fill: red; }
]]></style>
<script type="text/javascript"><![CDATA[
var edges = document.getElementsByTagName('g');
if (edges && edges.length) {
  for (var i=0;i<edges.length;i++) {
    if (edges[i].id.substr(0,4)=='edge') {
      edges[i].setAttribute('class','edge');
    }
  }
}
]]></script>
        <defs>
                <circle id="rim" cx="0" cy="0" r="7"/>
                <circle id="rim2" cx="0" cy="0" r="3.5"/>
                <g id="zoomPlus">
                        <use xlink:href="#rim" fill="#404040">
                                <set attributeName="fill" to="#808080" begin="zoomplus.mouseover" end="zoomplus.mouseout"/>
                        </use>
                        <path d="M-4,0h8M0,-4v8" fill="none" stroke="white" stroke-width="1.5" pointer-events="none"/>
                </g>
                <g id="zoomMin">
                        <use xlink:href="#rim" fill="#404040">
                                <set attributeName="fill" to="#808080" begin="zoomminus.mouseover" end="zoomminus.mouseout"/>
                        </use>
                        <path d="M-4,0h8" fill="none" stroke="white" stroke-width="1.5" pointer-events="none"/>
                </g>
                <g id="dirArrow">
                        <path fill="none" stroke="white" stroke-width="1.5" d="M0,-3.0v7 M-2.5,-0.5L0,-3.0L2.5,-0.5"/>
                </g>
               <g id="resetDef">
                       <use xlink:href="#rim2" fill="#404040">
                               <set attributeName="fill" to="#808080" begin="reset.mouseover" end="reset.mouseout"/>
                       </use>
               </g>
        </defs>

<script type="text/javascript">
var viewWidth = 870;
var viewHeight = 324;
var sectionId = 'dynsection-0';
</script>
<script xlink:href="svgpan.js"/>
<svg id="graph" class="graph">
<g id="viewport">
<title>src/crypto/vrf_provider.hpp</title>
<!-- Node1 -->
<g id="node1" class="node">
<title>Node1</title>
<g id="a_node1"><a xlink:title=" ">
<polygon fill="#999999" stroke="#666666" points="285,-316 154,-316 154,-297 285,-297 285,-316"/>
<text text-anchor="middle" x="219.5" y="-304" font-family="Helvetica,sans-Serif" font-size="10.00">src/crypto/vrf_provider.hpp</text>
</a>
</g>
</g>
<!-- Node2 -->
<g id="node2" class="node">
<title>Node2</title>
<g id="a_node2"><a xlink:title=" ">
<polygon fill="#e0e0e0" stroke="#999999" points="138,-261 43,-261 43,-242 138,-242 138,-261"/>
<text text-anchor="middle" x="90.5" y="-249" font-family="Helvetica,sans-Serif" font-size="10.00">boost/optional.hpp</text>
</a>
</g>
</g>
<!-- Node1&#45;&gt;Node2 -->
<g id="edge1" class="edge">
<title>Node1&#45;&gt;Node2</title>
<path fill="none" stroke="#63b8ff" d="M197.62,-296.51C177.01,-288.04 145.91,-275.27 122.52,-265.66"/>
<polygon fill="#63b8ff" stroke="#63b8ff" points="124.04,-262.5 113.46,-261.93 121.38,-268.97 124.04,-262.5"/>
</g>
<!-- Node3 -->
<g id="node3" class="node">
<title>Node3</title>
<g id="a_node3"><a xlink:href="buffer_8hpp.html" target="_top" xlink:title=" ">
<polygon fill="white" stroke="#666666" points="728,-145.5 645,-145.5 645,-126.5 728,-126.5 728,-145.5"/>
<text text-anchor="middle" x="686.5" y="-133.5" font-family="Helvetica,sans-Serif" font-size="10.00">base/buffer.hpp</text>
</a>
</g>
</g>
<!-- Node1&#45;&gt;Node3 -->
<g id="edge2" class="edge">
<title>Node1&#45;&gt;Node3</title>
<path fill="none" stroke="#63b8ff" d="M244.28,-296.56C321.86,-268.57 560.28,-182.54 650.98,-149.82"/>
<polygon fill="#63b8ff" stroke="#63b8ff" points="652.14,-153.12 660.36,-146.43 649.76,-146.53 652.14,-153.12"/>
</g>
<!-- Node11 -->
<g id="node11" class="node">
<title>Node11</title>
<g id="a_node11"><a xlink:href="sr25519__types_8hpp.html" target="_top" xlink:title=" ">
<polygon fill="white" stroke="#666666" points="283,-261 156,-261 156,-242 283,-242 283,-261"/>
<text text-anchor="middle" x="219.5" y="-249" font-family="Helvetica,sans-Serif" font-size="10.00">crypto/sr25519_types.hpp</text>
</a>
</g>
</g>
<!-- Node1&#45;&gt;Node11 -->
<g id="edge10" class="edge">
<title>Node1&#45;&gt;Node11</title>
<path fill="none" stroke="#63b8ff" d="M219.5,-296.75C219.5,-290.27 219.5,-281.16 219.5,-272.9"/>
<polygon fill="#63b8ff" stroke="#63b8ff" points="223,-272.96 219.5,-262.96 216,-272.96 223,-272.96"/>
</g>
<!-- Node4 -->
<g id="node4" class="node">
<title>Node4</title>
<g id="a_node4"><a xlink:title=" ">
<polygon fill="#e0e0e0" stroke="#999999" points="533.5,-79.5 467.5,-79.5 467.5,-60.5 533.5,-60.5 533.5,-79.5"/>
<text text-anchor="middle" x="500.5" y="-67.5" font-family="Helvetica,sans-Serif" font-size="10.00">string_view</text>
</a>
</g>
</g>
<!-- Node3&#45;&gt;Node4 -->
<g id="edge3" class="edge">
<title>Node3&#45;&gt;Node4</title>
<path fill="none" stroke="#63b8ff" d="M660.64,-126.1C628.52,-115.05 573.54,-96.13 537.11,-83.6"/>
<polygon fill="#63b8ff" stroke="#63b8ff" points="538.47,-80.36 527.87,-80.42 536.19,-86.98 538.47,-80.36"/>
</g>
<!-- Node5 -->
<g id="node5" class="node">
<title>Node5</title>
<g id="a_node5"><a xlink:title=" ">
<polygon fill="#e0e0e0" stroke="#999999" points="607.5,-79.5 563.5,-79.5 563.5,-60.5 607.5,-60.5 607.5,-79.5"/>
<text text-anchor="middle" x="585.5" y="-67.5" font-family="Helvetica,sans-Serif" font-size="10.00">vector</text>
</a>
</g>
</g>
<!-- Node3&#45;&gt;Node5 -->
<g id="edge4" class="edge">
<title>Node3&#45;&gt;Node5</title>
<path fill="none" stroke="#63b8ff" d="M672.46,-126.1C656.02,-115.69 628.57,-98.29 608.9,-85.83"/>
<polygon fill="#63b8ff" stroke="#63b8ff" points="611.02,-83.03 600.7,-80.63 607.28,-88.94 611.02,-83.03"/>
</g>
<!-- Node6 -->
<g id="node6" class="node">
<title>Node6</title>
<g id="a_node6"><a xlink:title=" ">
<polygon fill="#e0e0e0" stroke="#999999" points="861.5,-85 751.5,-85 751.5,-55 861.5,-55 861.5,-85"/>
<text text-anchor="start" x="759.5" y="-73" font-family="Helvetica,sans-Serif" font-size="10.00">boost/container_hash</text>
<text text-anchor="middle" x="806.5" y="-62" font-family="Helvetica,sans-Serif" font-size="10.00">/hash.hpp</text>
</a>
</g>
</g>
<!-- Node3&#45;&gt;Node6 -->
<g id="edge5" class="edge">
<title>Node3&#45;&gt;Node6</title>
<path fill="none" stroke="#63b8ff" d="M703.19,-126.1C720.2,-117.03 747.16,-102.65 769.27,-90.86"/>
<polygon fill="#63b8ff" stroke="#63b8ff" points="770.84,-93.98 778.02,-86.19 767.55,-87.81 770.84,-93.98"/>
</g>
<!-- Node7 -->
<g id="node7" class="node">
<title>Node7</title>
<g id="a_node7"><a xlink:title=" ">
<polygon fill="#e0e0e0" stroke="#999999" points="733.5,-79.5 631.5,-79.5 631.5,-60.5 733.5,-60.5 733.5,-79.5"/>
<text text-anchor="middle" x="682.5" y="-67.5" font-family="Helvetica,sans-Serif" font-size="10.00">boost/operators.hpp</text>
</a>
</g>
</g>
<!-- Node3&#45;&gt;Node7 -->
<g id="edge6" class="edge">
<title>Node3&#45;&gt;Node7</title>
<path fill="none" stroke="#63b8ff" d="M685.94,-126.1C685.38,-117.12 684.5,-102.95 683.76,-91.22"/>
<polygon fill="#63b8ff" stroke="#63b8ff" points="687.26,-91.1 683.15,-81.33 680.28,-91.53 687.26,-91.1"/>
</g>
<!-- Node8 -->
<g id="node8" class="node">
<title>Node8</title>
<g id="a_node8"><a xlink:title=" ">
<polygon fill="#e0e0e0" stroke="#999999" points="281,-79.5 228,-79.5 228,-60.5 281,-60.5 281,-79.5"/>
<text text-anchor="middle" x="254.5" y="-67.5" font-family="Helvetica,sans-Serif" font-size="10.00">gsl/span</text>
</a>
</g>
</g>
<!-- Node3&#45;&gt;Node8 -->
<g id="edge7" class="edge">
<title>Node3&#45;&gt;Node8</title>
<path fill="none" stroke="#63b8ff" d="M657.02,-126.05C650.02,-124.16 642.54,-122.34 635.5,-121 489.26,-93.21 448.52,-113.95 302.5,-85 299.16,-84.34 295.72,-83.55 292.28,-82.69"/>
<polygon fill="#63b8ff" stroke="#63b8ff" points="293.48,-79.39 282.92,-80.16 291.66,-86.15 293.48,-79.39"/>
</g>
<!-- Node9 -->
<g id="node9" class="node">
<title>Node9</title>
<g id="a_node9"><a xlink:href="outcome_8hpp.html" target="_top" xlink:title=" ">
<polygon fill="white" stroke="#666666" points="425,-79.5 312,-79.5 312,-60.5 425,-60.5 425,-79.5"/>
<text text-anchor="middle" x="368.5" y="-67.5" font-family="Helvetica,sans-Serif" font-size="10.00">outcome/outcome.hpp</text>
</a>
</g>
</g>
<!-- Node3&#45;&gt;Node9 -->
<g id="edge8" class="edge">
<title>Node3&#45;&gt;Node9</title>
<path fill="none" stroke="#63b8ff" d="M655.32,-126C648.79,-124.24 641.94,-122.48 635.5,-121 567.61,-105.35 489.15,-91.11 434.94,-81.87"/>
<polygon fill="#63b8ff" stroke="#63b8ff" points="435.68,-78.44 425.24,-80.22 434.51,-85.35 435.68,-78.44"/>
</g>
<!-- Node10 -->
<g id="node10" class="node">
<title>Node10</title>
<g id="a_node10"><a xlink:title=" ">
<polygon fill="#e0e0e0" stroke="#999999" points="439,-19 298,-19 298,0 439,0 439,-19"/>
<text text-anchor="middle" x="368.5" y="-7" font-family="Helvetica,sans-Serif" font-size="10.00">libp2p/outcome/outcome.hpp</text>
</a>
</g>
</g>
<!-- Node9&#45;&gt;Node10 -->
<g id="edge9" class="edge">
<title>Node9&#45;&gt;Node10</title>
<path fill="none" stroke="#63b8ff" d="M368.5,-60.37C368.5,-52.5 368.5,-40.6 368.5,-30.39"/>
<polygon fill="#63b8ff" stroke="#63b8ff" points="372,-30.68 368.5,-20.68 365,-30.68 372,-30.68"/>
</g>
<!-- Node11&#45;&gt;Node8 -->
<g id="edge13" class="edge">
<title>Node11&#45;&gt;Node8</title>
<path fill="none" stroke="#63b8ff" d="M221.19,-241.84C226.5,-214.6 242.97,-130.15 250.57,-91.13"/>
<polygon fill="#63b8ff" stroke="#63b8ff" points="253.98,-91.96 252.46,-81.48 247.11,-90.62 253.98,-91.96"/>
</g>
<!-- Node12 -->
<g id="node12" class="node">
<title>Node12</title>
<g id="a_node12"><a xlink:title=" ">
<polygon fill="#e0e0e0" stroke="#999999" points="172,-206 113,-206 113,-187 172,-187 172,-206"/>
<text text-anchor="middle" x="142.5" y="-194" font-family="Helvetica,sans-Serif" font-size="10.00">sr25519.h</text>
</a>
</g>
</g>
<!-- Node11&#45;&gt;Node12 -->
<g id="edge11" class="edge">
<title>Node11&#45;&gt;Node12</title>
<path fill="none" stroke="#63b8ff" d="M206.44,-241.51C194.98,-233.62 178.07,-221.98 164.52,-212.65"/>
<polygon fill="#63b8ff" stroke="#63b8ff" points="166.84,-210 156.62,-207.22 162.87,-215.77 166.84,-210"/>
</g>
<!-- Node13 -->
<g id="node13" class="node">
<title>Node13</title>
<g id="a_node13"><a xlink:title=" ">
<polygon fill="#e0e0e0" stroke="#999999" points="202.5,-151 98.5,-151 98.5,-121 202.5,-121 202.5,-151"/>
<text text-anchor="start" x="106.5" y="-139" font-family="Helvetica,sans-Serif" font-size="10.00">boost/multiprecision</text>
<text text-anchor="middle" x="150.5" y="-128" font-family="Helvetica,sans-Serif" font-size="10.00">/cpp_int.hpp</text>
</a>
</g>
</g>
<!-- Node11&#45;&gt;Node13 -->
<g id="edge12" class="edge">
<title>Node11&#45;&gt;Node13</title>
<path fill="none" stroke="#63b8ff" d="M214.09,-241.59C203.64,-224.42 180.4,-186.18 165.1,-161.01"/>
<polygon fill="#63b8ff" stroke="#63b8ff" points="168.25,-159.46 160.06,-152.73 162.27,-163.1 168.25,-159.46"/>
</g>
<!-- Node14 -->
<g id="node14" class="node">
<title>Node14</title>
<g id="a_node14"><a xlink:href="blob_8hpp.html" target="_top" xlink:title=" ">
<polygon fill="white" stroke="#666666" points="404,-206 327,-206 327,-187 404,-187 404,-206"/>
<text text-anchor="middle" x="365.5" y="-194" font-family="Helvetica,sans-Serif" font-size="10.00">base/blob.hpp</text>
</a>
</g>
</g>
<!-- Node11&#45;&gt;Node14 -->
<g id="edge14" class="edge">
<title>Node11&#45;&gt;Node14</title>
<path fill="none" stroke="#63b8ff" d="M244.27,-241.51C267.9,-232.93 303.74,-219.92 330.33,-210.27"/>
<polygon fill="#63b8ff" stroke="#63b8ff" points="331.47,-213.58 339.68,-206.87 329.08,-207 331.47,-213.58"/>
</g>
<!-- Node19 -->
<g id="node19" class="node">
<title>Node19</title>
<g id="a_node19"><a xlink:href="mp__utils_8hpp.html" target="_top" xlink:title=" ">
<polygon fill="white" stroke="#666666" points="95,-206 0,-206 0,-187 95,-187 95,-206"/>
<text text-anchor="middle" x="47.5" y="-194" font-family="Helvetica,sans-Serif" font-size="10.00">base/mp_utils.hpp</text>
</a>
</g>
</g>
<!-- Node11&#45;&gt;Node19 -->
<g id="edge23" class="edge">
<title>Node11&#45;&gt;Node19</title>
<path fill="none" stroke="#63b8ff" d="M190.32,-241.51C161.94,-232.76 118.62,-219.42 87.13,-209.71"/>
<polygon fill="#63b8ff" stroke="#63b8ff" points="88.57,-206.49 77.98,-206.89 86.51,-213.18 88.57,-206.49"/>
</g>
<!-- Node15 -->
<g id="node15" class="node">
<title>Node15</title>
<g id="a_node15"><a xlink:title=" ">
<polygon fill="#e0e0e0" stroke="#999999" points="304.5,-145.5 266.5,-145.5 266.5,-126.5 304.5,-126.5 304.5,-145.5"/>
<text text-anchor="middle" x="285.5" y="-133.5" font-family="Helvetica,sans-Serif" font-size="10.00">array</text>
</a>
</g>
</g>
<!-- Node14&#45;&gt;Node15 -->
<g id="edge15" class="edge">
<title>Node14&#45;&gt;Node15</title>
<path fill="none" stroke="#63b8ff" d="M353.35,-186.62C341.02,-177.6 321.67,-163.45 306.78,-152.56"/>
<polygon fill="#63b8ff" stroke="#63b8ff" points="309.12,-149.94 298.99,-146.86 304.99,-155.59 309.12,-149.94"/>
</g>
<!-- Node16 -->
<g id="node16" class="node">
<title>Node16</title>
<g id="a_node16"><a xlink:title=" ">
<polygon fill="#e0e0e0" stroke="#999999" points="554.5,-145.5 426.5,-145.5 426.5,-126.5 554.5,-126.5 554.5,-145.5"/>
<text text-anchor="middle" x="490.5" y="-133.5" font-family="Helvetica,sans-Serif" font-size="10.00">boost/functional/hash.hpp</text>
</a>
</g>
</g>
<!-- Node14&#45;&gt;Node16 -->
<g id="edge16" class="edge">
<title>Node14&#45;&gt;Node16</title>
<path fill="none" stroke="#63b8ff" d="M384.48,-186.62C404.86,-177.08 437.48,-161.81 461.16,-150.73"/>
<polygon fill="#63b8ff" stroke="#63b8ff" points="462.39,-154.02 469.97,-146.61 459.42,-147.68 462.39,-154.02"/>
</g>
<!-- Node17 -->
<g id="node17" class="node">
<title>Node17</title>
<g id="a_node17"><a xlink:href="hexutil_8hpp.html" target="_top" xlink:title=" ">
<polygon fill="white" stroke="#666666" points="408.5,-145.5 322.5,-145.5 322.5,-126.5 408.5,-126.5 408.5,-145.5"/>
<text text-anchor="middle" x="365.5" y="-133.5" font-family="Helvetica,sans-Serif" font-size="10.00">base/hexutil.hpp</text>
</a>
</g>
</g>
<!-- Node14&#45;&gt;Node17 -->
<g id="edge17" class="edge">
<title>Node14&#45;&gt;Node17</title>
<path fill="none" stroke="#63b8ff" d="M365.5,-186.87C365.5,-179 365.5,-167.1 365.5,-156.89"/>
<polygon fill="#63b8ff" stroke="#63b8ff" points="369,-157.18 365.5,-147.18 362,-157.18 369,-157.18"/>
</g>
<!-- Node18 -->
<g id="node18" class="node">
<title>Node18</title>
<g id="a_node18"><a xlink:title=" ">
<polygon fill="#e0e0e0" stroke="#999999" points="626.5,-145.5 572.5,-145.5 572.5,-126.5 626.5,-126.5 626.5,-145.5"/>
<text text-anchor="middle" x="599.5" y="-133.5" font-family="Helvetica,sans-Serif" font-size="10.00">iostream</text>
</a>
</g>
</g>
<!-- Node14&#45;&gt;Node18 -->
<g id="edge22" class="edge">
<title>Node14&#45;&gt;Node18</title>
<path fill="none" stroke="#63b8ff" d="M404.27,-188.57C444.52,-180.96 509.07,-167.6 563.5,-151 564.83,-150.59 566.19,-150.16 567.56,-149.71"/>
<polygon fill="#63b8ff" stroke="#63b8ff" points="568.32,-153.15 576.56,-146.48 565.96,-146.56 568.32,-153.15"/>
</g>
<!-- Node17&#45;&gt;Node4 -->
<g id="edge18" class="edge">
<title>Node17&#45;&gt;Node4</title>
<path fill="none" stroke="#63b8ff" d="M384.27,-126.1C406.94,-115.35 445.31,-97.16 471.72,-84.64"/>
<polygon fill="#63b8ff" stroke="#63b8ff" points="472.98,-87.92 480.52,-80.47 469.99,-81.59 472.98,-87.92"/>
</g>
<!-- Node17&#45;&gt;Node5 -->
<g id="edge19" class="edge">
<title>Node17&#45;&gt;Node5</title>
<path fill="none" stroke="#63b8ff" d="M398.56,-126.08C434.2,-116.37 492.55,-100.18 542.5,-85 545.77,-84 549.18,-82.94 552.58,-81.87"/>
<polygon fill="#63b8ff" stroke="#63b8ff" points="553.35,-85.29 561.79,-78.9 551.2,-78.63 553.35,-85.29"/>
</g>
<!-- Node17&#45;&gt;Node8 -->
<g id="edge20" class="edge">
<title>Node17&#45;&gt;Node8</title>
<path fill="none" stroke="#63b8ff" d="M350.07,-126.1C331.84,-115.59 301.27,-97.97 279.62,-85.49"/>
<polygon fill="#63b8ff" stroke="#63b8ff" points="281.53,-82.54 271.11,-80.58 278.03,-88.61 281.53,-82.54"/>
</g>
<!-- Node17&#45;&gt;Node9 -->
<g id="edge21" class="edge">
<title>Node17&#45;&gt;Node9</title>
<path fill="none" stroke="#63b8ff" d="M365.92,-126.1C366.34,-117.12 367,-102.95 367.55,-91.22"/>
<polygon fill="#63b8ff" stroke="#63b8ff" points="371.04,-91.49 368.02,-81.34 364.05,-91.16 371.04,-91.49"/>
</g>
<!-- Node19&#45;&gt;Node8 -->
<g id="edge25" class="edge">
<title>Node19&#45;&gt;Node8</title>
<path fill="none" stroke="#63b8ff" d="M50.05,-186.72C55.02,-171.14 67.49,-138.65 89.5,-121 126.38,-91.43 180.54,-79.32 216.63,-74.37"/>
<polygon fill="#63b8ff" stroke="#63b8ff" points="216.67,-77.9 226.17,-73.19 215.81,-70.95 216.67,-77.9"/>
</g>
<!-- Node19&#45;&gt;Node13 -->
<g id="edge24" class="edge">
<title>Node19&#45;&gt;Node13</title>
<path fill="none" stroke="#63b8ff" d="M63.14,-186.62C77.01,-178.74 97.76,-166.96 115.56,-156.85"/>
<polygon fill="#63b8ff" stroke="#63b8ff" points="116.79,-160.17 123.76,-152.19 113.34,-154.08 116.79,-160.17"/>
</g>
</g>
</svg>
        <g id="navigator" transform="translate(0 0)" fill="#404254">
                <rect fill="#f2f5e9" fill-opacity="0.5" stroke="#606060" stroke-width=".5" x="0" y="0" width="60" height="60"/>
                <use id="zoomplus" xlink:href="#zoomPlus" x="17" y="9" onmousedown="handleZoom(evt,'in')"/>
                <use id="zoomminus" xlink:href="#zoomMin" x="42" y="9" onmousedown="handleZoom(evt,'out')"/>
                <use id="reset" xlink:href="#resetDef" x="30" y="36" onmousedown="handleReset()"/>
                <g id="arrowUp" xlink:href="#dirArrow" transform="translate(30 24)" onmousedown="handlePan(0,-1)">
                  <use xlink:href="#rim" fill="#404040">
                        <set attributeName="fill" to="#808080" begin="arrowUp.mouseover" end="arrowUp.mouseout"/>
                  </use>
                  <path fill="none" stroke="white" stroke-width="1.5" d="M0,-3.0v7 M-2.5,-0.5L0,-3.0L2.5,-0.5"/>
                </g>
                <g id="arrowRight" xlink:href="#dirArrow" transform="rotate(90) translate(36 -43)" onmousedown="handlePan(1,0)">
                  <use xlink:href="#rim" fill="#404040">
                        <set attributeName="fill" to="#808080" begin="arrowRight.mouseover" end="arrowRight.mouseout"/>
                  </use>
                  <path fill="none" stroke="white" stroke-width="1.5" d="M0,-3.0v7 M-2.5,-0.5L0,-3.0L2.5,-0.5"/>
                </g>
                <g id="arrowDown" xlink:href="#dirArrow" transform="rotate(180) translate(-30 -48)" onmousedown="handlePan(0,1)">
                  <use xlink:href="#rim" fill="#404040">
                        <set attributeName="fill" to="#808080" begin="arrowDown.mouseover" end="arrowDown.mouseout"/>
                  </use>
                  <path fill="none" stroke="white" stroke-width="1.5" d="M0,-3.0v7 M-2.5,-0.5L0,-3.0L2.5,-0.5"/>
                </g>
                <g id="arrowLeft" xlink:href="#dirArrow" transform="rotate(270) translate(-36 17)" onmousedown="handlePan(-1,0)">
                  <use xlink:href="#rim" fill="#404040">
                        <set attributeName="fill" to="#808080" begin="arrowLeft.mouseover" end="arrowLeft.mouseout"/>
                  </use>
                  <path fill="none" stroke="white" stroke-width="1.5" d="M0,-3.0v7 M-2.5,-0.5L0,-3.0L2.5,-0.5"/>
                </g>
        </g>
        <svg viewBox="0 0 15 15" width="100%" height="30px" preserveAspectRatio="xMaxYMin meet">
         <g id="arrow_out" transform="scale(0.3 0.3)">
          <a xlink:href="vrf__provider_8hpp__incl_org.svg" target="_base">
           <rect id="button" ry="5" rx="5" y="6" x="6" height="38" width="38"
                fill="#f2f5e9" fill-opacity="0.5" stroke="#606060" stroke-width="1.0"/>
           <path id="arrow"
             d="M 11.500037,31.436501 C 11.940474,20.09759 22.043105,11.32322 32.158766,21.979434 L 37.068811,17.246167 C 37.068811,17.246167 37.088388,32 37.088388,32 L 22.160133,31.978069 C 22.160133,31.978069 26.997745,27.140456 26.997745,27.140456 C 18.528582,18.264221 13.291696,25.230495 11.500037,31.436501 z"
             style="fill:#404040;"/>
          </a>
         </g>
        </svg>
</svg>
