<?xml version="1.0" encoding="UTF-8" standalone="no"?>
<!DOCTYPE svg PUBLIC "-//W3C//DTD SVG 1.1//EN"
 "http://www.w3.org/Graphics/SVG/1.1/DTD/svg11.dtd">
<!-- Generated by graphviz version 7.0.5 (20221223.1930)
 -->
<!-- Title: src/runtime/binaryen/module/wasm_module_impl.hpp Pages: 1 -->
<svg width="1653pt" height="852pt"
 viewBox="0.00 0.00 1652.50 852.00" xmlns="http://www.w3.org/2000/svg" xmlns:xlink="http://www.w3.org/1999/xlink">
<g id="graph0" class="graph" transform="scale(1 1) rotate(0) translate(4 848)">
<title>src/runtime/binaryen/module/wasm_module_impl.hpp</title>
<!-- Node1 -->
<g id="node1" class="node">
<title>Node1</title>
<g id="a_node1"><a xlink:title=" ">
<polygon fill="#999999" stroke="#666666" points="953,-844 795,-844 795,-814 953,-814 953,-844"/>
<text text-anchor="start" x="803" y="-832" font-family="Helvetica,sans-Serif" font-size="10.00">src/runtime/binaryen</text>
<text text-anchor="middle" x="874" y="-821" font-family="Helvetica,sans-Serif" font-size="10.00">/module/wasm_module_impl.hpp</text>
</a>
</g>
</g>
<!-- Node2 -->
<g id="node2" class="node">
<title>Node2</title>
<g id="a_node2"><a xlink:href="buffer_8hpp.html" target="_top" xlink:title=" ">
<polygon fill="white" stroke="#666666" points="977.5,-250 894.5,-250 894.5,-231 977.5,-231 977.5,-250"/>
<text text-anchor="middle" x="936" y="-238" font-family="Helvetica,sans-Serif" font-size="10.00">base/buffer.hpp</text>
</a>
</g>
</g>
<!-- Node1&#45;&gt;Node2 -->
<g id="edge1" class="edge">
<title>Node1&#45;&gt;Node2</title>
<path fill="none" stroke="#63b8ff" d="M953.22,-815.18C1057.3,-796.04 1227,-755.96 1227,-698 1227,-698 1227,-698 1227,-366 1227,-329.46 1234.74,-310.91 1208,-286 1177.03,-257.15 1058.98,-246.93 988.98,-243.36"/>
<polygon fill="#63b8ff" stroke="#63b8ff" points="989.43,-239.88 979.28,-242.89 989.1,-246.87 989.43,-239.88"/>
</g>
<!-- Node10 -->
<g id="node10" class="node">
<title>Node10</title>
<g id="a_node10"><a xlink:href="wasm__module_8hpp.html" target="_top" xlink:title=" ">
<polygon fill="white" stroke="#666666" points="582,-778 460,-778 460,-748 582,-748 582,-778"/>
<text text-anchor="start" x="468" y="-766" font-family="Helvetica,sans-Serif" font-size="10.00">runtime/binaryen/module</text>
<text text-anchor="middle" x="521" y="-755" font-family="Helvetica,sans-Serif" font-size="10.00">/wasm_module.hpp</text>
</a>
</g>
</g>
<!-- Node1&#45;&gt;Node10 -->
<g id="edge9" class="edge">
<title>Node1&#45;&gt;Node10</title>
<path fill="none" stroke="#63b8ff" d="M794.78,-813.64C734.43,-802.7 652.03,-787.76 593.43,-777.13"/>
<polygon fill="#63b8ff" stroke="#63b8ff" points="594.36,-773.74 583.9,-775.4 593.11,-780.63 594.36,-773.74"/>
</g>
<!-- Node3 -->
<g id="node3" class="node">
<title>Node3</title>
<g id="a_node3"><a xlink:title=" ">
<polygon fill="#e0e0e0" stroke="#999999" points="1129,-129 1063,-129 1063,-110 1129,-110 1129,-129"/>
<text text-anchor="middle" x="1096" y="-117" font-family="Helvetica,sans-Serif" font-size="10.00">string_view</text>
</a>
</g>
</g>
<!-- Node2&#45;&gt;Node3 -->
<g id="edge2" class="edge">
<title>Node2&#45;&gt;Node3</title>
<path fill="none" stroke="#63b8ff" d="M977.83,-233.96C1021.36,-227.23 1085.21,-214.33 1100,-195 1111.9,-179.44 1108.34,-156.25 1103.44,-139.89"/>
<polygon fill="#63b8ff" stroke="#63b8ff" points="1106.88,-139.13 1100.32,-130.81 1100.26,-141.41 1106.88,-139.13"/>
</g>
<!-- Node4 -->
<g id="node4" class="node">
<title>Node4</title>
<g id="a_node4"><a xlink:title=" ">
<polygon fill="#e0e0e0" stroke="#999999" points="851,-129 807,-129 807,-110 851,-110 851,-129"/>
<text text-anchor="middle" x="829" y="-117" font-family="Helvetica,sans-Serif" font-size="10.00">vector</text>
</a>
</g>
</g>
<!-- Node2&#45;&gt;Node4 -->
<g id="edge3" class="edge">
<title>Node2&#45;&gt;Node4</title>
<path fill="none" stroke="#63b8ff" d="M894.21,-238.1C831.39,-235.02 717.27,-225.3 692,-195 660.05,-156.7 745.04,-134.94 795.2,-125.75"/>
<polygon fill="#63b8ff" stroke="#63b8ff" points="795.77,-129.2 805.03,-124.04 794.57,-122.31 795.77,-129.2"/>
</g>
<!-- Node5 -->
<g id="node5" class="node">
<title>Node5</title>
<g id="a_node5"><a xlink:title=" ">
<polygon fill="#e0e0e0" stroke="#999999" points="811,-195 701,-195 701,-165 811,-165 811,-195"/>
<text text-anchor="start" x="709" y="-183" font-family="Helvetica,sans-Serif" font-size="10.00">boost/container_hash</text>
<text text-anchor="middle" x="756" y="-172" font-family="Helvetica,sans-Serif" font-size="10.00">/hash.hpp</text>
</a>
</g>
</g>
<!-- Node2&#45;&gt;Node5 -->
<g id="edge4" class="edge">
<title>Node2&#45;&gt;Node5</title>
<path fill="none" stroke="#63b8ff" d="M908.66,-230.62C882.86,-222.23 843.42,-209.41 811.09,-198.9"/>
<polygon fill="#63b8ff" stroke="#63b8ff" points="812.46,-195.67 801.87,-195.91 810.3,-202.33 812.46,-195.67"/>
</g>
<!-- Node6 -->
<g id="node6" class="node">
<title>Node6</title>
<g id="a_node6"><a xlink:title=" ">
<polygon fill="#e0e0e0" stroke="#999999" points="987,-189.5 885,-189.5 885,-170.5 987,-170.5 987,-189.5"/>
<text text-anchor="middle" x="936" y="-177.5" font-family="Helvetica,sans-Serif" font-size="10.00">boost/operators.hpp</text>
</a>
</g>
</g>
<!-- Node2&#45;&gt;Node6 -->
<g id="edge5" class="edge">
<title>Node2&#45;&gt;Node6</title>
<path fill="none" stroke="#63b8ff" d="M936,-230.87C936,-223 936,-211.1 936,-200.89"/>
<polygon fill="#63b8ff" stroke="#63b8ff" points="939.5,-201.18 936,-191.18 932.5,-201.18 939.5,-201.18"/>
</g>
<!-- Node7 -->
<g id="node7" class="node">
<title>Node7</title>
<g id="a_node7"><a xlink:title=" ">
<polygon fill="#e0e0e0" stroke="#999999" points="623.5,-129 570.5,-129 570.5,-110 623.5,-110 623.5,-129"/>
<text text-anchor="middle" x="597" y="-117" font-family="Helvetica,sans-Serif" font-size="10.00">gsl/span</text>
</a>
</g>
</g>
<!-- Node2&#45;&gt;Node7 -->
<g id="edge6" class="edge">
<title>Node2&#45;&gt;Node7</title>
<path fill="none" stroke="#63b8ff" d="M894.14,-239.11C841.81,-237.11 750.63,-228.56 681,-195 652.7,-181.36 626.74,-155.37 611.39,-137.98"/>
<polygon fill="#63b8ff" stroke="#63b8ff" points="614.15,-135.82 604.99,-130.49 608.83,-140.37 614.15,-135.82"/>
</g>
<!-- Node8 -->
<g id="node8" class="node">
<title>Node8</title>
<g id="a_node8"><a xlink:href="outcome_8hpp.html" target="_top" xlink:title=" ">
<polygon fill="white" stroke="#666666" points="1091.5,-74 978.5,-74 978.5,-55 1091.5,-55 1091.5,-74"/>
<text text-anchor="middle" x="1035" y="-62" font-family="Helvetica,sans-Serif" font-size="10.00">outcome/outcome.hpp</text>
</a>
</g>
</g>
<!-- Node2&#45;&gt;Node8 -->
<g id="edge7" class="edge">
<title>Node2&#45;&gt;Node8</title>
<path fill="none" stroke="#63b8ff" d="M977.86,-234.12C1025.12,-227.24 1098.04,-213.9 1118,-195 1146.18,-168.31 1159.32,-142.43 1138,-110 1127.99,-94.77 1111.53,-84.72 1094.68,-78.11"/>
<polygon fill="#63b8ff" stroke="#63b8ff" points="1096.22,-74.94 1085.62,-74.93 1093.89,-81.55 1096.22,-74.94"/>
</g>
<!-- Node9 -->
<g id="node9" class="node">
<title>Node9</title>
<g id="a_node9"><a xlink:title=" ">
<polygon fill="#e0e0e0" stroke="#999999" points="1105.5,-19 964.5,-19 964.5,0 1105.5,0 1105.5,-19"/>
<text text-anchor="middle" x="1035" y="-7" font-family="Helvetica,sans-Serif" font-size="10.00">libp2p/outcome/outcome.hpp</text>
</a>
</g>
</g>
<!-- Node8&#45;&gt;Node9 -->
<g id="edge8" class="edge">
<title>Node8&#45;&gt;Node9</title>
<path fill="none" stroke="#63b8ff" d="M1035,-54.75C1035,-48.27 1035,-39.16 1035,-30.9"/>
<polygon fill="#63b8ff" stroke="#63b8ff" points="1038.5,-30.96 1035,-20.96 1031.5,-30.96 1038.5,-30.96"/>
</g>
<!-- Node11 -->
<g id="node11" class="node">
<title>Node11</title>
<g id="a_node11"><a xlink:href="wasm__module__instance_8hpp.html" target="_top" xlink:title=" ">
<polygon fill="white" stroke="#666666" points="308.5,-712 165.5,-712 165.5,-682 308.5,-682 308.5,-712"/>
<text text-anchor="start" x="173.5" y="-700" font-family="Helvetica,sans-Serif" font-size="10.00">runtime/binaryen/module</text>
<text text-anchor="middle" x="237" y="-689" font-family="Helvetica,sans-Serif" font-size="10.00">/wasm_module_instance.hpp</text>
</a>
</g>
</g>
<!-- Node10&#45;&gt;Node11 -->
<g id="edge10" class="edge">
<title>Node10&#45;&gt;Node11</title>
<path fill="none" stroke="#63b8ff" d="M459.73,-748.19C416.49,-738.45 358.31,-725.34 312.25,-714.96"/>
<polygon fill="#63b8ff" stroke="#63b8ff" points="313.12,-711.57 302.6,-712.78 311.58,-718.4 313.12,-711.57"/>
</g>
<!-- Node14 -->
<g id="node14" class="node">
<title>Node14</title>
<g id="a_node14"><a xlink:href="runtime__external__interface_8hpp.html" target="_top" xlink:title=" ">
<polygon fill="white" stroke="#666666" points="582.5,-712 459.5,-712 459.5,-682 582.5,-682 582.5,-712"/>
<text text-anchor="start" x="467.5" y="-700" font-family="Helvetica,sans-Serif" font-size="10.00">runtime/binaryen/runtime</text>
<text text-anchor="middle" x="521" y="-689" font-family="Helvetica,sans-Serif" font-size="10.00">_external_interface.hpp</text>
</a>
</g>
</g>
<!-- Node10&#45;&gt;Node14 -->
<g id="edge13" class="edge">
<title>Node10&#45;&gt;Node14</title>
<path fill="none" stroke="#63b8ff" d="M521,-747.8C521,-740.67 521,-731.82 521,-723.56"/>
<polygon fill="#63b8ff" stroke="#63b8ff" points="524.5,-723.68 521,-713.68 517.5,-723.68 524.5,-723.68"/>
</g>
<!-- Node12 -->
<g id="node12" class="node">
<title>Node12</title>
<g id="a_node12"><a xlink:title=" ">
<polygon fill="#e0e0e0" stroke="#999999" points="158,-640.5 72,-640.5 72,-621.5 158,-621.5 158,-640.5"/>
<text text-anchor="middle" x="115" y="-628.5" font-family="Helvetica,sans-Serif" font-size="10.00">binaryen/literal.h</text>
</a>
</g>
</g>
<!-- Node11&#45;&gt;Node12 -->
<g id="edge11" class="edge">
<title>Node11&#45;&gt;Node12</title>
<path fill="none" stroke="#63b8ff" d="M209.62,-681.64C189.49,-671.08 162.26,-656.79 142.18,-646.26"/>
<polygon fill="#63b8ff" stroke="#63b8ff" points="143.95,-643.24 133.47,-641.69 140.7,-649.43 143.95,-643.24"/>
</g>
<!-- Node13 -->
<g id="node13" class="node">
<title>Node13</title>
<g id="a_node13"><a xlink:title=" ">
<polygon fill="#e0e0e0" stroke="#999999" points="298,-640.5 176,-640.5 176,-621.5 298,-621.5 298,-640.5"/>
<text text-anchor="middle" x="237" y="-628.5" font-family="Helvetica,sans-Serif" font-size="10.00">binaryen/support/name.h</text>
</a>
</g>
</g>
<!-- Node11&#45;&gt;Node13 -->
<g id="edge12" class="edge">
<title>Node11&#45;&gt;Node13</title>
<path fill="none" stroke="#63b8ff" d="M237,-681.8C237,-673.09 237,-661.81 237,-652.18"/>
<polygon fill="#63b8ff" stroke="#63b8ff" points="240.5,-652.36 237,-642.36 233.5,-652.36 240.5,-652.36"/>
</g>
<!-- Node15 -->
<g id="node15" class="node">
<title>Node15</title>
<g id="a_node15"><a xlink:title=" ">
<polygon fill="#e0e0e0" stroke="#999999" points="583,-640.5 459,-640.5 459,-621.5 583,-621.5 583,-640.5"/>
<text text-anchor="middle" x="521" y="-628.5" font-family="Helvetica,sans-Serif" font-size="10.00">binaryen/shell&#45;interface.h</text>
</a>
</g>
</g>
<!-- Node14&#45;&gt;Node15 -->
<g id="edge14" class="edge">
<title>Node14&#45;&gt;Node15</title>
<path fill="none" stroke="#63b8ff" d="M521,-681.8C521,-673.09 521,-661.81 521,-652.18"/>
<polygon fill="#63b8ff" stroke="#63b8ff" points="524.5,-652.36 521,-642.36 517.5,-652.36 524.5,-652.36"/>
</g>
<!-- Node16 -->
<g id="node16" class="node">
<title>Node16</title>
<g id="a_node16"><a xlink:href="logger_8hpp.html" target="_top" xlink:title=" ">
<polygon fill="white" stroke="#666666" points="401.5,-640.5 316.5,-640.5 316.5,-621.5 401.5,-621.5 401.5,-640.5"/>
<text text-anchor="middle" x="359" y="-628.5" font-family="Helvetica,sans-Serif" font-size="10.00">base/logger.hpp</text>
</a>
</g>
</g>
<!-- Node14&#45;&gt;Node16 -->
<g id="edge15" class="edge">
<title>Node14&#45;&gt;Node16</title>
<path fill="none" stroke="#63b8ff" d="M484.64,-681.64C456.93,-670.69 419.08,-655.73 392.18,-645.11"/>
<polygon fill="#63b8ff" stroke="#63b8ff" points="393.74,-641.96 383.15,-641.54 391.17,-648.47 393.74,-641.96"/>
</g>
<!-- Node19 -->
<g id="node19" class="node">
<title>Node19</title>
<g id="a_node19"><a xlink:href="extension__factory_8hpp.html" target="_top" xlink:title=" ">
<polygon fill="white" stroke="#666666" points="708.5,-646 601.5,-646 601.5,-616 708.5,-616 708.5,-646"/>
<text text-anchor="start" x="609.5" y="-634" font-family="Helvetica,sans-Serif" font-size="10.00">extensions/extension</text>
<text text-anchor="middle" x="655" y="-623" font-family="Helvetica,sans-Serif" font-size="10.00">_factory.hpp</text>
</a>
</g>
</g>
<!-- Node14&#45;&gt;Node19 -->
<g id="edge18" class="edge">
<title>Node14&#45;&gt;Node19</title>
<path fill="none" stroke="#63b8ff" d="M551.07,-681.64C569.87,-672.66 594.29,-660.99 614.75,-651.23"/>
<polygon fill="#63b8ff" stroke="#63b8ff" points="616.15,-654.44 623.66,-646.97 613.13,-648.12 616.15,-654.44"/>
</g>
<!-- Node26 -->
<g id="node26" class="node">
<title>Node26</title>
<g id="a_node26"><a xlink:href="wasm__memory_8hpp.html" target="_top" xlink:title=" ">
<polygon fill="white" stroke="#666666" points="499,-310.5 363,-310.5 363,-291.5 499,-291.5 499,-310.5"/>
<text text-anchor="middle" x="431" y="-298.5" font-family="Helvetica,sans-Serif" font-size="10.00">runtime/wasm_memory.hpp</text>
</a>
</g>
</g>
<!-- Node14&#45;&gt;Node26 -->
<g id="edge81" class="edge">
<title>Node14&#45;&gt;Node26</title>
<path fill="none" stroke="#63b8ff" d="M491.12,-681.55C476.65,-673.1 460.23,-661.11 450,-646 429.51,-615.74 431,-602.54 431,-566 431,-566 431,-566 431,-437.5 431,-396.65 431,-348.87 431,-322.36"/>
<polygon fill="#63b8ff" stroke="#63b8ff" points="434.5,-322.39 431,-312.39 427.5,-322.39 434.5,-322.39"/>
</g>
<!-- Node29 -->
<g id="node29" class="node">
<title>Node29</title>
<g id="a_node29"><a xlink:href="trie__storage__provider_8hpp.html" target="_top" xlink:title=" ">
<polygon fill="white" stroke="#666666" points="747.5,-580 644.5,-580 644.5,-550 747.5,-550 747.5,-580"/>
<text text-anchor="start" x="652.5" y="-568" font-family="Helvetica,sans-Serif" font-size="10.00">runtime/trie_storage</text>
<text text-anchor="middle" x="696" y="-557" font-family="Helvetica,sans-Serif" font-size="10.00">_provider.hpp</text>
</a>
</g>
</g>
<!-- Node14&#45;&gt;Node29 -->
<g id="edge82" class="edge">
<title>Node14&#45;&gt;Node29</title>
<path fill="none" stroke="#63b8ff" d="M582.96,-688.58C634.3,-681 701.43,-667.31 718,-646 730.57,-629.84 722.4,-606.97 712.65,-589.82"/>
<polygon fill="#63b8ff" stroke="#63b8ff" points="715.9,-588.43 707.67,-581.76 709.95,-592.11 715.9,-588.43"/>
</g>
<!-- Node17 -->
<g id="node17" class="node">
<title>Node17</title>
<g id="a_node17"><a xlink:title=" ">
<polygon fill="#e0e0e0" stroke="#999999" points="402.5,-574.5 313.5,-574.5 313.5,-555.5 402.5,-555.5 402.5,-574.5"/>
<text text-anchor="middle" x="358" y="-562.5" font-family="Helvetica,sans-Serif" font-size="10.00">spdlog/fmt/ostr.h</text>
</a>
</g>
</g>
<!-- Node16&#45;&gt;Node17 -->
<g id="edge16" class="edge">
<title>Node16&#45;&gt;Node17</title>
<path fill="none" stroke="#63b8ff" d="M358.86,-621.1C358.72,-612.12 358.5,-597.95 358.32,-586.22"/>
<polygon fill="#63b8ff" stroke="#63b8ff" points="361.82,-586.28 358.16,-576.34 354.82,-586.39 361.82,-586.28"/>
</g>
<!-- Node18 -->
<g id="node18" class="node">
<title>Node18</title>
<g id="a_node18"><a xlink:title=" ">
<polygon fill="#e0e0e0" stroke="#999999" points="295,-574.5 211,-574.5 211,-555.5 295,-555.5 295,-574.5"/>
<text text-anchor="middle" x="253" y="-562.5" font-family="Helvetica,sans-Serif" font-size="10.00">spdlog/spdlog.h</text>
</a>
</g>
</g>
<!-- Node16&#45;&gt;Node18 -->
<g id="edge17" class="edge">
<title>Node16&#45;&gt;Node18</title>
<path fill="none" stroke="#63b8ff" d="M344.26,-621.1C326.94,-610.64 297.93,-593.13 277.27,-580.66"/>
<polygon fill="#63b8ff" stroke="#63b8ff" points="279.28,-577.78 268.91,-575.61 275.66,-583.77 279.28,-577.78"/>
</g>
<!-- Node20 -->
<g id="node20" class="node">
<title>Node20</title>
<g id="a_node20"><a xlink:href="extension_8hpp.html" target="_top" xlink:title=" ">
<polygon fill="white" stroke="#666666" points="314.5,-376.5 189.5,-376.5 189.5,-357.5 314.5,-357.5 314.5,-376.5"/>
<text text-anchor="middle" x="252" y="-364.5" font-family="Helvetica,sans-Serif" font-size="10.00">extensions/extension.hpp</text>
</a>
</g>
</g>
<!-- Node19&#45;&gt;Node20 -->
<g id="edge19" class="edge">
<title>Node19&#45;&gt;Node20</title>
<path fill="none" stroke="#63b8ff" d="M632.76,-615.54C562.61,-569.94 346.48,-429.42 275.12,-383.03"/>
<polygon fill="#63b8ff" stroke="#63b8ff" points="277.24,-380.24 266.95,-377.72 273.43,-386.1 277.24,-380.24"/>
</g>
<!-- Node19&#45;&gt;Node29 -->
<g id="edge33" class="edge">
<title>Node19&#45;&gt;Node29</title>
<path fill="none" stroke="#63b8ff" d="M664.1,-615.8C668.98,-608.17 675.13,-598.57 680.72,-589.84"/>
<polygon fill="#63b8ff" stroke="#63b8ff" points="683.66,-591.75 686.11,-581.44 677.77,-587.97 683.66,-591.75"/>
</g>
<!-- Node21 -->
<g id="node21" class="node">
<title>Node21</title>
<g id="a_node21"><a xlink:title=" ">
<polygon fill="#e0e0e0" stroke="#999999" points="135,-189.5 89,-189.5 89,-170.5 135,-170.5 135,-189.5"/>
<text text-anchor="middle" x="112" y="-177.5" font-family="Helvetica,sans-Serif" font-size="10.00">cstdint</text>
</a>
</g>
</g>
<!-- Node20&#45;&gt;Node21 -->
<g id="edge20" class="edge">
<title>Node20&#45;&gt;Node21</title>
<path fill="none" stroke="#63b8ff" d="M189.16,-358.26C138.54,-350.59 73.23,-336.92 57,-316 28.29,-278.99 69.84,-224.94 95.06,-197.82"/>
<polygon fill="#63b8ff" stroke="#63b8ff" points="97.4,-200.44 101.82,-190.81 92.36,-195.59 97.4,-200.44"/>
</g>
<!-- Node22 -->
<g id="node22" class="node">
<title>Node22</title>
<g id="a_node22"><a xlink:title=" ">
<polygon fill="#e0e0e0" stroke="#999999" points="125.5,-310.5 66.5,-310.5 66.5,-291.5 125.5,-291.5 125.5,-310.5"/>
<text text-anchor="middle" x="96" y="-298.5" font-family="Helvetica,sans-Serif" font-size="10.00">functional</text>
</a>
</g>
</g>
<!-- Node20&#45;&gt;Node22 -->
<g id="edge21" class="edge">
<title>Node20&#45;&gt;Node22</title>
<path fill="none" stroke="#63b8ff" d="M230.31,-357.1C203.84,-346.24 158.84,-327.78 128.3,-315.25"/>
<polygon fill="#63b8ff" stroke="#63b8ff" points="129.74,-312.06 119.16,-311.5 127.08,-318.53 129.74,-312.06"/>
</g>
<!-- Node23 -->
<g id="node23" class="node">
<title>Node23</title>
<g id="a_node23"><a xlink:href="runtime_2types_8hpp.html" target="_top" xlink:title=" ">
<polygon fill="white" stroke="#666666" points="279.5,-250 186.5,-250 186.5,-231 279.5,-231 279.5,-250"/>
<text text-anchor="middle" x="233" y="-238" font-family="Helvetica,sans-Serif" font-size="10.00">runtime/types.hpp</text>
</a>
</g>
</g>
<!-- Node20&#45;&gt;Node23 -->
<g id="edge22" class="edge">
<title>Node20&#45;&gt;Node23</title>
<path fill="none" stroke="#63b8ff" d="M258.56,-357.42C269.04,-342.59 287.4,-311.3 277,-286 272.4,-274.81 263.48,-264.94 254.87,-257.35"/>
<polygon fill="#63b8ff" stroke="#63b8ff" points="257.34,-254.85 247.37,-251.27 252.93,-260.29 257.34,-254.85"/>
</g>
<!-- Node25 -->
<g id="node25" class="node">
<title>Node25</title>
<g id="a_node25"><a xlink:href="wasm__result_8hpp.html" target="_top" xlink:title=" ">
<polygon fill="white" stroke="#666666" points="268.5,-310.5 143.5,-310.5 143.5,-291.5 268.5,-291.5 268.5,-310.5"/>
<text text-anchor="middle" x="206" y="-298.5" font-family="Helvetica,sans-Serif" font-size="10.00">runtime/wasm_result.hpp</text>
</a>
</g>
</g>
<!-- Node20&#45;&gt;Node25 -->
<g id="edge25" class="edge">
<title>Node20&#45;&gt;Node25</title>
<path fill="none" stroke="#63b8ff" d="M245.6,-357.1C238.74,-347.55 227.65,-332.11 218.94,-320.01"/>
<polygon fill="#63b8ff" stroke="#63b8ff" points="221.9,-318.13 213.23,-312.05 216.22,-322.22 221.9,-318.13"/>
</g>
<!-- Node20&#45;&gt;Node26 -->
<g id="edge27" class="edge">
<title>Node20&#45;&gt;Node26</title>
<path fill="none" stroke="#63b8ff" d="M276.89,-357.1C307.66,-346.1 360.25,-327.3 395.32,-314.76"/>
<polygon fill="#63b8ff" stroke="#63b8ff" points="396.37,-318.1 404.61,-311.44 394.01,-311.51 396.37,-318.1"/>
</g>
<!-- Node23&#45;&gt;Node21 -->
<g id="edge23" class="edge">
<title>Node23&#45;&gt;Node21</title>
<path fill="none" stroke="#63b8ff" d="M214.62,-230.62C194.99,-221.12 163.61,-205.95 140.71,-194.88"/>
<polygon fill="#63b8ff" stroke="#63b8ff" points="142.44,-191.83 131.91,-190.63 139.39,-198.13 142.44,-191.83"/>
</g>
<!-- Node24 -->
<g id="node24" class="node">
<title>Node24</title>
<g id="a_node24"><a xlink:title=" ">
<polygon fill="#e0e0e0" stroke="#999999" points="252.5,-189.5 213.5,-189.5 213.5,-170.5 252.5,-170.5 252.5,-189.5"/>
<text text-anchor="middle" x="233" y="-177.5" font-family="Helvetica,sans-Serif" font-size="10.00">utility</text>
</a>
</g>
</g>
<!-- Node23&#45;&gt;Node24 -->
<g id="edge24" class="edge">
<title>Node23&#45;&gt;Node24</title>
<path fill="none" stroke="#63b8ff" d="M233,-230.87C233,-223 233,-211.1 233,-200.89"/>
<polygon fill="#63b8ff" stroke="#63b8ff" points="236.5,-201.18 233,-191.18 229.5,-201.18 236.5,-201.18"/>
</g>
<!-- Node25&#45;&gt;Node23 -->
<g id="edge26" class="edge">
<title>Node25&#45;&gt;Node23</title>
<path fill="none" stroke="#63b8ff" d="M209.98,-291.37C213.73,-283.25 219.47,-270.81 224.28,-260.39"/>
<polygon fill="#63b8ff" stroke="#63b8ff" points="227.35,-262.09 228.37,-251.54 221,-259.15 227.35,-262.09"/>
</g>
<!-- Node26&#45;&gt;Node2 -->
<g id="edge31" class="edge">
<title>Node26&#45;&gt;Node2</title>
<path fill="none" stroke="#63b8ff" d="M499.37,-292.08C601.18,-280.29 790.51,-258.35 882.74,-247.67"/>
<polygon fill="#63b8ff" stroke="#63b8ff" points="883,-251.16 892.53,-246.54 882.19,-244.21 883,-251.16"/>
</g>
<!-- Node26&#45;&gt;Node7 -->
<g id="edge30" class="edge">
<title>Node26&#45;&gt;Node7</title>
<path fill="none" stroke="#63b8ff" d="M425.9,-291.34C418.57,-277.66 407.07,-250.59 418,-231 448.05,-177.13 516.37,-146.24 559.38,-131.46"/>
<polygon fill="#63b8ff" stroke="#63b8ff" points="560.41,-134.8 568.82,-128.35 558.23,-128.16 560.41,-134.8"/>
</g>
<!-- Node26&#45;&gt;Node23 -->
<g id="edge32" class="edge">
<title>Node26&#45;&gt;Node23</title>
<path fill="none" stroke="#63b8ff" d="M400.93,-291.12C367.06,-281.11 311.81,-264.79 274,-253.62"/>
<polygon fill="#63b8ff" stroke="#63b8ff" points="275.39,-250.37 264.81,-250.9 273.4,-257.09 275.39,-250.37"/>
</g>
<!-- Node27 -->
<g id="node27" class="node">
<title>Node27</title>
<g id="a_node27"><a xlink:title=" ">
<polygon fill="#e0e0e0" stroke="#999999" points="867,-189.5 829,-189.5 829,-170.5 867,-170.5 867,-189.5"/>
<text text-anchor="middle" x="848" y="-177.5" font-family="Helvetica,sans-Serif" font-size="10.00">array</text>
</a>
</g>
</g>
<!-- Node26&#45;&gt;Node27 -->
<g id="edge28" class="edge">
<title>Node26&#45;&gt;Node27</title>
<path fill="none" stroke="#63b8ff" d="M427.45,-291.04C422.32,-276.43 414.98,-247.47 430,-231 488.65,-166.69 736.3,-218.87 820,-195 820.8,-194.77 821.61,-194.52 822.42,-194.25"/>
<polygon fill="#63b8ff" stroke="#63b8ff" points="823.46,-197.61 831.32,-190.5 820.75,-191.15 823.46,-197.61"/>
</g>
<!-- Node28 -->
<g id="node28" class="node">
<title>Node28</title>
<g id="a_node28"><a xlink:title=" ">
<polygon fill="#e0e0e0" stroke="#999999" points="534.5,-250 439.5,-250 439.5,-231 534.5,-231 534.5,-250"/>
<text text-anchor="middle" x="487" y="-238" font-family="Helvetica,sans-Serif" font-size="10.00">boost/optional.hpp</text>
</a>
</g>
</g>
<!-- Node26&#45;&gt;Node28 -->
<g id="edge29" class="edge">
<title>Node26&#45;&gt;Node28</title>
<path fill="none" stroke="#63b8ff" d="M439.26,-291.37C447.53,-282.73 460.48,-269.2 470.81,-258.42"/>
<polygon fill="#63b8ff" stroke="#63b8ff" points="473.27,-260.9 477.66,-251.26 468.21,-256.06 473.27,-260.9"/>
</g>
<!-- Node29&#45;&gt;Node8 -->
<g id="edge35" class="edge">
<title>Node29&#45;&gt;Node8</title>
<path fill="none" stroke="#63b8ff" d="M644.26,-560.22C482.96,-547.75 0,-504.94 0,-439.5 0,-439.5 0,-439.5 0,-179 0,-81.4 736.69,-67.7 967.02,-65.8"/>
<polygon fill="#63b8ff" stroke="#63b8ff" points="966.76,-69.3 976.74,-65.72 966.71,-62.3 966.76,-69.3"/>
</g>
<!-- Node29&#45;&gt;Node28 -->
<g id="edge34" class="edge">
<title>Node29&#45;&gt;Node28</title>
<path fill="none" stroke="#63b8ff" d="M686.75,-549.73C652.99,-497.63 536.4,-317.73 498.79,-259.7"/>
<polygon fill="#63b8ff" stroke="#63b8ff" points="501.93,-258.1 493.55,-251.61 496.05,-261.9 501.93,-258.1"/>
</g>
<!-- Node30 -->
<g id="node30" class="node">
<title>Node30</title>
<g id="a_node30"><a xlink:href="blob_8hpp.html" target="_top" xlink:title=" ">
<polygon fill="white" stroke="#666666" points="1180.5,-250 1103.5,-250 1103.5,-231 1180.5,-231 1180.5,-250"/>
<text text-anchor="middle" x="1142" y="-238" font-family="Helvetica,sans-Serif" font-size="10.00">base/blob.hpp</text>
</a>
</g>
</g>
<!-- Node29&#45;&gt;Node30 -->
<g id="edge36" class="edge">
<title>Node29&#45;&gt;Node30</title>
<path fill="none" stroke="#63b8ff" d="M747.75,-557.58C857.03,-540.87 1109.38,-484.87 1208,-316 1214.72,-304.49 1214.26,-297.77 1208,-286 1200.93,-272.71 1187.94,-262.68 1175.34,-255.53"/>
<polygon fill="#63b8ff" stroke="#63b8ff" points="1177.27,-252.59 1166.78,-251.11 1174.05,-258.81 1177.27,-252.59"/>
</g>
<!-- Node34 -->
<g id="node34" class="node">
<title>Node34</title>
<g id="a_node34"><a xlink:href="trie__batches_8hpp.html" target="_top" xlink:title=" ">
<polygon fill="white" stroke="#666666" points="846,-514 706,-514 706,-495 846,-495 846,-514"/>
<text text-anchor="middle" x="776" y="-502" font-family="Helvetica,sans-Serif" font-size="10.00">storage/trie/trie_batches.hpp</text>
</a>
</g>
</g>
<!-- Node29&#45;&gt;Node34 -->
<g id="edge45" class="edge">
<title>Node29&#45;&gt;Node34</title>
<path fill="none" stroke="#63b8ff" d="M715.78,-549.54C727.75,-540.78 743.01,-529.63 755.17,-520.73"/>
<polygon fill="#63b8ff" stroke="#63b8ff" points="756.91,-523.8 762.91,-515.07 752.78,-518.15 756.91,-523.8"/>
</g>
<!-- Node30&#45;&gt;Node27 -->
<g id="edge37" class="edge">
<title>Node30&#45;&gt;Node27</title>
<path fill="none" stroke="#63b8ff" d="M1103.26,-236.65C1050.7,-231.98 954.36,-220.51 876,-195 875.5,-194.84 874.99,-194.66 874.48,-194.49"/>
<polygon fill="#63b8ff" stroke="#63b8ff" points="875.9,-191.29 865.33,-190.58 873.16,-197.73 875.9,-191.29"/>
</g>
<!-- Node31 -->
<g id="node31" class="node">
<title>Node31</title>
<g id="a_node31"><a xlink:title=" ">
<polygon fill="#e0e0e0" stroke="#999999" points="1385,-189.5 1257,-189.5 1257,-170.5 1385,-170.5 1385,-189.5"/>
<text text-anchor="middle" x="1321" y="-177.5" font-family="Helvetica,sans-Serif" font-size="10.00">boost/functional/hash.hpp</text>
</a>
</g>
</g>
<!-- Node30&#45;&gt;Node31 -->
<g id="edge38" class="edge">
<title>Node30&#45;&gt;Node31</title>
<path fill="none" stroke="#63b8ff" d="M1169.19,-230.62C1199.54,-220.69 1248.89,-204.57 1283.05,-193.4"/>
<polygon fill="#63b8ff" stroke="#63b8ff" points="1283.7,-196.87 1292.12,-190.44 1281.53,-190.22 1283.7,-196.87"/>
</g>
<!-- Node32 -->
<g id="node32" class="node">
<title>Node32</title>
<g id="a_node32"><a xlink:href="hexutil_8hpp.html" target="_top" xlink:title=" ">
<polygon fill="white" stroke="#666666" points="1091,-189.5 1005,-189.5 1005,-170.5 1091,-170.5 1091,-189.5"/>
<text text-anchor="middle" x="1048" y="-177.5" font-family="Helvetica,sans-Serif" font-size="10.00">base/hexutil.hpp</text>
</a>
</g>
</g>
<!-- Node30&#45;&gt;Node32 -->
<g id="edge39" class="edge">
<title>Node30&#45;&gt;Node32</title>
<path fill="none" stroke="#63b8ff" d="M1127.72,-230.62C1112.95,-221.42 1089.63,-206.91 1072.01,-195.94"/>
<polygon fill="#63b8ff" stroke="#63b8ff" points="1074.04,-193.08 1063.7,-190.77 1070.34,-199.02 1074.04,-193.08"/>
</g>
<!-- Node33 -->
<g id="node33" class="node">
<title>Node33</title>
<g id="a_node33"><a xlink:title=" ">
<polygon fill="#e0e0e0" stroke="#999999" points="1239,-189.5 1185,-189.5 1185,-170.5 1239,-170.5 1239,-189.5"/>
<text text-anchor="middle" x="1212" y="-177.5" font-family="Helvetica,sans-Serif" font-size="10.00">iostream</text>
</a>
</g>
</g>
<!-- Node30&#45;&gt;Node33 -->
<g id="edge44" class="edge">
<title>Node30&#45;&gt;Node33</title>
<path fill="none" stroke="#63b8ff" d="M1152.63,-230.62C1163.22,-221.77 1179.71,-207.98 1192.63,-197.19"/>
<polygon fill="#63b8ff" stroke="#63b8ff" points="1194.68,-200.04 1200.11,-190.94 1190.19,-194.67 1194.68,-200.04"/>
</g>
<!-- Node32&#45;&gt;Node3 -->
<g id="edge40" class="edge">
<title>Node32&#45;&gt;Node3</title>
<path fill="none" stroke="#63b8ff" d="M1055.08,-170.37C1062.03,-161.9 1072.83,-148.74 1081.59,-138.07"/>
<polygon fill="#63b8ff" stroke="#63b8ff" points="1084.29,-140.29 1087.93,-130.34 1078.88,-135.85 1084.29,-140.29"/>
</g>
<!-- Node32&#45;&gt;Node4 -->
<g id="edge41" class="edge">
<title>Node32&#45;&gt;Node4</title>
<path fill="none" stroke="#63b8ff" d="M1014.72,-170.02C1008.5,-168.35 1002.05,-166.62 996,-165 949.72,-152.6 896.2,-138.36 862.48,-129.39"/>
<polygon fill="#63b8ff" stroke="#63b8ff" points="863.45,-126.03 852.89,-126.84 861.65,-132.8 863.45,-126.03"/>
</g>
<!-- Node32&#45;&gt;Node7 -->
<g id="edge42" class="edge">
<title>Node32&#45;&gt;Node7</title>
<path fill="none" stroke="#63b8ff" d="M1017.66,-170C1010.6,-168.14 1003.07,-166.34 996,-165 864.63,-140.14 706.11,-127.55 634.89,-122.8"/>
<polygon fill="#63b8ff" stroke="#63b8ff" points="635.54,-119.34 625.33,-122.18 635.09,-126.32 635.54,-119.34"/>
</g>
<!-- Node32&#45;&gt;Node8 -->
<g id="edge43" class="edge">
<title>Node32&#45;&gt;Node8</title>
<path fill="none" stroke="#63b8ff" d="M1046.98,-170.09C1044.91,-152.03 1040.17,-110.67 1037.31,-85.71"/>
<polygon fill="#63b8ff" stroke="#63b8ff" points="1040.8,-85.41 1036.19,-75.87 1033.85,-86.2 1040.8,-85.41"/>
</g>
<!-- Node35 -->
<g id="node35" class="node">
<title>Node35</title>
<g id="a_node35"><a xlink:href="buffer__map__types_8hpp.html" target="_top" xlink:title=" ">
<polygon fill="white" stroke="#666666" points="1435,-453.5 1335,-453.5 1335,-423.5 1435,-423.5 1435,-453.5"/>
<text text-anchor="start" x="1343" y="-441.5" font-family="Helvetica,sans-Serif" font-size="10.00">storage/buffer_map</text>
<text text-anchor="middle" x="1385" y="-430.5" font-family="Helvetica,sans-Serif" font-size="10.00">_types.hpp</text>
</a>
</g>
</g>
<!-- Node34&#45;&gt;Node35 -->
<g id="edge46" class="edge">
<title>Node34&#45;&gt;Node35</title>
<path fill="none" stroke="#63b8ff" d="M846.45,-496.1C966.63,-483.47 1209.27,-457.97 1323.23,-445.99"/>
<polygon fill="#63b8ff" stroke="#63b8ff" points="1323.43,-449.49 1333,-444.96 1322.69,-442.53 1323.43,-449.49"/>
</g>
<!-- Node45 -->
<g id="node42" class="node">
<title>Node45</title>
<g id="a_node42"><a xlink:href="supergenius__trie__cursor_8hpp.html" target="_top" xlink:title=" ">
<polygon fill="white" stroke="#666666" points="836.5,-459 715.5,-459 715.5,-418 836.5,-418 836.5,-459"/>
<text text-anchor="start" x="723.5" y="-447" font-family="Helvetica,sans-Serif" font-size="10.00">storage/trie/supergenius</text>
<text text-anchor="start" x="723.5" y="-436" font-family="Helvetica,sans-Serif" font-size="10.00">_trie/supergenius_trie</text>
<text text-anchor="middle" x="776" y="-425" font-family="Helvetica,sans-Serif" font-size="10.00">_cursor.hpp</text>
</a>
</g>
</g>
<!-- Node34&#45;&gt;Node45 -->
<g id="edge60" class="edge">
<title>Node34&#45;&gt;Node45</title>
<path fill="none" stroke="#63b8ff" d="M776,-494.6C776,-488.3 776,-479.43 776,-470.65"/>
<polygon fill="#63b8ff" stroke="#63b8ff" points="779.5,-470.89 776,-460.89 772.5,-470.89 779.5,-470.89"/>
</g>
<!-- Node35&#45;&gt;Node2 -->
<g id="edge48" class="edge">
<title>Node35&#45;&gt;Node2</title>
<path fill="none" stroke="#63b8ff" d="M1376.3,-423.25C1356.57,-392.33 1305.12,-319.21 1241,-286 1198.17,-263.82 1064.45,-250.81 989.06,-245.06"/>
<polygon fill="#63b8ff" stroke="#63b8ff" points="989.68,-241.59 979.45,-244.34 989.16,-248.57 989.68,-241.59"/>
</g>
<!-- Node35&#45;&gt;Node7 -->
<g id="edge47" class="edge">
<title>Node35&#45;&gt;Node7</title>
<path fill="none" stroke="#63b8ff" d="M1334.77,-438.14C1233.01,-438.27 995.93,-432.53 805,-382 735.77,-363.68 705.52,-369.58 658,-316 612.31,-264.5 600.84,-179.05 597.96,-140.48"/>
<polygon fill="#63b8ff" stroke="#63b8ff" points="601.46,-140.4 597.36,-130.63 594.48,-140.82 601.46,-140.4"/>
</g>
<!-- Node36 -->
<g id="node36" class="node">
<title>Node36</title>
<g id="a_node36"><a xlink:href="batchable_8hpp.html" target="_top" xlink:title=" ">
<polygon fill="white" stroke="#666666" points="1588,-250 1454,-250 1454,-231 1588,-231 1588,-250"/>
<text text-anchor="middle" x="1521" y="-238" font-family="Helvetica,sans-Serif" font-size="10.00">storage/face/batchable.hpp</text>
</a>
</g>
</g>
<!-- Node35&#45;&gt;Node36 -->
<g id="edge49" class="edge">
<title>Node35&#45;&gt;Node36</title>
<path fill="none" stroke="#63b8ff" d="M1429.82,-423.09C1450.4,-414.31 1473.43,-401.03 1488,-382 1515.47,-346.13 1520.62,-291.09 1521.26,-261.67"/>
<polygon fill="#63b8ff" stroke="#63b8ff" points="1524.75,-261.97 1521.3,-251.96 1517.75,-261.95 1524.75,-261.97"/>
</g>
<!-- Node38 -->
<g id="node38" class="node">
<title>Node38</title>
<g id="a_node38"><a xlink:href="write__batch_8hpp.html" target="_top" xlink:title=" ">
<polygon fill="white" stroke="#666666" points="1644.5,-195 1549.5,-195 1549.5,-165 1644.5,-165 1644.5,-195"/>
<text text-anchor="start" x="1557.5" y="-183" font-family="Helvetica,sans-Serif" font-size="10.00">storage/face/write</text>
<text text-anchor="middle" x="1597" y="-172" font-family="Helvetica,sans-Serif" font-size="10.00">_batch.hpp</text>
</a>
</g>
</g>
<!-- Node35&#45;&gt;Node38 -->
<g id="edge59" class="edge">
<title>Node35&#45;&gt;Node38</title>
<path fill="none" stroke="#63b8ff" d="M1434.03,-423.08C1458.72,-414.1 1487.99,-400.65 1510,-382 1563.61,-336.58 1576.82,-317.3 1597,-250 1601.19,-236.03 1601.39,-219.75 1600.46,-206.5"/>
<polygon fill="#63b8ff" stroke="#63b8ff" points="1603.97,-206.47 1599.51,-196.86 1597,-207.16 1603.97,-206.47"/>
</g>
<!-- Node40 -->
<g id="node40" class="node">
<title>Node40</title>
<g id="a_node40"><a xlink:href="generic__storage_8hpp.html" target="_top" xlink:title=" ">
<polygon fill="white" stroke="#666666" points="1478.5,-382 1373.5,-382 1373.5,-352 1478.5,-352 1478.5,-382"/>
<text text-anchor="start" x="1381.5" y="-370" font-family="Helvetica,sans-Serif" font-size="10.00">storage/face/generic</text>
<text text-anchor="middle" x="1426" y="-359" font-family="Helvetica,sans-Serif" font-size="10.00">_storage.hpp</text>
</a>
</g>
</g>
<!-- Node35&#45;&gt;Node40 -->
<g id="edge55" class="edge">
<title>Node35&#45;&gt;Node40</title>
<path fill="none" stroke="#63b8ff" d="M1393.5,-423.1C1398.77,-414.15 1405.69,-402.43 1411.78,-392.1"/>
<polygon fill="#63b8ff" stroke="#63b8ff" points="1414.68,-394.08 1416.75,-383.69 1408.65,-390.52 1414.68,-394.08"/>
</g>
<!-- Node37 -->
<g id="node37" class="node">
<title>Node37</title>
<g id="a_node37"><a xlink:title=" ">
<polygon fill="#e0e0e0" stroke="#999999" points="1454.5,-189.5 1403.5,-189.5 1403.5,-170.5 1454.5,-170.5 1454.5,-189.5"/>
<text text-anchor="middle" x="1429" y="-177.5" font-family="Helvetica,sans-Serif" font-size="10.00">memory</text>
</a>
</g>
</g>
<!-- Node36&#45;&gt;Node37 -->
<g id="edge50" class="edge">
<title>Node36&#45;&gt;Node37</title>
<path fill="none" stroke="#63b8ff" d="M1507.03,-230.62C1492.57,-221.42 1469.74,-206.91 1452.5,-195.94"/>
<polygon fill="#63b8ff" stroke="#63b8ff" points="1454.7,-193.19 1444.38,-190.78 1450.94,-199.1 1454.7,-193.19"/>
</g>
<!-- Node36&#45;&gt;Node38 -->
<g id="edge51" class="edge">
<title>Node36&#45;&gt;Node38</title>
<path fill="none" stroke="#63b8ff" d="M1532.54,-230.62C1542.3,-223.1 1556.68,-212.04 1569.38,-202.26"/>
<polygon fill="#63b8ff" stroke="#63b8ff" points="1571.25,-205.24 1577.04,-196.36 1566.98,-199.69 1571.25,-205.24"/>
</g>
<!-- Node39 -->
<g id="node39" class="node">
<title>Node39</title>
<g id="a_node39"><a xlink:href="writeable_8hpp.html" target="_top" xlink:title=" ">
<polygon fill="white" stroke="#666666" points="1567.5,-129 1436.5,-129 1436.5,-110 1567.5,-110 1567.5,-129"/>
<text text-anchor="middle" x="1502" y="-117" font-family="Helvetica,sans-Serif" font-size="10.00">storage/face/writeable.hpp</text>
</a>
</g>
</g>
<!-- Node36&#45;&gt;Node39 -->
<g id="edge54" class="edge">
<title>Node36&#45;&gt;Node39</title>
<path fill="none" stroke="#63b8ff" d="M1519.57,-230.56C1516.53,-211.51 1509.35,-166.56 1505.17,-140.37"/>
<polygon fill="#63b8ff" stroke="#63b8ff" points="1508.66,-140.04 1503.63,-130.72 1501.75,-141.15 1508.66,-140.04"/>
</g>
<!-- Node38&#45;&gt;Node39 -->
<g id="edge52" class="edge">
<title>Node38&#45;&gt;Node39</title>
<path fill="none" stroke="#63b8ff" d="M1573.52,-164.54C1559.1,-155.66 1540.69,-144.32 1526.15,-135.37"/>
<polygon fill="#63b8ff" stroke="#63b8ff" points="1528,-132.4 1517.65,-130.14 1524.33,-138.36 1528,-132.4"/>
</g>
<!-- Node39&#45;&gt;Node8 -->
<g id="edge53" class="edge">
<title>Node39&#45;&gt;Node8</title>
<path fill="none" stroke="#63b8ff" d="M1436.08,-111.02C1347.92,-101.01 1192.41,-83.36 1103.14,-73.23"/>
<polygon fill="#63b8ff" stroke="#63b8ff" points="1103.63,-69.77 1093.3,-72.12 1102.84,-76.72 1103.63,-69.77"/>
</g>
<!-- Node41 -->
<g id="node41" class="node">
<title>Node41</title>
<g id="a_node41"><a xlink:href="generic__maps_8hpp.html" target="_top" xlink:title=" ">
<polygon fill="#fff0f0" stroke="red" points="1478.5,-316 1373.5,-316 1373.5,-286 1478.5,-286 1478.5,-316"/>
<text text-anchor="start" x="1381.5" y="-304" font-family="Helvetica,sans-Serif" font-size="10.00">storage/face/generic</text>
<text text-anchor="middle" x="1426" y="-293" font-family="Helvetica,sans-Serif" font-size="10.00">_maps.hpp</text>
</a>
</g>
</g>
<!-- Node40&#45;&gt;Node41 -->
<g id="edge56" class="edge">
<title>Node40&#45;&gt;Node41</title>
<path fill="none" stroke="#63b8ff" d="M1426,-351.8C1426,-344.67 1426,-335.82 1426,-327.56"/>
<polygon fill="#63b8ff" stroke="#63b8ff" points="1429.5,-327.68 1426,-317.68 1422.5,-327.68 1429.5,-327.68"/>
</g>
<!-- Node41&#45;&gt;Node36 -->
<g id="edge57" class="edge">
<title>Node41&#45;&gt;Node36</title>
<path fill="none" stroke="#63b8ff" d="M1449.48,-285.54C1463.9,-276.66 1482.31,-265.32 1496.85,-256.37"/>
<polygon fill="#63b8ff" stroke="#63b8ff" points="1498.67,-259.36 1505.35,-251.14 1495,-253.4 1498.67,-259.36"/>
</g>
<!-- Node41&#45;&gt;Node39 -->
<g id="edge58" class="edge">
<title>Node41&#45;&gt;Node39</title>
<path fill="none" stroke="#63b8ff" d="M1428.98,-285.7C1432.16,-271.54 1437.72,-249.37 1445,-231 1451.66,-214.18 1455.67,-211.06 1464,-195 1473.81,-176.1 1484.84,-154.41 1492.49,-139.33"/>
<polygon fill="#63b8ff" stroke="#63b8ff" points="1495.52,-141.09 1496.91,-130.59 1489.27,-137.93 1495.52,-141.09"/>
</g>
<!-- Node45&#45;&gt;Node2 -->
<g id="edge63" class="edge">
<title>Node45&#45;&gt;Node2</title>
<path fill="none" stroke="#63b8ff" d="M741.08,-417.69C693.63,-388.33 618.96,-331.79 658,-286 686.33,-252.77 810.56,-244.25 883.01,-242.13"/>
<polygon fill="#63b8ff" stroke="#63b8ff" points="882.75,-245.64 892.65,-241.88 882.57,-238.64 882.75,-245.64"/>
</g>
<!-- Node43 -->
<g id="node43" class="node">
<title>Node43</title>
<g id="a_node43"><a xlink:href="map__cursor_8hpp.html" target="_top" xlink:title=" ">
<polygon fill="white" stroke="#666666" points="479.5,-129 336.5,-129 336.5,-110 479.5,-110 479.5,-129"/>
<text text-anchor="middle" x="408" y="-117" font-family="Helvetica,sans-Serif" font-size="10.00">storage/face/map_cursor.hpp</text>
</a>
</g>
</g>
<!-- Node45&#45;&gt;Node43 -->
<g id="edge61" class="edge">
<title>Node45&#45;&gt;Node43</title>
<path fill="none" stroke="#63b8ff" d="M715,-428.98C608.91,-412.77 397.56,-373.87 354,-316 312.38,-260.71 366.49,-175.1 393.87,-138.3"/>
<polygon fill="#63b8ff" stroke="#63b8ff" points="396.56,-140.55 399.86,-130.48 391,-136.29 396.56,-140.55"/>
</g>
<!-- Node46 -->
<g id="node44" class="node">
<title>Node46</title>
<g id="a_node44"><a xlink:href="supergenius__trie_8hpp.html" target="_top" xlink:title=" ">
<polygon fill="white" stroke="#666666" points="1082,-382 954,-382 954,-352 1082,-352 1082,-382"/>
<text text-anchor="start" x="962" y="-370" font-family="Helvetica,sans-Serif" font-size="10.00">storage/trie/supergenius</text>
<text text-anchor="middle" x="1018" y="-359" font-family="Helvetica,sans-Serif" font-size="10.00">_trie/supergenius_trie.hpp</text>
</a>
</g>
</g>
<!-- Node45&#45;&gt;Node46 -->
<g id="edge64" class="edge">
<title>Node45&#45;&gt;Node46</title>
<path fill="none" stroke="#63b8ff" d="M836.75,-420.05C873.58,-409.48 920.41,-396.03 957.24,-385.45"/>
<polygon fill="#63b8ff" stroke="#63b8ff" points="957.73,-388.95 966.38,-382.83 955.8,-382.22 957.73,-388.95"/>
</g>
<!-- Node49 -->
<g id="node46" class="node">
<title>Node49</title>
<g id="a_node46"><a xlink:href="supergenius__codec_8hpp.html" target="_top" xlink:title=" ">
<polygon fill="white" stroke="#666666" points="936,-382 814,-382 814,-352 936,-352 936,-382"/>
<text text-anchor="start" x="822" y="-370" font-family="Helvetica,sans-Serif" font-size="10.00">storage/trie/serialization</text>
<text text-anchor="middle" x="875" y="-359" font-family="Helvetica,sans-Serif" font-size="10.00">/supergenius_codec.hpp</text>
</a>
</g>
</g>
<!-- Node45&#45;&gt;Node49 -->
<g id="edge70" class="edge">
<title>Node45&#45;&gt;Node49</title>
<path fill="none" stroke="#63b8ff" d="M804.37,-417.58C817.12,-408.63 832.17,-398.07 845.09,-388.99"/>
<polygon fill="#63b8ff" stroke="#63b8ff" points="847.08,-391.88 853.25,-383.27 843.06,-386.15 847.08,-391.88"/>
</g>
<!-- Node43&#45;&gt;Node8 -->
<g id="edge62" class="edge">
<title>Node43&#45;&gt;Node8</title>
<path fill="none" stroke="#63b8ff" d="M479.92,-112.42C601.92,-102.11 847.76,-81.33 967.02,-71.25"/>
<polygon fill="#63b8ff" stroke="#63b8ff" points="966.98,-74.76 976.65,-70.43 966.39,-67.79 966.98,-74.76"/>
</g>
<!-- Node46&#45;&gt;Node41 -->
<g id="edge65" class="edge">
<title>Node46&#45;&gt;Node41</title>
<path fill="none" stroke="#63b8ff" d="M1082.2,-355.93C1158.62,-343.94 1285.46,-324.05 1361.85,-312.06"/>
<polygon fill="#63b8ff" stroke="#63b8ff" points="1362.37,-315.52 1371.71,-310.52 1361.29,-308.61 1362.37,-315.52"/>
</g>
<!-- Node47 -->
<g id="node45" class="node">
<title>Node47</title>
<g id="a_node45"><a xlink:href="supergenius__node_8hpp.html" target="_top" xlink:title=" ">
<polygon fill="#fff0f0" stroke="red" points="1067.5,-316 932.5,-316 932.5,-286 1067.5,-286 1067.5,-316"/>
<text text-anchor="start" x="940.5" y="-304" font-family="Helvetica,sans-Serif" font-size="10.00">storage/trie/supergenius</text>
<text text-anchor="middle" x="1000" y="-293" font-family="Helvetica,sans-Serif" font-size="10.00">_trie/supergenius_node.hpp</text>
</a>
</g>
</g>
<!-- Node46&#45;&gt;Node47 -->
<g id="edge66" class="edge">
<title>Node46&#45;&gt;Node47</title>
<path fill="none" stroke="#63b8ff" d="M1014.01,-351.8C1011.95,-344.5 1009.4,-335.41 1007.03,-326.99"/>
<polygon fill="#63b8ff" stroke="#63b8ff" points="1010.47,-326.3 1004.39,-317.62 1003.73,-328.2 1010.47,-326.3"/>
</g>
<!-- Node47&#45;&gt;Node2 -->
<g id="edge69" class="edge">
<title>Node47&#45;&gt;Node2</title>
<path fill="none" stroke="#63b8ff" d="M984.18,-285.54C974.98,-277.13 963.36,-266.51 953.83,-257.8"/>
<polygon fill="#63b8ff" stroke="#63b8ff" points="956.35,-255.36 946.61,-251.2 951.63,-260.53 956.35,-255.36"/>
</g>
<!-- Node47&#45;&gt;Node28 -->
<g id="edge67" class="edge">
<title>Node47&#45;&gt;Node28</title>
<path fill="none" stroke="#63b8ff" d="M932.09,-287.21C929.36,-286.78 926.66,-286.38 924,-286 789.35,-266.77 630.2,-252.74 546.05,-245.99"/>
<polygon fill="#63b8ff" stroke="#63b8ff" points="546.44,-242.51 536.19,-245.21 545.88,-249.49 546.44,-242.51"/>
</g>
<!-- Node47&#45;&gt;Node30 -->
<g id="edge68" class="edge">
<title>Node47&#45;&gt;Node30</title>
<path fill="none" stroke="#63b8ff" d="M1035.1,-285.54C1058.01,-276.1 1087.67,-263.88 1109.94,-254.71"/>
<polygon fill="#63b8ff" stroke="#63b8ff" points="1111.21,-257.97 1119.13,-250.92 1108.55,-251.5 1111.21,-257.97"/>
</g>
<!-- Node49&#45;&gt;Node37 -->
<g id="edge71" class="edge">
<title>Node49&#45;&gt;Node37</title>
<path fill="none" stroke="#63b8ff" d="M936.42,-353.49C939.32,-352.97 942.19,-352.47 945,-352 1061.34,-332.42 1096.86,-355.59 1208,-316 1289.26,-287.05 1372.85,-225.67 1409.63,-196.73"/>
<polygon fill="#63b8ff" stroke="#63b8ff" points="1411.51,-199.7 1417.15,-190.73 1407.15,-194.23 1411.51,-199.7"/>
</g>
<!-- Node49&#45;&gt;Node47 -->
<g id="edge80" class="edge">
<title>Node49&#45;&gt;Node47</title>
<path fill="none" stroke="#63b8ff" d="M903.05,-351.64C920.42,-342.74 942.95,-331.21 961.92,-321.49"/>
<polygon fill="#63b8ff" stroke="#63b8ff" points="963.39,-324.68 970.69,-317 960.2,-318.45 963.39,-324.68"/>
</g>
<!-- Node50 -->
<g id="node47" class="node">
<title>Node50</title>
<g id="a_node47"><a xlink:title=" ">
<polygon fill="#e0e0e0" stroke="#999999" points="855,-310.5 805,-310.5 805,-291.5 855,-291.5 855,-310.5"/>
<text text-anchor="middle" x="830" y="-298.5" font-family="Helvetica,sans-Serif" font-size="10.00">optional</text>
</a>
</g>
</g>
<!-- Node49&#45;&gt;Node50 -->
<g id="edge72" class="edge">
<title>Node49&#45;&gt;Node50</title>
<path fill="none" stroke="#63b8ff" d="M865.01,-351.8C858.48,-342.5 849.88,-330.27 842.84,-320.26"/>
<polygon fill="#63b8ff" stroke="#63b8ff" points="845.7,-318.25 837.09,-312.08 839.98,-322.28 845.7,-318.25"/>
</g>
<!-- Node51 -->
<g id="node48" class="node">
<title>Node51</title>
<g id="a_node48"><a xlink:title=" ">
<polygon fill="#e0e0e0" stroke="#999999" points="914.5,-310.5 873.5,-310.5 873.5,-291.5 914.5,-291.5 914.5,-310.5"/>
<text text-anchor="middle" x="894" y="-298.5" font-family="Helvetica,sans-Serif" font-size="10.00">string</text>
</a>
</g>
</g>
<!-- Node49&#45;&gt;Node51 -->
<g id="edge73" class="edge">
<title>Node49&#45;&gt;Node51</title>
<path fill="none" stroke="#63b8ff" d="M879.22,-351.8C881.83,-342.99 885.23,-331.55 888.1,-321.86"/>
<polygon fill="#63b8ff" stroke="#63b8ff" points="891.45,-322.88 890.94,-312.3 884.74,-320.89 891.45,-322.88"/>
</g>
<!-- Node52 -->
<g id="node49" class="node">
<title>Node52</title>
<g id="a_node49"><a xlink:href="buffer__stream_8hpp.html" target="_top" xlink:title=" ">
<polygon fill="white" stroke="#666666" points="786.5,-316 667.5,-316 667.5,-286 786.5,-286 786.5,-316"/>
<text text-anchor="start" x="675.5" y="-304" font-family="Helvetica,sans-Serif" font-size="10.00">storage/trie/serialization</text>
<text text-anchor="middle" x="727" y="-293" font-family="Helvetica,sans-Serif" font-size="10.00">/buffer_stream.hpp</text>
</a>
</g>
</g>
<!-- Node49&#45;&gt;Node52 -->
<g id="edge74" class="edge">
<title>Node49&#45;&gt;Node52</title>
<path fill="none" stroke="#63b8ff" d="M841.79,-351.64C820.82,-342.57 793.5,-330.75 770.77,-320.93"/>
<polygon fill="#63b8ff" stroke="#63b8ff" points="772.32,-317.78 761.75,-317.03 769.54,-324.21 772.32,-317.78"/>
</g>
<!-- Node53 -->
<g id="node50" class="node">
<title>Node53</title>
<g id="a_node50"><a xlink:href="codec_8hpp.html" target="_top" xlink:title=" ">
<polygon fill="#fff0f0" stroke="red" points="1198.5,-310.5 1085.5,-310.5 1085.5,-291.5 1198.5,-291.5 1198.5,-310.5"/>
<text text-anchor="middle" x="1142" y="-298.5" font-family="Helvetica,sans-Serif" font-size="10.00">storage/trie/codec.hpp</text>
</a>
</g>
</g>
<!-- Node49&#45;&gt;Node53 -->
<g id="edge77" class="edge">
<title>Node49&#45;&gt;Node53</title>
<path fill="none" stroke="#63b8ff" d="M935.25,-351.56C983.08,-340.09 1049.06,-324.28 1093.52,-313.62"/>
<polygon fill="#63b8ff" stroke="#63b8ff" points="1094.23,-317.05 1103.14,-311.32 1092.6,-310.24 1094.23,-317.05"/>
</g>
<!-- Node52&#45;&gt;Node2 -->
<g id="edge76" class="edge">
<title>Node52&#45;&gt;Node2</title>
<path fill="none" stroke="#63b8ff" d="M778.66,-285.54C813.96,-275.66 860.17,-262.73 893.36,-253.43"/>
<polygon fill="#63b8ff" stroke="#63b8ff" points="893.94,-256.91 902.63,-250.84 892.06,-250.17 893.94,-256.91"/>
</g>
<!-- Node52&#45;&gt;Node7 -->
<g id="edge75" class="edge">
<title>Node52&#45;&gt;Node7</title>
<path fill="none" stroke="#63b8ff" d="M712.34,-285.66C693.05,-266.29 658.79,-230.11 635,-195 622.93,-177.18 612.1,-155.03 605.12,-139.52"/>
<polygon fill="#63b8ff" stroke="#63b8ff" points="608.4,-138.29 601.18,-130.54 601.99,-141.1 608.4,-138.29"/>
</g>
<!-- Node53&#45;&gt;Node2 -->
<g id="edge79" class="edge">
<title>Node53&#45;&gt;Node2</title>
<path fill="none" stroke="#63b8ff" d="M1110.71,-291.12C1075.4,-281.09 1017.75,-264.72 978.41,-253.54"/>
<polygon fill="#63b8ff" stroke="#63b8ff" points="979.61,-250.25 969.04,-250.88 977.7,-256.98 979.61,-250.25"/>
</g>
<!-- Node53&#45;&gt;Node30 -->
<g id="edge78" class="edge">
<title>Node53&#45;&gt;Node30</title>
<path fill="none" stroke="#63b8ff" d="M1142,-291.37C1142,-283.5 1142,-271.6 1142,-261.39"/>
<polygon fill="#63b8ff" stroke="#63b8ff" points="1145.5,-261.68 1142,-251.68 1138.5,-261.68 1145.5,-261.68"/>
</g>
</g>
</svg>
