<?xml version="1.0" encoding="UTF-8" standalone="no"?>
<!DOCTYPE svg PUBLIC "-//W3C//DTD SVG 1.1//EN"
 "http://www.w3.org/Graphics/SVG/1.1/DTD/svg11.dtd">
<!-- Generated by graphviz version 7.0.5 (20221223.1930)
 -->
<!-- Title: src/runtime/binaryen/module/wasm_module_instance_impl.hpp Pages: 1 -->
<svg width="344pt" height="126pt"
 viewBox="0.00 0.00 343.50 126.00" xmlns="http://www.w3.org/2000/svg" xmlns:xlink="http://www.w3.org/1999/xlink">
<g id="graph0" class="graph" transform="scale(1 1) rotate(0) translate(4 122)">
<title>src/runtime/binaryen/module/wasm_module_instance_impl.hpp</title>
<!-- Node1 -->
<g id="node1" class="node">
<title>Node1</title>
<g id="a_node1"><a xlink:title=" ">
<polygon fill="#999999" stroke="#666666" points="246.5,-118 87.5,-118 87.5,-77 246.5,-77 246.5,-118"/>
<text text-anchor="start" x="95.5" y="-106" font-family="Helvetica,sans-Serif" font-size="10.00">src/runtime/binaryen</text>
<text text-anchor="start" x="95.5" y="-95" font-family="Helvetica,sans-Serif" font-size="10.00">/module/wasm_module_instance</text>
<text text-anchor="middle" x="167" y="-84" font-family="Helvetica,sans-Serif" font-size="10.00">_impl.hpp</text>
</a>
</g>
</g>
<!-- Node2 -->
<g id="node2" class="node">
<title>Node2</title>
<g id="a_node2"><a xlink:href="wasm__module__impl_8cpp.html" target="_top" xlink:title=" ">
<polygon fill="white" stroke="#666666" points="158,-35.5 0,-35.5 0,-5.5 158,-5.5 158,-35.5"/>
<text text-anchor="start" x="8" y="-23.5" font-family="Helvetica,sans-Serif" font-size="10.00">src/runtime/binaryen</text>
<text text-anchor="middle" x="79" y="-12.5" font-family="Helvetica,sans-Serif" font-size="10.00">/module/wasm_module_impl.cpp</text>
</a>
</g>
</g>
<!-- Node1&#45;&gt;Node2 -->
<g id="edge1" class="edge">
<title>Node1&#45;&gt;Node2</title>
<path fill="none" stroke="#63b8ff" d="M135.4,-69.57C122.04,-58.18 107.03,-45.39 95.85,-35.86"/>
<polygon fill="#63b8ff" stroke="#63b8ff" points="132.85,-71.99 142.73,-75.81 137.39,-66.66 132.85,-71.99"/>
</g>
<!-- Node3 -->
<g id="node3" class="node">
<title>Node3</title>
<g id="a_node3"><a xlink:href="wasm__module__instance__impl_8cpp.html" target="_top" xlink:title=" ">
<polygon fill="white" stroke="#666666" points="335.5,-41 176.5,-41 176.5,0 335.5,0 335.5,-41"/>
<text text-anchor="start" x="184.5" y="-29" font-family="Helvetica,sans-Serif" font-size="10.00">src/runtime/binaryen</text>
<text text-anchor="start" x="184.5" y="-18" font-family="Helvetica,sans-Serif" font-size="10.00">/module/wasm_module_instance</text>
<text text-anchor="middle" x="256" y="-7" font-family="Helvetica,sans-Serif" font-size="10.00">_impl.cpp</text>
</a>
</g>
</g>
<!-- Node1&#45;&gt;Node3 -->
<g id="edge2" class="edge">
<title>Node1&#45;&gt;Node3</title>
<path fill="none" stroke="#63b8ff" d="M198.95,-69.57C210.02,-60.25 222.2,-49.98 232.46,-41.33"/>
<polygon fill="#63b8ff" stroke="#63b8ff" points="196.93,-66.7 191.54,-75.82 201.44,-72.05 196.93,-66.7"/>
</g>
</g>
</svg>
