<?xml version="1.0" encoding="UTF-8" standalone="no"?>
<!DOCTYPE svg PUBLIC "-//W3C//DTD SVG 1.1//EN"
 "http://www.w3.org/Graphics/SVG/1.1/DTD/svg11.dtd">
<!-- Generated by graphviz version 7.0.5 (20221223.1930)
 -->
<!-- Title: src/runtime/binaryen/module/wasm_module_instance.hpp Pages: 1 -->
<svg width="234pt" height="93pt"
 viewBox="0.00 0.00 234.00 93.00" xmlns="http://www.w3.org/2000/svg" xmlns:xlink="http://www.w3.org/1999/xlink">
<g id="graph0" class="graph" transform="scale(1 1) rotate(0) translate(4 89)">
<title>src/runtime/binaryen/module/wasm_module_instance.hpp</title>
<!-- Node1 -->
<g id="node1" class="node">
<title>Node1</title>
<g id="a_node1"><a xlink:title=" ">
<polygon fill="#999999" stroke="#666666" points="192.5,-85 15.5,-85 15.5,-55 192.5,-55 192.5,-85"/>
<text text-anchor="start" x="23.5" y="-73" font-family="Helvetica,sans-Serif" font-size="10.00">src/runtime/binaryen</text>
<text text-anchor="middle" x="104" y="-62" font-family="Helvetica,sans-Serif" font-size="10.00">/module/wasm_module_instance.hpp</text>
</a>
</g>
</g>
<!-- Node2 -->
<g id="node2" class="node">
<title>Node2</title>
<g id="a_node2"><a xlink:title=" ">
<polygon fill="#e0e0e0" stroke="#999999" points="86,-19 0,-19 0,0 86,0 86,-19"/>
<text text-anchor="middle" x="43" y="-7" font-family="Helvetica,sans-Serif" font-size="10.00">binaryen/literal.h</text>
</a>
</g>
</g>
<!-- Node1&#45;&gt;Node2 -->
<g id="edge1" class="edge">
<title>Node1&#45;&gt;Node2</title>
<path fill="none" stroke="#63b8ff" d="M88.92,-54.54C80.24,-46.22 69.3,-35.72 60.28,-27.07"/>
<polygon fill="#63b8ff" stroke="#63b8ff" points="62.78,-24.62 53.14,-20.22 57.93,-29.67 62.78,-24.62"/>
</g>
<!-- Node3 -->
<g id="node3" class="node">
<title>Node3</title>
<g id="a_node3"><a xlink:title=" ">
<polygon fill="#e0e0e0" stroke="#999999" points="226,-19 104,-19 104,0 226,0 226,-19"/>
<text text-anchor="middle" x="165" y="-7" font-family="Helvetica,sans-Serif" font-size="10.00">binaryen/support/name.h</text>
</a>
</g>
</g>
<!-- Node1&#45;&gt;Node3 -->
<g id="edge2" class="edge">
<title>Node1&#45;&gt;Node3</title>
<path fill="none" stroke="#63b8ff" d="M119.08,-54.54C127.76,-46.22 138.7,-35.72 147.72,-27.07"/>
<polygon fill="#63b8ff" stroke="#63b8ff" points="150.07,-29.67 154.86,-20.22 145.22,-24.62 150.07,-29.67"/>
</g>
</g>
</svg>
