<?xml version="1.0" encoding="UTF-8" standalone="no"?>
<!DOCTYPE svg PUBLIC "-//W3C//DTD SVG 1.1//EN"
 "http://www.w3.org/Graphics/SVG/1.1/DTD/svg11.dtd">
<!-- Generated by graphviz version 7.0.5 (20221223.1930)
 -->
<!-- Title: src/api/transport/impl/ws/ws_listener_impl.cpp Pages: 1 -->
<!--zoomable 357 -->
<svg id="main" version="1.1" xmlns="http://www.w3.org/2000/svg" xmlns:xlink="http://www.w3.org/1999/xlink" xml:space="preserve" onload="init(evt)">
<style type="text/css"><![CDATA[
.edge:hover path { stroke: red; }
.edge:hover polygon { stroke: red; fill: red; }
]]></style>
<script type="text/javascript"><![CDATA[
var edges = document.getElementsByTagName('g');
if (edges && edges.length) {
  for (var i=0;i<edges.length;i++) {
    if (edges[i].id.substr(0,4)=='edge') {
      edges[i].setAttribute('class','edge');
    }
  }
}
]]></script>
        <defs>
                <circle id="rim" cx="0" cy="0" r="7"/>
                <circle id="rim2" cx="0" cy="0" r="3.5"/>
                <g id="zoomPlus">
                        <use xlink:href="#rim" fill="#404040">
                                <set attributeName="fill" to="#808080" begin="zoomplus.mouseover" end="zoomplus.mouseout"/>
                        </use>
                        <path d="M-4,0h8M0,-4v8" fill="none" stroke="white" stroke-width="1.5" pointer-events="none"/>
                </g>
                <g id="zoomMin">
                        <use xlink:href="#rim" fill="#404040">
                                <set attributeName="fill" to="#808080" begin="zoomminus.mouseover" end="zoomminus.mouseout"/>
                        </use>
                        <path d="M-4,0h8" fill="none" stroke="white" stroke-width="1.5" pointer-events="none"/>
                </g>
                <g id="dirArrow">
                        <path fill="none" stroke="white" stroke-width="1.5" d="M0,-3.0v7 M-2.5,-0.5L0,-3.0L2.5,-0.5"/>
                </g>
               <g id="resetDef">
                       <use xlink:href="#rim2" fill="#404040">
                               <set attributeName="fill" to="#808080" begin="reset.mouseover" end="reset.mouseout"/>
                       </use>
               </g>
        </defs>

<script type="text/javascript">
var viewWidth = 1295;
var viewHeight = 357;
var sectionId = 'dynsection-0';
</script>
<script xlink:href="svgpan.js"/>
<svg id="graph" class="graph">
<g id="viewport">
<title>src/api/transport/impl/ws/ws_listener_impl.cpp</title>
<!-- Node1 -->
<g id="node1" class="node">
<title>Node1</title>
<g id="a_node1"><a xlink:title=" ">
<polygon fill="#999999" stroke="#666666" points="914.5,-349 788.5,-349 788.5,-319 914.5,-319 914.5,-349"/>
<text text-anchor="start" x="796.5" y="-337" font-family="Helvetica,sans-Serif" font-size="10.00">src/api/transport/impl</text>
<text text-anchor="middle" x="851.5" y="-326" font-family="Helvetica,sans-Serif" font-size="10.00">/ws/ws_listener_impl.cpp</text>
</a>
</g>
</g>
<!-- Node2 -->
<g id="node2" class="node">
<title>Node2</title>
<g id="a_node2"><a xlink:href="ws__listener__impl_8hpp.html" target="_top" xlink:title=" ">
<polygon fill="white" stroke="#666666" points="854.5,-283 728.5,-283 728.5,-253 854.5,-253 854.5,-283"/>
<text text-anchor="start" x="736.5" y="-271" font-family="Helvetica,sans-Serif" font-size="10.00">api/transport/impl</text>
<text text-anchor="middle" x="791.5" y="-260" font-family="Helvetica,sans-Serif" font-size="10.00">/ws/ws_listener_impl.hpp</text>
</a>
</g>
</g>
<!-- Node1&#45;&gt;Node2 -->
<g id="edge1" class="edge">
<title>Node1&#45;&gt;Node2</title>
<path fill="none" stroke="#63b8ff" d="M838.18,-318.8C830.65,-310.76 821.06,-300.53 812.53,-291.43"/>
<polygon fill="#63b8ff" stroke="#63b8ff" points="815.21,-289.17 805.81,-284.27 810.1,-293.96 815.21,-289.17"/>
</g>
<!-- Node26 -->
<g id="node26" class="node">
<title>Node26</title>
<g id="a_node26"><a xlink:title=" ">
<polygon fill="#e0e0e0" stroke="#999999" points="952.5,-277.5 872.5,-277.5 872.5,-258.5 952.5,-258.5 952.5,-277.5"/>
<text text-anchor="middle" x="912.5" y="-265.5" font-family="Helvetica,sans-Serif" font-size="10.00">boost/asio.hpp</text>
</a>
</g>
</g>
<!-- Node1&#45;&gt;Node26 -->
<g id="edge31" class="edge">
<title>Node1&#45;&gt;Node26</title>
<path fill="none" stroke="#63b8ff" d="M865.04,-318.8C874.27,-309.11 886.54,-296.24 896.29,-286.01"/>
<polygon fill="#63b8ff" stroke="#63b8ff" points="898.66,-288.59 903.03,-278.94 893.59,-283.76 898.66,-288.59"/>
</g>
<!-- Node3 -->
<g id="node3" class="node">
<title>Node3</title>
<g id="a_node3"><a xlink:href="listener_8hpp.html" target="_top" xlink:title=" ">
<polygon fill="white" stroke="#666666" points="416,-211.5 293,-211.5 293,-192.5 416,-192.5 416,-211.5"/>
<text text-anchor="middle" x="354.5" y="-199.5" font-family="Helvetica,sans-Serif" font-size="10.00">api/transport/listener.hpp</text>
</a>
</g>
</g>
<!-- Node2&#45;&gt;Node3 -->
<g id="edge2" class="edge">
<title>Node2&#45;&gt;Node3</title>
<path fill="none" stroke="#63b8ff" d="M728.42,-257.76C648.54,-246.06 511.19,-225.95 427.05,-213.63"/>
<polygon fill="#63b8ff" stroke="#63b8ff" points="427.69,-210.18 417.29,-212.2 426.68,-217.11 427.69,-210.18"/>
</g>
<!-- Node16 -->
<g id="node16" class="node">
<title>Node16</title>
<g id="a_node16"><a xlink:href="ws__session_8hpp.html" target="_top" xlink:title=" ">
<polygon fill="white" stroke="#666666" points="804,-217 699,-217 699,-187 804,-187 804,-217"/>
<text text-anchor="start" x="707" y="-205" font-family="Helvetica,sans-Serif" font-size="10.00">api/transport/impl</text>
<text text-anchor="middle" x="751.5" y="-194" font-family="Helvetica,sans-Serif" font-size="10.00">/ws/ws_session.hpp</text>
</a>
</g>
</g>
<!-- Node2&#45;&gt;Node16 -->
<g id="edge17" class="edge">
<title>Node2&#45;&gt;Node16</title>
<path fill="none" stroke="#63b8ff" d="M782.62,-252.8C777.86,-245.17 771.86,-235.57 766.4,-226.84"/>
<polygon fill="#63b8ff" stroke="#63b8ff" points="769.42,-225.07 761.15,-218.45 763.49,-228.78 769.42,-225.07"/>
</g>
<!-- Node22 -->
<g id="node22" class="node">
<title>Node22</title>
<g id="a_node22"><a xlink:href="logger_8hpp.html" target="_top" xlink:title=" ">
<polygon fill="white" stroke="#666666" points="1188,-145.5 1103,-145.5 1103,-126.5 1188,-126.5 1188,-145.5"/>
<text text-anchor="middle" x="1145.5" y="-133.5" font-family="Helvetica,sans-Serif" font-size="10.00">base/logger.hpp</text>
</a>
</g>
</g>
<!-- Node2&#45;&gt;Node22 -->
<g id="edge30" class="edge">
<title>Node2&#45;&gt;Node22</title>
<path fill="none" stroke="#63b8ff" d="M830.74,-252.59C900.34,-227.03 1044.31,-174.16 1110.65,-149.8"/>
<polygon fill="#63b8ff" stroke="#63b8ff" points="1111.75,-153.12 1119.93,-146.39 1109.33,-146.55 1111.75,-153.12"/>
</g>
<!-- Node25 -->
<g id="node25" class="node">
<title>Node25</title>
<g id="a_node25"><a xlink:href="app__state__manager_8hpp.html" target="_top" xlink:title=" ">
<polygon fill="white" stroke="#666666" points="1142,-217 1033,-217 1033,-187 1142,-187 1142,-217"/>
<text text-anchor="start" x="1041" y="-205" font-family="Helvetica,sans-Serif" font-size="10.00">application/app_state</text>
<text text-anchor="middle" x="1087.5" y="-194" font-family="Helvetica,sans-Serif" font-size="10.00">_manager.hpp</text>
</a>
</g>
</g>
<!-- Node2&#45;&gt;Node25 -->
<g id="edge28" class="edge">
<title>Node2&#45;&gt;Node25</title>
<path fill="none" stroke="#63b8ff" d="M855,-253.27C904.12,-242.65 971.9,-227.99 1021.61,-217.25"/>
<polygon fill="#63b8ff" stroke="#63b8ff" points="1022.05,-220.73 1031.08,-215.2 1020.57,-213.89 1022.05,-220.73"/>
</g>
<!-- Node4 -->
<g id="node4" class="node">
<title>Node4</title>
<g id="a_node4"><a xlink:title=" ">
<polygon fill="#e0e0e0" stroke="#999999" points="266,-79.5 159,-79.5 159,-60.5 266,-60.5 266,-79.5"/>
<text text-anchor="middle" x="212.5" y="-67.5" font-family="Helvetica,sans-Serif" font-size="10.00">boost/asio/ip/tcp.hpp</text>
</a>
</g>
</g>
<!-- Node3&#45;&gt;Node4 -->
<g id="edge3" class="edge">
<title>Node3&#45;&gt;Node4</title>
<path fill="none" stroke="#63b8ff" d="M344.74,-192.06C321.23,-170.54 261.17,-115.55 230.74,-87.7"/>
<polygon fill="#63b8ff" stroke="#63b8ff" points="233.18,-85.19 223.44,-81.02 228.46,-90.35 233.18,-85.19"/>
</g>
<!-- Node5 -->
<g id="node5" class="node">
<title>Node5</title>
<g id="a_node5"><a xlink:title=" ">
<polygon fill="#e0e0e0" stroke="#999999" points="407,-145.5 356,-145.5 356,-126.5 407,-126.5 407,-145.5"/>
<text text-anchor="middle" x="381.5" y="-133.5" font-family="Helvetica,sans-Serif" font-size="10.00">memory</text>
</a>
</g>
</g>
<!-- Node3&#45;&gt;Node5 -->
<g id="edge4" class="edge">
<title>Node3&#45;&gt;Node5</title>
<path fill="none" stroke="#63b8ff" d="M358.25,-192.1C362.16,-182.84 368.41,-168.04 373.44,-156.11"/>
<polygon fill="#63b8ff" stroke="#63b8ff" points="376.53,-157.79 377.19,-147.22 370.08,-155.07 376.53,-157.79"/>
</g>
<!-- Node6 -->
<g id="node6" class="node">
<title>Node6</title>
<g id="a_node6"><a xlink:href="rpc__io__context_8hpp.html" target="_top" xlink:title=" ">
<polygon fill="white" stroke="#666666" points="384.5,-85 284.5,-85 284.5,-55 384.5,-55 384.5,-85"/>
<text text-anchor="start" x="292.5" y="-73" font-family="Helvetica,sans-Serif" font-size="10.00">api/transport/rpc_io</text>
<text text-anchor="middle" x="334.5" y="-62" font-family="Helvetica,sans-Serif" font-size="10.00">_context.hpp</text>
</a>
</g>
</g>
<!-- Node3&#45;&gt;Node6 -->
<g id="edge5" class="edge">
<title>Node3&#45;&gt;Node6</title>
<path fill="none" stroke="#63b8ff" d="M353.06,-192.15C351.44,-182.16 348.74,-165.42 346.5,-151 343.67,-132.75 340.58,-112.14 338.25,-96.42"/>
<polygon fill="#63b8ff" stroke="#63b8ff" points="341.77,-96.34 336.85,-86.96 334.85,-97.36 341.77,-96.34"/>
</g>
<!-- Node8 -->
<g id="node8" class="node">
<title>Node8</title>
<g id="a_node8"><a xlink:href="session_8hpp.html" target="_top" xlink:title=" ">
<polygon fill="white" stroke="#666666" points="550,-145.5 425,-145.5 425,-126.5 550,-126.5 550,-145.5"/>
<text text-anchor="middle" x="487.5" y="-133.5" font-family="Helvetica,sans-Serif" font-size="10.00">api/transport/session.hpp</text>
</a>
</g>
</g>
<!-- Node3&#45;&gt;Node8 -->
<g id="edge7" class="edge">
<title>Node3&#45;&gt;Node8</title>
<path fill="none" stroke="#63b8ff" d="M372.99,-192.1C395.23,-181.4 432.79,-163.33 458.8,-150.81"/>
<polygon fill="#63b8ff" stroke="#63b8ff" points="460.31,-153.97 467.8,-146.48 457.27,-147.66 460.31,-153.97"/>
</g>
<!-- Node14 -->
<g id="node14" class="node">
<title>Node14</title>
<g id="a_node14"><a xlink:href="outcome_8hpp.html" target="_top" xlink:title=" ">
<polygon fill="white" stroke="#666666" points="191,-145.5 78,-145.5 78,-126.5 191,-126.5 191,-145.5"/>
<text text-anchor="middle" x="134.5" y="-133.5" font-family="Helvetica,sans-Serif" font-size="10.00">outcome/outcome.hpp</text>
</a>
</g>
</g>
<!-- Node3&#45;&gt;Node14 -->
<g id="edge15" class="edge">
<title>Node3&#45;&gt;Node14</title>
<path fill="none" stroke="#63b8ff" d="M323.91,-192.1C285.43,-180.91 219.21,-161.64 176.14,-149.11"/>
<polygon fill="#63b8ff" stroke="#63b8ff" points="177.22,-145.78 166.64,-146.35 175.26,-152.5 177.22,-145.78"/>
</g>
<!-- Node7 -->
<g id="node7" class="node">
<title>Node7</title>
<g id="a_node7"><a xlink:title=" ">
<polygon fill="#e0e0e0" stroke="#999999" points="398,-19 271,-19 271,0 398,0 398,-19"/>
<text text-anchor="middle" x="334.5" y="-7" font-family="Helvetica,sans-Serif" font-size="10.00">boost/asio/io_context.hpp</text>
</a>
</g>
</g>
<!-- Node6&#45;&gt;Node7 -->
<g id="edge6" class="edge">
<title>Node6&#45;&gt;Node7</title>
<path fill="none" stroke="#63b8ff" d="M334.5,-54.54C334.5,-47.34 334.5,-38.53 334.5,-30.68"/>
<polygon fill="#63b8ff" stroke="#63b8ff" points="338,-30.69 334.5,-20.69 331,-30.69 338,-30.69"/>
</g>
<!-- Node8&#45;&gt;Node4 -->
<g id="edge9" class="edge">
<title>Node8&#45;&gt;Node4</title>
<path fill="none" stroke="#63b8ff" d="M448.97,-126.03C399.98,-114.63 315.33,-94.93 261.71,-82.45"/>
<polygon fill="#63b8ff" stroke="#63b8ff" points="262.77,-79.11 252.24,-80.25 261.19,-85.92 262.77,-79.11"/>
</g>
<!-- Node8&#45;&gt;Node6 -->
<g id="edge14" class="edge">
<title>Node8&#45;&gt;Node6</title>
<path fill="none" stroke="#63b8ff" d="M466.23,-126.1C443.95,-116.78 408.29,-101.86 379.68,-89.9"/>
<polygon fill="#63b8ff" stroke="#63b8ff" points="381.08,-86.69 370.51,-86.06 378.38,-93.15 381.08,-86.69"/>
</g>
<!-- Node9 -->
<g id="node9" class="node">
<title>Node9</title>
<g id="a_node9"><a xlink:title=" ">
<polygon fill="#e0e0e0" stroke="#999999" points="510,-79.5 403,-79.5 403,-60.5 510,-60.5 510,-79.5"/>
<text text-anchor="middle" x="456.5" y="-67.5" font-family="Helvetica,sans-Serif" font-size="10.00">boost/asio/buffer.hpp</text>
</a>
</g>
</g>
<!-- Node8&#45;&gt;Node9 -->
<g id="edge8" class="edge">
<title>Node8&#45;&gt;Node9</title>
<path fill="none" stroke="#63b8ff" d="M483.19,-126.1C478.7,-116.84 471.53,-102.04 465.75,-90.11"/>
<polygon fill="#63b8ff" stroke="#63b8ff" points="468.94,-88.66 461.43,-81.19 462.64,-91.71 468.94,-88.66"/>
</g>
<!-- Node10 -->
<g id="node10" class="node">
<title>Node10</title>
<g id="a_node10"><a xlink:title=" ">
<polygon fill="#e0e0e0" stroke="#999999" points="653,-79.5 528,-79.5 528,-60.5 653,-60.5 653,-79.5"/>
<text text-anchor="middle" x="590.5" y="-67.5" font-family="Helvetica,sans-Serif" font-size="10.00">boost/asio/read_until.hpp</text>
</a>
</g>
</g>
<!-- Node8&#45;&gt;Node10 -->
<g id="edge10" class="edge">
<title>Node8&#45;&gt;Node10</title>
<path fill="none" stroke="#63b8ff" d="M501.82,-126.1C518.58,-115.69 546.58,-98.29 566.64,-85.83"/>
<polygon fill="#63b8ff" stroke="#63b8ff" points="568.37,-88.87 575.01,-80.62 564.67,-82.93 568.37,-88.87"/>
</g>
<!-- Node11 -->
<g id="node11" class="node">
<title>Node11</title>
<g id="a_node11"><a xlink:title=" ">
<polygon fill="#e0e0e0" stroke="#999999" points="797.5,-79.5 671.5,-79.5 671.5,-60.5 797.5,-60.5 797.5,-79.5"/>
<text text-anchor="middle" x="734.5" y="-67.5" font-family="Helvetica,sans-Serif" font-size="10.00">boost/asio/streambuf.hpp</text>
</a>
</g>
</g>
<!-- Node8&#45;&gt;Node11 -->
<g id="edge11" class="edge">
<title>Node8&#45;&gt;Node11</title>
<path fill="none" stroke="#63b8ff" d="M522.1,-126.03C565.74,-114.73 640.87,-95.26 689.08,-82.77"/>
<polygon fill="#63b8ff" stroke="#63b8ff" points="689.86,-86.18 698.66,-80.29 688.11,-79.41 689.86,-86.18"/>
</g>
<!-- Node12 -->
<g id="node12" class="node">
<title>Node12</title>
<g id="a_node12"><a xlink:title=" ">
<polygon fill="#e0e0e0" stroke="#999999" points="919.5,-79.5 815.5,-79.5 815.5,-60.5 919.5,-60.5 919.5,-79.5"/>
<text text-anchor="middle" x="867.5" y="-67.5" font-family="Helvetica,sans-Serif" font-size="10.00">boost/asio/write.hpp</text>
</a>
</g>
</g>
<!-- Node8&#45;&gt;Node12 -->
<g id="edge12" class="edge">
<title>Node8&#45;&gt;Node12</title>
<path fill="none" stroke="#63b8ff" d="M531.99,-126.01C541.08,-124.27 550.59,-122.52 559.5,-121 668.87,-102.41 697.46,-105.42 806.5,-85 810.76,-84.2 815.18,-83.31 819.6,-82.38"/>
<polygon fill="#63b8ff" stroke="#63b8ff" points="820,-85.87 829.02,-80.32 818.51,-79.03 820,-85.87"/>
</g>
<!-- Node13 -->
<g id="node13" class="node">
<title>Node13</title>
<g id="a_node13"><a xlink:title=" ">
<polygon fill="#e0e0e0" stroke="#999999" points="1063.5,-79.5 937.5,-79.5 937.5,-60.5 1063.5,-60.5 1063.5,-79.5"/>
<text text-anchor="middle" x="1000.5" y="-67.5" font-family="Helvetica,sans-Serif" font-size="10.00">boost/signals2/signal.hpp</text>
</a>
</g>
</g>
<!-- Node8&#45;&gt;Node13 -->
<g id="edge13" class="edge">
<title>Node8&#45;&gt;Node13</title>
<path fill="none" stroke="#63b8ff" d="M530.03,-126.04C539.69,-124.2 549.92,-122.4 559.5,-121 722.56,-97.25 765.44,-108.75 928.5,-85 934.49,-84.13 940.73,-83.1 946.93,-82"/>
<polygon fill="#63b8ff" stroke="#63b8ff" points="947.28,-85.49 956.48,-80.24 946.02,-78.61 947.28,-85.49"/>
</g>
<!-- Node15 -->
<g id="node15" class="node">
<title>Node15</title>
<g id="a_node15"><a xlink:title=" ">
<polygon fill="#e0e0e0" stroke="#999999" points="141,-79.5 0,-79.5 0,-60.5 141,-60.5 141,-79.5"/>
<text text-anchor="middle" x="70.5" y="-67.5" font-family="Helvetica,sans-Serif" font-size="10.00">libp2p/outcome/outcome.hpp</text>
</a>
</g>
</g>
<!-- Node14&#45;&gt;Node15 -->
<g id="edge16" class="edge">
<title>Node14&#45;&gt;Node15</title>
<path fill="none" stroke="#63b8ff" d="M125.6,-126.1C115.76,-116.26 99.68,-100.18 87.43,-87.93"/>
<polygon fill="#63b8ff" stroke="#63b8ff" points="89.94,-85.49 80.39,-80.89 84.99,-90.44 89.94,-85.49"/>
</g>
<!-- Node16&#45;&gt;Node5 -->
<g id="edge23" class="edge">
<title>Node16&#45;&gt;Node5</title>
<path fill="none" stroke="#63b8ff" d="M698.79,-196.94C632.14,-190.95 514.27,-177.46 416.5,-151 415.11,-150.62 413.71,-150.21 412.3,-149.77"/>
<polygon fill="#63b8ff" stroke="#63b8ff" points="413.61,-146.52 403.01,-146.47 411.26,-153.11 413.61,-146.52"/>
</g>
<!-- Node16&#45;&gt;Node8 -->
<g id="edge24" class="edge">
<title>Node16&#45;&gt;Node8</title>
<path fill="none" stroke="#63b8ff" d="M698.71,-188.2C651.03,-176.64 581.47,-159.78 535.37,-148.61"/>
<polygon fill="#63b8ff" stroke="#63b8ff" points="536.49,-145.27 525.95,-146.32 534.84,-152.08 536.49,-145.27"/>
</g>
<!-- Node17 -->
<g id="node17" class="node">
<title>Node17</title>
<g id="a_node17"><a xlink:title=" ">
<polygon fill="#e0e0e0" stroke="#999999" points="806.5,-145.5 696.5,-145.5 696.5,-126.5 806.5,-126.5 806.5,-145.5"/>
<text text-anchor="middle" x="751.5" y="-133.5" font-family="Helvetica,sans-Serif" font-size="10.00">boost/asio/strand.hpp</text>
</a>
</g>
</g>
<!-- Node16&#45;&gt;Node17 -->
<g id="edge18" class="edge">
<title>Node16&#45;&gt;Node17</title>
<path fill="none" stroke="#63b8ff" d="M751.5,-186.8C751.5,-178.09 751.5,-166.81 751.5,-157.18"/>
<polygon fill="#63b8ff" stroke="#63b8ff" points="755,-157.36 751.5,-147.36 748,-157.36 755,-157.36"/>
</g>
<!-- Node18 -->
<g id="node18" class="node">
<title>Node18</title>
<g id="a_node18"><a xlink:title=" ">
<polygon fill="#e0e0e0" stroke="#999999" points="930.5,-151 824.5,-151 824.5,-121 930.5,-121 930.5,-151"/>
<text text-anchor="start" x="832.5" y="-139" font-family="Helvetica,sans-Serif" font-size="10.00">boost/beast/core/tcp</text>
<text text-anchor="middle" x="877.5" y="-128" font-family="Helvetica,sans-Serif" font-size="10.00">_stream.hpp</text>
</a>
</g>
</g>
<!-- Node16&#45;&gt;Node18 -->
<g id="edge19" class="edge">
<title>Node16&#45;&gt;Node18</title>
<path fill="none" stroke="#63b8ff" d="M779.78,-186.64C797.29,-177.74 820,-166.21 839.12,-156.49"/>
<polygon fill="#63b8ff" stroke="#63b8ff" points="840.64,-159.65 847.97,-152 837.47,-153.41 840.64,-159.65"/>
</g>
<!-- Node19 -->
<g id="node19" class="node">
<title>Node19</title>
<g id="a_node19"><a xlink:title=" ">
<polygon fill="#e0e0e0" stroke="#999999" points="1084.5,-145.5 948.5,-145.5 948.5,-126.5 1084.5,-126.5 1084.5,-145.5"/>
<text text-anchor="middle" x="1016.5" y="-133.5" font-family="Helvetica,sans-Serif" font-size="10.00">boost/beast/websocket.hpp</text>
</a>
</g>
</g>
<!-- Node16&#45;&gt;Node19 -->
<g id="edge20" class="edge">
<title>Node16&#45;&gt;Node19</title>
<path fill="none" stroke="#63b8ff" d="M804.49,-188.2C852.35,-176.64 922.18,-159.78 968.45,-148.61"/>
<polygon fill="#63b8ff" stroke="#63b8ff" points="969.02,-152.07 977.91,-146.32 967.37,-145.26 969.02,-152.07"/>
</g>
<!-- Node20 -->
<g id="node20" class="node">
<title>Node20</title>
<g id="a_node20"><a xlink:title=" ">
<polygon fill="#e0e0e0" stroke="#999999" points="614.5,-145.5 568.5,-145.5 568.5,-126.5 614.5,-126.5 614.5,-145.5"/>
<text text-anchor="middle" x="591.5" y="-133.5" font-family="Helvetica,sans-Serif" font-size="10.00">chrono</text>
</a>
</g>
</g>
<!-- Node16&#45;&gt;Node20 -->
<g id="edge21" class="edge">
<title>Node16&#45;&gt;Node20</title>
<path fill="none" stroke="#63b8ff" d="M714.16,-186.6C688.81,-176.74 654.55,-163.29 624.5,-151 624.01,-150.8 623.52,-150.6 623.02,-150.39"/>
<polygon fill="#63b8ff" stroke="#63b8ff" points="624.39,-147.17 613.81,-146.55 621.69,-153.63 624.39,-147.17"/>
</g>
<!-- Node21 -->
<g id="node21" class="node">
<title>Node21</title>
<g id="a_node21"><a xlink:title=" ">
<polygon fill="#e0e0e0" stroke="#999999" points="678,-145.5 633,-145.5 633,-126.5 678,-126.5 678,-145.5"/>
<text text-anchor="middle" x="655.5" y="-133.5" font-family="Helvetica,sans-Serif" font-size="10.00">cstdlib</text>
</a>
</g>
</g>
<!-- Node16&#45;&gt;Node21 -->
<g id="edge22" class="edge">
<title>Node16&#45;&gt;Node21</title>
<path fill="none" stroke="#63b8ff" d="M730.19,-186.8C714.79,-176.53 694,-162.67 678.27,-152.18"/>
<polygon fill="#63b8ff" stroke="#63b8ff" points="680.29,-149.32 670.03,-146.68 676.4,-155.14 680.29,-149.32"/>
</g>
<!-- Node16&#45;&gt;Node22 -->
<g id="edge25" class="edge">
<title>Node16&#45;&gt;Node22</title>
<path fill="none" stroke="#63b8ff" d="M804.27,-195.24C871.75,-187.43 991.99,-172.01 1093.5,-151 1096.83,-150.31 1100.26,-149.54 1103.69,-148.71"/>
<polygon fill="#63b8ff" stroke="#63b8ff" points="1104.26,-152.18 1113.1,-146.34 1102.55,-145.39 1104.26,-152.18"/>
</g>
<!-- Node23 -->
<g id="node23" class="node">
<title>Node23</title>
<g id="a_node23"><a xlink:title=" ">
<polygon fill="#e0e0e0" stroke="#999999" points="1184,-79.5 1095,-79.5 1095,-60.5 1184,-60.5 1184,-79.5"/>
<text text-anchor="middle" x="1139.5" y="-67.5" font-family="Helvetica,sans-Serif" font-size="10.00">spdlog/fmt/ostr.h</text>
</a>
</g>
</g>
<!-- Node22&#45;&gt;Node23 -->
<g id="edge26" class="edge">
<title>Node22&#45;&gt;Node23</title>
<path fill="none" stroke="#63b8ff" d="M1144.67,-126.1C1143.82,-117.12 1142.49,-102.95 1141.4,-91.22"/>
<polygon fill="#63b8ff" stroke="#63b8ff" points="1144.89,-90.96 1140.47,-81.33 1137.92,-91.61 1144.89,-90.96"/>
</g>
<!-- Node24 -->
<g id="node24" class="node">
<title>Node24</title>
<g id="a_node24"><a xlink:title=" ">
<polygon fill="#e0e0e0" stroke="#999999" points="1286.5,-79.5 1202.5,-79.5 1202.5,-60.5 1286.5,-60.5 1286.5,-79.5"/>
<text text-anchor="middle" x="1244.5" y="-67.5" font-family="Helvetica,sans-Serif" font-size="10.00">spdlog/spdlog.h</text>
</a>
</g>
</g>
<!-- Node22&#45;&gt;Node24 -->
<g id="edge27" class="edge">
<title>Node22&#45;&gt;Node24</title>
<path fill="none" stroke="#63b8ff" d="M1159.27,-126.1C1175.3,-115.74 1202.04,-98.45 1221.3,-86"/>
<polygon fill="#63b8ff" stroke="#63b8ff" points="1223.08,-89.01 1229.58,-80.65 1219.28,-83.13 1223.08,-89.01"/>
</g>
<!-- Node25&#45;&gt;Node22 -->
<g id="edge29" class="edge">
<title>Node25&#45;&gt;Node22</title>
<path fill="none" stroke="#63b8ff" d="M1100.37,-186.8C1109.06,-177.21 1120.58,-164.5 1129.8,-154.32"/>
<polygon fill="#63b8ff" stroke="#63b8ff" points="1132.35,-156.73 1136.47,-146.97 1127.16,-152.03 1132.35,-156.73"/>
</g>
</g>
</svg>
        <g id="navigator" transform="translate(0 0)" fill="#404254">
                <rect fill="#f2f5e9" fill-opacity="0.5" stroke="#606060" stroke-width=".5" x="0" y="0" width="60" height="60"/>
                <use id="zoomplus" xlink:href="#zoomPlus" x="17" y="9" onmousedown="handleZoom(evt,'in')"/>
                <use id="zoomminus" xlink:href="#zoomMin" x="42" y="9" onmousedown="handleZoom(evt,'out')"/>
                <use id="reset" xlink:href="#resetDef" x="30" y="36" onmousedown="handleReset()"/>
                <g id="arrowUp" xlink:href="#dirArrow" transform="translate(30 24)" onmousedown="handlePan(0,-1)">
                  <use xlink:href="#rim" fill="#404040">
                        <set attributeName="fill" to="#808080" begin="arrowUp.mouseover" end="arrowUp.mouseout"/>
                  </use>
                  <path fill="none" stroke="white" stroke-width="1.5" d="M0,-3.0v7 M-2.5,-0.5L0,-3.0L2.5,-0.5"/>
                </g>
                <g id="arrowRight" xlink:href="#dirArrow" transform="rotate(90) translate(36 -43)" onmousedown="handlePan(1,0)">
                  <use xlink:href="#rim" fill="#404040">
                        <set attributeName="fill" to="#808080" begin="arrowRight.mouseover" end="arrowRight.mouseout"/>
                  </use>
                  <path fill="none" stroke="white" stroke-width="1.5" d="M0,-3.0v7 M-2.5,-0.5L0,-3.0L2.5,-0.5"/>
                </g>
                <g id="arrowDown" xlink:href="#dirArrow" transform="rotate(180) translate(-30 -48)" onmousedown="handlePan(0,1)">
                  <use xlink:href="#rim" fill="#404040">
                        <set attributeName="fill" to="#808080" begin="arrowDown.mouseover" end="arrowDown.mouseout"/>
                  </use>
                  <path fill="none" stroke="white" stroke-width="1.5" d="M0,-3.0v7 M-2.5,-0.5L0,-3.0L2.5,-0.5"/>
                </g>
                <g id="arrowLeft" xlink:href="#dirArrow" transform="rotate(270) translate(-36 17)" onmousedown="handlePan(-1,0)">
                  <use xlink:href="#rim" fill="#404040">
                        <set attributeName="fill" to="#808080" begin="arrowLeft.mouseover" end="arrowLeft.mouseout"/>
                  </use>
                  <path fill="none" stroke="white" stroke-width="1.5" d="M0,-3.0v7 M-2.5,-0.5L0,-3.0L2.5,-0.5"/>
                </g>
        </g>
        <svg viewBox="0 0 15 15" width="100%" height="30px" preserveAspectRatio="xMaxYMin meet">
         <g id="arrow_out" transform="scale(0.3 0.3)">
          <a xlink:href="ws__listener__impl_8cpp__incl_org.svg" target="_base">
           <rect id="button" ry="5" rx="5" y="6" x="6" height="38" width="38"
                fill="#f2f5e9" fill-opacity="0.5" stroke="#606060" stroke-width="1.0"/>
           <path id="arrow"
             d="M 11.500037,31.436501 C 11.940474,20.09759 22.043105,11.32322 32.158766,21.979434 L 37.068811,17.246167 C 37.068811,17.246167 37.088388,32 37.088388,32 L 22.160133,31.978069 C 22.160133,31.978069 26.997745,27.140456 26.997745,27.140456 C 18.528582,18.264221 13.291696,25.230495 11.500037,31.436501 z"
             style="fill:#404040;"/>
          </a>
         </g>
        </svg>
</svg>
